<?xml version="1.0" encoding="UTF-8" standalone="no"?>
<!-- Created with Inkscape (http://www.inkscape.org/) -->
<svg
   xmlns:svg="http://www.w3.org/2000/svg"
   xmlns="http://www.w3.org/2000/svg"
   version="1.0"
   width="256.28003"
   height="249.99994"
   id="svg4242">
  <defs
     id="defs4244">
    <clipPath
       id="clipPath3196">
      <path
         d="M 1018.006,1058.949 L 1633.274,1058.949 L 1633.274,1659.138 L 1018.006,1659.138 L 1018.006,1058.949 z"
         id="path3198" />
    </clipPath>
  </defs>
  <g
     transform="matrix(0.333228,0,0,0.333228,2.4654457,-7.6503484)"
     id="layer1">
    <g
       transform="matrix(1.25,0,0,-1.25,-1279.9073,2096.8808)"
       id="g3192">
      <g
         clip-path="url(#clipPath3196)"
         id="g3194">
        <g
           transform="translate(1098.3577,1286.9165)"
           id="g3200">
          <path
             d="M 0,0 C 0.006,125.906 102.058,227.958 227.963,227.964 C 353.866,227.958 455.921,125.906 455.932,0 C 455.921,-125.906 353.866,-227.961 227.963,-227.968 C 102.058,-227.961 0.006,-125.906 0,0"
             id="path3202"
             style="fill:#231f20;fill-opacity:1;fill-rule:nonzero;stroke:none" />
        </g>
        <g
           transform="translate(1381.2715,1422.4719)"
           id="g3204">
          <path
             d="M 0,0 C -2.958,4.813 -3.196,10.041 -0.535,11.675 C 2.127,13.31 6.679,10.732 9.637,5.919 C 12.594,1.107 12.833,-4.122 10.173,-5.756 C 7.509,-7.391 2.956,-4.813 0,0 M -146.532,-122.851 C -147.907,-125.28 -153.119,-124.929 -158.169,-122.066 C -163.221,-119.203 -166.202,-114.915 -164.827,-112.486 C -163.45,-110.057 -158.238,-110.406 -153.185,-113.271 C -148.136,-116.131 -145.153,-120.423 -146.532,-122.851 M 87.983,-213.785 C 75.245,-219.17 60.743,-220.29 46.655,-215.941 C 14.262,-205.943 -3.666,-170.861 6.604,-137.586 C 16.239,-106.377 47.249,-87.839 77.788,-93.901 C 82.823,-77.553 98.756,-65.602 117.644,-65.602 C 122.295,-65.602 126.765,-66.329 130.938,-67.663 C 128.073,-65.784 125.403,-63.28 123.183,-60.181 C 120.206,-56.026 118.478,-51.45 117.943,-47.059 C 110.136,-55.995 97.983,-61.753 84.302,-61.753 C 74.778,-61.753 65.984,-58.969 58.884,-54.264 C 57.887,-63.616 50.059,-70.9 40.54,-70.9 C 30.349,-70.9 22.084,-62.547 22.084,-52.245 C 22.084,-45.376 25.769,-39.39 31.235,-36.151 C 26.588,-30.449 23.732,-22.905 23.732,-14.598 C 23.732,-3.159 29.121,6.859 37.213,12.551 C 35.561,13.994 34.221,15.763 33.304,17.764 C 29.716,15.828 25.593,14.719 21.204,14.719 C 7.356,14.719 -3.87,25.692 -3.87,39.227 C -3.87,48.63 1.552,56.786 9.499,60.896 C -10.829,67.555 -32.534,71.171 -55.087,71.171 C -75.983,71.171 -96.15,68.068 -115.169,62.316 C -107.51,57.662 -102.384,49.316 -102.384,39.761 C -102.384,38.47 -102.508,37.211 -102.689,35.97 C -93.401,31.832 -85.185,24.97 -79.355,15.685 C -63.84,-9.026 -71.111,-41.518 -95.594,-56.889 C -106.696,-63.86 -119.427,-66.099 -131.477,-64.176 C -134.614,-69.089 -138.598,-73.655 -143.359,-77.647 C -142.738,-79.105 -142.388,-80.711 -142.388,-82.4 C -142.388,-89.032 -147.708,-94.411 -154.271,-94.411 C -158.374,-94.411 -161.993,-92.308 -164.126,-89.111 C -174.248,-92.326 -184.669,-92.63 -194.04,-90.192 C -190.033,-94.827 -186.251,-100.534 -183.079,-107.015 C -172.912,-127.778 -172.839,-148.609 -182.913,-153.542 C -192.989,-158.475 -209.401,-145.642 -219.564,-124.88 C -225.069,-113.639 -227.61,-102.382 -227.187,-93.634 C -231.221,-91.789 -235.199,-88.983 -238.695,-85.259 C -246.281,-77.175 -249.492,-67.109 -247.727,-59.421 C -257.185,-83.15 -262.392,-109.032 -262.392,-136.134 C -262.392,-218.47 -214.389,-289.596 -144.842,-323.052 C -154.323,-315.624 -162.723,-302.615 -167.256,-286.654 C -169.772,-277.797 -170.795,-269.086 -170.497,-261.153 C -188.337,-254.046 -200.912,-236.936 -200.912,-216.946 C -200.912,-200.238 -192.127,-185.546 -178.83,-177.019 C -171.84,-159.014 -154.039,-146.213 -133.165,-146.213 C -110.527,-146.213 -91.496,-161.269 -85.964,-181.697 C -61.399,-188.687 -43.443,-210.843 -43.443,-237.11 C -43.443,-264.962 -63.621,-288.203 -90.466,-293.634 C -95.646,-315.339 -108.404,-331.118 -122.152,-332.345 C -101.115,-339.533 -78.558,-343.44 -55.087,-343.44 C 5.621,-343.44 60.234,-317.34 98.148,-275.753 C 96.201,-273.264 94.372,-270.493 92.66,-267.33 C 83.353,-250.136 82.235,-230.748 87.983,-213.785"
             id="path3206"
             style="fill:#8cdaf8;fill-opacity:1;fill-rule:nonzero;stroke:none" />
        </g>
        <g
           transform="translate(1313.9741,1568.4248)"
           id="g3208">
          <path
             d="M 0,0 L 0,78.065 C 0,85.052 5.66,90.714 12.651,90.714 C 19.635,90.714 25.3,85.052 25.3,78.065 L 25.3,0 C 25.3,-6.983 19.635,-12.649 12.651,-12.649 C 5.66,-12.649 0,-6.98 0,0"
             id="path3210"
             style="fill:#231f20;fill-opacity:1;fill-rule:nonzero;stroke:none" />
        </g>
        <g
           transform="translate(1451.0591,1526.2722)"
           id="g3212">
          <path
             d="M 0,0 C -4.542,2.176 -7.193,6.707 -7.19,11.424 C -7.193,13.255 -6.791,15.113 -5.948,16.87 L 27.751,87.286 C 29.921,91.828 34.451,94.479 39.168,94.476 C 40.999,94.479 42.862,94.077 44.622,93.232 C 49.159,91.064 51.812,86.536 51.812,81.819 C 51.812,79.988 51.415,78.125 50.572,76.362 L 16.871,5.95 C 14.695,1.415 10.17,-1.241 5.451,-1.241 C 3.622,-1.241 1.762,-0.84 0,0"
             id="path3214"
             style="fill:#231f20;fill-opacity:1;fill-rule:nonzero;stroke:none" />
        </g>
        <g
           transform="translate(1196.1555,1526.2722)"
           id="g3216">
          <path
             d="M 0,0 C -1.762,-0.84 -3.622,-1.241 -5.451,-1.241 C -10.17,-1.241 -14.695,1.415 -16.871,5.95 L -50.572,76.362 C -51.415,78.125 -51.812,79.988 -51.812,81.819 C -51.812,86.536 -49.159,91.064 -44.622,93.232 C -42.862,94.077 -40.999,94.479 -39.168,94.476 C -34.451,94.479 -29.921,91.828 -27.751,87.286 L 5.948,16.87 C 6.791,15.113 7.193,13.255 7.19,11.424 C 7.193,6.707 4.542,2.176 0,0"
             id="path3218"
             style="fill:#231f20;fill-opacity:1;fill-rule:nonzero;stroke:none" />
        </g>
        <g
           transform="translate(1313.9741,1568.4248)"
           id="g3220">
          <path
             d="M 0,0 L 0,78.065 C 0,85.052 5.66,90.714 12.651,90.714 C 19.635,90.714 25.3,85.052 25.3,78.065 L 25.3,0 C 25.3,-6.983 19.635,-12.649 12.651,-12.649 C 5.66,-12.649 0,-6.98 0,0"
             id="path3222"
             style="fill:#231f20;fill-opacity:1;fill-rule:nonzero;stroke:none" />
        </g>
        <g
           transform="translate(1451.0591,1526.2722)"
           id="g3224">
          <path
             d="M 0,0 C -4.542,2.176 -7.193,6.707 -7.19,11.424 C -7.193,13.255 -6.791,15.113 -5.948,16.87 L 27.751,87.286 C 29.921,91.828 34.451,94.479 39.168,94.476 C 40.999,94.479 42.862,94.077 44.622,93.232 C 49.159,91.064 51.812,86.536 51.812,81.819 C 51.812,79.988 51.415,78.125 50.572,76.362 L 16.871,5.95 C 14.695,1.415 10.17,-1.241 5.451,-1.241 C 3.622,-1.241 1.762,-0.84 0,0"
             id="path3226"
             style="fill:#231f20;fill-opacity:1;fill-rule:nonzero;stroke:none" />
        </g>
        <g
           transform="translate(1196.1555,1526.2722)"
           id="g3228">
          <path
             d="M 0,0 C -1.762,-0.84 -3.622,-1.241 -5.451,-1.241 C -10.17,-1.241 -14.695,1.415 -16.871,5.95 L -50.572,76.362 C -51.415,78.125 -51.812,79.988 -51.812,81.819 C -51.812,86.536 -49.159,91.064 -44.622,93.232 C -42.862,94.077 -40.999,94.479 -39.168,94.476 C -34.451,94.479 -29.921,91.828 -27.751,87.286 L 5.948,16.87 C 6.791,15.113 7.193,13.255 7.19,11.424 C 7.193,6.707 4.542,2.176 0,0"
             id="path3230"
             style="fill:#231f20;fill-opacity:1;fill-rule:nonzero;stroke:none" />
        </g>
        <g
           transform="translate(1543.5724,1447.9526)"
           id="g3232">
          <path
             d="M 0,0 C -1.297,2.076 -1.911,4.387 -1.911,6.666 C -1.911,10.895 0.213,15.027 4.067,17.423 L 70.377,58.616 C 72.45,59.907 74.759,60.523 77.038,60.523 C 81.267,60.523 85.404,58.398 87.801,54.542 C 89.086,52.468 89.701,50.158 89.701,47.879 C 89.701,43.653 87.583,39.517 83.73,37.122 L 17.415,-4.07 C 15.34,-5.358 13.029,-5.974 10.754,-5.974 C 6.528,-5.974 2.394,-3.853 0,0"
             id="path3234"
             style="fill:#231f20;fill-opacity:1;fill-rule:nonzero;stroke:none" />
        </g>
        <g
           transform="translate(1107.7079,1447.9526)"
           id="g3236">
          <path
             d="M 0,0 C -2.394,-3.853 -6.529,-5.974 -10.755,-5.974 C -13.031,-5.974 -15.34,-5.358 -17.415,-4.07 L -83.73,37.122 C -87.583,39.517 -89.701,43.653 -89.701,47.879 C -89.701,50.158 -89.088,52.468 -87.802,54.542 C -85.406,58.398 -81.267,60.523 -77.038,60.523 C -74.759,60.523 -72.45,59.907 -70.377,58.616 L -4.067,17.423 C -0.213,15.027 1.911,10.895 1.911,6.666 C 1.911,4.387 1.297,2.076 0,0"
             id="path3238"
             style="fill:#231f20;fill-opacity:1;fill-rule:nonzero;stroke:none" />
        </g>
      </g>
    </g>
  </g>
</svg>
