<svg xmlns="http://www.w3.org/2000/svg" viewBox="0 0 124 34">
<path class="ustream" d="M2108.66,408.972h-5.14v13.383c0,3.972-1.49,5.842-4.2,5.842-2.64,0-4.13-1.97-4.13-5.842V408.972H2090v12.982c0,7.177,3.39,10.314,9.15,10.314,5.96,0,9.51-3.3,9.51-10.247V408.972Zm103.89,0h-6.75l-2.44,7.747c-0.75,2.544-1.53,5.562-2.17,8.207h-0.1c-0.51-2.678-1.22-5.561-1.93-8.174l-2.24-7.78h-6.88l-1.19,18.834-5.74-18.827h-6.73l-5.64,18.782h-8.67v-5.426h8.4v-4.206h-8.4v-4.747h8.91v-4.4h-14.09v4.368a5.363,5.363,0,0,0-1.81-2.576c-1.65-1.289-4.07-1.8-7.51-1.8h-28.24c-5.47,0-8.78,2.843-8.78,6.7,0,3.283,2.52,5.361,6.37,6.667,2.79,0.972,3.89,1.776,3.89,3.184,0,1.474-1.28,2.445-3.68,2.445-2.24,0-4.73-.14-7.26-0.14a8.251,8.251,0,0,1-3.31,4.292c5.43,0,7.61.03,10.26,0.03,6.36,0,9.36-3.21,9.36-7,0-3.183-1.93-5.261-6.03-6.735-2.99-1.106-4.3-1.742-4.3-3.183,0-1.174,1.1-1.781,3.37-1.781s1.23,0.01,5.19.01h6.05V432h5.11V413.46h5V432h5.21V423.01h1.58c2.14,0.034,3.14.813,3.76,3.663a29.168,29.168,0,0,0,1.62,5.323h22.03l1.61-5.866h6.49l1.75,5.866h8.74l0.41-8.7c0.17-2.849.27-6.377,0.4-9.462h0.07c0.54,2.984,1.32,6.24,2.07,8.953l2.44,8.816h4.03l2.78-8.919c0.88-2.678,1.83-5.935,2.55-8.85h0.1c0,3.323.1,6.647,0.2,9.394l0.34,8.768h5.05Zm-64.71,10.31h-2.06v-6.307a13.229,13.229,0,0,1,2.37-.17c2.42,0.034,3.86,1.085,3.86,3.188C2152.01,417.991,2150.46,419.279,2147.84,419.279Zm9.05,8.725c-0.22-.807-0.45-1.648-0.67-2.45-0.59-2.1-1.48-3.629-3.1-4.274v-0.1a6.308,6.308,0,0,0,3.77-3.7V428Zm20.23-5.74,1.35-4.849c0.37-1.323.7-3.053,1.04-4.409h0.07c0.33,1.356.74,3.052,1.14,4.409l1.41,4.849h-5.01Z" transform="translate(-2090 -408.969)" fill="#38f"></path>
<path class="ibm" d="M2127.58,441.442a0.833,0.833,0,0,1-.45.1,0.5,0.5,0,0,1-.38-0.142,0.6,0.6,0,0,1-.15-0.455,1.5,1.5,0,0,1-.6.455,1.845,1.845,0,0,1-.73.142,1.935,1.935,0,0,1-.49-0.059,1.02,1.02,0,0,1-.4-0.191,1,1,0,0,1-.27-0.336,1.076,1.076,0,0,1-.1-0.5,1.19,1.19,0,0,1,.11-0.537,0.9,0.9,0,0,1,.29-0.336,1.5,1.5,0,0,1,.41-0.2,4.309,4.309,0,0,1,.48-0.115c0.17-.035.33-0.061,0.48-0.079a2.639,2.639,0,0,0,.41-0.074,0.683,0.683,0,0,0,.28-0.142,0.342,0.342,0,0,0,.1-0.272,0.656,0.656,0,0,0-.07-0.336,0.531,0.531,0,0,0-.2-0.194,0.782,0.782,0,0,0-.27-0.09,2.019,2.019,0,0,0-.3-0.022,1.294,1.294,0,0,0-.66.153,0.657,0.657,0,0,0-.29.578h-0.62a1.514,1.514,0,0,1,.14-0.6,1.129,1.129,0,0,1,.36-0.4,1.405,1.405,0,0,1,.5-0.22,2.684,2.684,0,0,1,.61-0.067,3.5,3.5,0,0,1,.51.037,1.343,1.343,0,0,1,.46.153,1,1,0,0,1,.33.325,1.087,1.087,0,0,1,.12.545v1.985a1.293,1.293,0,0,0,.03.328,0.143,0.143,0,0,0,.17.105,0.557,0.557,0,0,0,.19-0.038v0.493Zm-1.01-1.978a0.722,0.722,0,0,1-.22.1,2.5,2.5,0,0,1-.28.064c-0.1.018-.2,0.033-0.31,0.045s-0.22.029-.32,0.048a2.345,2.345,0,0,0-.3.075,0.85,0.85,0,0,0-.24.123,0.7,0.7,0,0,0-.17.2,0.66,0.66,0,0,0-.06.3,0.534,0.534,0,0,0,.06.264,0.617,0.617,0,0,0,.4.273,1.265,1.265,0,0,0,.28.03,1.5,1.5,0,0,0,.53-0.086,1.278,1.278,0,0,0,.36-0.217,0.808,0.808,0,0,0,.2-0.283,0.817,0.817,0,0,0,.07-0.288v-0.649Zm1.59-1.866h0.59v0.613h0.01a1.409,1.409,0,0,1,.51-0.53,1.486,1.486,0,0,1,.73-0.172,1.591,1.591,0,0,1,.62.1,1.084,1.084,0,0,1,.41.291,1.1,1.1,0,0,1,.21.445,2.04,2.04,0,0,1,.07.571v2.537h-0.63v-2.612a0.8,0.8,0,0,0-.2-0.568,0.773,0.773,0,0,0-.57-0.208,1.294,1.294,0,0,0-.5.089,1,1,0,0,0-.35.254,1.028,1.028,0,0,0-.2.384,1.491,1.491,0,0,0-.07.482v2.179h-0.63V437.6Zm6.26-1.47h0.7v5.329h-0.7v-5.329Zm1.87,0h1.91c0.12,0,.24,0,0.37,0s0.25,0.01.37,0.022a3.171,3.171,0,0,1,.36.056,0.975,0.975,0,0,1,.29.112,1.372,1.372,0,0,1,.43.437,1.223,1.223,0,0,1,.18.675,1.271,1.271,0,0,1-.2.735,1.221,1.221,0,0,1-.58.459v0.015a1.2,1.2,0,0,1,.75.448,1.361,1.361,0,0,1,.25.836,1.577,1.577,0,0,1-.1.567,1.514,1.514,0,0,1-.3.489,1.678,1.678,0,0,1-.5.343,1.716,1.716,0,0,1-.69.131h-2.54v-5.329Zm0.7,2.291h1.4a1.326,1.326,0,0,0,.85-0.212,0.764,0.764,0,0,0,.27-0.639,0.937,0.937,0,0,0-.09-0.443,0.6,0.6,0,0,0-.25-0.258,0.928,0.928,0,0,0-.35-0.116,3.523,3.523,0,0,0-.43-0.026h-1.4v1.694Zm0,2.441h1.75a0.983,0.983,0,0,0,.72-0.258,1.017,1.017,0,0,0,.17-1.13,0.757,0.757,0,0,0-.25-0.273,1.118,1.118,0,0,0-.37-0.142,2.137,2.137,0,0,0-.42-0.041h-1.6v1.844Zm4.35-4.732h0.96l1.65,4.478,1.66-4.478h0.96v5.329h-0.66v-4.433h-0.02l-1.64,4.433h-0.59l-1.64-4.433H2142v4.433h-0.66v-5.329Zm12.12,1.605a1.5,1.5,0,0,0-.19-0.5,1.3,1.3,0,0,0-.33-0.354,1.472,1.472,0,0,0-.44-0.213,1.8,1.8,0,0,0-.51-0.07,1.712,1.712,0,0,0-.81.178,1.674,1.674,0,0,0-.55.482,2.22,2.22,0,0,0-.32.69,3.075,3.075,0,0,0-.1.806,3.435,3.435,0,0,0,.1.862,2.193,2.193,0,0,0,.32.709,1.613,1.613,0,0,0,.56.482,1.684,1.684,0,0,0,.81.179,1.526,1.526,0,0,0,.61-0.116,1.362,1.362,0,0,0,.46-0.321,1.607,1.607,0,0,0,.31-0.489,2.375,2.375,0,0,0,.13-0.612h0.7a2.459,2.459,0,0,1-.69,1.568,2.179,2.179,0,0,1-1.58.567,2.478,2.478,0,0,1-1.07-.217,2.27,2.27,0,0,1-.76-0.589,2.541,2.541,0,0,1-.45-0.881,3.827,3.827,0,0,1-.15-1.089,3.866,3.866,0,0,1,.16-1.094,2.668,2.668,0,0,1,.48-0.892,2.2,2.2,0,0,1,.77-0.6A2.5,2.5,0,0,1,2152,436a2.616,2.616,0,0,1,.77.111,2.063,2.063,0,0,1,.66.329,1.885,1.885,0,0,1,.48.541,2.154,2.154,0,0,1,.25.75h-0.7Zm1.31,1.8a2.554,2.554,0,0,1,.11-0.794,1.788,1.788,0,0,1,.36-0.642,1.556,1.556,0,0,1,.57-0.429,1.92,1.92,0,0,1,.8-0.157,1.872,1.872,0,0,1,.79.157,1.593,1.593,0,0,1,.58.429,1.788,1.788,0,0,1,.36.642,2.89,2.89,0,0,1,.11.794,2.847,2.847,0,0,1-.11.791,1.8,1.8,0,0,1-.36.638,1.607,1.607,0,0,1-.58.43,1.888,1.888,0,0,1-.79.156,1.936,1.936,0,0,1-.8-0.156,1.57,1.57,0,0,1-.57-0.43,1.8,1.8,0,0,1-.36-0.638A2.519,2.519,0,0,1,2154.77,439.531Zm0.66,0a1.991,1.991,0,0,0,.09.624,1.255,1.255,0,0,0,.25.455,1.178,1.178,0,0,0,.38.28,1.139,1.139,0,0,0,.92,0,1.178,1.178,0,0,0,.38-0.28,1.255,1.255,0,0,0,.25-0.455,2.2,2.2,0,0,0,0-1.247,1.291,1.291,0,0,0-.25-0.459,1.114,1.114,0,0,0-1.68,0,1.291,1.291,0,0,0-.25.459A1.989,1.989,0,0,0,2155.43,439.531Zm3.76-1.933h0.59v0.568h0.01a1.471,1.471,0,0,1,1.87-.508,0.839,0.839,0,0,1,.4.508,1.355,1.355,0,0,1,.51-0.485,1.4,1.4,0,0,1,.68-0.172,1.97,1.97,0,0,1,.52.063,1.136,1.136,0,0,1,.4.2,0.872,0.872,0,0,1,.25.347,1.306,1.306,0,0,1,.1.511v2.829h-0.63v-2.53a1.8,1.8,0,0,0-.03-0.336,0.612,0.612,0,0,0-.11-0.272,0.545,0.545,0,0,0-.22-0.183,0.89,0.89,0,0,0-.37-0.067,0.984,0.984,0,0,0-.73.268,0.966,0.966,0,0,0-.27.717v2.4h-0.62v-2.53a1.825,1.825,0,0,0-.03-0.343,0.772,0.772,0,0,0-.12-0.273,0.467,0.467,0,0,0-.22-0.179,0.826,0.826,0,0,0-.34-0.063,0.884,0.884,0,0,0-.47.112,1.2,1.2,0,0,0-.32.268,1.166,1.166,0,0,0-.17.325,0.866,0.866,0,0,0-.06.28v2.4h-0.62V437.6Zm6.29,0h0.62v0.523h0.02a0.918,0.918,0,0,1,.48-0.466,1.8,1.8,0,0,1,.73-0.146,1.724,1.724,0,0,1,.77.164,1.5,1.5,0,0,1,.54.444,2,2,0,0,1,.33.646,2.792,2.792,0,0,1,0,1.552,1.9,1.9,0,0,1-.32.638,1.617,1.617,0,0,1-.55.433,1.677,1.677,0,0,1-.76.16,1.893,1.893,0,0,1-.31-0.029,1.625,1.625,0,0,1-.34-0.1,1.445,1.445,0,0,1-.32-0.187,1.038,1.038,0,0,1-.25-0.287h-0.02v1.992h-0.62V437.6Zm2.94,1.9a2.321,2.321,0,0,0-.07-0.526,1.415,1.415,0,0,0-.22-0.459,0.981,0.981,0,0,0-.36-0.321,1.12,1.12,0,0,0-.53-0.119,1.026,1.026,0,0,0-.89.459,1.259,1.259,0,0,0-.21.466,2.36,2.36,0,0,0-.06.53,2,2,0,0,0,.07.548,1.221,1.221,0,0,0,.21.467,1.04,1.04,0,0,0,.37.324,1.113,1.113,0,0,0,.55.124,1.017,1.017,0,0,0,.89-0.463,1.442,1.442,0,0,0,.19-0.478A2.523,2.523,0,0,0,2168.42,439.494Zm4.76,1.948a0.833,0.833,0,0,1-.45.1,0.543,0.543,0,0,1-.39-0.142,0.643,0.643,0,0,1-.14-0.455,1.5,1.5,0,0,1-.6.455,1.9,1.9,0,0,1-.74.142,1.857,1.857,0,0,1-.48-0.059,1.14,1.14,0,0,1-.41-0.191,0.871,0.871,0,0,1-.26-0.336,1.323,1.323,0,0,1,.01-1.033,0.9,0.9,0,0,1,.29-0.336,1.371,1.371,0,0,1,.41-0.2,4.135,4.135,0,0,1,.47-0.115c0.17-.035.34-0.061,0.49-0.079a2.639,2.639,0,0,0,.41-0.074,0.683,0.683,0,0,0,.28-0.142,0.342,0.342,0,0,0,.1-0.272,0.567,0.567,0,0,0-.08-0.336,0.506,0.506,0,0,0-.19-0.194,0.837,0.837,0,0,0-.28-0.09,1.986,1.986,0,0,0-.29-0.022,1.269,1.269,0,0,0-.66.153,0.635,0.635,0,0,0-.29.578h-0.63a1.361,1.361,0,0,1,.15-0.6,1.2,1.2,0,0,1,.35-0.4,1.541,1.541,0,0,1,.51-0.22,2.6,2.6,0,0,1,.6-0.067,3.4,3.4,0,0,1,.51.037,1.274,1.274,0,0,1,.46.153,0.845,0.845,0,0,1,.33.325,0.989,0.989,0,0,1,.13.545v1.985a2.347,2.347,0,0,0,.02.328,0.161,0.161,0,0,0,.18.105,0.557,0.557,0,0,0,.19-0.038v0.493Zm-1.02-1.978a0.55,0.55,0,0,1-.22.1,2.077,2.077,0,0,1-.28.064c-0.09.018-.2,0.033-0.31,0.045s-0.21.029-.32,0.048a2.667,2.667,0,0,0-.29.075,0.734,0.734,0,0,0-.24.123,0.57,0.57,0,0,0-.17.2,0.66,0.66,0,0,0-.06.3,0.534,0.534,0,0,0,.06.264,0.578,0.578,0,0,0,.16.176,0.777,0.777,0,0,0,.23.1,1.333,1.333,0,0,0,.28.03,1.427,1.427,0,0,0,.53-0.086,1.046,1.046,0,0,0,.36-0.217,0.841,0.841,0,0,0,.21-0.283,0.791,0.791,0,0,0,.06-0.288v-0.649Zm1.6-1.866h0.59v0.613h0.01a1.275,1.275,0,0,1,.51-0.53,1.486,1.486,0,0,1,.73-0.172,1.626,1.626,0,0,1,.62.1,0.976,0.976,0,0,1,.4.291,1,1,0,0,1,.22.445,2.515,2.515,0,0,1,.06.571v2.537h-0.62v-2.612a0.767,0.767,0,0,0-.21-0.568,0.734,0.734,0,0,0-.56-0.208,1.294,1.294,0,0,0-.5.089,1,1,0,0,0-.35.254,1.218,1.218,0,0,0-.21.384,1.826,1.826,0,0,0-.07.482v2.179h-0.62V437.6Zm5.57,4.374a3.726,3.726,0,0,1-.21.477,1.442,1.442,0,0,1-.23.318,0.816,0.816,0,0,1-.29.179,1.142,1.142,0,0,1-.37.056,1.743,1.743,0,0,1-.22-0.015,1.078,1.078,0,0,1-.21-0.053v-0.582l0.18,0.06a0.582,0.582,0,0,0,.19.03,0.517,0.517,0,0,0,.31-0.09,0.872,0.872,0,0,0,.2-0.261l0.26-.657-1.51-3.836h0.71l1.11,3.157h0.01l1.07-3.157h0.66Z" transform="translate(-2090 -408.969)"></path>
</svg>
