<?xml version="1.0" encoding="UTF-8" standalone="no"?>
<svg xmlns:dc="http://purl.org/dc/elements/1.1/" xmlns:cc="http://creativecommons.org/ns#" xmlns:rdf="http://www.w3.org/1999/02/22-rdf-syntax-ns#" xmlns:svg="http://www.w3.org/2000/svg" xmlns="http://www.w3.org/2000/svg" width="79.375mm" height="32.622368mm" viewBox="0 0 79.375 32.622368" version="1.1" id="svg862">
  <defs id="defs856"/>
  <metadata id="metadata859">
    <rdf:RDF>
      <cc:Work rdf:about="">
        <dc:format>image/svg+xml</dc:format>
        <dc:type rdf:resource="http://purl.org/dc/dcmitype/StillImage"/>
        <dc:title/>
      </cc:Work>
    </rdf:RDF>
  </metadata>
  <g id="layer1" transform="translate(129.64583,104.00166)">
    <g id="g843" transform="matrix(0.25198413,0,0,0.25198413,-129.64583,-104.00166)">
      <path fill="#e50914" d="m 209.58449,0 h -13.26444 v 74.507689 c 12.05521,0.41658 24.05987,1.027371 36.0153,1.82794 V 63.208823 c -7.56221,-0.506591 -15.14649,-0.936251 -22.75086,-1.291641 z M 315,0.0075379 H 300.43031 L 290.82513,22.366496 282.19541,0.0075379 H 267.84426 L 283.26623,39.95995 266.42996,79.154582 c 4.65767,0.456042 9.3032,0.943124 13.94256,1.457474 l 9.79148,-22.789061 9.69724,25.121597 c 5.05103,0.65225 10.08993,1.332878 15.11823,2.053634 L 315,84.98958 297.72047,40.229762 Z m -164.21257,73.8490101 13.26488,-0.0029 V 43.545994 h 17.98105 V 30.419188 H 164.05231 V 13.252955 H 187.8177 V 0.00820301 h -37.03027 z m -49.53447,-60.60448 h 13.88296 v 61.384874 c 4.41398,-0.167386 8.83722,-0.305285 13.26488,-0.421901 V 13.252068 h 13.88251 V 0.0075379 H 101.25296 Z M 55.90356,78.452227 C 68.129401,77.336396 80.411531,76.416773 92.74951,75.702889 V 62.574753 c -7.883168,0.457595 -15.743599,0.999215 -23.581294,1.618209 V 44.319516 c 5.142646,-0.05166 11.914153,-0.209288 17.91328,-0.134352 V 31.057249 c -4.792547,-0.01153 -12.495588,0.0674 -17.91328,0.137012 V 13.252955 H 92.74951 V 0.00820301 H 55.90356 Z M 29.883059,48.104871 12.606843,0.0075379 H 0 V 85 C 4.4133111,84.369034 8.834569,83.764893 13.264877,83.18514 V 36.966739 l 15.361714,44.320846 c 4.831619,-0.562682 9.671846,-1.095877 14.521566,-1.596704 V 0.0075379 H 29.883059 Z M 243.27117,77.125779 c 4.42788,0.340535 8.84913,0.70568 13.26487,1.100311 V 0.0075379 h -13.26487 z" id="path2" style="fill-rule:evenodd"/>
      <path fill="#221f1f" d="m 39.231,129 9.801,-23.265 h 6.171 L 65.037,129 h -6.864 l -1.65,-4.158 H 47.58 L 45.93,129 Z m 10.23,-9.141 h 5.181 l -2.574,-6.534 z M 71.281,129 v -23.1 h 5.973 l 9.504,12.21 V 105.9 h 6.336 V 129 h -5.577 l -9.9,-12.672 V 129 Z m 30.07,0 v -23.1 h 6.402 V 129 Z m 14.626,0 v -23.1 h 6.765 l 5.511,8.943 5.511,-8.943 h 6.765 V 129 h -6.369 v -13.266 l -5.907,9.042 h -0.132 l -5.874,-9.009 V 129 Z m 30.829,0 9.801,-23.265 h 6.171 L 172.612,129 h -6.864 l -1.65,-4.158 h -8.943 l -1.65,4.158 z m 10.23,-9.141 h 5.181 l -2.574,-6.534 z M 181.529,129 v -17.49 h -6.897 v -5.61 h 20.229 v 5.61 h -6.93 V 129 Z m 20.302,0 v -23.1 h 6.402 V 129 Z m 26.275,0.462 c -7.128,0 -12.408,-5.313 -12.408,-11.946 v -0.066 c 0,-6.633 5.346,-12.012 12.474,-12.012 7.128,0 12.408,5.313 12.408,11.946 v 0.066 c 0,6.633 -5.346,12.012 -12.474,12.012 z m 0.066,-5.775 c 3.498,0 5.841,-2.838 5.841,-6.171 v -0.066 c 0,-3.366 -2.376,-6.237 -5.907,-6.237 -3.531,0 -5.874,2.838 -5.874,6.171 v 0.066 c 0,3.333 2.409,6.237 5.94,6.237 z M 247.88,129 v -23.1 h 5.973 l 9.504,12.21 V 105.9 h 6.336 V 129 h -5.577 l -9.9,-12.672 V 129 Z" id="path4" style="fill-rule:evenodd"/>
    </g>
  </g>
</svg>