<?xml version="1.0" encoding="UTF-8" standalone="no"?>
<svg xmlns:dc="http://purl.org/dc/elements/1.1/" xmlns:cc="http://creativecommons.org/ns#" xmlns:rdf="http://www.w3.org/1999/02/22-rdf-syntax-ns#" xmlns:svg="http://www.w3.org/2000/svg" xmlns="http://www.w3.org/2000/svg" preserveAspectRatio="xMidYMid meet" xml:space="preserve" y="0px" x="0px" viewBox="0 0 100 100" id="icons" version="1.1">
  <g class="target" id="istock-logo">
    <path id="istock-logo-mobile" fill="white" d="m 5.5548975,54.859 -4.813308,0 0,-17.96837 4.813308,0 0,17.96837 z m 4.6206105,-6.92811 c 1.48307,1.62843 3.74136,2.85254 6.11148,2.85254 2.22269,0 3.778929,-1.37233 3.778929,-3.26091 0,-3.3326 -4.814199,-3.74047 -8.296589,-5.77677 -2.0368005,-1.18694 -3.6691805,-2.96467 -3.6691805,-5.89334 0,-4.62929 4.2633405,-7.29545 8.5585195,-7.29545 2.629081,0 5.07424,0.63025 7.52039,2.44516 l -2.59249,3.70329 c -1.0401,-0.96297 -2.78026,-1.7016 -4.48492,-1.7016 -1.88651,0 -3.99944,0.81229 -3.99944,2.8125 0,4.1873 11.96577,2.88864 11.96577,11.63353 0,4.59123 -4.11413,7.77699 -8.78099,7.77699 -3.48141,0 -6.7037595,-1.44165 -9.3713995,-3.88967 l 3.2599195,-3.40627 z m 29.85031,6.92811 c -0.62887,0.2205 -2.07624,0.36783 -3.00076,0.36783 -2.89011,0 -4.99919,-0.96298 -6.22419,-2.59249 -0.92541,-1.22204 -1.33377,-2.813 -1.33377,-5.37137 l 0,-6.29727 -5.000091,0 0,-4.07507 5.000091,0 0,-5.00107 4.816169,0 0,5.00107 5.92745,0 0,4.07507 -5.92745,0 0,6.85109 c 0,1.11563 0.18391,1.77922 0.593261,2.26263 0.47858,0.55658 1.25676,0.88793 2.44221,0.88793 0.705,0 1.63336,-0.10789 1.96658,-0.18392 l 0.7405,4.07557 z M 50.704957,36.52033 c 5.44316,0 9.5563,4.1868 9.5563,9.37327 0,5.18548 -4.11314,9.33323 -9.5563,9.33323 -5.444049,0 -9.55818,-4.14775 -9.55818,-9.33323 0,-5.18647 4.114131,-9.37327 9.55818,-9.37327 z m 0,14.2631 c 2.814971,0 4.73914,-2.1861 4.73914,-4.88983 0,-2.70521 -1.924169,-4.9279 -4.73914,-4.9279 -2.81684,0 -4.74102,2.22269 -4.74102,4.9279 0,2.70373 1.92418,4.88983 4.74102,4.88983 z m 28.572451,0.40728 c -2.11391,2.81595 -4.78244,4.03612 -8.15123,4.03612 -5.55568,0 -9.63223,-4.14775 -9.63223,-9.33323 0,-5.22305 4.18631,-9.37327 9.669799,-9.37327 3.111611,0 5.889011,1.44648 7.555991,3.59304 l -3.40813,3.00037 c -0.961101,-1.25873 -2.40474,-2.14804 -4.147861,-2.14804 -2.77838,0 -4.852749,2.18758 -4.852749,4.9279 0,2.81536 2.03877,4.88983 4.965469,4.88983 1.961651,0 3.51701,-1.18742 4.295181,-2.371 l 3.70576,2.77828 z m 10.83031,-6.22409 9.89228,9.89238 -6.48414,0 -7.595431,-7.78232 0,7.78232 -4.81331,0 0,-25.93174 4.81331,0 0,13.78156 6.18562,-5.81819 6.78266,0 -8.78099,8.07599 z M 2.5e-6,31.70564 c 0,-1.73977 1.410888,-3.14868 3.149176,-3.14868 1.739275,0 3.148189,1.40891 3.148189,3.14868 0,1.73681 -1.408914,3.14858 -3.148189,3.14858 -1.738288,0 -3.149176,-1.41177 -3.149176,-3.14858 z"/>
  </g>
</svg>
