<?xml version="1.0" encoding="UTF-8" standalone="no"?>
<svg
   xmlns:svg="http://www.w3.org/2000/svg"
   xmlns="http://www.w3.org/2000/svg"
   version="1.1"
   width="586.28119"
   height="254.21768"
   id="svg3413">
  <defs
     id="defs3415" />
  <g
     transform="translate(-101.14511,-388.11028)"
     id="layer1">
    <path
       d="m 544.63938,388.11028 -27.11884,8.54026 0,25.62078 -15.88237,0 0,22.92386 15.88237,0 0,58.88285 c 0,16.98464 8.76201,29.51635 29.66569,29.51635 l 19.17813,0 0,-22.92386 -8.24036,0 c -9.66674,0 -13.48462,-4.63272 -13.48462,-15.13275 l 0,-50.34259 25.0217,0 0,-22.92386 -25.0217,0 0,-34.16104 z m 89.14858,30.71497 c -29.00693,0 -53.63932,21.72523 -53.63932,59.78183 0,32.81858 19.92752,58.43337 53.48925,58.43337 32.99261,0 53.78842,-25.68072 53.78842,-59.33234 0,-37.82887 -23.73294,-58.88286 -53.63835,-58.88286 z m -483.79855,2.39727 c -16.46299,0 -35.65934,1.0488 -35.65934,1.0488 l 0,21.12591 c 0,0 20.50862,-1.0488 30.11542,-1.0488 11.30359,0 20.6769,3.37415 20.6769,16.78086 l 0,2.5471 -19.3282,0.59931 c -27.36479,0.94692 -44.64908,14.09593 -44.64908,37.15763 0,21.87506 15.22839,36.40848 34.90995,36.40848 14.246,0 23.99712,-5.54967 31.01487,-12.13616 l 2.24768,9.88873 25.1713,0 c -1.5822,-5.18409 -2.09809,-13.51459 -2.09809,-29.51635 l 0,-43.15079 c 0,-29.18072 -15.94758,-39.70472 -42.40141,-39.70472 z m 292.16683,0 c -16.45723,0 -35.50927,1.0488 -35.50927,1.0488 l 0,21.12591 c 0,0 20.50238,-1.0488 30.11542,-1.0488 11.29736,0 20.67642,3.37415 20.67642,16.78086 l 0,2.5471 -19.3282,0.59931 c -27.36431,0.94692 -44.79867,14.09593 -44.79867,37.15763 0,21.87506 15.39045,36.40848 35.06002,36.40848 14.24599,0 24.00287,-5.54967 31.01487,-12.13616 l 2.2472,9.88873 25.02123,0 c -1.5822,-5.18409 -1.94754,-13.51459 -1.94754,-29.51635 l 0,-43.15079 c 0,-29.18072 -16.09765,-39.70472 -42.55148,-39.70472 z m -226.54166,1.0488 0,111.32306 27.41897,0 0,-77.46167 c 6.31632,-6.20293 14.04175,-7.34163 20.37676,-7.34163 2.15754,0 4.7883,0.2637 7.64105,1.19863 l 0,-27.71839 c -10.1764,0 -18.64498,1.42638 -29.36651,11.68668 l -2.84652,-11.68668 -23.22375,0 z m 66.07441,0 43.60052,111.32306 20.67642,0 44.4995,-111.32306 -28.01829,0 -25.77062,72.21765 -24.87163,-72.21765 -30.1159,0 z m 351.64924,18.72865 c 16.72093,0 26.22034,15.44438 26.22034,36.85796 0,20.94013 -8.51078,37.45729 -25.47144,37.45729 -16.51668,0 -26.21986,-15.80997 -26.21986,-37.45729 0,-20.70638 8.27633,-36.85796 25.47096,-36.85796 z m -468.21584,40.15421 0,25.32112 c -3.61987,3.29624 -9.97886,7.04197 -19.47826,7.04197 -11.30887,0 -17.38018,-7.00601 -17.38018,-16.18155 0,-9.40927 6.57474,-15.28856 21.27621,-15.73206 l 15.58223,-0.44924 z m 292.31642,0 0,25.32112 c -3.61987,3.29624 -10.1342,7.04197 -19.62737,7.04197 -11.30935,0 -17.38018,-7.00601 -17.38018,-16.18155 0,-9.40927 6.57426,-15.28856 21.27525,-15.73206 l 15.7323,-0.44924 z"
       id="path144"
       style="fill:#0979b8;fill-opacity:1;fill-rule:nonzero;stroke:none" />
    <path
       d="m 365.04817,633.99189 23.49321,0 -3.506,8.07879 -29.00692,0 0,-61.55581 9.0257,0 -0.005,53.47702 m 44.73898,-55.18507 c 7.8031,0 14.4675,3.65583 16.21751,4.84847 l -3.18837,7.34163 c -2.18726,-1.39641 -7.49721,-4.16525 -12.90304,-4.16525 -6.47262,0 -10.50602,2.8947 -10.50602,8.01885 0,13.22093 29.52833,5.9692 29.52833,29.04888 0,10.50002 -8.03085,18.17128 -22.10879,18.17128 l -14.75518,0 3.50601,-8.07879 10.99745,0 c 7.67725,0 12.88531,-2.99059 12.88531,-9.39129 0,-15.67812 -29.40846,-7.38958 -29.40846,-29.07285 0,-10.15841 7.73717,-16.72093 19.73549,-16.72093 m 39.9924,19.95724 -3.73974,43.30662 -9.31937,0 6.2209,-61.55581 7.93496,0 17.73377,38.60198 17.11648,-38.60198 7.94694,0 6.20892,61.55581 -9.18752,0 -3.90155,-44.25354 -16.59508,37.45729 -3.64384,0 -16.77487,-36.51037 m 84.16202,-4.02741 -8.71406,24.77575 17.43412,0 -8.72006,-24.77575 z m -11.4829,32.63279 -5.1781,14.70124 -9.59506,0 23.40931,-62.08321 6.35276,0 23.11564,62.08321 -9.96664,0 -5.1721,-14.70124 -22.96581,0 m 116.53711,14.70124 -8.69009,0 0,-61.55581 7.31765,0 29.75607,42.59343 0,-42.59343 8.6781,0 0,61.55581 -6.30481,0 -30.75692,-44.04378 0,44.04378 m -32.68673,-18.96238 0,-42.59343 8.6781,0 0,61.55581 -6.30481,0 -30.76292,-44.04378 0,44.04378 -8.68409,0 0,-61.55581 7.32364,0 29.75008,42.59343 m -286.86288,-17.29028 20.91615,-0.0144 0,7.95893 -20.92214,0 -0.005,20.3408 25.12335,0 0,7.96492 -34.14905,0 0,-61.55581 33.24409,-0.01 0,7.96492 -24.2064,0 0,17.35022 m -207.03415,-25.58483 19.08224,0 c 13.8562,0 19.292,7.15584 19.292,15.35449 0,6.3168 -3.91354,10.54198 -7.76714,12.72949 4.75857,1.88784 10.58393,5.98717 10.58393,15.55226 0,9.65499 -6.43666,18.45895 -22.2766,18.45895 l -18.91443,0 0,-62.09519 z m 8.71406,54.5498 10.0026,-0.0144 c 7.81508,0 13.29883,-3.64384 13.29883,-10.24831 0,-8.38444 -6.91611,-11.8425 -15.64816,-11.8425 l -2.73288,0 3.12244,-7.25173 c 4.60874,0 12.56767,-0.77911 12.56767,-9.5591 0,-4.08733 -2.57706,-8.22262 -11.16527,-8.22262 l -9.44523,0 0,47.13625 m 162.52267,-46.23727 0,53.52496 -9.02571,0 0,-53.52496 -16.57709,0 0,-8.04283 42.19188,0 0,8.04283 -16.58908,0 m -109.48315,17.2723 20.92214,-0.0144 0,7.95892 -20.92214,0 -0.01,20.3408 25.12934,0 0,7.96492 -34.14905,0 0,-61.5558 33.25008,-0.01 0,7.96491 -24.21239,0 -0.005,17.35022 m 50.06691,5.3459 1.1447,0 c 8.70807,0 15.09678,-3.26028 15.09678,-12.58564 0,-6.04711 -4.21919,-10.73376 -11.52486,-10.73376 l -7.50943,0 -0.005,54.22616 -8.82793,0 0,-61.55581 18.48292,0 c 13.26288,0 18.66871,8.69609 18.66871,18.27317 0,9.18752 -5.45977,14.75517 -12.13016,17.14045 l 16.77487,26.14219 -11.06339,0 -19.10621,-30.90676"
       id="path184"
       style="fill:#231f20;fill-opacity:1;fill-rule:nonzero;stroke:none" />
  </g>
</svg>
