<?xml version="1.0" encoding="UTF-8" standalone="no"?>
<!-- Created with Inkscape (http://www.inkscape.org/) -->
<svg
   xmlns:svg="http://www.w3.org/2000/svg"
   xmlns="http://www.w3.org/2000/svg"
   version="1.0"
   width="602.36218"
   height="300.36612"
   id="svg2332">
  <defs
     id="defs2334" />
  <g
     id="layer1">
    <rect
       width="584.64581"
       height="282.65729"
       x="8.858243"
       y="8.8543739"
       style="fill:#e02027"
       id="rect2252" />
    <path
       d="M 283.96875,32.5 L 283.96875,48.59375 L 277.34375,48.59375 L 277.34375,65.1875 L 284.90625,65.1875 C 284.90876,65.187504 284.91,86.502514 284.84375,102.25 C 284.82626,106.2875 285.6225,114.6525 289.65625,118.25 C 296.45876,124.31874 305.77252,125.82874 324.25,120.5 L 324.25,105.6875 C 324.25001,105.6875 314.99625,108.08249 315.46875,96.34375 L 315.46875,65.1875 L 322.34375,65.1875 L 322.34375,48.625 L 315.71875,48.625 L 315.71875,32.5 L 283.96875,32.5 z M 92.46875,43.03125 C 91.459813,43.047136 90.875,43.0625 90.875,43.0625 C 53.448781,44.01 40.4375,56.328761 40.4375,69.59375 L 74.53125,69.59375 C 75.953747,63.197504 92.3125,62.96875 92.3125,62.96875 C 112.21373,63.439998 109.375,73.625 109.375,73.625 C 99.897504,74.572498 74.0625,75.75 74.0625,75.75 C 35.918783,77.171248 35.53125,95.65625 35.53125,95.65625 C 30.008754,131.26247 95.808757,128.85999 109.6875,113.1875 C 110.40625,115.7 112.21875,120.0625 112.21875,120.0625 L 144.90625,120.0625 C 141.82751,116.2725 141.8125,112.21875 141.8125,112.21875 C 141.81251,112.21875 140.94875,86.739985 140.65625,68.65625 C 140.57375,63.543751 139.55,61.086247 136.84375,56.8125 C 128.30485,43.318917 99.53131,42.920047 92.46875,43.03125 z M 395.0625,43.25 C 393.92238,43.239458 392.77148,43.260508 391.59375,43.28125 C 353.95879,43.9425 336.19375,57.466271 336.3125,83.40625 C 336.42126,105.75748 349.27253,124.0575 390.875,123.78125 C 437.14746,123.475 447.925,105.54748 447.8125,82.46875 C 447.69867,58.849432 430.40612,43.576788 395.0625,43.25 z M 160.40625,48.5625 C 160.40625,48.562501 160.3775,70.106265 160.40625,88.125 C 160.41626,93.201249 160.54626,97.486255 161.09375,101.375 C 164.16624,123.22748 195.21875,123.65625 195.21875,123.65625 C 205.64249,124.1275 218.72376,121.9825 230.09375,113.21875 L 230.09375,120.0625 L 261.0625,120.0625 L 261.0625,48.5625 L 230.03125,48.5625 C 230.03125,48.5625 230.08375,65.393761 230,79.46875 C 229.94749,87.948741 229.3,94.165003 224.59375,98.65625 C 220.33376,102.7225 207.28499,106.88125 197.09375,98.4375 C 191.7275,93.990005 191.62125,83.796246 191.59375,78.65625 C 191.52,66.29751 191.59375,48.5625 191.59375,48.5625 L 160.40625,48.5625 z M 392.34375,66.25 C 405.06625,66.533753 412.4875,73.191257 412.3125,82.625 C 412.07749,95.374988 404.82124,100.155 391.875,100.1875 C 380.11627,100.21875 371.61625,95.17749 372.15625,82.625 C 372.60001,72.282507 380.12501,65.9775 392.34375,66.25 z M 98.46875,87.875 C 101.75116,87.867866 105.41891,87.966094 109.5,88.15625 C 110.53375,99.49374 99.109991,105.0875 88.59375,105.5 C 73.527513,106.0925 70.59125,102.45375 70.6875,97.96875 C 71.064845,92.56016 75.491847,87.924936 98.46875,87.875 z M 343.34375,134.71875 L 343.34375,145.8125 L 338.78125,145.8125 L 338.78125,157.21875 L 344,157.21875 C 343.99999,157.21875 344.01375,171.88126 343.96875,182.71875 C 343.95625,185.49749 344.48125,191.24125 347.25,193.71875 C 351.9325,197.89624 358.34751,198.94999 371.0625,195.28125 L 371.0625,185.09375 C 371.0625,185.09375 364.7075,186.73499 365.03125,178.65625 L 365.03125,157.21875 L 369.75,157.21875 L 369.75,145.96875 L 365.1875,145.96875 L 365.1875,134.71875 L 343.34375,134.71875 z M 507.875,142.1875 C 501.6823,142.15934 494.67144,144.69278 487.96875,150.5 L 487.96875,144.40625 L 467.375,144.40625 L 467.375,194.625 L 488.03125,194.625 L 488.03125,164.8125 C 488.03125,154.36627 506.46875,154.22126 506.46875,165.59375 L 526.5625,165.59375 C 528.54275,151.64353 519.69742,142.24127 507.875,142.1875 z M 216.25,142.90625 C 208.58721,142.86466 200.00765,145.02106 191.65625,149.8125 C 191.65625,149.81251 173.70497,135.27876 146.59375,148.65625 L 146.59375,144.375 L 127.0625,144.375 L 127.0625,194.625 L 146.59375,194.625 L 146.59375,169.78125 C 146.59125,153.58376 173.59375,153.64126 173.59375,169.65625 L 173.59375,194.625 L 194.75,194.625 L 194.75,169.78125 C 194.7475,153.58376 221.78125,153.64126 221.78125,169.65625 L 221.78125,194.625 L 242.21875,194.65625 L 242.21875,164.4375 C 242.1802,151.10825 230.87895,142.98566 216.25,142.90625 z M 291.96875,142.90625 C 266.44877,143.35501 254.385,152.53376 254.46875,170.125 C 254.54,185.28498 263.28502,197.68875 291.5,197.5 C 322.88247,197.29376 330.1675,185.11873 330.09375,169.46875 C 330.0125,152.935 317.52748,142.455 291.96875,142.90625 z M 417.78125,142.90625 C 392.26002,143.355 380.1975,152.53126 380.28125,170.125 C 380.35126,185.28373 389.06877,197.68875 417.28125,197.5 C 448.66623,197.29124 455.9825,185.11998 455.90625,169.46875 C 455.8275,152.93251 443.34248,142.45625 417.78125,142.90625 z M 418.28125,158.46875 C 426.90873,158.665 431.9325,163.195 431.8125,169.59375 C 431.65125,178.23998 426.74749,181.47625 417.96875,181.5 C 409.99375,181.52 404.22875,178.10374 404.59375,169.59375 C 404.89751,162.57874 409.99501,158.2875 418.28125,158.46875 z M 290.96875,158.5 C 291.46149,158.47695 291.95078,158.48867 292.46875,158.5 C 301.09748,158.69375 306.1225,163.1975 306,169.59375 C 305.84251,178.245 300.93499,181.47875 292.15625,181.5 C 284.18126,181.52124 278.41375,178.10874 278.78125,169.59375 C 279.06368,163.01954 283.5777,158.84573 290.96875,158.5 z M 539.8125,210.25 L 539.8125,219.15625 L 536.15625,219.15625 L 536.15625,228.3125 L 540.34375,228.3125 C 540.34374,228.3125 540.34875,240.10751 540.3125,248.8125 C 540.305,251.04374 540.74125,255.6675 542.96875,257.65625 C 546.72875,261.01249 551.85001,261.81999 562.0625,258.875 L 562.0625,250.6875 C 562.06251,250.6875 556.95875,252.01874 557.21875,245.53125 L 557.21875,228.3125 L 561.03125,228.3125 L 561.03125,219.28125 L 557.375,219.28125 L 557.375,210.25 L 539.8125,210.25 z M 297.0625,214.5 C 289.41568,214.59357 282.2375,215.82313 278.65625,217.53125 C 278.65626,217.53125 269.015,220.24501 270.96875,231.75 C 270.96875,231.75 272.14127,240.3225 286.25,241.40625 L 301.4375,243.15625 C 311.20625,244.03625 307.975,250.64625 300.59375,250.53125 C 300.59375,250.53126 293.19375,251.18374 290.15625,246.84375 L 269.6875,246.8125 C 273.79498,262.90748 310.04376,265.16249 322.71875,255.6875 C 329.35122,250.83251 330.11749,240.37 322.0625,235.75 C 322.0625,235.74999 315.84749,231.0425 299.9375,232.0625 C 286.18,232.94125 287.18375,225.38 292.125,224.375 C 292.12501,224.37499 302.5475,222.31375 304.71875,226.65625 L 324.90625,226.65625 C 323.88829,217.3625 309.8072,214.34404 297.0625,214.5 z M 437.90625,215.1875 C 416.64752,215.56374 406.61875,223.22376 406.6875,237.875 C 406.74751,250.5025 414.00127,260.81375 437.5,260.65625 C 463.63873,260.48625 469.72,250.34749 469.65625,237.3125 C 469.59001,223.54125 459.19374,214.81375 437.90625,215.1875 z M 370.28125,215.21875 C 363.85031,215.38303 358.5375,217.32531 354.46875,221.125 L 354.46875,217.46875 L 337.96875,217.46875 L 337.96875,269.875 L 354.4375,269.875 L 354.4375,254.75 C 359.15126,258.74874 365.4,260.60625 372.78125,260.65625 C 388.32874,260.76624 398.285,250.40624 398.5,237.78125 C 398.71751,224.8275 387.52624,215.975 373.09375,215.25 C 372.13,215.20109 371.19996,215.19528 370.28125,215.21875 z M 513.3125,215.21875 C 508.12727,215.19499 502.26882,217.29434 496.65625,222.15625 L 496.625,217.0625 L 479.375,217.0625 L 479.375,259.125 L 496.6875,259.125 L 496.6875,234.125 C 496.6875,225.3775 512.125,225.29001 512.125,234.8125 L 528.9375,234.8125 C 530.59862,223.13208 523.21158,215.26412 513.3125,215.21875 z M 250.75,219.375 L 250.75,225.625 L 250.71875,225.625 C 249.79625,224.42749 248.94999,223.84375 247.53125,223.84375 C 244.57,223.84375 243.22625,227.03875 243.375,231.09375 C 243.425,232.31625 243.08125,238.4375 247.4375,238.4375 C 249.10373,238.4375 249.935,237.89125 250.78125,236.25 L 250.84375,236.25 L 250.84375,238.0625 L 252.71875,238.0625 L 252.71875,219.375 L 250.75,219.375 z M 236.6875,223.84375 C 235.19626,223.84375 234.18375,224.55375 233.1875,225.75 L 233.1875,224.21875 L 231.28125,224.21875 L 231.28125,238.0625 L 233.25,238.0625 L 233.25,228.78125 C 233.25,227.78876 233.3275,227.0025 234.125,226.28125 C 234.64875,225.78375 235.34001,225.5 236.0625,225.5 C 237.655,225.50001 238.15625,226.49125 238.15625,227.9375 L 238.15625,238.0625 L 240.09375,238.0625 L 240.09375,227.375 C 240.09375,224.93375 238.75625,223.84375 236.6875,223.84375 z M 218.65625,224.21875 L 218.65625,234.875 C 218.65625,237.31249 219.935,238.4375 222,238.4375 C 223.3425,238.43751 224.61,237.63625 225.28125,236.21875 L 225.3125,236.21875 L 225.3125,238.0625 L 227.28125,238.0625 L 227.28125,224.21875 L 225.3125,224.21875 L 225.3125,233.09375 C 225.31251,233.88875 225.19625,234.835 224.75,235.53125 C 224.20125,236.3275 223.32124,236.75 222.375,236.75 C 220.9825,236.75 220.625,236.13875 220.625,234.96875 L 220.625,224.21875 L 218.65625,224.21875 z M 248.0625,225.5 C 250.70249,225.50001 250.75,229.015 250.75,230.90625 L 250.75,232.625 C 250.74999,234.195 250.195,236.75 248.15625,236.75 C 245.46876,236.75 245.34375,234.05 245.34375,231.0625 C 245.34375,226.80751 246.42001,225.5 248.0625,225.5 z M 367,226.625 C 373.76248,226.625 379.8125,231.54126 379.8125,237.875 C 379.8125,244.20875 373.88874,249.65625 367.125,249.65625 C 360.36251,249.65625 354.65625,244.43125 354.65625,238.09375 C 354.65626,231.76001 360.23501,226.625 367,226.625 z M 438.34375,228.15625 C 445.52999,228.31751 449.69375,232.07751 449.59375,237.40625 C 449.45876,244.60875 445.375,247.32375 438.0625,247.34375 C 431.42126,247.36 426.60375,244.4975 426.90625,237.40625 C 427.15875,231.56376 431.43876,228.005 438.34375,228.15625 z "
       style="fill:white"
       id="path2268" />
  </g>
</svg>
