<?xml version="1.0" encoding="UTF-8" standalone="no"?>
<!-- Created with Inkscape (http://www.inkscape.org/) -->

<svg
   xmlns:dc="http://purl.org/dc/elements/1.1/"
   xmlns:cc="http://creativecommons.org/ns#"
   xmlns:rdf="http://www.w3.org/1999/02/22-rdf-syntax-ns#"
   xmlns:svg="http://www.w3.org/2000/svg"
   xmlns="http://www.w3.org/2000/svg"
   xmlns:sodipodi="http://sodipodi.sourceforge.net/DTD/sodipodi-0.dtd"
   xmlns:inkscape="http://www.inkscape.org/namespaces/inkscape"
   version="1.1"
   id="svg869"
   width="2062.8977"
   height="959.21741"
   viewBox="0 0 2062.8977 959.2174"
   sodipodi:docname="BMG_Red_Logo.svg"
   inkscape:version="0.92.2 2405546, 2018-03-11">
  <metadata
     id="metadata875">
    <rdf:RDF>
      <cc:Work
         rdf:about="">
        <dc:format>image/svg+xml</dc:format>
        <dc:type
           rdf:resource="http://purl.org/dc/dcmitype/StillImage" />
        <dc:title></dc:title>
      </cc:Work>
    </rdf:RDF>
  </metadata>
  <defs
     id="defs873" />
  <sodipodi:namedview
     pagecolor="#ffffff"
     bordercolor="#666666"
     borderopacity="1"
     objecttolerance="10"
     gridtolerance="10"
     guidetolerance="10"
     inkscape:pageopacity="0"
     inkscape:pageshadow="2"
     inkscape:window-width="1920"
     inkscape:window-height="1020"
     id="namedview871"
     showgrid="false"
     fit-margin-top="0"
     fit-margin-left="0"
     fit-margin-right="0"
     fit-margin-bottom="0"
     inkscape:zoom="0.40594276"
     inkscape:cx="590.37912"
     inkscape:cy="473.67482"
     inkscape:window-x="0"
     inkscape:window-y="0"
     inkscape:window-maximized="1"
     inkscape:current-layer="g937" />
  <g
     id="g937"
     transform="translate(1334.324,320.08427)">
    <g
       id="g987">
      <path
         inkscape:connector-curvature="0"
         id="path893"
         d="M -1334.324,159.52445 V -320.08427 H -302.87515 728.5737 V 159.52445 639.13316 H -302.87515 -1334.324 Z M 291.61778,319.48427 c 35.29663,-5.48121 55.77127,-13.63736 72.8319,-29.01293 23.95226,-21.58646 32.19772,-50.45923 32.22945,-112.85639 l 0.0143,-28.18753 H 285.77559 174.85772 v 23.55973 23.55972 h 82.06991 82.06991 l -0.97123,10.51774 c -3.85694,41.76803 -17.9701,56.76492 -60.98441,64.8031 -21.50462,4.01861 -136.79148,3.94564 -159.82654,-0.10114 -31.727994,-5.57398 -47.38827,-16.74843 -54.655661,-38.99975 -3.683609,-11.27851 -3.860064,-14.58831 -3.860064,-72.40096 0,-58.53604 0.133276,-60.953501 3.946877,-71.577423 7.062534,-19.674862 18.221483,-28.849743 43.365568,-35.655138 13.35925,-3.615762 16.52123,-3.742934 94.17334,-3.788051 70.7168,-0.04106 81.76539,0.303921 92.15603,2.877568 25.74837,6.377585 38.59541,16.848099 45.30758,36.926321 l 3.83645,11.475993 h 26.9711 26.97112 l -1.12128,-9.191373 C 393.68971,86.378496 391.23181,76.285206 388.8444,69.004208 375.90493,29.542002 346.84772,10.363241 288.38513,2.6975958 265.418,-0.31387571 128.01834,-0.31804914 104.98819,2.6925473 41.843717,10.945604 13.628936,31.659921 2.5388782,77.907361 c -2.8669038,11.955467 -3.22833885,21.375672 -3.22833885,84.141879 0,79.18397 0.70321929,85.42604 12.14767265,107.82875 16.444788,32.19093 46.506256,46.12794 111.870728,51.8652 16.90158,1.48351 156.23326,-0.38629 168.28884,-2.25838 z m -986.7897,-4.01922 c 24.75413,-6.38837 48.52096,-22.14743 58.74172,-38.94984 15.94819,-26.21797 17.30597,-66.55052 3.03044,-90.01873 -6.38262,-10.4927 -19.10804,-22.01778 -30.8224,-27.91506 -5.4046,-2.7208 -9.78364,-5.32554 -9.7312,-5.78832 0.0524,-0.46278 3.91644,-3.64409 8.5867,-7.06957 18.05077,-13.23963 26.24442,-30.86425 26.24442,-56.451933 0,-44.387299 -22.61496,-72.825067 -67.57439,-84.9731346 -13.44498,-3.63284248 -15.75652,-3.69631911 -154.69803,-4.24854227 L -1002.4438,-0.51066673 V 159.521 319.55266 l 148.03609,-0.59864 c 133.16192,-0.53847 149.16138,-0.88904 159.23579,-3.48897 z m -247.88275,-89.52764 v -46.33713 l 111.35456,0.47981 111.35455,0.47983 9.15577,3.98756 c 10.15601,4.42319 20.31153,14.18964 24.48236,23.5444 3.83471,8.6009 3.76654,26.19606 -0.13922,35.94824 -4.15512,10.37462 -17.09889,21.64805 -29.16682,25.40299 -8.12946,2.52944 -20.72337,2.83146 -118.07064,2.83146 h -108.97056 z m 0,-135.312139 V 46.774327 h 101.86715 c 111.90286,0 112.25053,0.02793 126.79829,10.18073 14.03446,9.794603 20.29308,33.567477 13.1725,50.034763 -3.9822,9.20937 -14.1835,18.3913 -25.1712,22.65595 -9.57457,3.71617 -10.78722,3.76218 -113.1725,4.29344 l -103.49424,0.53699 z m 440.56573,119.805009 c 0.48357,-108.49748 0.50241,-109.00333 4.40337,-118.219338 8.00684,-18.916155 22.73196,-32.606964 43.69974,-40.630179 8.55377,-3.273051 13.229,-3.835977 31.85912,-3.835977 18.63011,0 23.30534,0.562926 31.85912,3.835977 21.0156,8.041524 35.82183,21.831924 43.62309,40.630179 3.6583,8.815178 3.89757,12.538768 5.02832,78.251948 0.65298,37.94799 1.277,86.98167 1.3867,108.96373 l 0.19946,39.9674 h 27.94781 27.94781 l 0.11301,-76.1484 c 0.0622,-41.88162 0.69634,-91.32309 1.4092,-109.86991 1.26815,-32.99395 1.41323,-33.962644 6.72456,-44.897453 7.29118,-15.010895 17.4675,-25.249094 32.11231,-32.307571 15.8302,-7.629817 28.51657,-10.005563 47.85112,-8.960992 33.3337,1.800872 57.43256,17.401819 69.3035,44.865224 l 4.05957,9.391632 0.49719,108.96373 0.4972,108.96374 h 28.819148 28.81917 L -64.829387,206.22319 C -65.324587,94.349172 -65.374771,92.927023 -69.208459,82.113916 -80.824687,49.349859 -109.34632,21.387678 -143.94848,8.8399194 c -18.87836,-6.8458507 -34.84586,-9.49044677 -57.61586,-9.5425979 -40.3448,-0.0923878 -73.08169,11.6497125 -101.77703,36.5054765 l -9.14084,7.917751 -9.14084,-7.917751 c -19.24032,-16.665865 -39.9115,-27.08825 -65.44252,-32.9960533 -19.074,-4.4136623 -51.02486,-4.776297 -70.01304,-0.7946191 -41.7073,8.7456904 -75.1002,32.1687874 -91.28423,64.0303884 -13.19607,25.979159 -12.72509,20.962519 -13.47635,143.546346 l -0.67295,109.80516 h 29.76879 29.76878 z"
         style="fill:#f3bfc7;stroke-width:1.71449018" />
      <path
         inkscape:connector-curvature="0"
         id="path891"
         d="M -1334.324,159.52445 V -320.08427 H -302.87515 728.5737 V 159.52445 639.13316 H -302.87515 -1334.324 Z M 298.87612,318.71918 c 55.24547,-10.32262 81.24079,-31.47357 92.77992,-75.48982 2.98785,-11.3972 3.79893,-20.98598 4.55364,-53.83455 l 0.9183,-39.96739 h -112.0085 -112.0085 v 23.55973 23.55972 h 82.33898 82.33896 l -0.92075,14.72483 c -1.62901,26.05137 -11.2418,42.61495 -29.81747,51.37783 -19.84121,9.35987 -26.018,10.03373 -99.49336,10.85421 -71.08355,0.79378 -87.78531,-0.18163 -108.462046,-6.33438 -22.045599,-6.56011 -34.252591,-20.75281 -38.750721,-45.05431 -2.872703,-15.52 -3.387467,-100.8001 -0.718102,-118.96566 4.893802,-33.303191 24.065003,-48.423538 67.195949,-52.997474 20.55682,-2.179998 128.27199,-2.152887 148.47274,0.03736 37.95742,4.115514 55.16728,15.465918 63.07677,41.600941 l 2.6738,8.834893 h 27.55943 27.55944 l -1.53144,-9.676312 C 389.38273,57.774212 373.77639,33.026419 349.53153,19.428822 338.49826,13.240876 318.1256,6.9820331 297.8306,3.5454094 283.11445,1.0534635 268.55354,0.60774713 200.18542,0.55650473 113.59161,0.4915472 97.404574,1.5653995 70.112123,9.1851199 49.852249,14.841423 37.0372,21.813924 25.519244,33.447549 4.4598709,54.718414 -1.156224,76.130335 -2.6939474,141.01323 -4.8602345,232.4189 1.9256508,267.10477 26.650973,291.00881 c 11.831094,11.43811 26.43765,18.58015 49.552165,24.22914 26.197842,6.4025 42.063672,7.24051 127.475762,6.73293 65.96118,-0.39198 83.00875,-0.97428 95.19722,-3.2517 z M -694.14449,315.538 c 27.90154,-7.78954 48.76657,-22.63774 59.67873,-42.46924 8.82094,-16.03098 11.54487,-28.94341 10.7027,-50.73471 -0.68039,-17.6053 -1.13989,-19.61311 -7.18568,-31.39846 -7.39244,-14.41038 -19.72606,-26.42116 -33.98347,-33.09398 -8.26859,-3.86989 -11.46479,-6.73135 -7.51882,-6.73135 0.88329,0 5.97355,-3.84569 11.31168,-8.54596 16.86252,-14.84761 25.45303,-38.12514 22.8589,-61.940233 -4.4041,-40.431419 -26.61475,-64.942925 -69.83794,-77.072633 -9.51709,-2.67078109 -23.5258,-2.99183285 -152.4029,-3.49271263 L -1002.4438,-0.49286231 V 159.51305 319.51899 l 148.90946,-0.52754 c 135.25302,-0.47915 149.87059,-0.79588 159.38985,-3.45345 z m -248.91018,-89.55316 v -46.3854 l 110.48119,0.50241 c 123.02844,0.55946 118.97622,0.18773 133.6107,12.25605 12.86913,10.61253 18.1308,31.42996 12.51128,49.50008 -3.04698,9.79782 -13.60971,20.74456 -24.65787,25.55428 l -9.23619,4.02089 -111.35455,0.46853 -111.35456,0.46855 z m 0,-136.298154 V 46.774327 h 100.07046 c 84.62275,0 101.67753,0.401626 110.48118,2.601768 20.41322,5.101488 31.75725,17.304922 33.5227,36.062301 1.38909,14.758724 -2.0063,24.463094 -11.89123,33.986404 -13.92511,13.4157 -11.55274,13.17424 -129.44259,13.17424 H -943.05467 Z M -502.49291,211.2717 c 0.46626,-99.70688 0.7536,-108.78027 3.69191,-116.57588 7.68573,-20.39096 26.63332,-37.799881 47.96055,-44.065826 14.30404,-4.202534 43.25149,-4.044599 57.13492,0.311729 21.86834,6.86182 39.7688,23.366923 47.45311,43.754097 2.93831,7.79561 3.22565,16.869 3.6919,116.57588 l 0.50561,108.12232 h 28.4846 28.48462 l 1.149,-30.56085 c 0.63197,-16.80847 1.14903,-63.97917 1.14903,-104.82379 0,-61.68712 0.45907,-75.96142 2.71093,-84.292814 7.58546,-28.064514 30.90029,-47.096617 63.22843,-51.613908 46.38901,-6.482038 85.28171,17.513139 93.00458,57.379962 1.05449,5.44351 1.75596,49.98026 1.75596,111.48799 v 102.42341 h 29.787423 29.787439 L -63.120011,209.58886 C -63.799283,86.732666 -63.271978,92.280174 -76.802508,65.651877 -92.489928,34.778858 -123.55084,12.244704 -163.64395,2.6499379 c -21.1182,-5.0538474 -56.27564,-4.9957222 -76.34863,0.1262128 -21.22388,5.415607 -46.885,18.3269763 -60.74834,30.5654973 L -312.48221,43.706817 -323.94036,33.5916 C -337.64642,21.491947 -364.35803,7.9982819 -384.97184,2.7608705 -395.7296,0.02762253 -404.373,-0.81265194 -422.52671,-0.89009613 -451.66257,-1.0144578 -469.97484,2.8771714 -494.14297,14.32905 c -13.9719,6.620468 -19.08886,10.270475 -32.38266,23.099066 -12.21323,11.785854 -17.22932,18.094291 -22.15051,27.857424 -12.90645,25.605081 -12.42282,20.322536 -13.13459,143.46191 l -0.63957,110.64657 h 29.72588 29.7259 z"
         style="fill:#ec9eaa;stroke-width:1.71449018" />
      <path
         inkscape:connector-curvature="0"
         id="path889"
         d="M -1334.324,159.52445 V -320.08427 H -302.87515 728.5737 V 159.52445 639.13316 H -302.87515 -1334.324 Z M 281.77692,320.89521 c 47.23236,-4.89992 78.40639,-19.00506 94.89418,-42.93625 14.8678,-21.57986 19.99619,-46.2164 20.01205,-96.13692 l 0.0103,-32.39462 H 284.90222 173.11098 v 23.55973 23.55972 h 82.34291 82.34289 l -0.98781,13.88341 c -2.47116,34.73115 -15.01473,49.65049 -49.40918,58.76738 -12.85872,3.40844 -18.64987,3.72054 -80.80945,4.35504 -70.58106,0.72044 -88.46627,-0.36265 -107.38605,-6.50311 C 78.996959,260.49127 69.464694,251.27967 62.523786,231.60302 58.962047,221.50595 58.763513,217.86385 58.732438,162.0487 58.701172,105.95636 58.883182,102.58799 62.551804,91.369523 69.052726,71.48986 79.51719,61.590837 100.69253,55.289704 c 20.00188,-5.951944 42.11906,-7.209192 112.93154,-6.419588 61.68468,0.687826 67.99108,1.029594 80.73469,4.375327 25.16921,6.607999 35.24271,15.026663 42.35487,35.396958 l 3.88992,11.14131 27.76995,0.461129 27.76994,0.46112 -1.61866,-10.558143 C 389.07628,54.608542 370.47691,28.234454 342.01566,15.689355 313.93178,3.3106031 295.65524,1.1072975 212.94283,0.12913129 113.16798,-1.0508239 79.49808,2.3314609 49.52643,16.54501 24.985563,28.183094 10.406152,46.288609 2.8251511,74.541147 -3.9920009,99.947081 -5.1962895,205.9758 0.95671774,239.04527 10.619236,290.9768 40.122132,313.43448 108.48167,320.89358 c 19.84006,2.16485 152.43093,2.1661 173.29525,0.002 z m -984.44722,-4.06644 c 32.58598,-5.38857 57.47078,-21.96566 69.6112,-46.37174 8.01615,-16.11498 10.15421,-27.19102 9.36667,-48.52334 -0.57925,-15.69076 -1.30652,-19.14256 -6.1017,-28.96012 -2.99424,-6.13034 -8.47958,-14.39949 -12.18963,-18.37588 -5.97051,-6.39918 -23.44725,-18.75398 -29.09393,-20.56736 -1.13992,-0.36606 2.70549,-4.92741 8.54537,-10.13633 20.30501,-18.11114 27.73518,-40.02714 23.44215,-69.144888 -4.26239,-28.910106 -20.15555,-50.779018 -45.71274,-62.900498 C -709.04264,0.35198948 -703.5005,0.72273543 -860.52129,0.09330368 L -1002.4438,-0.47561323 V 159.4592 319.39402 h 142.13039 c 119.39886,0 144.61136,-0.41028 157.64311,-2.56525 z m -239.97587,-90.35238 0.46487,-45.91647 110.0445,0.0118 c 100.22953,0.0101 110.7207,0.2715 117.62592,2.92394 19.16574,7.36196 30.1918,22.76486 30.1918,42.17649 0,19.72378 -9.43208,33.90598 -28.0774,42.21755 -7.78083,3.46848 -10.30665,3.55365 -119.33182,4.02334 l -111.38273,0.47988 0.46486,-45.91649 z m -0.4085,-136.801989 V 46.64909 l 104.36761,0.545525 c 116.52089,0.609053 111.92065,0.150278 126.2864,12.593835 10.49222,9.088316 14.7606,19.906505 13.43041,34.039362 -1.57621,16.746688 -9.10734,27.052608 -24.89055,34.061218 l -8.71192,3.8686 -105.24098,0.47104 -105.24097,0.47104 z m 440.17801,125.737249 c 0,-112.23556 0.0931,-113.5268 9.46833,-131.351145 2.34148,-4.451644 9.00211,-12.326129 14.80142,-17.498835 24.33715,-21.707629 64.10033,-25.891248 97.28682,-10.235877 10.72907,5.061319 24.70488,18.380609 30.22506,28.805232 8.74416,16.512915 8.91827,19.056525 8.91827,130.280625 v 103.98237 h 28.82118 28.82118 l 0.21948,-7.15206 c 0.1207,-3.93363 0.72762,-52.58868 1.34867,-108.12232 1.10196,-98.53574 1.22184,-101.20907 4.97193,-110.875166 15.93763,-41.080372 71.01207,-58.501309 116.74366,-36.927919 10.74573,5.069194 24.72089,18.383132 30.24376,28.812821 8.53011,16.108724 8.86574,21.059674 8.89332,131.190844 l 0.0258,103.0738 h 29.797135 29.797151 L -63.155261,208.74745 C -63.891615,85.636331 -63.416992,90.820834 -76.288286,65.28554 -81.216812,55.507833 -86.20733,49.237193 -98.438794,37.453173 -111.60377,24.769761 -116.98494,20.919462 -130.82145,14.282856 c -24.62607,-11.8117364 -39.2836,-15.00066321 -69.86952,-15.20097137 -20.86842,-0.13664643 -27.788,0.47491359 -39.30161,3.47364607 -25.75922,6.7090023 -46.0643,17.2636253 -63.13478,32.8175713 l -9.35485,8.523758 -9.35485,-8.523758 C -338.91237,19.81478 -359.22794,9.2563208 -384.97184,2.5605624 c -11.45971,-2.98057467 -18.5309,-3.6112349 -39.30161,-3.50521612 -30.21179,0.15414792 -44.9312,3.31266582 -68.99615,14.80510072 -26.08485,12.457054 -44.3137,29.488009 -55.94275,52.266512 -12.37059,24.230994 -11.98676,19.898023 -12.6336,142.620491 l -0.58316,110.64657 h 29.77622 29.77623 z"
         style="fill:#e77b8c;stroke-width:1.71449018" />
      <path
         inkscape:connector-curvature="0"
         id="path887"
         d="M -1334.324,159.52445 V -320.08427 H -302.87515 728.5737 V 159.52445 639.13316 H -302.87515 -1334.324 Z M 288.39569,320.28212 c 24.53788,-3.22681 36.49431,-6.4187 53.82611,-14.36943 19.02445,-8.72723 32.39406,-21.37217 40.94546,-38.72612 10.38133,-21.06754 12.33366,-32.62822 13.13718,-77.79176 l 0.71108,-39.96739 H 285.06325 173.11098 v 23.55973 23.55972 h 82.35613 82.35614 l -1.03584,13.88341 c -2.02908,27.19612 -10.97173,42.8316 -29.51711,51.60816 -21.62897,10.23587 -29.30838,11.00904 -109.70499,11.04507 -64.69739,0.0289 -73.99175,-0.30534 -86.46353,-3.11016 -29.827354,-6.70797 -42.330733,-17.25467 -49.306227,-41.59018 -2.678692,-9.34522 -3.095918,-18.39837 -3.095918,-67.17589 0,-48.77752 0.417226,-57.83066 3.095918,-67.175878 C 68.848917,69.42421 82.079777,58.65755 113.12052,52.26551 c 20.36317,-4.193278 155.56442,-4.181936 175.95663,0.01515 17.34081,3.568726 27.77106,8.402727 36.21292,16.783259 6.39858,6.351719 13.76103,21.470921 13.76103,28.258663 0,3.148438 1.34864,3.302548 28.90032,3.302548 h 28.90034 l -1.10631,-6.310637 C 386.90037,43.860258 364.22465,18.667876 317.35305,7.2217196 292.55843,1.1668026 268.44912,-0.345126 196.69194,-0.345126 c -71.74707,0 -95.86713,1.5120969 -120.646899,7.5633621 C 26.17338,19.397016 4.7110693,44.895994 -1.4568027,99.296681 -3.7871784,119.85051 -3.8233708,202.20109 -1.5113009,223.47227 c 6.8133091,62.68539 36.2497939,89.5134 106.9009809,97.42814 22.91382,2.56695 162.3672,2.09579 183.0061,-0.61829 z m -980.85374,-4.78231 c 27.94212,-7.9998 49.9434,-24.51004 59.84383,-44.90808 13.8153,-28.46401 13.55465,-61.49018 -0.67243,-85.19566 -5.42018,-9.03123 -20.6255,-22.81559 -30.41808,-27.57548 -4.25269,-2.0671 -8.01026,-3.9963 -8.35016,-4.28713 -0.33988,-0.29081 4.44128,-5.08831 10.62482,-10.6611 15.13676,-13.6417 22.35875,-28.31579 23.55097,-47.852375 2.74919,-45.049899 -22.31339,-78.5331 -68.49255,-91.5049845 C -715.90119,0.8381276 -729.808,0.52436253 -859.64792,0.05681976 L -1002.4438,-0.4573881 V 159.52206 319.5015 l 149.78283,-0.50919 c 137.36081,-0.46699 150.64697,-0.75662 160.20292,-3.4925 z m -249.43212,-44.34714 c -0.64047,-0.61703 -1.1645,-21.06351 -1.1645,-45.43662 v -44.31472 l 109.60782,0.0101 c 66.33888,0.005 112.04502,0.66169 115.7817,1.6618 10.7187,2.86886 22.02201,11.00724 27.29776,19.6544 4.46108,7.3119 4.95659,9.65138 4.95659,23.40158 0,14.06505 -0.41914,15.93066 -5.28154,23.50767 -2.90484,4.5266 -8.40707,10.31731 -12.22716,12.86824 -14.22135,9.49585 -17.93984,9.76945 -132.78663,9.76945 -57.76075,0 -105.54358,-0.50486 -106.18404,-1.1219 z m -0.75794,-180.98306 0.46681,-42.553864 h 102.18418 c 76.66491,0 103.97226,0.524439 109.34399,2.099962 15.83633,4.644783 27.54992,16.402063 30.67906,30.793471 4.37345,20.114071 -3.77203,37.211751 -21.99197,46.162091 l -10.35418,5.08636 -105.39735,0.48292 -105.39736,0.48292 z m 439.80177,126.99202 c 0.033,-111.29525 0.44458,-116.90149 9.7971,-133.45654 27.20748,-48.160355 113.83758,-48.160355 141.04505,0 9.35253,16.55505 9.76408,22.16129 9.79711,133.45654 l 0.0303,102.23239 h 29.69455 29.69455 V 215.41165 c 0,-113.11928 0.10393,-114.49475 9.96503,-131.950134 14.37861,-25.451774 49.34254,-40.101498 83.92214,-35.162993 35.70663,5.099453 60.1429,27.686398 65.00384,60.084367 0.99666,6.64257 1.75446,54.18133 1.77429,111.303 l 0.0346,99.70813 h 29.765362 29.76536 L -63.117182,208.74745 C -63.740383,85.646209 -63.279803,90.738863 -76.090328,65.28554 -81.044549,55.441933 -85.940132,49.308832 -98.334985,37.417767 -116.44983,20.03922 -131.8424,11.329493 -157.98207,3.6670281 c -14.0202,-4.10982599 -18.42991,-4.59492076 -42.7089,-4.698247 -23.09289,-0.098278 -29.07511,0.44048275 -40.67891,3.6637226 -26.24773,7.2909275 -45.23124,17.3921433 -61.94196,32.9596033 l -9.17037,8.542992 -9.17038,-8.618636 c -42.9267,-40.3440289 -117.33383,-49.165851 -174.15094,-20.64761 -24.93,12.513143 -42.51375,29.683085 -54.21679,52.940944 -12.05211,23.951541 -12.24544,26.248564 -12.24544,145.494503 v 106.08972 h 29.69455 29.69455 l 0.0304,-102.23239 z"
         style="fill:#e0586d;stroke-width:1.71449018" />
      <path
         inkscape:connector-curvature="0"
         id="path885"
         d="M -1334.324,159.52445 V -320.08427 H -302.87515 728.5737 V 159.52445 639.13316 H -302.87515 -1334.324 Z M 284.94804,321.00517 c 62.85242,-7.45035 93.93346,-29.38464 106.86283,-75.41447 3.04808,-10.85141 3.74286,-19.37582 4.44313,-54.51305 l 0.83006,-41.65023 H 285.09752 173.11098 v 23.55973 23.55972 h 82.09669 82.09669 l -0.0304,7.99348 c -0.0409,10.79029 -4.17354,28.88875 -8.43325,36.93305 -7.88901,14.89801 -21.78153,23.22705 -47.73877,28.62103 -12.65287,2.62928 -23.7245,3.01832 -85.28344,2.9967 -59.61915,-0.021 -72.70197,-0.4633 -83.20187,-2.81329 -19.214769,-4.3004 -29.544716,-9.28202 -37.97147,-18.31171 -13.725256,-14.70734 -16.665576,-30.71995 -16.665576,-90.75885 0,-21.75067 0.650922,-44.9529 1.446492,-51.56049 4.268993,-35.45606 17.768798,-49.683712 54.346614,-57.276708 12.96682,-2.691699 23.65174,-3.071499 86.41265,-3.071499 75.22247,0 85.53471,0.771379 105.23222,7.871557 16.88615,6.08679 29.54477,20.461034 32.81682,37.264571 l 1.20543,6.190419 h 28.64743 28.64743 l -1.05079,-7.15206 C 390.29446,56.789735 373.92207,31.462524 346.85069,17.930659 331.78893,10.401896 321.87904,7.3043301 300.62286,3.4810241 286.14116,0.87622704 272.91139,0.4962928 196.69194,0.4962928 102.14024,0.4962928 91.156631,1.3248042 62.686582,10.604526 30.982884,20.93826 10.9413,41.791024 2.8544963,72.85831 c -4.4869335,17.237558 -6.1023868,40.3481 -6.1337931,87.74997 -0.044542,67.17808 2.9977519,89.69539 15.1312408,111.99363 14.338152,26.34986 42.432164,41.67137 87.169323,47.53917 21.575503,2.82988 163.768153,3.49071 185.926773,0.86409 z m -983.82241,-4.25827 c 26.74984,-5.25939 48.74601,-18.93576 61.83559,-38.44702 16.35101,-24.3727 19.53376,-61.02094 7.5064,-86.43335 -5.44682,-11.5085 -21.26366,-27.4062 -33.28979,-33.46001 -5.21389,-2.6246 -9.48166,-5.23697 -9.48393,-5.80527 -0.002,-0.56829 2.97031,-3.01916 6.60578,-5.44637 8.59372,-5.7376 18.92253,-18.88911 23.61731,-30.07155 3.11884,-7.42875 3.71302,-12.19604 3.62439,-29.079482 -0.11318,-21.568896 -2.756,-32.04599 -11.85762,-47.008571 -6.36234,-10.459357 -22.38719,-24.078612 -35.04762,-29.78641 C -709.94583,0.12638827 -700.99048,0.70080805 -858.77455,0.08579822 L -1002.4438,-0.47418282 V 159.45991 319.39402 h 145.05294 c 125.05763,0 146.90884,-0.36491 158.51649,-2.64712 z m -242.94277,-45.52386 c -0.68063,-0.65575 -1.23753,-21.13388 -1.23753,-45.50699 v -44.31472 h 109.97898 c 106.4995,0 110.28094,0.10888 119.52374,3.44052 19.38848,6.98879 30.09492,23.49172 28.7097,44.25326 -0.93466,14.00851 -6.82933,25.33096 -16.67723,32.03357 -15.63166,10.63908 -10.36338,10.20207 -129.81647,10.76854 -60.084,0.28496 -109.80054,-0.0185 -110.48119,-0.67418 z m -0.83083,-181.115645 0.46667,-42.491649 h 102.18418 c 95.12649,0 102.82857,0.216261 111.51396,3.131222 19.10095,6.410568 28.96174,19.645143 29.04658,38.984633 0.0924,21.065909 -10.98392,34.909019 -32.3058,40.375479 -7.84629,2.01163 -27.68677,2.4556 -110.46815,2.47199 l -100.90412,0.02 z m 439.77131,127.704635 c 0,-55.87009 0.73343,-105.30788 1.62984,-109.86174 7.5054,-38.128055 36.28491,-60.100277 78.72011,-60.100277 23.88123,0 42.6362,6.599618 57.93534,20.386669 9.87658,8.90041 17.74872,23.54135 20.52151,38.166738 1.22415,6.45698 1.8931,45.85209 1.8931,111.48799 v 101.50261 h 29.69455 29.69455 l 0.0258,-103.0738 c 0.0276,-109.98509 0.37184,-115.09841 8.82452,-131.060895 17.29272,-32.656524 63.92819,-46.616116 105.57783,-31.603051 19.19054,6.917422 34.59495,22.492151 41.46195,41.920343 3.80424,10.763043 3.87516,12.645293 4.4225,117.377923 l 0.55625,106.43948 h 29.69121 29.691194 L -63.14761,207.90603 C -63.824541,84.438151 -63.333655,89.982882 -75.699582,66.126959 -83.923592,50.261452 -95.380203,36.89193 -109.50062,26.682104 -133.7807,9.1263384 -159.90677,0.20684473 -192.08869,-1.5136211 -233.32539,-3.7181552 -267.3141,6.6788867 -298.94496,31.173379 L -312.48218,41.656414 -326.0194,31.158149 C -362.30537,3.0180081 -405.62908,-7.4311513 -453.01101,0.52929325 -504.08488,9.1100149 -542.59204,40.233945 -558.11324,85.479592 c -2.91611,8.500753 -3.22149,18.416768 -3.74439,121.585018 l -0.56935,112.32941 h 29.77516 29.77516 z"
         style="fill:#db3d55;stroke-width:1.71449018" />
      <path
         inkscape:connector-curvature="0"
         id="path883"
         d="M -1334.324,159.52445 V -320.08427 H -302.87515 728.5737 V 159.52445 639.13316 H -302.87515 -1334.324 Z M 292.36916,320.43608 c 57.99334,-9.01843 86.53092,-30.16986 98.94761,-73.33781 4.48372,-15.58811 7.4828,-49.84484 6.78288,-77.4768 L 397.56683,148.586 285.3389,148.15292 173.11098,147.71985 v 24.41351 24.41351 h 82.09669 82.09669 l -0.0346,5.46923 c -0.0683,10.81049 -3.55545,28.62129 -7.2028,36.78964 -5.14572,11.52392 -17.89689,22.21199 -31.67598,26.5509 -22.18459,6.98569 -32.41154,7.75934 -102.57242,7.75934 -58.03325,0 -69.28416,-0.41428 -82.0967,-3.02294 -27.683576,-5.63647 -41.085406,-14.96482 -49.13434,-34.20003 -4.107473,-9.81597 -4.141167,-10.42353 -4.141167,-74.68573 0,-64.296879 0.03162,-64.865981 4.159158,-74.88627 8.255503,-20.041619 23.602816,-29.576964 56.103309,-34.857254 20.12963,-3.270427 146.48533,-2.706794 165.13948,0.736611 19.04455,3.515482 30.84701,8.726607 38.95296,17.198803 6.19542,6.47534 14.24982,22.734059 14.24982,28.764827 0,2.060853 4.7197,2.461133 29.0195,2.461133 h 29.01952 l -1.19426,-7.672494 C 386.97826,35.66117 354.72895,8.8446818 285.77559,1.3835521 265.26747,-0.83553853 127.92348,-0.82040982 107.6083,1.4032413 58.845225,6.7405795 26.876495,22.447428 12.8741,47.947938 -1.3191248,73.79597 -3.9082972,94.434004 -2.8498438,173.28178 c 0.7249487,54.00412 1.1449344,60.74601 4.5877902,73.64516 13.8458686,51.87547 46.4872166,71.16059 129.4513236,76.48219 5.28388,0.33893 39.86929,0.40606 76.85647,0.1491 50.9374,-0.35375 71.39088,-1.11106 84.32342,-3.12218 z m -987.58361,-4.13892 c 39.10941,-9.86114 63.13838,-33.08738 70.94102,-68.57109 4.77297,-21.70578 2.7664,-39.75308 -6.4387,-57.91055 -6.53923,-12.89891 -19.99905,-26.10788 -32.65733,-32.04863 -4.8428,-2.27281 -8.80496,-4.51101 -8.80482,-4.97379 1.4e-4,-0.46278 3.49841,-3.32051 7.77393,-6.35051 16.52717,-11.71259 27.0458,-34.05725 26.99904,-57.353884 -0.0893,-44.43849 -25.9616,-75.442888 -71.78705,-86.0265907 -14.04085,-3.24281124 -20.44904,-3.38415277 -153.95304,-3.39544461 L -1002.4438,-0.345126 V 160.47739 321.29988 l 146.28935,-0.65434 c 143.89636,-0.64363 146.52897,-0.71476 160.94,-4.34838 z m -246.09348,-90.25314 v -44.64269 h 107.98073 c 120.12227,0 119.24228,-0.0735 132.76899,11.08136 13.43053,11.07547 18.75911,28.12322 14.33892,45.87457 -2.52778,10.15148 -12.66988,22.13615 -23.42189,27.67702 -7.1938,3.70721 -7.4771,3.71714 -119.43882,4.18423 l -112.22793,0.46821 z m 0,-135.452826 v -42.13403 h 101.90657 c 110.59521,0 111.99853,0.104841 124.52349,9.308667 12.62288,9.275717 18.16643,25.426111 14.56686,42.438589 -1.74707,8.25716 -3.36637,10.91376 -11.04094,18.11368 -4.94649,4.64054 -12.13774,9.53462 -15.98056,10.87572 -5.73377,2.00101 -25.5497,2.53638 -110.48119,2.98489 l -103.49423,0.54651 z m 440.178,119.418376 c 0.783,-98.82017 1.18235,-110.967839 3.85946,-117.396396 7.29483,-17.517263 22.65638,-32.235495 41.1154,-39.393562 8.80945,-3.416144 12.95281,-3.889358 33.62836,-3.840707 20.2435,0.04762 24.94066,0.58519 33.18802,3.798131 20.66987,8.052428 35.30167,22.717483 42.30341,42.399581 3.83799,10.788673 3.89919,12.407863 4.46977,118.259613 l 0.57848,107.32118 29.163,-0.46099 29.163,-0.46098 0.93501,-107.70161 c 1.03601,-119.335365 0.74923,-116.34572 12.77784,-133.208224 14.21555,-19.928264 33.45252,-29.327215 62.38935,-30.482702 38.59365,-1.541075 62.93509,11.04066 77.39112,40.002363 l 5.45984,10.938444 0.87337,110.225859 0.87337,110.22587 30.131235,0.46044 30.131232,0.46046 -0.03039,-108.16207 C -62.763293,90.744955 -62.713336,91.316413 -75.626115,66.126959 -92.914734,32.401884 -126.09671,9.2833976 -169.6128,0.64476956 -186.78813,-2.7648109 -216.20873,-2.7809829 -233.51602,0.60959826 -257.52293,5.3127255 -285.07261,18.486752 -302.93148,33.803519 l -9.40322,8.06473 -12.73763,-10.327002 c -14.08607,-11.42019 -40.70075,-24.799641 -59.02621,-29.673004 -8.88238,-2.36211502 -17.62742,-3.0006173 -40.17498,-2.9333038 -26.32004,0.0785886 -30.17979,0.48701325 -44.47679,4.7064593 -47.48864,14.0151935 -78.87132,44.0412905 -90.05242,86.1596865 -3.27814,12.348795 -3.46303,18.872925 -3.46303,122.200265 v 109.15499 l 30.13123,-0.46046 30.13123,-0.46044 z"
         style="fill:#d51532;stroke-width:1.71449018" />
      <path
         inkscape:connector-curvature="0"
         id="path881"
         d="M -1334.324,159.52445 V -320.08427 H -302.87515 728.5737 V 159.52445 639.13316 H -302.87515 -1334.324 Z M 292.76254,320.40988 c 48.6756,-7.48636 76.53335,-23.59242 91.02984,-52.6293 9.69368,-19.41668 12.79159,-37.40122 14.08206,-81.75144 l 1.11397,-38.28456 H 286.0497 173.11098 v 24.40115 24.40114 h 82.30192 82.30191 l -1.26778,13.03414 c -3.56728,36.67542 -18.03076,52.50379 -55.03829,60.23212 -17.76796,3.7105 -114.60932,5.42299 -145.97967,2.58144 C 88.310881,268.12654 69.251225,256.23032 62.290142,226.74438 58.318025,209.91926 58.353117,112.34672 62.337304,95.470262 67.54171,73.425359 81.312277,60.47387 105.86439,54.532191 c 18.71174,-4.528297 62.03705,-6.582385 116.15524,-5.507018 51.47393,1.022811 65.46986,2.369687 81.68682,7.860988 17.61206,5.963674 29.37243,18.355434 33.62385,35.428999 l 2.06922,8.30997 h 28.84529 28.8453 l -1.19177,-7.993479 C 391.94242,66.098334 382.9966,46.762227 367.97079,32.267038 352.75374,17.587377 337.80629,10.670577 307.6098,4.3355522 292.45429,1.1560325 283.73769,0.79132789 207.05929,0.12857596 137.64924,-0.47135565 119.4525,-0.13956739 102.0346,2.0435442 34.432709,10.516581 6.0982588,35.825314 -1.546585,94.563734 -3.9091531,112.71628 -3.7893968,210.35109 -1.3811689,229.36221 2.0393285,256.3653 13.0995,281.78598 26.573121,293.61222 c 18.303859,16.06592 50.219349,25.88506 95.009159,29.23055 31.10144,2.32308 151.37131,0.61374 171.18033,-2.43289 z m -1010.71942,-1.055 c 24.48822,-2.08822 42.49475,-7.57473 57.99328,-17.67029 18.71047,-12.18778 30.76189,-29.86808 35.71706,-52.39945 8.30275,-37.75307 -3.73951,-70.13487 -32.81487,-88.23971 -5.60832,-3.49223 -11.13712,-6.68669 -12.28621,-7.0988 -1.1683,-0.41901 2.31736,-4.58898 7.90735,-9.45975 7.17923,-6.25555 11.85598,-12.33498 16.59401,-21.57102 6.57262,-12.81228 6.59739,-12.93987 6.59739,-33.983321 0,-17.828975 -0.6432,-22.917606 -4.12481,-32.633149 -8.50279,-23.727253 -28.76646,-42.030485 -56.5761,-51.102612 L -713.35861,0.4962928 -857.90118,0.02006659 -1002.4438,-0.4561428 V 160.31035 321.07686 l 132.31545,-0.0152 c 74.28919,-0.008 141.02318,-0.75694 152.17147,-1.70759 z M -941.30793,225.9487 v -44.64303 l 111.35456,0.46855 111.35455,0.46853 8.99364,4.56987 c 28.89337,14.68138 33.67559,52.38779 9.2037,72.56851 -13.88143,11.44732 -11.09316,11.2106 -132.04648,11.2106 h -108.85997 z m 0,-135.345827 V 48.457164 l 101.7475,0.0101 c 63.86174,0.0067 104.13921,0.649374 108.17079,1.728157 18.81172,5.033737 31.62714,20.491795 31.76022,38.309461 0.13817,18.502128 -8.55566,31.871288 -25.53427,39.265878 l -9.15577,3.98687 -103.49424,0.49547 -103.49423,0.49546 z m 440.56641,119.827407 0.48496,-110.646569 5.54485,-11.276207 c 9.26763,-18.847057 26.16848,-31.976943 48.60403,-37.759409 11.22171,-2.892242 35.94022,-2.892242 47.16193,0 30.05626,7.74659 50.67754,29.929923 54.96879,59.132645 0.98294,6.68916 1.74595,54.86902 1.7656,111.48799 l 0.0346,99.70813 h 29.69455 29.69455 l 0.0304,-102.23239 c 0.0241,-81.31626 0.53263,-104.51545 2.48542,-113.3914 7.94138,-36.095769 36.44827,-56.955955 77.83421,-56.955955 37.79316,0 65.30636,17.738589 75.15356,48.453775 3.28132,10.23505 3.44965,15.96597 3.44965,117.44305 l -7e-5,106.68292 h 30.637335 30.637333 L -63.083906,207.90603 -63.607998,94.735198 -67.674666,82.955335 C -74.310734,63.732702 -82.925733,50.508678 -98.56145,35.544163 c -12.2009,-11.67716 -17.1071,-15.022389 -32.48604,-22.150182 -9.96308,-4.6176728 -23.22392,-9.6603294 -29.46851,-11.2059316 -15.58941,-3.8585278 -50.77802,-5.199396 -67.70524,-2.5799078 -27.09696,4.1932442 -55.43148,17.0707554 -74.49557,33.8568754 l -9.7654,8.598526 -9.7654,-8.598526 C -365.98186,-5.0434066 -437.991,-13.484335 -494.12516,13.317496 c -15.61589,7.455963 -20.54971,10.893782 -33.3951,23.269252 -12.21326,11.766468 -16.44989,17.263019 -22.3355,28.977841 -12.38651,24.654328 -12.34562,24.170158 -12.37968,146.548531 l -0.0303,108.96374 h 30.51964 30.51963 z"
         style="fill:#d1001f;stroke-width:1.71449018" />
      <path
         style="fill:#ffffff;stroke:#ffffff;stroke-width:3.69510221;stroke-miterlimit:4;stroke-dasharray:none;stroke-opacity:1"
         d="M -1001.9885,159.69547 V 0.21528446 l 144.72481,1.07590004 c 141.75686,1.05383 145.00801,1.18652 158.5329,6.47012 41.20108,16.0954995 61.2107,45.7855195 58.29753,86.5010395 -1.46499,20.474906 -7.18173,32.708086 -22.12462,47.344166 l -11.76831,11.52664 14.07518,9.41228 c 16.10459,10.76936 28.88474,26.31992 32.58716,39.65115 3.68675,13.27479 3.15194,39.597 -1.09506,53.89822 -7.49209,25.22861 -29.1648,45.93343 -57.91422,55.32785 -15.41498,5.03714 -21.59305,5.27927 -165.66375,6.49264 l -149.65162,1.26035 z m 263.95884,112.35033 c 23.47671,-1.63853 27.19625,-2.56034 35.31321,-8.75143 13.65126,-10.41231 18.48677,-19.99274 18.49751,-36.64832 0.005,-7.85779 -1.59695,-17.39288 -3.56006,-21.18909 -5.44134,-10.52237 -19.89589,-21.97143 -30.17337,-23.89949 -5.06766,-0.95071 -58.02371,-1.83678 -117.68008,-1.96906 l -108.46614,-0.24051 -0.39757,44.34123 c -0.21868,24.38767 0.0236,45.72689 0.53853,47.42048 0.72761,2.39339 20.84332,3.04454 90.31173,2.92344 49.15659,-0.0857 101.18391,-0.97997 115.61624,-1.98725 z m 16.40059,-143.81512 c 28.64589,-13.46516 32.22841,-52.692576 6.59768,-72.242096 -12.36391,-9.43041 -34.91872,-11.08485 -140.57951,-10.31178 l -88.48769,0.64742 -0.67779,41.78737 c -0.37279,22.983046 -0.23706,42.936596 0.30164,44.341226 0.66218,1.7266 35.17345,2.27417 106.54173,1.69044 100.29424,-0.82033 106.09834,-1.11539 116.30394,-5.91258 z"
         id="path895"
         inkscape:connector-curvature="0" />
      <path
         style="fill:#ffffff;stroke:#ffffff;stroke-width:3.69510221;stroke-miterlimit:4;stroke-dasharray:none;stroke-opacity:1"
         d="m -560.97291,224.30498 c 0.0367,-51.82381 1.04655,-104.34724 2.24408,-116.71874 2.84202,-29.360286 10.76722,-46.043116 32.13201,-67.638956 26.43379,-26.71967 59.1333,-39.19598954 102.72982,-39.19598954 38.81762,0 70.09005,10.56243954 97.59025,32.96163954 l 14.2542,11.61027 10.979,-9.66403 c 14.7031,-12.94221 41.1972,-26.5704495 60.5001,-31.1205495 20.2053,-4.76279004 58.1156,-4.76279004 78.3208,0 36.9091,8.7002395 71.299501,35.0338395 86.665501,66.3619095 l 8.4295,17.1861 0.7294,115.221726 0.7294,115.22173 h -26.8339 -26.833901 l -1.3644,-109.24048 c -1.3085,-104.76812 -1.5767,-109.656666 -6.5507,-119.406476 -12.1715,-23.85812 -30.7953,-37.1491 -59.2967,-42.31738 -39.5657,-7.17464 -77.1808,10.90735 -91.96,44.20624 -4.68,10.544476 -5.0446,17.613056 -6.1381,118.984276 l -1.1625,107.77382 h -26.7622 -26.76227 l -0.23618,-33.87178 c -0.1299,-18.62947 -0.97792,-68.23622 -1.88449,-110.23721 l -1.64831,-76.365446 -7.22753,-13.11404 c -8.11584,-14.72583 -19.96056,-25.15771 -37.24733,-32.80447 -15.43793,-6.82893 -48.36048,-7.4092 -66.84687,-1.17819 -16.0888,5.42288 -35.3568,22.41575 -42.98941,37.91332 -5.70025,11.574016 -5.7414,12.327776 -6.58725,120.652296 l -0.85118,109.00552 h -28.09379 -28.0938 z"
         id="path897"
         inkscape:connector-curvature="0" />
      <path
         style="fill:#ffffff;stroke:#ffffff;stroke-width:3.69510221;stroke-miterlimit:4;stroke-dasharray:none;stroke-opacity:1"
         d="m 94.200251,317.36968 c -48.9626,-7.92533 -73.849,-24.9784 -86.9058999,-59.55121 -5.2247,-13.83407 -5.4468,-17.78701 -5.4468,-96.94608 0,-81.444586 0.078,-82.716456 5.9268,-97.242126 C 19.863051,33.610084 44.232851,15.760324 85.603251,6.6242045 114.48625,0.24576446 277.77315,0.25895446 307.30935,6.6421045 c 48.3568,10.4505395 72.7065,32.1464695 83.7762,74.6458995 2.021,7.75921 3.6746,14.98328 3.6746,16.0535 0,1.07021 -11.9337,1.94584 -26.5192,1.94584 h -26.5192 l -4.2726,-12.02968 c -5.4288,-15.28508 -19.5509,-28.24817 -36.7673,-33.74972 -10.6422,-3.40072 -26.4723,-4.39456 -84.9438,-5.33294 -98.322,-1.57792 -125.814499,2.80794 -143.440699,22.88301 -12.781,14.55684 -13.7915,21.22761 -13.7915,91.046076 v 64.04844 l 6.8931,14.03707 c 7.2815,14.82791 14.8143,21.04536 34.0233,28.08229 14.316299,5.24458 84.131299,8.08974 141.991099,5.78653 36.3764,-1.44804 46.1315,-2.65769 58.0416,-7.19727 25.2909,-9.63983 37.12,-27.54865 39.0923,-59.18413 l 0.6911,-11.08531 -81.8605,-0.64906 -81.8605,-0.64906 v -22.1374 -22.13741 h 109.6214 109.6214 l -0.02,32.64007 c -0.032,56.47461 -7.6854,83.39575 -29.5114,103.81151 -14.4196,13.48781 -27.0152,20.02741 -51.3458,26.65854 -17.2625,4.70477 -26.6474,5.21293 -108.8061,5.89147 -67.608,0.55838 -95.115,-0.0993 -110.877999,-2.65069 z"
         id="path899"
         inkscape:connector-curvature="0" />
    </g>
  </g>
</svg>
