<?xml version="1.0" encoding="UTF-8" standalone="no"?>
<!-- Created with Inkscape (http://www.inkscape.org/) -->
<svg xmlns:dc="http://purl.org/dc/elements/1.1/" xmlns:cc="http://creativecommons.org/ns#" xmlns:rdf="http://www.w3.org/1999/02/22-rdf-syntax-ns#" xmlns:svg="http://www.w3.org/2000/svg" xmlns="http://www.w3.org/2000/svg" xmlns:sodipodi="http://sodipodi.sourceforge.net/DTD/sodipodi-0.dtd" xmlns:inkscape="http://www.inkscape.org/namespaces/inkscape" width="63.540001" height="18.940001" id="svg3406" version="1.1" inkscape:version="0.48.1 " sodipodi:docname="Neues Dokument 3">
  <defs id="defs3408">
    <clipPath clipPathUnits="userSpaceOnUse" id="clipPath126">
      <path inkscape:connector-curvature="0" d="m 18.162,140.439 69.394,0 0,30.202 -69.394,0 0,-30.202 z" clip-rule="evenodd" id="path128"/>
    </clipPath>
    <clipPath clipPathUnits="userSpaceOnUse" id="clipPath134">
      <path inkscape:connector-curvature="0" d="m 21.379,160.191 69.44,0 0,-13.58 -69.44,0 0,13.58 z" id="path136"/>
    </clipPath>
  </defs>
  <sodipodi:namedview id="base" pagecolor="#ffffff" bordercolor="#666666" borderopacity="1.0" inkscape:pageopacity="0.0" inkscape:pageshadow="2" inkscape:zoom="14.526542" inkscape:cx="31.770001" inkscape:cy="9.4700011" inkscape:document-units="px" inkscape:current-layer="layer1" showgrid="false" fit-margin-top="0" fit-margin-left="0" fit-margin-right="0" fit-margin-bottom="0" inkscape:window-width="1024" inkscape:window-height="678" inkscape:window-x="-4" inkscape:window-y="-4" inkscape:window-maximized="1"/>
  <metadata id="metadata3411">
    <rdf:RDF>
      <cc:Work rdf:about="">
        <dc:format>image/svg+xml</dc:format>
        <dc:type rdf:resource="http://purl.org/dc/dcmitype/StillImage"/>
        <dc:title/>
      </cc:Work>
    </rdf:RDF>
  </metadata>
  <g inkscape:label="Ebene 1" inkscape:groupmode="layer" id="layer1" transform="translate(-168.43278,-427.5522)">
    <g transform="matrix(1.25,0,0,-1.25,142.62402,628.77926)" id="g122">
      <g id="g124" clip-path="url(#clipPath126)">
        <g id="g130">
          <g id="g132" clip-path="url(#clipPath134)">
            <path inkscape:connector-curvature="0" d="m 46.343,149.898 c 0.801,0.063 2.214,-0.372 2.157,-1.433 -0.06,-1.103 -1.021,-1.587 -2.8,-1.685 -1.367,-0.075 -2.47,0.408 -2.497,1.754 -0.023,1.136 0.753,1.374 0.753,1.374 0,0 1.685,-0.066 2.387,-0.01 m -1.312,4.298 c 0,-0.454 0.285,-0.897 0.738,-0.899 0.454,-0.003 0.738,0.445 0.738,0.899 l 0,1.904 c 0,0.52 -0.137,1.104 -0.738,1.11 -0.592,0.005 -0.738,-0.59 -0.738,-1.11 l 0,-1.904 z m 2.677,5.087 c 0.698,-0.002 1.106,-0.528 1.106,-1.104 0,-0.577 -0.495,-1.044 -1.106,-1.044 -0.611,0 -1.132,0.5 -1.132,1.076 0,0.498 0.201,0.551 0.201,0.551 -0.425,-0.022 -0.757,-0.672 -0.344,-1.473 0,0 2.496,-0.413 2.48,-2.096 -0.015,-1.573 -2.033,-2.018 -3.105,-2.051 -0.908,-0.028 -1.892,0.379 -1.892,0.379 0,0 -0.658,-0.084 -0.595,-0.533 0.115,-0.836 1.43,-0.478 2.487,-0.506 1.115,-0.03 1.824,0.097 3.05,-0.583 0.518,-0.286 1.024,-1.02 1.014,-2.03 -0.02,-2.172 -1.849,-3.111 -4.064,-3.23 -1.707,-0.093 -3.694,0.561 -3.709,1.882 -0.015,1.297 1.76,1.481 1.76,1.454 0,-0.02 -1.582,0.33 -1.641,1.833 -0.051,1.277 1.548,1.797 1.548,1.797 0,0 -1.234,0.722 -1.234,1.602 0,1.077 1.135,1.922 2.385,2.096 0.705,0.097 1.378,0.03 1.378,0.03 -0.528,1.19 0.382,1.953 1.413,1.95" style="fill:#ed1c24;fill-opacity:1;fill-rule:evenodd;stroke:none" id="path138"/>
          </g>
        </g>
        <path inkscape:connector-curvature="0" d="m 38.653,156.889 -0.911,0 0,0.123 3.773,0 0,-7.242 0.911,0 0,-0.123 -4.684,0 0,0.123 0.911,0 0,7.119 z" style="fill:#ed1c24;fill-opacity:1;fill-rule:nonzero;stroke:none" id="path140"/>
        <path inkscape:connector-curvature="0" d="m 38.527,158.773 c 0,0.778 0.669,1.408 1.493,1.408 0.824,0 1.492,-0.63 1.492,-1.408 0,-0.777 -0.668,-1.408 -1.492,-1.408 -0.824,0 -1.493,0.631 -1.493,1.408" style="fill:#ed1c24;fill-opacity:1;fill-rule:nonzero;stroke:none" id="path142"/>
        <path inkscape:connector-curvature="0" d="m 63.243,156.889 -1.041,0 0,-6.26 c 0,-0.245 0.14,-0.665 0.455,-0.667 0.315,-0.002 0.455,0.422 0.455,0.667 l 0,1.671 0.131,0 0,-1.624 c 0,-0.801 -1.009,-1.499 -1.991,-1.331 -1.591,0.272 -2.043,1.418 -2.043,2.154 l 0,5.39 -1.561,0 0,-6.26 c 0,-0.245 0.14,-0.666 0.455,-0.667 0.315,-10e-4 0.456,0.422 0.456,0.667 l 0,1.671 0.13,0 0,-1.624 c 0,-0.801 -1.009,-1.499 -1.991,-1.331 -1.591,0.272 -2.042,1.418 -2.042,2.154 l 0,5.39 -0.838,0 0,0.123 0.838,0 2.992,2.454 0,-2.454 1.561,0 2.993,2.454 0,-2.454 1.041,0 0,-0.123 z" style="fill:#ed1c24;fill-opacity:1;fill-rule:nonzero;stroke:none" id="path144"/>
        <path inkscape:connector-curvature="0" d="m 50.362,156.889 -0.91,0 0,0.123 3.773,0 0,-7.242 0.91,0 0,-0.123 -4.163,0 0,0.123 0.39,0 0,7.119 z" style="fill:#ed1c24;fill-opacity:1;fill-rule:nonzero;stroke:none" id="path146"/>
        <path inkscape:connector-curvature="0" d="m 50.237,158.773 c 0,0.778 0.668,1.408 1.492,1.408 0.824,0 1.493,-0.63 1.493,-1.408 0,-0.777 -0.669,-1.408 -1.493,-1.408 -0.824,0 -1.492,0.631 -1.492,1.408" style="fill:#ed1c24;fill-opacity:1;fill-rule:nonzero;stroke:none" id="path148"/>
        <path inkscape:connector-curvature="0" d="m 21.576,159.712 0,0.123 4.847,0 c 1.171,0 4.233,-0.456 4.27,-2.49 0.036,-2.047 -2.848,-2.296 -2.848,-2.296 0,0 3.654,-0.497 3.626,-2.88 -0.023,-1.959 -2.503,-2.522 -3.27,-2.522 l -6.755,0 0,0.123 1.204,0 0,9.942 -1.074,0 z m 4.197,0 0.634,0 c 0.543,0 1.447,-0.276 1.469,-2.339 0.023,-2.148 -0.906,-2.202 -1.298,-2.202 l -0.805,0 0,4.541 z m 0,-4.664 0.909,0 c 0.622,0 1.505,-0.496 1.573,-2.755 0.057,-1.916 -0.823,-2.523 -1.377,-2.523 l -1.105,0 0,5.278 z" style="fill:#ed1c24;fill-opacity:1;fill-rule:evenodd;stroke:none" id="path150"/>
        <path inkscape:connector-curvature="0" d="m 35.179,155.723 0,-5.953 0.911,0 0,-0.123 -4.684,0 0,0.123 0.911,0 0,7.119 -0.911,0 0,0.123 3.773,0 0,-0.773 c 0.101,0.466 0.742,0.895 1.568,0.895 0.865,0 1.416,-0.661 1.386,-1.411 -0.029,-0.714 -0.618,-1.289 -1.379,-1.289 -0.762,0 -1.38,0.577 -1.38,1.289 0,0.253 0.181,0.82 0.801,1.112 0,0 -0.996,-0.119 -0.996,-1.112" style="fill:#ed1c24;fill-opacity:1;fill-rule:nonzero;stroke:none" id="path152"/>
        <path inkscape:connector-curvature="0" d="m 66.44,155.384 0,-1.832 1.562,0 0,1.832 c 0,0.727 -0.054,1.694 -0.781,1.692 -0.727,-0.001 -0.781,-0.965 -0.781,-1.692 m 4.017,-3.06 c -0.032,-1.236 -1.062,-2.591 -2.184,-2.573 -0.799,0.013 -1.835,0.368 -1.835,1.97 l 0,1.668 4.238,0 0.004,0.855 c 0.005,1.342 -1.055,2.956 -3.332,2.955 -2.257,-0.002 -4.019,-1.794 -4.05,-3.94 -0.032,-2.158 1.675,-3.756 4.039,-3.811 2.377,-0.054 3.258,1.718 3.281,2.876 l -0.161,0 z" style="fill:#ed1c24;fill-opacity:1;fill-rule:evenodd;stroke:none" id="path154"/>
      </g>
    </g>
  </g>
</svg>