<?xml version="1.0" encoding="UTF-8"?>
<svg width="200px" height="34px" viewBox="0 0 200 34" version="1.1" xmlns="http://www.w3.org/2000/svg" xmlns:xlink="http://www.w3.org/1999/xlink">
    <!-- Generator: Sketch 51.2 (57519) - http://www.bohemiancoding.com/sketch -->
    <title>fremantle-logo-light</title>
    <desc>Created with Sketch.</desc>
    <defs></defs>
    <g id="Page-1" stroke="none" stroke-width="1" fill="none" fill-rule="evenodd">
        <g id="fremantle-logo-light" fill="#000000" fill-rule="nonzero">
            <path d="M44.474213,20.4136546 C45.679839,20.4136546 46.148694,20.686747 46.148694,20.9598394 C46.148694,22.0522088 43.402545,23.0080321 41.460147,23.0080321 C40.790355,23.0080321 40.120563,22.939759 39.517749,22.7349398 C40.656397,21.3694779 42.866711,20.4136546 44.474213,20.4136546 Z M177.896852,20.2771084 C178.834561,20.2771084 179.303416,20.4136546 179.303416,20.8232932 C179.303416,21.6425703 177.22706,23.8273092 171.9357,26.2168675 C171.868721,26.0803213 171.868721,25.875502 171.868721,25.8072289 C171.868721,22.8714859 175.351641,20.2771084 177.896852,20.2771084 Z M167.716008,2.935743 C167.983925,2.935743 168.184863,3.0040161 168.251842,3.1405622 C168.117883,4.9839357 166.912257,7.5100402 165.371735,9.8313253 L159.276624,10.1726908 C161.018084,7.0321285 164.768922,2.935743 167.716008,2.935743 Z M98.727395,31.064257 C101.339585,31.064257 104.018754,30.313253 106.430007,28.811245 C106.697924,30.244411 107.367716,30.5863454 108.037508,30.5863454 C108.908238,30.5863454 109.444072,29.9036145 109.444072,28.811245 C109.444072,28.2650602 109.377093,27.0361446 109.176155,25.875502 C108.975218,25.0562249 108.506363,24.6465863 107.836571,24.6465863 C107.233758,24.6465863 106.898861,24.7831325 105.894173,25.6024096 C104.085733,26.9678715 101.406564,27.9919679 99.263228,27.9919679 C98.593436,27.9919679 98.392498,27.7871486 98.392498,27.5823293 C98.392498,25.7389558 101.875419,21.5742972 106.831882,21.5742972 C107.90355,21.5742972 108.77428,21.7791165 109.912927,22.3935743 C110.314802,22.6666667 110.649699,22.8032129 111.051574,22.8032129 C111.788346,22.8032129 112.391159,22.3253012 112.391159,21.5060241 C112.391159,20.8915663 111.989283,20.4136546 111.38647,19.935743 C110.113865,18.9799197 108.439384,18.502008 106.630944,18.502008 C103.884796,18.502008 101.272605,19.5261044 99.062291,21.3694779 C96.918955,23.1445783 95.177495,25.6024096 95.177495,28.060241 C95.177495,30.1767068 96.718017,31.064257 98.727395,31.064257 Z M114.400536,33.1124498 C114.668453,33.1124498 115.338245,33.1124498 116.141996,32.0883534 C117.347622,30.5863454 119.223041,28.1285141 121.299397,26.0120482 C123.844608,23.4171017 126.32284,21.2329317 127.059612,21.2329317 C127.19357,21.2329317 127.260549,21.2329317 127.327528,21.5742972 L127.863362,24.7831325 C128.198259,26.5582329 128.667113,28.4698795 129.269926,29.4257028 C129.671802,30.0401606 130.207636,30.4497992 131.011386,30.4497992 C131.815137,30.4497992 132.48493,29.9036145 132.48493,29.0160643 C132.48493,28.6064257 132.283992,28.1285141 132.083054,27.5823293 C131.346283,25.8072289 130.944407,23.62249 130.542532,21.0963855 C130.140656,18.4337349 129.202947,17.8192771 127.729404,17.8192771 C125.251172,17.8192771 120.629605,21.7102744 116.878768,26.626506 L117.146685,22.4618474 C117.213664,21.437751 116.543871,21.0281124 115.874079,21.0281124 C115.137307,21.0281124 114.534494,21.437751 114.400536,22.3253012 L113.19491,30.1084337 C113.060951,31.064257 113.060951,31.4056225 113.060951,31.6104418 C113.060951,32.7028112 113.730743,33.1124498 114.400536,33.1124498 Z M145.010047,28.5375837 C143.268587,29.6305221 141.661085,30.4497992 140.187542,30.4497992 C138.981916,30.4497992 138.446082,29.562249 138.446082,28.1285141 C138.446082,26.626506 139.182853,23.62249 139.517749,22.4618474 C140.455459,19.184739 141.058272,17.1365462 142.06296,13.9959839 L154.186202,13.313253 C152.846618,16.5903614 152.176825,19.8674699 152.176825,22.8032129 L152.176825,23.2811245 C149.363697,25.6024096 146.952445,27.4457831 145.010047,28.5375837 Z M92.900201,28.6064257 C92.163429,26.3534137 91.895512,25.3293173 91.292699,22.4618474 C90.689886,19.4578313 90.154052,17.4779116 87.407904,17.4779116 C83.791025,17.4779116 80.174146,21.3694779 75.820496,26.9678715 L75.150703,24.3052209 C74.480911,21.7102744 73.744139,19.7991968 70.931011,19.7991968 C68.720697,19.7991968 65.907569,21.3694779 61.687877,25.6701138 L62.424648,21.437751 C62.491628,20.9598394 62.558607,20.4136546 62.558607,20.2088353 C62.558607,19.5261044 62.156731,19.0481928 61.286001,19.0481928 C60.482251,19.0481928 60.013396,19.3212851 58.874749,20.2088353 C53.784327,24.1686747 47.421299,28.811245 41.125251,28.811245 C39.048895,28.811245 37.977227,27.9236948 37.977227,26.2851406 C37.977227,25.9437751 38.044206,25.6024096 38.178165,25.1927711 C39.249833,25.6024096 40.38848,25.7389558 41.326189,25.7389558 C45.478902,25.7389558 49.229739,23.5542169 49.229739,20.7550201 C49.229739,18.7751004 47.488279,17.5461847 44.74213,17.5461847 C40.924313,17.5461847 37.977227,19.6626506 36.503684,21.6425703 C34.561286,20.6184739 33.020764,20.3453815 31.413262,20.3453815 C27.260549,20.3453815 24.246484,22.0522088 20.361688,26.4216867 C21.098459,22.2564592 21.232418,19.5261044 21.232418,18.1606426 C21.232418,17.1365462 20.562626,16.6586345 19.892833,16.6586345 C19.624916,16.6586345 19.156062,16.7269076 18.486269,16.8634538 L8.640322,18.8428046 L12.659076,6.9638554 L33.221701,5.939759 C34.427328,5.8714859 34.829203,5.1204819 34.829203,4.437751 C34.829203,3.5502008 34.159411,3.0040161 33.221701,3.0040161 L3.750837,4.0281124 C2.344273,4.0963855 1.540522,4.7791165 1.540522,5.8032129 C1.540522,6.8955823 2.210315,7.4417671 3.750837,7.373494 L8.77428,7.1686747 L4.956463,19.4578313 L1.808439,20.2088353 C0.602813,20.4819277 0,21.0963855 0,21.9839357 C0,23.0763052 0.669792,23.5542169 1.540522,23.5542169 C1.808439,23.5542169 2.411253,23.4859438 2.746149,23.4171017 L3.817816,23.2128514 L1.473543,30.5180723 C1.205626,31.4056225 1.138647,31.746988 1.138647,32.0883534 C1.138647,33.1807229 2.009377,33.4538153 2.545211,33.4538153 C3.081045,33.4538153 3.750837,33.248996 4.152713,32.1566265 L7.434695,22.4618474 L17.883456,20.1405622 C17.749498,23.1445783 16.945747,27.9919679 16.476892,30.7905957 C16.342934,31.6104418 16.275954,31.9512383 16.275954,32.3614458 C16.275954,33.1807229 16.811788,33.6580656 17.682518,33.6580656 C18.352311,33.6580656 18.754186,33.248996 19.223041,32.6345382 C21.90221,28.811245 26.590757,23.4859438 31.54722,23.4859438 C32.752847,23.4859438 33.958473,23.8273092 35.09712,24.3052209 C34.762224,25.0562249 34.628265,25.9437751 34.628265,26.6947791 C34.628265,30.1767068 36.704622,32.1566265 40.589417,32.1566265 C45.210985,32.1566265 51.172137,30.0401606 58.80777,23.8955823 C58.539853,25.3293173 58.137977,27.2409639 57.669123,29.2891566 C57.535164,29.7670683 57.468185,30.244411 57.468185,30.5180723 C57.468185,31.4738956 58.070998,31.9512383 58.80777,31.9512383 C59.544541,31.9512383 60.080375,31.6104418 61.219022,30.5180723 C62.357669,29.2891566 63.429337,28.1967871 64.835901,26.8995984 C67.247153,24.6465863 68.921634,23.2128514 70.261219,23.2128514 C71.06497,23.2128514 71.466845,23.8273092 72.136638,26.3534137 C73.007368,29.562249 73.476222,30.9277108 75.016745,30.9277108 C76.423309,30.9277108 76.959143,30.3815261 79.102478,27.7871486 C82.853315,23.3493976 85.331547,20.9598394 86.738111,20.9598394 C87.206966,20.9598394 87.407904,21.2329317 87.608841,22.0522088 L88.61353,26.1485944 C88.881447,27.3092369 89.283322,28.7429719 89.752177,29.6305221 C90.221031,30.5180723 90.890824,30.9959839 91.761554,30.9959839 C92.632284,30.9959839 93.168118,30.3815261 93.168118,29.6987952 C93.168118,29.4257028 93.101139,29.2208835 92.900201,28.6064257 Z M144.206296,7.5100402 C144.474213,6.7590361 144.675151,6.1445783 144.675151,5.6666667 C144.675151,4.8473896 144.072338,4.3694779 143.335566,4.3694779 C142.464836,4.3694779 141.728064,4.6425703 140.924313,7.0321285 L139.584729,11.1285141 L133.020764,11.4016064 C131.882117,11.4698795 131.078366,11.9477912 131.078366,12.9718876 C131.078366,14.1325301 131.949096,14.5421687 133.154722,14.4738956 L138.58004,14.2008032 C137.910248,16.248996 136.83858,19.8674699 136.034829,23.0080321 C135.565975,24.7831325 135.09712,26.8307564 135.09712,28.9477912 C135.09712,32.0200803 136.570663,34 139.517749,34 C142.263898,34 145.411922,32.1566265 148.359009,30.0401606 C149.96651,28.8795181 151.574012,27.6506024 152.712659,26.626506 C153.918285,30.3815261 157.066309,32.2248996 161.152043,32.2248996 C164.501005,32.2248996 167.51507,31.3373494 170.462157,30.0401606 C172.002679,31.6787149 175.016745,32.1566265 177.561956,32.1566265 C184.728734,32.1566265 192.766242,28.4698795 198.392498,24.5783133 C199.598125,23.7590361 200,23.2128514 200,22.5983936 C200,21.6425703 199.263228,21.2329317 198.593436,21.2329317 C198.124581,21.2329317 197.655727,21.437751 196.651038,22.0522088 C191.091762,25.4658635 183.858004,28.8795181 177.427997,28.8795181 C176.021433,28.8795181 174.815807,28.7429719 173.945077,28.4698795 C179.236437,25.875502 182.183523,23.5542169 182.183523,20.5496319 C182.183523,18.0923695 179.906229,17.4096386 178.03081,17.4096386 C173.342264,17.4096386 168.854655,21.437751 168.854655,26.1485944 C168.854655,26.4216867 168.854655,26.7630522 168.988614,27.3092369 C166.912257,27.9919679 164.634963,28.6746988 161.553918,28.6746988 C157.401206,28.6746988 155.592766,25.6024096 155.592766,22.188755 C155.592766,19.1164659 156.463496,15.9759036 157.803081,13.1084337 L163.295378,12.7670683 C162.491628,13.8594378 161.620898,14.746988 160.951105,15.4297189 C159.477562,16.9317269 159.209645,17.3413655 159.209645,18.0923695 C159.209645,18.7068273 159.745479,19.184739 160.415271,19.184739 C161.553918,19.184739 162.558607,17.9558233 163.295378,17.2730924 C164.501005,16.0441767 165.907569,14.4056225 167.247153,12.6305221 L178.96852,12.0160643 C179.772271,11.9477912 180.643001,11.6064257 180.643001,10.5140562 C180.643001,9.5582329 179.83925,9.2168675 179.169457,9.2168675 L178.96852,9.2168675 L169.122572,9.6947791 C170.462157,7.4417671 171.399866,5.1204819 171.399866,3.1405622 C171.399866,1.2289157 170.19424,0 167.983925,0 C162.491628,0 158.137977,5.4618474 155.592766,10.3092369 L143.067649,10.9236948 L144.206296,7.5100402 Z" id="Logo-light"></path>
        </g>
    </g>
</svg>