<?xml version="1.0" encoding="UTF-8" standalone="no"?>
<!-- Created with Inkscape (http://www.inkscape.org/) -->

<svg
   xmlns:dc="http://purl.org/dc/elements/1.1/"
   xmlns:cc="http://creativecommons.org/ns#"
   xmlns:rdf="http://www.w3.org/1999/02/22-rdf-syntax-ns#"
   xmlns:svg="http://www.w3.org/2000/svg"
   xmlns="http://www.w3.org/2000/svg"
   xmlns:sodipodi="http://sodipodi.sourceforge.net/DTD/sodipodi-0.dtd"
   xmlns:inkscape="http://www.inkscape.org/namespaces/inkscape"
   width="71.020477mm"
   height="34.585388mm"
   viewBox="0 0 251.64736 122.54665"
   id="svg2"
   version="1.1"
   inkscape:version="0.91 r13725"
   sodipodi:docname="Penguin_Random_House.svg">
  <defs
     id="defs4">
    <clipPath
       id="clipPath3350"
       clipPathUnits="userSpaceOnUse">
      <path
         inkscape:connector-curvature="0"
         id="path3352"
         d="M 0,99.856 0,249.329 0,99.856 Z" />
    </clipPath>
    <clipPath
       id="clipPath3364"
       clipPathUnits="userSpaceOnUse">
      <path
         inkscape:connector-curvature="0"
         id="path3366"
         d="M 0,0 612,0 612,792 0,792 0,0 Z" />
    </clipPath>
    <clipPath
       id="clipPath3378"
       clipPathUnits="userSpaceOnUse">
      <path
         inkscape:connector-curvature="0"
         id="path3380"
         d="m 206.149,481.88 199.716,0 0,39.6 -199.716,0 0,-39.6 z" />
    </clipPath>
    <clipPath
       id="clipPath3398"
       clipPathUnits="userSpaceOnUse">
      <path
         inkscape:connector-curvature="0"
         id="path3400"
         d="m 206.135,481.88 199.73,0 0,39.6 -199.73,0 0,-39.6 z" />
    </clipPath>
  </defs>
  <sodipodi:namedview
     id="base"
     pagecolor="#ffffff"
     bordercolor="#666666"
     borderopacity="1.0"
     inkscape:pageopacity="0.0"
     inkscape:pageshadow="2"
     inkscape:zoom="1.4"
     inkscape:cx="185.98519"
     inkscape:cy="26.487824"
     inkscape:document-units="px"
     inkscape:current-layer="layer1"
     showgrid="false"
     fit-margin-top="0"
     fit-margin-left="0"
     fit-margin-right="0"
     fit-margin-bottom="0"
     inkscape:window-width="1366"
     inkscape:window-height="705"
     inkscape:window-x="-8"
     inkscape:window-y="-8"
     inkscape:window-maximized="1" />
  <metadata
     id="metadata7">
    <rdf:RDF>
      <cc:Work
         rdf:about="">
        <dc:format>image/svg+xml</dc:format>
        <dc:type
           rdf:resource="http://purl.org/dc/dcmitype/StillImage" />
        <dc:title></dc:title>
      </cc:Work>
    </rdf:RDF>
  </metadata>
  <g
     inkscape:label="Layer 1"
     inkscape:groupmode="layer"
     id="layer1"
     transform="translate(-250.169,-302.4658)">
    <g
       transform="matrix(3.0946123,0,0,-3.0946123,-387.73953,1916.2436)"
       inkscape:label="Penguin_Giftbooks_2017_Catalog"
       id="g3344">
      <path
         d="m 232.465,482.4918 c -1.794,0 -2.943,1.379 -2.943,3.433 0,2.069 1.149,3.432 2.943,3.432 1.808,0 2.957,-1.378 2.957,-3.432 0,-2.054 -1.149,-3.433 -2.957,-3.433 m 0,7.479 c -2.253,0 -3.709,-1.639 -3.709,-4.046 0,-2.391 1.456,-4.045 3.693,-4.045 2.253,0 3.725,1.654 3.725,4.045 0,2.407 -1.472,4.046 -3.709,4.046 m -5.885,2.145 2.252,0.17 0,0.475 -5.333,0 0,-0.475 2.268,-0.154 0,-4.138 -5.976,0 0,4.138 2.268,0.154 0,0.475 -5.334,0 0,-0.475 2.238,-0.17 0,-9.302 -2.238,-0.153 0,-0.476 5.334,0 0,0.476 -2.268,0.153 0,4.568 5.976,0 0,-4.568 -2.268,-0.153 0,-0.476 5.333,0 0,0.476 -2.252,0.153 0,9.302 z m -6.805,28.675 3.403,0 c 1.501,0 2.421,-0.965 2.421,-2.407 0,-1.455 -0.797,-2.559 -2.299,-2.559 l -3.525,0 0,4.966 z m 2.375,-9.486 -2.375,0.152 0,3.755 3.633,0 c 1.899,0 3.003,1.349 3.003,3.157 0,1.778 -1.165,3.034 -3.08,3.034 l -6.606,0 0,-0.474 2.222,-0.169 0,-9.303 -2.222,-0.152 0,-0.476 5.425,0 0,0.476 z m 14.07,-14.345 0,-0.445 4.337,0 0,0.429 -1.748,0.154 0,4.689 c 0.628,1.058 1.732,1.839 2.943,1.839 1.21,0 1.885,-0.781 1.885,-2.007 l 0,-4.521 -1.778,-0.154 0,-0.429 4.184,0 0,0.445 -1.64,0.153 0,4.582 c 0,1.395 -0.674,2.59 -2.498,2.59 -1.303,0 -2.444,-0.732 -3.111,-1.732 l 0,1.64 -0.429,0.123 c -0.629,-0.69 -1.456,-0.996 -2.452,-0.996 l 0,-0.322 c 0.735,-0.138 1.517,-0.123 2.13,0.183 l 0,-6.068 -1.823,-0.153 z m -16.445,9.501 3.571,0 c 1.517,0 2.483,-0.919 2.483,-2.329 0,-1.41 -0.812,-2.422 -2.452,-2.422 l -3.602,0 0,4.751 z m 2.375,-9.471 -2.375,0.154 0,3.938 3.157,0 2.238,-4.567 2.804,0 0,0.475 -2.283,0.23 -1.901,3.862 c 1.793,0.092 2.851,1.38 2.851,3.05 0,1.716 -1.195,2.943 -3.035,2.943 l -6.881,0 0,-0.476 2.238,-0.169 0,-9.286 -2.238,-0.154 0,-0.475 5.425,0 0,0.475 z m 53.072,14.437 0,4.582 c 0,1.394 -0.674,2.606 -2.498,2.606 -1.287,0 -2.429,-0.734 -3.095,-1.747 l 0,1.654 -0.429,0.124 c -0.629,-0.69 -1.456,-1.012 -2.453,-0.997 l 0,-0.337 c 0.736,-0.138 1.518,-0.123 2.131,0.183 l 0,-6.068 -1.824,-0.153 0,-0.445 4.337,0 0,0.429 -1.747,0.154 0,4.689 c 0.628,1.058 1.732,1.855 2.927,1.855 1.211,0 1.885,-0.797 1.885,-2.024 l 0,-4.52 -1.778,-0.154 0,-0.429 4.184,0 0,0.445 -1.64,0.153 z m -25.195,-25.088 c -0.996,0.245 -2.252,0.583 -2.252,1.67 0,0.721 0.521,1.365 1.839,1.365 1.18,0 1.793,-0.522 2.345,-1.486 l 0.49,-0.859 0.383,0.077 -0.49,2.896 -0.414,0 -0.016,-1.272 c -0.428,0.689 -1.195,1.241 -2.406,1.241 -1.532,0 -2.451,-0.858 -2.451,-1.977 0,-1.548 1.761,-2.023 2.819,-2.299 1.441,-0.367 2.422,-0.72 2.422,-1.761 0,-0.921 -0.782,-1.472 -1.962,-1.472 -1.226,0 -1.992,0.612 -2.743,1.839 l -0.476,0.781 -0.397,-0.076 0.505,-2.988 0.429,0 -0.046,1.44 c 0.582,-0.966 1.471,-1.578 2.82,-1.578 1.563,0 2.59,0.827 2.59,2.114 0,1.487 -1.303,1.916 -2.989,2.345 m 25.165,15.417 c 0,1.395 -0.582,2.529 -2.207,2.529 -1.242,0 -2.215,-0.657 -2.866,-1.671 -0.211,0.935 -0.827,1.671 -2.099,1.671 -1.119,0 -2.17,-0.717 -2.805,-1.686 l 0,1.594 -0.43,0.123 c -0.643,-0.69 -1.47,-0.996 -2.451,-0.996 l 0,-0.322 c 0.72,-0.138 1.517,-0.107 2.13,0.199 l 0,-6.084 -1.824,-0.153 0,-0.445 4,0 0,0.429 -1.409,0.154 0,4.766 c 0.582,1.011 1.547,1.762 2.604,1.762 1.227,0 1.625,-0.828 1.625,-2.084 l 0,-4.444 -1.502,-0.154 0,-0.429 3.785,0 0,0.429 -1.516,0.154 0,4.535 c 0,0.093 0,0.2 -0.016,0.307 0.644,1.089 1.532,1.686 2.575,1.686 1.241,0 1.64,-0.843 1.64,-2.069 l 0,-4.459 -1.395,-0.154 0,-0.429 3.831,0 0,0.429 -1.67,0.169 0,4.643 z m -13.195,9.518 0,-0.445 4.367,0 0,0.445 -1.777,0.153 0,7.08 -0.429,0.139 c -0.659,-0.69 -1.502,-1.012 -2.468,-0.997 l 0,-0.337 c 0.72,-0.138 1.517,-0.107 2.131,0.199 l 0,-6.084 -1.824,-0.153 z m -7.05,-24.613 c 0.23,1.64 1.272,2.696 2.774,2.696 1.241,0 2.498,-0.811 2.544,-2.696 l -5.318,0 z m 2.789,3.31 c -2.161,0 -3.586,-1.655 -3.586,-4.046 0,-2.391 1.441,-4.045 3.725,-4.045 1.669,0 2.634,0.781 3.018,1.961 l -0.475,0.169 c -0.432,-0.988 -1.203,-1.518 -2.451,-1.518 -1.932,0 -3.065,1.334 -3.065,3.418 l 0,0.153 6.083,0 c 0.015,0.108 0.015,0.353 0.015,0.491 0,1.686 -1.057,3.417 -3.264,3.417 m 0.552,6.851 c -1.794,0 -2.943,1.379 -2.943,3.433 0,2.069 1.149,3.417 2.943,3.417 1.809,0 2.958,-1.364 2.958,-3.417 0,-2.054 -1.149,-3.433 -2.958,-3.433 m 0,7.463 c -2.253,0 -3.709,-1.624 -3.709,-4.03 0,-2.391 1.456,-4.046 3.694,-4.046 2.253,0 3.724,1.655 3.724,4.046 0,2.406 -1.471,4.03 -3.709,4.03 m -13.732,-14.407 -0.429,0.124 c -0.658,-0.69 -1.502,-1.011 -2.467,-0.997 l 0,-0.336 c 0.72,-0.138 1.502,-0.123 2.115,0.183 l 0,-4.551 c -0.644,-1.011 -1.747,-1.778 -2.943,-1.778 -1.195,0 -1.869,0.797 -1.869,2.008 l 0,5.347 -0.414,0.124 c -0.644,-0.69 -1.303,-1.011 -2.253,-0.997 l 0,-0.336 c 0.643,-0.138 1.349,-0.123 1.9,0.138 l 0,-4.322 c 0,-1.38 0.66,-2.605 2.514,-2.605 1.302,0 2.425,0.725 3.08,1.701 l 0.015,-1.548 0.046,-0.03 2.391,0.229 0,0.414 -1.686,0 0,7.232 z m 8.628,27.572 0,-4.322 c 0,-1.379 0.66,-2.605 2.514,-2.605 1.303,0 2.426,0.726 3.08,1.7 l 0.016,-1.547 0.046,-0.03 2.39,0.228 0,0.415 -1.686,0 0,7.233 -0.428,0.124 c -0.659,-0.69 -1.503,-1.012 -2.469,-0.997 l 0,-0.337 c 0.721,-0.138 1.503,-0.123 2.116,0.183 l 0,-4.552 c -0.644,-1.01 -1.748,-1.777 -2.943,-1.777 -1.195,0 -1.869,0.797 -1.869,2.008 l 0,5.348 -0.414,0.124 c -0.644,-0.69 -1.302,-1.012 -2.253,-0.997 l 0,-0.337 c 0.644,-0.138 1.349,-0.123 1.9,0.138 m -17.133,0.045 0,-6.068 -1.824,-0.153 0,-0.445 4.337,0 0,0.429 -1.747,0.154 0,4.689 c 0.628,1.058 1.732,1.855 2.942,1.855 1.211,0 1.886,-0.797 1.886,-2.024 l 0,-4.52 -1.778,-0.154 0,-0.429 4.184,0 0,0.445 -1.64,0.153 0,4.582 c 0,1.394 -0.674,2.606 -2.498,2.606 -1.303,0 -2.445,-0.734 -3.111,-1.747 l 0,1.654 -0.429,0.124 c -0.629,-0.69 -1.456,-1.012 -2.452,-0.997 l 0,-0.337 c 0.735,-0.138 1.517,-0.123 2.13,0.183 m 16.122,-18.957 c -0.383,-1.088 -1.333,-1.716 -2.514,-1.716 -1.731,0 -2.758,1.318 -2.758,3.402 0,2.038 1.15,3.448 2.912,3.448 1.027,0 1.916,-0.521 2.36,-1.379 l 0,-3.755 z m -2.452,5.747 c -2.145,0 -3.586,-1.671 -3.586,-4.092 0,-2.375 1.272,-3.984 3.402,-3.984 1.165,0 2.149,0.543 2.651,1.471 l 0.016,-1.318 0.046,-0.031 2.421,0.23 0,0.413 -1.731,0 0,11.036 -0.414,0.122 c -0.669,-0.861 -1.488,-1.318 -2.437,-1.303 l 0,-0.337 c 0.731,-0.161 1.579,-0.002 2.084,0.351 l 0,-3.738 c -0.552,0.751 -1.41,1.18 -2.452,1.18 m -3.081,6.697 1.533,-0.138 c 1.793,-0.161 2.344,-0.674 2.344,-1.348 0,-0.935 -0.95,-1.656 -2.865,-1.656 -1.717,0 -2.698,0.69 -2.698,1.61 0,0.69 0.583,1.349 1.686,1.532 m -1.256,4.767 c 0,1.241 0.934,2.267 2.329,2.267 1.349,0 2.269,-1.026 2.269,-2.298 0,-1.196 -0.874,-2.237 -2.315,-2.237 -1.302,0 -2.283,1.027 -2.283,2.268 m -1.134,-6.345 c 0,-1.18 1.118,-2.161 3.386,-2.161 2.376,0 3.618,0.996 3.618,2.314 0,1.456 -1.701,1.842 -3.372,1.977 -1.242,0.107 -2.391,0.153 -2.391,0.767 0,0.306 0.307,0.597 1.671,0.597 l 0.505,0 c 1.839,0 3.02,1.257 3.02,2.881 0,0.737 -0.276,1.426 -0.751,1.931 0.107,1.395 1.333,0.705 1.333,1.426 0,0.306 -0.184,0.459 -0.49,0.459 -0.706,0 -1.242,-0.705 -1.334,-1.471 -0.46,0.306 -1.027,0.491 -1.685,0.491 -1.87,0 -3.081,-1.258 -3.081,-2.836 0,-1.149 0.583,-2.023 1.425,-2.483 -0.827,-0.076 -1.272,-0.506 -1.272,-1.087 0,-0.414 0.261,-0.813 0.951,-1.043 -0.89,-0.23 -1.533,-0.95 -1.533,-1.762 m -10.896,-11.341 c -0.537,-0.598 -1.594,-1.241 -2.728,-1.241 -0.905,0 -1.656,0.429 -1.656,1.302 0,1.09 0.935,2.1 4.384,2.161 l 0,-2.222 z m -5.134,0.061 c 0,-1.15 0.888,-1.915 2.283,-1.915 1.257,0 2.276,0.621 2.897,1.241 0.134,-0.67 0.612,-1.011 1.271,-1.011 0.721,0 1.196,0.383 1.349,1.18 l -0.352,0.153 c -0.123,-0.475 -0.353,-0.736 -0.766,-0.736 -0.537,0 -0.782,0.276 -0.782,1.258 l 0,3.325 c 0,1.532 -0.629,2.666 -2.667,2.666 -1.195,0 -1.885,-0.352 -2.36,-0.781 -0.414,-0.384 -0.537,-0.736 -0.537,-0.951 0,-0.26 0.185,-0.444 0.461,-0.444 0.367,0 0.414,0.353 0.628,0.751 0.26,0.46 0.659,0.812 1.747,0.812 1.226,0 1.962,-0.659 1.962,-1.977 l 0,-0.858 c -3.28,-0.03 -5.134,-0.965 -5.134,-2.713 m 35.952,22.038 c 0.369,0 0.675,0.291 0.675,0.659 0,0.368 -0.306,0.659 -0.675,0.659 -0.367,0 -0.659,-0.291 -0.659,-0.659 0,-0.368 0.292,-0.659 0.659,-0.659 m -33.96,-2.161 c 1.241,0 2.498,-0.812 2.544,-2.697 l -5.318,0 c 0.23,1.641 1.272,2.697 2.774,2.697 m 0.153,-7.478 c 1.671,0 2.636,0.782 3.019,1.961 l -0.474,0.169 c -0.433,-0.988 -1.205,-1.517 -2.453,-1.517 -1.931,0 -3.065,1.333 -3.065,3.417 l 0,0.153 6.084,0 c 0.015,0.108 0.015,0.353 0.015,0.491 0,1.685 -1.057,3.418 -3.264,3.418 -2.161,0 -3.586,-1.656 -3.586,-4.046 0,-2.391 1.441,-4.046 3.724,-4.046"
         style="fill:#110b09;fill-opacity:1;fill-rule:nonzero;stroke:none"
         id="path3384"
         inkscape:connector-curvature="0" />
      <path
         d="m 206.1352,482.1859 0.813,0 0,19.634 0,19.609 -0.813,0 0,-19.628 0,-19.615 z"
         style="fill:#f25c19;fill-opacity:1;fill-rule:nonzero;stroke:none"
         id="path3388"
         inkscape:connector-curvature="0" />
      <path
         d="m 286.6401,521.4294 0,-19.628 0,-19.616 0.813,0 0,19.634 0,19.61 -0.813,0 z"
         style="fill:#f25c19;fill-opacity:1;fill-rule:nonzero;stroke:none"
         id="path3392"
         inkscape:connector-curvature="0" />
    </g>
  </g>
</svg>
