<?xml version="1.0" encoding="UTF-8" standalone="no"?>
<!-- Created with Inkscape (http://www.inkscape.org/) -->
<svg
   xmlns:dc="http://purl.org/dc/elements/1.1/"
   xmlns:cc="http://creativecommons.org/ns#"
   xmlns:rdf="http://www.w3.org/1999/02/22-rdf-syntax-ns#"
   xmlns:svg="http://www.w3.org/2000/svg"
   xmlns="http://www.w3.org/2000/svg"
   xmlns:sodipodi="http://sodipodi.sourceforge.net/DTD/sodipodi-0.dtd"
   xmlns:inkscape="http://www.inkscape.org/namespaces/inkscape"
   id="svg2403"
   sodipodi:version="0.32"
   inkscape:version="0.46"
   width="200.63275"
   height="189.55576"
   xml:space="preserve"
   sodipodi:docname="RTL-II-Logo ab Sommer 2009.svg"
   version="1.0"
   inkscape:output_extension="org.inkscape.output.svg.inkscape"><metadata
     id="metadata2408"><rdf:RDF><cc:Work
         rdf:about=""><dc:format>image/svg+xml</dc:format><dc:type
           rdf:resource="http://purl.org/dc/dcmitype/StillImage" /></cc:Work></rdf:RDF></metadata><defs
     id="defs2406"><inkscape:perspective
       sodipodi:type="inkscape:persp3d"
       inkscape:vp_x="0 : 526.18109 : 1"
       inkscape:vp_y="0 : 1000 : 0"
       inkscape:vp_z="744.09448 : 526.18109 : 1"
       inkscape:persp3d-origin="372.04724 : 350.78739 : 1"
       id="perspective2410" /><clipPath
       clipPathUnits="userSpaceOnUse"
       id="clipPath2436"><path
         d="M 0,0 L 841.89,0 L 841.89,595.276 L 0,595.276 L 0,0 z"
         id="path2438" /></clipPath></defs><sodipodi:namedview
     inkscape:window-height="708"
     inkscape:window-width="1024"
     inkscape:pageshadow="2"
     inkscape:pageopacity="0.0"
     guidetolerance="10.0"
     gridtolerance="10.0"
     objecttolerance="10.0"
     borderopacity="1.0"
     bordercolor="#666666"
     pagecolor="#ffffff"
     id="base"
     showgrid="false"
     inkscape:zoom="0.53783746"
     inkscape:cx="526.18127"
     inkscape:cy="372.04749"
     inkscape:window-x="-4"
     inkscape:window-y="-4"
     inkscape:current-layer="g2412" /><g
     id="g2412"
     inkscape:groupmode="layer"
     inkscape:label="31528"
     transform="matrix(1.25,0,0,-1.25,-431.42,526.65213)"><text
       transform="matrix(1,0,0,-1,36,36.314)"
       id="text2414"><tspan
         style="font-size:9px;font-variant:normal;font-weight:normal;font-stretch:normal;writing-mode:lr-tb;fill:#cdcccc;fill-opacity:1;fill-rule:nonzero;stroke:none;font-family:Helvetica Neue;-inkscape-font-specification:HelveticaNeue"
         x="0 5.0040002 10.008 12.51 17.514 22.518 25.02 30.024 35.028 40.032001 45.035999 47.537998 49.535999 52.037998 58.041 63.207001 68.210999 70.712997 73.043999 75.375"
         y="0"
         sodipodi:role="line"
         id="tspan2416">14.05.2009 | RTL II </tspan></text>
<text
       transform="matrix(1,0,0,-1,113.8766,36.314)"
       id="text2418"><tspan
         style="font-size:9px;font-variant:normal;font-weight:normal;font-stretch:normal;writing-mode:lr-tb;fill:#b2b1b1;fill-opacity:1;fill-rule:nonzero;stroke:none;font-family:Helvetica Neue;-inkscape-font-specification:HelveticaNeue"
         x="0 6.336 11.169 15.669 17.667 22.833 27.837 30.339001 38.178001 43.011002 48.014999 53.019001 57.852001 59.849998 62.352001 68.183998 75.861 80.694 82.692001"
         y="0"
         sodipodi:role="line"
         id="tspan2420">Design Manual Small</tspan></text>
<text
       transform="matrix(1,0,0,-1,795.1181,36.152)"
       id="text2422"><tspan
         style="font-size:9px;font-variant:normal;font-weight:normal;font-stretch:normal;writing-mode:lr-tb;fill:#231f20;fill-opacity:1;fill-rule:nonzero;stroke:none;font-family:Helvetica Neue;-inkscape-font-specification:HelveticaNeue"
         x="0"
         y="0"
         id="tspan2424">3</tspan></text>
<text
       transform="matrix(1,0,0,-1,36.1418,75.1797)"
       id="text2426"><tspan
         style="font-size:36px;font-variant:normal;font-weight:bold;font-stretch:normal;writing-mode:lr-tb;fill:#231f20;fill-opacity:1;fill-rule:nonzero;stroke:none;font-family:Helvetica 65 Medium;-inkscape-font-specification:HelveticaNeue-Heavy"
         x="0 21.996 43.992001 65.987999"
         y="0"
         sodipodi:role="line"
         id="tspan2428">Logo</tspan></text>
<path
       d="M 231.75,238.76 L 610.526,238.76 L 610.526,452.239 L 231.75,452.239 L 231.75,238.76 z"
       style="fill:none;stroke:#000000;stroke-width:0.5;stroke-linecap:butt;stroke-linejoin:miter;stroke-miterlimit:4;stroke-dasharray:none;stroke-opacity:1"
       id="path2430" /><g
       id="g2432"><g
         id="g2434"
         clip-path="url(#clipPath2436)"><g
           id="g2440"
           transform="translate(425.0182,421.3217)"><path
             d="M 0,0 C -31.251,0 -56.587,-25.333 -56.587,-56.587 C -56.587,-87.84 -31.251,-113.173 0,-113.173 C 31.249,-113.173 56.587,-87.84 56.587,-56.587 C 56.587,-25.333 31.249,0 0,0"
             style="fill:#100e0d;fill-opacity:1;fill-rule:nonzero;stroke:none"
             id="path2442" /></g><g
           id="g2444"
           transform="translate(383.432,294.5141)"><path
             d="M 0,0 C 7.513,0 7.226,-7.912 7.226,-7.912 C 7.226,-16.126 -1.667,-16.469 -1.667,-16.469 L 9.024,-24.837 L -6.656,-24.837 L -15.211,-15.644 L -20.183,-15.644 L -20.202,-24.837 L -38.296,-24.837 L -38.296,0 C -38.296,0 -7.52,0.007 0,0.007 C 0,0.007 -7.52,0 0,0 M -20.202,-4.953 L -20.202,-10.8 L -12.718,-10.796 C -12.718,-10.796 -9.672,-10.55 -9.672,-7.726 C -9.672,-4.903 -12.151,-4.953 -12.302,-4.953 L -20.202,-4.953 z"
             style="fill:#100e0d;fill-opacity:1;fill-rule:nonzero;stroke:none"
             id="path2446" /></g></g></g><g
       id="g2448"
       transform="translate(403.5082,294.5157)"><path
         d="M 0,0 L 43.965,0 L 43.969,-4.843 L 31.027,-4.843 L 31.027,-24.836 L 12.935,-24.836 L 12.931,-4.843 L -0.003,-4.843 L 0,0 z"
         style="fill:#100e0d;fill-opacity:1;fill-rule:nonzero;stroke:none"
         id="path2450" /></g><g
       id="g2452"
       transform="translate(465.0812,269.6776)"><path
         d="M 0,0 L 40.561,0 L 40.561,4.85 L 18.096,4.846 L 18.096,24.837 L 0,24.837 L 0,0 z"
         style="fill:#100e0d;fill-opacity:1;fill-rule:nonzero;stroke:none"
         id="path2454" /></g><path
       d="M 419.699,341.285 L 401.624,341.285 L 401.624,388.479 L 419.699,388.479 L 419.699,341.285 z"
       style="fill:#ffffff;fill-opacity:1;fill-rule:nonzero;stroke:none"
       id="path2456" /><path
       d="M 448.797,341.285 L 430.719,341.285 L 430.719,388.479 L 448.797,388.479 L 448.797,341.285 z"
       style="fill:#ffffff;fill-opacity:1;fill-rule:nonzero;stroke:none"
       id="path2458" /></g></svg>