<?xml version="1.0" encoding="UTF-8" standalone="no"?>
<!-- Created with Inkscape (http://www.inkscape.org/) -->
<svg
   xmlns:svg="http://www.w3.org/2000/svg"
   xmlns="http://www.w3.org/2000/svg"
   version="1.0"
   width="729.92126"
   height="437.66928"
   id="svg1943">
  <defs
     id="defs1945" />
  <g
     transform="translate(-813.1644,-346.664)"
     id="layer1">
    <g
       transform="translate(10.62991,10.63867)"
       id="g20058">
      <path
         d="M 1231.7616,604.60071 L 1231.7616,448.72666 L 986.47264,448.72666 L 986.47264,465.80338 C 972.17684,453.49228 948.56724,448.72666 914.69194,448.72666 L 813.16444,448.72666 L 813.16444,660.99328 L 880.49874,660.99328 L 880.49874,587.72264 L 909.40964,587.72264 C 930.35904,587.72264 938.32054,595.46659 938.32054,617.50741 L 938.32054,638.75398 C 938.32054,638.75398 938.08224,654.04341 941.35894,660.99328 L 1010.9562,660.99328 L 1010.9562,653.05068 C 1005.0589,652.45492 1005.0589,648.28506 1004.7411,639.1511 L 1003.5699,609.56481 C 1002.6753,580.57428 992.64794,567.27031 969.03834,562.3062 C 992.33014,552.17936 1003.2918,535.69841 1003.2918,509.68637 C 1003.2918,507.89924 1003.2314,506.31076 1003.1329,504.52363 L 1047.5521,504.52363 L 1047.5521,660.99328 L 1115.7588,660.99328 L 1115.7588,504.52363 L 1163.5533,504.52363 L 1163.5533,660.99328 L 1324.4917,660.99328 L 1324.4917,604.60071 L 1231.7616,604.60071 z M 911.47554,539.86827 L 880.49874,539.86827 L 880.49874,500.15513 L 909.72754,500.15513 C 930.35904,500.15513 940.10834,502.93514 940.10834,520.0117 C 940.10834,536.09553 930.93434,539.86827 911.47554,539.86827"
         style="fill:#160000;fill-rule:nonzero;stroke:none"
         id="path11013" />
      <path
         d="M 1391.308,444.75545 C 1391.308,499.95665 1355.7657,536.09553 1290.4972,544.43525 L 1290.4972,499.95665 C 1321.7902,493.00678 1334.5191,478.71008 1334.5191,448.52818 L 1290.4972,448.52818 L 1290.4972,346.66397 L 1391.308,346.66397 L 1391.308,444.75545 z M 1521.8258,444.75545 C 1521.8258,499.95665 1486.2628,536.09553 1420.9944,544.43525 L 1420.9944,499.95665 C 1452.2874,493.00678 1465.5725,478.71008 1465.5725,448.52818 L 1420.9944,448.52818 L 1420.9944,346.66397 L 1521.8258,346.66397 L 1521.8258,444.75545"
         style="fill:#ea1b22;fill-rule:nonzero;stroke:none"
         id="path11017" />
      <path
         d="M 1097.8288,755.5105 C 1092.9041,760.67308 1086.1328,763.05597 1077.1781,763.05597 C 1058.4137,763.05597 1046.4604,749.95063 1046.4604,728.10846 C 1046.4604,705.869 1059.3068,692.9623 1081.367,692.9623 C 1098.8013,692.9623 1109.8219,702.09626 1111.7685,717.58449 L 1091.5136,717.58449 C 1089.8657,712.22311 1086.1328,709.44325 1080.7711,709.44325 C 1072.2725,709.44325 1068.0438,715.99584 1068.0438,729.10118 C 1068.0438,741.21363 1072.2725,746.97214 1080.9904,746.97214 C 1087.3437,746.97214 1091.9903,743.79501 1093.0042,739.02954 L 1083.3932,739.02954 L 1083.3932,724.73284 L 1112.6012,724.73284 L 1112.6012,761.26884 L 1098.8013,761.26884 L 1097.8288,755.5105"
         style="fill:#211d1e;fill-rule:nonzero;stroke:none"
         id="path11021" />
      <path
         d="M 1243.5752,728.10846 C 1243.5752,715.59872 1247.5273,709.64174 1256.6012,709.64174 C 1265.656,709.64174 1269.5287,715.59872 1269.5287,728.10846 C 1269.5287,740.41939 1265.656,746.37638 1256.6012,746.37638 C 1247.5273,746.37638 1243.5752,740.41939 1243.5752,728.10846 z M 1222.0108,728.10846 C 1222.0108,749.55351 1235.2561,763.05597 1256.6012,763.05597 C 1277.967,763.05597 1291.0931,749.55351 1291.0931,728.10846 C 1291.0931,706.26612 1277.967,692.9623 1256.6012,692.9623 C 1235.2561,692.9623 1222.0108,706.26612 1222.0108,728.10846"
         style="fill:#211d1e;fill-rule:nonzero;stroke:none"
         id="path11025" />
      <path
         d="M 1336.8821,694.74943 L 1336.8821,735.65393 C 1336.8821,743.00076 1339.4628,746.1779 1347.1272,746.1779 C 1354.8122,746.1779 1357.2149,743.00076 1357.2149,735.65393 L 1357.2149,694.74943 L 1378.5998,694.74943 L 1378.5998,737.4409 C 1378.5998,753.92185 1367.6396,763.05597 1347.1272,763.05597 C 1326.5957,763.05597 1315.5163,753.92185 1315.5163,737.4409 L 1315.5163,694.74943 L 1336.8821,694.74943"
         style="fill:#211d1e;fill-rule:nonzero;stroke:none"
         id="path11029" />
      <path
         d="M 1427.2285,724.5342 L 1427.2285,711.03174 L 1434.0792,711.03174 C 1441.5846,711.03174 1445.238,711.82598 1445.238,717.78297 C 1445.238,723.73996 1441.6848,724.5342 1434.0792,724.5342 L 1427.2285,724.5342 z M 1405.8628,761.26884 L 1427.2285,761.26884 L 1427.2285,740.81651 L 1439.9971,740.81651 C 1456.6162,740.81651 1465.5915,732.67544 1465.5915,717.78297 C 1465.5915,709.44325 1462.6532,703.28763 1456.4382,699.11777 C 1450.997,695.54367 1443.5107,694.74943 1433.2449,694.74943 L 1405.8628,694.74943 L 1405.8628,761.26884"
         style="fill:#211d1e;fill-rule:nonzero;stroke:none"
         id="path11033" />
      <path
         d="M 1199.5533,754.31897 L 1199.156,745.18501 C 1198.8986,736.05105 1195.7219,731.88119 1188.3547,730.29255 C 1195.6822,727.11557 1199.0972,721.95283 1199.0972,713.81159 C 1199.0972,699.71353 1190.3999,694.74943 1171.2971,694.74943 L 1139.5067,694.74943 L 1139.5067,761.26884 L 1160.615,761.26884 L 1160.615,738.2353 L 1169.6698,738.2353 C 1176.2424,738.2353 1178.7246,740.61803 1178.7246,747.56774 L 1178.7246,747.56774 L 1178.6849,747.56774 L 1178.6849,754.31897 C 1178.6849,754.31897 1178.6245,759.08459 1179.6368,761.26884 L 1201.4793,761.26884 L 1201.4793,758.68747 C 1199.6327,758.48883 1199.6327,757.29747 1199.5533,754.31897 z M 1170.3055,723.34283 L 1160.615,723.34283 L 1160.615,710.83326 L 1169.7683,710.83326 C 1176.2424,710.83326 1179.2999,711.82598 1179.2999,717.18721 C 1179.2999,722.15147 1176.4204,723.34283 1170.3055,723.34283"
         style="fill:#211d1e;fill-rule:nonzero;stroke:none"
         id="path11037" />
    </g>
  </g>
</svg>
