<?xml version="1.0" encoding="UTF-8"?>
<svg width="162px" height="74px" viewBox="0 0 162 74" version="1.1" xmlns="http://www.w3.org/2000/svg" xmlns:xlink="http://www.w3.org/1999/xlink"><script xmlns="">
    // This signals the axe-core test suite that the extension is running.
    window.__AXE_EXTENSION__ = true
  </script>
    <!-- Generator: Sketch 51.1 (57501) - http://www.bohemiancoding.com/sketch -->
    <title>SO Mono HOR Stacked White Wordmark</title>
    <desc>Created with Sketch.</desc>
    <defs>
        <linearGradient x1="-15.6101944%" y1="90.0005235%" x2="80.4933834%" y2="28.4068897%" id="linearGradient-1">
            <stop stop-color="#FFFFFF" offset="1%"/>
            <stop stop-color="#FFFFFF" stop-opacity="0.96" offset="3%"/>
            <stop stop-color="#FFFFFF" stop-opacity="0.67" offset="25%"/>
            <stop stop-color="#FFFFFF" stop-opacity="0.43" offset="45%"/>
            <stop stop-color="#FFFFFF" stop-opacity="0.25" offset="63%"/>
            <stop stop-color="#FFFFFF" stop-opacity="0.11" offset="78%"/>
            <stop stop-color="#FFFFFF" stop-opacity="0.03" offset="91%"/>
            <stop stop-color="#FFFFFF" stop-opacity="0" offset="100%"/>
        </linearGradient>
    </defs>
    <g id="Page-1" stroke="none" stroke-width="1" fill="none" fill-rule="evenodd">
        <g id="Snap-Originals-Redlines-10/2-Update---Desktop_Extended-Copy-3" transform="translate(-29.000000, -25.000000)" fill-rule="nonzero">
            <g id="SO-Mono-HOR-Stacked-White-Wordmark" transform="translate(29.000000, 25.000000)">
                <polygon id="Shape" fill="url(#linearGradient-1)" points="17.0001634 0 17.0001634 0 17.0001634 0 0 52.6999634 0 74 11.8747754 74 47 53.8118423 17.0001634 53.8118423"/>
                <rect id="Rectangle-path" fill="#FFFFFF" x="17" y="0" width="30" height="54"/>
                <path d="M62.563239,23.9938131 C61.3439887,24.060657 60.156843,23.5832803 59.313377,22.6869741 C58.5223659,21.8182734 58.0845735,20.5998197 58,19.0316129 L60.64541,18.9520662 C60.6780127,19.2915147 60.7341192,19.6282113 60.8133133,19.959658 C60.8797267,20.2637519 60.9903892,20.5561061 61.1416576,20.827096 C61.2812922,21.0709159 61.4788316,21.2753667 61.71626,21.4218024 C61.9776837,21.5753896 62.2762817,21.6515027 62.5781637,21.6415029 C62.8493465,21.6499184 63.1176593,21.5831294 63.3542502,21.448318 C63.5594945,21.3260222 63.73437,21.1575579 63.8654225,20.9558859 C63.9978722,20.7459279 64.0926172,20.5137986 64.1452613,20.270269 C64.2033184,20.0220053 64.2333611,19.7678412 64.2348098,19.5126811 C64.2332261,18.9562035 64.0836928,18.4104808 63.8019923,17.9331105 C63.4622286,17.3645878 63.0535856,16.8415603 62.5856261,16.3762676 L60.6789907,14.2815373 C59.9886,13.6146321 59.3978172,12.8489695 58.9253338,12.0087738 C58.4981952,11.2255692 58.278366,10.3433181 58.2873012,9.44812697 C58.2845872,8.86390342 58.3753158,8.28310718 58.5559465,7.72840262 C58.8973552,6.64701341 59.6943161,5.77547947 60.7312273,5.34957687 C61.3375871,5.10572755 61.9858041,4.98724796 62.6378627,5.00108647 C63.1603606,4.99848043 63.6801292,5.07769552 64.178842,5.2359387 C64.664177,5.39279113 65.1046705,5.6670873 65.4623695,6.03519385 C65.865653,6.46154552 66.1769855,6.96854464 66.3765098,7.52385391 C66.6382095,8.25345323 66.7842959,9.02056617 66.8093273,9.79661737 L64.2907775,9.87237615 C64.2439899,9.22624408 64.0661471,8.59690563 63.7684117,8.02386187 C63.512796,7.57013188 63.0247644,7.30402697 62.5110024,7.33824489 C62.0542005,7.30764429 61.6104971,7.50049426 61.3170233,7.85719255 C61.0273679,8.26042831 60.88371,8.75281584 60.9103241,9.25115414 C60.9103743,9.51886696 60.9663284,9.78352756 61.0744963,10.0276817 C61.1893094,10.2933487 61.3292638,10.5470687 61.4923889,10.7852695 C61.6723286,11.0496342 61.8679558,11.3026315 62.078185,11.5428573 C62.2995686,11.7953866 62.5197085,12.0416026 62.7386047,12.2815054 L64.4959927,14.1035041 C65.2392389,14.8287598 65.868429,15.6655362 66.3615851,16.5846042 C66.7913956,17.4322516 67.010439,18.3737699 66.9996177,19.3270721 C67.0058186,19.9591979 66.9074405,20.5878951 66.7085853,21.1869502 C66.3441315,22.2997614 65.5157734,23.1933659 64.4437561,23.6301709 C63.846936,23.8770048 63.2076489,24.0006259 62.563239,23.9938131 Z" id="Shape" fill="#FFFFFF"/>
                <polygon id="Shape" fill="#FFFFFF" points="71 5 74.013751 5 78.36822 16.7764077 78.421696 16.7764077 78.421696 5 81 5 81 24 78.3453018 24 73.63178 11.0209618 73.578304 11.0209618 73.578304 24 71 24"/>
                <path d="M87.9838872,5 L92.1570997,5 L96,24 L92.9264854,24 L91.939577,19.0553279 L87.7905337,19.0553279 L86.8559919,24 L84,24 L87.9838872,5 Z M91.4441088,16.6413934 L89.9335347,8.37561475 L89.8489426,8.37561475 L88.2900302,16.6413934 L91.4441088,16.6413934 Z" id="Shape" fill="#FFFFFF"/>
                <path d="M99.0111248,5 L103.728059,5 C105.211372,5 106.29419,5.49979449 106.976514,6.49157419 C107.658838,7.48335388 108,8.87340732 108,10.6500206 C108,12.4982189 107.645241,13.9676668 106.935723,15.0583642 C106.23115,16.1516646 105.10754,16.6983148 103.57602,16.6983148 L101.829419,16.6983148 L101.829419,24 L99,24 L99.0111248,5 Z M103.205192,14.2461981 C104.555006,14.2461981 105.229913,13.0643924 105.229913,10.7007809 C105.26695,9.89483513 105.119417,9.09132632 104.799753,8.35799425 C104.506773,7.79361647 103.92512,7.46442333 103.31644,7.51849568 L101.833127,7.51849568 L101.833127,14.2461981 L103.205192,14.2461981 Z" id="Shape" fill="#FFFFFF"/>
                <path d="M62.9877943,48.9942024 C61.6806434,49.0546707 60.396402,48.6404583 59.3784788,47.8300731 C58.4626823,47.0539869 58.0035014,45.8721619 58.0009362,44.284598 L58.0009362,34.7099191 C57.98752,34.0099903 58.1184262,33.3146621 58.3857246,32.6660569 C58.6248745,32.1040981 58.9860665,31.6006023 59.4438928,31.1909876 C59.9021379,30.7863954 60.4425688,30.4826207 61.0292212,30.2998788 C61.6728817,30.09475 62.3459782,29.9935884 63.0224253,30.0003146 C63.6841757,29.9946724 64.3430541,30.0866993 64.9771506,30.2733352 C65.5542803,30.4382539 66.0902473,30.7197757 66.5509353,31.0999807 C67.0108141,31.4890505 67.3741154,31.9767885 67.6129514,32.5257547 C67.8869619,33.1670858 68.0181768,33.858881 67.9977398,34.554449 L67.9977398,44.2087589 C68.0191607,44.930221 67.8881247,45.6481911 67.6129514,46.3170842 C67.3729389,46.8828279 67.0104962,47.3901189 66.5509353,47.8035294 C66.0919497,48.2079884 65.5518349,48.5128774 64.9656069,48.6984301 C64.3265329,48.9002152 63.6588439,49.0000649 62.9877943,48.9942024 Z M63.0108816,46.4346348 C63.5934103,46.4849271 64.1652931,46.2580902 64.5500354,45.8241305 C64.8798767,45.3981197 65.051056,44.8733028 65.0348688,44.3376853 L65.0348688,34.5051536 C65.0803975,33.9602578 64.8790785,33.4234128 64.4849211,33.0386424 C64.0907638,32.653872 63.54412,32.460567 62.9916422,32.5105869 C62.4281608,32.4683002 61.8762309,32.6836259 61.4948152,33.0945475 C61.1518784,33.5018797 60.9700975,34.017745 60.9830466,34.5468651 L60.9830466,44.3301014 C60.9669399,44.8675527 61.1425902,45.3935531 61.4794237,45.8165466 C61.8613441,46.2505475 62.4297598,46.4799571 63.0108816,46.4346348 Z" id="Shape" fill="#FFFFFF"/>
                <path d="M72,30 L76.8929421,30 C78.4789849,30 79.690986,30.4527527 80.5289453,31.358258 C81.3669046,32.2637634 81.7858842,33.6220214 81.7858842,35.433032 C81.8350686,36.5648678 81.6122742,37.6921589 81.1356067,38.723295 C80.7735021,39.484364 80.1378449,40.0864333 79.3513085,40.4133114 L82,49 L78.8636003,49 L76.6233148,41.0885374 L75.037272,41.0885374 L75.037272,49 L72.0118953,49 L72,30 Z M76.702617,38.8442892 C78.0719006,38.8442892 78.7565424,37.7878663 78.7565424,35.6750205 C78.7857794,34.8890932 78.6240145,34.1076482 78.2846947,33.395645 C77.9699532,32.8021787 77.3249992,32.4516999 76.6471055,32.5057518 L75.0253767,32.5057518 L75.0253767,38.8442892 L76.702617,38.8442892 Z" id="Shape" fill="#FFFFFF"/>
                <polygon id="Shape" fill="#FFFFFF" points="86 30 89 30 89 49 86 49"/>
                <path d="M98.1358153,48.9996129 C97.4345993,49.0069079 96.7363501,48.9110674 96.0653087,48.7154186 C95.468085,48.5424018 94.9147787,48.2520747 94.4404541,47.8628358 C93.9779904,47.4773869 93.6137062,46.9951546 93.3756221,46.4532323 C93.1149896,45.8336902 92.987544,45.1698783 93.000959,44.501765 L93.000959,34.5208624 C92.9914038,33.8714904 93.1188543,33.2269878 93.3756221,32.626234 C93.6155243,32.0820393 93.9793973,31.5964667 94.4404541,31.2052627 C94.9143024,30.8056677 95.4668436,30.5015679 96.0653087,30.3109981 C96.7238528,30.10017 97.4140898,29.995187 98.1082085,30.000279 C98.7654038,29.994116 99.4193134,30.0900857 100.044625,30.2844733 C100.605644,30.4590127 101.126487,30.7356001 101.578772,31.0991635 C102.490661,31.8400487 103.004036,32.9380295 102.974885,34.0850979 L102.974885,36.0517222 L100.233929,36.0517222 L100.233929,34.3465566 C100.262678,33.825904 100.050476,33.3196593 99.6541867,32.9634779 C99.2338446,32.6149719 98.6904165,32.4345996 98.1358153,32.4595067 C97.5298785,32.4067649 96.9343812,32.6364739 96.5346235,33.0771556 C96.1919199,33.5266231 96.0168597,34.0739382 96.037702,34.6307509 L96.037702,44.3767195 C96.0047518,44.9418705 96.1980641,45.4977229 96.5780056,45.9303148 C96.9843564,46.3316303 97.5546434,46.5397074 98.1358153,46.4987033 C98.8693662,46.4987033 99.3860068,46.316819 99.6817935,45.9568396 C99.9878198,45.5615207 100.143705,45.0774247 100.123502,44.5851286 L100.123502,41.2505826 L97.8676354,41.2505826 L97.8676354,39.0262888 L102.994604,39.0262888 L102.994604,44.767013 C103.056378,45.9326858 102.585355,47.0661703 101.704974,47.8704143 C100.845221,48.6232133 99.6555014,48.9996129 98.1358153,48.9996129 Z" id="Shape" fill="#FFFFFF"/>
                <polygon id="Shape" fill="#FFFFFF" points="107 30 110 30 110 49 107 49"/>
                <polygon id="Shape" fill="#FFFFFF" points="114 30 117.018724 30 121.371036 41.7764077 121.420711 41.7764077 121.420711 30 124 30 124 49 121.344287 49 116.628964 36.0209618 116.579289 36.0209618 116.579289 49 114 49"/>
                <path d="M130.990613,30 L135.162253,30 L139,49 L135.926584,49 L134.940999,44.0543144 L130.785451,44.0543144 L129.852162,49 L127,49 L130.990613,30 Z M134.446195,41.6398852 L132.937647,33.3724124 L132.857191,33.3724124 L131.292323,41.6398852 L134.446195,41.6398852 Z" id="Shape" fill="#FFFFFF"/>
                <polygon id="Shape" fill="#FFFFFF" points="142 30 144.837863 30 144.837863 46.4424579 150 46.4424579 150 49 142 49"/>
                <path d="M157.565315,48.9941944 C156.345071,49.0588193 155.157651,48.5814244 154.313464,47.6868066 C153.522641,46.8177411 153.08482,45.5987758 153,44.0299105 L155.653122,43.9503303 C155.686713,44.2907997 155.741708,44.6287535 155.817772,44.9621348 C155.886225,45.265158 155.998447,45.5562967 156.150816,45.8261475 C156.44032,46.3517201 156.997794,46.6669857 157.59151,46.6408964 C157.863483,46.6493154 158.132578,46.5824984 158.369858,46.4476304 C158.575763,46.3267284 158.750228,46.1578444 158.878779,45.9549915 C159.011615,45.7449453 159.106636,45.5127186 159.159433,45.2690867 C159.21766,45.0207187 159.24779,44.7664479 159.249243,44.5111807 C159.249532,43.9542088 159.099426,43.407759 158.815164,42.9309468 C158.474079,42.363674 158.06287,41.8428236 157.59151,41.3810292 L155.679316,39.2854193 C154.986921,38.6172685 154.393306,37.851479 153.916805,37.0117014 C153.491312,36.2271772 153.272243,35.3450057 153.280655,34.4499794 C153.278542,33.8658561 153.368225,33.2851131 153.546341,32.7295329 C153.891938,31.6495843 154.690132,30.7788737 155.727963,30.3497082 C156.337422,30.1058487 156.988732,29.9873319 157.643898,30.0010715 C158.166692,29.998491 158.686738,30.0777432 159.185628,30.2360223 C159.67282,30.3919594 160.114818,30.6665075 160.472897,31.0356131 C160.877329,31.4628767 161.190669,31.9698059 161.393444,32.5248983 C161.654104,33.2553082 161.800561,34.0224516 161.827523,34.7986161 L159.301632,34.8744067 C159.25292,34.2283273 159.074661,33.5990856 158.777743,33.0251162 C158.525385,32.5584482 158.029907,32.2810028 157.505442,32.3126846 C157.04634,32.2826972 156.60048,32.4754002 156.30424,32.8318502 C156.013741,33.2352553 155.869664,33.7278496 155.896356,34.2263971 C155.898374,34.494007 155.954405,34.7583728 156.061006,35.0032507 C156.1777,35.2689984 156.3193,35.5227962 156.483859,35.7611566 C156.662763,36.0267931 156.859037,36.2799953 157.071363,36.5190626 C157.290897,36.7716979 157.511679,37.0243332 157.733708,37.2769685 L159.492477,39.1376276 C160.235632,39.8652253 160.866378,40.701984 161.363508,41.6197696 C161.791569,42.4687413 162.009861,43.4102045 161.999658,44.3633891 C162.005877,44.9957802 161.907212,45.6247415 161.707777,46.2240482 C161.52443,46.7719937 161.22855,47.2743956 160.839619,47.6981752 C160.446546,48.1203959 159.967806,48.4513609 159.436346,48.6682948 C158.839857,48.9003126 158.204075,49.0110543 157.565315,48.9941944 Z" id="Shape" fill="#FFFFFF"/>
                <path d="M62.563239,23.9938131 C61.3439887,24.060657 60.156843,23.5832803 59.313377,22.6869741 C58.5223659,21.8182734 58.0845735,20.5998197 58,19.0316129 L60.64541,18.9520662 C60.6780127,19.2915147 60.7341192,19.6282113 60.8133133,19.959658 C60.8797267,20.2637519 60.9903892,20.5561061 61.1416576,20.827096 C61.2812922,21.0709159 61.4788316,21.2753667 61.71626,21.4218024 C61.9776837,21.5753896 62.2762817,21.6515027 62.5781637,21.6415029 C62.8493465,21.6499184 63.1176593,21.5831294 63.3542502,21.448318 C63.5594945,21.3260222 63.73437,21.1575579 63.8654225,20.9558859 C63.9978722,20.7459279 64.0926172,20.5137986 64.1452613,20.270269 C64.2033184,20.0220053 64.2333611,19.7678412 64.2348098,19.5126811 C64.2332261,18.9562035 64.0836928,18.4104808 63.8019923,17.9331105 C63.4622286,17.3645878 63.0535856,16.8415603 62.5856261,16.3762676 L60.6789907,14.2815373 C59.9886,13.6146321 59.3978172,12.8489695 58.9253338,12.0087738 C58.4981952,11.2255692 58.278366,10.3433181 58.2873012,9.44812697 C58.2845872,8.86390342 58.3753158,8.28310718 58.5559465,7.72840262 C58.8973552,6.64701341 59.6943161,5.77547947 60.7312273,5.34957687 C61.3375871,5.10572755 61.9858041,4.98724796 62.6378627,5.00108647 C63.1603606,4.99848043 63.6801292,5.07769552 64.178842,5.2359387 C64.664177,5.39279113 65.1046705,5.6670873 65.4623695,6.03519385 C65.865653,6.46154552 66.1769855,6.96854464 66.3765098,7.52385391 C66.6382095,8.25345323 66.7842959,9.02056617 66.8093273,9.79661737 L64.2907775,9.87237615 C64.2439899,9.22624408 64.0661471,8.59690563 63.7684117,8.02386187 C63.512796,7.57013188 63.0247644,7.30402697 62.5110024,7.33824489 C62.0542005,7.30764429 61.6104971,7.50049426 61.3170233,7.85719255 C61.0273679,8.26042831 60.88371,8.75281584 60.9103241,9.25115414 C60.9103743,9.51886696 60.9663284,9.78352756 61.0744963,10.0276817 C61.1893094,10.2933487 61.3292638,10.5470687 61.4923889,10.7852695 C61.6723286,11.0496342 61.8679558,11.3026315 62.078185,11.5428573 C62.2995686,11.7953866 62.5197085,12.0416026 62.7386047,12.2815054 L64.4959927,14.1035041 C65.2392389,14.8287598 65.868429,15.6655362 66.3615851,16.5846042 C66.7913956,17.4322516 67.010439,18.3737699 66.9996177,19.3270721 C67.0058186,19.9591979 66.9074405,20.5878951 66.7085853,21.1869502 C66.3441315,22.2997614 65.5157734,23.1933659 64.4437561,23.6301709 C63.846936,23.8770048 63.2076489,24.0006259 62.563239,23.9938131 Z" id="Shape" fill="#FFFFFF"/>
                <polygon id="Shape" fill="#FFFFFF" points="71 5 74.013751 5 78.36822 16.7764077 78.421696 16.7764077 78.421696 5 81 5 81 24 78.3453018 24 73.63178 11.0209618 73.578304 11.0209618 73.578304 24 71 24"/>
                <path d="M87.9838872,5 L92.1570997,5 L96,24 L92.9264854,24 L91.939577,19.0553279 L87.7905337,19.0553279 L86.8559919,24 L84,24 L87.9838872,5 Z M91.4441088,16.6413934 L89.9335347,8.37561475 L89.8489426,8.37561475 L88.2900302,16.6413934 L91.4441088,16.6413934 Z" id="Shape" fill="#FFFFFF"/>
                <path d="M99.0111248,5 L103.728059,5 C105.211372,5 106.29419,5.49979449 106.976514,6.49157419 C107.658838,7.48335388 108,8.87340732 108,10.6500206 C108,12.4982189 107.645241,13.9676668 106.935723,15.0583642 C106.23115,16.1516646 105.10754,16.6983148 103.57602,16.6983148 L101.829419,16.6983148 L101.829419,24 L99,24 L99.0111248,5 Z M103.205192,14.2461981 C104.555006,14.2461981 105.229913,13.0643924 105.229913,10.7007809 C105.26695,9.89483513 105.119417,9.09132632 104.799753,8.35799425 C104.506773,7.79361647 103.92512,7.46442333 103.31644,7.51849568 L101.833127,7.51849568 L101.833127,14.2461981 L103.205192,14.2461981 Z" id="Shape" fill="#FFFFFF"/>
                <path d="M62.9877943,48.9942024 C61.6806434,49.0546707 60.396402,48.6404583 59.3784788,47.8300731 C58.4626823,47.0539869 58.0035014,45.8721619 58.0009362,44.284598 L58.0009362,34.7099191 C57.98752,34.0099903 58.1184262,33.3146621 58.3857246,32.6660569 C58.6248745,32.1040981 58.9860665,31.6006023 59.4438928,31.1909876 C59.9021379,30.7863954 60.4425688,30.4826207 61.0292212,30.2998788 C61.6728817,30.09475 62.3459782,29.9935884 63.0224253,30.0003146 C63.6841757,29.9946724 64.3430541,30.0866993 64.9771506,30.2733352 C65.5542803,30.4382539 66.0902473,30.7197757 66.5509353,31.0999807 C67.0108141,31.4890505 67.3741154,31.9767885 67.6129514,32.5257547 C67.8869619,33.1670858 68.0181768,33.858881 67.9977398,34.554449 L67.9977398,44.2087589 C68.0191607,44.930221 67.8881247,45.6481911 67.6129514,46.3170842 C67.3729389,46.8828279 67.0104962,47.3901189 66.5509353,47.8035294 C66.0919497,48.2079884 65.5518349,48.5128774 64.9656069,48.6984301 C64.3265329,48.9002152 63.6588439,49.0000649 62.9877943,48.9942024 Z M63.0108816,46.4346348 C63.5934103,46.4849271 64.1652931,46.2580902 64.5500354,45.8241305 C64.8798767,45.3981197 65.051056,44.8733028 65.0348688,44.3376853 L65.0348688,34.5051536 C65.0803975,33.9602578 64.8790785,33.4234128 64.4849211,33.0386424 C64.0907638,32.653872 63.54412,32.460567 62.9916422,32.5105869 C62.4281608,32.4683002 61.8762309,32.6836259 61.4948152,33.0945475 C61.1518784,33.5018797 60.9700975,34.017745 60.9830466,34.5468651 L60.9830466,44.3301014 C60.9669399,44.8675527 61.1425902,45.3935531 61.4794237,45.8165466 C61.8613441,46.2505475 62.4297598,46.4799571 63.0108816,46.4346348 Z" id="Shape" fill="#FFFFFF"/>
                <path d="M72,30 L76.8929421,30 C78.4789849,30 79.690986,30.4527527 80.5289453,31.358258 C81.3669046,32.2637634 81.7858842,33.6220214 81.7858842,35.433032 C81.8350686,36.5648678 81.6122742,37.6921589 81.1356067,38.723295 C80.7735021,39.484364 80.1378449,40.0864333 79.3513085,40.4133114 L82,49 L78.8636003,49 L76.6233148,41.0885374 L75.037272,41.0885374 L75.037272,49 L72.0118953,49 L72,30 Z M76.702617,38.8442892 C78.0719006,38.8442892 78.7565424,37.7878663 78.7565424,35.6750205 C78.7857794,34.8890932 78.6240145,34.1076482 78.2846947,33.395645 C77.9699532,32.8021787 77.3249992,32.4516999 76.6471055,32.5057518 L75.0253767,32.5057518 L75.0253767,38.8442892 L76.702617,38.8442892 Z" id="Shape" fill="#FFFFFF"/>
                <polygon id="Shape" fill="#FFFFFF" points="86 30 89 30 89 49 86 49"/>
                <path d="M98.1358153,48.9996129 C97.4345993,49.0069079 96.7363501,48.9110674 96.0653087,48.7154186 C95.468085,48.5424018 94.9147787,48.2520747 94.4404541,47.8628358 C93.9779904,47.4773869 93.6137062,46.9951546 93.3756221,46.4532323 C93.1149896,45.8336902 92.987544,45.1698783 93.000959,44.501765 L93.000959,34.5208624 C92.9914038,33.8714904 93.1188543,33.2269878 93.3756221,32.626234 C93.6155243,32.0820393 93.9793973,31.5964667 94.4404541,31.2052627 C94.9143024,30.8056677 95.4668436,30.5015679 96.0653087,30.3109981 C96.7238528,30.10017 97.4140898,29.995187 98.1082085,30.000279 C98.7654038,29.994116 99.4193134,30.0900857 100.044625,30.2844733 C100.605644,30.4590127 101.126487,30.7356001 101.578772,31.0991635 C102.490661,31.8400487 103.004036,32.9380295 102.974885,34.0850979 L102.974885,36.0517222 L100.233929,36.0517222 L100.233929,34.3465566 C100.262678,33.825904 100.050476,33.3196593 99.6541867,32.9634779 C99.2338446,32.6149719 98.6904165,32.4345996 98.1358153,32.4595067 C97.5298785,32.4067649 96.9343812,32.6364739 96.5346235,33.0771556 C96.1919199,33.5266231 96.0168597,34.0739382 96.037702,34.6307509 L96.037702,44.3767195 C96.0047518,44.9418705 96.1980641,45.4977229 96.5780056,45.9303148 C96.9843564,46.3316303 97.5546434,46.5397074 98.1358153,46.4987033 C98.8693662,46.4987033 99.3860068,46.316819 99.6817935,45.9568396 C99.9878198,45.5615207 100.143705,45.0774247 100.123502,44.5851286 L100.123502,41.2505826 L97.8676354,41.2505826 L97.8676354,39.0262888 L102.994604,39.0262888 L102.994604,44.767013 C103.056378,45.9326858 102.585355,47.0661703 101.704974,47.8704143 C100.845221,48.6232133 99.6555014,48.9996129 98.1358153,48.9996129 Z" id="Shape" fill="#FFFFFF"/>
                <polygon id="Shape" fill="#FFFFFF" points="107 30 110 30 110 49 107 49"/>
                <polygon id="Shape" fill="#FFFFFF" points="114 30 117.018724 30 121.371036 41.7764077 121.420711 41.7764077 121.420711 30 124 30 124 49 121.344287 49 116.628964 36.0209618 116.579289 36.0209618 116.579289 49 114 49"/>
                <path d="M130.990613,30 L135.162253,30 L139,49 L135.926584,49 L134.940999,44.0543144 L130.785451,44.0543144 L129.852162,49 L127,49 L130.990613,30 Z M134.446195,41.6398852 L132.937647,33.3724124 L132.857191,33.3724124 L131.292323,41.6398852 L134.446195,41.6398852 Z" id="Shape" fill="#FFFFFF"/>
                <polygon id="Shape" fill="#FFFFFF" points="142 30 144.837863 30 144.837863 46.4424579 150 46.4424579 150 49 142 49"/>
                <path d="M157.565315,48.9941944 C156.345071,49.0588193 155.157651,48.5814244 154.313464,47.6868066 C153.522641,46.8177411 153.08482,45.5987758 153,44.0299105 L155.653122,43.9503303 C155.686713,44.2907997 155.741708,44.6287535 155.817772,44.9621348 C155.886225,45.265158 155.998447,45.5562967 156.150816,45.8261475 C156.44032,46.3517201 156.997794,46.6669857 157.59151,46.6408964 C157.863483,46.6493154 158.132578,46.5824984 158.369858,46.4476304 C158.575763,46.3267284 158.750228,46.1578444 158.878779,45.9549915 C159.011615,45.7449453 159.106636,45.5127186 159.159433,45.2690867 C159.21766,45.0207187 159.24779,44.7664479 159.249243,44.5111807 C159.249532,43.9542088 159.099426,43.407759 158.815164,42.9309468 C158.474079,42.363674 158.06287,41.8428236 157.59151,41.3810292 L155.679316,39.2854193 C154.986921,38.6172685 154.393306,37.851479 153.916805,37.0117014 C153.491312,36.2271772 153.272243,35.3450057 153.280655,34.4499794 C153.278542,33.8658561 153.368225,33.2851131 153.546341,32.7295329 C153.891938,31.6495843 154.690132,30.7788737 155.727963,30.3497082 C156.337422,30.1058487 156.988732,29.9873319 157.643898,30.0010715 C158.166692,29.998491 158.686738,30.0777432 159.185628,30.2360223 C159.67282,30.3919594 160.114818,30.6665075 160.472897,31.0356131 C160.877329,31.4628767 161.190669,31.9698059 161.393444,32.5248983 C161.654104,33.2553082 161.800561,34.0224516 161.827523,34.7986161 L159.301632,34.8744067 C159.25292,34.2283273 159.074661,33.5990856 158.777743,33.0251162 C158.525385,32.5584482 158.029907,32.2810028 157.505442,32.3126846 C157.04634,32.2826972 156.60048,32.4754002 156.30424,32.8318502 C156.013741,33.2352553 155.869664,33.7278496 155.896356,34.2263971 C155.898374,34.494007 155.954405,34.7583728 156.061006,35.0032507 C156.1777,35.2689984 156.3193,35.5227962 156.483859,35.7611566 C156.662763,36.0267931 156.859037,36.2799953 157.071363,36.5190626 C157.290897,36.7716979 157.511679,37.0243332 157.733708,37.2769685 L159.492477,39.1376276 C160.235632,39.8652253 160.866378,40.701984 161.363508,41.6197696 C161.791569,42.4687413 162.009861,43.4102045 161.999658,44.3633891 C162.005877,44.9957802 161.907212,45.6247415 161.707777,46.2240482 C161.52443,46.7719937 161.22855,47.2743956 160.839619,47.6981752 C160.446546,48.1203959 159.967806,48.4513609 159.436346,48.6682948 C158.839857,48.9003126 158.204075,49.0110543 157.565315,48.9941944 Z" id="Shape" fill="#FFFFFF"/>
            </g>
        </g>
    </g>
</svg>