<svg height="40" viewBox="0 0 150 40" width="150" xmlns="http://www.w3.org/2000/svg" xmlns:xlink="http://www.w3.org/1999/xlink"><defs><path id="a" d="m30.573746 28.2155306c-.033.0978337-.081.1904635-.142.2726854-.06.0822219-.133.154036-.215.21232-.084.0603654-.171.1019968-.267.1353019-.095.0291419-.192.0499576-.291.0655694-.046.0062447-.09.014571-.135.0208157l-7.436 1.0178868c-.045.0062447-.09.0114486-.136.0176933-.099.0104079-.198.0166526-.297.0135302-.101-.0041631-.195-.0218564-.291-.0572431-.094-.0343459-.182-.0843035-.261-.1477913-.08-.0634879-.149-.1394651-.205-.2248094-.058-.0874259-.098-.1769333-.129-.2768486-.03-.0988745-.049-.2008713-.064-.3028681-.007-.0457945-.013-.0926298-.019-.1415467l-.979-7.7382297c-.007-.047876-.012-.0947113-.017-.1415466-.011-.1030376-.018-.2060753-.013-.3091129.005-.10616.021-.2039937.056-.3028682.033-.0988745.08-.1904635.141-.2726854s.134-.154036.216-.2123199c.084-.0614063.171-.1030377.267-.135302.094-.0291419.192-.0499576.29-.0655694.047-.0062447.091-.014571.136-.0208157l7.436-1.0178868c.044-.0062447.089-.0114486.136-.0176933.098-.0104079.198-.0187341.297-.014571.101.0052039.195.0228972.291.0582839.094.0343459.182.0843035.261.1477913.079.0634879.148.1384243.204.2237686.059.0874259.099.1779741.13.2778894.03.0988745.049.1998305.064.3028681.007.0457945.013.0926298.019.1415467l.979 7.7382297c.006.0478761.012.0947113.016.1415466.012.1030377.019.2060753.014.3091129-.005.1051192-.021.2029529-.056.3028682m-12.701-17.6423311c-.397-3.13484171 1.723-6.01052815 4.735-6.42267865 3.012-.41319129 5.775 1.79431177 6.171 4.92707188.397 3.13484167-1.724 6.01052807-4.735 6.42267857-3.012.4131913-5.775-1.7922302-6.171-4.9270718m-1.335 18.2074768c-.673 1.9972647-2.782 3.5802973-5.773 2.7455885-1.63599997-.457945-3.11799997-1.4768727-4.12899997-2.8715233-.467-.6421638-.845-1.3936099-.858-2.1960545-.013-.8034853.419-1.6527651 1.157-1.9202466.722-.2622776 1.5.0645286 2.234.2830933.734.2185646 1.65899997.2685222 2.12999997-.3528259.344-.4548226.299-1.1053127.117-1.648602-.106-.3153575-.254-.6234296-.284-.9564805-.103-1.1448625 1.313-1.9400216 2.383-1.6028075 1.07.3382548 1.771 1.3779981 2.268 2.4062928.915 1.8869415 1.428 4.1163011.755 6.1135657m-12.10499997-11.6442924c-.219-.2966234-.269-.6910806-.131-1.0355801l3.658-9.19220511c.274-.69003986 1.286-.82846414 1.723-.23521721l5.81899997 7.89330652c.218.2955827.268.6900399.131 1.0355802-.137.3444995-.44.5859614-.796.6348783l-9.47699997 1.2988985c-.356.0489169-.709-.1030376-.927-.3996611m30.08999997 9.5033996c.057.5099842.092 1.0220499.066 1.5341157-.024.5203921-.105 1.0095606-.276 1.5018514-.165.4850054-.401.9408689-.702 1.349897-.303.4100689-.664.7649763-1.071 1.0553551-.414.2997458-.846.5079026-1.323.6661018-.47.1509137-.955.2497882-1.441.3320101-.229.0301828-.45.0686918-.672.0999153l-19.43399997 2.6623257c-.221.0301827-.445.05308-.674.0843035-.49.0520392-.982.0874259-1.474.0697325-.499-.0260196-.969-.1113639-1.443-.2882972-.466-.1717293-.903-.4163136-1.297-.7316712-.393-.3143168-.734-.6900398-1.014-1.1136389-.287-.4298439-.487-.8805034-.64-1.3759166-.152-.4891685-.246-.9939488-.318-1.5008107-.036-.2300133-.066-.4600265-.096-.6994069l-2.558-20.2245164c-.03-.23938035-.06-.47043442-.082-.70148848-.056-.50894342-.091-1.02204998-.065-1.53411575.024-.52039205.105-1.00956057.276-1.50185144.164-.48500539.4-.93982804.702-1.34989697s.664-.76393552 1.071-1.05535506c.413-.29974582.846-.50790264 1.323-.66610182.47-.15091369.954-.24978818 1.441-.33201013.229-.03018273.45-.06869175.671-.09887448l19.43499997-2.66336649c.221-.03018274.444-.05307999.673-.08430351.491-.05203921.983-.08742587 1.474-.06869175.5.02497882.97.11032311 1.444.28725641.466.17172937.903.41631363 1.296.73167121.394.3143168.735.69003985 1.014 1.11363898.288.42984383.488.88050334.641 1.37695735.152.48812774.246.99290802.317 1.49976987.037.23001329.066.46002657.097.69940691l2.558 20.22451645c.03.2393803.059.4704344.081.7014885zm25.6149-16.7782722c-.762-1.02933546-2.259-1.79327098-3.672-1.79327098-1.638 0-3.531.82221943-3.531 2.85278918 0 1.9108796 1.554 2.4687399 3.813 3.2035334 2.571.8232603 5.848 1.9993463 5.848 6.0854646 0 4.4691269-3.362 6.6454064-7.288 6.6454064-2.599 0-5.283-1.0293354-6.864-2.9703978l2.542-2.4687398c.989 1.4102624 2.797 2.2928473 4.379 2.2928473 1.666 0 3.615-.8534429 3.615-3.0869656 0-2.1752387-2.091-2.7924237-4.605-3.6167247-2.428-.7930775-5.056-2.0284882-5.056-5.9085313 0-4.23390966 3.701-6.11460651 7.317-6.11460651 2.005 0 4.293.73479357 5.819 2.23352266zm4.1714 2.3530047h3.22v2.2626646h.057c.593-1.4113032 2.203-2.6748151 4.209-2.6748151 3.53 0 4.999 2.8215656 4.999 5.702456v8.8216859h-3.389v-7.8204516c0-1.6767032-.367-3.7634753-2.542-3.7634753-2.147 0-3.164 1.9400216-3.164 3.8228v7.7611269h-3.39zm23.2305 7.6727644h-.763c-2.146 0-5.168.2643591-5.168 2.352172 0 1.3519785 1.214 1.7630883 2.372 1.7630883 2.317 0 3.559-1.3811205 3.559-3.615684zm.057 4.6460601h-.085c-.678 1.2333292-2.287 2.145056-4.208 2.145056-2.176 0-5.085-1.0876193-5.085-4.3806602 0-4.2037269 5.085-4.7928107 9.321-4.7928107v-.3528258c0-1.7339463-1.412-2.5863485-3.106-2.5863485-1.441 0-2.825.7046108-3.702 1.6163377l-1.751-2.145056c1.526-1.4695871 3.673-2.2345634 5.735-2.2345634 4.859 0 6.045 3.1161075 6.045 5.938714v8.5854279h-3.164zm12.6022-9.8499806c-2.486 0-3.983 2.381314-3.983 4.5867355 0 2.2043807 1.497 4.5274108 3.983 4.5274108 2.627 0 3.898-2.381314 3.898-4.5856947 0-2.2064623-1.271-4.5284516-3.898-4.5284516zm-4.012-2.4687398v1.9691635h.085c.678-1.1178022 2.204-2.381314 4.69-2.381314 3.87 0 6.582 3.2337161 6.582 7.4093419 0 4.1152603-2.542 7.5259097-6.667 7.5259097-1.892 0-3.616-.8825849-4.491-2.2938881h-.057v8.647875h-3.39v-20.877088zm18.7825-6.70421076h3.56v8.99653766h.085l8.361-8.99653766h4.802l-9.351 9.61372266 9.973 11.2019591h-5l-8.785-10.4369828h-.085v10.4369828h-3.56zm18.0325 20.81620216h3.391v-14.1119914h-3.391zm1.667-21.02175702c1.243 0 2.204.91068608 2.204 2.11591406 0 1.20626876-.961 2.11799562-2.204 2.11799562s-2.147-1.00019351-2.147-2.11799562c0-1.11676133.904-2.11591406 2.147-2.11591406zm3.9011 2.82166975h3.334v4.08819987h3.39v2.8215657h-3.39v6.555899c0 1.2635119.282 2.1752387 1.779 2.1752387.452 0 1.045-.0884666 1.441-.2935011l.113 2.7632818c-.594.236258-1.497.3830085-2.26.3830085-3.587 0-4.407-2.2949289-4.407-4.998886z"/><filter id="b" height="125%" width="106.2%" x="-3.1%" y="-9.7%"><feOffset dx="0" dy="1" in="SourceAlpha" result="shadowOffsetOuter1"/><feGaussianBlur in="shadowOffsetOuter1" result="shadowBlurOuter1" stdDeviation="1"/><feColorMatrix in="shadowBlurOuter1" result="shadowMatrixOuter1" type="matrix" values="0 0 0 0 0   0 0 0 0 0   0 0 0 0 0  0 0 0 0.122367527 0"/><feMorphology in="SourceAlpha" operator="dilate" radius="0.5" result="shadowSpreadOuter2"/><feOffset dx="0" dy="0" in="shadowSpreadOuter2" result="shadowOffsetOuter2"/><feColorMatrix in="shadowOffsetOuter2" result="shadowMatrixOuter2" type="matrix" values="0 0 0 0 0   0 0 0 0 0   0 0 0 0 0  0 0 0 0.02 0"/><feMerge><feMergeNode in="shadowMatrixOuter1"/><feMergeNode in="shadowMatrixOuter2"/></feMerge></filter></defs><g fill="none" fill-rule="evenodd" transform="translate(2 1)"><use fill="#000" filter="url(#b)" xlink:href="#a"/><use fill="#fff" fill-rule="evenodd" xlink:href="#a"/></g></svg>
