<svg class="" width="131px" height="24px" viewBox="0 0 131 24" version="1.1" xmlns="http://www.w3.org/2000/svg" xmlns:xlink="http://www.w3.org/1999/xlink"><g id="Page-1" stroke="none" stroke-width="1" fill="" fill-rule="evenodd"><path d="M99.0943647,3.56440572 C99.0943647,3.3219664 99.1800247,3.09396391 99.3518429,2.92221531 C99.7059377,2.56776602 100.282151,2.56776602 100.636744,2.92221531 C100.807566,3.09396391 100.902688,3.3219664 100.902688,3.56440572 C100.902688,3.76353454 100.838443,3.95370255 100.719914,4.11051649 L98.8637797,6.57373989 L99.0943647,3.56440572 Z M69.6123614,16.6083385 C67.6780376,16.6083385 66.1042829,15.0352209 66.1042829,13.1016801 C66.1042829,11.1681394 67.6780376,9.59502178 69.6123614,9.59502178 C71.5466852,9.59502178 73.1204399,11.1681394 73.1204399,13.1016801 C73.1204399,15.0352209 71.5466852,16.6083385 69.6123614,16.6083385 Z M130.902138,12.2613566 L129.485759,10.8450529 C129.355775,10.7146235 129.144115,10.7146235 129.013633,10.8450529 L127.13708,12.7990044 C126.931396,12.2752956 126.63557,11.7580585 126.237649,11.2602365 L122.650883,6.97448662 C122.526875,6.82613566 122.302764,6.81369011 122.16282,6.94810205 L113.82192,15.5813317 C112.454347,16.9488488 110.228679,16.9488488 108.860608,15.5813317 C107.493035,14.2143124 107.493035,11.9895457 108.860608,10.6225264 C109.894505,9.58904792 111.41796,9.33665215 112.690908,9.86484132 L109.463715,13.1066584 C109.333731,13.2375856 109.333731,13.4481643 109.463715,13.5785937 L110.880592,14.9943995 C111.011074,15.1253267 111.222236,15.1253267 111.35222,14.9943995 L116.418117,9.91462352 C116.548599,9.78419415 116.548599,9.57261979 116.418117,9.44268824 L115.709927,8.73478531 C113.313438,6.33827007 109.419889,6.32781581 107.008458,8.70093342 L107.001984,8.69446173 L99.4638982,16.5197262 C99.41808,16.5645302 99.3652895,16.5983821 99.3015425,16.5983821 C99.1874951,16.5983821 99.0943647,16.5052894 99.0943647,16.3912881 L99.0943647,9.70703174 L102.462997,6.13914126 L102.516285,6.08537648 C103.190609,5.4123211 103.561637,4.51673927 103.561637,3.56440572 C103.561637,2.61157436 103.190609,1.71649035 102.516285,1.04293715 C101.125305,-0.346981954 98.8622857,-0.347479776 97.4713056,1.04293715 C96.7979777,1.71649035 96.4239619,2.61207218 96.4239619,3.56440572 L96.4239619,8.65563161 L89.8779392,15.5813317 C88.4655442,16.9936528 86.1372837,16.9468575 84.7851495,15.4419415 C83.65862,14.1884256 83.6068256,12.2742999 84.6252839,10.9575607 L84.900691,10.6449284 C86.1950544,9.33217175 88.2698209,9.25351587 89.6533306,10.4159303 C89.7858049,10.5269446 89.9805321,10.5199751 90.1030459,10.3975109 L91.5229113,8.97822029 C91.6593698,8.84181705 91.6514014,8.61829496 91.5069746,8.48985688 C89.0840896,6.32980709 85.3528965,6.41144991 83.0286201,8.73478531 C82.8587941,8.90454263 82.7029127,9.08226509 82.5569918,9.2654636 L76.2066924,16.4679527 L76.1603762,16.5237088 C76.1210323,16.573491 76.0617675,16.6018668 75.9980205,16.6018668 C75.883973,16.6018668 75.7908426,16.5092719 75.7908426,16.3947729 L75.7908426,13.1016801 C75.7908426,9.69607965 73.0193411,6.92619788 69.6123614,6.92619788 C67.9290415,6.92619788 66.401105,7.60273802 65.28603,8.69844431 L65.2820458,8.69446173 L57.7444581,16.5197262 C57.6986399,16.5645302 57.6453514,16.5983821 57.5821024,16.5983821 C57.4675569,16.5983821 57.3744265,16.5052894 57.3744265,16.3912881 L57.3744265,10.0191661 L60.8959517,10.0191661 C61.0802204,10.0191661 61.2301255,9.86932172 61.2301255,9.68512757 L61.2301255,7.68288737 C61.2301255,7.49869322 61.0802204,7.34984443 60.8959517,7.34984443 L57.3744265,7.34984443 L57.3744265,1.56365899 C57.3744265,1.36851276 57.2075886,1.21468575 57.0128614,1.23111388 L55.0098103,1.40186683 C54.8369961,1.41680149 54.7040238,1.56116988 54.7040238,1.73391413 L54.7040238,9.9594275 L49.3213843,15.5823273 C47.9533134,16.948351 45.7286418,16.948351 44.3615669,15.5813317 C42.993994,14.215308 42.993496,11.9930305 44.3585788,10.6255134 L44.363061,10.6205352 C45.6584205,9.32769135 47.7212344,9.25948973 49.0967756,10.4159303 C49.229748,10.5269446 49.4249732,10.5199751 49.546989,10.3975109 L50.9668544,8.97822029 C51.1038109,8.84181705 51.0953445,8.61829496 50.9509177,8.48985688 C48.5280327,6.32980709 44.7973376,6.41144991 42.4730613,8.73478531 L42.4626028,8.74474175 L35.7696631,15.5818295 C34.4020902,16.9488488 32.1764226,16.948351 30.8093477,15.5813317 C29.4412767,14.2143124 29.4412767,11.9895457 30.8088497,10.6225264 C31.8427467,9.58904792 33.366201,9.33665215 34.6391494,9.86484132 L31.4124543,13.1066584 C31.2819721,13.2375856 31.2819721,13.4481643 31.4124543,13.5785937 L32.8283355,14.9943995 C32.9588177,15.1253267 33.1699797,15.1253267 33.3009599,14.9943995 L38.3663584,9.91462352 C38.4968405,9.78419415 38.4968405,9.57261979 38.3663584,9.44268824 L37.6581687,8.73478531 C35.2497264,6.32682016 31.3297824,6.32682016 28.920842,8.73478531 C28.9153638,8.73976353 28.9103835,8.74523958 28.9054033,8.75071562 L25.4949374,12.0612321 C25.0238071,9.30031114 22.6870802,7.14026136 19.8463533,6.94113255 C18.0201007,6.81369011 16.3467412,7.48574984 15.1390339,8.64019913 L15.1380379,8.63920348 L11.3321412,12.3614188 C10.7504496,9.84293715 8.45306659,7.95619166 5.71393658,7.95619166 L5.71393658,7.95668948 C4.20243484,7.95668948 2.97281448,6.77037959 2.97281448,5.31325451 C2.97281448,3.85563161 4.20243484,2.66932172 5.71393658,2.66932172 C7.07105099,2.66932172 8.19758046,3.62663348 8.41372272,4.87766024 C8.44360414,5.05040448 8.59550135,5.17485999 8.77130369,5.16042315 L10.7728607,4.99016801 C10.9626077,4.97373989 11.1020543,4.80199129 11.0771531,4.61281892 C10.7265445,2.01319228 8.4555567,0 5.71393658,0 C2.73027697,0 0.302411734,2.38357187 0.302411734,5.31325451 C0.302411734,8.24243933 2.73027697,10.6260112 5.71393658,10.6260112 C7.41867149,10.6260112 8.80566732,11.9656503 8.80566732,13.6124456 C8.80566732,15.258743 7.41867149,16.5988799 5.71393658,16.5988799 C4.18002378,16.5988799 2.90657733,15.5136279 2.66652994,14.0963286 C2.63664852,13.9225887 2.48425329,13.7971375 2.30845095,13.8120722 L0.306893947,13.9823273 C0.116648917,13.9982576 -0.0227977012,14.1714997 0.00309952798,14.3606721 C0.377613303,17.1265713 2.79502004,19.2682016 5.71393658,19.2682016 C7.25332764,19.2682016 8.65227604,18.6718108 9.68716916,17.7030492 L9.68766718,17.7025513 C9.74942212,17.644804 9.80968298,17.586061 9.86844976,17.5258245 L13.2096903,14.2576229 L13.2096903,23.6664592 C13.2096903,23.8506534 13.3590974,24 13.5433662,24 L15.5459192,24 C15.730188,24 15.8800931,23.8506534 15.8800931,23.6664592 L15.8800931,13.1016801 L15.8965279,13.1016801 C15.8965279,11.104916 17.5748675,9.49296826 19.5958475,9.60049782 C21.3643294,9.69458619 22.8130802,11.1432483 22.9072066,12.9110143 C23.0097995,14.8266335 21.5635388,16.4350965 19.7103929,16.5953951 C19.5375787,16.609832 19.4046064,16.7532047 19.4046064,16.9264468 L19.4046064,18.9331674 C19.4046064,19.1258245 19.5669621,19.2781581 19.7596972,19.2677038 C21.2990883,19.1800871 22.6880762,18.5254512 23.7239654,17.5113877 L23.7249614,17.5128811 L27.2016644,14.1306783 C27.4068502,15.353827 27.9785813,16.5271935 28.920842,17.4690728 C30.1250632,18.6728065 31.7072843,19.2751711 33.2895054,19.2751711 C34.8717265,19.2751711 36.4539476,18.6728065 37.6586668,17.4690728 L40.7787849,14.2815184 C41.0043896,15.4499067 41.5691484,16.5655258 42.4730613,17.4690728 C43.6772824,18.6728065 45.2595035,19.2751711 46.8417246,19.2751711 C48.4239457,19.2751711 50.0061668,18.6728065 51.210886,17.4690728 L54.7040238,13.8011201 L54.7040238,16.3121344 C54.7040238,17.9086497 55.9714939,19.2602365 57.5686557,19.2677038 C58.4317307,19.2716864 59.2355409,18.897822 59.785857,18.2401991 L63.556892,14.3298071 C64.1281251,17.1489732 66.6262116,19.2776602 69.6123614,19.2776602 C71.09946,19.2776602 72.4655388,18.7494711 73.5328034,17.871313 C74.0368034,18.7086497 74.9511748,19.2716864 75.9980205,19.2716864 C76.8705579,19.2716864 77.6818384,18.8848787 78.2301624,18.209832 L81.4075532,14.6065961 C81.6700117,15.656005 82.2098693,16.6496577 83.0286201,17.4690728 C84.2333393,18.6728065 85.8155604,19.2751711 87.3977815,19.2751711 C88.9795046,19.2751711 90.5622237,18.6728065 91.7664449,17.4690728 L96.4931872,12.2145613 L96.4239619,16.3121344 C96.4239619,17.9086497 97.6914321,19.2602365 99.2885939,19.2677038 C100.150673,19.2716864 100.954483,18.897822 101.505795,18.2401991 L105.287289,14.3193528 C105.517376,15.4742999 106.078648,16.5754823 106.972601,17.4690728 C108.176822,18.6728065 109.759043,19.2751711 111.341762,19.2751711 C112.923983,19.2751711 114.505706,18.6728065 115.710425,17.4690728 L122.157839,10.6718108 L124.120052,12.886621 L124.142962,12.9159925 C124.98512,13.9644057 125.031436,14.8769135 124.278424,15.7655258 C123.900424,16.21257 123.383974,16.5356565 122.800788,16.5919104 C122.264914,16.6436839 121.748464,16.4968264 121.333112,16.1841942 C121.197152,16.0821406 121.008899,16.0876167 120.888377,16.2075918 L119.465026,17.6303671 C119.328069,17.7672682 119.335539,17.9932794 119.481958,18.1197262 C120.347025,18.8649658 121.437199,19.2716864 122.590622,19.2716864 C123.86357,19.2716864 125.061317,18.7763535 125.961246,17.8757934 L130.902138,12.732794 C131.032621,12.6023647 131.032621,12.3912881 130.902138,12.2613566 Z" id="Fill-73" fill=""></path></g></svg>
