<?xml version="1.0" encoding="UTF-8"?>
<!-- Generator: Adobe Illustrator 22.0.1, SVG Export Plug-In . SVG Version: 6.00 Build 0)  -->
<svg width="500" height="354" version="1.1" xml:space="preserve" xmlns="http://www.w3.org/2000/svg"><title>Jump Bikes logo</title><style type="text/css">
	.st0{fill:#FFFFFF;}
</style><g transform="matrix(.49236 0 0 .49236 -242.23 -314.66)"><path d="m632.5 978.1c0 10.5-7.6 16.9-17.6 16.9s-17.6-6.4-17.6-16.9v-107.1c0-2.6-2.1-4.6-4.6-4.6h-65.7c-2.6 0-4.6 2.1-4.6 4.6v104.1c0 52.1 41.6 88 94.3 88s90.8-36.1 90.8-88v-298.1c0-2.5-2.1-4.6-4.6-4.6h-65.8c-2.6 0-4.6 2.1-4.6 4.6z"/><path d="m859.8 978.1c0 10.5-7.6 16.9-18.2 16.9-9.4 0-17-6.4-17-16.9v-301.1c0-2.5-2.1-4.6-4.6-4.6h-65.8c-2.5 0-4.6 2.1-4.6 4.6v299.4c0 48.6 39.8 86.8 92 86.8 53.3 0 93.2-38 93.2-86.8v-299.4c0-2.5-2.1-4.6-4.6-4.6h-65.8c-2.5 0-4.6 2.1-4.6 4.6z"/><path d="m1403.8 672.4h-106.7c-2.5 0-4.6 2.1-4.6 4.6v378.9c0 2.5 2.1 4.6 4.6 4.6h65.8c2.5 0 4.6-2.1 4.6-4.6v-88.9c5.1 0.7 10.4 1.1 15.8 1.1h1.8c37.4 0 92.6-25.4 92.6-77.4v-140.8c-0.1-54.2-34.7-77.5-73.9-77.5m-1.2 102.2v108.5c0 10.5-7.6 16.9-17.6 16.9s-17.6-6.4-17.6-16.9v-130.9c0-10.5 7.6-16.9 18.2-16.9 9.4 0 17 6.4 17 16.9z"/><path d="m1157.8 675.5-44.2 144.5-44.2-144.5c-0.6-1.9-2.3-3.1-4.3-3.1h-83.7c-2.5 0-4.6 2.1-4.6 4.6v378.9c0 2.6 2.1 4.6 4.6 4.6h66.2c2.5 0 4.6-2.1 4.6-4.6v-210.4c0-0.7 1-0.9 1.2-0.2l53.7 132.1c2.3 5.7 10.3 5.7 12.6 0l53.7-132.1c0.3-0.6 1.2-0.5 1.2 0.2v210.3c0 2.6 2.1 4.6 4.6 4.6h66.2c2.5 0 4.6-2.1 4.6-4.6v-378.8c0-2.5-2.1-4.6-4.6-4.6h-83.7c-1.6 0-3.3 1.2-3.9 3.1"/><path d="m1473 1252.6h-946c-2.5 0-4.6 2.1-4.6 4.6v65.8c0 2.5 2.1 4.6 4.6 4.6h946c2.5 0 4.6-2.1 4.6-4.6v-65.8c0-2.5-2.1-4.6-4.6-4.6"/></g></svg>