<?xml version="1.0" encoding="UTF-8" standalone="no"?>
<!-- Created with Inkscape (http://www.inkscape.org/) -->

<svg
   xmlns:dc="http://purl.org/dc/elements/1.1/"
   xmlns:cc="http://creativecommons.org/ns#"
   xmlns:rdf="http://www.w3.org/1999/02/22-rdf-syntax-ns#"
   xmlns:svg="http://www.w3.org/2000/svg"
   xmlns="http://www.w3.org/2000/svg"
   version="1.1"
   width="892.91339"
   height="198.07086"
   id="svg7559">
  <defs
     id="defs7561" />
  <metadata
     id="metadata7564">
    <rdf:RDF>
      <cc:Work
         rdf:about="">
        <dc:format>image/svg+xml</dc:format>
        <dc:type
           rdf:resource="http://purl.org/dc/dcmitype/StillImage" />
        <dc:title></dc:title>
      </cc:Work>
    </rdf:RDF>
  </metadata>
  <g
     transform="translate(74.385031,-350.16153)"
     id="layer1">
    <g
       transform="matrix(4.4247396,0,0,4.4247396,258.29264,-1881.0828)"
       id="g7612">
      <g
         transform="matrix(1.25,0,0,-1.25,-64.577524,530.4369)"
         id="g7065">
        <path
           d="m 0,0 -4.07,0 0,-5.017 3.353,0 c 1.493,0 1.719,0.724 1.764,0.881 l 0,-3.368 c -0.022,0.113 -0.249,0.883 -1.764,0.883 l -3.353,0 0,-4.589 c 0,-1.989 0.88,-2.238 1.106,-2.262 l -4.747,0 c 0.181,0.024 1.131,0.249 1.131,2.328 l 0,10.421 c 0,2.013 -1.063,2.262 -1.266,2.306 l 10.559,0 0,-3.344 C 2.465,-1.106 2.035,0 0,0"
           id="path7067"
           style="fill:#1c3629;fill-opacity:1;fill-rule:nonzero;stroke:none" />
      </g>
      <g
         transform="matrix(1.25,0,0,-1.25,-48.702399,547.2769)"
         id="g7069">
        <path
           d="m 0,0 -2.779,4.975 c -0.565,0.993 -0.995,1.378 -1.674,1.378 l -0.384,0 0,-4.07 c 0,-1.989 0.858,-2.259 1.085,-2.283 l -4.589,0 c 0.181,0.024 1.085,0.249 1.085,2.283 l 0,10.4 c 0,2.058 -1.017,2.328 -1.22,2.372 l 5.787,0 c 3.232,0 5.062,-2.01 5.062,-4.272 0,-1.853 -1.22,-3.822 -3.864,-4.091 0.384,-0.158 0.79,-0.632 1.151,-1.266 L 1.943,1.494 C 2.691,0.228 3.461,0.068 3.756,0 L 0,0 z m -3.165,13.472 -1.694,0 0,-5.651 1.694,0 c 2.17,0 3.006,1.379 3.006,2.873 0,1.426 -1.017,2.778 -3.006,2.778"
           id="path7071"
           style="fill:#1c3629;fill-opacity:1;fill-rule:nonzero;stroke:none" />
      </g>
      <g
         transform="matrix(1.25,0,0,-1.25,-24.220149,547.2769)"
         id="g7073">
        <path
           d="m 0,0 -5.132,0 c 0.136,0 0.814,0.136 0.814,0.972 0,0.318 -0.135,0.724 -0.362,1.29 l -0.677,1.785 -5.946,0 -0.633,-1.719 c -0.203,-0.54 -0.316,-0.926 -0.316,-1.243 0,-0.904 0.678,-1.061 0.882,-1.085 l -4.274,0 c 0.159,0.024 1.019,0.273 1.967,2.736 l 4.793,12.319 1.943,0 4.883,-12.366 C -1.13,0.294 -0.181,0.024 0,0 m -8.364,11.824 -2.374,-6.262 4.793,0 -2.419,6.262 z"
           id="path7075"
           style="fill:#1c3629;fill-opacity:1;fill-rule:nonzero;stroke:none" />
      </g>
      <g
         transform="matrix(1.25,0,0,-1.25,-11.616394,528.45777)"
         id="g7077">
        <path
           d="M 0,0 4.18,0 C 4.023,-0.024 3.051,-0.226 3.051,-2.259 l 0,-12.796 -1.628,0 c 0,0 -0.497,1.447 -2.079,3.415 l -6.103,7.593 0,-8.746 c 0,-1.99 1.062,-2.239 1.265,-2.262 l -4.294,0 c 0.157,0.023 1.129,0.204 1.129,2.262 l 0,10.329 c 0,1.651 -1.537,2.328 -1.853,2.464 l 3.797,0 7.891,-10.128 0,7.869 C 1.176,-0.294 0.203,-0.045 0,0"
           id="path7079"
           style="fill:#1c3629;fill-opacity:1;fill-rule:nonzero;stroke:none" />
      </g>
      <g
         transform="matrix(1.25,0,0,-1.25,8.1444757,547.2769)"
         id="g7081">
        <path
           d="m 0,0 -5.898,7.279 0,-4.996 c 0,-1.989 0.836,-2.259 1.061,-2.283 l -4.701,0 c 0.157,0.024 1.108,0.205 1.108,2.283 l 0,10.466 c 0,2.013 -0.927,2.262 -1.108,2.306 l 4.701,0 C -4.972,15.032 -5.898,14.83 -5.898,12.749 l 0,-4.587 4.181,4.521 c 0.882,0.949 1.129,1.513 1.129,1.853 0,0.407 -0.384,0.496 -0.497,0.519 l 4.996,0 C 3.731,15.032 2.508,14.762 0.499,12.612 L -3.547,8.319 1.221,2.488 C 3.097,0.205 3.933,0.092 4.272,0 L 0,0 z"
           id="path7083"
           style="fill:#1c3629;fill-opacity:1;fill-rule:nonzero;stroke:none" />
      </g>
      <g
         transform="matrix(1.25,0,0,-1.25,21.942476,547.69965)"
         id="g7085">
        <path
           d="m 0,0 c -4.295,0 -7.188,3.324 -7.188,7.685 0,4.566 3.209,8.07 7.639,8.07 4.296,0 7.143,-3.297 7.143,-7.685 C 7.594,3.617 4.544,0 0,0 m -0.045,13.994 c -2.577,0 -4.612,-2.126 -4.612,-5.63 0,-3.932 2.103,-6.579 5.132,-6.579 2.601,0 4.61,2.215 4.61,5.719 0,3.73 -2.009,6.49 -5.13,6.49"
           id="path7087"
           style="fill:#1c3629;fill-opacity:1;fill-rule:nonzero;stroke:none" />
      </g>
      <g
         transform="matrix(1.25,0,0,-1.25,46.152976,528.45777)"
         id="g7089">
        <path
           d="M 0,0 4.182,0 C 4.025,-0.024 3.052,-0.226 3.052,-2.259 l 0,-12.796 -1.628,0 c 0,0 -0.496,1.447 -2.078,3.415 l -6.104,7.593 0,-8.746 c 0,-1.99 1.062,-2.239 1.267,-2.262 l -4.297,0 c 0.157,0.023 1.129,0.204 1.129,2.262 l 0,10.329 c 0,1.651 -1.537,2.328 -1.853,2.464 l 3.798,0 7.889,-10.128 0,7.869 C 1.175,-0.294 0.203,-0.045 0,0"
           id="path7091"
           style="fill:#1c3629;fill-opacity:1;fill-rule:nonzero;stroke:none" />
      </g>
      <g
         transform="matrix(1.25,0,0,-1.25,59.827976,547.2769)"
         id="g7093">
        <path
           d="m 0,0 -4.678,0 c 0.156,0.024 1.106,0.205 1.106,2.17 l 0,10.647 c 0,1.924 -0.927,2.194 -1.106,2.238 l 4.678,0 c -0.135,-0.023 -1.085,-0.27 -1.085,-2.238 l 0,-10.647 C -1.085,0.249 -0.181,0.024 0,0"
           id="path7095"
           style="fill:#1c3629;fill-opacity:1;fill-rule:nonzero;stroke:none" />
      </g>
      <g
         transform="matrix(1.25,0,0,-1.25,79.685596,547.2769)"
         id="g7097">
        <path
           d="m 0,0 -5.132,0 c 0.136,0 0.814,0.136 0.814,0.972 0,0.318 -0.135,0.724 -0.362,1.29 l -0.679,1.785 -5.944,0 -0.633,-1.719 c -0.202,-0.54 -0.317,-0.926 -0.317,-1.243 0,-0.904 0.679,-1.061 0.882,-1.085 l -4.273,0 c 0.157,0.024 1.017,0.273 1.967,2.736 l 4.792,12.319 1.944,0 4.884,-12.366 C -1.131,0.294 -0.181,0.024 0,0 m -8.364,11.824 -2.373,-6.262 4.791,0 -2.418,6.262 z"
           id="path7099"
           style="fill:#1c3629;fill-opacity:1;fill-rule:nonzero;stroke:none" />
      </g>
      <g
         transform="matrix(1.25,0,0,-1.25,122.37985,528.10977)"
         id="g7101">
        <path
           d="m 0,0 c 0,0 -0.237,2.667 -4.561,3.042 -3.622,0.312 -12.052,0.275 -16.59,0.987 -2.078,0.308 -2.668,2.183 -2.691,3.036 0.354,-0.223 0.732,-0.414 1.129,-0.575 0.315,-0.127 0.643,-0.234 0.978,-0.318 0.138,-0.035 0.274,-0.065 0.413,-0.091 0.31,-0.049 0.777,-0.106 1.354,-0.136 1.992,-0.106 5.302,0.126 7.974,2.293 0.013,0.009 0.025,0.02 0.036,0.029 0.849,-0.292 3.267,-0.9 5.077,0.871 0,0 -3.739,-0.951 -3.526,0.556 0.013,0.084 0.085,0.304 0.246,0.497 0.269,0.321 0.89,0.905 1.973,1.567 0,0 1.362,0.861 1.571,1.318 0,0 -2.463,-1.334 -2.131,-0.055 0.524,1.483 0.871,3.269 0.971,5.416 l -0.007,0 c -0.112,-0.889 -1.042,-6.84 -6.104,-9.488 0.73,1.037 1.154,2.277 1.154,3.606 0,0.751 -0.135,1.472 -0.385,2.147 L -13.121,14.7 c 0.052,-0.304 0.079,-0.617 0.079,-0.934 0,-3.355 -3.007,-6.075 -6.718,-6.075 -0.861,0 -1.685,0.148 -2.441,0.416 -0.062,0.02 -0.121,0.04 -0.179,0.065 -0.035,0.012 -0.068,0.026 -0.103,0.039 -1.434,0.581 -2.058,1.567 -2.315,2.167 -0.255,0.658 -0.374,1.4 -0.374,2.12 0,0.693 0.189,1.376 0.422,1.994 l 0,0.002 c -0.782,-0.93 -1.183,-1.947 -1.242,-3.005 -0.313,0.701 -0.487,1.47 -0.487,2.277 0,0.69 0.127,1.354 0.363,1.973 l -0.003,0.002 c -0.561,-0.946 -0.882,-2.032 -0.882,-3.186 0,-1.213 0.353,-2.348 0.968,-3.326 -0.281,-0.106 -0.748,-0.199 -1.291,0.043 -0.794,0.352 -2.651,1.413 -3.024,1.628 -0.043,0.027 -0.086,0.051 -0.123,0.067 -0.142,0.065 -0.552,0.188 -1.037,-0.176 -0.01,-0.005 -0.034,-0.028 -0.041,-0.038 -0.025,-0.039 -0.061,-0.12 -0.018,-0.242 0.207,-0.489 0.54,-1.279 0.704,-1.658 0.192,-0.449 0.039,-0.675 0.039,-0.675 0,0 -0.081,-0.15 -0.256,-0.248 -0.157,-0.084 -0.29,0.018 -0.29,0.018 l -1.183,0.81 c -0.112,0.075 -0.138,-0.044 -0.138,-0.044 0,0 -0.074,-0.274 -0.088,-0.37 -0.013,-0.084 0.018,-0.177 0.047,-0.22 0.684,-1.069 8.827,-11.514 10.108,-13.159 0.111,-0.14 0.407,-0.471 0.475,-0.953 0.051,-0.374 -0.028,-0.885 -0.127,-1.703 -0.237,-1.981 -1.064,-8.407 -1.064,-8.407 l 1.011,0 2.827,9.893 c 0.064,0.248 0.29,0.432 0.559,0.432 0.321,0 0.581,-0.261 0.581,-0.581 0,-0.022 0,-0.044 -0.002,-0.063 l -0.554,-9.681 1.012,0 2.453,9.765 c 0,0 0.222,0.96 1.387,1.165 l 5.418,0.922 c 0,0 0.599,0.131 1.036,0.031 0.43,-0.1 0.764,-0.39 0.923,-0.922 l 3.135,-10.96 1.048,0 -0.742,10.361 c 0,0 -0.003,0.045 -0.003,0.05 0,0.315 0.256,0.569 0.572,0.569 0.244,0 0.456,-0.157 0.535,-0.377 l 0.113,-0.313 c 0.27,-0.722 3.651,-10.284 3.651,-10.284 l 1.127,0 L 0,0 z"
           id="path7103"
           style="fill:#96d321;fill-opacity:1;fill-rule:nonzero;stroke:none" />
      </g>
    </g>
  </g>
</svg>
