<?xml version="1.0" encoding="UTF-8" standalone="no"?>
<!-- Created with Inkscape (http://www.inkscape.org/) -->
<svg
   xmlns:svg="http://www.w3.org/2000/svg"
   xmlns="http://www.w3.org/2000/svg"
   xmlns:xlink="http://www.w3.org/1999/xlink"
   version="1.0"
   width="1215.36"
   height="225.09"
   id="svg2">
  <defs
     id="defs4">
    <linearGradient
       id="linearGradient3491">
      <stop
         id="stop3493"
         style="stop-color:#6b6a6f;stop-opacity:1"
         offset="0" />
      <stop
         id="stop3495"
         style="stop-color:#eaebed;stop-opacity:1"
         offset="1" />
    </linearGradient>
    <linearGradient
       id="linearGradient3477">
      <stop
         id="stop3479"
         style="stop-color:#636267;stop-opacity:1"
         offset="0" />
      <stop
         id="stop3481"
         style="stop-color:#646368;stop-opacity:1"
         offset="1" />
    </linearGradient>
    <linearGradient
       id="linearGradient3467">
      <stop
         id="stop3469"
         style="stop-color:#646368;stop-opacity:1"
         offset="0" />
      <stop
         id="stop3471"
         style="stop-color:#646368;stop-opacity:1"
         offset="1" />
    </linearGradient>
    <linearGradient
       id="linearGradient3447">
      <stop
         id="stop3449"
         style="stop-color:#9dc4df;stop-opacity:1"
         offset="0" />
      <stop
         id="stop3451"
         style="stop-color:#137eab;stop-opacity:1"
         offset="1" />
    </linearGradient>
    <linearGradient
       id="linearGradient3439">
      <stop
         id="stop3441"
         style="stop-color:#deeef8;stop-opacity:1"
         offset="0" />
      <stop
         id="stop3443"
         style="stop-color:#3586b3;stop-opacity:1"
         offset="1" />
    </linearGradient>
    <linearGradient
       id="linearGradient3427">
      <stop
         id="stop3429"
         style="stop-color:#d9ebf7;stop-opacity:1"
         offset="0" />
      <stop
         id="stop3431"
         style="stop-color:#318abb;stop-opacity:1"
         offset="1" />
    </linearGradient>
    <linearGradient
       id="linearGradient3419">
      <stop
         id="stop3421"
         style="stop-color:#d4eaf7;stop-opacity:1"
         offset="0" />
      <stop
         id="stop3423"
         style="stop-color:#1493c5;stop-opacity:1"
         offset="1" />
    </linearGradient>
    <linearGradient
       id="linearGradient3388">
      <stop
         id="stop3390"
         style="stop-color:#d6e9f7;stop-opacity:1"
         offset="0" />
      <stop
         id="stop3392"
         style="stop-color:#48a2d7;stop-opacity:1"
         offset="1" />
    </linearGradient>
    <linearGradient
       id="linearGradient3374">
      <stop
         id="stop3376"
         style="stop-color:#eef7fe;stop-opacity:1"
         offset="0" />
      <stop
         id="stop3378"
         style="stop-color:#1e97d0;stop-opacity:1"
         offset="1" />
    </linearGradient>
    <linearGradient
       x1="54.154934"
       y1="58.211121"
       x2="284.1358"
       y2="32.308308"
       id="linearGradient3372"
       xlink:href="#linearGradient3374"
       gradientUnits="userSpaceOnUse"
       gradientTransform="translate(-2.1e-6,-2.6621094e-6)" />
    <linearGradient
       x1="117.3578"
       y1="-29.340385"
       x2="162.78111"
       y2="15.129637"
       id="linearGradient3394"
       xlink:href="#linearGradient3388"
       gradientUnits="userSpaceOnUse"
       gradientTransform="translate(-91.177903,65.275089)" />
    <linearGradient
       x1="-80.539688"
       y1="150.4899"
       x2="67.070229"
       y2="118.88847"
       id="linearGradient3425"
       xlink:href="#linearGradient3419"
       gradientUnits="userSpaceOnUse"
       gradientTransform="translate(200.48777,-25.902812)" />
    <linearGradient
       x1="-52.046597"
       y1="141.68294"
       x2="-7.5298676"
       y2="193.72954"
       id="linearGradient3433"
       xlink:href="#linearGradient3427"
       gradientUnits="userSpaceOnUse"
       gradientTransform="translate(142.98353,-51.546602)" />
    <linearGradient
       x1="112.86805"
       y1="192.98857"
       x2="157.90283"
       y2="245.79419"
       id="linearGradient3445"
       xlink:href="#linearGradient3439"
       gradientUnits="userSpaceOnUse"
       gradientTransform="translate(49.81967,-38.854219)" />
    <linearGradient
       x1="120.32816"
       y1="227.05994"
       x2="182.23718"
       y2="197.12759"
       id="linearGradient3453"
       xlink:href="#linearGradient3447"
       gradientUnits="userSpaceOnUse"
       gradientTransform="translate(68.50204,-42.493249)" />
    <linearGradient
       x1="324.92682"
       y1="171.77315"
       x2="324.92682"
       y2="119.08952"
       id="linearGradient3465"
       xlink:href="#linearGradient3467"
       gradientUnits="userSpaceOnUse"
       gradientTransform="translate(-59.71034,35.166826)" />
    <linearGradient
       x1="324.92682"
       y1="171.77315"
       x2="324.92682"
       y2="120.44479"
       id="linearGradient3475"
       xlink:href="#linearGradient3477"
       gradientUnits="userSpaceOnUse"
       gradientTransform="translate(-42.85957,-30.070679)" />
    <linearGradient
       x1="324.92682"
       y1="171.77315"
       x2="324.92682"
       y2="120.44479"
       id="linearGradient3485"
       xlink:href="#linearGradient3477"
       gradientUnits="userSpaceOnUse"
       gradientTransform="translate(-26.558282,-92.711586)" />
    <linearGradient
       x1="368.51901"
       y1="172.64975"
       x2="368.51901"
       y2="120.4461"
       id="linearGradient3489"
       xlink:href="#linearGradient3491"
       gradientUnits="userSpaceOnUse"
       gradientTransform="translate(-67.95256,-92.986328)" />
  </defs>
  <g
     id="layer2"
     style="display:inline">
    <path
       d="M 270.16634,79.904726 L 283.6358,27.192503 L 26.679895,27.192503 L 71.10322,79.904726 L 270.16634,79.904726 z"
       id="path2588"
       style="fill:url(#linearGradient3372);fill-opacity:1;fill-rule:evenodd;stroke:none;stroke-width:1px;stroke-linecap:butt;stroke-linejoin:bevel;stroke-opacity:1" />
    <path
       d="M 26.679897,40.791486 L 67.606337,79.904726 L 71.103217,79.904726 L 26.679897,27.192506 L 26.679897,40.791486 z"
       id="path2594"
       style="fill:url(#linearGradient3394);fill-opacity:1;fill-rule:evenodd;stroke:none;stroke-width:1px;stroke-linecap:butt;stroke-linejoin:bevel;stroke-opacity:1" />
    <path
       d="M 134.95366,141.68294 L 91.436933,90.136338 L 267.058,90.136338 L 254.1066,141.68294 L 134.95366,141.68294 z"
       id="path3415"
       style="fill:url(#linearGradient3425);fill-opacity:1;fill-rule:evenodd;stroke:none;stroke-width:1px;stroke-linecap:butt;stroke-linejoin:miter;stroke-opacity:1" />
    <path
       d="M 131.84532,141.68294 L 91.43693,103.08775 L 91.43693,90.136338 L 134.95366,141.68294 L 131.84532,141.68294 z"
       id="path3417"
       style="fill:url(#linearGradient3433);fill-opacity:1;fill-rule:evenodd;stroke:none;stroke-width:1px;stroke-linecap:butt;stroke-linejoin:miter;stroke-opacity:1" />
    <path
       d="M 207.2225,206.43997 L 163.18771,154.63435 L 250.73923,154.63435 L 237.26977,206.43997 L 207.2225,206.43997 z"
       id="path3435"
       style="fill:url(#linearGradient3453);fill-opacity:1;fill-rule:evenodd;stroke:none;stroke-width:1px;stroke-linecap:butt;stroke-linejoin:miter;stroke-opacity:1;display:inline" />
    <path
       d="M 163.18772,167.58575 L 204.63222,206.43997 L 207.2225,206.43997 L 163.18772,154.63435 L 163.18772,167.58575 z"
       id="path3437"
       style="fill:url(#linearGradient3445);fill-opacity:1;fill-rule:evenodd;stroke:none;stroke-width:1px;stroke-linecap:butt;stroke-linejoin:miter;stroke-opacity:1;display:inline" />
    <path
       d="M 246.16778,206.43997 L 271.07761,206.43997 L 284.26517,154.75635 L 259.35533,154.75635 L 246.16778,206.43997 z"
       id="path3457"
       style="fill:url(#linearGradient3465);fill-opacity:1;fill-rule:evenodd;stroke:none;stroke-width:1px;stroke-linecap:butt;stroke-linejoin:miter;stroke-opacity:1" />
    <path
       d="M 263.01855,141.20248 L 287.56206,141.20248 L 300.74962,90.375416 L 275.83978,90.375416 L 263.01855,141.20248 z"
       id="path3473"
       style="fill:url(#linearGradient3475);fill-opacity:1;fill-rule:evenodd;stroke:none;stroke-width:1px;stroke-linecap:butt;stroke-linejoin:miter;stroke-opacity:1" />
    <path
       d="M 279.13667,79.660526 L 304.22967,79.660526 L 317.05091,27.459766 L 291.95791,27.459766 L 279.13667,79.660526 z"
       id="path3487"
       style="fill:url(#linearGradient3489);fill-opacity:1;fill-rule:evenodd;stroke:none;stroke-width:1px;stroke-linecap:butt;stroke-linejoin:miter;stroke-opacity:1" />
    <path
       d="M 515.03161,206.62998 C 503.17324,203.9691 496.81802,198.99895 491.947,188.57647 C 489.29025,182.89183 489.14746,181.86691 489.23042,169.07647 C 489.29455,159.18803 489.91486,152.76748 491.54913,145.07647 C 496.71184,120.78039 507.85343,93.890203 517.10357,83.400911 C 527.46078,71.656244 541.21172,65.737513 562.07723,64.043183 C 582.2202,62.407525 599.08275,64.990514 607.3478,70.977689 C 615.80082,77.101027 618.64286,84.234543 618.64286,99.328315 C 618.64286,110.33117 615.7791,126.56445 612.48872,134.21314 C 609.07724,142.14334 609.46595,142.07647 566.78027,142.07647 L 529.71995,142.07647 L 528.72656,145.82647 C 524.06283,163.43193 524.84916,170.90524 531.84512,175.4656 C 536.94185,178.78792 554.84703,180.00156 569.23719,178.00007 C 580.00318,176.50266 587.20789,173.56348 592.69599,168.43001 C 600.40747,161.21681 600.89417,162.13947 597.05468,176.69296 C 590.77737,200.48697 589.62986,202.36819 579.34544,205.72553 C 572.22208,208.05095 524.36366,208.72398 515.03161,206.62998 z M 586.50969,115.32647 C 589.34028,104.08105 588.64419,98.339037 583.90881,93.872007 C 576.80602,87.171732 558.30608,87.519541 549.12007,94.526055 C 545.03628,97.640909 541.15671,103.97697 537.98791,112.7069 L 535.67588,119.07647 L 560.62083,119.07647 L 585.56577,119.07647 L 586.50969,115.32647 z M 969.78856,206.04009 C 959.43102,203.32721 954.02722,199.19009 949.64286,190.61664 L 946.14286,183.77252 L 946.14743,168.6745 C 946.15111,156.50229 946.60614,151.54324 948.49549,143.08447 C 954.45403,116.40753 964.52262,93.481629 975.29528,82.062038 C 987.67631,68.937496 1002.4494,63.937455 1029.1429,63.83696 C 1055.5803,63.73743 1067.5216,68.969674 1073.3538,83.208453 C 1076.0295,89.741094 1075.7488,109.5887 1072.8127,121.46336 C 1070.0187,132.7636 1067.4524,138.55137 1064.487,140.24095 C 1062.6911,141.26416 1053.2566,141.69339 1024.1429,142.07647 L 986.14286,142.57647 L 984.34159,149.57647 C 981.95672,158.84439 981.79947,166.72494 983.91961,170.72406 C 984.94852,172.66485 987.41993,174.77357 990.36558,176.22406 C 994.76495,178.39038 996.369,178.57503 1010.6429,178.55829 C 1031.8786,178.53338 1041.4319,175.99922 1049.9744,168.125 C 1053.8993,164.50719 1056.6429,163.06942 1056.6429,164.63043 C 1056.6429,166.56036 1048.389,195.6668 1047.1772,198.01018 C 1043.1498,205.79826 1032.384,208.09767 1000.3049,208.02141 C 980.77244,207.97498 975.99041,207.66449 969.78856,206.04009 z M 1043.5048,113.40969 C 1047.1029,95.493889 1040.8598,88.502002 1022.0946,89.431372 C 1007.4082,90.158737 1000.2627,96.241992 994.53298,112.89585 C 993.49341,115.91739 992.64286,118.54412 992.64286,118.73302 C 992.64286,118.92192 1003.8307,119.07647 1017.5048,119.07647 L 1042.3668,119.07647 L 1043.5048,113.40969 z M 318.84286,205.87647 C 316.94269,203.9763 317.41954,198.74241 320.58668,186.73615 C 335.48757,130.24856 357.85586,41.900258 357.94056,39.199084 C 358.01457,36.838551 357.38355,35.284908 355.84466,34.038792 C 354.63367,33.058192 353.64286,31.540514 353.64286,30.666175 C 353.64286,29.26269 356.15305,29.076468 375.07143,29.076468 C 393.81155,29.076468 396.71091,29.287377 398.18107,30.75754 C 400.50036,33.076822 400.02737,35.794356 391.82548,67.273162 C 387.99974,81.956344 385.11857,94.218844 385.42289,94.523162 C 385.72721,94.82748 397.61084,95.076468 411.83097,95.076468 L 437.68574,95.076468 L 438.64313,92.826468 C 439.89504,89.884306 451.41977,45.328183 452.20668,40.387955 C 452.72264,37.148763 452.42559,36.212457 450.22833,34.152154 C 445.04013,29.287348 445.83844,29.076468 469.44286,29.076468 C 493.02307,29.076468 493.64286,29.21368 493.64286,34.433965 C 493.64286,36.835575 481.31352,86.232138 469.14657,132.57647 C 454.90792,186.812 452.49926,197.31559 453.6588,200.11495 C 454.30075,201.66475 455.45977,203.17597 456.23442,203.47323 C 457.00906,203.77049 457.64286,204.70282 457.64286,205.54509 C 457.64286,206.87343 454.75254,207.07647 435.84286,207.07647 C 412.31907,207.07647 411.64286,206.92902 411.64286,201.79942 C 411.64286,200.21705 415.91786,182.4611 421.14286,162.34176 C 426.36786,142.22243 430.64286,125.15709 430.64286,124.41881 C 430.64286,123.32904 425.60965,123.07724 403.89286,123.0806 L 377.14286,123.08473 L 367.85251,159.8306 C 362.74282,180.04083 358.58032,197.38442 358.60251,198.37192 C 358.6247,199.35942 359.67837,201.20289 360.944,202.46852 C 362.20962,203.73414 363.07212,205.28869 362.86066,205.92306 C 362.30527,207.58925 320.51141,207.54502 318.84286,205.87647 z M 623.21429,205.50504 C 622.35,204.64076 621.64286,203.34568 621.64286,202.62709 C 621.64286,201.9085 629.06226,172.37811 638.13042,137.004 C 653.47834,77.133049 654.51356,72.528075 653.10736,70.38195 C 652.27653,69.113935 651.15713,68.076468 650.61981,68.076468 C 650.08249,68.076468 649.64286,67.401468 649.64286,66.576468 C 649.64286,65.294828 652.45897,65.076468 668.98787,65.076468 C 694.26177,65.076468 693.36725,64.315885 688.98163,82.076468 C 688.58286,83.6914 690.23544,82.098278 693.6496,77.576468 C 696.55651,73.726468 700.07837,69.338968 701.47597,67.826468 L 704.01704,65.076468 L 721.82995,65.076468 C 731.62705,65.076468 739.64286,65.377418 739.64286,65.745245 C 739.64286,67.940468 734.103,86.941511 732.94288,88.72534 C 730.69319,92.184547 727.03135,92.950081 711.14286,93.282799 C 698.28663,93.55202 695.57119,93.894227 692.14286,95.677234 C 684.97038,99.407501 683.72178,102.69482 671.29083,150.57647 C 665.00806,174.77647 659.59212,195.77953 659.2554,197.24993 C 658.80068,199.2356 659.2863,200.6877 661.14302,202.89429 C 662.51793,204.52828 663.64286,206.13772 663.64286,206.47083 C 663.64286,206.80393 654.9,207.07647 644.21429,207.07647 C 627.88528,207.07647 624.53502,206.82577 623.21429,205.50504 z M 725.21429,205.50504 C 724.35,204.64076 723.64187,203.40326 723.64067,202.75504 C 723.63946,202.10683 730.89043,173.22647 739.75393,138.57647 C 748.61743,103.92647 755.87467,74.478661 755.88112,73.136896 C 755.88758,71.795131 754.93661,69.923 753.76786,68.976603 C 749.39165,65.432962 750.97329,65.076468 771.07143,65.076468 C 795.35449,65.076468 795.82489,65.365767 792.07483,77.993602 C 791.21241,80.897676 790.68666,83.453605 790.9065,83.673442 C 791.12634,83.89328 792.82376,81.959989 794.67855,79.377241 C 805.11234,64.84845 806.74228,64.12734 829.21355,64.09843 C 845.87407,64.076996 846.41468,64.142543 851.71355,66.826468 C 857.34011,69.676377 860.38168,73.972588 862.33447,81.828532 L 863.14286,85.080597 L 868.65504,76.853513 C 876.96524,64.450326 877.81667,64.110931 900.64286,64.102687 C 917.97946,64.096426 919.45729,64.243695 924.14286,66.444502 C 926.89286,67.736175 929.9132,69.660749 930.85472,70.721332 C 933.70153,73.928135 935.64286,79.727038 935.64286,85.023906 C 935.64286,88.122337 930.47123,110.75186 922.09597,144.30112 C 914.40961,175.09078 908.79077,199.52967 909.10777,200.7927 C 909.41506,202.01702 910.56116,203.49756 911.65467,204.08279 C 916.26396,206.54961 913.12924,207.07647 893.84286,207.07647 C 872.79854,207.07647 871.64286,206.82592 871.64286,202.26353 C 871.64286,200.93642 877.04286,178.59575 883.64286,152.6176 C 890.24286,126.63946 895.64286,103.84041 895.64286,101.95304 C 895.64286,94.677065 889.35252,91.285297 878.19886,92.547191 C 867.54669,93.752347 862.94721,97.154634 859.233,106.57647 C 857.5937,110.73489 836.31423,190.77447 835.11859,197.27928 C 834.53521,200.45315 834.80742,201.32448 837.02416,203.37888 C 838.44655,204.69711 839.31765,206.06835 838.95993,206.42607 C 838.60221,206.78379 829.69953,207.07647 819.17619,207.07647 C 798.77688,207.07647 797.64286,206.81879 797.64286,202.18359 C 797.64286,200.81251 803.04286,178.64021 809.64286,152.91182 C 816.24286,127.18344 821.64286,104.29977 821.64286,102.05925 C 821.64286,94.187184 814.2724,90.749567 802.18506,92.984034 C 794.1681,94.46605 790.59819,96.806953 787.49342,102.61781 C 784.66783,107.90616 761.64286,193.87759 761.64286,199.13954 C 761.64286,200.97652 762.38465,202.52278 763.64286,203.30854 C 764.74286,203.9955 765.64286,205.12432 765.64286,205.81702 C 765.64286,206.7864 761.16825,207.07647 746.21429,207.07647 C 729.88528,207.07647 726.53502,206.82577 725.21429,205.50504 z M 1081.1333,204.70221 C 1079.6125,202.3811 1079.763,201.31167 1083.8465,185.42174 C 1087.1871,172.4228 1088.5621,168.52314 1089.8954,168.26637 C 1090.97,168.05941 1092.0604,168.89864 1092.786,170.49124 C 1094.5791,174.42658 1097.9054,176.02001 1106.8363,177.22193 C 1118.1456,178.74392 1146.0109,177.86933 1150.7442,175.84383 C 1155.133,173.96581 1158.2451,169.80201 1159.5281,164.09171 C 1160.659,159.05883 1159.6944,155.81157 1156.4342,153.67541 C 1155.1704,152.84729 1145.1716,149.68988 1134.2148,146.65893 C 1112.2347,140.57869 1106.5195,137.82364 1102.8533,131.54109 C 1100.7506,127.93792 1100.5797,126.66477 1100.9784,117.57647 C 1101.9038,96.486346 1111.9853,76.053577 1124.6429,69.614448 C 1132.5814,65.576022 1137.9699,65.076468 1173.5924,65.076468 L 1207.4435,65.076468 L 1204.9265,74.326468 C 1201.9411,85.298031 1200.392,88.577326 1197.3825,90.296824 C 1195.8151,91.192425 1188.0763,91.726526 1171.5966,92.076468 C 1151.3334,92.506752 1147.6753,92.822417 1145.3605,94.340395 C 1141.8955,96.612744 1139.9549,99.677672 1139.1341,104.17447 C 1137.9508,110.65727 1140.4634,112.24217 1162.1429,118.68805 C 1189.0379,126.68464 1194.1758,129.71877 1196.6679,139.07647 C 1199.1327,148.33146 1195.0694,172.11882 1188.7727,185.29732 C 1184.4456,194.35343 1179.6552,199.45258 1171.8746,203.28447 L 1165.1902,206.57647 L 1123.9668,206.86804 L 1082.7435,207.15962 L 1081.1333,204.70221 z"
       id="path3497"
       style="fill:#484649;fill-opacity:1;stroke:none;display:inline" />
  </g>
</svg>
