<?xml version="1.0" encoding="utf-8"?>
<!-- Generator: Adobe Illustrator 21.0.0, SVG Export Plug-In . SVG Version: 6.00 Build 0)  -->
<svg version="1.1" id="Logo" xmlns="http://www.w3.org/2000/svg" xmlns:xlink="http://www.w3.org/1999/xlink" x="0px" y="0px"
	 viewBox="0 0 650 100" style="enable-background:new 0 0 650 100;" xml:space="preserve">
<style type="text/css">
	.st0{fill:#005F35;}
</style>
<g>
	<path class="st0" d="M241.4,6.1c2.5-2.3,2.5-3.9,7.2-4.8c0.7-0.1,1.5,0.4,1.9,0.2c2-1,4.8-3.3,5.2,1.3c0.5,6.4-3.3,5.6-2.6,9.3
		c0.2,1.4-6.8,6.8-10,9c-3.2,2.2-10,3.7-14,4.2c0,0-6.6,0.4-7.7,0.6c-1.9,0.2-2.1-1.3-4-2.3c0,0-4.6-1.8-6.1-3.5c-1-1.1-2-4.1-1.4-5
		c0.7-0.9,2.9-4.9,5.5-5c1.3-0.1,3.6-1.4,4.8-1.3c1.2,0.1,8,0.2,11.6,3.1c0.9,0.7,2.3,0.6,3.1,0C236.4,10.7,238.9,8.4,241.4,6.1z"/>
	<circle class="st0" cx="639" cy="87.6" r="11"/>
	<path class="st0" d="M18.5,26.6c-2.7-0.2-6.4,0.8-8.3,1.7S6,31.1,5.1,34.3s-0.4,14.2-0.6,16c-0.2,1.9-1.1,1.3-1.5,3.7
		c-1.3,8-1.5,18.8-1.7,26.8c0,1.3-1.1,2.3-1.2,3.4C0,84.7,0,85.3,0,86c0,3,0.5,6.2,0.7,7.3c0.2,0.9,1.3,1.6,2.7,2.1
		c0.6,0.2,1.2,1.7,1.9,1.9c3.3,0.8,7.7,0.9,8.8,0.5c1.9-0.6,5.7-5.8,5.8-7.7c0.1-1.9-1.4-5.6-1.2-9.5c0.2-3.9,0.3-16.4,0.4-20.2
		c0-0.4,0.3-0.2,0.3-0.2c1,1.9,3.1,11.8,5,15.9c1.2,2.6,2.5,4.8,4.4,5.3c1.4,0.4,4.7-1.1,5.6-1.6c0.9-0.6,3.4-0.5,4.3-1.2
		c2.8-2.1,6.1-7.8,7.9-11.2c0.2-0.3,0.3-0.3,0.4,0c0.2,2.4-0.5,7.8-0.9,13.6c-0.4,5.8,1,10.2,1.3,11.8c0.4,1.7,1.6,3.8,2.8,5.6
		c1.1,1.6,9.6,1.5,12.1-0.2c1.3-0.9,2.3-2.5,2.3-3.9c-0.1-2.5,1.5-3.3,1.1-6.1c-0.9-5.3-0.1-11.9-0.3-18.2
		C65,62.5,63.7,55.4,63.7,49c0-6-0.9-10.1-1.7-10.6c-1.7-1.1-2-2.8-3.6-3.4c-1.7-0.6-7,1-8.9,1.9c-1.4,0.7-2.2,2.3-3,3.5
		c-0.6,0.8-1.7,0.7-2.5,1.9c-2,3-6.8,12.6-9.2,17.2c-0.2,0.3-0.4,0.4-0.5,0c-1.7-6.9-6-21.2-8.2-26.2c-0.6-1.4-2.3-1.7-2.9-2.7
		C22.7,29.6,21.6,26.8,18.5,26.6z"/>
	<path class="st0" d="M142,84.2c0,1.5-0.8,2-0.9,2.9c-0.3,3.2,1.9,9.2,2.9,10.3c1,1.1,8.6,1.4,12.5-0.6c0.9-0.5,1.7-1.4,1.9-2.4
		c0.2-1,1.2-1.3,1.3-3c0.2-5.8,0-21.4,0.4-25.8c0-0.2,0.2-0.3,0.3,0c0.8,2.8,2.9,7.9,5.6,12.6c1.3,2.2,1.5,5.5,2.8,7.7
		c3.7,6.3,8.6,9.8,10,10.8c2.4,1.8,13.2,0.6,15.2-2.3c0.9-1.3,3.8-7,4.1-8.5c1.4-6.8,4.5-12.7,3.4-19.8c-1-5.9,1-11.1-0.4-16.9
		c-0.2-0.9-1.3-1.4-1.6-2.6c-1.2-4.7,0.4-12-4.7-13c-2-0.4-3.9,1.3-6.9,1.7c-3.6,0.4-6.3,2.2-7.1,3.8c-0.9,1.8-0.7,5.6,0,8.6
		c0.4,1.6,1.5,1.8,1.7,3c1.3,6.9,1.7,16.1,0.4,24.1c-0.1,0.4-0.4,0.4-0.6,0.1c-1.1-1.8-1.5-4.5-3.1-8c-1-2.3-2.3-5.7-3.3-8
		c-3.4-7.9-6.9-11.8-8.4-16.3c-1-3.2-5.8-5.7-8.9-7.2c-1.4-0.7-6.2-0.3-9.3,0.9c-0.8,0.3-1.7,1.6-2.5,2c-1.7,1-3,2.6-3.3,4
		C142.8,45.8,142.2,75.2,142,84.2z"/>
	<polygon class="st0" points="299.4,97.4 299.4,72.8 317.7,72.8 317.7,58.6 299.4,58.6 299.4,49.7 319.5,49.7 319.5,34.9 
		282.4,34.9 282.4,97.4 	"/>
	<path class="st0" d="M347.7,55.2L354,73h-12.2L347.7,55.2z M315.7,97.4H334l3.3-10.7h21.1l3.5,10.7h18.3l-23-62.4h-18.4L315.7,97.4
		z"/>
	<path class="st0" d="M425.7,36.9c-4.4-2.4-10.9-3.4-17-3.2c-12.3,0.5-30.9,10.7-30.6,32.7c0.2,18.8,13.1,32.3,30.6,32.2
		c7.5,0,12.1-1,17-4.1l0-17.1c-3.5,2.9-6.7,5.5-12.4,5.6c-7.8,0.1-16.9-3.6-17-16.6c-0.2-12,8.6-17.3,16.6-17.3
		c5.2,0,10.8,4.1,12.8,6L425.7,36.9z"/>
	<polygon class="st0" points="463.3,97.4 463.3,49.7 477.7,49.7 477.7,34.9 430.9,34.9 430.9,49.7 445.7,49.7 445.7,97.4 	"/>
	<path class="st0" d="M510.8,98.6c15.5,0,27.5-9.1,27.5-25.4V34.9h-17.8V72c0,9.1-5.3,10.9-9.7,10.9s-9.7-1.7-9.7-10.9V34.9h-17.8
		v38.3C483.4,90.3,495.4,98.6,510.8,98.6z"/>
	<polygon class="st0" points="560,97.4 565,63.6 576.5,97.4 587.8,97.4 599.6,63.1 604,97.4 622.6,97.4 612.5,34.9 592.6,34.9 
		582.4,67.6 571.9,34.9 552.1,34.9 542,97.4 	"/>
	<path class="st0" d="M213.6,88.7c1.3,3.8,5.4,8.3,12.2,9.9c4.5,1,15.7-1.4,18.5-6.7c0.9-1.8,2.3-2.6,3.6-6.2
		c0.4-1.2,1.2-4.9,1.6-6.1c1.4-4,1.5-7.4,2-8.7c0.1-0.2,0.3-0.2,0.4,0c0.2,0.6,0.8,5.5,1.8,11.4c0.2,1-0.4,3.2-0.2,4.7
		c0.4,2.8,1.6,8,2.6,9.2c1,1.2,2.5,2.1,4.9,2.2c2.2,0.1,6.5-0.3,8.7-1c1.4-0.5,2.3-5.3,3.5-6.5c0.9-0.9,0.1-4.4-0.9-7.6
		c-0.6-1.8-1.7-2.5-2.1-3.8c-1.2-4-2.2-19.8-4.5-30c-0.4-2-2.3-6.9-2.5-9c-0.2-2-4.3-5.2-5.5-5.8c-2.6-1.4-8.7-0.7-9.4-0.5
		c-1.6,0.4-1.1,2.5-3.3,3.1c-1.4,0.4-2.4,1.7-2.6,3c-0.6,3.8-1,7.6-1.7,11.3c-1.7,8.4-6,24.4-6.9,26.2c-0.9,1.8-2.7,1.9-3.3-0.3
		c-1.1-3.7-1.4-7.8-1.8-12.4c-0.3-3.7-0.6-15.5,0.7-16.7c1.3-1.1,1.5-10.2,0.5-11.6c-1.1-1.6-11.2-2.5-14-0.8
		c-0.5,0.3-1.9,1.7-2.4,3.5c-0.5,1.8-2.4,2.5-2.6,4.3c-0.8,5.4-1.2,14.6-1.3,19.8c0,2,0.5,3.3,0.8,5.4
		C211.3,75.3,212.6,85.8,213.6,88.7z"/>
	<path class="st0" d="M113.7,95.6c-1.9-3.3-2.5-6.3-4.3-13.4c-3.8,0.6-12.3,1.2-15.6,1.2c-1,5.1-1.7,7.1-2.1,8.4
		c-0.8,2.4-2.7,1.8-3.9,4.6c-0.7,1.6-11.3,2.5-12.8,0.1c-1.3-2-1.2-4.3-0.9-6.5c0.4-3.1,1.9-7.2,2.4-8.8c-0.7-1.1-1.8-2.3-1.7-3.6
		c0.1-1.6-1.6-2.1-1.5-4.3c0.1-1.9,3.2-3.3,5.1-3.4c0.1,0,0.9,0,1,0c2.2-7.9,4.6-17,5.6-21.3c1.3-5.9,4.3-4.9,6.8-8.9
		c1.1-1.8,4.2-3.9,6.2-4.9c3.9-1.9,8.3-2.2,12.2,0.7c6,4.5,10,18.9,12.7,29.1c5.4-1.2,8-1.2,8.5-1.2c1.1,0,1.5,1.1,2.9,0.9
		c1.2-0.1,2.4-0.7,2.9,0.1c0.3,0.5,0.5,2,0,3.8c-0.9,3.3-2,4.2-4.1,5.6c-0.7,0.5-0.5,1.8-1.7,2.4c-1.8,0.8-2.6,1.2-4.6,1.9
		c0.8,2.7,1.3,3.8,3,8.3c0.6,1.6-0.5,2.2,0.1,4.6c0.5,1.7,0.4,4.1-0.4,5.1c-1.8,2.6-7.4,3.9-9.6,3.9S115.6,98.9,113.7,95.6z
		 M97,68.3c2.7-0.3,5.9-0.7,8.6-1.1c-1.2-4.6-3-11.4-4.1-13.6C100,55.7,97,68.3,97,68.3z"/>
</g>
</svg>
