<?xml version="1.0" encoding="UTF-8" standalone="no"?>
<!-- Created with Inkscape (http://www.inkscape.org/) -->
<svg
   xmlns:svg="http://www.w3.org/2000/svg"
   xmlns="http://www.w3.org/2000/svg"
   version="1.0"
   width="51.470001"
   height="51.470001"
   id="svg2660">
  <defs
     id="defs2662" />
  <g
     transform="translate(-377.75266,-502.88066)"
     id="layer1">
    <path
       d="M 379.75266,552.35566 L 427.22766,552.35566 L 427.22766,504.88066 L 379.75266,504.88066 L 379.75266,552.35566 z"
       id="path2604"
       style="fill:#ed192e;fill-opacity:1;fill-rule:nonzero;stroke:none" />
    <g
       transform="matrix(1.25,0,0,-1.25,399.35266,519.08316)"
       id="g2606">
      <path
         d="M 0,0 L -2.181,-4.571 L -1.777,-4.44 C 3.662,0.919 21.652,5.243 14.067,-10.663 L 10.588,-11.21 C 15.881,-0.112 -0.052,0.017 -4.916,-10.297 L -8.9,-10.923 L -5.245,-3.26 L -9.492,-4.014 L -8.726,-2.435 C -8.726,-2.435 -1.355,0 -1.347,0 L 0,0"
         id="path2608"
         style="fill:#ffffff;fill-opacity:1;fill-rule:nonzero;stroke:none" />
    </g>
    <g
       transform="matrix(1.25,0,0,-1.25,385.26391,541.91066)"
       id="g2610">
      <path
         d="M 0,0 L 0.623,0 L 0.623,-0.365 L 0.631,-0.365 C 0.767,-0.08 1.041,0.046 1.353,0.046 C 1.892,0.046 2.109,-0.334 2.109,-0.745 L 2.109,-1.98 L 1.425,-1.98 L 1.425,-1.022 C 1.425,-0.65 1.296,-0.524 1.109,-0.524 C 0.828,-0.524 0.684,-0.718 0.684,-1.144 L 0.684,-1.98 L 0,-1.98 L 0,0"
         id="path2612"
         style="fill:#ffffff;fill-opacity:1;fill-rule:nonzero;stroke:none" />
    </g>
    <g
       transform="matrix(1.25,0,0,-1.25,390.06641,542.91191)"
       id="g2614">
      <path
         d="M 0,0 C 0,0.228 -0.106,0.414 -0.38,0.414 C -0.627,0.414 -0.745,0.228 -0.76,0 L 0,0 z M -0.752,-0.388 C -0.714,-0.661 -0.505,-0.768 -0.171,-0.768 C 0.015,-0.768 0.228,-0.726 0.433,-0.616 L 0.433,-1.098 C 0.213,-1.186 -0.038,-1.224 -0.293,-1.224 C -0.946,-1.224 -1.444,-0.84 -1.444,-0.186 C -1.444,0.467 -0.999,0.847 -0.384,0.847 C 0.35,0.847 0.616,0.327 0.616,-0.262 L 0.616,-0.388 L -0.752,-0.388"
         id="path2616"
         style="fill:#ffffff;fill-opacity:1;fill-rule:nonzero;stroke:none" />
    </g>
    <g
       transform="matrix(1.25,0,0,-1.25,393.20516,542.61816)"
       id="g2618">
      <path
         d="M 0,0 C -0.125,0.076 -0.251,0.11 -0.414,0.11 C -0.71,0.11 -0.938,-0.095 -0.938,-0.437 C -0.938,-0.752 -0.673,-0.958 -0.376,-0.958 C -0.22,-0.958 -0.065,-0.923 0.049,-0.863 L 0.065,-1.372 C -0.106,-1.429 -0.312,-1.459 -0.494,-1.459 C -1.148,-1.459 -1.645,-1.079 -1.645,-0.426 C -1.645,0.232 -1.148,0.612 -0.494,0.612 C -0.289,0.612 -0.106,0.577 0.049,0.502 L 0,0"
         id="path2620"
         style="fill:#ffffff;fill-opacity:1;fill-rule:nonzero;stroke:none" />
    </g>
    <g
       transform="matrix(1.25,0,0,-1.25,393.65641,540.82316)"
       id="g2622">
      <path
         d="M 0,0 L 0.684,0 L 0.684,-1.702 L 0.692,-1.702 L 1.261,-0.87 L 2.01,-0.87 L 1.322,-1.778 L 2.067,-2.85 L 1.239,-2.85 L 0.692,-1.869 L 0.684,-1.869 L 0.684,-2.85 L 0,-2.85 L 0,0"
         id="path2624"
         style="fill:#ffffff;fill-opacity:1;fill-rule:nonzero;stroke:none" />
    </g>
    <g
       transform="matrix(1.25,0,0,-1.25,397.96891,542.91191)"
       id="g2626">
      <path
         d="M 0,0 C 0,0.228 -0.106,0.414 -0.38,0.414 C -0.627,0.414 -0.745,0.228 -0.76,0 L 0,0 z M -0.752,-0.388 C -0.714,-0.661 -0.505,-0.768 -0.171,-0.768 C 0.015,-0.768 0.228,-0.726 0.433,-0.616 L 0.433,-1.098 C 0.213,-1.186 -0.038,-1.224 -0.293,-1.224 C -0.946,-1.224 -1.444,-0.84 -1.444,-0.186 C -1.444,0.467 -0.999,0.847 -0.384,0.847 C 0.35,0.847 0.616,0.327 0.616,-0.262 L 0.616,-0.388 L -0.752,-0.388"
         id="path2628"
         style="fill:#ffffff;fill-opacity:1;fill-rule:nonzero;stroke:none" />
    </g>
    <g
       transform="matrix(1.25,0,0,-1.25,400.93266,542.59441)"
       id="g2630">
      <path
         d="M 0,0 C -0.076,0.023 -0.152,0.023 -0.232,0.023 C -0.551,0.023 -0.729,-0.209 -0.729,-0.597 L -0.729,-1.433 L -1.413,-1.433 L -1.413,0.547 L -0.79,0.547 L -0.79,0.182 L -0.783,0.182 C -0.665,0.433 -0.494,0.593 -0.198,0.593 C -0.118,0.593 -0.034,0.581 0.034,0.57 L 0,0"
         id="path2632"
         style="fill:#ffffff;fill-opacity:1;fill-rule:nonzero;stroke:none" />
    </g>
    <g
       transform="matrix(1.25,0,0,-1.25,401.31266,541.91066)"
       id="g2634">
      <path
         d="M 0,0 L 0.623,0 L 0.623,-0.365 L 0.631,-0.365 C 0.767,-0.08 1.041,0.046 1.353,0.046 C 1.634,0.046 1.866,-0.076 1.972,-0.334 C 2.132,-0.069 2.394,0.046 2.675,0.046 C 3.245,0.046 3.374,-0.277 3.374,-0.813 L 3.374,-1.98 L 2.69,-1.98 L 2.69,-0.916 C 2.69,-0.692 2.61,-0.524 2.417,-0.524 C 2.173,-0.524 2.029,-0.718 2.029,-1.144 L 2.029,-1.98 L 1.345,-1.98 L 1.345,-0.916 C 1.345,-0.692 1.265,-0.524 1.071,-0.524 C 0.828,-0.524 0.684,-0.718 0.684,-1.144 L 0.684,-1.98 L 0,-1.98 L 0,0"
         id="path2636"
         style="fill:#ffffff;fill-opacity:1;fill-rule:nonzero;stroke:none" />
    </g>
    <g
       transform="matrix(1.25,0,0,-1.25,407.09266,543.87191)"
       id="g2638">
      <path
         d="M 0,0 C 0.258,0 0.422,0.236 0.422,0.467 C 0.334,0.471 0.235,0.479 0.133,0.479 C -0.099,0.479 -0.281,0.407 -0.281,0.216 C -0.281,0.08 -0.16,0 0,0 z M 0.471,-0.41 C 0.467,-0.304 0.456,-0.201 0.456,-0.099 L 0.448,-0.099 C 0.293,-0.346 0.103,-0.456 -0.179,-0.456 C -0.57,-0.456 -0.92,-0.262 -0.92,0.167 C -0.92,0.771 -0.262,0.843 0.103,0.843 C 0.213,0.843 0.334,0.832 0.422,0.817 C 0.418,1.087 0.217,1.159 -0.03,1.159 C -0.251,1.159 -0.471,1.117 -0.661,1.011 L -0.673,1.474 C -0.429,1.573 -0.175,1.615 0.118,1.615 C 0.623,1.615 1.06,1.398 1.06,0.794 L 1.06,0.057 C 1.06,-0.099 1.068,-0.254 1.098,-0.41 L 0.471,-0.41"
         id="path2640"
         style="fill:#ffffff;fill-opacity:1;fill-rule:nonzero;stroke:none" />
    </g>
    <g
       transform="matrix(1.25,0,0,-1.25,408.96391,541.91066)"
       id="g2642">
      <path
         d="M 0,0 L 0.623,0 L 0.623,-0.365 L 0.631,-0.365 C 0.767,-0.08 1.041,0.046 1.353,0.046 C 1.892,0.046 2.109,-0.334 2.109,-0.745 L 2.109,-1.98 L 1.425,-1.98 L 1.425,-1.022 C 1.425,-0.65 1.296,-0.524 1.109,-0.524 C 0.828,-0.524 0.684,-0.718 0.684,-1.144 L 0.684,-1.98 L 0,-1.98 L 0,0"
         id="path2644"
         style="fill:#ffffff;fill-opacity:1;fill-rule:nonzero;stroke:none" />
    </g>
    <g
       transform="matrix(1.25,0,0,-1.25,412.07516,541.91066)"
       id="g2646">
      <path
         d="M 0,0 L 0.623,0 L 0.623,-0.365 L 0.631,-0.365 C 0.767,-0.08 1.041,0.046 1.353,0.046 C 1.892,0.046 2.109,-0.334 2.109,-0.745 L 2.109,-1.98 L 1.425,-1.98 L 1.425,-1.022 C 1.425,-0.65 1.295,-0.524 1.109,-0.524 C 0.828,-0.524 0.684,-0.718 0.684,-1.144 L 0.684,-1.98 L 0,-1.98 L 0,0"
         id="path2648"
         style="fill:#ffffff;fill-opacity:1;fill-rule:nonzero;stroke:none" />
    </g>
    <path
       d="M 415.28141,544.38441 L 416.07913,544.38441 L 416.07913,543.61506 L 415.28141,543.61506 L 415.28141,544.38441 z"
       id="path2650"
       style="fill:#ffffff;fill-opacity:1;fill-rule:nonzero;stroke:none" />
    <g
       transform="matrix(1.25,0,0,-1.25,417.87391,543.78691)"
       id="g2652">
      <path
         d="M 0,0 C 0.228,0 0.418,0.217 0.418,0.505 C 0.418,0.806 0.251,1.022 0,1.022 C -0.266,1.022 -0.414,0.794 -0.414,0.532 C -0.414,0.217 -0.259,0 0,0 z M 1.102,-0.479 L 0.471,-0.479 L 0.471,-0.125 L 0.464,-0.125 C 0.376,-0.346 0.099,-0.524 -0.217,-0.524 C -0.806,-0.524 -1.121,-0.038 -1.121,0.547 C -1.121,1.034 -0.821,1.547 -0.274,1.547 C 0,1.547 0.232,1.474 0.407,1.246 L 0.414,1.246 L 0.414,2.371 L 1.102,2.371 L 1.102,-0.479"
         id="path2654"
         style="fill:#ffffff;fill-opacity:1;fill-rule:nonzero;stroke:none" />
    </g>
    <g
       transform="matrix(1.25,0,0,-1.25,421.42641,542.91191)"
       id="g2656">
      <path
         d="M 0,0 C 0,0.228 -0.106,0.414 -0.38,0.414 C -0.627,0.414 -0.745,0.228 -0.76,0 L 0,0 z M -0.752,-0.388 C -0.714,-0.661 -0.505,-0.768 -0.171,-0.768 C 0.015,-0.768 0.228,-0.726 0.433,-0.616 L 0.433,-1.098 C 0.213,-1.186 -0.038,-1.224 -0.293,-1.224 C -0.946,-1.224 -1.444,-0.84 -1.444,-0.186 C -1.444,0.467 -0.999,0.847 -0.384,0.847 C 0.349,0.847 0.615,0.327 0.615,-0.262 L 0.615,-0.388 L -0.752,-0.388"
         id="path2658"
         style="fill:#ffffff;fill-opacity:1;fill-rule:nonzero;stroke:none" />
    </g>
  </g>
</svg>
