<?xml version="1.0" encoding="utf-8"?>
<!-- Generator: Adobe Illustrator 13.0.2, SVG Export Plug-In . SVG Version: 6.00 Build 14948)  -->
<!DOCTYPE svg PUBLIC "-//W3C//DTD SVG 1.1//EN" "http://www.w3.org/Graphics/SVG/1.1/DTD/svg11.dtd">
<svg version="1.1" id="Ebene_1" xmlns="http://www.w3.org/2000/svg" xmlns:xlink="http://www.w3.org/1999/xlink" x="0px" y="0px"
	 width="283.464px" height="141.732px" viewBox="0 0 283.464 141.732" enable-background="new 0 0 283.464 141.732"
	 xml:space="preserve">
<g>
	<rect fill="#D40028" width="283.464" height="141.732"/>
	<g>
		<g>
			<polygon fill-rule="evenodd" clip-rule="evenodd" fill="#FFFFFF" points="193.741,48.062 184.307,48.062 184.307,91.718 
				161.879,91.718 161.879,48.062 152.622,48.062 152.623,29.411 193.721,29.411 193.741,48.062 			"/>
			<polygon fill="#FFFFFF" points="125.794,29.455 147.675,29.455 147.815,91.763 125.848,91.743 125.794,29.455 			"/>
			<polygon fill-rule="evenodd" clip-rule="evenodd" fill="#FFFFFF" points="239.968,48.167 230.503,48.167 230.499,91.821 
				208.101,91.821 208.101,48.167 198.841,48.167 198.876,29.416 239.94,29.4 239.968,48.167 			"/>
			<path fill="#FFFFFF" stroke="#FAFAF9" stroke-width="0.1403" stroke-miterlimit="3.8637" d="M81.079,76.205
				c0,0-1.219,15.935-18.699,15.935c-17.482,0-17.182-19.509-17.176-19.552c0.011-0.039,0-43.062,0-43.062h20.421
				c0,0,0,25.063,0,32.337c0,2.013,2.536,2.043,3.492,2.043c0.957,0,3.491-0.03,3.491-2.043c0-7.617,0-32.337,0-32.337h8.91h8.997
				c0,0,0,25.049,0,32.337c0,2.013,2.524,2.013,3.538,2.013c1.019,0,3.535,0,3.535-2.013c0-7.288,0-32.337,0-32.337h20.329
				c0,0-0.005,43.023,0,43.062c0.007,0.043,0.308,19.552-17.17,19.552c-17.484,0-19.173-15.935-19.173-15.935H81.079L81.079,76.205z
				"/>
		</g>
		<g>
			<path fill="#FFFFFF" d="M91.63,104.271h4.146l3.327,10.375h0.059l3.036-10.375h4.553l3.27,10.375h0.059l3.123-10.375h3.736
				l-4.612,14.021h-4.612l-3.269-10.699h-0.059l-3.211,10.699H96.71L91.63,104.271z"/>
			<path fill="#FFFFFF" d="M132.051,117.505c-1.431,0.732-3.065,1.113-5.167,1.113c-4.962,0-7.852-2.666-7.852-7.268
				c0-4.057,2.306-7.406,6.976-7.406c5.576,0,7.151,3.566,7.151,8.467h-10.392c0.175,2.26,1.868,3.541,4.292,3.541
				c1.898,0,3.532-0.654,4.992-1.416V117.505z M129.423,109.908c-0.116-1.77-0.992-3.295-3.182-3.295
				c-2.188,0-3.298,1.416-3.474,3.295H129.423z"/>
			<path fill="#FFFFFF" d="M137.038,98.228h3.911v3.484h-3.911V98.228z M137.038,104.271h3.911v14.021h-3.911V104.271z"/>
			<path fill="#FFFFFF" d="M155.803,116.714h-0.058c-1.167,1.361-2.774,1.904-4.614,1.904c-4.61,0-6.303-3.539-6.303-7.377
				c0-3.867,1.693-7.297,6.303-7.297c1.958,0,3.329,0.627,4.496,1.961h0.06v-8.031h3.911v20.418h-3.795V116.714z M152.211,115.789
				c2.6,0,3.447-2.561,3.447-4.547c0-1.961-0.993-4.465-3.504-4.465c-2.541,0-3.241,2.588-3.241,4.465
				C148.914,113.175,149.643,115.789,152.211,115.789z"/>
			<path fill="#FFFFFF" d="M176.406,117.505c-1.431,0.732-3.063,1.113-5.167,1.113c-4.961,0-7.852-2.666-7.852-7.268
				c0-4.057,2.306-7.406,6.978-7.406c5.575,0,7.151,3.566,7.151,8.467h-10.393c0.176,2.26,1.867,3.541,4.292,3.541
				c1.897,0,3.53-0.654,4.99-1.416V117.505z M173.779,109.908c-0.116-1.77-0.993-3.295-3.183-3.295s-3.297,1.416-3.473,3.295
				H173.779z"/>
			<path fill="#FFFFFF" d="M181.305,104.271h3.707v1.906h0.059c1.225-1.605,2.891-2.232,4.933-2.232c3.562,0,5.108,2.342,5.108,5.5
				v8.848h-3.91v-7.486c0-1.715-0.029-4.029-2.54-4.029c-2.833,0-3.443,2.857-3.443,4.654v6.861h-3.913V104.271z"/>
		</g>
	</g>
</g>
</svg>
