<?xml version="1.0" encoding="utf-8"?>
<!-- Generator: Adobe Illustrator 19.2.1, SVG Export Plug-In . SVG Version: 6.00 Build 0)  -->
<svg version="1.1"
	 id="svg2" inkscape:version="0.48.2 r9819" sodipodi:docname="New document 1" xmlns:cc="http://creativecommons.org/ns#" xmlns:dc="http://purl.org/dc/elements/1.1/" xmlns:inkscape="http://www.inkscape.org/namespaces/inkscape" xmlns:rdf="http://www.w3.org/1999/02/22-rdf-syntax-ns#" xmlns:sodipodi="http://sodipodi.sourceforge.net/DTD/sodipodi-0.dtd" xmlns:svg="http://www.w3.org/2000/svg"
	 xmlns="http://www.w3.org/2000/svg" xmlns:xlink="http://www.w3.org/1999/xlink" x="0px" y="0px" viewBox="0 0 1008.7 355"
	 style="enable-background:new 0 0 1008.7 355;" xml:space="preserve">
<style type="text/css">
	.st0{fill:#96979B;}
	.st1{fill:#270F6C;}
</style>
<g>
	<path id="path3203" inkscape:connector-curvature="0" sodipodi:nodetypes="ccccccccccc" class="st0" d="M429.1,346.4h-28.9v-98.3
		h59.4l2.4,27h-32.9v13.7h26.8v25.9h-26.8V346.4z"/>
	<path id="path3205" inkscape:connector-curvature="0" class="st0" d="M513.9,246.4c-34.6,0-51,25.7-51,51c0,26.5,16.9,51,51.4,51
		c32.5,0,51.4-22.4,51.4-50.4C565.7,271.2,548.2,246.4,513.9,246.4z M514.4,273.3c13.6,0,20.3,13.9,20.3,24.4
		c0,14-9.3,24.6-20.6,24.6c-11.1,0-20.3-9.4-20.3-25C493.8,285.7,500.4,273.3,514.4,273.3z"/>
	<path id="path3207" inkscape:connector-curvature="0" sodipodi:nodetypes="ccccccccccccc" class="st0" d="M553.4,346.4l30.5-50.6
		L555,248.4l34.7-0.2l11.7,22.1l11-22.1h34.3L618.2,296l30.3,50.4h-33.3l-13.8-24.8l-14.4,24.8H553.4z"/>
</g>
<g>
	<path id="path3189" inkscape:connector-curvature="0" sodipodi:nodetypes="ccccccccccc" class="st0" d="M425.7,179.3
		c0-13.7,8.7-23.6,19.7-23.6c11.4,0,18.8,9,18.8,9l16.1-21.7c0,0-12.9-14.6-34.7-14.6c-36.2,0-51.9,27.5-51.9,51.6
		c0,30.6,22.5,50.1,51.8,50.1c24.2,0,37.1-13.8,37.1-13.8l-16-21.4c0,0-8.8,8.4-20.2,8.4C434.3,203.4,425.7,193.8,425.7,179.3z"/>
	<path id="path3191" inkscape:connector-curvature="0" sodipodi:nodetypes="ccccccccccccc" class="st0" d="M547,228h-60.3v-98.2
		h60.1l3.1,27h-34.3v11.6h25v23.1h-25v11.6h34.3L547,228z"/>
	<path id="path3193" inkscape:connector-curvature="0" sodipodi:nodetypes="ccccccccccc" class="st0" d="M558,228v-98.2h25
		l34.7,47.1v-47.1h28.9V228h-24.2l-37.4-50.9V228H558z"/>
	<path id="path3195" inkscape:connector-curvature="0" sodipodi:nodetypes="ccccccccc" class="st0" d="M675.9,228v-72.2h-23.1
		l2.6-26h70.2l2.3,26h-23.1V228H675.9z"/>
	<path id="path3197" inkscape:connector-curvature="0" sodipodi:nodetypes="ccccccccccc" class="st0" d="M779.6,230.4
		c-32.7,0-44.4-20.1-44.4-40.1v-60.5h28.9V186c0,12,7,18.9,15.4,18.9c9.7,0,15.4-8,15.4-18.9v-56.2h29.9v53.9
		C824.7,218.7,807.1,230.4,779.6,230.4z"/>
	<path id="path3199" inkscape:connector-curvature="0" class="st0" d="M834.4,129.8V228h28.9v-32.7h5.2l17.2,36l29-6.3L896,191.9
		c10.2-5.8,18.1-13.6,18.1-30.1c0-20.7-15.4-32-36.4-32H834.4z M863.2,152.9h8.7c8.2,0,13.5,2.7,13.5,9.8c0,6.3-5.3,10.5-13.5,10.5
		h-8.7V152.9z"/>
	<path id="path3201" inkscape:connector-curvature="0" class="st0" d="M906.6,129.8l34.7,62.5V228h14h14v-35.8l34.7-62.5h-32.3
		l-16.3,34.9l-16.3-34.9H906.6z"/>
</g>
<g>
	<path id="path3181" inkscape:connector-curvature="0" sodipodi:nodetypes="cccccccccccccc" class="st0" d="M400,91.2v19.3h74l3-25
		h-32.7l17.1-15.2c7.5-7,14.2-16.2,14.2-27.2c0-14.1-7.5-32.7-38-32.7c-26,0-34.3,11.2-39.5,30.9l27,5.7c1.4-6.3,4.5-13.5,12.4-13.5
		c5.8,0,8.8,4,8.8,9.6c0,6.6-4.7,12.4-13.1,20L400,91.2z"/>
	<path id="path3183" inkscape:connector-curvature="0" sodipodi:nodetypes="cccccccc" class="st0" d="M530,110.5h-28.9V48.9
		c0,0-5.2,6.1-21.2,6.1V32.6c15.3-1.7,23.6-13.9,26.6-20.3H530V110.5z"/>
	<path id="path3185" inkscape:connector-curvature="0" sodipodi:nodetypes="ccccccccccccc" class="st0" d="M547.6,77.6l-12,22.4
		c0,0,15.6,12.6,38.9,12.6c23,0,37.8-12.7,37.8-31.4c0-36.4-44.7-28.2-44.7-41.3c0-3.4,2.7-6.7,11-6.7c10,0,20.3,7.6,20.3,7.6
		l11.8-21.2c0,0-12-9.4-32.3-9.4c-30.8,0-38.8,21.3-38.8,31.4c0,34.4,44.4,27.8,44.4,40.3c0,4.5-3.4,6.5-10.7,6.5
		C561,88.5,547.6,77.6,547.6,77.6z"/>
	<path id="path3187" inkscape:connector-curvature="0" sodipodi:nodetypes="ccccccccc" class="st0" d="M635,110.5V38.3h-23.1l2.6-26
		h70.2l2.3,26h-23.1v72.2H635z"/>
</g>
<path id="path3179" inkscape:connector-curvature="0" class="st1" d="M178.1,6.5c-11,0-21.7,1-32.1,2.9l56.9,216.8L311.7,69.5
	C280,31,231.9,6.5,178.1,6.5z M76.8,39.3C33.2,70.7,4.8,121.9,4.8,179.7c0,75.9,48.7,140.4,116.6,163.8l60.4-87L76.8,39.3z
	 M346.2,137.4L213.3,265.8l20.5,78.1c68.4-23.2,117.5-87.9,117.5-164.1C351.3,165.1,349.6,150.9,346.2,137.4z M195,283.6l-64.9,62.7
	c15.2,4.4,31.4,6.7,48,6.7c16.4,0,32.2-2.3,47.2-6.5L195,283.6z"/>
</svg>
