<?xml version="1.0" encoding="UTF-8" standalone="no"?>
<svg
   xmlns:dc="http://purl.org/dc/elements/1.1/"
   xmlns:cc="http://creativecommons.org/ns#"
   xmlns:rdf="http://www.w3.org/1999/02/22-rdf-syntax-ns#"
   xmlns:svg="http://www.w3.org/2000/svg"
   xmlns="http://www.w3.org/2000/svg"
   xmlns:sodipodi="http://sodipodi.sourceforge.net/DTD/sodipodi-0.dtd"
   xmlns:inkscape="http://www.inkscape.org/namespaces/inkscape"
   version="1.0"
   width="200"
   height="77"
   viewBox="0 0 160 61.6"
   preserveAspectRatio="xMidYMid meet"
   id="svg2"
   inkscape:version="0.48.4 r9939"
   sodipodi:docname="Disney - abc TV group logo.svg">
  <title
     id="title3328">Disney - abc TV group logo</title>
  <defs
     id="defs68" />
  <sodipodi:namedview
     pagecolor="#ffffff"
     bordercolor="#666666"
     borderopacity="1"
     objecttolerance="10"
     gridtolerance="10"
     guidetolerance="10"
     inkscape:pageopacity="0"
     inkscape:pageshadow="2"
     inkscape:window-width="1600"
     inkscape:window-height="844"
     id="namedview66"
     showgrid="false"
     inkscape:showpageshadow="false"
     inkscape:zoom="1"
     inkscape:cx="58.843751"
     inkscape:cy="50.677779"
     inkscape:window-x="-4"
     inkscape:window-y="-4"
     inkscape:window-maximized="1"
     inkscape:current-layer="svg2" />
  <metadata
     id="metadata4">
Created by potrace 1.13, written by Peter Selinger 2001-2015
<rdf:RDF>
  <cc:Work
     rdf:about="">
    <dc:format>image/svg+xml</dc:format>
    <dc:type
       rdf:resource="http://purl.org/dc/dcmitype/StillImage" />
    <dc:title>Disney - abc TV group logo</dc:title>
  </cc:Work>
</rdf:RDF>
</metadata>
  <g
     transform="matrix(0.01654391,0,0,-0.01693118,-17.77667,99.046307)"
     id="g6"
     style="fill:#000000;stroke:none">
    <path
       d="m 7782,4728 3,-713 40,0 40,0 3,713 2,712 -45,0 -45,0 2,-712 z"
       id="path20"
       inkscape:connector-curvature="0" />
    <path
       d="m 3150,3423 c -14,-2 -35,-6 -47,-8 l -23,-5 0,-465 0,-465 70,0 70,0 0,475 0,475 -22,-1 c -13,-1 -34,-3 -48,-6 z"
       id="path32"
       inkscape:connector-curvature="0" />
    <path
       d="m 7485,3387 c -192,-64 -285,-214 -285,-457 0,-119 19,-215 55,-275 29,-51 110,-127 161,-153 122,-61 355,-53 493,18 l 41,20 0,220 0,220 -181,0 -181,0 7,-57 c 4,-32 9,-61 12,-65 2,-5 44,-8 92,-8 54,0 91,-4 99,-12 17,-17 16,-192 -1,-206 -7,-6 -40,-18 -73,-27 -71,-19 -138,-13 -209,19 -63,29 -102,68 -131,131 -73,160 -43,353 70,452 87,77 210,84 341,19 40,-20 80,-36 88,-36 21,0 34,124 15,147 -33,41 -98,57 -238,60 -92,2 -148,-1 -175,-10 z"
       id="path34"
       inkscape:connector-curvature="0" />
    <path
       d="m 1850,3325 0,-65 128,0 c 86,0 132,-4 140,-12 9,-9 12,-109 12,-390 l 0,-378 70,0 70,0 2,388 3,387 143,3 142,3 0,27 c 0,15 -3,44 -6,65 l -7,37 -348,0 -349,0 0,-65 z"
       id="path36"
       inkscape:connector-curvature="0" />
    <path
       d="m 4550,3358 c -13,-15 -20,-35 -20,-63 0,-55 22,-75 83,-75 37,0 49,5 66,26 28,36 27,85 -2,112 -32,30 -99,30 -127,0 z"
       id="path38"
       inkscape:connector-curvature="0" />
    <path
       d="m 5371,3354 c -48,-61 -11,-134 67,-134 52,0 82,29 82,80 0,57 -22,80 -80,80 -41,0 -52,-4 -69,-26 z"
       id="path40"
       inkscape:connector-curvature="0" />
    <path
       d="m 2630,3119 c -94,-18 -178,-110 -201,-217 -15,-74 -7,-224 16,-279 23,-56 113,-140 163,-150 55,-12 191,-8 237,7 22,6 60,24 84,37 l 44,25 -7,61 c -3,33 -9,63 -12,66 -3,3 -17,-2 -32,-12 -164,-104 -275,-96 -336,25 -44,90 -48,88 184,88 l 200,0 0,66 c 0,107 -16,151 -79,215 -47,48 -64,59 -109,68 -60,12 -88,13 -152,0 z m 131,-125 c 30,-15 73,-89 63,-106 -7,-12 -242,-10 -249,2 -9,14 20,64 55,94 37,30 85,34 131,10 z"
       id="path42"
       inkscape:connector-curvature="0" />
    <path
       d="m 3528,3117 c -26,-8 -62,-24 -81,-37 -42,-29 -92,-102 -106,-155 -16,-59 -14,-223 4,-281 18,-62 72,-126 128,-153 106,-50 294,-30 390,44 16,11 18,22 12,70 -4,31 -13,59 -20,61 -7,3 -32,-8 -56,-24 -91,-60 -163,-71 -238,-38 -32,15 -48,31 -66,66 -13,25 -25,56 -26,70 l -4,25 209,3 209,2 -6,78 c -3,42 -11,93 -17,113 -13,45 -79,121 -123,142 -47,23 -152,29 -209,14 z m 133,-122 c 32,-17 69,-69 69,-97 0,-16 -12,-18 -120,-18 -134,0 -144,5 -115,60 32,61 105,86 166,55 z"
       id="path44"
       inkscape:connector-curvature="0" />
    <path
       d="m 4950,3121 c -113,-24 -170,-103 -155,-217 9,-77 60,-122 175,-154 114,-31 158,-54 166,-86 8,-33 -27,-71 -74,-80 -43,-8 -127,10 -189,42 -26,13 -53,24 -60,24 -7,0 -15,-17 -18,-37 -4,-21 -9,-50 -12,-66 -4,-25 0,-29 39,-47 96,-42 254,-48 338,-14 78,33 110,88 110,189 0,63 -2,67 -41,110 -38,41 -53,49 -155,81 -62,19 -120,42 -129,50 -34,34 -5,80 57,90 22,4 60,-3 111,-20 43,-14 84,-26 91,-26 15,0 33,97 23,123 -11,28 -202,54 -277,38 z"
       id="path46"
       inkscape:connector-curvature="0" />
    <path
       d="m 5822,3120 c -87,-18 -168,-93 -198,-184 -21,-62 -24,-223 -4,-281 53,-160 207,-229 391,-173 54,16 115,70 147,132 25,48 27,59 27,186 0,128 -1,137 -27,180 -34,58 -83,105 -129,124 -47,19 -152,27 -207,16 z m 128,-132 c 153,-78 133,-372 -28,-404 -19,-4 -46,1 -76,15 -40,17 -51,28 -74,78 -59,126 -21,282 78,322 37,15 52,13 100,-11 z"
       id="path48"
       inkscape:connector-curvature="0" />
    <path
       d="m 6558,3117 c -26,-8 -65,-26 -88,-41 l -41,-27 -12,30 c -11,29 -14,31 -64,31 l -53,0 0,-315 0,-315 65,0 65,0 0,213 0,214 38,30 c 74,60 118,74 165,52 43,-19 47,-46 47,-284 l 0,-225 71,0 70,0 -3,273 c -3,266 -3,273 -26,305 -13,18 -36,39 -52,47 -41,21 -128,27 -182,12 z"
       id="path50"
       inkscape:connector-curvature="0" />
    <path
       d="m 8383,3120 c -42,-10 -119,-55 -137,-82 l -15,-21 -5,24 c -3,13 -7,33 -8,44 -3,17 -12,20 -61,23 l -57,3 0,-316 0,-315 65,0 65,0 0,178 0,179 29,40 c 37,51 82,83 146,105 56,18 61,30 50,105 -7,46 -11,48 -72,33 z"
       id="path52"
       inkscape:connector-curvature="0" />
    <path
       d="m 8713,3120 c -117,-25 -191,-112 -214,-251 -22,-135 7,-254 82,-329 59,-59 101,-74 204,-74 139,0 229,60 275,181 25,67 27,214 5,290 -18,61 -80,134 -138,162 -49,23 -154,34 -214,21 z m 127,-132 c 93,-47 133,-204 80,-312 -40,-83 -107,-112 -183,-78 -135,60 -140,328 -7,394 45,23 57,23 110,-4 z"
       id="path54"
       inkscape:connector-curvature="0" />
    <path
       d="m 10087,3120 c -21,-6 -54,-21 -75,-35 -45,-31 -48,-31 -56,0 -6,23 -11,25 -61,25 l -55,0 0,-435 0,-435 28,0 c 15,0 44,3 65,6 l 37,7 0,111 0,111 123,0 c 120,0 125,1 173,30 54,34 107,104 126,168 16,55 15,230 -1,285 -13,47 -78,125 -123,148 -36,18 -132,26 -181,14 z m 100,-140 c 99,-60 109,-262 18,-350 -34,-33 -40,-35 -103,-35 -40,0 -79,6 -97,15 l -30,15 -3,134 -3,135 38,39 c 65,67 123,82 180,47 z"
       id="path56"
       inkscape:connector-curvature="0" />
    <path
       d="m 3940,3111 c -19,-3 -36,-13 -37,-21 -2,-8 46,-150 105,-315 l 107,-300 66,-3 c 56,-2 68,0 74,15 23,59 215,606 215,614 0,5 -31,9 -70,9 l -69,0 -66,-202 c -36,-112 -68,-210 -71,-218 -3,-8 -38,84 -78,205 l -72,220 -34,1 c -19,1 -51,-1 -70,-5 z"
       id="path58"
       inkscape:connector-curvature="0" />
    <path
       d="m 4550,2795 0,-315 65,0 65,0 0,315 0,315 -65,0 -65,0 0,-315 z"
       id="path60"
       inkscape:connector-curvature="0" />
    <path
       d="m 5370,2795 0,-315 65,0 65,0 0,315 0,315 -65,0 -65,0 0,-315 z"
       id="path62"
       inkscape:connector-curvature="0" />
    <path
       d="m 9182,2838 c 3,-264 4,-274 25,-304 40,-56 69,-69 158,-68 81,0 139,19 188,62 16,14 18,13 29,-16 12,-30 15,-32 65,-32 l 53,0 0,315 0,315 -65,0 -65,0 0,-213 0,-214 -37,-30 c -75,-60 -119,-74 -166,-52 -43,19 -47,46 -47,284 l 0,225 -71,0 -70,0 3,-272 z"
       id="path64"
       inkscape:connector-curvature="0" />
  </g>
  <g
     id="Layer_x0020_1"
     style="fill:#000000;fill-rule:evenodd"
     transform="matrix(0.01184492,0,0,0.01219044,0.71034339,0.44528296)">
    <metadata
       id="CorelCorpID_0Corel-Layer" />
    <g
       id="g3766"
       style="fill:#000000">
      <g
         id="g3768"
         style="fill:#000000">
        <g
           id="g3770"
           style="fill:#000000" />
      </g>
    </g>
    <g
       id="g9522"
       style="fill:#000000">
      <g
         id="g9524"
         style="fill:#000000">
        <g
           id="g9526"
           style="fill:#000000">
          <g
             id="g9528"
             style="fill:#000000" />
        </g>
      </g>
    </g>
    <g
       id="g9532"
       style="fill:#000000">
      <g
         id="g9534"
         style="fill:#000000">
        <g
           id="g9536"
           style="fill:#000000">
          <g
             id="g9538"
             style="fill:#000000" />
        </g>
      </g>
    </g>
    <g
       id="g9542"
       style="fill:#000000">
      <g
         id="g9544"
         style="fill:#000000">
        <g
           id="g9546"
           style="fill:#000000">
          <g
             id="g9548"
             style="fill:#000000" />
        </g>
      </g>
    </g>
    <g
       id="g9552"
       style="fill:#000000">
      <g
         id="g9554"
         style="fill:#000000">
        <g
           id="g9556"
           style="fill:#000000">
          <g
             id="g9558"
             style="fill:#000000" />
        </g>
      </g>
    </g>
    <g
       id="g9570"
       style="fill:#000000">
      <g
         id="g9572"
         style="fill:#000000">
        <g
           id="g9574"
           style="fill:#000000">
          <g
             id="g9576"
             style="fill:#000000" />
        </g>
      </g>
    </g>
    <g
       id="g9580"
       style="fill:#000000">
      <g
         id="g9582"
         style="fill:#000000">
        <g
           id="g9584"
           style="fill:#000000">
          <g
             id="g9586"
             style="fill:#000000" />
        </g>
      </g>
    </g>
    <g
       id="g9590"
       style="fill:#000000">
      <g
         id="g9592"
         style="fill:#000000">
        <g
           id="g9594"
           style="fill:#000000">
          <g
             id="g9596"
             style="fill:#000000" />
        </g>
      </g>
    </g>
    <g
       id="g9600"
       style="fill:#000000">
      <g
         id="g9602"
         style="fill:#000000">
        <g
           id="g9604"
           style="fill:#000000">
          <g
             id="g9606"
             style="fill:#000000" />
        </g>
      </g>
    </g>
    <g
       id="g9610"
       style="fill:#000000">
      <g
         id="g9612"
         style="fill:#000000">
        <g
           id="g9614"
           style="fill:#000000">
          <g
             id="g9616"
             style="fill:#000000" />
        </g>
      </g>
    </g>
    <g
       id="g9620"
       style="fill:#000000">
      <g
         id="g9622"
         style="fill:#000000">
        <g
           id="g9624"
           style="fill:#000000">
          <g
             id="g9626"
             style="fill:#000000" />
        </g>
      </g>
    </g>
    <g
       id="g9630"
       style="fill:#000000">
      <g
         id="g9632"
         style="fill:#000000">
        <g
           id="g9634"
           style="fill:#000000">
          <g
             id="g9636"
             style="fill:#000000" />
        </g>
      </g>
    </g>
    <g
       id="g10128"
       style="fill:#000000">
      <g
         id="g10130"
         style="fill:#000000">
        <g
           id="g10132"
           style="fill:#000000" />
      </g>
    </g>
    <g
       id="g10326"
       style="fill:#000000">
      <path
         id="path10342"
         class="fil0"
         d="M 765,22 C 445,31 186,71 128,133 77,188 13,234 11,308 c -2,73 83,79 135,79 52,0 99,-4 98,-35 0,-42 -68,-34 -68,-76 0,-49 265,-61 397,-61 1137,-4 2444,783 2446,1450 2,519 -673,635 -1046,636 -132,1 -261,-14 -383,-36 -5,-166 -15,-512 -20,-731 43,-1 83,-1 118,-1 275,-1 637,96 638,160 0,55 -96,93 -96,146 1,39 89,33 166,38 14,1 170,-86 169,-223 0,-182 -227,-397 -967,-395 -10,0 -21,1 -32,1 -7,-204 -37,-526 -153,-526 -96,1 -124,355 -133,551 -415,62 -784,231 -783,397 0,136 297,479 777,687 8,154 38,260 174,259 100,0 133,-73 144,-150 155,40 324,62 502,62 697,-2 1256,-374 1254,-884 C 3346,972 1965,-12 764,21 z M 578,1724 c 0,-119 363,-164 698,-181 -3,187 -5,456 -5,635 C 859,2033 578,1802 578,1724 z"
         style="fill:#000000;fill-rule:nonzero"
         inkscape:connector-curvature="0" />
      <path
         id="path10344"
         class="fil0"
         d="m 3598,1277 c -118,1 -121,475 -124,648 -8,396 50,443 155,442 94,0 127,-11 118,-342 -14,-626 -57,-747 -149,-747 z"
         style="fill:#000000;fill-rule:nonzero"
         inkscape:connector-curvature="0" />
      <path
         id="path10346"
         class="fil0"
         d="m 3659,1097 c 261,-1 676,-297 675,-542 0,-111 -57,-167 -200,-188 -60,-57 -148,-121 -279,-121 -406,1 -669,324 -669,500 0,65 21,145 79,212 2,140 36,177 82,177 51,0 81,-29 101,-65 58,18 128,28 211,27 z m 27,-199 c -61,0 -111,-7 -154,-20 115,-130 394,-376 531,-376 90,-1 105,71 105,98 0,165 -337,299 -482,299 z m 19,-437 c -125,74 -253,176 -338,279 -4,-14 -6,-27 -6,-39 -1,-79 115,-201 344,-240 z"
         style="fill:#000000;fill-rule:nonzero"
         inkscape:connector-curvature="0" />
      <path
         id="path10348"
         class="fil0"
         d="m 5009,1362 c -1,-109 -283,-108 -441,-107 -119,0 -723,14 -722,351 1,228 338,173 562,195 183,18 405,77 405,137 1,133 -483,187 -583,188 -205,0 -210,-59 -210,-90 0,-30 34,-81 111,-81 77,0 235,98 344,98 109,-1 201,-49 200,-98 0,-89 -362,-133 -474,-132 -117,1 -286,49 -286,225 1,91 150,308 571,306 415,-1 520,-237 519,-358 -1,-296 -280,-329 -524,-350 -182,-15 -380,-24 -379,-64 2,-135 907,-35 906,-219 z"
         style="fill:#000000;fill-rule:nonzero"
         inkscape:connector-curvature="0" />
      <path
         id="path10350"
         class="fil0"
         d="m 5698,1112 c -34,0 -40,36 -40,75 1,115 160,518 160,671 0,32 -3,89 -27,96 -38,11 -372,-598 -510,-607 -143,-10 -219,597 -218,747 1,150 27,250 137,250 165,-1 79,-608 146,-608 49,0 318,555 467,555 162,-1 258,-238 257,-392 -1,-353 -236,-786 -372,-786 z"
         style="fill:#000000;fill-rule:nonzero"
         inkscape:connector-curvature="0" />
      <path
         id="path10352"
         class="fil0"
         d="m 6818,2052 c -58,0 -381,72 -402,52 -21,-20 18,-206 59,-219 41,-13 293,-9 334,-12 117,-6 95,-165 23,-171 -37,-3 -266,-4 -278,-25 -12,-21 3,-126 29,-137 52,-21 399,-31 425,-38 43,-10 75,-33 85,-70 11,-37 -120,-188 -283,-171 -278,31 -639,29 -639,120 0,85 169,119 173,143 5,23 -22,112 -31,139 -10,30 -131,39 -139,122 -2,19 30,49 23,72 -19,71 -76,214 -76,274 1,92 68,298 258,292 298,-10 566,-218 570,-255 7,-55 -76,-119 -133,-119 z"
         style="fill:#000000;fill-rule:nonzero"
         inkscape:connector-curvature="0" />
      <path
         id="path10354"
         class="fil0"
         d="m 7974,1345 c -163,9 -475,354 -658,587 -11,-24 -18,-47 -18,-68 0,-98 186,-393 220,-467 36,-77 -5,-178 -49,-142 -88,71 -366,395 -365,697 0,69 18,154 57,231 -63,202 -214,653 -209,926 2,141 145,280 230,262 33,-7 40,-192 83,-318 60,-180 156,-510 190,-651 15,1 31,3 48,3 340,-1 717,-363 716,-676 -1,-312 -186,-387 -245,-383 z m -391,772 c 136,-237 335,-551 409,-550 51,1 71,52 71,129 1,232 -280,424 -480,421 z"
         style="fill:#000000;fill-rule:nonzero"
         inkscape:connector-curvature="0" />
    </g>
    <g
       id="g10492"
       style="fill:#000000">
      <g
         id="g10494"
         style="fill:#000000">
        <g
           id="g10496"
           style="fill:#000000">
          <g
             id="g10498"
             style="fill:#000000" />
        </g>
      </g>
    </g>
    <g
       id="g10728"
       style="fill:#000000">
      <g
         id="g10730"
         style="fill:#000000" />
    </g>
    <g
       id="g11250"
       style="fill:#000000">
      <g
         id="g11252"
         style="fill:#000000">
        <g
           id="g11254"
           style="fill:#000000">
          <g
             id="g11256"
             style="fill:#000000" />
        </g>
      </g>
    </g>
    <g
       id="g11322"
       style="fill:#000000">
      <g
         id="g11324"
         style="fill:#000000">
        <g
           id="g11326"
           style="fill:#000000">
          <g
             id="g11328"
             style="fill:#000000" />
        </g>
      </g>
    </g>
    <g
       id="g11332"
       style="fill:#000000">
      <g
         id="g11334"
         style="fill:#000000">
        <g
           id="g11336"
           style="fill:#000000">
          <g
             id="g11338"
             style="fill:#000000" />
        </g>
      </g>
    </g>
    <g
       id="g12370"
       style="fill:#000000">
      <g
         id="g12372"
         style="fill:#000000">
        <g
           id="g12374"
           style="fill:#000000">
          <g
             id="g12376"
             style="fill:#000000" />
        </g>
      </g>
    </g>
    <g
       id="g12380"
       style="fill:#000000">
      <g
         id="g12382"
         style="fill:#000000">
        <g
           id="g12384"
           style="fill:#000000">
          <g
             id="g12386"
             style="fill:#000000" />
        </g>
      </g>
    </g>
    <g
       id="g12390"
       style="fill:#000000">
      <g
         id="g12392"
         style="fill:#000000">
        <g
           id="g12394"
           style="fill:#000000">
          <g
             id="g12396"
             style="fill:#000000" />
        </g>
      </g>
    </g>
    <g
       id="g14230"
       style="fill:#000000" />
    <g
       id="g14242"
       style="fill:#000000">
      <g
         id="g14244"
         style="fill:#000000" />
    </g>
    <g
       id="g14288"
       style="fill:#000000">
      <g
         id="g14290"
         style="fill:#000000">
        <g
           id="g14292"
           style="fill:#000000">
          <g
             id="g14294"
             style="fill:#000000" />
        </g>
      </g>
    </g>
    <g
       id="g14298"
       style="fill:#000000">
      <g
         id="g14300"
         style="fill:#000000">
        <g
           id="g14302"
           style="fill:#000000">
          <g
             id="g14304"
             style="fill:#000000" />
        </g>
      </g>
    </g>
    <g
       id="g14356"
       style="fill:#000000" />
  </g>
  <polygon
     style="opacity:0;fill:#ffffff;fill-rule:evenodd"
     clip-rule="evenodd"
     points="192.756,0 192.756,192.756 0,192.756 0,0 0,0 "
     id="polygon6"
     transform="matrix(0.21073689,0,0,0.2122967,118.9312,-0.07184359)" />
  <path
     style="fill-rule:evenodd"
     inkscape:connector-curvature="0"
     clip-rule="evenodd"
     d="m 139.24159,0.52980176 c -10.84345,0 -19.63413,8.89141414 -19.63413,19.85887624 0,10.967666 8.79068,19.858867 19.63413,19.858867 10.84349,0 19.63417,-8.891201 19.63417,-19.858867 0,-10.9674621 -8.79068,-19.85887624 -19.63417,-19.85887624 l 0,0 0,0 0,0 z M 129.59828,26.142338 v -1.643819 l 0,0 c -0.8263,0.94663 -1.76744,1.577576 -3.15409,1.570152 -3.28097,-0.01826 -5.94131,-2.690646 -5.94131,-6.009271 0,-3.318614 2.66034,-6.008842 5.94131,-6.008842 3.28117,0 6.13539,2.669207 6.13539,5.988036 l 0,0 0.003,6.08251 -2.98467,0.02122 0,0 0,0 z m 9.79127,0.09424 c -3.28097,0 -6.1352,-2.668994 -6.1352,-5.988046 l 0,0 -0.003,-10.110616 h 2.98024 l 0.004,5.650904 0,0 c 0.82651,-0.946629 1.76766,-1.577791 3.1543,-1.570151 3.28077,0.01847 5.9409,2.690655 5.9409,6.009281 0,3.318614 -2.66034,6.008628 -5.9409,6.008628 l 0,0 0,0 0,0 z m 12.77444,-0.140962 c -3.28095,0 -5.9411,-2.690228 -5.9411,-6.008843 0,-3.318624 2.66015,-6.008852 5.9411,-6.008852 2.86392,0 5.26317,2.114478 5.82497,4.842269 l 0,0 -2.9874,-0.0102 0,0 c -0.45814,-1.094385 -1.53374,-1.833809 -2.78299,-1.833809 -1.66502,0 -3.01523,1.365069 -3.01523,3.04943 0,1.684565 1.34999,3.050276 3.01523,3.050276 1.24925,0 2.33834,-0.731357 2.79627,-1.826394 l 0,0 2.98721,-0.01397 0,0 c -0.55425,2.738204 -2.96698,4.759911 -5.83806,4.759911 l 0,0 0,0 0,0 z"
     id="path8-6" />
  <path
     style="fill-rule:evenodd"
     inkscape:connector-curvature="0"
     clip-rule="evenodd"
     d="m 139.31306,17.017395 c -1.66526,0 -3.01566,1.365497 -3.01566,3.049858 0,1.684362 1.3504,3.050063 3.01566,3.050063 1.66523,0 3.01563,-1.365916 3.01563,-3.050063 0,-1.684147 -1.3504,-3.049858 -3.01563,-3.049858 l 0,0 0,0 0,0 z"
     id="path10-1" />
  <path
     style="fill-rule:evenodd"
     inkscape:connector-curvature="0"
     clip-rule="evenodd"
     d="m 126.48107,17.017395 c -1.66526,0 -3.01566,1.365497 -3.01566,3.049858 0,1.684362 1.3504,3.050063 3.01566,3.050063 1.66523,0 3.01564,-1.365916 3.01564,-3.050063 0,-1.684147 -1.35041,-3.049858 -3.01564,-3.049858 l 0,0 0,0 0,0 z"
     id="path12-4" />
</svg>
