<svg data-name="Layer 1" version="1.1" viewBox="0 0 400 136.76" xmlns="http://www.w3.org/2000/svg">
 <defs>
  <style>.cls-1{fill:url(#linear-gradient);}</style>
  <linearGradient id="linear-gradient" x1="-.02" x2=".98" y1="20.07" y2="21.07" gradientTransform="matrix(60.89,0,0,-20,0,421)" gradientUnits="userSpaceOnUse">
   <stop stop-color="#2dbd9d" offset="0"/>
   <stop stop-color="#72de93" offset="1"/>
  </linearGradient>
 </defs>
 <g id="Live" transform="matrix(6.4378 0 0 6.4378 4 4)">
  <g id="Bowie---Live-TV">
   <g id="Hulu-Logo">
    <path class="cls-1" d="m9.57 6.24h-3.1a3.73 3.73 0 0 0-1.63 0.29v-6.53h-4.84v20h4.83v-8.07a1.29 1.29 0 0 1 1.3-1.29h2.81a1.29 1.29 0 0 1 1.3 1.29v8.07h4.84v-8.7c0-3.66-2.44-5.06-5.5-5.06zm46.48 0v8.07a1.29 1.29 0 0 1-1.29 1.29h-2.82a1.29 1.29 0 0 1-1.3-1.29v-8.07h-4.83v8.47c0 3.47 2.19 5.29 5.51 5.29h4.73c3 0 4.84-2.15 4.84-5.26v-8.5zm-27.28 8.07a1.29 1.29 0 0 1-1.3 1.29h-2.81a1.29 1.29 0 0 1-1.3-1.29v-8.07h-4.83v8.47c0 3.47 2.22 5.29 5.47 5.29h4.73c3 0 4.84-2.15 4.84-5.26v-8.5h-4.8zm8.52 5.69h4.84v-20h-4.84z" fill="url(#linear-gradient)"/>
   </g>
  </g>
 </g>
</svg>
