<?xml version="1.0" encoding="utf-8"?>
<!-- Generator: Adobe Illustrator 13.0.0, SVG Export Plug-In . SVG Version: 6.00 Build 14948)  -->
<!DOCTYPE svg PUBLIC "-//W3C//DTD SVG 1.1//EN" "http://www.w3.org/Graphics/SVG/1.1/DTD/svg11.dtd">
<svg version="1.1" id="Layer_1" xmlns="http://www.w3.org/2000/svg" xmlns:xlink="http://www.w3.org/1999/xlink" x="0px" y="0px"
	 width="300px" height="200px" viewBox="0 0 300 200" enable-background="new 0 0 300 200" xml:space="preserve">
<g>
	<path d="M268.179,170.6c0.07,2.586-1.105,6.155-4.576,8.472c-2.166,1.397-5.012,2.177-8.281,2.23
		c-2.904,0.049-5.314-0.343-7.377-1.192h-0.008c-0.994-0.428-1.134-0.921-1.087-2.217c0.079-1.902,0.067-3.59,0.128-4.577
		c0,0,0.042-0.57,0.042-0.585c0.025-0.317-0.117-1.192,0.574-1.203c0.75-0.018,0.548,0.754,0.548,1.024
		c0.01,0.412-0.096,0.897,0.087,1.516c0.712,2.88,3.346,4.487,7.464,4.408c4.806-0.102,7.583-3.402,7.532-6.386
		c-0.058-3.038-0.638-4.628-5.433-8.035l-2.471-1.741c-6.035-4.266-7.565-7.347-7.634-10.681c-0.109-5.526,4.253-8.932,11.252-9.069
		c1.914-0.033,3.523,0.097,5.083,0.399c1.061,0.181,1.45,0.207,1.819,0.2c0.234-0.006,0.921-0.02,0.944,0.745l-0.032,0.384
		c-0.034,0.657-0.241,2.103-0.193,4.666c0.009,0.418,0.226,1.666-0.532,1.607c-0.437-0.037-0.356-0.771-0.416-1.126
		c-0.051-0.531-0.051-1.454-0.623-2.163c-0.396-0.509-2.402-2.237-7.02-2.155c-3.739,0.066-6.139,2.293-6.143,5.285
		c-0.007,2.568,1.456,4.209,6.549,7.62l1.533,1.033C266.734,163.685,268.113,166.79,268.179,170.6 M45.251,163.719
		c0,5.656,1.467,8.552,3.449,10.334c2.852,2.586,6.571,2.694,8.631,2.694c2.522,0,5.312-0.428,8.076-2.805
		c3.257-2.811,3.689-7.412,3.689-11.746v-4.176c0-5.935,0-10.798,0.083-12.052c0.079-1.357,0.389-2.026,1.431-2.221
		c0.474-0.081,0.704-0.124,1.129-0.124c0.457,0,0.704-0.075,0.704-0.351c0-0.262-0.283-0.35-0.815-0.35
		c-1.516,0-3.974,0.124-4.427,0.124c-0.041,0-2.483-0.124-4.467-0.124c-0.544,0-0.814,0.088-0.814,0.35
		c0,0.275,0.228,0.351,0.651,0.351c0.425,0,1.093,0.043,1.403,0.124c1.278,0.268,1.597,0.904,1.667,2.221
		c0.077,1.254,0.077,6.117,0.077,12.052v4.868c0,4.035-0.115,7.539-2.256,9.683c-1.542,1.564-3.646,2.115-5.356,2.115
		c-1.322,0-3.106-0.164-4.85-1.603c-1.909-1.557-3.03-3.943-3.03-9.602v-5.462c0-5.935,0-10.798,0.074-12.052
		c0.087-1.357,0.389-2.026,1.438-2.221c0.461-0.081,0.693-0.124,1.127-0.124c0.391,0,0.629-0.075,0.629-0.351
		c0-0.262-0.278-0.35-0.861-0.35c-1.395,0-3.837,0.124-4.784,0.124c-1.159,0-3.608-0.124-5.658-0.124
		c-0.595,0-0.863,0.088-0.863,0.35c0,0.275,0.236,0.351,0.664,0.351c0.538,0,1.21,0.043,1.516,0.124
		c1.278,0.268,1.59,0.904,1.667,2.221c0.079,1.254,0.079,6.117,0.079,12.052V163.719z M92.161,173.794
		c2.336,0,5.125-0.274,6.583-0.932c0.629-0.276,0.776-0.477,0.965-1.151c0.351-1.368,0.804-4.852,0.804-5.325
		c0-0.333-0.077-0.601-0.333-0.601c-0.292,0-0.363,0.16-0.47,0.8c-0.146,0.724-0.633,1.875-1.246,2.639
		c-1.471,1.849-3.44,2.246-6.7,2.246c-4.899,0-11.527-4.733-11.527-14.256c0-3.889,0.688-7.684,3.368-10.369
		c1.609-1.6,3.687-2.488,6.876-2.488c3.371,0,6.224,1.089,7.43,2.488c0.925,1.039,1.389,2.437,1.42,3.678
		c0,0.563,0.083,0.889,0.378,0.889c0.321,0,0.391-0.325,0.43-0.93c0.079-0.793,0.041-2.997,0.115-4.32
		c0.073-1.405,0.183-1.882,0.183-2.204c0-0.236-0.146-0.437-0.548-0.479c-1.108-0.114-2.275-0.472-3.655-0.684
		c-1.686-0.236-3.041-0.401-5.313-0.401c-5.458,0-8.931,1.604-11.559,4.243c-3.525,3.537-4.287,8.255-4.287,10.978
		c0,3.879,0.945,8.372,4.538,11.812C82.937,172.586,87.153,173.794,92.161,173.794z M120.862,162.345
		c0.202,0,0.309,0.079,0.385,0.268l3.113,8.238c0.2,0.465-0.076,0.813-0.361,0.895c-0.385,0.035-0.625,0.118-0.625,0.354
		c0,0.274,0.117,0.377,1.226,0.377c3.089,0,5.985-0.13,7.387-0.13c1.439,0,2.177-0.23,2.177-0.544c0-0.268-0.141-0.454-0.459-0.454
		c-0.467,0-1.008,0-1.59-0.111c-0.819-0.201-2.144-0.904-3.611-4.403c-2.626-6.219-8.939-21.913-9.751-23.777
		c-0.385-0.898-0.708-1.072-1.069-1.072c-0.381,0-0.7,0.718-1.167,1.842l-9.803,24.86c-0.778,1.952-1.512,3.376-3.287,3.617
		c-0.317,0.034-0.685,0.215-1.033,0.215c-0.321,0-0.555,0.15-0.521,0.378c0.056,0.339,0.093,0.339,0.597,0.339
		c2.244,0,4.251-0.16,4.534-0.16c1.201,0,2.911-0.138,4.142-0.156c0.421-0.016,0.712-0.062,0.712-0.366
		c0-0.242-0.138-0.319-0.612-0.319l-0.697-0.102c-1.2,0-1.427-0.585-1.427-1.28c0-0.47,0.189-1.405,0.587-2.373l2.158-5.82
		c0.06-0.233,0.143-0.313,0.345-0.313H120.862z M112.984,160.403c-0.174,0-0.202-0.123-0.174-0.261l3.583-9.564
		c0.049-0.157,0.121-0.352,0.238-0.352c0.108,0,0.162,0.194,0.187,0.352l3.502,9.599c0.04,0.104,0,0.227-0.198,0.227H112.984z
		 M176.063,162.345c0.2,0,0.319,0.079,0.386,0.268l3.095,8.934c0.2,0.468-0.067,0.813-0.331,0.889
		c-0.381,0.041-0.535,0.117-0.535,0.352c0,0.275,0.456,0.344,1.126,0.38c3.052,0.075,6.312,0.321,7.668,0.379
		c1.399,0.068,1.399-0.117,1.399-0.427c0-0.277-0.188-0.318-0.489-0.318c-0.455,0-0.41-0.082-0.982-0.207
		c-0.797-0.188-1.81-0.875-3.249-4.361c-2.44-5.911-9.052-22.814-9.964-24.958c-0.504-1.165-1.058-1.083-1.092-1.083
		c-0.472-0.021-0.83,0.511-1.29,1.635l-9.556,24.385c-0.762,1.943-1.484,3.268-3.23,3.501c-0.307,0.034-0.833,0.069-1.173,0.069
		c-0.313,0-0.458,0.083-0.458,0.31c0,0.314,0.223,0.394,0.71,0.394c1.995,0,4.085,0.025,4.5,0.025c1.185,0,2.819,0.141,4.033,0.141
		c0.419,0,0.65-0.085,0.65-0.394c0-0.236-0.117-0.318-0.566-0.318h-0.575c-1.182,0-1.53-0.494-1.53-1.204
		c0-0.455,0.189-1.396,0.575-2.357l2.052-5.719c0.088-0.233,0.152-0.313,0.343-0.313H176.063z M168.342,160.403
		c-0.155,0-0.189-0.123-0.155-0.261l3.505-9.564c0.038-0.157,0.112-0.352,0.229-0.352c0.112,0,0.152,0.194,0.189,0.352l3.423,9.599
		c0.04,0.104,0,0.227-0.183,0.227H168.342z M193.75,161.556c0.035,3.671,0.047,7.37,0.047,9.107
		c-0.164,1.157-0.334,2.042-1.114,2.193c-0.361,0.073-0.045,0.046-0.728,0.123c-0.461,0.048-0.538,0.157-0.538,0.351
		c0,0.283,0.271,0.455,0.587,0.476c1.538,0.111,4.146,0.269,4.9,0.348c0.599,0.013,2.327,0.155,4.579,0.293
		c0.313,0.021,0.581-0.132,0.581-0.412c-0.005-0.2-0.043-0.421-0.511-0.511c-0.708-0.13-0.941-0.262-1.304-0.345
		c-1.739-0.965-1.461-3.77-1.461-8.35l-0.022-3.592c-0.007-0.231,0.087-0.585,0.266-0.585l4.001,0.013
		c0.272,0,0.845,0.083,1.027,0.324c0.521,0.593,3.59,6.602,5.151,8.799c2.191,3.068,2.669,4.486,4.332,5.543
		c0.97,0.623,2.035,1.071,4.223,1.299l3.467,0.196c0.579,0.037,1.268-0.043,1.292-0.458c0.038-0.325-0.212-0.448-0.647-0.553
		c-0.396-0.102-0.612-0.143-1.049-0.227c-0.574-0.109-1.72-0.35-3.91-2.659c-2.124-2.281-5.486-9.06-9.118-13.713
		c3.908-3.271,4.436-6.159,4.415-9.116c-0.02-2.672-1.574-4.696-2.664-5.457c-2.105-1.48-4.709-1.825-7.153-1.825
		c-1.21,0-4.675,0.126-5.988,0.126c-0.82,0-3.747-0.077-5.81-0.077c-0.591,0-0.858,0.083-0.858,0.359
		c0,0.28,0.235,0.469,0.658,0.469c0.545,0,1.2,0.038,1.525,0.123c1.278,0.276,1.588,0.909,1.669,2.273
		c0.081,1.272,0.17,2.954,0.17,8.375L193.75,161.556z M198.75,145.954c0-0.318-0.12-0.661,0.414-0.933
		c0.363-0.185,1.203-0.363,2.729-0.32c2.295,0,5.718,1.734,5.757,7.399c0.008,3.266-1.104,5.498-2.255,6.368
		c-0.707,0.521-1.207,0.673-2.76,0.673c-0.978,0-2.147-0.115-2.957-0.392c-0.274-0.119-0.955-0.394-0.955-0.831L198.75,145.954z
		 M227.829,165.42c0,3.487-0.013,6.905-0.013,8.723c0,1.924-0.331,2.226-1.144,2.392c-0.355,0.089-0.536,0.077-1.13,0.077
		c-0.465,0-0.618,0.215-0.612,0.418c0,0.283,0.339,0.479,0.839,0.479c2.177,0.177,4.503,0.52,4.775,0.52
		c1.151,0.134,2.229,0.34,4.769,0.576c-0.11,0,0.795,0.089,0.814-0.359c0-0.217-0.091-0.421-0.499-0.58
		c-0.598-0.137-0.637-0.035-1.432-0.296c-0.909-0.311-1.055-1.86-1.055-2.528c0.026-1.681,0.026-5.493,0.06-9.407l-0.007-20.168
		l4.588,0.132c3.448,0.073,4.563,1.15,4.637,2.183l0.043,0.435c0.038,0.594,0.107,0.793,0.432,0.793c0.225,0,0.296-0.24,0.337-0.64
		c0-1.026,0.117-3.756,0.117-4.582c0-0.588-0.037-0.829-0.309-0.829c-0.146,0-0.47,0.077-1.045,0.201
		c-0.592,0.083-1.429,0.194-2.679,0.194l-14.546-0.05c-1.281,0-2.749-0.082-3.873-0.206c-0.979-0.077-1.852-0.194-2.403-0.194
		c-0.351,0-0.275,0.442-0.311,0.966c-0.033,0.604,0.023,3.466,0.023,4.101c0,0.434,0.202,0.627,0.477,0.627
		c0.229,0,0.343-0.319,0.362-0.643c0.027-0.566,0-0.518,0.237-1.252c0.342-0.993,1.489-1.089,3.806-1.083l4.706-0.089
		L227.829,165.42z M143.87,172.756c2.331,0,4.804-0.352,7.041-1.604c3.228-1.859,3.986-4.484,3.986-6.781
		c0.023-3.757-1.905-6.446-7.299-9.928l-1.244-0.787c-3.657-2.369-4.667-3.712-4.661-5.511c0-2.35,2.435-4.203,5.707-4.32
		c2.9-0.118,4.181,1.055,4.864,1.75c1.117,1.138,0.951,2.041,0.951,2.397c-0.006,0.475,0.151,0.884,0.462,0.87
		c0.379-0.017,0.499-0.332,0.509-1.209c0.008-3.105,0.21-4.265,0.21-4.794c0-0.425-0.564-0.476-0.974-0.483
		c-1.376-0.006-2.742-0.512-5.635-0.399c-5.427,0.222-10.156,2.695-10.156,7.772c0,3.155,1.91,5.535,6.717,8.779l2.028,1.37
		c3.688,2.498,4.068,4.604,4.055,6.528c0,2.077-1.978,4.478-5.935,4.484c-2.713,0.015-5.271-1.028-6.229-3.882
		c-0.216-0.651-0.384-1.467-0.384-1.968c0-0.305-0.042-0.655-0.436-0.649c-0.34,0.007-0.472,0.437-0.508,1.015
		c-0.049,0.612-0.225,2.926-0.225,5.044c0,0.846,0.13,1.039,0.818,1.31C139.398,172.483,141.344,172.756,143.87,172.756z
		 M26.208,177.134c-0.591-0.963-0.821-11.017-0.821-16.013V154.1c0-5.933-0.089-6.801,0-8.046c0.079-1.366,0.948-2.069,2.101-2.264
		c0.51-0.083,0.759-0.089,1.231-0.089c0.506-0.006,0.872-0.07,0.872-0.338c0-0.269-0.264-0.366-0.872-0.366
		c-1.556,0.009-4.282,0.098-5.505,0.098c-1.14,0-3.832-0.109-5.837-0.109c-0.65,0-0.935,0.083-0.935,0.351
		c0,0.27,0.253,0.345,0.723,0.345c0.555,0,1.071,0.047,1.405,0.122c1.41,0.271,1.75,0.898,1.831,2.219
		c0.094,1.255,0.094,2.345,0.094,8.283v6.873c0,3.594,0,13.993,0,15.867c0,1.744,0,3.57-1.229,4.21
		c-0.651,0.314-0.703,0.329-1.072,0.495c-0.466,0.198-0.558,0.498-0.456,0.683c0.37,0.634,1.376,0.041,3.215-0.191l18.036-3.087
		c0.149-0.063,1.012-0.381,1.291-1.318c0.276-1.04,0.153-0.633,0.614-2.488c0.598-2.437,0.87-3.527,0.87-3.693
		c0-0.468-0.081-0.659-0.381-0.659c-0.33,0-0.45,0.44-0.561,0.776c-0.278,0.773-0.874,1.752-1.434,2.708
		c-0.58,0.704-1.554,2.021-4.548,2.654C33.794,177.368,27.215,178.81,26.208,177.134z"/>
	<path fill="#FFD457" d="M185.88,45.895c-0.031-0.166-0.208-0.283-0.374-0.266l-2.935,0.334c0.011,0-3.951,0.578-5.501,0.802
		c-0.663-2.335-1.871-5.444-4.078-8.578c0.675-0.674,3.912-3.887,3.912-3.887c-0.008,0.011,2.176-2.172,2.176-2.172
		c0.132-0.117,0.146-0.313,0.036-0.451c-0.106-0.138-0.298-0.17-0.439-0.076l-2.367,1.456c0,0-3.577,2.35-4.827,3.181
		c-1.389-1.633-3.063-3.232-5.103-4.682c-0.805-0.563-1.631-1.065-2.478-1.528c0.609-1.474,2.272-5.531,2.272-5.531
		c0,0.012,0.94-2.292,0.94-2.292c0.065-0.157,0.007-0.344-0.146-0.436c-0.155-0.079-0.348-0.039-0.453,0.106l-1.293,1.827
		c0,0-2.598,3.845-3.515,5.231c-3.066-1.337-6.274-2.035-9.483-2.163c-0.153-1.748-0.596-6.298-0.596-6.298
		c0.008,0.006-0.252-2.441-0.252-2.441c-0.012-0.174-0.142-0.306-0.331-0.311c-0.158-0.004-0.298,0.126-0.33,0.29l-0.292,2.203
		c0,0-0.53,4.795-0.708,6.575c-3.336,0.193-6.615,1.014-9.665,2.39c-0.579-1.078-3.167-5.898-3.167-5.898
		c0.006,0.004-1.143-2.148-1.143-2.148c-0.086-0.155-0.267-0.223-0.43-0.162c-0.134,0.051-0.205,0.176-0.211,0.319
		c0,0.023,0.006,0.053,0.006,0.089l0.574,2.125c1.083,3.604,1.714,5.741,2.052,6.855c-2.675,1.518-5.118,3.491-7.199,5.871
		c-1.401-1.027-5.542-4.05-5.542-4.05c0.007,0.002-2.016-1.487-2.016-1.487c-0.138-0.1-0.338-0.083-0.455,0.042
		c-0.07,0.064-0.093,0.147-0.093,0.226c0,0.081,0.021,0.164,0.074,0.225l1.48,1.716c0,0,3.687,4.063,4.887,5.401
		c-1.235,1.731-2.945,4.776-3.499,6.658c0.772-1.81,4.57,0.153,5.695-1.597c7.494-11.595,23.037-15.905,35.445-7.51
		c3.829,2.59,6.648,6.075,8.472,9.858c0,0,2.067,3.355,2.434,10.083c-0.158,2.349-0.019,3.816-0.578,6.217
		c1.231-4.172,1.361-7.325,1.042-11.332c-0.021-0.108-0.07-0.664-0.238-1.541c1.612-0.579,8.012-2.843,8.012-2.843
		C185.818,46.236,185.907,46.061,185.88,45.895 M125.396,89.405c-7.479,3.702-13.151,10.87-14.657,19.711
		c-0.354,2.024-0.451,4.038-0.354,5.992c-0.123-1.944,4.283-1.771,4.627-3.775c1.535-9.06,7.786-16.113,15.826-19.119
		c3.964-1.484,8.378-1.976,12.858-1.218c4.404,0.75,8.325,2.615,11.545,5.248c0,0,3.108,2.028,6.367,7.871
		c1.098,2.123,1.896,4.4,2.334,6.775c-0.422-4.189-1.827-8.161-4.035-11.627c0,0-1.32-2.369-4.177-5.05
		c-2.023-2.381-6.284-8.867,3.468-12.643c0,0,7.998-2.622,12.799-9.637c1.16-1.687,2.188-3.415,2.953-5.238
		c-0.734,1.81-4.612-0.278-5.805,1.366c-4.523,6.283-11.451,9.822-18.615,10.27c-0.733-0.041-1.337-0.198-1.78-0.496
		c-1.035-0.738-1.035-1.964-0.457-3.125c0.317-0.56,0.632-0.872,1.178-1.174c0.166-0.06,0.317-0.132,0.479-0.213
		c0.066-0.031,0.125-0.066,0.208-0.091l-0.021-0.011c1.596-0.875,2.896-2.311,3.551-4.171c1.421-3.989-0.685-8.367-4.676-9.771
		c-3.982-1.401-8.358,0.689-9.762,4.676c-0.814,2.313-0.442,4.748,0.776,6.67c0.402,0.767,0.602,1.382,0.461,2.168
		c-0.272,1.478-1.271,2.388-2.756,2.309c-0.669-0.032-1.195-0.193-1.782-0.448c-0.508-0.317-1.027-0.621-1.497-0.979
		c-1.332-0.957-2.539-2.022-3.615-3.181c-1.863-1.978-3.343-4.214-4.442-6.606c0,0-1.905-3.194-2.263-9.877
		c-0.046-2.388,0.243-4.778,0.887-7.119c-1.462,3.957-1.941,8.146-1.501,12.229c0,0,0.245,5.945,4.944,12.729
		C128.464,71.85,135.698,83.345,125.396,89.405z"/>
</g>
<g>
	<path d="M275.196,181.131h-1.588v-6.259h-2.298v-1.345h6.185v1.345h-2.299V181.131z"/>
	<path d="M285.729,181.131h-1.482v-6.354h-0.021l-1.419,6.354h-1.557l-1.388-6.354h-0.021v6.354h-1.482v-7.604h2.319l1.377,5.994
		h0.021l1.355-5.994h2.298V181.131z"/>
</g>
</svg>
