<?xml version="1.0" encoding="UTF-8" standalone="no"?>
<!-- Generator: Adobe Illustrator 22.0.1, SVG Export Plug-In . SVG Version: 6.00 Build 0)  -->

<svg
   xmlns:dc="http://purl.org/dc/elements/1.1/"
   xmlns:cc="http://creativecommons.org/ns#"
   xmlns:rdf="http://www.w3.org/1999/02/22-rdf-syntax-ns#"
   xmlns:svg="http://www.w3.org/2000/svg"
   xmlns="http://www.w3.org/2000/svg"
   xmlns:sodipodi="http://sodipodi.sourceforge.net/DTD/sodipodi-0.dtd"
   xmlns:inkscape="http://www.inkscape.org/namespaces/inkscape"
   version="1.1"
   id="Layer_1"
   x="0px"
   y="0px"
   viewBox="0 0 1000 314.325"
   xml:space="preserve"
   inkscape:version="0.91 r13725"
   sodipodi:docname="Lucasfilm 2015.svg"
   width="564.040814396"
   height="177.292134625"><metadata
   id="metadata4238"><rdf:RDF><cc:Work
       rdf:about=""><dc:format>image/svg+xml</dc:format><dc:type
         rdf:resource="http://purl.org/dc/dcmitype/StillImage" /><dc:title></dc:title></cc:Work></rdf:RDF></metadata><defs
   id="defs4236" /><sodipodi:namedview
   pagecolor="#ffffff"
   bordercolor="#666666"
   borderopacity="1"
   objecttolerance="10"
   gridtolerance="10"
   guidetolerance="10"
   inkscape:pageopacity="0"
   inkscape:pageshadow="2"
   inkscape:window-width="1366"
   inkscape:window-height="705"
   id="namedview4234"
   showgrid="false"
   inkscape:zoom="0.28907971"
   inkscape:cx="1292.2695"
   inkscape:cy="437.61589"
   inkscape:window-x="-8"
   inkscape:window-y="-8"
   inkscape:window-maximized="1"
   inkscape:current-layer="Layer_1" />
<polygon
   points="165.2,824 165.2,824.3 165.2,823.8 "
   id="polygon4194"
   transform="matrix(0.35002779,0,0,0.35002779,0,0.03501338)" />
<path
   d="m 57.229543,292.34323 c -0.07001,0 -0.175014,0 -0.245019,0 0.105008,0.035 0.210016,0.035 0.245019,0 z"
   id="path4196"
   inkscape:connector-curvature="0" />
<path
   d="m 8.5756808,9.7657834 c -0.6650528,0 -1.2951028,0.2450206 -1.7851417,0.7350606 -0.4550362,0.45504 -0.7350584,1.12009 -0.7350584,1.78514 0,0 0.035003,6.54552 0.035003,6.54552 0,1.15509 0.7000556,2.10017 1.7851417,2.41519 l 0.8750695,0.24502 c 1.9951581,0.52505 5.0053971,1.33011 7.3855861,4.02532 2.905231,3.29026 3.045242,7.38559 3.045242,7.42059 l 0.63005,176.939056 0.105008,26.35709 -0.175014,42.91341 c 0,0.14001 0,0.31502 0,0.52504 0,1.92515 -0.315025,5.88047 -1.855147,8.08564 -3.605286,5.21542 -8.365664,5.77546 -8.5756807,5.81046 -1.2601,0.14001 -2.2401778,1.2251 -2.2401778,2.4852 l -0.035003,8.08564 c 0,0.66505 0.2450195,1.2951 0.7350584,1.75014 0.4900389,0.49004 1.1200889,0.73506 1.8201444,0.73506 L 113.82904,306.34434 c 1.2951,0 2.38019,-1.01508 2.48519,-2.31019 l 7.14057,-81.9065 c 0.035,-0.70005 -0.17501,-1.40011 -0.66505,-1.92515 -0.45504,-0.52504 -1.15509,-0.80507 -1.85515,-0.80507 l -13.12604,-0.035 c -1.2601,0 -2.31019,0.94508 -2.5202,2.20518 l -3.43027,27.26716 c 0,0.10501 -1.96016,13.8611 -2.59021,17.08136 -0.560044,2.90523 -1.855147,5.88046 -2.27518,6.89554 -0.07001,0.14002 -0.140012,0.31503 -0.140012,0.31503 -1.225097,2.94023 -3.430272,5.74046 -6.580522,8.26066 -6.615525,5.32042 -13.721089,5.63544 -13.826098,5.63544 0,0 -14.981189,-0.17501 -18.621478,-0.21001 0,-2.38019 -0.140011,-96.01263 -0.140011,-96.01263 0,0 -0.665053,-158.457576 -0.665053,-158.842616 0.035,-0.24501 0.595048,-4.16533 3.815303,-7.24557 2.590206,-2.4852 7.315581,-3.29026 7.350584,-3.29026 1.225097,-0.21002 2.100166,-1.2601 2.100166,-2.4852 l 0,-6.65053 c 0,-1.40011 -1.120088,-2.5202006 -2.5202,-2.5202006 l -59.1896982,0"
   id="path4198"
   inkscape:connector-curvature="0" />
<path
   d="m 260.49068,10.955884 c -6.19549,2.66021 -13.72109,9.38074 -16.69633,14.91118 -3.22025,6.09048 -3.46527,11.62092 -3.46527,11.86594 0,0.035 0.87507,142.251306 0.87507,142.251306 0,0.24502 -0.14001,7.52559 2.69521,14.49115 2.27518,5.63544 7.24558,10.39582 10.0108,12.706 3.57028,3.04525 10.1158,5.81047 16.66132,7.07057 6.09048,1.15509 10.92087,1.05008 12.70601,1.01508 l 0.49004,0 0.21001,0 c 7.73562,0.07 13.23105,-1.2251 16.48631,-2.31019 6.2655,-2.06516 12.601,-6.02047 18.79649,-11.72593 3.7453,-3.43027 8.47068,-9.76577 10.67585,-16.20628 2.4502,-7.24558 2.17017,-14.63117 2.17017,-14.94619 l 0,-40.95325 c 0,-1.40011 -1.12009,-2.5202 -2.5202,-2.5202 l -15.1562,0 c -0.66505,0 -1.2951,0.28002 -1.78514,0.73506 -0.45504,0.49004 -0.73506,1.12009 -0.73506,1.78514 l 0.10501,42.00333 c 0,0.035 0,3.88531 -1.05008,7.5256 -0.91008,3.11525 -2.83523,5.91547 -3.85031,6.96555 -1.68013,1.71514 -4.44535,3.92031 -7.17557,4.93539 -3.71029,1.40012 -7.91063,1.47012 -7.94563,1.47012 -0.17501,0 -2.80022,0.14001 -5.60045,-0.73506 -2.20517,-0.73506 -4.76037,-2.48519 -6.16048,-3.8153 -1.50512,-1.47012 -3.57029,-4.27034 -4.62037,-6.75554 -1.1901,-2.94023 -1.33011,-5.77545 -1.36511,-5.81046 L 274.03675,44.138514 c 0,-6.54552 2.27518,-11.86594 6.54552,-15.36622 2.73022,-2.24018 12.531,-7.14056 21.66672,-0.45503 8.85571,6.47551 9.45075,20.2666 9.48576,20.40662 l 0,21.31669 c 0,1.40011 1.12009,2.5202 2.5202,2.5202 l 15.01619,0 c 0.66505,0 1.3301,-0.28002 1.78514,-0.73506 0.49004,-0.45504 0.73506,-1.12009 0.73506,-1.78514 l -0.14001,-57.64958 c 0,-1.40011 -1.12009,-2.5202006 -2.5202,-2.5202006 l -15.40123,0 c -1.40011,0 -2.48519,1.1200906 -2.48519,2.5202006 0,0 0,1.61013 0,2.90523 -1.54012,-0.84006 -4.93539,-2.69521 -9.20573,-4.37535 -5.84547,-2.2751806 -12.39099,-3.8853006 -17.95643,-4.4103506 -11.93595,-1.15509 -23.13684,4.2353406 -23.59187,4.4453606"
   id="path4200"
   inkscape:connector-curvature="0" />
<path
   d="m 257.97048,5.4604434 c -0.035,0.035 -0.10501,0.035 -0.10501,0.035 l 0,0 c 0,0 -0.035,0.035 -0.07,0.035 0,0 0,0.035 0,0.035 -7.5606,3.36027 -15.82125,10.8158606 -19.35653,17.5013906 -3.7803,7.17557 -4.13033,13.72109 -4.16533,14.45615 0,0.035 0,0.24502 0,0.24502 l 0.87507,142.286296 c 0,0 0,0.07 0,0.28002 0,1.54013 0.17501,9.13573 3.15025,16.48631 2.80022,6.82554 8.50567,12.35598 11.69092,15.0512 5.21542,4.41035 13.47607,7.21057 19.42655,8.36566 6.72053,1.33011 12.00595,1.1901 14.00111,1.15509 0,0 0.35003,-0.035 0.38503,-0.035 l 0.14001,0.035 c 8.54068,0.07 14.77117,-1.40011 18.44646,-2.62521 7.07057,-2.34518 14.14113,-6.72053 21.00167,-13.02103 3.99032,-3.64029 9.59076,-10.74585 12.32098,-18.72649 2.27518,-6.65052 2.5202,-13.40606 2.5202,-15.96126 l 0,-0.94508 0,-46.97373 c 0,-1.40011 -1.12009,-2.5202 -2.5202,-2.5202 l -27.26716,0 c -0.66506,0 -1.33011,0.28003 -1.78515,0.73506 -0.45503,0.49004 -0.73505,1.12009 -0.73505,1.78514 l 0.105,48.05882 c 0,0.035 0,3.11525 -0.80506,5.81046 -0.59505,2.03016 -1.96016,4.02532 -2.41519,4.48036 -1.2251,1.2951 -3.25526,2.87022 -4.93539,3.50027 -2.66022,0.98008 -5.88047,1.08509 -5.91547,1.08509 -0.07,0 -0.31503,0 -0.31503,0 -0.07,0 -1.71513,0.035 -3.29026,-0.49004 -1.2251,-0.38503 -3.01024,-1.57512 -3.85031,-2.41519 -0.91007,-0.87507 -2.5202,-2.97524 -3.22025,-4.69037 -0.77006,-1.89015 -0.87507,-3.7803 -0.87507,-3.7803 0,0 0,0 0,-0.035 0,-1.78514 -0.31503,-130.560366 -0.31503,-130.560366 0,-4.72538 1.47012,-8.33066 4.34035,-10.71085 1.36511,-1.12009 8.15565,-4.69037 14.24613,-0.24502 6.37051,4.69037 7.00056,15.61124 7.00056,15.71625 l 0,27.16215 c 0,1.40011 1.12008,2.5202 2.5202,2.5202 l 27.12715,0 c 0.66505,0 1.2951,-0.28002 1.78514,-0.73506 0.45504,-0.49003 0.73506,-1.12008 0.73506,-1.78514 L 337.67182,6.3005134 c 0,-1.40011 -1.1551,-2.5202 -2.5202,-2.5202 l -27.47719,0 c -1.15509,0 -2.13517,0.84006 -2.38018,1.96015 -0.38504,-0.17501 -1.08509,-0.45503 -1.08509,-0.45503 -6.37051,-2.4852 -13.51107,-4.23534 -19.60156,-4.79538002 -13.19604,-1.2601 -25.51702,4.44535002 -26.63711,4.97039002 m 26.39209,-2.4852 c 5.88047,0.56005 12.74101,2.24018 18.9015,4.62037 1.61013,0.63005 3.04525,1.2601 4.37535,1.89015 0,-1.61013 0,-3.22025 0,-3.22025 l 27.51219,0 0.14001,69.7605306 -27.12716,0 c 0,0 0,-26.95214 0,-27.26716 -0.035,-0.42003 -0.70005,-12.28598 -8.05064,-17.6414 -7.45559,-5.46044 -15.57623,-1.12009 -17.32637,0.31502 -3.46528,2.87023 -5.25042,7.14057 -5.25042,12.67101 0,0 0.31503,130.350356 0.31503,130.735386 0,0.17501 0.17501,2.34518 1.08508,4.58536 0.87507,2.13517 2.73022,4.51536 3.81531,5.56544 1.08508,1.05009 3.18525,2.4852 4.83038,3.01024 2.10017,0.66505 4.13033,0.59505 4.16533,0.59505 l 0.28002,0 c 0.035,0 3.64029,-0.07 6.75554,-1.2251 2.17017,-0.80506 4.55036,-2.73021 5.88047,-4.09532 0.70005,-0.73506 2.27518,-3.08025 3.01023,-5.53044 0.91008,-3.08025 0.91008,-6.47552 0.91008,-6.51052 l -0.10501,-48.05881 27.19716,0 c 0,0 0,46.86872 0,47.04373 0,0.17501 0,0.42003 0,0.87507 0,2.45019 -0.21002,8.8557 -2.38019,15.1562 -2.59021,7.5606 -7.87563,14.24613 -11.65593,17.67641 -6.58052,6.02047 -13.33606,10.22081 -20.09159,12.46099 -3.50028,1.15509 -9.41575,2.5202 -17.6414,2.45019 l -0.21002,0 -0.42003,0 c -1.92516,0.035 -7.00056,0.14001 -13.47607,-1.08509 -5.63545,-1.08508 -13.44107,-3.71029 -18.27145,-7.84062 -3.01024,-2.5202 -8.40067,-7.70061 -10.99088,-14.07112 -3.11524,-7.6306 -2.97523,-15.64624 -2.97523,-15.82125 l -0.84007,-142.286306 0,-0.14001 c 0.035,-0.66505 0.35003,-6.68553 3.92031,-13.37106 3.32527,-6.2655 11.44591,-13.54607 18.48147,-16.5563106 l -0.28002,0.105 c 0.59505,-0.21001 12.671,-6.02047 25.51702,-4.79538 z"
   id="path4202"
   inkscape:connector-curvature="0" />
<path
   d="m 436.16962,3.5702934 -80.57639,0 c -1.36511,0 -2.5202,1.12009 -2.5202,2.4852 l -0.14001,17.9564206 c 0,1.1901 0.84006,2.27518 2.03016,2.4852 l 4.97039,0.98008 c 0.35003,0.07 1.85515,0.45504 3.04524,1.08509 0.45504,0.24501 1.01508,0.80506 1.1901,1.08508 0.38503,0.59505 0.84007,1.75014 0.94507,2.4852 l 0.035,1.12009 -0.17502,2.13517 c 0,0 -0.07,0.28002 -0.07,0.28002 0,0.07 -20.51163,133.570606 -20.51163,133.570606 -0.56005,3.08025 -1.40011,6.2655 -1.68013,6.89555 -0.45504,0.80506 -1.40012,2.41519 -2.31019,3.50028 -1.2601,1.47011 -2.83522,2.73021 -2.90523,2.80022 0,0 -2.27518,1.78514 -2.27518,1.78514 -0.59505,0.49004 -0.98008,1.1901 -0.98008,1.96016 l 0,2.94023 0,13.51107 c 0,0.77006 0.35003,1.47012 0.94508,1.92516 0.56004,0.45503 1.3301,0.66505 2.06516,0.52504 l 45.39861,-9.03072 c 1.19009,-0.24502 2.03016,-1.2601 2.03016,-2.45019 l 0,-18.09644 c 0,-0.70006 -0.28003,-1.33011 -0.77006,-1.82014 -0.49004,-0.45504 -1.1551,-0.73506 -1.82015,-0.70006 l -6.3005,0.21002 -1.36511,-0.14001 c -0.10501,-0.035 -0.28002,-0.10501 -0.45503,-0.21002 0,-0.035 0,-0.07 0,-0.07 0,0.035 3.7803,-23.90689 3.7803,-23.90689 0,0 1.47011,-9.41575 1.96015,-12.496 3.29026,0 17.99143,0 21.21169,0 0.63005,3.57029 4.65537,26.63712 4.65537,26.63712 l 0.21001,2.5902 -0.035,0.56005 c 0,0.24502 -0.10501,0.63005 -0.21002,0.84006 -0.17501,0.28003 -0.70005,0.84007 -1.01508,1.08509 -0.63005,0.45504 -1.43511,0.77006 -1.64513,0.84007 l -4.09532,1.40011 c -1.01508,0.35003 -1.68014,1.2951 -1.71514,2.34518 l -0.07,4.37535 0,13.61608 c 0,0.70006 0.31502,1.40011 0.84006,1.85515 0.52504,0.45504 1.2251,0.70006 1.96016,0.63005 l 57.78958,-6.44051 c 1.29511,-0.14001 1.36511,-1.1901 1.36511,-2.4852 l 0.10501,-17.95642 c 0,-1.01508 -0.63005,-1.96016 -1.61013,-2.34519 l -2.73021,-1.50512 c 0,0 -1.15509,-0.45504 -1.54013,-0.63005 -0.105,-0.035 -1.22509,-0.80506 -1.2601,-0.84007 0,-0.035 -0.80506,-1.12008 -0.80506,-1.12008 0,0 -0.73506,-2.27519 -0.73506,-2.27519 0,-0.035 -19.21652,-117.819356 -19.21652,-117.819356 0,0 -0.77006,-4.58536 -0.87507,-5.14541 0,-0.21001 -0.21002,-2.62521 -0.21002,-2.87022 0,-0.59505 0.035,-0.94508 0.31503,-1.64514 0.105,-0.105 1.01508,-0.98007 1.01508,-0.98007 0.17501,-0.14001 1.12009,-0.70006 1.82014,-0.87507 0.77006,-0.21002 1.89015,-0.21002 2.31018,-0.17502 l 6.37051,0.38503 c 0.70006,0.035 1.36511,-0.21001 1.89015,-0.66505 0.49004,-0.49004 0.80506,-1.12009 0.80506,-1.82014 l 0,-6.40551 0,-13.4760706 c 0,-1.40011 -1.12008,-2.5202 -2.5202,-2.5202 l -5.91547,0.035 m 6.02048,2.4852 0,13.3360606 -0.035,6.40551 -6.40551,-0.35003 c -0.45504,-0.035 -1.89015,-0.035 -3.04524,0.24502 -1.2251,0.28002 -2.5202,1.12009 -2.87023,1.40011 -1.19009,1.01508 -1.54012,1.50512 -1.64513,1.71513 -0.59505,1.40012 -0.59505,2.03017 -0.59505,2.90524 l 0.24502,3.11524 c 0,0 0.87507,5.14541 0.87507,5.25042 0,0 19.14652,117.504336 19.25153,117.994376 0.10501,0.49004 0.45504,1.71513 0.91007,2.73021 0.14001,0.35003 0.52504,0.98008 1.33011,1.89015 0.21002,0.21002 1.01508,0.84007 1.89015,1.33011 l 1.75014,0.70005 4.27034,1.71514 0,17.81641 -58.55965,6.33551 0,-13.58108 0.07,-4.37535 4.09533,-1.40011 c 0.35003,-0.10501 1.43511,-0.56004 2.31018,-1.19009 0.70006,-0.52505 1.50512,-1.47012 1.75014,-1.85515 0.14001,-0.28002 0.45504,-1.12009 0.52504,-1.89015 0,-0.24502 0,-0.49004 0,-0.73506 0,-1.2251 -0.17501,-2.5202 -0.24502,-3.01024 0,0 -4.02532,-22.99682 -5.0404,-28.73728 -4.55036,0 -20.1966,0 -25.48202,0 -1.64513,10.46583 -6.05548,38.50306 -6.05548,38.57306 -0.035,0.14001 -0.035,0.35003 -0.035,0.56005 0,0.21001 0.035,0.45503 0.07,0.63005 0.07,0.24502 0.31503,0.70005 0.52504,0.94507 0.31503,0.28002 1.12009,0.73506 1.75014,0.91007 0.84007,0.21002 1.78514,0.24502 2.06517,0.24502 l 6.3005,-0.21001 0,18.09643 -45.39861,9.03072 0,-13.51107 0,-2.94024 2.27518,-1.82014 c 0,0 1.78515,-1.40011 3.25526,-3.11525 1.05009,-1.22509 2.03016,-2.94023 2.66021,-4.02532 0.45504,-0.91007 1.36511,-4.58536 1.92516,-7.6306 l 20.47662,-133.535606 0.035,-0.28003 c 0.035,0 0.24502,-1.15509 0.24502,-2.5552 0,-0.45503 -0.035,-0.94507 -0.07,-1.43511 -0.14001,-1.1901 -0.80507,-2.69522 -1.33011,-3.53528 -0.38503,-0.59505 -1.2601,-1.47012 -2.10016,-1.92516 -1.43512,-0.80506 -3.18526,-1.22509 -3.7803,-1.3301 l -4.9354,-0.98008 0.14002,-17.9214206 80.57639,0 6.05548,0 0,0 0,0 z"
   id="path4204"
   inkscape:connector-curvature="0" />
<path
   d="m 481.95326,8.9957234 c -4.02532,1.6101306 -6.93055,4.0253206 -10.0808,6.8255406 -7.21057,6.33551 -7.94563,15.99627 -7.98064,16.3813 l 0,34.93278 c 0,0.17501 0,3.95531 0.87507,8.01563 0.66506,3.01024 2.03017,6.16049 3.11525,8.15565 1.2251,2.24018 3.46528,5.11041 5.67045,7.31558 2.38019,2.34519 4.79538,3.99032 4.90039,4.06032 0.07,0.035 26.07707,16.556326 26.07707,16.556326 0.07,0.035 2.62521,1.61013 4.65537,3.25526 1.2951,1.01508 2.17017,2.13517 2.5202,2.62521 l 0.10501,0.14001 c 0.45504,0.66505 1.3301,1.92515 1.71514,3.29026 0.66505,2.48519 0.73505,5.46043 0.73505,5.46043 l 0,15.68125 c 0,0.07 0.035,4.34034 -0.98007,8.05063 -0.49004,1.71514 -1.47012,3.25526 -2.20518,4.16534 -2.06516,2.38018 -4.23534,4.13032 -6.3005,4.97039 -2.94023,1.2251 -6.23049,1.2951 -6.86054,1.2601 l -0.49004,0 c -0.98008,0.035 -3.08025,0.07 -5.14541,-0.59505 -2.4852,-0.80506 -5.32042,-2.62521 -7.38559,-4.86538 -1.43511,-1.50512 -2.80022,-3.99032 -3.53528,-6.33551 -0.87507,-2.76522 -0.91007,-5.21541 -0.91007,-5.25041 l -0.10501,-19.53155 c 0,-1.40011 -1.12009,-2.5202 -2.5202,-2.5202 l -11.48091,0 c -1.40011,0 -2.5202,1.12009 -2.5202,2.5202 l -0.10501,54.00928 c 0,0.66506 0.24502,1.29511 0.73506,1.78515 0.49004,0.49003 1.12009,0.73505 1.78514,0.73505 l 11.90095,0 c 0.66505,0 1.3301,-0.24502 1.78514,-0.73505 0.45503,-0.49004 0.73506,-1.12009 0.73506,-1.78515 0,0 -0.07,-4.69037 -0.10501,-6.86054 2.17017,1.3301 8.22565,4.90039 12.21597,6.47551 4.90039,1.89015 11.62092,3.04525 17.99143,3.04525 5.77545,0 10.88586,-0.56005 16.90634,-3.29027 4.27034,-1.92515 8.43567,-5.18041 12.39098,-9.62576 6.47552,-7.31558 7.10557,-17.25637 7.14057,-17.6764 l 0.035,-29.57735 c 0,-0.17502 -0.035,-3.85031 -0.91007,-7.84062 -0.70006,-3.15025 -2.13517,-6.51052 -3.15025,-8.47068 -1.01508,-1.92515 -2.94023,-4.795386 -5.18041,-7.070566 -2.97524,-3.01024 -6.37051,-5.32042 -6.54552,-5.42543 -0.07,-0.035 -25.62204,-15.92626 -25.62204,-15.92626 -2.73021,-1.78514 -6.16049,-4.37535 -6.86054,-5.35543 -0.56005,-0.77006 -1.96016,-2.83522 -2.59021,-4.55036 -0.84006,-2.38019 -0.91007,-4.72537 -0.91007,-4.76038 l 0,-20.1966 c 0,-0.035 0,-2.59021 1.2601,-5.32042 0.63005,-1.29511 1.82015,-2.83523 3.32527,-4.23534 2.6252,-2.45019 6.79053,-4.09532 10.39582,-4.09532 3.88531,0 11.23589,2.34518 14.66616,7.42059 1.40012,2.03016 2.76522,4.09532 3.39527,6.09048 1.57513,4.93539 1.29511,9.83578 1.29511,9.87078 l -0.035,8.54068 c 0,1.40011 1.12009,2.5202 2.5202,2.5202 l 12.28598,0 c 1.36511,0 2.4852,-1.12009 2.4852,-2.5202 l 0,-46.51869 c 0,-1.40011 -1.12009,-2.5202006 -2.4852,-2.5202006 l -12.74101,0 c -1.36511,0 -2.4852,1.1200906 -2.4852,2.5202006 0,0 0,3.11525 0,5.53044 -2.5552,-1.89015 -6.93055,-4.9704 -10.0808,-6.44051 -4.09532,-1.9251606 -7.87562,-3.2202606 -11.27089,-3.9553206 -5.42543,-1.15509 -10.81586,-1.2251 -11.06088,-1.2601 -1.96016,-0.035 -8.8207,0.45504 -14.98119,2.90523"
   id="path4206"
   inkscape:connector-curvature="0" />
<path
   d="m 479.71308,3.3602734 c -4.90039,1.96016 -8.40067,4.86539 -11.86594,7.9106306 -8.8557,7.80562 -9.90579,19.21653 -10.0108,20.51163 l -0.035,0.21002 0,35.14279 c 0,0.77006 0.035,4.83038 1.01508,9.31074 1.01508,4.58536 3.11525,8.61068 3.7103,9.73077 1.50512,2.73022 4.13032,6.16049 6.75553,8.71569 2.66021,2.59021 5.21542,4.41035 5.70546,4.72538 0.035,0.035 0.21001,0.14001 0.21001,0.14001 0.035,0 26.04207,16.521316 26.04207,16.521316 0.035,0 4.09532,2.87023 4.09532,2.87023 l 1.33011,1.3301 0.10501,0.17502 c 0.63005,0.91007 0.80506,1.2951 0.87507,1.47011 0.35003,1.33011 0.52504,3.25526 0.52504,3.99032 l 0,15.68124 c 0,0.59505 -0.035,3.7453 -0.73506,6.3005 -0.21002,0.66506 -0.63005,1.43512 -0.98008,1.82015 -1.43511,1.64513 -2.87022,2.87023 -4.09532,3.36027 -1.33011,0.56004 -3.18525,0.80506 -4.44535,0.77006 -0.07,0 -0.63005,0 -0.63005,0 -0.73506,0 -2.10017,0.035 -3.25526,-0.31503 -1.50512,-0.49004 -3.43027,-1.78514 -4.83039,-3.22025 -0.77006,-0.87507 -1.71513,-2.59021 -2.17017,-3.99032 -0.59505,-1.85515 -0.63005,-3.53528 -0.63005,-3.60529 l -0.17501,-25.44702 c 0,-1.40011 -1.15509,-2.48519 -2.5202,-2.48519 l -23.52187,0 c -1.40011,0 -2.5202,1.12008 -2.5202,2.5202 l -0.10501,66.08524 c 0,0.66505 0.24502,1.33011 0.73506,1.78514 0.49004,0.45504 1.12009,0.73506 1.78514,0.73506 l 24.08191,0 c 0.66506,0 1.33011,-0.28002 1.78515,-0.77006 0.45503,-0.45504 0.70005,-1.12009 0.70005,-1.75014 0,0 0,-1.36511 -0.035,-2.5202 1.40011,0.70006 2.73022,1.2951 3.8153,1.71514 5.63545,2.17017 12.98603,3.43027 20.1616,3.43027 7.77062,0 13.40607,-1.08509 19.42654,-3.8153 5.0404,-2.27518 9.87079,-6.05548 14.42115,-11.13089 7.70061,-8.71569 8.54068,-20.09159 8.61068,-21.35169 0.035,-0.035 0.035,-0.28002 0.035,-0.31503 l 0,-29.61235 c 0,-0.45503 -0.035,-4.55036 -1.05008,-9.10072 -0.84007,-3.7453 -2.45019,-7.63061 -3.7453,-10.01079 -0.59504,-1.120096 -2.76522,-5.040406 -6.23049,-8.505686 -3.43027,-3.43027 -7.28058,-6.05548 -7.45559,-6.19549 -0.035,-0.035 -0.24502,-0.14001 -0.24502,-0.14001 -0.035,-0.035 -25.55203,-15.89126 -25.55203,-15.89126 -2.34519,-1.54013 -4.76038,-3.43028 -5.28542,-3.95532 -1.15509,-1.64513 -1.54012,-2.48519 -1.64513,-2.83522 -0.49004,-1.40011 -0.59505,-2.87023 -0.59505,-2.94024 l 0,-19.98658 c 0,0.035 0.07,-1.36511 0.70006,-2.76522 0.21001,-0.45504 0.91007,-1.40011 1.96015,-2.38019 1.47012,-1.36511 4.23534,-2.4502 6.2655,-2.4502 2.69522,0 7.66561,1.82015 9.69577,4.79539 1.12009,1.64513 2.31018,3.36026 2.66021,4.51535 1.2251,3.7803 1.01508,7.66561 1.01508,7.70061 0,0.035 0,0.28003 0,0.31503 l 0,14.63116 c 0,1.40011 1.12009,2.5202 2.5202,2.5202 l 24.36194,0 c 1.40011,0 2.48519,-1.12009 2.48519,-2.5202 l 0,-58.6296506 c 0,-1.40011 -1.12009,-2.5202 -2.48519,-2.5202 l -24.81697,0 c -1.40011,0 -2.5202,1.12009 -2.5202,2.5202 0,0 0,0.35002 0,0.42003 -0.52505,-0.28002 -1.01508,-0.56004 -1.50512,-0.80506 -4.51536,-2.10017 -8.71569,-3.57029 -12.531,-4.37535 -6.02048,-1.29510002 -11.97095,-1.36511002 -12.25097,-1.400110021094 -2.24018,0 -10.0108,0.560040001094 -17.11636,3.360260021094 m 17.25637,-0.80506 c 0.24502,0 5.98548,0.10501 11.72593,1.33011 3.64029,0.77006 7.66561,2.20517 12.00595,4.20033 1.57513,0.73506 3.36027,1.78514 5.07541,2.9052306 0,-1.5401206 0,-4.8303806 0,-4.8303806 l 24.81697,0 0,58.5946506 -24.36194,0 0,-14.63116 0.035,-0.17502 c 0,-0.035 0.21001,-4.34034 -1.12009,-8.61068 -0.49004,-1.50512 -1.71514,-3.32526 -2.97524,-5.18041 -2.62521,-3.85031 -8.50567,-5.88047 -11.76093,-5.88047 -2.66021,0 -6.02048,1.33011 -7.98064,3.15025 -1.15509,1.08509 -2.10016,2.27518 -2.5202,3.15025 -0.91007,1.96016 -0.94507,3.85031 -0.94507,3.8153 0,0 0,19.81158 0,20.1266 0,0.14001 0.10501,1.89015 0.73506,3.64029 0.42003,1.2251 1.61013,2.90523 2.06516,3.60529 0.66505,0.77006 3.50028,2.90523 5.91547,4.48035 l 25.51703,15.85626 0.21001,0.14001 c 0.14001,0.10501 3.81531,2.59021 7.07056,5.84547 3.18526,3.22025 5.25042,6.895546 5.81047,7.910626 1.19009,2.24018 2.69521,5.88047 3.50027,9.34575 0.94508,4.27034 0.98008,8.15564 0.98008,8.57568 l 0,29.61235 0,0.17501 c -0.07,1.1901 -0.84007,11.72593 -8.01563,19.81157 -4.30535,4.83039 -8.85571,8.36567 -13.58108,10.53584 -5.67045,2.5552 -10.95587,3.60529 -18.37646,3.60529 -6.89555,0 -13.8961,-1.1901 -19.28653,-3.29026 -2.20518,-0.84007 -4.90039,-2.20518 -7.31558,-3.57029 0,0.07 0.14001,6.68553 0.14001,6.68553 l -24.08191,0 0.14001,-66.08524 23.52186,0 c 0,0 0.17502,25.48202 0.17502,25.51702 l 0,0 c 0,0.035 0.07,2.03016 0.73506,4.27034 0.56004,1.78514 1.68013,3.85031 2.73021,4.9704 1.64513,1.75014 3.95532,3.29026 5.88047,3.88531 1.54012,0.49003 3.15025,0.45503 4.02532,0.45503 l 0.59505,0 c 1.40011,0 3.67529,-0.24502 5.42543,-0.98008 1.57512,-0.66505 3.32526,-2.10016 5.00539,-4.06032 0.52505,-0.63005 1.1901,-1.71514 1.50512,-2.80022 0.80507,-2.90523 0.84007,-6.3355 0.84007,-7.00056 0,-0.07 0,-15.71624 0,-15.71624 0,-0.70006 -0.14001,-2.90524 -0.63005,-4.62037 -0.21002,-0.77006 -0.84007,-1.71514 -1.19009,-2.20518 l -0.14001,-0.17501 c -0.14002,-0.21002 -0.80507,-1.05008 -1.82015,-1.85515 -1.85515,-1.47011 -4.23534,-2.97523 -4.34034,-3.01024 l -26.00707,-16.486316 -0.14001,-0.105 c -0.28002,-0.17502 -2.83522,-1.92516 -5.39043,-4.44536 -2.45019,-2.41519 -4.90039,-5.60044 -6.3005,-8.12064 -0.56004,-1.05008 -2.5202,-4.83038 -3.46527,-9.06572 -0.94508,-4.30534 -0.98008,-8.26066 -0.98008,-8.7857 l 0,-34.93277 0.035,-0.21002 c 0.07,-1.15509 1.01508,-11.62092 9.17073,-18.79649 3.29026,-2.90523 6.58052,-5.6354506 11.13088,-7.4205906 6.58053,-2.66021 13.93111,-3.18525 16.20629,-3.15025 z"
   id="path4208"
   inkscape:connector-curvature="0" />
<path
   d="m 563.1247,9.6257734 c -0.66505,0 -1.3301,0.28002 -1.78514,0.7350606 -0.45504,0.49004 -0.73506,1.12009 -0.73506,1.78514 l 0,7.17557 c 0,1.2251 0.87507,2.27518 2.06517,2.4852 0,0 2.03016,0.38503 3.8853,1.2251 1.75014,0.80506 3.36027,2.10016 3.95532,2.76522 0.38503,0.38503 1.68013,1.85514 2.27518,3.50027 0.70005,2.03016 0.80506,4.30535 0.80506,4.34035 0,0 0.31503,121.284636 0.31503,121.319636 0,-0.035 -0.07,2.06516 -0.66505,4.13033 -0.49004,1.64513 -1.47012,3.29026 -1.99516,3.92031 -0.66506,0.73506 -2.27518,2.24018 -3.92031,3.04524 -1.99516,0.98008 -4.13033,1.33011 -4.13033,1.33011 -1.2251,0.21001 -2.10017,1.2601 -2.10017,2.48519 l 0,7.63061 c 0,1.2951 0.98008,2.38019 2.27518,2.4852 0.17502,0.035 17.95643,1.75013 27.23216,2.34518 3.43028,0.21002 5.77546,0.49004 18.7965,1.89015 l 7.10556,0.80507 c 0.73506,0.07 1.40011,-0.14002 1.96016,-0.63005 0.52504,-0.49004 0.80506,-1.1551 0.80506,-1.89015 l 0,-7.17557 c 0,-1.2601 -0.91007,-2.34519 -2.17017,-2.5202 -0.035,0 -1.57513,-0.21002 -3.15025,-0.91008 -1.82015,-0.77006 -3.88531,-2.17017 -4.51536,-2.83522 -0.73506,-0.73506 -2.03016,-2.4502 -2.59021,-3.85031 -0.80506,-1.89015 -0.84006,-3.74529 -0.84006,-3.7803 0,0 -0.14001,-50.369 -0.17502,-57.29955 1.71514,0 13.58108,-0.035 13.58108,-0.035 0.07,0 1.71514,0 3.43027,0.73506 0.94508,0.42003 2.20518,1.40011 3.7103,2.87023 0.59504,0.56004 1.57512,2.10016 2.20517,3.64029 0.84007,1.99516 1.2601,4.06032 1.2601,4.09532 0.24502,1.15509 1.2601,1.99516 2.4852,1.99516 l 10.99087,0 c 1.40011,0 2.5202,-1.12009 2.5202,-2.5202 l 0,-38.818086 c 0,-1.40011 -1.12009,-2.5202 -2.5202,-2.5202 l -11.23589,0 c -1.2601,0 -2.34519,0.94507 -2.5202,2.17017 0,0.035 -0.24502,1.71514 -0.98008,3.43027 -0.70005,1.64513 -2.06516,3.43028 -2.5552,3.95532 -0.42003,0.45503 -1.71514,1.82014 -3.15025,2.45019 -1.43511,0.66505 -3.22026,0.77006 -3.22026,0.77006 0,0 -12.74101,0 -14.10612,0 0,-1.96015 -0.105,-55.79443 -0.105,-57.40455 3.67529,0 17.53639,0 17.53639,0 l 0,0 c 0,0 3.04524,0.07 5.98547,1.05008 2.03016,0.66505 4.09533,2.17017 4.9704,2.94023 1.05008,0.91007 2.90523,3.04524 3.7803,5.0054 1.08508,2.41519 1.19009,4.83038 1.19009,4.83038 l 0,10.81586 c 0,1.40011 1.12009,2.5202 2.4852,2.5202 l 13.33606,0 c 1.40011,0 2.5202,-1.12009 2.5202,-2.5202 l 0,-41.44329 c 0,-1.40011 -1.12009,-2.5202006 -2.5202,-2.5202006 l -91.77729,0"
   id="path4210"
   inkscape:connector-curvature="0" />
<path
   d="m 654.93699,3.6052934 -97.90277,0 c -0.66505,0 -1.2951,0.28003 -1.78514,0.73506 -0.45504,0.45504 -0.73506,1.12009 -0.73506,1.78514 l 0.07,18.2364506 c 0,1.1901 0.87507,2.24018 2.06517,2.4502 l 4.93539,0.94507 c 0.24502,0.07 1.47012,0.35003 2.45019,0.77006 0.91008,0.42004 1.92516,1.2251 2.13517,1.47012 0.52505,0.52504 0.87507,1.15509 0.98008,1.3301 0.28002,0.84007 0.42004,2.10017 0.45504,2.5202 l 0.31502,120.969616 c 0,0.28002 -0.14001,1.54012 -0.42003,2.5902 -0.21002,0.77006 -0.70006,1.57513 -0.84007,1.75014 -0.21001,0.21002 -1.22509,1.12009 -1.99516,1.50512 -0.87506,0.42004 -2.03016,0.73506 -2.45019,0.80507 l -5.0054,0.87507 c -1.22509,0.21001 -2.10016,1.22509 -2.10016,2.48519 l -0.035,5.11041 0,13.09104 c 0,1.2951 0.98008,2.38019 2.27518,2.5202 l 5.46044,0.52504 c 3.11524,0.31502 18.72648,1.78514 27.44218,2.34519 3.32526,0.21001 5.63544,0.45503 18.51647,1.89015 l 13.82609,1.50511 c 0.70006,0.07 1.43512,-0.14001 1.96016,-0.63005 0.52504,-0.49003 0.84007,-1.15509 0.84007,-1.85514 l 0,-19.14652 c 0,-1.2601 -0.91008,-2.31019 -2.13517,-2.4852 l -5.21542,-0.77006 0,0 -1.61013,-0.49004 c -1.08508,-0.49004 -2.41519,-1.36511 -2.69521,-1.61013 -0.24502,-0.21001 -1.01508,-1.3301 -1.2251,-1.78514 -0.28002,-0.66505 -0.38503,-1.43511 -0.42003,-1.78514 0,0 0,0 0,-0.035 0,-1.05009 -0.10501,-40.60323 -0.14001,-50.96405 2.83522,0 7.5256,-0.035 7.5256,-0.035 0.105,0 0.56004,0.07 0.91007,0.21001 0,0 0.63005,0.38504 1.96015,1.68014 0,0.035 0.52505,0.80506 0.87507,1.64513 l 0.94508,2.97523 1.01508,4.79539 c 0.24502,1.15509 1.2601,1.99515 2.45019,1.99515 l 4.90039,0 17.04636,0 c 1.40011,0 2.5202,-1.12009 2.5202,-2.5202 l 0,-50.929046 c 0,-1.40011 -1.12009,-2.5202 -2.5202,-2.5202 l -22.54179,0 c -1.2601,0 -2.31019,0.94508 -2.4852,2.17017 l -0.73506,5.21542 -0.56004,1.85514 c -0.38503,0.87507 -1.2251,2.03017 -1.43512,2.27518 -0.80506,0.84007 -1.2251,1.08509 -1.2251,1.08509 0,0 -0.94507,0.21002 -1.08508,0.24502 -0.28002,0 -4.90039,0 -7.70061,0 0,-4.48036 -0.07,-44.31352 -0.10501,-45.3286 3.39527,0 11.48091,0 11.48091,0 0.10501,0 2.20518,0.10501 4.09533,0.73506 0.84006,0.28002 2.20517,1.15509 2.94023,1.78514 0.56004,0.52504 1.82014,1.99516 2.20517,2.87023 0.59505,1.2951 0.66506,2.59021 0.70006,2.62521 l -0.035,16.59132 c 0,1.40011 1.12009,2.5202 2.5202,2.5202 l 25.37701,0 c 1.40011,0 2.5202,-1.12009 2.5202,-2.5202 l 0,-53.5892606 c 0,-1.40011 -1.12009,-2.5202 -2.5202,-2.5202 l -6.05548,0.035 m 6.05548,2.5202 0,53.5892606 -25.37701,0 c 0,0 0,-16.3813 0,-16.76633 0,-0.17502 -0.14001,-1.82015 -0.91008,-3.50028 -0.56004,-1.2951 -2.03016,-3.08024 -2.83522,-3.7803 -0.94508,-0.80506 -2.59021,-1.85515 -3.8153,-2.27518 -2.34519,-0.80507 -4.86539,-0.87507 -4.86539,-0.87507 l 0,0 c 0,0 -8.96071,0 -14.00111,0 0,6.89555 0.07,43.22843 0.07,50.369 4.23534,0 9.9758,0 10.43083,0 0.42004,-0.035 1.33011,-0.21002 1.92516,-0.45504 0.28002,-0.14001 0.94507,-0.52504 2.03016,-1.68013 0.31502,-0.31503 1.3301,-1.75014 1.89015,-2.94024 0.52504,-1.22509 0.73505,-2.48519 0.73505,-2.48519 l 0.73506,-5.25042 22.54179,0 0,50.929046 -17.04635,0 -4.90039,0 -0.98008,-4.79538 c 0,0 -0.38503,-1.75014 -1.08508,-3.43027 -0.49004,-1.19009 -1.1901,-2.20517 -1.47012,-2.4852 -1.75014,-1.68013 -2.5202,-2.10016 -2.69521,-2.17017 -0.77007,-0.35003 -1.61013,-0.42003 -1.92516,-0.42003 0,0 -5.74045,0 -10.0808,0 0.035,13.30105 0.17502,53.65926 0.17502,53.65926 0,0 0.07,1.2951 0.59504,2.5902 0.38503,0.91008 1.40012,2.27518 1.82015,2.69522 0.42003,0.38503 1.99516,1.47011 3.43027,2.10016 1.15509,0.49004 2.27518,0.66506 2.27518,0.66506 l 5.21542,0.77006 0,19.14652 -13.8261,-1.50512 c -12.95103,-1.43512 -15.26121,-1.68014 -18.65648,-1.89015 -9.34574,-0.59505 -26.63712,-2.27518 -27.37218,-2.34519 l -5.46043,-0.52504 0,-13.09104 0.035,-5.1104 5.0054,-0.87507 c 0.45504,-0.07 1.92515,-0.42004 3.15025,-1.01508 1.12009,-0.56005 2.41519,-1.75014 2.80022,-2.20518 0.24502,-0.28002 0.98008,-1.47012 1.29511,-2.62521 0.38503,-1.2951 0.52504,-2.80022 0.52504,-3.29026 0,-3.50028 -0.31503,-121.039616 -0.31503,-121.039616 -0.035,-0.49004 -0.17501,-2.03016 -0.59504,-3.29026 -0.21002,-0.59505 -0.84007,-1.54012 -1.50512,-2.24018 -0.38503,-0.38503 -1.64513,-1.43511 -2.90523,-1.99516 -1.1901,-0.56004 -2.59021,-0.91007 -3.04525,-0.98007 l -4.93539,-0.94508 -0.07,-18.2364506 97.90277,0 6.09048,0 0,0 0,0 z"
   id="path4212"
   inkscape:connector-curvature="0" />
<path
   d="m 719.37711,9.6607734 -48.26884,0.10501 c -1.40011,0 -2.5202,1.1200906 -2.5202,2.5202006 l 0,7.10557 c 0,0.91007 0.70006,1.82014 1.47012,2.27518 l 2.73022,1.61013 c 1.2251,0.87507 2.24018,1.82014 2.5552,2.24017 0.52504,0.66506 1.54012,1.96016 2.10017,3.39527 0.66505,1.75014 0.84006,3.88531 0.84006,3.88531 0,-0.21002 0.14002,135.040726 0.14002,135.040726 0,0.035 0,2.06517 -0.45504,4.06032 -0.45504,1.89015 -1.40011,3.6753 -1.78514,4.16533 -0.66506,0.87507 -2.24018,2.59021 -3.99032,3.53529 -1.85515,1.01508 -4.16533,1.3301 -4.16533,1.3301 -1.2601,0.14001 -2.20518,1.2251 -2.20518,2.5202 l 0,7.38559 c 0,1.19009 0.84007,2.20517 1.99516,2.48519 l 29.68236,6.47552 c 4.48036,0.98008 24.88698,6.09048 25.09699,6.12548 0.77006,0.21002 1.54012,0.035 2.17017,-0.45503 0.63005,-0.49004 0.98008,-1.2251 0.98008,-1.96016 l -0.035,-8.12064 c 0,-1.12009 -0.77006,-2.10017 -1.85515,-2.41519 0,0 -1.61013,-0.45504 -3.18525,-1.43512 -2.24018,-1.36511 -4.41035,-3.32526 -4.86539,-3.95531 -0.42003,-0.56005 -1.85514,-2.59021 -2.48519,-4.55036 -0.66506,-2.17017 -0.70006,-4.51536 -0.70006,-4.62037 0,0 -0.035,-141.376226 -0.035,-144.141446 0.035,-0.24502 0.24502,-2.5202 0.84006,-4.65537 0.38503,-1.2951 1.12009,-2.5552 1.47012,-3.08025 0.52504,-0.70005 1.99516,-2.13517 3.46528,-3.18525 l 2.13517,-1.2951 c 0.73505,-0.45504 1.47011,-1.40011 1.47011,-2.27518 l 0,-7.63061 c 0,-0.66505 -0.24502,-1.2951 -0.73506,-1.78514 -0.56004,-0.4550406 -1.19009,-0.7350606 -1.85514,-0.7000606"
   id="path4214"
   inkscape:connector-curvature="0" />
<path
   d="m 725.43259,3.5702934 -60.3798,0.21002 c -1.40011,0 -2.5202,1.12009 -2.5202,2.5202 l 0,16.5913206 c 0,0.91007 0.45504,1.71513 1.2251,2.17017 l 3.46528,2.03016 c 0,0 1.68013,0.98008 2.03016,1.19009 0.07,0.07 1.40011,1.15509 1.40011,1.15509 0.14001,0.21002 0.84006,1.12009 1.08508,1.68014 0.24502,0.56004 0.35003,1.50512 0.45504,2.03016 0,0.35003 0.14001,134.725696 0.14001,134.725696 0,0 0,1.40012 -0.31502,2.62521 -0.21002,0.91007 -0.66506,1.78514 -0.80507,2.03016 -0.49004,0.63005 -1.40011,1.50512 -1.96015,1.78515 -0.70006,0.38503 -1.82015,0.63005 -2.13517,0.66505 l -5.18041,0.73506 c -1.2601,0.17501 -2.17018,1.22509 -2.20518,2.45019 l -0.035,5.25042 0,12.28597 c 0,1.1901 0.84007,2.20518 1.99516,2.4502 l 34.44273,7.49059 c 3.04524,0.66506 14.77117,3.57029 24.71196,6.05548 0.17502,0.035 7.73562,1.92516 7.73562,1.92516 0.73506,0.17501 1.50512,0.035 2.13517,-0.45504 0.63005,-0.45504 0.98007,-1.2251 0.98007,-1.99516 l -0.105,-20.44162 c 0,-1.12009 -0.73506,-2.10017 -1.82015,-2.41519 l -4.41035,-1.2601 0,0 -1.71513,-0.77006 c -1.54013,-0.91008 -3.04525,-2.27518 -3.29027,-2.59021 -0.56004,-0.80506 -1.22509,-1.89015 -1.40011,-2.5552 -0.31502,-1.01508 -0.42003,-2.38019 -0.42003,-2.83523 0,0 -0.035,-140.641166 -0.035,-143.826426 0.07,-0.52504 0.24502,-1.96015 0.63005,-3.29026 l 0.56004,-1.22509 c 0.14001,-0.17502 1.05008,-1.08509 2.03016,-1.82015 0.24502,-0.14001 4.34035,-2.62521 4.34035,-2.62521 0.66505,-0.38503 1.08508,-1.05008 1.19009,-1.78514 l 0.59505,-3.71029 c 0,-0.14001 0.035,-0.24502 0.035,-0.38503 l 0,-13.5110806 c 0,-0.66505 -0.28002,-1.3301 -0.77006,-1.78514 -0.38503,-0.49004 -1.01508,-0.77006 -1.68013,-0.77006 m 0,2.5552 0,13.6160906 -0.59505,3.71029 -4.48036,2.69521 c -1.2601,0.87507 -2.41519,2.06517 -2.69521,2.4152 -0.21002,0.28002 -0.66505,1.15509 -0.94508,1.96015 -0.45503,1.64513 -0.66505,3.36027 -0.73505,3.85031 0,6.58052 0.035,143.966436 0.035,143.966436 0,0.52504 0.07,2.17017 0.52504,3.57028 0.35003,1.12009 1.2601,2.5552 1.89015,3.46527 0.45504,0.52505 2.20518,2.06517 3.92031,3.11525 1.12009,0.66505 2.31019,1.01508 2.31019,1.01508 l 4.41035,1.2601 0.07,20.40662 -7.5606,-1.89015 c -0.21002,-0.07 -20.58163,-5.14541 -24.95698,-6.12548 l -34.37273,-7.4556 0,-12.28597 0.035,-5.28542 5.21542,-0.73506 c 0.45503,-0.07 1.92515,-0.35003 2.97523,-0.94507 1.08509,-0.59505 2.31019,-1.85515 2.83523,-2.55521 0.21002,-0.35003 0.84007,-1.61013 1.15509,-2.87023 0.38503,-1.57512 0.38503,-3.22025 0.38503,-3.22025 0,0 -0.14001,-134.200656 -0.14001,-134.900716 -0.035,-0.49004 -0.24502,-1.78514 -0.59505,-2.76522 -0.35002,-0.91007 -1.12009,-1.92515 -1.54012,-2.4852 -0.17501,-0.21001 -0.87507,-0.84006 -1.89015,-1.57512 l -2.17017,-1.2951 -3.46528,-2.03017 0,-16.4863006 54.32432,-0.14002 6.05548,0 z"
   id="path4216"
   inkscape:connector-curvature="0" />
<path
   d="m 740.16876,9.6607734 c -1.33011,0 -2.4852,1.0850906 -2.5202,2.4152006 l -0.24502,7.07056 c -0.035,1.12009 0.66505,2.13517 1.71513,2.4852 2.73022,0.91007 7.17557,2.87022 8.43567,4.37534 0.80507,0.91007 1.78514,2.55521 2.24018,4.13033 0.73506,2.45019 0.73506,4.93539 0.73506,4.97039 l 0,152.262096 c 0,-0.07 -0.10501,2.4852 -0.73506,4.65537 -0.45504,1.43512 -1.2251,2.5202 -1.85515,3.18525 -0.56004,0.59505 -1.82014,1.43512 -3.32526,1.92516 -2.03016,0.66505 -4.23534,0.80506 -4.23534,0.84006 -1.3301,0.10501 -2.34518,1.1901 -2.34518,2.5202 l 0,7.77062 c 0,1.12009 0.73506,2.10017 1.78514,2.41519 0.21002,0.07 21.28169,6.40551 35.73784,11.3059 14.42114,4.86539 44.52353,16.3463 44.83856,16.48631 0.70005,0.28002 1.47011,0.21002 2.13516,-0.17502 0.66506,-0.35002 1.12009,-1.01508 1.2251,-1.75013 l 12.566,-74.2409 c 0.10501,-0.73506 -0.10501,-1.47011 -0.56004,-2.03016 -0.45504,-0.56004 -1.1901,-0.87507 -1.92516,-0.91007 l -7.87562,-0.035 c -1.12009,0 -2.13517,0.73505 -2.4502,1.82014 l -10.29081,36.12287 c 0,0.035 -0.98008,2.45019 -0.98008,2.45019 -0.84007,1.64513 -2.03016,3.39527 -3.01024,4.34035 -0.91007,0.91007 -3.22026,2.5202 -4.69037,3.36026 -1.1901,0.66506 -1.89015,0.80507 -2.83523,0.98008 -0.94507,0.17502 -4.55036,0.42004 -6.40551,0 -0.35002,-0.07 -0.80506,-0.21001 -0.80506,-0.21001 -0.17501,-0.07 -8.8557,-2.76522 -8.8557,-2.76522 l 0,0 c 0,0 -0.28003,-0.14002 -0.52505,-0.24502 -0.035,-0.07 -0.035,-0.17502 -0.035,-0.17502 0,0 -0.14001,-171.793646 -0.14001,-171.828646 0,0.07 0.14001,-2.24018 1.15509,-4.44535 0.66505,-1.40011 2.24018,-3.08025 2.97524,-3.7803 0.91007,-0.84007 4.41035,-2.38019 7.14057,-3.39527 0.98007,-0.35003 1.68013,-1.33011 1.68013,-2.38019 l 0,-6.96555 c 0,-1.40011 -1.12009,-2.5202006 -2.5202,-2.5202006 l -55.19938,0"
   id="path4218"
   inkscape:connector-curvature="0" />
<path
   d="m 935.27424,9.5907734 c -1.19009,0 -2.20517,0.8400706 -2.45019,2.0301606 0,0 -23.73188,114.599106 -23.9419,115.579186 -1.2601,0 -4.27034,-0.035 -5.46043,-0.035 -0.07,-0.24502 -0.17502,-0.52504 -0.17502,-0.52504 0,0.07 -24.15192,-114.949126 -24.15192,-114.949126 -0.24501,-1.1901 -1.2601,-1.9951606 -2.45019,-1.9951606 l -46.02865,0 c -0.66506,0 -1.29511,0.28002 -1.78515,0.7700606 -0.45503,0.49004 -0.73505,1.12009 -0.73505,1.82014 l 0.105,7.35059 c 0,1.22509 0.91008,2.24017 2.10017,2.45019 0.035,0 2.20518,0.38503 4.23534,1.33011 1.82014,0.87507 3.53528,2.34518 4.23533,3.11524 0.80507,0.91008 1.85515,2.73022 2.31019,4.44536 0.45503,1.75014 0.38503,3.57028 0.38503,3.60528 -0.035,0.14001 0.07,183.869606 0.07,183.869606 0,0.07 0.035,1.68013 -0.52504,3.22026 -0.56004,1.54012 -1.85515,3.08024 -2.4852,3.71029 -0.73505,0.66505 -2.13516,1.64513 -3.71029,2.24018 -2.17017,0.84006 -4.62037,1.2951 -4.65537,1.2951 -1.19009,0.21002 -2.06516,1.2601 -2.06516,2.45019 l 0,8.7507 c 0,1.01508 0.63005,1.92515 1.50512,2.34519 l 17.85141,7.94563 21.80673,10.1158 c 0.77007,0.35003 1.68014,0.28002 2.4152,-0.17501 0.73505,-0.45504 1.15509,-1.2601 1.15509,-2.10017 l 0,-7.70061 c 0,-1.01508 -0.63005,-1.92516 -1.54012,-2.31019 -0.035,0 -2.13517,-0.87507 -4.20034,-2.17017 -1.75014,-1.08508 -3.25526,-2.41519 -3.7803,-3.11525 -0.70005,-0.94507 -2.10016,-3.01023 -2.69521,-4.86538 -0.77006,-2.34519 -0.84007,-4.65537 -0.84007,-4.69037 0,0 0.14001,-136.510846 0.17502,-149.706896 1.3301,0 5.21541,0 6.3705,0 2.41519,11.23589 32.55258,150.721976 32.55258,150.721976 0.24502,1.15509 0.80507,5.70545 2.5202,5.74045 1.57513,0.035 2.34519,-4.55036 2.59021,-5.70545 0,0 31.22248,-149.776896 31.4325,-150.791976 1.61012,0.035 5.25041,0.035 6.75553,0.07 -0.035,13.72109 -0.14001,195.770556 -0.14001,195.770556 -0.10501,3.29026 -0.77006,7.77061 -1.57512,8.75069 l -0.42004,0.56004 c -0.84006,1.08509 -2.13517,2.76522 -3.71029,3.7103 -2.13517,1.2601 -4.93539,1.68013 -4.9704,1.68013 -1.22509,0.17502 -2.13517,1.2251 -2.13517,2.4852 l 0,7.70061 c 0,1.36511 1.12009,2.4852 2.5202,2.4852 l 59.78475,0 c 0.66505,0 1.33011,-0.24502 1.78514,-0.73506 0.49004,-0.49004 0.73506,-1.12009 0.73506,-1.78514 l -0.07,-7.98064 c -0.035,-1.2601 -0.98007,-2.34518 -2.24017,-2.48519 -0.035,0 -1.89015,-0.21002 -3.7103,-0.84007 -1.85515,-0.63005 -3.46527,-1.68013 -3.99031,-2.20517 -0.66506,-0.66506 -2.31019,-2.55521 -2.97524,-3.95532 -0.91007,-1.99516 -0.94508,-3.8503 -0.94508,-3.8503 0,0 -0.105,-249.254796 -0.105,-249.254796 0,0.07 0.07,-1.96016 0.80506,-3.88531 0.52504,-1.47012 1.71514,-3.04524 2.59021,-3.8503 0.73505,-0.73506 2.20517,-1.82015 3.8153,-2.5202 2.17017,-0.94508 4.41035,-1.43512 4.41035,-1.43512 1.15509,-0.24502 1.99516,-1.2601 1.99516,-2.45019 l 0,-7.5256 c 0,-1.40011 -1.12009,-2.5202006 -2.5202,-2.5202006 l -55.82944,0"
   id="path4220"
   inkscape:connector-curvature="0" />
<path
   d="m 999.88937,290.8031 c 0,-1.2601 -0.98007,-2.34518 -2.24017,-2.48519 l -5.32043,-0.59505 -2.41519,-0.52504 c -0.84006,-0.28003 -1.57512,-0.73506 -1.82014,-0.91008 -0.63005,-0.66505 -1.43512,-1.71513 -1.57513,-2.03016 -0.35003,-0.77006 -0.42003,-1.57512 -0.42003,-1.57512 L 985.95827,33.812694 c 0.035,-0.24502 0.14001,-1.2251 0.42003,-1.96015 0.17502,-0.42004 0.73506,-1.2601 1.15509,-1.68014 0.21002,-0.17501 1.08509,-0.87507 2.06517,-1.3301 1.54012,-0.70006 3.22025,-1.05009 3.22025,-1.08509 l 4.72538,-1.05008 c 1.15509,-0.24502 1.96015,-1.2601 1.96015,-2.4502 l 0.035,-4.86538 0,-13.3360606 c 0,-1.40011 -1.12009,-2.5202 -2.5202,-2.5202 l -6.02048,0 -60.69482,0 c -1.19009,0 -2.24018,0.84007 -2.4852,1.99516 0,0 -17.85141,86.1768406 -21.80673,105.2533566 C 901.98659,91.707294 883.89016,5.5654534 883.89016,5.5654534 c -0.21002,-1.15509 -1.2601,-1.99516 -2.4502,-1.99516 l -57.05453,0 c -0.66505,0 -1.3301,0.28002 -1.78514,0.77006 -0.49004,0.49004 -0.73506,1.12009 -0.70006,1.82015 l 0.24502,18.4814606 c 0.035,1.2251 0.91008,2.24018 2.10017,2.4502 l 4.9704,0.87507 c 0.31502,0.07 1.61012,0.35003 2.69521,0.84006 0.91007,0.42004 1.96015,1.33011 2.31018,1.68014 0.17502,0.21001 0.77006,1.19009 0.98008,1.96015 0.17501,0.63005 0.21002,1.50512 0.17501,1.75014 0,0.035 0,0.21002 0,0.24502 l 0.07,118.904446 -14.10612,-0.035 c -1.12009,0 -2.13517,0.73506 -2.41519,1.82014 0,0 -11.41091,40.18319 -11.51592,40.42821 -0.035,0.14001 -0.52504,1.33011 -0.63005,1.54012 -0.52504,1.12009 -1.40011,2.31019 -1.82014,2.76522 -0.45504,0.42004 -2.20518,1.75014 -3.18525,2.27518 0,0 -0.63005,0.24502 -0.80507,0.31503 -0.59504,0 -4.06032,0.035 -4.69037,0.035 -0.45504,-0.10501 -3.25526,-0.98008 -5.18041,-1.57512 0,-3.64029 -0.10501,-167.383296 -0.10501,-167.383296 0.035,-0.14001 0.17502,-1.2601 0.59505,-2.17017 0.14001,-0.24502 0.77006,-1.08509 1.43511,-1.68014 0.56005,-0.35002 2.80022,-1.43511 5.25042,-2.34518 l 3.99032,-1.43512 c 0.98007,-0.35002 1.64513,-1.2951 1.64513,-2.38018 l 0.035,-17.2213706 c 0,-0.66505 -0.28002,-1.2951 -0.73506,-1.78514 -0.45504,-0.45504 -1.12009,-0.73506 -1.78514,-0.73506 l -6.05548,0 -61.04485,0 c -1.3301,0 -2.48519,1.08508 -2.5202,2.41519 0,0 -0.63005,17.4313806 -0.63005,17.4663906 0,1.08508 0.66506,2.03016 1.71514,2.38019 l 4.30534,1.43511 c 2.66021,0.91007 5.18041,2.24018 5.77546,2.69521 0.35003,0.45504 0.80506,1.2251 0.98008,1.78514 0.45503,1.54013 0.52504,3.32527 0.52504,3.32527 l 0,152.052076 c -0.035,0.38503 -0.17502,1.96015 -0.52504,3.08024 -0.035,0.21002 -0.21002,0.42004 -0.38503,0.66506 0,0 0,0 0.07,-0.07 0,0 -0.07,0.07 -0.07,0.07 l 0,0 c 0,0 0,0 -0.035,0 -0.21001,0.105 -0.84006,0.42003 -0.84006,0.42003 -0.98008,0.35003 -2.34519,0.52504 -2.80023,0.52504 l -5.56544,0.42003 c -1.3301,0.10501 -2.31018,1.1901 -2.34518,2.4852 l -0.035,5.60045 0,12.25097 c 0,1.12009 0.73506,2.10017 1.78515,2.41519 l 4.30534,1.2951 c 2.27518,0.70006 21.94674,6.65053 35.52782,11.2359 13.65108,4.62036 41.44329,15.1912 44.55853,16.3813 0.035,0 2.80023,1.05008 4.83039,1.82014 0.17501,0.14001 0.35003,0.24502 0.52504,0.35003 l 21.4567,9.52075 c -0.035,-0.035 30.31241,14.10612 30.31241,14.10612 0.77006,0.35003 1.68013,0.31503 2.41519,-0.17501 0.70006,-0.45504 1.15509,-1.2601 1.15509,-2.13517 l 0,-9.45075 0,-11.72593 c 0,-1.01508 -0.63005,-1.92515 -1.54012,-2.31018 l -3.71029,-1.54013 -3.32527,-1.71513 c -1.15509,-0.73506 -2.06516,-1.54012 -2.24018,-1.71514 -0.45503,-0.63005 -1.3651,-2.06516 -1.71513,-3.04524 -0.49004,-1.43511 -0.52504,-2.94023 -0.52504,-2.94023 0,0 0.105,-89.71213 0.14001,-122.57973 5.63544,25.90205 29.22732,134.13064 29.22732,134.13064 0,0 0.42003,1.89015 1.08508,2.66021 0.63005,0.73506 2.34519,0.63005 2.34519,0.63005 l 6.16049,0 c 0,0 1.01508,-0.14001 1.78514,-0.84006 0.77006,-0.73506 1.2951,-2.34519 1.2951,-2.34519 0,0 22.96183,-109.76871 28.24725,-135.04072 -0.035,35.31781 -0.10501,169.58846 -0.10501,169.58846 -0.07,2.38019 -0.52504,4.86539 -0.77006,5.60045 -0.49004,0.63005 -1.43512,1.85515 -1.99516,2.17017 -0.77006,0.45504 -2.24018,0.84007 -2.80022,0.91007 l -5.11041,0.77006 c -1.2251,0.21002 -2.13517,1.2251 -2.13517,2.4852 l -0.035,5.18041 0,13.75609 c 0,1.40012 1.12009,2.5202 2.48519,2.5202 l 71.89571,0 c 0.66506,0 1.33011,-0.24501 1.78514,-0.73505 0.45504,-0.49004 0.73506,-1.12009 0.73506,-1.78515 0.035,-0.035 -0.10501,-19.42654 -0.10501,-19.42654 m -74.27589,19.39154 0,-13.72109 0.035,-5.18041 5.11041,-0.77006 c 0.56004,-0.07 2.45019,-0.49004 3.71029,-1.2251 1.01508,-0.59504 2.03016,-1.92515 2.73022,-2.83522 0,0 0.10501,-0.17502 0.24502,-0.31503 0.45503,-1.01508 0.94507,-4.27034 1.01508,-6.82554 0,0 0.14001,-184.114616 0.14001,-192.270266 -0.17502,0 -0.17502,0 -0.35003,0 -1.05008,5.0404 -32.62259,156.217406 -32.62259,156.217406 0,0 -0.35003,1.08509 -0.70005,1.43511 -0.31503,0.35003 -1.08509,0.35003 -1.08509,0.35003 l -4.76038,-0.07 c 0,0 -0.66505,0.07 -1.15509,-0.35003 -0.45504,-0.42004 -0.63005,-1.36511 -0.63005,-1.36511 0,0 -32.6926,-150.721976 -33.84769,-156.077396 -0.035,25.412026 -0.17501,145.996596 -0.17501,145.996596 0,0.035 0.07,1.89015 0.66505,3.67529 0.45504,1.33011 1.50512,3.01024 2.17017,3.85031 0.28003,0.35002 1.40012,1.40011 2.87023,2.27518 1.75014,1.12009 3.64029,1.89015 3.67529,1.89015 l 3.7103,1.54012 0,11.72593 0,9.45075 -30.34741,-14.10612 -17.81642,-7.91063 -6.16048,-2.73021 -2.90523,-1.12009 C 818.82,241.6242 788.78762,230.17829 774.40147,225.2779 760.01533,220.37751 739.01366,214.07701 738.80365,214.00701 l -4.30534,-1.29511 0,-12.25097 0.035,-5.60044 5.60044,-0.42004 c 0.49004,-0.035 2.06517,-0.21001 3.39527,-0.66505 0.91008,-0.28002 1.64513,-0.80506 1.85515,-0.98008 0.28002,-0.31502 0.80506,-0.94507 1.05008,-1.78514 0.42004,-1.40011 0.56005,-3.18525 0.59505,-3.8153 0,-0.35003 0,-152.087086 0,-152.087086 0,-0.035 -0.035,-2.10016 -0.59505,-4.02531 -0.28002,-0.98008 -1.01508,-2.17018 -1.54012,-2.83523 -0.77006,-0.80506 -4.09532,-2.41519 -6.86054,-3.32526 l -4.27034,-1.43512 0.63005,-17.3963806 61.07985,0 6.02047,0 0,17.2213706 -3.95531,1.43511 c -2.41519,0.87507 -5.25042,2.17017 -6.02048,2.73022 -0.77006,0.73506 -1.82014,1.92515 -2.13517,2.62521 -0.59504,1.2601 -0.77006,2.73021 -0.84006,3.22025 0,0.49004 0.105,164.863096 0.105,169.238446 2.38019,0.73506 5.46044,1.82014 5.98548,1.92515 0.49004,0.14001 1.54012,0.35003 1.54012,0.35003 1.08509,0.17501 4.48036,0.07 5.25042,-0.07 0.14001,-0.035 0.63005,-0.14001 1.54012,-0.59504 1.1901,-0.59505 3.18525,-2.10017 3.8153,-2.69522 0.70006,-0.70005 1.71514,-2.17017 2.34519,-3.46527 0,0 0.70006,-1.78515 0.73506,-1.78515 l 11.51591,-40.53321 14.10612,0.07 2.5202,-0.035 -0.035,-2.4852 -0.07,-118.694426 0,-0.21002 0,-0.14001 c 0.035,-0.35003 0,-1.54012 -0.24501,-2.5202 -0.31503,-1.15509 -1.08509,-2.48519 -1.54013,-2.97523 -0.49004,-0.56005 -1.82014,-1.64513 -3.08024,-2.27518 -1.33011,-0.59505 -2.83523,-0.94508 -3.32527,-1.05009 l -4.93539,-0.87507 -0.31502,-18.4814606 57.05453,0 c 0,0 23.45186,111.6938666 24.57195,117.0142866 1.47011,-7.17556 24.25692,-117.0842966 24.25692,-117.0842966 l 60.69482,0 6.02048,0 0,13.3360606 0,4.86539 -4.76038,1.01508 c 0,0 -1.92515,0.42003 -3.71029,1.22509 -1.29511,0.56005 -2.38019,1.40011 -2.80023,1.82015 -0.59504,0.59504 -1.43511,1.71513 -1.71513,2.5902 -0.42004,1.12009 -0.59505,2.41519 -0.59505,2.83523 0,4.09532 0.10501,248.974766 0.10501,248.974766 0,0.035 0.035,1.2251 0.63005,2.5202 0.31502,0.70006 1.43511,2.10017 2.17017,2.87023 0.35003,0.24502 1.43512,0.94508 2.66021,1.40011 1.1901,0.42003 2.5202,0.63005 2.94024,0.66505 l 5.32042,0.59505 0.14001,19.39154 -71.8257,0.14001 0,0 z"
   id="path4222"
   inkscape:connector-curvature="0" />
<path
   d="m 230.73832,3.8153134 -52.22415,-0.21002 c -0.66505,0 -1.3301,0.28003 -1.78514,0.73506 -0.49004,0.49004 -0.73506,1.12009 -0.73506,1.78514 l 0,18.6914906 c 0,1.3301 1.05008,2.45019 2.38019,2.5202 l 5.84546,0.31502 c 0.38503,0.035 1.64513,0.28003 2.27518,1.05009 1.85515,2.17017 2.20518,5.21541 2.24018,5.42543 0,0.31502 0.49004,169.378446 0.49004,169.378446 l 0,3.57029 c -0.07,6.93055 -1.78514,11.4109 -6.12549,15.99627 -4.09532,4.30534 -8.64568,6.3005 -13.8611,6.12548 -2.69521,-0.07 -8.43567,-1.40011 -12.74101,-5.56544 -2.48519,-2.45019 -4.97039,-8.26066 -5.00539,-11.72593 -0.035,-4.13033 -0.80507,-173.823806 -0.80507,-175.538936 -0.035,-1.96016 0.42004,-5.46044 1.57513,-6.96556 0.84006,-1.12009 3.04524,-1.78514 4.06032,-1.89015 l 5.39043,-0.59505 c 1.2601,-0.14001 2.24018,-1.22509 2.24018,-2.48519 l 0.07,-18.3064606 c 0,-0.66505 -0.24502,-1.2951 -0.73506,-1.78514 -0.45503,-0.49004 -1.12009,-0.73506 -1.78514,-0.73506 l -68.605446,0 c -0.665052,0 -1.295102,0.24502 -1.785141,0.73506 -0.490039,0.45504 -0.735059,1.12009 -0.735059,1.78514 l 0,18.2014506 c 0,1.3301 1.085087,2.45019 2.415192,2.5202 0.035,0 2.905231,0.14001 5.005397,0.52504 0.700056,0.14001 2.170173,0.42003 4.375347,2.4502 1.05008,0.98007 1.57513,3.18525 1.57513,4.86538 l 0.70005,178.759196 -1.99516,0 c -1.2951,0 -2.34518,0.94508 -2.520197,2.20518 l -4.130328,32.58758 c -0.525042,3.7803 -2.030161,14.17613 -2.5202,16.69633 -0.420033,2.24018 -1.540122,4.79538 -1.89015,5.60044 l -0.175014,0.42004 c -0.840067,2.03016 -2.450194,3.99031 -4.795381,5.88046 -4.865386,3.92032 -10.150805,4.27034 -10.220811,4.27034 0,0 -8.155647,-0.10501 -12.390984,-0.14001 0,-4.69037 -0.140011,-90.06215 -0.140011,-90.06215 0,0 -0.63005,-152.332096 -0.665052,-158.247566 0.105008,-0.52504 0.525041,-2.10017 1.925152,-3.39527 0.805064,-0.73506 3.045242,-1.54012 4.270339,-1.75014 l 4.970395,-0.91007 c 1.190094,-0.21002 2.065164,-1.2601 2.065164,-2.45019 l 0.035,-5.0404 0,-12.8810306 c 0,-1.40011 -1.120089,-2.5202 -2.5202,-2.5202 l -6.055481,0 -65.1751739,0 c -0.6650528,0 -1.3301056,0.28002 -1.78514175,0.73506 C 0.24501945,4.9354034 0,5.5654534 0,6.2305034 L 0.07000556,23.416874 c 0,1.12009 0.77006113,2.13517 1.85514724,2.41519 l 5.2854196,1.43511 c 1.6101278,0.42004 3.2552586,0.87507 4.4103506,2.20518 1.400111,1.57512 1.540122,3.71029 1.540122,3.71029 0,0 0,0 0,0 0,1.15509 0.63005,176.659036 0.63005,176.659036 l 0.07001,26.32209 -0.175014,42.98341 c 0,0.035 0.035,0.52504 0.035,0.52504 0,2.03016 -0.490039,4.09532 -0.805064,4.58536 -1.925153,2.80023 -4.3053415,3.22026 -4.4103498,3.25526 0.035003,0 -5.1454085,0.70006 -5.1454085,0.70006 -1.2250972,0.17501 -2.1351694,1.19009 -2.1701722,2.41519 l -0.1750139,5.25042 c 0,0.07 -0.0700056,14.24613 -0.0700056,14.24613 0,0.66505 0.2800223,1.3301 0.7350584,1.78514 0.4900389,0.49004 1.1200889,0.73506 1.7851417,0.73506 L 119.32447,312.32981 c 1.29511,0 2.38019,-1.01508 2.4852,-2.27518 l 4.55036,-51.90912 c 0.14001,0.07 0.28002,0.17501 0.38503,0.28002 l 0.38503,0.28002 c 2.97524,2.10017 6.3005,4.41035 12.81102,6.61553 4.90039,1.61013 10.81586,2.5552 17.18636,2.66021 3.29026,0.07 9.06572,-0.42003 17.99143,-2.97524 5.0404,-1.43511 9.94079,-3.99031 14.07112,-6.3005 11.51591,-6.44051 17.46638,-15.54123 22.22676,-22.85681 0,-0.035 0.38503,-0.59505 0.38503,-0.59505 3.22026,-4.93539 5.67045,-13.23105 6.89555,-19.35653 1.40011,-6.96556 1.64513,-13.09104 1.64513,-13.37106 0,-0.035 0,-0.28003 0,-0.28003 0,-0.21001 -0.38503,-165.108106 -0.38503,-168.678396 0.10501,-1.36511 0.77006,-3.25526 1.2601,-3.64029 2.41519,-1.82014 5.60045,-2.69521 5.63545,-2.73021 0,0 4.48035,-1.1901 4.48035,-1.1901 1.08509,-0.28002 1.85515,-1.2951 1.85515,-2.41519 l 0.035,-17.2563706 c 0.035,-1.36511 -1.08508,-2.5202 -2.48519,-2.5202 m -0.035,19.7765706 -4.51535,1.1901 c -0.035,0 -3.64029,0.98007 -6.47552,3.15025 -1.47012,1.12008 -2.13517,4.13032 -2.27518,5.46043 0,0.63005 0.38503,168.783406 0.38503,168.783406 l 0,0.24502 c 0,0.24502 -0.21002,6.16049 -1.57512,12.95102 -1.12009,5.60045 -3.50028,13.8261 -6.51052,18.48147 l -0.38503,0.59505 c -4.62037,7.10556 -10.36082,15.92626 -21.3517,22.05175 -4.02532,2.24018 -8.75069,4.72537 -13.54607,6.09048 -8.61068,2.4852 -14.14112,2.94024 -17.25637,2.87023 -6.09048,-0.10501 -11.79594,-0.98008 -16.4163,-2.5202 -6.16049,-2.06516 -9.20574,-4.20033 -12.18097,-6.2655 l -0.42003,-0.28002 c -0.45504,-0.31502 -0.98008,-0.73506 -1.61013,-1.19009 l 0.38503,-4.20034 c 1.2951,1.05009 2.41519,1.89015 3.25526,2.4852 l 0.42003,0.31503 c 2.87023,1.99515 5.56544,3.92031 11.23589,5.81046 4.30534,1.43511 9.62577,2.24017 15.36622,2.34518 2.87023,0.035 8.01564,-0.38503 16.20629,-2.76522 4.44535,-1.2951 8.96071,-3.64029 12.81102,-5.77545 10.22081,-5.70546 15.71624,-14.14113 20.12659,-20.89666 l 0.38503,-0.59505 c 2.59021,-3.95531 4.90039,-11.51592 6.02048,-17.25637 1.2951,-6.51052 1.50512,-12.14596 1.50512,-12.39098 L 213.90199,33.077634 c 0,0.07 0.38503,-5.49543 3.67529,-7.94563 3.43027,-2.62521 7.66561,-3.74529 7.70061,-3.74529 1.12009,-0.28003 1.89015,-1.29511 1.89015,-2.4502 l 0,-6.58052 c 0,-1.40011 -1.12009,-2.5202006 -2.5202,-2.5202006 l -40.14818,-0.17502 c -0.66506,0 -1.33011,0.28003 -1.78515,0.7350606 -0.49003,0.45504 -0.73505,1.12009 -0.73505,1.78514 l 0,6.89555 c 0,1.36511 1.08508,2.4852 2.45019,2.5202 0.035,0 4.06032,0.14001 6.61553,3.15025 3.29026,3.85031 3.67529,8.99572 3.67529,9.03072 0,1.50512 0.56004,165.038106 0.49004,173.298766 -0.07,8.43567 -2.38019,14.42114 -7.77062,20.09159 -4.76038,5.0054 -10.71085,7.38559 -18.30645,7.35058 -5.46044,-0.035 -12.14597,-2.83522 -17.01135,-7.17556 -4.69038,-4.16534 -6.72054,-12.77602 -6.72054,-15.47123 L 144.59649,36.332894 c 0,-0.14001 -0.17502,-6.72053 2.80022,-10.64084 2.80022,-3.7103 8.19065,-4.27034 8.26066,-4.27034 1.2951,-0.14001 2.27518,-1.2251 2.27518,-2.5202 l 0,-6.79054 c 0,-1.40011 -1.12009,-2.5202006 -2.5202,-2.5202006 l -56.459485,0 c -1.400111,0 -2.5202,1.1200906 -2.5202,2.5202006 l 0,6.51052 c 0,1.2951 1.015081,2.38019 2.310183,2.5202 0.035,0 4.235332,0.42003 7.735612,3.71029 3.92031,3.64029 3.29026,10.95587 3.29026,11.02588 0,0.07 0,0.17501 0,0.24502 l 0.80507,175.328916 c 0,0.10501 -0.035,0.80507 -0.07,1.96016 l 0,2.5202 2.59021,0 14.45615,0.035 -2.59021,29.75236 -0.28002,3.22026 -0.38503,4.37535 -0.24502,3.04524 -4.65537,53.55425 -115.9292049,0.28002 0.070006,-14.17612 0.1750139,-5.21542 5.1454085,-0.77006 c 0.1400111,0 3.5002775,-0.52504 6.0904825,-4.30534 0.840067,-1.2251 1.225098,-4.13033 1.225098,-5.98548 0,-0.14001 0,-0.24501 0,-0.38503 l 0,-0.14001 0.175014,-42.98341 -0.105009,-26.32209 c 0,0 -0.595047,-176.098986 -0.595047,-176.834046 l 0,0 c -0.035,-0.035 -0.175014,-2.94023 -2.170172,-5.25041 -1.645131,-1.89015 -3.8503054,-2.4852 -5.6004443,-2.94024 l -5.2854196,-1.47011 -0.070006,-17.1513606 65.2801819,0 6.055481,0 0,12.7760106 -0.035,5.0404 -4.970394,0.91007 c -1.225098,0.21002 -4.165331,1.08509 -5.565442,2.38019 -2.100167,1.99516 -2.625209,4.44535 -2.695214,4.9704 0,1.01508 0.665053,158.527586 0.665053,158.527586 0,0 0.140011,84.00667 0.140011,92.54735 5.145408,0.07 14.736169,0.14001 15.051194,0.17501 0.385031,-0.035 6.230495,-0.45504 11.655926,-4.86539 2.660211,-2.17017 4.515358,-4.48035 5.530439,-6.86054 0,0 0.07,-0.21002 0.140011,-0.38503 0.38503,-0.87507 1.575125,-3.60529 2.065164,-6.12549 0.490039,-2.5902 2.030161,-13.12604 2.555203,-16.87134 l 4.130326,-32.58758 2.03016,0 2.45019,0 0.035,-2.5202 c -0.035,-6.82555 -0.70006,-178.409176 -0.70006,-178.759196 0,-2.13517 -0.66505,-5.11041 -2.38019,-6.72054 -2.5902,-2.41519 -4.515353,-2.87023 -5.635442,-3.08024 -2.310183,-0.42004 -5.355425,-0.56005 -5.355425,-0.56005 l -0.035,-18.2014406 68.570447,0 -0.035,18.3064506 -5.39043,0.59505 c -1.08509,0.10501 -4.27034,0.87507 -5.81046,2.87023 -1.78514,2.38019 -2.10017,6.96555 -2.10017,8.50567 0,0 0.80507,171.338606 0.84007,175.538946 0.035,4.20033 2.83522,10.67584 5.77546,13.54607 4.72537,4.58537 10.95587,6.12549 14.38614,6.2655 6.61552,0.24502 11.69093,-2.59021 15.78625,-6.89555 4.76038,-5.0054 6.72054,-10.1508 6.79054,-17.6764 0,-0.56005 0,-1.78514 0,-3.57028 0,-25.167 -0.49004,-163.532996 -0.49004,-169.518466 -0.035,-0.31503 -0.38503,-4.09533 -2.80022,-6.89555 -1.50512,-1.78514 -4.02532,-1.92515 -4.06032,-1.92515 l -5.84547,-0.31503 0,-18.7614906 52.18915,0.21002 -0.035,17.2563706"
   id="path4224"
   inkscape:connector-curvature="0" />
<g
   id="g4226"
   transform="matrix(0.35002779,0,0,0.35002779,0,0.03501338)">
	<path
   d="m 1106.9,122.8 -31,202.1 78.2,0 -33.7,-202.2 -13.5,0.1 z m 28.7,191.4 c -4.1,0.1 -37.7,-0.1 -41.2,-0.1 -3.5,0 -6.2,-2.9 -5.6,-7 0.9,-6.3 23.2,-149 23.3,-149.9 0.2,-0.9 0.7,-1.4 1.4,-1.4 0.7,0 1.3,0.6 1.5,1.4 0.2,0.8 25.2,147.3 25.7,150.1 0.5,2.9 -1,6.8 -5.1,6.9 z"
   id="path4228"
   inkscape:connector-curvature="0" />
	<path
   d="m 1293.8,480 -6.7,-2.7 c -3.8,-2 -7.2,-4.6 -8.2,-5.9 -0.9,-1.1 -3.8,-4.4 -5.5,-8 -2.1,-4.7 -3.3,-10 -3.3,-10.1 0,-0.1 -55,-337.4 -55,-337.4 0,-0.2 -2.6,-15.3 -2.6,-15.3 l -0.8,-10.3 c 0,-2.9 0,-6.4 2.6,-12.4 1.5,-3.5 5.7,-7.1 7.3,-8.4 1.6,-1.4 6.8,-4.8 12.2,-6.1 5.5,-1.4 11.7,-1.1 11.8,-1 2,0.1 3.9,-0.6 5.4,-1.9 1.5,-1.4 2.3,-3.3 2.3,-5.3 l 0,-20.7 c 0,-4 -3.2,-7.2 -7.2,-7.2 l -213.1,0 c -3.9,0 -7.2,3.2 -7.2,7.1 l -0.1,19.8 c 0,3.5 2.4,6.5 5.8,7.2 0.1,0 7.3,1.4 13.8,4.9 4.1,2.2 7.7,6 9.6,8.8 2.2,3.4 4.7,9.2 5.4,14.3 0.9,7.4 -0.6,14.5 -0.6,14.6 0,0.4 -58.6,381.8 -58.6,381.8 -1.5,8.1 -4.5,21.5 -6.6,25.1 -2,3.4 -5.1,8.9 -8.8,13.2 -4.9,5.7 -10.6,10.2 -10.7,10.3 -1.7,1.3 -2.8,3.4 -2.8,5.6 l 0,17.5 c 0,2.2 1,4.2 2.7,5.5 1.7,1.4 3.9,1.9 6,1.5 l 95.2,-19 c 3.4,-0.7 5.8,-3.6 5.8,-7.1 l 0,-19.4 c 0,-2 -0.8,-3.8 -2.2,-5.2 -1.4,-1.4 -3.3,-2.1 -5.3,-1.9 -0.1,0 -4.4,0.2 -8.9,-1 -4,-1 -8.3,-3.8 -9.6,-5.1 -1.1,-1 -3.5,-4.5 -4.2,-7.6 -0.4,-1.4 -0.5,-2.9 -0.5,-4.2 0,-1.9 0.2,-3.2 0.2,-3.3 0,-0.2 16,-101.8 18.7,-118.7 5,0 88.5,0 89.9,0 2.5,14.4 15.8,90.4 15.8,90.4 0,0.1 0.9,5.1 0.9,10.3 0,0.9 -0.1,1.9 -0.1,2.8 -0.2,4.2 -1.9,8.1 -2.7,9.6 -0.9,1.7 -4.3,6 -7.8,8.6 -4.4,3.2 -9.3,4.8 -9.3,4.9 -3,1 -5,3.7 -5,6.8 l 0,19.6 c 0,2.1 0.8,4 2.3,5.3 1.5,1.4 3.6,2 5.6,1.8 l 132.8,-14.3 c 3.7,-0.4 6.4,-3.5 6.4,-7.1 l 0,-23.8 c 0,-2.9 -2.5,-5.8 -5.1,-6.9 z M 1159.7,329.5 c -1.4,1.6 -3.4,2.6 -5.5,2.6 l -78.2,0 c -2.1,0 -4.1,-0.9 -5.5,-2.5 -1.4,-1.6 -1.9,-3.7 -1.7,-5.8 l 30.9,-202.1 c 0.6,-3.5 3.5,-6.1 7.1,-6.1 l 13.5,-0.1 c 3.5,0 6.5,2.5 7.2,6 l 33.8,202.2 c 0.4,2.1 -0.2,4.2 -1.6,5.8 z"
   id="path4230"
   inkscape:connector-curvature="0" />
</g>
<path
   d="m 395.77642,314.32497 c -11.2709,0 -21.28169,-5.32042 -27.75721,-13.61608 -18.72648,-0.035 -185.33971,-0.17501 -185.33971,-0.17501 -1.89015,0 -3.53528,1.71513 -3.57028,3.64028 -0.035,1.96016 1.71513,3.6753 3.7803,3.7453 1.08508,0 1.99516,-0.70005 2.73021,-1.40011 0.77007,-0.73506 3.22026,-2.27518 4.9354,-0.77006 1.40011,1.43511 0.84006,3.46527 -0.70006,5.14541 -1.15509,1.2601 -4.23534,3.01024 -6.96555,3.01024 -4.62037,-0.035 -9.73077,-3.29026 -9.83578,-9.76578 -0.07,-5.35542 4.83038,-9.55576 8.33066,-9.69577 l 190.97516,0.21002 c 5.0754,7.5956 13.65108,12.566 23.41686,12.566 15.57623,0 28.24724,-12.70601 28.24724,-28.38726 0,-15.68124 -12.636,-28.35225 -28.24724,-28.35225 -9.48576,0 -17.85142,4.69037 -22.96182,11.93595 -2.83523,0 -60.20478,0.21002 -60.30979,0.21002 -2.87023,0.07 -9.52076,-2.5202 -9.59076,-9.83578 -0.035,-6.16049 5.39042,-9.76578 9.48575,-9.69577 3.7453,0.07 6.54552,1.61012 7.87562,3.71029 0.91008,1.40011 1.2601,3.71029 -0.14001,4.79538 -1.2951,1.01508 -3.32526,0.80506 -4.30534,-0.52504 -0.52504,-0.73506 -1.71513,-1.92515 -3.18525,-1.99516 -1.85515,0.07 -3.88531,1.1901 -3.88531,3.7803 -0.035,2.38019 2.24018,3.7103 3.67529,3.7453 l 56.07445,-0.21002 c 6.47552,-7.91063 16.2763,-12.95103 27.26717,-12.95103 19.49655,0 35.2828,15.89126 35.2828,35.49282 0,19.49655 -15.78625,35.38781 -35.2828,35.38781 m -6.47552,-38.81808 c 1.08509,-2.4502 3.53528,-4.16533 6.40551,-4.16533 3.88531,0 7.03556,3.18525 7.03556,7.10556 0,3.92031 -3.15025,7.10557 -7.03556,7.10557 -2.80022,0 -5.14541,-1.61013 -6.3005,-3.95532 l -167.6283,-0.21001 c -1.64514,0 -2.97524,-1.33011 -2.97524,-3.01024 0,-1.68014 1.3301,-3.01024 3.01024,-3.01024 l 167.48829,0.14001 m 99.12787,35.10779 c -0.035,0.42003 -0.38503,0.73505 -0.80506,0.73505 l -46.5887,-0.07 c -0.45504,0 -0.80506,-0.35003 -0.84007,-0.80507 l -0.21001,-5.56544 c 0,-0.31502 0.24502,-0.63005 0.52504,-0.77006 l 2.5552,-1.36511 c 0.77006,-0.52504 1.75014,-1.40011 2.13517,-1.89015 0.21002,-0.31502 0.98008,-1.40011 1.36511,-2.66021 0.42003,-1.47011 0.52504,-2.94023 0.52504,-2.94023 0,0 -0.24502,-56.10946 -0.24502,-57.05453 0,0 -0.42003,-3.95531 -0.42003,-3.99032 -0.31503,-1.61013 -0.87507,-3.22025 -1.1901,-3.74529 -0.17501,-0.28003 -0.80506,-1.29511 -1.99515,-2.06517 l -2.76522,-1.3301 c -0.28003,-0.14002 -0.52505,-0.45504 -0.52505,-0.77007 l 0.07,-5.95047 c 0,-0.42003 0.35003,-0.80506 0.77006,-0.84006 l 30.66244,-2.5202 c 0.24501,-0.035 0.45503,0.07 0.63005,0.21001 0.17501,0.14001 0.28002,0.35003 0.28002,0.59505 0,0 0.10501,6.47551 0.10501,6.47551 0,0.35003 -0.21002,0.66506 -0.56005,0.80507 -1.75014,0.59504 -3.04524,1.2951 -3.50028,1.92515 0,0 -0.28002,0.35003 -0.28002,0.38503 -0.38503,0.49004 -0.94507,1.15509 -1.15509,1.92515 -0.31503,0.94508 -0.35003,1.92516 -0.35003,2.4502 0,0 0,0.07 0,0.07 0,0.035 0.035,0.07 0.035,0.10501 0,0.035 0,0.07 0,0.10501 0,0 0,0.035 0,0.035 -0.07,0.45504 -0.07,3.81531 -0.07,8.8207 0,17.25637 0.21002,53.62426 0.21002,53.93929 l 0.035,0.28002 c 0.10501,1.22509 0.31502,3.29026 0.94507,4.62036 0.66506,1.47012 1.85515,2.13517 2.4502,2.13517 0.80506,0 3.22025,-0.77006 5.14541,-2.97523 1.08508,-1.2601 2.17017,-3.36027 3.22025,-6.3005 0.28002,-0.84007 1.33011,-3.81531 2.03016,-6.89555 l 1.36511,-7.5256 c 0.07,-0.42003 0.42003,-0.73506 0.84007,-0.73506 l 8.22565,0.21002 c 0.24502,0 0.45504,0.10501 0.59505,0.28002 0.17501,0.17502 0.24502,0.42004 0.21002,0.63005 l -3.43028,32.02755 m 41.23328,-1.99516 c -0.84007,0.77006 -1.54013,1.2951 -3.11525,1.89015 0,0 -3.43027,1.01508 -3.46528,1.05008 0,0 -0.70005,0.17501 -0.84006,0.17501 0,0 -2.83523,0.35003 -2.94024,0.35003 0,0 -8.8907,-0.035 -8.92571,-0.035 -0.24501,0 -2.5202,-0.17501 -4.69037,-1.01508 -2.45019,-0.94508 -4.44535,-2.5552 -5.14541,-3.29026 -0.77006,-0.77006 -2.38018,-2.83523 -3.18525,-5.11041 -0.94507,-2.62521 -1.08508,-5.42543 -1.08508,-5.77546 0,0 0,-40.3582 0,-40.3932 l 0,-0.42004 c 0,-0.84006 -0.14002,-1.3651 -0.31503,-1.54012 -0.31502,-0.35003 -1.19009,-0.45503 -1.75014,-0.42003 l -8.15565,0 c -0.21001,0 -0.42003,-0.10501 -0.59504,-0.24502 -0.14001,-0.17502 -0.24502,-0.35003 -0.24502,-0.59505 l 0.07,-8.50567 c 0,-0.45504 0.38503,-0.84007 0.84007,-0.84007 0,0 8.50567,0 8.54068,0 0.59504,0.035 1.15509,-0.07 1.3301,-0.21002 0.17502,-0.14001 0.28003,-0.56004 0.28003,-1.19009 l 0,-10.88587 c 0,-0.38503 0.28002,-0.73505 0.63005,-0.80506 l 17.53639,-4.58536 c 0.24502,-0.07 0.52504,0 0.73506,0.14001 0.21001,0.17501 0.31502,0.42003 0.31502,0.66505 l 0,15.33122 c 0,0.45503 0.10501,1.05008 0.35003,1.2601 0.14001,0.10501 0.73506,0.28002 1.99516,0.17501 l 10.78085,0 c 0.45504,0 0.80507,0.45504 0.84007,0.94508 l 0.035,0.35002 -0.24502,3.99032 c -0.28002,2.27518 -0.77006,3.88531 -1.05008,4.65537 -0.14001,0.31503 -0.42003,0.52504 -0.80506,0.52504 0,0 -8.40067,0.035 -9.31074,0.035 -0.14001,0.035 -0.28003,0.10501 -0.42004,0.035 0,0 -0.10501,-0.035 -0.21001,-0.07 -0.35003,0 -1.1551,0.14001 -1.43512,0.35003 -0.35003,0.24502 -0.35003,0.91007 -0.35003,1.19009 l 0,0.94508 c -0.035,21.77173 -0.035,34.79276 0,36.61291 0.035,1.2951 0.28003,4.55036 2.06517,6.3005 1.64513,1.64513 4.86538,1.71513 5.49543,1.71513 0.98008,0 2.59021,-0.07 3.95532,-0.38503 l 2.45019,-0.84007 c 0.24502,-0.07 0.59505,-0.07 0.80507,0.07 0.21001,0.17501 0.38503,0.38503 0.38503,0.66505 l 0.07,5.81046 c -0.035,0.35003 -0.24502,0.98008 -1.22509,1.92516 m 65.28018,2.03016 c 0,0.49004 -0.38503,0.84006 -0.84007,0.84006 l -22.33177,0 c -0.66505,0 -1.99516,-0.24501 -3.01024,-1.15509 -1.2251,-1.08508 -2.06516,-2.76522 -2.24018,-3.11524 l -0.80506,0 c -0.56005,0.45503 -3.04524,2.41519 -5.0404,3.36026 -1.92515,0.91007 -4.76038,1.33011 -5.74046,1.47012 l -2.17017,0 -4.13033,0.035 c -2.73021,-0.07 -7.14056,-1.78514 -10.25581,-4.90039 -3.43027,-3.39527 -3.64029,-8.15564 -3.64029,-8.19065 0,0 -0.035,-38.92309 -0.035,-38.88808 0,-0.07 0,-8.57568 5.49543,-13.30106 4.41035,-3.7803 12.63601,-4.62037 13.96611,-4.62037 1.08509,0 4.16533,0.28003 6.68553,1.12009 1.61013,0.52504 2.97524,1.2601 3.8153,1.75014 0,0 0.98008,0.42003 1.1901,0.52504 0.35003,0 0.73506,-0.10501 0.94507,-0.38503 0.21002,-0.31502 0.35003,-0.94507 0.38503,-1.40011 0,0 0,-9.62576 0,-9.69577 -0.035,0.07 -0.105,0.035 -0.105,0.07 0,0 0.035,-0.10501 0.105,-0.21002 0,-0.10501 0.035,-0.21002 0.035,-0.21002 0,-0.73505 -0.28002,-1.96015 -0.63005,-2.80022 -0.70006,-1.50512 -2.20518,-3.04524 -2.5202,-3.36027 -0.52504,-0.49003 -1.82015,-1.64513 -3.25526,-2.20517 -0.77006,-0.31503 -1.71514,-0.49004 -2.69521,-0.56004 -0.42004,-0.035 -0.77007,-0.38504 -0.77007,-0.84007 l 0,-6.40551 c 0,-0.21002 0.10501,-0.42003 0.24502,-0.59505 0.17502,-0.14001 0.35003,-0.24502 0.59505,-0.24502 l 0,0 10.22081,0.07 c 7.35059,0.14001 15.0512,1.36511 17.25637,1.71513 0.42004,0.07 0.70006,0.42004 0.70006,0.84007 0,0.73506 0.07,74.69593 0.14001,76.97111 0,0.035 0.10501,4.06032 2.34518,5.81046 1.68014,1.29511 4.30535,1.50512 5.35543,1.54013 0.45504,0.035 0.80506,0.38503 0.80506,0.84006 l -0.07,6.12549 m 255.20526,3.25526 c -2.73022,0.035 -5.77546,-1.71514 -6.96556,-3.01024 -1.50512,-1.68014 -2.06516,-3.67529 -0.66505,-5.14541 1.71514,-1.50512 4.16533,0.035 4.93539,0.77006 0.73506,0.70006 1.64513,1.40011 2.73022,1.40011 2.06516,-0.07 3.8153,-1.82014 3.7803,-3.7453 -0.035,-1.92515 -1.68013,-3.64028 -3.57028,-3.64028 0,0 -166.61323,0.17501 -185.33972,0.17501 -6.44051,8.26065 -16.4513,13.61608 -27.7572,13.61608 -19.49655,0 -35.2828,-15.89126 -35.2828,-35.49282 0,-19.56655 15.78625,-35.49282 35.2828,-35.49282 10.99087,0 20.79165,5.07541 27.26716,12.95103 l 59.46973,0.21002 c 1.43511,-0.035 3.67529,-1.36511 3.67529,-3.7453 -0.035,-2.5552 -2.10017,-3.67529 -3.92031,-3.7803 -1.47012,0.07 -2.66021,1.29511 -3.18526,1.99516 -0.98007,1.33011 -3.01024,1.54012 -4.30534,0.52504 -1.40011,-1.08508 -1.05008,-3.36026 -0.14001,-4.79538 1.33011,-2.10017 4.13033,-3.64029 7.87563,-3.71029 4.13032,-0.07 9.52075,3.53528 9.48575,9.69577 -0.035,7.31558 -6.68553,9.94079 -9.55576,9.83578 -0.14001,0 -60.86983,-0.21002 -63.70506,-0.21002 -5.1104,-7.21057 -13.47607,-11.93595 -22.96182,-11.93595 -15.61124,0 -28.24724,12.70601 -28.24724,28.35225 0,15.64625 12.636,28.38726 28.24724,28.38726 9.76578,0 18.34146,-4.9704 23.41686,-12.566 l 190.97516,-0.21002 c 3.53528,0.14001 8.40067,4.30535 8.33066,9.69577 -0.14001,6.58053 -5.21541,9.87079 -9.87078,9.87079 m -38.81806,-38.57304 c 1.68013,0 3.01023,1.33011 3.01023,3.01024 0,1.68014 -1.3651,3.01024 -3.01023,3.01024 l -167.80333,0.21002 c -1.15509,2.34519 -3.53528,3.95531 -6.3005,3.95531 -3.8853,0 -7.07056,-3.15025 -7.07056,-7.10556 0,-3.92031 3.15025,-7.10556 7.07056,-7.10556 2.87023,0 5.32043,1.71513 6.44052,4.16533 l 167.66331,-0.14002 m 98.3578,30.55743 c -1.3651,2.24018 -4.34034,2.97524 -6.58052,1.57513 -0.73506,-0.42004 -73.1208,-44.34853 -165.49314,-70.95064 -74.3459,-21.4217 -148.27177,-32.27256 -219.71244,-32.27256 -51.7341,0 -116.41924,3.22026 -204.34622,27.12715 -94.33249,25.65704 -172.5987,71.44068 -175.92396,73.40083 0,0 -2.20518,0.84007 -3.64029,0.49004 -1.92516,-0.35003 -2.94024,-2.20517 -2.94024,-2.20517 -1.3301,-2.27519 -0.56004,-5.21542 1.71514,-6.58053 3.32526,-1.96015 82.67656,-48.37384 178.23415,-74.3809 89.04707,-24.18692 154.53727,-27.47718 206.86642,-27.47718 72.35074,0 147.18668,10.99087 222.40765,32.65759 93.52743,26.95214 167.03326,71.54568 167.80333,71.96571 2.31018,1.43512 3.01023,4.41035 1.61012,6.65053 M 560.04446,252.54507 c -5.84547,0 -6.82554,5.49543 -6.82554,6.93055 0,0.98007 0.105,30.94245 0.07,32.8326 -0.035,2.97524 2.66021,6.47552 7.24558,6.47552 4.44535,0 6.89554,-4.09533 6.96555,-6.44051 0.035,-1.75014 0.035,-32.58759 0,-33.39266 -0.10501,-1.12008 -1.05008,-6.4055 -7.45559,-6.4055 z"
   id="path4232"
   inkscape:connector-curvature="0" />
</svg>