<?xml version="1.0" encoding="UTF-8" standalone="no"?>
<svg
   xmlns:dc="http://purl.org/dc/elements/1.1/"
   xmlns:cc="http://creativecommons.org/ns#"
   xmlns:rdf="http://www.w3.org/1999/02/22-rdf-syntax-ns#"
   xmlns:svg="http://www.w3.org/2000/svg"
   xmlns="http://www.w3.org/2000/svg"
   version="1.1"
   id="svg5544"
   viewBox="0 0 299.99999 96.509567"
   height="27.237144mm"
   width="84.666664mm">
  <defs
     id="defs5546" />
  <metadata
     id="metadata5549">
    <rdf:RDF>
      <cc:Work
         rdf:about="">
        <dc:format>image/svg+xml</dc:format>
        <dc:type
           rdf:resource="http://purl.org/dc/dcmitype/StillImage" />
        <dc:title></dc:title>
      </cc:Work>
    </rdf:RDF>
  </metadata>
  <g
     transform="translate(52.857116,161.60686)"
     id="layer1">
    <g
       transform="matrix(2.0927434,0,0,2.0927434,1328.4725,-79.270068)"
       id="g5487">
      <path
         id="path3878"
         style="fill:#8e8b78;fill-opacity:1;fill-rule:nonzero;stroke:none"
         d="m -652.1381,6.57984 -5.1425,0 0,-0.34875 c 1.345,0 1.625,-0.59875 1.625,-1.13625 l 0,-10 -1.33,0 c -1.37125,0 -2.21875,0 -2.625,2.37125 l -0.44625,0 0.1125,-3.14625 10.47375,0 0.11,3.14625 -0.44125,0 c -0.4025,-2.37125 -1.26,-2.37125 -2.63125,-2.37125 l -1.33,0 0,10 c 0,0.5375 0.28,1.13625 1.625,1.13625" />
      <path
         id="path3882"
         style="fill:#8e8b78;fill-opacity:1;fill-rule:nonzero;stroke:none"
         d="m -647.24685,-1.91516 c -2.57125,0 -4.015,1.98625 -4.015,4.45875 0,2.2475 1.63,4.22875 4.015,4.22875 2.58,0 4.15625,-2.18625 4.15625,-4.60125 0,-2.4375 -1.70625,-4.08625 -4.15625,-4.08625 m 0.33375,8.1425 c -1.77,0 -2.6625,-2.06375 -2.64875,-4.6925 0,-1.62125 0.71375,-2.9 2.08625,-2.9 2.12125,0 2.67875,2.74 2.67875,4.41375 0,1.61625 -0.675,3.17875 -2.11625,3.17875" />
      <path
         id="path3886"
         style="fill:#8e8b78;fill-opacity:1;fill-rule:nonzero;stroke:none"
         d="m -634.82185,4.39359 c 0,0.96375 0.0763,1.31625 1.14875,1.28375 l 0,0.25875 c -0.72625,0.2175 -1.71875,0.545 -2.60875,0.83625 l 0,-1.57875 -0.39625,0.4225 c -0.40125,0.4425 -1.17,1.15625 -2.37,1.15625 -1.48875,0 -2.17625,-1.025 -2.17625,-2.625 l 0,-4.25375 c 0,-1.11625 -0.145,-1.3575 -1.16625,-1.3575 l 0,-0.25375 2.7375,0 0,5.795 c 0,0.9275 0.3775,1.6325 1.4025,1.6325 0.49625,0 1.05625,-0.275 1.44375,-0.59125 0.525,-0.43 0.40875,-0.65125 0.40875,-1.30375 l 0,-3.88 c 0,-1.1575 -0.10875,-1.37875 -1.35625,-1.39875 l 0,-0.25375 2.9325,0" />
      <path
         id="path3890"
         style="fill:#8e8b78;fill-opacity:1;fill-rule:nonzero;stroke:none"
         d="m -625.72185,3.83609 c -0.76875,1.59875 -1.805,2.93625 -3.7125,2.93625 -2.0075,0 -3.445,-1.84625 -3.445,-4.14625 0,-2.4125 1.37375,-4.5375 4.13,-4.5375 1.05875,0 2.68875,0.55875 2.76625,1.82625 0,0.43875 -0.41,0.81625 -0.8425,0.81625 -0.4175,0 -0.82625,-0.41125 -0.82625,-0.81625 0,-0.7425 -0.4475,-1.28375 -1.42875,-1.28375 -1.6125,0 -2.3925,1.68875 -2.3925,3.23125 0,1.71125 0.9725,3.62625 2.87125,3.62625 1.20625,0 2,-0.8525 2.61875,-1.80875" />
      <path
         id="path3894"
         style="fill:#8e8b78;fill-opacity:1;fill-rule:nonzero;stroke:none"
         d="m -624.19185,-3.78516 c 0,-1.1775 -0.19125,-1.11875 -1.165,-1.0825 l 0,-0.34875 c 0.625,-0.1675 1.11125,-0.25875 1.575,-0.4275 l 1.15875,-0.38875 0,5.615 c 0.63125,-0.82 1.56625,-1.49375 2.6925,-1.49375 1.86875,0 2.3275,1.0825 2.3275,3.1425 l 0,3.8725 c 0,0.815 0.28125,1.14375 1.165,1.22125 l 0,0.255 -3.91125,0 0,-0.255 c 0.89625,-0.0775 1.18125,-0.40625 1.18125,-1.22125 l 0,-3.85625 c 0,-1.07125 -0.0888,-2.16125 -1.41875,-2.16125 -1.0425,0 -1.48625,0.5325 -2.03625,1.1075 l 0,4.91 c 0,0.815 0.27875,1.14375 1.1725,1.22125 l 0,0.255 -3.90625,0 0,-0.255 c 0.8875,-0.0775 1.165,-0.40625 1.165,-1.22125" />
      <path
         id="path3898"
         style="fill:#8e8b78;fill-opacity:1;fill-rule:nonzero;stroke:none"
         d="m -615.5031,3.74984 0.32,0 c 0.22375,1.34 0.88,2.60375 2.41,2.60375 0.80375,0 1.48875,-0.50375 1.48875,-1.34125 0,-1.95125 -4.21875,-2.02625 -4.21875,-4.65125 0,-1.4475 1.23875,-2.27625 2.60625,-2.27625 0.40875,0 0.75625,0.1075 1.37375,0.32875 0.61,0.205 0.6425,-0.0775 0.68,-0.16375 l 0.24125,0 0,2.52625 -0.295,0 c -0.335,-1.285 -0.8,-2.2725 -2.0325,-2.2725 -0.71,0 -1.41625,0.4475 -1.41625,1.21 0,1.86625 4.3425,2.23125 4.3425,4.5775 0,1.60375 -1.24625,2.48125 -2.74375,2.48125 -0.525,0 -0.83,-0.1275 -1.33875,-0.275 -1.07375,-0.3125 -1.1125,-0.01625 -1.15125,0.13125 l -0.26625,0" />
      <path
         id="path3902"
         style="fill:#8e8b78;fill-opacity:1;fill-rule:nonzero;stroke:none"
         d="m -606.4206,3.87609 c 0,1.375 0.19375,2.26875 1.34375,1.805 0.27875,-0.11125 0.51125,-0.3325 0.695,-0.5575 l 0.24,0.20875 c -0.68625,0.89 -1.505,1.44 -2.39125,1.44 -1.22125,0 -1.505,-0.755 -1.4625,-2.58 l 0,-5.33125 -0.55875,0 c -0.22,0 -0.64875,0.11 -0.47375,-0.275 1.0325,-0.7025 1.7425,-1.7325 2.6075,-2.7525 l 0,2.44875 1.83,0 0,0.57875 -1.83,0" />
      <path
         id="path3906"
         style="fill:#8e8b78;fill-opacity:1;fill-rule:nonzero;stroke:none"
         d="m -599.8881,-1.91516 c -2.56375,0 -4.01125,1.98625 -4.01125,4.45875 0,2.2475 1.62625,4.22875 4.01125,4.22875 2.59375,0 4.1625,-2.18625 4.1625,-4.60125 0,-2.4375 -1.6975,-4.08625 -4.1625,-4.08625 m 0.3375,8.1425 c -1.765,0 -2.66,-2.06375 -2.63875,-4.6925 0,-1.62125 0.705,-2.9 2.0775,-2.9 2.1225,0 2.68875,2.74 2.68875,4.41375 0,1.61625 -0.6725,3.17875 -2.1275,3.17875" />
      <path
         id="path3910"
         style="fill:#8e8b78;fill-opacity:1;fill-rule:nonzero;stroke:none"
         d="m -593.95185,0.54984 c 0,-1.41125 -0.16125,-1.39 -1.16375,-1.33625 l 0,-0.255 2.73875,-0.87375 0,1.485 c 0.675,-0.72125 1.5325,-1.485 2.845,-1.485 1.4525,0 2.17375,1 2.17375,2.98625 l 0,4.02375 c 0,0.815 0.27875,1.1525 1.175,1.23 l 0,0.255 -3.9175,0 0,-0.255 c 0.89125,-0.0775 1.17125,-0.415 1.17125,-1.23 l 0,-3.9825 c 0.0125,-1.0825 -0.095,-2.04625 -1.41375,-2.04625 -0.895,0 -1.5625,0.59375 -2.03375,1.07375 l 0,4.955 c 0,0.815 0.28,1.1525 1.17375,1.23 l 0,0.255 -3.9125,0 0,-0.255 c 0.885,-0.0775 1.16375,-0.415 1.16375,-1.23" />
      <path
         id="path3914"
         style="fill:#8e8b78;fill-opacity:1;fill-rule:nonzero;stroke:none"
         d="m -578.5506,1.46484 c -0.0587,-1.9275 -1.26,-3.38 -3.26125,-3.38 -2.30375,0 -3.77375,1.90375 -3.77375,4.52875 0,2.20125 1.3725,4.155 3.50875,4.155 1.855,0 3.29875,-1.4475 3.875,-3.11375 l -0.29625,-0.11875 c -0.56875,1.02125 -1.5925,1.985 -2.8225,1.985 -2.08625,0 -2.98,-2.29625 -2.99375,-4.05625 l 5.76375,0 z m -5.7025,-0.57875 c 0.1625,-1.185 0.735,-2.15625 2.0275,-2.15625 1.225,0 1.73125,1.07 1.785,2.15625" />
      <path
         id="path3918"
         style="fill:#8e8b78;fill-opacity:1;fill-rule:nonzero;stroke:none"
         d="m -572.78185,5.09484 c 0,0.53375 -0.27625,1.13625 -1.63625,1.13625 l 0,0.34875 5.15,0 0,-0.34875 c -1.35125,0 -1.6225,-0.6025 -1.6225,-1.13625 l 0,-3.97875 c 0.53375,0.05375 1.06625,0.09 1.5975,0.09 2.37125,0 4.69875,-0.93125 4.69875,-3.67 0,-2.18625 -2.2225,-3.21625 -5.065,-3.21625 l -4.6725,0 0,0.34875 c 1.27375,0 1.55,0.59125 1.55,1.12375 l 0,9.3025 z m 1.89125,-9.24125 c 0,-0.7575 0.0325,-0.8525 0.80375,-0.8525 1.77625,0 3.46625,0.58625 3.46625,2.68125 0,2.15375 -1.3775,2.815 -3.37125,2.815 -0.29625,0 -0.61125,-0.0375 -0.89875,-0.05375" />
      <path
         id="path3922"
         style="fill:#8e8b78;fill-opacity:1;fill-rule:nonzero;stroke:none"
         d="m -562.78935,0.60359 c 0,-1.46 -0.22625,-1.575 -1.41375,-1.27625 l 0,-0.2625 2.98625,-0.97875 0,7.00875 c 0,0.81625 0.2725,1.1525 1.4,1.23 l 0,0.25375 -4.38625,0 0,-0.25375 c 1.13375,-0.0775 1.41375,-0.41375 1.41375,-1.23 l 0,-4.49125 z m -0.3025,-5.685 c 0,-0.52 0.43125,-0.94625 0.94125,-0.94625 0.52125,0 0.9525,0.42625 0.9525,0.94625 0,0.525 -0.43125,0.94375 -0.9525,0.94375 -0.51,0 -0.94125,-0.41875 -0.94125,-0.94375" />
      <path
         id="path3926"
         style="fill:#8e8b78;fill-opacity:1;fill-rule:nonzero;stroke:none"
         d="m -552.16935,3.83609 c -0.7625,1.59875 -1.805,2.93625 -3.70875,2.93625 -2.00625,0 -3.4625,-1.84625 -3.4625,-4.14625 0,-2.4125 1.3825,-4.5375 4.13875,-4.5375 1.06875,0 2.695,0.55875 2.76375,1.82625 0,0.43875 -0.40125,0.81625 -0.82625,0.81625 -0.42375,0 -0.84125,-0.41125 -0.84125,-0.81625 0,-0.7425 -0.44625,-1.28375 -1.42375,-1.28375 -1.61,0 -2.38875,1.68875 -2.38875,3.23125 0,1.71125 0.9575,3.62625 2.8725,3.62625 1.19625,0 2.00125,-0.8525 2.6075,-1.80875" />
      <path
         id="path3930"
         style="fill:#8e8b78;fill-opacity:1;fill-rule:nonzero;stroke:none"
         d="m -548.87935,3.87609 c 0,1.375 0.18625,2.26875 1.355,1.805 0.28375,-0.11125 0.4925,-0.3325 0.685,-0.5575 l 0.23875,0.20875 c -0.685,0.89 -1.5,1.44 -2.38625,1.44 -1.23125,0 -1.51,-0.755 -1.47625,-2.58 l 0,-5.33125 -0.5425,0 c -0.2275,0 -0.6525,0.11 -0.49,-0.275 1.0325,-0.7025 1.74875,-1.7325 2.61625,-2.7525 l 0,2.44875 1.8375,0 0,0.57875 -1.8375,0" />
      <path
         id="path3934"
         style="fill:#8e8b78;fill-opacity:1;fill-rule:nonzero;stroke:none"
         d="m -538.71185,4.39359 c 0,0.96375 0.07,1.31625 1.145,1.28375 l 0,0.25875 c -0.725,0.2175 -1.73125,0.545 -2.61,0.83625 l 0,-1.57875 -0.39375,0.4225 c -0.4,0.4425 -1.17,1.15625 -2.37625,1.15625 -1.48875,0 -2.1775,-1.025 -2.1775,-2.625 l 0,-4.25375 c 0,-1.11625 -0.13875,-1.3575 -1.15625,-1.3575 l 0,-0.25375 2.73875,0 0,5.795 c 0,0.9275 0.37625,1.6325 1.39125,1.6325 0.50625,0 1.06125,-0.275 1.44375,-0.59125 0.53,-0.43 0.42,-0.65125 0.42,-1.30375 l 0,-3.88 c 0,-1.1575 -0.11375,-1.37875 -1.3575,-1.39875 l 0,-0.25375 2.9325,0" />
      <path
         id="path3938"
         style="fill:#8e8b78;fill-opacity:1;fill-rule:nonzero;stroke:none"
         d="m -535.4406,1.05859 c 0,-1.78 -0.27875,-2.00125 -1.3925,-1.68875 l 0,-0.29625 2.96375,-0.98375 0,1.6775 c 0.37125,-0.63625 1.18875,-1.6775 2.1225,-1.6775 0.70375,0 1.13875,0.43 1.0275,1.23 -0.0563,0.38125 -0.3775,0.575 -0.7625,0.575 -0.64875,0 -0.77375,-0.65625 -1.2375,-0.65625 -0.3675,0 -1.15,0.91 -1.15,1.4475 l 0,4.4175 c 0,0.8075 0.27875,1.14375 1.39625,1.2225 l 0,0.25375 -4.36,0 0,-0.25375 c 1.11375,-0.07875 1.3925,-0.415 1.3925,-1.2225" />
      <path
         id="path3942"
         style="fill:#8e8b78;fill-opacity:1;fill-rule:nonzero;stroke:none"
         d="m -523.6406,1.46484 c -0.0575,-1.9275 -1.25875,-3.38 -3.26375,-3.38 -2.29375,0 -3.76625,1.90375 -3.76625,4.52875 0,2.20125 1.37375,4.155 3.50875,4.155 1.85375,0 3.2975,-1.4475 3.87875,-3.11375 l -0.31,-0.11875 c -0.56375,1.02125 -1.5925,1.985 -2.8125,1.985 -2.08875,0 -2.98,-2.29625 -2.9925,-4.05625 l 5.7575,0 z m -5.7125,-0.57875 c 0.17,-1.185 0.7475,-2.15625 2.0375,-2.15625 1.23125,0 1.73625,1.07 1.78375,2.15625" />
      <path
         id="path3946"
         style="fill:#8e8b78;fill-opacity:1;fill-rule:nonzero;stroke:none"
         d="m -522.20935,3.74984 0.3225,0 c 0.22,1.34 0.87125,2.60375 2.4075,2.60375 0.80375,0 1.47875,-0.50375 1.47875,-1.34125 0,-1.95125 -4.20875,-2.02625 -4.20875,-4.65125 0,-1.4475 1.22625,-2.27625 2.60125,-2.27625 0.40125,0 0.76625,0.1075 1.37375,0.32875 0.6025,0.205 0.64375,-0.0775 0.68125,-0.16375 l 0.24375,0 0,2.52625 -0.30625,0 c -0.32375,-1.285 -0.78875,-2.2725 -2.02625,-2.2725 -0.70875,0 -1.4125,0.4475 -1.4125,1.21 0,1.86625 4.35,2.23125 4.35,4.5775 0,1.60375 -1.25375,2.48125 -2.75,2.48125 -0.52375,0 -0.84375,-0.1275 -1.34375,-0.275 -1.0825,-0.3125 -1.105,-0.01625 -1.14375,0.13125 l -0.2675,0" />
      <path
         id="path3950"
         style="fill:#15569b;fill-opacity:1;fill-rule:nonzero;stroke:none"
         d="m -589.2106,-5.12641 c 8.8475,0 14.87,-5.84375 14.87,-12.93625 0,-2.65875 -1.08625,-5.32375 -2.635,-7.4525 -0.0525,-0.0575 -12.45125,13.855 -13.55375,15.09375 -1.16375,1.3125 -2.78,3.31 -2.79625,2.8175 -0.015,-0.8275 0.5475,-0.94375 1.47625,-2.445 0.1825,-0.27375 -0.025,-0.80375 0.16,-1.08625 1.345,-2.1 2.6725,-4.33125 2.4725,-4.5075 -0.59625,-0.55 -4.70375,5.52 -5.15125,5.2125 -0.60875,-0.4225 1.37375,-2.12875 1.3625,-2.48875 -0.0175,-0.20125 -0.30375,-0.4075 -0.3325,-0.59875 -0.12375,-0.78 2.15125,-2.6625 1.9725,-2.58 -0.16125,0.07375 2.06125,-2.42875 2.625,-2.85125 0.3825,-0.2875 1.19,-0.4675 1.05875,-0.3975 -0.15125,0.0775 2.27,-1.415 2.13875,-1.35 -0.48,0.235 1.675,-2.46 1.42125,-2.62 -0.34375,-0.1975 -3.2125,3.15875 -3.5025,3.28125 -0.665,0.2825 2.7675,-4.5825 2.815,-4.68 2.1,-4.545 -3.59875,2.46875 -3.935,2.165 -1.52375,-1.345 5.66,-4.585 3.0025,-6.31125 -1.44375,-0.93625 0.22625,-2.05625 -0.36125,-2.19875 -1.3025,-0.31625 -1.85,-0.3325 -3.31625,-0.3325 -8.83625,0 -15.085,6.14 -15.085,13.2275 0,7.09125 6.4575,13.03875 15.29375,13.03875" />
      <path
         id="path3954"
         style="fill:#fcd213;fill-opacity:1;fill-rule:nonzero;stroke:none"
         d="m -586.70185,-21.20016 c 0.25,-0.3775 0.775,-0.9275 1.49875,-1.78875 0.54375,-0.505 1.17375,-1.11625 1.26625,-1.38625 0.3175,-0.6525 -1.21125,0.25 -0.4175,-0.66 0.0312,-0.12375 0.2625,-0.0125 0.35125,-0.16 0.31375,-0.1725 1.25375,-2.09625 1.5675,-2.35875 0.74375,-0.80375 -0.6125,1.465 -0.29875,1.65 0.0888,0.1875 0.2625,-0.26 0.77375,-0.6325 0,0 0.025,-0.13125 0.0937,-0.185 0.06,0 0.06,0.16375 0.06,0.05375 l 0.35125,-0.4475 c 0.0775,-0.11 0.7075,-0.89375 0.7075,-0.89375 0.185,-0.20125 0.51625,-0.4225 0.7275,-0.72625 0,0 0.96375,-0.72625 0.96375,-0.96875 l 0.5075,-0.44625 c 0.125,-0.0575 0.40875,-0.44625 0.61125,-0.44625 l -0.04,-0.05875 c 0.1175,0.07375 0.8125,-0.8 1.0375,-1.02125 -0.07,-0.19625 0.0125,0.185 0.0612,0.185 0.045,0 0.105,-0.0125 0.4375,-0.8575 l 0.0388,0.0375 c 0,0 0.21625,-0.31625 0.25625,-0.51625 0,0 0.055,-0.09875 0.145,-0.19375 0.155,-0.01625 0.12875,-1.04625 0.2675,-1.29125 0.0512,-0.18125 0.0287,0.3725 0.3075,0.25 0.1825,-0.08625 0.7075,-0.78375 0.7775,-1.005 0.0638,-0.39375 -0.0225,-0.72625 0.28875,-0.98875 0.12125,-0.13875 0.255,0.25 0.69375,-0.26625 0.5775,-0.7675 1.38125,-1.03875 0.925,-1.53875 -0.07,-0.12625 0.17,-0.42625 0.3625,-0.6275 0.0937,-0.13125 0.0412,-0.435 0.11875,-0.6975 0.20125,-0.3725 -1.02375,0 -1.26875,0.25 -0.33125,0.41875 -2.51875,3.15875 -3.15625,3.71375 -0.78,0.885 -1.6125,1.81625 -2.47125,2.46375 -0.565,0.4675 0.21375,0.7675 0.15125,0.82875 -0.3225,0.07 -0.955,0.5825 -1.16375,0.79625 l -0.13,0.385 c -0.025,-0.02 -0.0362,0.09375 -0.0362,0.09375 -0.18875,0.3575 -0.72875,0.43125 -0.7675,0.95125 l -0.37875,0.42 -0.5175,0.64375 c -0.1475,0.20875 -0.4,-0.05875 -0.5325,0.32 -0.13125,0.3225 -0.585,0.59375 -0.585,0.59375 -0.31,0.22625 0.29875,-0.8325 0.29875,-0.8325 -0.055,-0.02375 -0.29125,-0.045 -0.78125,0.45625 -0.075,0.24125 -1.155,1.46375 -1.155,1.43125 -0.225,0.1475 0.31625,0.135 0.1225,0.31125 l -0.2,-0.0038 c -0.14875,0.36875 -0.10625,-0.07875 -0.25375,0.3075 -0.0538,-0.0125 -0.2875,0.57 -0.36875,0.60625 -0.2625,-0.1475 -2.5275,3.0725 -2.9825,2.86375 -0.14125,0 2.79375,-3.53625 2.77875,-3.58875 0.0475,-0.12 0.14125,-0.14375 0.14125,-0.14375 l 0.13125,-0.09 c 0.2675,-0.4025 0.32,-0.545 0.7,-0.91875 0.17875,-0.16875 0.21875,-0.545 0.4625,-0.62 0,0 0.71875,-0.41 0.70125,-0.5125 0.20375,-0.0088 0.7875,-1.23 1.01625,-1.1525 0,0 0.42,-0.25875 0.63875,-0.90625 0,0 0.31625,-0.32 0.31625,-0.53 -0.0387,-0.3275 -0.25625,-0.105 -0.20875,-0.43 0,0 0.30375,-0.4025 0.43875,-0.48 0,0 0.79125,-1.11625 0.9125,-0.96 0.1225,0.16 0.0675,0.44375 0.0675,0.44375 0.2175,0.09 0.57375,-0.55 0.77375,-0.62375 0,0 0.21875,-0.615 0.63875,-0.87375 l 0.1425,-0.31125 c 0.0675,-0.3 -0.79625,0.43375 -0.905,0.34375 -0.145,-0.24625 -1.08125,0.62375 -1.6,1.4025 -0.28375,0.5575 -0.2,-0.52 -0.59375,-0.17125 0,0 -1.44125,1.2425 -1.38875,1.78375 -0.10625,0.1475 -0.32625,0.38125 -0.285,0.55 -0.26875,0.33625 -0.37875,0.81125 -0.765,0.81125 l -1.63625,1.625 -0.85875,1.00875 c -0.06,0.11 -0.63875,0.2175 -0.745,0.27125 -0.25125,0.52875 -0.63,0.36375 -0.91875,0.8325 l -0.5675,0.53625 c -0.1675,0.46 -0.34375,0.6725 -0.4475,0.54125 0.0325,0.205 -0.4375,0.2225 -0.4125,0.54625 l -0.0412,-0.06125 c -0.10875,0.0725 0.06,0.275 -0.13125,0.1475 -0.2625,0.22125 -0.5575,0.3975 -0.7625,0.74625 -0.0188,-0.01625 -0.0575,-0.02875 -0.0575,-0.07 l -0.44125,0.47625 c -0.63875,0.4875 -0.93375,1.23375 -1.48,1.61125 -0.22625,0.6075 -1.02875,1.1375 -1.5125,1.69 -0.4425,0.485 -0.88125,0.89875 -0.57,1.055 0.3525,-0.21375 0.80875,-0.88625 0.915,-0.78375 0.1,-0.03625 -0.10625,0.27875 0.0163,0.30375 -0.0625,0.225 -0.03,0.5075 0.3125,0.245 0.335,-0.2575 0.815,-0.8475 0.93875,-0.99625 0.4,-0.135 0.115,0.3125 0.21625,0.25 l 0.14625,0.045 c 0.1875,-0.0775 0.6675,-0.57 1.02,-0.95125 0.73125,-0.845 0.53375,-0.2125 0.75875,-0.415 l 0.12875,-0.0775 c 0.91875,0.32 1.09625,-1.09875 1.9375,-1.0375 -0.185,0.7425 -1.35125,1.67875 -1.16375,2.00125 0.0862,0.2025 1.05625,-0.50375 1.095,-0.54125 0.355,-0.1875 0.75875,-0.63125 1.47625,-0.9475 0,0 0.16625,0.43125 0.40625,0.3125" />
      <path
         id="path3958"
         style="fill:#fcd213;fill-opacity:1;fill-rule:nonzero;stroke:none"
         d="m -582.7506,-21.69266 c -0.26,0.23 -0.32125,-0.205 -0.32125,-0.205 l -0.92625,1.50875 -2.0525,2.8875 c 0,0 -2.6725,3.45 -2.565,3.60625 0.24625,0.34 1.30625,-1.0625 1.0875,-0.3775 -0.0525,0.14375 -1.24,1.23375 -1.4575,1.365 -0.2225,0.13625 -0.22375,0.19 -0.31625,0.37375 -0.0988,0.18875 -0.335,0.485 -0.50125,0.67625 -0.14625,0.19375 -0.265,0.34875 -0.265,0.34875 0,0 -0.2475,-0.22125 -0.6025,-0.0275 -0.1925,0.23625 -1.11,1.64375 -1.265,1.48875 -0.17,-0.1725 0,-0.775 0.7425,-1.95625 -0.5575,-0.40625 -1.3925,1.1025 -1.3925,1.11 0.0113,-0.0275 -1.1175,0.205 -1.13,0.19 -0.0788,0.11 -0.29,0.2825 -0.29,0.2825 -0.1075,0.275 -0.3825,0.22125 -0.47875,0.3475 0.1175,0.185 -0.355,0.3425 -0.355,0.39125 l -0.0575,-0.03375 c -0.06,0.02125 -0.0338,0.07 -0.0338,0.13125 -0.06,0 -0.10125,-0.02 -0.13125,0.0375 -0.0712,0.21625 -0.23625,0.10625 -0.36375,0.275 0.009,-0.0325 -0.0237,-0.07375 -0.045,-0.09125 -0.0375,0.0325 -0.0375,-0.2575 -0.22375,-0.04 l -0.0325,-0.2175 -0.10125,0.07375 c -0.045,-0.1475 0.32,-0.75 0.45125,-1.025 l 0.2225,-0.2475 0.2225,-0.18375 c -0.0437,-0.2625 0.17875,-0.14375 0.10625,-0.4225 0.335,-0.11 0.2825,-0.15125 0.34125,-0.49625 0.16375,0.02875 0.0525,-0.2375 0.0962,-0.2175 -0.23625,-0.11125 0.29125,-0.1475 0.0675,-0.35625 0.15375,-0.31625 0.47,-0.42375 0.53875,-0.76 0.0662,0.03375 0.0788,0.11125 0.1375,0.09125 0.14875,-0.43875 0.20375,-1.13625 0.595,-1.37375 -0.07,-0.36125 0.4575,-0.5375 0.48,-0.825 0.17125,-0.0525 0.62125,-0.44625 0.8675,-0.70875 l 0.035,0.04125 c 0.2025,-0.52125 0.4825,-1.04375 1.0275,-1.1575 0.18,0.11375 1.2125,0.17625 1.23875,-0.0625 0.135,-0.2825 -1.085,-0.56125 -0.76125,-0.525 -0.0263,-0.20875 0.46625,-0.68 0.54125,-0.93875 0.3325,-0.20375 0.76125,-0.8275 1.16,-0.77 l 0.1525,0.40125 c 0.0925,0.025 0.265,0.165 0.49125,0.0375 l 0.43,-0.43875 c -0.13375,0.03625 -0.23875,-0.3125 -0.7975,-0.07125 0,-0.2575 -0.105,-0.4425 0.085,-0.68 l 0.13375,-0.12 c 0.13125,-0.29875 0.6325,-0.24125 0.72625,-0.50375 l 0.13125,0.77875 1.04,-0.385 c 0.77875,-0.59875 0.39625,-1.32875 1.315,-2.19 l 0.4075,-0.09875 c 0.33875,-0.27125 0.52625,-0.7575 0.95625,-0.84875 0.265,-0.29875 0.84875,-1.075 1.19875,-0.94375 -0.0175,0.14875 -1.7675,2.44875 -1.5375,2.95 0.31125,-0.295 2.92,-3.9675 3.405,-3.72875 0.24125,0.35625 -1.095,1.59125 -1.15125,1.89125 0.94875,-0.63625 -1.03375,1.2675 -1.03375,1.2675 0,0 0.01,0.2625 -0.2425,0.475" />
      <path
         id="path3962"
         style="fill:#fcd213;fill-opacity:1;fill-rule:nonzero;stroke:none"
         d="m -585.2031,-32.00391 c -0.215,0.2625 1.76,-2.02625 1.96875,-2.05875 0,0 0.20125,-0.3575 0.47375,-0.57 0.26625,-0.21375 -0.14125,0.68125 -0.12125,0.69625 0.44625,0.295 0.72,-1.17625 1.075,-1.47625 0.29,-0.0525 0.57,-0.51625 0.57,-0.51625 0.2425,-0.26625 0.0788,-0.31125 0.39375,-0.57375 0,0.03625 0.1175,-0.21 0.16625,-0.19375 0.3925,-0.54125 0.315,-0.25875 0.8075,-0.775 0.41125,-0.27125 0.0238,0.17625 0.009,0.38125 -0.20875,0.2425 -0.36125,0.7425 -0.41625,0.70625 -0.21625,0.525 -0.27625,0.91375 -0.515,0.9675 0.07,0.43 0.07,0.01625 -0.4625,0.6275 -0.405,0.64 -0.49125,0.75875 -0.93,1.25875 -0.1225,0.4025 -0.25625,0.32125 -0.5025,0.7875 l -0.79125,0.72625 c -0.23625,0.32 -0.3025,0.095 -1.03,1.2175 -0.23,0.34875 -0.91,1.39875 -1.19125,1.3125 -0.10375,0.13125 -1.27,1.855 -1.37375,1.715 -0.54375,-0.7175 -1.32125,2.05875 -1.9525,1.6325 0.35,-1.17625 -0.81875,0.595 -1.32875,0.1725 l 0.32625,-0.5575 c -0.02,-0.115 0.49625,-0.48 0.49625,-0.48 -0.003,0.01625 0.31375,-0.1925 0.29125,-0.185 0,0 0.35375,-0.63875 0.5475,-0.83625 0,0.04875 0.25625,-0.095 0.25625,-0.095 -0.0362,-0.435 0.50625,-0.68875 0.585,-0.67125 0.21875,-0.1525 0.0712,-0.46875 0.41125,-0.4525 l 0.0825,-0.06875 c 0.0838,-0.415 0.75875,-1.0475 0.75875,-1.0475 0,0 1.6175,-1.90625 1.39625,-1.64375" />
      <path
         id="path3966"
         style="fill:#fcd213;fill-opacity:1;fill-rule:nonzero;stroke:none"
         d="m -581.47435,-22.28766 c 1.08,-1.41875 1.35125,-2.21 2.41,-2.895 0.315,-0.6725 0.95125,-1.025 1.47375,-1.5675 0.0388,-0.06875 1.14875,-1.40625 1.33125,-1.1725 0.1825,0.2325 -0.9225,1.67625 -0.9225,1.67625 l -0.0537,0 c 0.0163,0.28 -0.20875,0.18125 -0.31625,0.57875 l -0.0388,-0.06 c -0.0325,0.2625 -0.26,0.22125 -0.355,0.4175 0.0175,-0.045 -0.0163,-0.065 -0.055,-0.09875 -0.32125,0.275 -0.595,0.8825 -0.9,1.11625 l -0.25625,0.45125 c 0.28375,0.07375 0.4075,0.07 0.34625,0.25375 -0.125,0.2225 -0.36375,0.21375 -0.55375,0.61625 l -0.24625,0.58125 c 0,0 -0.20875,0.48375 -0.30625,0.5175 -0.11125,0.045 -0.10375,-0.09 -0.10375,-0.09 -0.1025,0.35625 -0.62125,-0.0375 -0.66375,0.35625 -0.1575,0.01625 -0.35125,0.77125 -0.5425,0.93875 0.0175,-0.04 -0.37625,0.3125 -0.37625,0.3125 l -0.15625,0.34 c -0.14,0.18875 -0.1625,-0.135 -0.43125,0.33625 -0.28,0.02125 -0.2,0.3075 -0.3425,0.12 -0.20875,0.315 -1.32125,1.04125 -1.67875,1.1025 -0.14125,-0.525 0.79,-2.1825 1.11875,-2.58" />
    </g>
  </g>
</svg>
