<?xml version="1.0" encoding="UTF-8" standalone="no"?>
<!-- Created with Inkscape (http://www.inkscape.org/) -->

<svg
   xmlns:dc="http://purl.org/dc/elements/1.1/"
   xmlns:cc="http://creativecommons.org/ns#"
   xmlns:rdf="http://www.w3.org/1999/02/22-rdf-syntax-ns#"
   xmlns:svg="http://www.w3.org/2000/svg"
   xmlns="http://www.w3.org/2000/svg"
   xmlns:sodipodi="http://sodipodi.sourceforge.net/DTD/sodipodi-0.dtd"
   xmlns:inkscape="http://www.inkscape.org/namespaces/inkscape"
   width="184.98199"
   height="25.413"
   viewBox="0 0 48.943153 6.7238562"
   version="1.1"
   id="svg2729"
   inkscape:version="0.92.0 r15299"
   sodipodi:docname="hotel tonight.svg">
  <defs
     id="defs2723" />
  <sodipodi:namedview
     id="base"
     pagecolor="#ffffff"
     bordercolor="#666666"
     borderopacity="1.0"
     inkscape:pageopacity="0.0"
     inkscape:pageshadow="2"
     inkscape:zoom="4.875477"
     inkscape:cx="91.990999"
     inkscape:cy="12.2065"
     inkscape:document-units="mm"
     inkscape:current-layer="layer1"
     showgrid="false"
     fit-margin-top="0"
     fit-margin-left="0"
     fit-margin-right="0"
     fit-margin-bottom="0"
     units="px"
     inkscape:window-width="1280"
     inkscape:window-height="744"
     inkscape:window-x="-4"
     inkscape:window-y="-4"
     inkscape:window-maximized="1" />
  <metadata
     id="metadata2726">
    <rdf:RDF>
      <cc:Work
         rdf:about="">
        <dc:format>image/svg+xml</dc:format>
        <dc:type
           rdf:resource="http://purl.org/dc/dcmitype/StillImage" />
        <dc:title></dc:title>
      </cc:Work>
    </rdf:RDF>
  </metadata>
  <g
     inkscape:label="Layer 1"
     inkscape:groupmode="layer"
     id="layer1"
     transform="translate(155.11904,-245.12483)">
    <g
       id="g2733"
       transform="matrix(0.26458333,0,0,0.26458333,-155.00448,245.07985)"
       style="fill:#000000;fill-rule:nonzero">
      <path
         id="path2731"
         d="M 3.99,9.774 V 0.67 H 0.067 V 20.276 H 3.99 v -6.547 h 35.255 v 6.547 h 3.921 V 9.774 Z m 52.098,1.944 h 6.682 v 8.49 h 3.103 V 0.67 H 62.77 V 8.956 H 56.088 V 0.67 h -3.103 v 19.537 h 3.103 z m 17.525,8.728 c 3.068,0 4.944,-1.91 4.944,-5.046 v -4.092 c 0,-3.102 -1.876,-5.08 -4.944,-5.08 -3.103,0 -4.978,1.978 -4.978,5.08 V 15.4 c 0,3.137 1.875,5.046 4.978,5.046 z m -2.25,-9.683 c 0,-1.364 0.784,-2.353 2.25,-2.353 1.432,0 2.216,0.955 2.216,2.353 v 5.08 c 0,1.398 -0.784,2.353 -2.216,2.353 -1.466,0 -2.25,-0.955 -2.25,-2.353 z m 10.944,4.944 c 0,2.08 0.17,3.341 0.784,4.5 h 2.967 c -0.75,-1.295 -0.955,-2.693 -0.955,-4.5 V 8.922 h 2.216 V 6.672 H 85.103 V 3.227 l -2.66,0.852 V 6.67 h -1.977 v 2.25 h 1.841 v 6.786 z m 11.9,4.739 c 3.102,0 4.705,-1.841 4.705,-4.944 v -0.17 h -2.455 v 0.545 c 0,1.398 -0.784,2.353 -2.25,2.353 -1.466,0 -2.25,-0.955 -2.25,-2.353 v -2.114 h 6.989 v -2.455 c 0,-3.102 -1.603,-5.08 -4.705,-5.08 -3.103,0 -4.944,1.978 -4.944,5.08 V 15.4 c -0.068,3.137 1.773,5.046 4.91,5.046 z m -2.285,-9.683 c 0,-1.364 0.784,-2.353 2.25,-2.353 1.467,0 2.25,0.955 2.25,2.353 v 0.852 h -4.5 z M 101.401,0.67 h 2.83 v 19.537 h -2.83 z m 12.343,19.537 h 3.102 V 3.5 h 4.774 V 0.67 H 109.004 V 3.5 h 4.74 z m 7.296,-4.841 c 0,3.137 1.875,5.046 4.978,5.046 3.069,0 4.944,-1.91 4.944,-5.046 v -4.092 c 0,-3.102 -1.875,-5.08 -4.944,-5.08 -3.103,0 -4.978,1.978 -4.978,5.08 z m 2.728,-4.603 c 0,-1.364 0.784,-2.353 2.25,-2.353 1.432,0 2.216,0.955 2.216,2.353 v 5.08 c 0,1.398 -0.784,2.353 -2.216,2.353 -1.466,0 -2.25,-0.955 -2.25,-2.353 z m 12.649,1.193 c 0,-1.023 0.92,-3.58 2.626,-3.58 1.159,0 1.943,0.818 1.943,2.182 v 9.65 h 2.83 v -9.684 c 0,-2.557 -1.33,-4.296 -3.887,-4.296 -1.67,0 -2.898,0.989 -3.819,3.41 l -0.204,-3.171 h -2.285 v 13.74 h 2.83 l -0.034,-8.25 z m 10.195,-5.455 h 2.83 v 13.741 h -2.83 z m 0.068,-5.183 h 2.625 v 2.796 h -2.625 z m 10.433,23.765 c 3.444,0 5.558,-2.012 5.558,-4.296 V 20.48 c 0,-1.91 -1.5,-3.239 -4.944,-3.239 -2.83,0 -3.58,-0.511 -3.58,-1.193 0,-0.478 0.546,-1.16 1.364,-1.16 0.239,0.069 1.16,0.17 1.432,0.17 2.932,0 4.841,-1.772 4.841,-4.295 V 10.49 c 0,-1.057 -0.477,-2.08 -1.432,-2.864 0.41,0.273 0.819,0.239 1.16,0.239 0.716,0 1.534,-0.512 1.534,-1.807 0,-0.307 0,-0.58 -0.102,-1.262 h -1.91 c 0,0.955 -0.375,1.739 -1.773,1.739 -0.306,0 -0.954,-0.375 -2.284,-0.375 -2.66,0 -4.808,1.977 -4.808,4.466 v 0.103 c 0,1.636 0.75,3 2.046,3.682 -1.295,0.205 -2.352,1.296 -2.352,2.319 0,0.954 0.716,1.84 2.284,2.182 -1.841,0.409 -2.625,1.295 -2.625,2.523 v 0.17 c -0.069,2.114 2.489,3.478 5.591,3.478 z M 154.59,10.661 c 0,-1.296 0.887,-2.421 2.319,-2.421 1.432,0 2.318,1.125 2.318,2.42 v 0.103 c 0,1.295 -0.886,2.42 -2.318,2.42 -1.432,0 -2.319,-1.125 -2.319,-2.42 z m -0.648,10.33 c 0,-0.92 0.955,-1.568 3.171,-1.568 2.421,0 3.035,0.58 3.035,1.5 v 0.17 c 0,0.921 -0.818,1.842 -3.035,1.842 -2.216,0 -3.17,-0.852 -3.17,-1.773 v -0.17 z m 13.809,-9.035 c 0,-1.023 0.92,-3.58 2.626,-3.58 1.159,0 1.943,0.818 1.943,2.182 v 9.65 h 2.83 v -9.684 c 0,-2.557 -1.364,-4.296 -3.614,-4.296 -1.432,0 -3.035,0.887 -3.785,2.898 V 0.67 h -2.83 v 19.537 h 2.83 v -8.25 z m 11.286,3.751 c 0,2.08 0.17,3.341 0.784,4.5 h 2.966 c -0.716,-1.295 -0.954,-2.693 -0.954,-4.5 V 8.922 h 2.216 v -2.25 h -2.216 V 3.227 l -2.66,0.852 V 6.67 h -2.011 v 2.25 h 1.84 l 0.035,6.786 z"
         inkscape:connector-curvature="0"
         style="fill:#000000" />
    </g>
  </g>
</svg>
