<?xml version="1.0" encoding="UTF-8" standalone="no"?>
<!-- Created with Inkscape (http://www.inkscape.org/) -->

<svg
   xmlns:dc="http://purl.org/dc/elements/1.1/"
   xmlns:cc="http://creativecommons.org/ns#"
   xmlns:rdf="http://www.w3.org/1999/02/22-rdf-syntax-ns#"
   xmlns:svg="http://www.w3.org/2000/svg"
   xmlns="http://www.w3.org/2000/svg"
   xmlns:sodipodi="http://sodipodi.sourceforge.net/DTD/sodipodi-0.dtd"
   xmlns:inkscape="http://www.inkscape.org/namespaces/inkscape"
   width="1000"
   height="432.5097"
   id="svg2"
   version="1.1"
   inkscape:version="0.48.2 r9819"
   sodipodi:docname="A.svg">
  <defs
     id="defs4" />
  <sodipodi:namedview
     id="base"
     pagecolor="#ffffff"
     bordercolor="#666666"
     borderopacity="1.0"
     inkscape:pageopacity="0.0"
     inkscape:pageshadow="2"
     inkscape:zoom="0.40700072"
     inkscape:cx="623.42721"
     inkscape:cy="-186.61207"
     inkscape:document-units="px"
     inkscape:current-layer="layer1"
     showgrid="false"
     fit-margin-left="0.5"
     fit-margin-bottom="0.5"
     fit-margin-top="0.5"
     fit-margin-right="0.5"
     inkscape:window-width="1060"
     inkscape:window-height="1041"
     inkscape:window-x="853"
     inkscape:window-y="-21"
     inkscape:window-maximized="0">
    <inkscape:grid
       type="xygrid"
       id="grid2996"
       empspacing="5"
       visible="true"
       enabled="true"
       snapvisiblegridlinesonly="true" />
  </sodipodi:namedview>
  <metadata
     id="metadata7">
    <rdf:RDF>
      <cc:Work
         rdf:about="">
        <dc:format>image/svg+xml</dc:format>
        <dc:type
           rdf:resource="http://purl.org/dc/dcmitype/StillImage" />
        <dc:title></dc:title>
      </cc:Work>
    </rdf:RDF>
  </metadata>
  <g
     inkscape:label="Layer 1"
     inkscape:groupmode="layer"
     id="layer1"
     transform="translate(-186.78419,-1561.0133)">
    <path
       style="fill:#000000;stroke:none"
       d="m 233.97547,1993.023 c -25.20682,0 -46.69128,-15.8211 -46.69128,-51.6828 0,-55.361 47.64151,-97.4029 69.25699,-109.293 0,0 30.24262,17.4218 61.61748,28.6328 -62.33909,-39.4415 -102.17337,-111.3037 -102.17337,-191.0644 0,-74.5411 39.34556,-108.1023 74.86905,-108.1023 28.57681,0 96.32649,31.4361 96.32649,152.0635 0,129.7996 -67.72984,279.4462 -153.20536,279.4462 z"
       id="path3011"
       inkscape:connector-curvature="0"
       sodipodi:nodetypes="cccccccc" />
    <g
       transform="matrix(9.2157808,0,0,9.2157808,-2680.7304,-5001.9425)"
       style="font-size:40px;font-style:normal;font-weight:normal;line-height:125%;letter-spacing:0px;word-spacing:0px;fill:#000000;fill-opacity:1;stroke:none;font-family:Sans"
       id="flowRoot3013">
      <path
         d="m 383.60937,749.65785 -3.20312,0 0,-11.48438 c -3e-5,-2.21353 -0.34182,-3.81509 -1.02539,-4.80469 -0.68362,-0.98956 -1.83271,-1.48435 -3.44727,-1.48437 -1.36721,2e-5 -2.52931,0.62502 -3.48632,1.875 -0.95706,1.25001 -1.43557,2.74741 -1.43555,4.49219 l 0,11.40625 -3.20313,0 0,-11.875 c -10e-6,-3.93228 -1.51694,-5.89842 -4.55078,-5.89844 -1.40626,2e-5 -2.56511,0.58921 -3.47656,1.76758 -0.91147,1.1784 -1.36719,2.7116 -1.36719,4.59961 l 0,11.40625 -3.20312,0 0,-20 3.20312,0 0,3.16406 0.0781,0 c 1.41926,-2.42186 3.48957,-3.63279 6.21093,-3.63281 1.36718,2e-5 2.55858,0.38088 3.57422,1.14257 1.01561,0.76174 1.71223,1.76109 2.08985,2.99805 1.48435,-2.7604 3.69789,-4.1406 6.64062,-4.14062 4.40101,2e-5 6.60153,2.71486 6.60156,8.14453 z"
         style="font-variant:normal;font-stretch:normal;fill:#000000;stroke:none;font-family:Segoe UI;-inkscape-font-specification:Segoe UI"
         id="path3028"
         inkscape:connector-curvature="0" />
      <path
         d="m 419.60792,749.65785 -3.20313,0 0,-11.40625 c -10e-6,-4.24478 -1.54949,-6.36717 -4.64843,-6.36719 -1.60158,2e-5 -2.92644,0.60223 -3.97461,1.80664 -1.04819,1.20444 -1.57227,2.72462 -1.57227,4.56055 l 0,11.40625 -3.20312,0 0,-20 3.20312,0 0,3.32031 0.0781,0 c 1.51041,-2.52602 3.6979,-3.78904 6.5625,-3.78906 2.18748,2e-5 3.86066,0.7064 5.01953,2.11914 1.15883,1.41277 1.73826,3.45379 1.73828,6.12304 z"
         style="font-variant:normal;font-stretch:normal;fill:#000000;stroke:none;font-family:Segoe UI;-inkscape-font-specification:Segoe UI"
         id="path3032"
         inkscape:connector-curvature="0" />
      <path
         style="fill:#000000;stroke:none"
         d="m 512.97514,803.36186 0,16.50796 c 0,0 8.18287,5.91215 24.14768,5.91215 24.23203,0 34.87786,-13.52005 34.87786,-28.27467 0,-31.97544 -43.05505,-24.33224 -43.05505,-45.55044 0,-7.97433 6.34919,-13.74384 17.00703,-13.74384 12.44595,0 21.61391,6.64158 21.61391,6.64158 l 0,-15.27946 c 0,0 -8.52187,-4.72204 -20.80771,-4.72204 -20.7203,0 -33.63016,12.94013 -33.63016,28.48582 0,31.61298 42.92069,25.42877 42.92069,46.03032 0,9.46814 -7.78471,12.89924 -17.85163,12.89924 -14.41072,0 -25.22262,-8.90662 -25.22262,-8.90662 z"
         id="path3034"
         inkscape:connector-curvature="0"
         transform="matrix(0.20783443,0,0,0.20783443,280.49226,578.50318)"
         sodipodi:nodetypes="ccccccccccccc" />
    </g>
    <path
       style="fill:#000000;stroke:none"
       d="m 342.91476,1951.8929 c 0,18.8117 6.57145,26.1773 16.61817,26.1773 25.14269,0 65.1996,-58.6849 63.67842,-120.2978 38.12439,-40.2183 83.82612,-103.2202 83.82612,-153.6812 0,-12.2152 -3.46381,-22.5007 -17.94172,-22.5007 -22.13453,0 -53.76345,38.1493 -73.82581,76.0318 -19.34794,39.2463 -37.44675,84.0096 -61.47249,145.4456 -5.61391,15.4098 -10.88269,34.0734 -10.88269,48.825 z"
       id="path3021"
       inkscape:connector-curvature="0"
       sodipodi:nodetypes="cccccccc" />
  </g>
</svg>
