<?xml version="1.0" encoding="UTF-8" standalone="no"?>
<svg
   xmlns:dc="http://purl.org/dc/elements/1.1/"
   xmlns:cc="http://creativecommons.org/ns#"
   xmlns:rdf="http://www.w3.org/1999/02/22-rdf-syntax-ns#"
   xmlns:svg="http://www.w3.org/2000/svg"
   xmlns="http://www.w3.org/2000/svg"
   xmlns:xlink="http://www.w3.org/1999/xlink"
   viewBox="0 0 300 66.428001"
   height="66.428001"
   width="300"
   xml:space="preserve"
   version="1.1"
   id="svg2"><metadata
     id="metadata8"><rdf:RDF><cc:Work
         rdf:about=""><dc:format>image/svg+xml</dc:format><dc:type
           rdf:resource="http://purl.org/dc/dcmitype/StillImage" /><dc:title></dc:title></cc:Work></rdf:RDF></metadata><defs
     id="defs6"><clipPath
       clipPathUnits="userSpaceOnUse"
       id="clipPath2368"><path
         d="m 184.84,17.008 60.056,0 0,13.298 -60.056,0 0,-13.298 z"
         id="path2370" /></clipPath><clipPath
       clipPathUnits="userSpaceOnUse"
       id="clipPath"><use
         height="100%"
         width="100%"
         y="0"
         x="0"
         xlink:href="#path2370"
         transform="translate(-243.8615,-29.4553)"
         id="use" /></clipPath><clipPath
       clipPathUnits="userSpaceOnUse"
       id="clipPath5"><use
         height="100%"
         width="100%"
         y="0"
         x="0"
         xlink:href="#path2370"
         transform="translate(-242.2986,-17.3311)"
         id="use1" /></clipPath><clipPath
       clipPathUnits="userSpaceOnUse"
       id="clipPathl"><use
         height="100%"
         width="100%"
         y="0"
         x="0"
         xlink:href="#path2370"
         transform="translate(-235.3366,-17.3472)"
         id="usek" /></clipPath><clipPath
       clipPathUnits="userSpaceOnUse"
       id="clipPaths"><use
         height="100%"
         width="100%"
         y="0"
         x="0"
         xlink:href="#path2370"
         id="useQ" /></clipPath><clipPath
       clipPathUnits="userSpaceOnUse"
       id="clipPathx"><use
         height="100%"
         width="100%"
         y="0"
         x="0"
         xlink:href="#path2370"
         transform="translate(-220.6609,-17.3778)"
         id="user" /></clipPath><clipPath
       clipPathUnits="userSpaceOnUse"
       id="clipPathV"><use
         height="100%"
         width="100%"
         y="0"
         x="0"
         xlink:href="#path2370"
         transform="translate(-213.5601,-17.0249)"
         id="useM" /></clipPath><clipPath
       clipPathUnits="userSpaceOnUse"
       id="clipPathX"><use
         height="100%"
         width="100%"
         y="0"
         x="0"
         xlink:href="#path2370"
         transform="translate(-206.2076,-17.0563)"
         id="useQO" /></clipPath><clipPath
       clipPathUnits="userSpaceOnUse"
       id="clipPathM"><use
         height="100%"
         width="100%"
         y="0"
         x="0"
         xlink:href="#path2370"
         transform="translate(-199.0862,-17.3311)"
         id="useS" /></clipPath><clipPath
       clipPathUnits="userSpaceOnUse"
       id="clipPathP"><use
         height="100%"
         width="100%"
         y="0"
         x="0"
         xlink:href="#path2370"
         transform="translate(-243.4434,-28.1195)"
         id="usew" /></clipPath><clipPath
       clipPathUnits="userSpaceOnUse"
       id="clipPath8"><use
         height="100%"
         width="100%"
         y="0"
         x="0"
         xlink:href="#path2370"
         transform="translate(-229.7665,-28.1175)"
         id="usen" /></clipPath><clipPath
       clipPathUnits="userSpaceOnUse"
       id="clipPathMs"><use
         height="100%"
         width="100%"
         y="0"
         x="0"
         xlink:href="#path2370"
         transform="translate(-223.9694,-24.3409)"
         id="useB" /></clipPath><clipPath
       clipPathUnits="userSpaceOnUse"
       id="clipPathR"><use
         height="100%"
         width="100%"
         y="0"
         x="0"
         xlink:href="#path2370"
         transform="translate(-215.7174,-28.1192)"
         id="useL" /></clipPath><clipPath
       clipPathUnits="userSpaceOnUse"
       id="clipPathW"><use
         height="100%"
         width="100%"
         y="0"
         x="0"
         xlink:href="#path2370"
         transform="translate(-207.9033,-25.2832)"
         id="usey" /></clipPath><clipPath
       clipPathUnits="userSpaceOnUse"
       id="clipPathz"><use
         height="100%"
         width="100%"
         y="0"
         x="0"
         xlink:href="#path2370"
         transform="translate(-200.6813,-24.3409)"
         id="useV" /></clipPath><clipPath
       clipPathUnits="userSpaceOnUse"
       id="clipPathy"><use
         height="100%"
         width="100%"
         y="0"
         x="0"
         xlink:href="#path2370"
         transform="translate(-187.8296,-21.784)"
         id="useG" /></clipPath></defs><g
     transform="matrix(3.9962704,0,0,3.9962704,-923.33828,-2397.4121)"
     id="g6718"><path
       clip-path="url(#clipPathy)"
       transform="matrix(1.25,0,0,-1.25,234.787,610.565)"
       id="path2374"
       style="fill:#000000;fill-opacity:1;fill-rule:nonzero;stroke:none"
       d="m 0,0 c -0.876,0.757 -1.452,1.387 -1.358,1.678 0.092,0.28 0.869,0.445 1.951,0.538 C 0.366,1.487 0.169,0.732 0,0 M 2.795,4.62 C 3.092,4.62 3.497,3.913 3.926,2.891 3.205,2.962 2.453,3.015 1.713,3.034 2.126,3.978 2.51,4.62 2.795,4.62 M 0.461,-0.388 C 0.757,0.526 1.081,1.46 1.399,2.271 2.255,2.313 3.219,2.325 4.157,2.32 5.21,-0.394 6.313,-4.544 6.331,-4.611 6.313,-4.442 5.93,-0.81 4.974,2.306 6.904,2.277 8.527,2.19 8.527,2.19 c 0,0 -1.63,0.348 -3.707,0.599 C 4.309,4.329 3.652,5.686 2.825,6.343 2.031,5.721 1.385,4.473 0.869,3.035 -0.701,3.015 -2.135,2.804 -2.99,2.237 c 0.371,-1.016 1.477,-2.093 2.805,-3.083 -0.435,-2.087 -0.628,-3.787 -0.628,-3.787 0,0 0.442,1.613 1.033,3.49 2.719,-1.931 6.112,-3.477 6.112,-3.477 0,0 -10e-4,0.004 -10e-4,0.006 -0.012,0.008 -3.6,2.363 -5.87,4.226" /><path
       clip-path="url(#clipPathz)"
       transform="matrix(1.25,0,0,-1.25,250.85163,607.36887)"
       id="path2378"
       style="fill:#000000;fill-opacity:1;fill-rule:nonzero;stroke:none"
       d="M 0,0 0.878,1.79 1.755,0 0,0 Z M 0.878,3.778 -1.007,0 l -0.952,0 0,-0.943 0.466,0 -0.942,-1.895 1.047,0 0.951,1.895 2.639,0 0.943,-1.895 1.034,0 -3.301,6.616 z" /><path
       clip-path="url(#clipPathW)"
       transform="matrix(1.25,0,0,-1.25,259.87912,606.191)"
       id="path2382"
       style="fill:#000000;fill-opacity:1;fill-rule:nonzero;stroke:none"
       d="m 0,0 0,1.895 2.596,0 C 3.071,1.895 3.537,1.503 3.537,0.942 3.537,0.439 3.127,0 2.596,0 L 0,0 Z m 4.487,0.942 c 0,1.037 -0.857,1.894 -1.891,1.894 l -3.548,0 0,-2.836 -0.71,0 0,-0.942 0.71,0 0,-2.838 0.952,0 0,2.838 1.419,0 1.455,-2.838 1.139,0 -1.417,2.838 c 1.064,0 1.891,0.877 1.891,1.884" /><path
       clip-path="url(#clipPathR)"
       transform="matrix(1.25,0,0,-1.25,269.64675,602.646)"
       id="path2386"
       style="fill:#000000;fill-opacity:1;fill-rule:nonzero;stroke:none"
       d="m 0,0 0,-2.836 0.699,0 L 3.162,0 4.385,0 1.559,-3.312 l 2.826,-3.304 -1.223,0 -2.463,2.838 -0.699,0 0,-2.838 -0.952,0 0,2.838 -0.708,0 0,0.942 0.708,0 0,2.836 L 0,0 Z" /><path
       clip-path="url(#clipPathMs)"
       transform="matrix(1.25,0,0,-1.25,279.96175,607.36887)"
       id="path2390"
       style="fill:#000000;fill-opacity:1;fill-rule:nonzero;stroke:none"
       d="M 0,0 0.877,1.79 1.755,0 0,0 Z M 0.877,3.778 -1.008,0 -1.96,0 l 0,-0.943 0.467,0 -0.942,-1.895 1.045,0 0.951,1.895 2.642,0 0.942,-1.895 1.036,0 -3.304,6.616 z" /><path
       clip-path="url(#clipPath8)"
       transform="matrix(1.25,0,0,-1.25,287.20812,602.64813)"
       id="path2394"
       style="fill:#000000;fill-opacity:1;fill-rule:nonzero;stroke:none"
       d="m 0,0 4.725,-4.254 0,4.254 0.952,0 0,-6.614 -4.734,4.254 0,-4.254 L 0,-6.614 0,0 Z" /><path
       clip-path="url(#clipPathP)"
       transform="matrix(1.25,0,0,-1.25,304.30425,602.64562)"
       id="path2398"
       style="fill:#000000;fill-opacity:1;fill-rule:nonzero;stroke:none"
       d="m 0,0 0,-1.651 -0.953,0 0,0.71 -3.537,0 0,-1.895 1.886,0 0,-0.943 -1.886,0 0,-1.896 3.537,0 0,0.71 0.953,0 0,-1.653 -5.443,0 0,2.839 -0.708,0 0,0.943 0.708,0 0,2.836 L 0,0 Z" /><path
       clip-path="url(#clipPathM)"
       transform="matrix(1.25,0,0,-1.25,248.85775,616.13112)"
       id="path2402"
       style="fill:#f5802c;fill-opacity:1;fill-rule:nonzero;stroke:none"
       d="m 0,0 c 0.27,0 0.458,0.128 0.603,0.305 l -1.386,0.931 c 0.16,0.435 0.548,0.758 1.02,0.758 0.302,0 0.6,-0.148 0.789,-0.374 L 0.805,1.415 C 0.678,1.567 0.436,1.671 0.237,1.671 -0.02,1.671 -0.224,1.54 -0.371,1.357 l 1.38,-0.93 C 0.843,-0.022 0.458,-0.323 0,-0.323 c -0.332,0 -0.616,0.157 -0.794,0.371 l 0.227,0.21 C -0.44,0.105 -0.213,0 0,0" /><path
       clip-path="url(#clipPathX)"
       transform="matrix(1.25,0,0,-1.25,257.7595,616.47462)"
       id="path2406"
       style="fill:#f5802c;fill-opacity:1;fill-rule:nonzero;stroke:none"
       d="m 0,0 0,1.935 -0.451,0 0,-0.241 -0.302,0 0,0.562 1.801,0 0,-0.562 -0.299,0 0,0.241 -0.451,0 L 0.298,0 0,0 Z" /><path
       clip-path="url(#clipPathV)"
       transform="matrix(1.25,0,0,-1.25,266.95013,616.51387)"
       id="path2410"
       style="fill:#f5802c;fill-opacity:1;fill-rule:nonzero;stroke:none"
       d="m 0,0 c -0.497,0 -0.9,0.458 -0.9,0.999 l 0,1.29 0.299,0 0,-1.29 c 0,-0.366 0.27,-0.677 0.601,-0.677 0.331,0 0.6,0.311 0.6,0.677 l 0,1.29 0.302,0 0,-1.29 C 0.902,0.458 0.498,0 0,0" /><path
       clip-path="url(#clipPathx)"
       transform="matrix(1.25,0,0,-1.25,275.82612,616.07275)"
       id="path2414"
       style="fill:#f5802c;fill-opacity:1;fill-rule:nonzero;stroke:none"
       d="m 0,0 -0.453,0 0,1.614 0.453,0 C 0.415,1.614 0.751,1.251 0.751,0.806 0.751,0.362 0.415,0 0,0 m 0,1.935 -0.752,0 0,-2.257 0.752,0 c 0.598,0 1.048,0.506 1.05,1.128 0,0.619 -0.468,1.129 -1.05,1.129" /><path
       clip-path="url(#clipPaths)"
       transform="matrix(1.25,0,0,-1.25,0,637.795)"
       id="path2416"
       style="fill:#f5802c;fill-opacity:1;fill-rule:nonzero;stroke:none"
       d="m 228.174,17.056 -0.299,0 0,2.256 0.299,0 0,-2.256 z" /><path
       clip-path="url(#clipPathl)"
       transform="matrix(1.25,0,0,-1.25,294.17075,616.111)"
       id="path2420"
       style="fill:#f5802c;fill-opacity:1;fill-rule:nonzero;stroke:none"
       d="m 0,0 c -0.428,0.003 -0.775,0.378 -0.775,0.836 0,0.46 0.347,0.839 0.775,0.839 C 0.43,1.675 0.782,1.3 0.782,0.836 0.782,0.375 0.43,0 0,0 m 0,1.996 c -0.594,0 -1.08,-0.522 -1.08,-1.16 0,-0.639 0.486,-1.158 1.08,-1.158 0.595,0 1.076,0.519 1.076,1.158 0,0.638 -0.481,1.16 -1.076,1.16" /><path
       clip-path="url(#clipPath5)"
       transform="matrix(1.25,0,0,-1.25,302.87325,616.13112)"
       id="path2424"
       style="fill:#f5802c;fill-opacity:1;fill-rule:nonzero;stroke:none"
       d="m 0,0 c 0.269,0 0.458,0.128 0.605,0.305 l -1.387,0.931 c 0.159,0.435 0.549,0.758 1.018,0.758 0.303,0 0.602,-0.148 0.792,-0.374 L 0.806,1.415 C 0.679,1.567 0.435,1.671 0.236,1.671 -0.02,1.671 -0.222,1.54 -0.37,1.357 L 1.01,0.427 C 0.843,-0.022 0.458,-0.323 0,-0.323 c -0.331,0 -0.614,0.157 -0.793,0.371 l 0.228,0.21 C -0.438,0.105 -0.212,0 0,0" /><path
       clip-path="url(#clipPath)"
       transform="matrix(1.25,0,0,-1.25,304.82687,600.97587)"
       id="path2428"
       style="fill:#000000;fill-opacity:1;fill-rule:nonzero;stroke:none"
       d="M 0,0 0.114,0 C 0.243,0 0.353,0.047 0.353,0.169 0.353,0.255 0.29,0.341 0.114,0.341 0.063,0.341 0.027,0.337 0,0.333 L 0,0 Z m 0,-0.545 -0.157,0 0,0.984 c 0.083,0.012 0.161,0.023 0.279,0.023 0.148,0 0.247,-0.031 0.305,-0.074 0.059,-0.043 0.09,-0.11 0.09,-0.204 0,-0.129 -0.086,-0.207 -0.192,-0.239 l 0,-0.008 C 0.412,-0.078 0.47,-0.157 0.49,-0.302 0.513,-0.455 0.537,-0.513 0.553,-0.545 l -0.165,0 C 0.365,-0.513 0.341,-0.423 0.321,-0.294 0.298,-0.169 0.235,-0.121 0.11,-0.121 l -0.11,0 0,-0.424 z m 0.165,1.258 c -0.388,0 -0.706,-0.333 -0.706,-0.744 0,-0.42 0.318,-0.749 0.71,-0.749 0.392,-0.004 0.705,0.329 0.705,0.745 0,0.415 -0.313,0.748 -0.705,0.748 l -0.004,0 z m 0.004,0.138 c 0.482,0 0.866,-0.392 0.866,-0.882 0,-0.498 -0.384,-0.886 -0.87,-0.886 -0.482,0 -0.874,0.388 -0.874,0.886 0,0.49 0.392,0.882 0.874,0.882 l 0.004,0 z" /></g></svg>