<?xml version="1.0" encoding="UTF-8" standalone="no"?>
<!-- Created with Inkscape (http://www.inkscape.org/) -->

<svg
   xmlns:dc="http://purl.org/dc/elements/1.1/"
   xmlns:cc="http://creativecommons.org/ns#"
   xmlns:rdf="http://www.w3.org/1999/02/22-rdf-syntax-ns#"
   xmlns:svg="http://www.w3.org/2000/svg"
   xmlns="http://www.w3.org/2000/svg"
   xmlns:sodipodi="http://sodipodi.sourceforge.net/DTD/sodipodi-0.dtd"
   xmlns:inkscape="http://www.inkscape.org/namespaces/inkscape"
   width="62.916668mm"
   height="62.916668mm"
   viewBox="0 0 62.916668 62.916668"
   version="1.1"
   id="svg8"
   inkscape:version="0.92.1 r15371"
   sodipodi:docname="Cortana.svg">
  <defs
     id="defs2" />
  <sodipodi:namedview
     id="base"
     pagecolor="#ffffff"
     bordercolor="#666666"
     borderopacity="1.0"
     inkscape:pageopacity="0.0"
     inkscape:pageshadow="2"
     inkscape:zoom="0.35"
     inkscape:cx="168.89764"
     inkscape:cy="183.18335"
     inkscape:document-units="mm"
     inkscape:current-layer="layer1"
     showgrid="false"
     inkscape:pagecheckerboard="true"
     fit-margin-top="5"
     fit-margin-left="5"
     fit-margin-right="5"
     fit-margin-bottom="5"
     inkscape:window-width="515"
     inkscape:window-height="405"
     inkscape:window-x="623"
     inkscape:window-y="555"
     inkscape:window-maximized="0" />
  <metadata
     id="metadata5">
    <rdf:RDF>
      <cc:Work
         rdf:about="">
        <dc:format>image/svg+xml</dc:format>
        <dc:type
           rdf:resource="http://purl.org/dc/dcmitype/StillImage" />
        <dc:title></dc:title>
      </cc:Work>
    </rdf:RDF>
  </metadata>
  <g
     inkscape:label="Layer 1"
     inkscape:groupmode="layer"
     id="layer1"
     transform="translate(-61.145835,-134.38392)">
    <g
       id="g24"
       transform="matrix(0.17638889,0,0,0.17638889,-13.229166,130.56448)">
      <path
         id="path10"
         d="m 600,350 c -82.7,0 -150,-67.3 -150,-150 0,-82.7 67.3,-150 150,-150 82.7,0 150,67.3 150,150 0,82.7 -67.3,150 -150,150 m 0,-260 c -60.7,0 -110,49.3 -110,110 0,60.7 49.3,110 110,110 60.7,0 110,-49.3 110,-110 C 710,139.3 660.7,90 600,90"
         inkscape:connector-curvature="0"
         style="fill:#9adaf6" />
      <path
         id="path12"
         d="m 600,320 c -66.2,0 -120,-53.8 -120,-120 0,-66.2 53.8,-120 120,-120 66.2,0 120,53.8 120,120 0,66.2 -53.8,120 -120,120 m 0,-215 c -52.4,0 -95,42.6 -95,95 0,52.4 42.6,95 95,95 52.4,0 95,-42.6 95,-95 0,-52.4 -42.6,-95 -95,-95"
         inkscape:connector-curvature="0"
         style="fill:#1c9fe7" />
    </g>
  </g>
</svg>
