<?xml version="1.0" encoding="UTF-8" standalone="no"?>
<!-- Created with Inkscape (http://www.inkscape.org/) -->
<svg
   xmlns:svg="http://www.w3.org/2000/svg"
   xmlns="http://www.w3.org/2000/svg"
   version="1.0"
   width="300"
   height="300"
   id="svg2">
  <defs
     id="defs43" />
  <g
     transform="scale(0.5,0.5)"
     id="g4">
    <rect
       width="600"
       height="600"
       x="0"
       y="0"
       style="fill:#f96211"
       id="rect6" />
    <g
       id="g8">
      <g
         transform="translate(0.247337,-0.24734)"
         id="g10">
        <g
           id="g12">
          <path
             d="M 308.03416,19.653337 C 187.18498,19.653337 89.09666,140.36566 89.096663,289.09084 C 89.096663,437.81602 187.18497,558.52834 308.03416,558.52834 C 428.88334,558.52834 526.94041,437.81601 526.94041,289.09084 C 526.94041,140.36566 428.88332,19.653338 308.03416,19.653337 z M 308.03416,23.653337 C 426.40001,23.653336 522.47166,142.57297 522.47166,289.09084 C 522.47168,435.6087 426.40002,554.52834 308.03416,554.52834 C 189.66828,554.52837 93.596663,435.60871 93.596663,289.09084 C 93.596667,142.57297 189.6683,23.653337 308.03416,23.653337 z "
             style="fill:#a90901"
             id="path14" />
          <path
             d="M 515.83984,288.78125 C 515.83984,430.99457 422.93893,546.28125 308.33984,546.28125 C 193.74075,546.28125 100.83984,430.99457 100.83984,288.78125 C 100.83984,146.56793 193.74075,31.28125 308.33984,31.28125 C 422.93893,31.28125 515.83984,146.56793 515.83984,288.78125 L 515.83984,288.78125 z "
             style="fill:#a90901"
             id="path16" />
          <path
             d="M 508.33594,288.78516 C 508.33594,426.85635 418.79289,538.78516 308.33594,538.78516 C 197.87899,538.78516 108.33594,426.85635 108.33594,288.78516 C 108.33594,150.71397 197.87899,38.78516 308.33594,38.78516 C 418.79289,38.78516 508.33594,150.71397 508.33594,288.78516 L 508.33594,288.78516 z "
             style="fill:#ffc033"
             id="path18" />
        </g>
        <g
           id="g20">
          <g
             id="g22">
            <path
               d="M 256,243.375 C 256.4876,243.43595 256.19117,244.92209 255.125,247.09375 C 257.14371,247.95185 259.21761,248.85909 260.84375,249.9375 C 263.23425,246.45617 264.29068,245.55159 264.3125,245.5625 L 256,243.375 z M 251.90625,252.125 C 249.47581,255.26946 246.02687,258.696 241.40625,261.375 C 243.05344,266.1807 245.26816,270.37862 248.96875,274.59375 C 249.6868,270.49924 250.99516,266.58012 252.96875,263 C 254.64968,259.95076 256.07719,257.53441 257.34375,255.4375 C 255.53389,254.35783 253.71611,253.25554 251.90625,252.125 z M 209.28125,257 C 206.40613,257.86615 203.65947,259.02758 201.03125,260.375 C 198.4387,267.49624 192.63921,303.65823 210.1875,329.40625 C 231.78627,361.09742 266.22948,362.86726 283.8125,360.21875 C 291.75378,357.74557 297.62876,354.08032 303.40625,349.25 C 292.14066,351.45287 265.90193,352.07338 244.28125,337.75 C 219.89054,321.59152 213.21075,303.61109 211.84375,280.8125 C 211.54549,275.83826 211.47354,270.78755 212.09375,265.71875 C 208.77119,263.71294 209.48361,262.13321 209.28125,257 z M 233.875,264.59375 C 232.87665,264.8922 231.8505,265.18907 230.78125,265.40625 C 225.80546,266.41691 222.75488,267.09686 220.5,267.4375 C 219.94754,278.47384 222.83432,298.47674 234.90625,313.875 C 248.29077,330.94756 274.25653,338.81355 282.25,340.625 C 293.93563,343.27315 303.60018,342.91336 311.4375,341.84375 C 314.7658,338.28733 317.20381,334.27173 319.0625,330.03125 C 309.79195,330.09451 276.76668,329.61051 260.1875,313.0625 C 244.70888,297.61298 236.84431,274.97881 233.875,264.59375 z M 192.59375,265.625 C 186.16576,270.3401 181.09147,275.74455 177.9375,279.8125 C 175.89941,290.08251 176.68835,319.26649 186.40625,337.84375 C 196.82251,346.91048 212.54275,356.96425 232.03125,361.5625 C 204.634,343.40532 183.5119,322.6656 192.59375,265.625 z M 157.78125,281 C 151.44773,291.89666 153.25366,293.7818 153.5,298.4375 L 167.75,298.34375 C 168.04701,293.70943 168.61692,287.93445 172.28125,283.375 C 162.84976,283.0537 157.78125,281 157.78125,281 z M 325.375,289.28125 C 323.05631,301.13916 319.36784,315.03691 307.28125,321.09375 C 312.68117,321.99329 317.90265,322.28669 321.875,321.9375 C 324.8789,310.58411 324.79697,298.52979 325.375,289.28125 z M 155.8125,307.1875 C 153.37603,313.65309 155.41335,320.29914 157.5625,323.875 C 158.82114,324.17965 161.55745,325.0244 171.3125,322.46875 C 169.93536,319.70892 168.17926,320.12851 167.625,308.4375 L 155.8125,307.1875 z "
               style="fill:#c12d0b"
               id="path24" />
            <path
               d="M 295.0625,110.90625 C 254.60565,110.9699 240.73227,118.14741 223.28125,125.5625 C 221.8479,120.85323 220.44174,115.50337 212.0625,115.65625 C 205.61074,115.77633 201.98066,121.66506 200.1875,125.0625 C 193.78098,125.17074 192.69067,129.46583 192,131.375 C 193.9161,129.33681 195.76612,127.4461 198.875,127.625 C 196.46403,136.15513 200.036,136.96859 201.90625,137.34375 C 203.58204,137.6799 210.33491,132.27546 202.34375,125.75 C 204.50446,122.52318 206.91541,119.29786 212.15625,119.53125 C 219.49451,119.85804 219.99261,123.03599 220.66762,127.23224 C 198.00601,144.7128 200.15269,155.26163 200.25,159 C 200.64181,174.05218 211.6183,178.19596 218.46875,185.875 C 211.75422,188.47114 206.22414,193.61276 211.8125,200.65625 C 216.69563,206.81089 224.0119,211.04499 240.90625,207.53125 C 260.85754,222.07817 262.99423,231.36696 263.71875,240.28125 C 259.73142,240.31484 254.40195,239.88814 250.21875,240.40625 C 238.65346,233.60009 229.53109,224.35192 215.15625,224.21875 C 204.43283,224.11941 195.69097,224.09286 193.59375,233.25 C 191.87095,240.77228 203.0922,249.19393 210.21875,253.46875 C 192.50615,261.7258 180.61927,270.89087 173.34375,280.3125 C 162.87895,279.31639 139.99754,270.88124 131.625,271.46875 C 124.90426,271.94034 123.8295,281.66691 127.40625,287.53125 C 130.41651,292.4668 135.4543,295.65914 141.5,298.65625 C 148.16598,301.96086 156.43688,301.15201 164.375,301 C 164.21345,302.32054 164.11169,303.62564 164.09375,304.9375 C 154.91653,304.46529 143.66335,303.01389 132.125,299.8125 C 119.51734,296.31441 117.61699,316.42308 134.375,323.09375 C 145.58904,327.55759 158.35636,328.0362 169.46875,325.46875 C 179.71405,344.53253 203.24191,360.0447 227.6875,365.375 C 268.91891,374.3654 313.3568,361.14551 324.96875,326.3125 C 327.12747,319.83687 344.68915,332.50041 349.84375,329.28125 C 357.98929,324.19419 352.26227,299.26245 330.5625,297.5 C 330.56942,295.50117 330.48165,293.53572 330.3125,291.625 C 341.42396,294.46951 352.43884,295.16444 370.0625,292.9375 C 390.88672,290.30614 413.83175,282.93664 420.5625,274.0625 C 405.83407,273.23363 399.97412,267.50598 406.03125,235.5625 C 408.63957,238.21685 426.72312,253.62194 462.625,255.96875 C 462.625,255.96875 468.8098,253.7284 476.65625,241.15625 C 482.26708,232.16617 490.11011,213.0965 481,199.59375 C 471.82654,185.99711 476.97061,191.87585 468,178.9375 C 459.87566,167.21971 456.28393,155.89296 442.96875,144.4375 C 449.39334,133.76758 449.10368,127.38543 445.1875,123 C 441.44685,118.81112 437.15125,118.97991 435,118.625 C 432.36832,115.79371 431.6298,114.12325 425.75,113.8125 C 425.41135,113.7946 425.10461,113.79489 424.78125,113.8125 C 419.93091,114.07671 416.7887,118.22795 414.8125,122.5 C 418.84021,118.16818 425.09457,111.86293 432.03125,119 C 428.9708,119.25503 424.24445,126.09259 430.75,129.1875 C 436.43731,131.89314 437.80516,122.78808 436.0625,121.0625 C 443.98903,122.408 448.8159,131.6404 441.34375,143.0625 C 433.62763,136.92764 427.44465,135.92877 420.3125,136.09375 C 399.73599,136.55402 389.01346,142.67928 383.84375,149.84375 C 374.34825,163.00312 374.88292,180.87585 373.875,198.3125 C 373.69272,201.46589 373.38678,204.47984 372.96875,207.34375 C 370.3681,200.3186 366.49581,200.8535 362.40625,202.90625 C 357.40728,205.91349 352.51614,227.02969 362.53125,233.6875 C 361.9214,234.42314 361.2881,235.13047 360.625,235.8125 C 344.00782,252.90406 329.06389,259.86638 316.6875,260.21875 L 316.78125,260.125 C 330.02552,251.21768 345.92632,240.33406 348,219.53125 C 322.90019,218.96534 324.95344,207.82495 318.71875,200.65625 C 334.08013,200.3233 341.65724,201.25957 365.40625,195.9375 C 368.76709,172.83481 372.03514,164.1614 371.625,148.21875 C 371.43246,140.73447 366.02218,132.7994 360.375,128.65625 C 340.73055,114.24379 322.34803,110.86332 295.0625,110.90625 z M 290.5,118.09375 C 305.781,118.1545 321.10311,120.38101 335.09375,124.40625 C 366.93023,133.56591 367.49674,148.85547 365.3125,165.3125 C 363.83564,176.43988 363.5213,184.28828 362.4375,191.1875 C 350.72692,193.76534 325.5362,197.95261 300.75,193.40625 C 263.05063,186.49131 237.73254,168.25885 235.03125,162.90625 C 235.03118,178.72622 262.98118,227.94513 314.96875,230.6875 C 324.68472,231.20002 329.95277,230.9393 339.375,227.125 C 338.1005,234.3528 326.33502,247.82747 312.6875,255.03125 C 307.40969,257.81711 306.85686,263.43074 306.625,270.46875 C 307.2578,267.06519 307.55024,267.58635 308.5,265.21875 C 310.10768,261.21104 312.39761,266.90998 318.625,266 C 334.63262,263.66088 362.70231,250.05226 371.53125,228.25 C 373.34623,223.76808 371.97218,215.51942 366.59375,216.71875 C 363.21508,217.47216 364.96908,223.75892 366.34375,224.40625 C 366.34375,224.40625 366.68468,220.50798 367.65625,220.875 C 368.62782,221.24204 370.19886,222.85573 369.875,225.1875 C 369.55114,227.51926 368.18744,231.77838 365.8125,230.375 C 363.43756,228.97163 360.3534,224.96009 360.375,219.5625 C 360.39659,214.16491 361.67865,208.36855 366.25,208.1875 C 368.85773,208.08423 372.66877,213.66055 375.3125,218.1875 C 384.198,186.04872 377.72542,154.60483 400.09375,148.875 C 436.97205,139.42834 434.77743,149.26842 445.0625,161.1875 C 457.9311,176.10055 458.80291,181.50734 464.59375,188.9375 C 470.35461,196.3292 477.74528,206.80556 477.53125,216.40625 C 477.11503,235.07761 461.3125,249.4375 461.3125,249.4375 C 435.6006,249.79094 399.01001,227.5126 391.6875,209.21875 C 386.536,196.34878 386.00195,182.73177 385.96875,178.5625 C 385.61386,187.49134 381.04599,236.20803 380.96875,240.3125 C 380.69211,254.55549 383.5421,259.99707 385.625,262.375 C 391.68433,269.29258 398.3848,271.84175 403.9375,275.96875 C 385.77868,285.49837 363.72483,294.48018 326.84375,285.4375 C 322.07539,284.26837 319.26461,287.37564 318.78125,292.65625 C 321.87787,288.33611 323.45346,288.818 324.15625,291.5 C 317.68653,331.98463 283.51821,323.33065 272.4375,319.59375 C 262.31863,316.1812 248.14093,300.26331 249.0625,280.125 C 250.17625,273.39972 249.56389,265.70978 264.5,248.21875 C 266.66969,248.64754 268.29169,249.79741 268.34375,251 C 268.44891,253.42952 267.21692,253.19058 264.28125,253.59375 C 266.81669,255.34872 269.83929,255.05781 270.65625,253.625 C 272.79789,249.86896 270.03703,235.87509 265,227.21875 C 261.70183,221.55071 258.80843,216.5686 255.375,212.59375 C 248.15718,204.23777 240.74599,195.15757 228.9375,194.3125 C 226.58442,194.1441 223.75375,194.6267 224.1875,196.75 C 224.70104,199.26381 230.52973,200.47672 228.9375,198.4375 C 227.82532,197.01309 237.59251,196.59268 238.09375,199.8125 C 238.92204,205.13309 221.13684,201.28943 218.90625,198.9375 C 208.95824,188.44829 225.95399,189.17771 234.9375,191.65625 C 231.01048,188.33048 226.74922,184.88242 221.96875,180.96875 C 199.13692,162.27679 205.77853,142.54841 235.125,129.03125 C 250.71532,121.85026 268.97973,118.40011 287.4375,118.125 C 288.45539,118.10983 289.48127,118.0897 290.5,118.09375 z M 433.03125,120.96875 C 435.83599,123.46561 434.13237,128.42481 431,126.53125 C 429.02616,125.33804 429.23684,121.5763 433.03125,120.96875 z M 201.6875,127.875 C 202.84683,127.74733 204.83247,133.97448 202.28125,134.0625 C 198.71043,133.60236 200.76476,129.7786 201.6875,127.875 z M 212.5,230.96875 C 216.89722,230.97912 222.17928,232.02501 227.8125,234 C 235.67762,237.36079 242.2228,241.4396 248.25,247.59375 C 249.92601,247.59569 251.53285,247.59239 253.15625,247.59375 C 245.3186,261.91991 210.82348,275.72773 210.25,259.84375 C 214.52277,257.88691 219.36402,255.90775 224.9375,253.875 C 217.72361,250.81801 210.8659,246.36836 206.40625,242.0625 C 201.19945,237.03523 200.62899,234.14055 205.65625,232.09375 C 207.54147,231.32619 209.86167,230.96253 212.5,230.96875 z M 255.03125,247.59375 C 257.67503,247.61267 260.1318,247.67187 262.1875,247.875 C 254.20159,255.81972 246.52303,269.24352 246.71875,279.8125 C 247.20385,306.9307 262.88976,319.5615 272.4375,322.46875 C 296.21176,329.70792 319.27299,327.41628 324.625,295.96875 C 324.65105,297.87751 324.55304,300.02195 324.375,302.15625 C 324.00764,306.29279 323.55258,310.47941 322.46875,314.5 C 312.52879,342.89706 298.88281,355.67782 255.625,360.375 C 222.27183,363.99667 182.68861,337.18148 174.0625,318.59375 C 170.31501,320.37874 164.25033,321.42169 158.28125,321.71875 C 155.81933,318.23692 155.11831,314.12033 156.625,309.09375 C 161.90025,309.76372 167.15538,310.19529 171.5625,310.09375 C 170.83803,305.60357 171.12665,301.44601 172.34375,296.71875 C 166.29244,297.10469 160.25204,297.25321 154.53125,296.46875 C 153.50155,289.5412 155.74111,286.01492 158.59375,283.125 C 164.22173,284.57719 170.67128,285.92126 176.34375,286.40625 C 177.78377,284.03807 179.54366,281.7311 181.65625,279.46875 C 187.41141,273.3056 194.74701,267.25142 208.1875,260.84375 C 208.90483,278.03247 247.05173,266.51694 255.03125,247.59375 z M 135.6875,277.46875 C 136.49529,277.41379 137.42282,277.50379 138.5,277.71875 C 144.32587,278.42514 149.79332,280.67342 155.40625,282.28125 C 152.23733,285.45345 151.31452,289.33264 151.625,295.96875 C 146.80117,295.00204 141.21896,293.55901 137.46875,290.21875 C 130.91235,284.37908 130.03294,277.85349 135.6875,277.46875 z M 326.08293,302.31505 C 333.14677,303.13277 342.12134,304.95216 346.4375,314.3125 C 349.35273,320.63466 348.46851,323.39716 340.28125,321.78125 C 336.40914,321.01702 328.60611,318.02444 323.82723,315.65723 C 325.03395,309.78522 324.66658,311.05943 326.08293,302.31505 z M 132,304.96875 C 133.30087,304.97029 135.15336,305.24795 137.875,305.84375 C 141.97746,306.74183 147.56857,307.40729 153.03125,308.21875 C 152.55084,313.53488 152.53074,318.61058 154.96875,321.90625 C 145.35233,321.78768 135.43146,319.40358 130.71875,313.875 C 129.01449,311.8757 127.45845,308.90699 128.40625,307.15625 C 129.17288,305.74013 129.83188,304.96619 132,304.96875 z "
               style="fill:#770101"
               id="path26" />
          </g>
          <g
             id="g28">
            <path
               d="M 278.75,166.34375 C 276.75727,166.50101 274.93221,167.32697 273.96875,168.375 C 271.18543,171.40261 270.99354,179.9926 280,181.0625 C 283.40245,181.46669 287.29586,175.38714 286.8125,172.78125 C 285.85575,167.62318 282.07122,166.08165 278.75,166.34375 z M 280.28125,171.5625 C 282.25082,171.48091 283.50916,172.99995 283.625,174.40625 C 283.80576,176.60059 281.30275,179.00572 278.5,177.78125 C 275.81218,176.60699 275.69311,171.75256 280.28125,171.5625 z M 348.6875,173.21875 C 341.54622,173.2985 339.36943,181.64928 343.21875,185.34375 C 348.16425,190.09033 354.59744,187.14544 355.09375,180.5625 C 355.41846,176.25548 353.20244,173.16832 348.6875,173.21875 z M 349.125,178.34375 C 351.10048,178.34377 352.96875,179.52419 352.96875,181.59375 C 352.96874,183.66331 351.22549,185 349.25,185 C 347.27452,184.99999 345.59375,183.85081 345.59375,181.78125 C 345.59376,179.71169 347.14951,178.34375 349.125,178.34375 z M 303.96875,179.59375 C 302.68606,179.53512 301.84191,179.95975 301.8125,180.59375 C 301.74288,182.0945 310.44176,182.54831 313.90625,192.21875 C 318.45528,187.91073 326.32799,185.79585 326.8125,184.5 C 327.31551,183.15467 318.71426,183.56293 314.40625,189.4375 C 311.69304,182.1263 306.79066,179.72273 303.96875,179.59375 z "
               style="fill:#770101"
               id="path30" />
            <path
               d="M 411.375,210.71875 C 408.07816,210.71875 404.92091,214.07405 405.03125,216.71875 C 405.13972,219.31895 407.19015,223.06417 410.8125,223.15625 C 414.08098,223.23933 417.75915,219.54921 417.5625,216.75 C 417.35972,213.86357 415.43261,210.71875 411.375,210.71875 z M 411.875,214.8125 C 415.20233,214.53949 416.79224,219.62709 411.5,220.75 C 409.97025,221.07458 408.84375,218.91206 408.84375,217.78125 C 408.84374,216.65044 409.4111,215.01467 411.875,214.8125 z M 431,227.5625 C 430.33996,233.62729 430.52012,233.04798 433.28125,240.21875 C 435.46049,238.32055 438.01111,235.13933 439.6875,232.75 C 435.9507,232.50279 436.19911,233.42183 433.9375,235.71875 C 432.82402,232.42432 432.20706,228.09893 431,227.5625 z M 458.90625,232.78125 C 453.15049,233.19375 445.71115,241.61721 455.5,244.21875 C 459.6881,245.3318 464.37576,240.61073 463.75,237.1875 C 463.12614,233.77471 461.1585,232.61984 458.90625,232.78125 z M 458.46875,237.0625 C 462.83307,237.04728 460.56173,241.69942 457.75,242 C 452.06191,242.60807 454.04832,237.07792 458.46875,237.0625 z "
               style="fill:#770101"
               id="path32" />
          </g>
        </g>
      </g>
      <g
         id="g34">
        <path
           d="M 115.13764,355.80592 C 111.46085,366.17859 99.276782,389.15343 99.276782,391.11111 C 99.276782,391.11111 111.73983,402.98232 159.783,408.17529 C 207.24554,413.3055 282.48406,395.88321 330.14035,369.33958 C 377.79663,342.79595 434.29336,321.90858 460.77213,321.38336 C 486.37297,320.87555 507.66469,325.51954 539.63582,355.2175 C 539.63582,355.2175 520.45261,411.31303 520.54405,419.79658 C 520.63628,428.35255 531.44803,428.73294 533.02713,426.04854 C 534.6573,423.27734 541.61843,396.11268 541.61843,396.11268 C 541.2767,397.13958 542.46207,390.92964 552.77976,391.99374 C 563.09747,393.05784 577.81936,400.30518 575.6899,419.94369 C 573.50046,440.13528 555.62439,508.62628 550.72374,522.03452 C 548.10541,529.19828 544.11504,544.39448 528.10732,545.27711 C 512.09961,546.15974 498.36616,542.35667 485.81172,535.27397 C 473.03492,528.06583 455.95159,512.70412 456.43976,499.38036 C 457.00268,484.01678 461.49356,481.20071 467.36821,449.33943 C 453.14579,449.61055 416.51148,449.16153 361.91424,482.90893 C 341.30364,495.64866 221.19688,547.96255 138.77564,528.4281 C 71.546068,512.49418 33.632177,485.72957 20.732,445.28449 C 24.66431,432.78993 43.266157,404.3314 50.519337,349.61886 C 53.967208,323.61071 72.284374,306.35884 91.052636,306.96708 C 109.8209,307.57531 118.02261,320.07818 119.2497,329.32703 C 120.4768,338.57588 118.81443,345.43325 115.13764,355.80592 z "
           style="fill:#800000"
           id="path36" />
        <path
           d="M 93.062074,316.12515 C 92.64923,316.13885 92.206884,316.15627 91.780824,316.18765 C 75.136022,317.41359 60.705789,330.66026 58.812074,342.81265 C 57.299447,352.51949 66.687075,358.50016 66.687074,358.50015 C 65.639487,339.46392 82.969928,343.0037 98.530824,345.00015 L 93.812074,367.1564 C 93.812074,367.1564 111.31339,362.89952 111.99957,335.75015 C 112.30377,323.71463 105.86024,315.7003 93.062074,316.12515 z M 462.81207,333.06265 C 444.03962,333.464 407.98681,344.31728 377.59332,358.00015 C 345.75766,372.33225 304.36436,394.99457 286.18707,399.9689 C 237.96467,413.16525 236.00252,417.2046 162.37457,419.0314 C 89.627249,420.83635 59.06485,365.25291 55.687074,360.8439 C 50.180456,406.89622 38.271028,424.38645 28.937074,446.0314 C 35.403446,462.39513 46.814973,476.91059 69.874574,491.0314 C 92.934172,505.15223 129.68409,518.29195 170.96832,521.2814 C 236.31176,526.02361 319.1499,492.37488 336.90582,483.8439 C 355.37004,474.97262 403.04467,446.62943 449.62457,439.0939 C 483.87034,433.55374 490.99648,448.3743 501.68707,456.9064 L 528.71832,360.3439 C 528.71832,360.3439 506.19484,333.7136 464.59332,333.06265 C 464.0245,333.05362 463.41763,333.0497 462.81207,333.06265 z M 84.562074,350.43765 C 81.014848,350.4819 76.777731,351.23613 75.999574,354.4064 C 74.61745,360.0373 86.780824,366.18765 86.780824,366.18765 L 89.655824,350.81265 C 89.655824,350.81265 87.321028,350.40323 84.562074,350.43765 z M 551.68707,402.12515 C 547.56463,402.24094 545.7183,403.75015 545.71832,403.75015 L 521.93707,489.0939 C 521.93707,489.0939 530.68939,480.77568 537.81207,481.43765 C 544.93477,482.09962 550.71831,491.43764 550.71832,491.43765 L 566.28082,435.8439 C 572.04808,415.24327 564.17315,404.12422 556.59332,402.5939 C 554.69836,402.21132 553.06122,402.08655 551.68707,402.12515 z M 516.65582,432.87515 L 505.21832,473.5314 C 502.91478,481.71761 499.02698,484.51058 491.68707,484.0939 C 482.40307,483.56684 473.61408,481.62382 468.18707,494.0939 C 461.36689,509.76518 482.15483,524.64214 494.90582,529.0939 C 509.62819,534.23394 533.43099,540.82448 540.74957,523.81265 C 546.16906,511.21525 547.46031,495.39483 537.81207,494.37515 L 533.09332,515.56265 C 519.94378,514.33484 515.95436,510.00005 514.31207,499.68765 C 513.28252,493.22275 516.6558,482.31265 516.65582,482.31265 L 527.53082,438.7814 L 516.65582,432.87515 z "
           style="fill:#ffc033"
           id="path38" />
        <path
           d="M 464.68416,340.81556 C 456.60159,341.02106 448.08813,340.90033 439.24666,343.00306 L 438.84041,371.15931 C 440.60497,370.87636 442.15159,370.76595 443.84041,370.50306 C 443.48832,384.31463 443.84798,387.20551 440.34041,390.34681 C 445.36114,392.547 443.46611,398.77057 443.24666,405.25306 C 438.07242,394.566 436.83794,393.39289 440.05916,390.28431 C 433.81266,388.63444 431.67666,380.28098 428.77791,372.40931 C 429.81733,372.10922 431.41619,371.67072 432.52791,371.37806 L 432.30916,344.50306 C 420.12009,348.01492 414.33671,350.25474 406.59041,352.87806 L 405.93416,380.69056 C 408.23459,379.6846 408.86949,379.15068 411.65291,378.62806 C 410.74097,397.01687 411.34163,395.46895 406.74666,399.69056 C 411.71842,398.45403 411.53641,398.89925 410.71541,415.94056 L 405.15291,417.81556 L 403.65291,444.84681 C 407.70804,443.20821 415.39715,440.73977 421.52791,438.40931 L 421.77791,412.25306 L 417.87166,413.56556 C 417.76933,405.12978 416.85327,395.96425 423.96541,394.72181 C 417.356,394.68202 419.28239,389.03368 419.09041,376.09681 C 422.66,383.01986 428.97218,391.25475 425.15291,394.65931 C 428.25774,394.73939 431.3606,401.17783 434.46541,408.53431 C 433.01771,408.90391 431.54263,409.25624 429.93416,409.56556 L 429.71541,435.59681 C 436.86894,433.92245 441.07165,432.04131 453.90291,430.72181 L 456.77791,404.40931 C 454.94327,404.47513 453.30889,404.61868 451.74666,404.78431 C 451.60676,396.08213 451.7033,389.95866 458.24666,388.50306 C 453.14793,388.26104 453.01393,386.97047 453.74666,369.22181 C 456.35772,368.96683 459.24662,368.73518 462.68416,368.56556 C 462.5964,362.72199 464.01401,350.06977 464.68416,340.81556 z M 471.71541,341.53431 L 467.40291,369.09681 C 468.72323,369.25362 470.20223,369.46846 471.74666,369.69056 C 470.47163,380.12608 469.90192,388.74427 464.52791,388.22181 C 470.32116,391.59942 468.37958,395.1876 466.62166,403.75306 C 464.96994,403.67669 463.71782,403.74874 460.96541,403.62806 L 458.59041,430.59681 C 471.57379,430.374 482.34932,432.7465 490.21541,438.34681 L 495.49666,406.97181 C 489.09101,414.70342 490.82647,407.21599 477.90291,405.28431 L 478.68416,394.37806 C 484.75846,395.19291 489.8033,395.12503 491.59041,401.06556 C 491.92935,396.77763 491.65165,394.78075 493.43416,386.37806 C 490.88167,389.19614 485.33764,387.18746 479.99666,385.37806 L 482.02791,371.56556 C 493.45047,375.70713 500.73169,376.32368 500.77791,385.75306 L 506.49666,352.47181 C 495.25272,346.74229 483.21704,341.73448 471.71541,341.53431 z M 402.37166,354.62806 C 396.24402,356.21184 390.09305,358.59317 383.96541,360.90931 L 382.84041,389.81556 C 384.80305,388.75966 386.51105,387.45437 388.84041,386.47181 C 388.97486,397.82513 390.7408,406.87232 381.90291,409.15931 C 391.09134,408.07672 388.62343,412.75209 388.21541,424.53431 L 381.99666,426.90931 L 380.93416,453.87806 C 387.02738,451.57157 390.32677,449.33352 399.05916,446.44056 L 399.87166,420.09681 L 395.46541,421.78431 C 394.49691,406.54841 395.28877,404.51147 402.37166,400.06556 C 394.22348,401.62065 396.15116,400.15438 396.77791,383.31556 C 398.54074,382.63542 400.03276,382.28049 401.77791,381.59681 L 402.37166,354.62806 z M 379.55916,363.34681 C 367.50227,368.40859 351.76168,377.36062 345.09041,381.56556 C 345.3218,391.44765 343.45277,401.41184 343.68416,409.47181 C 345.73165,408.70134 348.43101,406.19764 350.21541,405.50306 C 351.62389,423.90603 348.65627,425.99799 342.80916,429.00306 C 351.87639,427.58322 349.66762,433.45204 349.55916,442.47181 C 348.25566,442.94901 343.91924,445.89527 342.46541,446.47181 L 341.71541,472.40931 C 353.05157,468.55018 351.63228,466.67774 362.37166,462.22181 L 362.87166,436.19056 L 357.80916,438.75306 L 358.65291,426.25306 C 365.60125,423.08548 370.25967,417.16459 373.90291,424.15931 L 373.68416,404.69056 C 370.70719,412.02775 364.00804,414.8798 358.68416,416.40931 L 359.77791,400.56556 C 374.34455,392.71382 374.52407,390.2582 378.80916,399.31556 L 379.55916,363.34681 z M 71.996661,389.62806 C 70.307592,397.41274 67.56363,408.27053 66.184161,416.03431 C 68.61925,420.18601 72.381632,422.86813 73.684161,424.25306 C 71.938053,432.57933 73.010382,434.69701 65.527911,433.40931 C 70.514412,439.74603 70.349294,442.25563 67.590411,448.75306 C 65.012821,447.1273 62.47807,444.78748 60.559161,442.50306 C 57.039116,451.611 55.069223,458.3197 51.684161,464.50306 C 56.970483,472.4754 65.781501,478.83649 71.715411,482.31556 C 76.591147,485.17422 80.655123,490.03891 86.840411,489.84681 C 92.678618,489.66547 96.02094,486.54562 99.402911,477.59681 C 100.96149,473.47274 102.74399,458.93763 110.09041,458.09681 C 105.37859,452.76607 108.32935,446.88864 109.49666,439.44056 C 110.98688,429.93209 110.80035,418.34627 102.37166,413.06556 C 92.003911,406.56999 79.719507,397.58892 71.996661,389.62806 z M 313.96541,397.50306 C 301.90853,402.56484 289.98643,407.01302 279.18416,409.56556 C 279.41557,419.44764 279.51527,429.50559 279.74666,437.56556 C 281.79415,436.79508 283.46226,436.13514 285.24666,435.44056 C 285.93223,449.19614 282.03779,451.20872 278.15291,453.28431 C 287.22014,451.86445 285.10512,459.04579 284.99666,468.06556 C 283.69316,468.54276 282.48174,469.14527 281.02791,469.72181 L 280.68416,496.56556 C 292.02032,492.70641 303.50728,488.99024 314.24666,484.53431 L 314.12166,452.12806 C 309.19215,463.88557 307.83113,461.02587 292.24666,465.78431 L 292.55916,452.90931 C 298.58461,450.54704 304.87637,445.36908 307.99666,452.65931 L 307.99666,435.69056 C 305.01971,443.02775 298.10179,442.7548 292.77791,444.28431 L 293.05916,432.90931 C 308.03892,426.91652 310.29869,424.06113 312.96541,433.84681 L 313.96541,397.50306 z M 263.96541,414.40931 L 243.59041,418.65931 L 242.24666,446.25306 L 248.24666,445.72181 C 247.89752,453.5774 249.55842,461.78285 239.21541,464.09681 C 250.61948,464.91506 246.6526,471.47707 246.37166,477.31556 C 244.34761,477.66404 243.31265,477.57707 241.62166,477.78431 L 240.37166,506.56556 C 252.72641,504.57666 265.50007,501.41017 276.84041,496.37806 L 277.18416,462.28431 C 276.40409,464.39569 275.09973,469.6496 271.05916,471.94056 C 267.01858,474.23153 260.26426,474.52955 254.80916,475.84681 C 254.9298,463.48957 255.19717,463.19567 262.87166,459.90931 C 251.98801,461.40725 255.5419,449.05211 255.96541,444.37806 C 259.54206,443.89473 263.12166,442.15931 263.12166,442.15931 L 263.96541,414.40931 z M 129.18416,423.53431 C 122.66067,423.73175 119.34211,428.34585 117.40291,443.31556 C 116.33034,451.59529 116.92894,456.95497 110.52791,458.31556 C 114.23536,462.28407 111.72005,470.33312 110.27791,479.34681 C 108.83578,488.3605 106.71345,500.58551 125.34041,505.56556 C 144.42929,510.66909 147.01137,501.16164 148.34041,488.97181 C 150.31618,470.85025 150.31086,472.00795 156.02791,470.94056 C 150.25129,468.04126 153.57531,460.46809 154.52791,451.90931 C 156.9936,429.75589 154.03321,428.28674 140.43416,425.69056 C 136.12323,424.86755 132.14938,423.44456 129.18416,423.53431 z M 225.05916,423.53431 C 224.51371,423.52526 223.96592,423.54869 223.40291,423.56556 C 217.50872,423.74219 210.78657,424.73546 206.18416,425.81556 L 204.05916,453.97181 L 208.34041,453.53431 C 208.47793,457.59316 208.30323,468.12615 201.37166,469.87806 C 207.54881,471.55247 207.26859,477.19351 205.96541,485.56556 L 201.30916,485.62806 C 201.30916,485.62804 200.35826,503.27503 199.40291,513.31556 C 207.12583,512.59526 222.14409,512.63955 231.12166,507.72181 C 236.69127,504.67088 239.02881,497.22442 239.30916,487.15931 C 239.85022,467.73403 232.60439,467.16089 229.77791,466.00306 C 231.42715,465.23541 238.78908,459.26773 239.05916,442.94056 C 239.32421,427.04481 233.24085,423.67006 225.05916,423.53431 z M 203.74666,426.19056 C 195.66611,426.41054 189.94715,426.46074 186.27791,427.84681 L 183.93416,457.15931 C 186.33152,457.12017 187.63069,456.78654 190.49666,456.28431 C 190.49666,456.28432 190.43321,470.9895 183.15291,471.65931 C 188.73178,473.72545 188.06137,478.49721 187.90291,481.31556 C 187.4366,489.60963 182.90914,488.71975 177.84041,488.53431 C 172.77168,488.34888 167.12167,489.2536 167.24666,480.37806 C 167.32744,474.64188 167.27902,475.02466 175.21541,471.31556 C 166.89372,469.77744 169.44793,460.84094 170.02791,457.40931 L 177.12166,457.34681 L 179.74666,428.15931 C 173.07018,429.17359 166.63912,429.5174 159.96541,427.90931 L 156.99666,456.09681 L 163.18416,457.09681 C 163.18415,457.0968 164.00572,468.77794 156.09041,470.59681 C 163.34041,472.92164 159.50707,476.35601 159.24666,493.12806 C 158.98317,510.09825 163.25582,512.35269 174.62166,512.97181 C 183.43605,513.44483 191.39718,514.16834 193.09041,494.40931 C 194.2243,481.17758 193.45793,473.50435 201.05916,470.31556 C 193.51075,466.73746 196.36849,464.18551 197.15291,455.56556 C 199.19354,455.40739 200.85285,455.39052 202.24666,454.62806 C 202.42344,445.46768 202.91071,436.01012 203.74666,426.19056 z M 78.777911,427.59681 C 90.417572,433.9509 99.911264,436.40677 102.24666,442.81556 C 103.33447,445.80068 102.01159,452.33697 96.246661,450.53431 C 101.27287,456.21466 96.748209,464.67984 92.121661,464.44056 C 87.219179,464.77594 73.739621,454.82861 72.059161,452.69056 C 74.93674,445.82852 73.338143,443.14586 80.871661,442.59681 C 73.661146,437.77559 77.196974,430.05662 78.777911,427.59681 z M 126.09041,448.56556 C 128.49497,448.51479 131.9209,449.09255 135.34041,449.97181 C 140.81164,451.37863 142.45664,452.16781 145.84041,453.56556 C 147.11669,454.09276 147.16133,457.45506 146.46541,460.90931 C 145.47738,465.8135 144.16472,466.97459 136.27791,466.72181 C 142.79168,469.51868 144.1724,471.32167 143.59041,475.22181 C 142.96816,479.39178 142.50668,482.45832 140.93416,483.53431 C 138.78087,485.00768 117.21448,481.41749 117.40291,475.59681 C 117.46266,473.70948 117.40764,472.75445 117.80916,470.19056 C 118.21069,467.62668 117.79957,464.13849 125.40291,464.37806 C 120.3806,460.62332 121.52326,451.37736 123.12166,449.40931 C 123.57995,448.84503 124.64767,448.59602 126.09041,448.56556 z M 225.43416,450.19056 C 229.72728,450.04293 232.41381,451.01868 231.12166,454.90931 C 227.54837,465.6683 214.18417,463.94055 214.18416,463.94056 L 215.30916,451.84681 C 218.12869,451.11463 222.09506,450.30537 225.43416,450.19056 z M 221.80916,470.65931 C 225.88275,470.64883 229.44315,472.47181 229.24666,477.56556 C 228.85369,487.75303 214.09252,486.31381 212.05916,486.25306 L 213.59041,472.56556 C 213.61446,472.49339 217.73557,470.66978 221.80916,470.65931 z "
           style="fill:#fd450c"
           id="path40" />
      </g>
    </g>
  </g>
</svg>
