<?xml version="1.0" encoding="utf-8"?>
<!-- Generator: Adobe Illustrator 21.0.2, SVG Export Plug-In . SVG Version: 6.00 Build 0)  -->
<svg version="1.1" id="Layer_5" xmlns="http://www.w3.org/2000/svg" xmlns:xlink="http://www.w3.org/1999/xlink" x="0px" y="0px"
	 viewBox="0 0 331 152" style="enable-background:new 0 0 331 152;" xml:space="preserve" height="204.8" width="466">
<style type="text/css">
	.st0{fill:#363636;}
</style>
<g>
	<path class="st0" d="M151.9,109.6l43.2-6.7l32.4-49h-46.9c-0.2,0-0.4,0.2-0.2,0.4l0.2,0.2c1.9,0.9,5.1,3.9-0.9,13L151.9,109.6z"/>
	<path class="st0" d="M236.3,53.8h-5.5c-0.2,0-0.2,0.2-0.2,0.4l0.2,0.2c1.9,0.9,5.1,3.9-0.9,13l-22,33.3l-0.2,0.2l29.1-4.4
		c3-0.5,5.8-1.4,8.3-2.8c8.1-4.6,13.5-11.2,18.7-18.8l13.9-21.1L236.3,53.8L236.3,53.8z"/>
	<path class="st0" d="M96,118.1l43.2-6.7l38.2-57.6H4.6c-0.9,0-1.4,0.4-1.4,0.9c0,0.5,0.4,0.9,1.4,1.1l119.6,19.6L96,118.1z"/>
	<polygon class="st0" points="52.3,72.6 0,151.5 69.6,140.9 108.4,82.4 	"/>
	<path class="st0" d="M152.6,1h-22.9c-16.5,0.7-28.8,6.9-38.6,14.8C83.7,22,77.3,29.4,71.9,37.3l-5,7.6h199.9
		c11.8-0.5,20.6-3,28.8-7.4c13.2-7.3,22.7-17.8,31-29.8l4.4-6.7C329.3,1,152.6,1,152.6,1"/>
	<path class="st0" d="M151.9,109.6l43.2-6.7l32.4-49h-46.9c-0.2,0-0.4,0.2-0.2,0.4l0.2,0.2c1.9,0.9,5.1,3.9-0.9,13L151.9,109.6z"/>
	<path class="st0" d="M236.3,53.8h-5.5c-0.2,0-0.2,0.2-0.2,0.4l0.2,0.2c1.9,0.9,5.1,3.9-0.9,13l-22,33.3l-0.2,0.2l29.1-4.4
		c3-0.5,5.8-1.4,8.3-2.8c8.1-4.6,13.5-11.2,18.7-18.8l13.9-21.1L236.3,53.8L236.3,53.8z"/>
	<path class="st0" d="M96,118.1l43.2-6.7l38.2-57.6H4.6c-0.9,0-1.4,0.4-1.4,0.9c0,0.5,0.4,0.9,1.4,1.1l119.6,19.6L96,118.1z"/>
	<polygon class="st0" points="52.3,72.6 0,151.5 69.6,140.9 108.4,82.4 	"/>
	<path class="st0" d="M152.6,1h-22.9c-16.5,0.7-28.8,6.9-38.6,14.8C83.7,22,77.3,29.4,71.9,37.3l-5,7.6h199.9
		c11.8-0.5,20.6-3,28.8-7.4c13.2-7.3,22.7-17.8,31-29.8l4.4-6.7C329.3,1,152.6,1,152.6,1"/>
</g>
</svg>
