<?xml version="1.0" encoding="UTF-8" standalone="no"?>
<!-- Created with Inkscape (http://www.inkscape.org/) -->

<svg
   xmlns:dc="http://purl.org/dc/elements/1.1/"
   xmlns:cc="http://creativecommons.org/ns#"
   xmlns:rdf="http://www.w3.org/1999/02/22-rdf-syntax-ns#"
   xmlns:svg="http://www.w3.org/2000/svg"
   xmlns="http://www.w3.org/2000/svg"
   xmlns:sodipodi="http://sodipodi.sourceforge.net/DTD/sodipodi-0.dtd"
   xmlns:inkscape="http://www.inkscape.org/namespaces/inkscape"
   width="600.30469"
   height="162.34375"
   version="1.1"
   id="svg23"
   sodipodi:docname="github.svg"
   inkscape:version="0.92.3 (2405546, 2018-03-11)">
  <sodipodi:namedview
     pagecolor="#ffffff"
     bordercolor="#666666"
     borderopacity="1"
     objecttolerance="10"
     gridtolerance="10"
     guidetolerance="10"
     inkscape:pageopacity="0"
     inkscape:pageshadow="2"
     inkscape:window-width="1920"
     inkscape:window-height="1046"
     id="namedview25"
     showgrid="false"
     fit-margin-top="0"
     fit-margin-left="0"
     fit-margin-right="0"
     fit-margin-bottom="0"
     inkscape:zoom="0.84804514"
     inkscape:cx="46.60076"
     inkscape:cy="81.171875"
     inkscape:window-x="0"
     inkscape:window-y="34"
     inkscape:window-maximized="1"
     inkscape:current-layer="svg23" />
  <defs
     id="defs4">
    <clipPath
       clipPathUnits="userSpaceOnUse"
       id="clipPath3020">
      <path
         d="M 0,0 H 4802 V 1298.75 H 0 Z"
         id="path3022"
         inkscape:connector-curvature="0" />
    </clipPath>
  </defs>
  <metadata
     id="metadata7">image/svg+xml<rdf:RDF>
  <cc:Work
     rdf:about="">
    <dc:format>image/svg+xml</dc:format>
    <dc:type
       rdf:resource="http://purl.org/dc/dcmitype/StillImage" />
    <dc:title />
  </cc:Work>
</rdf:RDF>
</metadata>
  <path
     style="fill:#ffffff;fill-rule:nonzero;fill-opacity:1"
     d="M 68.220703,0 C 34.543953,0 0,14.327995 0,83.203125 c 0,68.877455 39.548833,79.140625 72.876953,79.140625 27.594627,0 44.335937,-11.79297 44.335937,-11.79297 0.68999,-0.38135 0.76367,-1.34477 0.76367,-1.78711 V 71.841797 c 0,-1.30225 -1.05421,-2.357422 -2.35547,-2.357422 H 65.175781 c -1.30125,0 -2.357422,1.055152 -2.357422,2.357422 V 96.50586 c 0,1.30125 1.056172,2.36133 2.357422,2.36133 h 19.679688 v 30.64062 c 0,0 -4.419506,1.50781 -16.634766,1.50781 -14.41262,0 -34.546875,-5.26666 -34.546875,-49.539058 0,-44.282369 20.963864,-50.109374 40.646484,-50.109374 17.037118,0 24.378448,3.000312 29.048828,4.445312 1.46725,0.45 2.82422,-1.011953 2.82422,-2.314453 l 5.62695,-23.830078 c 0,-0.60875 -0.20552,-1.341094 -0.90039,-1.839844 C 109.02305,6.475635 97.45258,0 68.220703,0 Z M 267.48438,5.880859 c -1.29251,0 -2.34766,1.058594 -2.34766,2.371094 V 156.88086 c 0,1.31105 1.05515,2.37891 2.34766,2.37891 h 28.40234 c 1.29874,0 2.34375,-1.06788 2.34375,-2.37891 V 93.30859 h 44.27344 c 0,0 -0.0781,63.56739 -0.0781,63.57227 0,1.31105 1.05478,2.37891 2.35352,2.37891 H 373.25 c 1.30124,0 2.34125,-1.06788 2.34375,-2.37891 V 8.251953 c 0,-1.3125 -1.04056,-2.371094 -2.3418,-2.371094 h -28.40234 c -1.29752,0 -2.35352,1.058594 -2.35352,2.371094 l 0.008,54.890625 H 298.23047 V 8.251953 c 0,-1.3125 -1.04501,-2.371094 -2.34375,-2.371094 z m 235.36718,0 c -1.29501,0 -2.34765,1.058594 -2.34765,2.371094 V 156.88086 c 0,1.31105 1.05282,2.37891 2.35156,2.37891 h 19.76172 c 0.89001,0 1.56494,-0.45801 2.0625,-1.26172 0.49121,-0.79883 1.19922,-6.85352 1.19922,-6.85352 0,0 11.64654,11.03711 33.69531,11.03711 25.88501,0 40.73047,-13.13036 40.73047,-58.94336 0,-45.814009 -23.7085,-51.798827 -39.72852,-51.798827 -16.00873,0 -26.89844,7.140625 -26.89844,7.140625 V 8.251953 c 0,-1.3125 -1.04871,-2.371094 -2.34375,-2.371094 z M 150.9043,9.263672 c -10.10625,0 -18.3125,8.264697 -18.3125,18.492187 0,10.21687 8.20625,18.503907 18.3125,18.503907 10.11626,0 18.3164,-8.287027 18.3164,-18.503907 0,-10.22749 -8.20015,-18.492187 -18.3164,-18.492187 z m 45.76367,15.53125 c -1.12875,0 -1.73438,0.497031 -1.73438,1.582031 v 29.085938 c 0,0 -14.54946,3.513245 -15.5332,3.796875 -0.98001,0.28425 -1.70117,1.187495 -1.70117,2.265625 v 18.279297 c 0,1.314379 1.0489,2.373046 2.34766,2.373046 h 14.88671 v 43.974606 c 0,32.66113 22.91108,35.86914 38.3711,35.86914 7.06374,0 15.51321,-2.26807 16.9082,-2.7832 0.84375,-0.31003 1.33399,-1.18361 1.33399,-2.13086 l 0.0234,-20.10937 c 0,-1.31099 -1.10797,-2.3711 -2.35547,-2.3711 -1.24124,0 -4.4175,0.50391 -7.6875,0.50391 -10.465,0 -14.01172,-4.86566 -14.01172,-11.16406 0,-6.29388 1e-5,-41.789066 0,-41.789066 h 21.30665 c 1.29877,0 2.34961,-1.058676 2.34961,-2.373046 V 56.908203 c 0,-1.31213 -1.05084,-2.367187 -2.34961,-2.367187 h -21.30665 c 0,0 -0.0312,-28.142198 -0.0312,-28.148438 0,-1.065 -0.55,-1.597656 -1.78126,-1.597656 z m -60.14258,29.759766 c -1.29874,0 -2.46094,1.338375 -2.46094,2.640624 v 98.294918 c 0,2.88913 1.79891,3.7461 4.12891,3.7461 h 25.50976 c 2.79876,0 3.48633,-1.37305 3.48633,-3.79297 V 125.5293 56.921875 c 0,-1.30275 -1.0528,-2.367187 -2.35156,-2.367187 z M 391.875,54.777344 c -1.29123,0 -2.34961,1.065953 -2.34961,2.376953 v 68.365233 c 0,29.55766 16.47421,36.78906 39.13672,36.78906 18.59125,0 33.58203,-10.27148 33.58203,-10.27148 0,0 0.71269,5.4126 1.03516,6.05469 0.32376,0.64014 1.16547,1.28711 2.07422,1.28711 l 18.19921,-0.0801 c 1.29123,0 2.34766,-1.06786 2.34766,-2.37305 l -0.008,-99.771483 c 0,-1.311 -1.05478,-2.376953 -2.35352,-2.376953 h -28.18554 c -1.29251,0 -2.34571,1.065963 -2.34571,2.376953 v 72.876953 c 0,0 -7.1585,5.23828 -17.32226,5.23828 -10.16248,0 -12.86133,-4.61123 -12.86133,-14.5625 V 57.154297 c 0,-1.311 -1.05002,-2.376953 -2.34375,-2.376953 z M 549.51562,78.53125 c 9.43782,-0.323695 18.03516,3.790669 18.03516,26.49023 0,25.53224 -4.41431,30.57033 -18.0918,30.15821 -9.77625,-0.29774 -16.4082,-4.73438 -16.4082,-4.73438 V 83.378906 c 0,0 6.54211,-4.009822 14.56836,-4.726562 0.63438,-0.05683 1.2673,-0.09951 1.89648,-0.121094 z"
     id="path3024"
     inkscape:connector-curvature="0" />
</svg>
