<?xml version="1.0" encoding="UTF-8" standalone="no"?>
<!-- Created with Inkscape (http://www.inkscape.org/) -->

<svg
   xmlns:dc="http://purl.org/dc/elements/1.1/"
   xmlns:cc="http://creativecommons.org/ns#"
   xmlns:rdf="http://www.w3.org/1999/02/22-rdf-syntax-ns#"
   xmlns:svg="http://www.w3.org/2000/svg"
   xmlns="http://www.w3.org/2000/svg"
   xmlns:sodipodi="http://sodipodi.sourceforge.net/DTD/sodipodi-0.dtd"
   xmlns:inkscape="http://www.inkscape.org/namespaces/inkscape"
   width="500"
   height="500"
   version="1.1"
   id="svg23"
   sodipodi:docname="github.svg"
   inkscape:version="0.92.3 (2405546, 2018-03-11)">
  <sodipodi:namedview
     pagecolor="#ffffff"
     bordercolor="#666666"
     borderopacity="1"
     objecttolerance="10"
     gridtolerance="10"
     guidetolerance="10"
     inkscape:pageopacity="0"
     inkscape:pageshadow="2"
     inkscape:window-width="1920"
     inkscape:window-height="1046"
     id="namedview25"
     showgrid="false"
     fit-margin-top="0"
     fit-margin-left="0"
     fit-margin-right="0"
     fit-margin-bottom="0"
     inkscape:zoom="0.84804514"
     inkscape:cx="103.20155"
     inkscape:cy="81.171886"
     inkscape:window-x="0"
     inkscape:window-y="34"
     inkscape:window-maximized="1"
     inkscape:current-layer="svg23" />
  <defs
     id="defs4">
    <clipPath
       clipPathUnits="userSpaceOnUse"
       id="clipPath3020">
      <path
         d="M 0,0 H 4802 V 1298.75 H 0 Z"
         id="path3022"
         inkscape:connector-curvature="0" />
    </clipPath>
  </defs>
  <metadata
     id="metadata7">image/svg+xml<rdf:RDF>
  <cc:Work
     rdf:about="">
    <dc:format>image/svg+xml</dc:format>
    <dc:type
       rdf:resource="http://purl.org/dc/dcmitype/StillImage" />
    <dc:title></dc:title>
  </cc:Work>
</rdf:RDF>
</metadata>
  <g
     id="g21"
     transform="matrix(0.8329099,0,0,0.8329099,-8.329074,356.45319)">
    <title
       id="title7">Layer 1</title>
    <g
       id="layer1">
      <g
         id="g3012">
        <g
           id="g3014">
          <g
             id="g3016">
            <g
               id="g3018"
               clip-path="url(#clipPath3020)">
              <path
                 d="M 125.62163,79.48438 H 75.17576 c -1.30125,0 -2.35688,1.05611 -2.35688,2.35838 v 24.66312 c 0,1.30125 1.05563,2.36087 2.35688,2.36087 H 94.855 v 30.64199 c 0,0 -4.41949,1.50639 -16.63475,1.50639 -14.41262,0 -34.54588,-5.26662 -34.54588,-49.53902 0,-44.28237 20.96425,-50.10863 40.64687,-50.10863 17.03712,0 24.37749,3.00001 29.04787,4.44501 1.46725,0.45 2.82475,-1.01125 2.82475,-2.31375 l 5.62737,-23.83 c 0,-0.60875 -0.206,-1.3425 -0.90087,-1.84125 -1.89687,-1.35249 -13.46825,-7.8275 -42.70013,-7.8275 -33.67675,0 -68.22026,14.3275 -68.22026,83.20263 0,68.87746 39.54939,79.14114 72.87751,79.14114 27.59463,0 44.33537,-11.79248 44.33537,-11.79248 0.68999,-0.38135 0.76413,-1.34529 0.76413,-1.78763 V 81.84277 c 0,-1.30225 -1.05412,-2.35838 -2.35538,-2.35838"
                 id="path3024"
                 inkscape:connector-curvature="0"
                 style="fill:#161312;fill-rule:nonzero" />
              <path
                 d="m 385.59375,18.2525 c 0,-1.3125 -1.04001,-2.37125 -2.34125,-2.37125 h -28.40375 c -1.29752,0 -2.35251,1.05875 -2.35251,2.37125 0,0.0063 0.008,54.89063 0.008,54.89063 H 308.23001 V 18.2525 c 0,-1.3125 -1.04501,-2.37125 -2.34375,-2.37125 h -28.4025 c -1.29251,0 -2.34625,1.05875 -2.34625,2.37125 v 148.62883 c 0,1.31105 1.05374,2.3784 2.34625,2.3784 h 28.4025 c 1.29874,0 2.34375,-1.06737 2.34375,-2.3784 v -63.5737 h 44.27374 c 0,0 -0.0775,63.56882 -0.0775,63.5737 0,1.31105 1.05377,2.3784 2.35251,2.3784 H 383.25 c 1.30124,0 2.34125,-1.06737 2.34375,-2.3784 V 18.2525"
                 id="path3026"
                 inkscape:connector-curvature="0"
                 style="fill:#161312;fill-rule:nonzero" />
              <path
                 d="m 179.22,37.75625 c 0,-10.22749 -8.2,-18.49249 -18.31625,-18.49249 -10.10625,0 -18.3125,8.265 -18.3125,18.49249 0,10.21687 8.20625,18.504 18.3125,18.504 10.11626,0 18.31625,-8.28712 18.31625,-18.504"
                 id="path3028"
                 inkscape:connector-curvature="0"
                 style="fill:#161312;fill-rule:nonzero" />
              <path
                 d="m 177.18875,135.52875 c 0,-3.808 0,-68.60739 0,-68.60739 0,-1.30275 -1.05125,-2.36761 -2.35001,-2.36761 h -28.31375 c -1.29874,0 -2.46126,1.33975 -2.46126,2.642 0,0 0,82.55675 0,98.29401 0,2.88913 1.79999,3.74753 4.12999,3.74753 0,0 12.08499,0 25.50999,0 2.79875,0 3.485,-1.37352 3.485,-3.79344 0,-5.26906 0,-25.90871 0,-29.9151"
                 id="path3030"
                 inkscape:connector-curvature="0"
                 style="fill:#161312;fill-rule:nonzero" />
              <path
                 d="m 493.54001,64.77737 h -28.18625 c -1.29251,0 -2.345,1.06538 -2.345,2.37637 v 72.87751 c 0,0 -7.16,5.23875 -17.32376,5.23875 -10.16248,0 -12.85999,-4.61125 -12.85999,-14.56252 0,-9.96338 0,-63.55376 0,-63.55376 0,-1.311 -1.05002,-2.37638 -2.34375,-2.37638 H 401.875 c -1.29123,0 -2.34875,1.06538 -2.34875,2.37638 0,0 0,38.81012 0,68.36624 0,29.55766 16.47375,36.7886 39.13626,36.7886 18.59125,0 33.58124,-10.27101 33.58124,-10.27101 0,0 0.71378,5.41261 1.03625,6.0547 0.32376,0.64014 1.16501,1.28662 2.07376,1.28662 l 18.19876,-0.0801 c 1.29123,0 2.34872,-1.06737 2.34872,-2.37256 l -0.009,-99.77251 c 0,-1.311 -1.05377,-2.37637 -2.35251,-2.37637"
                 id="path3032"
                 inkscape:connector-curvature="0"
                 style="fill:#161312;fill-rule:nonzero" />
              <path
                 d="m 559.45874,145.18011 c -9.77625,-0.29774 -16.40747,-4.73387 -16.40747,-4.73387 V 93.37837 c 0,0 6.54248,-4.00975 14.56873,-4.72649 10.15002,-0.90926 19.92999,2.15675 19.92999,26.36962 0,25.53224 -4.41376,30.57074 -18.09125,30.15862 z m 11.11749,-83.74162 c -16.00873,0 -26.89752,7.14249 -26.89752,7.14249 v -50.3285 c 0,-1.3125 -1.04871,-2.37125 -2.34375,-2.37125 h -28.4837 c -1.29501,0 -2.3475,1.05875 -2.3475,2.37125 v 148.62884 c 0,1.31105 1.05249,2.3784 2.35123,2.3784 0.002,0 19.75629,0 19.76251,0 0.89001,0 1.56372,-0.45848 2.06128,-1.26219 0.49121,-0.79883 1.19995,-6.85254 1.19995,-6.85254 0,0 11.64752,11.03761 33.69629,11.03761 25.88501,0 40.72998,-13.13037 40.72998,-58.94337 0,-45.81401 -23.70874,-51.80075 -39.72876,-51.80075"
                 id="path3034"
                 inkscape:connector-curvature="0"
                 style="fill:#161312;fill-rule:nonzero" />
              <path
                 d="m 258.82248,64.54049 h -21.30623 c 0,0 -0.0325,-28.14175 -0.0325,-28.14799 0,-1.065 -0.54875,-1.5975 -1.78,-1.5975 h -29.035 c -1.12875,0 -1.735,0.49625 -1.735,1.58125 v 29.08712 c 0,0 -14.55,3.51275 -15.53374,3.79638 -0.98001,0.28425 -1.70125,1.1875 -1.70125,2.26563 v 18.27838 c 0,1.31438 1.05,2.3745 2.34875,2.3745 h 14.88623 c 0,0 0,19.11762 0,43.97312 0,32.66113 22.90999,35.87012 38.37001,35.87012 7.06374,0 15.51375,-2.26906 16.90874,-2.78419 0.84375,-0.31003 1.33377,-1.18358 1.33377,-2.13083 l 0.0237,-20.10797 c 0,-1.31099 -1.10751,-2.37198 -2.35501,-2.37198 -1.24124,0 -4.4175,0.50487 -7.6875,0.50487 -10.465,0 -14.01125,-4.86623 -14.01125,-11.16463 0,-6.29388 -0.001,-41.7885 -0.001,-41.7885 h 21.30751 c 1.29877,0 2.35001,-1.06013 2.35001,-2.3745 v -22.895 c 0,-1.31213 -1.05124,-2.36825 -2.35001,-2.36825"
                 id="path3036"
                 inkscape:connector-curvature="0"
                 style="fill:#161312;fill-rule:nonzero" />
            </g>
          </g>
        </g>
      </g>
    </g>
  </g>
  <g
     id="g4792"
     transform="matrix(1.862953,0,0,1.862953,-298.98238,381.00042)">
    <path
       d="m 299.51236,-195.6976 c -44.46267,0 -80.51733,36.04666 -80.51733,80.51733 0,35.573329 23.07066,65.754669 55.06266,76.401329 4.024,0.74534 5.50134,-1.74666 5.50134,-3.87333 0,-1.91867 -0.0747,-8.26267 -0.10934,-14.99067 -22.4,4.87067 -27.12666,-9.5 -27.12666,-9.5 -3.66267,-9.30533 -8.94,-11.78133 -8.94,-11.78133 -7.30534,-4.99733 0.55066,-4.89467 0.55066,-4.89467 8.08534,0.568 12.34267,8.29867 12.34267,8.29867 7.18133,12.308 18.836,8.74933 23.43067,6.692 0.724,-5.20267 2.80933,-8.756 5.112,-10.76667 -17.884,-2.03466 -36.684,-8.94 -36.684,-39.791999 0,-8.78933 3.14533,-15.97333 8.296,-21.612 -0.836,-2.028 -3.592,-10.21733 0.78133,-21.308 0,0 6.76133,-2.16266 22.14667,8.25467 6.42266,-1.784 13.31066,-2.67867 20.15333,-2.71067 6.84267,0.032 13.736,0.92667 20.17067,2.71067 15.368,-10.41733 22.12,-8.25467 22.12,-8.25467 4.38266,11.09067 1.62666,19.28 0.79066,21.308 5.16267,5.63867 8.28534,12.82267 8.28534,21.612 0,30.926669 -18.836,37.734669 -36.76534,39.727999 2.888,2.49867 5.46134,7.39867 5.46134,14.91067 0,10.77333 -0.092,19.444 -0.092,22.096 0,2.144 1.448,4.65333 5.52933,3.864 31.976,-10.65867 55.01733,-40.82933 55.01733,-76.391999 0,-44.47067 -36.04933,-80.51733 -80.51733,-80.51733"
       style="fill:#1b1817;fill-opacity:1;fill-rule:evenodd;stroke:none;stroke-width:1.33333325"
       id="path28"
       inkscape:connector-curvature="0" />
    <path
       d="m 249.49156,-80.093341 c -0.17733,0.40134 -0.80667,0.52134 -1.38,0.24667 -0.58533,-0.264 -0.912,-0.80933 -0.72267,-1.21067 0.17334,-0.41066 0.80267,-0.52533 1.38667,-0.25066 0.584,0.26266 0.91733,0.81333 0.716,1.21466"
       style="fill:#1b1817;fill-opacity:1;fill-rule:nonzero;stroke:none;stroke-width:1.33333325"
       id="path32"
       inkscape:connector-curvature="0" />
    <path
       d="m 252.75329,-76.455341 c -0.384,0.356 -1.136,0.19067 -1.644,-0.372 -0.528,-0.56133 -0.62533,-1.31333 -0.236,-1.67333 0.396,-0.356 1.124,-0.18933 1.65067,0.372 0.528,0.568 0.63067,1.312 0.22933,1.67333"
       style="fill:#1b1817;fill-opacity:1;fill-rule:nonzero;stroke:none;stroke-width:1.33333325"
       id="path36"
       inkscape:connector-curvature="0" />
    <path
       d="m 255.92783,-71.818671 c -0.49334,0.344 -1.30134,0.0227 -1.8,-0.69333 -0.49334,-0.71734 -0.49334,-1.576 0.012,-1.92 0.49866,-0.344 1.29466,-0.0333 1.8,0.676 0.492,0.728 0.492,1.58666 -0.012,1.93733"
       style="fill:#1b1817;fill-opacity:1;fill-rule:nonzero;stroke:none;stroke-width:1.33333325"
       id="path40"
       inkscape:connector-curvature="0" />
    <path
       d="m 260.27676,-67.338141 c -0.44133,0.48667 -1.38133,0.356 -2.06933,-0.30933 -0.704,-0.648 -0.9,-1.56933 -0.45867,-2.056 0.448,-0.488 1.39333,-0.35067 2.08667,0.308 0.69866,0.648 0.91066,1.576 0.44133,2.05733"
       style="fill:#1b1817;fill-opacity:1;fill-rule:nonzero;stroke:none;stroke-width:1.33333325"
       id="path44"
       inkscape:connector-curvature="0" />
    <path
       d="m 266.27676,-64.736671 c -0.196,0.63067 -1.1,0.916 -2.012,0.648 -0.91067,-0.276 -1.50667,-1.01333 -1.32267,-1.65067 0.18934,-0.63466 1.09867,-0.93333 2.01734,-0.64666 0.90933,0.27466 1.50666,1.008 1.31733,1.64933"
       style="fill:#1b1817;fill-opacity:1;fill-rule:nonzero;stroke:none;stroke-width:1.33333325"
       id="path48"
       inkscape:connector-curvature="0" />
    <path
       d="m 272.86663,-64.254801 c 0.0227,0.664 -0.75067,1.21466 -1.708,1.22666 -0.96267,0.0213 -1.74267,-0.516 -1.75334,-1.16933 0,-0.67067 0.75734,-1.21467 1.71867,-1.232 0.95733,-0.0187 1.74267,0.516 1.74267,1.17467"
       style="fill:#1b1817;fill-opacity:1;fill-rule:nonzero;stroke:none;stroke-width:1.33333325"
       id="path52"
       inkscape:connector-curvature="0" />
    <path
       d="m 278.99809,-65.297871 c 0.11467,0.64667 -0.55066,1.312 -1.50133,1.48933 -0.93467,0.172 -1.8,-0.22933 -1.91867,-0.87066 -0.116,-0.664 0.56,-1.32934 1.49467,-1.50134 0.952,-0.16533 1.804,0.224 1.92533,0.88267"
       style="fill:#1b1817;fill-opacity:1;fill-rule:nonzero;stroke:none;stroke-width:1.33333325"
       id="path56"
       inkscape:connector-curvature="0" />
  </g>
</svg>
