<?xml version="1.0" encoding="UTF-8" standalone="no"?>
<svg
   xmlns:dc="http://purl.org/dc/elements/1.1/"
   xmlns:cc="http://creativecommons.org/ns#"
   xmlns:rdf="http://www.w3.org/1999/02/22-rdf-syntax-ns#"
   xmlns:svg="http://www.w3.org/2000/svg"
   xmlns="http://www.w3.org/2000/svg"
   id="svg3301"
   version="1.1"
   xml:space="preserve"
   width="165.89355"
   height="24.574324"
   viewBox="0 0 165.89356 24.574324"><defs
     id="defs3305"><clipPath
       clipPathUnits="userSpaceOnUse"
       id="clipPath3317"><path
         d="M 0,0 652,0 652,510 0,510 0,0 Z"
         id="path3319" /></clipPath><clipPath
       clipPathUnits="userSpaceOnUse"
       id="clipPath3323"><path
         d="M 0,0 652,0 652,510 0,510 0,0 Z"
         id="path3325" /></clipPath><clipPath
       clipPathUnits="userSpaceOnUse"
       id="clipPath3575"><path
         d="m 107.463,416.585 0,-17.997 1.575,0.011 c 1.765,0.013 3.528,0.025 5.293,0.034 l 0,0 0.235,0.001 0,7.903 12.453,0 0,-7.033 0.236,0 c 1.819,0 3.64,0 5.463,10e-4 l 0,0 0.235,10e-4 -0.014,11.044 c -0.003,1.003 -1.205,2.29 -2.066,2.77 l 0,0 c -0.81,0.45 -1.993,0.668 -3.618,0.669 l 0,0 -0.236,0 0,-5.131 -13.592,-10e-4 -0.638,0.612 0,7.116 -5.326,0 z"
         id="path3577" /></clipPath><clipPath
       clipPathUnits="userSpaceOnUse"
       id="clipPath3579"><path
         d="M 0,0 652,0 652,510 0,510 0,0 Z"
         id="path3581" /></clipPath><clipPath
       clipPathUnits="userSpaceOnUse"
       id="clipPath3583"><path
         d="m 132.95318,416.5849 0,-17.99636 -25.49003,0 0,17.99636 25.49003,0 z"
         id="path3585" /></clipPath><linearGradient
       x1="0"
       y1="0"
       x2="1"
       y2="0"
       gradientUnits="userSpaceOnUse"
       gradientTransform="matrix(0,-17.996,-17.996,0,120.2083,416.5849)"
       spreadMethod="pad"
       id="linearGradient3587"><stop
         style="stop-opacity:1;stop-color:#729bc7"
         offset="0"
         id="stop3589" /><stop
         style="stop-opacity:1;stop-color:#547395"
         offset="1"
         id="stop3591" /></linearGradient><clipPath
       clipPathUnits="userSpaceOnUse"
       id="clipPath3593"><path
         d="m 175.82,416.585 -0.029,-14.736 2.139,-2.378 20.771,0 0,1.089 -2.227,1.767 -11.747,10e-4 c -1.118,0 -1.862,0.139 -2.216,0.416 l 0,0 c -0.452,0.353 -0.519,1.181 -0.519,1.643 l 0,0 0,8.129 -3.646,4.069 -2.526,0 z"
         id="path3595" /></clipPath><clipPath
       clipPathUnits="userSpaceOnUse"
       id="clipPath3597"><path
         d="M 0,0 652,0 652,510 0,510 0,0 Z"
         id="path3599" /></clipPath><clipPath
       clipPathUnits="userSpaceOnUse"
       id="clipPath3601"><path
         d="m 198.70121,416.5849 0,-17.11392 -22.91013,0 0,17.11392 22.91013,0 z"
         id="path3603" /></clipPath><linearGradient
       x1="0"
       y1="0"
       x2="1"
       y2="0"
       gradientUnits="userSpaceOnUse"
       gradientTransform="matrix(0,-17.11392,-17.11392,0,187.2464,416.5849)"
       spreadMethod="pad"
       id="linearGradient3605"><stop
         style="stop-opacity:1;stop-color:#729bc7"
         offset="0"
         id="stop3607" /><stop
         style="stop-opacity:1;stop-color:#547395"
         offset="1"
         id="stop3609" /></linearGradient><clipPath
       clipPathUnits="userSpaceOnUse"
       id="clipPath3611"><path
         d="m 153.738,416.585 -4.961,-5.49 2.55,0 0.315,0.321 c 0.258,0.265 0.516,0.527 0.776,0.791 l 0,0 3.21,-3.682 -9.151,0 -8.065,-8.928 6.291,0.015 0.07,0.077 c 1.097,1.216 2.194,2.433 3.29,3.65 l 0,0 0.675,0.75 c 0.261,0.271 0.472,0.506 0.664,0.723 l 0,0 c 0.364,0.408 0.651,0.73 1.109,1.101 l 0,0 c 0.472,0.385 1.162,0.417 1.887,0.417 l 0,0 0.262,-10e-4 c 0.101,0 0.201,10e-4 0.294,0.003 l 0,0 4.448,0.001 6.477,-7.006 6.85,0 -0.355,0.394 c -5.046,5.596 -10.091,11.19 -15.14,16.786 l 0,0 -0.07,0.078 -1.426,0 z"
         id="path3613" /></clipPath><clipPath
       clipPathUnits="userSpaceOnUse"
       id="clipPath3615"><path
         d="M 0,0 652,0 652,510 0,510 0,0 Z"
         id="path3617" /></clipPath><clipPath
       clipPathUnits="userSpaceOnUse"
       id="clipPath3619"><path
         d="m 170.72948,416.5849 0,-17.25783 -32.31784,0 0,17.25783 32.31784,0 z"
         id="path3621" /></clipPath><linearGradient
       x1="0"
       y1="0"
       x2="1"
       y2="0"
       gradientUnits="userSpaceOnUse"
       gradientTransform="matrix(0,-17.25809,-17.25809,0,154.5703,416.5849)"
       spreadMethod="pad"
       id="linearGradient3623"><stop
         style="stop-opacity:1;stop-color:#729bc7"
         offset="0"
         id="stop3625" /><stop
         style="stop-opacity:1;stop-color:#547395"
         offset="1"
         id="stop3627" /></linearGradient><clipPath
       clipPathUnits="userSpaceOnUse"
       id="clipPath3629"><path
         d="m 215.62,418.201 -1.844,-0.132 -1.808,-0.221 -1.776,-0.309 -0.551,-0.166 -0.086,-0.047 c -0.345,-0.299 -0.692,-0.596 -1.039,-0.895 l 0,0 -2.511,-0.879 -1.319,-0.565 -1.2,-0.622 -1.068,-0.68 -0.922,-0.728 c -0.253,-0.249 -0.504,-0.499 -0.774,-0.773 l 0,0 c -0.201,-0.258 -0.397,-0.519 -0.613,-0.811 l 0,0 -0.283,-0.519 2.168,-0.753 0.456,0.662 0.507,0.552 0.539,0.465 0.189,0.151 c 0.247,0.17 0.492,0.34 0.716,0.499 l 0,0 c 0.319,0.179 0.636,0.36 0.938,0.533 l 0,0 c 0.359,0.169 0.72,0.336 1.067,0.497 l 0,0 1.182,0.453 1.286,0.397 1.374,0.336 1.446,0.267 1.454,0.187 1.579,0.123 1.551,0.04 1.552,-0.04 1.532,-0.116 1.501,-0.192 1.443,-0.266 1.375,-0.335 1.286,-0.397 1.183,-0.451 0.195,-0.09 c 0.294,-0.136 0.591,-0.274 0.868,-0.405 l 0,0 0.934,-0.528 0.632,-0.439 0.817,-0.67 0.503,-0.547 0.366,-0.521 0.241,-0.492 c 0.04,-0.136 0.08,-0.274 0.119,-0.41 l 0,0 0.062,-0.503 -0.037,-0.418 -0.016,-0.059 c -0.042,-0.146 -0.084,-0.292 -0.115,-0.401 l 0,0 -0.236,-0.497 -0.366,-0.529 -0.427,-0.467 -0.726,-0.644 -0.797,-0.554 c -0.318,-0.181 -0.635,-0.36 -0.938,-0.532 l 0,0 -1.063,-0.501 -0.112,-0.042 c -0.364,-0.138 -0.726,-0.275 -1.073,-0.41 l 0,0 -1.301,-0.4 -1.361,-0.331 c -0.484,-0.09 -0.971,-0.179 -1.444,-0.267 l 0,0 -1.5,-0.193 -1.314,-0.101 -1.77,-0.057 -1.554,0.039 c -0.114,0.008 -0.227,0.017 -0.345,0.027 l 0,0 -1.187,0.09 -1.499,0.194 c -0.488,0.089 -0.972,0.178 -1.445,0.265 l 0,0 -1.373,0.333 -1.008,0.314 -1.068,-1.91 0.248,-0.1 c 0,0 0.244,-0.099 0.412,-0.154 l 0,0 c 0.324,-0.115 0.644,-0.196 0.954,-0.275 l 0,0 c 0.173,-0.044 0.35,-0.089 0.542,-0.144 l 0,0 1.157,-0.256 2.113,-0.38 1.71,-0.202 1.114,-0.774 2.418,-0.097 0.006,0 1.867,0.045 0.096,0.007 c 0.578,0.042 1.157,0.083 1.747,0.126 l 0,0 1.812,0.221 c 0.578,0.101 1.161,0.202 1.756,0.304 l 0,0 0.187,0.043 c 0.494,0.115 0.99,0.231 1.499,0.347 l 0,0 1.602,0.467 1.503,0.543 1.387,0.611 c 0.272,0.145 0.542,0.29 0.813,0.436 l 0,0 0.449,0.242 1.127,0.739 c 0.314,0.257 0.631,0.514 0.97,0.789 l 0,0 0.811,0.838 0.646,0.879 c 0.15,0.292 0.299,0.583 0.447,0.874 l 0,0 0.352,0.685 0.193,0.171 c 0.09,0.031 0.175,0.063 0.23,0.088 l 0,0 0.564,0.102 2.634,0 0,1.705 -2.595,-0.003 -0.564,0.096 -0.268,0.097 -0.195,0.172 -0.352,0.685 c -0.147,0.29 -0.297,0.581 -0.466,0.903 l 0,0 -0.646,0.872 -0.811,0.834 c -0.319,0.256 -0.636,0.513 -0.971,0.786 l 0,0 -1.124,0.733 -1.26,0.675 -1.386,0.611 -1.502,0.54 -1.602,0.468 c -0.557,0.126 -1.115,0.256 -1.685,0.387 l 0,0 -1.755,0.304 -1.811,0.22 -1.842,0.132 c -0.618,0.014 -1.234,0.029 -1.863,0.046 l 0,0 c -0.616,-0.017 -1.233,-0.032 -1.86,-0.047"
         id="path3631" /></clipPath><clipPath
       clipPathUnits="userSpaceOnUse"
       id="clipPath3633"><path
         d="M 0,0 652,0 652,510 0,510 0,0 Z"
         id="path3635" /></clipPath><clipPath
       clipPathUnits="userSpaceOnUse"
       id="clipPath3637"><path
         d="m 240.17866,418.248 0,-18.82004 -40.35274,0 0,18.82004 40.35274,0 z"
         id="path3639" /></clipPath><linearGradient
       x1="0"
       y1="0"
       x2="1"
       y2="0"
       gradientUnits="userSpaceOnUse"
       gradientTransform="matrix(0,-18.81966,-18.81966,0,220.0021,418.248)"
       spreadMethod="pad"
       id="linearGradient3641"><stop
         style="stop-opacity:1;stop-color:#729bc7"
         offset="0"
         id="stop3643" /><stop
         style="stop-opacity:1;stop-color:#547395"
         offset="1"
         id="stop3645" /></linearGradient><clipPath
       clipPathUnits="userSpaceOnUse"
       id="clipPath3647"><path
         d="m 216.341,410.297 c -0.098,-0.009 -0.199,-0.016 -0.311,-0.023 l 0,0 -0.313,-0.041 -0.866,-0.212 -0.73,-0.344 c -0.058,-0.04 -0.118,-0.082 -0.2,-0.138 l 0,0 -0.04,-0.035 c -0.041,-0.035 -0.082,-0.07 -0.129,-0.114 l 0,0 c -0.049,-0.048 -0.096,-0.1 -0.154,-0.167 l 0,0 c -0.037,-0.051 -0.074,-0.105 -0.123,-0.179 l 0,0 -0.135,-0.35 -0.009,-0.378 0.054,-0.218 0.105,-0.222 c 0.034,-0.051 0.071,-0.101 0.121,-0.169 l 0,0 c 0.045,-0.051 0.092,-0.101 0.149,-0.158 l 0,0 c 0.049,-0.045 0.101,-0.09 0.181,-0.158 l 0,0 0.424,-0.262 0.711,-0.272 0.653,-0.145 0.931,-0.07 0.006,0.235 -0.005,-0.235 0.006,0 0.327,0.007 0.616,0.064 0.869,0.212 0.508,0.213 0.419,0.267 c 0.055,0.046 0.111,0.092 0.178,0.154 l 0,0 0.27,0.339 c 0.021,0.041 0.04,0.08 0.058,0.12 l 0,0 0.081,0.236 0.009,0.374 -0.09,0.302 c -0.018,0.039 -0.037,0.079 -0.07,0.136 l 0,0 -0.272,0.336 c -0.043,0.039 -0.088,0.076 -0.134,0.113 l 0,0 -0.048,0.04 c -0.06,0.04 -0.118,0.081 -0.197,0.136 l 0,0 -0.391,0.204 -0.609,0.216 -0.902,0.164 c -0.101,0.006 -0.199,0.013 -0.308,0.022 l 0,0 -0.322,0.008 -0.318,-0.008 z"
         id="path3649" /></clipPath><clipPath
       clipPathUnits="userSpaceOnUse"
       id="clipPath3651"><path
         d="M 0,0 652,0 652,510 0,510 0,0 Z"
         id="path3653" /></clipPath><clipPath
       clipPathUnits="userSpaceOnUse"
       id="clipPath3655"><path
         d="m 220.00207,410.30563 0,-3.66431 -6.67091,0 0,3.66431 6.67091,0 z"
         id="path3657" /></clipPath><linearGradient
       x1="0"
       y1="0"
       x2="1"
       y2="0"
       gradientUnits="userSpaceOnUse"
       gradientTransform="matrix(0,-3.664368,-3.664368,0,216.6667,410.3058)"
       spreadMethod="pad"
       id="linearGradient3659"><stop
         style="stop-opacity:1;stop-color:#729bc7"
         offset="0"
         id="stop3661" /><stop
         style="stop-opacity:1;stop-color:#547395"
         offset="1"
         id="stop3663" /></linearGradient><clipPath
       clipPathUnits="userSpaceOnUse"
       id="clipPath3669"><path
         d="m 82.656,381.703 176.63,0 0,36.545 -176.63,0 0,-36.545 z"
         id="path3671" /></clipPath></defs><g
     id="g3309"
     transform="matrix(1.25,0,0,-1.25,-134.32894,522.81)"><g
       id="g3313"><g
         id="g3315"
         clip-path="url(#clipPath3317)"><g
           id="g3835"><g
             clip-path="url(#clipPath3323)"
             id="g3837"><g
               id="g4127"><g
                 clip-path="url(#clipPath3575)"
                 id="g4129"><g
                   clip-path="url(#clipPath3579)"
                   id="g4131"><g
                     id="g4133"><g
                       clip-path="url(#clipPath3583)"
                       id="g4135"><path
                         d="M 0,0 652,0 652,510 0,510 0,0 Z"
                         style="fill:url(#linearGradient3587);stroke:none"
                         id="path4137" /></g></g></g></g></g><g
               id="g4139"><g
                 clip-path="url(#clipPath3593)"
                 id="g4141"><g
                   clip-path="url(#clipPath3597)"
                   id="g4143"><g
                     id="g4145"><g
                       clip-path="url(#clipPath3601)"
                       id="g4147"><path
                         d="M 0,0 652,0 652,510 0,510 0,0 Z"
                         style="fill:url(#linearGradient3605);stroke:none"
                         id="path4149" /></g></g></g></g></g><g
               id="g4151"><g
                 clip-path="url(#clipPath3611)"
                 id="g4153"><g
                   clip-path="url(#clipPath3615)"
                   id="g4155"><g
                     id="g4157"><g
                       clip-path="url(#clipPath3619)"
                       id="g4159"><path
                         d="M 0,0 652,0 652,510 0,510 0,0 Z"
                         style="fill:url(#linearGradient3623);stroke:none"
                         id="path4161" /></g></g></g></g></g><g
               id="g4163"><g
                 clip-path="url(#clipPath3629)"
                 id="g4165"><g
                   clip-path="url(#clipPath3633)"
                   id="g4167"><g
                     id="g4169"><g
                       clip-path="url(#clipPath3637)"
                       id="g4171"><path
                         d="M 0,0 652,0 652,510 0,510 0,0 Z"
                         style="fill:url(#linearGradient3641);stroke:none"
                         id="path4173" /></g></g></g></g></g><g
               id="g4175"><g
                 clip-path="url(#clipPath3647)"
                 id="g4177"><g
                   clip-path="url(#clipPath3651)"
                   id="g4179"><g
                     id="g4181"><g
                       clip-path="url(#clipPath3655)"
                       id="g4183"><path
                         d="M 0,0 652,0 652,510 0,510 0,0 Z"
                         style="fill:url(#linearGradient3659);stroke:none"
                         id="path4185" /></g></g></g></g></g><g
               id="g4193"><g
                 clip-path="url(#clipPath3669)"
                 id="g4195"><path
                   d="m 238.9705,411.9386 c -0.038,0.019 -0.092,0.028 -0.169,0.028 l -0.118,0 0,-0.279 0.124,0 c 0.06,0 0.103,0.006 0.132,0.018 0.056,0.02 0.082,0.06 0.082,0.121 0,0.055 -0.016,0.093 -0.051,0.112 m -0.149,0.125 c 0.096,0 0.168,-0.01 0.213,-0.03 0.082,-0.032 0.123,-0.098 0.123,-0.196 0,-0.068 -0.026,-0.121 -0.078,-0.154 -0.027,-0.017 -0.065,-0.029 -0.113,-0.036 0.059,-0.011 0.105,-0.036 0.135,-0.076 0.028,-0.042 0.042,-0.083 0.042,-0.122 l 0,-0.057 c 0,-0.018 0,-0.038 0.001,-0.058 0.002,-0.021 0.004,-0.035 0.007,-0.041 l 0.006,-0.009 -0.132,0 c 0,0.002 0,0.004 -0.002,0.007 0,0.003 0,0.006 -0.002,0.009 l -0.001,0.024 0,0.064 c 0,0.09 -0.025,0.15 -0.075,0.178 -0.028,0.016 -0.081,0.024 -0.155,0.024 l -0.107,0 0,-0.306 -0.139,0 0,0.779 0.277,0 z m -0.424,0.041 c -0.12,-0.12 -0.179,-0.264 -0.179,-0.433 0,-0.171 0.059,-0.317 0.178,-0.437 0.12,-0.121 0.263,-0.181 0.436,-0.181 0.168,0 0.314,0.06 0.433,0.181 0.119,0.12 0.18,0.266 0.18,0.437 0,0.169 -0.061,0.313 -0.18,0.433 -0.119,0.121 -0.265,0.18 -0.433,0.18 -0.169,0 -0.316,-0.059 -0.435,-0.18 m 0.941,-0.938 c -0.14,-0.139 -0.309,-0.21 -0.505,-0.21 -0.197,0 -0.367,0.071 -0.504,0.21 -0.138,0.139 -0.206,0.307 -0.206,0.505 0,0.196 0.068,0.362 0.206,0.502 0.139,0.139 0.307,0.208 0.504,0.208 0.196,0 0.365,-0.069 0.505,-0.208 0.137,-0.138 0.207,-0.306 0.207,-0.502 0,-0.197 -0.07,-0.365 -0.207,-0.505"
                   style="fill:#729bc7;fill-opacity:1;fill-rule:nonzero;stroke:none"
                   id="path4197" /></g></g></g></g></g></g></g></svg>