<?xml version="1.0" encoding="UTF-8" standalone="no"?>
<!-- Generator: Adobe Illustrator 21.0.0, SVG Export Plug-In . SVG Version: 6.00 Build 0)  -->

<svg
   xmlns:dc="http://purl.org/dc/elements/1.1/"
   xmlns:cc="http://creativecommons.org/ns#"
   xmlns:rdf="http://www.w3.org/1999/02/22-rdf-syntax-ns#"
   xmlns:svg="http://www.w3.org/2000/svg"
   xmlns="http://www.w3.org/2000/svg"
   xmlns:sodipodi="http://sodipodi.sourceforge.net/DTD/sodipodi-0.dtd"
   xmlns:inkscape="http://www.inkscape.org/namespaces/inkscape"
   version="1.1"
   id="Layer_1"
   x="0px"
   y="0px"
   viewBox="0 0 142.09961 36"
   xml:space="preserve"
   sodipodi:docname="linkedin.svg"
   inkscape:version="0.92.3 (2405546, 2018-03-11)"
   width="142.09961"
   height="36"><metadata
   id="metadata66"><rdf:RDF><cc:Work
       rdf:about=""><dc:format>image/svg+xml</dc:format><dc:type
         rdf:resource="http://purl.org/dc/dcmitype/StillImage" /><dc:title></dc:title></cc:Work></rdf:RDF></metadata><defs
   id="defs64">
	
	

		
		
		
		
	
		
		
	
			
			
			
			
			
			
		
				
			</defs><sodipodi:namedview
   pagecolor="#ffffff"
   bordercolor="#666666"
   borderopacity="1"
   objecttolerance="10"
   gridtolerance="10"
   guidetolerance="10"
   inkscape:pageopacity="0"
   inkscape:pageshadow="2"
   inkscape:window-width="1920"
   inkscape:window-height="1046"
   id="namedview62"
   showgrid="false"
   inkscape:zoom="14.187457"
   inkscape:cx="122.46523"
   inkscape:cy="8.0372786"
   inkscape:window-x="0"
   inkscape:window-y="34"
   inkscape:window-maximized="1"
   inkscape:current-layer="Layer_1"
   fit-margin-top="0"
   fit-margin-left="0"
   fit-margin-right="0"
   fit-margin-bottom="0" />
<style
   type="text/css"
   id="style27">
	.st0{fill:#006192;}
	.st1{fill:#FFFFFF;}
</style>
<path
   d="M 108.69922,0 C 107.19922,0 106,1.1996094 106,2.5996094 V 33.400391 c 0,1.4 1.19922,2.599609 2.69922,2.599609 h 30.70117 c 1.5,0 2.69922,-1.199609 2.69922,-2.599609 V 2.5996094 C 142.09961,1.1996094 140.90039,0 139.40039,0 Z M 21,4.9003906 C 19.2,4.9003906 17.900391,6.3 17.900391,8 17.900391,9.7 19.3,11.099609 21,11.099609 22.7,11.099609 24.099609,9.7 24.099609,8 24.099609,6.3 22.7,4.9003906 21,4.9003906 Z M 114.09961,5 c 1.7,0 3.09961,1.3996094 3.09961,3.0996094 0,1.7 -1.39961,3.0996096 -3.09961,3.0996096 -1.7,0 -3.09961,-1.3996096 -3.09961,-3.0996096 C 111,6.2996094 112.39961,5 114.09961,5 Z M 0,5.3007812 V 30.699219 h 15.800781 v -5.09961 H 5.5996094 V 5.3007812 Z m 45.900391,0 V 30.699219 h 5.40039 v -8.5 l 5.699219,8.5 h 6.699219 l -6.798828,-9.298828 7,-7.900391 h -6.59961 l -6,7 V 5.3007812 Z m 49.5,0 v 9.9999998 h -0.09961 c -1.2,-1.7 -3.3,-2.300781 -5.5,-2.300781 -4.9,0 -7.90039,4.399219 -7.90039,9.199219 0,5.2 3.4,8.90039 8.5,8.90039 2.4,0 4.498828,-1.499218 5.298828,-2.699218 h 0.101562 v 2.298828 h 4.898439 V 5.3007812 Z m -23.09961,7.5996098 c -5.3,0 -9.601562,3.599609 -9.601562,9.099609 0,5.5 4.301562,9.099609 9.601562,9.099609 2.8,0 5.598828,-1.20039 7.298828,-3.40039 L 75.800781,24.900391 C 74.900781,26.100391 73.7,27 72,27 70,27 68.4,25.699219 68,23.699219 H 80.400391 V 22 c 0,-5.5 -3.09961,-9.099609 -8.09961,-9.099609 z M 36.900391,13 c -2.6,0 -4.39961,1.400781 -5.09961,2.800781 H 31.699219 V 13.5 h -5 v 17 H 32 V 22 c 0,-2.2 0.399219,-4.400391 3.199219,-4.400391 2.8,0 2.800781,2.59961 2.800781,4.59961 v 8.40039 h 5.300781 v -9.40039 c 0,-4.6 -1.00039,-8.199219 -6.40039,-8.199219 z m 93.499999,0 c 5.4,0 6.40039,3.599219 6.40039,8.199219 v 9.40039 H 131.5 v -8.40039 c 0,-2 -7.8e-4,-4.59961 -2.80078,-4.59961 C 125.89922,17.599609 125.5,19.8 125.5,22 v 8.5 h -5.30078 v -17 h 5 v 2.300781 h 0.10156 c 0.7,-1.4 2.49961,-2.800781 5.09961,-2.800781 z M 18.300781,13.5 v 17.199219 h 5.298828 V 13.5 Z m 93.099609,0 h 5.29883 v 17.199219 h -5.29883 z m -39.599609,3.300781 c 1.9,0 3.298828,1.498828 3.298828,3.298828 H 68 c 0.2,-1.7 1.500781,-3.298828 3.800781,-3.298828 z M 91.5,17.599609 C 94.2,17.599609 95.800781,19.4 95.800781,22 95.800781,24.6 94.2,26.400391 91.5,26.400391 88.8,26.400391 87.199219,24.6 87.199219,22 87.199219,19.4 88.8,17.599609 91.5,17.599609 Z"
   id="path29"
   inkscape:connector-curvature="0"
   sodipodi:nodetypes="sssssssssssssssssssccccccccccccccccccccccsssccccccsssccsccsssccccccsssccssssccsssccccccsccccccccccsccssssss"
   style="fill-opacity:1;fill:#ffffff;stroke:none" />
</svg>