<?xml version="1.0" encoding="UTF-8" standalone="no"?>
<svg
   xmlns:dc="http://purl.org/dc/elements/1.1/"
   xmlns:cc="http://creativecommons.org/ns#"
   xmlns:rdf="http://www.w3.org/1999/02/22-rdf-syntax-ns#"
   xmlns:svg="http://www.w3.org/2000/svg"
   xmlns="http://www.w3.org/2000/svg"
   xmlns:sodipodi="http://sodipodi.sourceforge.net/DTD/sodipodi-0.dtd"
   xmlns:inkscape="http://www.inkscape.org/namespaces/inkscape"
   viewBox="0 0 603.90039 129"
   enable-background="new 0 0 609 130"
   version="1.1"
   id="svg20"
   sodipodi:docname="Microsoft_logo_(2012).svg"
   width="603.90039"
   height="129"
   inkscape:version="0.92.3 (2405546, 2018-03-11)">
  <metadata
     id="metadata26">
    <rdf:RDF>
      <cc:Work
         rdf:about="">
        <dc:format>image/svg+xml</dc:format>
        <dc:type
           rdf:resource="http://purl.org/dc/dcmitype/StillImage" />
        <dc:title>Microsoft Logo</dc:title>
      </cc:Work>
    </rdf:RDF>
  </metadata>
  <defs
     id="defs24" />
  <sodipodi:namedview
     pagecolor="#ffffff"
     bordercolor="#666666"
     borderopacity="1"
     objecttolerance="10"
     gridtolerance="10"
     guidetolerance="10"
     inkscape:pageopacity="0"
     inkscape:pageshadow="2"
     inkscape:window-width="1920"
     inkscape:window-height="1046"
     id="namedview22"
     showgrid="false"
     fit-margin-top="0"
     fit-margin-left="0"
     fit-margin-right="0"
     fit-margin-bottom="0"
     inkscape:zoom="0.863711"
     inkscape:cx="213.61634"
     inkscape:cy="-63.408746"
     inkscape:window-x="0"
     inkscape:window-y="34"
     inkscape:window-maximized="1"
     inkscape:current-layer="svg20" />
  <title
     id="title2">Microsoft Logo</title>
  <path
     style="fill:#ffffff;fill-opacity:1;stroke:none"
     d="M 0,0 V 61.300781 H 61.300781 V 0 Z M 67.699219,0 V 61.300781 H 129 V 0 Z M 565.09961,20.099609 c -3.9,0 -7.30039,0.900391 -10.40039,2.400391 -3.1,1.7 -5.39961,3.999609 -7.09961,7.099609 -1.7,3 -2.59961,6.400782 -2.59961,10.300782 v 7.699218 h -9.09961 v 10.59961 H 545 V 103 h 13.09961 V 58.300781 h 19.59961 v 28.5 c 0,11.7 5.5,17.599609 16.5,17.599609 1.8,0 3.7,-0.29961 5.5,-0.59961 1.9,-0.4 3.30156,-0.90078 4.10156,-1.30078 l 0.0996,-0.0996 V 91.699219 l -0.5,0.40039 c -0.8,0.5 -1.50117,0.901172 -2.70117,1.201172 -1,0.3 -1.89961,0.398438 -2.59961,0.398438 -2.6,0 -4.39922,-0.59961 -5.69922,-2.09961 -1.2,-1.4 -1.80078,-3.699609 -1.80078,-7.099609 V 58.300781 h 13.30078 V 47.599609 h -13.0996 V 31.199219 L 590.40039,31.300781 578,35 l -0.30078,0.09961 v 12.5 h -19.59961 v -7 c 0,-3.2 0.80117,-5.698828 2.20117,-7.298828 1.4,-1.6 3.49961,-2.40039 6.09961,-2.40039 1.8,0 3.69883,0.398828 5.79883,1.298828 l 0.5,0.300781 V 21.199219 l -0.29883,-0.09961 c -1.8,-0.6 -4.20078,-1 -7.30078,-1 z m -294.69922,4.09961 c -2.2,0 -4,0.801172 -5.5,2.201172 -1.5,1.4 -2.30078,3.20039 -2.30078,5.40039 0,2.1 0.80078,3.898828 2.30078,5.298828 1.5,1.4 3.3,2.09961 5.5,2.09961 2.2,0 4.1,-0.79961 5.5,-2.09961 1.5,-1.4 2.29883,-3.198828 2.29883,-5.298828 0,-2.1 -0.79883,-3.90039 -2.29883,-5.40039 -1.3,-1.4 -3.2,-2.201172 -5.5,-2.201172 z M 233,25.800781 l -19.80078,48.5 L 209.59961,84.5 h -0.29883 c -0.6,-2.3 -1.7,-5.8 -3.5,-10 L 186.5,26 h -18.90039 v 77.30078 h 12.5 V 55.599609 C 180.09961,52.599609 180.1,49.2 180,45 c -0.1,-2.1 -0.30039,-3.700391 -0.40039,-4.900391 h 0.30078 c 0.6,3 1.29883,5.19961 1.79883,6.59961 l 23.20117,56.400391 h 8.79883 l 23,-56.900391 c 0.5,-1.3 1,-3.89961 1.5,-6.09961 H 238.5 C 238.2,45.799609 238.00039,50.9 237.90039,54 v 49 h 13.29883 V 25.800781 Z m 82.59961,20.5 c -5.9,0 -11.29883,1.298438 -15.79883,3.898438 -4.5,2.6 -8.10039,6.201172 -10.40039,10.701172 -2.4,4.6 -3.59961,9.9 -3.59961,16 0,5.3 1.2,9.998828 3.5,14.298828 2.3,4.2 5.49883,7.60039 9.79883,9.900391 4.1,2.3 8.90078,3.5 14.30078,3.5 6.2,0 11.49922,-1.29922 15.69922,-3.69922 l 0.0996,-0.0996 V 88.800781 l -0.5,0.398438 c -1.9,1.4 -4.09883,2.600781 -6.29883,3.300781 -2.3,0.8 -4.40117,1.199219 -6.20117,1.199219 -5.2,0 -9.29922,-1.498828 -12.19922,-4.798828 -3,-3.2 -4.5,-7.59961 -4.5,-13.09961 0,-5.7 1.49961,-10.2 4.59961,-13.5 3.1,-3.3 7.20117,-5 12.20117,-5 4.2,0 8.49844,1.399219 12.39844,4.199219 l 0.5,0.400391 V 49.199219 l -0.0996,-0.09961 c -1.7,-0.7 -3.59922,-1.5 -6.19922,-2 -2.4,-0.5 -4.90078,-0.798828 -7.30078,-0.798828 z m 140.90039,0 c -6.2,0 -11.30078,1.498828 -15.30078,4.798828 -4,3.1 -5.89844,7.301172 -5.89844,12.201172 0,2.6 0.39883,4.898828 1.29883,6.798828 0.9,1.9 2.2,3.701172 4,5.201172 1.8,1.4 4.4,3 8,4.5 3,1.3 5.30117,2.29961 6.70117,3.09961 1.4,0.8 2.3,1.70039 3,2.40039 0.5,0.8 0.79883,1.79961 0.79883,3.09961 0,3.7 -2.8,5.5 -8.5,5.5 -2.2,0 -4.49922,-0.400782 -7.19922,-1.300782 -2.7,-0.9 -5.20078,-2.199218 -7.30078,-3.699218 l -0.5,-0.400391 v 12.69922 l 0.30078,0.10156 c 1.9,0.9 4.2,1.49922 7,2.19922 2.8,0.5 5.3,0.90039 7.5,0.90039 6.7,0 12.19961,-1.50078 16.09961,-4.800781 4,-3.2 6.09961,-7.299609 6.09961,-12.599609 0,-3.7 -0.99922,-7 -3.19922,-9.5 -2.9,-2.4 -6.50117,-4.900391 -11.70117,-6.900391 -4.1,-1.7 -6.69844,-2.999609 -7.89844,-4.099609 -1,-1 -1.5,-2.399219 -1.5,-4.199219 0,-1.5 0.59961,-3 2.09961,-4 1.5,-1 3.19922,-1.5 5.69922,-1.5 2.2,0 4.50117,0.4 6.70117,1 2.2,0.6 4.19883,1.499219 5.79883,2.699219 l 0.5,0.400391 V 48.699219 l -0.29883,-0.09961 c -1.5,-0.6 -3.50039,-1.199218 -5.90039,-1.699218 -2.4,-0.4 -4.60039,-0.59961 -6.40039,-0.59961 z m -55.30078,0.09961 c -9.1,0 -16.4,2.7 -21.5,8 -5.2,5.3 -7.69922,12.598828 -7.69922,21.798828 0,8.6 2.59961,15.601172 7.59961,20.701172 5,4.999999 11.80078,7.599609 20.30078,7.599609 8.9,0 15.99961,-2.69961 21.09961,-8.099609 5.2,-5.4 7.69922,-12.6 7.69922,-21.5 0,-8.8 -2.39883,-15.800391 -7.29883,-20.900391 -4.7,-5.1 -11.60117,-7.599609 -20.20117,-7.599609 z m 105.70117,0 c -9.1,0 -16.4,2.7 -21.5,8 -5.1,5.3 -7.70117,12.598828 -7.70117,21.798828 0,8.6 2.60156,15.601172 7.60156,20.701172 5,4.999999 11.79883,7.599609 20.29883,7.599609 8.9,0 15.99961,-2.69961 21.09961,-8.099609 5.2,-5.4 7.70117,-12.6 7.70117,-21.5 0,-8.8 -2.40078,-15.800391 -7.30078,-20.900391 -4.7,-5.1 -11.59922,-7.599609 -20.19922,-7.599609 z m -141.09961,0.298828 c -3.2,0 -6.20078,1.001562 -8.80078,3.101562 -2.2,1.8 -3.7,4.4 -5,7.5 h -0.0996 v -9.701172 h -13 V 103 h 13 V 74.699219 c 0,-4.8 0.99922,-8.799219 3.19922,-11.699219 2.2,-3 5.00039,-4.5 8.40039,-4.5 1.2,0 2.40039,0.3 3.90039,0.5 1.4,0.4 2.39961,0.800781 3.09961,1.300781 l 0.5,0.398438 v -13 l -0.30078,-0.09961 c -0.9,-0.6 -2.69844,-0.90039 -4.89844,-0.90039 z m -102,0.90039 V 103 h 13 V 47.599609 Z m 136.79883,9.5 c 4.6,0 8.20078,1.49961 10.80078,4.59961 2.6,3.1 4,7.6 4,13.5 -0.2,6 -1.30078,10.700781 -3.80078,13.800781 -2.4,3.1 -6.20039,4.599609 -10.90039,4.599609 -4.7,0 -8.49922,-1.498828 -11.19922,-4.798828 -2.7,-3.1 -4,-7.600781 -4,-13.300781 0,-5.9 1.4,-10.399609 4,-13.599609 2.7,-3.2 6.39961,-4.800782 11.09961,-4.800782 z m 105.59961,0 c 4.5,0 8.20078,1.49961 10.80078,4.59961 2.6,3.1 4,7.6 4,13.5 0,6 -1.30078,10.700781 -3.80078,13.800781 -2.4,3.1 -6.19844,4.599609 -10.89844,4.599609 -4.8,0 -8.50117,-1.498828 -11.20117,-4.798828 -2.7,-3.1 -4,-7.600781 -4,-13.300781 0,-5.9 1.4,-10.399609 4,-13.599609 2.7,-3.2 6.39961,-4.800782 11.09961,-4.800782 z M 0,67.699219 V 129 H 61.300781 V 67.699219 Z m 67.699219,0 V 129 H 129 V 67.699219 Z"
     id="path4"
     inkscape:connector-curvature="0" />
</svg>
