<?xml version="1.0" encoding="UTF-8" standalone="no"?>
<svg
   xmlns:dc="http://purl.org/dc/elements/1.1/"
   xmlns:cc="http://creativecommons.org/ns#"
   xmlns:rdf="http://www.w3.org/1999/02/22-rdf-syntax-ns#"
   xmlns:svg="http://www.w3.org/2000/svg"
   xmlns="http://www.w3.org/2000/svg"
   xmlns:sodipodi="http://sodipodi.sourceforge.net/DTD/sodipodi-0.dtd"
   xmlns:inkscape="http://www.inkscape.org/namespaces/inkscape"
   viewBox="0 0 251.30078 41.900391"
   version="1.1"
   id="svg380"
   sodipodi:docname="minecraft.svg"
   width="251.30078"
   height="41.900391"
   inkscape:version="0.92.3 (2405546, 2018-03-11)">
  <metadata
     id="metadata384">
    <rdf:RDF>
      <cc:Work
         rdf:about="">
        <dc:format>image/svg+xml</dc:format>
        <dc:type
           rdf:resource="http://purl.org/dc/dcmitype/StillImage" />
        <dc:title>minecraft</dc:title>
      </cc:Work>
    </rdf:RDF>
  </metadata>
  <sodipodi:namedview
     pagecolor="#ffffff"
     bordercolor="#666666"
     borderopacity="1"
     objecttolerance="10"
     gridtolerance="10"
     guidetolerance="10"
     inkscape:pageopacity="0"
     inkscape:pageshadow="2"
     inkscape:window-width="1920"
     inkscape:window-height="1046"
     id="namedview382"
     showgrid="false"
     fit-margin-top="0"
     fit-margin-left="0"
     fit-margin-right="0"
     fit-margin-bottom="0"
     inkscape:zoom="4.1746032"
     inkscape:cx="126.91598"
     inkscape:cy="-40.184783"
     inkscape:window-x="0"
     inkscape:window-y="34"
     inkscape:window-maximized="1"
     inkscape:current-layer="svg380" />
  <title
     id="title2">minecraft</title>
  <desc
     id="desc4">Created with Sketch.</desc>
  <defs
     id="defs36">
    <linearGradient
       x1="0.5"
       y1="1"
       x2="0.5"
       y2="0"
       id="linearGradient-1">
      <stop
         stop-color="#D9CDCA"
         offset="0%"
         id="stop6" />
      <stop
         stop-color="#A89F9C"
         offset="100%"
         id="stop8" />
    </linearGradient>
    <linearGradient
       x1="64.061401"
       y1="22.064531"
       x2="64.061401"
       y2="0.41943875"
       id="linearGradient-2"
       gradientTransform="scale(0.74381759,1.3444156)"
       gradientUnits="userSpaceOnUse">
      <stop
         stop-color="#D9CDCA"
         offset="0%"
         id="stop11" />
      <stop
         stop-color="#A89F9C"
         offset="100%"
         id="stop13" />
    </linearGradient>
    <linearGradient
       x1="216.83397"
       y1="28.504301"
       x2="216.83397"
       y2="0.34152201"
       id="linearGradient-3"
       gradientTransform="scale(0.96502408,1.0362436)"
       gradientUnits="userSpaceOnUse">
      <stop
         stop-color="#D9CDCA"
         offset="0%"
         id="stop16" />
      <stop
         stop-color="#A89F9C"
         offset="100%"
         id="stop18" />
    </linearGradient>
    <linearGradient
       x1="186.88029"
       y1="28.933598"
       x2="186.88029"
       y2="0.37259948"
       id="linearGradient-4"
       gradientTransform="matrix(0.97923649,0,0,1.0212038,2,62)"
       gradientUnits="userSpaceOnUse">
      <stop
         stop-color="#D9CDCA"
         offset="0%"
         id="stop21" />
      <stop
         stop-color="#A89F9C"
         offset="100%"
         id="stop23" />
    </linearGradient>
    <linearGradient
       x1="164.56149"
       y1="27.885311"
       x2="164.56149"
       y2="0.38481951"
       id="linearGradient-5"
       gradientTransform="matrix(0.94341633,0,0,1.0599774,2,62)"
       gradientUnits="userSpaceOnUse">
      <stop
         stop-color="#D9CDCA"
         offset="0%"
         id="stop26" />
      <stop
         stop-color="#A89F9C"
         offset="100%"
         id="stop28" />
    </linearGradient>
    <linearGradient
       x1="138.24815"
       y1="27.193083"
       x2="138.24815"
       y2="0.39869991"
       id="linearGradient-6"
       gradientTransform="scale(0.91972301,1.0872839)"
       gradientUnits="userSpaceOnUse">
      <stop
         stop-color="#D9CDCA"
         offset="0%"
         id="stop31" />
      <stop
         stop-color="#A89F9C"
         offset="100%"
         id="stop33" />
    </linearGradient>
  </defs>
  <path
     style="fill:#ffffff;fill-rule:evenodd;stroke:none;stroke-width:1;fill-opacity:1"
     d="m 142.30078,0 -26.59961,0.09961 -0.0234,0.689453 -0.0762,-0.689453 H 89.300781 l -0.09961,1 -0.300782,-1 H 76.101562 l -1,6.59961 -0.40039,-1 H 74.40039 L 72.201172,0.09961 h -12.59961 l -0.201172,1.09961 -0.5,-1.09961 h -12.5 L 46.201172,1.19922 45.601562,0.09961 33.201172,0.19922 31.800781,5.599609 H 28.5 L 27.90039,7.800781 22.300781,0.199219 H 10.201172 L 0,31.900391 10.90039,41.90039 h 11.900391 l 1.800781,-6.800781 0.798828,0.800782 h 3.201172 l 5.199219,5.999999 H 46.101562 L 46.300781,41 47,41.90039 h 12.300781 l 0.199219,-1 0.601562,1 h 12.5 L 73.5,35.699219 l 3,6.201171 h 12.701172 l 0.09961,-1 0.300781,1 h 26.199217 l 0.0234,-0.61523 0.0762,0.61523 h 26.30078 l 0.0742,-0.77344 0.0254,0.77344 h 13.09961 l 0.20117,-1 -0.10156,0.79883 h 12.90039 l 0.40041,-1.09961 0.0996,1.09961 h 12.70117 l 0.5,-1 0.0996,1 h 12.59963 l 0.59961,-1 0.20117,1 h 12.5 L 215.30078,31.5 215,30 h 3.80078 l 5.40039,-7.5 4.69922,19.30078 h 12.20117 L 251.30078,31.699219 251,30.599609 l -0.69922,-2.40039 c -0.2,-0.8 -0.49922,-1.598438 -0.69922,-2.398438 l -0.80078,-2.701172 c 0,0 -1.50078,-4.799218 -1.80078,-5.699218 -0.4,-1.2 -0.69961,-2.39961 -1.09961,-3.59961 V 13.699219 L 251,7.599609 248.60156,0 H 222.90039 L 222.30078,1 222,0 h -25.89844 l -0.5,1.099609 L 195.40039,0 H 169.20117 L 168.90039,1.099609 168.80078,0 h -26.40039 l -0.0762,0.839844 z M 224,1.800781 h 23.20117 L 248.80078,7 h -6.69922 v 0.199219 c 0.3,1.1 0.59844,2.30039 0.89844,3.40039 0.3,1.2 0.7,2.39961 1,3.59961 0.4,1.2 0.70156,2.401172 1.10156,3.701172 0.4,1.2 0.79961,2.499218 1.09961,3.699218 0.2,0.8 0.49922,1.500782 0.69922,2.300782 0.2,0.8 0.50117,1.598828 0.70117,2.298828 0.2,0.8 0.49922,1.60039 0.69922,2.40039 C 248.50078,29.399609 248.8,30.2 249,31 H 238.60156 L 232,7 h -6.69922 z m -83.5,0.09961 0.10156,5.199218 h -13.30078 l -0.30078,18 h 14.10156 l 0.19922,6 H 116.60156 L 117.5,2 Z m 30.30078,0 h 23 l 5,29.199218 H 188.40039 L 187,21.699219 183.10156,21.599609 184.40039,31 H 174 Z m 26.69922,0 h 23 L 221.70117,7 h -13.5 l 1.19922,5.900391 h 13.80078 l 1.40039,5.798828 h -14 L 213.20117,31 H 202.80078 Z M 34.601562,2 h 9.59961 L 37.5,31.099609 H 27.101562 l 3.09961,-12.298828 H 26.5 l -1.59961,6 H 18.201172 L 19.90039,18.699219 16.101562,18.800781 12.40039,31.099609 H 2.3007813 l 9.3007807,-29 H 21 l -1.5,5.201172 3.201172,0.09961 -1.59961,5.798828 H 28.40039 L 29.90039,7.5 h 3.300782 z m 26.59961,0 h 9.599609 L 69.90039,7.400391 73.201172,7.5 72.40039,13.099609 h 3.701172 L 77.701172,2 h 9.599609 L 83.90039,31.099609 H 73.601562 l 1.298828,-9.298828 -3.5,-0.101562 0.900391,-6 h -3.699219 l -2.5,15.40039 H 55.701172 Z M 91,2 h 22.90039 l -0.29883,5.099609 h -13.40039 l -0.499998,6 h 13.699218 l -0.29883,5.59961 H 99.201172 L 98.800781,25 l 14.099609,0.09961 -0.29883,6 H 87.90039 Z m 53.10156,0 h 23 l 1.09961,10.800781 h -3.40039 L 165.10156,16 H 168.5 l 1.5,15.099609 h -10.39844 l -0.90039,-12.298828 -3.90039,-0.101562 0.80078,12.40039 H 145.20117 Z M 47.90039,2.09961 H 57.5 L 51.701172,31.19922 H 41.40039 Z M 176.70117,6.5 l 0.5,3.699219 h 4 l 0.19922,1.40039 h -2 l 0.70117,5.701172 H 182.5 l -0.19922,-1.90039 h 3.59961 l 0.30078,2 h 2.5 l -0.90039,-5.701172 h -2 l -0.19922,-1.398438 4.29883,-0.101562 L 189.30078,6.5 h -4.5 l 0.40039,3.400391 h -3.59961 L 181.10156,6.5 Z m -22.5,0.599609 0.40039,6 h 3.69922 l -0.40039,-6 z m -24.90039,12 h 12.23828 l 0.13281,4 h -12.4707 z"
     id="polygon38"
     inkscape:connector-curvature="0" />
</svg>
