<?xml version="1.0" encoding="UTF-8" standalone="no"?>
<svg xmlns="http://www.w3.org/2000/svg" width="687.738" height="200.759"><title>Mixer (website) logo</title><g><path fill="#fff" stroke="#000" stroke-width=".756" d="M244.098 58.648a16.4 16.4 0 0 0-16.38 16.38v117.7a4.29 4.29 0 0 0 4.28 4.28h24.2a4.29 4.29 0 0 0 4.29-4.28V75.038a16.4 16.4 0 0 0-16.38-16.38M156.438 58.768c-10 0-18.81 2.15-26.28 6.39-6.8 3.84-12.84 9.82-18 17.79a38.22 38.22 0 0 0-13.78-17.08 42.05 42.05 0 0 0-24.18-7.1c-18.18 0-32.25 7.49-41.87 22.25a28.55 28.55 0 0 0-27.8-22.06H.378v133.78a4.29 4.29 0 0 0 4.28 4.28h24.2a4.29 4.29 0 0 0 4.29-4.28v-71.36c0-10.47 2.5-19.11 7.42-25.67 4.92-6.56 11.1-9.69 19-9.69 16.56 0 24.61 10.6 24.61 32.39v74.33a4.29 4.29 0 0 0 4.28 4.28h24.2a4.29 4.29 0 0 0 4.28-4.28v-71.36c0-9.9 2.61-18.38 7.75-25.22 5.14-6.84 11.21-10.14 18.69-10.14 9 0 15.49 2.71 19.16 8 3.79 5.49 5.7 14.55 5.7 26.93v71.75a4.29 4.29 0 0 0 4.28 4.28h24.34a4.29 4.29 0 0 0 4.28-4.28v-78.8c0-19-3.84-33.1-11.42-41.85s-18.82-13.27-33.26-13.27M316.568 64.878a16.4 16.4 0 0 0-24.19-2.31c-6.33 5.75-6.76 15.61-1.66 22.47l32.86 44.14-33.1 44.46c-5.11 6.86-4.67 16.72 1.66 22.47a16.4 16.4 0 0 0 24.19-2.32l46.2-62.06a4.29 4.29 0 0 0 0-5.12z"/><path fill="#1fbaed" d="M417.968 64.878a16.4 16.4 0 0 1 24.19-2.32c6.33 5.75 6.76 15.61 1.66 22.47l-32.86 44.14 33.1 44.46c5.11 6.86 4.67 16.72-1.66 22.47a16.4 16.4 0 0 1-24.19-2.32l-46.2-62.06a4.29 4.29 0 0 1 0-5.12zM506.098 93.538a27.59 27.59 0 0 1 20.1-8.55c8.42 0 15 2.62 19.65 7.79 4.44 5 6.79 12.24 7 21.63h-57.31c1.65-8.46 5.2-15.47 10.57-20.87m53 78a3.73 3.73 0 0 0-4.22-1.27 65.18 65.18 0 0 1-21.16 3.47c-12.09 0-21.48-3-27.91-9-6.14-5.73-9.66-14.14-10.46-25h75.56a14.61 14.61 0 0 0 14.61-14.61v-1.66c0-20.07-5.25-36-15.59-47.42-10.34-11.42-25.08-17.25-43.73-17.25a62.24 62.24 0 0 0-56.11 34.33c-5.56 10.72-8.39 23.41-8.39 37.7 0 21.61 5.7 38.76 16.95 51 11.25 12.24 27.36 18.47 47.81 18.47a114.29 114.29 0 0 0 27.14-3.14 81.8 81.8 0 0 0 14.52-4.86 4.27 4.27 0 0 0 1.6-6.43zM684.608 60.808q-6.11-1.69-17.07-.85l-1.1.21c-11.73 3.53-20.27 11.49-25.52 23.58a28.54 28.54 0 0 0-28.28-24.8h-4.16v133.79a4.29 4.29 0 0 0 4.28 4.28h24.19a4.29 4.29 0 0 0 4.28-4.28v-64.77c0-11.5 2.61-20.95 7.76-28.08 5.15-7.13 11.66-10.51 19.96-10.51a37.27 37.27 0 0 1 9.35 1.37c1.38.38 2.6.76 3.68 1.16a4.27 4.27 0 0 0 5.76-4v-22.95a4.48 4.48 0 0 0-3.13-4.14"/><path fill="#fff" stroke="#000" stroke-width=".756" d="M226.548 17.928a17.55 17.55 0 1 0 17.55-17.55 17.55 17.55 0 0 0-17.55 17.55"/></g></svg>