<?xml version="1.0" encoding="UTF-8" standalone="no"?>
<!-- Created with Inkscape (http://www.inkscape.org/) -->

<svg
   xmlns:dc="http://purl.org/dc/elements/1.1/"
   xmlns:cc="http://creativecommons.org/ns#"
   xmlns:rdf="http://www.w3.org/1999/02/22-rdf-syntax-ns#"
   xmlns:svg="http://www.w3.org/2000/svg"
   xmlns="http://www.w3.org/2000/svg"
   xmlns:sodipodi="http://sodipodi.sourceforge.net/DTD/sodipodi-0.dtd"
   xmlns:inkscape="http://www.inkscape.org/namespaces/inkscape"
   id="svg2"
   version="1.1"
   inkscape:version="0.92.3 (2405546, 2018-03-11)"
   width="937.39917"
   height="205.05504"
   xml:space="preserve"
   sodipodi:docname="office365.svg"><metadata
     id="metadata8"><rdf:RDF><cc:Work
         rdf:about=""><dc:format>image/svg+xml</dc:format><dc:type
           rdf:resource="http://purl.org/dc/dcmitype/StillImage" /><dc:title></dc:title></cc:Work></rdf:RDF></metadata><defs
     id="defs6" /><sodipodi:namedview
     pagecolor="#ffffff"
     bordercolor="#666666"
     borderopacity="1"
     objecttolerance="10"
     gridtolerance="10"
     guidetolerance="10"
     inkscape:pageopacity="0"
     inkscape:pageshadow="2"
     inkscape:window-width="1920"
     inkscape:window-height="1046"
     id="namedview4"
     showgrid="false"
     inkscape:zoom="0.74860181"
     inkscape:cx="139.21411"
     inkscape:cy="87.641997"
     inkscape:window-x="0"
     inkscape:window-y="34"
     inkscape:window-maximized="1"
     inkscape:current-layer="g10"
     fit-margin-top="0"
     fit-margin-left="0"
     fit-margin-right="0"
     fit-margin-bottom="0" /><g
     id="g10"
     inkscape:groupmode="layer"
     inkscape:label="Office 365 2013"
     transform="matrix(1.25,0,0,-1.25,-47.434516,281.33541)"><path
       style="fill:#ffffff;fill-opacity:1;fill-rule:nonzero;stroke:none;stroke-width:1.27758205"
       d="M 114.49219,2.0605469 C 113.5438,1.9762604 112.684,2.1886188 111.75977,2.5351562 76.186438,15.854731 40.606612,29.161559 5.0371094,42.482422 c -0.6257,0.229737 -1.3453188,0.317256 -1.9023438,1.003906 0,40.473388 7.344e-4,81.051492 0.00586,121.625002 0,0.38118 0.048466,0.75676 0.087891,1.13281 0.00508,0.0552 0.076172,0.11646 0.1308594,0.15625 0.064859,0.0462 0.1327656,0.0703 0.2128906,0.11523 12.4440474,-4.85783 24.8930724,-9.72196 37.3867184,-14.60546 V 51.496094 c 24.267484,-5.780625 48.436738,-11.539463 72.640625,-17.304688 0.29759,3.1085 0.21715,145.555304 -0.0957,147.525394 -36.190124,-4.96821 -72.384878,-9.93218 -108.5800809,-14.90039 0.5811888,0.61605 1.2567069,0.90279 1.9472657,1.1582 34.9921292,12.89476 69.9953792,25.78348 104.9824252,38.71289 1.36205,0.50183 2.57473,0.5328 3.96093,0.14648 14.15328,-3.93503 28.32483,-7.81127 42.48828,-11.71679 5.5639,-1.53372 11.12403,-3.09296 16.73243,-4.65235 V 19.451172 c -0.40188,-0.129625 -0.68711,-0.230406 -0.97071,-0.316406 C 154.53169,13.514566 134.99534,7.915125 115.47656,2.25 115.1351,2.1495719 114.80832,2.0886424 114.49219,2.0605469 Z M 455.89844,34.115234 c -1.36873,-0.0167 -2.74018,0.04369 -4.10938,0.160157 -6.36382,0.541625 -11.92393,2.958668 -16.51367,7.464843 -5.86656,5.77165 -8.38015,12.904253 -8.51367,20.970704 -0.0751,4.557499 -0.005,9.12029 -0.0254,13.68164 0,0.582688 0.18511,1.214016 -0.29688,1.830078 H 392.375 c 0.089,-6.206737 -0.28982,-12.277409 0.25195,-18.333984 0.21365,-2.42185 0.89,-4.768147 2.03711,-6.958984 1.8186,-3.458888 4.6601,-5.559404 8.45117,-6.376954 3.98948,-0.8522 7.87299,-0.429415 11.66407,1.06836 0.52142,0.206637 0.98876,0.748372 1.66406,0.412109 V 35.695312 c -0.63588,-0.220762 -1.19734,-0.446996 -1.77344,-0.607421 -3.34851,-0.933125 -6.77527,-1.073994 -10.20898,-0.878907 -10.4614,0.5968 -18.16727,5.556585 -23.05078,14.78711 -2.39343,4.531837 -3.23914,9.449478 -3.24414,14.533203 -0.005,4.2559 0.0104,8.512897 -0.0137,12.763672 0,0.64685 0.23779,1.374412 -0.60156,2.140625 h -14.26367 v 11.921875 h 14.875 v 59.224611 c 0,2.81202 -0.0113,5.62475 0.004,8.43164 0.014,2.76711 -0.0637,5.54104 0.0508,8.23242 h 14.17187 V 90.431641 h 34.35742 v 54.339839 c 0,3.56927 -0.01,7.14365 0,10.7129 0.0153,3.60519 -0.0535,7.2169 0.0508,10.76562 h 14.15234 V 90.294922 h 20.54101 V 78.353516 h -20.3164 c -0.11449,-0.431225 -0.21875,-0.641075 -0.21875,-0.851563 0.014,-5.319875 -0.0305,-10.644247 0.084,-15.958984 0.0649,-2.746575 0.70522,-5.422628 1.85742,-7.939453 1.65455,-3.6052 4.40665,-5.967113 8.27149,-6.929688 2.30567,-0.571137 4.64868,-0.681962 7.0332,-0.390625 2.35019,0.290063 4.53113,1.118275 6.84571,2 V 35.875 c -0.69566,-0.63145 -1.5446,-0.731372 -2.34961,-0.927734 -2.24464,-0.560703 -4.51762,-0.804192 -6.79883,-0.832032 z m 26.22265,3.589844 c -5.28537,-0.125775 -9.42223,3.760766 -9.52148,8.939453 -0.10048,5.313463 3.72552,9.293922 9.03125,9.404297 5.21162,0.10525 9.44224,-3.849653 9.58594,-8.96289 0.14371,-5.169713 -3.81541,-9.255072 -9.09571,-9.38086 z m -185.25,3.201172 c -4.63152,0.02354 -9.27991,0.556255 -13.92187,1.521484 -17.77013,3.6899 -30.86485,13.531125 -38.81836,29.929688 -5.14676,10.612787 -6.96481,21.935294 -7.09961,33.886718 0.0801,8.66838 1.26754,17.431 4.43164,25.85938 5.44563,14.48366 14.86395,25.33327 29.2207,31.60546 11.30203,4.93741 23.18484,5.90419 35.19141,3.92383 21.58919,-3.55899 36.09253,-15.88242 43.62891,-36.34179 2.59818,-7.04354 3.85903,-14.36485 4.33593,-21.82422 C 354.55457,98.196872 353.51722,87.132387 349.4082,76.523438 343.04438,60.069688 331.63308,48.768538 314.61328,43.5 308.75378,41.686493 302.8259,40.875983 296.87109,40.90625 Z m 428.58594,0.03906 c -4.97062,-0.0463 -9.94087,0.613965 -14.89258,1.753907 -4.70037,1.081937 -9.14144,2.811522 -13.32422,5.388672 0,2.246025 -0.01,4.446615 0,6.642578 0.0103,2.215225 0.0317,4.431659 0.0508,6.943359 0.78467,-0.536487 1.22189,-0.827859 1.65429,-1.123047 0.50234,-0.3414 1.00242,-0.691578 1.51367,-1.017578 9.06629,-5.835812 18.89404,-7.866347 29.49024,-5.701172 7.44226,1.524725 12.47446,5.766913 14.35156,13.296875 0.7605,3.048175 0.83389,6.166394 0.61133,9.285156 -0.57229,7.992001 -4.45699,13.726163 -11.82422,17.015626 -3.65119,1.628687 -7.52611,2.394934 -11.48633,2.826171 -4.71437,0.510838 -9.44146,0.356094 -14.16601,0.402344 -0.82028,0.0038 -1.66569,-0.185878 -2.58008,0.240235 v 11.441404 c 0.98942,0.42098 1.91328,0.23047 2.80859,0.23047 6.32313,0.0244 12.65303,-0.16085 18.93164,0.86719 4.62027,0.75595 9.07539,1.97586 13.10938,4.4375 4.56049,2.78636 7.56574,6.7178 8.95703,11.89648 0.83932,3.12904 1.00975,6.30088 0.73633,9.49024 -0.51125,6.03604 -3.05167,11.06054 -7.81055,14.91601 -2.8856,2.33073 -6.13006,4.01426 -9.72656,4.86133 -13.3241,3.13289 -25.69798,0.91869 -37.05469,-6.74218 -0.67021,-0.45691 -1.34151,-0.91346 -2.01172,-1.36524 -0.15896,0.25155 -0.29883,0.37156 -0.29883,0.49219 -0.0204,4.41247 -0.004,8.81849 -0.0586,13.2207 -0.0102,1.01777 0.50626,1.48428 1.28711,1.92578 2.59817,1.46955 5.30926,2.65706 8.17578,3.47461 9.84586,2.81203 19.83151,3.11212 29.88086,1.46289 7.91409,-1.29884 15.06817,-4.3962 21.00977,-9.8457 10.19818,-9.36529 13.32816,-21.09326 10.16406,-34.23828 -2.38961,-9.93643 -9.55334,-15.94224 -18.9668,-19.40625 -2.74697,-1.01264 -5.62881,-1.50476 -8.54492,-2.01172 0.33829,-0.71103 0.93834,-0.6557 1.41016,-0.8418 1.91271,-0.75723 3.8709,-1.411921 5.71875,-2.294921 6.15526,-2.958338 11.03428,-7.269822 14,-13.521485 1.51465,-3.1932 2.39331,-6.567675 2.75195,-10.0625 0.61552,-5.970575 0.32623,-11.860534 -2.40039,-17.365234 -4.1281,-8.32185 -11.06374,-13.196553 -19.87695,-15.478516 -3.85801,-0.997801 -7.72381,-1.460082 -11.58985,-1.496094 z M 828.375,41.0332 c -9.69199,0.124488 -18.40972,3.048222 -26.06055,9.013672 -7.45626,5.815275 -12.56524,13.366775 -16.25586,21.945313 -3.97421,9.234375 -6.06916,18.914412 -6.89453,28.890625 -0.87877,10.64874 -0.71379,21.25288 1.43164,31.76172 1.55027,7.59029 4.18094,14.75566 8.73633,21.10742 6.63216,9.24978 15.61051,14.20789 27.06641,14.66993 17.25761,0.6969 31.3908,-8.13865 37.62109,-23.8711 4.33158,-10.93494 4.54961,-22.13928 0.625,-33.20898 -3.55199,-10.01215 -10.43731,-16.984212 -20.69141,-20.378912 -4.99669,-1.6493 -10.15362,-1.94101 -15.36523,-1.59961 -3.68044,0.24 -7.21758,1.092463 -10.58008,2.617188 -5.8475,2.6516 -10.04605,7.030018 -13.20508,12.503914 -0.3332,0.58139 -0.39693,1.46435 -1.42578,1.65429 0.0941,-8.823664 1.00852,-17.406386 3.74024,-25.708985 2.18103,-6.643113 5.38602,-12.734135 10.21484,-17.873047 6.7606,-7.1937 15.16031,-10.122478 24.9375,-9.455079 5.53846,0.381175 10.80949,1.74906 15.8418,4.060547 0.46164,0.21075 0.90005,0.621141 1.48633,0.220703 V 44.548828 c -1.62912,-0.791887 -3.15133,-1.284103 -4.69141,-1.705078 -5.41384,-1.469538 -10.94191,-1.876047 -16.53125,-1.810547 z m 49.18555,2.201172 c -1.41037,20.56975 -2.80129,40.999384 -4.1875,61.263678 v 0.002 c 0.68547,0.49669 1.14886,0.31562 1.57617,0.26562 7.66991,-0.85225 15.36529,-1.01907 23.06445,-0.76367 4.51598,0.1553 8.93087,0.98432 13.12891,2.72852 7.02895,2.92369 11.84279,7.89944 13.84961,15.32031 0.98434,3.62444 1.13792,7.33109 0.72461,11.07617 -1.05809,9.68102 -6.08455,16.51882 -14.89649,20.54883 -5.68343,2.60286 -11.73496,3.10311 -17.90039,2.53711 -7.26677,-0.66225 -13.92409,-3.13386 -20.1582,-6.83789 -0.4769,-0.28108 -0.91851,-0.73673 -1.73242,-0.67773 0,4.66788 0.0136,9.2157 -0.0156,13.75781 -0.005,0.8522 0.49108,1.19817 1.12695,1.5293 1.62403,0.84193 3.30408,1.54438 5.05274,2.08984 5.28537,1.64024 10.72634,2.19621 16.23047,2.34766 7.36214,0.20535 14.6347,-0.26325 21.61914,-2.83399 11.1227,-4.09162 19.15121,-11.39531 23.16992,-22.65625 2.69739,-7.55049 2.85186,-15.36206 1.44531,-23.16797 -1.38493,-7.74045 -5.07171,-14.25618 -11.27148,-19.2539 -6.04589,-4.878382 -13.08119,-7.31137 -20.6875,-8.398445 -5.92635,-0.843225 -11.86818,-0.442184 -17.80469,-0.271484 -0.73507,0.01925 -1.49346,0.28129 -2.44726,-0.208985 0.75413,-11.871862 1.55473,-23.786075 2.48437,-35.773437 h 43.98438 c 0.14878,0 0.2977,-0.04888 0.4414,-0.09375 0.07,-0.01925 0.13861,-0.06719 0.19336,-0.117188 0.0546,-0.04487 0.0896,-0.108921 0.0996,-0.123046 V 43.234375 Z M 297.72852,54.119141 c 4.9916,0.10525 9.86225,0.871768 14.54101,2.621093 9.55336,3.574388 16.2348,10.267344 20.70117,19.261719 3.35742,6.762463 4.89687,14.018644 5.51368,21.488281 0.20347,2.4963 0.26256,5.002846 0.35156,6.722656 -0.12973,9.81193 -1.13674,18.69501 -4.93164,27.01172 -6.64234,14.55425 -17.98489,22.52683 -34,23.92578 -7.33799,0.64173 -14.47019,-0.0703 -21.27149,-2.98242 -10.75007,-4.60756 -17.79528,-12.73995 -22.06836,-23.43359 -3.95392,-9.88637 -4.83703,-20.19581 -3.92773,-30.673833 0.70455,-8.176825 2.90592,-15.992575 7.12305,-23.101563 8.52451,-14.373287 21.27197,-21.190218 37.96875,-20.839843 z m 323,21.888671 c -5.97991,-0.07918 -11.91128,1.255606 -17.72071,4.095704 -10.44231,5.104262 -16.80657,13.746296 -20.59765,24.474604 -2.94537,8.34238 -3.32333,16.95049 -2.54883,25.64454 0.45274,5.08371 1.49631,10.06309 3.44336,14.81054 5.00813,12.19785 13.7572,20.06911 26.88672,22.58594 7.87338,1.50291 15.78204,1.06675 23.62109,-0.52344 5.19636,-1.05242 10.0547,-2.957 14.58594,-5.73437 1.39129,-0.84836 2.01689,-1.78922 1.93164,-3.45899 -0.1335,-2.87747 -0.0245,-5.77046 -0.0449,-8.6582 -0.009,-0.66097 0.19956,-1.36241 -0.22266,-1.97461 -0.0903,0 -0.17889,-0.0307 -0.22852,0.004 -0.5761,0.36064 -1.15273,0.71848 -1.71484,1.10351 -9.27994,6.41722 -19.49214,9.11944 -30.73437,7.61524 -6.84964,-0.91767 -12.62396,-3.86077 -16.91993,-9.38086 -2.71772,-3.4884 -4.33802,-7.47898 -5.21679,-11.76953 -0.58628,-2.87877 -1.12772,-5.77649 -0.85938,-8.90039 h 62.09571 c 0,-4.02103 0.13085,-7.7308 -0.0332,-11.42969 -0.23909,-5.55474 -1.12445,-11.02588 -3.12109,-16.259767 -3.46806,-9.08935 -9.28965,-16.097472 -18.59375,-19.537109 -4.67701,-1.728317 -9.35677,-2.645451 -14.00781,-2.707032 z m -72.53907,0.138672 c -1.97633,0.04189 -3.96425,0.188372 -5.95898,0.427735 -15.19103,1.830187 -26.69524,9.289925 -33.51563,22.976562 -6.7021,13.456909 -7.39282,27.629899 -2.65429,41.863279 3.43753,10.31248 10.03036,18.28875 20.06445,22.83985 13.98031,6.34277 27.95603,5.63529 41.69727,-1.00782 0.60026,-0.29519 1.26063,-0.54454 1.54296,-1.01171 v -13.03516 c -0.94872,0.18096 -1.47976,0.75653 -2.10546,1.16211 -6.29389,4.11086 -13.1589,6.18805 -20.72071,6.04687 -12.71238,-0.22973 -22.88125,-7.64567 -26.80078,-19.69336 -2.05641,-6.32608 -2.31479,-12.82888 -1.61914,-19.38086 0.50616,-4.79751 1.80302,-9.40107 4.2168,-13.61718 5.3795,-9.380703 13.30934,-14.790644 24.3125,-15.392581 7.4766,-0.405563 14.3214,1.500719 20.69922,5.316406 0.68675,0.405563 1.26775,1.082031 2.23046,1.082031 V 80.673828 c -1.34551,-0.831675 -2.62705,-1.311456 -3.91406,-1.777344 -5.7076,-2.060897 -11.5456,-2.875679 -17.47461,-2.75 z m -67.15429,2.183594 c -2.85206,0.03626 -5.51298,0.166359 -6.33008,0.369141 -0.46165,4.557512 -0.26319,85.976781 0.24804,87.695311 h 13.5625 c 0.34856,-2.44111 0.307,-86.104402 -0.006,-87.869139 -1.57951,-0.173263 -4.62256,-0.231571 -7.47461,-0.195313 z m 138.06836,9.84375 c 3.34406,-0.08554 6.7661,0.564342 10.22851,1.845703 3.29383,1.217988 5.86664,3.509231 7.86328,6.386719 3.60159,5.19922 4.70502,11.07597 4.75977,17.42773 H 594.4375 c 1.42562,-8.77362 4.87419,-16.282686 12.23633,-21.447261 3.96022,-2.774405 8.13018,-4.102916 12.42969,-4.212891 z M 818.34766,101.1582 c 3.25066,-0.0887 6.47613,0.44594 9.63086,1.6211 6.68176,2.4963 10.77916,7.51972 12.92968,14.12304 2.38962,7.32462 2.58803,14.79375 0.4375,22.19922 -2.02207,6.94856 -6.0905,12.43815 -12.88672,15.39649 -8.28162,3.60518 -18.98627,2.58847 -26.24414,-5.70899 -5.63766,-6.44289 -7.86323,-14.06443 -7.94336,-20.51758 -0.0598,-13.63658 7.28713,-23.51096 18.20508,-26.2832 1.96008,-0.49813 3.9207,-0.77683 5.8711,-0.83008 z"
       transform="matrix(0.8,0,0,-0.8,35.4398,226.702)"
       id="path14"
       inkscape:connector-curvature="0" /></g></svg>