<?xml version="1.0" encoding="UTF-8" standalone="no"?>
<!-- Created with Inkscape (http://www.inkscape.org/) -->

<svg
   xmlns:dc="http://purl.org/dc/elements/1.1/"
   xmlns:cc="http://creativecommons.org/ns#"
   xmlns:rdf="http://www.w3.org/1999/02/22-rdf-syntax-ns#"
   xmlns:svg="http://www.w3.org/2000/svg"
   xmlns="http://www.w3.org/2000/svg"
   xmlns:sodipodi="http://sodipodi.sourceforge.net/DTD/sodipodi-0.dtd"
   xmlns:inkscape="http://www.inkscape.org/namespaces/inkscape"
   width="1079.1716"
   height="182.6591"
   id="svg2"
   version="1.1"
   inkscape:version="0.92.3 (2405546, 2018-03-11)"
   sodipodi:docname="onedrive.svg">
  <title
     id="title5158">OneDrive logo</title>
  <defs
     id="defs4" />
  <sodipodi:namedview
     id="base"
     pagecolor="#ffffff"
     bordercolor="#666666"
     borderopacity="1.0"
     inkscape:pageopacity="0.0"
     inkscape:pageshadow="2"
     inkscape:zoom="0.98994949"
     inkscape:cx="518.5133"
     inkscape:cy="6.0199386"
     inkscape:document-units="px"
     inkscape:current-layer="g3986"
     showgrid="false"
     inkscape:window-width="1920"
     inkscape:window-height="1046"
     inkscape:window-x="0"
     inkscape:window-y="34"
     inkscape:window-maximized="1"
     fit-margin-top="1"
     fit-margin-left="1"
     fit-margin-right="1"
     fit-margin-bottom="1" />
  <metadata
     id="metadata7">
    <rdf:RDF>
      <cc:Work
         rdf:about="">
        <dc:format>image/svg+xml</dc:format>
        <dc:type
           rdf:resource="http://purl.org/dc/dcmitype/StillImage" />
        <dc:title>OneDrive logo</dc:title>
      </cc:Work>
    </rdf:RDF>
  </metadata>
  <g
     inkscape:label="Layer 1"
     inkscape:groupmode="layer"
     id="layer1"
     transform="translate(296.64282,-173.95523)">
    <g
       id="g3986"
       transform="translate(222.85714,-11.428576)">
      <path
         style="fill:#ffffff;fill-opacity:1"
         d="M 168.5 1 C 158.1751 0.97469 149.54183 2.8949831 141.24023 7.0644531 C 133.54823 10.927793 124.1506 18.513238 119.5 24.611328 C 111.6361 34.922738 112.05514 34.603114 108.33594 33.115234 C 96.609337 28.424044 83.064473 27.605557 72.283203 30.935547 C 52.327323 37.099297 38.035541 56.290356 37.181641 78.072266 C 37.044161 81.579446 36.616812 84.956312 36.232422 85.576172 C 35.848032 86.196022 33.415092 87.236772 30.826172 87.888672 C 18.559072 90.977562 8.7824875 98.845272 3.6796875 109.73242 C 1.2591175 114.89686 1 116.56579 1 126.9668 C 1 137.90198 1.1605419 138.81102 4.2011719 144.99219 C 9.5614419 155.88887 20.99322 165.41663 31.78125 167.98047 C 35.68408 168.908 63.913566 169.20362 64.791016 168.32617 C 65.134116 167.98307 64.531905 165.972 63.453125 163.85742 C 60.591415 158.248 58.530344 148.45341 58.527344 140.44922 C 58.518194 118.45783 71.762968 101.27192 94.455078 93.830078 C 101.78448 91.426408 103.5 90.367567 103.5 88.248047 C 103.5 85.260447 108.9125 73.227694 113.1582 66.777344 C 119.1136 57.729634 126.99905 50.787102 136.81055 45.951172 C 161.36965 33.846392 190.25914 37.671237 207.96094 55.373047 L 214.23828 61.652344 L 221.11914 59.859375 C 224.90344 58.873045 229.2375 58.039513 230.75 58.007812 C 234.2158 57.935162 234.36213 55.469529 231.42383 46.667969 C 222.22733 19.120599 197.3573 1.0708 168.5 1 z M 883.49414 29.046875 C 880.916 29.047005 878.71873 29.939583 876.90234 31.726562 C 875.08593 33.513802 874.17771 35.755982 874.17773 38.451172 C 874.17771 41.146602 875.08593 43.373169 876.90234 45.130859 C 878.71873 46.888789 880.916 47.767698 883.49414 47.767578 C 886.13084 47.767698 888.37107 46.859489 890.2168 45.042969 C 892.06248 43.226679 892.9863 41.029412 892.98633 38.451172 C 892.9863 35.755982 892.06248 33.513802 890.2168 31.726562 C 888.37107 29.939583 886.13084 29.047005 883.49414 29.046875 z M 410.29102 32.474609 C 391.42378 32.474739 376.51168 38.509888 365.55469 50.580078 C 354.59764 62.650488 349.11913 78.822343 349.11914 99.095703 C 349.11913 117.96293 354.49412 133.28519 365.24609 145.0625 C 375.99801 156.83985 390.3105 162.72852 408.18164 162.72852 C 426.46281 162.72852 441.05263 156.75196 451.95117 144.79883 C 462.84949 132.84574 468.2987 116.58598 468.29883 96.019531 C 468.2987 77.093831 462.98035 61.771584 452.3457 50.052734 C 441.71084 38.334104 427.69327 32.474739 410.29102 32.474609 z M 689.25586 34.583984 L 689.25586 160.61914 L 722.6543 160.61914 C 743.33782 160.61914 759.84561 154.71485 772.17969 142.9082 C 784.51356 131.10159 790.68152 115.4727 790.68164 96.019531 C 790.68152 55.062601 768.47451 34.584104 724.06055 34.583984 L 689.25586 34.583984 z M 409.23633 45.833984 C 422.83 45.834094 433.49405 50.375101 441.22852 59.457031 C 448.96278 68.539151 452.82997 81.400466 452.83008 98.041016 C 452.82997 114.27154 448.8456 126.89848 440.87695 135.92188 C 432.90811 144.94533 422.00969 149.45704 408.18164 149.45703 C 395.23237 149.45704 384.72848 144.72463 376.67188 135.26172 C 368.6152 125.79886 364.58787 113.30473 364.58789 97.777344 C 364.58787 82.250074 368.71872 69.711026 376.98047 60.160156 C 385.24214 50.609486 395.99409 45.834094 409.23633 45.833984 z M 704.02148 47.943359 L 723.70898 47.943359 C 758.04483 47.943479 775.21279 64.086034 775.21289 96.371094 C 775.21279 112.60161 770.61318 125.14066 761.41406 133.98828 C 752.21477 142.83595 739.35345 147.25978 722.83008 147.25977 L 704.02148 147.25977 L 704.02148 47.943359 z M 166.5 50.564453 C 154.2657 50.498763 149.16048 51.642064 139.04688 56.708984 C 129.38347 61.550294 120.33948 73.385391 115.45508 87.582031 C 114.37998 90.707051 113.5 94.232236 113.5 95.416016 C 113.5 99.188626 111.22323 100.81786 103.83203 102.33594 C 88.978171 105.38675 77.689401 113.67597 73.425781 124.66211 C 71.686441 129.14393 71.182959 132.48112 71.193359 139.44922 C 71.225919 161.24432 81.52069 175.93348 100 180.55078 C 103.8422 181.51082 126.0712 181.75974 196 181.625 L 287 181.44922 L 291.09375 179.25781 C 299.80385 174.59702 305.30298 165.2087 306.20898 153.44922 C 307.59438 135.46729 299.95226 123.23555 283.69336 117.41016 L 278 115.37109 L 277.36523 107.58398 C 275.04203 79.121374 246.21939 62.090503 217.30859 72.095703 L 211.33594 74.162109 L 204.66797 67.160156 C 192.54377 54.427336 183.8752 50.657753 166.5 50.564453 z M 535.44727 68.509766 C 522.55659 68.509856 512.71285 74.193447 505.91602 85.560547 L 505.56445 85.560547 L 505.56445 70.619141 L 491.15039 70.619141 L 491.15039 160.61914 L 505.56445 160.61914 L 505.56445 109.29102 C 505.56442 101.02936 507.92184 94.187568 512.63867 88.767578 C 517.35543 83.347728 523.31831 80.638752 530.52539 80.638672 C 544.47063 80.638752 551.44329 90.189526 551.44336 109.29102 L 551.44336 160.61914 L 565.85742 160.61914 L 565.85742 105.59961 C 565.85733 93.587959 563.24991 84.402422 558.03516 78.044922 C 552.82024 71.687592 545.29095 68.509856 535.44727 68.509766 z M 628.43555 68.509766 C 616.65816 68.509856 606.7988 72.918058 598.85938 81.736328 C 590.91991 90.554758 586.95116 101.96685 586.95117 115.9707 C 586.95116 130.79495 590.58397 142.29299 597.84961 150.4668 C 605.11521 158.64063 615.10544 162.72852 627.82031 162.72852 C 640.82806 162.72852 651.28704 159.85742 659.19727 154.11523 L 659.19727 140.58008 C 650.7011 147.25978 641.3847 150.59962 631.24805 150.59961 C 622.22457 150.59962 615.13473 147.87501 609.97852 142.42578 C 604.82224 136.97658 602.12693 129.24222 601.89258 119.22266 L 665.4375 119.22266 L 665.4375 111.66406 C 665.43741 98.128963 662.21476 87.552807 655.76953 79.935547 C 649.32415 72.318447 640.21283 68.509856 628.43555 68.509766 z M 1041.1699 68.509766 C 1029.3925 68.509856 1019.5332 72.918058 1011.5938 81.736328 C 1003.6543 90.554758 999.68554 101.96685 999.68555 115.9707 C 999.68554 130.79495 1003.3183 142.29299 1010.584 150.4668 C 1017.8496 158.64063 1027.8398 162.72852 1040.5547 162.72852 C 1053.5624 162.72852 1064.0214 159.85742 1071.9316 154.11523 L 1071.9316 140.58008 C 1063.4355 147.25978 1054.1191 150.59962 1043.9824 150.59961 C 1034.9589 150.59962 1027.8691 147.87501 1022.7129 142.42578 C 1017.5566 136.97658 1014.8613 129.24222 1014.627 119.22266 L 1078.1719 119.22266 L 1078.1719 111.66406 C 1078.1718 98.128963 1074.9491 87.552807 1068.5039 79.935547 C 1062.0585 72.318447 1052.9472 68.509856 1041.1699 68.509766 z M 851.85352 69.037109 C 846.63863 69.037209 841.92183 70.808676 837.70312 74.353516 C 833.48433 77.898516 830.34958 82.836012 828.29883 89.164062 L 827.94727 89.164062 L 827.94727 70.619141 L 813.5332 70.619141 L 813.5332 160.61914 L 827.94727 160.61914 L 827.94727 114.74023 C 827.94724 104.72075 830.01169 96.810616 834.14258 91.009766 C 838.2734 85.209056 843.41597 82.308674 849.56836 82.308594 C 854.3144 82.308674 857.94721 83.275464 860.4668 85.208984 L 860.4668 70.267578 C 858.47455 69.447358 855.60346 69.037209 851.85352 69.037109 z M 876.11133 70.619141 L 876.11133 160.61914 L 890.52539 160.61914 L 890.52539 70.619141 L 876.11133 70.619141 z M 906.3457 70.619141 L 940.44727 160.61914 L 954.59766 160.61914 L 990.45703 70.619141 L 975.25195 70.619141 L 951.3457 136.36133 C 950.0566 139.99417 949.1191 144.06642 948.5332 148.57812 L 948.18164 148.57812 C 947.77144 145.00393 946.71676 140.81448 945.01758 136.00977 L 922.16602 70.619141 L 906.3457 70.619141 z M 628.17188 80.638672 C 635.20307 80.638752 640.69525 82.953201 644.65039 87.582031 C 648.6054 92.211001 650.61318 98.685609 650.67188 107.00586 L 602.06836 107.00586 C 603.18162 99.154359 606.1113 92.796944 610.85742 87.933594 C 615.60348 83.070384 621.37495 80.638752 628.17188 80.638672 z M 1040.9062 80.638672 C 1047.9374 80.638752 1053.4296 82.953201 1057.3848 87.582031 C 1061.3398 92.211001 1063.3475 98.685609 1063.4062 107.00586 L 1014.8027 107.00586 C 1015.916 99.154359 1018.8457 92.796944 1023.5918 87.933594 C 1028.3378 83.070384 1034.1093 80.638752 1040.9062 80.638672 z "
         transform="translate(-519.49996,185.38381)"
         id="path4256" />
    </g>
  </g>
</svg>
