<?xml version="1.0" encoding="UTF-8" standalone="no"?>
<!-- Generator: Adobe Illustrator 15.0.0, SVG Export Plug-In . SVG Version: 6.00 Build 0)  -->

<svg
   xmlns:dc="http://purl.org/dc/elements/1.1/"
   xmlns:cc="http://creativecommons.org/ns#"
   xmlns:rdf="http://www.w3.org/1999/02/22-rdf-syntax-ns#"
   xmlns:svg="http://www.w3.org/2000/svg"
   xmlns="http://www.w3.org/2000/svg"
   xmlns:sodipodi="http://sodipodi.sourceforge.net/DTD/sodipodi-0.dtd"
   xmlns:inkscape="http://www.inkscape.org/namespaces/inkscape"
   version="1.1"
   id="Layer_1"
   x="0px"
   y="0px"
   width="722.38098"
   height="104.31332"
   viewBox="0 0 722.38099 104.31332"
   enable-background="new 0 0 190 50"
   xml:space="preserve"
   inkscape:version="0.92.3 (2405546, 2018-03-11)"
   sodipodi:docname="outlook.svg"><metadata
   id="metadata45"><rdf:RDF><cc:Work
       rdf:about=""><dc:format>image/svg+xml</dc:format><dc:type
         rdf:resource="http://purl.org/dc/dcmitype/StillImage" /></cc:Work></rdf:RDF></metadata><defs
   id="defs43">
	
	
	

	
	
	

	
	

	
	
	
	
	
</defs><sodipodi:namedview
   pagecolor="#ffffff"
   bordercolor="#666666"
   borderopacity="1"
   objecttolerance="10"
   gridtolerance="10"
   guidetolerance="10"
   inkscape:pageopacity="0"
   inkscape:pageshadow="2"
   inkscape:window-width="1920"
   inkscape:window-height="1046"
   id="namedview41"
   showgrid="false"
   fit-margin-top="0"
   fit-margin-left="0"
   fit-margin-right="0"
   fit-margin-bottom="0"
   inkscape:zoom="1"
   inkscape:cx="7.059"
   inkscape:cy="9.87632"
   inkscape:window-x="0"
   inkscape:window-y="34"
   inkscape:window-maximized="1"
   inkscape:current-layer="Layer_1" />
<path
   style="fill:#ffffff;fill-opacity:1"
   d="M 60.726562 0 L 0 11.753906 L 0 91.580078 L 60.726562 104.3125 L 60.726562 0 z M 317.59375 9.3945312 L 317.59375 90.601562 L 326.37891 90.601562 L 326.37891 9.3945312 L 317.59375 9.3945312 z M 464.48242 9.3945312 L 464.48242 90.601562 L 473.26758 90.601562 L 473.26758 64.246094 L 473.48242 64.246094 L 497.69531 90.601562 L 510.01758 90.601562 L 482.58789 62.210938 L 508.03125 35.75 L 496.51562 35.75 L 473.48242 60.871094 L 473.26758 60.871094 L 473.26758 9.3945312 L 464.48242 9.3945312 z M 174.71289 12.505859 C 163.21394 12.505859 154.12527 16.185218 147.44922 23.539062 C 140.76925 30.896824 137.43164 40.754374 137.43164 53.107422 C 137.43164 64.606374 140.70713 73.941601 147.26172 81.119141 C 153.81632 88.296681 162.53604 91.886719 173.42773 91.886719 C 184.56623 91.886719 193.46077 88.238401 200.10156 80.955078 C 206.74236 73.671756 210.06445 63.763739 210.06445 51.230469 C 210.06445 39.700174 206.82391 30.359076 200.34375 23.216797 C 193.86359 16.078436 185.31857 12.505859 174.71289 12.505859 z M 292.21094 19.519531 L 283.42578 22.359375 L 283.42578 35.75 L 274 35.75 L 274 43.25 L 283.42578 43.25 L 283.42578 75.708984 C 283.42578 86.424361 288.22932 91.779297 297.83594 91.779297 C 301.22881 91.779297 303.96065 91.212389 306.0332 90.064453 L 306.0332 82.564453 C 304.42688 83.782911 302.51438 84.386719 300.30078 84.386719 C 297.40939 84.386719 295.33769 83.604281 294.08789 82.029297 C 292.83417 80.45823 292.21094 77.833178 292.21094 74.154297 L 292.21094 43.25 L 306.0293 43.25 L 306.0293 35.75 L 292.21094 35.75 L 292.21094 19.519531 z M 174.07031 20.646484 C 182.35269 20.646484 188.85322 23.413243 193.5625 28.957031 C 198.2757 34.492983 200.63477 42.333206 200.63477 52.472656 C 200.63477 62.365281 198.2058 70.063785 193.35156 75.556641 C 188.4934 81.057332 181.85117 83.802734 173.42383 83.802734 C 165.53324 83.802734 159.13175 80.923356 154.22266 75.15625 C 149.30965 69.385225 146.85742 61.772218 146.85742 52.306641 C 146.85742 42.844982 149.37765 35.202815 154.41211 29.380859 C 159.45049 23.558902 165.99949 20.646484 174.07031 20.646484 z M 64.566406 22.117188 L 64.566406 42.521484 L 71.697266 47.009766 C 71.885324 47.064616 72.292411 47.068536 72.480469 47.009766 L 103.16992 26.320312 C 103.16992 23.871643 100.88468 22.117188 99.595703 22.117188 L 64.566406 22.117188 z M 31.044922 33.914062 C 35.052904 33.914062 38.297354 35.550808 40.769531 38.833984 C 43.245625 42.11716 44.484375 46.443052 44.484375 51.814453 C 44.488275 57.334734 43.202925 61.784904 40.636719 65.162109 C 38.070513 68.539314 34.723186 70.232422 30.59375 70.232422 C 26.570096 70.232422 23.296582 68.593688 20.761719 65.322266 C 18.230774 62.046926 16.960937 57.785127 16.960938 52.527344 C 16.960938 46.97572 18.246271 42.484779 20.820312 39.056641 C 23.394354 35.628504 26.801868 33.914063 31.044922 33.914062 z M 365.62305 34.464844 C 357.05466 34.464844 350.25322 37.054961 345.21875 42.230469 C 340.18429 47.409895 337.66602 54.603526 337.66602 63.818359 C 337.66602 72.280961 340.08721 79.074644 344.92578 84.199219 C 349.76435 89.323795 356.23573 91.886719 364.3418 91.886719 C 372.66336 91.886719 379.29392 89.2539 384.24219 83.988281 C 389.18654 78.718745 391.6582 71.71345 391.6582 62.964844 C 391.6582 54.036015 389.36125 47.053996 384.77734 42.019531 C 380.18559 36.985067 373.80356 34.464844 365.62305 34.464844 z M 427.16602 34.464844 C 418.59371 34.464844 411.79227 37.054961 406.75781 42.230469 C 401.72334 47.409895 399.20313 54.603526 399.20312 63.818359 C 399.20312 72.280961 401.62431 79.074644 406.46289 84.199219 C 411.30146 89.323795 417.77479 91.886719 425.88086 91.886719 C 434.19851 91.886719 440.83103 89.257818 445.7793 83.988281 C 450.72757 78.718745 453.19922 71.71345 453.19922 62.964844 C 453.19922 54.036015 450.90424 47.053996 446.31641 42.019531 C 441.72858 36.985067 435.34261 34.464844 427.16602 34.464844 z M 559.78125 34.464844 C 551.13451 34.464844 544.22432 37.208351 539.05273 42.689453 C 533.87331 48.170555 531.28711 55.430245 531.28711 64.460938 C 531.28711 72.574849 533.68497 79.168498 538.48828 84.257812 C 543.29551 89.347127 549.60766 91.886719 557.42773 91.886719 C 563.21051 91.886719 568.2082 90.616893 572.42383 88.082031 L 572.42383 79.728516 C 568.2082 82.913746 563.71145 84.496094 558.92773 84.496094 C 553.25074 84.496094 548.71704 82.643841 545.34375 78.925781 C 541.97047 75.215557 540.28711 70.142118 540.28711 63.712891 C 540.28711 57.177882 542.07725 51.900584 545.66602 47.884766 C 549.25479 43.868948 553.85055 41.859375 559.46094 41.859375 C 564.0997 41.859375 568.45863 43.288403 572.5293 46.144531 L 572.5293 37.144531 C 568.8465 35.357982 564.60023 34.464844 559.78125 34.464844 z M 607.17188 34.46875 C 598.59957 34.46875 591.79813 37.058867 586.76367 42.234375 C 581.7292 47.409883 579.21094 54.607444 579.21094 63.818359 C 579.21094 72.280961 581.63212 79.074632 586.47461 84.203125 C 591.30926 89.327701 597.78456 91.886719 605.88672 91.886719 C 614.20828 91.886719 620.83687 89.253889 625.78906 83.992188 C 630.73342 78.722651 633.20703 71.717368 633.20703 62.964844 C 633.20703 54.039933 630.91008 47.057901 626.32617 42.023438 C 621.73443 36.988971 615.35239 34.46875 607.17188 34.46875 z M 670.53125 34.46875 C 663.06379 34.46875 657.38653 37.790849 653.49609 44.431641 L 653.28125 44.431641 L 653.28125 35.753906 L 644.49805 35.753906 L 644.49805 90.605469 L 653.28125 90.605469 L 653.28125 59.324219 C 653.28125 54.144793 654.52773 49.941228 657.03125 46.708984 C 659.53085 43.480658 662.71122 41.863281 666.56641 41.863281 C 674.88405 41.863281 679.04883 47.257081 679.04883 58.039062 L 679.04883 90.605469 L 687.83398 90.605469 L 687.83398 59.324219 C 687.83398 54.536581 689.15043 50.430091 691.77148 47.001953 C 694.39254 43.573816 697.58067 41.859375 701.33008 41.859375 C 705.75727 41.859375 708.90654 43.21852 710.7832 45.929688 C 712.65986 48.644772 713.59766 53.036687 713.59766 59.105469 L 713.59766 90.601562 L 722.38086 90.601562 L 722.38086 56.808594 C 722.38086 41.916765 716.34438 34.472656 704.27734 34.472656 C 696.20652 34.472656 690.13708 38.258798 686.06641 45.828125 C 685.02818 42.435248 683.11958 39.691742 680.33398 37.603516 C 677.54837 35.515291 674.28065 34.46875 670.53125 34.46875 z M 103.17383 34.566406 C 103.17383 34.566406 71.994781 55.27739 73.095703 54.603516 C 73.095703 54.603516 71.991001 55.27739 71.074219 54.603516 L 64.566406 50.132812 L 64.5625 50.132812 L 64.5625 77.863281 L 97.621094 77.863281 C 100.5595 77.863281 103.17383 76.150781 103.17383 72.068359 L 103.17383 34.566406 z M 220.07031 35.75 L 220.07031 68.53125 C 220.07031 84.104788 226.60576 91.886719 239.67578 91.886719 C 247.31563 91.886719 252.95794 88.562667 256.60156 81.921875 L 256.81641 81.921875 L 256.81641 90.601562 L 265.59961 90.601562 L 265.60352 90.601562 L 265.60352 35.75 L 256.82031 35.75 L 256.82031 67.351562 C 256.82031 72.464384 255.43399 76.594136 252.66797 79.755859 C 249.90195 82.917581 246.37599 84.492188 242.08984 84.492188 C 233.23153 84.492188 228.80273 78.706193 228.80273 67.136719 L 228.80273 35.75 L 220.07031 35.75 z M 30.873047 40.726562 C 28.655532 40.726562 26.888635 41.769219 25.583984 43.849609 C 24.279333 45.929999 23.625 48.683191 23.625 52.111328 C 23.625 55.590398 24.279333 58.34166 25.583984 60.363281 C 26.888635 62.38882 28.601147 63.394531 30.716797 63.394531 C 32.899051 63.394531 34.630977 62.412084 35.908203 60.445312 C 37.185429 58.478541 37.826172 55.746682 37.826172 52.255859 C 37.826172 48.616156 37.208763 45.783352 35.966797 43.757812 C 34.724832 41.73619 33.027876 40.726564 30.873047 40.726562 z M 364.98438 41.855469 C 370.66136 41.855469 375.03 43.711627 378.08594 47.429688 C 381.13797 51.14383 382.66211 56.428881 382.66211 63.285156 C 382.66211 70.074827 381.13797 75.305506 378.08594 78.980469 C 375.03 82.65935 370.66137 84.496094 364.98438 84.496094 C 359.41316 84.496094 354.96688 82.620496 351.64844 78.871094 C 348.33 75.121691 346.66797 69.995842 346.66797 63.496094 C 346.66797 56.745602 348.31056 51.452795 351.59766 47.613281 C 354.88083 43.773767 359.34265 41.855469 364.98438 41.855469 z M 426.52344 41.855469 C 432.20043 41.855469 436.56517 43.711627 439.61719 47.429688 C 442.66921 51.14383 444.19727 56.428881 444.19727 63.285156 C 444.19727 70.074827 442.66921 75.305506 439.61719 78.980469 C 436.56125 82.65935 432.19652 84.496094 426.51953 84.496094 C 420.94832 84.496094 416.50008 82.620496 413.18164 78.871094 C 409.86321 75.121691 408.20313 69.995842 408.20312 63.496094 C 408.20313 56.745602 409.84377 51.452795 413.13086 47.613281 C 416.41404 43.773767 420.8817 41.855469 426.52344 41.855469 z M 606.5293 41.859375 C 612.20629 41.859375 616.57493 43.715534 619.62695 47.433594 C 622.67897 51.147736 624.20313 56.428881 624.20312 63.285156 C 624.20312 70.074827 622.67897 75.305506 619.62695 78.980469 C 616.57101 82.65935 612.20239 84.496094 606.52539 84.496094 C 600.95418 84.496094 596.50788 82.620496 593.18945 78.871094 C 589.87101 75.121691 588.20898 69.99976 588.20898 63.496094 C 588.20898 56.74952 589.8555 51.456701 593.13867 47.617188 C 596.42577 43.777673 600.89148 41.859375 606.5293 41.859375 z M 523.7168 79.724609 C 522.07522 79.724609 520.67335 80.320662 519.51758 81.519531 C 518.35397 82.718399 517.77344 84.135756 517.77344 85.777344 C 517.77344 87.422849 518.35397 88.830487 519.51758 90.009766 C 520.67335 91.189046 522.07522 91.775391 523.7168 91.775391 C 525.39757 91.775391 526.82463 91.189046 528.00391 90.009766 C 529.18318 88.830487 529.77148 87.422849 529.77148 85.777344 C 529.77148 84.135756 529.18318 82.718399 528.00391 81.519531 C 526.82463 80.320662 525.39757 79.724609 523.7168 79.724609 z "
   id="path3" />





</svg>