<svg class="home-header__logo" xmlns="http://www.w3.org/2000/svg" viewBox="0 8.8 64 34.9">
        <g>
            <g>
                <path fill="rgb(255,156,0)" d="M26.69,14.41a8.75,8.75,0,0,1,10.61,0l2.16-2.67a12.17,12.17,0,0,0-14.95,0Z" transform="translate(0 -0.29)"/>
                <path d="M40.14,12.3,38,15a8.46,8.46,0,0,1,1.54,10.45l-4.76-4.58-2.22-5v7.6L37.23,28a8.75,8.75,0,0,1-10.46,0l4.71-4.53v-7.6l-2.22,5L24.5,25.42A8.46,8.46,0,0,1,26,15L23.86,12.3a11.89,11.89,0,0,0-3.94,8.85,12.09,12.09,0,0,0,24.17,0A11.9,11.9,0,0,0,40.14,12.3Z" transform="translate(0 -0.29)"/>
                <path d="M43.2,27.84h.26l.07,0a.16.16,0,0,1,.05.13.15.15,0,0,1-.13.17l.18.24h-.16l-.15-.22v.22H43.2Zm.13.1v.15h.09a.07.07,0,0,0,0-.06.07.07,0,0,0,0-.06l-.08,0Zm.06.68a.5.5,0,1,1,.5-.5A.5.5,0,0,1,43.38,28.63Zm.41-.5a.41.41,0,1,0-.41.41A.41.41,0,0,0,43.79,28.13Z" transform="translate(0 -0.29)"/>
            </g>
            <g>
                <polygon fill="rgb(255,156,0)" points="10.77 34.43 12.16 36.41 9.37 36.41 10.77 34.43"/>
                <polygon points="34.85 36.47 33.74 39.1 33.74 39.1 32.59 36.47 31.38 36.47 30.23 39.07 29.14 36.47 27.31 36.47 29.58 41.64 30.74 41.64 31.9 39.04 33.05 41.64 34.28 41.64 36.54 36.47 34.85 36.47"/>
                <polygon points="60.48 36.47 60.48 38.29 57.31 38.29 57.31 36.47 55.55 36.47 55.55 41.64 57.31 41.64 57.31 39.64 60.48 39.64 60.48 41.64 62.23 41.64 62.23 36.47 60.48 36.47"/>
                <polygon points="38.64 36.47 35.17 41.64 37.09 41.64 39.24 38.31 41.37 41.64 43.35 41.64 39.97 36.47 38.64 36.47"/>
                <polygon points="14.61 36.47 12.66 36.47 10.69 39.62 8.75 36.47 6.76 36.47 10.02 41.64 11.22 41.64 14.61 36.47"/>
                <polygon points="41.98 36.47 41.98 37.83 44.23 37.83 44.23 41.64 46 41.64 46 37.83 47.77 37.83 48.67 36.47 41.98 36.47"/>
                <path d="M6,36.85a2.09,2.09,0,0,0-.61-.08H1.53c-.89,0-1.45.45-1.45,1.17v2.82a1.07,1.07,0,0,0,.61,1l.07,0,1.08-1.09V38.12H5.13v2.45H2.71L1.35,41.93H5.43c.86,0,1.46-.48,1.46-1.17V38.08l-.81-1.22Z" transform="translate(0 -0.29)"/>
                <path d="M53.35,36.76H49.83l-.28,0H49.5l-.15.23h0l-1,1.47v2.27c0,.69.6,1.17,1.45,1.17h3.53a1.31,1.31,0,0,0,1.46-1.17v-.89H53v.7H50.14V38.12H53v.6h1.77v-.78C54.81,37.23,54.24,36.76,53.35,36.76Z" transform="translate(0 -0.29)"/>
                <polygon points="14.51 37.76 14.51 41.64 19.98 41.64 19.98 40.28 16.27 40.28 16.27 39.63 18.78 39.63 18.78 38.44 16.27 38.44 16.27 37.83 19.98 37.83 19.98 36.47 15.41 36.47 14.51 37.76"/>
                <path d="M25.68,40c.63,0,1.31-.33,1.31-.94V37.82c0-.65-.51-1.06-1.33-1.06h-4.9v5.16h1.76V38.09h2.77s0,0,0,.05v.78h0a.19.19,0,0,1-.1,0H23.32v1l2.17,1.94H27.9L25.68,40Z" transform="translate(0 -0.29)"/>
                <polygon fill="rgb(255,156,0)" points="39.26 43.61 37.87 41.64 40.65 41.64 39.26 43.61"/>
                <path d="M63.24,36.91h.26l.07,0a.16.16,0,0,1,.05.13.15.15,0,0,1-.13.17l.18.24h-.16l-.15-.22v.22h-.13Zm.13.1v.15h.09a.07.07,0,0,0,0-.06.07.07,0,0,0,0-.06l-.08,0Z" transform="translate(0 -0.29)"/>
                <path d="M63.43,37.69a.5.5,0,1,1,.5-.5A.5.5,0,0,1,63.43,37.69Zm.41-.5a.41.41,0,1,0-.41.41A.41.41,0,0,0,63.84,37.19Z" transform="translate(0 -0.29)"/>
            </g>
        </g>
    </svg>