<?xml version="1.0" encoding="UTF-8" standalone="no"?>
<svg
   xmlns:dc="http://purl.org/dc/elements/1.1/"
   xmlns:cc="http://creativecommons.org/ns#"
   xmlns:rdf="http://www.w3.org/1999/02/22-rdf-syntax-ns#"
   xmlns:svg="http://www.w3.org/2000/svg"
   xmlns="http://www.w3.org/2000/svg"
   xmlns:sodipodi="http://sodipodi.sourceforge.net/DTD/sodipodi-0.dtd"
   xmlns:inkscape="http://www.inkscape.org/namespaces/inkscape"
   xml:space="preserve"
   height="90.671875"
   viewBox="0 0 205.78222 90.671674"
   width="205.78516"
   version="1.1"
   id="svg76"
   sodipodi:docname="skype.svg"
   inkscape:version="0.92.3 (2405546, 2018-03-11)"><metadata
     id="metadata82"><rdf:RDF><cc:Work
         rdf:about=""><dc:format>image/svg+xml</dc:format><dc:type
           rdf:resource="http://purl.org/dc/dcmitype/StillImage" /><dc:title></dc:title></cc:Work></rdf:RDF></metadata><defs
     id="defs80" /><sodipodi:namedview
     pagecolor="#ffffff"
     bordercolor="#666666"
     borderopacity="1"
     objecttolerance="10"
     gridtolerance="10"
     guidetolerance="10"
     inkscape:pageopacity="0"
     inkscape:pageshadow="2"
     inkscape:window-width="1920"
     inkscape:window-height="1046"
     id="namedview78"
     showgrid="false"
     fit-margin-top="0"
     fit-margin-left="0"
     fit-margin-right="0"
     fit-margin-bottom="0"
     inkscape:zoom="2.531402"
     inkscape:cx="36.972477"
     inkscape:cy="45.360264"
     inkscape:window-x="0"
     inkscape:window-y="34"
     inkscape:window-maximized="1"
     inkscape:current-layer="svg76" /><path
     style="fill:#ffffff;fill-opacity:1;stroke:none;stroke-width:1"
     d="m 53.668552,0 c -7.676,0 -13.890594,6.2178068 -13.890594,13.898407 0,0.181 0.0015,0.354155 0.02148,0.535154 -1.502,-0.226999 -3.02535,-0.343749 -4.568349,-0.343749 -4.527,0 -8.808223,0.997385 -12.656222,2.775385 -2.161,-1.161 -4.631609,-1.824215 -7.265609,-1.824215 -8.4577004,0 -15.31051311,6.865374 -15.31051309,15.316372 -3.9001e-4,4.488 1.93564199,8.505616 5.00194199,11.306616 -0.0823,0.916 -0.1230466,1.840197 -0.1230466,2.783197 0,16.765 13.5814487,30.347588 30.3534487,30.347588 6.521999,0 12.551195,-2.057815 17.490195,-5.548815 4.445,6.094 11.627815,10.064429 19.755816,10.064431 0.205999,0 0.39117,-0.01444 0.57617,-0.02344 2.346001,6.628001 8.643231,11.384741 16.07223,11.384741 7.511,0 13.88816,-4.876599 16.15817,-11.640599 2.56999,4.886999 7.68957,8.222638 13.59958,8.222638 7.38999,0 13.56098,-5.221942 15.04098,-12.167942 1.07,0.144999 2.13999,0.253905 3.24999,0.253905 6.01001,0 11.48865,-2.283752 15.63863,-6.009752 4.74001,3.218 10.4613,5.093739 16.6113,5.093739 16.32,0 29.56829,-13.248059 29.56829,-29.578059 0,-2.022001 -0.19984,-3.989331 -0.58984,-5.902331 4.3,-1.596001 7.38085,-5.730586 7.38085,-10.599586 0,-6.247 -5.06029,-11.316381 -11.32029,-11.316381 -3.23,0 -6.12944,1.360336 -8.18944,3.527336 -4.79,-3.328 -10.58957,-5.287097 -16.84957,-5.287097 -6.34,0 -12.19997,2.005472 -16.99997,5.396472 -2.17999,-2.003 -5.05997,-3.238274 -8.24998,-3.238274 -2.36999,0 -4.5699,0.68937 -6.4199,1.859371 -4.45,-7.879999 -12.86073,-13.2206723 -22.55073,-13.2206723 -8.85,-2.001e-4 -16.654124,4.4430063 -21.326123,11.2070063 -3.889001,-4.008 -9.340591,-6.499986 -15.390591,-6.499986 -3.992,0 -7.717226,1.104994 -10.906226,2.999994 C 67.49763,6.1547538 61.302552,0 53.668552,0 Z m 0.349608,9.3202917 c 3.252,0 5.392566,1.8495203 5.392566,5.3945193 V 39.2421 L 71.387263,25.941349 c 1.111999,-1.179001 2.51071,-2.068355 4.136708,-2.068355 1.749,-10e-7 3.622334,1.125384 4.527334,2.775384 0.865,-1.678 2.612898,-2.775384 4.628896,-2.775384 2.881001,0 4.879097,1.623491 5.537098,4.062491 l 6.955062,25.189397 h 0.144531 l 6.587878,-24.445258 c 0.73999,-2.738 2.1982,-4.806631 5.15818,-4.80663 2.55001,-10e-7 4.04078,1.259635 4.80078,2.556635 0.68,-1.668001 2.11944,-2.556635 4.43944,-2.556635 3.17001,0 4.88085,1.776691 4.88085,5.095692 v 1.695308 h 0.14062 c 1.77001,-4.569 6.13889,-6.791 11.37889,-6.791 7.7,-10e-7 14.56965,4.814983 16.42965,14.915982 2.09,-9.120999 9.11089,-14.915982 19.7109,-14.915982 12.40998,-10e-7 19.50971,8.786258 19.50971,17.654257 0,3.699001 -1.11045,4.652334 -4.73046,4.652334 h -24.38861 c 0,5.694 3.67849,9.828103 9.9785,9.828103 8.12999,0 8.13067,-5.322253 12.47067,-5.322253 2.58999,-10e-7 4.44921,2.221787 4.44921,4.216787 0,6.501 -10.43989,9.529275 -16.91988,9.529275 -12.27001,0 -18.34035,-6.755905 -20.15036,-14.335905 -1.61998,7.943 -6.82831,14.335905 -16.06831,14.335905 -4.94001,0 -8.6406,-1.993784 -10.64061,-5.466785 h -0.14062 v 14.408173 c 0,3.545998 -2.13866,5.384753 -5.38867,5.384753 -3.24999,0 -5.3906,-1.838755 -5.3906,-5.384753 V 33.175708 l -12.12108,34.357345 c -2.597988,7.39 -5.540528,11.224585 -12.351528,11.224585 -4.794999,0 -6.791,-2.357395 -6.791,-4.941395 0,-2.884001 2.077973,-4.361319 4.958973,-4.361319 h 1.111325 c 1.399,0 2.942618,-0.07238 3.765617,-3.400383 L 80.770054,34.074143 c -0.391,-1.161 -0.698779,-2.030853 -0.925779,-2.755853 -0.247001,0.326 -0.53428,0.616514 -0.863279,0.978514 l -7.964827,8.341777 11.214819,15.07028 c 0.370001,0.517 1.111326,1.704648 1.111326,3.472648 0,2.738 -2.20102,5.249988 -5.08202,5.249988 -2.675,0 -4.073944,-1.332713 -4.876942,-2.511713 L 63.176343,47.511613 59.410726,50.839731 v 8.197247 c 0,3.546 -2.140566,5.394519 -5.392566,5.394519 -3.251,0 -5.390613,-1.848519 -5.390613,-5.394519 v -3.972647 c -1.935,6.374 -9.157246,9.367166 -16.113245,9.367166 -9.733001,0 -17.863241,-4.359806 -17.863241,-9.673806 0,-2.366 1.316788,-4.507802 4.341786,-4.507802 4.671,0 5.104816,6.646469 13.089815,6.646469 3.848,0 6.275377,-1.704007 6.275377,-3.916007 0,-2.729 -2.366347,-3.173756 -6.193345,-4.134756 L 25.805332,47.294816 C 19.529334,45.744818 14.651061,43.158983 14.651061,35.913983 c 0,-8.786 8.705744,-12.040989 16.175745,-12.040989 8.189999,0 16.482385,3.255247 16.482385,8.197247 0,2.511001 -1.706849,4.732412 -4.50585,4.732412 -4.218,0 -4.361803,-4.949208 -11.173803,-4.949208 -3.765,0 -6.195298,1.033352 -6.195298,3.318352 0,2.521 2.427705,3.109741 5.761706,3.843742 l 4.507802,1.0332 c 5.164999,1.188 11.173799,3.228309 12.923799,8.36131 V 14.714811 c 0,-3.544999 2.139613,-5.3945193 5.390613,-5.3945193 z M 187.34794,24.644477 h 5.58007 v 1.25195 h -2.04102 v 5.539051 H 189.387 v -5.539051 h -2.03906 z m 6.35937,0 h 2.0996 l 1.59179,4.669911 h 0.0195 l 1.5,-4.669911 h 2.0996 v 6.791001 h -1.40039 v -4.814444 h -0.0195 l -1.66991,4.814444 h -1.13086 l -1.68945,-4.769522 v 4.769522 h -1.40038 z m -22.65034,6.763657 c -5.40001,0 -8.64834,3.327339 -9.81834,8.56834 h 18.91011 c -0.6,-4.951 -4.28177,-8.56834 -9.09177,-8.56834 z m -38.79875,0.88867 c -6.27,-0.081 -8.64061,5.613161 -8.64061,11.742161 0,5.540999 2.08061,11.968723 8.64061,11.968723 6.88,-0.072 8.58982,-6.944724 8.58982,-11.968723 0,-6.347 -2.81982,-11.669161 -8.58982,-11.742161 z"
     id="path68"
     inkscape:connector-curvature="0" /></svg>