<?xml version="1.0" encoding="UTF-8" standalone="no"?>
<svg
   xmlns:dc="http://purl.org/dc/elements/1.1/"
   xmlns:cc="http://creativecommons.org/ns#"
   xmlns:rdf="http://www.w3.org/1999/02/22-rdf-syntax-ns#"
   xmlns:svg="http://www.w3.org/2000/svg"
   xmlns="http://www.w3.org/2000/svg"
   xmlns:sodipodi="http://sodipodi.sourceforge.net/DTD/sodipodi-0.dtd"
   xmlns:inkscape="http://www.inkscape.org/namespaces/inkscape"
   id="svg2"
   height="107.30078"
   width="479.02539"
   version="1.1"
   sodipodi:docname="windows.svg"
   inkscape:version="0.92.3 (2405546, 2018-03-11)"
   style="fill:#0078d6">
  <defs
     id="defs9272" />
  <sodipodi:namedview
     pagecolor="#ffffff"
     bordercolor="#666666"
     borderopacity="1"
     objecttolerance="10"
     gridtolerance="10"
     guidetolerance="10"
     inkscape:pageopacity="0"
     inkscape:pageshadow="2"
     inkscape:window-width="1920"
     inkscape:window-height="1046"
     id="namedview9270"
     showgrid="false"
     inkscape:zoom="1.0800267"
     inkscape:cx="-178.53272"
     inkscape:cy="53.65058"
     inkscape:window-x="0"
     inkscape:window-y="34"
     inkscape:window-maximized="1"
     inkscape:current-layer="svg2"
     fit-margin-top="0"
     fit-margin-left="0"
     fit-margin-right="0"
     fit-margin-bottom="0" />
  <metadata
     id="metadata28">
    <rdf:RDF>
      <cc:Work
         rdf:about="">
        <dc:format>image/svg+xml</dc:format>
        <dc:type
           rdf:resource="http://purl.org/dc/dcmitype/StillImage" />
        <dc:title></dc:title>
      </cc:Work>
    </rdf:RDF>
  </metadata>
  <path
     style="fill:#fffff9;fill-opacity:1"
     d="M 105.78906,0 46.908203,8.591797 V 51.259766 H 105.78906 Z M 42.757812,9.195312 0,15.431641 v 35.828125 h 42.757812 z m 279.251958,9.650391 v 27.46875 h -0.17188 c -2.77359,-4.7942 -7.20852,-7.193359 -13.30078,-7.193359 -6.15565,0 -11.07896,2.209339 -14.77539,6.630859 -3.69896,4.41645 -5.54688,10.295723 -5.54688,17.632813 0,6.84524 1.67198,12.254369 5.00586,16.224609 3.33643,3.97277 7.79017,5.958984 13.36524,5.958984 6.87314,0 11.95863,-2.860498 15.25195,-8.580078 h 0.17188 v 7.541016 h 7.10742 V 18.845703 Z m -94.66211,0.818359 c -1.27272,0 -2.3525,0.440573 -3.25,1.320313 -0.8924,0.88228 -1.33985,1.990456 -1.33985,3.316406 0,1.33102 0.44491,2.425899 1.33985,3.292969 0.89497,0.86706 1.97727,1.300781 3.25,1.300781 1.30058,0 2.4037,-0.44627 3.3164,-1.34375 0.90761,-0.89496 1.36524,-1.97729 1.36524,-3.25 0,-1.32848 -0.45763,-2.434126 -1.36524,-3.316406 -0.9127,-0.8772 -2.01582,-1.320313 -3.3164,-1.320313 z m -90.46094,2.732422 18.19922,62.132813 h 8.44922 l 12.86718,-45.494141 c 0.5755,-2.020607 0.9526,-4.098511 1.125,-6.238281 h 0.17188 c 0.11408,2.28175 0.45042,4.389812 0.99805,6.324219 l 12.78125,45.408203 h 8.53515 L 217.5625,22.398438 h -7.88672 l -12.69531,47.833984 c -0.66678,2.48457 -1.05779,4.477636 -1.17188,5.978516 h -0.17187 c -0.23325,-2.223431 -0.57763,-4.161251 -1.03906,-5.806641 L 181.42773,22.396484 h -6.97461 L 160.7168,70.056641 c -0.75297,2.62908 -1.19729,4.708934 -1.3418,6.240234 h -0.21875 c -0.14451,-2.16766 -0.49144,-4.247504 -1.03906,-6.240234 l -13.2168,-47.660157 z m 329.78711,16.716797 c -2.16515,0 -4.26498,0.274646 -6.30078,0.822266 -2.03836,0.55015 -3.85179,1.366649 -5.44141,2.449219 -1.58708,1.08509 -2.8567,2.42642 -3.8125,4.03125 -0.95072,1.6023 -1.42773,3.444507 -1.42773,5.523437 0,1.70624 0.25326,3.192721 0.75781,4.462891 0.50703,1.27271 1.25757,2.405974 2.2539,3.402344 0.99888,0.998899 2.24033,1.89396 3.72852,2.6875 1.48567,0.79607 3.21092,1.582421 5.17578,2.363281 1.41213,0.55016 2.7378,1.077511 3.96485,1.582031 1.22454,0.50452 2.29493,1.077117 3.20507,1.710938 0.90763,0.63635 1.63364,1.36354 2.16602,2.1875 0.53241,0.82397 0.79883,1.827748 0.79883,3.011718 0,4.16039 -3.12007,6.240235 -9.35938,6.240235 -4.64967,0 -8.91044,-1.428696 -12.77929,-4.291016 v 7.626953 c 3.3491,1.76202 7.30582,2.644719 11.87695,2.636719 2.31217,0 4.52268,-0.26151 6.62695,-0.78125 2.10938,-0.51972 3.97173,-1.312923 5.5918,-2.382813 1.61751,-1.06736 2.90655,-2.409256 3.875,-4.029296 0.97104,-1.617501 1.45117,-3.523201 1.45117,-5.71875 0,-1.789901 -0.296,-3.333589 -0.88672,-4.636719 -0.59325,-1.29553 -1.43934,-2.44446 -2.53711,-3.44336 -1.09778,-0.99636 -2.4252,-1.89396 -3.98437,-2.6875 -1.55922,-0.791 -3.32347,-1.563426 -5.28321,-2.316406 -1.47553,-0.57804 -2.78864,-1.113629 -3.94726,-1.605469 -1.15355,-0.48931 -2.13598,-1.039178 -2.94727,-1.642578 -0.80876,-0.60847 -1.4215,-1.301738 -1.83984,-2.080078 -0.42086,-0.7834 -0.62891,-1.748217 -0.62891,-2.904297 0,-0.92284 0.20805,-1.766966 0.62891,-2.535156 0.41834,-0.76311 1.00976,-1.420543 1.77539,-1.970703 0.76565,-0.54761 1.68014,-0.975654 2.75,-1.277344 1.06989,-0.30424 2.26722,-0.457031 3.5957,-0.457031 4.24406,0 7.99766,1.069801 11.26563,3.207031 v -7.191406 c -3.03473,-1.32595 -6.47155,-1.994141 -10.3125,-1.994141 z m -105.45313,0.0059 c -6.93398,0 -12.43864,2.096876 -16.50781,6.285156 -4.07416,4.18827 -6.10937,10.009767 -6.10937,17.460937 0,6.84525 1.95468,12.341158 5.86914,16.486328 3.91449,4.14517 9.14825,6.216797 15.70703,6.216797 6.73115,0 12.09504,-2.130788 16.0957,-6.392578 4.00067,-4.2618 6,-9.927369 6,-17.005859 0,-7.22046 -1.85482,-12.872286 -5.56641,-16.941406 -3.70916,-4.07419 -8.87629,-6.109375 -15.48828,-6.109375 z m -97.64648,0.002 c -6.35594,0 -11.20754,2.801337 -14.55664,8.404297 h -0.17188 v -7.363282 h -7.10742 v 44.367188 h 7.10742 V 59.226562 c 0,-4.07166 1.1609,-7.443054 3.48828,-10.115234 2.32485,-2.67218 5.26448,-4.007812 8.81641,-4.007812 6.87313,0 10.3125,4.707027 10.3125,14.123046 v 25.302735 h 7.10352 v -27.125 c 0,-5.91987 -1.28415,-10.448431 -3.85743,-13.582031 -2.57077,-3.1336 -6.28224,-4.701172 -11.13476,-4.701172 z m -39.86719,1.041015 v 44.367188 h 7.10742 V 40.162109 Z m 189.1543,0 -10.22461,33.275391 c -0.43351,1.4451 -0.69505,2.800143 -0.78125,4.070312 h -0.3457 c -0.11663,-1.64539 -0.32097,-2.972804 -0.60743,-3.984374 L 391.7207,40.164062 h -7.45117 l 13.43164,44.367188 h 7.10547 l 9.92188,-31.845703 c 0.51973,-1.65047 0.82395,-2.99179 0.91015,-4.03125 h 0.17188 c 0.11158,1.53131 0.34405,2.900834 0.6914,4.115234 l 9.14063,31.759766 h 7.36719 l 13.30078,-44.367188 h -7.01758 l -9.01367,33.447266 c -0.43353,1.53131 -0.67858,2.858715 -0.73438,3.984375 h -0.34765 c -0.14704,-1.58708 -0.36589,-2.914495 -0.65235,-3.984375 l -9.18554,-33.447266 z m -103.41406,4.9375 c 3.64066,0 6.64319,1.244533 9.01367,3.726563 2.36542,2.4871 3.55273,5.519799 3.55273,9.099609 v 6.542969 c 0,4.35814 -1.23826,7.970865 -3.70508,10.828125 -2.4719,2.86232 -5.68306,4.291016 -9.64062,4.291016 -4.01588,0 -7.21704,-1.480207 -9.59766,-4.441407 -2.38316,-2.95867 -3.57422,-6.995725 -3.57422,-12.109375 0,-5.60296 1.24201,-9.990681 3.72657,-13.169921 2.48204,-3.176701 5.89182,-4.767579 10.22461,-4.767579 z m 51.25195,0 c 4.59392,0 8.12578,1.504677 10.59766,4.503907 2.46936,3.00684 3.70312,7.277038 3.70312,12.824218 0,5.48887 -1.23377,9.721433 -3.70312,12.695313 -2.47188,2.97642 -6.00177,4.464844 -10.59571,4.464844 -4.50519,0 -8.10227,-1.519178 -10.78711,-4.548829 -2.68995,-3.03473 -4.03125,-7.177386 -4.03125,-12.435546 0,-5.45844 1.32488,-9.737454 3.98438,-12.845704 2.65444,-3.105709 6.26597,-4.658203 10.83203,-4.658203 z M 0,55.408203 V 91.693359 L 42.757812,98.00195 V 55.408203 Z m 46.908203,0 V 98.61523 l 58.880857,8.68555 V 55.408203 Z"
     id="svg_2"
     inkscape:connector-curvature="0" />
</svg>
