<svg viewBox="0 0 144 30" xmlns="http://www.w3.org/2000/svg">
<path fill="#0093BE" fill-rule="evenodd" d="M58.543 7.042c-2.79 0-4.646 1.216-6.21 3.75-.306-.702-.57-1.17-1.27-1.918a5.636 5.636 0 0 0-1.096-.91c-.993-.6-2.28-.907-3.842-.907-2.85 0-4.574 1.318-5.625 3.765h-.088c0-.63-.015-1.245-.044-1.86-.16-.704-.76-1.23-1.505-1.246-.833-.014-1.55.674-1.592 1.51.074.98.103 1.992.103 3.003V25.5c0 .88.79 1.612 1.68 1.597.818-.016 1.49-.616 1.622-1.437v-8c0-1.918.044-4.63 1.505-6.226.832-.908 2.045-1.362 3.652-1.362 2.69 0 3.755 1.7 3.755 6.036V25.518c.132.938.804 1.597 1.666 1.582.803 0 1.475-.602 1.636-1.422v-9.802c0-3.4 2.22-5.802 5.127-5.802 1.505 0 2.513.498 3.04 1.084.51.585.76 1.83.818 2.563.03.366.043.952.043 1.743v9.904h-.058v.088c0 .923.745 1.64 1.636 1.626.877-.014 1.578-.63 1.578-1.435V15.29c0-1.684-.03-3.765-.79-5.39-.92-1.95-2.658-2.858-5.74-2.858zm-27.336 10.68v1.32c-.073 1.655-.584 3.047-1.534 4.16-.95 1.128-2.484 1.787-4.295 1.787-2.732 0-4.354-1.158-4.354-3.443 0-2.535 2.454-3.824 6.837-3.824h3.347zm3.23 7.575c-.045-.894-.074-1.377-.074-1.45v-8.454c0-5.684-2.542-8.35-8.21-8.35-2.53 0-4.735.66-6.59 1.992a1.537 1.537 0 0 0-.16 1.992c.48.69 1.445.835 2.132.352.015-.016.03-.03.06-.045 1.387-.835 2.95-1.26 4.69-1.26 3.154 0 4.922 1.524 4.922 4.337v.586h-1.344c-.628 0-1.36.014-2.22.03-1.9.087-3.463.292-4.69.63-1.476.394-3.01 1.142-3.887 2.02-1.067 1.085-1.593 2.49-1.593 4.235 0 1.23.336 2.3 1.01 3.194 1.328 1.787 3.417 2.68 6.296 2.68 2.818 0 5.083-1.26 6.47-3.428h.09c0 .527.013 1.04.028 1.523a1.59 1.59 0 0 0 1.768 1.275 1.56 1.56 0 0 0 1.33-1.773c0-.03 0-.044-.015-.06l-.014-.028zm98.02-20.013c.308.22 1.243 0 2.82-.63a43.027 43.027 0 0 0 4.75-2.27c.525-.426.642-1.187.277-1.773a1.317 1.317 0 0 0-1.49-.556c-.074.03-.132.058-.176.073-.877.484-3.346 2.286-5.084 3.75-.936.806-1.3 1.275-1.096 1.407zm-114.91.103c.014 0 .014-.015.014-.03 0-.014 0-.03.016-.03.277-.863-.22-1.816-1.08-2.094-.834-.25-1.755.19-2.047 1.01 0 .016-.016.06-.045.118v.045c-.248.733-2.016 5.42-5.29 14.05h-.1l-5.61-14.27V4.17l-.075-.22a1.77 1.77 0 0 0-2.19-.893C.26 3.41-.206 4.36.086 5.24c.38.982 2.776 6.827 7.174 17.537l-.438.938c-.76 2.066-1.592 3.252-3.652 3.252-.176 0-.35 0-.54-.014l-.425-.03c-.7-.044-1.344.41-1.534 1.114-.218.776.28 1.61 1.053 1.83.57.09 1.11.133 1.65.133 1.58 0 2.792-.41 3.64-1.01.423-.294.818-.704 1.197-1.217.6-.806 1.17-1.934 1.724-3.384L17.43 5.71c.073-.177.116-.28.13-.323h-.014zm122.48 9.625a51.414 51.414 0 0 0-4.764-2.285c-1.856-.762-2.805-.938-2.82-.528.015.248.395.688 1.11 1.318 1.74 1.465 4.208 3.267 5.085 3.75l.175.088c.57.162 1.155-.058 1.49-.57.366-.587.25-1.35-.277-1.774zm3.49-6.446c-.043-.645-.51-1.187-1.036-1.187h-.19c-1.65 0-8.137.85-7.86 1.552.102.293 1.023.542 2.732.747 1.71.19 3.448.292 5.245.292.658-.102 1.155-.717 1.11-1.406zM89.095 7.042c-2.79 0-4.646 1.216-6.21 3.75-.336-.688-.57-1.17-1.27-1.918a5.636 5.636 0 0 0-1.096-.91c-1.01-.6-2.294-.907-3.843-.907-3.156 0-4.72 1.61-5.64 3.765h-.073l-.044-1.86a1.594 1.594 0 0 0-1.52-1.246c-.817-.014-1.518.674-1.562 1.51.073 1.713.117 2.724.117 3.003V25.5c0 .88.79 1.612 1.68 1.597.818-.016 1.475-.616 1.607-1.437v-8c0-1.918.044-4.63 1.505-6.226.833-.908 2.045-1.362 3.652-1.362 2.69 0 3.755 1.7 3.755 6.036V25.518c0 .88.775 1.597 1.666 1.582.803 0 1.476-.602 1.636-1.422v-9.802c0-3.414 2.177-5.802 5.055-5.802.89 0 2.045.146 2.702.806.307.308.424.44.6.733.072.147.146.308.204.498.336 1.1.336 1.95.336 3.356v9.904h.044v.088c.014.923.76 1.64 1.65 1.626.82-.014 1.462-.615 1.593-1.435V15.29c0-1.7 0-3.706-.804-5.39-.92-1.95-2.66-2.858-5.742-2.858zm40.705 0v-.014c0 .014-.03.03-.104.044-2.98.043-5.464 1.582-6.384 3.75h-.073c0-.102-.016-.732-.045-1.875h-.015l-.015-.044a1.572 1.572 0 0 0-1.855-1.216c-.628.117-1.11.63-1.227 1.23.073 1.89.117 3.004.117 3.312v13.55c.13.865.818 1.495 1.65 1.48.892 0 1.637-.747 1.637-1.64v-.045c0-.014 0-.043-.015-.073h.015v-7.838c0-4.747 1.928-7.325 5.742-7.325.145 0 .335.013.57.028h.072a1.673 1.673 0 0 0 1.68-1.64c0-.924-.745-1.686-1.666-1.7l-.087.014zm-28.17 8.527c.526-3.576 2.95-5.76 6.618-5.76 3.726 0 6.107 2.228 6.327 5.76H101.63zm6.764-8.616c-3.813 0-7.042 1.846-8.78 5.01-.863 1.583-1.3 3.37-1.3 5.378 0 2.827.95 5.435 2.644 7.31 1.71 1.92 4.324 3.033 7.305 3.033 3.083 0 5.39-.776 7.334-2.578a1.42 1.42 0 0 0 .424-1.026c0-.805-.583-1.435-1.33-1.552-.364-.044-.7.03-1.007.22-1.358 1.304-3.112 1.948-5.26 1.948-4.09 0-6.69-2.46-6.823-6.373l14.48.015c.642 0 1.08-.176 1.314-.527.117-.16.19-.35.234-.542.044-.19.06-.586.044-1.186-.453-5.7-4.003-9.128-9.278-9.128z"/>
</svg>