<svg height="242.693222" viewBox="0 0 1000 589.48259" width="412.042822" xmlns="http://www.w3.org/2000/svg"><g fill-rule="evenodd"><g fill="#f37023"><path d="m371.62577 51.13166 66.48159 70.42276c4.8091 4.16777 16.35043 15.06979 7.6865 26.94051 0 0-3.19789 12.18957-23.08692 6.41168l-97.56833-28.95469a180.25844 180.25844 0 0 1 13.65782-31.78566l94.4975 52.08225c9.62253.96151 6.41164-8.33489 2.56551-9.6243l-86.26235-59.76165a182.47069 182.47069 0 0 1 22.02868-25.7309z"/><path d="m415.02766 19.95226 41.03412 82.3541s13.14818 22.45489 5.76775 40.41288c0 0-5.44585 27.58493-34.956 35.924 0 0-54.84787 3.169-110.3209 2.8904 0-.11121-.00431-.22091-.00431-.32049a182.11358 182.11358 0 0 1 3.58768-36.05323l102.249 20.00884s15.72237.3234 24.69956-12.18522c0 0 12.18666-13.47043 1.92311-35.27892l-62.71776-79.35932a181.72145 181.72145 0 0 1 28.73775-18.393z"/><path d="m465.62227 2.8459c15.20841 88.33572 16.41824 104.27463 16.41824 104.27463s9.29336 67.03555-66.38628 98.785c0 0-32.08725 13.65786-90.87221 29.59532-1.00917-3.23684-1.926-6.50115-2.75613-9.816l-3.98907-21.08014c-.1891-1.48415-.35948-2.977-.5125-4.46694 11.4128.13284 85.295-8.66679 85.295-8.66679s33.35629-4.171 46.82637-19.24369c0 0 39.12986-23.08693 10.58413-93.33019 0 0-5.31442-13.86155-27.80364-66.74576a179.83261 179.83261 0 0 1 33.19609-9.30544z"/><path d="m629.32847 56.32153-67.43147 66.83252c-5.12528 3.85177-16.67237 14.43877-8.65815 26.62442 0 0 2.88749 12.18517 22.7693 7.05121l96.46529-24.95826a179.998 179.998 0 0 0 -12.36-31.81034l-94.35881 47.78851c-9.62834.64534-6.1056-8.33648-2.248-9.61733l86.63775-55.54969a181.90067 181.90067 0 0 0 -20.816-26.361z"/><path d="m587.51335 23.64767-43.25173 79.62805s-13.47449 21.80285-6.73508 40.08441c0 0 4.16376 27.58074 33.34329 37.20618 0 0 53.82573 4.94627 108.30257 6.647.06785-1.99383.11116-3.99484.11116-6.00017a181.58945 181.58945 0 0 0 -2.50347-30.04006l-100.772 15.92742s-15.71368-.3234-24.37616-12.83056c0 0-11.54132-14.11533-.63815-35.60364l64.23368-75.6254a181.18666 181.18666 0 0 0 -27.71411-19.39323z"/><path d="m538.05494 4.48985c-17.67 86.81575-19.45588 102.63068-19.45588 102.63068s-11.86036 66.71215 62.86786 101.02855c0 0 30.8586 14.33638 87.9602 32.2619a180.97412 180.97412 0 0 0 8.19178-34.61812c-16.0833-1.17666-83.0038-11.75783-83.0038-11.75783s-33.04008-5.134-46.19267-20.52429c0 0-38.15813-24.69382-7.05553-93.97368 0 0 5.81252-13.349 29.28488-64.33473a179.85488 179.85488 0 0 0 -32.59684-10.71248z"/><path d="m484.069.51673q6.78914-.50757 13.68383-.51673a185.494 185.494 0 0 1 18.76578.95451c-12.93308 91.21189-6.25431 116.42949-6.25431 116.42949 7.379 79.21944 84.02022 109.04578 84.02022 109.04578 53.407 27.372 64.6509 32.991 66.85261 34.07526a181.841 181.841 0 0 1 -18.2576 29.85953l-53.72465-40.523c-24.04848-19.56418-43.2965-27.89892-43.2965-27.89892-16.67237-6.09694-30.7792-8.98734-50.35061-8.98734-19.55987 0-37.52292.63816-62.53869 15.39757-24.09179 13.98122-77.148 50.29863-84.71609 55.50044q-3.64041-5.31875-6.91265-10.88874l-8.34775-16.03858q-.89871-1.98364-1.75846-3.98325l85.05535-36.13549c4.48862-1.92311 36.88335-22.12686 51.31935-42.33493 14.10974-20.5272 22.12828-45.54327 24.05276-65.1086 1.60694-16.2999-5.25808-86.05445-7.59262-108.847zm15.9317 126.48909c-7.057 40.408-44.9048 79.53782-44.9048 79.53782 29.82633-10.58554 87.56314 0 87.56314 0-26.627-27.9004-37.5287-58.37352-42.65834-79.53782z"/><path d="m541.64554 357.402-25.2944-90.5647c-.95438-6.09406-4.81056-21.4887-19.23647-20.52431 0 0-11.869-3.208-17.31917 16.36055l-24.52058 95.04172a182.15686 182.15686 0 0 0 33.44868 4.799l4.22008-104.33372c3.8505-8.65522 9.9402-.96728 9.29917 2.88751l6.56471 101.32346a183.49259 183.49259 0 0 0 32.838-4.98955z"/><path d="m590.53509 337.31083-48.52139-75.92365s-12.50429-22.77223-31.42745-25.65824c0 0-26.61831-9.62112-49.07434 11.23088 0 0-29.55347 43.4192-57.07125 89.90779a180.05239 180.05239 0 0 0 32.1421 15.26906l34.22687-94.27657s8.02722-13.4701 23.09265-14.7551c0 0 17.96165-3.52851 31.42895 16.35185l34.83177 92.2972a180.14485 180.14485 0 0 0 30.37209-14.44324z"/><path d="m631.59807 303.92568c-67.43882-57.96925-80.28233-67.23809-80.28233-67.23809s-52.59849-42.65256-118.99059 6.09835c0 0-27.04568 19.7519-69.30263 59.8476a181.93185 181.93185 0 0 0 25.84012 23.70918c10.93493-15.80612 49.56525-65.27462 49.56525-65.27462s20.51847-26.3007 40.409-30.14827c0 0 40.0827-21.8136 85.6242 39.12548 0 0 8.69133 11.59616 41.77477 56.807a182.84206 182.84206 0 0 0 25.36225-22.92665z"/></g><path d="m0 393.20106c11.54573 9.30353 16.99577 14.11987 26.29755 26.30363v117.38082c0 3.52706-.32428 31.10406-6.41922 51.31358h41.37646c-6.09075-15.71368-8.011-40.087-8.011-57.08856v-76.96605l83.05838 106.15281c6.73376 8.33476 13.15437 17.64111 16.68142 27.9018h36.238c-2.88749-8.02-6.41023-18.28218-6.41023-48.42609v-104.87653c0-20.84769 2.245-31.43323 4.81054-41.69541h-37.52873c3.21091 11.2266 5.45879 20.2067 5.45879 56.13286v88.83364l-88.20143-111.93356c-15.39967-19.56564-17.32071-24.3762-20.84548-33.03294z"/><path d="m296.02116 452.53472 22.77076 52.27654h-47.46456zm2.245-60.29368h-1.59965l-75.3707 149.45935c-16.03567 32.067-21.8092 39.11973-28.22521 46.4987h47.46888c-.96152-15.3961 6.73363-32.07279 9.9402-39.446l9.946-21.16676h68.62984l11.22948 26.29927c7.05848 16.03131 8.01134 25.97587 8.01134 34.31349l46.5117-.32049c-7.38047-9.9402-16.35911-22.44735-30.47312-52.91761l-66.0687-142.72z"/><path d="m494.54912 400.25958c-9.30349-3.85341-21.8121-9.29922-39.7723-9.29922-31.75226 0-57.72381 25.65106-57.72381 56.439 0 29.82632 16.67528 40.09137 58.36625 66.0802 5.77938 3.84037 16.35911 12.50138 16.35911 25.9701 0 13.78779-12.191 27.26082-29.1824 27.26082-17.966 0-29.19107-13.473-38.16976-23.73086v41.36907c8.97869 2.57131 18.28073 5.13395 33.68115 5.13395 40.72949 0 66.06724-23.41177 66.06724-55.4788 0-18.93038-8.02435-34.32071-35.92616-50.35347-24.69959-14.11551-41.05289-23.7424-41.05289-42.026 0-15.39033 13.4759-26.28918 30.46876-26.28918 17.32208 0 28.2267 8.33475 36.88481 15.39324z"/><path d="m546.49941 427.84667c0-6.41891.64825-15.08139.97164-21.815 9.30063 1.28928 19.23793 2.56846 27.25933 11.22225 8.97578 9.30781 12.50143 21.493 12.50143 32.39042 0 34.96751-28.21225 40.41764-40.7324 42.34216zm-29.181 96.85363c0 32.07425-5.131 50.03008-8.65529 63.49879h45.5401c-3.85768-15.07556-7.70382-40.087-7.70382-55.16549v-31.75226l7.70382.32481c24.69382 1.92307 63.8236-11.22511 63.8236-53.88494 0-33.03286-26.62839-54.52015-65.74667-54.52015h-42.33925c2.886 7.05852 7.37752 17.64115 7.37752 52.27518v79.22406z"/><path d="m623.15942 393.20106c5.44722 16.68255 7.37029 36.23805 7.37029 49.392v95.5745c0 25.02154-4.171 38.80642-7.37029 50.03153h102.30958l14.101-32.39619c-41.36906 14.114-55.151 14.114-79.855 14.114v-71.51728c14.75512 1.28346 22.137 2.24356 44.25951 8.65811l16.68392-27.2651h-60.94343v-68.3108c20.52433-.63962 31.761 1.92593 53.8864 11.869l14.7493-30.14976z"/><path d="m781.59309 409.88361c39.12987 3.84468 48.43332 27.2521 48.43332 41.68814 0 30.14682-29.83205 38.49021-48.43332 43.61839zm-28.86336 127.96632c0 16.99723-.963 31.10838-5.13391 50.34916h39.45467c-5.134-20.84477-5.4574-26.93306-5.4574-42.01295v-48.10705c40.4061 53.55573 52.59713 67.66256 78.89049 90.12h26.633c-23.0986-27.5784-47.15577-56.76371-64.47489-87.22819 8.65956-4.81488 36.89058-20.53006 36.89058-52.291 0-26.2935-23.73949-56.43886-73.77394-55.47884l-38.16249.32344c2.24792 6.73508 5.13391 17.63825 5.13391 40.40609v103.91934z"/><path d="m990.37888 400.25958c-9.30495-3.85341-21.80633-9.29922-39.44313-9.29922-32.07425 0-57.73394 25.65106-57.73394 56.439 0 29.82632 16.35906 40.09137 58.0458 66.0802 5.77921 3.84037 16.35906 12.50138 16.35906 25.9701 0 13.78779-12.17939 27.26082-28.86336 27.26082-17.95869 0-29.50143-13.473-38.48166-23.73086v41.36907c9.29922 2.57131 18.27646 5.13395 33.67256 5.13395 40.7309 0 66.06579-23.41177 66.06579-55.4788 0-18.93038-7.69809-34.32071-35.91748-50.35347-24.369-14.11551-40.72949-23.7424-40.72949-42.026 0-15.39033 13.14668-26.28918 30.13386-26.28918 17.33067 0 28.23392 8.33475 36.892 15.39324v-30.46885z"/></g></svg>