<svg width="289.22" height="144.31" version="0.0" xmlns="http://www.w3.org/2000/svg">
<g transform="translate(-440.06 -398.08)">
<path d="m708.01 428.31-17.226-6e-3c-1.879 0-3.402 1.523-3.403 3.402l-1e-3 2.403h1.195c7.778 0 10.671 1.283 10.671 8.368v10.072l8.755 3e-3c1.879 1e-3 3.402-1.521 3.403-3.4l6e-3 -17.439c0-1.879-1.522-3.402-3.4-3.403m-94.014 27.075c-0.795-0.998-2.298-1.136-3.805-1.136h-1.13c-3.755 0-5.228 1.158-6.059 4.761l-10.434 43.37c-1.302 5.33-3.132 6.304-6.263 6.304-3.834 0-5.369-0.915-6.897-6.325l-11.818-43.37c-0.978-3.632-2.421-4.74-6.177-4.74h-1.006c-1.516 0-3.026 0.14-3.801 1.151-0.776 1.012-0.514 2.523-0.114 4.008l11.943 43.746c2.24 8.372 4.903 15.302 14.853 15.302 1.857 0 3.575-0.258 5.004-0.74-3.018 9.491-6.088 13.677-15.141 14.607-1.837 0.153-3.031 0.416-3.696 1.308-0.691 0.925-0.534 2.25-0.287 3.433l0.249 1.122c0.54 2.594 1.461 4.202 4.373 4.202 0.306 0 0.635-0.016 0.988-0.046 13.518-0.885 20.761-8.163 24.999-25.12l14.462-57.845c0.343-1.484 0.55-2.995-0.243-3.992m-72.742 33.321v8.755c0 7.137-2.646 11.269-16.172 11.269-8.936 0-13.28-3.234-13.28-9.886 0-7.295 4.358-10.138 15.543-10.138zm-16.172-36.298c-7.374 0-11.995 0.925-13.748 1.276-3.103 0.674-4.401 1.526-4.401 5.055v1.006c0 1.383 0.205 2.341 0.644 3.015 0.511 0.785 1.335 1.183 2.449 1.183 0.543 0 1.173-0.091 1.924-0.279 1.773-0.443 7.438-1.359 13.635-1.359 11.13 0 15.669 3.083 15.669 10.64v6.744h-14.035c-18.042 0-26.446 6.086-26.446 19.155 0 12.676 8.678 19.657 24.435 19.657 18.725 0 27.075-6.372 27.075-20.663v-24.893c0-13.819-8.897-20.537-27.201-20.537m-35.37 8.384c0 10.407-2.657 16.047-16.675 16.047h-21.578v-26.859c0-3.724 1.385-5.109 5.109-5.109h16.469c10.561 0 16.675 2.606 16.675 15.921zm-16.675-26.698h-18.607c-9.943 0-14.377 4.434-14.377 14.378v63.865c0 3.841 1.233 5.074 5.075 5.074h1.257c3.841 0 5.074-1.233 5.074-5.074v-24.847h21.578c19.158 0 28.081-8.484 28.081-26.698 0-18.215-8.923-26.698-28.081-26.698m236.65-23.782-8.689-3e-3c-0.948-1e-3 -1.716-0.769-1.716-1.717l3e-3 -8.797c1e-3 -0.948 0.77-1.715 1.717-1.715l8.689 3e-3c0.948 0 1.716 0.769 1.716 1.716l-3e-3 8.797c-1e-3 0.948-0.769 1.716-1.717 1.716m17.048 18.009-12.794-5e-3c-1.395 0-2.526-1.132-2.525-2.527l4e-3 -12.952c1e-3 -1.396 1.133-2.527 2.528-2.527l12.793 5e-3c1.396 0 2.527 1.132 2.527 2.527l-5e-3 12.953c0 1.395-1.132 2.526-2.528 2.526m-35.96 24.226c-1.879 0-3.401-1.523-3.4-3.402l5e-3 -15.036h-1.254c-7.778 0-10.671 1.284-10.671 8.369v16.579c-1e-3 0.035-5e-3 0.07-5e-3 0.105v3.634c-2e-3 0.126-0.01 0.243-0.01 0.373v23.165c0 2.829-0.545 5.082-1.67 6.832-2.121 3.268-6.32 4.753-13.038 4.762-6.715-9e-3 -10.913-1.493-13.034-4.758-1.128-1.751-1.674-4.005-1.674-6.836v-23.165c0-0.13-7e-3 -0.247-9e-3 -0.373v-3.634c0-0.035-4e-3 -0.07-5e-3 -0.105v-16.579c0-7.085-2.893-8.369-10.671-8.369h-2.449c-7.779 0-10.671 1.284-10.671 8.369v43.856c0 7.055 1.591 13.028 4.665 17.843 5.937 9.33 17.438 14.299 33.788 14.299 0.02 0 0.04-1e-3 0.06-1e-3 0.021 0 0.04 1e-3 0.061 1e-3 16.35 0 27.851-4.969 33.788-14.299 3.074-4.815 4.665-10.788 4.665-17.843v-33.784l-8.471-3e-3" fill="#A6C307"/>
</g>
</svg>
