<?xml version="1.0" encoding="UTF-8"?>
<!-- Generator: Adobe Illustrator 15.0.0, SVG Export Plug-In . SVG Version: 6.00 Build 0)  -->
<!DOCTYPE svg PUBLIC "-//W3C//DTD SVG 1.1//EN" "http://www.w3.org/Graphics/SVG/1.1/DTD/svg11.dtd">
<svg version="1.1" id="Layer_1" xmlns="http://www.w3.org/2000/svg" xmlns:xlink="http://www.w3.org/1999/xlink" x="0px" y="0px" width="736px" height="150px" viewBox="0 0 736 150" enable-background="new 0 0 736 150" xml:space="preserve">
<g>
	<path fill="#1079BF" d="M727.141,40.482c19.062,36.717,4.752,81.934-31.964,100.998c-36.713,19.062-81.934,4.753-100.996-31.963   c-19.062-36.718-4.753-81.934,31.962-100.996C662.862-10.543,708.075,3.768,727.141,40.482"/>
	<path fill="#FFFFFF" d="M623.834,79.053l6.436,0.657c-0.831,4.159-2.443,7.237-4.829,9.227c-2.384,1.992-5.266,2.988-8.636,2.988   c-4.574,0-8.096-1.668-10.556-5.008c-2.463-3.338-3.695-7.426-3.695-12.265c0-4.989,1.35-9.116,4.041-12.376   c2.692-3.263,6.282-4.893,10.77-4.893c7.227,0,11.526,3.807,12.905,11.425l-6.436,0.887c-0.568-4.116-2.597-6.17-6.073-6.17   c-2.539,0-4.386,1.109-5.537,3.331c-1.148,2.221-1.724,4.909-1.724,8.06c0,3.35,0.6,5.935,1.79,7.75   c1.195,1.817,2.863,2.725,5.012,2.725C620.581,85.39,622.762,83.278,623.834,79.053"/>
	<path fill="#FFFFFF" d="M649.139,91.925c-4.898,0-8.648-1.761-11.227-5.284c-2.582-3.526-3.875-7.563-3.875-12.119   c0-4.904,1.429-8.985,4.287-12.246c2.853-3.262,6.627-4.893,11.311-4.893c4.445,0,8.09,1.588,10.951,4.759   c2.857,3.176,4.283,7.302,4.283,12.38c0,5.234-1.483,9.443-4.447,12.625C657.455,90.332,653.694,91.925,649.139,91.925    M649.406,85.754c5.032,0,7.549-3.756,7.549-11.264c0-3.395-0.602-6.07-1.806-8.028c-1.2-1.961-3.056-2.938-5.551-2.938   c-2.581,0-4.5,1.01-5.746,3.036c-1.244,2.024-1.871,4.711-1.871,8.06c0,3.611,0.664,6.373,1.987,8.274   C645.295,84.799,647.107,85.754,649.406,85.754"/>
	<path fill="#FFFFFF" d="M718.77,91.237h-7.853V70.582c0-4.29-1.902-6.434-5.711-6.434c-2.213,0-3.982,0.808-5.302,2.429   c-1.325,1.619-1.988,4.04-1.988,7.256v17.404h-7.945V70.582c0-4.358-1.789-6.533-5.354-6.533c-2.168,0-3.989,0.875-5.467,2.625   c-1.476,1.752-2.215,4.137-2.215,7.159v17.404h-7.717V58.071h7.255v7.059c2.362-5.165,6.051-7.747,11.066-7.747   c4.883,0,8.053,2.582,9.524,7.747c2.668-5.165,6.356-7.747,11.062-7.747c3.199,0,5.77,0.997,7.718,2.986   c1.948,1.994,2.926,4.467,2.926,7.424V91.237z"/>
	<path fill="#4D4D4F" d="M551.246,13.323l-0.055,32.927h15.536v20.06h-15.449v34.785c0,3.68,0.299,6.115,0.9,7.306   c0.919,1.84,2.532,2.759,4.833,2.759c2.07,0,4.97-0.702,8.699-2.11l6.747,21.68c-6.955,1.788-18.117,3.852-24.146,3.852   c-6.998,0-12.152-1.056-15.465-3.167c-3.315-2.112-5.765-5.32-7.354-9.624c-1.586-4.304-2.383-11.277-2.383-20.914l0.002-34.576   h-10.389V46.254l10.378-0.006l0.002-32.881L551.246,13.323z"/>
	<path fill="#4D4D4F" d="M38.885,13.367v32.882h15.536V66.31H38.974v34.786c0,3.679,0.299,6.113,0.899,7.304   c0.92,1.841,2.529,2.76,4.831,2.76c2.071,0,4.972-0.702,8.702-2.109l6.742,21.679c-6.95,1.789-18.113,3.852-24.141,3.852   c-6.998,0-12.151-1.057-15.468-3.168c-3.313-2.11-5.762-5.318-7.351-9.624c-1.589-4.304-2.382-11.275-2.382-20.913l0.002-34.576   H0.418L0.417,46.253l10.379-0.006l0.004-32.88H38.885z"/>
	<path fill="#4D4D4F" d="M119.489,132.699c-1.06-2.221-1.772-3.882-2.096-5.05c-0.325-1.166-0.647-2.992-0.974-5.485   c-3.676,4.178-7.332,7.163-10.968,8.959c-4.969,2.391-10.741,3.59-17.323,3.599c-8.747,0.012-15.389-2.365-19.927-7.133   c-4.539-4.765-6.815-10.644-6.823-17.636c-0.009-6.561,1.617-11.955,4.879-16.189c3.264-4.235,9.29-7.386,18.08-9.457   c10.536-2.507,17.489-4.213,20.66-5.077c4.669-1.27,7.411-1.428,9.484-4.685c2.182-3.429-0.255-6.575-1.782-8.003   c-1.582-1.475-4.016-2.434-7.608-2.432c-4.602,0.008-7.587,0.535-9.819,2.357c-3.939,3.218-2.609,7.846-6.51,7.85   c-6.442,0.01-25.221,0.051-25.221,0.051c1.004-5.53,1.236-11.436,4.363-16.349c1.989-3.123,4.654-5.928,8.241-8.263   c2.576-1.685,6.115-2.992,10.629-3.916c4.508-0.929,9.387-1.397,14.635-1.402c8.421-0.012,15.188,0.537,20.298,1.64   c5.113,1.107,9.372,3.419,12.781,6.937c2.397,2.437,4.289,5.891,5.674,10.36c1.39,4.472,2.083,8.741,2.091,12.806v56.52    M114.795,91.749c-3.867,1.631-7.892,3.075-12.08,4.326c-5.707,1.797-9.315,3.562-10.833,5.301   c-1.56,1.791-2.341,3.823-2.338,6.103c0.002,2.603,0.775,4.729,2.318,6.378c1.545,1.655,3.813,2.478,6.806,2.475   c3.131-0.006,6.042-0.902,8.731-2.694c2.689-1.794,4.597-3.978,5.722-6.556c1.124-2.574,1.682-5.925,1.678-10.046L114.795,91.749z"/>
	<path fill="#4D4D4F" d="M370.182,132.699c-1.061-2.221-1.775-3.882-2.097-5.05c-0.326-1.166-0.651-2.992-0.977-5.485   c-3.677,4.178-7.329,7.163-10.966,8.959c-4.968,2.391-10.743,3.59-17.324,3.599c-8.748,0.012-15.39-2.365-19.925-7.133   c-4.542-4.765-6.814-10.644-6.825-17.636c-0.009-6.561,1.616-11.955,4.879-16.189c3.267-4.235,9.29-7.386,18.08-9.457   c10.536-2.507,17.489-4.213,20.658-5.077c4.672-1.27,7.413-1.428,9.485-4.685c2.182-3.429-0.254-6.575-1.783-8.003   c-1.581-1.475-4.014-2.434-7.605-2.432c-4.603,0.008-7.587,0.535-9.819,2.357c-3.937,3.218-2.608,7.846-6.509,7.85   c-6.443,0.01-25.223,0.051-25.223,0.051c1.007-5.53,1.237-11.436,4.365-16.349c1.99-3.123,4.654-5.928,8.24-8.263   c2.575-1.685,6.117-2.992,10.629-3.916c4.507-0.929,9.388-1.397,14.634-1.402c8.424-0.012,15.188,0.537,20.302,1.64   c5.109,1.107,9.37,3.419,12.78,6.937c2.396,2.437,4.288,5.891,5.675,10.36c1.39,4.472,2.081,8.741,2.088,12.806l-0.017,56.49    M365.486,91.749c-3.867,1.631-7.894,3.075-12.08,4.326c-5.706,1.797-9.316,3.562-10.833,5.301   c-1.562,1.791-2.342,3.823-2.339,6.103c0.003,2.603,0.775,4.729,2.32,6.378c1.544,1.655,3.811,2.478,6.804,2.475   c3.13-0.006,6.042-0.902,8.731-2.694c2.688-1.794,4.596-3.978,5.719-6.556c1.126-2.574,1.685-5.925,1.684-10.046L365.486,91.749z"/>
	<polygon fill="#4D4D4F" points="147.542,13.367 172.195,13.367 172.195,81.722 204.123,46.303 233.42,46.303 203.996,78.189    233.08,132.759 204.171,132.759 186.211,96.614 171.592,112.649 171.592,132.759 147.542,132.759  "/>
	<path fill="#4D4D4F" d="M307.906,108.149c-3.577,12.046-9.823,17.141-15.805,20.908c-5.984,3.768-14.568,5.652-25.752,5.652   c-9.712,0-17.353-1.613-22.923-4.839c-5.569-3.224-10.183-8.347-13.843-15.369c-3.659-7.021-5.489-15.276-5.489-24.763   c0-13.5,3.671-24.425,11.012-32.773c7.341-8.351,17.479-12.526,30.415-12.526c10.493,0,18.778,1.872,24.853,5.613   c6.079,3.74,10.703,9.161,13.881,16.263c3.175,7.105,4.762,16.347,4.762,27.733v3.739h-56.338   c0.506,5.314,1.726,9.271,3.659,11.875c2.714,3.74,5.707,6.496,10.08,6.468c9.862-0.068,13.578-3.844,15.331-9.149 M280.434,80.761   c-0.553-6.394-2.015-9.809-4.384-12.574c-2.372-2.765-5.49-4.147-9.357-4.147c-4.465,0-8.032,2.086-10.702,6.261   c-1.702,2.603-2.785,5.312-3.245,10.46H280.434z"/>
	<rect x="398.344" y="13.348" fill="#4D4D4F" width="25.445" height="119.119"/>
	<path fill="#4D4D4F" d="M429.172,89.819c0-13.175,3.776-24.033,11.324-32.57c7.549-8.539,17.744-12.809,30.586-12.809   c14.684,0,25.776,5.016,33.281,15.046c6.028,8.077,9.041,18.026,9.041,29.843c0,13.286-3.738,24.169-11.218,32.653   c-7.48,8.486-17.825,12.728-31.032,12.728c-11.787,0-21.313-3.524-28.586-10.571C433.639,115.409,429.172,103.97,429.172,89.819    M457.344,89.738c0,7.698,1.322,18.063,3.971,21.75c2.646,3.688,5.972,5.529,9.974,5.529c4.052,0,7.376-1.816,9.979-5.447   c2.599-3.632,3.898-14.134,3.898-22.158c0-7.482-1.311-15.041-3.932-18.699c-2.624-3.659-5.869-5.49-9.737-5.49   c-4.095,0-7.477,1.856-10.148,5.57C458.678,74.508,457.344,82.147,457.344,89.738"/>
</g>
</svg>