<?xml version="1.0" encoding="UTF-8" standalone="no"?>
<!-- Created with Inkscape (http://www.inkscape.org/) -->
<svg
   xmlns:svg="http://www.w3.org/2000/svg"
   xmlns="http://www.w3.org/2000/svg"
   version="1.0"
   width="250"
   height="55"
   id="svg2">
  <defs
     id="defs4" />
  <g
     transform="translate(-182.578,-514.8209)"
     id="layer1">
    <g
       transform="matrix(2.1423054,0,0,2.1423054,184.3056,517.08031)"
       id="g2422">
      <polygon
         points="59.011,10.787 54.164,0.295 47.904,0.295 52.914,10.787 59.011,10.787 "
         id="polygon2384"
         style="fill:#e2001a" />
      <polygon
         points="36.264,10.787 38.118,5.909 40.155,10.787 46.012,10.787 41.354,0.295 34.699,0.295 30.467,10.787 36.264,10.787 "
         id="polygon2386"
         style="fill:#e2001a" />
      <rect
         width="5.7459998"
         height="10.493"
         x="16.844"
         y="0.29499999"
         id="rect2388"
         style="fill:#e2001a" />
      <rect
         width="5.743"
         height="10.493"
         x="0"
         y="0.29499999"
         id="rect2390"
         style="fill:#e2001a" />
      <path
         d="M 111.269,10.787 C 107.816,8.739 103.12,8.32 103.12,6.117 C 103.12,4.965 104.432,4.22 106.498,4.22 C 108.459,4.22 110.456,4.797 113.794,6.284 L 113.794,1.786 C 110.889,0.537 108.563,0 105.994,0 C 100.647,0 97.202,2.631 97.202,6.622 C 97.202,8.415 97.749,9.746 98.608,10.787 L 111.269,10.787 L 111.269,10.787 z"
         id="path2392"
         style="fill:#e2001a" />
      <polygon
         points="67.43,10.787 72.213,0.295 66.029,0.295 61.417,10.787 67.43,10.787 "
         id="polygon2394"
         style="fill:#e2001a" />
      <polygon
         points="80.299,10.787 82.156,5.909 84.19,10.787 90.044,10.787 85.385,0.295 78.728,0.295 74.491,10.787 80.299,10.787 "
         id="polygon2396"
         style="fill:#e2001a" />
      <polygon
         points="73.376,13.568 69.429,23.359 75.516,23.359 79.245,13.568 73.376,13.568 "
         id="polygon2398"
         style="fill:#e2001a" />
      <polygon
         points="85.346,13.568 89.436,23.359 95.625,23.359 91.279,13.568 85.346,13.568 "
         id="polygon2400"
         style="fill:#e2001a" />
      <polygon
         points="54.24,13.568 59.065,23.654 61.562,23.654 66.171,13.568 54.24,13.568 "
         id="polygon2402"
         style="fill:#e2001a" />
      <path
         d="M 102.862,13.568 C 105.861,14.785 108.93,15.368 108.93,17.3 C 108.93,18.658 107.743,19.436 105.549,19.436 C 103.01,19.436 100.986,18.659 97.671,16.46 L 97.671,21.432 C 99.973,22.609 101.97,23.654 105.993,23.654 C 111.126,23.654 114.844,21.087 114.844,16.666 C 114.844,15.437 114.574,14.42 114.108,13.568 L 102.862,13.568 L 102.862,13.568 z"
         id="path2404"
         style="fill:#e2001a" />
      <rect
         width="5.7459998"
         height="9.7910004"
         x="16.844"
         y="13.567"
         id="rect2406"
         style="fill:#e2001a" />
      <rect
         width="5.744"
         height="9.7910004"
         x="0.0020000001"
         y="13.567"
         id="rect2408"
         style="fill:#e2001a" />
      <polygon
         points="29.344,13.568 25.394,23.359 31.482,23.359 35.208,13.568 29.344,13.568 "
         id="polygon2410"
         style="fill:#e2001a" />
      <polygon
         points="41.318,13.568 45.41,23.359 51.595,23.359 47.249,13.568 41.318,13.568 "
         id="polygon2412"
         style="fill:#e2001a" />
    </g>
  </g>
</svg>
