<?xml version="1.0" encoding="utf-8"?>
<!DOCTYPE svg PUBLIC "-//W3C//DTD SVG 1.1//EN" "http://www.w3.org/Graphics/SVG/1.1/DTD/svg11.dtd">
<svg class="" viewBox="0 0 212 99.8" y="0" x="0" version="1.1" xmlns="http://www.w3.org/2000/svg">
 <path d="M4.1 72.4c8.8 6.8 17.1 10 25 10 11.8 0 16.2-5 16.2-11.2 0-4.4-2.6-8.2-13.8-15.9C22.4 49.2 13 40 13 27.7 13 13.3 23.3 0 45.9 0c8.8 0 20 3.2 28.3 8.2l-4.1 17.1c-8-5.6-16.2-8-23-8 -8.5 0-13.8 3-13.8 9.4 0 4.7 4.1 8.5 13.8 15 12.1 8.5 19.1 16.8 19.1 28.3 0 16.2-13.2 29.7-35.3 29.7 -12.4 0-23-3.5-30.9-9.4L4.1 72.4M109.2 99.8c-18.8 0-36.5-14.4-36.5-36.5 0-20.6 14.1-37.4 35.9-37.4 18 0 31.5 15 31.5 26.5l-42.7 25c3.5 4.1 9.4 5.3 15 5.3 5.3 0 13.8-2.7 24.7-10.6l-3.8 20.6C126.6 97.5 117.8 99.8 109.2 99.8zM119.3 47.7c-2.4-3.5-6.5-5.3-11.8-5.3 -7.1 0-16.8 5.6-16.8 17.7 0 1.2 0 2.6 0.3 4.1L119.3 47.7zM181.1 99.8c-18.8 0-36.5-14.4-36.5-36.5 0-20.6 14.1-37.4 35.9-37.4 18 0 31.5 15 31.5 26.5l-42.7 25c3.5 4.1 9.4 5.3 15 5.3 5.3 0 13.8-2.7 24.7-10.6l-3.8 20.6C198.5 97.5 189.6 99.8 181.1 99.8zM191.1 47.7c-2.4-3.5-6.5-5.3-11.8-5.3 -7.1 0-16.8 5.6-16.8 17.7 0 1.2 0 2.6 0.3 4.1L191.1 47.7z"></path>
</svg>