<?xml version="1.0" encoding="utf-8"?>
<!-- Generator: Adobe Illustrator 14.0.0, SVG Export Plug-In . SVG Version: 6.00 Build 43363)  -->
<!DOCTYPE svg PUBLIC "-//W3C//DTD SVG 1.1//EN" "http://www.w3.org/Graphics/SVG/1.1/DTD/svg11.dtd">
<svg version="1.1" id="Calque_1" xmlns="http://www.w3.org/2000/svg" xmlns:xlink="http://www.w3.org/1999/xlink" x="0px" y="0px"
	 width="860.95px" height="150px" viewBox="0 0 860.95 150" enable-background="new 0 0 860.95 150" xml:space="preserve">
<rect x="30.975" y="17.5" fill="#FFFFFF" stroke="#000000" stroke-width="0.9867" width="808.002" height="107"/>
<path fill="#1A171B" d="M270.165,52.706h-4.829V99.34h4.829c14.279,0,23.713-9.102,23.713-23.291
	C293.878,61.816,284.444,52.706,270.165,52.706 M534.213,86.703h17.996l-8.85-26.557L534.213,86.703z M396.672,52.94
	c-6.306,0-11.841,2.324-16.536,6.89c-4.543,4.529-6.861,9.886-6.861,16.219c0,6.514,2.212,12.217,6.756,16.746
	c4.559,4.559,10.111,6.906,16.642,6.906c6.573,0,11.961-2.348,16.579-6.906c4.545-4.529,6.877-10.096,6.877-16.543
	c0-6.537-2.332-11.992-6.877-16.535C408.633,55.159,403.11,52.94,396.672,52.94 M712.928,86.703h17.967l-8.879-26.557
	L712.928,86.703z M817.348,117.697h-47.666v-83.31h21.605V99.34h26.061V117.697L817.348,117.697z M742.239,117.697l-5.479-14.475
	h-29.822l-5.654,14.475h-22.93l32.018-83.31h23.561l31.416,83.31H742.239z M674.081,117.697h-21.666l-39.781-51v51h-21.666v-83.31
	h21.666l39.781,50.958V34.387h21.666V117.697z M563.522,117.697l-5.416-14.475h-29.91l-5.688,14.475h-22.842l32.02-83.31h23.5
	l31.447,83.31H563.522z M496.838,113.934c0,1.221-0.963,2.197-3.037,2.98c-5.961,2-11.346,2.979-16.492,2.979
	c-7.645,0-14.984-1.867-22.088-5.746c-7.674-4.305-13.48-10.172-17.184-17.213c-2.158,4.152-5.031,7.943-8.657,11.283
	c-8.906,8.352-19.831,12.488-32.709,12.488c-13.001,0-23.954-4.242-32.861-12.578c-8.771-8.426-13.194-18.746-13.194-31.084
	c0-9.435,2.422-17.882,7.296-25.353c4.92-7.425,11.707-12.984,20.237-16.437c5.521-2.205,11.555-3.311,18.115-3.311
	c13.451,0,24.525,4.235,33.311,12.556c3.627,3.446,6.479,7.35,8.645,11.6l2.105-3.807c4.906-7.38,11.436-12.804,19.682-16.257
	c5.326-2.294,10.953-3.445,17.092-3.445c4.123,0,8.578,0.676,13.33,1.888l3.551,1.234l1.264,0.557l1.504,2.234V59.92l-0.48,0.798
	l-1.021-0.572c-1.688-1.692-4.092-3.002-7.402-4.077c-3.43-1.249-6.529-1.807-9.178-1.807c-9.689,0-17.785,5.131-21.426,13.654
	c-1.234,2.799-1.775,5.793-1.775,9.003c0,6.336,2.316,11.437,7.012,15.438c4.303,3.67,9.66,5.552,15.979,5.552
	c7.225,0,12.791-1.972,16.852-6.093l0.963-0.692l0.572,2.137v20.673H496.838z M344.357,117.697H322.72v-83.31h21.637V117.697z
	 M304.335,105.359c-8.125,8.215-17.665,12.338-28.798,12.338H243.64v-83.31h31.897c11.014,0,20.553,4.221,28.633,12.541
	c8.214,8.336,12.353,18.01,12.353,29.121C316.522,87.242,312.384,97.068,304.335,105.359 M237.14,82.475
	c0,5.791-0.467,10.32-1.445,13.769c-1.233,4.332-3.445,8.229-6.695,11.885c-7.011,7.867-16.641,11.767-28.768,11.767
	c-5.898,0-11.39-0.979-16.415-2.873c-11.555-4.424-17.8-12.761-19.003-26.181c-0.196-2.483-0.346-5.235-0.346-8.364V34.387h21.65
	v45.091c0,5.207,0.166,8.428,0.421,9.78l1.926,5.115c2.483,4.362,6.44,6.438,12.142,6.438c5.883,0,10.051-2.256,12.609-6.787
	c1.475-2.662,2.242-7.537,2.242-14.549V34.387h21.682V82.475L237.14,82.475z M159.157,52.706h-18.025v64.992H119.48V52.706h-17.528
	V34.387h57.205V52.706L159.157,52.706z M98.265,105.268c-2.527,4.847-6.666,8.666-12.533,11.301
	c-5.025,2.211-10.683,3.324-16.776,3.324c-6.123,0-12.337-1.324-18.882-3.985c-3.25-1.324-5.808-2.543-7.448-3.791l-2.618-1.73
	l9.133-17.362c6.56,5.717,12.909,8.455,19.153,8.455c2.964,0,5.312-0.662,7.177-1.865c2.137-1.475,3.281-3.582,3.281-6.35
	c0-2.347-1.144-4.349-3.476-6.021c-1.099-0.752-2.784-1.429-5.116-2.211c-0.782-0.228-2.211-0.662-4.423-1.31l-4.453-1.34
	c-2.738-0.797-5.462-1.91-8.23-3.385c-6.515-3.303-9.765-9.525-9.765-18.521c0-8.434,2.663-15.211,7.929-20.327
	c5.206-5.207,12.066-7.779,20.402-7.779c8.982,0,17.859,2.234,26.421,6.794l-8.622,16.904c-4.573-3.777-9.253-5.703-14.143-5.703
	c-2.332,0-4.424,0.587-6.244,1.791c-2.092,1.338-3.101,3.107-3.101,5.432c0,2.332,1.58,4.363,4.575,5.777
	c0.857,0.436,4.303,1.67,10.457,3.566c6.726,2.105,11.841,4.867,15.122,8.335c3.535,3.731,5.295,8.756,5.295,14.864
	C101.379,96.242,100.402,101.236,98.265,105.268 M46.899,0C20.974,0,0,20.966,0,46.883V150h814.098
	c25.85,0,46.854-20.988,46.854-46.898V0H46.899z"/>
</svg>
