<?xml version="1.0" encoding="utf-8"?>
<!-- Generator: Adobe Illustrator 13.0.0, SVG Export Plug-In  -->
<!DOCTYPE svg PUBLIC "-//W3C//DTD SVG 1.1//EN" "http://www.w3.org/Graphics/SVG/1.1/DTD/svg11.dtd" [
	<!ENTITY ns_flows "http://ns.adobe.com/Flows/1.0/">
]>
<svg version="1.1"
	 xmlns="http://www.w3.org/2000/svg" xmlns:xlink="http://www.w3.org/1999/xlink" xmlns:a="http://ns.adobe.com/AdobeSVGViewerExtensions/3.0/"
	 x="0px" y="0px" width="172px" height="37px" viewBox="0 -0.5 172 37" enable-background="new 0 -0.5 172 37" xml:space="preserve"
	>
<defs>
</defs>
<rect x="32.053" y="14.772" fill="#7E0C6E" width="6.281" height="21.079"/>
<rect x="32.059" y="6.075" fill="#7E0C6E" width="6.271" height="5.748"/>
<rect x="164.999" y="14.772" fill="#7E0C6E" width="6.279" height="21.079"/>
<rect x="165.004" y="6.075" fill="#7E0C6E" width="6.271" height="5.748"/>
<path fill="#7E0C6E" d="M115.823,19.402c3.955,0,6.756,1.728,6.666,5.353v11.097h6.279V24.45c0.047-2.566-0.713-4.552-2.395-6.418
	c-2.252-2.498-5.799-3.898-10.551-3.898c-4.748,0-8.297,1.4-10.547,3.898c-1.684,1.866-2.443,3.852-2.396,6.418v11.401h6.279V24.754
	C109.069,21.129,111.87,19.402,115.823,19.402"/>
<polygon fill="#7E0C6E" points="22.391,14.771 15.01,30.308 7.372,14.771 0.309,14.771 11.167,35.851 18.819,35.851 29.385,14.771 
	"/>
<polygon fill="#7E0C6E" points="63.256,14.771 55.875,30.308 48.235,14.771 41.172,14.771 52.03,35.851 59.684,35.851 
	70.249,14.771 "/>
<path fill="#7E0C6E" d="M84.897,19.004c3.719,0,5.797,1.375,6.541,2.906l-14.814,2.828c0.104-1.142,0.641-2.279,1.383-3.068
	C79.569,20.002,81.854,19.004,84.897,19.004 M81.452,30.349c-0.643-0.117-1.939-0.418-3.033-1.293L98.77,25.04
	c-0.033-0.94-0.215-1.871-0.455-2.779c-0.377-1.405-2.826-8.396-14.115-8.119c-4.262,0.105-7.787,1.515-10.109,3.679
	c-2.16,2.016-3.453,4.645-3.453,7.695c0,2.995,1.469,5.756,4.174,7.721c2.545,1.851,5.885,2.615,10.447,2.615h11.748v-5.185H85.727
	C84.01,30.667,82.551,30.545,81.452,30.349"/>
<path fill="#7E0C6E" d="M153.852,24.404c-0.051,3.274-1.57,6.576-7.619,6.576c-2.572,0-4.645-0.625-6.051-2.213
	c-0.777-0.879-1.172-1.86-1.203-2.906c-0.053-1.762,0.643-3.239,1.822-4.274c1.477-1.301,3.746-2.033,6.227-2.014l6.824,0.008
	V24.404z M153.852,0.532V14.34l-6.822-0.024c-2.211,0.002-7.746,0.379-11.385,3.84c-1.971,1.877-2.971,4.364-2.973,7.387
	c-0.002,2.601,0.945,4.965,2.74,6.84c2.57,2.679,6.266,4.097,10.688,4.097c4.617,0,8.369-1.19,10.842-3.601
	c2.189-2.131,3.189-5.114,3.189-8.569V0.532H153.852"/>
<rect fill-rule="evenodd" clip-rule="evenodd" fill="none" width="171.333" height="36.667"/>
</svg>
