<svg xmlns="http://www.w3.org/2000/svg" width="240" height="234"><radialGradient id="a" cx="93.66" cy="254" r="383.64" gradientTransform="matrix(1 0 0 -1 0 236)" gradientUnits="userSpaceOnUse"><stop offset="0" stop-color="#ec202b"/><stop offset=".146" stop-color="#e2202a"/><stop offset=".399" stop-color="#c51e26"/><stop offset=".727" stop-color="#981c20"/><stop offset="1" stop-color="#6d1a1b"/></radialGradient><path fill="url(#a)" d="M0 0h240v234H0z"/><linearGradient id="b" x1="28.872" x2="214.065" y1="116.908" y2="116.908" gradientUnits="userSpaceOnUse"><stop offset=".14" stop-color="#fff"/><stop offset="1" stop-color="#eaecea"/></linearGradient><path fill="url(#b)" d="M145.4 50.8c36.3 0 65.8 29.8 65.8 66.1S181.7 183 145.4 183H86.9c-30.4 0-55.1-25-55.1-55.4s24.7-55.3 55.1-55.3c3.2 0 6.3.2 9.3.7 12.1-13.6 29.6-22.2 49.2-22.2m0-2.9c-10 0-19.6 2.1-28.6 6.2-8.2 3.8-15.5 9-21.7 15.7-2.7-.4-5.5-.6-8.3-.6-7.8 0-15.4 1.5-22.6 4.6-6.9 2.9-13.1 7.1-18.4 12.5-5.3 5.3-9.5 11.5-12.4 18.5-3 7.2-4.6 14.8-4.6 22.6s1.5 15.4 4.6 22.6c2.9 6.9 7.1 13.1 12.4 18.5 5.3 5.3 11.5 9.8 18.4 12.7 7.2 3 14.8 4.8 22.6 4.8h58.5c9.3 0 18.3-2.1 26.7-5.7 8.2-3.5 15.5-8.6 21.8-14.9 6.3-6.3 11.3-13.7 14.7-21.9 3.6-8.5 5.4-17.5 5.4-26.8s-1.8-18.3-5.4-26.8c-3.5-8.2-8.4-15.5-14.7-21.9-6.3-6.3-13.6-11.3-21.8-14.7-8.3-3.6-17.3-5.4-26.6-5.4zm-66.2 81.2c-1.9-2-1.9-5.2.1-7.1 2-1.9 5.2-1.9 7.1.1l26.7 26.7c8.3 8.3 19.7 13.4 32.3 13.4 25.2 0 45.6-20.4 45.6-45.6S170.6 71 145.4 71c-10.7 0-20.6 3.7-28.4 9.9-3-2-6.2-3.6-9.6-5 10-9.3 23.3-15 38-15 30.8 0 55.7 24.9 55.7 55.7s-24.9 55.7-55.7 55.7c-15.4 0-29.3-6.2-39.4-16.3l-26.8-26.9zm30.7-28.2c-6.1-5.4-14.2-8.6-23-8.6-19.3 0-35 15.6-35 34.9s15.7 35 35 35l11.2.3c3.7 3.8 7.9 7.5 12.4 10.4H86.9c-24.9 0-45.1-20.4-45.1-45.3s20.2-45.2 45-45.2c11.6 0 22.2 4.3 30.2 11.5l20.3 20.8c1.9 2 1.9 5.2-.1 7.1s-5.2 1.9-7.1-.1l-20.2-20.8z"/></svg>