<?xml version="1.0" encoding="UTF-8" standalone="no"?>
<svg
   xmlns:dc="http://purl.org/dc/elements/1.1/"
   xmlns:cc="http://creativecommons.org/ns#"
   xmlns:rdf="http://www.w3.org/1999/02/22-rdf-syntax-ns#"
   xmlns:svg="http://www.w3.org/2000/svg"
   xmlns="http://www.w3.org/2000/svg"
   viewBox="0 0 1534.6667 334.66666"
   height="334.66666"
   width="1534.6667"
   xml:space="preserve"
   id="svg2"
   version="1.1"><metadata
     id="metadata8"><rdf:RDF><cc:Work
         rdf:about=""><dc:format>image/svg+xml</dc:format><dc:type
           rdf:resource="http://purl.org/dc/dcmitype/StillImage" /></cc:Work></rdf:RDF></metadata><defs
     id="defs6" /><g
     transform="matrix(1.3333333,0,0,-1.3333333,0,334.66667)"
     id="g10"><g
       transform="scale(0.1)"
       id="g12"><path
         id="path14"
         style="fill:#2b2d32;fill-opacity:1;fill-rule:nonzero;stroke:none"
         d="M 0,683.809 C 0,562.68 98.4414,464.238 227.148,464.238 H 1135.66 V 691.391 H 227.148 V 918.5 h 893.362 c 121.13,0 242.26,98.44 242.26,219.57 v -7.58 446.72 c 0,121.13 -113.55,242.27 -242.26,242.27 H 227.148 C 105.98,1819.48 0,1698.34 0,1577.21 Z M 1135.66,1145.65 H 227.148 v 454.26 h 908.512 z m 3035.94,681.37 h -900.94 c -121.13,0 -242.26,-121.14 -242.26,-242.27 v -900.941 7.582 c 0,-121.129 121.13,-227.153 242.26,-227.153 h 893.36 V 237.129 H 3255.51 V 9.98047 h 916.09 c 121.13,0 219.57,106.01953 219.57,227.14853 V 1584.75 c 0,121.13 -98.44,242.27 -219.57,242.27 z m -7.58,-1135.629 h -908.51 v 908.519 h 908.51 z M 2422.7,1827.02 h -673.79 c -121.14,0 -234.73,-121.14 -234.73,-242.27 V 464.238 h 227.15 V 1599.91 h 681.37 c 121.13,0 227.14,-113.56 227.14,-242.27 V 464.238 h 227.11 v 893.402 c 0,249.84 -204.41,469.38 -454.25,469.38 z M 5678.24,691.391 h -908.51 v 673.829 c 0,121.13 121.13,242.26 249.84,242.26 h 658.67 V 471.82 h 227.11 v 1112.93 c 0,121.13 -90.86,242.27 -211.99,242.27 h -673.79 c -249.84,0 -476.99,-219.54 -476.99,-469.38 V 683.809 c 0,-121.129 128.71,-219.571 249.84,-219.571 h 393.71 c 204.42,0 416.41,83.282 492.11,227.153 V 464.238 M 10826.5,2508.42 h -227.1 V 464.238 h 227.1 V 1599.91 h 681.4 v 227.11 h -681.4 M 7646.68,683.809 c 0,-121.129 68.12,-219.571 189.3,-219.571 h 870.66 V 237.129 H 7873.83 V 9.98047 h 863.08 c 121.14,0 196.84,106.01953 196.84,234.73053 v -7.582 1347.621 c 0,121.13 -75.7,242.27 -196.84,242.27 h -900.93 c -121.18,0 -189.3,-121.14 -189.3,-242.27 z m 1059.96,7.582 h -832.81 v 908.519 h 832.81 z M 7192.42,1827.02 h -878.24 c -121.13,0 -257.38,-121.14 -257.38,-242.27 v -900.941 7.582 c 0,-121.129 136.25,-227.153 257.38,-227.153 H 7419.57 V 2508.42 h -227.15 z m 0,-1135.629 h -908.51 v 908.519 h 908.51 z m 1892.74,-7.582 c 0,-121.129 128.71,-219.571 249.84,-219.571 h 885.8 V 691.391 H 9312.3 V 918.5 h 923.7 c 121.1,0 211.9,98.44 211.9,219.57 v -7.58 446.72 c 0,121.13 -90.8,242.27 -211.9,242.27 h -901 c -121.13,0 -249.84,-121.14 -249.84,-242.27 z m 1135.64,461.841 h -908.5 v 454.26 h 908.5 z" /></g></g></svg>