<?xml version="1.0" encoding="UTF-8" standalone="no"?>
<!-- Created with Inkscape (http://www.inkscape.org/) -->

<svg
   xmlns:dc="http://purl.org/dc/elements/1.1/"
   xmlns:cc="http://creativecommons.org/ns#"
   xmlns:rdf="http://www.w3.org/1999/02/22-rdf-syntax-ns#"
   xmlns:svg="http://www.w3.org/2000/svg"
   xmlns="http://www.w3.org/2000/svg"
   xmlns:sodipodi="http://sodipodi.sourceforge.net/DTD/sodipodi-0.dtd"
   xmlns:inkscape="http://www.inkscape.org/namespaces/inkscape"
   width="203.22823mm"
   height="23.763111mm"
   viewBox="0 0 720.10001 84.2"
   id="svg2"
   version="1.1"
   inkscape:version="0.91 r13725"
   sodipodi:docname="HuffPost.svg">
  <defs
     id="defs4" />
  <sodipodi:namedview
     id="base"
     pagecolor="#ffffff"
     bordercolor="#666666"
     borderopacity="1.0"
     inkscape:pageopacity="0.0"
     inkscape:pageshadow="2"
     inkscape:zoom="0.35"
     inkscape:cx="412.19286"
     inkscape:cy="187.81429"
     inkscape:document-units="px"
     inkscape:current-layer="layer1"
     showgrid="false"
     fit-margin-top="0"
     fit-margin-left="0"
     fit-margin-right="0"
     fit-margin-bottom="0"
     inkscape:window-width="1366"
     inkscape:window-height="705"
     inkscape:window-x="-8"
     inkscape:window-y="-8"
     inkscape:window-maximized="1" />
  <metadata
     id="metadata7">
    <rdf:RDF>
      <cc:Work
         rdf:about="">
        <dc:format>image/svg+xml</dc:format>
        <dc:type
           rdf:resource="http://purl.org/dc/dcmitype/StillImage" />
        <dc:title></dc:title>
      </cc:Work>
    </rdf:RDF>
  </metadata>
  <g
     inkscape:label="Layer 1"
     inkscape:groupmode="layer"
     id="layer1"
     transform="translate(37.192857,-635.97649)">
    <g
       id="layer1-3"
       inkscape:label="Layer 1"
       transform="translate(-68.571428,182.85714)">
      <path
         style="fill:#000000"
         inkscape:connector-curvature="0"
         class="st2"
         d="m 124.47857,535.61935 26.3,0 14.1,-80.7 -26.3,0 -5.2,28.9 -22.8,0 5.2,-28.9 -26.299999,0 -14.1,80.7 26.299999,0 5.3,-30.2 22.8,0 -5.3,30.2 z"
         id="path3348" />
      <path
         style="fill:#000000"
         inkscape:connector-curvature="0"
         class="st2"
         d="m 179.77857,454.81935 -8,44.9 c -0.7,3.5 -1,6.9 -1,10.1 0,23.8 20.8,27.4 33.3,27.4 26.2,0 37.5,-8.7 41.6,-32.2 l 8.8,-50.3 -26.3,0 -7.5,42.2 c -2.4,13.2 -4.1,20.1 -13.9,20.1 -6.4,0 -9.5,-3.4 -9.5,-10.4 0,-2.7 0.4,-6 1.2,-10.1 l 7.6,-41.8 -26.3,0 z"
         id="path3352" />
      <path
         style="fill:#000000"
         inkscape:connector-curvature="0"
         class="st2"
         d="m 393.47857,535.61935 26.3,0 3.7,-20.8 12.4,0 c 22.9,0 35.6,-12.4 35.6,-35 0,-15.9 -11,-25 -30.3,-25 l -33.6,0 -14.1,80.8 z m 41,-40.7 -7.6,0 3.5,-19 7.1,0 c 5.8,0 8.9,2.9 8.9,8.2 0,6.7 -4.5,10.8 -11.9,10.8 z"
         id="path3356" />
      <path
         style="fill:#000000"
         inkscape:connector-curvature="0"
         class="st2"
         d="m 522.57857,453.11935 c -28.6,0 -45.7,18.5 -45.7,49.6 0,21.6 13.6,34.6 36.4,34.6 28.6,0 45.7,-18.5 45.7,-49.6 0.1,-21.7 -13.5,-34.6 -36.4,-34.6 z m -7.7,63.3 c -6.8,0 -10.8,-4.9 -10.8,-13.1 0,-3.1 0.3,-5.8 0.9,-8.9 2,-10.6 5.4,-20.3 16.1,-20.3 6.8,0 10.8,4.9 10.8,13.1 0,3.1 -0.3,5.8 -0.9,8.9 -2,10.5 -5.4,20.3 -16.1,20.3 z"
         id="path3360" />
      <path
         style="fill:#000000"
         inkscape:connector-curvature="0"
         class="st2"
         d="m 650.47857,535.61935 26.3,0 10.4,-59.1 19.8,0 3.8,-21.6 -67.3,0 -3.8,21.6 21,0 -10.2,59.1 z"
         id="path3364" />
      <path
         id="path3366"
         d="m 606.87857,484.71935 c -8.3,-2.6 -11.7,-3.7 -11.7,-7.6 0,-2.6 1.7,-5.7 6.7,-5.7 3.7,0 6.8,2.1 8,5.2 l 23.2,-6.3 c -2.7,-11.4 -12.5,-17.2 -29.4,-17.2 -31.8,0 -34.3,21.3 -34.3,27.8 0,13.2 7,21.3 22.2,25.5 4,1.1 8.6,2.3 8.6,6.7 0,3.5 -2.6,5.7 -7.1,5.7 -4.1,0 -8.5,-2.4 -10,-6.6 l -22.9,6.2 c 2.5,12 13.8,18.8 31.5,18.8 13.5,0 36.1,-3.6 36.1,-28 0.1,-12.2 -6.8,-20.2 -20.9,-24.5 z"
         class="st2"
         inkscape:connector-curvature="0"
         style="fill:#000000" />
      <path
         style="fill:#0dbe98"
         inkscape:connector-curvature="0"
         class="st3"
         d="m 60.678571,535.61935 14.2,-80.7 -43.5,0 0,80.7 29.3,0 z"
         id="path3370" />
      <path
         style="fill:#0dbe98"
         inkscape:connector-curvature="0"
         class="st3"
         d="m 722.07857,454.91935 -14.1,80.7 43.5,0 0,-80.7 -29.4,0 z"
         id="path3374" />
      <polygon
         transform="translate(31.378571,450.21935)"
         id="polygon3376"
         points="254.5,61.6 276.6,61.6 280.2,41.3 258.1,41.3 260.6,26.3 291.5,26.3 295.3,4.6 238.1,4.6 224,85.4 250.3,85.4 "
         class="st2"
         style="fill:#000000" />
      <polygon
         transform="translate(31.378571,450.21935)"
         id="polygon3378"
         points="323.4,61.6 345.6,61.6 349.2,41.3 327.1,41.3 329.6,26.3 360.5,26.3 364.3,4.6 307.1,4.6 293,85.4 319.3,85.4 "
         class="st2"
         style="fill:#000000" />
    </g>
  </g>
  <style
     type="text/css"
     id="style3338">
	.st0{display:none;}
	.st1{display:inline;}
	.st2{fill:#FFFFFF;}
	.st3{fill:#0DBE98;}
</style>
</svg>
