<?xml version="1.0" encoding="UTF-8" standalone="no"?>
<!-- Created with Inkscape (http://www.inkscape.org/) -->

<svg
   xmlns:dc="http://purl.org/dc/elements/1.1/"
   xmlns:cc="http://creativecommons.org/ns#"
   xmlns:rdf="http://www.w3.org/1999/02/22-rdf-syntax-ns#"
   xmlns:svg="http://www.w3.org/2000/svg"
   xmlns="http://www.w3.org/2000/svg"
   xmlns:sodipodi="http://sodipodi.sourceforge.net/DTD/sodipodi-0.dtd"
   xmlns:inkscape="http://www.inkscape.org/namespaces/inkscape"
   width="444"
   height="78.900002"
   viewBox="0 0 117.47499 20.875624"
   version="1.1"
   id="svg8"
   inkscape:version="0.92.0 r15299"
   sodipodi:docname="mapquest.svg">
  <defs
     id="defs2" />
  <sodipodi:namedview
     id="base"
     pagecolor="#ffffff"
     bordercolor="#666666"
     borderopacity="1.0"
     inkscape:pageopacity="0.0"
     inkscape:pageshadow="2"
     inkscape:zoom="1.8144797"
     inkscape:cx="221"
     inkscape:cy="38.45"
     inkscape:document-units="mm"
     inkscape:current-layer="layer1"
     showgrid="false"
     inkscape:window-width="1280"
     inkscape:window-height="744"
     inkscape:window-x="-4"
     inkscape:window-y="-4"
     inkscape:window-maximized="1"
     fit-margin-top="0"
     fit-margin-left="0"
     fit-margin-right="0"
     fit-margin-bottom="0"
     units="px" />
  <metadata
     id="metadata5">
    <rdf:RDF>
      <cc:Work
         rdf:about="">
        <dc:format>image/svg+xml</dc:format>
        <dc:type
           rdf:resource="http://purl.org/dc/dcmitype/StillImage" />
        <dc:title></dc:title>
      </cc:Work>
    </rdf:RDF>
  </metadata>
  <g
     inkscape:label="Layer 1"
     inkscape:groupmode="layer"
     id="layer1"
     transform="translate(251.99673,-238.67261)">
    <g
       id="g14"
       transform="matrix(0.26458333,0,0,0.26458333,-259.96069,235.36532)">
	<path
   id="path12"
   d="M 462.7,24.6 V 13.5 h -27.5 v 26.8 l -0.5,-1.4 c -3,-8.8 -14.2,-16 -24.9,-16 -11,0 -20.2,6.4 -23.2,15 -4.7,-8.9 -14.1,-15 -24.9,-15 -9.3,0 -17.5,4.5 -22.6,11.4 v -9.8 h -53.7 -13 L 270,28 c -4.7,-3.3 -10.4,-5.1 -16.2,-5.1 -11.2,0 -20.8,6.5 -25.4,15.9 -4.5,-9.5 -14.2,-16 -25.4,-16 -5.8,0 -11.5,1.8 -16.2,5.2 l -2.4,-3.5 H 168 v 0 h -10.8 l -2.4,3.5 c -4.7,-3.3 -10.4,-5.2 -16.2,-5.2 -10,0 -18.8,5.2 -23.8,13.1 C 112.4,27.6 105.9,23 96.1,23 89.2,23 84.7,24.9 79.5,30.3 75.7,25.4 70.7,23 64.1,23 58.4,23 54.5,24.5 50,28.7 L 47.7,24.5 H 31.1 v 52.6 h 34.8 v -5.9 l 10.8,6.3 11.5,-6.4 v 6 h 27.6 v -9.3 c 5.1,7 13.4,11.5 22.7,11.5 5.9,0 11.7,-1.9 16.4,-5.3 l 2.4,2.9 H 168 v 13.4 h 20.9 V 75.5 c 4.2,2.4 9.1,3.8 14,3.8 11.2,0 20.8,-6.5 25.4,-15.9 4.5,9.5 14.2,16 25.4,16 5,0 9.8,-1.3 14,-3.8 v 14.8 h 20.9 V 68 c 5.1,6.8 13.3,11.3 22.4,11.3 11.1,0 20.7,-6.5 25.2,-15.9 4.6,9.4 14.2,16 25.4,16 h 21.6 V 60.9 c 2.3,-1.8 4.5,-4.1 5.7,-6.3 1,1.4 2.2,2.5 3.4,3.4 l -6.1,5.3 0.6,1.8 c 3,8.8 14.2,16 24.9,16 11.4,0 20.9,-6.8 23.4,-16 v 14.3 h 27.6 V 46.5 h 10.4 V 24.6 Z m -352.4,47 H 93.8 v -9.9 l -17,9.5 -16.4,-9.6 v 10 H 36.7 V 30.2 h 7.7 l 4.3,8 2.6,-2.9 c 4.7,-5.1 7.6,-6.6 12.7,-6.6 5.9,0 9.6,2.2 12.7,7.6 l 2,3.5 2.6,-3.1 c 5.2,-6.2 8.5,-8 14.7,-8 9.4,0 14.2,5.2 14.2,15.4 V 71.6 Z M 168,71.4 h -8 l -4.3,-5.2 -2.1,1.9 c -4.2,3.7 -9.5,5.7 -15,5.7 -12.5,0 -22.7,-10.2 -22.7,-22.7 0,-12.5 10.2,-22.7 22.7,-22.7 5.5,0 10.8,2 15,5.7 l 2.3,2.1 4.3,-6.2 h 7.9 v 41.4 z m 35,2.3 c -5.5,0 -10.8,-2 -15,-5.7 l -4.6,-4.1 v 20.8 h -9.8 V 77 77 30.1 h 7.8 l 4.3,6.1 2.3,-2.1 c 4.2,-3.7 9.5,-5.7 15,-5.7 12.5,0 22.6,10.2 22.6,22.6 0,12.4 -10.2,22.7 -22.6,22.7 z m 80.2,-22.4 v 33.6 h -9.8 V 64 l -4.6,4.1 c -4.1,3.7 -9.5,5.7 -15,5.7 -12.5,0 -22.6,-10.2 -22.6,-22.6 0,-12.5 10.2,-22.6 22.6,-22.6 5.5,0 10.8,2 15,5.7 l 2.3,2.1 4.3,-6.1 h 7.8 z m 50.4,-0.2 c 0,0 0,0.1 0,0 0,0.1 0,0.1 0,0.2 v 0 c 0,12.4 -10.1,22.4 -22.4,22.4 -12.4,0 -22.4,-10.1 -22.4,-22.4 V 30.2 h 44.9 v 20.9 z m 40.5,9.5 -8.7,5.2 h 12.5 v 8.1 h -16 c -12.4,0 -22.6,-10.1 -22.6,-22.5 v -0.2 c 0,-12.4 10.2,-22.5 22.6,-22.5 12.5,0 22.6,10.2 22.6,22.6 -0.1,1.6 -5,6.1 -10.4,9.3 z m 37.6,14.8 c -7.6,0 -15.8,-4.7 -18.9,-10.5 l 10.5,-9.1 -5.4,-1.2 c -0.1,0 -6.6,-1.6 -6.8,-11 0.2,-8.3 8.4,-15.1 18.6,-15.1 7.6,0 15.8,4.7 18.9,10.5 l -11,9.5 5.7,1.1 c 0.3,0.1 6.8,1.4 6.9,10.7 -0.1,8.4 -8.3,15.1 -18.5,15.1 z m 23.5,-20.3 c -1.2,-4.4 -3.7,-7.3 -6.2,-9 l 6.2,-5.4 z M 467.7,41 H 457.3 V 73.7 H 440.8 V 19.1 h 16.4 v 11.1 h 10.5 z"
   class="st0"
   inkscape:connector-curvature="0"
   style="fill:#333333" />

</g>
  </g>
  <style
     id="style10"
     type="text/css">
	.st0{fill:#333333;}
</style>
</svg>
