<?xml version="1.0" encoding="utf-8"?>
<!-- Generator: Adobe Illustrator 22.1.0, SVG Export Plug-In . SVG Version: 6.00 Build 0)  -->
<svg version="1.1" id="Layer_1" xmlns="http://www.w3.org/2000/svg" xmlns:xlink="http://www.w3.org/1999/xlink" x="0px" y="0px"
	 viewBox="0 0 161.2 24" style="enable-background:new 0 0 161.2 24;" xml:space="preserve">
<style type="text/css">
	.st0{fill:url(#SVGID_1_);}
	.st1{fill:#6700E8;}
	.st2{fill:url(#SVGID_2_);}
	.st3{fill:url(#SVGID_3_);}
	.st4{fill:url(#SVGID_4_);}
	.st5{fill:url(#SVGID_5_);}
	.st6{fill:url(#SVGID_6_);}
	.st7{fill:url(#SVGID_7_);}
	.st8{fill:url(#SVGID_8_);}
	.st9{fill:url(#SVGID_9_);}
	.st10{fill:url(#SVGID_10_);}
	.st11{fill:url(#SVGID_11_);}
	.st12{fill:#200045;}
	.st13{fill:url(#SVGID_12_);}
	.st14{fill:url(#SVGID_13_);}
	.st15{fill:url(#SVGID_14_);}
	.st16{fill:url(#SVGID_15_);}
	.st17{fill:url(#SVGID_16_);}
	.st18{fill:url(#SVGID_17_);}
	.st19{fill:url(#SVGID_18_);}
	.st20{fill:url(#SVGID_19_);}
	.st21{fill:url(#SVGID_20_);}
	.st22{fill:url(#SVGID_21_);}
	.st23{fill:url(#SVGID_22_);}
	.st24{fill:url(#SVGID_23_);}
	.st25{fill:url(#SVGID_24_);}
	.st26{fill:#595976;}
</style>
<g>
	<g transform="translate(1009.8 -337.49)">
		<g transform="matrix(.5 0 0 .5 -379.18 197.8)">
			<g>
				
					<linearGradient id="SVGID_1_" gradientUnits="userSpaceOnUse" x1="4032.7595" y1="-8900.7285" x2="4042.2234" y2="-8848.5361" gradientTransform="matrix(0.3049 0 0 -0.3049 -2297.2878 -2398.0696)">
					<stop  offset="0" style="stop-color:#210045"/>
					<stop  offset="0.5942" style="stop-color:#430085"/>
					<stop  offset="1" style="stop-color:#5000B2"/>
				</linearGradient>
				<path class="st0" d="M-1062.3,280.7c1.5,0.3,2.6,1.2,2.6,2.8c0,0.5-0.2,1.3-0.4,1.9c-1,4.5-5,20.6-6.7,31.3l-1.6-1.6l5-32.9
					L-1062.3,280.7z"/>
				<path class="st1" d="M-1162.5,285c-2.1,0.5-4.1,0.5-6.1,0l3.2,3.3L-1162.5,285z"/>
				<path class="st1" d="M-1194.3,285c2.1,0.5,4.1,0.5,6.1,0l-3.2,3.3L-1194.3,285z"/>
				
					<linearGradient id="SVGID_2_" gradientUnits="userSpaceOnUse" x1="3549.8264" y1="-8804.252" x2="3577.8547" y2="-8861.4375" gradientTransform="matrix(0.3049 0 0 -0.3049 -2297.2878 -2398.0696)">
					<stop  offset="0" style="stop-color:#5500BD"/>
					<stop  offset="1" style="stop-color:#5000AC"/>
				</linearGradient>
				<path class="st2" d="M-1212.2,285c4.7,11.9,12.1,29.8,15.7,36.7l-5.4-1.7l-13.5-33.7L-1212.2,285z"/>
				<path class="st1" d="M-1216.5,285c1.5,0.5,2.7,0.5,4.3,0l-3,1.9L-1216.5,285z"/>
				
					<linearGradient id="SVGID_3_" gradientUnits="userSpaceOnUse" x1="3567.8115" y1="-8862.4824" x2="3571.4626" y2="-8861.0781" gradientTransform="matrix(0.3049 0 0 -0.3049 -2297.2878 -2398.0696)">
					<stop  offset="0" style="stop-color:#2A005A"/>
					<stop  offset="1" style="stop-color:#210046"/>
				</linearGradient>
				<path class="st3" d="M-1214.3,286.3l13.7,33.7c-0.8,0.9-1.2,1.3-2,1.8c-4-10.2-8.2-20.5-11.9-30.6l-1.8-3L-1214.3,286.3z"/>
				
					<linearGradient id="SVGID_4_" gradientUnits="userSpaceOnUse" x1="3506.5425" y1="-8916.8662" x2="3525.8293" y2="-8867.0195" gradientTransform="matrix(0.3049 0 0 -0.3049 -2297.2878 -2398.0696)">
					<stop  offset="0" style="stop-color:#21004E"/>
					<stop  offset="1" style="stop-color:#39007F"/>
				</linearGradient>
				<path class="st4" d="M-1226.1,321.7l-4.1-1.4l14.3-33.5l1.6-0.5v5C-1216.5,297.7-1222.1,311.7-1226.1,321.7L-1226.1,321.7z"/>
				<path class="st1" d="M-1229.5,280.1l1.3,3.1l3.4-1.6l1.4-1.5C-1225.5,280.6-1227.5,280.7-1229.5,280.1L-1229.5,280.1z"/>
				
					<linearGradient id="SVGID_5_" gradientUnits="userSpaceOnUse" x1="3486.6875" y1="-8824.8193" x2="3490.447" y2="-8827.0449" gradientTransform="matrix(0.3049 0 0 -0.3049 -2297.2878 -2398.0696)">
					<stop  offset="0" style="stop-color:#1B0041"/>
					<stop  offset="1" style="stop-color:#21004F"/>
				</linearGradient>
				<path class="st5" d="M-1239.1,306.8l-2.3,0.9l-1.5-2.6l14.6-23.2l1-0.4c1.4-0.3,3-0.7,4-1.4
					C-1225.6,283.3-1234,297.9-1239.1,306.8L-1239.1,306.8z"/>
				
					<linearGradient id="SVGID_6_" gradientUnits="userSpaceOnUse" x1="3502.1111" y1="-8783.0186" x2="3482.03" y2="-8825.0049" gradientTransform="matrix(0.3049 0 0 -0.3049 -2297.2878 -2398.0696)">
					<stop  offset="0" style="stop-color:#5500BD"/>
					<stop  offset="1" style="stop-color:#47008D"/>
				</linearGradient>
				<path class="st6" d="M-1242.3,306.4l0.6-0.6l14.4-24.3l-2.2-1.4c-1.7,3.2-8.1,13.7-12.2,20.4l-2,3.7L-1242.3,306.4z"/>
				
					<linearGradient id="SVGID_7_" gradientUnits="userSpaceOnUse" x1="3420.3528" y1="-8784.3486" x2="3440.3254" y2="-8826.0342" gradientTransform="matrix(0.3049 0 0 -0.3049 -2297.2878 -2398.0696)">
					<stop  offset="0" style="stop-color:#5100B2"/>
					<stop  offset="1" style="stop-color:#5500BD"/>
				</linearGradient>
				<path class="st7" d="M-1253.9,280.1c3.2,5.7,8.1,13.6,12.2,20.4v5.3l-1,1l-14.3-25.4L-1253.9,280.1z"/>
				<path class="st1" d="M-1256.3,281.7l2.4-1.5c-2.5,0.5-3.6,0.6-6.1,0l1,1.1L-1256.3,281.7z"/>
				
					<linearGradient id="SVGID_8_" gradientUnits="userSpaceOnUse" x1="3427.3455" y1="-8829.4043" x2="3430.9546" y2="-8826.998" gradientTransform="matrix(0.3049 0 0 -0.3049 -2297.2878 -2398.0696)">
					<stop  offset="0" style="stop-color:#27005D;stop-opacity:0.9804"/>
					<stop  offset="0.3177" style="stop-color:#2B005D"/>
					<stop  offset="0.5976" style="stop-color:#280055"/>
					<stop  offset="0.8088" style="stop-color:#24004D"/>
					<stop  offset="1" style="stop-color:#230049"/>
				</linearGradient>
				<path class="st8" d="M-1241.7,305.8l-1.1,1.6l-1.5-0.6c-2.7-4.7-10.8-19.1-15.8-26.7c1,0.7,2.4,1.1,4,1.4L-1241.7,305.8z"/>
				
					<linearGradient id="SVGID_9_" gradientUnits="userSpaceOnUse" x1="3459.8789" y1="-8867.2236" x2="3464.208" y2="-8901.3301" gradientTransform="matrix(0.3049 0 0 -0.3049 -2297.2878 -2398.0696)">
					<stop  offset="0" style="stop-color:#5500BD"/>
					<stop  offset="1" style="stop-color:#5300B5"/>
				</linearGradient>
				<path class="st9" d="M-1238.8,326.5l-4.2-2l0.4-17.4l0.9-1.3l2.6,1L-1238.8,326.5z"/>
				
					<linearGradient id="SVGID_10_" gradientUnits="userSpaceOnUse" x1="3456.9177" y1="-8867.5674" x2="3456.9177" y2="-8901.293" gradientTransform="matrix(0.3049 0 0 -0.3049 -2297.2878 -2398.0696)">
					<stop  offset="0" style="stop-color:#210045"/>
					<stop  offset="0.25" style="stop-color:#25004D"/>
					<stop  offset="0.5" style="stop-color:#2B005C"/>
					<stop  offset="0.7485" style="stop-color:#340071"/>
					<stop  offset="1" style="stop-color:#3E0088"/>
				</linearGradient>
				<path class="st10" d="M-1241.7,325.1l-2.9,1.3l0.4-19.7l2.6-1V325.1z"/>
				
					<linearGradient id="SVGID_11_" gradientUnits="userSpaceOnUse" x1="3494.5288" y1="-8918.4209" x2="3523.2332" y2="-8860.9551" gradientTransform="matrix(0.3049 0 0 -0.3049 -2297.2878 -2398.0696)">
					<stop  offset="0" style="stop-color:#4D00A1"/>
					<stop  offset="1" style="stop-color:#5200B4"/>
				</linearGradient>
				<path class="st11" d="M-1232.2,321.7c5.1-10.4,10.8-24.3,15.7-36.7l2.2,1.3l-13.9,34.1l-2.8,1L-1232.2,321.7z"/>
				<path class="st12" d="M-1200.7,319.9l4.3,1.8c-1.6-0.4-3.9-0.6-6.1,0l0.8-2.1L-1200.7,319.9z"/>
				
					<linearGradient id="SVGID_12_" gradientUnits="userSpaceOnUse" x1="3520.4458" y1="-8878.877" x2="3551.5359" y2="-8878.877" gradientTransform="matrix(0.3049 0 0 -0.3049 -2297.2878 -2398.0696)">
					<stop  offset="0" style="stop-color:#6700E8"/>
					<stop  offset="0.506" style="stop-color:#6700E8"/>
					<stop  offset="1" style="stop-color:#6700E8"/>
				</linearGradient>
				<path class="st13" d="M-1223.8,309.7l3-1.3c4.3,0.2,8.7,0.2,13,0l3.1,1.3l-2.8,0.6h-14.1L-1223.8,309.7z"/>
				<path class="st12" d="M-1221.8,311l-2-1.3c6.4-0.1,12.7-0.1,19.1,0l-2,1.2C-1211.8,310.8-1216.8,310.8-1221.8,311L-1221.8,311z"
					/>
				
					<linearGradient id="SVGID_13_" gradientUnits="userSpaceOnUse" x1="3627.2363" y1="-8859.2168" x2="3632.2871" y2="-8859.2168" gradientTransform="matrix(0.3049 0 0 -0.3049 -2297.2878 -2398.0696)">
					<stop  offset="0" style="stop-color:#5A00C9"/>
					<stop  offset="1" style="stop-color:#4F00A8"/>
				</linearGradient>
				<path class="st14" d="M-1188.1,321.7l-4.3-1.5v-32.9l1.2-0.6l3.1-1.7C-1188.8,297.2-1188.8,309.5-1188.1,321.7L-1188.1,321.7z"
					/>
				
					<linearGradient id="SVGID_14_" gradientUnits="userSpaceOnUse" x1="3617.4395" y1="-8859.2119" x2="3622.4524" y2="-8859.2119" gradientTransform="matrix(0.3049 0 0 -0.3049 -2297.2878 -2398.0696)">
					<stop  offset="0" style="stop-color:#390080"/>
					<stop  offset="0.5" style="stop-color:#31006E"/>
					<stop  offset="1" style="stop-color:#250056"/>
				</linearGradient>
				<path class="st15" d="M-1191.2,320v0.9l-3.1,0.9c0.5-12.2,0.5-24.4,0-36.7l3.1,1.7V320z"/>
				
					<linearGradient id="SVGID_15_" gradientUnits="userSpaceOnUse" x1="3701.3442" y1="-8859.2168" x2="3706.5374" y2="-8859.2168" gradientTransform="matrix(0.3049 0 0 -0.3049 -2297.2878 -2398.0696)">
					<stop  offset="0" style="stop-color:#3F008B"/>
					<stop  offset="1" style="stop-color:#220050"/>
				</linearGradient>
				<path class="st16" d="M-1168.6,321.7l4.3-1.5v-32.9l-1.2-0.6l-3.1-1.7C-1167.9,297.2-1167.9,309.5-1168.6,321.7L-1168.6,321.7z"
					/>
				
					<linearGradient id="SVGID_16_" gradientUnits="userSpaceOnUse" x1="3627.4141" y1="-8858.335" x2="3669.4817" y2="-8858.335" gradientTransform="matrix(0.3049 0 0 -0.3049 -2297.2878 -2398.0696)">
					<stop  offset="0" style="stop-color:#6700E8"/>
					<stop  offset="0.5" style="stop-color:#6700E8"/>
					<stop  offset="1" style="stop-color:#6700E8"/>
				</linearGradient>
				<path class="st17" d="M-1191.2,303.3l2.6-1.1c6.8,0.2,13.7,0.2,20.5,0l2.6,1.1l-3.2,0.8h-19.9L-1191.2,303.3z"/>
			</g>
			
				<linearGradient id="SVGID_17_" gradientUnits="userSpaceOnUse" x1="3824.2441" y1="-8811.9736" x2="3791.9824" y2="-8859.4941" gradientTransform="matrix(0.3049 0 0 -0.3049 -2297.2878 -2398.0696)">
				<stop  offset="0" style="stop-color:#1C0044"/>
				<stop  offset="0.1001" style="stop-color:#2F0065"/>
				<stop  offset="0.2048" style="stop-color:#34006D"/>
				<stop  offset="0.3" style="stop-color:#3B007A"/>
				<stop  offset="0.4" style="stop-color:#3C007A"/>
				<stop  offset="0.5" style="stop-color:#490096"/>
				<stop  offset="0.6" style="stop-color:#5000AB"/>
				<stop  offset="0.7003" style="stop-color:#5400BA"/>
				<stop  offset="0.8031" style="stop-color:#5500BC"/>
				<stop  offset="0.9" style="stop-color:#5700C2"/>
				<stop  offset="1" style="stop-color:#5C00CE"/>
			</linearGradient>
			<path class="st18" d="M-1140.9,285c-12,0-18,7.5-18,18.4c0,13.7,9.1,18.4,17.8,18.4c10.4,0,17.9-5.9,17.9-18.4
				C-1123.1,291.4-1130.2,285-1140.9,285L-1140.9,285z M-1141.2,286.8c0.1,0,0.2,0,0.3,0c7.9,0,13.8,5.4,13.8,16.7
				c0,11.3-5.8,16.7-13.7,16.7c-8.6,0-13.7-6.2-13.7-16.6C-1154.6,291.7-1148.4,286.9-1141.2,286.8L-1141.2,286.8z"/>
			
				<linearGradient id="SVGID_18_" gradientUnits="userSpaceOnUse" x1="3751.5972" y1="-8910.5459" x2="3791.9956" y2="-8859.958" gradientTransform="matrix(0.3049 0 0 -0.3049 -2297.2878 -2398.0696)">
				<stop  offset="0" style="stop-color:#1B0041"/>
				<stop  offset="0.1001" style="stop-color:#1B0041"/>
				<stop  offset="0.2048" style="stop-color:#1B0041"/>
				<stop  offset="0.3" style="stop-color:#240052"/>
				<stop  offset="0.4" style="stop-color:#32006A"/>
				<stop  offset="0.5" style="stop-color:#3D007D"/>
				<stop  offset="0.6" style="stop-color:#490098"/>
				<stop  offset="0.7003" style="stop-color:#4F00A8"/>
				<stop  offset="0.8031" style="stop-color:#5500BC"/>
				<stop  offset="0.9" style="stop-color:#5700C2"/>
				<stop  offset="1" style="stop-color:#6000DA"/>
			</linearGradient>
			<path class="st19" d="M-1140.9,284.5c-13,0-19.8,8.2-19.8,18.9c0,11.7,7.4,18.8,19.8,18.8c13.3,0,19.8-8,19.8-18.7
				C-1121.1,291.7-1128.9,284.5-1140.9,284.5L-1140.9,284.5z M-1140.9,285.7c10.2,0,17,6.2,17,17.7c0,12-7.2,17.6-17.2,17.6
				c-8.4,0-17.1-4.5-17.1-17.7C-1158.2,293-1152.4,285.7-1140.9,285.7z"/>
			
				<linearGradient id="SVGID_19_" gradientUnits="userSpaceOnUse" x1="3969.1553" y1="-8803.0938" x2="3938.9487" y2="-8860.1387" gradientTransform="matrix(0.3049 0 0 -0.3049 -2297.2878 -2398.0696)">
				<stop  offset="0" style="stop-color:#1E0046"/>
				<stop  offset="0.1001" style="stop-color:#2D0061"/>
				<stop  offset="0.2048" style="stop-color:#33006B"/>
				<stop  offset="0.3" style="stop-color:#400082"/>
				<stop  offset="0.4" style="stop-color:#490096"/>
				<stop  offset="0.5" style="stop-color:#5000AC"/>
				<stop  offset="0.6" style="stop-color:#5500BD"/>
				<stop  offset="0.7003" style="stop-color:#4F00A8"/>
				<stop  offset="0.8031" style="stop-color:#5500BC"/>
				<stop  offset="0.9" style="stop-color:#5700C2"/>
				<stop  offset="1" style="stop-color:#6000DA"/>
			</linearGradient>
			<path class="st20" d="M-1096.1,283.1c-12.2,0-20.5,6.9-20.5,20.3c0,13.2,7.8,20.5,20.6,20.5c9.7,0,20.3-5,20.3-20.3
				C-1075.7,287.1-1087.3,283.1-1096.1,283.1L-1096.1,283.1z M-1096.1,284.6c9.7,0,16.8,5.9,16.8,18.9c0,14.1-8.6,18.7-16.8,18.7
				c-8.7,0-16.7-5.1-16.7-19C-1112.8,288.9-1104,284.6-1096.1,284.6z"/>
			
				<linearGradient id="SVGID_20_" gradientUnits="userSpaceOnUse" x1="3900.5474" y1="-8921.3379" x2="3938.8503" y2="-8860.3232" gradientTransform="matrix(0.3049 0 0 -0.3049 -2297.2878 -2398.0696)">
				<stop  offset="0" style="stop-color:#1B0041"/>
				<stop  offset="0.1001" style="stop-color:#1B0041"/>
				<stop  offset="0.2048" style="stop-color:#1B0041"/>
				<stop  offset="0.3" style="stop-color:#240052"/>
				<stop  offset="0.4" style="stop-color:#32006A"/>
				<stop  offset="0.5" style="stop-color:#3D007D"/>
				<stop  offset="0.6" style="stop-color:#490098"/>
				<stop  offset="0.7003" style="stop-color:#4F00A8"/>
				<stop  offset="0.8031" style="stop-color:#5500BC"/>
				<stop  offset="0.9" style="stop-color:#5700C2"/>
				<stop  offset="1" style="stop-color:#6000DA"/>
			</linearGradient>
			<path class="st21" d="M-1096.1,282.3c-12.9,0-22.8,7.3-22.8,21c0,11.2,6.6,21.1,22.9,21.1c13.8,0,22.9-7.6,22.9-20.9
				C-1073.2,290.9-1081.6,282.3-1096.1,282.3L-1096.1,282.3z M-1096.1,283.7c8.5,0,19.8,3.8,19.8,20c0,14.9-10.4,19.8-19.8,19.8
				c-12.5,0-20-7.2-20-20C-1116.1,290.4-1107.9,283.7-1096.1,283.7z"/>
			
				<radialGradient id="SVGID_21_" cx="3320.4163" cy="4321.8574" r="5.0023" gradientTransform="matrix(-0.1096 0.3724 0.3911 0.1151 -2395.0977 -1412.1144)" gradientUnits="userSpaceOnUse">
				<stop  offset="0" style="stop-color:#6000D8"/>
				<stop  offset="0.2089" style="stop-color:#5C00CD"/>
				<stop  offset="0.3742" style="stop-color:#5500BE"/>
				<stop  offset="0.721" style="stop-color:#2D0062"/>
				<stop  offset="1" style="stop-color:#210045"/>
			</radialGradient>
			<path class="st22" d="M-1072.2,323.8c0-1.6,1-3,2.9-3c1.8,0,3.2,1.1,3.2,2.9c0,2.2-1.4,3-2.8,3
				C-1070.7,326.6-1072.2,325.7-1072.2,323.8L-1072.2,323.8z"/>
			
				<linearGradient id="SVGID_22_" gradientUnits="userSpaceOnUse" x1="4028.0383" y1="-8901.3467" x2="4035.5374" y2="-8849.4756" gradientTransform="matrix(0.3049 0 0 -0.3049 -2297.2878 -2398.0696)">
				<stop  offset="0" style="stop-color:#47008D"/>
				<stop  offset="1" style="stop-color:#5100B3"/>
			</linearGradient>
			<path class="st23" d="M-1069.1,316.3c1.5-10.5,2.4-21.6,3.3-32.7c0-2.2,1.5-3.1,2.9-3.1c0.3,0,0.6,0.1,0.6,0.1l-0.4,2.6
				l-5.2,32.7L-1069.1,316.3z"/>
			<g>
				<path class="st12" d="M-1244.6,326.5l2.9-2.2l2.9,2.2c0,0-1.6-0.3-2.9-0.3C-1242.9,326.2-1244.6,326.5-1244.6,326.5
					L-1244.6,326.5z"/>
				<path class="st12" d="M-1232.2,321.7l4.1-1.8c0.6,0.8,1.2,1.4,2,1.8C-1227.6,321.3-1229.8,321.1-1232.2,321.7L-1232.2,321.7z"/>
				<path class="st12" d="M-1194.3,321.7c2-0.5,4-0.5,6.1,0l-3-1.7L-1194.3,321.7z"/>
				<path class="st12" d="M-1188.6,304.7l-2.6-1.4c8.6,0.1,17.1,0.1,25.7,0l-2.6,1.3C-1174.9,304.6-1181.8,304.6-1188.6,304.7
					L-1188.6,304.7z"/>
			</g>
			<g>
				
					<linearGradient id="SVGID_23_" gradientUnits="userSpaceOnUse" x1="3711.4939" y1="-8859.2119" x2="3716.5146" y2="-8859.2119" gradientTransform="matrix(0.3049 0 0 -0.3049 -2297.2878 -2398.0696)">
					<stop  offset="0" style="stop-color:#5500BD"/>
					<stop  offset="1" style="stop-color:#5200B2"/>
				</linearGradient>
				<path class="st24" d="M-1165.5,320v0.9l3.1,0.9c-0.5-12.2-0.5-24.4,0-36.7l-3.1,1.7V320z"/>
				<path class="st12" d="M-1162.5,321.7c-2-0.5-4-0.5-6.1,0l3-1.7L-1162.5,321.7z"/>
				<path class="st12" d="M-1067.8,315.1l-1.4,1.2c0.9-0.2,1.6,0.1,2.3,0.4L-1067.8,315.1z"/>
				
					<radialGradient id="SVGID_24_" cx="-6175.5518" cy="7010.4893" r="4.5104" gradientTransform="matrix(-0.404 -7.232940e-02 -5.167839e-02 0.2887 -3195.2451 -2188.094)" gradientUnits="userSpaceOnUse">
					<stop  offset="0" style="stop-color:#6700E8"/>
					<stop  offset="0.3994" style="stop-color:#5C00CE"/>
					<stop  offset="0.7012" style="stop-color:#5600BF;stop-opacity:4.504500e-02"/>
					<stop  offset="1" style="stop-color:#220047;stop-opacity:0"/>
				</radialGradient>
				<ellipse class="st25" cx="-1062.8" cy="283.3" rx="3" ry="2.6"/>
			</g>
		</g>
	</g>
	<g>
		<path class="st26" d="M108.4,4.9h3.5l5,9.9l5-9.9h3.4v14.6h-3.6V9.9l-4.8,9.5h-1.4l-4.9-9.6v9.6h-2.3V4.9z"/>
		<path class="st26" d="M135,4.6l6.8,14.9h-3.7l-1.8-4h-5.7l-1.9,4h-2.4l7.1-14.9H135z M131.3,14.1h4.4l-2.2-4.7L131.3,14.1z"/>
		<path class="st26" d="M142.9,4.9h3.6v14.6h-3.6V4.9z"/>
		<path class="st26" d="M149.2,4.9h3.6v13.1h7.4v1.5h-11V4.9z"/>
	</g>
</g>
</svg>
