<?xml version="1.0" encoding="utf-8"?>
<!-- Generator: Adobe Illustrator 22.1.0, SVG Export Plug-In . SVG Version: 6.00 Build 0)  -->
<svg version="1.1" id="Layer_1" xmlns="http://www.w3.org/2000/svg" xmlns:xlink="http://www.w3.org/1999/xlink" x="0px" y="0px"
	 viewBox="0 0 69.8 24" style="enable-background:new 0 0 69.8 24;" xml:space="preserve">
<style type="text/css">
	.st0{fill:#54546F;}
	.st1{fill:url(#SVGID_1_);}
	.st2{fill:#6700E8;}
	.st3{fill:url(#SVGID_2_);}
	.st4{fill:url(#SVGID_3_);}
	.st5{fill:url(#SVGID_4_);}
	.st6{fill:url(#SVGID_5_);}
	.st7{fill:url(#SVGID_6_);}
	.st8{fill:url(#SVGID_7_);}
	.st9{fill:url(#SVGID_8_);}
	.st10{fill:url(#SVGID_9_);}
	.st11{fill:url(#SVGID_10_);}
	.st12{fill:url(#SVGID_11_);}
	.st13{fill:#200045;}
	.st14{fill:url(#SVGID_12_);}
	.st15{fill:url(#SVGID_13_);}
	.st16{fill:url(#SVGID_14_);}
	.st17{fill:url(#SVGID_15_);}
	.st18{fill:url(#SVGID_16_);}
	.st19{fill:url(#SVGID_17_);}
	.st20{fill:url(#SVGID_18_);}
	.st21{fill:url(#SVGID_19_);}
	.st22{fill:url(#SVGID_20_);}
	.st23{fill:url(#SVGID_21_);}
	.st24{fill:url(#SVGID_22_);}
	.st25{fill:url(#SVGID_23_);}
	.st26{fill:url(#SVGID_24_);}
</style>
<g>
	<g>
		<path class="st0" d="M16.5,17.8l2.8,6.1h-1.5l-0.7-1.6h-2.3L14,23.9h-1l2.9-6.1H16.5z M15,21.7h1.8l-0.9-1.9L15,21.7z"/>
		<path class="st0" d="M20.5,18h0.9l3.4,3.8V18h0.9v6h-0.6l-3.7-4.2v4.1h-0.9V18z"/>
		<path class="st0" d="M29.8,24c-0.4,0-0.7,0-0.9-0.1c-0.3-0.1-0.5-0.2-0.7-0.3c-0.2-0.1-0.3-0.3-0.4-0.5c-0.1-0.2-0.2-0.4-0.2-0.7
			h1c0,0.2,0.1,0.3,0.2,0.4s0.2,0.2,0.3,0.3c0.1,0.1,0.2,0.2,0.4,0.2c0.1,0.1,0.3,0.1,0.5,0.1c0.1,0,0.2,0,0.4,0
			c0.1,0,0.2-0.1,0.3-0.1c0.1-0.1,0.2-0.1,0.2-0.2c0.1-0.1,0.1-0.2,0.1-0.4c0-0.2,0-0.3-0.1-0.5c-0.1-0.1-0.2-0.3-0.4-0.4
			c-0.1-0.1-0.3-0.2-0.5-0.3s-0.4-0.2-0.6-0.3c-0.2-0.1-0.4-0.2-0.6-0.3c-0.2-0.1-0.4-0.2-0.5-0.4c-0.2-0.1-0.3-0.3-0.4-0.5
			c-0.1-0.2-0.1-0.4-0.1-0.6c0-0.2,0.1-0.5,0.2-0.7c0.1-0.2,0.3-0.4,0.5-0.5c0.2-0.1,0.4-0.3,0.7-0.3c0.3-0.1,0.6-0.1,1-0.1
			c0.3,0,0.6,0,0.8,0.1s0.5,0.2,0.6,0.3c0.2,0.1,0.3,0.3,0.5,0.5c0.1,0.2,0.2,0.4,0.3,0.6h-0.9c-0.1-0.1-0.1-0.3-0.2-0.4
			s-0.2-0.2-0.3-0.3c-0.1-0.1-0.2-0.2-0.4-0.2c-0.1-0.1-0.3-0.1-0.5-0.1c-0.2,0-0.4,0-0.5,0.1c-0.1,0-0.2,0.1-0.3,0.2
			c-0.1,0.1-0.1,0.2-0.2,0.3c0,0.1-0.1,0.2-0.1,0.3c0,0.2,0,0.3,0.1,0.4c0.1,0.1,0.2,0.2,0.4,0.4c0.2,0.1,0.3,0.2,0.5,0.3
			c0.2,0.1,0.4,0.2,0.6,0.3c0.2,0.1,0.4,0.2,0.6,0.3c0.2,0.1,0.4,0.2,0.5,0.4c0.2,0.1,0.3,0.3,0.4,0.4s0.1,0.3,0.1,0.6
			c0,0.2,0,0.5-0.1,0.7s-0.2,0.4-0.4,0.5c-0.2,0.2-0.4,0.3-0.7,0.4C30.5,24,30.2,24,29.8,24z"/>
		<path class="st0" d="M34.7,18l1.5,3.8l1.5-3.9l1.5,3.9l1.5-3.8h1l-2.3,6h-0.7l-1.2-3.1L36.2,24h-0.7l-2.4-6H34.7z"/>
		<path class="st0" d="M47.3,18v0.5h-3v2h2.5v0.5h-2.5v2.4h3v0.6h-4.5v-6H47.3z"/>
		<path class="st0" d="M48.7,18h2.2c0.4,0,0.7,0,1,0.1c0.3,0.1,0.5,0.2,0.7,0.3c0.2,0.1,0.3,0.3,0.4,0.5c0.1,0.2,0.1,0.4,0.1,0.7
			c0,0.2,0,0.3-0.1,0.5c-0.1,0.2-0.2,0.3-0.3,0.4c-0.1,0.1-0.3,0.2-0.4,0.3c-0.2,0.1-0.4,0.2-0.6,0.2l2.1,2.9h-1.6l-2-2.7h-0.3v2.7
			h-1.5V18z M50.1,20.7h0.3c0.2,0,0.3,0,0.5-0.1s0.3-0.1,0.4-0.2c0.1-0.1,0.2-0.2,0.3-0.3c0.1-0.1,0.1-0.3,0.1-0.5
			c0-0.2,0-0.3-0.1-0.4c0-0.1-0.1-0.2-0.2-0.3c-0.1-0.1-0.2-0.2-0.3-0.2c-0.1-0.1-0.3-0.1-0.4-0.1h-0.6V20.7z"/>
		<path class="st0" d="M57.1,24c-0.4,0-0.7,0-0.9-0.1c-0.3-0.1-0.5-0.2-0.7-0.3c-0.2-0.1-0.3-0.3-0.4-0.5c-0.1-0.2-0.2-0.4-0.2-0.7
			h1c0,0.2,0.1,0.3,0.2,0.4s0.2,0.2,0.3,0.3c0.1,0.1,0.2,0.2,0.4,0.2c0.1,0.1,0.3,0.1,0.5,0.1c0.1,0,0.2,0,0.4,0
			c0.1,0,0.2-0.1,0.3-0.1c0.1-0.1,0.2-0.1,0.2-0.2c0.1-0.1,0.1-0.2,0.1-0.4c0-0.2,0-0.3-0.1-0.5c-0.1-0.1-0.2-0.3-0.4-0.4
			c-0.1-0.1-0.3-0.2-0.5-0.3s-0.4-0.2-0.6-0.3c-0.2-0.1-0.4-0.2-0.6-0.3c-0.2-0.1-0.4-0.2-0.5-0.4c-0.2-0.1-0.3-0.3-0.4-0.5
			c-0.1-0.2-0.1-0.4-0.1-0.6c0-0.2,0.1-0.5,0.2-0.7c0.1-0.2,0.3-0.4,0.5-0.5c0.2-0.1,0.4-0.3,0.7-0.3c0.3-0.1,0.6-0.1,1-0.1
			c0.3,0,0.6,0,0.8,0.1s0.5,0.2,0.6,0.3c0.2,0.1,0.3,0.3,0.5,0.5c0.1,0.2,0.2,0.4,0.3,0.6h-0.9c-0.1-0.1-0.1-0.3-0.2-0.4
			s-0.2-0.2-0.3-0.3c-0.1-0.1-0.2-0.2-0.4-0.2c-0.1-0.1-0.3-0.1-0.5-0.1c-0.2,0-0.4,0-0.5,0.1c-0.1,0-0.2,0.1-0.3,0.2
			c-0.1,0.1-0.1,0.2-0.2,0.3c0,0.1-0.1,0.2-0.1,0.3c0,0.2,0,0.3,0.1,0.4c0.1,0.1,0.2,0.2,0.4,0.4c0.2,0.1,0.3,0.2,0.5,0.3
			c0.2,0.1,0.4,0.2,0.6,0.3c0.2,0.1,0.4,0.2,0.6,0.3c0.2,0.1,0.4,0.2,0.5,0.4c0.2,0.1,0.3,0.3,0.4,0.4s0.1,0.3,0.1,0.6
			c0,0.2,0,0.5-0.1,0.7s-0.2,0.4-0.4,0.5c-0.2,0.2-0.4,0.3-0.7,0.4C57.8,24,57.5,24,57.1,24z"/>
	</g>
	<g transform="translate(1009.8 -337.49)">
		<g transform="matrix(.5 0 0 .5 -379.18 197.8)">
			<g>
				
					<linearGradient id="SVGID_1_" gradientUnits="userSpaceOnUse" x1="4044.2942" y1="-8863.2021" x2="4050.8027" y2="-8827.3086" gradientTransform="matrix(0.3049 0 0 -0.3049 -2361.2344 -2398.0696)">
					<stop  offset="0" style="stop-color:#210045"/>
					<stop  offset="0.5942" style="stop-color:#430085"/>
					<stop  offset="1" style="stop-color:#5000B2"/>
				</linearGradient>
				<path class="st1" d="M-1124.4,280.3c1.1,0.2,1.8,0.8,1.8,1.9c0,0.4-0.2,0.9-0.3,1.3c-0.7,3.1-3.5,14.1-4.6,21.5l-1.1-1.1
					l3.4-22.6L-1124.4,280.3z"/>
				<path class="st2" d="M-1193.3,283.3c-1.4,0.3-2.8,0.3-4.2,0l2.2,2.3L-1193.3,283.3z"/>
				<path class="st2" d="M-1215.1,283.3c1.4,0.3,2.8,0.3,4.2,0l-2.2,2.3L-1215.1,283.3z"/>
				
					<linearGradient id="SVGID_2_" gradientUnits="userSpaceOnUse" x1="3712.1724" y1="-8796.8535" x2="3731.448" y2="-8836.1807" gradientTransform="matrix(0.3049 0 0 -0.3049 -2361.2344 -2398.0696)">
					<stop  offset="0" style="stop-color:#5500BD"/>
					<stop  offset="1" style="stop-color:#5000AC"/>
				</linearGradient>
				<path class="st3" d="M-1227.5,283.3c3.2,8.2,8.3,20.5,10.8,25.2l-3.7-1.1l-9.3-23.2L-1227.5,283.3z"/>
				<path class="st2" d="M-1230.4,283.3c1,0.3,1.9,0.4,2.9,0l-2.1,1.3L-1230.4,283.3z"/>
				
					<linearGradient id="SVGID_3_" gradientUnits="userSpaceOnUse" x1="3724.541" y1="-8836.8994" x2="3727.052" y2="-8835.9346" gradientTransform="matrix(0.3049 0 0 -0.3049 -2361.2344 -2398.0696)">
					<stop  offset="0" style="stop-color:#2A005A"/>
					<stop  offset="1" style="stop-color:#210046"/>
				</linearGradient>
				<path class="st4" d="M-1228.9,284.1l9.4,23.1c-0.6,0.6-0.8,0.9-1.4,1.2c-2.7-7-5.7-14.1-8.2-21l-1.2-2.1L-1228.9,284.1z"/>
				
					<linearGradient id="SVGID_4_" gradientUnits="userSpaceOnUse" x1="3682.4053" y1="-8874.3008" x2="3695.6692" y2="-8840.0205" gradientTransform="matrix(0.3049 0 0 -0.3049 -2361.2344 -2398.0696)">
					<stop  offset="0" style="stop-color:#21004E"/>
					<stop  offset="1" style="stop-color:#39007F"/>
				</linearGradient>
				<path class="st5" d="M-1237,308.5l-2.8-1l9.8-23l1.1-0.3v3.4C-1230.4,292-1234.3,301.6-1237,308.5L-1237,308.5z"/>
				<path class="st2" d="M-1239.3,279.9l0.9,2.1l2.4-1.1l1-1C-1236.6,280.2-1238,280.3-1239.3,279.9L-1239.3,279.9z"/>
				
					<linearGradient id="SVGID_5_" gradientUnits="userSpaceOnUse" x1="3668.7507" y1="-8810.998" x2="3671.3362" y2="-8812.5293" gradientTransform="matrix(0.3049 0 0 -0.3049 -2361.2344 -2398.0696)">
					<stop  offset="0" style="stop-color:#1B0041"/>
					<stop  offset="1" style="stop-color:#21004F"/>
				</linearGradient>
				<path class="st6" d="M-1246,298.2l-1.6,0.6l-1-1.8l10-16l0.7-0.2c1-0.2,2.1-0.5,2.8-0.9C-1236.7,282-1242.5,292.1-1246,298.2
					L-1246,298.2z"/>
				
					<linearGradient id="SVGID_6_" gradientUnits="userSpaceOnUse" x1="3679.3577" y1="-8782.251" x2="3665.5476" y2="-8811.126" gradientTransform="matrix(0.3049 0 0 -0.3049 -2361.2344 -2398.0696)">
					<stop  offset="0" style="stop-color:#5500BD"/>
					<stop  offset="1" style="stop-color:#47008D"/>
				</linearGradient>
				<path class="st7" d="M-1248.2,298l0.4-0.4l9.9-16.7l-1.5-0.9c-1.2,2.2-5.6,9.4-8.4,14l-1.3,2.5L-1248.2,298z"/>
				
					<linearGradient id="SVGID_7_" gradientUnits="userSpaceOnUse" x1="3623.1311" y1="-8783.166" x2="3636.8667" y2="-8811.834" gradientTransform="matrix(0.3049 0 0 -0.3049 -2361.2344 -2398.0696)">
					<stop  offset="0" style="stop-color:#5100B2"/>
					<stop  offset="1" style="stop-color:#5500BD"/>
				</linearGradient>
				<path class="st8" d="M-1256.2,279.9c2.2,3.9,5.6,9.3,8.4,14v3.6l-0.7,0.7l-9.8-17.5L-1256.2,279.9z"/>
				<path class="st2" d="M-1257.8,281l1.6-1.1c-1.7,0.4-2.5,0.4-4.2,0l0.7,0.8L-1257.8,281z"/>
				
					<linearGradient id="SVGID_8_" gradientUnits="userSpaceOnUse" x1="3627.9399" y1="-8814.1514" x2="3630.4221" y2="-8812.4971" gradientTransform="matrix(0.3049 0 0 -0.3049 -2361.2344 -2398.0696)">
					<stop  offset="0" style="stop-color:#27005D;stop-opacity:0.9804"/>
					<stop  offset="0.3177" style="stop-color:#2B005D"/>
					<stop  offset="0.5976" style="stop-color:#280055"/>
					<stop  offset="0.8088" style="stop-color:#24004D"/>
					<stop  offset="1" style="stop-color:#230049"/>
				</linearGradient>
				<path class="st9" d="M-1247.8,297.6l-0.8,1.1l-1-0.4c-1.9-3.2-7.4-13.1-10.8-18.3c0.7,0.5,1.6,0.8,2.7,1L-1247.8,297.6z"/>
				
					<linearGradient id="SVGID_9_" gradientUnits="userSpaceOnUse" x1="3650.314" y1="-8840.1611" x2="3653.291" y2="-8863.6162" gradientTransform="matrix(0.3049 0 0 -0.3049 -2361.2344 -2398.0696)">
					<stop  offset="0" style="stop-color:#5500BD"/>
					<stop  offset="1" style="stop-color:#5300B5"/>
				</linearGradient>
				<path class="st10" d="M-1245.7,311.8l-2.9-1.3l0.3-11.9l0.6-0.9l1.8,0.7L-1245.7,311.8z"/>
				
					<linearGradient id="SVGID_10_" gradientUnits="userSpaceOnUse" x1="3648.2773" y1="-8840.3975" x2="3648.2773" y2="-8863.5908" gradientTransform="matrix(0.3049 0 0 -0.3049 -2361.2344 -2398.0696)">
					<stop  offset="0" style="stop-color:#210045"/>
					<stop  offset="0.25" style="stop-color:#25004D"/>
					<stop  offset="0.5" style="stop-color:#2B005C"/>
					<stop  offset="0.7485" style="stop-color:#340071"/>
					<stop  offset="1" style="stop-color:#3E0088"/>
				</linearGradient>
				<path class="st11" d="M-1247.8,310.8l-2,0.9l0.3-13.5l1.8-0.7V310.8z"/>
				
					<linearGradient id="SVGID_11_" gradientUnits="userSpaceOnUse" x1="3674.1433" y1="-8875.3701" x2="3693.8838" y2="-8835.8496" gradientTransform="matrix(0.3049 0 0 -0.3049 -2361.2344 -2398.0696)">
					<stop  offset="0" style="stop-color:#4D00A1"/>
					<stop  offset="1" style="stop-color:#5200B4"/>
				</linearGradient>
				<path class="st12" d="M-1241.2,308.5c3.5-7.2,7.4-16.7,10.8-25.2l1.5,0.9l-9.6,23.4l-1.9,0.7L-1241.2,308.5z"/>
				<path class="st13" d="M-1219.6,307.3l2.9,1.2c-1.1-0.3-2.7-0.4-4.2,0l0.6-1.4L-1219.6,307.3z"/>
				
					<linearGradient id="SVGID_12_" gradientUnits="userSpaceOnUse" x1="3691.9668" y1="-8848.1748" x2="3713.3481" y2="-8848.1748" gradientTransform="matrix(0.3049 0 0 -0.3049 -2361.2344 -2398.0696)">
					<stop  offset="0" style="stop-color:#6700E8"/>
					<stop  offset="0.506" style="stop-color:#6700E8"/>
					<stop  offset="1" style="stop-color:#6700E8"/>
				</linearGradient>
				<path class="st14" d="M-1235.5,300.2l2.1-0.9c3,0.1,6,0.1,8.9,0l2.1,0.9l-2,0.4h-9.7L-1235.5,300.2z"/>
				<path class="st13" d="M-1234.1,301.1l-1.4-0.9c4.4-0.1,8.7-0.1,13.1,0l-1.4,0.8C-1227.2,301-1230.6,301-1234.1,301.1
					L-1234.1,301.1z"/>
				
					<linearGradient id="SVGID_13_" gradientUnits="userSpaceOnUse" x1="3765.4087" y1="-8834.6533" x2="3768.8821" y2="-8834.6533" gradientTransform="matrix(0.3049 0 0 -0.3049 -2361.2344 -2398.0696)">
					<stop  offset="0" style="stop-color:#5A00C9"/>
					<stop  offset="1" style="stop-color:#4F00A8"/>
				</linearGradient>
				<path class="st15" d="M-1210.9,308.5l-2.9-1v-22.6l0.8-0.4l2.1-1.2C-1211.4,291.7-1211.4,300.1-1210.9,308.5L-1210.9,308.5z"/>
				
					<linearGradient id="SVGID_14_" gradientUnits="userSpaceOnUse" x1="3758.6711" y1="-8834.6514" x2="3762.1187" y2="-8834.6514" gradientTransform="matrix(0.3049 0 0 -0.3049 -2361.2344 -2398.0696)">
					<stop  offset="0" style="stop-color:#390080"/>
					<stop  offset="0.5" style="stop-color:#31006E"/>
					<stop  offset="1" style="stop-color:#250056"/>
				</linearGradient>
				<path class="st16" d="M-1213,307.3v0.6l-2.1,0.6c0.3-8.4,0.4-16.8,0-25.2l2.1,1.2V307.3z"/>
				
					<linearGradient id="SVGID_15_" gradientUnits="userSpaceOnUse" x1="3816.374" y1="-8834.6533" x2="3819.9453" y2="-8834.6533" gradientTransform="matrix(0.3049 0 0 -0.3049 -2361.2344 -2398.0696)">
					<stop  offset="0" style="stop-color:#3F008B"/>
					<stop  offset="1" style="stop-color:#220050"/>
				</linearGradient>
				<path class="st17" d="M-1197.5,308.5l2.9-1v-22.6l-0.8-0.4l-2.1-1.2C-1197,291.7-1197,300.1-1197.5,308.5L-1197.5,308.5z"/>
				
					<linearGradient id="SVGID_16_" gradientUnits="userSpaceOnUse" x1="3765.5308" y1="-8834.0469" x2="3794.4617" y2="-8834.0469" gradientTransform="matrix(0.3049 0 0 -0.3049 -2361.2344 -2398.0696)">
					<stop  offset="0" style="stop-color:#6700E8"/>
					<stop  offset="0.5" style="stop-color:#6700E8"/>
					<stop  offset="1" style="stop-color:#6700E8"/>
				</linearGradient>
				<path class="st18" d="M-1213,295.8l1.8-0.8c4.7,0.1,9.4,0.1,14.1,0l1.8,0.8l-2.2,0.5h-13.7L-1213,295.8z"/>
			</g>
			
				<linearGradient id="SVGID_17_" gradientUnits="userSpaceOnUse" x1="3900.8945" y1="-8802.1641" x2="3878.7075" y2="-8834.8447" gradientTransform="matrix(0.3049 0 0 -0.3049 -2361.2344 -2398.0696)">
				<stop  offset="0" style="stop-color:#1C0044"/>
				<stop  offset="0.1001" style="stop-color:#2F0065"/>
				<stop  offset="0.2048" style="stop-color:#34006D"/>
				<stop  offset="0.3" style="stop-color:#3B007A"/>
				<stop  offset="0.4" style="stop-color:#3C007A"/>
				<stop  offset="0.5" style="stop-color:#490096"/>
				<stop  offset="0.6" style="stop-color:#5000AB"/>
				<stop  offset="0.7003" style="stop-color:#5400BA"/>
				<stop  offset="0.8031" style="stop-color:#5500BC"/>
				<stop  offset="0.9" style="stop-color:#5700C2"/>
				<stop  offset="1" style="stop-color:#5C00CE"/>
			</linearGradient>
			<path class="st19" d="M-1178.4,283.3c-8.3,0-12.4,5.2-12.4,12.7c0,9.4,6.2,12.7,12.3,12.7c7.2,0,12.3-4,12.3-12.6
				C-1166.2,287.7-1171.1,283.3-1178.4,283.3L-1178.4,283.3z M-1178.7,284.5c0.1,0,0.2,0,0.2,0c5.5,0,9.5,3.7,9.5,11.5
				c0,7.8-4,11.5-9.5,11.5c-5.9,0-9.4-4.3-9.4-11.4C-1187.9,287.8-1183.6,284.6-1178.7,284.5L-1178.7,284.5z"/>
			
				<linearGradient id="SVGID_18_" gradientUnits="userSpaceOnUse" x1="3850.9338" y1="-8869.9541" x2="3878.7166" y2="-8835.1631" gradientTransform="matrix(0.3049 0 0 -0.3049 -2361.2344 -2398.0696)">
				<stop  offset="0" style="stop-color:#1B0041"/>
				<stop  offset="0.1001" style="stop-color:#1B0041"/>
				<stop  offset="0.2048" style="stop-color:#1B0041"/>
				<stop  offset="0.3" style="stop-color:#240052"/>
				<stop  offset="0.4" style="stop-color:#32006A"/>
				<stop  offset="0.5" style="stop-color:#3D007D"/>
				<stop  offset="0.6" style="stop-color:#490098"/>
				<stop  offset="0.7003" style="stop-color:#4F00A8"/>
				<stop  offset="0.8031" style="stop-color:#5500BC"/>
				<stop  offset="0.9" style="stop-color:#5700C2"/>
				<stop  offset="1" style="stop-color:#6000DA"/>
			</linearGradient>
			<path class="st20" d="M-1178.5,282.9c-8.9,0-13.6,5.7-13.6,13c0,8,5.1,12.9,13.6,12.9c9.2,0,13.6-5.5,13.6-12.8
				C-1164.8,287.8-1170.2,282.9-1178.5,282.9L-1178.5,282.9z M-1178.4,283.8c7,0,11.7,4.2,11.7,12.2c0,8.3-4.9,12.1-11.8,12.1
				c-5.8,0-11.8-3.1-11.8-12.2C-1190.3,288.7-1186.4,283.8-1178.4,283.8z"/>
			
				<linearGradient id="SVGID_19_" gradientUnits="userSpaceOnUse" x1="4000.5525" y1="-8796.0576" x2="3979.7791" y2="-8835.2881" gradientTransform="matrix(0.3049 0 0 -0.3049 -2361.2344 -2398.0696)">
				<stop  offset="0" style="stop-color:#1E0046"/>
				<stop  offset="0.1001" style="stop-color:#2D0061"/>
				<stop  offset="0.2048" style="stop-color:#33006B"/>
				<stop  offset="0.3" style="stop-color:#400082"/>
				<stop  offset="0.4" style="stop-color:#490096"/>
				<stop  offset="0.5" style="stop-color:#5000AC"/>
				<stop  offset="0.6" style="stop-color:#5500BD"/>
				<stop  offset="0.7003" style="stop-color:#4F00A8"/>
				<stop  offset="0.8031" style="stop-color:#5500BC"/>
				<stop  offset="0.9" style="stop-color:#5700C2"/>
				<stop  offset="1" style="stop-color:#6000DA"/>
			</linearGradient>
			<path class="st21" d="M-1147.6,282c-8.4,0-14.1,4.7-14.1,14c0,9.1,5.3,14.1,14.2,14.1c6.7,0,14-3.4,14-14
				C-1133.6,284.7-1141.6,282-1147.6,282L-1147.6,282z M-1147.6,283c6.7,0,11.6,4.1,11.6,13c0,9.7-5.9,12.9-11.6,12.9
				c-6,0-11.5-3.5-11.5-13.1C-1159.1,285.9-1153.1,283-1147.6,283z"/>
			
				<linearGradient id="SVGID_20_" gradientUnits="userSpaceOnUse" x1="3953.3696" y1="-8877.376" x2="3979.7112" y2="-8835.415" gradientTransform="matrix(0.3049 0 0 -0.3049 -2361.2344 -2398.0696)">
				<stop  offset="0" style="stop-color:#1B0041"/>
				<stop  offset="0.1001" style="stop-color:#1B0041"/>
				<stop  offset="0.2048" style="stop-color:#1B0041"/>
				<stop  offset="0.3" style="stop-color:#240052"/>
				<stop  offset="0.4" style="stop-color:#32006A"/>
				<stop  offset="0.5" style="stop-color:#3D007D"/>
				<stop  offset="0.6" style="stop-color:#490098"/>
				<stop  offset="0.7003" style="stop-color:#4F00A8"/>
				<stop  offset="0.8031" style="stop-color:#5500BC"/>
				<stop  offset="0.9" style="stop-color:#5700C2"/>
				<stop  offset="1" style="stop-color:#6000DA"/>
			</linearGradient>
			<path class="st22" d="M-1147.7,281.4c-8.9,0-15.7,5-15.7,14.4c0,7.7,4.5,14.5,15.7,14.5c9.5,0,15.7-5.2,15.7-14.4
				C-1131.9,287.3-1137.7,281.4-1147.7,281.4L-1147.7,281.4z M-1147.6,282.3c5.9,0,13.6,2.6,13.6,13.7c0,10.3-7.1,13.6-13.6,13.6
				c-8.6,0-13.8-4.9-13.8-13.7C-1161.3,287-1155.8,282.3-1147.6,282.3z"/>
			
				<radialGradient id="SVGID_21_" cx="3172.3289" cy="4387.8687" r="3.4402" gradientTransform="matrix(-0.1096 0.3724 0.3911 0.1151 -2497.1833 -1377.8563)" gradientUnits="userSpaceOnUse">
				<stop  offset="0" style="stop-color:#6000D8"/>
				<stop  offset="0.2089" style="stop-color:#5C00CD"/>
				<stop  offset="0.3742" style="stop-color:#5500BE"/>
				<stop  offset="0.721" style="stop-color:#2D0062"/>
				<stop  offset="1" style="stop-color:#210045"/>
			</radialGradient>
			<path class="st23" d="M-1131.2,309.9c0-1.1,0.7-2.1,2-2.1c1.3,0,2.2,0.8,2.2,2c0,1.5-1,2.1-1.9,2.1
				C-1130.2,311.9-1131.2,311.2-1131.2,309.9L-1131.2,309.9z"/>
			
				<linearGradient id="SVGID_22_" gradientUnits="userSpaceOnUse" x1="4041.0474" y1="-8863.6279" x2="4046.2046" y2="-8827.9551" gradientTransform="matrix(0.3049 0 0 -0.3049 -2361.2344 -2398.0696)">
				<stop  offset="0" style="stop-color:#47008D"/>
				<stop  offset="1" style="stop-color:#5100B3"/>
			</linearGradient>
			<path class="st24" d="M-1129.1,304.8c1-7.2,1.6-14.9,2.2-22.5c0-1.5,1-2.1,2-2.1c0.2,0,0.4,0,0.4,0l-0.3,1.8l-3.6,22.5
				L-1129.1,304.8z"/>
			<g>
				<path class="st13" d="M-1249.8,311.8l2-1.5l2,1.5c0,0-1.1-0.2-2-0.2C-1248.6,311.6-1249.8,311.8-1249.8,311.8L-1249.8,311.8z"/>
				<path class="st13" d="M-1241.2,308.5l2.8-1.2c0.4,0.5,0.8,1,1.3,1.2C-1238,308.2-1239.6,308.1-1241.2,308.5L-1241.2,308.5z"/>
				<path class="st13" d="M-1215.1,308.5c1.4-0.3,2.8-0.3,4.2,0l-2.1-1.2L-1215.1,308.5z"/>
				<path class="st13" d="M-1211.2,296.8l-1.8-0.9c5.9,0.1,11.8,0.1,17.6,0l-1.8,0.9C-1201.8,296.7-1206.5,296.7-1211.2,296.8
					L-1211.2,296.8z"/>
			</g>
			<g>
				
					<linearGradient id="SVGID_23_" gradientUnits="userSpaceOnUse" x1="3823.354" y1="-8834.6514" x2="3826.8069" y2="-8834.6514" gradientTransform="matrix(0.3049 0 0 -0.3049 -2361.2344 -2398.0696)">
					<stop  offset="0" style="stop-color:#5500BD"/>
					<stop  offset="1" style="stop-color:#5200B2"/>
				</linearGradient>
				<path class="st25" d="M-1195.4,307.3v0.6l2.1,0.6c-0.3-8.4-0.4-16.8,0-25.2l-2.1,1.2V307.3z"/>
				<path class="st13" d="M-1193.3,308.5c-1.4-0.3-2.8-0.3-4.2,0l2.1-1.2L-1193.3,308.5z"/>
				<path class="st13" d="M-1128.1,303.9l-0.9,0.9c0.6-0.1,1.1,0.1,1.6,0.2L-1128.1,303.9z"/>
				
					<radialGradient id="SVGID_24_" cx="-6339.1235" cy="6989.3296" r="3.1019" gradientTransform="matrix(-0.404 -7.232940e-02 -5.167839e-02 0.2887 -3324.4136 -2194.7483)" gradientUnits="userSpaceOnUse">
					<stop  offset="0" style="stop-color:#6700E8"/>
					<stop  offset="0.3994" style="stop-color:#5C00CE"/>
					<stop  offset="0.7012" style="stop-color:#5600BF;stop-opacity:4.504500e-02"/>
					<stop  offset="1" style="stop-color:#220047;stop-opacity:0"/>
				</radialGradient>
				<ellipse class="st26" cx="-1124.7" cy="282.1" rx="2" ry="1.8"/>
			</g>
		</g>
	</g>
</g>
</svg>
