<svg xmlns="http://www.w3.org/2000/svg" xmlns:xlink="http://www.w3.org/1999/xlink" width="124.732" height="17.528" viewBox="0 0 124.732 17.528"><defs><clipPath id="a"><path d="M0,17.528H124.732V0H0Z" transform="translate(0 0.191)" fill="none"/></clipPath></defs><g transform="translate(0 -0.282)"><path d="M1.215,0V2.2H7.429L0,15.527H11.016v-2.2H3.754L11.183,0Z" transform="translate(0 1.337)" fill="#231916"/><g transform="translate(0 0.091)"><path d="M7.831,16.1a7.731,7.731,0,0,1-5.263-2.082A7.753,7.753,0,0,1,0,7.985,7.733,7.733,0,0,1,2.343,2.353,7.644,7.644,0,0,1,7.949,0,7.506,7.506,0,0,1,13.5,2.373a7.893,7.893,0,0,1,2.323,5.7,7.766,7.766,0,0,1-2.333,5.682A7.737,7.737,0,0,1,7.831,16.1ZM7.919,2.2A5.344,5.344,0,0,0,3.93,3.892,5.7,5.7,0,0,0,2.3,8.014a5.709,5.709,0,0,0,1.686,4.234,5.368,5.368,0,0,0,3.872,1.66,5.4,5.4,0,0,0,4.019-1.689,5.819,5.819,0,0,0,1.637-4.163A5.793,5.793,0,0,0,11.9,3.892,5.3,5.3,0,0,0,7.919,2.2Z" transform="translate(33.844 0.955)" fill="#231916"/><path d="M2.284,0V13.325h4.45v2.2H0V0Z" transform="translate(52.535 1.247)" fill="#231916"/><path d="M3.137,15.527H0V0H3.176A11.347,11.347,0,0,1,6.782.463,6.739,6.739,0,0,1,9.36,2,7.557,7.557,0,0,1,11.7,7.763a7.481,7.481,0,0,1-2.441,5.792,7.1,7.1,0,0,1-2.568,1.539A11.471,11.471,0,0,1,3.137,15.527ZM2.283,2.2V13.325h1.03a8.415,8.415,0,0,0,2.558-.332,5.171,5.171,0,0,0,1.843-1.116A5.4,5.4,0,0,0,9.4,7.763,5.492,5.492,0,0,0,7.734,3.62,6.237,6.237,0,0,0,3.313,2.2Z" transform="translate(61.435 1.246)" fill="#231916"/><path d="M0,17.528H124.732V0H0Z" transform="translate(0 0.191)" fill="none"/><g clip-path="url(#a)"><path d="M0,15.527H2.284V0H0Z" transform="translate(76.01 1.247)" fill="#231916"/><path d="M0,16.583V0L11.036,11.846V1.056H13.32V17.528L2.284,5.712V16.583Z" transform="translate(81.93 0.191)" fill="#231916"/><path d="M7.7,7.743H14.79v.513a10.858,10.858,0,0,1-.4,3.1,6.619,6.619,0,0,1-1.323,2.333A6.779,6.779,0,0,1,7.7,16.12a7.28,7.28,0,0,1-5.44-2.353A7.907,7.907,0,0,1,0,8.1,7.887,7.887,0,0,1,2.3,2.363,7.534,7.534,0,0,1,7.91,0a7.512,7.512,0,0,1,3.313.744,9.607,9.607,0,0,1,2.891,2.414l-1.627,1.6A5.487,5.487,0,0,0,7.949,2.212a5.354,5.354,0,0,0-4.029,1.7A5.753,5.753,0,0,0,2.294,8.1a5.57,5.57,0,0,0,1.813,4.274,5.337,5.337,0,0,0,3.675,1.559,4.5,4.5,0,0,0,3.029-1.166,4.182,4.182,0,0,0,1.5-2.816H7.7Z" transform="translate(98.122 0.945)" fill="#231916"/><path d="M9.311,2.615,7.459,3.741a3.244,3.244,0,0,0-.99-1.207A2.264,2.264,0,0,0,5.2,2.212a2.3,2.3,0,0,0-1.578.553A1.732,1.732,0,0,0,3,4.133Q3,5.27,4.646,5.963l1.51.634a6.447,6.447,0,0,1,2.7,1.865,4.277,4.277,0,0,1,.853,2.7A4.808,4.808,0,0,1,8.311,14.7,4.714,4.714,0,0,1,4.832,16.11a4.586,4.586,0,0,1-3.254-1.2A5.565,5.565,0,0,1,0,11.544l2.313-.523a4.11,4.11,0,0,0,.549,1.891A2.356,2.356,0,0,0,4.92,13.918a2.358,2.358,0,0,0,1.774-.734,2.576,2.576,0,0,0,.706-1.86,2.681,2.681,0,0,0-.123-.83A2.123,2.123,0,0,0,6.9,9.8a3.087,3.087,0,0,0-.672-.593,6.407,6.407,0,0,0-.98-.528L3.783,8.055Q.676,6.708.676,4.113a3.781,3.781,0,0,1,1.3-2.926A4.64,4.64,0,0,1,5.224,0,4.518,4.518,0,0,1,9.311,2.615" transform="translate(115.029 0.945)" fill="#231916"/><path d="M8.811,0V6.662H2.284V0H0V15.527H2.284V8.865H8.811v6.662H11.1V0Z" transform="translate(19.877 1.247)" fill="#231916"/></g></g></g></svg>