<?xml version="1.0" encoding="UTF-8" standalone="no"?>
<!-- Created with Inkscape (http://www.inkscape.org/) -->

<svg
   xmlns:dc="http://purl.org/dc/elements/1.1/"
   xmlns:cc="http://creativecommons.org/ns#"
   xmlns:rdf="http://www.w3.org/1999/02/22-rdf-syntax-ns#"
   xmlns:svg="http://www.w3.org/2000/svg"
   xmlns="http://www.w3.org/2000/svg"
   xmlns:sodipodi="http://sodipodi.sourceforge.net/DTD/sodipodi-0.dtd"
   xmlns:inkscape="http://www.inkscape.org/namespaces/inkscape"
   width="326.54999"
   height="300"
   viewBox="0 0 326.54999 300"
   id="svg2"
   version="1.1"
   inkscape:version="0.91 r13725"
   sodipodi:docname="Zeichnung.svg">
  <defs
     id="defs4" />
  <sodipodi:namedview
     id="base"
     pagecolor="#ffffff"
     bordercolor="#666666"
     borderopacity="1.0"
     inkscape:pageopacity="0.0"
     inkscape:pageshadow="2"
     inkscape:zoom="1.4"
     inkscape:cx="-110.89945"
     inkscape:cy="233.84926"
     inkscape:document-units="px"
     inkscape:current-layer="svg2"
     showgrid="false"
     units="px"
     inkscape:window-width="1920"
     inkscape:window-height="1017"
     inkscape:window-x="-8"
     inkscape:window-y="-8"
     inkscape:window-maximized="1" />
  <metadata
     id="metadata7">
    <rdf:RDF>
      <cc:Work
         rdf:about="">
        <dc:format>image/svg+xml</dc:format>
        <dc:type
           rdf:resource="http://purl.org/dc/dcmitype/StillImage" />
        <dc:title></dc:title>
      </cc:Work>
    </rdf:RDF>
  </metadata>
  <g
     inkscape:label="Ebene 1"
     inkscape:groupmode="layer"
     id="layer1"
     transform="matrix(0.50225316,0,0,0.50225316,270.90047,-90.115393)">
    <path
       d="m -53.179715,474.928 c -30.302666,68.77733 -92.654665,104.77333 -159.249325,103.94 -127.744,-6.336 -164.904,-153.85866 -79.53334,-207.11866 l 3.756,3.756 c -1.45733,1.912 -6.412,5.92933 -14.39466,21.548 -9.30134,18.98 -12.136,37.89733 -11.036,49.73066 6.64666,103.124 150.91866,124.09733 200.61333,22.15467 63.253328,-139.83733 -104.408,-281.85333 -253.27333,-173.31333 l -3.43733,-3.436 c 39.15599,-61.43733 115.66399,-88.93467 188.73732,-70.56267 C -69.255715,249.56401 -9.2690499,366.116 -53.179715,474.928 Z m -119.437335,-2.21467 c -10.344,14.88934 -27.568,24.64 -47.07199,24.64 -31.636,0 -57.28134,-25.64533 -57.28134,-57.28133 0,-30.23733 23.43067,-55 53.12534,-57.12933 l 0,10e-4 c 18.49333,-0.744 35.72533,9.24934 43.93066,25.45334 8.84533,17.47066 5.608,39.01999 -8.16933,53.55066 5.15466,3.58933 10.31066,7.17733 15.46666,10.76533 z m -199.83999,-37.83066 c -2.76133,22.74933 -1.04,29.85333 -1.04667,32.55733 l -5.05333,1.83867 c -1.91067,-3.74134 -6.764,-16.924 -8.90267,-34.63867 -5.468,-67.63466 40.616,-128.58399 110.77067,-139.92933 64.34133,-9.456 125.85999,30.504 140.27066,86.43733 l -5.068,1.844 c -1.50667,-1.66533 -4.19333,-6.192 -13.91867,-16.04933 -77.59466,-77.952 -199.54932,-42.19867 -217.05199,67.94 z m 368.0093233,-37.508 C -9.0410499,173.85601 -305.92371,90.55201 -420.22304,300.00801 c 5.0516,3.65466 12.03867,8.6 17.09,12.25333 -8.75667,18.39066 -14.5936,37.124 -17.7868,55.796 -2.2208,12.24 -3.38653,24.848 -3.38653,37.72933 0,115.992 94.02933,210.02133 210.02133,210.02133 115.990659,0 210.01999,-94.02933 210.01999,-210.02133 0,-2.81867 -0.072,-5.62 -0.1826667,-8.412"
       style="fill:#000000;fill-opacity:1;fill-rule:nonzero;stroke:none"
       id="path14"
       inkscape:connector-curvature="0" />
    <path
       d="m 110.79895,679.6 -33.517335,0 0,95.07858 -25.994666,0 0,-95.07858 -33.688,0 0,-24.6256 93.200001,0 z m -159.093332,0 0,27.70413 50.7906651,0 0,19.83586 -50.7906651,0 0,47.53859 -25.990666,0 0,-119.70418 81.9106643,0 0,24.6256 z m -62.922668,35.22653 c 0,-21.5464 -13.68,-37.27973 -34.544,-37.27973 -12.14133,0 -21.204,4.6172 -26.676,10.60266 l 4.104,4.1052 c -6.328,5.30147 -11.97066,12.65467 -11.97066,25.82133 0,18.12814 12.82533,34.0292 34.54266,34.0292 20.864,0 34.544,-15.73186 34.544,-37.27866 z m 26.334669,0 c 0,35.22813 -25.309329,61.90413 -60.878669,61.90413 -36.42266,0 -60.87733,-26.164 -60.87733,-57.8 0,-20.52133 8.03733,-35.3984 19.836,-45.14693 l -4.104,-4.1036 c 9.064,-9.40413 25.65067,-16.75733 45.14533,-16.75733 35.56934,0 60.878669,27.01826 60.878669,61.90373 z M -244.98771,703.3692 c 20.52,7.18279 31.12267,16.41719 31.12267,34.88546 0,24.79573 -18.98134,38.476 -41.38267,38.476 -20.692,0 -36.596,-9.23333 -43.26533,-26.33493 l 20.692,-15.38907 c 3.76266,10.77347 13.50933,17.4428 23.25733,17.4428 8.54933,0 14.70667,-4.6188 14.70667,-12.3136 0,-7.1828 -4.61867,-11.62813 -21.71867,-17.78387 -18.46933,-6.6708 -32.14933,-15.90413 -32.14933,-35.74106 0,-19.15373 15.904,-33.68813 38.99066,-33.68813 18.296,0 32.49067,7.3532 39.16,21.88813 l -20.69333,14.36347 c -3.932,-8.89067 -10.088,-13.84894 -19.49333,-13.84894 -7.86667,0 -13.68,4.27454 -13.68,10.43067 0,7.01053 6.49733,11.28493 24.45333,17.61307 z m -88.80933,-48.3948 25.992,0 0,119.70418 -25.992,0 z m -53.50667,96.78959 c 11.11467,0 17.44267,-5.13066 17.44267,-15.04786 0,-9.9188 -6.328,-15.048 -17.44267,-15.048 l -14.364,0 0,30.09586 z m -14.364,-73.87453 0,25.30947 13.68134,0 c 8.036,0 13.508,-4.61773 13.508,-12.65627 0,-8.036 -5.472,-12.6532 -13.508,-12.6532 z m 57.8,61.21987 c 0,20.69213 -16.24533,35.56925 -42.40933,35.56925 l -41.384,0 0,-119.70418 39.84533,0 c 23.084,0 38.30534,11.11506 38.30534,28.89893 0,13.5104 -6.328,21.7188 -15.73334,25.65213 12.65334,4.788 21.376,13.5104 21.376,29.58387 z m -96.66093,-84.13493 0,71.82293 c 0,28.5588 -17.4428,49.93333 -49.42093,49.93333 -31.97813,0 -49.4208,-21.37453 -49.4208,-49.93333 l 0,-71.82293 25.9932,0 0,69.76986 c 0,17.44373 8.2084,27.36093 23.4276,27.36093 15.21933,0 23.4276,-9.9172 23.4276,-27.36093 l 0,-69.76986 25.99333,0"
       style="fill:#000000;fill-opacity:1;fill-rule:nonzero;stroke:none"
       id="path16"
       inkscape:connector-curvature="0" />
  </g>
</svg>
