<?xml version="1.0" encoding="UTF-8" standalone="no"?>
<svg
   xmlns:dc="http://purl.org/dc/elements/1.1/"
   xmlns:cc="http://creativecommons.org/ns#"
   xmlns:rdf="http://www.w3.org/1999/02/22-rdf-syntax-ns#"
   xmlns:svg="http://www.w3.org/2000/svg"
   xmlns="http://www.w3.org/2000/svg"
   version="1.1"
   id="svg2"
   xml:space="preserve"
   width="452.57199"
   height="144"
   viewBox="0 0 452.57199 144"><metadata
     id="metadata8"><rdf:RDF><cc:Work
         rdf:about=""><dc:format>image/svg+xml</dc:format><dc:type
           rdf:resource="http://purl.org/dc/dcmitype/StillImage" /><dc:title></dc:title></cc:Work></rdf:RDF></metadata><defs
     id="defs6" /><g
     transform="matrix(0.99999729,0,0,0.99999729,-301.71319,-335.9991)"
     id="g137"><path
       transform="matrix(1.333333,0,0,-1.333333,375.04359,466.56641)"
       id="path14"
       style="fill:#d22a36;fill-opacity:1;fill-rule:nonzero;stroke:none"
       d="M 0,0 -4.906,12.641 42.515,10.203 40.386,-10.029 Z" /><path
       transform="matrix(1.333333,0,0,-1.333333,390.19399,336.00001)"
       id="path18"
       style="fill:#d22a36;fill-opacity:1;fill-rule:nonzero;stroke:none"
       d="m 0,0 -66.36,-31.348 10.263,-47.237 h 13.536 l -2.338,33.79 2.077,0.644 8.139,-34.434 h 14.063 l -0.521,41.16 2.078,0.644 7.113,-41.804 H 2.939 l 3.512,49.718 2.076,0.644 3.685,-50.362 H 31.9 l 6.93,69.137 z" /><path
       transform="matrix(1.333333,0,0,-1.333333,663.44665,473.11334)"
       id="path22"
       style="fill:#d22a36;fill-opacity:1;fill-rule:nonzero;stroke:none"
       d="m 0,0 -0.137,3.941 13.624,0.161 0.125,4.295 -13.91,0.173 -0.139,3.99 18.326,0.429 0.151,4.712 H -6.684 L -7.421,-5.165 h 25.917 l -0.182,4.721 z m -123.275,8.407 -0.291,-4.278 6.876,-0.23 -0.087,-4.343 -14.392,0.422 0.627,12.544 19.788,0.458 -0.286,4.721 h -25.56 l -2.292,-22.866 h 29.123 l -0.755,13.794 z m 180.39,-1.769 -18.889,3.193 0.082,2.475 18.07,0.674 -0.456,4.721 H 32.694 L 31.506,5.849 50.709,2.51 50.796,0.332 30.816,-0.444 30.326,-5.165 H 58.29 Z" /><path
       transform="matrix(1.333333,0,0,-1.333333,636.83065,480.00001)"
       id="path26"
       style="fill:#d22a36;fill-opacity:1;fill-rule:nonzero;stroke:none"
       d="m 0,0 -2.292,22.866 h -6.58 l -9.453,-10.9 -9.454,10.9 h -6.58 L -36.651,0 h 7.73 l 0.74,14.834 9.856,-10.113 9.854,10.113 L -7.729,0 Z" /><path
       transform="matrix(1.333333,0,0,-1.333333,593.51425,337.86334)"
       id="path30"
       style="fill:#d22a36;fill-opacity:1;fill-rule:nonzero;stroke:none"
       d="m 0,0 h -15.471 l -1.408,-70.714 H 1.813 Z" /><path
       transform="matrix(1.333333,0,0,-1.333333,657.43225,411.63934)"
       id="path34"
       style="fill:#d22a36;fill-opacity:1;fill-rule:nonzero;stroke:none"
       d="m 0,0 -17.071,-0.551 -0.566,41.588 17.854,-0.541 z m 14.961,55.301 h -48.234 l -1.878,-70.683 h 53.537 z" /><path
       transform="matrix(1.333333,0,0,-1.333333,754.28638,358.49681)"
       id="path38"
       style="fill:#d22a36;fill-opacity:1;fill-rule:nonzero;stroke:none"
       d="m 0,0 -1.723,15.475 h -47.524 l 0.402,-13.785 15.2,-0.526 1.558,-56.403 h 18.73 L -18.96,0.656 Z" /><path
       transform="matrix(1.333333,0,0,-1.333333,509.31705,357.15108)"
       id="path42"
       style="fill:#d22a36;fill-opacity:1;fill-rule:nonzero;stroke:none"
       d="M 0,0 14.908,0.499 16.607,-13.59 -0.6,-21.718 Z M 17.417,-56.248 H 37.72 l -13.232,31.737 10.559,5.769 -7.214,33.208 h -51.828 l -1.706,-15.325 11.594,0.387 -5.591,-55.776 h 18.145 l 0.491,17.78 13.074,7.142 z" /><path
       transform="matrix(1.333333,0,0,-1.333333,545.70572,466.25907)"
       id="path46"
       style="fill:#d22a36;fill-opacity:1;fill-rule:nonzero;stroke:none"
       d="M 0,0 1.572,7.481 9.12,7.822 10.697,0.315 Z m 12.93,-10.306 h 7.827 L 14.564,12.561 H -3.801 l -6.192,-22.867 h 7.827 l 1.212,5.769 12.706,-0.164 z" /></g></svg>