<?xml version="1.0" encoding="UTF-8" standalone="no"?>
<!DOCTYPE svg PUBLIC "-//W3C//DTD SVG 1.1//EN" "http://www.w3.org/Graphics/SVG/1.1/DTD/svg11.dtd">
<svg width="100%" height="100%" viewBox="0 0 352 165" version="1.1" xmlns="http://www.w3.org/2000/svg" xmlns:xlink="http://www.w3.org/1999/xlink" xml:space="preserve" xmlns:serif="http://www.serif.com/" style="fill-rule:evenodd;clip-rule:evenodd;stroke-linejoin:round;stroke-miterlimit:1.41421;">
    <g id="Redmi" transform="matrix(1,0,0,1,-784,-464)">
        <path id="R" d="M798,562L784,562L784,466L820,466C835.991,466.02 847.924,475.568 848,492C848.062,505.499 840.456,514.718 830,519L851,562L834,562L815,520L798,520L798,562ZM816,477L798,477L798,509L817,509C823.945,509.085 833.896,504.792 834,493C834.1,481.632 825.146,477.006 816,477Z"/>
        <path id="e" d="M920,533L920,521C920.266,506.565 911.198,491.032 890,491C866.127,490.963 856.872,510.361 857,527C857.198,552.847 870.844,565.055 893,565C904.323,564.972 911.333,561.651 918,558L918,547C910.303,549.827 904.493,553.094 893,553C877.622,552.874 872.057,541.074 872,533L920,533ZM872,523L907,523L907,520C906.897,511.431 901.036,501.965 890,502C877.359,502.04 871.876,513.505 872,520L872,523Z"/>
        <path id="d" d="M993,559L993,464L979,468L979,494C975.002,491.783 970.226,491.036 965,491C939.583,490.822 931.841,509.474 932,528C932.206,551.966 945.934,565.355 968,565C977.536,564.847 984.876,563.077 993,559ZM979,506L979,550C975.517,552.083 971.926,552.644 968,552.59C948.606,552.321 947.038,535.207 947,528C946.926,513.948 951.753,502.795 966,503C971.549,503.08 974.749,503.814 979,506Z"/>
        <path id="m" d="M1008,499L1008,562L1022,562L1022,507C1024.83,504.597 1028.16,503.01 1034,503C1042.12,502.987 1048.9,507.45 1049,517L1049,562L1064,562L1064,509C1067.31,505.402 1070.61,503.014 1078,503C1087.81,502.982 1090.96,508.983 1091,517L1091,562L1105,562L1105,513C1104.76,495.271 1090.39,490.959 1081,491C1067.7,491.058 1063.34,494.74 1057,499C1051.74,493.981 1046.83,490.944 1035,491C1020.96,491.066 1015.25,494.47 1008,499Z" style="fill:rgb(13,13,13);"/>
        <rect id="I" x="1119" y="495" width="15" height="67"/>
        <g id="_." serif:id="." transform="matrix(1.05556,0,0,1.05556,-62.0556,-26.8889)">
            <circle cx="1126" cy="475" r="9"/>
        </g>
    </g>
    <g id="by-Xiaomi" serif:id="by Xiaomi" transform="matrix(1,0,0,1,-783.762,-464)">
        <g id="by">
            <path id="y" d="M888.728,600.807L891.186,600.805L899.581,617.45L906.847,600.853L909.245,600.859L898.662,624.982C898.215,626.106 896.809,628.031 893.683,628.058C891.883,628.073 889.869,627.314 888.982,625.98L890.804,624.724C891.07,625.198 892.28,625.848 893.611,625.855C894.992,625.862 896.097,625.288 896.616,624.189L898.407,620.085L888.728,600.807Z"/>
            <path id="b" d="M865.478,592.003L867.622,592.003L867.643,603.745C869.831,601.087 872.874,600.13 875.986,600.088C882.611,600 885.895,605.084 885.905,610.622C885.916,616.954 881.021,620.925 876.218,620.998C872.486,621.055 869.492,619.478 867.656,617.218L867.667,620.996L865.474,621.009L865.478,592.003ZM867.595,610.616C867.613,605.924 870.368,602.374 876.016,602.257C880.113,602.171 883.575,604.8 883.647,610.535C883.714,615.863 879.338,618.837 876.016,618.794C870.418,618.721 867.579,614.835 867.595,610.616Z"/>
        </g>
        <g id="Xiaomi">
            <path id="X" d="M925.137,593.014L927.928,592.985L937.375,604.828L946.803,592.996L949.622,592.987L938.806,606.611L950.254,621.002L947.445,621.004L937.355,608.391L927.302,621.003L924.49,620.999L935.968,606.593L925.137,593.014Z"/>
            <g id="i">
                <g transform="matrix(1,0,0,6.80515,0,-3431.26)">
                    <rect x="955.427" y="592.53" width="2.188" height="2.94"/>
                </g>
                <g transform="matrix(1,0,0,1,0,0.454964)">
                    <rect x="955.427" y="592.53" width="2.188" height="2.94"/>
                </g>
            </g>
            <path id="a" d="M966.672,603.864L965.451,602.045C967.035,601.063 968.627,600.075 972.603,600.176C976.503,600.275 980.953,603.154 980.926,606.994L980.926,621.009L978.734,621.012L978.733,618.641C976.646,620.596 974.172,621.437 971.432,621.507C967.014,621.621 963.625,619.204 963.632,615.202C963.637,612.104 964.962,608.085 972.279,608.001C975.343,607.965 978.736,608.859 978.736,608.859L978.737,607.205C978.791,605.05 976.268,602.379 972.156,602.376C969.537,602.375 968.189,602.865 966.672,603.864ZM978.738,611.152L978.738,615.216C976.774,618.092 974.221,619.318 971.208,619.317C967.8,619.317 965.891,617.921 965.818,615.089C965.736,611.875 968.004,610.226 972.442,610.19C974.542,610.173 976.641,610.552 978.738,611.152Z"/>
            <path id="o" d="M997.141,600.155C1002.85,600.155 1007.48,605.02 1007.48,611.012C1007.48,617.004 1002.85,621.869 997.141,621.869C991.437,621.869 986.806,617.004 986.806,611.012C986.806,605.02 991.437,600.155 997.141,600.155ZM997.141,602.367C1001.64,602.367 1005.29,606.241 1005.29,611.012C1005.29,615.783 1001.64,619.657 997.141,619.657C992.642,619.657 988.989,615.783 988.989,611.012C988.989,606.241 992.642,602.367 997.141,602.367Z"/>
            <path id="m1" serif:id="m" d="M1013.37,600.978L1013.37,620.971L1015.53,620.971L1015.53,609.028C1015.56,606.641 1017.29,602.328 1022.3,602.329C1024.93,602.33 1027.84,603.652 1027.97,606.511L1027.97,620.971L1030.17,620.971L1030.17,607.149C1030.19,605.253 1032.63,602.601 1036.55,602.538C1040.07,602.481 1042.38,604.573 1042.43,607.889L1042.43,621.003L1044.59,621.003L1044.59,607.996C1044.64,603.412 1041.5,600.254 1036.48,600.305C1033.96,600.33 1031.48,601.064 1029.39,603.601C1027.95,601.585 1025.81,600.093 1022.12,600.128C1019.88,600.149 1017.61,600.894 1015.53,603.105L1015.53,600.978L1013.37,600.978Z"/>
            <g id="i1" serif:id="i" transform="matrix(1,0,0,1,96.4344,0)">
                <g transform="matrix(1,0,0,6.80515,0,-3431.26)">
                    <rect x="955.427" y="592.53" width="2.188" height="2.94"/>
                </g>
                <g transform="matrix(1,0,0,1,0,0.454964)">
                    <rect x="955.427" y="592.53" width="2.188" height="2.94"/>
                </g>
            </g>
        </g>
    </g>
</svg>