<?xml version="1.0" encoding="UTF-8" standalone="no"?>
<!-- Created with Inkscape (http://www.inkscape.org/) -->
<svg id="svg2" xmlns:rdf="http://www.w3.org/1999/02/22-rdf-syntax-ns#" xmlns="http://www.w3.org/2000/svg" height="27.962mm" width="98.778mm" version="1.1" xmlns:cc="http://creativecommons.org/ns#" xmlns:dc="http://purl.org/dc/elements/1.1/" viewBox="0 0 350 99.076845">
 <defs id="defs4">
  <clipPath id="clipPath4348" clipPathUnits="userSpaceOnUse">
   <path id="path4350" d="m278 259.91h478v192.17h-478v-192.17z"/>
  </clipPath>
 </defs>
 <metadata id="metadata7">
  <rdf:RDF>
   <cc:Work rdf:about="">
    <dc:format>image/svg+xml</dc:format>
    <dc:type rdf:resource="http://purl.org/dc/dcmitype/StillImage"/>
    <dc:title/>
   </cc:Work>
  </rdf:RDF>
 </metadata>
 <g id="layer1" transform="translate(210.64 -441.9)">
  <g id="g5284" transform="matrix(.69664 0 0 .69664 -63.9 164.11)">
   <g id="g4346" clip-path="url(#clipPath4348)" transform="matrix(1.25 0 0 -1.25 -607.14 914.86)">
    <g id="g4352" transform="translate(510.41 323.86)">
     <path id="path4354" d="m0 0h-12.482c-0.06 0-0.094 0.009-0.125 0.053l-10.758 13.131-10.763-13.131c-0.025-0.044-0.069-0.053-0.119-0.053h-9.999c-0.06 0-0.109 0.031-0.15 0.097-0.019 0.037-0.016 0.106 0.022 0.156l15.848 19.459-15.664 19.276c-0.047 0.062-0.047 0.121-0.025 0.184 0.025 0.034 0.087 0.09 0.137 0.09h12.492c0.034 0 0.087-0.022 0.115-0.075l9.438-11.699 9.604 11.705c0.028 0.047 0.075 0.069 0.118 0.069h10.181c0.059 0 0.121-0.056 0.146-0.09 0.025-0.063 0.019-0.128-0.025-0.184l-14.865-17.854 16.983-20.881c0.038-0.05 0.056-0.119 0.022-0.156-0.022-0.066-0.081-0.097-0.131-0.097" fill="#072f54"/>
    </g>
    <g id="g4356" transform="translate(577.97 356.2)">
     <path id="path4358" d="m0 0c-5.527 0-9.307-3.353-10.383-9.189h18.811v0.381c0 4.663-3.441 8.808-8.428 8.808m18.128-15.168c-0.032-0.04-0.088-0.075-0.138-0.075h-28.576c0.599-6.652 4.916-10.442 11.905-10.442 4.311 0 8.883 1.469 15.34 4.903 0.118 0.069 0.243-0.028 0.243-0.15l-0.019-8.789c-0.009-0.075-0.04-0.119-0.09-0.134-6.014-2.533-12.049-4.261-16.793-4.261-12.301 0-21.225 8.967-21.225 21.319 0 12.345 8.924 21.312 21.225 21.312 11.222 0 18.433-7.561 18.433-17.962 0-1.682-0.29-5.596-0.305-5.721" fill="#072f54"/>
    </g>
    <g id="g4360" transform="translate(654.14 371.23)">
     <path id="path4362" d="m0 0c-3.506 0-6.357 2.807-6.357 6.26 0 3.555 2.851 6.441 6.357 6.441 3.503 0 6.357-2.886 6.357-6.441 0-3.453-2.854-6.26-6.357-6.26m-5.134-47.365c-0.1 0-0.162 0.059-0.162 0.159v38.938c0 0.081 0.056 0.143 0.125 0.162h10.32c0.085-0.019 0.128-0.081 0.128-0.162v-38.938c0-0.1-0.068-0.159-0.149-0.159h-10.262z" fill="#072f54"/>
    </g>
    <g id="g4364" transform="translate(529.28 329.72)">
     <path id="path4366" d="m0 0c-1.859 0-3.765 0.265-5.954 0.848l0.022 24.984c2.56 0.814 4.797 1.2 7.005 1.2 7.152 0 11.952-5.277 11.952-13.115 0-8.456-5.112-13.917-13.025-13.917m2.807 34.989c-2.91 0-5.854-0.53-8.936-1.591h-10.271c-0.09 0-0.143-0.071-0.143-0.162v-63.852c3.1 0.424 6.899 1.525 10.592 4.157l-0.003 19.423c2.526-0.359 4.619-0.599 6.64-0.599 14.061 0 23.162 8.427 23.162 21.483 0 12.448-8.655 21.141-21.041 21.141" fill="#072f54"/>
    </g>
    <g id="g4368" transform="translate(630.22 332.96)">
     <path id="path4370" d="m0 0c-3.216-1.687-6.088-2.489-8.786-2.489-6.372 0-10.187 4.501-10.187 12.043 0 8.717 4.872 14.359 12.408 14.359 2.08 0 4.104-0.511 6.565-1.625v-22.288zm0 50.781v-20.383c-3.013 0.858-5.667 1.26-8.346 1.26-12.243 0-21.481-9.232-21.481-21.484 0-12.195 8.153-21.044 19.369-21.044 3.883 0 7.52 0.977 11.796 3.175l-0.009-3.518c2.822 0.54 6.066 1.666 9.263 3.936v62.228c-3.138-0.421-6.862-1.472-10.592-4.17" fill="#072f54"/>
    </g>
    <g id="g4372" transform="translate(695.17 333.04)">
     <path id="path4374" d="m0 0c-3.11-1.793-5.776-2.661-8.156-2.661-6.821 0-10.907 4.489-10.907 12.052 0 8.59 4.812 14.357 11.967 14.357 1.915 0 4.242-0.736 7.096-2.239v-21.509zm10.605 30.554c0 0.243-0.206 0.436-0.443 0.436l-8.337-0.015c-0.25 0-0.459-0.206-0.459-0.443v-1.422h-0.209c-3.852 1.687-7.139 2.47-10.371 2.47-11.537 0-20.588-9.575-20.588-21.833 0-12.386 8.1-20.695 20.152-20.695 3.219 0 7.351 0.219 11.216 4.669v-5.009c2.735 0.58 5.963 1.741 9.026 3.946l0.013 37.896z" fill="#072f54"/>
    </g>
    <g id="g4376" transform="translate(437.61 333.6)">
     <path id="path4378" d="m0 0 25.906 0.009c-0.386-2.897-1.369-6.284-3.618-9.74h-22.229l-4.426 0.003c-0.09 0-0.187-0.003-0.293-0.003-3.3 0-6.013 2.557-6.335 5.789-0.015 0.046-0.037 0.096-0.04 0.14v26.536 24.56c0.003 0.037 0.025 0.093 0.04 0.124 0.322 3.238 3.035 5.805 6.335 5.805 0.106 0 0.203-0.013 0.293-0.013l30.217 0.007c-0.396-2.892-1.375-6.363-3.621-9.81h-22.229v-13.911h22.005c0.093 0 0.159-0.065 0.159-0.152v-9.647c0-0.082-0.066-0.153-0.159-0.153h-22.005v-19.535-0.009z" fill="#072f54"/>
    </g>
    <g id="g4380" transform="translate(405.18 323.06)">
     <path id="path4382" d="m0 0c-2.561 0-4.145 2.002-4.145 4.451 0 2.623 1.815 4.451 4.145 4.451 2.305 0 4.114-1.828 4.114-4.451s-1.809-4.451-4.114-4.451m0 9.401c-2.62 0-4.866-1.972-4.866-4.95 0-2.814 2.025-4.934 4.866-4.934 2.589 0 4.838 1.961 4.838 4.934 0 2.978-2.249 4.95-4.838 4.95" fill="#072f54"/>
    </g>
    <g id="g4384" transform="translate(404.02 327.92)">
     <path id="path4386" d="m0 0v1.8h1.216c0.618 0 1.345-0.088 1.345-0.836 0-0.895-0.674-0.964-1.435-0.964h-1.126zm3.459 0.842c0 1.185-0.727 1.684-2.133 1.684h-2.221v-5.854h0.964v2.505h0.898l1.516-2.505h1.088l-1.64 2.57c0.882 0.106 1.528 0.54 1.528 1.6" fill="#072f54"/>
    </g>
    <g id="g4388" transform="translate(714.3 356.64)">
     <path id="path4390" d="m0 0c-2.564 0-4.151 2.002-4.151 4.451 0 2.623 1.815 4.451 4.151 4.451 2.302 0 4.114-1.828 4.114-4.451s-1.812-4.451-4.114-4.451m0 9.401c-2.623 0-4.866-1.972-4.866-4.95 0-2.814 2.022-4.934 4.866-4.934 2.583 0 4.831 1.965 4.831 4.934 0 2.978-2.248 4.95-4.831 4.95" fill="#072f54"/>
    </g>
    <g id="g4392" transform="translate(713.13 361.5)">
     <path id="path4394" d="m0 0v1.797h1.216c0.618 0 1.345-0.085 1.345-0.833 0-0.895-0.674-0.964-1.432-0.964h-1.129zm3.462 0.842c0 1.182-0.73 1.684-2.136 1.684h-2.221v-5.854h0.96v2.501h0.902l1.516-2.501h1.088l-1.637 2.57c0.876 0.106 1.528 0.537 1.528 1.6" fill="#072f54"/>
    </g>
    <g id="g4396" transform="translate(371.76 377.05)">
     <path id="path4398" d="m0 0-1.878 5.318-15.935 21.293 2.86 0.712l27.479-23.749 16.166 4.626c1.899 0.486 4.054 0.596 5.698 0.583-5.081 10.96-14.378 19.956-26.655 24.328-24.269 8.649-50.949-4.033-59.588-28.308-2.67-7.517-3.3-15.261-2.181-22.628l38.729 13.449 15.305 4.376z" fill="#072f54"/>
    </g>
    <g id="g4400" transform="translate(407.86 381.64)">
     <path id="path4402" d="m0 0c-1.422-0.917-3.506-2.133-5.577-2.795l-16.203-4.625-10.811-34.702-2.807-0.914 2.287 26.505-1.276 5.505-15.18-4.335-40.136-9.448c3.185-15.439 14.114-28.894 30.052-34.571 24.272-8.652 50.943 4.033 59.582 28.296 3.718 10.464 3.478 21.368 0.069 31.084" fill="#072f54"/>
    </g>
    <g id="g4404" transform="translate(373.47 370.62)">
     <path id="path4406" d="m0 0 1.276-5.505-2.287-26.505 2.808 0.913 10.81 34.703 16.203 4.628c2.071 0.661 4.155 1.875 5.577 2.792-0.502 1.425-1.07 2.826-1.703 4.195-1.647 0.012-3.799-0.094-5.698-0.583l-16.169-4.626-27.476 23.751-2.863-0.714 15.938-21.293 1.878-5.318-15.308-4.373-38.726-13.453c0.122-0.801 0.262-1.603 0.424-2.395l40.136 9.448 15.18 4.335z" fill="#fbc108"/>
    </g>
   </g>
  </g>
 </g>
</svg>
