<?xml version="1.0" encoding="UTF-8" standalone="no"?>
<!-- Created with Inkscape (http://www.inkscape.org/) -->

<svg
   xmlns:dc="http://purl.org/dc/elements/1.1/"
   xmlns:cc="http://creativecommons.org/ns#"
   xmlns:rdf="http://www.w3.org/1999/02/22-rdf-syntax-ns#"
   xmlns:svg="http://www.w3.org/2000/svg"
   xmlns="http://www.w3.org/2000/svg"
   xmlns:sodipodi="http://sodipodi.sourceforge.net/DTD/sodipodi-0.dtd"
   xmlns:inkscape="http://www.inkscape.org/namespaces/inkscape"
   width="72.79071"
   height="14.23485"
   viewBox="0 0 19.259208 3.7663041"
   version="1.1"
   id="svg6108"
   inkscape:version="0.92.0 r15299"
   sodipodi:docname="orbitz.svg">
  <defs
     id="defs6102">
    <clipPath
       id="clipPath2773"
       clipPathUnits="userSpaceOnUse">
      <path
         inkscape:connector-curvature="0"
         id="path2771"
         d="m 233,296.151 h 74.029 v 15.548 H 233 Z" />
    </clipPath>
  </defs>
  <sodipodi:namedview
     id="base"
     pagecolor="#ffffff"
     bordercolor="#666666"
     borderopacity="1.0"
     inkscape:pageopacity="0.0"
     inkscape:pageshadow="2"
     inkscape:zoom="12.494652"
     inkscape:cx="35.895356"
     inkscape:cy="6.6173219"
     inkscape:document-units="mm"
     inkscape:current-layer="layer1"
     showgrid="false"
     fit-margin-top="0"
     fit-margin-left="0"
     fit-margin-right="0"
     fit-margin-bottom="0"
     units="px"
     inkscape:window-width="1280"
     inkscape:window-height="744"
     inkscape:window-x="-4"
     inkscape:window-y="-4"
     inkscape:window-maximized="1" />
  <metadata
     id="metadata6105">
    <rdf:RDF>
      <cc:Work
         rdf:about="">
        <dc:format>image/svg+xml</dc:format>
        <dc:type
           rdf:resource="http://purl.org/dc/dcmitype/StillImage" />
        <dc:title></dc:title>
      </cc:Work>
    </rdf:RDF>
  </metadata>
  <g
     inkscape:label="Layer 1"
     inkscape:groupmode="layer"
     id="layer1"
     transform="translate(2.9746861,-147.34395)">
    <g
       id="g6326"
       transform="translate(0.13229237,-0.13228802)">
      <path
         d="m 7.9481443,151.01677 1.4562666,-3.29636 c 0.022225,-0.0508 -0.00459,-0.0931 -0.061031,-0.0931 H 8.3238526 c -0.055739,0 -0.1192389,0.0423 -0.1418166,0.0938 l -1.4375695,3.2953 c -0.021519,0.0508 0.00564,0.0931 0.061031,0.0931 h 1.0004778 c 0.055739,0 0.1202972,-0.042 0.1421694,-0.0928"
         style="fill:#00263d;fill-opacity:1;fill-rule:nonzero;stroke:none;stroke-width:0.35277778"
         id="path1233"
         inkscape:connector-curvature="0" />
      <path
         d="m 13.169463,150.12914 2.259189,-2.50049 h -2.642306 l -0.597958,0.96344 h 1.036461 l -2.296583,2.51812 h 2.796822 l 1.041753,-0.98107 z"
         style="fill:#00263d;fill-opacity:1;fill-rule:nonzero;stroke:none;stroke-width:0.35277778"
         id="path1237"
         inkscape:connector-curvature="0" />
      <path
         d="M 3.4970035,147.62869 H 1.7479313 c -0.096661,0 -0.2088444,0.073 -0.2480028,0.16263 l -1.37653881,3.1563 c -0.03951111,0.0893 0.008467,0.16263 0.1061861,0.16263 H 1.0967036 c 0.098425,0 0.2095499,-0.0734 0.2487083,-0.16227 l 0.3922889,-0.8943 h 0.4074583 c 0.1266472,-0.008 0.1813278,0.0381 0.111125,0.18592 l -0.3023306,0.70732 c -0.0381,0.09 0.010231,0.16333 0.1075973,0.16333 h 0.8678333 c 0.097014,0 0.2084916,-0.0734 0.24765,-0.16333 l 0.3940527,-0.91087 c 0.123825,-0.29563 -0.055386,-0.52459 -0.3150305,-0.53729 0.2307166,-0.0822 0.4420305,-0.31185 0.5372805,-0.51858 l 0.2035528,-0.48083 c 0.2462389,-0.55775 0.071261,-0.87807 -0.4998861,-0.87066 m -0.5104694,0.99519 -0.2155473,0.47519 c -0.049742,0.11465 -0.1224138,0.12276 -0.1936749,0.11994 H 2.089773 l 0.3259666,-0.73907 h 0.4674306 c 0.1135944,0.006 0.1432278,0.0476 0.1033639,0.14394"
         style="fill:#00263d;fill-opacity:1;fill-rule:nonzero;stroke:none;stroke-width:0.35277778"
         id="path1249"
         inkscape:connector-curvature="0" />
      <path
         d="m 6.9028551,147.62746 h -1.8542 c -0.069497,0 -0.1495777,0.0526 -0.1770944,0.11606 l -1.4174611,3.24944 c -0.027517,0.0642 0.00635,0.11571 0.0762,0.11571 h 1.984375 c 0.6293555,-0.009 0.9898944,-0.14887 1.2777611,-0.81492 l 0.2035527,-0.44344 c 0.1608667,-0.38064 0.00317,-0.54469 -0.2966861,-0.59337 0.2501195,-0.0769 0.4374445,-0.31186 0.5185833,-0.51858 l 0.1661584,-0.35172 c 0.2039055,-0.47096 0.033514,-0.76588 -0.4811889,-0.75918 m -0.9084028,2.18017 -0.1262944,0.25259 c -0.0635,0.17603 -0.1732139,0.22366 -0.3277305,0.22613 H 4.9601079 l 0.2776361,-0.65511 h 0.5803195 c 0.1640416,0.012 0.2282472,0.0522 0.1763888,0.17639 m 0.3330223,-1.16664 -0.087842,0.20003 -0.0127,0.0261 c -0.040922,0.0995 -0.1178278,0.13688 -0.2035528,0.13406 H 5.5196135 l 0.2307166,-0.52952 h 0.5122333 c 0.092781,0.006 0.1075973,0.066 0.064911,0.16933"
         style="fill:#00263d;fill-opacity:1;fill-rule:nonzero;stroke:none;stroke-width:0.35277778"
         id="path1253"
         inkscape:connector-curvature="0" />
      <path
         d="m 9.7253933,147.62869 -0.4314472,0.96344 h 0.6148916 c 0.042333,0 0.061736,0.0303 0.044803,0.0688 l -1.0742083,2.38019 c -0.017992,0.0381 0.00282,0.0691 0.044097,0.0691 h 1.0957276 c 0.04198,0 0.08925,-0.031 0.106892,-0.0699 l 1.032228,-2.37878 c 0.01693,-0.0381 0.06385,-0.0695 0.105833,-0.0695 h 0.631119 l 0.593373,-0.96344 z"
         style="fill:#00263d;fill-opacity:1;fill-rule:nonzero;stroke:none;stroke-width:0.35277778"
         id="path1257"
         inkscape:connector-curvature="0" />
      <path
         d="m 0.64027345,148.81378 0.13581944,-0.29669 c 0.27410831,-0.62618 0.0927805,-0.89535 -0.44485277,-0.88829 h -1.29539997 c -0.53163605,-0.007 -0.97719445,0.29351 -1.22272775,0.85161 L -2.5883487,149.61 h -0.3764139 l 0.7228417,0.97614 1.1948583,-0.97614 h -0.3037417 l 0.3510139,-0.81456 c 0.0564444,-0.13371 0.15486944,-0.19827 0.25964444,-0.20356 h 0.20390555 c 0.0483306,0.002 0.0814917,0.0176 0.10018888,0.0385 l 0.63429443,-0.5327 z"
         style="fill:#00263d;fill-opacity:1;fill-rule:nonzero;stroke:none;stroke-width:0.35277778"
         id="path1261"
         inkscape:connector-curvature="0" />
      <path
         d="m -2.2694369,150.87276 -0.5316361,-0.6731 -0.027869,0.0589 c -0.2472973,0.56268 -0.2060223,0.84279 0.3273777,0.85161 h 1.2774083 c 0.52881391,-0.009 0.99201112,-0.28893 1.24107223,-0.85161 L 0.395094,149.38791 h 0.3411361 l -0.58067221,-0.97649 -1.18498049,0.97649 h 0.32561384 l -0.24024166,0.55562 c -0.0578556,0.11783 -0.14569718,0.18204 -0.24024168,0.18556 h -0.1693333 z"
         style="fill:#00b0ff;fill-opacity:1;fill-rule:nonzero;stroke:none;stroke-width:0.35277778"
         id="path1265"
         inkscape:connector-curvature="0" />
      <path
         d="m 15.850254,147.60858 c 0.04692,0 0.08678,0.0166 0.119944,0.0497 0.03316,0.0332 0.04974,0.0727 0.04974,0.11924 0,0.0469 -0.01658,0.0871 -0.04974,0.1203 -0.03316,0.0332 -0.07302,0.0501 -0.119944,0.0501 -0.04692,0 -0.08678,-0.0169 -0.119944,-0.0501 -0.03316,-0.0332 -0.04974,-0.0734 -0.04974,-0.1203 0,-0.0469 0.01658,-0.0868 0.04974,-0.11959 0.03281,-0.0328 0.07303,-0.0494 0.119944,-0.0494 m 0,0.30797 c 0.03845,0 0.07126,-0.0137 0.09878,-0.0409 0.02716,-0.0272 0.04092,-0.06 0.04092,-0.0981 0,-0.0384 -0.01376,-0.0709 -0.04092,-0.0981 -0.02752,-0.0275 -0.06033,-0.0409 -0.09878,-0.0409 -0.0381,0 -0.07091,0.0134 -0.09807,0.0409 -0.02716,0.0272 -0.04092,0.0596 -0.04092,0.0981 0,0.0385 0.01376,0.0713 0.04057,0.0984 0.02716,0.0272 0.05997,0.0406 0.09842,0.0406 m 0.08643,-0.0483 h -0.04057 l -0.04763,-0.0723 h -0.02187 v 0.0723 h -0.03563 v -0.18309 h 0.0575 c 0.0194,0 0.03528,0.005 0.04763,0.0145 0.01235,0.01 0.0187,0.0229 0.0187,0.0395 0,0.0226 -0.01199,0.0388 -0.03528,0.0483 z m -0.110067,-0.1016 h 0.01905 c 0.02293,0 0.03457,-0.009 0.03457,-0.0264 0,-0.0169 -0.01094,-0.0254 -0.03281,-0.0254 h -0.02081 z"
         style="fill:#00263d;fill-opacity:1;fill-rule:nonzero;stroke:none;stroke-width:0.35277778"
         id="path1269"
         inkscape:connector-curvature="0" />
    </g>
  </g>
</svg>
