<?xml version="1.0" encoding="UTF-8" standalone="no"?>
<!-- Created with Inkscape (http://www.inkscape.org/) -->

<svg
   xmlns:dc="http://purl.org/dc/elements/1.1/"
   xmlns:cc="http://creativecommons.org/ns#"
   xmlns:rdf="http://www.w3.org/1999/02/22-rdf-syntax-ns#"
   xmlns:svg="http://www.w3.org/2000/svg"
   xmlns="http://www.w3.org/2000/svg"
   xmlns:sodipodi="http://sodipodi.sourceforge.net/DTD/sodipodi-0.dtd"
   xmlns:inkscape="http://www.inkscape.org/namespaces/inkscape"
   width="145.70576"
   height="35.882561"
   viewBox="0 0 38.551319 9.4939277"
   version="1.1"
   id="svg13124"
   inkscape:version="0.92.0 r15299"
   sodipodi:docname="travelocity.svg">
  <defs
     id="defs13118" />
  <sodipodi:namedview
     id="base"
     pagecolor="#ffffff"
     bordercolor="#666666"
     borderopacity="1.0"
     inkscape:pageopacity="0.0"
     inkscape:pageshadow="2"
     inkscape:zoom="6.1987842"
     inkscape:cx="72.352889"
     inkscape:cy="17.441278"
     inkscape:document-units="mm"
     inkscape:current-layer="layer1"
     showgrid="false"
     fit-margin-top="0"
     fit-margin-left="0"
     fit-margin-right="0"
     fit-margin-bottom="0"
     units="px"
     inkscape:window-width="1280"
     inkscape:window-height="744"
     inkscape:window-x="-4"
     inkscape:window-y="-4"
     inkscape:window-maximized="1" />
  <metadata
     id="metadata13121">
    <rdf:RDF>
      <cc:Work
         rdf:about="">
        <dc:format>image/svg+xml</dc:format>
        <dc:type
           rdf:resource="http://purl.org/dc/dcmitype/StillImage" />
        <dc:title></dc:title>
      </cc:Work>
    </rdf:RDF>
  </metadata>
  <g
     inkscape:label="Layer 1"
     inkscape:groupmode="layer"
     id="layer1"
     transform="translate(65.256464,2.7006842)">
    <g
       id="g13455"
       transform="translate(0.13229046,-0.13229157)">
      <path
         class="st0"
         d="m -64.544776,2.8567032 c 0.06672,-0.033361 0.144563,-0.033361 0.211284,-0.066721 -0.111202,-0.1223218 -0.233524,-0.2335235 -0.322485,-0.3780857 -0.03336,-0.044481 -0.01112,-0.055601 0.01112,-0.066721 0.02224,0 0.01112,-0.044481 0.02224,-0.066721 0.04448,-0.01112 0.04448,-0.066721 0.06672,-0.1000815 0,-0.01112 0,-0.044481 0.01112,-0.055601 0.01112,-0.01112 0.03336,-0.02224 0.0556,0 0.08896,0.1112017 0.189043,0.1779227 0.289125,0.2557639 0.122322,0.088961 0.255764,0.1556824 0.355845,0.266884 0.01112,0 0.04448,0.02224 0.04448,0 0.01112,-0.1112016 0.0556,-0.2224033 0.100081,-0.3113647 0.01112,-0.03336 0.02224,-0.077841 0.04448,-0.1112017 0.03336,-0.066721 0.111202,-0.1112017 0.166802,-0.1556823 0.100082,-0.055601 0.211284,0 0.289125,-0.088961 0.02224,-0.02224 0.06672,0 0.08896,0 0.06672,0.03336 0.155683,0.01112 0.211283,0.066721 -0.08896,0.2001631 -0.08896,0.4114463 -0.155682,0.6227295 -0.01112,0.044481 -0.03336,0.1112017 -0.01112,0.133442 0.100081,0.03336 0.355845,-0.01112 0.366965,-0.02224 0.133443,0 0.255764,0 0.389206,0.03336 0.100082,0.02224 0.166803,0.066721 0.255764,0.1445622 0.144562,0.1112017 0.144562,0.3113647 0.122322,0.4892874 0,0.01112 -0.06672,0.077841 -0.08896,0.066721 -0.01112,0 -0.01112,-0.044481 -0.02224,-0.055601 -0.0556,0.044481 -0.155682,0.1445622 -0.189042,0.1445622 -0.01112,0 -0.07784,-0.066721 -0.111202,-0.088961 -0.111202,-0.077841 -0.244644,-0.055601 -0.366966,-0.044481 -0.144562,0.01112 -0.289124,-0.01112 -0.433686,0.055601 0.0556,0.1000815 0.144562,0.1556824 0.233523,0.2335235 0.133442,0.1334421 0.266884,0.2335236 0.400326,0.3669656 0.08896,0.1000815 0.177923,0.1668026 0.233524,0.2780042 -0.03336,0.02224 0,0.033361 -0.02224,0.055601 -0.02224,0.01112 -0.02224,-0.03336 -0.04448,-0.03336 -0.02224,0 -0.03336,0.03336 -0.03336,0.055601 0.01112,0.01112 -0.02224,0.077841 -0.04448,0.077841 -0.01112,0.01112 -0.06672,0.044481 -0.08896,0.044481 -0.01112,0 -0.07784,-0.03336 -0.07784,-0.02224 0.02224,0.03336 0.04448,0.077841 0.03336,0.088961 -0.0556,-0.01112 -0.08896,-0.01112 -0.122322,-0.055601 -0.177923,-0.1556824 -0.344725,-0.3224849 -0.533768,-0.4892875 -0.06672,-0.066721 -0.111202,-0.1556823 -0.200163,-0.2224034 -0.133442,0.3113648 -0.222404,0.5337682 -0.355846,0.8451329 -0.03336,0.055601 -0.04448,0.200163 -0.07784,0.2112832 -0.02224,0.01112 -0.100081,-0.1000815 -0.144562,-0.1890429 0,-0.1890428 0.02224,-0.2557639 0.03336,-0.4559269 v -0.03336 c 0.01112,-0.2557639 0.08896,-0.4781673 0.07784,-0.7450513 0,-0.02224 -0.03336,-0.033361 -0.06672,-0.033361 -0.333606,-0.03336 -0.65609,-0.077841 -0.989695,-0.1223219 -0.07784,-0.01112 -0.155683,-0.01112 -0.233524,-0.044481 -0.01112,-0.01112 -0.0556,-0.03336 -0.06672,-0.03336 -0.01112,-0.01112 -0.01112,-0.01112 -0.02224,-0.01112 0.133442,-0.133442 0.244643,-0.2780042 0.433686,-0.3558454 0.08896,0 0.222404,-0.055601 0.278004,-0.077841 z"
         id="path12"
         inkscape:connector-curvature="0"
         style="fill:#f58025;stroke-width:0.11120169" />
      <path
         class="st1"
         d="m -61.442248,4.6581705 c -0.02224,-0.01112 -0.01112,-0.03336 -0.01112,-0.03336 0.02224,-0.03336 0.06672,-0.03336 0.08896,-0.03336 0.08896,-0.02224 0.189043,0 0.278004,-0.02224 0.02224,-0.01112 0.03336,-0.033361 0.04448,-0.033361 0.06672,-0.03336 0.133442,-0.044481 0.211283,-0.066721 0.02224,-0.01112 0.06672,-0.03336 0.04448,-0.066721 -0.07784,-0.088961 -0.155683,-0.1668026 -0.200163,-0.2668841 -0.02224,-0.055601 -0.06672,-0.1000815 -0.06672,-0.1556824 0,-0.044481 0.0556,-0.055601 0.100082,-0.033361 0.200163,0.1112017 0.333605,0.2780042 0.478167,0.455927 0.02224,0.03336 0.0556,-0.044481 0.06672,-0.077841 0.06672,-0.1445622 0.111202,-0.3113648 0.189043,-0.455927 0.02224,-0.044481 0.0556,-0.1000815 0.100082,-0.1112017 0.06672,-0.02224 0.111201,-0.066721 0.166802,-0.1000815 0.04448,-0.02224 0.07784,0 0.122322,-0.02224 0.02224,-0.01112 0.06672,0.033361 0.100082,0.02224 0.0556,-0.03336 0.100081,-0.01112 0.155682,0 0.03336,0.02224 0.04448,0.055601 0.03336,0.088961 -0.0556,0.133442 -0.07784,0.266884 -0.166802,0.4003261 -0.06672,0.1000815 -0.111202,0.200163 -0.189043,0.3002445 0,0.01112 -0.01112,0.03336 0.01112,0.03336 0.04448,0.01112 0.100082,0 0.133442,0.02224 0.133442,0.044481 0.266884,0.03336 0.411447,0.055601 0.06672,0.02224 0.06672,0.1223219 0.133442,0.1779227 0.03336,0.02224 -0.02224,0.055601 -0.06672,0.066721 -0.100082,0.03336 -0.200164,-0.01112 -0.300245,0.02224 -0.166803,0.03336 -0.333605,0 -0.489287,0.066721 0.0556,0.055601 0.111201,0.1000815 0.155682,0.1556824 0.04448,0.066721 0.08896,0.133442 0.133442,0.200163 0.04448,0.077841 0.06672,0.1445622 0.08896,0.2224034 0.02224,0.03336 0.01112,0.088961 0.01112,0.133442 -0.02224,-0.01112 -0.02224,-0.044481 -0.03336,-0.055601 -0.02224,0 -0.03336,0.03336 -0.06672,0.03336 -0.02224,-0.01112 -0.03336,-0.03336 -0.04448,-0.044481 -0.03336,-0.03336 -0.06672,-0.088961 -0.07784,-0.133442 -0.06672,-0.1445622 -0.189043,-0.2335236 -0.300244,-0.3224849 -0.111202,0.2335235 -0.189043,0.4670471 -0.344726,0.6894504 -0.01112,0.02224 -0.03336,0.02224 -0.06672,0.02224 -0.01112,-0.01112 -0.02224,0.02224 -0.03336,0.02224 -0.01112,-0.02224 -0.02224,-0.02224 -0.03336,-0.03336 -0.04448,-0.03336 -0.111201,-0.077841 -0.122322,-0.133442 -0.02224,-0.055601 -0.04448,-0.1000815 -0.04448,-0.1556824 0,-0.01112 -0.02224,-0.033361 -0.02224,-0.033361 0.02224,-0.03336 0.02224,-0.088961 0.03336,-0.1112017 0.02224,-0.033361 0.06672,-0.066721 0.06672,-0.1000815 0.04448,-0.1112017 0.122322,-0.200163 0.144562,-0.3113647 -0.211283,-0.03336 -0.433687,-0.02224 -0.64497,-0.1000816 -0.04448,-0.02224 -0.100081,-0.03336 -0.144562,-0.066721 -0.02224,-0.077841 -0.01112,-0.1000815 -0.03336,-0.1112017 z"
         id="path14"
         inkscape:connector-curvature="0"
         style="fill:#003e74;stroke-width:0.11120169" />
      <path
         class="st2"
         d="m -61.186485,1.199798 c 0.06672,-0.1668026 0.177923,-0.26688408 0.189043,-0.45592695 -0.355845,-0.20016304 -0.778411,-0.0778412 -1.045296,-0.54488828 -0.06672,-0.10008152 0,-0.56712862 0.03336,-0.62272947 0.07784,-0.16680253 0.233524,-0.16680253 0.378086,-0.0556008 0.01112,-0.0111202 0.122322,0.0222403 0.144562,0.0333605 0.144562,-0.0222403 0.300244,0.0333605 0.455927,0.066721 0.200163,0.0222403 0.366965,0.10008152 0.556008,0.0778412 0.01112,-0.0111202 0.03336,-0.0556008 0.03336,-0.11120169 -0.04448,-0.27800422 -0.111202,-0.52264794 -0.177923,-0.81177241 -0.03336,-0.066721 -0.02224,-0.1556823 -0.04448,-0.2224033 -0.01112,-0.1668026 -0.122321,-0.4225665 -0.02224,-0.5004076 0.01112,-0.01112 0.03336,0.03336 0.04448,0.02224 0.03336,-0.02224 0.04448,-0.066721 0.07784,-0.055601 0.344725,0.2335236 0.63385,0.589369 0.945214,0.9340942 0.100082,0.1000816 0.122322,-0.1668025 0.200163,-0.2557638 0.02224,-0.044481 0,-0.1445622 0.02224,-0.1779228 0.07784,-0.1445621 0.08896,-0.3224849 0.155682,-0.4559269 0.122322,-0.1668025 0.189043,-0.4225664 0.366966,-0.4892874 0.122321,-0.033361 0.255764,0.01112 0.366965,0.133442 0.02224,0.01112 0.07784,0 0.111202,0.03336 0.122322,0.1112017 0.222403,0.2557639 0.355845,0.3892059 0.04448,0.055601 0.06672,0.1556824 0.04448,0.2001631 -0.03336,0.1890428 -0.200163,0.200163 -0.300245,0.333605 -0.189042,0.3113648 -0.389206,0.62272955 -0.578248,0.93409428 -0.02224,0.0444807 -0.07784,0.1445622 -0.03336,0.18904288 0.266884,0.26688405 0.500408,0.54488828 0.800652,0.75617149 0.189043,0.12232186 0.389206,0.11120169 0.556009,0.27800422 0.122322,0.1445622 0.211283,0.30024453 0.266884,0.48928743 -0.678331,0.4336866 -1.445622,-0.2780043 -2.168433,-0.2668841 -0.0556,0.01112 -0.04448,0.088961 -0.04448,0.1223219 0.03336,0.3113647 0.08896,0.6116093 0.122322,0.9118538 0.01112,0.2112832 0.122322,0.4225665 0.155682,0.6227295 0.01112,0.077841 0.07784,0.2780042 -0.02224,0.266884 -0.111202,0 -0.266884,-0.03336 -0.344725,-0.2112832 -0.100082,-0.2335235 -0.200163,-0.4781672 -0.278004,-0.7339311 -0.01112,-0.077841 -0.04448,-0.1445622 -0.01112,-0.2112832 0.01112,-0.1223219 -0.06672,-0.2335236 -0.100081,-0.3224849 -0.02224,-0.044481 -0.06672,0.02224 -0.100082,0.044481 -0.100081,0.1334421 -0.200163,0.2557639 -0.289124,0.4114463 -0.166803,0.2335236 -0.355845,0.3780857 -0.578249,0.4781673 -0.166802,0.066721 -0.411446,0.1000815 -0.522648,-0.1556824 0.0556,-0.01112 0.100082,-0.133442 0.06672,-0.1668025 -0.255764,-0.3892059 0.100082,-0.6227295 0.211283,-0.9007337 z"
         id="path16"
         inkscape:connector-curvature="0"
         style="fill:#7baed4;stroke-width:0.11120169" />
      <path
         inkscape:connector-curvature="0"
         id="path20"
         d="M -53.713731,5.5700244 H -54.33646 V 2.2450939 h 0.622729 v 0.5560084 c 0.233524,-0.3669656 0.522648,-0.6116093 1.078656,-0.6116093 h 0.04448 v 0.5337681 h -0.04448 c -0.266884,0 -0.478167,0.088961 -0.66721,0.2668841 -0.233523,0.2224034 -0.400326,0.5671286 -0.411446,0.856253 0,0 0,1.7236262 0,1.7236262 z"
         style="fill:#003e74;stroke-width:0.11120169" />
      <path
         inkscape:connector-curvature="0"
         id="path24"
         d="m -51.233933,5.6367454 c -0.745052,0 -1.078657,-0.4892874 -1.078657,-0.9340942 0,-0.7116908 0.600489,-1.0897765 2.146193,-1.3566606 V 3.2014284 c 0,-0.3669656 -0.222403,-0.5560085 -0.65609,-0.5560085 -0.578249,0 -0.778412,0.3669656 -0.834013,0.4781673 l -0.01112,0.044481 -0.567128,-0.2446437 0.02224,-0.044481 c 0.244644,-0.4336866 0.789532,-0.7116908 1.378901,-0.7116908 0.64497,0 1.289939,0.3113647 1.289939,1.0119354 v 1.6346648 c 0,0.3336051 0.03336,0.5115278 0.07784,0.6894505 l 0.01112,0.055601 h -0.64497 l -0.04448,-0.4003261 c -0.233523,0.2446438 -0.600489,0.4781673 -1.089776,0.4781673 z m 1.056416,-1.8125875 c -1.023056,0.1779227 -1.523463,0.4670471 -1.523463,0.8784933 0,0.2668841 0.278004,0.4559269 0.522648,0.4559269 0.311364,0 0.722811,-0.2112832 1.000815,-0.5115277 z"
         style="fill:#003e74;stroke-width:0.11120169" />
      <path
         inkscape:connector-curvature="0"
         id="path28"
         d="m -47.386355,5.5700244 h -0.756171 l -1.067537,-3.3249305 h 0.63385 l 0.834013,2.6132397 0.834012,-2.6132397 h 0.567129 z"
         style="fill:#003e74;stroke-width:0.11120169" />
      <path
         inkscape:connector-curvature="0"
         id="path32"
         d="M -41.848511,5.5700244 H -42.48236 V 1.1441971 l 0.633849,-0.26688402 z"
         style="fill:#003e74;stroke-width:0.11120169" />
      <path
         inkscape:connector-curvature="0"
         id="path36"
         d="m -39.780159,5.6367454 c -0.900734,0 -1.501223,-0.6894505 -1.501223,-1.7236262 0,-1.0341757 0.600489,-1.7236262 1.501223,-1.7236262 0.900733,0 1.501223,0.6894505 1.501223,1.7236262 0,1.0341757 -0.60049,1.7236262 -1.501223,1.7236262 z m 0,-2.9802053 c -0.544888,0 -0.878494,0.4670471 -0.878494,1.2565791 0,0.789532 0.333606,1.2565791 0.878494,1.2565791 0.544888,0 0.878493,-0.4670471 0.878493,-1.2565791 0,-0.789532 -0.333605,-1.2565791 -0.878493,-1.2565791 z"
         style="fill:#003e74;stroke-width:0.11120169" />
      <path
         inkscape:connector-curvature="0"
         id="path40"
         d="m -36.421868,5.6367454 c -0.900734,0 -1.501223,-0.6894505 -1.501223,-1.7236262 0,-1.0341757 0.600489,-1.7236262 1.501223,-1.7236262 0.64497,0 1.100897,0.3002446 1.34554,0.9007337 l 0.02224,0.044481 -0.589369,0.1779227 -0.01112,-0.03336 c -0.08896,-0.2780042 -0.300244,-0.6116093 -0.767291,-0.6116093 -0.556009,0 -0.878494,0.4559269 -0.878494,1.2565791 0,0.8006522 0.322485,1.2565791 0.878494,1.2565791 0.433686,0 0.64497,-0.1445622 0.900734,-0.5782488 l 0.02224,-0.03336 0.533768,0.1890429 -0.02224,0.044481 c -0.389206,0.6004892 -0.789532,0.8340127 -1.434502,0.8340127 z"
         style="fill:#003e74;stroke-width:0.11120169" />
      <path
         inkscape:connector-curvature="0"
         id="path44"
         d="m -33.88647,5.5700244 h -0.622729 V 2.2450939 h 0.622729 z"
         style="fill:#003e74;stroke-width:0.11120169" />
      <path
         d="m -55.64864,5.6367454 c -0.467047,0 -0.778412,-0.1000815 -0.834013,-0.5671286 V 2.7232611 h -0.500408 V 2.256214 h 0.500408 V 1.3443602 l 0.622729,-0.2668841 V 2.256214 h 0.800653 l -0.122322,0.4670471 h -0.66721 v 2.2685145 c 0,0.088961 0.04448,0.1779227 0.344725,0.1779227 0.155682,0 0.278004,-0.01112 0.478167,-0.044481 l 0.06672,-0.01112 -0.122322,0.4670471 h -0.02224 c -0.177923,0.03336 -0.311365,0.055601 -0.544887,0.055601 z"
         id="path48"
         inkscape:connector-curvature="0"
         style="fill:#003e74;stroke-width:0.11120169" />
      <path
         inkscape:connector-curvature="0"
         id="path54"
         d="m -30.494818,6.793243 c -0.166803,0 -0.366966,-0.02224 -0.444807,-0.033361 l -0.04448,-0.01112 0.144563,-0.4670471 h 0.03336 c 0.01112,0 0.03336,0 0.04448,0 0.0556,0.01112 0.122322,0.01112 0.200163,0.01112 0.311365,0 0.68945,-0.077841 0.845133,-0.7339312 l -1.200979,-3.3249305 h 0.589369 l 0.01112,0.02224 0.878493,2.3797162 0.778412,-2.4130767 h 0.65609 L -29.216,5.8146673 c -0.311364,0.856253 -0.934094,0.9785749 -1.278819,0.9785749 z"
         style="fill:#003e74;stroke-width:0.11120169" />
      <path
         inkscape:connector-curvature="0"
         id="path60"
         d="m -31.884839,5.6367454 c -0.467047,0 -0.778412,-0.1000815 -0.834013,-0.5671286 V 5.0584966 2.712141 h -0.500407 V 2.2450939 h 0.500407 V 1.33324 l 0.62273,-0.266884 v 1.1787379 h 0.800652 l -0.122322,0.4670471 h -0.66721 v 2.2685144 c 0,0.088961 0.04448,0.1779227 0.344725,0.1779227 0.155682,0 0.278004,-0.01112 0.478167,-0.044481 l 0.06672,-0.01112 -0.122322,0.4670471 h -0.02224 c -0.177923,0.044481 -0.311365,0.066721 -0.544888,0.066721 z"
         style="fill:#003e74;stroke-width:0.11120169" />
      <path
         inkscape:connector-curvature="0"
         id="path68"
         d="m -44.472871,5.6367454 c -0.422566,0 -0.800652,-0.1445622 -1.089776,-0.4114462 -0.333605,-0.3113648 -0.500408,-0.7672917 -0.500408,-1.31218 0,-1.0341757 0.600489,-1.7236262 1.501223,-1.7236262 0.378086,0 0.733931,0.1223219 0.978575,0.3558454 0.278004,0.2668841 0.433687,0.6672102 0.433687,1.1564976 v 0.3447252 h -2.279635 c 0.02224,0.6449698 0.422566,1.1231371 0.956334,1.1231371 0.378086,0 0.700571,-0.1779227 0.889614,-0.5115278 l 0.02224,-0.044481 0.400326,0.3892059 -0.02224,0.03336 c -0.400326,0.5560084 -0.64497,0.6004891 -1.28994,0.60049 z M -45.418085,3.568394 h 1.634665 c -0.01112,-0.5671286 -0.300245,-0.9118539 -0.767292,-0.9118539 -0.500407,0 -0.811772,0.3336051 -0.867373,0.9118539 z"
         style="fill:#003e74;stroke-width:0.11120169" />
      <path
         d="m -33.88647,1.7669266 h -0.622729 V 1.1441971 h 0.622729 z"
         id="path74"
         inkscape:connector-curvature="0"
         style="fill:#003e74;stroke-width:0.11120169" />
      <path
         inkscape:connector-curvature="0"
         id="path84"
         d="m -27.759257,2.4897376 c 0.02224,-0.044481 0.0556,-0.088961 0.08896,-0.1223219 0.03336,-0.033361 0.07784,-0.066721 0.133442,-0.088961 0.04448,-0.02224 0.100081,-0.033361 0.155682,-0.033361 0.0556,0 0.111202,0.01112 0.155683,0.033361 0.04448,0.02224 0.08896,0.044481 0.133442,0.088961 0.03336,0.033361 0.06672,0.077841 0.08896,0.1223219 0.02224,0.044481 0.03336,0.1000815 0.03336,0.1556823 0,0.055601 -0.01112,0.1112017 -0.03336,0.1556824 -0.02224,0.044481 -0.0556,0.088961 -0.08896,0.133442 -0.03336,0.03336 -0.07784,0.066721 -0.133442,0.088961 -0.04448,0.02224 -0.100082,0.033361 -0.155683,0.033361 -0.0556,0 -0.111201,-0.01112 -0.155682,-0.033361 -0.04448,-0.02224 -0.08896,-0.044481 -0.133442,-0.088961 -0.03336,-0.033361 -0.06672,-0.077841 -0.08896,-0.133442 -0.02224,-0.044481 -0.03336,-0.1000815 -0.03336,-0.1556824 0,-0.055601 0.01112,-0.1112016 0.03336,-0.1556823 z m 0.06672,0.3002445 c 0.02224,0.044481 0.04448,0.077841 0.06672,0.1112017 0.03336,0.033361 0.06672,0.055601 0.111201,0.077841 0.04448,0.02224 0.08896,0.02224 0.133442,0.02224 0.04448,0 0.08896,-0.01112 0.133442,-0.02224 0.04448,-0.02224 0.07784,-0.044481 0.100082,-0.077841 0.03336,-0.033361 0.0556,-0.066721 0.06672,-0.1112017 0.02224,-0.044481 0.02224,-0.088961 0.02224,-0.133442 0,-0.044481 -0.01112,-0.088961 -0.02224,-0.133442 -0.02224,-0.044481 -0.04448,-0.077841 -0.06672,-0.1112017 -0.03336,-0.03336 -0.06672,-0.055601 -0.100082,-0.066721 -0.04448,-0.02224 -0.08896,-0.02224 -0.133442,-0.02224 -0.04448,0 -0.08896,0.01112 -0.133442,0.02224 -0.04448,0.02224 -0.07784,0.044481 -0.111201,0.066721 -0.03336,0.033361 -0.0556,0.066721 -0.06672,0.1112017 -0.02224,0.044481 -0.02224,0.088961 -0.02224,0.133442 0,0.044481 0.01112,0.088961 0.02224,0.133442 z m 0.333606,-0.3780857 c 0.0556,0 0.100081,0.01112 0.122321,0.033361 0.02224,0.02224 0.04448,0.055601 0.04448,0.1000815 0,0.044481 -0.01112,0.077841 -0.03336,0.088961 -0.02224,0.02224 -0.0556,0.033361 -0.08896,0.033361 l 0.133442,0.2112832 h -0.07784 l -0.133442,-0.200163 h -0.07784 v 0.200163 h -0.07784 V 2.4118964 Z m -0.03336,0.2112832 c 0.01112,0 0.03336,0 0.04448,0 0.01112,0 0.03336,0 0.04448,-0.01112 0.01112,0 0.02224,-0.01112 0.02224,-0.02224 0.01112,-0.01112 0.01112,-0.02224 0.01112,-0.044481 0,-0.01112 0,-0.03336 -0.01112,-0.03336 -0.01112,0 -0.01112,-0.01112 -0.02224,-0.02224 -0.01112,0 -0.02224,-0.01112 -0.03336,-0.01112 -0.01112,0 -0.02224,0 -0.03336,0 h -0.100081 v 0.1445622 z"
         style="fill:#003e74;stroke-width:0.11120169" />
      <path
         inkscape:connector-curvature="0"
         id="path86"
         d="m -27.759257,2.4897376 c 0.02224,-0.044481 0.0556,-0.088961 0.08896,-0.1223219 0.03336,-0.033361 0.07784,-0.066721 0.133442,-0.088961 0.04448,-0.02224 0.100081,-0.033361 0.155682,-0.033361 0.0556,0 0.111202,0.01112 0.155683,0.033361 0.04448,0.02224 0.08896,0.044481 0.133442,0.088961 0.03336,0.033361 0.06672,0.077841 0.08896,0.1223219 0.02224,0.044481 0.03336,0.1000815 0.03336,0.1556823 0,0.055601 -0.01112,0.1112017 -0.03336,0.1556824 -0.02224,0.044481 -0.0556,0.088961 -0.08896,0.133442 -0.03336,0.03336 -0.07784,0.066721 -0.133442,0.088961 -0.04448,0.02224 -0.100082,0.033361 -0.155683,0.033361 -0.0556,0 -0.111201,-0.01112 -0.155682,-0.033361 -0.04448,-0.02224 -0.08896,-0.044481 -0.133442,-0.088961 -0.03336,-0.033361 -0.06672,-0.077841 -0.08896,-0.133442 -0.02224,-0.044481 -0.03336,-0.1000815 -0.03336,-0.1556824 0,-0.055601 0.01112,-0.1112016 0.03336,-0.1556823 z m 0.06672,0.3002445 c 0.02224,0.044481 0.04448,0.077841 0.06672,0.1112017 0.03336,0.033361 0.06672,0.055601 0.111201,0.077841 0.04448,0.02224 0.08896,0.02224 0.133442,0.02224 0.04448,0 0.08896,-0.01112 0.133442,-0.02224 0.04448,-0.02224 0.07784,-0.044481 0.100082,-0.077841 0.03336,-0.033361 0.0556,-0.066721 0.06672,-0.1112017 0.02224,-0.044481 0.02224,-0.088961 0.02224,-0.133442 0,-0.044481 -0.01112,-0.088961 -0.02224,-0.133442 -0.02224,-0.044481 -0.04448,-0.077841 -0.06672,-0.1112017 -0.03336,-0.03336 -0.06672,-0.055601 -0.100082,-0.066721 -0.04448,-0.02224 -0.08896,-0.02224 -0.133442,-0.02224 -0.04448,0 -0.08896,0.01112 -0.133442,0.02224 -0.04448,0.02224 -0.07784,0.044481 -0.111201,0.066721 -0.03336,0.033361 -0.0556,0.066721 -0.06672,0.1112017 -0.02224,0.044481 -0.02224,0.088961 -0.02224,0.133442 0,0.044481 0.01112,0.088961 0.02224,0.133442 z m 0.333606,-0.3780857 c 0.0556,0 0.100081,0.01112 0.122321,0.033361 0.02224,0.02224 0.04448,0.055601 0.04448,0.1000815 0,0.044481 -0.01112,0.077841 -0.03336,0.088961 -0.02224,0.02224 -0.0556,0.033361 -0.08896,0.033361 l 0.133442,0.2112832 h -0.07784 l -0.133442,-0.200163 h -0.07784 v 0.200163 h -0.07784 V 2.4118964 Z m -0.03336,0.2112832 c 0.01112,0 0.03336,0 0.04448,0 0.01112,0 0.03336,0 0.04448,-0.01112 0.01112,0 0.02224,-0.01112 0.02224,-0.02224 0.01112,-0.01112 0.01112,-0.02224 0.01112,-0.044481 0,-0.01112 0,-0.03336 -0.01112,-0.03336 -0.01112,0 -0.01112,-0.01112 -0.02224,-0.02224 -0.01112,0 -0.02224,-0.01112 -0.03336,-0.01112 -0.01112,0 -0.02224,0 -0.03336,0 h -0.100081 v 0.1445622 z"
         style="fill:#003e74;stroke-width:0.11120169" />
    </g>
  </g>
  <style
     id="style13126">
    	.st0{fill:#F58025;}
    	.st1{fill:#003E74;}
    	.st2{fill:#7BAED4;}
    	.header .st1 {fill:#FFFFFF;}
</style>
</svg>
