<?xml version="1.0" encoding="UTF-8" standalone="no"?>
<!-- Created with Inkscape (http://www.inkscape.org/) -->

<svg
   xmlns:dc="http://purl.org/dc/elements/1.1/"
   xmlns:cc="http://creativecommons.org/ns#"
   xmlns:rdf="http://www.w3.org/1999/02/22-rdf-syntax-ns#"
   xmlns:svg="http://www.w3.org/2000/svg"
   xmlns="http://www.w3.org/2000/svg"
   xmlns:xlink="http://www.w3.org/1999/xlink"
   xmlns:sodipodi="http://sodipodi.sourceforge.net/DTD/sodipodi-0.dtd"
   xmlns:inkscape="http://www.inkscape.org/namespaces/inkscape"
   width="694"
   height="122"
   id="svg2"
   version="1.1"
   inkscape:version="0.47 r22583">
  <g
     inkscape:label="Layer 1"
     inkscape:groupmode="layer"
     id="layer1"
     transform="translate(98.1395,283.56298)">
    <path
       id="path3042"
       d="m 579.99038,-176.66441 0,1.75836 -5.09574,0 0,13.26941 -2.06263,0 0,-13.26941 -5.09574,0 0,-1.75836 z"
       style="fill:#221e1f;fill-rule:nonzero;stroke:none" />
    <path
       id="path3044"
       d="m 581.38041,-176.66441 2.9146,0 4.39111,12.72172 4.25979,-12.72172 2.91459,0 0,15.02777 -1.93132,0 0,-8.81745 c 0,-0.36512 0,-0.86477 0.0384,-1.61423 l 0,-2.26442 -4.30464,12.6961 -2.01779,0 -4.42954,-12.6961 0,0.4452 c 0,0.35231 0.0416,0.94804 0.0801,1.6943 l 0,1.73915 0,8.81745 -1.91531,0 z"
       style="fill:#221e1f;fill-rule:nonzero;stroke:none" />
    <path
       id="path3046"
       d="m -40.084636,-236.75949 c 0.144128,-6.31282 1.892884,-9.96407 7.965488,-9.96407 4.868333,0 6.866911,2.86014 6.866911,7.27047 0,5.55374 -1.207474,6.61388 -7.802143,8.36264 -6.072604,1.62064 -14.163004,2.96264 -19.572618,5.94769 -5.387194,2.96584 -8.903924,10.09859 -8.903924,18.63739 0,15.74841 7.155168,22.24059 19.42849,22.24059 7.299296,0 14.166207,-3.77616 17.141655,-10.25873 l 0.291459,0 c 0.08327,2.84093 0.374734,5.81638 1.185055,8.36264 l 21.0299145,0 c -2.5398602,-3.22206 -2.5398602,-10.26513 -2.5398602,-15.77724 l 0,-37.51498 c 0,-15.36407 -7.9654883,-21.56159 -25.9174643,-21.56159 -9.028835,0 -15.245567,1.20427 -20.344505,4.69218 -5.137372,3.51352 -8.0904,9.59894 -8.237731,19.56301 z m -0.393951,28.08259 c 0,-4.06762 1.079361,-6.36727 3.369399,-8.08079 2.017795,-1.62385 4.99004,-1.76798 11.856951,-5.41923 0,2.96264 -0.102491,6.77083 -0.102491,12.82422 0,7.26086 -4.205342,9.98328 -8.779012,9.98328 -4.058012,0 -6.344847,-3.50392 -6.344847,-9.30748"
       style="fill:#221e1f;fill-rule:nonzero;stroke:none" />
    <path
       id="path3048"
       d="m 41.123632,-186.16087 21.052335,0 0,-96.32251 -21.862656,0 0,31.30786 -0.272242,0 c -3.616018,-7.84058 -10.252324,-9.83916 -16.305711,-9.83916 -17.9519756,0 -21.1548259,16.30891 -21.1548259,38.98189 0,27.24024 7.7989409,37.76801 22.5064289,37.76801 9.691825,0 14.166207,-5.79716 15.767632,-10.80962 l 0.269039,0 z m -0.39395,-36.01605 c 0,14.1534 -1.374023,21.98437 -7.821361,21.98437 -8.237731,0 -8.52919,-11.17795 -8.52919,-22.9196 0,-13.24058 0.416371,-22.00038 8.381859,-22.00038 7.42741,0 7.968692,9.97368 7.968692,22.93561"
       style="fill:#221e1f;fill-rule:nonzero;stroke:none" />
    <path
       id="path3050"
       d="m 129.74009,-186.16087 -21.02991,0 0,-8.63168 -0.27224,0 c -3.09716,6.47937 -9.442007,10.52777 -17.513189,10.52777 -12.439871,0 -19.053756,-6.20072 -19.053756,-20.25162 l 0,-54.615 21.859453,0 0,49.7787 c 0,5.25267 2.309255,8.33061 6.344842,8.33061 4.16371,0 7.82457,-3.21246 7.82457,-10.34841 l 0,-47.7609 21.84023,0 z"
       style="fill:#221e1f;fill-rule:nonzero;stroke:none" />
    <path
       id="path3052"
       d="m 139.99562,-282.48338 21.86266,0 0,96.32251 -21.86266,0 z"
       style="fill:#221e1f;fill-rule:nonzero;stroke:none" />
    <path
       id="path3054"
       d="m 177.37609,-244.02996 -9.04806,0 0,-15.10144 9.04806,0 0,-21.44629 21.86265,0 0,21.44629 10.1082,0 0,15.10144 -10.1082,0 0,36.83918 c 0,5.09894 1.87367,6.71958 7.00784,6.71958 0.93523,0 2.16512,-0.12491 3.10036,-0.24982 l 0,14.56015 c -4.17972,0.54129 -8.38186,0.81033 -12.54557,0.81033 -15.09823,0 -19.42528,-2.6904 -19.42528,-19.69753 z"
       style="fill:#221e1f;fill-rule:nonzero;stroke:none" />
    <path
       id="path3056"
       d="m 254.75695,-209.3527 c 0.16655,3.24448 0.41637,6.0726 1.49573,8.23452 1.22989,2.03061 3.22847,3.3726 6.76442,3.3726 5.11495,0 7.81816,-3.27651 7.81816,-7.4274 0,-3.37901 -1.62065,-6.60428 -8.36265,-8.90073 -17.95197,-6.05659 -26.58045,-9.57011 -26.58045,-24.9534 0,-14.57297 10.25232,-21.98757 27.80715,-21.98757 20.48863,0 26.44273,9.96407 26.44273,20.49184 l 0,2.45338 -19.44771,0 0,-1.38363 c 0,-6.31282 -2.56228,-8.05197 -7.15837,-8.05197 -5.80356,0 -7.42421,2.79929 -7.42421,6.70997 0,12.94913 34.9463,4.34627 34.9463,32.66908 0,14.68507 -9.86157,23.86123 -27.89682,23.86123 -19.57582,0 -27.81035,-7.28008 -27.81035,-21.84344 l 0,-3.24448 z"
       style="fill:#221e1f;fill-rule:nonzero;stroke:none" />
    <path
       id="path3058"
       d="m 293.61393,-259.1314 21.84023,0 7.05268,53.81429 0.24982,0 8.21851,-53.81429 23.4833,0 7.69645,53.81429 0.24982,0 7.72208,-53.81429 21.02671,0 -15.76763,72.97053 -24.69078,0 -7.94627,-53.8335 -0.26904,0 -8.52919,53.8335 -25.0655,0 z"
       style="fill:#221e1f;fill-rule:nonzero;stroke:none" />
    <path
       id="path3060"
       d="m 397.62329,-283.56274 21.88187,0 0,16.73489 -21.88187,0 z m 0,24.43134 21.88187,0 0,72.97053 -21.88187,0 z"
       style="fill:#221e1f;fill-rule:nonzero;stroke:none" />
    <path
       id="path3062"
       d="m 429.46923,-259.1314 21.02991,0 0,8.62207 0.29146,0 c 3.08114,-6.49218 9.44521,-10.50535 17.51639,-10.50535 6.34164,0 14.7267,1.20427 17.94877,11.18115 5.163,-8.47794 9.98649,-11.18115 18.09931,-11.18115 12.39823,0 18.9929,6.19752 18.9929,20.21959 l 0,54.63422 -21.86266,0 0,-49.77869 c 0,-5.25268 -2.26761,-8.35944 -6.32563,-8.35944 -4.17971,0 -7.84057,3.25409 -7.84057,10.39965 l 0,47.73848 -21.84344,0 0,-49.77869 c 0,-5.25268 -2.28363,-8.35944 -6.34485,-8.35944 -4.1605,0 -7.81816,3.25409 -7.81816,10.39965 l 0,47.73848 -21.84343,0 z"
       style="fill:#221e1f;fill-rule:nonzero;stroke:none" />
    <path
       id="path3064"
       d="m -98.1395,-282.66915 34.132775,0 0,15.11105 -13.913181,0 0,90.90329 13.913181,0 0,15.09183 -34.132775,0 z"
       style="fill:#221e1f;fill-rule:nonzero;stroke:none" />
    <path
       id="path3066"
       d="m 528.31879,-176.65481 13.89397,0 0,-90.90329 -13.89397,0 0,-15.11105 34.09434,0 0,121.10617 -34.09434,0 z"
       style="fill:#221e1f;fill-rule:nonzero;stroke:none" />
    <path
       id="path3068"
       d="m 579.99038,216.24524 0,1.75837 -5.09574,0 0,13.27261 -2.06263,0 0,-13.27261 -5.09574,0 0,-1.75837 z"
       style="fill:#ffffff;fill-rule:nonzero;stroke:none" />
    <path
       id="path3070"
       d="m 581.38041,216.24524 2.9146,0 4.39111,12.72172 4.25979,-12.72172 2.91459,0 0,15.03098 -1.93132,0 0,-8.81745 c 0,-0.36192 0,-0.86157 0.0384,-1.61103 l 0,-2.26762 -4.30464,12.6961 -2.01779,0 -4.42954,-12.6961 0,0.4452 c 0,0.35231 0.0416,0.94804 0.0801,1.6943 l 0,1.73915 0,8.81745 -1.91531,0 z"
       style="fill:#ffffff;fill-rule:nonzero;stroke:none" />
    <path
       id="path3072"
       d="m -40.084636,156.15336 c 0.144128,-6.31602 1.892884,-9.96406 7.965488,-9.96406 4.868333,0 6.866911,2.86014 6.866911,7.26726 0,5.55695 -1.207474,6.61709 -7.802143,8.36585 -6.072604,1.62384 -14.163004,2.96264 -19.572618,5.94769 -5.387194,2.96584 -8.903924,10.09859 -8.903924,18.64059 0,15.74521 7.155168,22.23419 19.42849,22.23419 7.299296,0 14.166207,-3.77616 17.141655,-10.25553 l 0.291459,0 c 0.08327,2.84413 0.374734,5.81638 1.185055,8.36264 l 21.0299145,0 c -2.5398602,-3.22527 -2.5398602,-10.26513 -2.5398602,-15.77724 l 0,-37.51819 c 0,-15.35766 -7.9654883,-21.55838 -25.9174643,-21.55838 -9.028835,0 -15.245567,1.20427 -20.344505,4.69218 -5.137372,3.51672 -8.0904,9.59894 -8.237731,19.563 z m -0.393951,28.0858 c 0,-4.07082 1.079361,-6.37047 3.369399,-8.084 2.017795,-1.62384 4.99004,-1.76797 11.856951,-5.41922 0,2.96264 -0.102491,6.77083 -0.102491,12.82101 0,7.26407 -4.205342,9.98649 -8.779012,9.98649 -4.058012,0 -6.344847,-3.50392 -6.344847,-9.30428"
       style="fill:#ffffff;fill-rule:nonzero;stroke:none" />
    <path
       id="path3074"
       d="m 41.123632,206.75199 21.052335,0 0,-96.32252 -21.862656,0 0,31.30466 -0.272242,0 c -3.616018,-7.84057 -10.252324,-9.83595 -16.305711,-9.83595 -17.9519756,0 -21.1548259,16.30891 -21.1548259,38.98509 0,27.24024 7.7989409,37.76161 22.5064289,37.76161 9.691825,0 14.166207,-5.79076 15.767632,-10.80642 l 0.269039,0 z m -0.39395,-36.01605 c 0,14.1534 -1.374023,21.98437 -7.821361,21.98437 -8.237731,0 -8.52919,-11.17795 -8.52919,-22.9228 0,-13.24059 0.416371,-21.99718 8.381859,-21.99718 7.42741,0 7.968692,9.97368 7.968692,22.93561"
       style="fill:#ffffff;fill-rule:nonzero;stroke:none" />
    <path
       id="path3076"
       d="m 129.74009,206.75199 -21.02991,0 0,-8.62848 -0.27224,0 c -3.09716,6.47617 -9.442007,10.52137 -17.513189,10.52137 -12.439871,0 -19.053756,-6.19752 -19.053756,-20.25162 l 0,-54.6118 21.859453,0 0,49.77549 c 0,5.25588 2.309255,8.33382 6.344842,8.33382 4.16371,0 7.82457,-3.21246 7.82457,-10.34841 l 0,-47.7609 21.84023,0 z"
       style="fill:#ffffff;fill-rule:nonzero;stroke:none" />
    <path
       id="path3078"
       d="m 139.99562,110.42947 21.86266,0 0,96.32252 -21.86266,0 z"
       style="fill:#ffffff;fill-rule:nonzero;stroke:none" />
    <path
       id="path3080"
       d="m 177.37609,148.88289 -9.04806,0 0,-15.10143 9.04806,0 0,-21.44629 21.86265,0 0,21.44629 10.1082,0 0,15.10143 -10.1082,0 0,36.83919 c 0,5.09894 1.87367,6.71958 7.00784,6.71958 0.93523,0 2.16512,-0.12491 3.10036,-0.24982 l 0,14.56015 c -4.17972,0.53808 -8.38186,0.81353 -12.54557,0.81353 -15.09823,0 -19.42528,-2.6968 -19.42528,-19.70074 z"
       style="fill:#ffffff;fill-rule:nonzero;stroke:none" />
    <path
       id="path3082"
       d="m 254.75695,183.55695 c 0.16655,3.24769 0.41637,6.07581 1.49573,8.24093 1.22989,2.02741 3.22847,3.3694 6.76442,3.3694 5.11495,0 7.81816,-3.27651 7.81816,-7.42741 0,-3.38221 -1.62065,-6.60427 -8.36265,-8.90392 -17.95197,-6.05018 -26.58045,-9.56691 -26.58045,-24.9502 0,-14.56977 10.25232,-21.98757 27.80715,-21.98757 20.48863,0 26.44273,9.96407 26.44273,20.48863 l 0,2.45659 -19.44771,0 0,-1.38684 c 0,-6.30961 -2.56228,-8.04876 -7.15837,-8.04876 -5.80356,0 -7.42421,2.79929 -7.42421,6.70677 0,12.95233 34.9463,4.34947 34.9463,32.67228 0,14.68506 -9.86157,23.85803 -27.89682,23.85803 -19.57582,0 -27.81035,-7.28008 -27.81035,-21.84024 l 0,-3.24769 z"
       style="fill:#ffffff;fill-rule:nonzero;stroke:none" />
    <path
       id="path3084"
       d="m 293.61393,133.78146 21.84023,0 7.05268,53.81108 0.24982,0 8.21851,-53.81108 23.4833,0 7.69645,53.81108 0.24982,0 7.72208,-53.81108 21.02671,0 -15.76763,72.97053 -24.69078,0 -7.94627,-53.8335 -0.26904,0 -8.52919,53.8335 -25.0655,0 z"
       style="fill:#ffffff;fill-rule:nonzero;stroke:none" />
    <path
       id="path3086"
       d="m 397.62329,109.35011 21.88187,0 0,16.7349 -21.88187,0 z m 0,24.43135 21.88187,0 0,72.97053 -21.88187,0 z"
       style="fill:#ffffff;fill-rule:nonzero;stroke:none" />
    <path
       id="path3088"
       d="m 429.46923,133.78146 21.02991,0 0,8.61887 0.29146,0 c 3.08114,-6.48898 9.44521,-10.50215 17.51639,-10.50215 6.34164,0 14.7267,1.20427 17.94877,11.18115 5.163,-8.47794 9.98649,-11.18115 18.09931,-11.18115 12.39823,0 18.9929,6.20072 18.9929,20.21639 l 0,54.63742 -21.86266,0 0,-49.7787 c 0,-5.24947 -2.26761,-8.36264 -6.32563,-8.36264 -4.17971,0 -7.84057,3.2605 -7.84057,10.40286 l 0,47.73848 -21.84344,0 0,-49.7787 c 0,-5.24947 -2.28363,-8.36264 -6.34485,-8.36264 -4.1605,0 -7.81816,3.2605 -7.81816,10.40286 l 0,47.73848 -21.84343,0 z"
       style="fill:#ffffff;fill-rule:nonzero;stroke:none" />
    <path
       id="path3090"
       d="m -98.1395,110.24691 34.132775,0 0,15.10785 -13.913181,0 0,90.90329 13.913181,0 0,15.08863 -34.132775,0 z"
       style="fill:#ffffff;fill-rule:nonzero;stroke:none" />
    <path
       id="path3092"
       d="m 528.31879,216.25805 13.89397,0 0,-90.90329 -13.89397,0 0,-15.10785 34.09434,0 0,121.09977 -34.09434,0 z"
       style="fill:#ffffff;fill-rule:nonzero;stroke:none" />
  </g>
</svg>
