<?xml version="1.0" encoding="UTF-8" standalone="no"?>
<svg xmlns:rdf="http://www.w3.org/1999/02/22-rdf-syntax-ns#" xmlns="http://www.w3.org/2000/svg" height="953.75" width="1593.6" version="1.1" xmlns:cc="http://creativecommons.org/ns#" xmlns:dc="http://purl.org/dc/elements/1.1/" viewBox="0 0 1274.8992 763">
 <g>
  <path d="m637.44 0.00030556h637.46l-0.01 637.28h-637.45z" fill="#fff"/>
  <path d="m-0.000009375 0h637.44v637.28h-637.44z"/>
  <path d="m583.88 177.85-158.32 90.57c-23.198-37.236-56.225-51.485-86.998-51.743-56.041-0.46952-104.37 44.52-104.34 101.91-0.0277 59.036 48.455 101.86 101.49 102.76 31.702 0.53411 70.275-17.124 89.872-52.135l158.31 90.804c-57.55 99.2-156.21 143.99-248.4 143.83-146.18-0.24-283.7-117.11-283.68-285.01-0.005-167.02 138.07-285.92 284.23-284.98 94.79 0.617 191.43 45.212 247.84 143.99z" fill="#fff"/>
  <path d="m683.23 45.67h182.04l182.23 227.81v-227.81h181.89l0.01 546.18h-181.9l-182.23-227.43v227.43h-182.09z"/>
  <path d="m72.903 683.5c10.013 2.8153 18.432 9.8236 23.873 18.599l-20.96 11.989c-3.6539-5.0915-9.6713-8.7454-16.13-7.777-6.3793 0.61897-11.97 5.472-13.647 11.642-2.5857 10.952 5.2512 20.046 14.835 20.516 5.361 0.15973 11.079-2.2063 14.942-7.9168l20.96 12.1c-6.9184 11.441-19.17 19.198-32.528 20.326-24.769 0.76268-46.124-18.207-42.709-47.091 4.6017-25.044 27.903-38.894 51.364-32.386z"/>
 </g>
 <path fill="none" stroke="#000" stroke-linecap="round" stroke-width="25.944" d="m421.21 708.59a27.634 27.634 0 0 1 -10.047 37.767 27.634 27.634 0 0 1 -37.767 -10.045 27.634 27.634 0 0 1 10.043 -37.767 27.634 27.634 0 0 1 37.768 10.042"/>
 <path fill="none" stroke="#000" stroke-linecap="round" stroke-width="25.944" d="m1072.4 708.59a27.634 27.634 0 0 1 -10.047 37.767 27.634 27.634 0 0 1 -37.767 -10.045 27.634 27.634 0 0 1 10.043 -37.767 27.634 27.634 0 0 1 37.768 10.042"/>
 <g>
  <path d="m161.63 683.53h-38.872l-24.344 77.824h27.36l3.999-13.052h24.925l3.924 13.052h27.352zm-19.43 21.47l6.952 24.15h-13.92z"/>
  <path d="m193.82 683.53v77.824h25.776l0.00001-22.752h8.4l11.552 22.752h28.672l-15.024-25.527c11.571-7.4186 15.533-16.611 15.096-25.85 0.01-13.95-12.556-26.057-26.296-26.447zm42.926 22.697c3.3208 0.0436 5.7439 3.2743 5.89 6.0375 0.085 3.9525-2.9236 6.9164-5.915 6.9875l-17.125 0.025v-13.05z"/>
  <path d="m275.41 706.25v-22.722h77.98v22.722h-24.4v55.102h-29.164v-55.102z"/>
  <path d="m533.71 683.53h25.722l26.35 32.362v-32.362h25.74v77.824h-25.74l-26.35-32.432v32.432h-25.722z"/>
  <path d="m664.17 683.53h25.72l26.35 32.362v-32.362h25.738v77.824h-25.738l-26.35-32.432v32.432h-25.72z"/>
  <path d="m753.17 683.53h67.96l-0.00039 22.704h-42.22v7.968h35.55v18.18h-35.55v8.1896h42.22l-0.00039 20.782h-67.96z"/>
  <path d="m829.73 706.25v-22.722h77.98v22.722h-24.4v55.102h-29.164v-55.102z"/>
  <path d="m914.22 683.53h26.16s6.5422 33.983 6.57 34.122l12.892-31.338 13.128 31.268 6.57-34.052h25.92l-14.82 77.824h-21.57l-9.23-21.009-9.34 21.009h-21.21s-14.789-76.068-15.07-77.824z"/>
  <path d="m1096.6 683.53v77.824h25.775l0.05-22.752h8.35l11.55 22.752h28.675l-15.025-25.527c11.571-7.4186 15.537-16.611 15.1-25.85 0.01-13.95-12.56-26.057-26.3-26.447zm42.925 22.697c3.3207 0.0436 5.7414 3.2743 5.8875 6.0375 0.085 3.9525-2.9211 6.9164-5.9125 6.9875l-17.125 0.025v-13.05z"/>
  <path d="m1179.4 761.35v-77.824h26.03v25.212l19.41-25.212h33.19l-30.12 37.102 30.12 40.722h-33.19l-19.41-28.962v28.962z"/>
 </g>
 <path d="m509.18 708.59a27.634 27.634 0 0 1 -10.047 37.767 27.634 27.634 0 0 1 -37.767 -10.045 27.634 27.634 0 0 1 10.043 -37.767 27.634 27.634 0 0 1 37.768 10.042" stroke="#000" stroke-linecap="round" stroke-width="25.944" fill="none"/>
</svg>
