<?xml version="1.0" encoding="UTF-8" standalone="no"?>
<!-- Created with Inkscape (http://www.inkscape.org/) -->

<svg xmlns:dc="http://purl.org/dc/elements/1.1/" xmlns:cc="http://creativecommons.org/ns#" xmlns:rdf="http://www.w3.org/1999/02/22-rdf-syntax-ns#" xmlns:svg="http://www.w3.org/2000/svg" xmlns="http://www.w3.org/2000/svg" xmlns:sodipodi="http://sodipodi.sourceforge.net/DTD/sodipodi-0.dtd" xmlns:inkscape="http://www.inkscape.org/namespaces/inkscape" id="svg2996" version="1.1" inkscape:version="0.48.5 r10040" width="887.94965" height="155.89938" sodipodi:docname="Turner_logo_detail.svg">
  <metadata id="metadata3002">
    <rdf:RDF>
      <cc:Work rdf:about="">
        <dc:format>image/svg+xml</dc:format>
        <dc:type rdf:resource="http://purl.org/dc/dcmitype/StillImage" />
        <dc:title></dc:title>
      </cc:Work>
    </rdf:RDF>
  </metadata>
  <defs id="defs3000" />
  <sodipodi:namedview pagecolor="#ffffff" bordercolor="#666666" borderopacity="1" objecttolerance="10" gridtolerance="10" guidetolerance="10" inkscape:pageopacity="0" inkscape:pageshadow="2" inkscape:window-width="1366" inkscape:window-height="706" id="namedview2998" showgrid="false" inkscape:zoom="0.55507034" inkscape:cx="695.308" inkscape:cy="109.55985" inkscape:window-x="-8" inkscape:window-y="-8" inkscape:window-maximized="1" inkscape:current-layer="svg2996" fit-margin-top="0" fit-margin-left="0" fit-margin-right="0" fit-margin-bottom="0" />
  <g id="g3027" transform="translate(-58.178092,-60.827932)">
    <path sodipodi:nodetypes="ccccccccc" inkscape:connector-curvature="0" id="path3008" d="m 83.308274,212.64139 52.325856,0 16.86821,-100.52072 41.30988,0 8.26198,-47.162125 -135.63413,0 -8.261978,47.162125 42.745108,0 z" style="fill:black;stroke:none" />
    <path sodipodi:nodetypes="ccccccccc" inkscape:connector-curvature="0" id="path3010" d="m 213.2767,64.807285 51.25159,0 -14.50965,84.428215 c -0.26184,29.08715 34.6943,25.7975 41.44694,0 l 15.59832,-84.23088 50.71834,0 -14.17373,86.01354 c -14.65659,88.53228 -161.30956,87.00482 -144.84146,-0.9645 z" style="fill:black;stroke:none" />
    <path id="path3012" d="m 456.875,61.9375 c -18.36358,0 -33.25,14.94551 -33.25,33.40625 0,18.46074 14.88642,33.4375 33.25,33.4375 18.36358,0 33.25,-14.97676 33.25,-33.4375 0,-18.46074 -14.88642,-33.40625 -33.25,-33.40625 z m -87.0625,2.8125 -24.65625,148.46875 51.75,0 25.3125,-148.46875 -52.40625,0 z" style="fill:black;stroke:none" inkscape:connector-curvature="0" />
    <path inkscape:connector-curvature="0" style="fill:black;stroke:none" d="m 912.87775,61.9375 c -18.36358,0 -33.25,14.94551 -33.25,33.40625 0,18.46074 14.88642,33.4375 33.25,33.4375 18.36358,0 33.25,-14.97676 33.25,-33.4375 0,-18.46074 -14.88642,-33.40625 -33.25,-33.40625 z m -87.0625,2.8125 -24.65625,148.46875 51.75,0 25.3125,-148.46875 -52.40625,0 z" id="path3018" />
    <path sodipodi:nodetypes="ccccccccccc" inkscape:connector-curvature="0" id="path3020" d="m 481.33623,212.87005 50.31512,0 15.12972,-80.57456 c 0,-28.308 47.04471,-42.335485 41.51877,0 l -13.37045,80.57456 51.37068,0 15.12972,-90.07462 C 651.34983,47.169777 581.08738,49.191251 549.5959,84.091497 l 5.27781,-19.000114 -47.50028,0 z" style="fill:black;stroke:none" />
    <path id="path3022" d="M 735.96875,61.03125 C 720.45376,61.444485 704.6894,66.857738 688.9375,76 c -42.04796,26.30343 -60.75926,102.63516 -9.09375,132.46875 54.07934,24.64599 105.34376,-13.2402 114,-41.53125 l -53.1875,0 c -9.36863,8.62681 -27.20937,14.27546 -41.15625,0.1875 -2.32366,-3.47886 -4.39123,-7.17143 -4.59375,-12.3125 l 104.5,0 C 810.28405,114.49131 799.3315,92.37071 781.46875,76 766.74301,65.204798 751.48374,60.618015 735.96875,61.03125 z m -0.375,38.40625 c 4.52618,-0.02016 8.96339,1.09395 12.96875,3.8125 6.49198,4.4063 8.2411,10.38631 8.25,18.65625 L 703,121.75 c 2.84688,-6.65748 7.5434,-12.68817 15.5,-17.59375 5.33526,-2.78544 11.27437,-4.692837 17.09375,-4.71875 z" style="fill:black;stroke:none" inkscape:connector-curvature="0" />
  </g>
</svg>
