<?xml version="1.0" standalone="no"?><!-- Generator: Gravit.io --><svg xmlns="http://www.w3.org/2000/svg" xmlns:xlink="http://www.w3.org/1999/xlink" style="isolation:isolate" viewBox="0 0 1106.875 618.998" width="422.867848746" height="236.480499278"><defs><clipPath id="_clipPath_q5TqVZQOawDD1gZvGHg1HKXxsAYA2ral"><rect width="1106.875" height="618.998"/></clipPath></defs><g clip-path="url(#_clipPath_q5TqVZQOawDD1gZvGHg1HKXxsAYA2ral)"><clipPath id="_clipPath_EWW0SbZDh233f9MDdK9bd8t9zPiLxIXX"><path d=" M 0 0 L 0 618.998 L 1106.875 618.998 L 1106.875 0 L 0 0 Z " fill="rgb(255,255,255)"/></clipPath><g clip-path="url(#_clipPath_EWW0SbZDh233f9MDdK9bd8t9zPiLxIXX)"><path d=" M 956.477 456.121 C 956.477 439.663 969.757 426.32 986.139 426.32 C 1002.525 426.32 1015.803 439.663 1015.803 456.121 C 1015.803 472.579 1002.525 485.92 986.139 485.92 C 969.757 485.92 956.477 472.579 956.477 456.121 Z " fill="rgb(17,69,110)"/></g><clipPath id="_clipPath_uBsO2NjVGDyXPm3q6mpkdWMxKxvDXplV"><path d=" M 0 0 L 0 618.998 L 1106.875 618.998 L 1106.875 0 L 0 0 Z " fill="rgb(255,255,255)"/></clipPath><g clip-path="url(#_clipPath_uBsO2NjVGDyXPm3q6mpkdWMxKxvDXplV)"><path d=" M 1102.442 217.488 C 1095.774 205.434 1082.614 198.233 1067.237 198.233 L 952.764 198.233 C 891.656 82.293 737.986 0 557.943 0 C 377.906 0 224.23 82.293 163.12 198.233 L 139.379 198.233 C 118.946 198.233 96.226 210.8 85.357 228.091 L 6.841 353.143 C -1.337 366.153 -2.235 381.145 4.433 393.195 C 11.102 405.268 24.266 412.467 39.653 412.467 L 158.9 412.467 C 216.917 532.773 373.624 618.996 557.943 618.996 C 742.258 618.996 898.967 532.773 956.978 412.467 L 967.499 412.467 C 987.933 412.467 1010.655 399.907 1021.52 382.594 L 1100.04 257.561 C 1108.218 244.533 1109.12 229.551 1102.442 217.488 Z " fill="rgb(254,254,254)"/></g><clipPath id="_clipPath_SKGaESvWOpOkgaVl6YaWVUKV30kgc0NG"><path d=" M 0 0 L 0 618.998 L 1106.875 618.998 L 1106.875 0 L 0 0 Z " fill="rgb(255,255,255)"/></clipPath><g clip-path="url(#_clipPath_SKGaESvWOpOkgaVl6YaWVUKV30kgc0NG)"><path d=" M 1088.301 250.19 L 1009.782 375.229 C 1001.417 388.568 983.246 398.621 967.499 398.621 L 948.168 398.621 C 895.713 518.208 740.637 605.15 557.943 605.15 C 427.054 605.15 302.969 559.204 226.005 482.234 C 200.215 456.46 180.668 428.291 167.667 398.621 L 39.651 398.621 C 29.233 398.621 20.807 394.195 16.546 386.509 C 12.305 378.8 13.039 369.333 18.574 360.502 L 97.093 235.467 C 105.468 222.138 123.639 212.082 139.383 212.082 L 171.531 212.082 C 184.432 185.457 202.642 160.127 226.005 136.769 C 302.969 59.804 427.054 13.853 557.943 13.853 C 688.826 13.853 812.913 59.804 889.881 136.769 C 913.24 160.127 931.444 185.457 944.351 212.082 L 1067.237 212.082 C 1077.662 212.082 1086.066 216.497 1090.322 224.195 C 1094.587 231.897 1093.842 241.371 1088.301 250.19 Z  M 1102.442 217.491 C 1095.774 205.434 1082.614 198.235 1067.237 198.235 L 952.764 198.235 C 891.656 82.295 737.986 0.002 557.943 0.002 C 377.909 0.002 224.228 82.295 163.118 198.235 L 139.383 198.235 C 118.946 198.235 96.226 210.796 85.357 228.091 L 6.841 353.145 C -1.339 366.153 -2.235 381.143 4.433 393.193 C 11.102 405.27 24.264 412.469 39.651 412.469 L 158.9 412.469 C 216.921 532.775 373.622 618.998 557.943 618.998 C 742.258 618.998 898.967 532.775 956.982 412.469 L 967.499 412.469 C 987.933 412.469 1010.655 399.909 1021.52 382.593 L 1100.04 257.559 C 1108.218 244.528 1109.12 229.549 1102.442 217.491 Z " fill="rgb(17,69,110)"/></g><clipPath id="_clipPath_t7BIMtkw92e8JGQLDgFoSMC6FmmiNyNq"><path d=" M 0 0 L 0 618.998 L 1106.875 618.998 L 1106.875 0 L 0 0 Z " fill="rgb(255,255,255)"/></clipPath><g clip-path="url(#_clipPath_t7BIMtkw92e8JGQLDgFoSMC6FmmiNyNq)"><path d=" M 697.871 496.593 L 727.483 485.786 C 733.634 483.296 733.93 478.607 728.135 475.382 C 728.135 475.382 719.6 470.61 706.438 475.769 C 693.904 480.706 690.714 489.106 690.714 489.106 C 688.348 495.306 691.565 498.672 697.871 496.593 Z " fill="rgb(206,48,61)"/></g><clipPath id="_clipPath_Wjtyq6RoXKacc5HFLcO1Uw5x7n1KW2sp"><path d=" M 0 0 L 0 618.998 L 1106.875 618.998 L 1106.875 0 L 0 0 Z " fill="rgb(255,255,255)"/></clipPath><g clip-path="url(#_clipPath_Wjtyq6RoXKacc5HFLcO1Uw5x7n1KW2sp)"><path d=" M 584.256 511.135 L 610.26 509.582 C 615.715 509.072 617.052 505.424 613.223 501.486 C 613.223 501.486 607.59 495.696 595.956 496.677 C 584.859 497.636 580.353 503.528 580.353 503.528 C 577.018 507.868 578.772 511.297 584.256 511.135 Z " fill="rgb(206,48,61)"/></g><clipPath id="_clipPath_UlGX1cxa29EGO1lfToxsn5nVepmnXHXE"><path d=" M 0 0 L 0 618.998 L 1106.875 618.998 L 1106.875 0 L 0 0 Z " fill="rgb(255,255,255)"/></clipPath><g clip-path="url(#_clipPath_UlGX1cxa29EGO1lfToxsn5nVepmnXHXE)"><path d=" M 641.096 507.951 L 669.423 503.691 C 675.356 502.57 676.457 498.448 671.891 494.535 C 671.891 494.535 665.139 488.722 652.488 490.962 C 640.423 493.083 636.067 499.997 636.067 499.997 C 632.844 505.097 635.098 508.664 641.096 507.951 Z " fill="rgb(206,48,61)"/></g><clipPath id="_clipPath_9XxlZldialghY0TnNiEZl6cigWPbU0uH"><path d=" M 0 0 L 0 618.998 L 1106.875 618.998 L 1106.875 0 L 0 0 Z " fill="rgb(255,255,255)"/></clipPath><g clip-path="url(#_clipPath_9XxlZldialghY0TnNiEZl6cigWPbU0uH)"><path d=" M 757.94 470.876 L 787.054 452.051 C 793.052 447.889 792.213 442.773 785.21 440.733 C 785.21 440.733 774.888 437.694 762.042 446.467 C 749.803 454.824 748.429 464.595 748.429 464.595 C 747.408 471.834 751.692 474.648 757.94 470.876 Z " fill="rgb(206,48,61)"/></g><clipPath id="_clipPath_Mh0mvmr2E3o9hKDHxVsLNcLCMmaAUblr"><path d=" M 0 0 L 0 618.998 L 1106.875 618.998 L 1106.875 0 L 0 0 Z " fill="rgb(255,255,255)"/></clipPath><g clip-path="url(#_clipPath_Mh0mvmr2E3o9hKDHxVsLNcLCMmaAUblr)"><path d=" M 352.446 483.99 C 321.469 482.785 298.575 484.583 298.575 484.583 L 315.194 427.338 C 333.336 426.886 350.475 428.333 367.854 430.78 L 352.446 483.99 Z  M 401.99 398.705 L 447.247 398.705 L 447.247 433.819 L 401.99 426.436 L 401.99 398.705 Z  M 863.593 398.62 C 773.126 509.299 662.388 522.208 608.854 524.064 C 555.281 525.918 490.645 509.299 429.699 494.514 C 410.293 489.803 389.959 487.173 371.239 485.744 L 386.118 434.37 C 434.265 442.711 487.28 456.336 570.064 457.579 C 690.816 459.373 753.495 401.414 756.454 398.62 L 182.92 398.62 C 195.208 424.705 212.89 449.548 235.806 472.448 C 310.219 546.861 430.649 591.301 557.947 591.301 C 732.285 591.301 880.52 510.439 932.971 398.62 L 863.593 398.62 Z " fill="rgb(197,47,64)"/></g><clipPath id="_clipPath_LnY9HBECGUA2dLe5nvWAJQG8nwLo8DHS"><path d=" M 0 0 L 0 618.998 L 1106.875 618.998 L 1106.875 0 L 0 0 Z " fill="rgb(255,255,255)"/></clipPath><g clip-path="url(#_clipPath_LnY9HBECGUA2dLe5nvWAJQG8nwLo8DHS)"><path d=" M 641.096 102.608 C 635.098 101.885 632.844 105.471 636.067 110.572 C 636.067 110.572 640.423 117.465 652.488 119.597 C 665.139 121.829 671.891 116.037 671.891 116.037 C 676.457 112.111 675.356 107.982 669.423 106.87 L 641.096 102.608 Z " fill="rgb(206,48,61)"/></g><clipPath id="_clipPath_LftOOislkUZyyvDqcwYL6s0zU9RH5STy"><path d=" M 0 0 L 0 618.998 L 1106.875 618.998 L 1106.875 0 L 0 0 Z " fill="rgb(255,255,255)"/></clipPath><g clip-path="url(#_clipPath_LftOOislkUZyyvDqcwYL6s0zU9RH5STy)"><path d=" M 584.256 99.417 C 578.772 99.263 577.018 102.692 580.353 107.044 C 580.353 107.044 584.859 112.928 595.956 113.875 C 607.59 114.867 613.223 109.074 613.223 109.074 C 617.052 105.135 615.715 101.496 610.26 100.977 L 584.256 99.417 Z " fill="rgb(206,48,61)"/></g><clipPath id="_clipPath_WbSgJt4dSueminUsElkj26qPJNiOvzb2"><path d=" M 0 0 L 0 618.998 L 1106.875 618.998 L 1106.875 0 L 0 0 Z " fill="rgb(255,255,255)"/></clipPath><g clip-path="url(#_clipPath_WbSgJt4dSueminUsElkj26qPJNiOvzb2)"><path d=" M 787.054 158.508 L 757.94 139.685 C 751.692 135.913 747.408 138.735 748.429 145.968 C 748.429 145.968 749.803 155.745 762.042 164.099 C 774.888 172.862 785.21 169.829 785.21 169.829 C 792.213 167.778 793.052 162.678 787.054 158.508 Z " fill="rgb(206,48,61)"/></g><clipPath id="_clipPath_8gCC1pacJ0LgXenxZmeaC8A3Ph8AQ2Wp"><path d=" M 0 0 L 0 618.998 L 1106.875 618.998 L 1106.875 0 L 0 0 Z " fill="rgb(255,255,255)"/></clipPath><g clip-path="url(#_clipPath_8gCC1pacJ0LgXenxZmeaC8A3Ph8AQ2Wp)"><path d=" M 697.871 113.968 C 691.565 111.889 688.348 115.263 690.714 121.463 C 690.714 121.463 693.904 129.857 706.438 134.78 C 719.6 139.948 728.135 135.189 728.135 135.189 C 733.93 131.949 733.634 127.268 727.483 124.766 L 697.871 113.968 Z " fill="rgb(206,48,61)"/></g><clipPath id="_clipPath_sxgsSNKPEJFM5RMvn6cgMlqPHLZCKnIP"><path d=" M 0 0 L 0 618.998 L 1106.875 618.998 L 1106.875 0 L 0 0 Z " fill="rgb(255,255,255)"/></clipPath><g clip-path="url(#_clipPath_sxgsSNKPEJFM5RMvn6cgMlqPHLZCKnIP)"><path d=" M 315.195 182.532 L 298.577 125.286 C 298.577 125.286 321.465 127.084 352.448 125.88 L 367.852 179.083 C 350.477 181.544 333.338 182.979 315.195 182.532 Z  M 401.992 185.303 L 447.243 177.914 L 447.243 212.082 L 756.595 212.082 C 756.595 212.082 693.803 151.135 570.064 152.98 C 487.28 154.227 434.263 167.85 386.114 176.179 L 371.237 124.808 C 389.961 123.39 410.295 120.758 429.699 116.049 C 490.641 101.271 555.283 84.652 608.854 86.498 C 662.408 88.346 773.219 101.271 863.715 212.082 L 928.874 212.082 C 916.851 189.026 900.548 167.025 880.091 146.558 C 805.663 72.14 685.24 27.701 557.943 27.701 C 430.645 27.701 310.219 72.14 235.803 146.558 C 215.34 167.025 199.031 189.026 187.018 212.082 L 401.992 212.082 L 401.992 185.303 Z " fill="rgb(197,47,64)"/></g><clipPath id="_clipPath_SabssQAFcVeYk3pq5ipto5OLw2qw30O8"><path d=" M 0 0 L 0 618.998 L 1106.875 618.998 L 1106.875 0 L 0 0 Z " fill="rgb(255,255,255)"/></clipPath><g clip-path="url(#_clipPath_SabssQAFcVeYk3pq5ipto5OLw2qw30O8)"><path d=" M 1067.237 225.932 C 1078.191 225.932 1082.398 233.538 1076.563 242.824 L 998.053 367.869 C 992.228 377.164 978.473 384.75 967.499 384.75 L 39.655 384.75 C 28.679 384.75 24.471 377.164 30.306 367.869 L 108.831 242.824 C 114.663 233.538 128.411 225.932 139.381 225.932 L 1067.237 225.932 Z " fill="rgb(17,69,110)"/></g><clipPath id="_clipPath_yBTlUFxzth5xgMe53BgcwAKzCjdJiI2a"><path d=" M 0 0 L 0 618.998 L 1106.875 618.998 L 1106.875 0 L 0 0 Z " fill="rgb(255,255,255)"/></clipPath><g clip-path="url(#_clipPath_yBTlUFxzth5xgMe53BgcwAKzCjdJiI2a)"><path d=" M 205.773 331.972 L 221.812 331.972 C 235.372 331.972 241.707 331.24 253.811 324.731 C 263.548 319.496 269.511 310.685 274.355 302.634 C 279.883 293.462 277.812 286.417 274.592 281.341 C 272.247 277.669 267.658 274.878 259.03 273.603 L 240.85 273.603 L 205.773 331.972 Z  M 161.123 332.848 L 197.465 272.539 L 175.223 272.632 L 188.588 250.447 L 266.923 250.447 C 290.398 250.447 303.926 254.676 312.156 264.61 C 320.306 274.458 325.085 294.538 315.819 309.926 C 307.556 323.633 299.462 337.724 281.189 347.332 C 260.948 358.039 229.186 355.406 204.946 355.406 L 125.36 355.406 L 138.731 333.217 L 161.123 332.848 Z " fill="rgb(254,254,254)"/></g><clipPath id="_clipPath_pVh7t86QLfEoLJ4OmPBkJLqz2h7S0GuP"><path d=" M 0 0 L 0 618.998 L 1106.875 618.998 L 1106.875 0 L 0 0 Z " fill="rgb(255,255,255)"/></clipPath><g clip-path="url(#_clipPath_pVh7t86QLfEoLJ4OmPBkJLqz2h7S0GuP)"><path d=" M 374.919 333.217 L 389.052 333.217 L 375.687 355.406 L 313.943 355.406 L 327.308 333.217 L 341.318 333.217 L 362.989 297.227 L 349.05 297.462 L 362.407 275.275 L 410.15 275.275 L 374.919 333.217 Z " fill="rgb(254,254,254)"/></g><clipPath id="_clipPath_6PrCVvWA02o2aZAgtkah2SlgR1mlGO1a"><path d=" M 0 0 L 0 618.998 L 1106.875 618.998 L 1106.875 0 L 0 0 Z " fill="rgb(255,255,255)"/></clipPath><g clip-path="url(#_clipPath_6PrCVvWA02o2aZAgtkah2SlgR1mlGO1a)"><path d=" M 707.273 333.217 L 721.408 333.217 L 708.039 355.406 L 646.295 355.406 L 659.664 333.217 L 673.665 333.217 L 695.342 297.227 L 681.394 297.462 L 694.771 275.275 L 742.505 275.275 L 707.273 333.217 Z " fill="rgb(254,254,254)"/></g><clipPath id="_clipPath_AGm4ETds0XsQyh4v44pA9VRViPTj9LJD"><path d=" M 0 0 L 0 618.998 L 1106.875 618.998 L 1106.875 0 L 0 0 Z " fill="rgb(255,255,255)"/></clipPath><g clip-path="url(#_clipPath_AGm4ETds0XsQyh4v44pA9VRViPTj9LJD)"><path d=" M 600.206 293.271 L 643.718 272.572 L 670.91 272.734 L 657.816 294.126 L 643.847 294.187 L 607.079 311.664 L 621.389 330.465 L 641.618 330.668 L 628.249 352.857 L 592.057 352.857 L 571.705 322.427 L 556.099 352.857 L 505.684 352.857 L 519.053 330.668 L 532.923 330.668 L 569.675 269.878 L 555.548 270.096 L 568.921 247.894 L 616.858 247.894 L 585.253 300.367 L 600.206 293.271 Z " fill="rgb(254,254,254)"/></g><clipPath id="_clipPath_gsESOtaDO53GBCZQPzLWd5f2DPc8oguN"><path d=" M 0 0 L 0 618.998 L 1106.875 618.998 L 1106.875 0 L 0 0 Z " fill="rgb(255,255,255)"/></clipPath><g clip-path="url(#_clipPath_gsESOtaDO53GBCZQPzLWd5f2DPc8oguN)"><path d=" M 887.798 331.077 C 886.984 332.791 886.976 335.725 891.012 337.622 C 895.364 339.662 898.343 338.585 900.709 338.585 C 905.84 338.585 912.863 336.134 915.249 332.156 C 917.208 328.916 915.781 327.894 906.788 326.081 L 905.188 325.752 C 889.82 322.694 866.531 318.065 878.234 298.635 C 888.066 282.302 913.414 273.757 933.361 273.757 C 941.631 273.757 951.787 277.139 951.787 277.139 L 952.723 275.275 L 980.248 275.275 L 964.314 301.747 L 939.784 301.747 C 939.784 301.747 942.62 296.929 937.612 294.485 C 934.195 292.8 930.669 293.045 928.202 293.045 C 923.509 293.045 917.463 294.822 915.473 298.104 C 913.609 301.203 915.465 302.37 924.899 304.037 C 940.007 306.669 965.103 311.049 952.796 331.484 C 942.089 349.244 915.371 357.345 895.073 357.345 C 881.866 357.345 874.178 352.733 874.178 352.733 L 872.565 355.406 L 844.433 355.406 L 861.206 327.546 L 889.505 327.546 L 887.798 331.077 Z " fill="rgb(254,254,254)"/></g><clipPath id="_clipPath_YTuK1dgF7DqOvfysk2Km0izYP6P08E8N"><path d=" M 0 0 L 0 618.998 L 1106.875 618.998 L 1106.875 0 L 0 0 Z " fill="rgb(255,255,255)"/></clipPath><g clip-path="url(#_clipPath_YTuK1dgF7DqOvfysk2Km0izYP6P08E8N)"><path d=" M 784.497 305.283 C 784.497 305.283 792.99 289.231 807.195 289.231 C 825.119 289.231 815.421 305.283 815.421 305.283 L 784.497 305.283 Z  M 841.742 281.85 C 835.347 272.956 820.248 271.226 807.114 271.226 C 779.528 271.226 752.815 291.506 746.051 315.047 C 742.769 326.467 745.034 337.131 752.421 345.086 C 759.768 352.98 771.322 357.262 784.975 357.341 C 825.119 357.571 832.973 328.958 832.973 328.958 L 809.447 328.958 L 808.204 330.079 C 802.636 335.111 797.088 338.581 789.032 338.175 C 771.107 337.257 779.877 318.616 779.877 318.616 L 841.535 318.616 C 841.535 318.616 844.85 310.296 844.951 310.007 C 846.827 302.619 850.05 293.381 841.742 281.85 Z " fill="rgb(254,254,254)"/></g><clipPath id="_clipPath_yV310vEM5iVHfHBgOKrYZX6fO3gVkTXa"><path d=" M 0 0 L 0 618.998 L 1106.875 618.998 L 1106.875 0 L 0 0 Z " fill="rgb(255,255,255)"/></clipPath><g clip-path="url(#_clipPath_yV310vEM5iVHfHBgOKrYZX6fO3gVkTXa)"><path d=" M 391.735 266.758 C 404.848 266.758 417.147 261.986 419.186 256.094 C 421.222 250.202 412.25 245.428 399.116 245.428 C 386.004 245.428 373.705 250.202 371.666 256.094 C 369.616 261.986 378.601 266.758 391.735 266.758 Z " fill="rgb(254,254,254)"/></g><clipPath id="_clipPath_YZJeTZmS1winjx6Agc3pG05XZE7oPyR9"><path d=" M 0 0 L 0 618.998 L 1106.875 618.998 L 1106.875 0 L 0 0 Z " fill="rgb(255,255,255)"/></clipPath><g clip-path="url(#_clipPath_YZJeTZmS1winjx6Agc3pG05XZE7oPyR9)"><path d=" M 723.304 266.758 C 736.418 266.758 748.714 261.986 750.751 256.094 C 752.802 250.202 743.818 245.428 730.696 245.428 C 717.574 245.428 705.274 250.202 703.237 256.094 C 701.198 261.986 710.171 266.758 723.304 266.758 Z " fill="rgb(254,254,254)"/></g><clipPath id="_clipPath_IZl9hCw1XJ08JVSTXHbUxu9UnnGrmW8v"><path d=" M 0 0 L 0 618.998 L 1106.875 618.998 L 1106.875 0 L 0 0 Z " fill="rgb(255,255,255)"/></clipPath><g clip-path="url(#_clipPath_IZl9hCw1XJ08JVSTXHbUxu9UnnGrmW8v)"><path d=" M 489.318 348.085 L 500.536 327.548 L 481.613 327.548 L 478.836 331.711 C 473.156 336.947 469.587 339.561 461.756 339.561 C 455.8 339.561 449.788 339.885 447.44 332.179 C 446.214 328.137 446.38 322.798 448.921 317.675 C 454.415 306.651 464.063 298.919 475.134 296.226 C 482.048 294.538 487.496 299.326 489.157 304.517 L 489.729 306.294 L 508.653 306.294 L 524.08 275.275 L 504.411 275.275 C 504.411 275.275 504.39 280.22 502.726 278.863 C 498.121 275.092 491.5 273.061 483.466 273.061 C 457.606 273.061 426.201 279.995 413.27 314.618 C 408.826 326.548 410.885 336.765 416.972 344.637 C 424.815 354.797 433.591 358.484 445.128 359.406 C 477.662 362.012 489.318 348.085 489.318 348.085 Z " fill="rgb(254,254,254)"/></g><clipPath id="_clipPath_MVja3mDPbc5jCgaSkdwxJkJoOYCqRH9J"><path d=" M 0 0 L 0 618.998 L 1106.875 618.998 L 1106.875 0 L 0 0 Z " fill="rgb(255,255,255)"/></clipPath><g clip-path="url(#_clipPath_MVja3mDPbc5jCgaSkdwxJkJoOYCqRH9J)"><path d=" M 298.575 125.286 L 315.194 182.532 C 333.336 182.979 350.475 181.544 367.854 179.083 L 352.446 125.88 C 321.469 127.084 298.575 125.286 298.575 125.286 Z " fill="rgb(255,207,42)"/></g><clipPath id="_clipPath_5WMVabChTHT4F3SRxjp2kzNjgzBUVqOM"><path d=" M 0 0 L 0 618.998 L 1106.875 618.998 L 1106.875 0 L 0 0 Z " fill="rgb(255,255,255)"/></clipPath><g clip-path="url(#_clipPath_5WMVabChTHT4F3SRxjp2kzNjgzBUVqOM)"><path d=" M 447.245 212.195 L 447.245 177.914 L 401.992 185.306 L 401.992 212.195 L 447.245 212.195 Z " fill="rgb(255,207,42)"/></g><clipPath id="_clipPath_GiPTG1qtP9F3oxJPJKAsuOM4SnPnMIDN"><path d=" M 0 0 L 0 618.998 L 1106.875 618.998 L 1106.875 0 L 0 0 Z " fill="rgb(255,255,255)"/></clipPath><g clip-path="url(#_clipPath_GiPTG1qtP9F3oxJPJKAsuOM4SnPnMIDN)"><path d=" M 785.21 169.827 C 785.21 169.827 774.888 172.865 762.042 164.097 C 749.803 155.743 748.429 145.966 748.429 145.966 C 747.408 138.737 751.692 135.911 757.94 139.683 L 787.054 158.506 C 793.052 162.676 792.213 167.776 785.21 169.827 Z  M 728.135 135.189 C 728.135 135.189 719.6 139.948 706.438 134.78 C 693.904 129.857 690.714 121.463 690.714 121.463 C 688.348 115.263 691.57 111.889 697.871 113.968 L 727.483 124.766 C 733.634 127.268 733.93 131.949 728.135 135.189 Z  M 671.891 116.039 C 671.891 116.039 665.139 121.831 652.488 119.599 C 640.423 117.465 636.067 110.574 636.067 110.574 C 632.844 105.473 635.098 101.883 641.096 102.611 L 669.423 106.872 C 675.356 107.984 676.457 112.111 671.891 116.039 Z  M 613.227 109.074 C 613.227 109.074 607.59 114.863 595.956 113.877 C 584.859 112.93 580.353 107.046 580.353 107.046 C 577.018 102.687 578.772 99.265 584.256 99.419 L 610.26 100.98 C 615.715 101.498 617.052 105.137 613.227 109.074 Z  M 608.854 86.496 C 555.281 84.654 490.645 101.273 429.699 116.051 C 410.293 120.762 389.959 123.392 371.242 124.807 L 386.118 176.179 C 434.267 167.847 487.28 154.223 570.064 152.978 C 693.803 151.137 756.591 212.084 756.591 212.084 L 863.715 212.084 C 773.219 101.273 662.408 88.342 608.854 86.496 Z " fill="rgb(255,207,42)"/></g><clipPath id="_clipPath_H23IuSQfmPdRHsRM4ca0OGsRBNFs6NEi"><path d=" M 0 0 L 0 618.998 L 1106.875 618.998 L 1106.875 0 L 0 0 Z " fill="rgb(255,255,255)"/></clipPath><g clip-path="url(#_clipPath_H23IuSQfmPdRHsRM4ca0OGsRBNFs6NEi)"><path d=" M 298.575 484.581 L 315.194 427.335 C 333.336 426.888 350.475 428.335 367.854 430.784 L 352.446 483.987 C 321.469 482.783 298.575 484.581 298.575 484.581 Z " fill="rgb(255,207,42)"/></g><clipPath id="_clipPath_LugIANgNIGJHbhLXkhrJX8wCuzdCVOBq"><path d=" M 0 0 L 0 618.998 L 1106.875 618.998 L 1106.875 0 L 0 0 Z " fill="rgb(255,255,255)"/></clipPath><g clip-path="url(#_clipPath_LugIANgNIGJHbhLXkhrJX8wCuzdCVOBq)"><path d=" M 447.245 398.703 L 447.245 433.817 L 401.992 426.44 L 401.992 398.703 L 447.245 398.703 Z " fill="rgb(255,207,42)"/></g><clipPath id="_clipPath_AEHj4S4n8wQoT9YEfxM4ed16idChnfn5"><path d=" M 0 0 L 0 618.998 L 1106.875 618.998 L 1106.875 0 L 0 0 Z " fill="rgb(255,255,255)"/></clipPath><g clip-path="url(#_clipPath_AEHj4S4n8wQoT9YEfxM4ed16idChnfn5)"><path d=" M 787.054 452.053 L 757.94 470.878 C 751.692 474.648 747.408 471.836 748.429 464.595 C 748.429 464.595 749.803 454.825 762.042 446.464 C 774.888 437.696 785.21 440.733 785.21 440.733 C 792.213 442.775 793.052 447.892 787.054 452.053 Z  M 727.483 485.782 L 697.871 496.593 C 691.57 498.672 688.348 495.306 690.714 489.108 C 690.714 489.108 693.904 480.706 706.438 475.769 C 719.6 470.612 728.135 475.384 728.135 475.384 C 733.93 478.604 733.634 483.296 727.483 485.782 Z  M 669.423 503.689 L 641.096 507.951 C 635.098 508.669 632.844 505.095 636.067 500 C 636.067 500 640.423 493.087 652.488 490.962 C 665.139 488.721 671.891 494.533 671.891 494.533 C 676.457 498.448 675.356 502.568 669.423 503.689 Z  M 610.256 509.584 L 584.256 511.133 C 578.772 511.294 577.018 507.873 580.349 503.526 C 580.349 503.526 584.859 497.634 595.956 496.676 C 607.59 495.696 613.227 501.49 613.227 501.49 C 617.052 505.423 615.715 509.076 610.256 509.584 Z  M 863.715 398.476 L 756.595 398.476 C 756.595 398.476 693.803 459.415 570.064 457.581 C 487.28 456.336 434.263 442.713 386.114 434.37 L 371.237 485.746 C 389.961 487.168 410.291 489.805 429.699 494.514 C 490.641 509.299 555.283 525.918 608.854 524.064 C 662.408 522.208 773.219 509.299 863.715 398.476 Z " fill="rgb(255,207,42)"/></g><clipPath id="_clipPath_zKVhnLVHCFI0QPfJikMiXVYo67JaG8n5"><path d=" M 0 0 L 0 618.998 L 1106.875 618.998 L 1106.875 0 L 0 0 Z " fill="rgb(255,255,255)"/></clipPath><g clip-path="url(#_clipPath_zKVhnLVHCFI0QPfJikMiXVYo67JaG8n5)"><path d=" M 352.446 125.879 L 367.854 179.087 C 350.475 181.542 333.336 182.983 315.194 182.53 L 298.575 125.284 C 298.575 125.284 321.469 127.082 352.446 125.879 Z  M 313.862 182.921 L 314.148 183.899 L 315.165 183.92 C 331.63 184.326 348.438 183.226 368.044 180.45 L 369.627 180.227 L 369.179 178.701 L 353.769 125.493 L 353.475 124.452 L 352.383 124.5 C 321.866 125.687 298.911 123.918 298.678 123.899 L 296.686 123.745 L 297.237 125.676 L 313.862 182.921 Z " fill="rgb(255,207,42)"/></g><clipPath id="_clipPath_EHqJGRkwwufXVhm5qCLkaEYNg5h4rdO1"><path d=" M 0 0 L 0 618.998 L 1106.875 618.998 L 1106.875 0 L 0 0 Z " fill="rgb(255,255,255)"/></clipPath><g clip-path="url(#_clipPath_EHqJGRkwwufXVhm5qCLkaEYNg5h4rdO1)"><path d=" M 352.446 483.99 C 321.469 482.785 298.575 484.583 298.575 484.583 L 315.194 427.338 C 333.336 426.886 350.475 428.333 367.854 430.78 L 352.446 483.99 Z  M 368.044 429.416 C 348.438 426.645 331.63 425.541 315.165 425.952 L 314.148 425.972 L 313.862 426.947 L 297.237 484.192 L 296.686 486.13 L 298.678 485.969 C 298.911 485.949 321.866 484.192 352.383 485.375 L 353.475 485.415 L 353.769 484.374 L 369.179 431.168 L 369.627 429.64 L 368.044 429.416 Z " fill="rgb(255,207,42)"/></g><clipPath id="_clipPath_FuIXkq3H14D4ks9GKyQwmb4nGHao15nQ"><path d=" M 0 0 L 0 618.998 L 1106.875 618.998 L 1106.875 0 L 0 0 Z " fill="rgb(255,255,255)"/></clipPath><g clip-path="url(#_clipPath_FuIXkq3H14D4ks9GKyQwmb4nGHao15nQ)"><path d=" M 448.634 177.914 L 448.634 176.291 L 447.023 176.556 L 401.779 183.94 L 400.618 184.123 L 400.618 185.306 L 400.618 212.194 L 401.992 212.194 L 401.992 185.306 L 447.247 177.914 L 447.247 212.194 L 448.634 212.194 L 448.634 177.914 Z " fill="rgb(255,207,42)"/></g><clipPath id="_clipPath_XwFrWQbhfpc6PCVCycBX0Thv6rabxpRm"><path d=" M 0 0 L 0 618.998 L 1106.875 618.998 L 1106.875 0 L 0 0 Z " fill="rgb(255,255,255)"/></clipPath><g clip-path="url(#_clipPath_XwFrWQbhfpc6PCVCycBX0Thv6rabxpRm)"><path d=" M 692.051 115.568 C 693 114.568 694.965 114.468 697.401 115.275 L 727.004 126.071 C 729.379 127.031 730.818 128.387 730.898 129.78 C 730.992 131.172 729.735 132.698 727.462 133.977 C 727.381 134.013 719.264 138.338 706.948 133.494 C 695.2 128.876 692.04 121.045 692.007 120.963 C 691.079 118.535 691.091 116.56 692.051 115.568 Z  M 706.438 134.777 C 719.6 139.948 728.135 135.189 728.135 135.189 C 733.93 131.947 733.638 127.266 727.483 124.764 L 697.871 113.966 C 691.57 111.887 688.348 115.263 690.714 121.461 C 690.714 121.461 693.904 129.856 706.438 134.777 Z " fill="rgb(255,207,42)"/></g><clipPath id="_clipPath_CW5muyhV77ExMgIHeLyif9DUAh6d2WYl"><path d=" M 0 0 L 0 618.998 L 1106.875 618.998 L 1106.875 0 L 0 0 Z " fill="rgb(255,255,255)"/></clipPath><g clip-path="url(#_clipPath_CW5muyhV77ExMgIHeLyif9DUAh6d2WYl)"><path d=" M 636.293 105.148 C 636.934 104.126 638.632 103.709 640.894 103.978 L 669.22 108.248 C 671.453 108.667 672.94 109.583 673.257 110.758 C 673.572 111.927 672.746 113.479 670.995 114.987 C 670.922 115.04 664.519 120.311 652.731 118.233 C 641.493 116.254 637.27 109.891 637.247 109.828 C 635.998 107.871 635.649 106.157 636.293 105.148 Z  M 652.488 119.597 C 665.139 121.829 671.891 116.041 671.891 116.041 C 676.457 112.111 675.356 107.982 669.423 106.87 L 641.096 102.608 C 635.098 101.885 632.844 105.476 636.067 110.576 C 636.067 110.576 640.423 117.465 652.488 119.597 Z " fill="rgb(255,207,42)"/></g><clipPath id="_clipPath_uTTbKr6yLaLLOhHe5uUv2aRxix6g7ab0"><path d=" M 0 0 L 0 618.998 L 1106.875 618.998 L 1106.875 0 L 0 0 Z " fill="rgb(255,255,255)"/></clipPath><g clip-path="url(#_clipPath_uTTbKr6yLaLLOhHe5uUv2aRxix6g7ab0)"><path d=" M 751.222 139.849 C 752.539 138.99 754.732 139.358 757.191 140.85 L 786.3 159.667 C 788.667 161.311 789.891 163.171 789.636 164.739 C 789.38 166.307 787.625 167.685 784.821 168.504 C 784.728 168.532 774.908 171.205 762.828 162.953 C 751.307 155.082 749.816 145.867 749.795 145.776 C 749.402 142.874 749.921 140.724 751.222 139.849 Z  M 762.042 164.097 C 774.888 172.865 785.21 169.827 785.21 169.827 C 792.213 167.776 793.052 162.676 787.054 158.51 L 757.94 139.683 C 751.692 135.911 747.408 138.737 748.429 145.966 C 748.429 145.966 749.803 155.747 762.042 164.097 Z " fill="rgb(255,207,42)"/></g><clipPath id="_clipPath_Sg4JqTf7LW0mRbKMV1G2mYft3T9AaxrY"><path d=" M 0 0 L 0 618.998 L 1106.875 618.998 L 1106.875 0 L 0 0 Z " fill="rgb(255,255,255)"/></clipPath><g clip-path="url(#_clipPath_Sg4JqTf7LW0mRbKMV1G2mYft3T9AaxrY)"><path d=" M 580.231 102.171 C 580.698 101.253 582.189 100.745 584.174 100.802 L 610.167 102.362 C 612.137 102.55 613.563 103.242 613.92 104.221 C 614.276 105.196 613.645 106.649 612.238 108.105 C 612.024 108.316 606.844 113.417 596.065 112.501 C 585.795 111.623 581.484 106.25 581.443 106.197 C 580.22 104.586 579.762 103.089 580.231 102.171 Z  M 595.956 113.877 C 607.59 114.865 613.227 109.076 613.227 109.076 C 617.052 105.139 615.715 101.494 610.26 100.975 L 584.256 99.415 C 578.772 99.263 577.018 102.689 580.353 107.044 C 580.353 107.044 584.859 112.928 595.956 113.877 Z " fill="rgb(255,207,42)"/></g><clipPath id="_clipPath_LgrWi0951XrpRcT4wgerIuo2EdJ6SWEH"><path d=" M 0 0 L 0 618.998 L 1106.875 618.998 L 1106.875 0 L 0 0 Z " fill="rgb(255,255,255)"/></clipPath><g clip-path="url(#_clipPath_LgrWi0951XrpRcT4wgerIuo2EdJ6SWEH)"><path d=" M 429.699 116.049 C 490.645 101.271 555.283 84.652 608.854 86.498 C 662.408 88.346 773.219 101.271 863.715 212.082 L 756.595 212.082 C 756.595 212.082 693.803 151.135 570.064 152.98 C 487.28 154.227 434.267 167.85 386.118 176.179 L 371.242 124.808 C 389.959 123.39 410.295 120.758 429.699 116.049 Z  M 384.79 176.569 L 385.125 177.76 L 386.351 177.543 C 395.72 175.926 405.173 174.12 415.186 172.212 C 456.585 164.321 503.514 155.367 570.085 154.367 C 683.707 152.675 746.367 204.804 754.67 212.194 L 865.591 212.194 L 864.785 211.207 C 799.394 131.142 713.299 88.711 608.894 85.108 C 558.178 83.369 497.986 98.009 439.782 112.172 L 429.37 114.703 C 412.2 118.861 392.612 121.799 371.138 123.43 L 369.435 123.564 L 369.912 125.195 L 384.79 176.569 Z " fill="rgb(255,207,42)"/></g><clipPath id="_clipPath_WgfoEqi9t3KK6J2GTGv8GZooPhqYDmny"><path d=" M 0 0 L 0 618.998 L 1106.875 618.998 L 1106.875 0 L 0 0 Z " fill="rgb(255,255,255)"/></clipPath><g clip-path="url(#_clipPath_WgfoEqi9t3KK6J2GTGv8GZooPhqYDmny)"><path d=" M 401.992 398.703 L 447.245 398.703 L 447.245 433.817 L 401.992 426.44 L 401.992 398.703 Z  M 400.614 398.703 L 400.614 426.44 L 400.614 427.601 L 401.781 427.806 L 447.024 435.187 L 448.636 435.453 L 448.636 433.817 L 448.636 398.703 L 448.636 398.5 L 400.614 398.5 L 400.614 398.703 Z " fill="rgb(255,207,42)"/></g><clipPath id="_clipPath_LNNYHSoFQbiSRpvGZpaxSi2wQ3ItWySA"><path d=" M 0 0 L 0 618.998 L 1106.875 618.998 L 1106.875 0 L 0 0 Z " fill="rgb(255,255,255)"/></clipPath><g clip-path="url(#_clipPath_LNNYHSoFQbiSRpvGZpaxSi2wQ3ItWySA)"><path d=" M 608.854 524.064 C 555.281 525.918 490.645 509.299 429.699 494.514 C 410.293 489.805 389.959 487.168 371.242 485.746 L 386.118 434.37 C 434.267 442.713 487.28 456.336 570.064 457.581 C 693.365 459.415 756.137 398.928 756.575 398.499 L 754.516 398.499 C 745.686 406.328 683.112 457.883 570.085 456.195 C 503.514 455.194 456.589 446.24 415.186 438.346 C 405.173 436.45 395.724 434.638 386.349 433.007 L 385.125 432.798 L 384.788 433.982 L 369.912 485.355 L 369.435 487.006 L 371.136 487.132 C 392.612 488.763 412.197 491.701 429.37 495.859 L 439.781 498.386 C 497.986 512.541 558.178 527.205 608.894 525.45 C 713.299 521.839 799.394 479.422 864.785 399.356 L 865.49 398.499 L 863.694 398.499 C 773.206 509.299 662.408 522.208 608.854 524.064 Z " fill="rgb(255,207,42)"/></g><clipPath id="_clipPath_8tarINiEd2RsT4phTBkQQc254DvBxeVe"><path d=" M 0 0 L 0 618.998 L 1106.875 618.998 L 1106.875 0 L 0 0 Z " fill="rgb(255,255,255)"/></clipPath><g clip-path="url(#_clipPath_8tarINiEd2RsT4phTBkQQc254DvBxeVe)"><path d=" M 691.999 489.598 C 692.04 489.515 695.196 481.683 706.948 477.073 C 719.244 472.223 727.352 476.527 727.462 476.59 C 729.735 477.85 730.988 479.382 730.898 480.788 C 730.818 482.173 729.379 483.523 727.004 484.498 C 727.004 484.498 697.401 495.288 697.45 495.267 C 694.965 496.084 693 496.001 692.051 494.999 C 691.091 494.005 691.079 492.025 691.999 489.598 Z  M 697.871 496.595 L 727.483 485.784 C 733.634 483.294 733.93 478.606 728.135 475.386 C 728.135 475.386 719.6 470.612 706.438 475.771 C 693.904 480.704 690.714 489.108 690.714 489.108 C 688.348 495.308 691.565 498.674 697.871 496.595 Z " fill="rgb(255,207,42)"/></g><clipPath id="_clipPath_xZa8SZfCtJivouf2McJz4zNimaKFYs5d"><path d=" M 0 0 L 0 618.998 L 1106.875 618.998 L 1106.875 0 L 0 0 Z " fill="rgb(255,255,255)"/></clipPath><g clip-path="url(#_clipPath_xZa8SZfCtJivouf2McJz4zNimaKFYs5d)"><path d=" M 637.23 500.734 C 637.27 500.671 641.493 494.311 652.731 492.331 C 664.487 490.252 670.889 495.492 670.982 495.571 L 670.995 495.571 L 670.982 495.571 C 672.746 497.083 673.572 498.634 673.257 499.792 C 672.94 500.979 671.453 501.897 669.22 502.323 C 669.22 502.323 640.894 506.585 640.934 506.585 C 638.628 506.851 636.934 506.424 636.293 505.423 C 635.661 504.402 635.998 502.693 637.23 500.734 Z  M 641.096 507.951 L 669.423 503.689 C 675.359 502.568 676.457 498.448 671.894 494.533 C 671.894 494.533 665.143 488.721 652.488 490.966 C 640.428 493.087 636.067 500 636.067 500 C 632.844 505.095 635.098 508.669 641.096 507.951 Z " fill="rgb(255,207,42)"/></g><clipPath id="_clipPath_bZ5Jmpm77WWhmH5HsGoJctPCyI0L2te5"><path d=" M 0 0 L 0 618.998 L 1106.875 618.998 L 1106.875 0 L 0 0 Z " fill="rgb(255,255,255)"/></clipPath><g clip-path="url(#_clipPath_bZ5Jmpm77WWhmH5HsGoJctPCyI0L2te5)"><path d=" M 581.443 504.363 C 581.484 504.32 585.795 498.939 596.065 498.059 C 606.832 497.144 612.016 502.222 612.238 502.446 L 612.238 502.467 L 612.238 502.446 C 613.645 503.915 614.276 505.364 613.92 506.342 C 613.563 507.317 612.137 508.014 610.167 508.197 C 610.167 508.197 584.174 509.745 584.216 509.745 C 582.189 509.808 580.698 509.297 580.231 508.402 C 579.762 507.484 580.22 505.975 581.443 504.363 Z  M 584.256 511.135 L 610.26 509.582 C 615.715 509.074 617.052 505.42 613.227 501.488 C 613.227 501.488 607.59 495.698 595.956 496.673 C 584.859 497.632 580.353 503.524 580.353 503.524 C 577.018 507.87 578.772 511.297 584.256 511.135 Z " fill="rgb(255,207,42)"/></g><clipPath id="_clipPath_R7cpNDHiQrBRV591JSxrnOo59K0nmFMK"><path d=" M 0 0 L 0 618.998 L 1106.875 618.998 L 1106.875 0 L 0 0 Z " fill="rgb(255,255,255)"/></clipPath><g clip-path="url(#_clipPath_R7cpNDHiQrBRV591JSxrnOo59K0nmFMK)"><path d=" M 749.795 464.799 C 749.816 464.7 751.303 455.478 762.828 447.606 C 774.901 439.37 784.687 442.021 784.821 442.062 C 787.625 442.874 789.38 444.263 789.636 445.812 C 789.891 447.383 788.667 449.257 786.3 450.889 C 786.3 450.889 757.187 469.716 757.228 469.696 C 754.727 471.202 752.539 471.57 751.222 470.711 C 749.917 469.836 749.398 467.674 749.795 464.799 Z  M 757.94 470.874 L 787.054 452.056 C 793.052 447.894 792.213 442.771 785.21 440.736 C 785.21 440.736 774.888 437.698 762.042 446.466 C 749.803 454.827 748.429 464.597 748.429 464.597 C 747.408 471.836 751.692 474.65 757.94 470.874 Z " fill="rgb(255,207,42)"/></g><clipPath id="_clipPath_gXfw6UP3y46kM97iQHVqadP6Vzl6dH9t"><path d=" M 0 0 L 0 618.998 L 1106.875 618.998 L 1106.875 0 L 0 0 Z " fill="rgb(255,255,255)"/></clipPath><g clip-path="url(#_clipPath_gXfw6UP3y46kM97iQHVqadP6Vzl6dH9t)"><line x1="401.992" y1="212.195" x2="447.245" y2="212.195"/></g><clipPath id="_clipPath_JNtFr2qgYLKM0nNCnwCeJ7oHQ5VhGJAx"><path d=" M 0 0 L 0 618.998 L 1106.875 618.998 L 1106.875 0 L 0 0 Z " fill="rgb(255,255,255)"/></clipPath><g clip-path="url(#_clipPath_JNtFr2qgYLKM0nNCnwCeJ7oHQ5VhGJAx)"><path d=" M 863.715 398.478 L 756.6 398.478 L 756.575 398.499 L 863.694 398.499 C 863.694 398.499 863.706 398.478 863.715 398.478 Z " fill="rgb(255,207,42)"/></g><clipPath id="_clipPath_WXSaCCPHJy6TKGRfRv1giw4kn2B4Tek6"><path d=" M 0 0 L 0 618.998 L 1106.875 618.998 L 1106.875 0 L 0 0 Z " fill="rgb(255,255,255)"/></clipPath><g clip-path="url(#_clipPath_WXSaCCPHJy6TKGRfRv1giw4kn2B4Tek6)"><path d=" M 986.031 454.912 C 988.826 454.912 991.316 454.71 991.316 451.364 C 991.316 448.671 988.875 448.181 986.59 448.181 L 982.098 448.181 L 982.098 454.912 L 986.031 454.912 Z  M 982.098 467.108 L 978.812 467.108 L 978.812 445.389 L 987.08 445.389 C 992.219 445.389 994.768 447.285 994.768 451.567 C 994.768 455.442 992.317 457.137 989.12 457.542 L 995.298 467.108 L 991.62 467.108 L 985.884 457.684 L 982.098 457.684 L 982.098 467.108 Z  M 986.08 471.942 C 994.611 471.942 1001.339 465.274 1001.339 456.198 C 1001.339 447.285 994.611 440.554 986.08 440.554 C 977.467 440.554 970.736 447.285 970.736 456.198 C 970.736 465.274 977.467 471.942 986.08 471.942 Z  M 966.943 456.198 C 966.943 445.389 975.713 437.413 986.08 437.413 C 996.347 437.413 1005.124 445.389 1005.124 456.198 C 1005.124 467.108 996.347 475.08 986.08 475.08 C 975.713 475.08 966.943 467.108 966.943 456.198 Z " fill="rgb(254,254,254)"/></g></g></svg>