<svg xmlns="http://www.w3.org/2000/svg" viewBox="0 0 357.3 179.8"><path d="M120 118.8h5.9v45.8H120zM97.1 129.4c-9.8 0-17.7 8-17.7 17.7 0 9.8 8 17.7 17.7 17.7 4.4 0 8.6-1.6 11.8-4.5v1.6c0 6.5-5.3 11.9-11.9 11.9-3.9 0-7.2-1.9-9.7-4.7l-4 4.1c3.4 4.1 8.4 6.5 13.8 6.5 9 0 17.8-6.6 17.8-18.9V147c-.1-9.6-8.1-17.6-17.8-17.6zm0 29.7c-6.6 0-11.9-5.3-11.9-11.9 0-6.6 5.3-11.9 11.9-11.9 6.6 0 11.9 5.3 11.9 11.9 0 6.5-5.4 11.9-11.9 11.9zM196 135.2c3.2 0 6.2 1.2 8.4 3.5l.6.6 4.1-4.1-.6-.6c-3.4-3.4-7.8-5.2-12.5-5.2s-9.2 1.8-12.5 5.2c-6.9 6.9-6.9 18.2 0 25.1 3.3 3.3 7.8 5.2 12.5 5.2s9.2-1.8 12.5-5.2l.6-.6-4.1-4.1-.6.6c-2.2 2.3-5.2 3.5-8.4 3.5s-6.2-1.2-8.4-3.5c-2.2-2.2-3.5-5.2-3.5-8.4s1.2-6.2 3.5-8.4c2.3-2.3 5.3-3.6 8.4-3.6zM220.9 134v-4.6h-5.8v35.2h5.8V147c0-6.6 5.4-11.9 12-11.9h2.9v-5.8h-2.9c-4.6 0-8.8 1.8-12 4.7zM346.4 131.3h-8.2L323.5 146v-27.3h-5.8v46h5.8v-10.5l3.2-3.2 13.6 13.7h8.3l-17.8-17.8zM184.8 39.8c-16.9.9-36.8 12.7-60.9 41.2 3.7 4.6 7.8 9.1 12.2 13.5 15.2-31.9 33.1-50.9 50.3-52.1 9.8-.5 23.9 3.2 41.3 11.1-1.6-2.3-3.3-4.6-5.1-7-16.4-5.6-28.6-7.2-37.8-6.7z"/><path d="M189.9 50.1c-11.2.9-7.8 26.4 3.1 57.1 4.2-3.6 8.4-7.4 12.5-11.5 7-7 13.3-14.3 18.7-21.6-12.1-13.7-25.1-24.7-34.3-24z"/><path d="M219.4 42.6c-1.2-1.5-2.5-3-3.8-4.5-12.7-2.8-23.1-4.1-33.4-3.4-21.5 1.3-41.5 9.3-72.3 26.8 2.2 3.5 4.5 7.1 7.1 10.6 24.8-21.8 47.8-33.8 66.4-34.8 8.9-.5 21.3 1.3 36 5.3z"/><path d="M189 47.6c7.9-.7 22.5 5.3 40.6 19 1.2-1.7 2.3-3.4 3.3-5.2-20.1-12.3-34.7-17.2-45.1-16.6-18 1.1-27.2 17.5-35.9 64 6.5 5.3 13.1 10.1 19.6 14 1.7-1 3.4-2.1 5-3.2-4.8-39.2-2.1-70.6 12.5-72zM212.5 34.5c-2.2-2.4-4.5-4.8-6.9-7.2C194.5 16.2 182.8 7 171.4 0c-11.4 7-23.1 16.2-34.2 27.3C129.5 35 122.8 43 117 50.9c23.2-10.4 45.5-17.6 63.9-18.8 9-.5 19.7.5 31.6 2.4zM57.5 129.3c-9.8 0-17.8 8-17.8 17.8s8 17.8 17.8 17.8c4.6 0 8.7-1.7 11.9-4.6v4.3h5.9v-17.5c0-9.8-8-17.8-17.8-17.8zm0 29.7c-6.6 0-11.9-5.3-11.9-11.9 0-6.6 5.3-11.9 11.9-11.9 6.6 0 11.9 5.3 11.9 11.9 0 6.6-5.3 11.9-11.9 11.9zM5.2 134.5c-3.4 3.4-5.2 7.8-5.2 12.6s1.9 9.2 5.2 12.6c3.5 3.5 8.3 5.3 13 5.3 5.5 0 10.2-2.2 13.5-5.9l-4.2-4.2c-5 6-14.1 4.9-18.2.7-1.7-1.7-2.6-3.5-3.1-5.4h29c.9-5.6-.8-11.4-5-15.5-6.8-7.1-18-7.1-25-.2zm1.1 9.7c.5-2 1.5-3.9 3.1-5.4 4.6-4.6 12.2-4.6 16.8 0 1.5 1.5 2.6 3.4 3.1 5.4h-23zM136.3 134.5c-3.4 3.4-5.2 7.8-5.2 12.6s1.9 9.2 5.2 12.6c3.5 3.5 8.3 5.3 13 5.3 5.5 0 10.2-2.2 13.5-5.9l-4.2-4.2c-5 6-14.1 4.9-18.2.7-1.7-1.7-2.6-3.5-3.1-5.4h29c.9-5.6-.8-11.4-5-15.5-6.8-7.1-18.1-7.1-25-.2zm1.1 9.7c.5-2 1.5-3.9 3.1-5.4 4.6-4.6 12.2-4.6 16.8 0 1.5 1.5 2.6 3.4 3.1 5.4h-23zM242.5 134.5c-3.4 3.4-5.2 7.8-5.2 12.6s1.8 9.2 5.2 12.6c3.5 3.5 8.3 5.3 13 5.3 5.5 0 10.2-2.2 13.5-5.9l-4.2-4.2c-5 6-14.1 4.9-18.2.7-1.7-1.7-2.6-3.5-3.1-5.4h29c.9-5.6-.8-11.4-5-15.5-6.8-7.1-18.1-7.1-25-.2zm1.1 9.7c.5-2 1.5-3.9 3.1-5.4 4.6-4.6 12.2-4.6 16.8 0 1.5 1.5 2.6 3.4 3.1 5.4h-23zM282.2 134.5c-3.4 3.4-5.2 7.8-5.2 12.6s1.9 9.2 5.2 12.6c3.5 3.5 8.3 5.3 13 5.3 5.5 0 10.2-2.2 13.5-5.9l-4.2-4.2c-5 6-14.1 4.9-18.2.7-1.7-1.7-2.6-3.5-3.1-5.4h29c.9-5.6-.8-11.4-5-15.5-6.8-7.1-18.1-7.1-25-.2zm1.1 9.7c.5-2 1.5-3.9 3.1-5.4 4.6-4.6 12.2-4.6 16.8 0 1.5 1.5 2.6 3.4 3.1 5.4h-23zM347.2 132h1.5v4.2h.8V132h1.5v-.6h-3.8zM356.1 131.4l-1.5 3.6-1.4-3.6H352v4.8h.8v-4l1.6 4h.5l1.6-4v4h.8v-4.8z"/></svg>