<?xml version="1.0" encoding="UTF-8" standalone="no"?>
<svg
   xmlns:dc="http://purl.org/dc/elements/1.1/"
   xmlns:cc="http://creativecommons.org/ns#"
   xmlns:rdf="http://www.w3.org/1999/02/22-rdf-syntax-ns#"
   xmlns:svg="http://www.w3.org/2000/svg"
   xmlns="http://www.w3.org/2000/svg"
   xmlns:sodipodi="http://sodipodi.sourceforge.net/DTD/sodipodi-0.dtd"
   xmlns:inkscape="http://www.inkscape.org/namespaces/inkscape"
   version="1.0"
   width="360.19916"
   height="128.58199"
   id="svg3118"
   inkscape:version="0.91 r13725"
   sodipodi:docname="Eastpak_logo.svg">
  <metadata
     id="metadata74">
    <rdf:RDF>
      <cc:Work
         rdf:about="">
        <dc:format>image/svg+xml</dc:format>
        <dc:type
           rdf:resource="http://purl.org/dc/dcmitype/StillImage" />
        <dc:title />
      </cc:Work>
    </rdf:RDF>
  </metadata>
  <sodipodi:namedview
     pagecolor="#ffffff"
     bordercolor="#666666"
     borderopacity="1"
     objecttolerance="10"
     gridtolerance="10"
     guidetolerance="10"
     inkscape:pageopacity="0"
     inkscape:pageshadow="2"
     inkscape:window-width="1858"
     inkscape:window-height="1057"
     id="namedview72"
     showgrid="false"
     fit-margin-top="0"
     fit-margin-left="0"
     fit-margin-right="0"
     fit-margin-bottom="0"
     inkscape:zoom="2.8284271"
     inkscape:cx="181.737"
     inkscape:cy="77.649604"
     inkscape:window-x="-8"
     inkscape:window-y="-8"
     inkscape:window-maximized="1"
     inkscape:current-layer="svg3118" />
  <defs
     id="defs3120">
    <clipPath
       id="clipPath303">
      <path
         d="m 0,867.99 1299,0 L 1299,0 0,0 0,867.99 Z"
         id="path305"
         inkscape:connector-curvature="0" />
    </clipPath>
    <clipPath
       id="clipPath297">
      <path
         d="m 0,0 1299,0 0,868 L 0,868 0,0 Z"
         id="path299"
         inkscape:connector-curvature="0" />
    </clipPath>
    <clipPath
       id="clipPath291">
      <path
         d="m 28,840 1243,0 0,-812 -1243,0 0,812 z"
         id="path293"
         inkscape:connector-curvature="0" />
    </clipPath>
    <clipPath
       id="clipPath285">
      <path
         d="m 90.72,723.06 196.99,0 0,-63.4 -196.99,0 0,63.4 z"
         id="path287"
         inkscape:connector-curvature="0" />
    </clipPath>
  </defs>
  <g
     id="g4575"
     transform="matrix(0.40103694,0,0,0.40103694,424.64125,36.326498)">
    <path
       d="m -870.55178,24.928285 0.12436,16.551338 -51.46003,0 0,18.535781 47.25325,0 0.12436,17.767951 -47.37761,0 0,18.622289 52.44413,0 -0.18384,17.194796 -82.96218,0 -0.15681,-88.672155 82.19437,0"
       id="path315"
       style="fill:#000000;fill-opacity:1;fill-rule:nonzero;stroke:none"
       inkscape:connector-curvature="0" />
    <path
       inkscape:connector-curvature="0"
       id="path317"
       d="m -822.03868,24.927767 -40.32675,88.671963 28.89148,0 7.13694,-17.193362 41.25072,0 7.22994,17.193362 31.82711,0 -40.63002,-88.671963 -35.37942,0 z m 15.41621,17.405646 13.36609,35.531057 0.0103,0 0,0.02629 -0.0103,-0.02629 -26.25101,0 12.88492,-35.531057 z"
       style="fill:#000000;fill-opacity:1;fill-rule:nonzero;stroke:none" />
    <path
       d="m -717.70736,85.591307 c -0.0107,4.174334 2.14664,8.04046 6.00737,10.05192 7.09961,3.411929 18.53036,4.206787 25.02978,-0.881365 2.01146,-1.849252 3.40652,-4.785338 2.9469,-7.872837 -2.30344,-8.348668 -13.2746,-6.66704 -20.68782,-8.689319 -10.50073,-2.027692 -20.22822,-4.823193 -29.6475,-9.16515 -6.94281,-3.103711 -11.25773,-9.911336 -11.0901,-18.249197 -0.44339,-9.738309 5.74782,-17.913939 14.25329,-21.915247 15.77271,-7.694405 36.77955,-7.353756 54.07709,-3.152382 9.41929,2.487302 19.76319,8.997527 21.90443,19.20086 0.30821,1.849252 0.61642,3.703906 0.45421,5.55856 l -29.19872,-0.04865 c -0.7624,-4.174334 -3.40651,-7.667357 -7.5538,-9.127295 -6.05063,-2.135835 -16.98932,-3.584956 -21.47727,2.584629 -1.39506,1.854654 -2.01688,4.477129 -1.24906,6.953614 2.76846,5.412572 9.25707,5.574792 14.50743,6.975249 17.91394,4.358179 42.78692,3.936413 48.16164,25.73271 1.53024,8.191862 -2.0385,15.599684 -7.91609,20.222803 -16.09173,12.02555 -41.27291,12.59871 -62.58797,9.15975 -11.43076,-2.3359 -21.61245,-8.38111 -24.52691,-20.12548 -0.61642,-2.31967 -0.76782,-4.790751 -1.07063,-7.267237 l 29.66373,0.05403"
       id="path325"
       style="fill:#000000;fill-opacity:1;fill-rule:nonzero;stroke:none"
       inkscape:connector-curvature="0" />
    <path
       d="m -561.73219,24.928285 0,16.86496 -28.89049,0 0,71.807195 -29.58263,0 0,-71.807195 c 0.30281,0.0052 -30.51805,0 -30.51805,0 l 0,-16.86496 89.00739,0.0649 -0.0163,-0.0649"
       id="path335"
       style="fill:#000000;fill-opacity:1;fill-rule:nonzero;stroke:none"
       inkscape:connector-curvature="0" />
    <path
       inkscape:connector-curvature="0"
       id="path341"
       d="m -553.98887,24.927767 0,88.671963 c 0,0 19.26056,0.14058 28.68526,0 l 0,-32.922938 c 12.24723,0.156807 17.56742,-0.27706 26.83531,-0.260808 11.43075,-0.751599 22.55849,-3.362987 29.99335,-11.225016 6.34261,-6.477782 8.21811,-17.600203 5.14142,-26.722094 -5.22873,-13.13942 -20.05514,-16.43804 -33.18375,-17.541107 l -57.47159,0 z m 40.13266,16.049028 c 6.28885,-0.111902 12.2687,0.28914 16.99321,3.293505 3.39571,2.476476 4.46638,6.644299 3.68776,10.818633 -0.77323,4.628531 -5.26657,7.560197 -9.7491,8.479419 -8.95969,0.600197 -13.2682,0.595341 -22.37927,0.270912 l 0.17792,-22.55921 -0.17792,0 c 3.78975,0.01625 7.6741,-0.23613 11.4474,-0.303259 z"
       style="fill:#000000;fill-opacity:1;fill-rule:nonzero;stroke:none" />
    <path
       inkscape:connector-curvature="0"
       id="path345"
       d="m -437.96806,24.988418 -40.16299,88.611312 28.58214,0 6.82357,-16.750582 42.02304,0 7.38764,16.750582 31.66943,0 -40.7857,-88.611312 -35.53713,0 z m 15.26456,17.864604 13.53391,35.531057 -26.26112,0 12.72721,-35.531057 z"
       style="fill:#000000;fill-opacity:1;fill-rule:nonzero;stroke:none" />
    <path
       d="m -327.99652,24.987766 0,38.574738 31.24262,-38.574738 32.90262,0 -33.28112,38.628804 c 0,0 39.15872,49.67566 39.30471,49.98387 l -35.0709,0 -35.09793,-46.020408 0,46.020408 -27.58197,0 0,-88.612674 27.58197,0"
       id="path349"
       style="fill:#000000;fill-opacity:1;fill-rule:nonzero;stroke:none"
       inkscape:connector-curvature="0" />
    <g
       id="text4521"
       style="font-style:normal;font-weight:normal;font-size:33.16687775px;line-height:125%;font-family:sans-serif;letter-spacing:0px;word-spacing:0px;fill:#000000;fill-opacity:1;stroke:none;stroke-width:1px;stroke-linecap:butt;stroke-linejoin:miter;stroke-opacity:1">
      <path
         id="path4573"
         style="font-style:normal;font-variant:normal;font-weight:bold;font-stretch:normal;font-family:sans-serif;-inkscape-font-specification:'sans-serif Bold'"
         d="m -251.46252,34.949575 q -1.95957,0 -3.64382,0.71257 -1.68426,0.696374 -3.0932,2.105319 -1.40895,1.408944 -2.12152,3.0932 -0.69637,1.668061 -0.69637,3.643822 0,1.959567 0.69637,3.643822 0.71257,1.668061 2.12152,3.077005 1.39275,1.39275 3.077,2.089125 1.70045,0.696375 3.66002,0.696375 1.99196,0 3.66002,-0.68018 1.66806,-0.696375 3.077,-2.10532 1.40895,-1.408944 2.10532,-3.077005 0.71257,-1.684255 0.71257,-3.643822 0,-1.975761 -0.71257,-3.643822 -0.69637,-1.684256 -2.10532,-3.0932 -1.42514,-1.425139 -3.10939,-2.121514 -1.66806,-0.696375 -3.62763,-0.696375 z m -0.9231,4.777455 -0.56682,0 0,3.352317 0.56682,0 q 1.26319,0 1.89479,-0.421064 0.64779,-0.437259 0.64779,-1.279387 0,-0.842127 -0.6316,-1.246996 -0.6154,-0.40487 -1.91098,-0.40487 z m 0.5992,-2.234877 q 2.85028,0 4.25923,0.971686 1.40894,0.955491 1.40894,2.915057 0,1.39275 -0.85832,2.299657 -0.84213,0.906907 -2.39683,1.182218 0.66399,0.356285 1.23081,1.004075 0.58301,0.647791 1.05266,1.587087 l 1.79761,3.579043 -3.7086,0 -1.73284,-3.449485 q -0.6154,-1.263191 -1.08505,-1.781424 -0.46964,-0.534427 -0.93929,-0.534427 l -0.19434,0 0,5.765336 -3.44948,0 0,-13.538823 4.6155,0 z m 0.3239,-5.036572 q 2.4616,0 4.58312,0.890712 2.13771,0.890712 3.90294,2.655942 1.76523,1.765229 2.63974,3.886743 0.87452,2.121514 0.87452,4.615508 0,2.461604 -0.87452,4.583118 -0.87451,2.10532 -2.63974,3.870549 -1.76523,1.765229 -3.90294,2.655941 -2.12152,0.890713 -4.58312,0.890713 -2.4616,0 -4.59931,-0.890713 -2.12152,-0.890712 -3.88675,-2.655941 -1.76523,-1.765229 -2.63974,-3.870549 -0.87452,-2.121514 -0.87452,-4.583118 0,-2.493994 0.87452,-4.615508 0.87451,-2.121514 2.63974,-3.886743 1.76523,-1.76523 3.88675,-2.655942 2.13771,-0.890712 4.59931,-0.890712 z"
         inkscape:connector-curvature="0" />
    </g>
    <path
       style="color:#000000;font-style:normal;font-variant:normal;font-weight:normal;font-stretch:normal;font-size:medium;line-height:normal;font-family:sans-serif;text-indent:0;text-align:start;text-decoration:none;text-decoration-line:none;text-decoration-style:solid;text-decoration-color:#000000;letter-spacing:normal;word-spacing:normal;text-transform:none;direction:ltr;block-progression:tb;writing-mode:lr-tb;baseline-shift:baseline;text-anchor:start;white-space:normal;clip-rule:nonzero;display:inline;overflow:visible;visibility:visible;opacity:1;isolation:auto;mix-blend-mode:normal;color-interpolation:sRGB;color-interpolation-filters:linearRGB;solid-color:#000000;solid-opacity:1;fill:#000000;fill-opacity:1;fill-rule:nonzero;stroke:none;stroke-width:8.84284592;stroke-linecap:butt;stroke-linejoin:miter;stroke-miterlimit:4;stroke-dasharray:none;stroke-dashoffset:0;stroke-opacity:1;color-rendering:auto;image-rendering:auto;shape-rendering:auto;text-rendering:auto;enable-background:accumulate"
       d="M 180.11133 2.2832031 A 176.80649 62.026814 0 0 0 167.60352 2.4375 A 176.80649 62.026814 0 0 0 150.06055 3.1855469 A 176.80649 62.026814 0 0 0 132.81641 4.5429688 A 176.80649 62.026814 0 0 0 116.04297 6.4980469 A 176.80649 62.026814 0 0 0 99.912109 9.03125 A 176.80649 62.026814 0 0 0 84.582031 12.115234 A 176.80649 62.026814 0 0 0 70.207031 15.722656 A 176.80649 62.026814 0 0 0 56.929688 19.814453 A 176.80649 62.026814 0 0 0 44.882812 24.351562 A 176.80649 62.026814 0 0 0 34.185547 29.287109 A 176.80649 62.026814 0 0 0 24.949219 34.572266 A 176.80649 62.026814 0 0 0 17.261719 40.15625 A 176.80649 62.026814 0 0 0 11.201172 45.980469 A 176.80649 62.026814 0 0 0 6.828125 51.986328 A 176.80649 62.026814 0 0 0 4.1875 58.117188 A 176.80649 62.026814 0 0 0 3.3046875 64.310547 A 176.80649 62.026814 0 0 0 3.7480469 68.697266 A 176.80649 62.026814 0 0 0 5.8769531 74.851562 A 176.80649 62.026814 0 0 0 9.7480469 80.902344 A 176.80649 62.026814 0 0 0 15.320312 86.785156 A 176.80649 62.026814 0 0 0 22.539062 92.445312 A 176.80649 62.026814 0 0 0 31.333984 97.822266 A 176.80649 62.026814 0 0 0 41.613281 102.86719 A 176.80649 62.026814 0 0 0 53.277344 107.52344 A 176.80649 62.026814 0 0 0 66.208984 111.75 A 176.80649 62.026814 0 0 0 80.279297 115.50195 A 176.80649 62.026814 0 0 0 95.345703 118.74414 A 176.80649 62.026814 0 0 0 111.25977 121.43945 A 176.80649 62.026814 0 0 0 127.86133 123.56641 A 176.80649 62.026814 0 0 0 144.98438 125.09961 A 176.80649 62.026814 0 0 0 162.45898 126.02734 A 176.80649 62.026814 0 0 0 180.11133 126.33594 A 176.80649 62.026814 0 0 0 192.61719 126.18164 A 176.80649 62.026814 0 0 0 210.16211 125.43359 A 176.80649 62.026814 0 0 0 227.40625 124.07617 A 176.80649 62.026814 0 0 0 244.17773 122.12109 A 176.80649 62.026814 0 0 0 260.31055 119.58789 A 176.80649 62.026814 0 0 0 275.64062 116.50391 A 176.80649 62.026814 0 0 0 290.01562 112.89648 A 176.80649 62.026814 0 0 0 303.29297 108.80469 A 176.80649 62.026814 0 0 0 315.33984 104.26953 A 176.80649 62.026814 0 0 0 326.03516 99.332031 A 176.80649 62.026814 0 0 0 335.27344 94.046875 A 176.80649 62.026814 0 0 0 342.96094 88.464844 A 176.80649 62.026814 0 0 0 349.02148 82.640625 A 176.80649 62.026814 0 0 0 353.39258 76.632812 A 176.80649 62.026814 0 0 0 356.03516 70.501953 A 176.80649 62.026814 0 0 0 356.91797 64.310547 A 176.80649 62.026814 0 0 0 356.47461 59.921875 A 176.80649 62.026814 0 0 0 354.3457 53.767578 A 176.80649 62.026814 0 0 0 350.47461 47.71875 A 176.80649 62.026814 0 0 0 344.90234 41.833984 A 176.80649 62.026814 0 0 0 337.68164 36.173828 A 176.80649 62.026814 0 0 0 328.88867 30.796875 A 176.80649 62.026814 0 0 0 318.60938 25.753906 A 176.80649 62.026814 0 0 0 306.94531 21.095703 A 176.80649 62.026814 0 0 0 294.01367 16.869141 A 176.80649 62.026814 0 0 0 279.94336 13.117188 A 176.80649 62.026814 0 0 0 264.87695 9.8769531 A 176.80649 62.026814 0 0 0 248.96289 7.1796875 A 176.80649 62.026814 0 0 0 232.36133 5.0527344 A 176.80649 62.026814 0 0 0 215.23633 3.5195312 A 176.80649 62.026814 0 0 0 197.76172 2.59375 A 176.80649 62.026814 0 0 0 180.11133 2.2832031 z M 180.09961 5.3203125 C 181.59806 5.3203125 183.09407 5.3297378 184.58789 5.34375 C 194.05093 6.8065018 202.61893 12.848375 209.17773 22.105469 C 210.20048 23.548981 211.17031 25.070715 212.08594 26.662109 L 147.96094 26.929688 C 148.92081 25.241719 149.94198 23.629087 151.02148 22.105469 C 157.58029 12.848375 166.14828 6.8065034 175.61133 5.34375 C 177.10514 5.3297378 178.60117 5.3203125 180.09961 5.3203125 z M 144.95117 6.5605469 C 135.57261 9.6873689 127.08551 14.031251 119.85352 19.337891 C 112.0004 25.100291 105.62029 32.027643 101.23242 39.753906 L 105.88086 39.753906 C 107.78231 36.723595 110.02501 33.82552 112.58203 31.085938 L 141.45508 30.964844 C 140.21342 33.757823 139.13191 36.698031 138.21094 39.753906 L 142.39648 39.753906 C 143.38176 36.667134 144.54107 33.71925 145.86328 30.947266 L 214.19922 30.664062 C 215.57815 33.519212 216.78345 36.561049 217.80273 39.753906 L 221.99219 39.753906 C 221.03608 36.580644 219.90295 33.533297 218.60156 30.644531 L 246.85156 30.527344 L 246.85156 30.275391 C 249.72947 33.251731 252.23279 36.423144 254.32227 39.753906 L 258.9668 39.753906 C 254.57893 32.027643 248.19883 25.100291 240.3457 19.337891 C 233.11371 14.031251 224.6266 9.6873693 215.24805 6.5605469 C 248.53334 8.927118 279.36331 14.61607 303.63477 23.015625 C 319.95626 28.663954 332.63536 35.311697 341.12695 42.40625 C 349.61855 49.500804 353.85156 56.914415 353.85156 64.291016 C 353.85156 71.667616 349.61855 79.081229 341.12695 86.175781 C 332.63536 93.270337 319.95626 99.918078 303.63477 105.56641 C 279.3633 113.96596 248.53334 119.65514 215.24805 122.02148 C 224.6266 118.89466 233.11372 114.54883 240.3457 109.24219 C 249.35548 102.63107 256.42471 94.489274 260.77148 85.363281 L 256.3125 85.363281 C 253.89434 89.977231 250.70407 94.324501 246.83789 98.320312 L 246.83594 97.902344 L 218.56445 98.019531 C 220.34973 94.070553 221.81957 89.829044 222.94727 85.363281 L 218.81445 85.363281 C 217.60831 89.880942 216.03406 94.135337 214.13867 98.039062 L 146.19922 98.320312 C 144.24248 94.33954 142.62018 89.989916 141.38477 85.363281 L 137.25195 85.363281 C 138.41016 89.949107 139.93095 94.298739 141.78125 98.337891 L 113.49414 98.455078 C 109.56842 94.421785 106.33243 90.029835 103.88672 85.363281 L 99.425781 85.363281 C 102.3544 91.511101 106.51772 97.213291 111.67969 102.30078 L 111.67969 102.47461 L 111.85547 102.47266 C 114.30807 104.87274 116.98221 107.1353 119.85352 109.24219 C 127.08551 114.54883 135.57261 118.89466 144.95117 122.02148 C 111.66588 119.65514 80.835931 113.96596 56.564453 105.56641 C 40.24296 99.918078 27.563822 93.270337 19.072266 86.175781 C 10.580669 79.081229 6.3476562 71.667617 6.3476562 64.291016 C 6.3476562 56.914415 10.580669 49.500804 19.072266 42.40625 C 27.563822 35.311696 40.24296 28.663954 56.564453 23.015625 C 80.835931 14.61607 111.66588 8.9271176 144.95117 6.5605469 z M 161.40625 6.5820312 C 156.25371 9.8184014 151.63353 14.334962 147.76367 19.796875 C 146.18356 22.027052 144.72537 24.417755 143.39844 26.947266 L 116.69141 27.058594 C 118.42939 25.497042 120.27427 23.996077 122.22266 22.566406 C 132.76624 14.829817 146.26709 9.1726593 161.40625 6.5820312 z M 198.79297 6.5820312 C 213.93214 9.1726593 227.43297 14.829817 237.97656 22.566406 C 239.7062 23.835571 241.3535 25.161552 242.91797 26.535156 L 216.64258 26.644531 C 215.35847 24.226864 213.95253 21.937945 212.43555 19.796875 C 208.56569 14.334962 203.94551 9.8184014 198.79297 6.5820312 z M 243.05469 101.92773 C 241.45003 103.34404 239.75624 104.70779 237.97656 106.01367 C 227.43301 113.75024 213.93208 119.40741 198.79297 121.99805 C 203.94533 118.76151 208.5658 114.24692 212.43555 108.78516 C 213.93141 106.67389 215.31831 104.41947 216.58789 102.03906 L 243.05469 101.92773 z M 212.00781 102.05664 C 211.11553 103.598 210.1709 105.0748 209.17773 106.47656 C 202.61893 115.73365 194.05093 121.77553 184.58789 123.23828 C 183.09407 123.25228 181.59806 123.25977 180.09961 123.25977 C 178.60117 123.25977 177.10514 123.25228 175.61133 123.23828 C 166.14828 121.77552 157.58029 115.73364 151.02148 106.47656 C 150.08499 105.15479 149.19077 103.76846 148.34375 102.32227 L 212.00781 102.05664 z M 143.77539 102.3418 C 145.00049 104.61031 146.33161 106.76395 147.76367 108.78516 C 151.63342 114.24692 156.25388 118.76151 161.40625 121.99805 C 146.26714 119.40741 132.76621 113.75024 122.22266 106.01367 C 120.66274 104.86905 119.17206 103.67909 117.74609 102.44922 L 143.77539 102.3418 z "
       transform="matrix(2.4935359,0,0,2.4935359,-1058.8582,-90.581426)"
       id="path4525" />
    <g
       id="text4536"
       style="font-style:normal;font-weight:normal;font-size:27.05628014px;line-height:125%;font-family:sans-serif;letter-spacing:0px;word-spacing:0px;fill:#000000;fill-opacity:1;stroke:none;stroke-width:1px;stroke-linecap:butt;stroke-linejoin:miter;stroke-opacity:1">
      <path
         id="path4560"
         style="font-style:normal;font-variant:normal;font-weight:bold;font-stretch:normal;font-family:sans-serif;-inkscape-font-specification:'sans-serif Bold'"
         d="m -647.37661,122.63324 5.08627,0 0,11.82391 q 0,2.44405 0.79266,3.50094 0.80588,1.04367 2.61579,1.04367 1.82313,0 2.61579,-1.04367 0.80588,-1.05689 0.80588,-3.50094 l 0,-11.82391 5.08626,0 0,11.82391 q 0,4.18791 -2.10056,6.23563 -2.10056,2.04772 -6.40737,2.04772 -4.2936,0 -6.39416,-2.04772 -2.10056,-2.04772 -2.10056,-6.23563 l 0,-11.82391 z"
         inkscape:connector-curvature="0" />
      <path
         id="path4562"
         style="font-style:normal;font-variant:normal;font-weight:bold;font-stretch:normal;font-family:sans-serif;-inkscape-font-specification:'sans-serif Bold'"
         d="m -625.11595,137.24469 4.75599,0 0,5.11269 -4.75599,0 0,-5.11269 z"
         inkscape:connector-curvature="0" />
      <path
         id="path4564"
         style="font-style:normal;font-variant:normal;font-weight:bold;font-stretch:normal;font-family:sans-serif;-inkscape-font-specification:'sans-serif Bold'"
         d="m -601.36244,123.25416 0,4.1747 q -1.62496,-0.72661 -3.17066,-1.09652 -1.54569,-0.36991 -2.91964,-0.36991 -1.82313,0 -2.69506,0.50202 -0.87193,0.50202 -0.87193,1.55891 0,0.79266 0.58128,1.24184 0.5945,0.43597 2.1402,0.75303 l 2.16661,0.43597 q 3.28956,0.66055 4.67672,2.00808 1.38717,1.34753 1.38717,3.83121 0,3.26314 -1.94203,4.86168 -1.92882,1.58533 -5.90535,1.58533 -1.87597,0 -3.76516,-0.3567 -1.88918,-0.3567 -3.77836,-1.05689 l 0,-4.2936 q 1.88918,1.00404 3.64625,1.51928 1.77029,0.50202 3.40846,0.50202 1.6646,0 2.54974,-0.55487 0.88514,-0.55486 0.88514,-1.58533 0,-0.92477 -0.60771,-1.42679 -0.5945,-0.50202 -2.3912,-0.89836 l -1.96845,-0.43596 q -2.95929,-0.63413 -4.33324,-2.0213 -1.36074,-1.38716 -1.36074,-3.73873 0,-2.94607 1.9024,-4.5314 1.90239,-1.58533 5.46938,-1.58533 1.62496,0 3.3424,0.25101 1.71744,0.2378 3.55378,0.72661 z"
         inkscape:connector-curvature="0" />
      <path
         id="path4566"
         style="font-style:normal;font-variant:normal;font-weight:bold;font-stretch:normal;font-family:sans-serif;-inkscape-font-specification:'sans-serif Bold'"
         d="m -595.31177,137.24469 4.75599,0 0,5.11269 -4.75599,0 0,-5.11269 z"
         inkscape:connector-curvature="0" />
      <path
         id="path4568"
         style="font-style:normal;font-variant:normal;font-weight:bold;font-stretch:normal;font-family:sans-serif;-inkscape-font-specification:'sans-serif Bold'"
         d="m -573.31533,138.76396 -7.95306,0 -1.25506,3.59342 -5.11268,0 7.30572,-19.72414 6.06389,0 7.30572,19.72414 -5.11269,0 -1.24184,-3.59342 z m -6.6848,-3.65946 5.40333,0 -2.69506,-7.84738 -2.70827,7.84738 z"
         inkscape:connector-curvature="0" />
      <path
         id="path4570"
         style="font-style:normal;font-variant:normal;font-weight:bold;font-stretch:normal;font-family:sans-serif;-inkscape-font-specification:'sans-serif Bold'"
         d="m -563.55235,137.24469 4.75599,0 0,5.11269 -4.75599,0 0,-5.11269 z"
         inkscape:connector-curvature="0" />
    </g>
  </g>
</svg>
