<?xml version="1.0" encoding="UTF-8" standalone="no"?>
<!-- Creator: CorelDRAW -->
<svg
   xmlns:dc="http://purl.org/dc/elements/1.1/"
   xmlns:cc="http://web.resource.org/cc/"
   xmlns:rdf="http://www.w3.org/1999/02/22-rdf-syntax-ns#"
   xmlns:svg="http://www.w3.org/2000/svg"
   xmlns="http://www.w3.org/2000/svg"
   xmlns:sodipodi="http://sodipodi.sourceforge.net/DTD/sodipodi-0.dtd"
   xmlns:inkscape="http://www.inkscape.org/namespaces/inkscape"
   xml:space="preserve"
   width="730.90497"
   height="133.54033"
   style="shape-rendering:geometricPrecision; text-rendering:geometricPrecision; image-rendering:optimizeQuality; fill-rule:evenodd; clip-rule:evenodd"
   viewBox="0 0 210 297"
   id="svg2"
   sodipodi:version="0.32"
   inkscape:version="0.44.1"
   sodipodi:docname="Timberland.svg"
   sodipodi:docbase="C:\Documents and Settings\Matias\Desktop"
   version="1.0"><metadata
   id="metadata73"><rdf:RDF><cc:Work
       rdf:about=""><dc:format>image/svg+xml</dc:format><dc:type
         rdf:resource="http://purl.org/dc/dcmitype/StillImage" /></cc:Work></rdf:RDF></metadata><sodipodi:namedview
   inkscape:window-height="844"
   inkscape:window-width="1440"
   inkscape:pageshadow="2"
   inkscape:pageopacity="0.0"
   guidetolerance="10.0"
   gridtolerance="10.0"
   objecttolerance="10.0"
   borderopacity="1.0"
   bordercolor="#666666"
   pagecolor="#ffffff"
   id="base"
   inkscape:zoom="1.4329667"
   inkscape:cx="265.16065"
   inkscape:cy="39.612725"
   inkscape:window-x="-4"
   inkscape:window-y="-4"
   inkscape:current-layer="svg2" />
 <defs
   id="defs4">
  <style
   type="text/css"
   id="style6">
   
    .fil0 {fill:black}
    .fil1 {fill:white}
   
  </style>
 </defs>
 <g
   id="Camada_x0020_1"
   transform="matrix(26.16162,0,0,26.16162,-2643.354,-3736.52)">
  <metadata
   id="CorelCorpID_0Corel-Layer" />
  <path
   class="fil0"
   d="M 132.862,152.03 C 131.973,152.021 129.554,151.8072 128.23,151.7938 C 127.2001,151.7832 126.3643,151.8778 126.0437,151.9202 C 126.1516,152.0648 126.2661,152.2041 126.3872,152.3374 C 126.8162,152.3412 128.0253,152.3926 130.2713,152.7742 C 132.1382,153.0913 133.1784,153.1411 133.6818,153.1363 C 134.1911,152.7755 134.6369,152.3309 134.9989,151.8225 C 134.4895,151.9135 133.5424,152.0369 132.862,152.03 L 132.862,152.03 z "
   id="path10"
   style="fill:black" />
  <path
   class="fil0"
   d="M 130.211,152.918 C 128.2094,152.5613 127.032,152.4745 126.4969,152.4548 C 127.504,153.5009 128.9188,154.1522 130.4856,154.1522 C 131.5673,154.1522 132.5763,153.8417 133.4289,153.3054 C 132.872,153.2919 131.8667,153.2132 130.211,152.918 L 130.211,152.918 z "
   id="path12"
   style="fill:black" />
  <path
   class="fil0"
   d="M 128.228,151.677 C 129.5521,151.677 131.9732,151.8662 132.8622,151.8662 C 133.6152,151.8662 134.6932,151.7034 135.1437,151.6076 C 135.6992,150.7446 136.0214,149.7177 136.0214,148.6153 C 136.0214,148.1192 135.9558,147.6385 135.8334,147.1809 L 132.8674,147.9378 L 133.1864,147.3347 C 133.8872,147.2246 134.7821,147.0003 135.6216,146.5468 C 135.5573,146.387 135.4857,146.231 135.4073,146.079 C 134.6872,146.4366 134.0468,146.6013 133.5383,146.6692 L 134.0014,145.7934 L 135.1981,145.7097 C 135.0935,145.5403 134.9801,145.3771 134.8584,145.2206 L 133.4753,145.2205 L 134.0198,144.3542 C 133.907,144.2607 133.7903,144.1715 133.6702,144.0868 L 132.5583,145.6351 L 132.2346,144.9932 L 132.2884,144.7666 L 133.3426,143.8727 C 133.2276,143.8034 133.1099,143.738 132.9896,143.6769 L 131.873,144.2766 L 131.2988,143.1387 C 131.1341,143.1145 130.9669,143.0975 130.7978,143.0881 L 131.4076,144.6557 L 131.2293,144.817 L 130.3268,143.0815 C 130.2738,143.083 130.2209,143.0854 130.1682,143.0883 L 129.4763,144.5451 L 128.7586,143.354 C 128.5255,143.4305 128.2988,143.5218 128.0804,143.6273 L 128.0475,144.5872 L 127.0252,144.2938 C 126.8135,144.4634 126.6148,144.6482 126.4304,144.8465 L 127.6653,146.3618 L 127.3214,146.3869 L 126.2119,145.0953 C 126.0772,145.2586 125.952,145.4299 125.8365,145.608 L 126.5256,146.4447 L 125.3557,146.5295 C 125.0937,147.1733 124.9489,147.8774 124.9489,148.6153 C 124.9489,149.816 125.3314,150.9276 125.981,151.8348 C 126.2421,151.7954 127.1227,151.677 128.228,151.677 L 128.228,151.677 z "
   id="path14"
   style="fill:black" />
  <path
   class="fil1"
   d="M 133.075,145.859 L 133.3766,145.8379 L 132.8508,146.7114 C 132.732,146.7092 132.6314,146.7023 132.5502,146.694 L 133.075,145.859 z "
   id="path16"
   style="fill:white" />
  <path
   class="fil1"
   d="M 132.422,147.422 L 131.9741,148.1657 L 131.557,148.2723 L 132.081,147.4387 C 132.1668,147.4365 132.2822,147.4318 132.422,147.422 z "
   id="path18"
   style="fill:white" />
  <polygon
   class="fil1"
   points="131.9,145.921 132.059,146.331 131.154,147.592 131.116,146.466 131.9,145.921 "
   id="polygon20"
   style="fill:white" />
  <path
   class="fil1"
   d="M 131.053,148.928 L 132.8644,148.4774 L 133.1211,148.8523 L 133.6002,148.8271 L 133.4749,148.3254 L 134.183,148.1492 C 134.3062,148.3254 134.6264,148.7504 134.9621,148.9281 L 135.3404,148.7514 C 135.3404,148.7514 134.9898,148.3184 134.8854,147.9744 L 135.4929,147.8232 C 135.5352,148.0863 135.5574,148.356 135.5574,148.6309 C 135.5575,149.6544 135.2532,150.607 134.7303,151.4031 C 133.5501,151.3737 132.3658,151.2285 131.1828,151.0598 C 130.9338,150.0027 131.0529,148.9281 131.053,148.928 L 131.053,148.928 z "
   id="path22"
   style="fill:white" />
  <polygon
   class="fil1"
   points="130.51,146.798 130.52,147.329 130.271,147.314 130.184,146.944 130.51,146.798 "
   id="polygon24"
   style="fill:white" />
  <polygon
   class="fil1"
   points="127.402,146.903 128.202,146.876 128.48,147.112 127.699,147.743 126.952,147.461 127.402,146.903 "
   id="polygon26"
   style="fill:white" />
  <polygon
   class="fil1"
   points="126.524,146.932 126.311,147.218 125.631,146.961 126.524,146.932 "
   id="polygon28"
   style="fill:white" />
  <path
   class="fil1"
   d="M 125.717,147.503 L 125.9994,147.6382 L 125.6087,148.1648 C 125.6299,147.9394 125.6663,147.7186 125.717,147.503 z "
   id="path30"
   style="fill:white" />
  <path
   class="fil1"
   d="M 125.587,148.59 L 125.8511,148.6002 L 126.0341,148.6002 L 126.5839,147.9178 L 127.2194,148.222 L 126.9162,148.6419 L 127.6304,148.6697 L 128.9848,147.541 L 129.327,147.9229 L 127.9633,148.6827 L 129.0991,148.727 L 129.8044,148.4558 L 130.0663,148.7481 L 129.9995,150.8868 C 128.639,150.6865 127.2823,150.4969 125.9372,150.458 C 125.7109,149.8931 125.5861,149.2767 125.5861,148.631 C 125.5861,148.6173 125.5868,148.6037 125.587,148.59 L 125.587,148.59 z "
   id="path32"
   style="fill:white" />
  <path
   class="fil0"
   d="M 98.8212,151.45 C 98.8212,151.9797 98.569,151.9544 98.3168,151.9544 C 98.1269,151.9544 97.5527,151.9888 97.1499,150.9995 C 97.1385,150.8808 97.1454,150.5726 97.5098,150.4916 C 97.5098,150.4915 99.25,149.8107 99.4518,149.7098 C 99.6536,149.609 99.6787,149.2558 99.6787,148.9784 C 99.6788,148.7009 99.25,146.5825 97.6107,146.5825 C 95.9713,146.5825 95.3408,148.3479 95.3408,150.2646 C 95.3408,152.1813 96.2488,153.6442 97.888,153.6442 C 99.5275,153.6442 99.7796,152.6102 99.7796,151.9544 C 99.7796,151.1978 98.8212,151.0213 98.8212,151.45 L 98.8212,151.45 z "
   id="path34"
   style="fill:black" />
  <path
   class="fil0"
   d="M 81.8478,152.938 C 81.5956,152.7865 81.5451,152.6101 81.5451,152.4335 C 81.5451,152.4334 81.5451,147.6921 81.5451,147.2381 C 81.5451,146.784 81.3434,146.6328 81.2173,146.6328 C 80.9146,146.6328 79.5023,147.2381 79.1744,147.4147 C 78.8466,147.5912 79.0987,147.8182 79.25,147.8939 C 79.4014,147.9696 79.5275,148.0452 79.5275,148.4487 C 79.5275,148.8521 79.5275,152.257 79.5275,152.4335 C 79.5275,152.61 79.477,152.7866 79.2248,152.938 C 79.1718,152.9697 79.1402,153.0114 79.1256,153.0573 C 79.1035,153.0016 79.0562,152.9442 78.9789,152.8875 C 78.6006,152.61 78.6511,152.484 78.6511,152.1561 C 78.6511,151.8282 78.6511,145.3718 78.6511,144.9935 C 78.6511,144.6152 78.6258,144.3126 78.8276,144.3126 C 79.332,144.3126 79.6094,145.2709 79.8869,145.9267 C 80.1643,146.5824 81.0723,146.2293 80.9714,145.7753 C 80.8705,145.3213 80.6687,144.0351 80.5678,143.5811 C 80.467,143.127 80.2904,142.8245 80.1138,142.8245 C 79.9373,142.8245 79.6346,143.1019 79.6346,143.1019 L 77.5004,143.1397 L 75.3661,143.1019 C 75.3661,143.1019 75.0634,142.8245 74.8869,142.8245 C 74.7103,142.8245 74.5338,143.1271 74.4329,143.5811 C 74.332,144.0351 74.1302,145.3214 74.0294,145.7753 C 73.9285,146.2293 74.8364,146.5824 75.1139,145.9267 C 75.3913,145.2708 75.6688,144.3126 76.1731,144.3126 C 76.3749,144.3126 76.3497,144.6152 76.3497,144.9935 C 76.3497,145.3717 76.3497,151.8282 76.3497,152.1561 C 76.3497,152.4839 76.4001,152.6101 76.0218,152.8875 C 75.6435,153.1649 75.9714,153.4625 76.5767,153.4625 L 78.4241,153.4624 C 78.7986,153.4624 79.0666,153.3486 79.1272,153.1961 C 79.1681,153.3331 79.3138,153.4625 79.477,153.4625 L 81.5956,153.4624 C 81.873,153.4624 82.1,153.0892 81.8478,152.938 L 81.8478,152.938 z "
   id="path36"
   style="fill:black" />
  <path
   class="fil0"
   d="M 106.641,152.938 C 106.3888,152.7865 106.3382,152.6101 106.3382,152.4335 C 106.3383,152.4334 106.3382,144.2912 106.3382,143.8373 C 106.3383,143.3833 106.1364,143.232 106.0103,143.232 C 105.7077,143.232 104.2956,143.8373 103.9677,144.0138 C 103.6399,144.1903 103.892,144.4173 104.0434,144.493 C 104.1947,144.5687 104.3208,144.6443 104.3208,145.0479 C 104.3208,145.1768 104.3208,145.9596 104.3208,146.9709 C 104.1892,146.7885 103.9652,146.6707 103.6131,146.6707 C 102.4203,146.6707 102.6131,147.5341 101.9516,147.7201 C 101.9517,147.4797 101.9516,147.308 101.9516,147.2381 C 101.9517,146.784 101.7499,146.6328 101.6238,146.6328 C 101.3212,146.6328 99.9088,147.2381 99.5809,147.4147 C 99.2532,147.5912 99.5053,147.8182 99.6566,147.8939 C 99.8079,147.9696 99.934,148.0452 99.934,148.4487 C 99.934,148.8521 99.934,152.257 99.934,152.4335 C 99.934,152.61 99.8836,152.7866 99.6314,152.938 C 99.3792,153.0892 99.6061,153.4625 99.8836,153.4625 L 102.0022,153.4624 C 102.2795,153.4624 102.5065,153.0892 102.2543,152.938 C 102.0022,152.7865 101.9516,152.6101 101.9516,152.4335 C 101.9517,152.4334 101.9516,151.1426 101.9516,149.8434 C 102.1086,149.333 102.4966,148.31 103.0834,148.31 C 103.3357,148.31 103.26,148.9909 103.84,148.9909 C 103.9735,148.9908 104.1792,148.7019 104.3208,148.328 C 104.3208,150.2582 104.3208,152.337 104.3208,152.4335 C 104.3208,152.61 104.2704,152.7866 104.0182,152.938 C 103.7659,153.0892 103.9929,153.4625 104.2704,153.4625 L 106.3888,153.4624 C 106.6661,153.4624 106.893,153.0892 106.641,152.938 z "
   id="path38"
   style="fill:black" />
  <path
   class="fil0"
   d="M 117.387,152.938 C 117.1347,152.7865 117.0843,152.6101 117.0843,152.4335 C 117.0844,152.0804 117.193,146.7085 115.2006,146.7085 C 114.5704,146.7084 114.463,147.1237 114.146,147.3057 C 114.1461,147.2778 114.146,147.2548 114.146,147.2381 C 114.1461,146.784 113.9443,146.6328 113.8182,146.6328 C 113.5156,146.6328 112.1032,147.2381 111.7753,147.4147 C 111.4474,147.5912 111.6997,147.8182 111.851,147.8939 C 112.0024,147.9696 112.1284,148.0452 112.1284,148.4487 C 112.1285,148.8521 112.1284,152.257 112.1284,152.4335 C 112.1285,152.6031 112.0814,152.7725 111.8543,152.9197 C 111.8204,152.7049 111.6389,152.4588 111.4569,152.4588 C 111.2551,152.4587 111.2047,152.2822 111.2047,152.0552 C 111.2047,151.8282 111.2047,151.7273 111.0029,149.2305 C 110.8012,146.7336 109.7419,146.8094 108.6322,146.8094 C 107.5225,146.8093 106.5641,147.339 106.5641,148.1966 C 106.5642,149.0539 107.119,149.1296 107.5477,149.1296 C 107.9766,149.1295 108.3043,149.0288 108.3043,148.4739 C 108.3044,147.9191 107.9512,147.7426 107.9512,147.7426 C 107.9513,147.7426 108.1278,147.6921 108.5313,147.6921 C 108.9349,147.6921 109.1618,148.3226 109.1618,148.8774 C 109.1618,149.3314 108.3548,149.3566 108.0521,149.508 C 107.0028,150.0326 106.4884,150.8699 106.4884,151.9039 C 106.4885,152.938 107.0938,153.4625 107.2955,153.4625 C 107.4973,153.4624 108.6574,153.4625 109.0609,153.4625 C 109.4645,153.4624 109.641,153.2406 109.7671,153.2406 C 109.8933,153.2406 109.9689,153.4625 110.1202,153.4625 C 110.2717,153.4624 110.4986,153.4625 111.2299,153.4625 C 111.5696,153.4624 111.7296,153.4092 111.8037,153.3294 C 111.8711,153.4066 111.9707,153.4625 112.078,153.4625 L 114.1966,153.4624 C 114.4739,153.4624 114.7009,153.0892 114.4487,152.938 C 114.1966,152.7865 114.146,152.6101 114.146,152.4335 C 114.1461,152.4334 114.146,150.0575 114.146,148.5083 C 114.1461,148.3526 114.3456,148.1208 114.5701,148.1208 C 115.0998,148.1208 115.2786,151.8787 115.2786,152.4335 C 115.2787,152.61 115.2282,152.7866 114.976,152.938 C 114.7238,153.0892 114.9508,153.4625 115.2282,153.4625 L 117.1348,153.4624 C 117.4122,153.4624 117.6391,153.0892 117.387,152.938 L 117.387,152.938 z "
   id="path40"
   style="fill:black" />
  <path
   class="fil0"
   d="M 93.2475,146.532 C 92.696,146.532 92.7905,146.7781 92.39,146.886 C 92.39,145.2098 92.39,143.8075 92.39,143.6569 C 92.39,143.2028 92.1882,143.0516 92.0621,143.0516 C 91.7594,143.0516 90.478,143.6569 90.1501,143.8334 C 89.8222,144.01 90.0744,144.3631 90.2257,144.4388 C 90.3771,144.5144 90.3723,144.59 90.3723,144.9936 C 90.3723,145.3353 90.3723,151.6995 90.3723,152.5345 C 90.3723,152.7469 90.3848,152.9105 90.4056,153.0372 C 90.3886,152.9993 90.3592,152.9651 90.314,152.9381 C 90.0618,152.7866 90.0114,152.6102 90.0114,152.4336 C 90.0114,152.0805 90.1201,146.7086 88.1277,146.7086 C 87.4037,146.7085 87.3695,147.2563 86.9149,147.3691 C 86.7212,146.9644 86.3752,146.6329 85.7822,146.6329 C 84.7992,146.6329 84.9239,147.2065 84.4219,147.3375 C 84.4219,147.2946 84.4219,147.2609 84.4219,147.2382 C 84.4219,146.7841 84.2201,146.6329 84.094,146.6329 C 83.7913,146.6329 82.379,147.2382 82.0511,147.4148 C 81.7232,147.5913 81.9754,147.8183 82.1268,147.894 C 82.2781,147.9697 82.4042,148.0453 82.4042,148.4488 C 82.4042,148.8522 82.4042,152.2571 82.4042,152.4336 C 82.4042,152.6101 82.3538,152.7867 82.1015,152.9381 C 81.8493,153.0893 82.0763,153.4626 82.3538,153.4626 L 84.4723,153.4625 C 84.7497,153.4625 84.9767,153.0893 84.7245,152.9381 C 84.4723,152.7866 84.4219,152.6102 84.4219,152.4336 C 84.4219,152.4335 84.4219,150.2115 84.4219,148.6641 C 84.4219,148.2723 84.7047,148.0201 84.9247,148.0201 C 85.1516,148.0201 85.3314,148.1714 85.3314,148.6253 C 85.3314,149.0288 85.3314,152.2571 85.3314,152.4336 C 85.3314,152.6101 85.2809,152.7867 85.0287,152.9381 C 84.7765,153.0893 85.0035,153.4626 85.2809,153.4626 L 87.1874,153.4625 C 87.4649,153.4625 87.6918,153.0893 87.4397,152.9381 C 87.1874,152.7866 87.137,152.6102 87.137,152.4336 C 87.137,152.4335 87.1368,148.3937 87.1365,148.3785 C 87.1365,148.2438 87.3291,148.1209 87.4972,148.1209 C 88.0268,148.1209 88.2058,151.8788 88.2058,152.4336 C 88.2058,152.6101 88.1553,152.7867 87.9031,152.9381 C 87.6509,153.0893 87.8779,153.4626 88.1552,153.4626 L 90.0618,153.4625 C 90.2524,153.4625 90.4192,153.2865 90.4231,153.1271 C 90.5103,153.5057 90.6897,153.4626 90.8011,153.4626 C 90.9524,153.4625 91.0949,153.5497 91.5073,152.8624 C 91.583,152.7362 91.7594,152.812 91.9864,153.0641 C 92.2134,153.3163 92.3395,153.619 93.2979,153.619 C 94.2563,153.619 95.2904,153.4677 95.2904,150.0124 C 95.2904,147.2886 93.8023,146.532 93.2475,146.532 L 93.2475,146.532 z "
   id="path42"
   style="fill:black" />
  <path
   class="fil0"
   d="M 122.481,152.938 C 122.2287,152.7865 122.1783,152.6101 122.1783,152.4335 C 122.1783,152.4334 122.1783,144.5182 122.1783,144.0643 C 122.1783,143.6103 121.9766,143.459 121.8505,143.459 C 121.6404,143.459 120.9553,143.8733 120.4097,144.1108 C 120.1695,144.2153 119.9078,144.1868 119.8076,144.2408 C 119.4798,144.4172 119.7319,144.6443 119.8832,144.72 C 120.0346,144.7957 120.1607,144.8713 120.1607,145.2749 C 120.1607,145.409 120.1607,146.227 120.1607,147.2652 C 120.0217,147.1365 119.6874,146.885 119.1991,146.885 C 118.5435,146.8849 117.2067,148.1208 117.2067,150.7185 C 117.2068,151.803 117.5346,152.5849 117.7363,153.064 C 117.9381,153.5432 118.1651,153.4625 118.493,153.4625 C 118.7435,153.4624 122.2287,153.4625 122.2287,153.4625 C 122.5063,153.4624 122.7332,153.0892 122.481,152.938 L 122.481,152.938 z "
   id="path44"
   style="fill:black" />
  <polygon
   class="fil1"
   points="129.111,145.498 128.634,145.345 128.682,146.23 129.111,145.498 "
   id="polygon46"
   style="fill:white" />
  <polygon
   class="fil1"
   points="129.399,146.256 129.143,146.846 129.54,147.238 129.399,146.256 "
   id="polygon48"
   style="fill:white" />
  <polygon
   class="fil1"
   points="130.084,146.343 130.551,146.003 130.715,145.069 130.296,144.187 129.817,145.292 130.084,146.343 "
   id="polygon50"
   style="fill:white" />
  <polygon
   class="fil1"
   points="128.842,144.821 128.581,144.363 128.604,144.792 128.842,144.821 "
   id="polygon52"
   style="fill:white" />
  <polygon
   class="fil1"
   points="127.973,145.133 127.144,144.868 128.015,145.729 127.973,145.133 "
   id="polygon54"
   style="fill:white" />
  <path
   class="fil1"
   d="M 92.9953,147.592 C 93.4492,147.592 93.651,149.1052 93.651,149.8618 C 93.651,150.6183 93.4492,151.9299 92.9448,151.9299 C 92.4404,151.9299 92.3648,150.3915 92.3648,149.8618 C 92.3648,149.3322 92.5413,147.592 92.9953,147.592 z "
   id="path56"
   style="fill:white" />
  <path
   class="fil1"
   d="M 97.2323,147.516 C 97.4593,147.516 97.9638,148.2222 97.9638,148.9031 C 97.9638,149.5841 97.3837,149.7859 97.1062,149.7859 C 96.9923,149.7859 96.8435,149.7725 96.8288,149.6597 C 96.5766,147.7304 97.0053,147.5161 97.2323,147.516 L 97.2323,147.516 z "
   id="path58"
   style="fill:white" />
  <path
   class="fil1"
   d="M 109.262,150.063 C 109.262,150.063 109.262,151.8536 109.262,152.0806 C 109.262,152.3075 109.2116,152.5851 108.9089,152.5851 C 108.6063,152.585 108.3036,152.4842 108.3036,151.4753 C 108.3037,150.4664 108.7324,150.063 109.262,150.063 z "
   id="path60"
   style="fill:white" />
  <path
   class="fil1"
   d="M 119.502,148.046 C 119.7794,148.046 120.2586,148.853 120.2586,150.2906 C 120.2587,151.7281 119.9055,152.3587 119.6785,152.3587 C 119.4515,152.3586 118.9471,151.7786 118.9471,150.3158 C 118.9472,148.8529 119.3254,148.046 119.502,148.046 L 119.502,148.046 z "
   id="path62"
   style="fill:white" />
  <path
   class="fil0"
   d="M 117.491,144.475 C 117.491,144.1794 117.7306,143.9616 118.0139,143.9616 C 118.2944,143.9615 118.534,144.1795 118.534,144.475 C 118.534,144.7731 118.2944,144.9911 118.0139,144.9911 C 117.7307,144.991 117.491,144.7732 117.491,144.475 z "
   id="path64"
   style="fill:black" />
  <path
   class="fil1"
   d="M 118.014,144.905 C 118.2469,144.905 118.4306,144.7226 118.4306,144.4748 C 118.4306,144.231 118.2468,144.0472 118.014,144.0472 C 117.7785,144.0472 117.5945,144.2311 117.5945,144.4748 C 117.5945,144.7225 117.7784,144.9051 118.014,144.905 z "
   id="path66"
   style="fill:white" />
  <path
   class="fil0"
   d="M 117.905,144.773 L 117.8152,144.773 L 117.8152,144.1793 L 118.0411,144.1793 C 118.1813,144.1793 118.2508,144.2312 118.2508,144.3482 C 118.2509,144.4545 118.1841,144.5008 118.097,144.5117 L 118.2658,144.773 L 118.165,144.773 L 118.0085,144.5158 L 117.905,144.5158 L 117.905,144.773 z "
   id="path68"
   style="fill:black" />
  <path
   class="fil1"
   d="M 118.013,144.44 C 118.0893,144.44 118.1573,144.4345 118.1573,144.3433 C 118.1573,144.2697 118.0906,144.2562 118.028,144.2562 L 117.9055,144.2561 L 117.9055,144.44 L 118.013,144.44 z "
   id="path70"
   style="fill:white" />
 </g>
</svg>