<svg width="48" height="48" viewBox="0 0 48 48" fill="none" xmlns="http://www.w3.org/2000/svg">
<rect width="48" height="48" rx="4" fill="#191B26"/>
<path fill-rule="evenodd" clip-rule="evenodd" d="M32.6525 24.8892L37.2639 30.7912H42.3448L34.8157 21.5238L41.7076 12.6792H36.9286L32.7029 18.2093L28.9132 12.6792H24.1006L30.4391 21.5238L23.5472 30.7912H28.5107L32.6525 24.8892ZM14.3852 12.6881C11.8443 12.7519 9.73311 13.6319 8.05141 15.3278C6.36972 17.0238 5.4972 19.1531 5.43396 21.7155V38.0377H8.99046V30.7836H14.3852C16.9277 30.7181 19.0457 29.8314 20.739 28.1237C22.4324 26.4159 23.3115 24.28 23.3765 21.7158C23.3116 19.1533 22.4324 17.0241 20.739 15.3281C19.0457 13.6321 16.9278 12.7523 14.3852 12.6884V12.6881ZM8.99046 27.1964V21.7155C9.02796 20.1664 9.55241 18.8819 10.5639 17.8617C11.5754 16.8416 12.8492 16.3127 14.3852 16.2749C15.9403 16.3127 17.2258 16.8416 18.2415 17.8617C19.2571 18.8818 19.7833 20.1664 19.8199 21.7155C19.7833 23.2839 19.2571 24.5802 18.2415 25.6046C17.2258 26.629 15.9403 27.1596 14.3852 27.1964H8.99046Z" fill="white"/>
</svg>