<?xml version="1.0" encoding="UTF-8" standalone="no"?>
<!-- Created with Inkscape (http://www.inkscape.org/) -->

<svg
   xmlns:dc="http://purl.org/dc/elements/1.1/"
   xmlns:cc="http://creativecommons.org/ns#"
   xmlns:rdf="http://www.w3.org/1999/02/22-rdf-syntax-ns#"
   xmlns:svg="http://www.w3.org/2000/svg"
   xmlns="http://www.w3.org/2000/svg"
   xmlns:sodipodi="http://sodipodi.sourceforge.net/DTD/sodipodi-0.dtd"
   xmlns:inkscape="http://www.inkscape.org/namespaces/inkscape"
   width="121.86119"
   height="25.50667"
   viewBox="0 0 32.242441 6.7486398"
   version="1.1"
   id="svg25937"
   inkscape:version="0.92.0 r15299"
   sodipodi:docname="salesforce iq.svg">
  <defs
     id="defs25931">
    <clipPath
       id="clipPath25160"
       clipPathUnits="userSpaceOnUse">
      <path
         inkscape:connector-curvature="0"
         id="path25158"
         d="M 0,0 H 612 V 792 H 0 Z" />
    </clipPath>
    <linearGradient
       id="linearGradient25150"
       spreadMethod="pad"
       gradientTransform="matrix(14.606766,14.10559,14.10559,-14.606766,55.727053,34.534096)"
       gradientUnits="userSpaceOnUse"
       y2="0"
       x2="1"
       y1="0"
       x1="0">
      <stop
         id="stop25146"
         offset="0"
         style="stop-opacity:1;stop-color:#5cc8b9" />
      <stop
         id="stop25148"
         offset="1"
         style="stop-opacity:1;stop-color:#48a1de" />
    </linearGradient>
    <linearGradient
       id="linearGradient25130"
       spreadMethod="pad"
       gradientTransform="matrix(14.606766,14.10559,14.10559,-14.606766,46.430661,44.157967)"
       gradientUnits="userSpaceOnUse"
       y2="0"
       x2="1"
       y1="0"
       x1="0">
      <stop
         id="stop25126"
         offset="0"
         style="stop-opacity:1;stop-color:#5cc8b9" />
      <stop
         id="stop25128"
         offset="1"
         style="stop-opacity:1;stop-color:#48a1de" />
    </linearGradient>
  </defs>
  <sodipodi:namedview
     id="base"
     pagecolor="#ffffff"
     bordercolor="#666666"
     borderopacity="1.0"
     inkscape:pageopacity="0.0"
     inkscape:pageshadow="2"
     inkscape:zoom="6.6357117"
     inkscape:cx="60.430594"
     inkscape:cy="12.253333"
     inkscape:document-units="mm"
     inkscape:current-layer="layer1"
     showgrid="false"
     fit-margin-top="0"
     fit-margin-left="0"
     fit-margin-right="0"
     fit-margin-bottom="0"
     units="px"
     inkscape:window-width="1280"
     inkscape:window-height="744"
     inkscape:window-x="-4"
     inkscape:window-y="-4"
     inkscape:window-maximized="1" />
  <metadata
     id="metadata25934">
    <rdf:RDF>
      <cc:Work
         rdf:about="">
        <dc:format>image/svg+xml</dc:format>
        <dc:type
           rdf:resource="http://purl.org/dc/dcmitype/StillImage" />
        <dc:title></dc:title>
      </cc:Work>
    </rdf:RDF>
  </metadata>
  <g
     inkscape:label="Layer 1"
     inkscape:groupmode="layer"
     id="layer1"
     transform="translate(39.423452,-146.91199)">
    <g
       id="g26071"
       transform="translate(0.13229232,-0.13228712)">
      <g
         transform="matrix(0.35277777,0,0,-0.35277777,-58.002002,165.91683)"
         id="g25114">
        <g
           id="g25116">
          <g
             id="g25122">
            <g
               id="g25124">
              <path
                 inkscape:connector-curvature="0"
                 id="path25132"
                 style="fill:url(#linearGradient25130);stroke:none"
                 d="m 52.665,45.536 c -0.048,-2.812 1.142,-4.977 3.859,-7.017 v 0 c 1.182,-0.887 5.543,-3.61 5.8,-3.757 v 0 l 0.035,-0.02 h 0.637 l 0.029,0.017 c 0.176,0.099 0.977,0.557 1.445,0.824 v 0 c 0.154,0.088 0.157,0.31 0.006,0.403 v 0 l -0.119,0.072 c -1.292,0.801 -3.829,2.404 -6.295,4.15 v 0 c -1.985,1.403 -3.104,3.331 -3.069,5.289 v 0 c 0.051,2.972 2.508,5.349 5.477,5.296 v 0 c 3.027,-0.052 5.357,-2.382 5.307,-5.304 v 0 c -0.014,-0.772 -0.239,-1.696 -0.589,-2.414 v 0 c -0.045,-0.093 -0.093,-0.178 -0.143,-0.268 v 0 l -0.081,-0.148 c -0.06,-0.111 -0.023,-0.248 0.085,-0.313 v 0 c 0.349,-0.208 1.075,-0.638 1.335,-0.782 v 0 l 0.15,-0.091 c 0.101,-0.06 0.232,-0.037 0.305,0.055 v 0 l 0.069,0.088 c 0.703,0.94 1.172,2.443 1.196,3.832 v 0 c 0.073,4.228 -3.263,7.598 -7.593,7.673 v 0 c -0.045,10e-4 -0.091,10e-4 -0.136,10e-4 v 0 c -4.192,0 -7.637,-3.375 -7.71,-7.586" />
            </g>
          </g>
        </g>
      </g>
      <g
         transform="matrix(0.35277777,0,0,-0.35277777,-58.002002,165.91683)"
         id="g25134">
        <g
           id="g25136">
          <g
             id="g25142">
            <g
               id="g25144">
              <path
                 inkscape:connector-curvature="0"
                 id="path25152"
                 style="fill:url(#linearGradient25150);stroke:none"
                 d="m 63.655,41.143 -0.116,-0.09 c -0.386,-0.3 -1.071,-0.748 -1.695,-1.096 v 0 c -0.071,-0.038 -0.08,-0.145 -0.026,-0.182 v 0 c 0.156,-0.108 0.666,-0.412 0.977,-0.6 v 0 c 0.249,-0.15 0.653,-0.407 0.754,-0.478 v 0 c 0.112,-0.079 0.196,-0.08 0.321,-0.013 v 0 c 0.467,0.25 1.436,0.9 1.799,1.192 v 0 c 0.089,0.072 0.065,0.175 -0.003,0.22 v 0 c -0.132,0.085 -1.419,0.864 -1.637,0.995 v 0 l -0.108,0.067 c -0.038,0.022 -0.08,0.034 -0.123,0.034 v 0 c -0.05,0 -0.101,-0.016 -0.143,-0.049" />
            </g>
          </g>
        </g>
      </g>
      <g
         transform="matrix(0.35277777,0,0,-0.35277777,-58.002002,165.91683)"
         id="g25154">
        <g
           clip-path="url(#clipPath25160)"
           id="g25156">
          <g
             transform="translate(131.2002,39.6381)"
             id="g25162">
            <path
               inkscape:connector-curvature="0"
               id="path25164"
               style="fill:#2a5484;fill-opacity:1;fill-rule:nonzero;stroke:none"
               d="m 0,0 0.013,8.85 c 0,0.038 0.027,0.07 0.064,0.076 l 1.372,0.24 C 1.496,9.174 1.539,9.138 1.539,9.09 V 0 c 0,-0.042 -0.034,-0.076 -0.076,-0.076 H 0.076 C 0.034,-0.076 0,-0.042 0,0" />
          </g>
          <g
             transform="translate(78.3665,45.3814)"
             id="g25166">
            <path
               inkscape:connector-curvature="0"
               id="path25168"
               style="fill:#2a5484;fill-opacity:1;fill-rule:nonzero;stroke:none"
               d="m 0,0 -0.515,-0.814 c -0.029,-0.045 -0.088,-0.058 -0.133,-0.031 -0.475,0.279 -0.953,0.418 -1.434,0.418 -0.329,0 -0.583,-0.055 -0.764,-0.166 -0.181,-0.111 -0.271,-0.269 -0.271,-0.474 0,-0.173 0.041,-0.311 0.123,-0.413 0.082,-0.103 0.216,-0.191 0.401,-0.265 0.184,-0.074 0.47,-0.156 0.856,-0.247 0.624,-0.156 1.095,-0.388 1.411,-0.696 0.316,-0.308 0.474,-0.713 0.474,-1.214 0,-0.673 -0.254,-1.191 -0.764,-1.552 -0.509,-0.362 -1.133,-0.542 -1.873,-0.542 -0.907,0 -1.67,0.223 -2.289,0.67 -0.043,0.031 -0.052,0.092 -0.022,0.135 l 0.559,0.807 c 0.029,0.043 0.086,0.054 0.131,0.028 0.236,-0.141 0.47,-0.248 0.703,-0.322 0.259,-0.082 0.54,-0.123 0.844,-0.123 0.353,0 0.627,0.066 0.82,0.197 0.193,0.131 0.289,0.329 0.289,0.592 0,0.172 -0.041,0.308 -0.123,0.406 -0.082,0.099 -0.214,0.185 -0.394,0.259 -0.181,0.074 -0.46,0.156 -0.838,0.246 -0.633,0.156 -1.099,0.386 -1.399,0.69 -0.3,0.304 -0.449,0.719 -0.449,1.245 0,0.6 0.23,1.07 0.69,1.411 0.46,0.341 1.067,0.511 1.823,0.511 0.82,0 1.525,-0.208 2.118,-0.623 C 0.017,0.103 0.028,0.044 0,0" />
          </g>
          <g
             transform="translate(79.3685,41.3567)"
             id="g25170">
            <path
               inkscape:connector-curvature="0"
               id="path25172"
               style="fill:#2a5484;fill-opacity:1;fill-rule:nonzero;stroke:none"
               d="m 0,0 c 0,0.838 0.374,1.465 0.893,1.75 0.597,0.326 1.452,0.493 2.57,0.493 0.271,0 0.476,-0.005 0.616,-0.013 v 0.321 c 0,0.69 -0.44,1.035 -1.319,1.035 C 2.158,3.586 1.567,3.437 0.988,3.139 0.939,3.114 0.879,3.133 0.855,3.181 L 0.424,4.032 c -0.023,0.047 -0.007,0.105 0.038,0.13 0.325,0.184 0.689,0.33 1.091,0.44 0.435,0.119 0.866,0.179 1.293,0.179 0.978,0 1.684,-0.22 2.12,-0.659 0.435,-0.44 0.653,-1.111 0.653,-2.015 v -2.44 -1.368 c 0,-0.054 -0.044,-0.098 -0.098,-0.098 H 4.3 c -0.054,0 -0.098,0.044 -0.098,0.098 v 0.607 H 4.165 C 3.935,-1.398 3.66,-1.602 3.339,-1.75 3.019,-1.898 2.645,-1.972 2.119,-1.972 1.528,-1.972 1.044,-1.791 0.641,-1.46 0.29,-1.172 0,-0.633 0,0 M 4.068,1.195 3.586,1.208 C 2.807,1.208 2.276,1.109 1.939,0.937 1.602,0.765 1.415,0.49 1.415,0.087 c 0,-0.471 0.329,-0.876 0.939,-0.876 0.517,0 0.878,0.139 1.197,0.415 0.29,0.25 0.517,0.684 0.517,1.036 z" />
          </g>
          <g
             transform="translate(94.9583,42.1946)"
             id="g25174">
            <path
               inkscape:connector-curvature="0"
               id="path25176"
               style="fill:#2a5484;fill-opacity:1;fill-rule:nonzero;stroke:none"
               d="m 0,0 h -4.373 c 0.066,-0.509 0.248,-0.902 0.548,-1.177 0.3,-0.275 0.713,-0.413 1.239,-0.413 0.361,0 0.679,0.048 0.955,0.142 0.251,0.086 0.518,0.216 0.8,0.388 0.045,0.027 0.104,0.015 0.133,-0.028 l 0.559,-0.829 c 0.03,-0.044 0.019,-0.105 -0.024,-0.135 -0.347,-0.244 -0.718,-0.428 -1.111,-0.554 -0.423,-0.136 -0.893,-0.203 -1.411,-0.203 -0.674,0 -1.253,0.139 -1.737,0.418 -0.485,0.28 -0.857,0.674 -1.116,1.183 -0.258,0.51 -0.388,1.101 -0.388,1.775 0,1.018 0.269,1.836 0.807,2.452 0.538,0.616 1.3,0.924 2.286,0.924 0.969,0 1.705,-0.304 2.206,-0.912 C -0.126,2.423 0.124,1.606 0.124,0.579 0.124,0.412 0.116,0.248 0.098,0.087 0.093,0.037 0.05,0 0,0 M -1.391,1.158 C -1.408,1.635 -1.537,2.025 -1.779,2.329 -2.022,2.633 -2.377,2.785 -2.845,2.785 -3.322,2.785 -3.689,2.631 -3.948,2.323 -4.207,2.015 -4.353,1.626 -4.385,1.158 Z" />
          </g>
          <g
             transform="translate(100.6188,45.3814)"
             id="g25178">
            <path
               inkscape:connector-curvature="0"
               id="path25180"
               style="fill:#2a5484;fill-opacity:1;fill-rule:nonzero;stroke:none"
               d="m 0,0 -0.515,-0.814 c -0.029,-0.045 -0.088,-0.058 -0.133,-0.031 -0.475,0.279 -0.953,0.418 -1.434,0.418 -0.329,0 -0.583,-0.055 -0.764,-0.166 -0.181,-0.111 -0.271,-0.269 -0.271,-0.474 0,-0.173 0.041,-0.311 0.123,-0.413 0.082,-0.103 0.216,-0.191 0.401,-0.265 0.184,-0.074 0.47,-0.156 0.856,-0.247 0.624,-0.156 1.095,-0.388 1.411,-0.696 0.316,-0.308 0.474,-0.713 0.474,-1.214 0,-0.673 -0.255,-1.191 -0.764,-1.552 -0.509,-0.362 -1.133,-0.542 -1.873,-0.542 -0.907,0 -1.67,0.223 -2.289,0.67 -0.043,0.031 -0.052,0.092 -0.022,0.135 l 0.559,0.807 c 0.029,0.043 0.086,0.054 0.131,0.028 0.236,-0.141 0.47,-0.248 0.703,-0.322 0.259,-0.082 0.54,-0.123 0.844,-0.123 0.353,0 0.627,0.066 0.82,0.197 0.193,0.131 0.289,0.329 0.289,0.592 0,0.172 -0.041,0.308 -0.123,0.406 -0.082,0.099 -0.214,0.185 -0.394,0.259 -0.181,0.074 -0.46,0.156 -0.838,0.246 -0.633,0.156 -1.099,0.386 -1.399,0.69 -0.3,0.304 -0.449,0.719 -0.449,1.245 0,0.6 0.229,1.07 0.69,1.411 0.46,0.341 1.067,0.511 1.823,0.511 0.82,0 1.525,-0.208 2.118,-0.623 C 0.017,0.103 0.028,0.044 0,0" />
          </g>
          <g
             transform="translate(112.2808,44.5481)"
             id="g25182">
            <path
               inkscape:connector-curvature="0"
               id="path25184"
               style="fill:#2a5484;fill-opacity:1;fill-rule:nonzero;stroke:none"
               d="M 0,0 C -0.263,0.501 -0.643,0.891 -1.14,1.171 -1.637,1.45 -2.234,1.59 -2.933,1.59 -3.631,1.59 -4.229,1.45 -4.726,1.171 -5.223,0.891 -5.603,0.501 -5.865,0 -6.128,-0.501 -6.26,-1.089 -6.26,-1.762 c 0,-0.657 0.134,-1.243 0.401,-1.756 0.267,-0.513 0.651,-0.916 1.152,-1.208 0.501,-0.291 1.092,-0.437 1.774,-0.437 0.682,0 1.274,0.146 1.775,0.437 0.501,0.292 0.885,0.695 1.152,1.208 0.267,0.513 0.4,1.099 0.4,1.756 C 0.394,-1.089 0.263,-0.501 0,0 m -2.933,-3.942 c -0.601,0.003 -1.001,0.23 -1.312,0.597 -0.339,0.398 -0.508,0.896 -0.508,1.553 0,0.649 0.161,1.162 0.502,1.576 0.297,0.363 0.71,0.573 1.318,0.573 0.608,0 1.022,-0.21 1.319,-0.573 0.34,-0.414 0.502,-0.927 0.502,-1.576 0,-0.657 -0.17,-1.155 -0.508,-1.553 -0.312,-0.367 -0.712,-0.594 -1.313,-0.597" />
          </g>
          <g
             transform="translate(121.1849,46.1376)"
             id="g25186">
            <path
               inkscape:connector-curvature="0"
               id="path25188"
               style="fill:#2a5484;fill-opacity:1;fill-rule:nonzero;stroke:none"
               d="m 0,0 c 0.775,0 1.466,-0.213 2.073,-0.639 0.041,-0.029 0.053,-0.084 0.03,-0.128 L 1.614,-1.67 C 1.588,-1.72 1.525,-1.736 1.477,-1.706 1.01,-1.423 0.522,-1.281 0.012,-1.281 c -0.583,0 -1.018,-0.185 -1.306,-0.555 -0.287,-0.37 -0.431,-0.879 -0.431,-1.528 0,-0.633 0.144,-1.14 0.431,-1.522 0.288,-0.382 0.715,-0.573 1.282,-0.573 0.474,0 0.974,0.147 1.5,0.442 0.048,0.027 0.11,0.009 0.136,-0.04 L 2.092,-5.984 C 2.115,-6.029 2.101,-6.084 2.059,-6.111 1.758,-6.309 1.429,-6.464 1.072,-6.574 0.686,-6.693 0.283,-6.752 -0.136,-6.752 c -0.78,0 -1.404,0.172 -1.873,0.517 -0.468,0.345 -0.796,0.772 -0.985,1.282 -0.189,0.509 -0.284,1.039 -0.284,1.589 0,0.682 0.132,1.275 0.395,1.781 0.262,0.505 0.64,0.895 1.133,1.17 C -1.257,-0.138 -0.674,0 0,0" />
          </g>
          <g
             transform="translate(129.7625,42.1946)"
             id="g25190">
            <path
               inkscape:connector-curvature="0"
               id="path25192"
               style="fill:#2a5484;fill-opacity:1;fill-rule:nonzero;stroke:none"
               d="m 0,0 h -4.373 c 0.066,-0.509 0.248,-0.902 0.548,-1.177 0.3,-0.275 0.713,-0.413 1.239,-0.413 0.361,0 0.679,0.048 0.955,0.142 0.251,0.086 0.518,0.216 0.8,0.388 0.045,0.027 0.104,0.015 0.133,-0.028 l 0.559,-0.829 c 0.03,-0.044 0.019,-0.105 -0.024,-0.135 -0.347,-0.244 -0.718,-0.428 -1.111,-0.554 -0.423,-0.136 -0.893,-0.203 -1.411,-0.203 -0.674,0 -1.253,0.139 -1.737,0.418 -0.485,0.28 -0.857,0.674 -1.116,1.183 -0.258,0.51 -0.388,1.101 -0.388,1.775 0,1.018 0.269,1.836 0.807,2.452 0.538,0.616 1.3,0.924 2.286,0.924 0.969,0 1.705,-0.304 2.206,-0.912 C -0.126,2.423 0.125,1.606 0.125,0.579 0.125,0.412 0.116,0.248 0.098,0.087 0.093,0.037 0.05,0 0,0 M -1.391,1.158 C -1.408,1.635 -1.537,2.025 -1.779,2.329 -2.022,2.633 -2.377,2.785 -2.845,2.785 -3.322,2.785 -3.689,2.631 -3.948,2.323 -4.207,2.015 -4.353,1.626 -4.385,1.158 Z" />
          </g>
          <g
             transform="translate(86.3225,39.6381)"
             id="g25194">
            <path
               inkscape:connector-curvature="0"
               id="path25196"
               style="fill:#2a5484;fill-opacity:1;fill-rule:nonzero;stroke:none"
               d="m 0,0 0.013,8.85 c 0,0.038 0.027,0.07 0.064,0.076 l 1.372,0.24 C 1.496,9.174 1.539,9.138 1.539,9.09 V 0 c 0,-0.042 -0.034,-0.076 -0.076,-0.076 H 0.076 C 0.034,-0.076 0,-0.042 0,0" />
          </g>
          <g
             transform="translate(143.3085,44.2036)"
             id="g25198">
            <path
               inkscape:connector-curvature="0"
               id="path25200"
               style="fill:#2a5484;fill-opacity:1;fill-rule:nonzero;stroke:none"
               d="m 0,0 -0.001,0.034 c -0.001,0.056 -0.002,0.112 -0.004,0.165 -0.029,0.869 -0.211,1.65 -0.541,2.32 -0.367,0.748 -0.909,1.336 -1.61,1.748 -0.697,0.41 -1.537,0.617 -2.497,0.617 -0.008,0 -0.017,0 -0.025,0 h -0.013 c -0.008,0 -0.017,0 -0.026,0 -1.446,0 -2.539,-0.438 -3.335,-1.335 C -8.333,3.25 -8.571,2.903 -8.76,2.519 -9.122,1.781 -9.307,0.914 -9.307,-0.057 v -0.037 c 0,-0.971 0.185,-1.837 0.547,-2.576 0.189,-0.384 0.427,-0.73 0.704,-1.025 0.8,-0.902 1.893,-1.34 3.339,-1.34 0.009,0 0.018,0 0.026,0 h 0.013 c 0.008,0 0.017,0 0.025,0 0.96,0 1.8,0.208 2.497,0.617 0.085,0.05 0.168,0.103 0.249,0.158 l 0.683,-0.648 c 0.04,-0.038 0.102,-0.036 0.139,0.003 l 0.89,0.938 c 0.037,0.039 0.035,0.102 -0.004,0.139 l -0.658,0.623 c 0.115,0.168 0.219,0.346 0.311,0.535 0.33,0.671 0.512,1.451 0.541,2.319 0.002,0.055 0.003,0.11 0.004,0.167 L 0,-0.151 c 0.001,0.019 0.001,0.038 0.001,0.057 v 0.037 c 0,0.02 0,0.038 -0.001,0.057 m -2.919,-1.381 -0.89,-0.938 c -0.037,-0.039 -0.035,-0.101 0.004,-0.138 l 0.802,-0.764 c -0.443,-0.259 -0.984,-0.386 -1.637,-0.386 -1.015,0 -1.716,0.327 -2.279,0.953 -0.549,0.611 -0.806,1.488 -0.809,2.578 0.003,1.091 0.271,1.964 0.797,2.594 0.527,0.632 1.276,0.939 2.291,0.939 1.014,0 1.761,-0.307 2.284,-0.938 0.522,-0.631 0.789,-1.504 0.792,-2.594 -0.003,-0.804 -0.148,-1.489 -0.434,-2.047 l -0.783,0.745 c -0.039,0.037 -0.101,0.035 -0.138,-0.004" />
          </g>
          <g
             transform="translate(105.7743,45.8481)"
             id="g25202">
            <path
               inkscape:connector-curvature="0"
               id="path25204"
               style="fill:#2a5484;fill-opacity:1;fill-rule:nonzero;stroke:none"
               d="M 0,0 -0.128,-1.118 C -0.132,-1.157 -0.165,-1.187 -0.204,-1.187 H -1.746 V -6.21 c 0,-0.042 -0.034,-0.076 -0.076,-0.076 h -1.387 c -0.042,0 -0.076,0.034 -0.076,0.076 v 5.023 h -0.842 c -0.045,0 -0.08,0.039 -0.076,0.083 l 0.089,1.131 c 0.003,0.04 0.037,0.071 0.077,0.071 h 0.752 v 0.484 c 0,1.476 0.738,2.201 2.061,2.201 0.506,0 0.863,-0.069 1.191,-0.162 C 0,2.611 0.022,2.581 0.022,2.547 V 1.411 c 0,-0.051 -0.05,-0.087 -0.099,-0.072 -0.265,0.083 -0.509,0.133 -0.804,0.133 -0.585,0 -0.89,-0.318 -0.89,-1.017 V 0.086 h 1.695 C -0.031,0.086 0.005,0.046 0,0" />
          </g>
          <g
             transform="translate(117.742,45.8019)"
             id="g25206">
            <path
               inkscape:connector-curvature="0"
               id="path25208"
               style="fill:#2a5484;fill-opacity:1;fill-rule:nonzero;stroke:none"
               d="M 0,0 C 0.032,0.095 -0.035,0.14 -0.063,0.151 -0.134,0.178 -0.49,0.26 -0.764,0.27 -1.223,0.288 -1.564,0.195 -1.847,0.049 -2.091,-0.077 -2.406,-0.315 -2.588,-0.702 v 0.726 c 0,0.07 -0.05,0.127 -0.12,0.127 h -1.225 c -0.07,0 -0.12,-0.057 -0.12,-0.127 v -6.129 c 0,-0.07 0.057,-0.127 0.127,-0.127 h 1.288 c 0.07,0 0.127,0.057 0.127,0.127 v 2.745 c 0,1.211 0.241,1.554 0.534,1.825 0.311,0.288 0.675,0.409 1.05,0.412 0.219,10e-4 0.46,-0.056 0.46,-0.056 0.08,-0.009 0.125,0.04 0.152,0.112 C -0.243,-0.875 -0.039,-0.114 0,0" />
          </g>
        </g>
      </g>
    </g>
  </g>
</svg>
