<svg xmlns="http://www.w3.org/2000/svg" viewBox="0 0 250 53" width="250" height="53">
	<style>
		tspan { white-space:pre }
		.shp0 { fill: #7099a6 } 
		.shp1 { fill: #eb912c } 
		.shp2 { fill: #59879b } 
		.shp3 { fill: #1f447e } 
		.shp4 { fill: #e8762c } 
		.shp5 { fill: #5b6591 } 
		.shp6 { fill: #c72035 } 
	</style>
	<g >
		<path class="shp0" d="M26.19 2.45L26.19 4.91L21.79 4.91L21.79 6.51L26.19 6.51L26.19 11.41L27.91 11.41L27.91 6.51L32.42 6.51L32.42 4.91L27.91 4.91L27.91 0L26.19 0L26.19 2.45Z" />
		<path class="shp1" d="M11.81 8.69L11.81 12.26L5.15 12.26L5.15 14.5L11.81 14.5L11.81 21.75L14.28 21.75L14.28 14.5L21.04 14.5L21.04 12.26L14.28 12.26L14.28 5.12L11.81 5.12L11.81 8.69Z" />
		<path class="shp2" d="M39.72 8.69L39.72 12.26L33.06 12.26L33.06 14.61L39.72 14.61L39.72 21.75L42.29 21.75L42.29 14.61L48.95 14.61L48.95 12.26L42.29 12.26L42.29 5.12L39.72 5.12L39.72 8.69Z" />
		<path fill-rule="evenodd" class="shp3" d="M161.23 10.66L164.66 10.66L164.66 41.06L161.23 41.06L161.23 10.66ZM132.83 13.86L136.32 13.86L136.32 18.08C136.32 22.04 136.34 22.28 136.51 22.23C136.62 22.19 137.14 22.05 137.67 21.9C138.3 21.73 139.06 21.62 139.87 21.57C140.79 21.53 141.33 21.56 142.01 21.69C142.59 21.8 143.28 22.04 143.89 22.34C144.42 22.6 145.12 23.04 145.45 23.33C145.77 23.61 146.28 24.2 146.57 24.64C146.87 25.08 147.24 25.78 147.4 26.21C147.57 26.63 147.78 27.42 147.88 27.97C148 28.69 148.03 29.31 147.99 30.29C147.96 31.02 147.85 31.93 147.75 32.31C147.66 32.69 147.42 33.34 147.23 33.75C147.04 34.16 146.66 34.79 146.39 35.14C146.13 35.49 145.6 36.01 145.22 36.3C144.85 36.59 144.17 36.99 143.73 37.19C143.29 37.4 142.56 37.66 142.12 37.78C141.43 37.97 140.99 38 139.01 38.01C137.14 38.02 136.53 37.98 135.79 37.82C135.29 37.71 134.46 37.5 133.96 37.36C133.46 37.22 133.02 37.06 132.98 37.02C132.94 36.98 132.89 31.76 132.87 25.41L132.83 13.86ZM137.18 25.24L136.38 25.52L136.38 34.39C138.06 34.83 138.42 34.86 139.54 34.83C140.64 34.8 141 34.75 141.53 34.55C141.88 34.41 142.37 34.15 142.6 33.96C142.84 33.78 143.18 33.44 143.36 33.21C143.54 32.98 143.8 32.5 143.93 32.15C144.07 31.8 144.23 31.13 144.29 30.66C144.38 30.02 144.38 29.58 144.28 28.9C144.2 28.29 144.03 27.74 143.78 27.22C143.58 26.79 143.23 26.26 143.01 26.04C142.79 25.82 142.39 25.51 142.12 25.36C141.86 25.2 141.35 25 140.99 24.91C140.64 24.81 140.01 24.74 139.6 24.75C139.19 24.76 138.65 24.81 138.42 24.86C138.18 24.91 137.63 25.08 137.18 25.24ZM76 14.93L79.43 14.93L79.43 24.63L88.66 24.63L88.66 27.83L79.43 27.83L79.43 38.28L76 38.28L76 27.83L66.77 27.83L66.77 24.63L76 24.63L76 14.93Z" />
		<path class="shp4" d="M25.55 20.85L25.55 24.85L18.14 24.85L18.14 27.83L25.55 27.83L25.55 35.83L28.55 35.83L28.55 27.83L35.96 27.83L35.96 24.85L28.55 24.85L28.55 16.85L25.55 16.85L25.55 20.85Z" />
		<path class="shp5" d="M47.34 22.87L47.34 25.38L42.83 25.38L42.83 27.41L47.34 27.41L47.34 32.42L49.59 32.42L49.59 27.41L54.1 27.41L54.1 25.38L49.59 25.38L49.59 20.37L47.34 20.37L47.34 22.87Z" />
		<path class="shp0" d="M4.4 23.09L4.4 25.49L0 25.49L0 27.19L4.4 27.19L4.4 31.99L6.12 31.99L6.12 27.19L10.63 27.03L10.63 25.49L6.12 25.49L6.12 20.69L4.4 20.69L4.4 23.09Z" />
		<path fill-rule="evenodd" class="shp3" d="M112.82 21.43L116.25 21.43L116.25 27.75C116.25 31.23 116.21 34.76 116.09 37.12L115.23 37.38C114.76 37.52 113.77 37.74 113.03 37.87C111.9 38.06 111.39 38.08 109.76 38.04C108.25 38 107.64 37.94 106.97 37.77C106.49 37.64 105.67 37.33 105.14 37.07C104.58 36.79 103.91 36.35 103.53 36.02C103.18 35.7 102.68 35.13 102.44 34.76C102.19 34.38 101.86 33.78 101.72 33.43C101.58 33.08 101.37 32.38 101.27 31.89C101.13 31.17 101.1 30.64 101.14 29.38C101.19 28.17 101.26 27.58 101.43 26.98C101.56 26.54 101.86 25.82 102.09 25.38C102.32 24.94 102.78 24.27 103.12 23.9C103.47 23.52 104.04 23.02 104.39 22.78C104.74 22.55 105.32 22.24 105.68 22.1C106.03 21.96 106.67 21.77 107.1 21.69C107.53 21.61 108.33 21.54 108.87 21.54C109.42 21.54 110.2 21.62 110.62 21.7C111.03 21.79 111.68 22.01 112.07 22.19C112.45 22.36 112.78 22.51 112.79 22.5C112.8 22.5 112.82 22.26 112.82 21.97L112.82 21.43ZM106.98 25.36C106.69 25.52 106.27 25.85 106.04 26.1C105.81 26.35 105.5 26.79 105.36 27.09C105.21 27.38 105.02 27.92 104.93 28.29C104.84 28.65 104.77 29.31 104.77 29.75C104.77 30.19 104.82 30.84 104.88 31.19C104.95 31.54 105.13 32.12 105.3 32.47C105.5 32.89 105.82 33.32 106.23 33.7C106.63 34.07 107.1 34.38 107.51 34.54C108.01 34.74 108.41 34.8 109.44 34.85C110.17 34.88 111.09 34.84 111.58 34.77C112.05 34.7 112.49 34.61 112.56 34.57C112.64 34.52 112.7 33.13 112.75 30.15L112.82 25.81C111.94 25.33 111.45 25.11 111.15 25.01C110.86 24.9 110.18 24.8 109.65 24.78C108.99 24.75 108.5 24.79 108.09 24.91C107.77 25 107.27 25.2 106.98 25.36ZM218.98 21.43L222.41 21.43L222.41 26.79C222.41 29.74 222.38 33.27 222.25 37.12L221.39 37.38C220.92 37.52 219.97 37.74 219.27 37.85C218.38 38.01 217.53 38.07 216.38 38.07C215.47 38.07 214.42 38.02 214.04 37.96C213.66 37.89 212.91 37.7 212.38 37.53C211.81 37.35 211.07 37 210.61 36.7C210.16 36.41 209.54 35.9 209.22 35.55C208.91 35.21 208.47 34.61 208.26 34.23C208.05 33.85 207.76 33.15 207.62 32.69C207.41 32.02 207.35 31.5 207.3 30.29C207.27 29.32 207.3 28.46 207.38 27.99C207.45 27.58 207.63 26.89 207.78 26.45C207.92 26.01 208.25 25.31 208.51 24.9C208.76 24.49 209.3 23.84 209.71 23.46C210.17 23.04 210.77 22.61 211.26 22.37C211.7 22.16 212.34 21.9 212.7 21.8C213.05 21.71 213.92 21.6 214.63 21.57C215.58 21.53 216.13 21.57 216.72 21.69C217.17 21.79 217.84 22.01 218.23 22.19C218.61 22.36 218.94 22.51 218.95 22.5C218.97 22.5 218.98 22.26 218.98 21.97L218.98 21.43ZM213.14 25.36C212.85 25.52 212.43 25.85 212.2 26.1C211.97 26.35 211.67 26.79 211.52 27.09C211.37 27.38 211.18 27.92 211.09 28.29C211 28.65 210.93 29.36 210.93 29.86C210.93 30.36 211 31.07 211.09 31.43C211.18 31.8 211.35 32.3 211.48 32.55C211.61 32.8 211.94 33.24 212.21 33.52C212.48 33.81 212.92 34.15 213.18 34.28C213.45 34.42 213.93 34.61 214.26 34.7C214.63 34.81 215.24 34.87 215.95 34.87C216.55 34.87 217.4 34.82 217.82 34.76C218.25 34.7 218.66 34.61 218.72 34.57C218.81 34.52 218.86 33.23 218.89 30.14L218.92 25.77C217.84 25.22 217.24 24.99 216.88 24.9C216.53 24.81 215.93 24.74 215.54 24.75C215.16 24.75 214.58 24.83 214.26 24.91C213.93 25 213.43 25.2 213.14 25.36ZM186.78 21.59C187.4 21.62 188.19 21.72 188.55 21.81C188.9 21.9 189.48 22.11 189.83 22.28C190.19 22.44 190.77 22.79 191.12 23.06C191.48 23.33 191.98 23.83 192.24 24.17C192.5 24.51 192.87 25.13 193.07 25.54C193.27 25.95 193.53 26.67 193.65 27.14C193.77 27.61 193.91 28.56 194.02 30.5L182.16 30.5L182.23 30.9C182.26 31.12 182.39 31.59 182.49 31.94C182.6 32.29 182.88 32.84 183.1 33.15C183.32 33.46 183.65 33.83 183.82 33.96C184 34.09 184.36 34.31 184.63 34.45C184.89 34.58 185.35 34.75 185.65 34.83C185.95 34.91 186.75 34.98 187.47 34.98C188.18 34.98 189.2 34.91 189.73 34.82C190.26 34.73 191.01 34.55 191.39 34.43C191.77 34.31 192.27 34.12 192.49 34.01C192.71 33.9 192.94 33.8 193 33.8C193.07 33.8 193.11 34.41 193.11 37L192.52 37.27C192.19 37.42 191.51 37.66 190.99 37.81C190.47 37.95 189.52 38.13 188.87 38.2C187.98 38.29 187.38 38.29 186.45 38.2C185.77 38.13 184.78 37.95 184.25 37.8C183.72 37.65 182.95 37.35 182.55 37.13C182.14 36.91 181.45 36.4 181.01 35.99C180.56 35.58 180 34.91 179.74 34.5C179.48 34.09 179.16 33.39 179.01 32.95C178.86 32.51 178.68 31.74 178.61 31.25C178.53 30.7 178.51 29.93 178.55 29.33C178.58 28.77 178.71 27.93 178.83 27.46C178.95 26.99 179.24 26.22 179.47 25.75C179.7 25.28 180.13 24.61 180.41 24.26C180.7 23.91 181.27 23.37 181.68 23.06C182.09 22.75 182.78 22.36 183.21 22.18C183.63 22 184.36 21.79 184.82 21.7C185.37 21.6 186.03 21.56 186.78 21.59ZM184.43 25.41C184.11 25.6 183.66 25.97 183.42 26.23C183.19 26.5 182.88 26.94 182.74 27.22C182.6 27.5 182.48 27.77 182.48 27.83C182.48 27.9 183.83 27.94 186.32 27.94L190.16 27.94C190.05 27.15 189.95 26.76 189.87 26.55C189.78 26.35 189.52 25.97 189.29 25.72C189.01 25.41 188.67 25.19 188.28 25.04C187.95 24.93 187.35 24.81 186.94 24.78C186.46 24.76 185.97 24.8 185.59 24.9C185.27 24.99 184.75 25.22 184.43 25.41ZM235.71 21.86L239.27 21.86L239.26 27.22C239.26 32.27 239.27 32.62 239.47 33.27C239.6 33.67 239.84 34.14 240.04 34.38C240.23 34.6 240.63 34.9 240.93 35.04C241.22 35.18 241.78 35.34 242.16 35.39C242.57 35.45 243.15 35.45 243.56 35.39C243.94 35.34 244.5 35.18 244.79 35.04C245.09 34.9 245.49 34.6 245.68 34.38C245.88 34.14 246.13 33.67 246.25 33.27C246.45 32.62 246.46 32.27 246.46 21.86L249.97 21.86L249.95 27.65C249.94 33.13 249.93 33.46 249.73 34.07C249.61 34.42 249.36 34.95 249.17 35.24C248.98 35.54 248.65 35.95 248.42 36.17C248.2 36.39 247.72 36.74 247.37 36.95C247.02 37.16 246.34 37.45 245.87 37.6C245.33 37.77 244.61 37.9 243.94 37.95C243.34 37.98 242.38 37.98 241.79 37.94C241.12 37.9 240.39 37.77 239.86 37.6C239.38 37.45 238.71 37.16 238.35 36.95C238 36.74 237.53 36.39 237.3 36.17C237.08 35.95 236.74 35.54 236.55 35.24C236.37 34.95 236.12 34.42 236 34.07C235.79 33.47 235.78 33.1 235.75 27.65L235.71 21.86Z" />
		<path class="shp6" d="M11.81 34.39L11.81 37.96L5.15 37.96L5.15 40.31L11.81 40.31L11.81 47.45L14.38 47.45L14.38 40.31L21.04 40.31L21.04 37.96L14.38 37.96L14.38 30.82L11.81 30.82L11.81 34.39Z" />
		<path class="shp3" d="M39.72 34.39L39.72 37.96L33.06 37.96L33.06 40.2L39.72 40.2L39.72 47.45L42.29 47.45L42.29 40.2L48.95 40.2L48.95 37.96L42.29 37.96L42.29 30.82L39.72 30.82L39.72 34.39Z" />
		<path class="shp5" d="M25.98 43.46L25.98 45.96L21.47 45.96L21.47 47.99L25.98 47.99L25.98 53L28.23 53L28.23 47.99L32.74 47.99L32.74 45.96L28.23 45.96L28.23 40.95L25.98 40.95L25.98 43.46Z" />
	</g>
</svg>