<?xml version="1.0" encoding="UTF-8" standalone="no"?>
<!-- Generator: Adobe Illustrator 21.0.0, SVG Export Plug-In . SVG Version: 6.00 Build 0)  -->

<svg
   xmlns:dc="http://purl.org/dc/elements/1.1/"
   xmlns:cc="http://creativecommons.org/ns#"
   xmlns:rdf="http://www.w3.org/1999/02/22-rdf-syntax-ns#"
   xmlns:svg="http://www.w3.org/2000/svg"
   xmlns="http://www.w3.org/2000/svg"
   xmlns:sodipodi="http://sodipodi.sourceforge.net/DTD/sodipodi-0.dtd"
   xmlns:inkscape="http://www.inkscape.org/namespaces/inkscape"
   version="1.1"
   id="Layer_1"
   x="0px"
   y="0px"
   viewBox="0 0 137.89999 24.6"
   xml:space="preserve"
   sodipodi:docname="foodora.svg"
   width="137.89999"
   height="24.6"
   inkscape:version="0.92.3 (2405546, 2018-03-11)"><metadata
   id="metadata69"><rdf:RDF><cc:Work
       rdf:about=""><dc:format>image/svg+xml</dc:format><dc:type
         rdf:resource="http://purl.org/dc/dcmitype/StillImage" /><dc:title></dc:title></cc:Work></rdf:RDF></metadata><defs
   id="defs67" /><sodipodi:namedview
   pagecolor="#ffffff"
   bordercolor="#666666"
   borderopacity="1"
   objecttolerance="10"
   gridtolerance="10"
   guidetolerance="10"
   inkscape:pageopacity="0"
   inkscape:pageshadow="2"
   inkscape:window-width="1920"
   inkscape:window-height="1046"
   id="namedview65"
   showgrid="false"
   fit-margin-top="0"
   fit-margin-left="0"
   fit-margin-right="0"
   fit-margin-bottom="0"
   inkscape:zoom="3.0796252"
   inkscape:cx="152.79215"
   inkscape:cy="6.0455503"
   inkscape:window-x="0"
   inkscape:window-y="34"
   inkscape:window-maximized="1"
   inkscape:current-layer="Layer_1" />
<style
   type="text/css"
   id="style2">
	.st0{fill:#D70F64;}
	.st1{fill:#D60365;}
	.st2{fill:#FFFFFF;}
</style>

<g
   id="g60"
   transform="translate(-0.8,-7.7)">
	<g
   id="Font">
		<path
   class="st1"
   d="m 38.3,16.7 h 2.5 v -2.4 c 0,-2.9 1.6,-4.8 4.8,-4.8 l 1.6,0.3 v 2.9 l -1.7,-0.3 c -1,0 -1.4,0.6 -1.4,1.6 v 2.7 h 3.2 v 2.9 H 44 V 31.7 H 40.8 V 19.5 h -2.5 z"
   id="path40"
   inkscape:connector-curvature="0"
   style="fill:#d60365" />
		<path
   class="st1"
   d="m 55.4,16.4 c 4.1,0 7.8,3.2 7.8,7.8 0,4.6 -3.6,7.8 -7.8,7.8 -4.2,0 -7.8,-3.2 -7.8,-7.8 0.1,-4.7 3.7,-7.8 7.8,-7.8 z m 0,12.7 c 3,0 4.6,-2.2 4.6,-4.9 0,-2.7 -1.6,-4.9 -4.6,-4.9 -3,0 -4.6,2.2 -4.6,4.9 0,2.6 1.6,4.9 4.6,4.9 z"
   id="path42"
   inkscape:connector-curvature="0"
   style="fill:#d60365" />
		<path
   class="st1"
   d="m 72.4,16.4 c 4.1,0 7.8,3.2 7.8,7.8 0,4.6 -3.6,7.8 -7.8,7.8 -4.2,0 -7.8,-3.2 -7.8,-7.8 0,-4.7 3.7,-7.8 7.8,-7.8 z m 0,12.7 c 3,0 4.6,-2.2 4.6,-4.9 0,-2.7 -1.6,-4.9 -4.6,-4.9 -3,0 -4.6,2.2 -4.6,4.9 0,2.6 1.6,4.9 4.6,4.9 z"
   id="path44"
   inkscape:connector-curvature="0"
   style="fill:#d60365" />
		<path
   class="st1"
   d="m 96.8,31.6 h -2.9 l -0.3,-1.3 -0.2,-0.2 -0.2,0.2 c -1,1 -2.5,1.6 -4.1,1.6 -4.1,0 -7.6,-3.2 -7.6,-7.8 0,-4.6 3.5,-7.8 7.6,-7.8 1.6,0 3.2,0.6 4.1,1.6 l 0.2,0.2 0.2,-0.2 V 9.6 h 3.2 z M 89.3,19.2 c -3,0 -4.6,2.2 -4.6,4.9 0,2.7 1.6,4.9 4.6,4.9 2.7,0 4.6,-2.2 4.6,-4.9 0,-2.7 -1.9,-4.9 -4.6,-4.9 z"
   id="path46"
   inkscape:connector-curvature="0"
   style="fill:#d60365" />
		<path
   class="st1"
   d="m 106.6,16.4 c 4.1,0 7.8,3.2 7.8,7.8 0,4.6 -3.6,7.8 -7.8,7.8 -4.1,0 -7.8,-3.2 -7.8,-7.8 0,-4.7 3.7,-7.8 7.8,-7.8 z m 0,12.7 c 3,0 4.6,-2.2 4.6,-4.9 0,-2.7 -1.6,-4.9 -4.6,-4.9 -3,0 -4.6,2.2 -4.6,4.9 0,2.6 1.6,4.9 4.6,4.9 z"
   id="path48"
   inkscape:connector-curvature="0"
   style="fill:#d60365" />
		<path
   class="st1"
   d="m 116.4,16.7 h 2.9 l 0.3,1.6 0.2,0.2 0.2,-0.2 c 1,-1.3 2.2,-1.9 3.5,-1.9 0.6,0 1,0 1.6,0.3 v 2.9 h -1.9 c -1.9,0 -3.4,1.5 -3.5,3.4 v 8.7 h -3.2 v -15 z"
   id="path50"
   inkscape:connector-curvature="0"
   style="fill:#d60365" />
		<path
   class="st1"
   d="m 132.9,22.3 h 2.6 v -0.7 c 0,-1.8 -1.2,-2.6 -2.9,-2.6 -1.4,0 -2.3,0.7 -2.8,2 L 127,20.4 c 0.6,-2.5 2.8,-4.2 5.7,-4.2 4,0 6,2 6,5.9 v 9.3 H 136 l -0.3,-2 c -1,1.5 -2.6,2.2 -4.7,2.2 -2.7,0 -4.6,-1.6 -4.6,-4.6 0,-2.8 2.6,-4.7 6.5,-4.7 z m -1.3,6.8 c 1,0 2,-0.3 2.7,-1 0.8,-0.7 1.2,-1.6 1.2,-2.8 V 25 h -2.7 c -1.9,0 -3.1,0.9 -3.1,2.3 0,1 0.7,1.8 1.9,1.8 z"
   id="path52"
   inkscape:connector-curvature="0"
   style="fill:#d60365" />
	</g>
	<g
   id="Cloche">
		<path
   class="st1"
   d="m 18.8,31.2 c 1.1,-0.4 9.1,-3.6 10.7,-4.2 0.2,-0.1 0.2,-0.3 0.1,-0.4 -0.2,-0.2 -0.5,-0.4 -1.1,-0.4 -0.8,0 -7.7,2.2 -7.7,2.2 0,0 -3.2,0.5 -3.6,0.5 -0.4,-0.1 -0.5,-0.3 -0.5,-0.6 0,-0.3 0.2,-0.6 0.8,-0.6 0.6,-0.1 4.1,-0.3 4.7,-0.6 0.6,-0.4 0.5,-1 0.2,-1.1 C 21.9,25.8 12,25.8 7.1,25.9 c -0.7,0 -2.2,0 -4.4,0 0.4,2.4 1.1,4.5 2.6,6.4 1.4,-0.7 3,-1.2 4.8,-1.1 1.3,-0.1 7.4,0.4 8.7,0 z"
   id="path55"
   inkscape:connector-curvature="0"
   style="fill:#d60365" />
		<path
   class="st1"
   d="m 30.8,22.6 h -1.3 v 0 C 29.2,15.6 23.6,9.9 16.6,9.6 v 0 -1.3 C 16.6,8 16.4,7.7 16,7.7 c -0.3,0 -0.6,0.2 -0.6,0.6 v 1.3 0 C 8.4,9.9 2.7,15.5 2.5,22.6 H 1.4 c -0.3,0 -0.6,0.2 -0.6,0.6 0,0.3 0.2,0.6 0.6,0.6 h 29.4 c 0.3,0 0.6,-0.2 0.6,-0.6 0,-0.4 -0.2,-0.6 -0.6,-0.6 z M 10.4,12.4 c -0.9,1.1 -2.9,4.1 -3.1,8.3 0,0.4 -0.3,0.7 -0.6,0.7 H 5.4 c -0.4,0 -0.7,-0.5 -0.6,-1 0.4,-1.7 1.7,-5.4 5.5,-8.1 0.1,-0.1 0.2,0 0.1,0.1 z"
   id="path57"
   inkscape:connector-curvature="0"
   style="fill:#d60365" />
	</g>
</g>

</svg>