<?xml version="1.0" encoding="UTF-8" standalone="no"?>
<!-- Generator: Adobe Illustrator 21.0.0, SVG Export Plug-In . SVG Version: 6.00 Build 0)  -->

<svg
   xmlns:dc="http://purl.org/dc/elements/1.1/"
   xmlns:cc="http://creativecommons.org/ns#"
   xmlns:rdf="http://www.w3.org/1999/02/22-rdf-syntax-ns#"
   xmlns:svg="http://www.w3.org/2000/svg"
   xmlns="http://www.w3.org/2000/svg"
   xmlns:sodipodi="http://sodipodi.sourceforge.net/DTD/sodipodi-0.dtd"
   xmlns:inkscape="http://www.inkscape.org/namespaces/inkscape"
   version="1.1"
   id="Layer_1"
   x="0px"
   y="0px"
   viewBox="0 0 174.19999 31.5"
   xml:space="preserve"
   sodipodi:docname="foodpanda.svg"
   width="174.2"
   height="31.5"
   inkscape:version="0.92.3 (2405546, 2018-03-11)"><metadata
   id="metadata69"><rdf:RDF><cc:Work
       rdf:about=""><dc:format>image/svg+xml</dc:format><dc:type
         rdf:resource="http://purl.org/dc/dcmitype/StillImage" /><dc:title></dc:title></cc:Work></rdf:RDF></metadata><defs
   id="defs67" /><sodipodi:namedview
   pagecolor="#ffffff"
   bordercolor="#666666"
   borderopacity="1"
   objecttolerance="10"
   gridtolerance="10"
   guidetolerance="10"
   inkscape:pageopacity="0"
   inkscape:pageshadow="2"
   inkscape:window-width="1920"
   inkscape:window-height="1046"
   id="namedview65"
   showgrid="false"
   inkscape:zoom="3.0796252"
   inkscape:cx="-14.507845"
   inkscape:cy="2.0455503"
   inkscape:window-x="0"
   inkscape:window-y="34"
   inkscape:window-maximized="1"
   inkscape:current-layer="Layer_1"
   fit-margin-top="0"
   fit-margin-left="0"
   fit-margin-right="0"
   fit-margin-bottom="0" />
<style
   type="text/css"
   id="style2">
	.st0{fill:#D70F64;}
	.st1{fill:#D60365;}
	.st2{fill:#FFFFFF;}
</style>
<g
   id="g38"
   transform="translate(-167.3,-6.5)">
	<g
   id="g22">
		<path
   class="st0"
   d="m 203,16.3 h 2.5 v -2.4 c 0,-2.9 1.6,-4.8 4.8,-4.8 l 1.6,0.3 v 2.9 L 210.2,12 c -1,0 -1.4,0.6 -1.4,1.6 v 2.7 h 3.2 v 2.9 h -3.2 v 12 h -3.2 v -12 H 203 Z"
   id="path4"
   inkscape:connector-curvature="0"
   style="fill:#d70f64" />
		<path
   class="st0"
   d="m 220.1,16 c 4.1,0 7.8,3.2 7.8,7.8 0,4.6 -3.6,7.8 -7.8,7.8 -4.2,0 -7.8,-3.2 -7.8,-7.8 0,-4.7 3.7,-7.8 7.8,-7.8 z m 0,12.7 c 3,0 4.6,-2.2 4.6,-4.9 0,-2.7 -1.6,-4.9 -4.6,-4.9 -3,0 -4.6,2.2 -4.6,4.9 0,2.6 1.6,4.9 4.6,4.9 z"
   id="path6"
   inkscape:connector-curvature="0"
   style="fill:#d70f64" />
		<path
   class="st0"
   d="m 237,16 c 4.1,0 7.8,3.2 7.8,7.8 0,4.6 -3.6,7.8 -7.8,7.8 -4.2,0 -7.8,-3.2 -7.8,-7.8 0.1,-4.7 3.7,-7.8 7.8,-7.8 z m 0,12.7 c 3,0 4.6,-2.2 4.6,-4.9 0,-2.7 -1.6,-4.9 -4.6,-4.9 -3,0 -4.6,2.2 -4.6,4.9 0,2.6 1.6,4.9 4.6,4.9 z"
   id="path8"
   inkscape:connector-curvature="0"
   style="fill:#d70f64" />
		<path
   class="st0"
   d="m 261.4,31.2 h -2.9 l -0.3,-1.3 -0.2,-0.2 -0.2,0.2 c -1,1 -2.5,1.6 -4.1,1.6 -4.1,0 -7.6,-3.2 -7.6,-7.8 0,-4.6 3.5,-7.8 7.6,-7.8 1.6,0 3.2,0.6 4.1,1.6 l 0.2,0.2 0.2,-0.2 V 9.2 h 3.2 z m -7.5,-12.4 c -3,0 -4.6,2.2 -4.6,4.9 0,2.7 1.6,4.9 4.6,4.9 2.7,0 4.6,-2.2 4.6,-4.9 0,-2.6 -1.9,-4.9 -4.6,-4.9 z"
   id="path10"
   inkscape:connector-curvature="0"
   style="fill:#d70f64" />
		<path
   class="st0"
   d="m 264.6,16.3 h 2.9 l 0.3,1.3 0.2,0.2 0.2,-0.2 c 1,-1 2.5,-1.6 4.1,-1.6 4.1,0 7.6,3.2 7.6,7.8 0,4.6 -3.5,7.8 -7.6,7.8 -1.6,0 -3.2,-0.6 -4.1,-1.6 L 268,29.8 267.8,30 v 8 h -3.1 V 16.3 Z m 7.4,12.4 c 3,0 4.6,-2.2 4.6,-4.9 0,-2.7 -1.6,-4.9 -4.6,-4.9 -2.7,0 -4.6,2.2 -4.6,4.9 0,2.6 1.9,4.9 4.6,4.9 z"
   id="path12"
   inkscape:connector-curvature="0"
   style="fill:#d70f64" />
		<path
   class="st0"
   d="m 287.8,21.9 h 2.6 v -0.7 c 0,-1.8 -1.2,-2.6 -2.9,-2.6 -1.4,0 -2.3,0.7 -2.8,2 L 281.9,20 c 0.6,-2.5 2.8,-4.1 5.7,-4.1 4,0 6,2 6,5.9 v 9.3 H 291 l -0.3,-2 c -1,1.5 -2.6,2.2 -4.7,2.2 -2.7,0 -4.6,-1.6 -4.6,-4.6 -0.1,-2.9 2.5,-4.8 6.4,-4.8 z m -1.4,6.8 c 1,0 2,-0.3 2.7,-1 0.8,-0.7 1.2,-1.6 1.2,-2.8 v -0.3 h -2.7 c -1.9,0 -3.1,0.9 -3.1,2.3 0,1 0.7,1.8 1.9,1.8 z"
   id="path14"
   inkscape:connector-curvature="0"
   style="fill:#d70f64" />
		<path
   class="st0"
   d="m 296.4,16.3 h 2.9 l 0.3,1.3 0.2,0.2 0.2,-0.2 c 0.6,-1 2.2,-1.6 3.5,-1.6 3.8,0 6,2.5 6,6 v 9.2 h -3.2 V 22 c -0.1,-2 -1.1,-3.2 -3.2,-3.2 -1.9,0 -3.4,1.5 -3.5,3.4 v 9 h -3.2 z"
   id="path16"
   inkscape:connector-curvature="0"
   style="fill:#d70f64" />
		<path
   class="st0"
   d="m 326.6,31.2 h -2.9 l -0.3,-1.3 -0.2,-0.2 -0.2,0.2 c -1,1 -2.5,1.6 -4.1,1.6 -4.1,0 -7.6,-3.2 -7.6,-7.8 0,-4.6 3.5,-7.8 7.6,-7.8 1.6,0 3.2,0.6 4.1,1.6 l 0.2,0.2 0.2,-0.2 V 9.2 h 3.2 z m -7.4,-12.4 c -3,0 -4.6,2.2 -4.6,4.9 0,2.7 1.6,4.9 4.6,4.9 2.7,0 4.6,-2.2 4.6,-4.9 0,-2.6 -1.9,-4.9 -4.6,-4.9 z"
   id="path18"
   inkscape:connector-curvature="0"
   style="fill:#d70f64" />
		<path
   class="st0"
   d="m 335.7,21.9 h 2.6 v -0.7 c 0,-1.8 -1.2,-2.6 -2.9,-2.6 -1.4,0 -2.3,0.7 -2.8,2 L 329.8,20 c 0.6,-2.5 2.8,-4.1 5.7,-4.1 4,0 6,2 6,5.9 v 9.3 h -2.6 l -0.3,-2 c -1,1.5 -2.6,2.2 -4.7,2.2 -2.7,0 -4.6,-1.6 -4.6,-4.6 -0.1,-2.9 2.4,-4.8 6.4,-4.8 z m -1.4,6.8 c 1,0 2,-0.3 2.7,-1 0.8,-0.7 1.2,-1.6 1.2,-2.8 v -0.3 h -2.7 c -1.9,0 -3.1,0.9 -3.1,2.3 0,1 0.7,1.8 1.9,1.8 z"
   id="path20"
   inkscape:connector-curvature="0"
   style="fill:#d70f64" />
	</g>
	<g
   id="g36">
		<path
   class="st0"
   d="m 180.9,26.5 c 1.8,0 3.3,-1.3 3.3,-2.9 h -6.6 c 0,1.6 1.4,2.9 3.3,2.9 z"
   id="path24"
   inkscape:connector-curvature="0"
   style="fill:#d70f64" />
		<g
   id="g34">
			<path
   class="st0"
   d="m 192,12.7 c 0.8,-0.6 1.2,-1.6 1.2,-2.7 0,-2 -1.6,-3.5 -3.6,-3.5 -1.3,0 -2.4,0.6 -3,1.6 -1.8,-0.9 -3.8,-1.3 -5.8,-1.3 -2.1,0 -4.1,0.5 -5.8,1.3 -0.6,-1 -1.7,-1.6 -3,-1.6 -2,0 -3.6,1.6 -3.6,3.5 0,1.1 0.5,2 1.2,2.7 -1.5,2.2 -2.3,4.7 -2.3,7.5 0,7.4 6,13.5 13.5,13.5 7.4,0 13.5,-6 13.5,-13.5 0,-2.8 -0.8,-5.4 -2.3,-7.5 z m -11.1,19.9 c -6.8,0 -12.4,-5.6 -12.4,-12.4 0,-2.6 0.8,-5 2.1,-7 1.2,-1.8 2.9,-3.3 4.9,-4.2 1.6,-0.8 3.5,-1.2 5.4,-1.2 1.9,0 3.8,0.4 5.4,1.2 2,1 3.6,2.4 4.9,4.2 1.3,2 2.1,4.4 2.1,7 0,6.8 -5.6,12.4 -12.4,12.4 z"
   id="path26"
   inkscape:connector-curvature="0"
   style="fill:#d70f64" />
			<path
   class="st0"
   d="m 180.9,22.8 c 0.2,0.1 2.3,-0.7 2.3,-1.7 0,-0.6 -1.7,-0.7 -2.3,-0.7 -0.6,0 -2.3,0.1 -2.3,0.7 -0.1,1 2.1,1.8 2.3,1.7 z"
   id="path28"
   inkscape:connector-curvature="0"
   style="fill:#d70f64" />
			<path
   class="st0"
   d="m 188.7,14.4 c -1.2,-0.8 -3.8,-1.2 -4.8,0.1 0,0 -1.3,1.4 0,2.8 1.3,1.4 2.2,2.8 2.5,3.9 0.3,1.2 0.8,1.6 1.7,1.6 0.9,0 2.7,-1.4 3,-3.7 0.2,-2.3 -1.2,-4 -2.4,-4.7 z m -2.7,2.9 c -0.4,0 -0.7,-0.3 -0.7,-0.7 0,-0.4 0.3,-0.7 0.7,-0.7 0.4,0 0.7,0.3 0.7,0.7 0,0.4 -0.3,0.7 -0.7,0.7 z"
   id="path30"
   inkscape:connector-curvature="0"
   style="fill:#d70f64" />
			<path
   class="st0"
   d="m 177.8,14.5 c -1,-1.3 -3.6,-0.9 -4.8,-0.1 -1.2,0.8 -2.6,2.4 -2.4,4.7 0.2,2.3 2,3.7 3,3.7 0.9,0 1.4,-0.5 1.7,-1.6 0.3,-1.2 1.3,-2.5 2.5,-3.9 1.3,-1.5 0,-2.8 0,-2.8 z m -1.9,2.8 c -0.4,0 -0.7,-0.3 -0.7,-0.7 0,-0.4 0.3,-0.7 0.7,-0.7 0.4,0 0.7,0.3 0.7,0.7 0,0.4 -0.3,0.7 -0.7,0.7 z"
   id="path32"
   inkscape:connector-curvature="0"
   style="fill:#d70f64" />
		</g>
	</g>
</g>


</svg>