<svg xmlns="http://www.w3.org/2000/svg" width="393.04" height="401.38" viewBox="0 0 393.04 401.38">
  <title>logo-top</title>
  <g>
    <path d="M195.33,0A142.79,142.79,0,1,0,338.11,142.79,142.79,142.79,0,0,0,195.33,0" style="fill: #264f36"/>
    <path d="M226.68,68.15c12.32,0,22.3,51.94,22.3,116h17.85c0-69-18-124.93-40.15-124.93-12.62,0-23.87,16.81-31.24,43.1-7.36-26.29-18.62-43.1-31.23-43.1-22.18,0-40.16,55.94-40.16,124.93H141.9c0-64.06,10-116,22.31-116s22.31,47.94,22.31,107.08h17.84c0-59.14,10-107.08,22.32-107.08" style="fill: #fcbd00"/>
    <path d="M160.24,217.88a4.24,4.24,0,1,1-4.24-4.24,4.24,4.24,0,0,1,4.24,4.24" style="fill: #fff"/>
    <path d="M176.07,220.69a4.24,4.24,0,1,1-4.24-4.24,4.24,4.24,0,0,1,4.24,4.24" style="fill: #fff"/>
    <path d="M191.9,221.87a4.24,4.24,0,1,1-4.24-4.24,4.24,4.24,0,0,1,4.24,4.24" style="fill: #fff"/>
    <path d="M207.73,221.87a4.24,4.24,0,1,1-4.24-4.24,4.24,4.24,0,0,1,4.24,4.24" style="fill: #fff"/>
    <path d="M223.56,220.69a4.24,4.24,0,1,1-4.24-4.24,4.24,4.24,0,0,1,4.24,4.24" style="fill: #fff"/>
    <path d="M239.4,217.88a4.24,4.24,0,1,1-4.24-4.24,4.24,4.24,0,0,1,4.24,4.24" style="fill: #fff"/>
    <path d="M133.15,201.89h0a7.68,7.68,0,1,1-5.43,2.25,7.69,7.69,0,0,1,5.43-2.25m0-3.24a10.93,10.93,0,1,0,10.92,10.92,10.92,10.92,0,0,0-10.92-10.92" style="fill: #fff"/>
    <path d="M268.93,209.58A10.92,10.92,0,1,1,258,198.65a10.92,10.92,0,0,1,10.92,10.93" style="fill: #fff"/>
    <path d="M307.76,246.45V242h-1.7v-1.39h5.16V242h-1.68v4.45Zm3.71,0,.57-5.84h1.86L315,244l1.16-3.35H318l.57,5.84h-1.81l-.25-3.28-.95,2.68h-1.08l-1-2.72-.27,3.32Z" style="fill: #264f36"/>
    <polygon points="0 383.96 5.86 331.63 19.53 331.63 30.46 364.52 41.48 331.63 55.14 331.63 61 383.96 47.02 383.96 43.98 352.02 34.68 380.14 26.01 380.14 16.64 351.71 13.51 383.96 0 383.96"/>
    <path d="M84.36,385a21.82,21.82,0,0,1-10.16-2.34,17.31,17.31,0,0,1-7.18-7,22.5,22.5,0,0,1-2.66-11.37A22,22,0,0,1,67,353.15,18.11,18.11,0,0,1,74.2,346a21,21,0,0,1,10.16-2.46,21.41,21.41,0,0,1,8.47,1.68,16.22,16.22,0,0,1,6.56,5,16.65,16.65,0,0,1,3.24,8.44H89.51a10.61,10.61,0,0,0-2-5,4.1,4.1,0,0,0-3.2-1.52q-2.51,0-4.38,2.73c-1.25,1.82-1.87,4.95-1.87,9.37s.62,7.49,1.87,9.34,2.71,2.77,4.38,2.77a4.32,4.32,0,0,0,3.39-1.56c.91-1,1.58-2.89,2-5.55h13.05a18.89,18.89,0,0,1-3.59,8.94,16.58,16.58,0,0,1-6.6,5.12A21,21,0,0,1,84.36,385"/>
    <path d="M107.88,384V331.63h18.36q9.29,0,15.7,3.4a23.46,23.46,0,0,1,9.68,9.14A25.41,25.41,0,0,1,154.9,357a29,29,0,0,1-3.28,14,23.14,23.14,0,0,1-9.68,9.49q-6.41,3.44-15.7,3.44Zm18.36-42.65H121V374.2h5.24q7.26,0,10.7-4.29t3.43-12.11q0-7.89-3.43-12.19t-10.7-4.29"/>
    <path d="M178,385a22.21,22.21,0,0,1-10.07-2.26,17,17,0,0,1-7.19-6.84q-2.65-4.56-2.65-11.6a23.12,23.12,0,0,1,2.46-11,17.64,17.64,0,0,1,6.87-7.19,20.26,20.26,0,0,1,10.27-2.54,20,20,0,0,1,10.51,2.62,17,17,0,0,1,6.6,7.3A24.89,24.89,0,0,1,197,364.44V367H171.17q.47,5.31,2.3,7.53a5.69,5.69,0,0,0,4.57,2.23,5.45,5.45,0,0,0,3.91-1.33,7.09,7.09,0,0,0,2-3.75h12.65a15.63,15.63,0,0,1-6.6,10A21.21,21.21,0,0,1,178,385m-.31-33.19a5.32,5.32,0,0,0-4.41,2.3,12.28,12.28,0,0,0-2.07,6.6H183.9a13.66,13.66,0,0,0-1.87-6.56,5,5,0,0,0-4.38-2.34"/>
    <rect x="201.16" y="329.29" width="13.28" height="54.68"/>
    <rect x="220.69" y="344.6" width="13.28" height="39.37"/>
    <polygon points="250.53 383.96 236.62 344.6 250.37 344.6 257.94 371.47 265.37 344.6 278.25 344.6 264.35 383.96 250.53 383.96"/>
    <path d="M297.41,385a22.22,22.22,0,0,1-10.08-2.26,17,17,0,0,1-7.18-6.84,22.81,22.81,0,0,1-2.66-11.6,23.12,23.12,0,0,1,2.46-11,17.6,17.6,0,0,1,6.88-7.19,20.24,20.24,0,0,1,10.27-2.54,20,20,0,0,1,10.5,2.62,17,17,0,0,1,6.6,7.3,24.89,24.89,0,0,1,2.27,10.94V367H290.61c.32,3.54,1.08,6.05,2.31,7.53a5.67,5.67,0,0,0,4.57,2.23,5.43,5.43,0,0,0,3.9-1.33,7.16,7.16,0,0,0,2-3.75H316a15.63,15.63,0,0,1-6.6,10,21.25,21.25,0,0,1-12,3.32m-.31-33.19a5.35,5.35,0,0,0-4.42,2.3,12.28,12.28,0,0,0-2.07,6.6h12.74a13.65,13.65,0,0,0-1.88-6.56,5,5,0,0,0-4.37-2.34"/>
    <path d="M321.62,384V344.6h11.64l.63,6.87a13.11,13.11,0,0,1,3.51-5.15A9.34,9.34,0,0,1,344,344a10,10,0,0,1,1.33.08l1,.16v12.26a8.45,8.45,0,0,0-1.4-.27,14.31,14.31,0,0,0-1.8-.12,8.28,8.28,0,0,0-5.94,2.23q-2.34,2.22-2.34,6.83V384Z"/>
    <path d="M348.71,399.43l2.73-8.12a12.35,12.35,0,0,0,4.76,1,5.26,5.26,0,0,0,3.25-1.09,11.53,11.53,0,0,0,2.92-4.45l1.49-3.44L348.63,344.6h13.74l7.5,24.84,7.27-24.84H390l-16.71,42.72q-2.81,7.19-6.56,10.63a12.93,12.93,0,0,1-9.06,3.43,23.39,23.39,0,0,1-5-.5,15,15,0,0,1-4-1.45"/>
    <path d="M227.84,340.52a7.29,7.29,0,0,1-5.27-2.07,7,7,0,0,1,0-10.08,7.74,7.74,0,0,1,10.54,0,7,7,0,0,1,0,10.08,7.3,7.3,0,0,1-5.27,2.07"/>
    <path d="M382.24,383.94v-4.45h-1.7V378.1h5.17v1.39H384v4.45Zm3.72,0,.57-5.84h1.85l1.1,3.35,1.15-3.35h1.84l.57,5.84h-1.81l-.25-3.28-1,2.69H389l-1-2.73-.27,3.32Z"/>
  </g>
</svg>
