<?xml version="1.0" encoding="UTF-8" standalone="no"?>
<svg xmlns:rdf="http://www.w3.org/1999/02/22-rdf-syntax-ns#" xmlns="http://www.w3.org/2000/svg" enable-background="new 0 0 1000.486 538.73" xml:space="preserve" height="136.68" viewBox="0 0 252.12158 136.68262" width="252.12" version="1.1" xmlns:cc="http://creativecommons.org/ns#" xmlns:dc="http://purl.org/dc/elements/1.1/"><path d="m0.95021 1.0498v97.613l13.615 13.606 13.593 13.595 9.8638 9.8677h213.05v-100.73l-14.505-14.516-7.4517-7.4424-11.994-11.994h-216.17zm22.486 19.305h26.428v24.191h19.371v26.437h-19.371v45.216l-26.428-26.425v-69.419zm52.387 0h25.428v25.864c5.79-3.4172 12.537-5.3892 19.75-5.3892 21.474 0 38.882 17.419 38.882 38.886 0 21.48-17.409 38.885-38.882 38.885-8.5088 0-16.37-2.7359-22.773-7.3706v4.9692h-22.405v-95.844zm117.61 19.353h13.99l19.332 19.496h-31.138c-3.6935 0-5.3755 1.2661-5.3755 3.0586v0.21484c0 1.9952 2.0003 3.2612 9.7983 4.731 18.857 3.476 31.5 8.9596 31.5 23.809v0.21533c0 15.482-12.747 24.967-32.557 24.967h-18.358l-19.466-19.496h35.964c4.4225 0 6.3198-1.1461 6.3198-3.1528v-0.20361c0.00025-2.1145-2.3148-3.2736-10.217-4.8506-16.542-3.369-31.075-8.1114-31.075-23.713v-0.20361c0-14.012 10.954-24.872 31.284-24.872zm-72.438 26.509c-7.458 0-13.505 6.0443-13.505 13.499 0 7.4542 6.0474 13.512 13.505 13.512 7.4538 0 13.504-6.0577 13.504-13.512 0-7.4545-6.0499-13.499-13.504-13.499z"/></svg>
