<?xml version="1.0" encoding="UTF-8" standalone="no"?>
<!-- Created with Inkscape (http://www.inkscape.org/) -->
<svg xmlns:dc="http://purl.org/dc/elements/1.1/" xmlns:cc="http://creativecommons.org/ns#" xmlns:rdf="http://www.w3.org/1999/02/22-rdf-syntax-ns#" xmlns:svg="http://www.w3.org/2000/svg" xmlns="http://www.w3.org/2000/svg" xmlns:sodipodi="http://sodipodi.sourceforge.net/DTD/sodipodi-0.dtd" xmlns:inkscape="http://www.inkscape.org/namespaces/inkscape" id="svg2985" version="1.1" inkscape:version="0.48.5 r10040" width="1000" height="103.00557" sodipodi:docname="Wmlogo.svg">
  <metadata id="metadata2991">
    <rdf:RDF>
      <cc:Work rdf:about="">
        <dc:format>image/svg+xml</dc:format>
        <dc:type rdf:resource="http://purl.org/dc/dcmitype/StillImage"/>
        <dc:title/>
      </cc:Work>
    </rdf:RDF>
  </metadata>
  <defs id="defs2989">
 <style id="style3109" type="text/css">
   
    .fil0 {fill:black}
    .fil1 {fill:#969695}
   
  </style>

  
  
  
 
   
   
   
   
   
   
   
   
   
   
   
  </defs>
  <sodipodi:namedview pagecolor="#ffffff" bordercolor="#666666" borderopacity="1" objecttolerance="10" gridtolerance="10" guidetolerance="10" inkscape:pageopacity="0" inkscape:pageshadow="2" inkscape:window-width="1920" inkscape:window-height="1017" id="namedview2987" showgrid="false" inkscape:object-paths="false" fit-margin-top="0" fit-margin-left="0" fit-margin-right="0" fit-margin-bottom="0" inkscape:zoom="0.27394334" inkscape:cx="2157.2429" inkscape:cy="-187.90693" inkscape:window-x="-4" inkscape:window-y="-4" inkscape:window-maximized="1" inkscape:current-layer="svg2985"/>
  <g id="g3209" transform="matrix(0.16785452,0,0,0.16785452,274.2053,89.370709)">
    <g id="g3201">
      <path style="fill:black;fill-rule:evenodd" inkscape:connector-curvature="0" class="fil0" d="m -1159.7426,81.23024 -90.248,-336.8622 -90.2834,336.8622 c -46.9843,0 -102.3662,0 -149.3859,0 l -143.9291,-611.36219 152.8583,0 73.9133,401.13779 96.5906,-347.98818 c 40.1457,0 80.3268,0 120.4724,0 l 96.5906,347.98818 73.9134,-401.13779 152.85823,0 -143.96453,611.36219 c -46.9843,0 -102.3662,0 -149.3859,0 z" id="path3114"/>
      <path style="fill:black;fill-rule:evenodd" inkscape:connector-curvature="0" class="fil0" d="m -775.15201,-40.553222 210.72046,0 38.58662,121.783462 159.51968,0 -225.56693,-611.36219 -155.7992,0 -225.56693,611.36219 159.51968,0 38.58662,-121.783462 z m 173.16141,-118.594488 -135.60236,0 67.8189,-214.05117 67.78346,214.05117 z" id="path3116"/>
      <path style="fill:black;fill-rule:evenodd" inkscape:connector-curvature="0" class="fil0" d="m -329.22683,-530.13195 267.838579,0 c 110.586611,0 201.082671,90.49606 201.082671,201.08267 l 0,0 c 0,78.05906 -45.106297,146.12598 -110.551177,179.39764 l 148.074797,230.88188 -164.019679,0 -119.090551,-209.23228 -82.34645,0 0,209.23228 -140.98819,0 0,-611.36219 z m 140.98819,112.78346 0,176.59842 98.681098,0 c 48.543306,0 88.2637777,-39.7559 88.2637777,-88.29921 l 0,0 c 0,-48.57874 -39.7204717,-88.29921 -88.2637777,-88.29921 l -98.681098,0 z" id="path3118"/>
      <path style="fill:black;fill-rule:evenodd" inkscape:connector-curvature="0" class="fil0" d="m 1246.6944,-530.13195 267.8386,0 c 110.5866,0 201.0826,90.49606 201.0826,201.08267 l 0,0 c 0,78.05906 -45.1063,146.12598 -110.5511,179.39764 l 148.0748,230.88188 -164.0197,0 -119.0906,-209.23228 -82.3464,0 0,209.23228 -140.9882,0 0,-611.36219 z m 140.9882,112.78346 0,176.59842 98.6811,0 c 48.5433,0 88.2992,-39.7559 88.2992,-88.29921 l 0,0 c 0,-48.57874 -39.7559,-88.29921 -88.2992,-88.29921 l -98.6811,0 z" id="path3120"/>
      <polygon style="fill:black;fill-rule:evenodd" class="fil0" points="62886,17254 66433,17254 66433,0 62455,0 62455,10261 55616,0 52069,0 52069,17254 56047,17254 56047,6994 " id="polygon3122" transform="matrix(0.03543307,0,0,0.03543307,-1633.589,-530.13195)"/>
      <polygon style="fill:black;fill-rule:evenodd" class="fil0" points="71962,14072 71962,10135 77899,10135 77899,6952 71962,6952 71962,3183 79364,3183 79364,0 67983,0 67983,17254 79697,17254 79697,14072 " id="polygon3124" transform="matrix(0.03543307,0,0,0.03543307,-1633.589,-530.13195)"/>
    </g>
    <g transform="translate(3371.0674,-683.46295)" id="g3194">
      <path style="fill:#969695;fill-rule:evenodd" inkscape:connector-curvature="0" class="fil1" d="m -1571.3685,153.12394 146.87,0 169.3701,339.34251 169.3347,-339.34251 146.87004,0 0,611.36219 -140.98814,0 0,-346.25196 -115.6182,237.29527 c -39.7559,0 -79.4763,0 -119.2322,0 l -115.6181,-237.29527 0,346.25196 -140.9882,0 0,-611.36219 z" id="path3126"/>
      <polygon style="fill:#969695;fill-rule:evenodd" class="fil1" points="25057,22447 32459,22447 32459,19265 21078,19265 21078,36519 32792,36519 32792,33336 25057,33336 25057,29399 30994,29399 30994,26217 25057,26217 " id="polygon3128" transform="matrix(0.03543307,0,0,0.03543307,-1633.589,-530.13195)"/>
      <rect style="fill:#969695;fill-rule:evenodd" class="fil1" x="163.32828" y="151.03339" width="140.98819" height="611.36218" id="rect3130"/>
      <path style="fill:#969695;fill-rule:evenodd" inkscape:connector-curvature="0" class="fil1" d="m -412.60084,151.03339 267.98031,0 c 360.74408,0 360.74408,611.39762 0,611.39762 l -267.98031,0 0,-611.39762 z m 140.95275,114.20078 70.05118,0 c 244.55905,0 244.55905,382.96062 0,382.96062 l -70.05118,0 0,-382.96062 z" id="path3132"/>
      <path style="fill:#969695;fill-rule:evenodd" inkscape:connector-curvature="0" class="fil1" d="m 544.05662,640.61212 210.72046,0 38.58662,121.81889 159.51968,0 -225.56693,-611.39762 -155.7992,0 -225.56693,611.39762 159.51968,0 38.58662,-121.81889 z m 173.16141,-118.59449 -135.60236,0 67.8189,-214.01574 67.78346,214.01574 z" id="path3134"/>
    </g>
  </g>
</svg>