<?xml version="1.0" encoding="UTF-8" standalone="no"?>
<!-- Created with Inkscape (http://www.inkscape.org/) -->

<svg
   xmlns:dc="http://purl.org/dc/elements/1.1/"
   xmlns:cc="http://creativecommons.org/ns#"
   xmlns:rdf="http://www.w3.org/1999/02/22-rdf-syntax-ns#"
   xmlns:svg="http://www.w3.org/2000/svg"
   xmlns="http://www.w3.org/2000/svg"
   xmlns:sodipodi="http://sodipodi.sourceforge.net/DTD/sodipodi-0.dtd"
   xmlns:inkscape="http://www.inkscape.org/namespaces/inkscape"
   version="1.1"
   id="svg4677"
   xml:space="preserve"
   width="528.15674"
   height="81.859528"
   viewBox="0 0 528.15674 81.859526"
   sodipodi:docname="logo.svg"
   inkscape:version="0.92.2 5c3e80d, 2017-08-06"><metadata
     id="metadata4683"><rdf:RDF><cc:Work
         rdf:about=""><dc:format>image/svg+xml</dc:format><dc:type
           rdf:resource="http://purl.org/dc/dcmitype/StillImage" /><dc:title></dc:title></cc:Work></rdf:RDF></metadata><defs
     id="defs4681"><clipPath
       clipPathUnits="userSpaceOnUse"
       id="clipPath4701"><path
         d="M 0,841.89 H 595.28 V 0 H 0 Z"
         id="path4699"
         inkscape:connector-curvature="0" /></clipPath></defs><sodipodi:namedview
     pagecolor="#ffffff"
     bordercolor="#666666"
     borderopacity="1"
     objecttolerance="10"
     gridtolerance="10"
     guidetolerance="10"
     inkscape:pageopacity="0"
     inkscape:pageshadow="2"
     inkscape:window-width="1680"
     inkscape:window-height="1006"
     id="namedview4679"
     showgrid="false"
     fit-margin-top="0"
     fit-margin-left="0"
     fit-margin-right="0"
     fit-margin-bottom="0"
     inkscape:zoom="9.5144324"
     inkscape:cx="140.49001"
     inkscape:cy="7.9571507"
     inkscape:window-x="0"
     inkscape:window-y="0"
     inkscape:window-maximized="1"
     inkscape:current-layer="g4697" /><g
     id="g4685"
     inkscape:groupmode="layer"
     inkscape:label="Alibaba-Group-logo"
     transform="matrix(1.3333333,0,0,-1.3333333,-132.77487,602.18952)"><g
       id="g4687"
       transform="translate(208.667,422.6014)"><path
         d="M 0,0 H -9.111 L 4.949,27.154 H 15.036 L 28.452,0 H 18.331 L 16.287,4.895 H 2.191 Z m 13.839,10.806 -4.343,9.88 -4.601,-9.88 z"
         style="fill:#ff6600;fill-opacity:1;fill-rule:nonzero;stroke:none"
         id="path4689"
         inkscape:connector-curvature="0" /></g><path
       d="m 239.169,449.756 h 8.744 v -27.153 h -8.744 z"
       style="fill:#ff6600;fill-opacity:1;fill-rule:nonzero;stroke:none"
       id="path4691"
       inkscape:connector-curvature="0" /><path
       d="m 252.374,449.756 h 8.744 v -5.54 h -8.744 z m 0,-8.219 h 8.744 v -18.904 h -8.744 z"
       style="fill:#ff6600;fill-opacity:1;fill-rule:nonzero;stroke:none"
       id="path4693"
       inkscape:connector-curvature="0" /><g
       id="g4695"><g
         id="g4697"
         clip-path="url(#clipPath4701)"><g
           id="g4703"
           transform="translate(265.8913,449.7558)"><path
             d="m 0,0 h 8.742 v -10.939 c 1.042,1.071 2.205,1.874 3.493,2.41 1.287,0.533 2.697,0.803 4.228,0.803 2.979,0 5.373,-0.952 7.181,-2.856 1.807,-1.903 2.71,-4.426 2.71,-7.57 0,-2.861 -0.891,-5.152 -2.675,-6.878 -1.783,-1.724 -4.149,-2.586 -7.105,-2.586 -1.628,0 -3.106,0.296 -4.432,0.891 -1.322,0.595 -2.455,1.471 -3.4,2.623 0,-0.626 -0.022,-1.195 -0.073,-1.711 -0.048,-0.516 -0.129,-0.961 -0.24,-1.341 h -8.742 c 0.098,0.354 0.173,0.8 0.229,1.331 C -0.028,-25.289 0,-24.68 0,-23.992 V 0 m 17.517,-17.772 c 0,1.67 -0.393,2.985 -1.179,3.949 -0.783,0.965 -1.85,1.446 -3.197,1.446 -1.448,0 -2.555,-0.464 -3.321,-1.391 -0.765,-0.927 -1.151,-2.271 -1.151,-4.04 0,-1.67 0.388,-2.967 1.159,-3.894 0.774,-0.924 1.851,-1.387 3.238,-1.387 1.362,0 2.444,0.477 3.247,1.434 0.803,0.958 1.204,2.252 1.204,3.883"
             style="fill:#ff6600;fill-opacity:1;fill-rule:nonzero;stroke:none"
             id="path4705"
             inkscape:connector-curvature="0" /></g><g
           id="g4707"
           transform="translate(312.1904,425.6351)"><path
             d="m 0,0 c -0.831,-1.094 -1.914,-1.903 -3.238,-2.43 -1.326,-0.527 -2.93,-0.792 -4.819,-0.792 -2.691,0 -4.756,0.479 -6.203,1.435 -1.448,0.957 -2.171,2.312 -2.171,4.066 0,2.392 1.247,4.119 3.742,5.182 2.498,1.059 6.677,1.615 12.544,1.664 0,0.036 0.005,0.107 0.017,0.211 0.013,0.104 0.019,0.18 0.019,0.229 0,0.967 -0.292,1.69 -0.873,2.168 -0.584,0.476 -1.456,0.716 -2.623,0.716 -1.052,0 -1.863,-0.175 -2.427,-0.524 -0.562,-0.348 -0.899,-0.873 -1.009,-1.57 h -8.07 c 0.039,2.098 1.031,3.66 2.984,4.683 1.952,1.025 4.926,1.537 8.927,1.537 3.842,0 6.704,-0.597 8.582,-1.793 1.873,-1.194 2.815,-3.016 2.815,-5.457 v -9.64 c 0,-0.597 0.029,-1.081 0.084,-1.448 0.055,-0.368 0.148,-0.708 0.284,-1.027 H 0.464 C 0.301,-2.339 0.187,-1.883 0.112,-1.426 0.039,-0.967 0,-0.491 0,0 M -0.183,5.4 C -3.012,5.4 -4.939,5.215 -5.964,4.848 -6.991,4.48 -7.505,3.837 -7.505,2.918 c 0,-0.624 0.25,-1.111 0.747,-1.459 0.499,-0.349 1.202,-0.524 2.114,-0.524 1.487,0 2.602,0.347 3.344,1.038 0.745,0.692 1.117,1.736 1.117,3.131 z"
             style="fill:#ff6600;fill-opacity:1;fill-rule:nonzero;stroke:none"
             id="path4709"
             inkscape:connector-curvature="0" /></g><g
           id="g4711"
           transform="translate(324.366,449.7558)"><path
             d="m 0,0 h 8.745 v -10.939 c 1.039,1.071 2.205,1.874 3.492,2.41 1.286,0.533 2.698,0.803 4.228,0.803 2.977,0 5.371,-0.952 7.18,-2.856 1.806,-1.903 2.71,-4.426 2.71,-7.57 0,-2.861 -0.892,-5.152 -2.676,-6.878 -1.782,-1.724 -4.149,-2.586 -7.105,-2.586 -1.63,0 -3.106,0.296 -4.429,0.891 -1.323,0.595 -2.457,1.471 -3.4,2.623 0,-0.626 -0.025,-1.195 -0.075,-1.711 -0.048,-0.516 -0.128,-0.961 -0.24,-1.341 h -8.742 c 0.096,0.354 0.175,0.8 0.229,1.331 C -0.025,-25.289 0,-24.68 0,-23.992 V 0 m 17.518,-17.772 c 0,1.67 -0.393,2.985 -1.177,3.949 -0.785,0.965 -1.852,1.446 -3.201,1.446 -1.446,0 -2.553,-0.464 -3.319,-1.391 -0.766,-0.927 -1.151,-2.271 -1.151,-4.04 0,-1.67 0.386,-2.967 1.158,-3.894 0.776,-0.924 1.853,-1.387 3.24,-1.387 1.361,0 2.44,0.477 3.245,1.434 0.804,0.958 1.205,2.252 1.205,3.883"
             style="fill:#ff6600;fill-opacity:1;fill-rule:nonzero;stroke:none"
             id="path4713"
             inkscape:connector-curvature="0" /></g><g
           id="g4715"
           transform="translate(370.6665,425.6351)"><path
             d="m 0,0 c -0.834,-1.094 -1.911,-1.903 -3.237,-2.43 -1.327,-0.527 -2.931,-0.792 -4.821,-0.792 -2.686,0 -4.758,0.479 -6.203,1.435 -1.446,0.957 -2.17,2.312 -2.17,4.066 0,2.392 1.247,4.119 3.742,5.182 2.499,1.059 6.679,1.615 12.544,1.664 0,0.036 0.008,0.107 0.02,0.211 0.01,0.104 0.014,0.18 0.014,0.229 0,0.967 -0.29,1.69 -0.871,2.168 -0.581,0.476 -1.457,0.716 -2.62,0.716 -1.055,0 -1.865,-0.175 -2.428,-0.524 -0.563,-0.348 -0.899,-0.873 -1.011,-1.57 h -8.067 c 0.037,2.098 1.029,3.66 2.981,4.683 1.951,1.025 4.93,1.537 8.929,1.537 3.842,0 6.7,-0.597 8.581,-1.793 1.878,-1.194 2.815,-3.016 2.815,-5.457 v -9.64 c 0,-0.597 0.027,-1.081 0.083,-1.448 0.055,-0.368 0.152,-0.708 0.285,-1.027 H 0.464 C 0.303,-2.339 0.185,-1.883 0.111,-1.426 0.04,-0.967 0,-0.491 0,0 M -0.183,5.4 C -3.01,5.4 -4.937,5.215 -5.966,4.848 -6.991,4.48 -7.505,3.837 -7.505,2.918 c 0,-0.624 0.251,-1.111 0.748,-1.459 0.501,-0.349 1.201,-0.524 2.113,-0.524 1.486,0 2.602,0.347 3.348,1.038 0.741,0.692 1.113,1.736 1.113,3.131 z"
             style="fill:#ff6600;fill-opacity:1;fill-rule:nonzero;stroke:none"
             id="path4717"
             inkscape:connector-curvature="0" /></g><g
           id="g4719"
           transform="translate(405.4789,432.8857)"><path
             d="M 0,0 V 3.17 H 11.423 V -6.818 C 9.667,-8.213 7.861,-9.263 5.996,-9.968 4.135,-10.67 2.219,-11.022 0.257,-11.022 c -2.648,0 -5.054,0.566 -7.218,1.702 -2.164,1.134 -3.795,2.774 -4.902,4.92 -1.105,2.15 -1.654,4.545 -1.654,7.195 0,2.623 0.548,5.074 1.648,7.351 1.093,2.276 2.673,3.965 4.735,5.069 2.058,1.104 4.432,1.655 7.114,1.655 1.95,0 3.714,-0.316 5.287,-0.948 1.576,-0.634 2.814,-1.514 3.709,-2.645 0.895,-1.13 1.574,-2.602 2.038,-4.42 L 7.784,7.976 C 7.379,9.349 6.877,10.432 6.278,11.219 5.679,12.009 4.824,12.64 3.705,13.113 2.591,13.588 1.36,13.823 0,13.823 c -1.63,0 -3.034,-0.248 -4.223,-0.746 C -5.412,12.578 -6.367,11.922 -7.095,11.11 -7.825,10.3 -8.39,9.408 -8.795,8.437 -9.48,6.765 -9.821,4.949 -9.821,2.996 c 0,-2.413 0.41,-4.428 1.239,-6.052 0.825,-1.623 2.025,-2.828 3.609,-3.615 1.573,-0.787 3.254,-1.181 5.025,-1.181 1.543,0 3.048,0.298 4.519,0.897 1.465,0.596 2.582,1.235 3.342,1.912 L 7.913,0 H 0"
             style="fill:#ff6600;fill-opacity:1;fill-rule:nonzero;stroke:none"
             id="path4721"
             inkscape:connector-curvature="0" /></g><g
           id="g4723"
           transform="translate(422.1429,422.2315)"><path
             d="m 0,0 v 19.55 h 2.988 v -2.968 c 0.765,1.384 1.469,2.295 2.117,2.737 0.645,0.44 1.358,0.66 2.134,0.66 1.119,0 2.258,-0.351 3.415,-1.055 L 9.497,15.853 c -0.811,0.473 -1.621,0.709 -2.43,0.709 -0.724,0 -1.373,-0.216 -1.954,-0.651 C 4.539,15.474 4.128,14.868 3.881,14.097 3.512,12.918 3.326,11.631 3.326,10.232 V 0 H 0"
             style="fill:#ff6600;fill-opacity:1;fill-rule:nonzero;stroke:none"
             id="path4725"
             inkscape:connector-curvature="0" /></g><g
           id="g4727"
           transform="translate(433.4608,432.0049)"><path
             d="m 0,0 c 0,3.617 1.008,6.296 3.022,8.038 1.679,1.446 3.729,2.168 6.147,2.168 2.69,0 4.887,-0.878 6.594,-2.637 1.703,-1.759 2.557,-4.191 2.557,-7.293 0,-2.514 -0.378,-4.491 -1.132,-5.93 -0.755,-1.441 -1.853,-2.559 -3.296,-3.357 -1.44,-0.794 -3.018,-1.195 -4.723,-1.195 -2.738,0 -4.949,0.878 -6.636,2.631 C 0.842,-5.822 0,-3.298 0,0 m 3.418,-0.005 c 0,-2.504 0.547,-4.376 1.635,-5.622 1.091,-1.247 2.462,-1.87 4.116,-1.87 1.642,0 3.009,0.628 4.096,1.878 1.091,1.251 1.635,3.161 1.635,5.723 0,2.418 -0.545,4.249 -1.643,5.495 -1.095,1.244 -2.458,1.87 -4.088,1.87 C 7.515,7.469 6.144,6.847 5.053,5.608 3.965,4.369 3.418,2.498 3.418,-0.005"
             style="fill:#ff6600;fill-opacity:1;fill-rule:nonzero;stroke:none"
             id="path4729"
             inkscape:connector-curvature="0" /></g><g
           id="g4731"
           transform="translate(468.9684,422.6609)"><path
             d="m 0,0 v 2.892 c -1.523,-2.214 -3.586,-3.324 -6.196,-3.324 -1.157,0 -2.229,0.221 -3.228,0.664 -1,0.44 -1.742,0.995 -2.225,1.665 -0.485,0.669 -0.824,1.487 -1.021,2.455 -0.135,0.649 -0.202,1.68 -0.202,3.091 V 19.55 h 3.327 V 8.72 c 0,-1.729 0.066,-2.893 0.201,-3.493 0.207,-0.871 0.65,-1.554 1.322,-2.051 0.673,-0.495 1.509,-0.746 2.499,-0.746 0.994,0 1.923,0.256 2.796,0.767 0.868,0.505 1.483,1.199 1.843,2.075 0.361,0.876 0.545,2.147 0.545,3.819 V 19.55 H 2.983 V 0 H 0"
             style="fill:#ff6600;fill-opacity:1;fill-rule:nonzero;stroke:none"
             id="path4733"
             inkscape:connector-curvature="0" /></g><g
           id="g4735"
           transform="translate(478.7327,414.7494)"><path
             d="M 0,0 V 27.032 H 3.014 V 24.49 c 0.711,0.992 1.518,1.735 2.414,2.23 0.895,0.496 1.982,0.741 3.254,0.741 1.668,0 3.143,-0.425 4.418,-1.284 1.276,-0.859 2.238,-2.07 2.887,-3.633 0.652,-1.563 0.979,-3.277 0.979,-5.139 0,-1.998 -0.361,-3.798 -1.079,-5.398 C 15.171,10.407 14.127,9.18 12.764,8.329 11.397,7.477 9.959,7.05 8.456,7.05 7.351,7.05 6.362,7.282 5.483,7.745 4.608,8.209 3.886,8.796 3.326,9.504 V 0 H 0 m 2.986,17.144 c 0,-2.517 0.507,-4.376 1.526,-5.579 1.016,-1.205 2.242,-1.806 3.69,-1.806 1.467,0 2.725,0.623 3.773,1.871 1.05,1.244 1.57,3.174 1.57,5.79 0,2.491 -0.509,4.357 -1.534,5.597 -1.02,1.238 -2.242,1.861 -3.662,1.861 -1.41,0 -2.655,-0.662 -3.738,-1.98 C 3.529,21.577 2.986,19.66 2.986,17.144"
             style="fill:#ff6600;fill-opacity:1;fill-rule:nonzero;stroke:none"
             id="path4737"
             inkscape:connector-curvature="0" /></g><g
           id="g4739"
           transform="translate(112.6077,398.8102)"><path
             d="m 0,0 c -0.485,0.056 -1.243,0.487 -1.781,0.919 -5.12,5.015 1.454,10.782 9.059,14.124 v 9.541 c 1.778,-1.133 2.75,-1.185 2.802,-1.347 l 5.822,5.767 -1.941,4.962 c 17.037,5.876 23.882,8.141 37.738,10.457 l -2.484,2.321 4.047,2.315 c 9.325,-3.075 18.116,-3.881 16.603,-11.698 0.379,5.283 -6.199,7.333 -16.226,10.135 l -1.94,-1.184 3.718,-3.074 C 38.815,40.381 28.625,37.145 16.495,32.941 l 1.67,-4.314 -6.09,-5.983 c 1.026,-0.27 11.645,-3.827 22.694,3.881 0,0 0.218,0.163 0.218,0.216 -0.321,0.539 -1.079,1.134 -1.994,1.94 3.235,-0.216 5.334,-3.072 4.958,-6.037 h -1.509 c 0.107,0.971 -0.109,1.995 -0.43,2.695 C 27.44,19.085 17.52,18.168 9.056,21.134 V 13.749 C 4.959,12.293 -2.375,7.768 -2.319,3.397 -2.05,1.296 -0.971,0.542 0,0"
             style="fill:#000000;fill-opacity:1;fill-rule:nonzero;stroke:none"
             id="path4741"
             inkscape:connector-curvature="0" /></g><g
           id="g4743"
           transform="translate(147.6202,401.2868)"><path
             d="m 0,0 c -9.171,-4.636 -17.954,-8.356 -31.486,-8.895 -17.628,0.379 -20.377,12.079 -12.022,24.314 7.871,12.345 20.379,23.507 40.272,30.462 5.766,2.043 14.231,4.364 22.425,4.472 C 30.942,50.462 42.373,46.795 41.616,35.527 41.184,26.901 28.734,14.719 22.154,5.984 19.35,2.159 18.864,-0.323 23.661,-0.108 41.078,1.027 56.872,7.062 71.535,13.317 61.618,6.578 10.346,-18.812 10.134,-1.51 c 0.052,2.213 1.075,4.53 2.746,7.009 1.62,2.481 3.883,5.069 6.201,7.71 3.504,3.989 12.183,13.531 15.094,19.247 4.905,10.835 -6.091,11.375 -15.58,14.716 l -4.046,-2.315 2.484,-2.321 C 3.177,40.219 -3.668,37.955 -20.705,32.078 l 1.941,-4.961 -5.822,-5.767 c -0.161,0.161 -1.024,0.213 -2.803,1.347 v -9.541 c -7.604,-3.343 -14.179,-9.11 -9.059,-14.124 0.539,-0.432 1.297,-0.863 1.782,-0.919 C -25.341,-7.17 0.049,0 0,0"
             style="fill:#ff6600;fill-opacity:1;fill-rule:nonzero;stroke:none"
             id="path4745"
             inkscape:connector-curvature="0" /></g><g
           id="g4747"
           transform="translate(202.4596,395.08025)"><path
             d="M 0,0 H 1.207 C 1.464,0 1.659,0.028 1.803,0.072 1.955,0.127 2.063,0.22 2.135,0.328 2.207,0.451 2.25,0.569 2.25,0.706 2.25,0.907 2.173,1.074 2.031,1.202 1.885,1.328 1.659,1.392 1.347,1.392 H 0 Z M -0.567,-2.402 V 1.87 H 1.322 C 1.698,1.87 1.991,1.831 2.183,1.762 2.382,1.678 2.534,1.55 2.651,1.347 2.775,1.156 2.831,0.943 2.831,0.706 2.831,0.404 2.731,0.145 2.542,-0.063 2.343,-0.264 2.045,-0.396 1.636,-0.459 1.787,-0.527 1.899,-0.596 1.977,-0.67 2.135,-0.827 2.297,-1.01 2.438,-1.238 L 3.181,-2.402 H 2.473 l -0.556,0.88 C 1.751,-1.255 1.607,-1.066 1.508,-0.924 1.399,-0.79 1.306,-0.694 1.219,-0.638 1.132,-0.586 1.054,-0.542 0.966,-0.521 0.9,-0.515 0.799,-0.505 0.651,-0.505 H 0 v -1.897 z"
             style="fill:#ff6600;fill-opacity:1;fill-rule:nonzero;stroke:none"
             id="path4749"
             inkscape:connector-curvature="0" /></g><g
           id="g4751"
           transform="translate(203.6136,390.7014)"><path
             d="M 0,0 C 2.243,0 4.064,1.825 4.064,4.058 4.064,6.302 2.243,8.124 0,8.124 -2.237,8.124 -4.057,6.302 -4.057,4.058 -4.057,1.825 -2.237,0 0,0 m -3.428,4.058 c 0,1.893 1.535,3.429 3.428,3.429 1.891,0 3.429,-1.536 3.429,-3.429 C 3.429,2.175 1.891,0.636 0,0.636 c -1.893,0 -3.428,1.539 -3.428,3.422"
             style="fill:#ff6600;fill-opacity:1;fill-rule:nonzero;stroke:none"
             id="path4753"
             inkscape:connector-curvature="0" /></g><g
           id="g4755"
           transform="translate(239.1693,413.9156)"><path
             d="m 0,0 v -23.015 c 1.599,0 3.385,1.449 3.385,3.049 v 1.206 h 1.917 c 1.283,0.067 2.76,1.865 2.76,2.763 v 5.121 c 0,0.963 -1.088,1.66 -1.603,2.045 0.515,0.451 1.603,1.217 1.603,2.181 V 0 Z M 4.737,-7.614 C 4.737,-7.996 4.419,-8.64 4.032,-9.023 3.972,-9.091 3.778,-9.281 3.778,-9.281 3.748,-9.307 3.714,-9.344 3.648,-9.344 h 1.089 v -6.653 H 3.393 v 13.183 h 1.344 z m 12.796,-7.293 V -4.603 H 9.407 v -14.084 h 4.031 c 0.642,0.064 1.413,0.323 2.046,0.769 0.39,0.257 0.71,0.51 1.029,0.833 0.576,0.64 1.02,1.406 1.02,2.178 m -4.924,7.613 h 1.726 v -8.765 H 12.609 Z M 8.573,0 v -2.814 h 9.746 v -20.201 c 1.089,0 3.443,1.051 3.443,3.239 v 16.962 c 0.702,0 1.281,2.048 1.281,2.814 z"
             style="fill:#ff6600;fill-opacity:1;fill-rule:nonzero;stroke:none"
             id="path4757"
             inkscape:connector-curvature="0" /></g><g
           id="g4759"
           transform="translate(276.8953,393.5538)"><path
             d="m 0,0 v 2.151 h 6.834 c 0.988,0 1.88,1.686 2.407,2.598 H 0 v 1.822 h 5.139 c 1.46,0 3.836,2.021 3.904,3.061 v 10.73 H -12.946 V 6.571 h 8.845 V 4.749 h -8.845 V 2.151 h 8.845 V 0 h -9.103 V -2.665 H 7.417 c 0.848,0 1.626,1.687 2.278,2.665 z m 0,12.166 h 1.757 c 0.258,0 0.521,0.067 0.778,0.264 0.326,0.194 1.888,2.146 2.084,2.345 H 0 v 2.989 H 5.009 V 9.173 H 0 Z m -8.979,0 h 4.877 V 9.174 h -4.877 z m 0,5.598 h 4.877 v -2.989 h -4.877 z"
             style="fill:#ff6600;fill-opacity:1;fill-rule:nonzero;stroke:none"
             id="path4761"
             inkscape:connector-curvature="0" /></g><g
           id="g4763"
           transform="translate(292.3643,393.8726)"><path
             d="m 0,0 v 6.485 h 14.057 c 1.269,0 3.553,2.103 3.613,3.156 V 20.043 H -4.151 V 0.232 c 0,-1.583 0.953,-3.226 2.733,-3.226 h 16.657 c 1.256,0 2.765,2.004 3.025,2.994 z m 8.92,17.084 h 4.637 V 9.447 H 8.92 Z m -8.889,0 H 4.904 V 9.447 H 0.031 Z"
             style="fill:#ff6600;fill-opacity:1;fill-rule:nonzero;stroke:none"
             id="path4765"
             inkscape:connector-curvature="0" /></g><g
           id="g4767"
           transform="translate(318.7608,393.8726)"><path
             d="m 0,0 v 6.485 h 14.06 c 1.274,0 3.554,2.103 3.622,3.156 V 20.043 H -4.139 V 0.232 c 0,-1.583 0.953,-3.226 2.731,-3.226 h 16.652 c 1.257,0 2.766,2.004 3.032,2.994 z m 8.928,17.084 h 4.639 V 9.447 H 8.928 Z m -8.887,0 H 4.906 V 9.447 H 0.041 Z"
             style="fill:#ff6600;fill-opacity:1;fill-rule:nonzero;stroke:none"
             id="path4769"
             inkscape:connector-curvature="0" /></g><g
           id="g4771"
           transform="translate(350.9519,398.1035)"><path
             d="M 0,0 V 0.722 H 1.635 V 0.101 h 9.912 c 0,0 -0.242,-1.335 -2.406,-1.335 h -7.4 V -4.815 C 1.741,-7.531 0,-7.856 0,-7.856 v 6.52 H -11.807 V 0 H 0"
             style="fill:#ff6600;fill-opacity:1;fill-rule:nonzero;stroke:none"
             id="path4773"
             inkscape:connector-curvature="0" /></g><g
           id="g4775"
           transform="translate(342.9189,395.0523)"><path
             d="m 0,0 h 1.764 c 0,0 -1.837,-2.366 -2.391,-2.988 -0.552,-0.614 -1.288,-1.599 -2.354,-1.599 -0.597,0 -0.793,-0.014 -0.793,-0.014 L 0,0"
             style="fill:#ff6600;fill-opacity:1;fill-rule:nonzero;stroke:none"
             id="path4777"
             inkscape:connector-curvature="0" /></g><g
           id="g4779"
           transform="translate(359.7723,395.0523)"><path
             d="m 0,0 h -1.764 c 0,0 1.839,-2.366 2.389,-2.988 0.553,-0.614 1.29,-1.599 2.355,-1.599 0.594,0 0.792,-0.014 0.792,-0.014 L 0,0"
             style="fill:#ff6600;fill-opacity:1;fill-rule:nonzero;stroke:none"
             id="path4781"
             inkscape:connector-curvature="0" /></g><g
           id="g4783"
           transform="translate(359.9891,411.6483)"><path
             d="m 0,0 c 2.109,0 2.51,1.339 2.51,1.339 h -9.887 l 0.719,0.928 H -8.282 L -9.111,1.235 h -6.647 l 0.819,1.032 h -1.695 l -4.211,-5.476 h 1.802 v -7.486 c 0,0 0.184,-0.024 0.426,0 2.615,0 2.835,0.343 2.835,0.343 H 0 c 2.098,0 2.302,1.253 2.302,1.253 H -7.517 V -6.91 H 0 c 2.069,0 2.405,1.327 2.405,1.327 h -9.922 v 2.157 H 0 c 2.069,0 2.405,1.352 2.405,1.352 H -7.517 V 0 Z m -17.517,-7.011 h 8.374 v -2.086 h -8.374 z m 0,3.378 h 8.374 v -2.055 h -8.374 z m 8.376,1.459 h -8.376 l -0.008,0.744 0.428,0.607 0.562,0.72 h 7.394 z"
             style="fill:#ff6600;fill-opacity:1;fill-rule:nonzero;stroke:none"
             id="path4785"
             inkscape:connector-curvature="0" /></g><g
           id="g4787"
           transform="translate(367.4394,413.9156)"><path
             d="m 0,0 v -23.251 h 19.563 c 1.472,0 2.032,1.397 1.96,2.843 V 0 Z m 19.94,-20.239 c 0,-0.842 -0.185,-1.501 -1.291,-1.501 H 1.46 v 20.39 h 18.48 z"
             style="fill:#ff6600;fill-opacity:1;fill-rule:nonzero;stroke:none"
             id="path4789"
             inkscape:connector-curvature="0" /></g><g
           id="g4791"
           transform="translate(376.1575,404.484)"><path
             d="m 0,0 -4.945,-8.917 c 0,0 1.659,-0.312 2.415,1.26 L 1.674,-0.021 0,0"
             style="fill:#ff6600;fill-opacity:1;fill-rule:nonzero;stroke:none"
             id="path4793"
             inkscape:connector-curvature="0" /></g><g
           id="g4795"
           transform="translate(382.3366,397.2286)"><path
             d="M 0,0 C 0,-0.484 -0.173,-0.724 -0.519,-0.724 H -2.17 v -1.31 h 2.099 c 1.295,0 1.722,0.472 1.654,1.918 0,0 -0.013,8.689 0,8.689 1.629,0 1.73,1.363 1.73,1.363 L 1.583,9.919 v 2.995 H 0 V 9.919 H -11.124 V 8.473 H 0 V 0"
             style="fill:#ff6600;fill-opacity:1;fill-rule:nonzero;stroke:none"
             id="path4797"
             inkscape:connector-curvature="0" /></g></g></g></g></svg>