<?xml version="1.0" encoding="utf-8"?>
<!DOCTYPE svg PUBLIC "-//W3C//DTD SVG 1.1//EN" "http://www.w3.org/Graphics/SVG/1.1/DTD/svg11.dtd">
<svg version="1.1" id="Layer_1" xmlns="http://www.w3.org/2000/svg" xmlns:xlink="http://www.w3.org/1999/xlink" x="0px" y="0px"
width="360px" height="150px" viewBox="0 0 360 150" enable-background="new 0 0 360 150" xml:space="preserve">
<g>
  <path d="m32.466,13.98909c0,5.04128 -4.5525,9.12876 -10.16875,9.12876c-5.615,0 -10.16875,-4.08749 -10.16875,-9.12876c0,-5.04124 4.55375,-9.12874 10.16875,-9.12874c5.61625,0 10.16875,4.08751 10.16875,9.12874" fill="#ff4200"/>
  <path d="m7.49825,36.86934l6.24,-9.70625c0,0 8.78125,6.81627 11.44,9.12876c2.6575,2.31123 7.39625,6.23999 7.28,12.59499c-0.11625,6.355 -1.965,11.9025 -3.4675,15.71625c-1.50125,3.8125 -11.32375,23.91876 -11.32375,23.91876l-15.0225,-9.35999c0,0 14.4475,-13.36375 19.99125,-21.4925c1.73375,-2.54251 3.8125,-9.24377 -2.08,-12.71126c-5.89375,-3.46626 -13.0575,-8.08876 -13.0575,-8.08876" fill="#ff4200"/>
  <path d="m26.79575,31.0911c0,0 8.20375,-5.31502 16.29375,-27.50252c2.31,0.80875 13.98125,3.92878 13.98125,3.92878l-3.81376,7.04872c0,0 17.45,-5.315 32.47127,-5.315c0,0 8.20499,-0.34626 14.56123,1.73374c6.35502,2.08002 12.8275,6.35628 14.445,13.28876c1.6175,6.93249 3.35,30.04501 0.11501,50.95875c0,0 -0.69376,4.855 -5.2,9.13c-4.50625,4.275 -9.9375,6.355 -19.52872,6.355c-9.59127,0 -14.67625,-1.84875 -14.67625,-1.84875l1.965,-8.08997c0,0 5.89375,2.19624 10.51498,2.19624c4.62251,0 8.55125,-1.96375 10.63126,-4.38998c0,0 1.85,-2.77378 1.96502,-5.08503c0.115,-2.31121 0.23125,-46.6837 -0.23127,-48.18626c-0.46249,-1.50249 -1.04,-7.16497 -8.20499,-8.55124c-7.16376,-1.38626 -12.82624,-0.46251 -14.55999,-0.11501c-1.73251,0.34628 -12.595,3.00379 -18.02625,5.1988c2.08,0.69372 6.125,1.73372 6.125,1.73372c0,0 -1.84875,3.81372 -5.2,7.51125c4.6225,-0.11501 35.35875,0 35.35875,0l0,6.93375l-19.75875,0l0,9.24374l19.52876,0l0,6.93377l-19.52876,0l0,14.67499c0,0 3.235,0 7.9725,-3.69749c-0.34624,-2.5425 -0.23125,-2.89 -1.38625,-6.58753c3.005,-0.6925 9.01376,-2.77248 9.01376,-2.77248l7.51125,18.60498l-11.21001,4.38998l-2.07998,-7.51125c0,0 -3.35001,3.81376 -11.555,6.24126c-11.42375,3.37877 -18.71875,3.235 -20.68375,3.12003c0,0 -5.54623,0.22878 -8.8975,-1.27253c-3.3525,-1.50124 -8.205,-4.9675 -8.205,-14.90623c0,-3.35001 0.80875,-6.12375 0.80875,-6.12375l14.0975,0.11501c0,0 -0.6925,4.97002 -0.6925,6.23999c0,1.27127 -1.04125,6.7025 9.1275,6.58627c0,-7.27876 -0.11501,-17.2175 -0.11501,-17.2175l-20.10625,-0.11501l0,-6.93375l19.99125,0l0,-8.7825l-5.085,0c0,0 -5.54625,5.20126 -8.66626,8.32125l-5.7775,-5.08501c0,0 6.6675,-6.93249 11.20876,-16.98624c-2.65751,1.04 -7.28,3.12 -7.28,3.12c0,0 -3.23625,4.15998 -7.27999,8.43502c-2.88876,-1.61751 -9.93875,-4.96876 -9.93875,-4.96876" fill="#ff4200"/>
  <path d="m148.59088,25.08284l-0.11501,6.58752l64.82625,0c0,0 7.0475,-4.27628 7.0475,-8.43628c0,-4.16 -5.43001,-5.315 -9.12875,-5.54623c-3.69751,-0.23125 -14.09749,-0.34624 -22.64876,0.69374c-8.54999,1.04 -28.19499,3.34999 -39.98123,6.70124m-16.06252,15.94627l0,-28.31001l15.83127,0l0,3.5825c0,0 22.64874,-3.12 25.07501,-3.12l0,-8.08996l17.91121,0l0,6.12497c0,0 11.44,-1.04002 18.95126,-1.04002c7.51123,0 16.29126,1.27003 19.64374,2.42624c3.35249,1.15627 7.39624,4.04501 7.39624,10.05379c0,6.00872 -4.50751,12.24873 -13.51997,18.25748c-2.7737,-2.77374 -4.85248,-4.73751 -4.85248,-4.73751l0.11502,2.65751l-27.50128,0l0,9.36001l31.54498,0l0,7.395l-31.54498,0l0,22.07125l42.87004,0l0,9.12875l-102.03502,0l0,-9.12875l40.67502,0l0,-21.84002l-28.08,0l0,-7.62623l28.19505,0l0,-9.245l-24.61253,0l0,2.08l-16.0625,0l0,0l-0.00003,0l-0.00002,0l-0.00003,0l0,0z" fill="#ff4200"/>
  <path d="m221.74387,66.79846c0,4.97751 -4.50125,9.0125 -10.05249,9.0125c-5.55124,0 -10.05251,-4.035 -10.05251,-9.0125c0,-4.97747 4.50125,-9.01249 10.05251,-9.01249c5.55124,0 10.05249,4.03502 10.05249,9.01249" fill="#ff4200"/>
  <path d="m281.2471,44.84421c-4.16,-6.23999 -10.05374,-10.16874 -10.05374,-10.16874c0,0 3.12,-3.46748 4.73874,-6.12501c3.35251,2.31125 6.93253,4.85376 10.74625,7.62625c3.35001,-5.66122 7.74124,-15.59874 7.74124,-15.59874c0,0 10.86377,5.43125 12.94376,6.47125c-1.03998,3.35125 -1.96625,4.50624 -1.96625,4.50624c0,0 6.81747,4.50626 10.97876,7.16505c4.73755,-9.01375 6.81754,-19.52877 6.81754,-19.52877l14.21378,8.66625c0,0 0,-5.31624 -0.2312,-7.51125c-0.23004,-7.74246 -8.66626,-8.66621 -13.1738,-8.5512c-4.50647,0.11501 -14.44522,1.96371 -25.65256,4.39125c-11.20877,2.42622 -28.88998,10.28378 -28.88998,10.28378l0,29.46749c6.23996,-3.81372 8.66745,-6.81875 11.78751,-11.09375m-11.67126,14.21377l0,27.6175l-17.79498,0l0,-76.96003l17.67877,0l0,6.7025c0,0 17.21875,-6.58625 28.89001,-9.01371c11.67126,-2.42626 18.3725,-2.42626 21.14627,-2.42626c2.77249,0 14.21375,1.27125 20.68375,3.69747c6.47125,2.42624 11.09375,7.28003 12.9425,12.47999c1.84872,5.19999 1.96375,19.4125 1.96375,26.00002c0,6.58627 -0.4614,26.80746 -1.15497,30.73624c-0.69278,3.93002 -2.31274,8.43624 -5.77902,10.97874c-3.46475,2.54251 -8.43509,1.96378 -12.94135,1.04c-4.50748,-0.92503 -9.82251,-2.88873 -14.3287,-5.31499l0,-7.62753c0,0 4.38995,3.12 8.78122,3.12c4.39252,0 7.85999,-2.65749 7.85999,-8.55125c0,-5.89249 0.57498,-31.19875 0.11377,-41.59876c-2.88751,4.62124 -8.89752,12.82497 -11.55499,15.82998c3.58124,2.54248 7.85873,6.47249 10.39996,9.47624c-3.35126,3.00379 -12.36374,10.40001 -12.36374,10.40001c0,0 -5.31625,-8.09 -6.58752,-9.59127c-1.38626,1.61753 -9.9375,11.09251 -23.34125,18.94999c-2.31125,-3.34998 -5.54752,-7.50999 -5.54752,-7.50999c0,0 10.05374,-3.46626 22.30252,-19.76c-2.65753,-2.77374 -6.58627,-7.85875 -10.05249,-10.16874c-1.38754,1.96499 -5.43253,6.24001 -5.43253,6.24001c0,0 3.69876,2.7725 6.35623,7.62623c-2.31125,2.31127 -9.47501,9.70753 -9.47501,9.70753l-5.77878,-8.89753c0,0 -6.35498,6.70126 -12.24872,10.97628c-2.88751,-2.77254 -4.73752,-4.15876 -4.73752,-4.15876" fill="#ff4200"/>
  <path d="m10.27537,112.9216c0,0 1.72125,-6.28 8.46,-6.02748c6.7375,0.25247 11.70125,0.60748 15.6025,0.60748c3.9,0 12.765,-0.86 13.7275,-1.21624c-0.45625,1.87375 -2.5825,5.47123 -5.72375,5.47123l-7.14373,0c0,0 -1.67125,-0.05 -1.67125,2.02628l0,24.77124c0,0 0.45625,3.395 3.74875,2.58377c-1.06375,2.88748 -3.8,4.55998 -6.99125,4.55998c-3.19,0 -6.33125,-2.0275 -6.33125,-4.81374l0,-27.50626c0,-1.41876 -0.2025,-1.77376 -2.73625,-1.87502c-1.51876,-0.06122 -4.4475,-0.20372 -6.99,0.10126c-1.64125,0.19624 -2.9375,0.80124 -3.95125,1.3175" fill="#ff4200"/>
  <path d="m58.14775,127.7641c-3.19,0 -5.775,3.04001 -5.775,6.78874c0,3.74876 2.585,6.78754 5.775,6.78754c3.19001,0 5.77501,-3.03877 5.77501,-6.78754c0,-3.74873 -2.585,-6.78874 -5.77501,-6.78874m-12.05624,-8.3075c0.3,-1.04626 0.86123,-2.83624 3.09,-4.10376c2.47,-1.40497 6.12875,-1.46873 7.44624,-1.46873c1.3175,0 5.47251,0.25497 6.73751,0.60875c1.26624,0.35374 8.50999,1.46999 8.50999,9.42248l0,14.99377c0,0 0.30499,3.14125 3.49624,2.1275c-0.45624,3.09001 -3.49624,4.66125 -5.67374,4.66125c-2.17874,0 -5.72374,-1.31874 -5.72374,-4.0025c0,0 -1.42,4.50751 -9.01752,4.4575c-7.59873,-0.05 -11.7025,-4.61 -11.7025,-11.39749c0,-6.78876 4.91375,-11.49878 12.15875,-11.49878c2.43125,0 6.7375,0.96251 8.56125,3.85001c0.01627,-3.545 -0.63875,-8.37 -6.08875,-8.87625c-2.79874,-0.17876 -8.3975,-0.05875 -11.79374,1.22623" fill="#ff4200"/>
  <path d="m168.14774,127.7641c-3.19,0 -5.77498,3.04001 -5.77498,6.78874c0,3.74876 2.58498,6.78754 5.77498,6.78754c3.19,0 5.77499,-3.03877 5.77499,-6.78754c0,-3.74873 -2.58498,-6.78874 -5.77499,-6.78874m-12.05626,-8.3075c0.3,-1.04626 0.86128,-2.83624 3.09,-4.10376c2.47003,-1.40497 6.12875,-1.46873 7.44627,-1.46873c1.31749,0 5.47252,0.25497 6.73749,0.60875c1.26625,0.35374 8.50999,1.46999 8.50999,9.42248l0,14.99377c0,0 0.30501,3.14125 3.49503,2.1275c-0.455,3.09001 -3.49503,4.66125 -5.67247,4.66125c-2.17877,0 -5.72377,-1.31874 -5.72377,-4.0025c0,0 -1.42,4.50751 -9.0175,4.4575c-7.59871,-0.05 -11.7025,-4.61 -11.7025,-11.39749c0,-6.78876 4.91374,-11.49878 12.15875,-11.49878c2.43126,0 6.73749,0.96251 8.56125,3.85001c0.01628,-3.545 -0.63875,-8.37 -6.08873,-8.87625c-2.79877,-0.17876 -8.39749,-0.05875 -11.79378,1.22623" fill="#ff4200"/>
  <path d="m94.41962,118.69673c-3.44125,0 -6.23,5.1025 -6.23,11.39748c0,6.29501 2.78875,11.39754 6.23,11.39754c3.44125,0 6.23,-5.10251 6.23,-11.39754c0,-6.29498 -2.78875,-11.39748 -6.23,-11.39748m15.80499,11.39748c0,9.03751 -7.07624,16.36253 -15.80499,16.36253c-8.72874,0 -15.80499,-7.32503 -15.80499,-16.36253c0,-9.03624 7.07624,-16.36246 15.80499,-16.36246c8.72875,0 15.80499,7.32623 15.80499,16.36246" fill="#ff4200"/>
  <path d="m204.10712,118.69673c-3.44125,0 -6.23,5.1025 -6.23,11.39748c0,6.29501 2.78874,11.39754 6.23,11.39754c3.44125,0 6.22998,-5.10251 6.22998,-11.39754c0,-6.29498 -2.78873,-11.39748 -6.22998,-11.39748m15.80499,11.39748c0,9.03751 -7.07625,16.36253 -15.80499,16.36253c-8.72876,0 -15.80499,-7.32503 -15.80499,-16.36253c0,-9.03624 7.07623,-16.36246 15.80499,-16.36246c8.72874,0 15.80499,7.32623 15.80499,16.36246" fill="#ff4200"/>
  <path d="m285.35715,118.69673c-3.44125,0 -6.23001,5.1025 -6.23001,11.39748c0,6.29501 2.78876,11.39754 6.23001,11.39754c3.44122,0 6.23001,-5.10251 6.23001,-11.39754c0,-6.29498 -2.78879,-11.39748 -6.23001,-11.39748m15.80499,11.39748c0,9.03751 -7.07626,16.36253 -15.80499,16.36253c-8.72876,0 -15.80502,-7.32503 -15.80502,-16.36253c0,-9.03624 7.07626,-16.36246 15.80502,-16.36246c8.72873,0 15.80499,7.32623 15.80499,16.36246" fill="#ff4200"/>
  <path d="m125.53049,123.65647c-0.94749,2.90376 -0.4425,10.86126 0,12.37751c0.4425,1.51625 2.08376,5.30499 6.31499,5.30499c4.23126,0 5.68376,-4.16751 5.99875,-5.55751c0.31628,-1.38875 0.94749,-5.05252 -0.18874,-11.3675c-1.13626,-6.31372 -5.93623,-5.80875 -5.93623,-5.80875c-3.47374,0.06376 -5.24126,2.14754 -6.18874,5.05125m-12.69376,-16.03999c0,0 0.63126,-4.67251 6.00002,-4.67251c5.36749,0 6.44125,3.41 6.44125,4.29375l0,10.4825c0,0 2.27375,-3.40999 9.21999,-3.40999c6.94626,0 13.32375,4.9275 13.32375,14.20998c0,0 1.45377,17.36502 -13.7025,17.36502c-4.92624,0 -7.76751,-1.64125 -9.22,-4.04124c-0.94749,2.46373 -3.15874,3.85248 -5.80999,3.85248c-2.65249,0 -5.80999,-1.64124 -5.80999,-4.60999c1.13625,0.12625 3.28376,0.0625 3.28376,-2.71625l0,-28.54251c0,0 -0.25249,-2.21124 -3.72626,-2.21124" fill="#ff4200"/>
  <path d="m232.81813,141.65448c0,2.40627 -1.97874,4.35626 -4.42,4.35626c-2.44125,0 -4.42001,-1.95 -4.42001,-4.35626c0,-2.40625 1.97876,-4.35626 4.42001,-4.35626c2.44124,0 4.42,1.95001 4.42,4.35626" fill="#ff4200"/>
  <path d="m265.08862,141.21262c0,0 -1.57877,-1.70375 -3.03125,-1.64127c-1.45251,0.06126 -2.20877,0.5675 -3.03125,0.88376c-0.82126,0.31502 -2.59,0.94626 -4.16875,0.94626c-1.57751,0 -4.48251,-0.63124 -6.63,-3.91501c-2.16875,-3.31746 -2.14873,-9.78871 -1.45248,-12.50375c0.69499,-2.71626 2.33623,-4.80001 4.22998,-5.99876c1.89499,-1.19872 5.49501,-0.75751 6.75877,0.25251c1.26248,1.00999 1.82999,2.90373 4.16748,2.90373c2.33624,0 3.66125,-2.7775 3.28375,-4.67249c0,0 -3.78873,-3.09124 -11.61874,-3.1575c-7.32623,-0.06248 -11.49377,3.915 -12.82001,5.49377c-1.3275,1.57874 -3.85251,5.36749 -3.85251,10.41998c0,5.05252 2.52628,10.16753 5.5575,12.50377c3.01128,2.32124 7.45128,3.47375 10.73502,3.47375c3.28375,0 8.33627,-1.13626 11.8725,-4.98875" fill="#ff4200"/>
  <path d="m304.11697,119.11047c0,0 0.69501,-4.73625 6.125,-4.73625c4.48373,0 5.68375,3.34751 5.68375,3.34751c0,0 2.78,-3.66375 8.58878,-3.66375c5.81003,0 8.46375,2.77874 9.53625,4.23125c1.89377,-1.83127 3.85251,-4.1675 9.15628,-4.1675c5.30496,0 9.78873,1.8325 10.2937,7.13625c0.50504,5.30374 0.31628,18.3125 0.31628,18.3125c0,0 0.44,2.52626 3.22,1.45251c0.25247,2.84247 -2.71625,4.67374 -5.68375,4.67374c-2.9675,0 -5.93625,-1.7675 -5.93625,-5.49374l0,-17.74502c0,0 0.065,-4.105 -4.7988,-4.105c-4.86252,0 -5.36871,4.48251 -5.36871,5.87249l0,21.28127l-8.65134,0l0,-22.98626c0,0 -0.06247,-4.23124 -4.54617,-4.23124c-4.48386,0 -5.68378,3.72625 -5.68378,5.5575l0,21.47126l-8.58749,0l0,-23.555c0,0 0.18875,-2.58875 -3.66376,-2.65251" fill="#ff4200"/>
 </g>
</svg>