<?xml version="1.0" encoding="UTF-8" standalone="no"?>
<!-- Created with Inkscape (http://www.inkscape.org/) -->

<svg
   xmlns:dc="http://purl.org/dc/elements/1.1/"
   xmlns:cc="http://creativecommons.org/ns#"
   xmlns:rdf="http://www.w3.org/1999/02/22-rdf-syntax-ns#"
   xmlns:svg="http://www.w3.org/2000/svg"
   xmlns="http://www.w3.org/2000/svg"
   xmlns:sodipodi="http://sodipodi.sourceforge.net/DTD/sodipodi-0.dtd"
   xmlns:inkscape="http://www.inkscape.org/namespaces/inkscape"
   width="26.034206mm"
   height="5.2453647mm"
   viewBox="0 0 26.034206 5.2453647"
   version="1.1"
   id="svg8"
   inkscape:version="0.92.3 (2405546, 2018-03-11)"
   sodipodi:docname="zalando.svg">
  <defs
     id="defs2" />
  <sodipodi:namedview
     id="base"
     pagecolor="#00ffff"
     bordercolor="#666666"
     borderopacity="1.0"
     inkscape:pageopacity="0"
     inkscape:pageshadow="2"
     inkscape:zoom="0.98994949"
     inkscape:cx="133.24222"
     inkscape:cy="65.371392"
     inkscape:document-units="mm"
     inkscape:current-layer="layer1"
     showgrid="false"
     inkscape:window-width="1920"
     inkscape:window-height="1001"
     inkscape:window-x="-9"
     inkscape:window-y="-9"
     inkscape:window-maximized="1"
     fit-margin-top="0"
     fit-margin-left="0"
     fit-margin-right="0"
     fit-margin-bottom="0" />
  <metadata
     id="metadata5">
    <rdf:RDF>
      <cc:Work
         rdf:about="">
        <dc:format>image/svg+xml</dc:format>
        <dc:type
           rdf:resource="http://purl.org/dc/dcmitype/StillImage" />
        <dc:title></dc:title>
      </cc:Work>
    </rdf:RDF>
  </metadata>
  <g
     inkscape:label="Layer 1"
     inkscape:groupmode="layer"
     id="layer1"
     transform="translate(-34.83201,-199.10371)">
    <g
       id="g32"
       transform="matrix(0.26458333,0,0,0.26458333,34.826718,199.08519)"
       style="fill:none;fill-rule:evenodd">
      <path
         id="path28"
         d="M 43.21,4.944 C 42.495,4.546 41.433,4.351 39.962,4.351 c -2.012,0.002 -3.88,0.426 -4.586,0.693 -0.16,0.052 -0.33,0.192 -0.334,0.43 v 0.054 l 0.2,1.016 0.004,0.02 c 0.062,0.205 0.232,0.3 0.385,0.3 h 0.003 C 35.684,6.86 35.722,6.85 35.758,6.841 l 0.335,-0.08 c 0.877,-0.22 2.202,-0.558 3.68,-0.558 0.898,0 1.5,0.08 1.905,0.252 0.656,0.253 0.66,0.684 0.667,1.397 V 8.919 C 42.27,8.917 42.143,8.916 41.948,8.916 c -0.725,0 -2.15,0.035 -3.55,0.262 -2.138,0.334 -3.907,0.853 -3.895,3.845 0,3.798 3.47,3.804 5.136,3.808 1.13,-0.002 2.175,-0.172 2.858,-0.314 1.555,-0.367 1.953,-0.868 1.932,-2.437 V 7.763 c 0,-0.964 0.004,-2.162 -1.22,-2.82 z m -0.855,9.753 c -0.828,0.273 -1.734,0.41 -2.694,0.41 v 0.09 -0.09 c -1.534,-0.012 -3.03,-0.19 -3.033,-2.175 0.01,-1.58 0.84,-1.767 1.89,-2.005 l 0.073,-0.017 c 0.934,-0.203 3.282,-0.24 3.765,-0.246 v 4.033 z m 19.41,-6.935 v 6.314 c 0.02,1.57 -0.377,2.07 -1.933,2.437 -0.68,0.143 -1.725,0.313 -2.857,0.314 -1.666,-0.004 -5.135,-0.01 -5.136,-3.807 -0.013,-2.99 1.756,-3.51 3.894,-3.844 1.4,-0.228 2.826,-0.263 3.55,-0.263 0.196,0 0.322,0.002 0.4,0.003 V 7.85 C 59.675,7.137 59.67,6.707 59.015,6.454 58.611,6.28 58.007,6.202 57.109,6.202 c -1.48,0 -2.804,0.336 -3.68,0.558 L 53.095,6.84 C 53.059,6.85 53.02,6.86 52.97,6.86 52.816,6.86 52.647,6.768 52.584,6.56 L 52.579,6.542 52.379,5.526 V 5.473 c 0.004,-0.238 0.174,-0.38 0.333,-0.43 0.708,-0.267 2.574,-0.692 4.587,-0.693 1.47,0 2.533,0.195 3.247,0.594 1.223,0.657 1.22,1.855 1.218,2.818 z m -2.07,2.902 c -0.486,0.005 -2.83,0.043 -3.766,0.246 l -0.075,0.017 c -1.05,0.238 -1.88,0.425 -1.89,2.005 0.002,1.985 1.5,2.164 3.034,2.175 v 0.09 -0.09 c 0.96,0 1.866,-0.137 2.694,-0.41 V 10.664 Z M 93.172,4.35 c -4.83,0.008 -5.24,3.23 -5.245,6.25 0.005,3.01 0.414,6.22 5.245,6.227 4.827,-0.008 5.238,-3.21 5.245,-6.228 -0.005,-3.16 -0.414,-6.242 -5.245,-6.25 z m 0,10.715 c -2.93,-0.014 -3.077,-1.54 -3.097,-4.464 0.02,-2.938 0.167,-4.473 3.096,-4.486 2.93,0.013 3.078,1.548 3.098,4.485 -0.02,2.924 -0.168,4.45 -3.097,4.465 z m -8.67,1.318 -0.125,0.032 c -0.675,0.174 -1.6,0.412 -3.222,0.412 h -0.004 c -4.472,-0.008 -5.348,-2.297 -5.353,-6.25 0.004,-4.532 1.42,-6.22 5.22,-6.226 1.342,0 2.267,0.177 2.93,0.34 L 83.944,1.039 c -0.005,-0.16 0.065,-0.37 0.438,-0.442 L 85.57,0.289 h 0.065 c 0.273,0.007 0.37,0.253 0.37,0.463 v 13.72 c 0.018,0.868 -0.083,1.61 -1.503,1.913 z M 83.945,6.447 c -0.396,-0.102 -1.503,-0.356 -2.75,-0.356 -2.288,0.023 -3.25,0.654 -3.272,4.51 0.027,4.235 1.268,4.465 3.293,4.485 v 0.09 -0.09 c 1.26,0 2.342,-0.267 2.728,-0.373 V 6.447 Z M 73.276,16.54 h -1.06 c -0.287,0 -0.5,-0.218 -0.5,-0.507 v -8.14 c -0.02,-1.376 -0.427,-1.76 -1.887,-1.78 -1.652,0 -3.325,0.422 -3.876,0.574 v 9.347 c 0,0.293 -0.2,0.507 -0.477,0.507 h -1.085 c -0.285,0 -0.5,-0.218 -0.5,-0.506 v -9.13 c -0.015,-0.844 0.062,-1.428 1.247,-1.818 1.133,-0.397 3.3,-0.734 4.735,-0.735 2.73,0.004 3.895,1.005 3.9,3.346 v 8.338 c 0,0.288 -0.215,0.506 -0.5,0.506 z m -24.053,0.22 c 0.612,-0.013 1.062,-0.134 1.24,-0.336 0.062,-0.07 0.09,-0.154 0.083,-0.235 -0.004,-0.068 -0.004,-0.068 -0.17,-0.864 l -0.005,-0.02 c -0.036,-0.207 -0.18,-0.302 -0.302,-0.302 h -0.018 c 0,0 -0.153,-0.003 -0.305,-0.003 -0.436,-0.014 -0.797,-0.08 -0.804,-0.724 V 0.75 c 0,-0.224 -0.134,-0.455 -0.39,-0.46 h -0.077 l -1.19,0.31 c -0.202,0.02 -0.414,0.167 -0.404,0.438 v 13.28 c 0.003,1.572 0.835,2.44 2.342,2.443 z M 32.425,16.54 h -8.522 c -0.285,0 -0.5,-0.218 -0.5,-0.507 v -1.056 c -0.005,-0.26 0.076,-0.373 0.234,-0.572 L 30.42,6.4 h -6.647 c -0.285,0 -0.5,-0.22 -0.5,-0.508 V 5.144 c 0,-0.29 0.216,-0.507 0.5,-0.507 h 8.61 c 0.283,0 0.497,0.218 0.498,0.507 v 1.078 c 0.005,0.195 -0.06,0.36 -0.215,0.534 l -6.8,8.022 h 6.56 c 0.284,0 0.498,0.218 0.5,0.507 v 0.75 c -0.002,0.287 -0.216,0.505 -0.5,0.505 z"
         inkscape:connector-curvature="0"
         style="fill:#1d1d1b" />
      <path
         id="path30"
         d="m 3.968,19.895 c -0.723,0 -1.125,-0.172 -1.34,-0.297 C 2.331,19.424 1.784,18.981 1.293,17.671 0.506,15.57 0.04,13.004 0.02,9.99 V 9.98 C 0.04,6.96 0.506,4.395 1.293,2.293 1.783,0.984 2.33,0.54 2.63,0.367 2.842,0.24 3.243,0.07 3.965,0.07 c 0.276,0 0.6,0.025 0.976,0.086 2.186,0.36 4.607,1.233 7.19,2.723 l 0.008,0.004 c 2.562,1.526 4.518,3.217 5.917,4.96 0.873,1.088 0.977,1.79 0.977,2.138 0,0.348 -0.104,1.052 -0.977,2.138 -1.4,1.743 -3.355,3.435 -5.917,4.96 l -0.01,0.006 c -2.58,1.49 -5.002,2.363 -7.188,2.722 -0.377,0.063 -0.7,0.087 -0.974,0.087"
         inkscape:connector-curvature="0"
         style="fill:#ff6900" />
    </g>
  </g>
</svg>
