<svg xmlns="http://www.w3.org/2000/svg" xmlns:xlink="http://www.w3.org/1999/xlink" version="1.1" id="Layer_1" x="0px" y="0px" viewBox="0 0 971 112" style="enable-background:new 0 0 971 112;" xml:space="preserve">
<g>
	<path d="M470.1,73.8c-0.2,10.3-7.6,20.1-22,20.1c-12.1,0-22.3-8.9-22.9-20.4c2.1,0,11.3,0,12.9,0c0.3,5.7,4.3,9.1,11.2,8.8   c6.2-0.3,9.1-5.6,9.2-9.7c0.1-4.9-0.7-9.3-14.5-14.1c-11.8-4.1-17.4-9.1-17.4-20.5c0-11.4,10.7-18.4,19.9-18.6   c15.4-0.3,22.5,9.7,22.3,17.9h-12.6c-0.4-4.3-4.6-7.3-9.1-7.3c-4.6,0-9.1,3.1-9.1,9c0,6.5,3.9,8.8,13.4,12.2   C468,56.7,470.4,64.4,470.1,73.8z"/>
	<path d="M331.6,73.8c-0.2,10.3-7.6,20.1-22,20.1c-12.1,0-22.3-8.9-22.9-20.4c2.1,0,11.3,0,12.9,0c0.3,5.7,4.3,9.1,11.2,8.8   c6.2-0.3,9.1-5.6,9.2-9.7c0.1-4.9-0.7-9.3-14.5-14.1c-11.8-4.1-17.4-9.1-17.4-20.5c0-11.4,10.7-18.4,19.9-18.6   c15.4-0.3,22.5,9.7,22.3,17.9h-12.6c-0.4-4.3-4.6-7.3-9.1-7.3c-4.6,0-9.1,3.1-9.1,9c0,6.5,3.9,8.8,13.4,12.2   C329.5,56.7,331.8,64.4,331.6,73.8z"/>
	<g>
		<path d="M860.7,26.9l0.7,0c0.8,0,1.4-0.3,1.4-0.9c0-0.6-0.4-0.9-1.3-0.9c-0.3,0-0.6,0-0.8,0.1L860.7,26.9z M860.6,30.3l-1.4,0    l0-5.9c0.6-0.1,1.3-0.2,2.3-0.2c1.1,0,1.6,0.2,2.1,0.5c0.3,0.3,0.6,0.7,0.6,1.3c0,0.7-0.5,1.2-1.2,1.4v0.1    c0.6,0.2,0.9,0.7,1.1,1.5c0.2,0.9,0.3,1.3,0.4,1.5l-1.5,0c-0.2-0.2-0.3-0.7-0.5-1.4c-0.1-0.6-0.5-0.9-1.2-0.9l-0.7,0L860.6,30.3z     M861.6,22.5c-2.6,0-4.6,2.1-4.6,4.7c0,2.7,1.9,4.8,4.6,4.8c2.6,0.1,4.6-2.1,4.6-4.7C866.2,24.6,864.3,22.5,861.6,22.5L861.6,22.5    L861.6,22.5z M861.7,21.2c3.4,0,6,2.7,6,6c0,3.4-2.7,6-6.2,5.9c-3.4,0-6.1-2.7-6.1-6C855.5,23.8,858.2,21.2,861.7,21.2    C861.6,21.2,861.7,21.2,861.7,21.2z"/>
	</g>
	<polygon points="653.9,21.5 642.9,21.5 642.9,91.5 681.3,91.5 681.3,81.5 654.4,81.5 653.9,80.9  "/>
	<polygon points="587.5,21.5 576.5,21.5 576.5,91.5 615,91.5 615,81.5 588,81.4 587.5,80.9  "/>
	<polygon points="373.6,32.1 373.1,31.5 354.4,31.6 354.4,21.5 403.8,21.5 403.8,31.6 385.1,31.5 384.6,32.1 384.6,91.5 373.6,91.5    "/>
	<polygon points="750.2,21.5 711.8,21.5 711.8,91.5 750.2,91.5 750.2,81.4 723.3,81.4 722.8,80.9 722.8,61.3 723.3,60.8 745.7,60.8   745.7,50.6 723.3,50.6 722.8,50.1 722.8,32.1 723.3,31.6 750.2,31.6  "/>
	<polygon points="540.5,21.5 502.2,21.5 502.2,91.5 540.5,91.5 540.5,81.4 513.6,81.4 513.1,80.9 513.1,61.3 513.6,60.8 536,60.8   536,50.6 513.6,50.6 513.1,50.1 513.1,32.1 513.6,31.6 540.5,31.6  "/>
	<polygon points="258.4,21.5 220,21.5 220,91.5 258.4,91.5 258.4,81.5 231.5,81.5 231,81 231,61.3 231.5,60.8 253.9,60.8   253.9,50.6 231.5,50.6 231,50.1 231,32.1 231.5,31.6 258.4,31.6  "/>
	<path d="M802.4,21.5c-4.3,0-14.9,0-16.9,0.4v69.6h11c0-1,0-29.7,0-29.7l0.5-0.5h5.4h0c5,0,6.8,3.3,9,8.1c3,6.6,4.4,12.5,7.2,22.1   l12,0c-1.1-3.7-5.2-15.9-8.7-25.4c-2.1-5.6-4.8-8.7-8-9.5v-0.3c5.8-2.3,12.1-6.3,12.4-16.6c0.2-5.2-1-9.9-4.3-13.1   C817.8,22.6,811.2,21.5,802.4,21.5 M797,50.6l-0.5-0.5v-18l0.5-0.5l7,0c8.1,0,11,5.2,11,9.3c0,8.2-5.4,9.8-10.9,9.7H797L797,50.6z"/>
	<path d="M162.7,21.5c-0.2,0-0.5,0-0.7,0c-4.2,0-15,0-17,0.4v28.9v8v32.7c2.2,0.4,13,0.5,17.6,0.5c11.2,0,15.4-1.3,19.8-5.2   c3.6-3.2,5.4-8.1,5.4-14.2c0-10.4-4.8-15.1-11-17.4v-0.3c4.7-2.5,8.3-6.8,8.3-15.6c0-5.6-1.8-9.6-5.2-12.5   C175.8,22.9,170.2,21.5,162.7,21.5 M156.5,50.6L156,50l0-18l0.5-0.5c0.7,0,1.1,0,1.8,0c1.5,0,3,0,5.1,0c8.3,0,10.8,4.1,10.8,9   c0,6-2.4,10-10.3,10C163.7,50.6,156.5,50.6,156.5,50.6z M159.5,81.5c-1.6,0-2.5,0-3,0l-0.5-0.5V61.3l0.5-0.5l6.8,0   c7.7,0,13,3.7,13,10.8c0,5.6-2.5,9.9-12.4,9.9C162.2,81.5,160.7,81.5,159.5,81.5"/>
</g>
</svg>
