<svg id="Logo" xmlns="http://www.w3.org/2000/svg" viewBox="0 0 653.29 72.04"><defs><style>.cls-1{fill:#00268a;}</style></defs><title>JackJones_Logo_1_line_Blue_RGB</title><path class="cls-1" d="M36.31,13.41H54.77V63.15c0,12.31-10.19,20.59-23.4,20.59-13.52,0-22.81-7.47-22.81-20.18V59H25v4.13A5.62,5.62,0,0,0,30.66,69a5.51,5.51,0,0,0,5.65-5.85ZM109.24,82l-4.34-11.8H78.67L74.23,82H55.67L84.22,13.41h17L128.71,82Zm-17-47H92L83.62,57h16.54ZM197.52,59c-4.64,14.63-18.87,24.72-35.31,24.72-20,0-36.42-14.94-36.42-35.92S142.63,11.7,162.61,11.7c16.14,0,30.07,9.89,34.81,24.42h-21a17.19,17.19,0,0,0-13.92-7.57c-9.18,0-17.15,7.77-17.15,19.17s8,19.07,17.15,19.07A17,17,0,0,0,176.64,59Zm45.36,23L223.41,54H223V82H204.54V13.41H223V39.75h.4l19.07-26.34h20.58L238.14,44.89,264.57,82ZM367.31,13.41h18.46V63.15c0,12.31-10.19,20.59-23.41,20.59-13.52,0-22.8-7.47-22.8-20.18V59H356v4.13A5.62,5.62,0,0,0,361.66,69a5.51,5.51,0,0,0,5.65-5.85Zm62.24,70.33c-20.58,0-37.13-14.94-37.13-35.92S409,11.7,429.55,11.7,467,26.83,467,47.82,450.13,83.74,429.55,83.74Zm18-36c0-11.71-8.07-19.07-17.86-19.07S412,36.32,412,47.72s7.87,19,17.66,19S447.51,59.12,447.51,47.72ZM520,82,491.6,44.29h-.51V82H473.64V13.41h15.94l28.65,37.94h.51V13.41h17.45V82Zm25.62,0V13.41H598V29.15H564v10.4h23.61V55H564v11.3h34V82ZM643.5,35.71c-1.62-5.35-5.55-9-12.92-9-6.05,0-9.18,2.93-9.18,6.16,0,3.43,3.63,5.14,9.38,6l5.05.71c17.76,2.52,26,7.64,26,20.27,0,14.94-13.68,23.92-30.43,23.92-15.83,0-27.79-8.88-28.9-24.82h17.56a13,13,0,0,0,13.22,10c5.75,0,10.09-2.83,10.09-7.17,0-3.13-2.22-5.14-11.2-6.46l-7.77-1.15c-13.72-2-21.39-8.55-21.39-20.44,0-12.28,11.1-22,28.45-22,18.46,0,28,10.79,29.26,24ZM332.7,71.49,323,61.76l8.38-8.39L319.88,41.9l-8.38,8.39L298.71,37.5c-1.95-2-3.08-3.27-3.12-5.18a4.8,4.8,0,0,1,4.65-4.82c2.32,0,3.54.85,5.29,2.73l1.92,1.92,11.23-11.24h0l-1.56-1.56a23.3,23.3,0,0,0-17.66-7.65C286.06,11.7,278,21.94,278,32.42c0,4.84,1.78,9.54,6.6,14.39L299.77,62l-1.54,1.54c-2.57,2.66-4.07,4.41-7,4.46-3.53.06-6.67-2.31-6.74-6,0-2.41,1-4,2.92-6l.42-.42L277.33,45.05l-1.06,1.06c-4,3.8-8.11,9.83-8.11,17.86,0,10.85,8.75,19.76,22.47,19.76,8.25,0,14.13-3.67,19.77-9.41l.84-.83L321,83.22Z" transform="translate(-8.56 -11.7)"/></svg>