<?xml version="1.0" encoding="utf-8"?>
<!-- Generator: Adobe Illustrator 21.0.1, SVG Export Plug-In . SVG Version: 6.00 Build 0)  -->
<svg version="1.1" id="Layer_1" xmlns="http://www.w3.org/2000/svg" xmlns:xlink="http://www.w3.org/1999/xlink" x="0px" y="0px"
	 viewBox="0 0 471 110" style="enable-background:new 0 0 471 110;" xml:space="preserve">
<style type="text/css">
	.st0{fill:#222221;}
</style>
<g>
	<path class="st0" d="M442.4,1.6L409,47.7L374.7,1.6H346l50.4,70.5v35.4h25.1V72.1l49.4-70.5H442.4z M369.7,83.4h-62.6V1.5h-25.3
		v106.1h87.9V83.4z M258.2,1.4h-24.9v67.7L171.6,1.4h-26v106.1H171V38.4l62.2,69.1h24.9V1.4z M99.1,72.4c-1.2,3.4-2.7,6.2-4.7,8.4
		c-1.3,1.4-1.6,1.6-2.4,2.2c-0.5,0.3-1.2,0.8-2.1,1.2c-2.1,1.1-4.8,1.9-8.2,2.5C77,87.6,71.1,88,64.1,88c-7.1,0-13-0.5-17.8-1.3
		c-3.3-0.6-6.1-1.4-8.2-2.5c-0.7-0.4-1.3-0.9-2-1.3c-0.6-0.4-1.2-0.7-2.5-2.2c-1.9-2.1-3.4-4.9-4.6-8.4c-1.6-4.8-2.5-10.6-2.5-17.5
		c0-6.8,0.8-12.6,2.5-17.5c1.2-3.5,2.7-6.2,4.6-8.4c1.2-1.4,1.9-1.9,2.5-2.4c0.7-0.5,1-0.7,2-1.1c2.1-1,4.8-1.9,8.2-2.5
		c4.7-0.9,10.6-1.3,17.7-1.3c6.9,0,12.8,0.5,17.7,1.4c3.5,0.6,6.2,1.5,8.2,2.5c2.1,1.1,3.2,2,4.5,3.5c2,2.2,3.5,5,4.7,8.4
		c1.6,4.8,2.5,10.6,2.5,17.5C101.6,61.6,100.8,67.5,99.1,72.4z M123.7,25.5c-2-5.8-4.6-10.5-7.8-14.1c-2.1-2.4-3.3-3.2-4-3.6
		c-1.1-0.7-2.3-1.4-3.8-2.1c-3.4-1.5-8.2-2.8-14.2-3.8c-8.2-1.4-18.1-2-29.8-2c-11.5,0-21.5,0.7-29.9,2.1c-6,1-10.7,2.2-14.2,3.8
		c-1.4,0.6-2,1-3.2,1.8c-0.7,0.4-2.4,1.5-4.5,3.9C9,15.1,6.4,19.8,4.4,25.5c-2.8,8-4.2,17.8-4.2,29.3c0,11.4,1.4,21.1,4.2,29.3
		c2,5.7,4.6,10.4,7.8,14.1c2.1,2.4,3.2,3.2,4.3,3.8c1.2,0.7,2.1,1.3,3.5,1.9c3.6,1.5,8.3,2.8,14.2,3.8c8.3,1.4,18.2,2.1,29.9,2.1
		c11.6,0,21.6-0.7,29.9-2.1c5.8-1,10.5-2.2,14.1-3.8c0.9-0.4,2.1-1.1,3.2-1.9c1.7-1.2,3.4-2.6,4.5-3.8c3.2-3.6,5.8-8.3,7.8-14.1
		c2.8-8.1,4.2-17.9,4.2-29.3C127.9,43.4,126.5,33.6,123.7,25.5"/>
</g>
</svg>
