<?xml version="1.0" encoding="utf-8"?>
<!-- Generator: Adobe Illustrator 19.2.1, SVG Export Plug-In . SVG Version: 6.00 Build 0)  -->
<svg version="1.1" id="Layer_1" xmlns="http://www.w3.org/2000/svg" xmlns:xlink="http://www.w3.org/1999/xlink" x="0px" y="0px"
	 viewBox="0 0 85 19.3" style="enable-background:new 0 0 85 19.3;" xml:space="preserve">
<g>
	<g>
		<path d="M7,5.7C6.5,5.3,5.8,5.1,4.9,4.8C4.1,4.6,3.7,4.4,3.4,4.2C3.1,4,3.1,3.9,3.1,3.6c0-0.5,0.3-0.9,1.3-0.9
			c0.8,0,1.4,0.2,2,0.7l0.1,0.3l1.1-1L7.5,2.5c-0.8-0.7-1.7-1.1-3-1.1C3.7,1.4,2.9,1.6,2.4,2S1.5,3,1.5,3.7S1.7,5,2.2,5.3
			c0.5,0.4,1.2,0.6,2.1,0.9C5,6.4,5.5,6.6,5.8,6.8s0.4,0.4,0.4,0.6c0,0.4-0.1,0.6-0.4,0.8C5.5,8.4,5.1,8.5,4.5,8.5
			c-0.8,0-1.6-0.4-2.2-0.9L2.2,7.5l-1.1,1l0.1,0.1C2,9.4,3.1,9.9,4.4,9.9c1.1,0,2-0.2,2.6-0.7s0.8-1.1,0.8-1.9
			C7.9,6.6,7.6,6.1,7,5.7z"/>
		<polygon points="25,1.5 23.4,1.5 23.4,9.8 23.5,9.8 29.4,9.8 29.4,8.4 25,8.4 		"/>
		<path d="M49.6,7.5c-0.4,0.6-0.9,0.9-1.8,0.9c-1.5,0-2.2-1-2.2-2.8s0.8-2.8,2.2-2.8c0.9,0,1.3,0.3,1.7,0.9l0.1,0.1L51,3l-0.1-0.1
			c-0.6-1-1.6-1.6-3.1-1.6c-1.2,0-2.1,0.4-2.8,1.2c-0.7,0.8-1,1.8-1,3.1c0,1.2,0.4,2.3,1,3.1c0.7,0.8,1.7,1.2,2.8,1.2l0,0
			c1.4,0,2.5-0.6,3.1-1.6L51,8.2l-1.3-0.8L49.6,7.5z"/>
		<polygon points="54.9,3 57.4,3 57.4,9.8 59,9.8 59,3 61.6,3 61.6,1.5 54.9,1.5 		"/>
		<path d="M82.6,2.5c-0.8-0.7-1.9-1-3.1-1H77v8.3h2.5c1.2,0,2.3-0.3,3.1-1c0.8-0.7,1.3-1.7,1.3-3.2C83.9,4.2,83.4,3.2,82.6,2.5z
			 M79.4,8.4h-1V3h1c2,0,2.8,1.1,2.8,2.7C82.2,7.3,81.5,8.4,79.4,8.4z"/>
		<polygon points="18.6,8.4 14.2,8.4 14.2,6.1 17.4,6.1 17.4,4.7 14.2,4.7 14.2,3 18.6,3 18.6,1.5 12.6,1.5 12.6,9.8 18.6,9.8 		"/>
		<polygon points="39.9,8.4 35.5,8.4 35.5,6.1 38.7,6.1 38.7,4.7 35.5,4.7 35.5,3 39.9,3 39.9,1.5 33.9,1.5 33.9,9.8 39.9,9.8 		"/>
		<polygon points="72.1,8.4 67.7,8.4 67.7,6.1 70.9,6.1 70.9,4.7 67.7,4.7 67.7,3 72.1,3 72.1,1.5 66.1,1.5 66.1,9.8 72.1,9.8 		"/>
	</g>
	<g>
		<path d="M41.1,18h-0.4l1.6-4h0.4L41.1,18z"/>
		<path d="M13,14.8v1h1.3v0.3H13v1.5h-0.4v-3.2h2.2v0.3L13,14.8L13,14.8z"/>
		<polygon points="19.6,17.3 17.7,17.3 17.7,16.1 19.1,16.1 19.1,15.7 17.7,15.7 17.7,14.8 19.6,14.8 19.6,14.4 17.3,14.4 
			17.3,17.6 19.6,17.6 		"/>
		<g>
			<path d="M49.2,17.6v-1.5h-1.8v1.5H47v-3.2h0.4v1.3h1.8v-1.3h0.4v3.2H49.2z"/>
			<path d="M53.7,17.6c-0.9,0-1.5-0.7-1.5-1.6s0.6-1.6,1.5-1.6s1.5,0.7,1.5,1.6C55.2,17,54.6,17.6,53.7,17.6z M53.7,14.7
				c-0.6,0-1.1,0.5-1.1,1.3s0.5,1.3,1.1,1.3s1.1-0.5,1.1-1.3S54.3,14.7,53.7,14.7z"/>
			<path d="M60.6,17.6v-2.1v-0.3c0,0.1-0.1,0.4-0.2,0.5l-1,2l-1-2c-0.1-0.2-0.2-0.4-0.2-0.5v0.3v2.1h-0.4v-3.2h0.5l0.9,1.9
				c0.1,0.2,0.2,0.5,0.3,0.6c0-0.1,0.2-0.4,0.3-0.6l0.9-1.9h0.4v3.2H60.6z"/>
			<path d="M66.6,17.6v-2.1v-0.3c0,0.1-0.1,0.4-0.2,0.5l-1,2l-1-2c-0.1-0.2-0.2-0.4-0.2-0.5v0.3v2.1h-0.4v-3.2h0.5l0.9,1.9
				c0.1,0.2,0.2,0.5,0.3,0.6c0-0.1,0.2-0.4,0.3-0.6l0.9-1.9h0.4v3.2H66.6z"/>
		</g>
		<polygon points="72.1,17.3 70.2,17.3 70.2,16.1 71.6,16.1 71.6,15.7 70.2,15.7 70.2,14.8 72.1,14.8 72.1,14.4 69.8,14.4 
			69.8,17.6 72.1,17.6 		"/>
		<path d="M25.1,17.6v-2.1v-0.3c0,0.1-0.1,0.4-0.2,0.5l-1,2l-1-2c-0.1-0.2-0.2-0.4-0.2-0.5v0.3v2.1h-0.4v-3.2h0.5l0.9,1.9
			c0.1,0.2,0.2,0.5,0.3,0.6c0-0.1,0.2-0.4,0.3-0.6l0.9-1.9h0.3v3.2H25.1z"/>
		<path d="M31.1,17.6v-2.1v-0.3c0,0.1-0.1,0.4-0.2,0.5l-1,2l-1-2c-0.1-0.2-0.2-0.4-0.2-0.5v0.3v2.1h-0.4v-3.2h0.5l0.9,1.9
			c0.1,0.2,0.2,0.5,0.3,0.6c0-0.1,0.2-0.4,0.3-0.6l0.9-1.9h0.3v3.2H31.1z"/>
		<polygon points="36.6,17.3 34.7,17.3 34.7,16.1 36.1,16.1 36.1,15.7 34.7,15.7 34.7,14.8 36.6,14.8 36.6,14.4 34.3,14.4 
			34.3,17.6 36.6,17.6 		"/>
	</g>
</g>
</svg>
