<?xml version="1.0" encoding="UTF-8" standalone="no"?>
<!-- Generator: Adobe Illustrator 19.0.0, SVG Export Plug-In . SVG Version: 6.00 Build 0)  -->

<svg
   xmlns:dc="http://purl.org/dc/elements/1.1/"
   xmlns:cc="http://creativecommons.org/ns#"
   xmlns:rdf="http://www.w3.org/1999/02/22-rdf-syntax-ns#"
   xmlns:svg="http://www.w3.org/2000/svg"
   xmlns="http://www.w3.org/2000/svg"
   xmlns:sodipodi="http://sodipodi.sourceforge.net/DTD/sodipodi-0.dtd"
   xmlns:inkscape="http://www.inkscape.org/namespaces/inkscape"
   version="1.1"
   id="Mail.Ru_Group"
   x="0px"
   y="0px"
   viewBox="-76 336.7 342 121"
   xml:space="preserve"
   sodipodi:docname="logo_part02.svg"
   width="342"
   height="121"
   inkscape:version="0.92.2 (5c3e80d, 2017-08-06)"><metadata
     id="metadata57"><rdf:RDF><cc:Work
         rdf:about=""><dc:format>image/svg+xml</dc:format><dc:type
           rdf:resource="http://purl.org/dc/dcmitype/StillImage" /></cc:Work></rdf:RDF></metadata><defs
     id="defs55" /><sodipodi:namedview
     pagecolor="#ffffff"
     bordercolor="#666666"
     borderopacity="1"
     objecttolerance="10"
     gridtolerance="10"
     guidetolerance="10"
     inkscape:pageopacity="0"
     inkscape:pageshadow="2"
     inkscape:window-width="1920"
     inkscape:window-height="1051"
     id="namedview53"
     showgrid="false"
     inkscape:zoom="0.99122807"
     inkscape:cx="170.9"
     inkscape:cy="60.450001"
     inkscape:window-x="-9"
     inkscape:window-y="-9"
     inkscape:window-maximized="1"
     inkscape:current-layer="Mail.Ru_Group" /><style
     type="text/css"
     id="style2">
	.st0{fill:#168DE2;}
	.st1{fill:#FFA930;}
	.st2{fill:#FFFFFF;}
</style><g
     id="Logo"
     transform="translate(-0.1)"><g
       id="Bg"><g
         id="g6"><path
           class="st0"
           d="M 262.5,336.7 H -72.4 c -2,0 -3.5,1.5 -3.5,3.5 v 114 c 0,1.9 1.5,3.5 3.5,3.5 h 335 c 1.9,0 3.5,-1.5 3.5,-3.5 v -114 c -0.1,-2 -1.7,-3.5 -3.6,-3.5 z"
           id="path4"
           inkscape:connector-curvature="0"
           style="fill:#168de2" /></g></g><g
       id="yellow"><path
         class="st1"
         d="m -23.7,364.2 c 5,0 9.7,2.2 13.1,5.6 v 0 c 0,-1.6 1.1,-2.9 2.6,-2.9 h 0.4 c 2.4,0 2.9,2.3 2.9,3 v 25.6 c -0.2,1.7 1.7,2.6 2.8,1.5 4.1,-4.3 9.1,-21.8 -2.6,-32 -10.9,-9.5 -25.4,-7.9 -33.1,-2.6 -8.2,5.6 -13.5,18.2 -8.4,30 5.6,12.8 21.5,16.7 30.9,12.8 4.8,-2 7,4.5 2.1,6.7 -7.5,3.2 -28.5,2.9 -38.2,-14 -6.6,-11.5 -6.2,-31.5 11.3,-42 13.4,-7.9 31.1,-5.7 41.7,5.4 11.2,11.7 10.6,33.5 -0.2,42 -5,3.8 -12.2,0.1 -12.2,-5.5 l -0.1,-1.8 c -3.4,3.4 -7.9,5.4 -13,5.4 -9.8,0 -18.5,-8.6 -18.5,-18.5 0,-10 8.6,-18.7 18.5,-18.7 v 0 z m 12.3,18 c -0.3,-7.2 -5.7,-11.5 -12.1,-11.5 h -0.3 c -7.4,0 -11.5,5.8 -11.5,12.5 0,7.4 5,12.1 11.5,12.1 7.3,0 12.1,-5.4 12.5,-11.6 z"
         id="path9"
         inkscape:connector-curvature="0"
         style="fill:#ffa930" /><path
         class="st1"
         d="m 168.3,401.6 c 0,1.6 -1.7,3.2 -4.1,3.2 -2.4,0 -3.9,-1.8 -3.9,-3.3 v -2.7 c 0,-1.6 1.5,-3.3 4,-3.3 2.7,0 4,1.8 4,3.5 z"
         id="path11"
         inkscape:connector-curvature="0"
         style="fill:#ffa930" /><path
         class="st1"
         d="m 194.7,363.2 c -11.2,0.1 -20.8,9.9 -20.8,20.9 v 17 c 0,2.2 1.8,3.8 3.7,3.8 2.3,0 4,-1.7 4,-3.7 v -17.4 c 0,-6.2 5.4,-13 13,-12.9 2.5,0 4.1,-1.9 4.1,-3.9 0,-1.6 -1.2,-3.8 -4,-3.8 z"
         id="path13"
         inkscape:connector-curvature="0"
         style="fill:#ffa930" /><path
         class="st1"
         d="m 241.3,363.2 c -2.4,0 -3.9,2 -3.9,3.8 v 17 c 0,6.6 -5.6,13 -13.2,13 -6.3,0 -13,-5.5 -13,-12.9 V 367 c 0,-1.8 -1.4,-3.8 -4,-3.8 -1.9,0 -3.8,1.6 -3.8,3.8 v 17 c 0,11 9.8,20.8 20.8,20.8 12,0 21.1,-10.3 21.1,-20.7 V 367 c -0.1,-1.9 -1.7,-3.8 -4,-3.8 z"
         id="path15"
         inkscape:connector-curvature="0"
         style="fill:#ffa930" /></g><g
       id="white"><path
         class="st2"
         d="m 127.7,357 c 0,1.7 -1.7,3.1 -4.1,3.1 -2.4,0 -3.9,-1.6 -3.9,-3.2 v -2.1 c 0,-1.6 1.5,-3.5 3.9,-3.5 2.7,0 4.1,1.7 4.1,3.5 z"
         id="path18"
         inkscape:connector-curvature="0"
         style="fill:#ffffff" /><path
         class="st2"
         d="m 55,363.3 c -5,-0.1 -8.7,2.8 -11,4.7 -2.6,-2.7 -5.9,-4.4 -9.3,-4.7 -3.6,-0.3 -6.9,1 -9.1,2.7 -0.8,-1.7 -1.7,-2.7 -3.4,-2.7 -1.9,0 -3.8,1.6 -3.8,4.2 0,2.6 0,33.5 0,33.5 0,2 1.6,3.8 4,3.8 2.6,0 4,-2 4,-3.9 V 376 c 0,-2.4 4.1,-5.3 7.6,-5.2 2.2,0 4.9,2.2 4.9,5.7 V 401 c 0,2.1 2.1,3.8 4.2,3.8 2.3,0 4.1,-1.8 4.1,-3.8 v -24.8 c 0,-3 4.6,-5.6 7.8,-5.4 2.5,0.2 4.6,2.8 4.6,5.4 V 401 c 0,2.1 2,3.8 4.2,3.8 1.9,0 4.1,-1.3 4.1,-3.8 v -24.6 c -0.1,-9.1 -9,-13.3 -12.9,-13.1 z"
         id="path20"
         inkscape:connector-curvature="0"
         style="fill:#ffffff" /><path
         class="st2"
         d="m 123.6,363.2 c -2.4,0 -3.9,2 -3.9,4 v 33.7 c 0,2.2 1.8,3.9 3.9,3.9 2.5,0 4.1,-2 4.1,-4.1 v -33.5 c 0,-2 -2,-4 -4.1,-4 z"
         id="path22"
         inkscape:connector-curvature="0"
         style="fill:#ffffff" /><path
         class="st2"
         d="m 109.6,363.2 c -2.2,0 -3.8,1.8 -3.8,3.6 v 1.4 c -3.6,-3.1 -8.2,-5 -13.2,-5 -11,0 -20.7,9.2 -20.7,20.9 0,10.6 9.2,20.8 20.7,20.8 4.6,0 9.6,-1.8 13.2,-4.8 v 1 c 0,1.9 1.5,3.8 3.9,3.8 2.8,0 4,-2.2 4,-4 V 367 c 0,-1.6 -1.7,-3.8 -4.1,-3.8 z m -16.9,33.9 c -7.3,0 -13.1,-5.9 -13.1,-13.1 0,-7.3 5.9,-13.1 13.1,-13.1 7.3,0 13.1,5.9 13.1,13.1 0,7.2 -5.9,13.1 -13.1,13.1 z"
         id="path24"
         inkscape:connector-curvature="0"
         style="fill:#ffffff" /><path
         class="st2"
         d="m 151.2,396.8 c -5.1,0 -9.7,-3.9 -9.7,-9.7 V 355 c 0,-2.2 -1.8,-3.8 -4,-3.8 -2.6,0 -4,1.9 -4,3.8 v 32.1 c 0,9.9 8.2,17.8 17.6,17.8 2.8,0 4.1,-2.2 4.1,-4.2 0,-1.9 -1.5,-3.9 -4,-3.9 z"
         id="path26"
         inkscape:connector-curvature="0"
         style="fill:#ffffff" /><g
         id="g48"><g
           id="g30"><path
             class="st2"
             d="m 187.6,419.3 c -4.8,0 -8.8,4.2 -8.8,8.9 v 7.2 c 0,0.9 0.8,1.6 1.6,1.6 0.9,0 1.7,-0.7 1.7,-1.5 v -7.4 c 0,-2.6 2.3,-5.6 5.5,-5.5 1,0 1.7,-0.8 1.7,-1.7 0,-0.6 -0.5,-1.6 -1.7,-1.6 z"
             id="path28"
             inkscape:connector-curvature="0"
             style="fill:#ffffff" /></g><g
           id="g34"><path
             class="st2"
             d="m 207,428.2 c 0,-4.5 -3.9,-8.8 -8.8,-8.8 -0.1,0 -0.1,0 -0.2,0 -4.6,0 -8.7,3.9 -8.7,8.8 0,4.5 3.9,8.8 8.8,8.8 0.1,0 0.1,0 0.2,0 4.7,0 8.7,-3.9 8.7,-8.8 z m -8.8,5.6 c -3.1,0 -5.6,-2.5 -5.6,-5.5 v -0.2 c 0,-2.5 1.6,-4.5 3.9,-5.2 0.5,-0.2 1.1,-0.3 1.6,-0.3 3.1,0 5.6,2.5 5.6,5.5 v 0.2 c 0,2.5 -1.6,4.5 -3.9,5.2 -0.5,0.2 -1,0.3 -1.6,0.3 z"
             id="path32"
             inkscape:connector-curvature="0"
             style="fill:#ffffff" /></g><g
           id="g38"><path
             class="st2"
             d="m 224.4,419.3 c -1,0 -1.6,0.9 -1.6,1.6 v 7.3 c 0,2.8 -2.4,5.6 -5.6,5.6 -2.6,0 -5.6,-2.3 -5.6,-5.5 V 421 c 0,-0.8 -0.6,-1.6 -1.7,-1.6 -0.8,0 -1.6,0.7 -1.6,1.6 v 7.3 c 0,4.7 4.2,8.8 8.8,8.8 5,0 9,-4.4 9,-8.8 V 421 c 0,-0.8 -0.7,-1.7 -1.7,-1.7 z"
             id="path36"
             inkscape:connector-curvature="0"
             style="fill:#ffffff" /></g><g
           id="g42"><path
             class="st2"
             d="m 236.4,419.3 c -2.1,0 -4.1,0.8 -5.6,2.1 v -0.6 c 0,-0.8 -0.7,-1.5 -1.6,-1.5 -1,0 -1.8,0.9 -1.7,1.6 v 21.4 c 0,0.9 0.8,1.6 1.7,1.6 1,0 1.7,-0.9 1.7,-1.7 V 435 c 1.5,1.3 3.6,2.1 5.6,2.1 4.9,0 8.8,-4.3 8.8,-8.8 -0.1,-5 -4.3,-9 -8.9,-9 z m -0.1,14.5 c -2.8,0 -5.1,-2.1 -5.5,-4.8 v -1.5 c 0.3,-2.7 2.7,-4.8 5.5,-4.8 3.1,0 5.6,2.5 5.6,5.6 0,3.1 -2.5,5.5 -5.6,5.5 z"
             id="path40"
             inkscape:connector-curvature="0"
             style="fill:#ffffff" /></g><g
           id="g46"><path
             class="st2"
             d="m 175.7,419.3 c -0.9,0 -1.6,0.8 -1.6,1.5 v 0.6 c -1.5,-1.3 -3.5,-2.1 -5.6,-2.1 -4.7,0 -8.8,3.9 -8.8,8.9 0,4.5 3.9,8.8 8.8,8.8 2,0 4.1,-0.8 5.6,-2.1 0,0 0,0.7 0.1,0.8 -0.3,2.1 -1.7,3.9 -4.3,4.7 -1.7,0.5 -6.6,-0.6 -7,-0.7 -1.2,-0.2 -1.7,0.8 -1.7,1.7 0,0.7 0.6,1.3 1.7,1.6 1.5,0.4 4,0.8 6.2,0.8 1.7,0 8.2,-1.3 8.5,-8.5 v -14.5 c -0.1,-0.5 -0.9,-1.5 -1.9,-1.5 z m -7.2,14.5 c -3.1,0 -5.6,-2.5 -5.6,-5.6 0,-3.1 2.5,-5.6 5.6,-5.6 3.1,0 5.6,2.5 5.6,5.6 0,3.1 -2.5,5.6 -5.6,5.6 z"
             id="path44"
             inkscape:connector-curvature="0"
             style="fill:#ffffff" /></g></g></g></g></svg>