<?xml version="1.0" encoding="UTF-8"?>
<!-- Generator: Adobe Illustrator 19.0.0, SVG Export Plug-In . SVG Version: 6.00 Build 0)  -->
<svg version="1.1" id="Layer_1" xmlns="http://www.w3.org/2000/svg" xmlns:xlink="http://www.w3.org/1999/xlink" x="0px" y="0px" viewBox="83.5 145.8 376.6 144" style="enable-background:new 83.5 145.8 376.6 144;" xml:space="preserve">
<style type="text/css">
	.st0{fill:#4CD950;}
	.st1{fill:#FFFFFF;}
	.st2{fill:#374146;}
</style>
<path id="circle" class="st0" d="M155.1,173c24.6,0,44.6,20,44.6,44.6c0,24.6-20,44.6-44.6,44.6c-24.6,0-44.6-20-44.6-44.6  S130.5,173,155.1,173z"/>
<g id="form">
	<polygon class="st1" points="138.8,223.2 133.1,228.9 130.3,214.7  "/>
	<path class="st1" d="M149,213.1l-8.7,8.6L129.7,211c-0.2-3.1,2-5.9,5.1-6.5l4.8-0.9L149,213.1z"/>
	<polygon class="st1" points="163.3,199 150.5,211.7 142.1,203.1  "/>
	<path class="st1" d="M177.6,205.1l-6.7,6.7l-8.6-8.7l4.8-4.7l2.7-0.5c3.4-0.7,6.7,1.6,7.4,5L177.6,205.1z"/>
	<polygon class="st1" points="180.8,221.8 172.3,213.3 178.1,207.6  "/>
	<path class="st1" d="M181.4,225.4L181.4,225.4c0.1,3-2,5.7-5.1,6.3l-5,1l-9.2-9.3l8.7-8.6L181.4,225.4z"/>
	<path class="st1" d="M151.9,236.5l-10.5,2c-3.4,0.7-6.7-1.6-7.4-5l-0.4-2.1l6.7-6.7l10.1,10.2L151.9,236.5z"/>
	<polygon class="st1" points="168.9,233.2 158.9,235.1 158.8,235.1 154.4,236 151.9,233.5 157.5,228 160.6,224.8  "/>
	<polygon class="st1" points="169.4,213.2 160.6,221.9 152,213.1 160.7,204.5  "/>
	<path class="st1" d="M152.5,224.4c-0.3,0.5-0.8,0.9-1.4,1.1c-0.1,0-0.1,0-0.2,0c-1.1,0.2-2.3-0.5-2.6-1.6c-0.3-1.2,0.4-2.5,1.6-2.8   c0.1,0,0.1,0,0.2,0c1.2-0.2,2.3,0.5,2.6,1.6C152.8,223.3,152.8,223.9,152.5,224.4z"/>
	<path class="st1" d="M160.6,198.3l-2.7,0.5c-0.4-2.1-2.4-3.4-4.5-3l-4.2,0.8c-2.1,0.4-3.4,2.4-3,4.5l-2.7,0.5   c-0.7-3.5,1.6-7,5.2-7.7l4.2-0.8C156.5,192.4,159.9,194.8,160.6,198.3z"/>
</g>
<g id="text">
	<path class="st2" d="M257.3,234.6h-3.9v-26.1h-0.2l-10.8,25.9h-3.6L228,208.5h-0.2v26.1h-3.9v-33.9h4.9l11.7,28.3h0.2l11.7-28.3   h4.9V234.6z"/>
	<path class="st2" d="M283.9,224.9h-13.5l-3.4,9.7h-4.4l12.5-33.9h4.2l12.5,33.9h-4.4L283.9,224.9z M271.7,221.3h11l-5.4-15.5h-0.1   L271.7,221.3z"/>
	<path class="st2" d="M310,200.7c6.4,0,10.8,4.5,10.8,10.9c0,6.4-4.5,10.9-10.9,10.9h-8.5v12.1h-4.2v-33.9H310z M301.5,218.8h7.5   c4.8,0,7.6-2.7,7.6-7.2c0-4.5-2.7-7.1-7.6-7.1h-7.5V218.8z"/>
	<path class="st2" d="M329.4,225.3c0.4,3.7,3.9,6.1,8.7,6.1c4.6,0,7.9-2.4,7.9-5.8c0-2.9-2-4.6-6.6-5.8l-4.3-1.1   c-6.2-1.6-9-4.3-9-8.9c0-5.6,4.9-9.6,12-9.6c6.7,0,11.6,4,11.8,9.7h-4.2c-0.4-3.6-3.3-5.9-7.7-5.9c-4.4,0-7.4,2.3-7.4,5.6   c0,2.6,1.9,4.1,6.5,5.3l3.5,0.9c7,1.8,9.9,4.5,9.9,9.3c0,6.2-4.9,10.1-12.7,10.1c-7.2,0-12.2-3.9-12.6-9.9H329.4z"/>
	<path class="st2" d="M356.4,232.2c0-1.5,1.2-2.7,2.7-2.7c1.5,0,2.7,1.2,2.7,2.7c0,1.5-1.2,2.7-2.7,2.7   C357.6,234.8,356.4,233.7,356.4,232.2z"/>
	<path class="st2" d="M403.5,234.6h-3.9v-26.1h-0.2l-10.8,25.9H385l-10.8-25.9H374v26.1h-3.9v-33.9h4.9l11.7,28.3h0.2l11.7-28.3h4.9   V234.6z"/>
	<path class="st2" d="M432.7,234.6h-21v-33.9h21v3.8H416v10.9h15.9v3.8H416v11.6h16.8V234.6z"/>
</g>
</svg>