<?xml version="1.0" encoding="UTF-8" standalone="no"?>
<!-- Created with Inkscape (http://www.inkscape.org/) -->

<svg
   xmlns:dc="http://purl.org/dc/elements/1.1/"
   xmlns:cc="http://creativecommons.org/ns#"
   xmlns:rdf="http://www.w3.org/1999/02/22-rdf-syntax-ns#"
   xmlns:svg="http://www.w3.org/2000/svg"
   xmlns="http://www.w3.org/2000/svg"
   xmlns:sodipodi="http://sodipodi.sourceforge.net/DTD/sodipodi-0.dtd"
   xmlns:inkscape="http://www.inkscape.org/namespaces/inkscape"
   width="114.17853"
   height="60.84293"
   viewBox="0 0 30.209735 16.098025"
   version="1.1"
   id="svg1837"
   inkscape:version="0.92.0 r15299"
   sodipodi:docname="delivery hero.svg">
  <defs
     id="defs1831">
    <clipPath
       id="clipPath1076"
       clipPathUnits="userSpaceOnUse">
      <path
         inkscape:connector-curvature="0"
         id="path1074"
         d="M 0,0 H 595.276 V 841.89 H 0 Z" />
    </clipPath>
    <clipPath
       id="clipPath1048"
       clipPathUnits="userSpaceOnUse">
      <path
         inkscape:connector-curvature="0"
         id="path1046"
         d="M 0,0 H 595.276 V 841.89 H 0 Z" />
    </clipPath>
  </defs>
  <sodipodi:namedview
     id="base"
     pagecolor="#ffffff"
     bordercolor="#666666"
     borderopacity="1.0"
     inkscape:pageopacity="0.0"
     inkscape:pageshadow="2"
     inkscape:zoom="5.0897122"
     inkscape:cx="54.550132"
     inkscape:cy="29.921466"
     inkscape:document-units="mm"
     inkscape:current-layer="layer1"
     showgrid="false"
     fit-margin-top="0"
     fit-margin-left="0"
     fit-margin-right="0"
     fit-margin-bottom="0"
     units="px"
     inkscape:window-width="1280"
     inkscape:window-height="744"
     inkscape:window-x="-4"
     inkscape:window-y="-4"
     inkscape:window-maximized="1" />
  <metadata
     id="metadata1834">
    <rdf:RDF>
      <cc:Work
         rdf:about="">
        <dc:format>image/svg+xml</dc:format>
        <dc:type
           rdf:resource="http://purl.org/dc/dcmitype/StillImage" />
        <dc:title></dc:title>
      </cc:Work>
    </rdf:RDF>
  </metadata>
  <g
     inkscape:label="Layer 1"
     inkscape:groupmode="layer"
     id="layer1"
     transform="translate(-67.209802,-150.47941)">
    <g
       id="g1070"
       transform="matrix(0.35277777,0,0,-0.35277777,21.342095,311.36537)">
      <g
         id="g1072"
         clip-path="url(#clipPath1076)">
        <g
           id="g1078"
           transform="translate(130.3937,413.6714)">
          <path
             d="M 0,0 C 0.104,0.481 0.217,0.961 0.312,1.444 0.797,3.923 1.277,6.404 1.76,8.884 1.771,8.942 1.794,8.998 1.815,9.067 1.891,9.071 1.967,9.078 2.043,9.078 3.171,9.078 4.3,9.083 5.428,9.075 6.149,9.07 6.86,8.982 7.538,8.718 7.696,8.657 7.847,8.578 8.044,8.488 7.456,7.922 6.894,7.381 6.332,6.839 6.341,6.822 6.35,6.804 6.359,6.786 7.191,7.087 8.022,7.387 8.865,7.692 9.147,7.284 9.284,6.835 9.322,6.366 9.42,5.144 9.259,3.959 8.718,2.847 7.899,1.161 6.511,0.234 4.686,0.024 3.629,-0.097 2.553,-0.049 1.486,-0.067 0.991,-0.075 0.495,-0.057 0,-0.051 Z M 3.229,2.126 C 4.244,1.976 5.07,2.245 5.652,2.941 6.345,3.769 6.551,4.746 6.421,5.797 6.34,6.46 5.871,6.883 5.199,6.934 4.927,6.954 4.652,6.937 4.38,6.951 4.221,6.959 4.16,6.904 4.13,6.744 3.971,5.888 3.799,5.035 3.631,4.181 3.497,3.497 3.363,2.812 3.229,2.126"
             style="fill:#d82128;fill-opacity:1;fill-rule:nonzero;stroke:none"
             id="path1080"
             inkscape:connector-curvature="0" />
        </g>
        <g
           id="g1082"
           transform="translate(175.5043,410.7975)">
          <path
             d="m 0,0 c -0.171,0.046 -0.341,0.096 -0.514,0.135 -0.163,0.038 -0.223,0.113 -0.181,0.291 0.121,0.515 0.236,1.032 0.332,1.552 0.034,0.181 0.114,0.218 0.275,0.212 C 0.151,2.18 0.391,2.192 0.63,2.187 1.038,2.178 1.302,2.409 1.507,2.72 1.548,2.783 1.532,2.9 1.512,2.984 0.989,5.123 0.831,7.3 0.829,9.494 c 0,0.041 0.007,0.082 0.013,0.145 h 2.61 C 3.483,8.265 3.514,6.898 3.546,5.531 3.578,5.527 3.609,5.524 3.641,5.52 3.678,5.592 3.723,5.66 3.75,5.735 4.2,6.961 4.652,8.186 5.09,9.416 5.154,9.598 5.228,9.669 5.426,9.665 6.127,9.653 6.829,9.661 7.53,9.66 7.612,9.66 7.694,9.652 7.79,9.647 7.78,9.588 7.78,9.554 7.768,9.524 6.938,7.399 6.076,5.288 4.881,3.333 4.38,2.515 3.824,1.736 3.097,1.096 2.448,0.522 1.711,0.133 0.834,0.046 0.795,0.042 0.757,0.016 0.718,0 Z"
             style="fill:#d82128;fill-opacity:1;fill-rule:nonzero;stroke:none"
             id="path1084"
             inkscape:connector-curvature="0" />
        </g>
        <g
           id="g1086"
           transform="translate(215.2776,417.5717)">
          <path
             d="m 0,0 c -0.052,-0.284 -0.097,-0.57 -0.158,-0.852 -0.45,-2.078 -1.945,-3.306 -4.07,-3.351 -0.592,-0.012 -1.178,0.02 -1.746,0.208 -0.932,0.31 -1.495,1.029 -1.565,2.011 -0.093,1.302 0.147,2.522 0.948,3.583 0.764,1.013 1.838,1.433 3.067,1.517 0.607,0.041 1.213,0.009 1.801,-0.169 C -0.75,2.651 -0.188,2.003 -0.052,0.99 -0.044,0.933 -0.018,0.877 0,0.821 Z m -2.74,0.061 c 0,0.102 0.007,0.205 -10e-4,0.306 -0.038,0.495 -0.245,0.68 -0.741,0.669 -0.386,-0.008 -0.666,-0.207 -0.863,-0.516 -0.408,-0.644 -0.532,-1.36 -0.479,-2.108 0.023,-0.325 0.227,-0.492 0.555,-0.531 0.506,-0.061 0.854,0.169 1.098,0.588 0.285,0.491 0.388,1.033 0.431,1.592"
             style="fill:#d82128;fill-opacity:1;fill-rule:nonzero;stroke:none"
             id="path1088"
             inkscape:connector-curvature="0" />
        </g>
        <g
           id="g1090"
           transform="translate(178.6111,455.6797)">
          <path
             d="m 0,0 c 5.219,-0.018 9.665,-3.714 10.627,-8.851 1.096,-5.85 -2.836,-11.506 -8.697,-12.59 -2.123,-0.393 -4.222,-0.918 -6.331,-1.387 -3.026,-0.673 -6.051,-1.35 -9.076,-2.025 -0.075,-0.017 -0.152,-0.04 -0.227,-0.035 -0.197,0.012 -0.261,0.192 -0.143,0.402 0.423,0.752 0.853,1.5 1.268,2.257 0.061,0.111 0.107,0.289 0.06,0.388 -0.083,0.176 -0.266,0.093 -0.411,0.047 -3.428,-1.082 -6.856,-2.166 -10.284,-3.249 -0.04,-0.013 -0.083,-0.038 -0.122,-0.034 -0.107,0.012 -0.212,0.036 -0.318,0.055 0.036,0.094 0.049,0.211 0.113,0.281 1.222,1.328 2.45,2.65 3.677,3.973 1.187,1.279 2.374,2.557 3.561,3.835 0.035,0.038 0.072,0.074 0.103,0.115 0.16,0.208 0.092,0.384 -0.17,0.412 -0.255,0.028 -0.512,0.036 -0.768,0.051 -0.674,0.04 -1.348,0.072 -2.022,0.123 -0.132,0.01 -0.259,0.086 -0.389,0.131 0.056,0.124 0.084,0.274 0.172,0.368 1.764,1.899 3.534,3.791 5.303,5.684 2.044,2.187 4.083,4.378 6.131,6.56 1.846,1.966 4.112,3.105 6.793,3.408 C -0.769,-0.038 -0.384,-0.026 0,0 m -4.871,-7.136 c -0.254,-0.002 -0.323,-0.151 -0.214,-0.402 0.452,-1.033 0.897,-2.069 1.364,-3.094 0.108,-0.237 0.087,-0.354 -0.129,-0.515 -3.908,-2.91 -7.808,-5.829 -11.707,-8.75 -0.091,-0.069 -0.15,-0.182 -0.224,-0.274 0.122,0.015 0.257,0.002 0.366,0.049 4.538,1.94 9.074,3.884 13.608,5.835 0.182,0.078 0.277,0.059 0.403,-0.092 0.743,-0.894 1.496,-1.781 2.253,-2.663 0.068,-0.079 0.209,-0.168 0.288,-0.147 0.079,0.021 0.155,0.166 0.179,0.27 0.259,1.14 0.512,2.282 0.754,3.426 0.035,0.167 0.112,0.25 0.259,0.308 0.508,0.202 1.013,0.41 1.52,0.616 0.577,0.235 1.156,0.465 1.729,0.711 0.097,0.042 0.222,0.149 0.228,0.234 0.006,0.082 -0.122,0.176 -0.198,0.26 -0.027,0.03 -0.072,0.044 -0.109,0.066 C 4.54,-10.739 3.582,-10.176 2.62,-9.622 2.467,-9.533 2.383,-9.44 2.371,-9.25 2.298,-8.108 2.214,-6.965 2.121,-5.824 2.11,-5.697 2.015,-5.576 1.959,-5.452 1.842,-5.506 1.704,-5.535 1.611,-5.617 c -0.855,-0.75 -1.703,-1.507 -2.548,-2.268 -0.133,-0.119 -0.251,-0.16 -0.435,-0.113 -0.901,0.234 -1.806,0.451 -2.709,0.673 -0.274,0.067 -0.548,0.131 -0.79,0.189"
             style="fill:#d82128;fill-opacity:1;fill-rule:nonzero;stroke:none"
             id="path1092"
             inkscape:connector-curvature="0" />
        </g>
        <g
           id="g1094"
           transform="translate(192.6537,422.7401)">
          <path
             d="M 0,0 H 2.772 C 2.724,-0.271 2.684,-0.526 2.634,-0.779 2.112,-3.461 1.585,-6.143 1.07,-8.826 1.025,-9.059 0.951,-9.152 0.695,-9.145 c -0.726,0.02 -1.453,0.007 -2.18,0.007 h -0.311 c 0.225,1.167 0.443,2.301 0.667,3.469 h -0.615 c -0.522,-0.001 -1.044,-0.011 -1.565,0.005 -0.202,0.006 -0.263,-0.075 -0.296,-0.253 -0.184,-0.982 -0.381,-1.961 -0.56,-2.944 -0.038,-0.204 -0.107,-0.286 -0.327,-0.282 -0.752,0.013 -1.505,0.005 -2.258,0.006 -0.075,0 -0.151,0.008 -0.263,0.015 0.086,0.457 0.166,0.897 0.252,1.337 0.49,2.515 0.984,5.028 1.469,7.544 0.035,0.18 0.087,0.259 0.29,0.256 0.778,-0.013 1.556,-0.005 2.334,-0.006 0.067,0 0.135,-0.008 0.225,-0.014 -0.212,-1.084 -0.42,-2.153 -0.633,-3.246 0.106,-0.008 0.18,-0.017 0.254,-0.017 0.642,-0.002 1.283,0.004 1.924,-0.005 0.177,-0.002 0.254,0.048 0.289,0.232 0.176,0.949 0.368,1.894 0.556,2.841 C -0.04,-0.135 -0.019,-0.071 0,0"
             style="fill:#d82128;fill-opacity:1;fill-rule:nonzero;stroke:none"
             id="path1096"
             inkscape:connector-curvature="0" />
        </g>
        <g
           id="g1098"
           transform="translate(145.8303,415.6488)">
          <path
             d="m 0,0 c 0,-0.596 0.006,-1.185 -0.009,-1.772 -0.002,-0.062 -0.124,-0.159 -0.201,-0.172 -0.706,-0.119 -1.412,-0.27 -2.124,-0.317 -0.582,-0.038 -1.181,0.007 -1.76,0.098 -1.095,0.171 -1.671,0.779 -1.772,1.88 -0.112,1.228 0.104,2.405 0.743,3.477 0.705,1.184 1.784,1.755 3.133,1.845 0.609,0.041 1.214,0.006 1.8,-0.188 C 0.482,4.629 0.974,4.22 1.11,3.501 1.253,2.744 1.064,2.074 0.466,1.553 -0.087,1.072 -0.756,0.838 -1.459,0.709 -1.987,0.611 -2.525,0.562 -3.06,0.511 -3.232,0.495 -3.277,0.427 -3.279,0.274 c -0.005,-0.313 0.143,-0.499 0.478,-0.564 0.617,-0.118 1.227,-0.026 1.834,0.077 C -0.649,-0.159 -0.336,-0.075 0,0 m -2.924,2.132 c 0.429,10e-4 0.849,0.031 1.236,0.235 0.29,0.154 0.405,0.396 0.314,0.622 C -1.461,3.203 -1.738,3.31 -2.033,3.245 -2.497,3.143 -2.895,2.655 -2.924,2.132"
             style="fill:#d82128;fill-opacity:1;fill-rule:nonzero;stroke:none"
             id="path1100"
             inkscape:connector-curvature="0" />
        </g>
        <g
           id="g1102"
           transform="translate(168.6214,415.6362)">
          <path
             d="M 0,0 C 0,-0.574 -0.006,-1.147 0.004,-1.719 0.007,-1.893 -0.107,-1.921 -0.22,-1.939 -0.927,-2.052 -1.633,-2.2 -2.344,-2.25 c -0.558,-0.038 -1.13,0.005 -1.684,0.09 -1.156,0.177 -1.723,0.745 -1.833,1.903 -0.127,1.346 0.139,2.625 0.931,3.751 0.709,1.007 1.723,1.474 2.928,1.557 0.608,0.042 1.213,0.008 1.8,-0.183 C 0.479,4.647 0.975,4.235 1.115,3.504 1.264,2.721 1.046,2.045 0.424,1.528 -0.202,1.008 -0.958,0.794 -1.74,0.665 -2.177,0.593 -2.621,0.556 -3.064,0.522 -3.222,0.51 -3.269,0.445 -3.278,0.305 c -0.021,-0.312 0.14,-0.554 0.486,-0.574 0.5,-0.03 1.006,-0.023 1.505,0.024 C -0.866,-0.206 -0.451,-0.089 0,0 m -2.934,2.096 c 0.388,0.074 0.746,0.127 1.095,0.215 0.132,0.034 0.262,0.131 0.36,0.231 0.258,0.265 0.136,0.647 -0.229,0.719 C -1.82,3.283 -1.947,3.272 -2.06,3.245 -2.509,3.138 -2.866,2.694 -2.934,2.096"
             style="fill:#d82128;fill-opacity:1;fill-rule:nonzero;stroke:none"
             id="path1104"
             inkscape:connector-curvature="0" />
        </g>
        <g
           id="g1106"
           transform="translate(197.8468,416.126)">
          <path
             d="m 0,0 c -0.103,-0.484 0.032,-0.705 0.492,-0.775 0.837,-0.127 1.649,0.043 2.458,0.234 0.082,0.02 0.163,0.042 0.271,0.07 0,-0.609 0.007,-1.198 -0.009,-1.786 C 3.21,-2.318 3.084,-2.414 3.004,-2.427 2.315,-2.544 1.627,-2.689 0.932,-2.738 0.374,-2.777 -0.2,-2.746 -0.753,-2.658 c -1.257,0.202 -1.78,0.758 -1.886,2.016 -0.107,1.259 0.152,2.454 0.85,3.522 0.707,1.082 1.75,1.617 3.018,1.671 C 1.793,4.575 2.376,4.52 2.928,4.397 3.69,4.227 4.228,3.758 4.358,2.938 4.488,2.12 4.209,1.456 3.552,0.959 2.936,0.492 2.212,0.29 1.463,0.172 0.983,0.096 0.497,0.057 0,0 M 0.295,1.656 C 0.727,1.654 1.132,1.687 1.507,1.871 1.611,1.922 1.71,2.003 1.783,2.092 1.978,2.329 1.902,2.636 1.613,2.735 1.477,2.781 1.308,2.784 1.165,2.752 0.716,2.652 0.377,2.221 0.295,1.656"
             style="fill:#d82128;fill-opacity:1;fill-rule:nonzero;stroke:none"
             id="path1108"
             inkscape:connector-curvature="0" />
        </g>
        <g
           id="g1110"
           transform="translate(158.7304,420.4459)">
          <path
             d="m 0,0 c 0.054,-1.392 0.107,-2.74 0.161,-4.087 0.001,-0.011 0.023,-0.021 0.063,-0.057 0.137,0.318 0.286,0.621 0.401,0.936 0.363,0.994 0.72,1.99 1.065,2.991 0.061,0.176 0.14,0.235 0.324,0.233 C 2.808,0.007 3.602,0.012 4.418,0.012 4.399,-0.069 4.394,-0.127 4.373,-0.178 3.488,-2.383 2.507,-4.543 1.365,-6.628 1.275,-6.792 1.176,-6.852 0.988,-6.85 c -0.915,0.01 -1.83,0.004 -2.745,0.004 h -0.289 c -0.104,0.689 -0.22,1.36 -0.304,2.034 -0.187,1.504 -0.252,3.014 -0.236,4.529 0.003,0.237 0.076,0.304 0.307,0.3 C -1.587,0.004 -0.894,0.013 -0.201,0.012 -0.118,0.011 -0.035,0.002 0,0"
             style="fill:#d82128;fill-opacity:1;fill-rule:nonzero;stroke:none"
             id="path1112"
             inkscape:connector-curvature="0" />
        </g>
        <g
           id="g1114"
           transform="translate(147.4446,413.497)">
          <path
             d="M 0,0 C 0.202,0.945 0.394,1.846 0.586,2.747 1.04,4.876 1.497,7.004 1.944,9.134 1.989,9.349 2.075,9.465 2.29,9.539 3.112,9.824 3.925,10.132 4.79,10.45 4.701,10.016 4.621,9.62 4.537,9.225 3.892,6.229 3.248,3.233 2.596,0.238 2.577,0.151 2.488,0.011 2.429,0.01 1.635,-0.005 0.842,0 0,0"
             style="fill:#d82128;fill-opacity:1;fill-rule:nonzero;stroke:none"
             id="path1116"
             inkscape:connector-curvature="0" />
        </g>
        <g
           id="g1118"
           transform="translate(205.7188,419.5875)">
          <path
             d="M 0,0 C 0.598,0.794 1.317,1.304 2.403,1.051 2.163,0.198 1.926,-0.644 1.684,-1.504 1.561,-1.491 1.452,-1.487 1.346,-1.467 0.839,-1.375 0.461,-1.565 0.184,-1.985 -0.1,-2.417 -0.203,-2.91 -0.298,-3.406 -0.452,-4.203 -0.604,-5 -0.768,-5.794 c -0.015,-0.073 -0.115,-0.182 -0.177,-0.183 -0.819,-0.012 -1.639,-0.008 -2.501,-0.008 0.086,0.455 0.165,0.888 0.249,1.319 0.338,1.744 0.683,3.487 1.012,5.233 0.045,0.24 0.131,0.322 0.378,0.31 C -1.363,0.855 -0.918,0.871 -0.473,0.871 -0.117,0.87 -0.118,0.87 -0.098,0.502 -0.09,0.343 -0.077,0.184 -0.066,0.025 -0.044,0.017 -0.022,0.008 0,0"
             style="fill:#d82128;fill-opacity:1;fill-rule:nonzero;stroke:none"
             id="path1120"
             inkscape:connector-curvature="0" />
        </g>
        <g
           id="g1122"
           transform="translate(173.212,419.5267)">
          <path
             d="M 0,0 C 0.649,0.836 1.361,1.377 2.453,1.105 2.328,0.658 2.206,0.226 2.085,-0.207 1.988,-0.552 1.882,-0.895 1.8,-1.244 1.758,-1.419 1.674,-1.458 1.51,-1.429 1.36,-1.402 1.204,-1.383 1.052,-1.391 0.689,-1.412 0.439,-1.626 0.244,-1.914 c -0.325,-0.481 -0.415,-1.041 -0.522,-1.595 -0.141,-0.729 -0.279,-1.458 -0.419,-2.188 -0.023,-0.121 -0.042,-0.23 -0.212,-0.229 -0.795,0.007 -1.59,0.005 -2.385,0.007 -0.024,0 -0.048,0.014 -0.097,0.029 0.124,0.642 0.246,1.285 0.371,1.926 0.301,1.542 0.607,3.083 0.9,4.626 0.039,0.21 0.116,0.281 0.331,0.274 C -1.311,0.92 -0.832,0.923 -0.353,0.935 -0.157,0.94 -0.05,0.901 -0.054,0.676 -0.058,0.482 -0.025,0.288 0,0"
             style="fill:#d82128;fill-opacity:1;fill-rule:nonzero;stroke:none"
             id="path1124"
             inkscape:connector-curvature="0" />
        </g>
        <g
           id="g1126"
           transform="translate(151.5345,413.6003)">
          <path
             d="M 0,0 C 0.168,0.865 0.324,1.685 0.487,2.505 0.754,3.853 1.031,5.199 1.292,6.549 1.337,6.778 1.411,6.872 1.666,6.865 2.425,6.845 3.185,6.858 3.985,6.858 3.896,6.382 3.813,5.934 3.726,5.487 3.389,3.752 3.047,2.019 2.716,0.283 2.675,0.07 2.595,-0.01 2.369,-0.006 1.593,0.009 0.816,0 0,0"
             style="fill:#d82128;fill-opacity:1;fill-rule:nonzero;stroke:none"
             id="path1128"
             inkscape:connector-curvature="0" />
        </g>
        <g
           id="g1130"
           transform="translate(156.0503,422.6103)">
          <path
             d="m 0,0 c -0.005,-0.94 -0.641,-1.551 -1.602,-1.542 -0.845,0.008 -1.419,0.562 -1.408,1.361 0.012,0.915 0.668,1.543 1.598,1.53 C -0.549,1.338 0.005,0.809 0,0"
             style="fill:#d82128;fill-opacity:1;fill-rule:nonzero;stroke:none"
             id="path1132"
             inkscape:connector-curvature="0" />
        </g>
      </g>
    </g>
  </g>
</svg>
