<?xml version="1.0" encoding="utf-8"?>
<!-- Generator: Adobe Illustrator 22.0.1, SVG Export Plug-In . SVG Version: 6.00 Build 0)  -->
<svg version="1.1" id="Layer_1" xmlns="http://www.w3.org/2000/svg" xmlns:xlink="http://www.w3.org/1999/xlink" x="0px" y="0px"
	 viewBox="0 0 180 53" style="enable-background:new 0 0 180 53;" xml:space="preserve">
<style type="text/css">
	.st0{fill:#FF1E36;}
	.st1{fill:#FFFFFF;}
</style>
<g>
	<rect class="st0" width="180" height="53"/>
	<path class="st1" d="M69.8,34H67l-4.4-6.6c-0.5-0.8-1.2-2-1.6-2.6l-0.1,0.1c0.1,0.3,0.1,1.4,0.1,2.5l0,6.6h-2.8V20.3h2.6l4.6,6.9
		c0.7,1.1,1.3,2.2,1.5,2.6l0.1-0.1c-0.1-0.4-0.1-1.4-0.1-2.6l0-6.9h2.9V34z"/>
	<path class="st1" d="M74.6,28.3h4.1c0-1.2-0.7-2-1.9-2C75.7,26.2,74.8,27,74.6,28.3 M79.9,30.8l1.3,1.6c-0.7,0.9-2.1,1.7-4.2,1.7
		c-3.3,0-5.2-2.1-5.2-5c0-2.9,2-5,5-5c2.9,0,4.5,1.9,4.5,4.6c0,0.6-0.1,1-0.1,1h-6.6c0.2,1.3,1.2,2.2,2.8,2.2
		C78.8,32,79.5,31.3,79.9,30.8"/>
	<path class="st1" d="M90.5,33.4c0,0-1,0.7-2.9,0.7c-2.6,0-3.9-1.4-3.9-4.2v-3.6h-1.5v-2.2h1.6v-2.8l2.7-0.1v2.9h3.4v2.2h-3.4v3.5
		c0,1.3,0.5,1.9,1.6,1.9c1,0,1.6-0.5,1.6-0.5L90.5,33.4z"/>
	<path class="st1" d="M99.7,25.1c0-1.6-1-2.5-3-2.5h-1.7v5.1h1.8C98.6,27.7,99.7,26.8,99.7,25.1 M102.6,25.1c0,3.2-2.3,4.9-5.3,4.9
		h-2.4v4H92V20.3h4.9C100.5,20.3,102.6,21.9,102.6,25.1"/>
	<path class="st1" d="M104.3,24.2l2.8-0.1V34h-2.8V24.2z M105.7,22.8c-1,0-1.8-0.7-1.8-1.8c0-1,0.8-1.8,1.8-1.8c1,0,1.8,0.7,1.8,1.8
		C107.5,22.1,106.7,22.8,105.7,22.8"/>
	<path class="st1" d="M118.9,28v6h-2.8v-5.5c0-1.2-0.6-2-1.7-2c-1.4,0-2.1,1.3-2.1,2.4V34h-2.8v-9.8l2.2-0.1
		c0.2,0.6,0.4,1.6,0.4,2.1h0.1c0.5-1.2,1.4-2.1,3.2-2.1C117.7,24.1,118.9,25.8,118.9,28"/>
	<path class="st1" d="M129.8,27.5c0,0.4-0.1,0.7-0.1,0.7l-2.5,0.1c0,0,0-0.2,0-0.4c0-0.8-0.5-1.6-1.6-1.6c-1.3,0-2.1,1.1-2.1,2.6
		c0,1.7,0.8,2.8,2.5,2.8c1.5,0,2.4-0.8,2.7-1.1l1.4,1.8c-0.6,0.8-2,1.7-4.2,1.7c-3.3,0-5.2-2.1-5.2-5c0-3,2.1-5.1,5.1-5.1
		C128.2,24.1,129.8,25.6,129.8,27.5"/>
	<path class="st1" d="M137.1,22.8l-2.5,0.1l1.2-3.5h3.4L137.1,22.8z M134,28.3h4.1c0-1.2-0.7-2-1.9-2C135,26.2,134.2,27,134,28.3
		 M139.3,30.8l1.3,1.6c-0.7,0.9-2.1,1.7-4.2,1.7c-3.3,0-5.2-2.1-5.2-5c0-2.9,2-5,5-5c2.9,0,4.5,1.9,4.5,4.6c0,0.6-0.1,1-0.1,1H134
		c0.2,1.3,1.2,2.2,2.8,2.2C138.1,32,138.9,31.3,139.3,30.8"/>
	<path class="st1" d="M149.2,24.4l-0.7,2.7c-0.3-0.2-0.7-0.4-1.1-0.4c-1.1,0-2,0.9-2,2.5V34h-2.8v-9.8l2.2-0.1
		c0.2,0.6,0.4,1.7,0.4,2.2h0.1c0.4-1.2,1.1-2.2,2.6-2.2C148.3,24.1,148.8,24.2,149.2,24.4"/>
	<path class="st1" d="M39.9,24.7l-7.9-4.2c-0.4-0.2-1,0.1-1,0.6v12.3c0,0.5,0.5,0.8,1,0.6l7.9-4.2c0.1-0.1,0.2-0.2,0.2-0.3V25
		C40.1,24.9,40.1,24.7,39.9,24.7"/>
	<path class="st1" d="M53.6,20.4l-7.9,4.3c-0.1,0.1-0.2,0.2-0.2,0.3v4.3c0,0.1,0.1,0.3,0.2,0.3l7.9,4.3c0.4,0.2,1-0.1,1-0.6V21
		C54.5,20.5,54,20.2,53.6,20.4"/>
	<rect x="41.1" y="25.5" class="st1" width="3.4" height="3.4"/>
</g>
</svg>
