<svg xmlns="http://www.w3.org/2000/svg" width="1920" height="1200" viewBox="0 0 1920 1200"><title>Asset 1</title><g fill="#EE2C43" stroke="#000" stroke-miterlimit="10"><path d="M352.333 987.917c-60.31 0-101.865 43.196-101.865 106.657S293.253 1200 355.002 1200c34.23 0 62.98-9.585 85.846-30.602l-22.522-24.713c-5.716-4.987-13.972-5.785-20.537-1.985-11.905 7.077-25.45 10.923-39.296 11.16-23.48 0-42.513-10.68-50.043-35.052l141.366-9.38c.606-5.2.858-10.44.754-15.676-.548-62.775-40.185-105.835-98.237-105.835zm-46.14 90.022c4.654-28.068 20.194-43.197 45.73-43.197 22.248 0 37.377 13.28 43.06 36.898l-88.79 6.3zM1177.183 987.917c-62.57 0-108.71 45.32-108.71 106.04 0 60.724 46.14 106.043 108.71 106.043 62.57 0 109.122-45.32 109.122-106.042 0-60.72-46.483-106.04-109.122-106.04zm0 161.56c-30.6 0-53.396-22.864-53.396-55.52s22.864-55.45 53.396-55.45c30.644 1.076 54.613 26.79 53.537 57.435-1.024 29.132-24.404 52.512-53.537 53.536zM1419.113 1071.3l-17.867-2.67c-18.278-2.74-32.86-5.614-32.86-17.253 0-11.638 10.406-18.278 30.943-18.278 17.48.652 34.726 4.264 51 10.68 0 0 13.69 4.586 18.347-6.094l13.145-30.327c-26.114-13.07-55.006-19.625-84.204-19.1-53.055 0-85.024 24.508-85.024 65.855 0 34.23 23.07 54.767 69.622 61.133l16.43 2.26c23.275 3.354 33.544 8.763 33.544 18.483 0 11.844-12.117 18.896-37.24 18.896-20.288.443-40.356-4.268-58.327-13.69-5.545-3.104-12.555-1.184-15.745 4.312l-15.95 30.67c26.22 18.483 62.16 23.686 89.61 23.686 58.464 0 92.487-26.835 92.487-68.458.067-33.888-24.235-53.466-67.912-60.107zM760.616 894.267c-19.17 0-34.708 15.54-34.708 34.708 0 19.17 15.54 34.708 34.71 34.708 19.088 0 34.593-15.415 34.706-34.503.38-18.9-14.634-34.53-33.534-34.91-.392-.008-.782-.01-1.174-.003zM766.16 993.394h-32.928v179.84c0 11.91 9.655 21.563 21.564 21.563h33.202v-179.84c0-11.91-9.652-21.564-21.563-21.565-.09 0-.182 0-.274.002zM663.063 915.49h-32.518v98.853c-14.546-17.55-36.44-27.32-59.216-26.425-55.52 0-97.485 45.524-97.485 106.04S515.81 1200 571.33 1200c23.292.87 45.636-9.275 60.312-27.384v.685c0 11.91 9.654 21.565 21.563 21.565h31.423V937.053c0-11.91-9.655-21.564-21.565-21.564zm-81.67 233.988c-31.832 0-51.96-24.713-51.96-55.52 0-30.806 20.128-55.45 51.96-55.45 31.833 0 51.96 23.686 51.96 55.45s-21.017 55.52-51.96 55.52zM1013.227 915.49h-32.45v98.853c-14.552-17.542-36.44-27.31-59.216-26.425-55.45 0-97.483 45.524-97.483 106.04S866.11 1200 921.56 1200c23.294.87 45.637-9.275 60.313-27.384v.685c0 11.91 9.655 21.565 21.564 21.565h31.422V937.053c0-11.91-9.655-21.564-21.564-21.564h-.07zm-81.466 233.988c-31.764 0-51.958-24.713-51.958-55.52 0-30.806 20.194-55.45 51.96-55.45s52.027 23.686 52.027 55.45-21.29 55.52-52.03 55.52zM1873.06 993.394c-11.91-.038-21.596 9.586-21.634 21.495v.068c-14.45-17.746-36.343-27.744-59.217-27.04-55.45 0-97.484 45.523-97.484 106.04S1736.76 1200 1792.21 1200c23.292.87 45.636-9.275 60.312-27.384v.685c0 11.91 9.654 21.565 21.563 21.565h31.423v-201.47h-32.45zm-70.856 156.084c-31.765 0-51.96-24.713-51.96-55.52 0-30.806 20.195-55.45 51.96-55.45s51.96 23.686 51.96 55.45-20.948 55.52-51.89 55.52h-.07zM1687.674 915.49c-10.81-1.308-21.23 4.497-25.81 14.375l-64.69 109.122-64.625-109.122c-4.597-9.862-15.005-15.66-25.81-14.376h-50.934l112.066 176.073v81.67c0 11.91 9.654 21.564 21.563 21.564h36.42V1092.11l110.628-176.28-48.81-.34zM72.477 1173.233v-61.612h61.064c69.007 0 106.043-42.032 106.043-97.894 0-55.862-36.967-98.374-106.452-98.374H14.425v279.31h36.42c11.883.036 21.557-9.547 21.633-21.43zm59.627-114.462H72.408v-89.884h59.695c31.627 0 47.92 18.963 47.92 44.977s-16.36 44.908-47.92 44.908zM1049.714 295.67c4.107 11.98 17.525 17.936 33.887 12.39 86.47-30.046 176.02-50.366 266.987-60.584.616-8.49 1.026-17.184 1.026-26.015 0-5.886 0-11.705-.684-17.455-96.53 8.85-191.602 29.542-283.075 61.612-16.02 5.682-22.385 17.8-18.14 30.053zM886.99 233.373c12.596-41.075 26.903-90.502 98.716-115.694 88.105-30.875 230.087-38.474 317.85-34.23C1259.95 32.038 1187.247 0 1087.437 0H844.202c-30.19 0-45.32 18.552-51.48 41.622l-76.057 316.892c23.307-6.017 46.016-14.15 67.842-24.303 55.724-26.15 86.326-48.055 102.48-100.837z"/><path d="M1020.757 193.667c3.628 12.323 16.43 19.237 31.627 14.924 95.096-26.823 193.034-42.288 291.77-46.07-3.594-14.366-8.735-28.3-15.336-41.555-115.968 3.354-217.423 20.127-290.33 43.197-12.663 2.617-20.807 15.004-18.19 27.667.128.618.28 1.23.46 1.837zM1072.99 386.034c-107.205 42.444-129.317-32.654-204.21-8.49-72.087 23.277-135.958 64.968-180.798 100.36l-29.3 122.13c-4.587 18.14 5.134 36.146 25.67 36.146h131.03c29.505 0 38.61-12.597 45.318-35.256l24.166-95.362h135.547c179.977 0 294.37-83.177 323.875-214.41-124.456 24.576-219.817 74.482-271.298 94.882z"/></g></svg>