<?xml version="1.0" encoding="utf-8"?>
<!-- Generator: Adobe Illustrator 21.0.2, SVG Export Plug-In . SVG Version: 6.00 Build 0)  -->
<svg version="1.1" id="Layer_1" xmlns="http://www.w3.org/2000/svg" xmlns:xlink="http://www.w3.org/1999/xlink" x="0px" y="0px"
	 viewBox="0 0 152 30" style="enable-background:new 0 0 152 30;" xml:space="preserve">
<style type="text/css">
	.st0{fill:#FEFEFE;}
</style>
<g id="home---gcc">
	<g id="home" transform="translate(-220.000000, -15.000000)">
		<g id="header">
			<g id="top-header">
				<g id="logos_x2F_logo_x5F_negative" transform="translate(220.000000, 15.000000)">
					<g id="Group-13">
						<path id="Fill-3" class="st0" d="M149.9,24.2l1.8,3.6c-1.7,1.1-3.8,2.1-6.4,2.1c-4.7,0-7.5-2.5-7.5-8.1v-9.1h-4.2V8.5h4.2V0.4
							h4.6v8.1h8v4.1h-8v9c0,2.8,1.5,3.9,3.3,3.9C147.1,25.6,148.6,24.9,149.9,24.2z M0,0.4h24.7v4.6h-9.9v24.2H9.9V5.1H0V0.4z
							 M48.6,29.3V0.4h4.6v28.9H48.6z"/>
						<path id="Fill-5" class="st0" d="M119.3,25.9c-4.3,0-6.6-3.2-6.6-7s2.3-7,6.6-7c3.9,0,6.6,3.2,6.6,7S123.2,25.9,119.3,25.9
							L119.3,25.9z M125.5,10.1l-0.2,0.2l-0.2-0.2c-1.4-1.4-3.6-2.3-5.9-2.3c-5.9,0-10.9,4.5-10.9,11.1s5,11.1,10.9,11.1
							c2.3,0,4.5-0.9,5.9-2.3l0.2-0.2l0.2,0.2l0.5,1.8h4.1V8.3h-4.1L125.5,10.1z"/>
						<path id="Fill-7" class="st0" d="M68.2,25.9c-4.3,0-6.6-3.2-6.6-7s2.3-7,6.6-7c3.9,0,6.6,3.2,6.6,7S72.1,25.9,68.2,25.9
							L68.2,25.9z M74.4,10.1l-0.2,0.2l-0.2-0.2c-1.4-1.4-3.6-2.3-5.9-2.3c-5.9,0-10.9,4.5-10.9,11.1S62.1,30,68,30
							c2.3,0,4.5-0.9,5.9-2.3l0.2-0.2l0.2,0.2l0.5,1.8h4.1V8.3h-4.1L74.4,10.1z"/>
						<path id="Fill-9" class="st0" d="M32.9,25.9c-4.3,0-6.6-3.2-6.6-7s2.3-7,6.6-7c3.9,0,6.6,3.2,6.6,7S36.8,25.9,32.9,25.9
							L32.9,25.9z M39.1,10.1l-0.2,0.2l-0.2-0.2c-1.4-1.4-3.6-2.3-5.9-2.3c-5.9,0-10.9,4.5-10.9,11.1S26.8,30,32.7,30
							c2.3,0,4.5-0.9,5.9-2.3l0.2-0.2l0.2,0.2l0.5,1.8h4.1V8.3h-4.1L39.1,10.1z"/>
						<path id="Fill-11" class="st0" d="M94.2,25.9c-3.9,0-6.6-3.2-6.6-7s2.7-7,6.6-7c4.3,0,6.6,3.2,6.6,7S98.5,25.9,94.2,25.9
							 M94.4,7.8c-2.3,0-4.5,0.9-5.9,2.3l-0.2,0.2L88,10.1l0-9.7h-4.5v29.1h4.1l0.5-1.8l0.2-0.2l0.2,0.2c1.4,1.4,3.6,2.3,5.9,2.3
							c5.9,0,10.9-4.5,10.9-11.1S100.3,7.8,94.4,7.8"/>
					</g>
				</g>
			</g>
		</g>
	</g>
</g>
</svg>
