<?xml version="1.0" encoding="UTF-8" standalone="no"?>
<!-- Created with Inkscape (http://www.inkscape.org/) -->

<svg
   xmlns:dc="http://purl.org/dc/elements/1.1/"
   xmlns:cc="http://creativecommons.org/ns#"
   xmlns:rdf="http://www.w3.org/1999/02/22-rdf-syntax-ns#"
   xmlns:svg="http://www.w3.org/2000/svg"
   xmlns="http://www.w3.org/2000/svg"
   xmlns:sodipodi="http://sodipodi.sourceforge.net/DTD/sodipodi-0.dtd"
   xmlns:inkscape="http://www.inkscape.org/namespaces/inkscape"
   version="1.1"
   id="svg2"
   width="31.68"
   height="31.68"
   viewBox="0 0 31.68 31.68"
   sodipodi:docname="facebook-dating.svg"
   inkscape:version="0.92.3 (2405546, 2018-03-11)">
  <metadata
     id="metadata8">
    <rdf:RDF>
      <cc:Work
         rdf:about="">
        <dc:format>image/svg+xml</dc:format>
        <dc:type
           rdf:resource="http://purl.org/dc/dcmitype/StillImage" />
        <dc:title></dc:title>
      </cc:Work>
    </rdf:RDF>
  </metadata>
  <defs
     id="defs6" />
  <sodipodi:namedview
     pagecolor="#ffffff"
     bordercolor="#666666"
     borderopacity="1"
     objecttolerance="10"
     gridtolerance="10"
     guidetolerance="10"
     inkscape:pageopacity="0"
     inkscape:pageshadow="2"
     inkscape:window-width="1920"
     inkscape:window-height="1046"
     id="namedview4"
     showgrid="false"
     inkscape:zoom="7.4494949"
     inkscape:cx="-23.458042"
     inkscape:cy="-25.609144"
     inkscape:window-x="0"
     inkscape:window-y="34"
     inkscape:window-maximized="1"
     inkscape:current-layer="svg2" />
  <path
     inkscape:connector-curvature="0"
     id="path4757"
     d="m 14.84452,27.16741 c -1.449043,-0.748489 -4.603052,-3.331325 -6.4031741,-5.243595 -4.64721,-4.936734 -5.995228,-9.455049 -3.992233,-13.3812438 1.20365,-2.359348 4.092874,-3.8104 6.7835691,-3.406905 1.316643,0.197442 1.893727,0.478979 3.876352,1.891131 0.328728,0.234141 0.645327,0.502426 0.803001,0.686783 0.195961,-0.168723 0.609942,-0.566161 1.461248,-1.215978 3.251006,-2.481549 7.322817,-1.782444 9.634219,1.71859 0.694019,1.051216 1.192649,2.2048908 1.180284,4.1280478 -0.01184,1.841863 -0.21356,2.850632 -1.342037,4.855576 -1.428364,2.537749 -5.235101,6.628913 -7.959469,8.612847 -2.494793,1.816755 -2.890534,1.949402 -4.04176,1.354747 z m 9.929089,-9.734288 c 2.021356,-1.589999 2.683635,-5.394231 1.410574,-8.1025518 -1.017627,-2.164908 -3.45797,-3.359518 -5.919479,-2.897736 -1.221271,0.229111 -3.328142,1.896553 -3.328142,2.633992 0,0.259906 0.802132,2.0407138 1.782516,3.9573498 2.496232,4.880101 4.032933,5.999135 6.054531,4.408946 z"
     style="fill:#ffffff;stroke-width:0.31999999;fill-opacity:1"
     sodipodi:nodetypes="ssssscssssssssssss" />
</svg>
