<?xml version="1.0" encoding="UTF-8" standalone="no"?>
<!-- Generator: Adobe Illustrator 16.0.0, SVG Export Plug-In . SVG Version: 6.00 Build 0)  -->

<svg
   xmlns:dc="http://purl.org/dc/elements/1.1/"
   xmlns:cc="http://creativecommons.org/ns#"
   xmlns:rdf="http://www.w3.org/1999/02/22-rdf-syntax-ns#"
   xmlns:svg="http://www.w3.org/2000/svg"
   xmlns="http://www.w3.org/2000/svg"
   xmlns:sodipodi="http://sodipodi.sourceforge.net/DTD/sodipodi-0.dtd"
   xmlns:inkscape="http://www.inkscape.org/namespaces/inkscape"
   version="1.1"
   id="Layer_1"
   x="0px"
   y="0px"
   width="218.72461"
   height="42.710873"
   viewBox="0 0 218.72461 42.710873"
   enable-background="new 0 0 266 100"
   xml:space="preserve"
   sodipodi:docname="Facebook_New_Logo_(2015).svg"
   inkscape:version="0.92.3 (2405546, 2018-03-11)"><metadata
   id="metadata48"><rdf:RDF><cc:Work
       rdf:about=""><dc:format>image/svg+xml</dc:format><dc:type
         rdf:resource="http://purl.org/dc/dcmitype/StillImage" /><dc:title></dc:title></cc:Work></rdf:RDF></metadata><defs
   id="defs46">
	
	

		
		
		
		
		
		
		
		
	
		
	</defs><sodipodi:namedview
   pagecolor="#ffffff"
   bordercolor="#666666"
   borderopacity="1"
   objecttolerance="10"
   gridtolerance="10"
   guidetolerance="10"
   inkscape:pageopacity="0"
   inkscape:pageshadow="2"
   inkscape:window-width="1920"
   inkscape:window-height="1046"
   id="namedview44"
   showgrid="false"
   fit-margin-top="0"
   fit-margin-left="0"
   fit-margin-right="0"
   fit-margin-bottom="0"
   inkscape:zoom="5.5930551"
   inkscape:cx="116.23229"
   inkscape:cy="11.28259"
   inkscape:window-x="0"
   inkscape:window-y="34"
   inkscape:window-maximized="1"
   inkscape:current-layer="Layer_1" />
<path
   style="clip-rule:evenodd;fill:#ffffff;fill-rule:evenodd"
   d="M 111.70898,0 103.0039,1.052735 V 42.09375 h 8.70508 v -2.435547 c 1.174,0.838 2.31439,1.846219 3.65039,2.324219 5.072,1.818 11.76157,0.336734 14.10157,-6.447265 1.502,-4.352001 1.46303,-8.813844 0.33203,-13.214844 -1.254,-4.889 -4.50783,-7.588 -9.54883,-8.125 -3.287,-0.351 -6.13116,0.644156 -8.53516,3.535156 V 16.832031 1.22461 1.052735 Z m 89.76172,0.02539 -8.70508,1.054687 v 41.041016 h 8.70508 V 29.560547 l 8.02149,12.578125 h 9.23242 L 210.02148,28.484375 218.72461,14.875 h -9.23242 L 201.4707,27.414063 V 1.251953 1.080078 Z M 16.814453,0.06641 C 12.845166,0.02028 7.33125,1.100238 5.765625,7.099613 c 0,0.002 -9.06e-4,0.0058 -0.0039,0.0078 -0.005,0.021 -0.01062,0.0415 -0.01563,0.0625 -0.393999,1.2 -0.366328,6.695719 -0.361328,7.386719 H 2e-6 v 7.349609 h 5.71875 v 19.990235 h 8.328125 V 21.90625 h 6.36914 l 0.716797,-7.349609 H 20.417971 14.20508 v -4.13086 c 0.454,-3.905999 6.904297,-3.164062 6.904297,-3.164062 l 0.002,-0.267578 -0.002,-0.0293 v -6.416016 -0.002 h -0.0059 c -0.08325,-0.01987 -1.90749,-0.452789 -4.289062,-0.480468 z m 15.410156,14.017578 c -4.644104,0.0022 -8.717703,2.950609 -10.197266,7.779296 -1.118999,3.652001 -1.134515,7.409422 -0.478515,11.107422 1.417,8.009 7.373656,10.691141 13.722656,9.369141 1.948,-0.406 3.395281,-1.617641 4.738281,-3.306641 0,0 0.121532,-0.1495 0.269532,-0.4375 v 3.525391 h 8.123046 V 14.587891 h -8.123046 v 3.486328 h -0.002 c -0.101953,-0.113 -0.202016,-0.223453 -0.289016,-0.314453 -0.014,-0.014 -0.02506,-0.02702 -0.03906,-0.04102 -0.121,-0.126 -0.205079,-0.208984 -0.205079,-0.208984 -1.961,-1.994 -2.702281,-2.490359 -4.238281,-2.943359 -1.107562,-0.326251 -2.209534,-0.482921 -3.28125,-0.482422 z m 144.007811,0.0098 c -1.51962,0.0018 -3.03983,0.205422 -4.54883,0.607422 -4.518,1.204 -7.54548,4.063328 -8.52148,8.611328 -0.533,2.483 -0.63905,5.120016 -0.49805,7.666016 0.32,5.822 3.92181,9.970812 9.50781,11.257812 0.0794,0.01885 0.16083,0.03298 0.24024,0.05078 0,0 0.002,0 0.002,0 0.001,2.72e-4 0.0133,0.0031 0.0371,0.0078 0.215,0.043 0.43049,0.08324 0.64649,0.115235 0.072,0.007 0.14479,0.01358 0.21679,0.01758 0.002,0.002 0.004,0.002 0.006,0.002 0.273,0.05 0.5975,0.08823 0.9375,0.115234 1.096,0.116 2.49039,0.1995 3.65039,0.0625 0.006,-0.002 0.01,-0.0019 0.0176,-0.0039 0.061,-10e-4 0.11878,-9.06e-4 0.17578,-0.0039 5.771,-0.301 10.14974,-3.940532 11.42774,-9.519532 0.701,-3.061 0.70139,-6.138171 0.0254,-9.201171 -1.065,-4.808 -3.97854,-7.900641 -8.76953,-9.181641 -1.5125,-0.405 -3.03311,-0.605266 -4.55274,-0.603516 z m -29.68945,0.0059 c -1.51913,0.0019 -3.03788,0.205421 -4.54688,0.607421 -4.52,1.203001 -7.54939,4.062329 -8.52539,8.611329 -0.533,2.482 -0.63904,5.121015 -0.49804,7.666015 0.322,5.822 3.92176,9.969813 9.50976,11.257813 0.0774,0.01885 0.15887,0.03298 0.23828,0.05078 0,0 0.002,0 0.002,0 0.001,2.61e-4 0.0152,0.003 0.0391,0.0078 0.215,0.043 0.43048,0.08223 0.64648,0.115235 0.072,0.006 0.1458,0.01253 0.2168,0.01953 h 0.006 c 0.271,0.05 0.5955,0.08628 0.9375,0.113281 1.094,0.116 2.48644,0.1995 3.64844,0.0625 0.008,0 0.0116,-9.53e-4 0.0176,-0.002 0.059,-10e-4 0.12069,-0.0019 0.17969,-0.0059 5.77,-0.3 10.14778,-3.938531 11.42578,-9.519531 0.701,-3.061 0.69949,-6.136219 0.0215,-9.199219 -1.061,-4.808 -3.97658,-7.901594 -8.76758,-9.183594 -1.5125,-0.4045 -3.03166,-0.603437 -4.55078,-0.601562 z m -82.027345,0.05469 c -0.691578,0.02386 -1.386485,0.07494 -2.083985,0.148438 -5.88,0.621 -9.869562,4.092312 -10.976562,9.820312 -0.581,3.014 -0.555672,6.064891 0.111328,9.087891 0.999,4.527 3.744078,7.451765 8.205078,8.759765 2.911,0.853 5.893328,0.896594 8.861328,0.433594 1.248,-0.195 3.039219,-0.843687 4.324219,-1.304687 l 0.488281,-0.171875 -0.230469,-0.779297 c -0.376999,-1.379 -0.805703,-2.740688 -1.220703,-4.054688 l -0.392578,-1.460937 c 0,0 -10.181531,4.889562 -11.769531,-4.398438 -0.147,-1.533 -0.101625,-3.115906 0.109375,-4.628906 0.396,-2.855 2.137203,-4.384484 4.908203,-4.646484 0.936,-0.089 1.910891,-0.04372 2.837891,0.113281 1.262,0.213 2.494,0.592594 3.875,0.933594 0.48,-1.469 0.970734,-2.921766 1.427734,-4.384766 0.072,-0.229 0.132688,-0.426516 0.179688,-0.603516 l 0.228515,-0.878906 c -0.057,-0.117 -0.194859,-0.237469 -0.380859,-0.355469 -0.234,-0.196 -0.632859,-0.357937 -1.255859,-0.585937 -0.249,-0.091 -0.500001,-0.172 -0.75,-0.25 -0.224001,-0.071 -0.369141,-0.113281 -0.369141,-0.113281 -2.00625,-0.57375 -4.052219,-0.751266 -6.126953,-0.679688 z m 23.339846,0.05469 c -0.99663,-0.0063 -1.99606,0.05103 -2.97657,0.144531 -5.367,0.512 -9.442339,3.855719 -10.277339,8.886719 -0.507,3.052 -0.572109,6.290468 -0.162109,9.355468 0.619,4.611 2.864048,7.548985 6.748048,8.958985 h 0.002 c 0.017,10e-4 0.0357,0.0039 0.0527,0.0059 0,0 -0.002,0.002 -0.002,0.002 1.773,0.53 10.44866,2.800032 18.09766,-1.042969 l -0.30664,-1.126953 c -0.003,0.002 -0.009,0.002 -0.0117,0.002 -0.354,-1.501999 -0.77869,-2.987562 -1.17969,-4.476562 l -0.043,-0.144531 c 0,0 -0.1594,0.05648 -0.4414,0.146484 -0.006,10e-4 -0.0135,9.53e-4 -0.0195,0.002 -0.334,0.087 -0.66419,0.188828 -0.99219,0.298828 -0.061,0.02 -0.12064,0.03864 -0.18164,0.05664 -1.158,0.326 -2.8145,0.728125 -4.5625,0.953125 -1.467,0.148 -2.94736,0.153391 -4.44336,0.02539 -2.429,-0.402 -4.28822,-1.703297 -4.19922,-4.779297 h 1.38672 c 4.762,0 9.52411,0.001 14.28711,0 0.113,0 0.22684,4.7e-5 0.33984,-0.002 v 0.002 c 0,0 1.02341,-0.01149 1.066409,-0.02148 0,0 -10e-4,-0.269734 0,-0.302734 l -0.0176,-1.775391 c -0.039,-1.906 -0.0132,-3.822312 -0.283199,-5.695312 -0.743,-5.136 -3.86878,-8.385375 -8.92578,-9.234375 -0.965,-0.1615 -1.95846,-0.232031 -2.95508,-0.238281 z m -0.37696,5.867187 c 0.9355,-0.025 1.87716,0.21575 2.78516,0.71875 1.836,1.014 1.97878,2.847125 1.92578,4.828125 h -9.40429 c 0.049,-1.871 0.28231,-3.610922 1.94531,-4.669922 0.883,-0.561 1.81254,-0.851953 2.74804,-0.876953 z m 88.914069,0.859375 c 2.373,0.046 4.06787,1.392734 4.67187,3.677734 0.546,2.298001 0.14094,6.388157 0.0859,6.910157 -0.029,0.182 -0.0586,0.358109 -0.0996,0.537109 -0.58,2.568 -2.44269,3.95775 -4.92969,3.84375 -2.674,-0.125 -4.50762,-1.688375 -4.76562,-4.359375 -0.186,-1.951 -0.20302,-3.943484 -0.041,-5.896484 0.258,-3.084 2.18413,-4.769891 5.07813,-4.712891 z m -59.86914,0.002 c 2.621,-0.086 4.60414,1.215 4.99414,3.875 0.346,2.344 0.36334,4.81425 0.0273,7.15625 -0.383,2.706 -2.53675,4.122828 -5.09375,3.923828 -0.639,-0.05 -1.21733,-0.179812 -1.73633,-0.382812 -2.061,-1.183 -2.68423,-3.164203 -2.86523,-4.408203 -0.002,10e-4 -0.004,9.53e-4 -0.004,0.002 -0.141,-1.925 -0.29251,-5.949563 0.64649,-7.851563 0.797,-1.458 2.18625,-2.253453 4.03125,-2.314453 z m -81.482425,0.002 c 2.396,0.054 4.241719,1.471125 4.511719,3.953125 0.253,2.322 0.258766,4.712157 0.0098,7.035157 -0.272,2.546 -2.330625,4.076468 -4.765625,3.980468 -2.495,-0.097 -4.146547,-1.434125 -4.685547,-3.828125 -0.646,-3.406 0.109828,-7.45325 0.173828,-7.78125 0.652,-2.286 2.315859,-3.416375 4.755859,-3.359375 z m 111.660155,0.002 c 2.377,0.046 4.06983,1.392734 4.67383,3.677734 0.548,2.299 0.14189,6.385203 0.0879,6.908203 -0.029,0.181 -0.0606,0.361062 -0.10156,0.539063 -0.578,2.567999 -2.44269,3.957796 -4.92969,3.841796 -2.674,-0.122 -4.50763,-1.685422 -4.76563,-4.357422 -0.186,-1.951999 -0.20106,-3.945437 -0.0391,-5.898437 0.254,-3.083 2.18222,-4.767938 5.07422,-4.710937 z"
   id="path23"
   inkscape:connector-curvature="0" />
</svg>