<?xml version="1.0" encoding="UTF-8" ?>
<!DOCTYPE svg PUBLIC "-//W3C//DTD SVG 1.1//EN" "http://www.w3.org/Graphics/SVG/1.1/DTD/svg11.dtd">
<svg width="180pt" height="180pt" viewBox="0 0 180 180" version="1.1" xmlns="http://www.w3.org/2000/svg">
<g id="f015eecff">
<path fill="#015eec" opacity="1.00" d=" M 0.00 0.00 L 180.00 0.00 L 180.00 180.00 L 0.00 180.00 L 0.00 0.00 M 28.15 28.12 C 28.13 69.38 28.18 110.64 28.13 151.90 C 55.13 151.90 82.13 151.95 109.13 151.87 C 109.14 139.31 109.09 126.74 109.15 114.18 C 94.85 114.12 80.56 114.19 66.26 114.15 C 66.23 98.12 66.25 82.10 66.24 66.08 C 90.48 66.18 114.71 66.09 138.95 66.12 C 143.41 66.06 147.87 66.31 152.32 65.92 C 152.28 53.33 152.30 40.73 152.31 28.14 C 110.92 28.07 69.54 28.11 28.15 28.12 M 71.29 71.18 C 71.29 83.75 71.30 96.31 71.28 108.88 C 85.58 108.90 99.89 108.83 114.20 108.91 C 114.21 123.25 114.17 137.59 114.21 151.93 C 126.91 151.87 139.61 151.95 152.30 151.87 C 152.25 124.98 152.36 98.09 152.25 71.20 C 125.26 71.15 98.28 71.17 71.29 71.18 Z" />
</g>
<g id="fffffffff">
</g>
</svg>
