<?xml version="1.0" encoding="UTF-8" standalone="no"?>
<svg
   xmlns:dc="http://purl.org/dc/elements/1.1/"
   xmlns:cc="http://creativecommons.org/ns#"
   xmlns:rdf="http://www.w3.org/1999/02/22-rdf-syntax-ns#"
   xmlns:svg="http://www.w3.org/2000/svg"
   xmlns="http://www.w3.org/2000/svg"
   xmlns:sodipodi="http://sodipodi.sourceforge.net/DTD/sodipodi-0.dtd"
   xmlns:inkscape="http://www.inkscape.org/namespaces/inkscape"
   width="792.00336"
   height="598.30432"
   version="1.1"
   id="svg4"
   sodipodi:docname="Instagram_logo.svg"
   inkscape:version="0.92.3 (2405546, 2018-03-11)">
  <metadata
     id="metadata10">
    <rdf:RDF>
      <cc:Work
         rdf:about="">
        <dc:format>image/svg+xml</dc:format>
        <dc:type
           rdf:resource="http://purl.org/dc/dcmitype/StillImage" />
        <dc:title></dc:title>
      </cc:Work>
    </rdf:RDF>
  </metadata>
  <defs
     id="defs8" />
  <sodipodi:namedview
     pagecolor="#ffffff"
     bordercolor="#666666"
     borderopacity="1"
     objecttolerance="10"
     gridtolerance="10"
     guidetolerance="10"
     inkscape:pageopacity="0"
     inkscape:pageshadow="2"
     inkscape:window-width="1920"
     inkscape:window-height="1046"
     id="namedview6"
     showgrid="false"
     inkscape:zoom="0.62619048"
     inkscape:cx="52.655688"
     inkscape:cy="186.87153"
     inkscape:window-x="0"
     inkscape:window-y="34"
     inkscape:window-maximized="1"
     inkscape:current-layer="svg4"
     fit-margin-top="0"
     fit-margin-left="0"
     fit-margin-right="0"
     fit-margin-bottom="0" />
  <path
     style="fill:#ffffff;fill-opacity:1"
     d="M 395.96875 0 C 355.28414 0.00016971804 350.15856 0.17847686 334.16602 0.90625 C 318.19711 1.63751 307.29541 4.16559 297.75781 7.875 C 287.89207 11.70628 279.52313 16.831175 271.18555 25.171875 C 262.84171 33.509465 257.71685 41.877624 253.87305 51.740234 C 250.15427 61.280954 247.62306 72.185768 246.9043 88.148438 C 246.18867 104.14861 246.00195 109.26402 246.00195 150.00195 C 246.00195 190.73987 246.18319 195.83579 246.9082 211.83594 C 247.64259 227.80486 250.17068 238.70653 253.87695 248.24414 C 257.71137 258.10986 262.837 266.47687 271.17773 274.81445 C 279.51219 283.15829 287.88075 288.29761 297.74023 292.12891 C 307.28407 295.83832 318.18655 298.36639 334.15234 299.09766 C 350.15251 299.82579 355.26129 300.00391 395.99609 300.00391 C 436.73713 300.00391 441.83579 299.82579 457.83594 299.09766 C 473.80486 298.36639 484.71591 295.83832 494.25977 292.12891 C 504.12237 288.29761 512.47999 283.15829 520.81445 274.81445 C 529.15829 266.47687 534.28315 258.10869 538.12695 248.24609 C 541.81447 238.70536 544.34568 227.80251 545.0957 211.83984 C 545.81445 195.83967 546.00195 190.73987 546.00195 150.00195 C 546.00195 109.26402 545.81445 104.15055 545.0957 88.150391 C 544.34568 72.181471 541.81447 61.281741 538.12695 51.744141 C 534.28315 41.878421 529.15829 33.509465 520.81445 25.171875 C 512.47061 16.828035 504.12705 11.70316 494.25195 7.875 C 484.68935 4.16559 473.78143 1.63751 457.8125 0.90625 C 441.81995 0.17847678 436.7127 0.00016967762 396.01562 0 L 395.96875 0 z M 382.55859 26.994141 L 382.55859 27.03125 C 386.55239 27.02525 391.00932 27.03125 396.01562 27.03125 C 436.06603 27.03125 440.81312 27.175731 456.62891 27.894531 C 471.25406 28.563291 479.19097 31.007417 484.47852 33.060547 C 491.47859 35.779337 496.46986 39.029257 501.7168 44.279297 C 506.96684 49.529367 510.21638 54.529237 512.94141 61.529297 C 514.99455 66.810607 517.4418 74.747897 518.10742 89.373047 C 518.82618 105.1857 518.98242 109.93513 518.98242 149.9668 C 518.98242 189.99847 518.82618 194.74983 518.10742 210.5625 C 517.43866 225.18765 514.99455 233.12494 512.94141 238.40625 C 510.22263 245.40631 506.96684 250.38979 501.7168 255.63672 C 496.46674 260.88678 491.48172 264.13669 484.47852 266.85547 C 479.19722 268.918 471.25406 271.35663 456.62891 272.02539 C 440.81624 272.74415 436.06602 272.90039 396.01562 272.90039 C 355.96206 272.90039 351.21501 272.74415 335.40234 272.02539 C 320.77719 271.35039 312.83951 268.90666 307.54883 266.85352 C 300.54875 264.13474 295.54887 260.88481 290.29883 255.63477 C 285.04877 250.38471 281.79924 245.39577 279.07422 238.39258 C 277.02107 233.11128 274.57384 225.17398 273.9082 210.54883 C 273.18944 194.73618 273.04492 189.98637 273.04492 149.92969 C 273.04492 109.87303 273.18938 105.14859 273.9082 89.335938 C 274.57696 74.710787 277.02107 66.771915 279.07422 61.484375 C 281.793 54.484295 285.04877 49.484415 290.29883 44.234375 C 295.54887 38.984315 300.54875 35.734786 307.54883 33.009766 C 312.83637 30.947236 320.77719 28.509771 335.40234 27.837891 C 349.23999 27.212891 354.60204 27.025391 382.55859 26.994141 z M 476.08594 51.931641 L 476.08594 51.9375 C 466.14833 51.9375 458.08594 59.990901 458.08594 69.931641 C 458.08594 79.869231 466.14833 87.931641 476.08594 87.931641 C 486.02354 87.931641 494.08594 79.869231 494.08594 69.931641 C 494.08594 59.994031 486.02354 51.931641 476.08594 51.931641 z M 396.01172 72.96875 C 353.47244 72.970867 318.98438 107.4622 318.98438 150.00195 C 318.98438 192.54302 353.47454 227.01758 396.01562 227.01758 C 438.55669 227.01758 473.03516 192.54302 473.03516 150.00195 C 473.03516 107.4622 438.55488 72.970867 396.01562 72.96875 L 396.01367 72.96875 L 396.01172 72.96875 z M 396.01562 100.00195 C 423.6284 100.00195 446.01563 122.38604 446.01562 150.00195 C 446.01562 177.61473 423.6284 200.00195 396.01562 200.00195 C 368.3997 200.00195 346.01563 177.61473 346.01562 150.00195 C 346.01562 122.38604 368.3997 100.00195 396.01562 100.00195 z M 45.230469 373.63086 C 43.569819 373.63784 42.032969 373.87948 40.761719 374.41211 L 40.761719 374.41992 C 24.551419 381.20532 6.7318156 400.37356 1.1035156 424.43555 C -6.0242844 454.92305 23.637412 467.81509 26.070312 463.58789 C 28.933812 458.62089 20.755766 456.94135 19.072266 441.12305 C 16.896466 420.69236 26.393856 397.86436 38.347656 387.84766 C 40.569656 385.98666 40.464844 388.57609 40.464844 393.36719 C 40.464844 401.93479 39.990234 478.84684 39.990234 494.89844 C 39.990234 516.61824 39.093622 523.47661 37.482422 530.25391 C 35.849922 537.12201 33.226144 541.76318 35.214844 543.55078 C 37.436744 545.55038 46.922063 540.79401 52.414062 533.12891 C 58.999763 523.93581 61.30485 512.89595 61.71875 500.90625 C 62.21865 486.45305 62.19745 463.519 62.21875 450.4375 C 62.23875 438.4398 62.422166 403.3075 62.009766 382.1875 C 61.927622 377.97851 52.426617 373.6006 45.230469 373.63086 z M 261.69531 373.69141 C 258.7476 373.74084 257.30119 375.18824 256.94727 378.55859 C 256.23677 385.37869 255.86914 405.35352 255.86914 405.35352 C 251.96194 405.35352 238.61553 404.58984 234.70703 404.58984 C 231.07573 404.58984 227.15538 420.20654 232.17578 420.39844 C 237.95198 420.62244 248.01811 420.81628 254.69141 421.01758 C 254.69141 421.01758 254.39453 456.05449 254.39453 466.87109 C 254.39453 468.02189 254.40425 469.12978 254.40625 470.20508 C 250.73355 489.34809 237.79687 499.6875 237.79688 499.6875 C 240.57497 487.0233 234.90169 477.5133 224.67969 469.46289 C 220.91369 466.49629 213.47856 460.88096 205.16016 454.72656 C 205.16016 454.72656 209.9775 449.97858 214.25 440.42578 C 217.2774 433.65908 217.40912 425.91463 209.97852 424.20703 C 197.70082 421.38354 187.57614 430.40114 184.55664 440.02734 C 182.21714 447.48454 183.46573 453.01742 188.04883 458.76562 C 188.38343 459.18563 188.74649 459.61497 189.12109 460.04688 C 186.34959 465.38878 182.54111 472.58089 179.31641 478.1582 C 170.36611 493.6432 163.60579 505.89063 158.49609 505.89062 C 154.41149 505.89062 154.46484 493.4553 154.46484 481.8125 C 154.46484 471.77539 155.20693 456.6861 155.79883 441.0625 C 155.99473 435.8955 153.41118 432.95126 149.08008 430.28516 C 146.44858 428.66546 140.83278 425.48047 137.58008 425.48047 C 132.71148 425.48047 118.66468 426.14386 105.39258 464.53516 C 103.71998 469.37406 100.43359 478.19141 100.43359 478.19141 L 100.7168 432.02344 C 100.7168 430.94104 100.14031 429.89559 98.820312 429.17969 C 96.583812 427.96529 90.610328 425.48047 85.298828 425.48047 C 82.768128 425.48047 81.505859 426.65771 81.505859 429.00391 L 81.041016 501.23242 C 81.041016 506.72042 81.185916 513.12363 81.728516 515.92383 C 82.269116 518.72753 83.143816 521.00823 84.228516 522.36523 C 85.311616 523.71963 86.565159 524.75329 88.630859 525.17969 C 90.553459 525.57549 101.08171 526.9275 101.62891 522.9043 C 102.28451 518.0828 102.30784 512.86777 107.83594 493.41797 C 116.44204 463.13716 127.66455 448.36223 132.93945 443.11523 C 133.86175 442.19813 134.91398 442.14353 134.86328 443.64453 C 134.63808 450.28333 133.8456 466.87153 133.3125 480.96484 C 131.8836 518.68024 138.74588 525.67187 148.55078 525.67188 C 156.05198 525.67188 166.62584 518.21846 177.96094 499.35156 C 185.02764 487.59396 191.88866 476.06497 196.81836 467.75586 C 200.25376 470.93606 204.10834 474.35913 207.96094 478.01562 C 216.91384 486.51292 219.8546 494.58629 217.9043 502.24609 C 216.4126 508.10179 210.79497 514.13698 200.79688 508.27148 C 197.88278 506.56028 196.63908 505.23779 193.70898 503.30859 C 192.13468 502.27219 189.73006 501.96313 188.28906 503.04883 C 184.54576 505.87123 182.40404 509.4598 181.18164 513.9043 C 179.99254 518.229 184.32465 520.51602 188.81445 522.51562 C 192.68035 524.23663 200.99006 525.79701 206.28906 525.97461 C 226.93576 526.66511 243.47458 516.00567 254.98828 488.50977 C 257.04928 512.25587 265.82075 525.69336 281.06055 525.69336 C 291.24925 525.69336 301.46444 512.52221 305.93164 499.56641 C 307.21404 504.84761 309.11295 509.44062 311.56445 513.32422 C 323.30755 531.93002 346.08805 527.92625 357.53125 512.12695 C 361.06925 507.24505 361.60742 505.49023 361.60742 505.49023 C 363.27642 520.40863 375.29122 525.62109 382.16992 525.62109 C 389.87382 525.62109 397.82744 521.97863 403.40234 509.42773 C 404.05564 510.78983 404.76828 512.09112 405.54688 513.32422 C 417.28987 531.93002 440.07057 527.9243 451.51367 512.125 C 452.05357 511.3839 452.52234 510.71277 452.93164 510.10938 L 453.26758 519.9082 C 453.26758 519.9082 446.73962 525.89661 442.73242 529.57031 C 425.09582 545.75121 411.68572 558.02832 410.69922 572.32422 C 409.43282 590.55272 424.21589 597.32704 435.40039 598.21484 C 447.27809 599.15744 457.44907 592.59461 463.70117 583.41211 C 469.20007 575.32981 472.79916 557.93461 472.53516 540.75391 C 472.42986 533.87401 472.25709 525.1268 472.12109 515.75 C 478.31989 508.5514 485.30357 499.45263 491.73438 488.80273 C 498.74237 477.19663 506.25371 461.61212 510.09961 449.48242 C 510.09961 449.48242 516.62399 449.53793 523.58789 449.08203 C 525.81549 448.93673 526.45682 449.39034 526.04492 451.02344 C 525.54762 452.99634 517.24647 485.01455 524.82227 506.34375 C 530.00797 520.94495 541.69635 525.64258 548.62695 525.64258 C 556.74005 525.64258 564.50293 519.51607 568.66211 510.41797 C 569.16331 511.43227 569.68591 512.41421 570.25781 513.32031 C 582.00091 531.92611 604.70151 527.89639 616.22461 512.12109 C 618.82541 508.56189 620.30273 505.48633 620.30273 505.48633 C 622.77563 520.92603 634.7809 525.69531 641.6582 525.69531 C 648.8222 525.69531 655.62237 522.75708 661.13867 509.70508 C 661.36927 515.45188 661.73149 520.15131 662.30469 521.63281 C 662.65399 522.53881 664.68892 523.67726 666.16992 524.22656 C 672.72332 526.65676 679.40806 525.50771 681.88086 525.00781 C 683.59386 524.66111 684.92873 523.28708 685.11133 519.73828 C 685.59123 510.42018 685.29825 494.76401 688.12305 483.12891 C 692.86485 463.602 697.28647 456.02724 699.38477 452.27734 C 700.55917 450.17634 701.88559 449.82913 701.93359 452.05273 C 702.03259 456.55183 702.2548 469.76441 704.0918 487.51562 C 705.4408 500.57103 707.24391 508.28827 708.62891 510.73047 C 712.58151 517.71447 717.46415 518.04492 721.43945 518.04492 C 723.96825 518.04492 729.2564 517.34479 728.7832 512.90039 C 728.5526 510.73409 728.95576 497.34697 733.63086 478.10938 C 736.68356 465.54656 741.77368 454.19472 743.60938 450.04492 C 744.28657 448.51452 744.60054 449.72203 744.58984 449.95703 C 744.20324 458.60873 743.33477 486.90581 746.85938 502.38281 C 751.63717 523.34941 765.45899 525.69727 770.27539 525.69727 C 780.55739 525.69727 788.96603 517.87472 791.79883 497.29492 C 792.48133 492.34232 791.47076 488.51758 788.44336 488.51758 L 788.41992 488.52148 C 786.06832 488.52148 784.99522 490.94529 784.10742 495.02539 C 781.02802 509.21199 777.79109 512.41602 773.61719 512.41602 C 768.95409 512.41602 764.7646 505.39208 763.6875 491.33008 C 762.841 480.27288 762.97805 459.91552 764.06055 439.66602 C 764.28175 435.50552 763.13381 431.38984 751.97461 427.33594 C 747.17281 425.59224 740.1921 423.02301 736.7168 431.41211 C 726.8974 455.11281 723.05614 473.93032 722.15234 481.57422 C 722.10534 481.96982 721.62046 482.05125 721.53516 481.12695 C 720.95926 475.00475 719.67172 463.87801 719.51172 440.50391 C 719.48072 435.94341 718.51417 432.06287 713.48047 428.88477 C 710.21437 426.82257 700.29591 423.17457 696.72461 427.51367 C 693.63051 431.06237 690.04752 440.61309 686.32422 451.93359 C 683.29822 461.13449 681.19141 467.35742 681.19141 467.35742 C 681.19141 467.35742 681.23158 442.53213 681.26758 433.11523 C 681.28358 429.56263 678.84583 428.37866 678.11133 428.16406 C 674.80393 427.20416 668.28758 425.60156 665.52148 425.60156 C 662.10878 425.60156 661.27344 427.50761 661.27344 430.28711 C 661.27344 430.65101 660.73437 462.97331 660.73438 485.57422 C 660.73438 486.55592 660.73414 487.62783 660.74414 488.76562 C 658.85654 499.15323 652.73552 513.25391 646.07812 513.25391 C 639.41273 513.25391 636.26758 507.35786 636.26758 480.41406 C 636.26758 464.69575 636.74066 457.86254 636.97266 446.49414 C 637.10726 439.94604 637.36626 434.91649 637.35156 433.77539 C 637.30256 430.27609 631.25105 428.51313 628.43555 427.86133 C 625.60675 427.20403 623.15007 426.94929 621.23047 427.05859 C 618.51367 427.21189 616.58984 428.99381 616.58984 431.44531 C 616.58984 432.75971 616.60547 435.25977 616.60547 435.25977 C 613.10617 429.76087 607.47712 425.93332 603.73242 424.82422 C 593.64642 421.82883 583.12199 424.4832 575.18359 435.5918 C 568.87409 444.4181 565.07132 454.41474 563.57422 468.77734 C 562.47982 479.27745 562.83625 489.92479 564.78125 498.92969 C 562.43105 509.09069 558.06872 513.25391 553.29102 513.25391 C 546.35502 513.25391 541.32626 501.93302 541.91016 482.35352 C 542.29536 469.47531 544.87265 460.43808 547.68945 447.36328 C 548.89055 441.78968 547.9144 438.87102 545.4668 436.07422 C 543.2219 433.50942 538.4386 432.19885 531.5625 433.81055 C 526.6648 434.95965 519.66266 436.19533 513.25586 437.14453 C 513.25586 437.14453 513.64168 435.60221 513.95898 432.88281 C 515.62528 418.62152 500.12995 419.77889 495.18555 424.33398 C 492.23415 427.05348 490.22539 430.26044 489.46289 436.02734 C 488.25379 445.17894 495.7168 449.49609 495.7168 449.49609 C 493.2679 460.70589 487.26586 475.34825 481.06836 485.93555 C 477.74906 491.60795 475.20779 495.8111 471.92969 500.2793 C 471.91769 498.6155 471.9103 496.95288 471.9043 495.29688 C 471.8293 471.72937 472.14265 453.18149 472.28125 446.49609 C 472.41595 439.94809 472.67876 435.05321 472.66406 433.91211 C 472.62706 431.35261 471.13214 430.38591 468.02344 429.16211 C 465.27464 428.07971 462.02364 427.32966 458.65234 427.06836 C 454.39714 426.73646 451.83379 428.99331 451.90039 431.66211 C 451.91339 432.16601 451.91406 435.25977 451.91406 435.25977 C 448.41466 429.76077 442.78562 425.93342 439.04102 424.82422 C 428.95492 421.83013 418.43069 424.4846 410.49219 435.5918 C 404.18409 444.4181 400.05331 456.80357 398.88281 468.66797 C 397.79241 479.72568 397.99407 489.12326 399.48047 497.03906 C 397.87677 504.96566 393.26448 513.25391 388.05078 513.25391 C 381.38538 513.25391 377.59375 507.35972 377.59375 480.41602 C 377.59375 464.69771 378.06488 457.86329 378.29688 446.49609 C 378.43147 439.94809 378.69243 434.91714 378.67773 433.77734 C 378.62873 430.27804 372.57712 428.51453 369.76172 427.86133 C 366.81562 427.18013 364.27136 426.93032 362.31836 427.07422 C 359.74156 427.26622 357.92969 429.57392 357.92969 431.29492 L 357.92969 435.25977 C 354.43039 429.76077 348.80329 425.93342 345.05859 424.82422 C 334.97259 421.83013 324.50687 424.5273 316.50977 435.5918 C 311.29477 442.8064 307.07134 450.80582 304.89844 468.51172 C 304.27054 473.62843 303.9933 478.41994 304.0293 482.89844 C 301.9497 495.61634 292.76515 510.27344 285.25195 510.27344 C 280.85545 510.27344 276.66797 501.74627 276.66797 483.57227 C 276.66797 459.36356 278.16662 424.89621 278.41992 421.57422 C 278.41992 421.57422 287.91355 421.41203 289.75195 421.39062 C 294.48695 421.33862 298.77533 421.45151 305.08203 421.12891 C 308.24543 420.96761 311.29204 409.61398 308.02734 408.20898 C 306.54764 407.57308 296.09111 407.01573 291.94531 406.92773 C 288.45931 406.84873 278.75391 406.13086 278.75391 406.13086 C 278.75391 406.13086 279.62357 383.25274 279.82617 380.83594 C 279.99817 378.82164 277.39284 377.78555 275.89844 377.15625 C 272.26454 375.61925 269.0121 374.88239 265.1582 374.08789 C 263.8271 373.81329 262.67788 373.67493 261.69531 373.69141 z M 343.78125 439.7793 C 344.06732 439.78745 344.35578 439.80732 344.64844 439.83594 C 354.26765 440.77571 358.94421 453.13975 357.7168 475.80078 C 357.12745 486.6921 355.00159 495.79716 351.5918 502.41016 C 345.4223 514.37916 333.21698 518.17471 327.83398 500.87891 C 323.95338 488.40731 325.27437 471.4031 326.88867 462.2168 C 329.20941 449.0108 334.91303 439.52648 343.78125 439.7793 z M 602.41602 439.7793 C 602.71337 439.78652 603.01541 439.80346 603.32031 439.83203 C 612.94381 440.73593 617.44847 453.1375 616.38867 476.06641 C 615.86607 487.35801 613.36577 496.1828 610.26367 502.4082 C 604.25817 514.4602 591.79686 518.20411 586.50586 500.87891 C 583.62246 491.43491 583.48755 475.66123 585.56055 462.48242 C 587.6048 449.47647 593.19803 439.55539 602.41602 439.7793 z M 438.63281 439.83594 C 448.29761 439.83594 453.06162 450.43792 451.69922 475.95703 C 451.15002 486.24143 448.48497 496.57256 445.57617 502.41016 C 439.57197 514.46206 427.02006 518.22941 421.81836 500.87891 C 418.26176 489.02431 419.11335 473.68108 420.87305 464.01367 C 423.15655 451.47067 428.69211 439.83594 438.63281 439.83594 z M 454.17773 534.50977 C 454.17773 534.50977 454.2113 537.95599 454.1543 546.12109 L 454.15234 546.12109 C 454.02174 564.88279 451.07038 581.33353 444.73828 586.11133 C 435.75738 592.88603 423.68605 587.80388 426.18555 574.11328 C 428.39715 561.99838 438.85533 549.62687 454.17773 534.50977 z "
     id="path2" />
</svg>
