<?xml version="1.0" encoding="UTF-8"?>
<svg width="70px" height="24px" viewBox="0 0 70 24" version="1.1" xmlns="http://www.w3.org/2000/svg" xmlns:xlink="http://www.w3.org/1999/xlink"><script xmlns="">
    // This signals the axe-core test suite that the extension is running.
    window.__AXE_EXTENSION__ = true
  </script>
    <!-- Generator: Sketch 52 (66869) - http://www.bohemiancoding.com/sketch -->
    <title>Logo/Portal/White@1x</title>
    <desc>Created with Sketch.</desc>
    <g id="Symbols" stroke="none" stroke-width="1" fill="none" fill-rule="evenodd">
        <g id="Artboard-Copy" fill="#FFFFFF">
            <g id="Logo/Portal/White">
                <path d="M66.1129697,19.6164817 L69.8181818,19.6164817 L69.8181818,-1.0658141e-14 L66.1129697,-1.0658141e-14 L66.1129697,19.6164817 Z M52.4812121,12.2739474 C52.4812121,9.83556352 54.029697,7.97257724 56.518303,7.97257724 C58.8962424,7.97257724 60.5830303,9.80818079 60.5830303,12.2739474 C60.5830303,14.7670967 58.9792727,16.6027002 56.518303,16.6027002 C54.1126061,16.6027002 52.4812121,14.7670967 52.4812121,12.2739474 Z M60.638303,19.6164817 L64.177697,19.6164817 L64.177697,4.9589159 L60.5830303,4.9589159 L60.5830303,6.27388733 C59.8364848,5.4519251 58.2603636,4.71223115 56.2970909,4.71223115 C51.7899394,4.71223115 48.776,7.94519451 48.776,12.2739474 C48.776,16.8218822 51.8175758,19.8629262 56.2970909,19.8629262 C58.6751515,19.8629262 60.0853333,18.8767877 60.638303,18.1643564 L60.638303,19.6164817 Z M45.5961212,2.49314931 L41.8907879,2.49314931 L41.8907879,4.9589159 L40.4530909,4.9589159 L40.4530909,8.21914189 L41.8907879,8.21914189 L41.8907879,15.5341734 C41.8907879,18.4383038 43.4392727,19.7533953 46.3979394,19.7533953 C47.3935758,19.7533953 48.14,19.6437443 48.278303,19.6164817 L48.278303,16.3835183 L47.4763636,16.3835183 C46.0661818,16.3835183 45.5961212,15.8355035 45.5961212,14.410881 L45.5961212,8.21914189 L48.1952727,8.21914189 L48.1952727,4.9589159 L45.5961212,4.9589159 L45.5961212,2.49314931 Z M39.4853333,4.93141307 C39.4024242,4.90403035 39.2641212,4.87664762 38.9876364,4.87664762 C37.4391515,4.87664762 36.8585455,5.80814076 36.609697,6.16435642 L36.609697,4.9589159 L33.1532121,4.9589159 L33.1532121,19.6164817 L36.8585455,19.6164817 L36.8585455,10.8218221 C36.8585455,9.34243422 37.4391515,8.46570654 39.4853333,8.3286728 L39.4853333,4.93141307 Z M20.1019394,12.3013301 C20.1019394,9.83556352 21.6780606,8.02734269 24.1113939,8.02734269 C26.4893333,8.02734269 28.1483636,9.86294625 28.1483636,12.3013301 C28.1483636,14.739714 26.5722424,16.5479348 24.1390303,16.5479348 C21.7609697,16.5479348 20.1019394,14.7670967 20.1019394,12.3013301 Z M16.3967273,12.3287128 C16.3967273,16.6574657 19.4935758,19.8629262 24.1113939,19.8629262 C28.6738182,19.8629262 31.853697,16.5753175 31.853697,12.2739474 C31.853697,7.94519451 28.7843636,4.71223115 24.1113939,4.71223115 C19.6595152,4.71223115 16.3967273,7.97257724 16.3967273,12.3287128 Z M3.59466667,12.3013301 C3.59466667,9.80818079 5.14315152,7.97257724 7.65939394,7.97257724 C10.1202424,7.97257724 11.7517576,9.80818079 11.7517576,12.3013301 C11.7517576,14.7944794 10.2032727,16.6027002 7.6870303,16.6027002 C5.22606061,16.6027002 3.59466667,14.7944794 3.59466667,12.3013301 Z M3.70521212,18.4658066 C4.39648485,19.0684668 5.83442424,19.8629262 7.88060606,19.8629262 C12.5813333,19.8629262 15.4569697,16.4931693 15.4569697,12.2464445 C15.4569697,7.8355435 12.5259394,4.71223115 8.04654545,4.71223115 C5.36436364,4.71223115 4.09236364,5.83564358 3.59466667,6.38353834 L3.59466667,4.9589159 L0,4.9589159 L0,24 L3.70521212,24 L3.70521212,18.4658066 Z" id="Page-1"/>
            </g>
        </g>
    </g>
</svg>