<?xml version="1.0" encoding="UTF-8" standalone="no"?>
<svg
   xmlns:dc="http://purl.org/dc/elements/1.1/"
   xmlns:cc="http://creativecommons.org/ns#"
   xmlns:rdf="http://www.w3.org/1999/02/22-rdf-syntax-ns#"
   xmlns:svg="http://www.w3.org/2000/svg"
   xmlns="http://www.w3.org/2000/svg"
   xmlns:sodipodi="http://sodipodi.sourceforge.net/DTD/sodipodi-0.dtd"
   xmlns:inkscape="http://www.inkscape.org/namespaces/inkscape"
   width="88.605003"
   height="49.5"
   viewBox="0 0 88.605003 49.5"
   version="1.1"
   id="svg28"
   sodipodi:docname="Tbh_(app)_logo.svg"
   inkscape:version="0.92.3 (2405546, 2018-03-11)">
  <metadata
     id="metadata32">
    <rdf:RDF>
      <cc:Work
         rdf:about="">
        <dc:format>image/svg+xml</dc:format>
        <dc:type
           rdf:resource="http://purl.org/dc/dcmitype/StillImage" />
        <dc:title>tbh-logo-black</dc:title>
      </cc:Work>
    </rdf:RDF>
  </metadata>
  <sodipodi:namedview
     pagecolor="#ffffff"
     bordercolor="#666666"
     borderopacity="1"
     objecttolerance="10"
     gridtolerance="10"
     guidetolerance="10"
     inkscape:pageopacity="0"
     inkscape:pageshadow="2"
     inkscape:window-width="1920"
     inkscape:window-height="1046"
     id="namedview30"
     showgrid="false"
     fit-margin-top="0"
     fit-margin-left="0"
     fit-margin-right="0"
     fit-margin-bottom="0"
     inkscape:zoom="13.350176"
     inkscape:cx="55.411046"
     inkscape:cy="23.541979"
     inkscape:window-x="0"
     inkscape:window-y="34"
     inkscape:window-maximized="1"
     inkscape:current-layer="svg28" />
  <!-- Generator: Sketch 43.2 (39069) - http://www.bohemiancoding.com/sketch -->
  <title
     id="title19">tbh-logo-black</title>
  <desc
     id="desc21">Created with Sketch.</desc>
  <defs
     id="defs23" />
  <path
     style="fill:#ffffff;fill-opacity:1;fill-rule:nonzero;stroke:none;stroke-width:1"
     d="m 22.275,22.557857 c -0.235715,0.895714 -0.824999,1.343572 -1.767857,1.343572 h -4.242857 c -0.377144,0 -0.718928,0.117856 -1.025357,0.353571 -0.306497,0.235715 -0.506853,0.542142 -0.601072,0.919286 -0.141428,0.754285 -0.306428,1.591071 -0.495,2.510357 -0.188572,0.919286 -0.365357,1.814999 -0.530357,2.687143 -0.165124,0.872143 -0.294766,1.685356 -0.388929,2.439643 -0.09428,0.754286 -0.141428,1.343571 -0.141428,1.767857 0,1.414285 0.271071,2.510357 0.813214,3.288214 0.542177,0.777857 1.426105,1.449643 2.651786,2.015357 0.471428,0.282857 0.707143,0.730715 0.707143,1.343572 0,0.09429 -0.01178,0.165 -0.03536,0.212142 -0.02357,0.04714 -0.03536,0.117857 -0.03536,0.212143 -0.04714,0.09429 -0.07071,0.165001 -0.07071,0.212143 -0.377143,0.942858 -0.954643,2.050714 -1.7325,3.323572 -0.777857,1.272857 -1.614642,2.404285 -2.510357,3.394285 -0.235714,0.235714 -0.495,0.424286 -0.777857,0.565715 -0.282857,0.141428 -0.589286,0.212142 -0.919286,0.212142 H 10.74857 c -0.09428,0 -0.141428,-0.02357 -0.141428,-0.07071 -1.6500106,-0.471429 -3.0878674,-1.131428 -4.3135716,-1.98 -1.225715,-0.848571 -2.239285,-1.838571 -3.0407143,-2.97 C 2.4514279,43.206429 1.8385714,41.992501 1.4142857,40.696071 0.99,39.399643 0.77785714,38.067857 0.77785714,36.700714 c 0,-1.414285 0.15321465,-3.146785 0.45964286,-5.1975 0.3064282,-2.050714 0.6953579,-4.2075 1.1667857,-6.470357 v -0.212143 c 0,-0.04714 0.011785,-0.09429 0.035357,-0.141428 C 2.463215,24.632144 2.475,24.584999 2.475,24.537857 2.475,24.019285 2.239285,23.76 1.7678571,23.76 H 1.3435714 C 0.96642893,23.76 0.67178571,23.618571 0.45964286,23.335714 0.2475,23.052857 0.1178575,22.722858 0.07071429,22.345714 0.02357107,21.968571 0,21.579642 0,21.178929 V 19.8 c 0,-0.801546 0.01178607,-1.602975 0.03535714,-2.404286 0.02357107,-0.801429 0.05892821,-1.508572 0.10607143,-2.121428 0.0471432,-0.377144 0.18857179,-0.695358 0.42428572,-0.954643 0.23571392,-0.259285 0.65999961,-0.436071 1.27285711,-0.530357 0.1885707,-0.04714 0.5185722,-0.0825 0.99,-0.106072 0.4714279,-0.02357 0.8957136,-0.05893 1.2728572,-0.106071 C 4.4785851,13.530001 4.7496572,13.376785 4.9146429,13.1175 5.0796738,12.858213 5.2093163,12.539999 5.3035714,12.162857 5.8221598,9.9942843 6.3525169,8.0260714 6.8946429,6.2582143 7.4368055,4.4903571 7.9435916,3.1349986 8.415,2.1921429 8.7450004,1.485 9.2635714,1.1314286 9.9707143,1.1314286 c 0.3771427,0 0.9664287,0.094284 1.7678567,0.2828571 0.801429,0.1885729 1.65,0.4007157 2.545715,0.6364286 0.895714,0.2364336 1.767857,0.5075036 2.616428,0.8132143 0.848572,0.3064271 1.508572,0.5539271 1.98,0.7425 0.565715,0.2364077 0.848572,0.6842634 0.848572,1.3435714 0,0.094284 -0.01178,0.1767857 -0.03536,0.2475 -0.02357,0.070714 -0.03536,0.1296414 -0.03536,0.1767857 V 5.5157143 C 19.422856,6.2700014 19.139999,7.1892871 18.81,8.2735714 18.479839,9.3578557 18.14984,10.559999 17.82,11.88 c -0.04714,0.09428 -0.07071,0.164999 -0.07071,0.212143 V 12.375 c 0,0.51857 0.259285,0.848571 0.777857,0.99 H 21.285 c 0.565714,0.04714 0.942858,0.2475 1.131429,0.601071 0.18857,0.353572 0.306429,0.718928 0.353571,1.096072 v 0.707143 c 0,1.084286 -0.04714,2.286429 -0.141429,3.606428 -0.09429,1.32 -0.212142,2.380714 -0.353571,3.182143 z m 0.07071,17.678572 c 0.188572,-1.932857 0.459643,-4.101429 0.813215,-6.505715 0.353571,-2.404285 0.766071,-4.89107 1.2375,-7.460357 0.471432,-2.569284 0.978218,-5.138571 1.520357,-7.707857 0.542142,-2.569286 1.084286,-4.985357 1.626428,-7.248214 0.542142,-2.2628574 1.0725,-4.2900017 1.591072,-6.0814289 0.518572,-1.7914271 0.99,-3.1821428 1.414285,-4.1721428 C 30.784285,0.35357143 31.279285,0 32.033571,0 c 0.282858,0 0.883929,0.11785858 1.803215,0.35357143 0.919285,0.23645952 1.885714,0.50752951 2.899285,0.81321427 1.013571,0.3064271 1.956429,0.6010714 2.828572,0.8839286 0.872217,0.2828571 1.426146,0.47143 1.661786,0.5657143 0.612856,0.2358035 0.919285,0.6836592 0.919285,1.3435714 0,0.094979 -0.01178,0.1539063 -0.03536,0.1767857 -0.02357,0.02357 -0.03536,0.058927 -0.03536,0.1060714 v 0.1414286 c -0.424286,1.2728572 -0.919286,2.97 -1.485,5.0914286 -0.565714,2.1214287 -1.178571,4.5257147 -1.838571,7.2128567 -0.04714,0.09429 -0.07071,0.165001 -0.07071,0.212143 v 0.212143 c 0,0.235715 0.09429,0.353572 0.282857,0.353572 0.141429,0 0.282858,-0.117857 0.424286,-0.353572 0.848572,-1.084286 1.779642,-2.038929 2.793214,-2.863928 1.013573,-0.825 2.03893,-1.2375 3.076072,-1.2375 1.225715,0 2.392501,0.471427 3.500357,1.414285 1.107856,0.942858 2.086071,2.086072 2.934643,3.429643 0.848571,1.343572 1.532142,2.757857 2.050714,4.242857 0.518572,1.485 0.777857,2.793215 0.777857,3.924643 0,3.064287 -0.4125,6.010714 -1.2375,8.839286 -0.824999,2.828571 -2.015357,5.327142 -3.571071,7.495714 -1.555714,2.168571 -3.441428,3.901071 -5.657143,5.1975 C 41.839285,48.851785 39.340714,49.5 36.559286,49.5 c -0.99,0 -2.109643,-0.212143 -3.358929,-0.636429 -1.249286,-0.424285 -2.486786,-0.942857 -3.7125,-1.555714 C 28.262142,46.695 27.071786,46.023214 25.916786,45.2925 24.761785,44.561781 23.807143,43.866423 23.052857,43.206429 22.534286,42.782143 22.275,42.122142 22.275,41.226429 v -0.565715 c 0,-0.141428 0.02357,-0.282857 0.07071,-0.424285 z m 12.021429,-1.909286 c 0,0.424286 0.164999,0.754286 0.495,0.99 0.330013,0.235714 0.730728,0.353571 1.202143,0.353571 0.942856,0 1.815,-0.495 2.616428,-1.485 0.80143,-0.99 1.485,-2.180356 2.050715,-3.571071 0.565714,-1.390715 1.025357,-2.840358 1.378928,-4.348929 0.353572,-1.508572 0.530357,-2.781429 0.530357,-3.818571 0,-1.98 -0.306429,-2.97 -0.919285,-2.97 -0.377144,0 -0.836787,0.129643 -1.378929,0.388928 -0.542144,0.25948 -1.096072,0.589479 -1.661786,0.99 -0.565714,0.400714 -1.060714,0.860357 -1.485,1.378929 -0.424285,0.518572 -0.707143,1.013572 -0.848571,1.485 -0.141429,0.471428 -0.318214,1.2375 -0.530357,2.298214 -0.212143,1.060715 -0.424286,2.168572 -0.636429,3.323572 -0.212143,1.155013 -0.400714,2.203942 -0.565714,3.146785 -0.165,0.942857 -0.2475,1.555715 -0.2475,1.838572 z M 72.057857,19.446429 c -0.235714,0.282857 -0.377142,0.424285 -0.424286,0.424285 -0.09428,0 -0.141428,-0.07071 -0.141428,-0.212143 v -0.212142 c 0,-0.04714 0.02357,-0.117857 0.07071,-0.212143 0.801395,-3.441428 1.543895,-6.387856 2.2275,-8.839286 0.683571,-2.45143 1.284642,-4.455 1.803214,-6.0107143 0,-0.047144 0.02357,-0.1178586 0.07072,-0.2121428 0,-0.094284 0.01178,-0.1649986 0.03536,-0.2121429 0.02357,-0.047144 0.03536,-0.1178586 0.03536,-0.2121429 0,-0.2357128 -0.05893,-0.4596428 -0.176786,-0.6717857 C 75.440358,2.8639286 75.192858,2.7107129 74.815714,2.6164286 74.532857,2.5221443 73.943571,2.3335714 73.047857,2.0507143 72.152142,1.7678571 71.1975,1.4732128 70.183929,1.1667857 69.170357,0.86110094 68.215715,0.59003095 67.32,0.35357143 66.424307,0.11785858 65.882164,0 65.693571,0 c -0.377142,0 -0.707142,0.10607143 -0.99,0.31821429 -0.282857,0.21214285 -0.471429,0.45964285 -0.565714,0.74250001 -0.518563,1.1785729 -1.072493,2.8285714 -1.661786,4.95 -0.589286,2.1214286 -1.202142,4.5139267 -1.838571,7.1774997 -0.636429,2.663571 -1.249286,5.492142 -1.838571,8.485715 -0.589286,2.993548 -1.119643,5.916406 -1.591072,8.768571 -0.471429,2.852143 -0.860357,5.551071 -1.166786,8.096786 -0.306428,2.545714 -0.483214,4.690715 -0.530357,6.435 0,0.377142 0.0825,0.754286 0.2475,1.131428 0.165,0.377143 0.459643,0.66 0.883929,0.848572 0.282857,0.141428 0.801428,0.341785 1.555714,0.601071 0.754286,0.259286 1.579287,0.518571 2.475,0.777857 0.895714,0.259285 1.767857,0.483214 2.616429,0.671786 0.848571,0.188572 1.485,0.282857 1.909285,0.282857 0.754286,0 1.178572,-0.377142 1.272858,-1.131428 0.377119,-3.111429 0.824976,-6.222858 1.343571,-9.334286 0.518571,-3.111429 1.084285,-6.222857 1.697143,-9.334286 0.09417,-0.47135 0.259173,-0.907421 0.495,-1.308214 0.235596,-0.400714 0.47131,-0.718928 0.707143,-0.954643 0.942857,-0.942858 1.838571,-1.661786 2.687143,-2.156786 0.848571,-0.495 1.437857,-0.7425 1.767857,-0.7425 0.377143,0 0.565714,0.565715 0.565714,1.697143 0,0.99 -0.129644,2.309999 -0.388929,3.96 -0.259285,1.65 -0.565714,3.370715 -0.919285,5.162143 -0.353572,1.791428 -0.718928,3.512143 -1.096072,5.162143 -0.377142,1.650001 -0.683572,2.97 -0.919285,3.96 -0.04714,0.04714 -0.07071,0.117856 -0.07071,0.212143 v 0.353571 c 0,0.707143 0.282857,1.225714 0.848572,1.555714 0.471428,0.235714 1.143213,0.530358 2.015357,0.883929 0.872143,0.353571 1.767857,0.683572 2.687143,0.99 0.919285,0.306428 1.767857,0.565714 2.545714,0.777857 0.777857,0.212143 1.355356,0.318214 1.7325,0.318214 0.801429,0 1.319999,-0.400714 1.555714,-1.202142 0.33,-1.272858 0.671786,-2.734285 1.025357,-4.384286 0.353572,-1.650001 0.718928,-3.358929 1.096072,-5.126786 0.377143,-1.767857 0.730715,-3.535714 1.060714,-5.303571 0.329753,-1.767856 0.624395,-3.417856 0.883929,-4.95 0.259285,-1.532142 0.459643,-2.875714 0.601071,-4.030715 0.141429,-1.155 0.212143,-1.991785 0.212143,-2.510357 0,-0.895713 -0.306429,-1.850356 -0.919286,-2.863928 -0.612856,-1.013572 -1.355356,-1.956428 -2.2275,-2.828572 C 84.586071,15.286071 83.655,14.567143 82.665,14.001429 c -0.99,-0.565715 -1.862144,-0.848572 -2.616429,-0.848572 -1.319999,0 -2.675357,0.589287 -4.066071,1.767857 -1.390714,1.178571 -2.698928,2.687143 -3.924643,4.525715 z"
     id="tbh-copy"
     inkscape:connector-curvature="0" />
</svg>
