<?xml version="1.0" encoding="UTF-8" standalone="no"?>
<!-- Created with Inkscape (http://www.inkscape.org/) -->

<svg
   xmlns:dc="http://purl.org/dc/elements/1.1/"
   xmlns:cc="http://creativecommons.org/ns#"
   xmlns:rdf="http://www.w3.org/1999/02/22-rdf-syntax-ns#"
   xmlns:svg="http://www.w3.org/2000/svg"
   xmlns="http://www.w3.org/2000/svg"
   xmlns:sodipodi="http://sodipodi.sourceforge.net/DTD/sodipodi-0.dtd"
   xmlns:inkscape="http://www.inkscape.org/namespaces/inkscape"
   width="221.17578"
   height="234.48828"
   viewBox="0 0 297.12457 315.00842"
   id="svg2"
   version="1.1"
   inkscape:version="0.92.3 (2405546, 2018-03-11)"
   sodipodi:docname="watch.svg">
  <defs
     id="defs4" />
  <sodipodi:namedview
     id="base"
     pagecolor="#ffffff"
     bordercolor="#666666"
     borderopacity="1.0"
     inkscape:pageopacity="0.0"
     inkscape:pageshadow="2"
     inkscape:zoom="1.0012034"
     inkscape:cx="326.3298"
     inkscape:cy="-107.24157"
     inkscape:document-units="px"
     inkscape:current-layer="layer1"
     showgrid="false"
     fit-margin-top="0"
     fit-margin-left="0"
     fit-margin-right="0"
     fit-margin-bottom="0"
     inkscape:window-width="1920"
     inkscape:window-height="1046"
     inkscape:window-x="0"
     inkscape:window-y="34"
     inkscape:window-maximized="1">
    <inkscape:grid
       type="xygrid"
       id="grid2996"
       empspacing="5"
       visible="true"
       enabled="true"
       snapvisiblegridlinesonly="true"
       originx="-397.43727"
       originy="482.97313"
       spacingx="1"
       spacingy="1" />
  </sodipodi:namedview>
  <metadata
     id="metadata7">
    <rdf:RDF>
      <cc:Work
         rdf:about="">
        <dc:format>image/svg+xml</dc:format>
        <dc:type
           rdf:resource="http://purl.org/dc/dcmitype/StillImage" />
        <dc:title></dc:title>
      </cc:Work>
    </rdf:RDF>
  </metadata>
  <g
     inkscape:label="Layer 1"
     inkscape:groupmode="layer"
     id="layer1"
     transform="translate(-397.43728,-1220.3269)">
    <path
       style="color:#000000;font-style:normal;font-variant:normal;font-weight:normal;font-stretch:normal;font-size:medium;line-height:normal;font-family:Sans;-inkscape-font-specification:Sans;text-indent:0;text-align:start;text-decoration:none;text-decoration-line:none;letter-spacing:normal;word-spacing:normal;text-transform:none;writing-mode:lr-tb;direction:ltr;baseline-shift:baseline;text-anchor:start;display:inline;overflow:visible;visibility:visible;fill:#ffffff;fill-opacity:1;fill-rule:evenodd;stroke:none;stroke-width:9.37928104;marker:none;enable-background:accumulate"
       d="m 323.48828,-140.00391 c -6.37076,0 -11.8122,1.84574 -15.61133,5.41016 -3.79913,3.56442 -5.68164,8.67174 -5.68164,14.07227 v 72.035152 c 0,11.809259 9.58503,19.482422 19.02735,19.482422 h 45.03711 v 14.498047 l 0.0137,0.01367 h -33.4961 c -2.44554,-0.01265 -4.43554,1.9665 -4.43554,4.41211 0,2.4455357 1.99,4.424615 4.43554,4.4121092 h 78.75782 c 2.44554,0.012655 4.43359,-1.9665735 4.43359,-4.4121092 0,-2.44561 -1.98805,-4.424615 -4.43359,-4.41211 h -33.69141 l 0.0137,-0.01367 v -14.498047 h 45.70313 c 5.8316,0 10.67204,-2.806896 13.80078,-6.445313 3.12881,-3.638342 4.83203,-8.041893 4.83203,-12.355469 V -120.2832 c 0,-4.16195 -1.27701,-8.91292 -4.58008,-12.88282 -3.30307,-3.96989 -8.78366,-6.83789 -15.80859,-6.83789 z m 0,8.60743 h 98.31641 c 4.86315,0 7.4246,1.61281 9.1914,3.73632 1.7669,2.12352 2.58789,5.07859 2.58789,7.37696 v 72.478512 c 0,1.817422 -0.96352,4.664677 -2.75,6.742188 -1.78653,2.077511 -4.1109,3.451172 -7.27343,3.451172 H 321.22266 c -4.95348,0 -10.41797,-3.588937 -10.41797,-10.875 v -72.035152 c 0,-3.51269 1.0485,-5.99684 2.96289,-7.79297 1.91438,-1.79614 4.96559,-3.08203 9.7207,-3.08203 z m 33.81055,22.88671 c -1.43606,0.0829 -2.68742,1.40725 -2.68945,2.84571 v 42.318357 c 4.4e-4,1.003285 0.57267,1.987404 1.44531,2.482422 0.87264,0.494943 2.01171,0.481317 2.87304,-0.0332 l 35.36719,-21.138672 c 0.84213,-0.504025 1.38867,-1.467819 1.38867,-2.449219 0,-0.981475 -0.54654,-1.945194 -1.38867,-2.449219 l -35.35351,-21.179689 c -0.49119,-0.29262 -1.07201,-0.43281 -1.64258,-0.39649 z m 97.39258,137.289067 -5.86329,1.332031 v 63.009766 l 5.86329,-0.04102 V 60.707031 c -3e-5,0 5.53988,-6.166015 13.27734,-6.166015 6.06445,0 9.10547,4.12234 9.10547,9.33789 v 29.201172 h 5.70703 V 63.425781 c 0,-10.391647 -6.37263,-14.447265 -13.0957,-14.447265 -6.88603,0 -11.89578,3.985887 -14.99414,6.74414 z m -193.08594,5.875 16.70312,58.447265 h 5.66211 l 15.77344,-51.423828 15.68555,51.423828 h 5.80469 l 16.38281,-58.447265 h -6.01758 l -13.11719,49.6875 -15.0293,-49.6875 H 296.2793 L 281.45898,84.568359 267.80859,34.654297 Z m 122.4082,5.890625 -0.33984,9.625 -6.45899,1.460937 -0.12109,3.580079 6.43945,0.558593 -0.6875,26.044922 c 0,10.143618 5.19843,12.669922 11.56641,12.669922 4.3284,0 9.54102,-2.056641 9.54101,-2.056641 l -1.12109,-5.279296 c 0,0 -4.55543,2.138671 -8.19922,2.138671 -2.93935,0 -6.23828,-1.025704 -6.23828,-7.878906 l 0.60352,-25.867187 h 14.26953 l 0.22851,-5.029297 h -14.41406 l 0.36914,-9.966797 z m -28.18945,8.429687 c -8.1377,0 -16.1543,5.154297 -16.1543,5.154297 l 1.44336,5.591797 c 2.80366,-2.398267 9.03319,-5.313705 14.14453,-5.322265 7.5426,0 9.95313,4.787455 9.95313,9.9375 v 2.818359 c -14.20507,0.922594 -26.09375,4.293536 -26.09375,15.277344 0,7.318221 6.46085,11.849609 13.66406,11.849609 7.32665,0 12.76953,-6.511719 12.76953,-6.511719 1.08183,4.396575 2.55969,6.125485 9.25977,6.285157 L 375.25,89.3125 c -4.0933,-0.202994 -4.375,-1.987894 -4.375,-4.587891 V 62.072266 c 0,-6.409994 -3.79908,-13.097657 -15.05078,-13.097657 z m 72.33789,0.04492 C 414.39602,49.019531 407,59.614667 407,71.943359 c 0,15.076227 9.77773,22.304688 20.87891,22.304688 8.03517,0 13.39453,-3.667969 13.39453,-3.667969 l -1.23438,-5.341797 c 0,0 -5.37217,3.548828 -11.86914,3.548828 -8.7362,0 -15.16015,-6.469665 -15.16015,-17.097656 0,-9.308266 5.27856,-17.25 15.01953,-17.25 6.11081,0 11.84961,3.441406 11.84961,3.441406 l 1.65039,-5.070312 c 0,0 -4.73158,-3.791016 -13.36719,-3.791016 z M 365.21094,71.13281 v 12.232422 c -2.51815,3.131861 -6.55344,5.861328 -11.16992,5.861328 -5.05666,0 -8.7793,-3.203218 -8.7793,-7.644531 0,-6.562965 7.82005,-9.008829 19.94922,-10.449219 z"
       transform="matrix(1.3433866,0,0,1.3433866,46,1408.4063)"
       id="path3810"
       inkscape:connector-curvature="0" />
  </g>
</svg>
