<?xml version="1.0" encoding="UTF-8" standalone="no"?>
<!-- Created with Inkscape (http://www.inkscape.org/) -->

<svg
   xmlns:dc="http://purl.org/dc/elements/1.1/"
   xmlns:cc="http://creativecommons.org/ns#"
   xmlns:rdf="http://www.w3.org/1999/02/22-rdf-syntax-ns#"
   xmlns:svg="http://www.w3.org/2000/svg"
   xmlns="http://www.w3.org/2000/svg"
   xmlns:sodipodi="http://sodipodi.sourceforge.net/DTD/sodipodi-0.dtd"
   xmlns:inkscape="http://www.inkscape.org/namespaces/inkscape"
   width="136.49805"
   height="81.246094"
   version="1.1"
   viewBox="0 0 36.115109 21.496361"
   id="svg102"
   sodipodi:docname="whatsapp.svg"
   inkscape:version="0.92.3 (2405546, 2018-03-11)">
  <sodipodi:namedview
     pagecolor="#ffffff"
     bordercolor="#666666"
     borderopacity="1"
     objecttolerance="10"
     gridtolerance="10"
     guidetolerance="10"
     inkscape:pageopacity="0"
     inkscape:pageshadow="2"
     inkscape:window-width="1920"
     inkscape:window-height="1046"
     id="namedview104"
     showgrid="false"
     fit-margin-top="0"
     fit-margin-left="0"
     fit-margin-right="0"
     fit-margin-bottom="0"
     inkscape:zoom="2.63"
     inkscape:cx="151.64978"
     inkscape:cy="-33.3237"
     inkscape:window-x="0"
     inkscape:window-y="34"
     inkscape:window-maximized="1"
     inkscape:current-layer="svg102" />
  <defs
     id="defs80">
    <clipPath
       id="clipPath36">
      <path
         d="M 1,1 H 641.93 V 133.88 H 1 Z"
         id="path34"
         inkscape:connector-curvature="0" />
    </clipPath>
    <clipPath
       id="clip2">
      <rect
         width="642"
         height="134"
         id="rect38"
         x="0"
         y="0" />
    </clipPath>
    <g
       clip-path="url(#clip2)"
       id="g41" />
    <clipPath
       id="clipPath45">
      <path
         d="M 1,1 H 211.93 V 211.88 H 1 Z"
         id="path43"
         inkscape:connector-curvature="0" />
    </clipPath>
    <clipPath
       id="clip4">
      <rect
         width="212"
         height="212"
         id="rect47"
         x="0"
         y="0" />
    </clipPath>
    <g
       clip-path="url(#clip4)"
       id="g50" />
    <clipPath
       id="clipPath54">
      <path
         d="M 1,1 H 211.93 V 211.88 H 1 Z"
         id="path52"
         inkscape:connector-curvature="0" />
    </clipPath>
    <clipPath
       id="clip8">
      <rect
         width="212"
         height="212"
         id="rect56"
         x="0"
         y="0" />
    </clipPath>
    <g
       clip-path="url(#clip8)"
       id="g59" />
    <clipPath
       id="clipPath63">
      <path
         d="M 1,1 H 118.93 V 111.88 H 1 Z"
         id="path61"
         inkscape:connector-curvature="0" />
    </clipPath>
    <clipPath
       id="clip12">
      <rect
         width="119"
         height="112"
         id="rect65"
         x="0"
         y="0" />
    </clipPath>
    <g
       clip-path="url(#clip12)"
       id="g68" />
    <linearGradient
       id="linearGradient2628"
       x2="1"
       gradientTransform="matrix(0,-11.017714,11.017714,0,7.4776416,12.779317)"
       gradientUnits="userSpaceOnUse">
      <stop
         stop-color="#20b038"
         offset="0"
         id="stop70" />
      <stop
         stop-color="#60d66a"
         offset="1"
         id="stop72" />
    </linearGradient>
    <linearGradient
       id="linearGradient2630"
       x2="1"
       gradientTransform="matrix(0,-11.41266,11.41266,0,7.4776742,12.978257)"
       gradientUnits="userSpaceOnUse">
      <stop
         stop-color="#f9f9f9"
         offset="0"
         id="stop75" />
      <stop
         stop-color="#fff"
         offset="1"
         id="stop77" />
    </linearGradient>
  </defs>
  <metadata
     id="metadata82">
    <rdf:RDF>
      <cc:Work
         rdf:about="">
        <dc:format>image/svg+xml</dc:format>
        <dc:type
           rdf:resource="http://purl.org/dc/dcmitype/StillImage" />
        <dc:title></dc:title>
      </cc:Work>
    </rdf:RDF>
  </metadata>
  <path
     style="fill:#ffffff;fill-opacity:1;stroke-width:0.16306596"
     d="m 18.081067,0 c -2.143951,0 -4.012922,1.1989292 -4.972307,2.9615762 -1.83e-4,3.44e-4 -3.44e-4,7.144e-4 -5.29e-4,0.00103 -0.217779,0.400313 -0.388918,0.8295558 -0.505395,1.2805418 -8.3e-5,3.175e-4 8.3e-5,7.408e-4 0,0.00103 -0.02322,0.08996 -0.04473,0.1807186 -0.06356,0.2723346 -6.8e-5,3.175e-4 6.8e-5,7.408e-4 0,0.00103 -0.01881,0.09162 -0.0353,0.1843405 -0.04961,0.2775024 -5.2e-5,3.439e-4 5.1e-5,7.143e-4 0,0.00103 -0.01429,0.09317 -0.0265,0.1870456 -0.03617,0.2816366 -3.5e-5,3.439e-4 3.5e-5,7.143e-4 0,0.00103 -0.0097,0.0946 -0.01731,0.1898687 -0.02222,0.2857709 -1.8e-5,3.44e-4 1.7e-5,7.144e-4 0,0.00103 -0.0049,0.09591 -0.0072,0.1922931 -0.0072,0.289388 V 5.6554708 5.656 c -2.8e-5,0.1242351 0.0039,0.2482347 0.01189,0.3715535 2.2e-5,3.44e-4 -2.3e-5,6.88e-4 0,0.00103 0.0081,0.1233154 0.02017,0.2458921 0.03617,0.3679362 4.4e-5,3.44e-4 -4.5e-5,6.879e-4 0,0.00103 0.01602,0.1220417 0.03608,0.2433873 0.05994,0.3638021 0.119646,0.6039699 0.337552,1.1856952 0.646989,1.7218585 L 12.37653,11.412747 v 0.001 l 2.998794,-0.786527 c 0.826304,0.4506 1.756433,0.687939 2.703194,0.68833 h 0.0026 c 2.143965,0 4.013526,-1.199614 4.972824,-2.9631263 0.04343,-0.079786 0.0849,-0.1603263 0.124539,-0.2423623 1.67e-4,-3.439e-4 2.65e-4,-6.879e-4 5.29e-4,-0.00103 0.0037,-0.00763 0.0067,-0.01561 0.01034,-0.023254 0.07519,-0.1575686 0.144018,-0.3190589 0.204637,-0.4842081 0.01013,-0.027615 0.01871,-0.055902 0.02842,-0.083716 0.02072,-0.059353 0.04167,-0.1185712 0.06046,-0.1788004 0.02752,-0.088167 0.05323,-0.1772213 0.07648,-0.267167 8.4e-5,-3.175e-4 -8.2e-5,-7.144e-4 0,-0.00103 0.02323,-0.08995 0.04471,-0.1807249 0.06356,-0.2723348 6.6e-5,-3.439e-4 -6.9e-5,-7.144e-4 0,-0.00103 0.01884,-0.091614 0.03528,-0.1838309 0.04961,-0.2769856 5.1e-5,-3.44e-4 -5.2e-5,-6.879e-4 0,-0.00103 0.01431,-0.093161 0.02648,-0.187053 0.03617,-0.2816365 3.5e-5,-3.44e-4 -3.7e-5,-6.879e-4 0,-0.00103 0.0097,-0.09459 0.01728,-0.1898766 0.02223,-0.2857706 1.6e-5,-3.44e-4 -1.8e-5,-6.879e-4 0,-0.00103 0.0049,-0.096243 0.0076,-0.1929844 0.0078,-0.2904215 2.9e-5,-0.0941 -0.0027,-0.1877827 -0.0072,-0.2811198 -1.5e-5,-3.439e-4 1.9e-5,-7.144e-4 0,-0.00103 -0.0045,-0.09333 -0.01114,-0.1866098 -0.02016,-0.2790528 -3.2e-5,-3.44e-4 3.5e-5,-7.144e-4 0,-0.00103 -0.009,-0.09244 -0.02064,-0.1840135 -0.03411,-0.2754355 -5e-5,-3.439e-4 4.8e-5,-7.143e-4 0,-0.00103 -0.01347,-0.09142 -0.02917,-0.1825744 -0.04703,-0.2728516 -6.6e-5,-3.175e-4 6.7e-5,-7.408e-4 0,-0.00103 -0.01786,-0.09027 -0.03826,-0.1797145 -0.06046,-0.2687174 -8.2e-5,-3.175e-4 8e-5,-7.409e-4 0,-0.00103 -0.02223,-0.089 -0.04689,-0.1774963 -0.07338,-0.2651003 -9.5e-5,-3.175e-4 9.6e-5,-7.409e-4 0,-0.00103 C 23.23021,3.1319925 22.750412,2.3264077 22.082932,1.6583165 21.014808,0.5893345 19.594287,6.5193333e-4 18.081067,0 Z m 0.0016,0.95601392 c 1.255966,5.0271e-4 2.436449,0.49036098 3.324345,1.37872728 0.554871,0.555271 0.954056,1.2247192 1.175121,1.9554362 0.04409,0.1458378 0.08136,0.2941294 0.111106,0.4444172 6.4e-5,3.175e-4 -6.6e-5,7.408e-4 0,0.00103 0.02971,0.1502918 0.05216,0.3024058 0.06718,0.4563028 3.4e-5,3.439e-4 -3.4e-5,7.143e-4 0,0.00103 0.015,0.1539042 0.02278,0.3094586 0.02273,0.4661215 v 5.292e-4 5.292e-4 c -9.6e-5,0.1616289 -0.0087,0.3210477 -0.02479,0.4785238 -5.3e-5,5.027e-4 5.3e-5,0.00103 0,0.00156 -0.01614,0.1572882 -0.04,0.3127333 -0.07131,0.465088 -6.9e-5,3.44e-4 6.9e-5,7.144e-4 0,0.00103 -0.06283,0.3053501 -0.155342,0.5997866 -0.274402,0.8805664 -0.0021,0.00512 -0.005,0.00987 -0.0072,0.014986 -0.718778,1.6783363 -2.386486,2.8577065 -4.324283,2.8577065 h -0.0016 C 17.235665,10.359216 16.408176,10.132689 15.686397,9.7043475 L 15.514314,9.602545 13.735095,10.069183 14.210001,8.3354388 V 8.3349096 8.3343805 L 14.097863,8.1566135 C 13.86267,7.782739 13.682888,7.379731 13.561979,6.9592705 c -9.3e-5,-3.175e-4 9.2e-5,-7.144e-4 0,-0.00103 -0.06036,-0.2100757 -0.106344,-0.4244877 -0.136943,-0.6418212 -4.7e-5,-3.439e-4 4.8e-5,-6.879e-4 0,-0.00103 -0.01523,-0.1083318 -0.02694,-0.2175197 -0.03462,-0.327112 -3.6e-5,-5.027e-4 3.6e-5,-0.00103 0,-0.00156 -0.0076,-0.1095971 -0.01137,-0.2197174 -0.01137,-0.3302125 v -5.291e-4 -0.00103 c 1.17e-4,-0.1617919 0.0081,-0.3219283 0.02429,-0.4795573 0.0161,-0.157471 0.04051,-0.312561 0.07183,-0.465088 6.8e-5,-3.175e-4 -6.7e-5,-7.409e-4 0,-0.00103 0.03135,-0.1525259 0.07049,-0.3022841 0.116272,-0.4490683 0.596788,-1.9120807 2.383927,-3.30419096 4.491198,-3.30419096 z M 16.078099,3.0442585 c -0.09429,0 -0.24723,0.035281 -0.376721,0.1767335 -0.129606,0.141457 -0.494543,0.4833114 -0.494543,1.1787393 0,0.695492 0.506133,1.3675273 0.576708,1.4619264 0.0707,0.094228 0.978213,1.5671797 2.41484,2.1337198 1.194067,0.470853 1.436859,0.3770625 1.69602,0.3534669 0.25916,-0.023527 0.836198,-0.3417154 0.953948,-0.6717937 0.117813,-0.3300291 0.118004,-0.6132317 0.08268,-0.6723105 -0.03532,-0.058908 -0.129439,-0.094209 -0.270785,-0.1648478 -0.141399,-0.070699 -0.836293,-0.4127455 -0.965832,-0.4599202 -0.129607,-0.047115 -0.224042,-0.070202 -0.318327,0.071313 -0.09423,0.1413407 -0.365023,0.4591698 -0.447518,0.5534546 -0.08244,0.094458 -0.164579,0.106358 -0.305924,0.035657 -0.1414,-0.070929 -0.596824,-0.2197645 -1.136882,-0.7012492 -0.420221,-0.3746603 -0.704019,-0.8377433 -0.786515,-0.9792684 -0.08243,-0.141341 -0.0089,-0.2178773 0.06201,-0.2883543 0.06351,-0.06334 0.141689,-0.1650352 0.21239,-0.2475302 0.07053,-0.08255 0.09396,-0.1413565 0.141076,-0.2356445 0.04717,-0.09434 0.02343,-0.1768242 -0.01188,-0.2475301 -0.03538,-0.0707 -0.30994,-0.7695205 -0.435632,-1.0490317 -0.105904,-0.2354019 -0.217085,-0.2402885 -0.31781,-0.2444295 -0.08244,-0.0035 -0.17713,-0.0031 -0.271301,-0.0031 z M 1.0847917e-5,14.584123 1.4588365,20.097998 H 2.6866686 L 3.604442,16.344739 h 0.015502 l 0.9343099,3.753259 H 5.7588313 L 7.2409115,14.584123 H 6.0523535 L 5.1485328,18.383891 H 5.1335468 L 4.1914754,14.584123 H 3.0566611 L 2.0990967,18.337382 H 2.0835948 L 1.2112956,14.584123 Z m 7.488431852083,0 v 5.513875 h 1.0960571 v -2.092896 c 0,-0.406654 0.06711,-0.698511 0.2010212,-0.876432 0.1336921,-0.177416 0.3498683,-0.266134 0.6485392,-0.266134 0.262373,0 0.4453102,0.08099 0.548287,0.243396 0.1029708,0.161993 0.1539958,0.407562 0.1539958,0.736906 v 2.25516 h 1.096574 v -2.455664 c 0,-0.246964 -0.02255,-0.472161 -0.06615,-0.675928 -0.04378,-0.203017 -0.11917,-0.375479 -0.227376,-0.517281 -0.107929,-0.141629 -0.256827,-0.252263 -0.444418,-0.33228 -0.188111,-0.07939 -0.428694,-0.119372 -0.7219194,-0.119372 -0.2059358,0 -0.4166312,0.0524 -0.6330363,0.15813 -0.2160619,0.105272 -0.3939169,0.274081 -0.532784,0.505912 h -0.023254 v -2.077392 z m 16.7224923,0 -2.085144,5.513875 h 1.220081 l 0.432014,-1.227832 h 2.06189 l 0.416512,1.227832 h 1.258838 l -2.061372,-5.513875 z m -7.806241,0.324527 v 1.196827 h -0.663525 v 0.733288 h 0.663525 v 2.355929 c 0,0.20106 0.03409,0.362834 0.100769,0.486275 0.06702,0.123394 0.158204,0.219545 0.273885,0.286287 0.115858,0.06696 0.249663,0.111693 0.401526,0.134876 0.151411,0.02301 0.313181,0.03462 0.482658,0.03462 0.108495,0 0.21885,-0.0027 0.332279,-0.0072 0.112983,-0.0053 0.215661,-0.01564 0.308509,-0.03152 V 19.24847 c -0.05166,0.01047 -0.105484,0.0186 -0.162264,0.02325 -0.05643,0.0052 -0.11599,0.0078 -0.177767,0.0078 -0.185113,0 -0.308621,-0.03078 -0.37052,-0.0925 -0.06144,-0.06161 -0.0925,-0.185517 -0.0925,-0.371037 v -1.976624 h 0.803052 v -0.733805 h -0.803052 v -1.196826 z m 8.407755,1.034563 h 0.0155 l 0.695047,2.023649 h -1.428337 z m -11.10941,0.05426 c -0.221184,0 -0.441481,0.02174 -0.659908,0.06563 -0.219292,0.04372 -0.416061,0.117404 -0.591178,0.220142 -0.175051,0.102971 -0.319435,0.239574 -0.432015,0.409277 -0.113615,0.169882 -0.177909,0.383291 -0.19327,0.640788 h 1.096057 c 0.02059,-0.216356 0.09295,-0.370465 0.216525,-0.463021 0.123452,-0.09273 0.293108,-0.13901 0.509529,-0.13901 0.09762,0 0.188747,0.0063 0.273885,0.01912 0.08474,0.013 0.15985,0.03817 0.224276,0.077 0.06443,0.0386 0.115568,0.09254 0.153996,0.162265 0.0386,0.06943 0.05788,0.164044 0.05788,0.282153 0.0051,0.113615 -0.02852,0.199075 -0.100252,0.258382 -0.07231,0.05954 -0.169434,0.104903 -0.293005,0.135392 -0.123569,0.03118 -0.265154,0.05429 -0.42478,0.06925 -0.159637,0.01577 -0.321761,0.03664 -0.486276,0.06201 -0.164878,0.02583 -0.328646,0.06061 -0.490409,0.104387 -0.162108,0.04349 -0.306598,0.109216 -0.432532,0.19637 -0.126211,0.08796 -0.22901,0.205108 -0.309025,0.351917 -0.07962,0.146806 -0.119372,0.333418 -0.119372,0.559655 0,0.205888 0.0349,0.383612 0.104386,0.532784 0.06943,0.149741 0.165701,0.273084 0.289388,0.371037 0.123621,0.09785 0.267837,0.17005 0.432532,0.216524 0.164468,0.04619 0.342143,0.06925 0.532784,0.06925 0.247012,0 0.488654,-0.03627 0.72502,-0.108004 0.236884,-0.0726 0.443047,-0.198323 0.61805,-0.378788 0.0051,0.0669 0.01416,0.13269 0.02687,0.196887 0.01289,0.06408 0.02952,0.127581 0.05013,0.189136 h 1.112077 c -0.05144,-0.08192 -0.08764,-0.205465 -0.108004,-0.37052 -0.02088,-0.164632 -0.03101,-0.336588 -0.03101,-0.517281 V 19.209676 17.1328 c 0,-0.242349 -0.05331,-0.436396 -0.161747,-0.58291 -0.107872,-0.146864 -0.247375,-0.261219 -0.417029,-0.343649 -0.170111,-0.08231 -0.358018,-0.138143 -0.563789,-0.166386 -0.205775,-0.02829 -0.409197,-0.04237 -0.609783,-0.04237 z m 6.570142,0 c -0.216535,0 -0.427669,0.01968 -0.633036,0.05788 -0.206293,0.03883 -0.391571,0.105981 -0.556039,0.201021 -0.164925,0.09521 -0.297295,0.224715 -0.397908,0.38964 -0.100497,0.164697 -0.150895,0.376349 -0.150895,0.633553 0,0.175052 0.03639,0.323036 0.10852,0.443901 0.07139,0.12115 0.167324,0.221371 0.285254,0.301273 0.118735,0.07979 0.253911,0.144205 0.40566,0.192754 0.15181,0.04941 0.307354,0.09145 0.466638,0.12764 0.391587,0.08249 0.696649,0.164872 0.915189,0.24753 0.218771,0.0822 0.328147,0.205579 0.328147,0.37052 0,0.09779 -0.02281,0.178387 -0.06925,0.24288 -0.04648,0.06472 -0.104206,0.115854 -0.173633,0.154512 -0.06989,0.03877 -0.14701,0.06715 -0.23151,0.08475 -0.08497,0.01818 -0.166248,0.02739 -0.243396,0.02739 -0.108092,0 -0.212555,-0.0131 -0.312642,-0.03876 -0.100616,-0.02577 -0.18952,-0.06581 -0.266651,-0.11989 -0.07714,-0.05396 -0.140354,-0.123064 -0.189136,-0.208256 -0.04855,-0.08502 -0.07338,-0.186162 -0.07338,-0.304891 h -1.042314 c 0.01053,0.267722 0.07093,0.49013 0.181901,0.66766 0.110162,0.177644 0.251511,0.32059 0.424263,0.428914 0.172344,0.107919 0.369638,0.185536 0.591179,0.232027 0.220952,0.04619 0.447266,0.06925 0.678512,0.06925 0.226592,0 0.449226,-0.02226 0.668176,-0.06563 0.218721,-0.04389 0.413028,-0.119567 0.582909,-0.227893 0.170225,-0.107919 0.307565,-0.251173 0.413412,-0.428915 0.105214,-0.177872 0.157612,-0.397823 0.157612,-0.660425 0,-0.185634 -0.03598,-0.340555 -0.108003,-0.466638 -0.07202,-0.126098 -0.166918,-0.232091 -0.285253,-0.317293 -0.118334,-0.08468 -0.25414,-0.152921 -0.405661,-0.204639 -0.152043,-0.0512 -0.307465,-0.09456 -0.467154,-0.130741 -0.154286,-0.03618 -0.305983,-0.06982 -0.455269,-0.100769 -0.149283,-0.03106 -0.282051,-0.0655 -0.397909,-0.10387 -0.115684,-0.03871 -0.208981,-0.08859 -0.28112,-0.150895 -0.07231,-0.06161 -0.108004,-0.141295 -0.108004,-0.239262 0,-0.08238 0.02008,-0.147876 0.0615,-0.196887 0.0413,-0.04867 0.09124,-0.08614 0.150379,-0.112138 0.05931,-0.02554 0.124635,-0.04213 0.196887,-0.05013 0.07202,-0.0076 0.138959,-0.01137 0.200504,-0.01137 0.195712,0 0.365652,0.03701 0.510045,0.111621 0.143701,0.07467 0.223565,0.217456 0.238747,0.428398 h 1.042313 c -0.02059,-0.246964 -0.08352,-0.451307 -0.189135,-0.613916 -0.10533,-0.161936 -0.237979,-0.291964 -0.397393,-0.389641 -0.159285,-0.09785 -0.341032,-0.167468 -0.544669,-0.208773 -0.203293,-0.04125 -0.412549,-0.06149 -0.628385,-0.06149 z m 9.657807,0 c -0.247367,0 -0.473369,0.04891 -0.679027,0.146761 -0.206459,0.09791 -0.375835,0.255047 -0.509529,0.471289 h -0.01603 V 16.105477 H 27.68409 v 5.390885 h 1.097089 v -1.892391 h 0.01447 c 0.133689,0.19581 0.305586,0.343794 0.514181,0.443901 0.207957,0.100382 0.43552,0.150895 0.682646,0.150895 0.29355,0 0.549772,-0.05704 0.768426,-0.170016 0.218771,-0.113097 0.401593,-0.265194 0.548288,-0.455786 0.146865,-0.190591 0.255532,-0.409164 0.328145,-0.65629 0.0715,-0.247241 0.108005,-0.504907 0.108005,-0.772563 0,-0.283148 -0.0365,-0.554167 -0.108005,-0.814421 -0.0726,-0.259731 -0.183005,-0.487967 -0.33228,-0.683679 -0.149053,-0.195532 -0.337259,-0.352549 -0.56379,-0.470772 -0.226592,-0.118619 -0.49648,-0.177767 -0.810286,-0.177767 z m 4.369245,0 c -0.246785,0 -0.473321,0.04891 -0.67903,0.146761 -0.205936,0.09791 -0.375734,0.254531 -0.509529,0.470772 h -0.01447 v -0.509529 h -1.042313 v 5.390885 h 1.096058 v -1.892391 h 0.01551 c 0.133805,0.19581 0.304961,0.343794 0.513146,0.443901 0.208301,0.100383 0.43602,0.150895 0.683162,0.150895 0.293097,0 0.549383,-0.05704 0.768429,-0.170016 0.218427,-0.113097 0.401371,-0.265194 0.54777,-0.455786 0.147037,-0.190591 0.256537,-0.409164 0.328663,-0.65629 0.07242,-0.247241 0.107487,-0.504907 0.107487,-0.772563 0,-0.283148 -0.03507,-0.554167 -0.107487,-0.814421 -0.07214,-0.259731 -0.18288,-0.487967 -0.33228,-0.683679 C 35.52606,16.45048 35.3386,16.293463 35.112069,16.17524 34.885361,16.056621 34.614666,15.997473 34.300749,15.997473 Z m -4.608505,0.825789 c 0.174757,0 0.323329,0.03798 0.443899,0.112655 0.12092,0.07449 0.220107,0.171847 0.297141,0.293005 0.07703,0.121093 0.132286,0.259184 0.16588,0.413412 0.03365,0.154572 0.05013,0.311484 0.05013,0.471289 0,0.159116 -0.01529,0.316544 -0.04599,0.470772 -0.03118,0.154572 -0.08375,0.289285 -0.158131,0.405143 -0.07461,0.115916 -0.172717,0.210535 -0.29404,0.282154 -0.120575,0.0722 -0.271142,0.10852 -0.451135,0.10852 -0.175226,0 -0.323946,-0.03632 -0.447517,-0.10852 -0.12374,-0.07162 -0.222924,-0.166246 -0.297656,-0.282154 -0.07467,-0.115857 -0.128727,-0.250573 -0.162263,-0.405143 -0.03359,-0.154228 -0.04961,-0.311652 -0.04961,-0.470772 0,-0.165333 0.01466,-0.32441 0.04547,-0.478524 0.03129,-0.154514 0.08375,-0.291289 0.158647,-0.410311 0.07415,-0.118102 0.172201,-0.214383 0.293523,-0.288871 0.120746,-0.07467 0.271188,-0.112655 0.451652,-0.112655 z m 4.369758,0 c 0.174937,0 0.322569,0.03798 0.443383,0.112655 0.121264,0.07449 0.220332,0.171847 0.297657,0.293005 0.07755,0.121093 0.132577,0.259184 0.165883,0.413412 0.03383,0.154572 0.05064,0.311484 0.05064,0.471289 0,0.159116 -0.01566,0.316544 -0.04651,0.470772 -0.03066,0.154572 -0.08358,0.289285 -0.158128,0.405143 -0.0749,0.115916 -0.172545,0.210535 -0.293523,0.282154 -0.12069,0.0722 -0.271529,0.10852 -0.451652,0.10852 -0.175117,0 -0.324577,-0.03632 -0.448035,-0.10852 -0.123679,-0.07162 -0.222239,-0.166246 -0.29714,-0.282154 -0.07421,-0.115857 -0.12867,-0.250573 -0.162264,-0.405143 -0.03342,-0.154228 -0.05013,-0.311652 -0.05013,-0.470772 0,-0.165333 0.01585,-0.324927 0.04651,-0.479041 0.03083,-0.154514 0.08364,-0.290772 0.158131,-0.409794 0.07455,-0.118102 0.172609,-0.214383 0.293521,-0.288871 0.120576,-0.07467 0.271254,-0.112655 0.451652,-0.112655 z m -19.702673,1.32085 v 0.409277 c 0,0.0623 -0.0061,0.144215 -0.01912,0.247014 -0.01278,0.10326 -0.04784,0.204975 -0.104386,0.305407 -0.05666,0.100384 -0.143958,0.18665 -0.262,0.258382 -0.118329,0.07231 -0.285873,0.108521 -0.502295,0.108521 -0.08727,0 -0.172435,-0.008 -0.254765,-0.02377 -0.08249,-0.01518 -0.154221,-0.04213 -0.216007,-0.08061 -0.06167,-0.0386 -0.110691,-0.09169 -0.146761,-0.158647 -0.03578,-0.0669 -0.05426,-0.148704 -0.05426,-0.246497 0,-0.102914 0.01849,-0.188669 0.05426,-0.255281 0.03607,-0.06661 0.08384,-0.121984 0.143144,-0.165882 0.05891,-0.04372 0.128468,-0.07838 0.208256,-0.104386 0.07973,-0.02566 0.160788,-0.04602 0.243396,-0.0615 0.08727,-0.01513 0.174744,-0.02852 0.261999,-0.03876 0.08784,-0.01006 0.171522,-0.02357 0.251147,-0.03876 0.08002,-0.01543 0.15409,-0.03469 0.22376,-0.05788 0.06949,-0.02318 0.127205,-0.05522 0.173632,-0.09663 z"
     id="path86"
     inkscape:connector-curvature="0" />
</svg>
