<svg version="1.1" id="Lager_1" xmlns="http://www.w3.org/2000/svg" x="0" y="0" viewBox="0 0 183.3 64.6" xml:space="preserve"><style type="text/css">.st0{fill:#fff}</style><title>FENIX_Int_logo</title><path class="st0" d="M0 9.7c-.1-1.7.2-3.4.8-5 .6-1.2 1.5-2.3 2.7-3 .5-.3 1.1-.6 1.7-.8C5.9.7 6.6.6 7.3.5c.3 0 .9-.1 1.5-.1H24.1c.7 0 1.3.1 2 .2.5.1 1 .2 1.5.4.4.2.9.4 1.3.6 1 .6 1.9 1.5 2.5 2.6.6 1.1.9 2.3.9 3.5 0 1.1-.2 2.2-.7 3.3-.4 1-1 1.9-1.8 2.6-.7.6-1.6 1.1-2.5 1.4-1.1.3-2.3.4-3.5.4h-8v3.4h4.9c1 0 2.1 0 3.1.2.7.1 1.4.4 2 .8.8.5 1.5 1.2 1.9 2 .5.8.7 1.8.7 2.7.1 1.6-.5 3.2-1.8 4.3-1.5 1.1-3.3 1.6-5.2 1.5h-5.7v10.4c0 .7-.1 1.3-.2 1.9-.1.5-.2.9-.4 1.4-.2.4-.4.9-.7 1.3-.7 1.1-1.6 2-2.8 2.7-1.2.7-2.5 1-3.8 1-1.4 0-2.9-.4-4.1-1.1-1.2-.7-2.2-1.7-2.8-3-.2-.4-.4-.8-.5-1.2-.1-.4-.2-.9-.3-1.4-.1-.6-.2-1.2-.2-1.8V9.7zM46.4 48.4c-1.3 0-2.6 0-3.9-.1-.7-.1-1.5-.3-2.2-.5-2.4-.9-4.2-3.1-4.5-5.7l-.1-.7c-.1-.3-.1-.6-.1-.8V8.7c0-.5 0-1 .1-1.5 0-.3.1-.7.2-1 .1-.3.2-.6.4-1 .3-.9.9-1.7 1.5-2.4s1.4-1.2 2.2-1.6c.4-.2.8-.3 1.2-.4.4-.1.8-.2 1.2-.2.5 0 1-.1 1.7-.1h16.6c.3 0 .6.1.9.1l.8.2c1.6.4 3 1.3 4 2.5 1 1.3 1.5 2.8 1.5 4.5 0 1.1-.2 2.3-.7 3.3-.4 1-1.1 1.9-1.9 2.6-.7.6-1.5 1.1-2.5 1.3-1.2.3-2.4.4-3.6.4h-7.9v3.3h6.3c1.7-.1 3.4.5 4.7 1.6 1.1 1.1 1.8 2.6 1.7 4.1.1 1.8-.7 3.4-2.1 4.5-.6.5-1.3.8-2 1-.9 0-1.9.1-2.9.1h-5.7v3.5h7.3c1.3 0 2.7.1 4 .4 3.1.9 5.2 3.8 5.2 7 0 1.1-.2 2.2-.7 3.2-.4 1-1.1 1.9-1.9 2.6l-1.2.9c-.4.2-.9.4-1.3.5-.6.1-1.1.2-1.7.2-.7 0-1.4.1-2.3.1H46.4zM87.8 29.5v10.1c0 1.2-.1 2.5-.4 3.7-.6 2.1-2.1 3.8-4.1 4.8-2.2 1-4.7 1-6.9-.1-1.1-.5-2-1.3-2.8-2.3-.6-.8-1.1-1.7-1.3-2.7-.2-1.3-.4-2.7-.3-4V8.5c-.1-2.3.7-4.5 2.3-6.2 1.6-1.6 3.8-2.4 6-2.3 1.1 0 2.2.2 3.1.8 1.1.6 2 1.4 2.8 2.4l12.6 15.5v-9c0-1.2.1-2.5.3-3.7.2-.9.6-1.8 1.2-2.6.7-1.1 1.7-1.9 2.8-2.5 1.1-.6 2.4-.9 3.7-.9 1.1 0 2.3.3 3.3.8s2 1.2 2.7 2.1c.6.8 1.1 1.7 1.4 2.7.3 1.2.5 2.4.4 3.6v29.4c0 1.5-.1 2.9-.4 4.4-.3 1-.7 2-1.4 2.8-.7.9-1.6 1.7-2.7 2.2-1.1.5-2.3.8-3.5.8-2.5 0-4.9-1.2-6.3-3.2L87.8 29.5zM120.8 9.9c0-1 0-1.9.1-2.6 0-.6.1-1.3.3-1.9.1-.5.3-1 .6-1.5s.6-.9 1-1.3c1.5-1.7 3.6-2.7 5.9-2.6 2.2-.1 4.4.9 5.9 2.5.8.8 1.3 1.8 1.7 2.9.3 1.5.5 3 .4 4.5v29.7c0 1.3-.1 2.6-.5 3.8-.3 1-.8 1.9-1.6 2.7-.8.8-1.7 1.5-2.7 1.9-1 .5-2.1.7-3.2.7s-2.2-.2-3.3-.7c-1-.4-1.9-1-2.6-1.8-.7-.8-1.3-1.7-1.6-2.7-.3-1.3-.5-2.7-.4-4V9.9zM162.6 36.9l-6.5 8.4c-.8 1.1-1.8 2-3 2.7-1.1.5-2.3.8-3.5.8-3.2 0-6.1-1.9-7.3-4.8-.4-.9-.6-2-.6-3s.2-1.9.5-2.8c.3-.9.8-1.8 1.4-2.6l9-11.9-6.7-8.9c-.9-1.2-1.8-2.5-2.4-3.8-.5-.9-.7-2-.7-3s.2-2.1.6-3c.4-.9 1-1.8 1.8-2.5s1.6-1.3 2.6-1.7c1-.4 2-.7 3.1-.6 2.7 0 5.2 1.4 6.7 3.6l5.1 6.8 4.8-6c.9-1.3 2.1-2.4 3.4-3.4 1.1-.7 2.3-1 3.6-1 1.1 0 2.1.2 3.1.6 1 .4 1.8 1 2.6 1.7.7.7 1.3 1.6 1.7 2.5.4.9.6 2 .6 3 0 1.8-.8 3.8-2.5 6l-7.3 9.7 9 12c1.1 1.5 1.8 3.4 1.7 5.3 0 1.1-.2 2.2-.6 3.2-.4.9-1 1.7-1.7 2.4s-1.5 1.3-2.5 1.7c-3.4 1.4-7.4.3-9.5-2.8l-6.5-8.6zM.2 60.8c0-1 .3-2 1-2.7.7-.7 1.6-1 2.5-1 .9 0 1.9.3 2.5 1 1.3 1.6 1.3 3.9 0 5.4-.7.7-1.6 1-2.5 1-.9 0-1.9-.3-2.5-1-.7-.7-1-1.7-1-2.7zm1.8 0c0 .6.1 1.1.5 1.6.3.4.7.6 1.2.6s1-.2 1.3-.5c.3-.5.5-1 .5-1.6 0-.6-.1-1.2-.5-1.6-.3-.4-.8-.6-1.3-.6s-1 .2-1.3.6c-.2.4-.4 1-.4 1.5zM8.8 61.3v-3c0-.3 0-.6.2-.9.3-.3.8-.4 1.1-.1l.1.1c.2.3.2.6.2.9v2.8c0 .5.1 1 .4 1.4.3.3.7.5 1.1.5.4 0 .8-.2 1.1-.5.3-.4.4-.9.4-1.4v-2.8c0-.3 0-.6.2-.9.3-.3.8-.4 1.1-.1l.1.1c.2.3.2.6.2.9v3c.1.9-.2 1.7-.8 2.4-.6.6-1.4.9-2.2.9-.8 0-1.7-.3-2.2-.9-.8-.6-1-1.5-1-2.4zM18 58.8h-.6c-.3 0-.6 0-.9-.2-.2-.1-.3-.4-.3-.6 0-.2.1-.4.3-.6.3-.1.6-.2.9-.2h2.8c.3 0 .6 0 .9.2.2.1.3.3.3.6 0 .2-.1.4-.3.6-.3.1-.6.2-.9.2h-.6v4.5c0 .3 0 .6-.2.9-.3.3-.8.4-1.1.1l-.1-.1c-.2-.3-.2-.6-.2-.9v-4.5zM25.1 57.3c.4 0 .8 0 1.2.1.3.1.6.2.9.4.5.3.9.7 1.1 1.2.3.5.4 1.1.4 1.7.1 1-.3 1.9-.9 2.7-.7.7-1.6 1-2.5 1h-1.5c-.3 0-.6 0-.9-.2-.2-.2-.3-.5-.2-.8v-5c0-.3.1-.6.3-.9.2-.2.6-.3.9-.2h1.2zm-.8 5.6h.7c.5 0 1.1-.2 1.5-.5.4-.5.5-1 .5-1.6.2-.9-.5-1.8-1.4-2H24.3v4.1zM30.2 60.8c0-1 .3-2 1-2.7 1.4-1.4 3.7-1.4 5.1 0 1.3 1.6 1.3 3.9 0 5.4-1.4 1.4-3.7 1.4-5.1 0-.7-.7-1-1.7-1-2.7zm1.8 0c0 .6.1 1.1.5 1.6.6.7 1.6.8 2.3.2.1-.1.2-.1.2-.2.3-.5.5-1 .5-1.6 0-.6-.1-1.1-.4-1.6-.6-.7-1.6-.8-2.3-.3l-.3.3c-.3.5-.5 1.1-.5 1.6zM38.7 60.8c0-1 .3-2 1-2.7 1.4-1.4 3.7-1.4 5.1 0 1.3 1.6 1.3 3.9 0 5.4-1.4 1.4-3.7 1.4-5.1 0-.7-.7-1.1-1.7-1-2.7zm1.7 0c0 .6.1 1.1.5 1.6.6.7 1.6.8 2.3.2.1-.1.2-.1.2-.2.3-.5.5-1 .5-1.6 0-.6-.1-1.2-.5-1.6-.6-.7-1.6-.8-2.3-.3l-.3.3c-.2.5-.4 1.1-.4 1.6zM48.9 61.6v1.8c0 .3 0 .6-.2.9-.3.3-.8.4-1.1.1l-.1-.1c-.2-.3-.2-.6-.2-.9v-4.9c-.1-.5.2-1 .7-1.1H49.7c.7 0 1.4.2 2 .6.5.4.7 1 .7 1.6 0 .5-.1.9-.5 1.3-.3.4-.8.6-1.2.7L52 63c.1.2.3.3.4.5.1.1.1.3.1.4 0 .2-.1.4-.2.5-.1.1-.3.2-.5.2-.1 0-.3 0-.4-.1-.2-.1-.3-.3-.5-.5l-2-2.4zm0-1.1h.8c.3 0 .5-.1.8-.2.2-.2.3-.4.3-.7 0-.2-.1-.5-.3-.6-.2-.2-.5-.2-.8-.2h-.8v1.7zM60 63.3c0 .3 0 .6-.2.9-.3.3-.8.4-1.1.1l-.1-.1c-.2-.3-.2-.6-.2-.9v-5c0-.3 0-.6.2-.9.3-.3.8-.4 1.1-.1l.1.1c.2.3.2.6.2.9v5zM61.5 63.3v-3.2c0-.3 0-.6.2-.9.1-.2.4-.3.6-.3.1 0 .3 0 .4.1.1.1.3.2.3.4.2-.2.4-.3.6-.4.3-.1.5-.1.8-.1.5 0 1.1.2 1.4.5.3.4.5.9.5 1.5v2.3c0 .3-.1.6-.2.9-.3.3-.8.4-1.1.1l-.1-.1c-.1-.3-.2-.6-.2-.9v-1.8c0-.3 0-.7-.2-.9-.2-.2-.4-.3-.7-.3-.2 0-.5.1-.6.3-.2.3-.2.6-.2.9v1.8c0 .3-.1.6-.2.9-.3.3-.8.4-1.1.1l-.1-.1c-.1-.2-.2-.5-.1-.8zM68.2 60.5c-.3 0-.5 0-.7-.2-.2-.1-.2-.3-.2-.5s.1-.4.2-.5c.2-.1.5-.2.7-.2v-.7c0-.3.1-.6.2-.9.1-.2.4-.3.6-.3.2 0 .5.1.6.3.1.3.2.6.2.9v.7h.1c.3 0 .5.1.7.2.2.1.3.3.3.5s-.1.4-.2.5c-.2.1-.5.2-.8.2h-.2v2.8c0 .3 0 .6-.2.9-.1.2-.4.3-.6.3-.2 0-.5-.1-.6-.3-.1-.3-.2-.6-.2-.9v-2.8zM73 62.2c0 .3.2.5.4.7.2.2.5.3.8.2.3 0 .7-.1 1-.3.2-.1.4-.2.7-.3.2 0 .3.1.4.2.1.1.2.3.2.4 0 .4-.3.8-.7.9-.5.3-1.1.4-1.7.4-.7 0-1.4-.3-1.9-.8s-.8-1.3-.8-2 .3-1.5.8-2 1.1-.8 1.8-.8 1.4.3 1.8.8c.5.5.8 1.2.7 1.8 0 .2 0 .4-.2.5-.2.1-.4.2-.6.1l-2.7.2zm0-1h2c0-.3-.1-.5-.3-.7-.4-.4-1-.4-1.4 0-.2.2-.3.4-.3.7zM77.8 63.3v-3.2c0-.3.1-.6.2-.9.1-.2.3-.3.6-.3.1 0 .3 0 .4.1.1.1.3.2.3.4.1-.2.3-.3.5-.4h.6c.2 0 .4.1.6.2.2.1.2.3.2.5-.1.4-.4.7-.9.8l-.5.2c-.2.1-.3.2-.4.3-.1.2-.1.4-.1.6v1.6c0 .3-.1.6-.2.9-.3.3-.8.4-1.1.1-.2-.3-.2-.6-.2-.9zM82.1 63.3v-3.2c0-.3 0-.6.2-.9.1-.2.4-.3.6-.3.1 0 .3 0 .4.1.1.1.3.2.3.4.2-.2.4-.3.6-.4h.8c.5 0 1.1.2 1.4.5.3.4.5.9.5 1.5v2.3c0 .3-.1.6-.2.9-.3.3-.8.4-1.1.1l-.1-.1c-.1-.3-.2-.6-.2-.9v-1.8c0-.3 0-.7-.2-.9-.2-.2-.4-.3-.7-.3-.2 0-.5.1-.6.3-.2.3-.2.6-.2.9v1.8c0 .3-.1.6-.2.9-.3.3-.8.4-1.1.1l-.1-.1c-.1-.3-.1-.6-.1-.9zM91.9 63.9c-.2.2-.4.3-.6.5-.2.1-.5.2-.7.2-.7 0-1.3-.3-1.7-.8-.5-.6-.7-1.3-.7-2s.2-1.4.7-2c.4-.5 1.1-.8 1.7-.8.2 0 .5 0 .7.1.2.1.4.2.6.4.1-.2.2-.3.3-.4.1-.1.3-.1.4-.1.2 0 .5.1.6.3.1.3.2.6.2.9v3.2c0 .3 0 .6-.2.9-.1.2-.4.3-.6.3-.2 0-.3 0-.4-.1-.1-.3-.3-.4-.3-.6zm-2.1-2.2c0 .3.1.7.3.9.2.2.5.4.7.3.3 0 .6-.1.7-.4.2-.3.3-.6.3-.9 0-.3-.1-.7-.3-.9-.2-.2-.4-.4-.7-.3-.3 0-.6.1-.7.3-.2.4-.3.7-.3 1zM95.3 60.5c-.3 0-.5 0-.7-.2-.2-.1-.2-.3-.2-.5s.1-.4.2-.5c.2-.1.5-.2.7-.2v-.7c0-.3.1-.6.2-.9.1-.2.4-.3.6-.3.2 0 .5.1.6.3.1.3.2.6.2.9v.7h.1c.3 0 .5.1.7.2.2.1.3.3.3.5s-.1.4-.2.5c-.2.1-.5.2-.8.2h-.1v2.8c0 .3 0 .6-.2.9-.1.2-.4.3-.6.3-.2 0-.5-.1-.6-.3-.1-.3-.2-.6-.2-.9v-2.8zM98.8 57.7c0-.5.4-.9.9-.9.2 0 .5.1.6.3.4.4.4.9 0 1.3-.2.2-.4.3-.6.3-.5-.1-.9-.5-.9-1zm1.6 5.6c0 .3 0 .6-.2.9-.1.2-.4.3-.6.3-.2 0-.5-.1-.6-.3-.1-.3-.2-.6-.2-.9v-3.2c0-.3 0-.6.1-.9.1-.2.4-.3.6-.3.2 0 .5.1.6.3.1.3.2.6.2.9l.1 3.2zM101.8 61.7c0-.7.2-1.5.8-2 1.1-1.1 2.8-1.1 3.8 0 1 1.2 1 2.8 0 4-1.1 1.1-2.8 1.1-3.8 0-.6-.5-.9-1.2-.8-2zm1.6 0c0 .4.1.7.3 1 .4.4 1 .5 1.4.1l.1-.1c.2-.3.3-.6.3-1s-.1-.7-.3-1c-.3-.4-.9-.5-1.3-.2-.1 0-.1.1-.2.2-.2.3-.3.7-.3 1zM108.2 63.3v-3.2c0-.3 0-.6.2-.9.1-.2.4-.3.6-.3.1 0 .3 0 .4.1.1.1.3.2.3.4.2-.2.4-.3.6-.4.3-.1.5-.1.8-.1.5 0 1.1.2 1.4.5.3.4.5 1 .4 1.5v2.3c0 .3-.1.6-.2.9-.3.3-.8.4-1.1.1l-.1-.1c-.1-.3-.2-.6-.2-.9v-1.8c0-.3 0-.7-.2-.9-.2-.2-.4-.3-.7-.3-.2 0-.5.1-.6.3-.2.3-.2.6-.2.9v1.8c0 .3-.1.6-.2.9-.1.2-.4.3-.6.3-.2 0-.5-.1-.6-.3v-.8zM118 63.9c-.2.2-.4.3-.6.5-.2.1-.5.2-.7.2-.7 0-1.3-.3-1.7-.8-.5-.6-.7-1.3-.7-2s.2-1.4.7-2c.4-.5 1.1-.8 1.7-.8.2 0 .5 0 .7.1.2.1.4.2.6.4.1-.2.2-.3.3-.4.1-.1.2-.1.4-.1s.5.1.6.3c.1.3.2.6.2.9v3.2c0 .3 0 .6-.2.9-.1.2-.4.3-.6.3-.2 0-.3 0-.4-.1-.1-.3-.2-.4-.3-.6zm-2.1-2.2c0 .3.1.7.3.9.2.2.5.4.7.3.3 0 .6-.1.7-.4.2-.3.3-.6.3-.9 0-.3-.1-.7-.3-.9-.2-.2-.4-.4-.7-.3-.3 0-.6.1-.7.3-.2.4-.3.7-.3 1zM121.1 57.9c0-.3 0-.6.2-.9.1-.2.4-.3.6-.3.2 0 .5.1.6.3.1.3.2.6.2.9v5.4c0 .3 0 .6-.2.9-.1.2-.4.3-.6.3-.2 0-.5-.1-.6-.3-.1-.3-.2-.6-.2-.9v-5.4zM129.3 63l-.2.7c-.1.2-.2.4-.3.5-.1.1-.3.2-.5.2s-.4-.1-.5-.2c-.1-.1-.2-.4-.2-.6v-.2c0-.1 0-.1.1-.2l1.8-5c.1-.3.3-.6.5-.8.2-.2.5-.3.7-.2.3 0 .5.1.7.2.2.2.4.4.5.7l1.8 5.1c0 .1.1.2.1.3v.2c0 .2-.1.4-.2.6-.2.1-.4.2-.6.2-.2 0-.4-.1-.5-.2-.2-.2-.3-.4-.3-.6l-.2-.7h-2.7zm.5-1.5h1.7l-.8-2.6-.9 2.6zM139.7 61.6h-.6c-.3 0-.6 0-.9-.2-.3-.2-.4-.7-.1-1l.1-.1c.3-.1.6-.2.9-.2h1.2c.3 0 .6.1.9.2.2.2.3.5.3.8 0 .9-.3 1.8-.9 2.5-.6.6-1.5 1-2.4.9-.9 0-1.8-.3-2.4-1-.7-.7-1-1.7-1-2.7 0-1 .3-2 1-2.7.7-.7 1.6-1.1 2.6-1 .6 0 1.3.1 1.9.5.4.2.7.6.8 1 0 .2-.1.4-.2.5-.1.1-.3.2-.5.2-.3-.1-.6-.2-.8-.3-.4-.2-.8-.3-1.2-.3-.5 0-1 .2-1.3.6-.3.5-.5 1-.5 1.6 0 .6.1 1.2.5 1.6.3.4.8.6 1.3.6.4 0 .7-.1 1-.4.1-.3.3-.7.3-1.1z"/></svg>