<?xml version="1.0" encoding="utf-8"?>
<!-- Generator: Adobe Illustrator 12.0.1, SVG Export Plug-In . SVG Version: 6.00 Build 51448)  -->
<!DOCTYPE svg PUBLIC "-//W3C//DTD SVG 1.1//EN" "http://www.w3.org/Graphics/SVG/1.1/DTD/svg11.dtd" [
	<!ENTITY ns_svg "http://www.w3.org/2000/svg">
	<!ENTITY ns_xlink "http://www.w3.org/1999/xlink">
]>
<svg  version="1.1" id="Calque_1" xmlns="&ns_svg;" xmlns:xlink="&ns_xlink;" width="499.932" height="175.242"
	 viewBox="0 0 499.932 175.242" overflow="visible" enable-background="new 0 0 499.932 175.242" xml:space="preserve">
<g>
	<path fill-rule="evenodd" clip-rule="evenodd" fill="#DA4E51" d="M2.4,8.353c0.419,0,0.836,0.419,1.671,1.255
		c0.417,0.835,1.252,1.67,2.089,2.924s1.671,2.925,2.924,4.595c0.836,1.671,2.089,3.343,2.924,5.013
		c1.254,1.254,2.089,2.506,2.506,3.341c2.089,2.508,2.925,2.508,4.178,2.508c1.254-0.419,2.506-0.836,3.762-1.255
		c0.416-0.416,1.668-0.835,2.922-1.252c3.76-1.67,9.19-2.924,14.203-2.505c1.254,0,2.506,0,4.178,0.417s3.76,0.835,5.014,1.252
		c1.67,0.417,2.505,0.835,3.34,0.835c0.835,0.417,1.673,0.417,2.508,0.836c1.252,0,2.505,0.416,3.341-0.836
		c0.835-1.252,1.67-3.341,0.417-4.595c-0.417-0.416-0.835-0.416-1.671-0.835c-2.087-0.835-5.43-2.089-8.354-2.506
		c-1.671-0.417-2.924-0.417-4.595-0.417c-5.43,0-11.697,0.835-17.963,2.924c1.254-1.252,2.506-2.089,3.759-2.924
		c1.671-0.835,3.76-1.67,6.268-2.508c2.924-0.833,6.265-2.087,10.025-2.922c3.759-0.419,7.519-1.254,10.86-1.671
		c2.924,0,5.849-0.417,7.102-0.417c1.671,0,2.506,0,2.927,0c1.67,0,3.34-0.417,4.594-2.089C72.164,6.683,73,5.43,73.833,4.594
		C74.67,2.924,75.922,1.67,78.43,0l1.67,11.697c5.849,0,11.698,1.252,17.546,3.76c5.849,2.087,11.697,5.429,17.544,9.606
		c5.43,4.178,10.863,8.771,15.457,14.622c4.597,5.848,8.355,12.53,11.278,19.633c3.343,6.684,5.432,13.786,6.684,21.305
		c1.254,7.102,1.254,14.202,0.419,21.725c-0.835,7.518-2.506,15.457-5.014,22.137c-2.505,7.102-5.429,12.955-9.605,18.797
		c-3.762,5.432-8.774,10.447-14.205,15.041c-5.432,4.178-11.697,7.518-18.381,10.441c-6.267,2.508-13.368,5.016-20.47,5.854
		c-6.684,0.832-13.784,0.832-20.887,0c-7.102-1.254-14.621-3.346-21.306-5.854c-6.683-2.924-12.949-6.68-17.544-10.025
		c-4.594-3.34-7.937-7.102-10.443-10.857c4.178,0.832,8.773,0.832,12.949,0.416c2.089-0.416,4.178-0.838,5.849-1.254
		c5.013-1.67,9.189-4.178,12.951-10.025c1.252-2.086,2.924-4.594,4.176-7.518c1.673-2.924,3.343-7.102,4.178-9.609
		c1.254-2.508,2.089-4.178,2.924-5.848c0.836-1.67,2.089-3.762,3.343-5.848c1.252-1.67,2.924-3.346,4.595-5.432
		c2.089-1.67,4.597-4.178,6.684-5.848s3.759-2.924,5.43-4.6c1.254-1.67,2.925-3.756,4.595-5.427
		c1.252-1.671,2.506-3.759,3.341-5.849c2.925-5.849,5.014-14.203,4.595-21.305c0-2.089-0.417-4.595-0.835-7.102
		c-0.416-2.089-1.252-4.595-2.089-6.683c-0.835-2.09-1.254-3.76-2.089-4.597c-0.835-1.67-1.252-1.67-2.089-1.252
		c-0.416,0-0.416,0.417-0.835,0.835c0,0.417-0.417,1.254,0,2.506c0,1.252,0.419,3.343,0.835,5.016
		c0.417,1.251,0.417,2.086,0.836,3.756c0.417,3.344,0.835,9.192,0,13.787c-0.419,4.178-1.671,8.354-4.178,12.114
		c-1.671,3.759-5.432,7.519-9.606,11.698c-2.09,2.086-4.597,3.756-5.849,5.01c-1.673,1.254-2.508,2.092-3.762,3.346
		c-1.67,1.67-3.34,4.178-5.013,6.264c-1.67,2.092-3.34,4.594-4.594,7.102c-1.254,2.924-2.506,6.27-3.343,8.355
		c-0.835,1.67-0.835,2.508-1.252,3.762s-1.254,2.924-2.089,4.178c-2.089,3.756-4.179,4.178-6.686,4.178
		c-1.252,0-2.924-0.422-4.595-2.092c-0.835-0.416-1.252-1.254-1.67-2.508c-0.835-0.832-1.252-2.924-1.671-4.594
		c-1.252-4.594-2.506-12.111-6.265-18.381c-1.254-1.67-2.506-3.762-4.178-5.432c-1.671-2.086-3.76-4.178-5.013-5.432
		c-1.254-1.254-2.089-1.67-2.924-2.502c-0.835-0.838-1.671-1.673-2.508-2.927c-1.252-1.252-1.67-2.506-2.505-3.759
		c-0.419-1.252-1.254-2.925-1.671-5.43c-0.417-2.089-0.835-4.597-0.835-9.609c-0.417-5.011-0.417-11.697,0-22.14
		C0.73,36.76,1.148,22.557,2.4,8.353L2.4,8.353L2.4,8.353z M22.454,84.801c1.251,0.417,2.505,0.417,3.757,0.417
		c0.836,0,1.671,0.417,2.089,0.417c1.252,0,1.671-0.835,1.671-1.252c-1.254-1.67-2.924-2.508-5.43-3.343
		c-0.836-0.417-1.671-0.835-2.508-1.252c-1.252-0.419-1.668,0.835-1.668,1.67c-0.419,0.836-0.836,2.089,0,3.343
		c0.416,0,0.416,0,0.416,0C21.199,84.801,21.616,84.801,22.454,84.801L22.454,84.801L22.454,84.801z"/>
	<path fill-rule="evenodd" clip-rule="evenodd" fill="#DA4E51" d="M315.707,78.954c-0.835,1.252-2.505,2.087-3.759,2.505
		c-2.924,0.836-5.848,1.255-9.19,0.417c-1.254-0.417-2.089-1.252-3.343-2.087c-0.835-0.835-2.086-1.671-2.924-2.924
		c-1.254-2.508-2.089-5.432-3.343-8.355h-20.467l-1.673,4.178c-0.416,1.67-1.254,2.924-2.089,4.178
		c-0.835,1.252-1.67,2.505-2.924,2.924c-2.089,1.67-4.178,2.506-6.683,2.506c-1.673,0-3.343-0.419-4.597-0.836
		c-1.67-0.417-2.924-1.252-3.759-2.505c-1.252-0.836-2.089-2.089-2.506-3.762c-1.254-2.087-1.254-5.011-0.836-7.519
		c0.417-0.835,0.836-2.087,0.836-2.924l18.798-45.951c0.835-2.089,2.089-4.597,3.343-5.849c0.835-1.671,2.089-2.924,3.759-4.178
		c2.508-1.671,5.848-2.924,9.19-2.924c1.67,0,3.34,0.417,5.013,0.835s3.343,1.255,4.594,2.089c1.254,1.254,2.508,2.506,3.759,3.76
		c0.838,1.67,1.673,3.343,2.508,5.013l18.381,47.205c0,0.417,0,0.417,0.419,1.673c0.416,0.833,0.835,2.505,0.835,4.176
		c0,1.67,0,3.343-0.835,4.594C317.796,76.865,316.961,78.117,315.707,78.954L315.707,78.954L315.707,78.954z M280.199,47.205h5.848
		l-2.921-9.609L280.199,47.205L280.199,47.205z"/>
	<path fill-rule="evenodd" clip-rule="evenodd" fill="#DA4E51" d="M222.552,60.154c0-2.087,0.416-4.176,0.416-5.848V21.305
		c0-1.673,0-3.76,0.419-5.013c0-1.673,0.836-2.925,1.254-4.179c0.417-0.835,1.252-2.087,2.089-2.922
		c0.835-0.419,1.67-1.252,2.922-1.671c2.089-0.836,4.597-1.254,7.521-0.836c1.252,0,2.089,0.417,3.343,0.836
		c0.833,0.419,2.089,1.252,2.924,1.671c0.835,0.835,1.252,2.087,2.087,2.922c0.417,1.254,0.835,2.506,1.254,4.179
		c0.417,1.252,0.417,3.34,0.417,5.013v35.09c0,2.087,0,3.759-0.417,5.43c0,1.671-0.419,3.341-0.836,4.597
		c0,1.251-0.835,2.505-1.252,3.759c-0.417,1.252-0.835,2.087-1.671,3.341c-0.835,0.835-1.252,1.67-2.089,2.508
		c-0.835,0.835-1.67,1.67-2.924,2.505c-0.835,0.835-1.67,1.254-2.924,1.671c-0.835,0.835-2.089,1.252-3.343,1.67
		c-1.252,0.419-2.506,0.838-4.176,0.838c-2.924,0.417-6.267,0.417-9.609,0c-1.67,0-2.924-0.419-4.595-0.419
		c-1.252-0.419-2.506-0.836-3.759-1.671c-1.254-0.417-2.506-0.835-3.341-1.254c-0.836-0.835-1.254-1.252-2.089-1.67
		c-2.09-2.508-2.925-4.595-3.343-6.684c0-1.252,0-2.089,0-2.925c0.417-1.668,0.417-2.924,1.252-4.176
		c0.419-0.835,1.254-1.67,1.673-2.089c1.252-1.671,2.506-2.089,3.759-2.506c0.835-0.417,2.508-0.417,4.178-0.417
		c1.252,0.417,2.924,0.835,4.176,2.087c1.254,0.836,2.089,2.09,2.925,2.508s2.089,0.836,2.924,0.417
		c0.417-0.417,0.417-0.417,0.417-1.254C222.552,62.244,222.552,60.989,222.552,60.154L222.552,60.154L222.552,60.154z"/>
	<path fill-rule="evenodd" clip-rule="evenodd" fill="#DA4E51" d="M187.46,55.978v11.278c0,1.671,0,3.76-0.417,5.013
		c-0.417,1.673-0.835,2.924-1.254,4.179c-0.833,0.833-1.251,2.087-2.087,2.922c-0.835,0.419-2.089,1.254-2.925,1.671
		c-2.087,0.835-5.011,1.254-7.519,0.835c-1.252,0-2.506-0.417-3.341-0.835c-1.252-0.417-2.089-1.252-2.922-1.671
		c-0.838-0.835-1.674-2.089-2.09-2.922c-0.417-1.255-1.252-2.506-1.252-4.179c-0.419-1.252-0.836-3.341-0.836-5.013V21.722
		c0-1.671,0.417-3.341,0.417-5.013c0.419-1.252,0.836-2.508,1.254-3.76c0.833-0.836,1.252-1.671,2.087-2.506
		c0.836-0.835,1.671-1.252,2.925-2.09c0.835-0.415,2.087-0.833,3.759-1.252c1.254,0,3.343-0.417,5.013-0.417h22.141
		c1.67,0,2.924,0,4.178,0.417c1.252,0,2.506,0.419,3.341,0.419c0.836,0.419,1.671,0.833,2.506,1.252
		c0.836,0.419,1.671,0.836,2.09,1.254c2.922,2.506,3.759,5.011,3.759,7.937c0,2.508-0.419,5.432-3.343,7.937
		c-0.416,0.419-1.252,0.835-2.089,1.254c-0.417,0.417-1.252,0.836-2.506,1.254c-0.835,0.417-1.67,0.417-2.924,0.417
		c-1.252,0.417-2.506,0.417-4.178,0.417c-1.67,0-3.341,0-5.013,0c-1.252,0-2.087,0-3.341,0c-0.835,0-2.089,0-2.924,0
		s-1.252,0.419-1.671,0.419c-0.836,0.416-0.836,0.835-0.836,1.252c-0.417,0.417-0.417,0.835,0,1.252c0,0.836-0.417,0.836,0,1.254
		c0,0.416-0.417,1.254,0.417,1.67c0,0,0.419,0.419,0.838,0.419c0.417,0,1.252,0,2.506,0.419c1.251,0,2.924-0.419,3.759-0.419
		c1.252,0,1.67,0,2.924,0c0.835,0,2.924,0,4.176,0c1.673,0.419,2.508,0.419,3.76,0.835c0.836,0,1.671,0.417,2.506,0.835
		c0.836,0.417,1.673,0.836,2.089,1.255c2.09,1.67,3.343,3.34,3.76,5.011c0,1.67,0.417,4.178-0.836,5.849
		c-0.417,1.252-1.252,2.505-2.506,3.341c-0.833,0.836-1.252,1.254-2.087,1.254c-0.836,0.417-1.671,0.835-2.506,1.252
		c-1.254,0-2.089,0.419-3.343,0.419c-1.671,0.417-3.341,0.417-5.013,0.417H187.46L187.46,55.978z"/>
	<path fill-rule="evenodd" clip-rule="evenodd" fill="#DA4E51" d="M264.742,2.924c0.835,0,2.092,0,2.927,0.835
		c2.505,2.089,2.924,4.594,1.251,7.102c-2.086,2.506-4.594,2.925-7.102,1.252c-2.505-2.087-2.924-4.594-1.251-7.1
		C261.818,3.341,263.072,2.924,264.742,2.924L264.742,2.924L264.742,2.924z"/>
	<path fill-rule="evenodd" clip-rule="evenodd" fill="#DA4E51" d="M302.339,2.924c0.838,0,2.089,0,2.927,0.835
		c2.505,2.089,2.924,4.594,1.251,7.102c-2.089,2.506-4.594,2.925-7.102,1.252c-2.508-2.087-2.924-4.594-1.251-7.1
		C299.415,3.341,300.669,2.924,302.339,2.924L302.339,2.924L302.339,2.924z"/>
	<path fill-rule="evenodd" clip-rule="evenodd" fill="#DA4E51" d="M372.938,21.305c0-1.673,0.419-3.76,0.835-5.013
		c0-1.673,0.835-2.925,1.254-4.179c0.835-0.835,1.254-2.087,2.089-2.505c0.838-0.836,1.67-1.67,2.924-2.089
		c2.089-0.836,5.013-1.254,7.518-0.836c1.257,0,2.508,0.417,3.762,0.836c0.835,0.419,2.089,1.252,2.927,2.089
		c0.832,0.417,1.251,1.67,2.086,2.505c0.416,1.254,1.254,2.506,1.254,4.179c0.416,1.252,0.416,3.34,0.416,5.013v39.268h10.444
		c1.67,0,3.762,0,5.013,0c1.67,0.416,2.924,0.835,4.178,1.252c1.254,0.419,2.089,1.254,2.924,1.671
		c0.838,0.836,1.254,1.252,2.089,2.089c1.254,1.67,1.254,3.341,1.254,5.43c0,1.671,0,3.341-1.254,5.014
		c-0.835,0.835-1.251,1.67-2.089,2.087c-0.835,0.836-1.67,1.252-2.924,1.671c-1.254,0.417-2.508,0.835-4.178,1.252
		c-1.251,0-3.343,0.417-5.013,0.417h-19.632c-2.089,0-4.178-0.417-5.432-0.417c-1.673-0.417-2.924-0.835-3.762-1.252
		c-1.251-0.419-2.089-0.835-2.924-1.671s-1.251-1.67-1.67-2.506c-0.835-0.836-1.254-2.089-1.254-3.343
		c-0.416-1.67-0.835-3.341-0.835-5.013V21.305L372.938,21.305z"/>
	<path fill-rule="evenodd" clip-rule="evenodd" fill="#DA4E51" d="M320.72,21.305c0-1.673,0-3.76,0.419-5.013
		c0.419-1.673,0.835-2.925,1.254-4.179c0.835-0.835,1.67-2.087,2.505-2.505c0.835-0.836,1.67-1.67,2.508-2.089
		c2.089-0.836,5.013-1.254,7.937-0.836c1.254,0,2.505,0.417,3.343,0.836c1.251,0.419,2.089,1.252,2.921,2.089
		c0.838,0.417,1.673,1.67,2.089,2.505c0.838,1.254,1.257,2.506,1.673,4.179c0,1.252,0.419,3.34,0.419,5.013v39.268h10.025
		c1.67,0,3.759,0,5.429,0c1.673,0.416,2.927,0.835,3.762,1.252c1.254,0.419,2.086,1.254,2.924,1.671
		c0.835,0.836,1.67,1.252,2.089,2.089c1.254,1.67,1.67,3.341,1.67,5.43c0,1.671-0.416,3.341-1.67,5.014
		c-0.419,0.835-1.254,1.67-2.089,2.087c-0.838,0.836-1.67,1.252-2.924,1.671c-0.835,0.417-2.089,0.835-3.762,1.252
		c-1.67,0-3.759,0.417-5.429,0.417h-19.635c-2.089,0-3.759-0.417-5.432-0.417c-1.67-0.417-2.921-0.835-3.759-1.252
		c-1.254-0.419-2.089-0.835-2.505-1.671c-0.838-0.836-1.673-1.67-2.089-2.506c-0.419-0.836-0.835-2.089-1.254-3.343
		c-0.419-1.67-0.419-3.341-0.419-5.013V21.305L320.72,21.305z"/>
	<path fill-rule="evenodd" clip-rule="evenodd" fill="#DA4E51" d="M458.157,146.206v14.625c0,1.67,0,3.34-0.416,4.594
		c-0.419,1.254-0.835,2.092-1.673,2.924c-0.419,0.838-0.835,1.254-2.089,2.092c-0.835,0.416-2.089,0.832-3.759,1.254
		c-1.67,0-3.343,0-5.013,0c-2.924,0-4.178,0-5.848-0.838c-1.254-0.416-2.089-0.838-2.924-1.67c-0.838-0.838-1.673-1.67-2.089-2.508
		c-0.835-0.416-0.835-1.254-1.254-2.086c-0.419-0.838-0.835-2.092-0.835-3.346c0-1.67-0.416-3.762-0.416-5.848l0.416-48.041
		c0-2.086,0-3.756,0.416-5.432c0.419-1.254,0.838-2.502,1.254-3.756c0.419-0.838,0.835-2.092,1.67-2.508
		c0.838-0.838,1.254-1.67,2.089-2.092c0.838-0.416,1.673-0.832,2.924-1.254c0.838,0,2.508-0.416,3.762-0.416
		c1.67,0,3.759,0,5.013,0.416c2.924,0.422,4.178,1.254,6.264,2.93c1.257,0.832,2.092,2.086,3.346,3.756l16.289,21.305l-0.416-12.949
		c0-0.832,0.416-1.254,0.416-2.086c0-1.254,0-2.508,0.419-3.762c0-1.67,0.419-2.508,0.835-3.762c0.419-0.832,1.254-1.67,1.67-2.502
		c0.838-0.838,1.257-1.676,2.092-2.092s1.67-0.838,2.505-1.254s1.67-0.416,2.924-0.416c1.254-0.416,2.924-0.416,4.178,0
		c0.835,0,2.089,0.416,2.924,0.416c0.835,0.416,1.673,0.838,2.089,1.67c0.835,0.422,1.67,1.254,2.089,2.092s1.254,1.67,1.67,2.924
		c0.419,0.838,0.838,2.086,0.838,3.762c0.416,1.254,0.416,2.924,0.416,5.01v49.711c0,2.092,0,4.178-0.416,5.432
		c-0.419,1.67-0.838,2.924-1.67,4.178c-0.419,0.838-1.257,2.086-2.092,2.508c-0.835,0.832-1.67,1.254-2.924,1.67
		c-2.089,1.254-5.429,1.67-8.774,1.254c-2.921-0.416-5.429-1.254-7.518-3.346c-1.254-1.248-2.924-2.502-3.759-4.172L458.157,146.206
		L458.157,146.206z"/>
	<path fill-rule="evenodd" clip-rule="evenodd" fill="#DA4E51" d="M222.133,169.187c-2.087,1.67-5.013,2.508-7.937,2.508
		c-3.343,0-6.684-1.254-10.025-5.016c-0.836-1.254-2.09-2.508-2.925-4.178c-2.506-4.178-5.013-7.934-6.265-10.441
		c-1.671-2.092-2.508-2.924-3.343-3.762c-0.416-0.416-1.252-0.838-1.67-0.838v9.193c0,2.086-0.417,4.178-0.417,5.848
		c-0.417,1.67-1.254,2.924-1.673,4.178c-0.835,1.254-1.252,2.086-2.089,2.924c-1.251,0.838-2.087,1.67-3.34,2.092
		c-2.09,0.832-5.014,1.248-7.522,0.832c-1.67,0-2.506-0.416-3.757-0.832c-1.254-0.838-2.089-1.254-2.925-2.092
		c-0.835-0.838-1.671-2.086-2.089-2.924c-0.836-1.254-1.252-2.508-1.67-4.178s-0.417-3.762-0.417-5.848v-49.711
		c0-1.67,0-3.762,0.417-5.016c0.417-1.67,0.833-2.924,1.252-4.178c0.417-0.832,1.255-1.67,2.089-2.502
		c0.836-0.838,1.671-1.676,2.924-2.092c1.254-0.838,2.506-1.254,3.76-1.254c1.673-0.416,3.759-0.832,5.848-0.832
		c5.849,0,11.698,0.416,17.546,0c3.76,0,7.519,0,11.279,1.67c2.089,0.832,4.176,2.086,6.265,3.34
		c1.671,1.254,3.343,2.924,4.597,4.178c1.252,1.254,2.087,2.924,2.922,4.594c1.255,3.346,2.09,8.355,1.255,12.533
		c0,2.092-0.419,4.178-1.255,5.848c-0.835,2.092-1.67,3.762-2.922,5.432c-1.673,2.092-3.76,4.178-5.849,5.848l5.849,11.279
		c1.252,2.092,2.506,3.762,3.341,5.848c1.671,3.346,2.924,6.686,2.924,10.031c0,1.248-0.835,2.924-1.252,4.172
		C224.223,167.101,223.387,168.349,222.133,169.187L222.133,169.187L222.133,169.187z M192.473,124.069
		c0.836,0,1.673-0.416,2.508-0.416s1.252-0.422,1.67-0.422c0.419-0.416,0.836-0.416,1.254-0.832c0.835-0.838,0.835-0.838,1.254-1.67
		c0-0.838,0-1.254,0-2.092c0-0.416,0-1.254,0-1.67c0-0.832-0.419-1.254-1.254-2.092c0,0-0.417-0.416-0.835-0.416
		c-1.254-0.416-2.924-0.832-4.178-0.832h-4.176v10.441H192.473L192.473,124.069z"/>
	<path fill-rule="evenodd" clip-rule="evenodd" fill="#DA4E51" d="M346.621,162.501c-0.419,1.254-1.254,2.924-2.089,3.762
		c-1.254,2.502-2.927,3.34-5.013,4.594c-0.835,0.416-1.673,0.416-2.924,0.838c-1.254,0-2.924,0.416-5.013,0
		c-2.089,0-4.178,0-5.851-0.422c-1.67,0-2.505-0.416-3.759-0.832c-0.835-0.422-1.67-0.838-2.089-1.676
		c-0.835-0.832-1.67-1.664-2.505-2.502c-0.419-1.254-1.254-2.092-1.673-3.346l-19.635-50.965c-0.835-2.086-1.251-4.178-1.67-6.264
		c0-2.086,0.835-4.594,1.67-6.264c0.835-1.254,1.257-2.092,2.092-2.508c0.835-0.838,1.67-1.67,2.924-2.092
		c2.924-1.67,6.683-2.508,10.441-1.254c1.254,0.422,2.089,0.838,3.343,1.676c0.835,0.832,2.089,2.086,2.924,3.34
		s1.254,2.508,2.089,4.178l12.114,30.914l12.114-30.076c0.419-1.676,1.254-3.346,2.089-4.6c0.835-1.67,2.089-2.502,2.924-3.34
		c2.508-2.092,5.013-2.508,7.521-2.508c2.089,0,4.178,0.416,5.848,0.838c1.673,0.832,2.927,1.67,4.178,2.924
		c0.835,1.254,1.673,2.508,2.089,4.594c0.835,3.762,0,9.193-2.089,13.787L346.621,162.501L346.621,162.501z"/>
	<path fill-rule="evenodd" clip-rule="evenodd" fill="#DA4E51" d="M371.685,101.927c0-0.832,0.835-2.086,1.254-2.924
		c0.419-0.832,1.254-1.67,2.089-2.502c0.835-0.838,1.67-1.676,2.927-2.092c0.832-0.416,2.086-0.838,3.756-1.254
		c1.673-0.416,3.762-0.416,5.432-0.416H409.7c1.67,0,3.343,0,4.594,0c1.254,0.416,2.508,0.416,3.343,0.832
		c1.254,0.422,2.089,0.422,2.924,0.838c0.838,0.416,1.254,0.838,2.089,1.67c3.759,2.924,4.178,6.686,3.759,10.447
		c0,0.832,0,1.248-0.416,2.086c-0.419,0.838-0.419,1.67-0.835,2.092c-0.419,0.832-0.835,1.248-1.254,1.67
		c-0.419,0.416-0.835,0.416-1.67,0.832c-0.419,0.422-1.673,0.838-2.508,1.254c-1.254,0-2.508,0.416-3.759,0.838
		c-1.673,0-3.343,0.416-5.432,0.416s-4.594,0-6.267,0c-1.67-0.416-2.089-0.416-2.924-0.416s-1.673,0-2.508,0
		s-1.67,0.416-2.089,0.416c-0.832,0.422-1.251,0.422-1.67,1.254c-0.832,1.67-0.832,3.34,0.419,5.01
		c0.419,0.422,0.419,0.422,0.835,0.422c0.416,0.416,1.254,0.416,1.67,0.416c0.835,0,1.67,0,2.089,0s0.838,0,1.67,0
		c1.257,0,3.343,0,5.016,0c1.67,0,2.924,0,3.759,0s1.254,0,1.673,0c0.835,0,2.086,0,3.34,0.416c1.254,0,2.089,0,2.924,0.422
		c1.254,0,2.089,0.832,3.343,2.086c2.508,2.508,2.924,5.016,2.508,7.939c0,2.086-0.838,4.178-2.508,6.264
		c-1.254,1.254-2.505,2.508-3.759,2.924c-1.254,0.838-3.343,0.838-5.848,1.254c-1.254,0-2.508,0-3.343,0
		c-2.508,0-3.762,0.416-5.432,0c-1.254,0-2.089,0-3.343,0c-0.835,0-1.67,0-2.089,0c-0.835,0.416-1.67,0.416-2.086,1.254
		c-1.254,0.832-1.254,2.508-0.419,4.178c0.419,0.416,0.835,0.416,0.835,0.838c0.416,0,0.835,0.416,1.67,0.416
		c0.419,0,1.254,0,2.089,0c1.254,0,2.508,0,3.762,0c1.67,0,3.34,0,5.429,0c2.508,0,5.013,0,6.686,0c2.089,0,3.343,0.416,4.594,0.416
		c1.673,0.416,2.508,0.838,3.343,1.67c1.67,1.676,2.924,4.178,3.343,5.848c0.416,2.93,0,5.432-2.089,8.361
		c-0.419,0.416-1.254,0.832-1.673,1.664c-0.835,0.422-1.251,0.838-2.086,1.254c-0.838,0.422-1.673,0.422-2.927,0.838
		c-2.089,0.416-5.013,0.838-7.937,0.838h-23.394c-2.089,0-4.178,0-5.848-0.422c-1.673,0-2.508-0.416-3.762-0.832
		c-1.251-0.838-2.086-1.254-2.924-2.092c-0.416-0.832-1.251-1.248-1.67-2.508c-1.254-2.086-2.089-4.594-2.089-7.102v-53.051
		C370.85,104.435,371.269,103.181,371.685,101.927L371.685,101.927L371.685,101.927z"/>
	<path fill-rule="evenodd" clip-rule="evenodd" fill="#DA4E51" d="M301.088,169.187c-1.254,1.254-2.508,2.086-4.181,2.924
		c-2.921,0.832-6.264,1.254-9.606,0c-1.254-0.416-2.505-0.838-3.759-1.67c-0.835-0.838-2.089-2.092-2.924-3.34
		c-1.67-2.508-2.508-5.854-3.343-8.777h-22.14l-1.254,4.178c-0.835,1.67-1.671,3.34-2.508,4.6c-0.833,1.248-1.668,2.502-2.922,3.34
		c-2.09,1.67-4.595,2.502-7.103,2.502c-1.67,0-3.341-0.416-5.011-0.832c-1.671-0.838-2.925-1.67-4.178-2.924
		c-0.836-0.838-1.671-2.086-2.508-3.762c-0.835-2.508-0.835-5.432-0.417-7.939c0-1.248,0.417-2.086,0.836-2.918l19.635-48.879
		c0.835-2.508,2.087-4.594,3.341-6.264c1.251-1.676,2.505-2.924,3.759-4.178c3.343-2.092,6.683-2.93,10.028-2.93
		c2.086,0,3.759,0.422,5.429,0.838c1.673,0.416,3.343,1.254,4.597,2.092c1.67,1.254,2.921,2.502,4.175,3.756
		c0.838,1.67,2.092,3.762,2.924,5.432l19.219,49.711c0,0.422,0,0.838,0.416,1.67c0.419,1.254,0.835,2.924,0.835,4.6
		c0,2.086,0,3.34-0.835,5.01C303.177,167.101,302.339,168.349,301.088,169.187L301.088,169.187L301.088,169.187z M263.072,136.181
		h6.267l-2.927-10.857L263.072,136.181L263.072,136.181z"/>
	<path fill-rule="evenodd" clip-rule="evenodd" fill="#DA4E51" d="M246.78,88.98c1.252,0,2.506,0,3.343,0.835
		c2.505,2.086,2.924,4.594,1.251,7.518c-2.087,2.508-4.594,2.924-7.518,1.254c-2.508-2.086-2.925-4.594-1.252-7.518
		C243.856,89.396,245.526,88.98,246.78,88.98L246.78,88.98L246.78,88.98z"/>
	<path fill-rule="evenodd" clip-rule="evenodd" fill="#DA4E51" d="M286.466,88.98c1.254,0,2.505,0,3.343,0.835
		c2.505,2.086,2.924,4.594,1.254,7.518c-2.092,2.508-4.597,2.924-7.521,1.254c-2.508-2.086-2.924-4.594-1.254-7.518
		C283.542,89.396,285.212,88.98,286.466,88.98L286.466,88.98L286.466,88.98z"/>
</g>
</svg>
