<?xml version="1.0" encoding="UTF-8" standalone="no"?>
<svg
   xmlns="http://www.w3.org/2000/svg"
   id="svg1332"
   version="1.1"
   height="240"
   width="800">
  <title
     id="title2007">Globetrotter Ausrüstung GmbH Logo</title>
  <g
     transform="translate(0,-882.51965)"
     id="layer1">
    <g
       transform="matrix(1.0521405,0,0,1.0521405,-25.01193,-56.831334)"
       id="g2003">
      <path
         d="m 135.37175,1109.5187 h 2.62653 v -15.8949 l 10.77781,15.8949 h 3.39637 v -19.2913 h -2.62653 v 15.8045 l -10.68723,-15.8045 h -3.48695 z m 35.14109,0 h 12.77035 v -2.3548 h -10.41554 v -6.3851 h 9.28341 v -2.1737 l -9.28341,-0.2264 v -5.6607 h 9.9174 v -2.4906 h -12.27221 z m 32.10701,-19.2913 v 11.9098 c 0,2.4907 1.13212,5.6607 4.89077,5.6607 3.6228,0 4.89077,-3.1247 4.89077,-5.6607 v -11.9098 h 2.76238 v 12.4081 c 0,4.5284 -3.39638,7.653 -7.38144,7.653 -4.25678,0 -7.38144,-3.1246 -7.38144,-7.653 v -12.4081 z m 29.9786,19.2913 13.04205,0.2718 v -2.4002 l -10.41554,-0.2264 v -6.1587 h 9.3287 v -2.4001 h -9.3287 v -5.8871 h 9.91741 v -2.4906 h -12.54392 z m 50.58324,0.2718 h 2.76236 v -9.0117 h 10.14383 v 9.0117 h 2.4001 v -19.3367 h -2.4001 v 8.1513 l -10.14383,-0.2264 v -7.9249 h -2.76236 z m 49.81339,-9.6457 c 0,-4.2568 -2.89823,-7.6532 -7.15501,-7.6532 -4.5285,0 -7.38144,3.3964 -7.38144,7.6532 0,4.2568 2.89823,7.6531 7.155,7.6531 4.48322,0 7.38145,-3.3963 7.38145,-7.6531 m -17.29883,0 c 0,-5.8871 4.25677,-10.1439 10.14382,-10.1439 5.88703,0 10.14381,4.5285 10.14381,10.1439 0,5.8871 -4.25678,10.1437 -10.14381,10.1437 -6.15876,0 -10.14382,-4.2566 -10.14382,-10.1437 m 39.62429,-1.1322 h 3.39637 c 1.99253,0 4.25678,-0.498 4.25678,-3.1246 0,-2.7624 -1.99254,-3.1246 -4.03035,-3.1246 h -3.39638 z m -2.49067,-8.5588 h 6.79273 c 4.89077,0 6.29461,2.8982 6.29461,5.3888 0,2.4907 -1.76611,4.7551 -4.75491,5.1626 l 5.3889,8.7853 h -3.39638 l -4.93605,-8.5137 h -2.89823 v 8.5137 h -2.76238 z m 29.85634,19.4599 0.0317,-19.3367 h 2.76238 l -0.0317,19.3367 z m 19.45893,-16.9239 10.55138,0.091 -11.04951,14.4459 v 2.5358 h 14.67231 v -2.5358 h -11.27595 l 11.00424,-14.4459 v -2.3549 l -13.90247,-0.2716 z m 46.77931,7.3814 c 0,-4.2568 -2.89825,-7.6532 -7.15502,-7.6532 -4.52849,0 -7.38144,3.3964 -7.38144,7.6532 0,4.2567 2.89822,7.6531 7.15502,7.6531 4.52848,0 7.38144,-3.3964 7.38144,-7.6531 m -17.29885,0 c 0,-5.887 4.2568,-10.1438 10.14383,-10.1438 5.88703,0 10.14382,4.5284 10.14382,10.1438 0,5.8869 -4.25679,10.1438 -10.14382,10.1438 -6.11347,0.046 -10.14383,-4.4831 -10.14383,-10.1438 m 37.13364,9.6909 h 2.53594 v -15.9403 h 0.0905 l 10.68725,15.9403 h 3.39636 v -19.3367 h -2.53596 v 15.9404 h -0.22643 l -10.55138,-15.9404 h -3.39636 z m 32.6504,-16.9817 h 6.24932 v 16.9817 h 2.76238 v -16.9817 h 6.0229 v -2.355 h -15.0346 z m 31.11074,17.2081 h 13.04207 v -2.4906 h -10.41553 v -6.2946 h 9.28341 v -2.4907 h -9.28341 v -5.9322 h 9.9174 v -2.1285 l -12.54394,-0.2265 z m -479.340733,-2.2642 -14.445889,-5.8871 v -2.2642 l 14.445889,-5.7512 v 1.9926 l -12.181637,4.8908 12.181637,5.0267 z m 34.235389,0 -14.4006,-5.8871 v -2.2642 l 14.536447,-5.7512 v 1.9926 l -12.272196,4.8908 12.136349,5.0267 z m 505.334284,-11.0495 12.18164,4.8908 -12.18164,5.0267 v 2.0378 l 14.4006,-5.9325 v -2.2188 l -14.4006,-5.7966 z m 34.23539,0 12.18164,4.8908 -12.18164,5.0267 v 2.0378 l 14.44589,-5.9325 v -2.2188 l -14.44589,-5.7966 z m -492.51865,-54.9306 v -58.23635 l -20.69521,0.63396 v 1.35864 c 0,6.52102 5.3889,0.86039 5.3889,8.51344 v 47.68511 c 0,7.653 -5.3889,1.9924 -5.3889,8.5134 v 1.3587 h 26.08411 v -1.3587 c 0.0454,-6.4756 -5.3889,-0.815 -5.3889,-8.4682 m 40.66584,6.7474 c -8.51357,0 -9.41925,-13.5401 -9.41925,-19.8347 0,-5.887 0.63397,-20.4688 9.05697,-20.4688 8.78528,0 9.28341,15.0798 9.28341,21.3292 -0.1359,6.2041 -0.49813,18.9743 -8.92113,18.9743 m 0,-44.7867 c -14.44589,0 -25.72182,9.6458 -25.72182,24.3633 0,14.4458 11.04951,24.952 25.22369,24.952 14.17418,0 25.72183,-9.9174 25.72183,-24.5897 0,-14.5364 -10.27968,-24.7256 -25.2237,-24.7256 m 58.10052,44.5603 c -1.99252,0 -4.03035,-0.634 -5.3889,-2.4907 v -33.9184 c 1.63026,-1.6302 4.03036,-2.2642 6.29461,-2.2642 8.78527,0 9.9174,13.5403 9.9174,19.5631 -0.0454,7.2003 -1.5397,19.1102 -10.82311,19.1102 m 6.15876,-44.2886 c -3.75864,0 -8.51357,1.1321 -11.54766,3.1247 v -23.59345 l -20.69519,0.63396 v 1.35864 c 0,6.52102 5.38892,0.86039 5.38892,8.51344 v 57.60241 h 3.75865 l 5.66059,-3.1247 c 4.75491,2.7625 9.64568,4.5286 15.07987,4.5286 14.67231,0 24.36329,-10.7778 24.36329,-25.2237 -0.0454,-13.3138 -8.106,-23.8199 -22.00847,-23.8199 m 56.19857,4.7549 c 6.52103,0 7.65315,8.7853 7.65315,14.1743 h -15.57801 c 0.0453,-5.6607 1.17741,-14.1743 7.92486,-14.1743 m 5.93232,38.8997 c -10.55138,0 -13.94776,-10.1438 -13.67605,-18.9291 v -1.132 h 30.61261 c -0.27171,-14.4459 -8.28715,-23.5935 -23.23117,-23.5935 -13.31376,0 -23.45757,9.9175 -23.45757,23.4576 0,15.0798 11.27594,26.0841 26.35582,26.0841 8.15128,0 15.80442,-3.1246 20.46877,-9.9174 l -3.89449,-3.3964 c -3.53223,4.3021 -7.42674,7.4267 -13.17792,7.4267 m 50.17567,-0.8604 c -4.52849,0 -4.75491,-4.2568 -4.52849,-7.3814 v -28.2578 h 9.05699 v -6.2946 h -9.05699 v -20.96681 l -9.41925,0.63396 c -4.89077,0.27162 -5.88705,0.49806 -5.88705,4.89077 v 9.691 c 0,10.14368 -5.66061,4.25678 -5.66061,10.77778 v 1.3585 h 5.66061 v 28.8465 c 0,7.155 3.39638,13.3137 13.94776,13.3137 4.89077,0 9.05698,-1.3585 12.18163,-5.1624 l -2.49067,-3.3964 c -1.17739,1.1774 -2.03781,1.9472 -3.80393,1.9472 m 49.94927,-42.5677 c -7.92487,0 -12.18166,9.0569 -14.80818,14.808 h -0.27171 v -14.1741 l -19.56308,0.634 v 1.3586 c 0,6.5211 5.66061,0.8604 5.66061,8.5135 v 26.7181 c 0,7.6532 -5.3889,1.9925 -5.3889,8.5136 v 1.4943 h 26.7181 v -1.3584 c 0,-6.5211 -6.02289,-0.8604 -6.02289,-8.5136 v -9.4193 c 0,-1.6302 2.89823,-17.0724 7.92486,-17.0724 1.35855,0 1.99252,0.8604 2.89823,1.7662 0.86041,0.8604 1.99254,1.9924 4.25677,1.9924 4.03038,0 6.79274,-3.7586 6.79274,-7.3814 -0.31698,-4.7549 -3.71336,-7.8795 -8.19655,-7.8795 m 38.99029,44.7868 c -8.51357,0 -9.41925,-13.5403 -9.41925,-19.8349 0,-5.8871 0.63398,-20.4688 9.05697,-20.4688 8.78528,0 9.28341,15.08 9.28341,21.3292 -0.1359,6.0681 -0.63398,18.9745 -8.92113,18.9745 m 0,-44.7868 c -14.67231,0 -25.85768,9.6456 -25.85768,24.5896 0,14.446 11.04953,24.952 25.22369,24.952 14.17418,0 25.72184,-9.9174 25.72184,-24.3633 0.0454,-15.1251 -10.27967,-25.1783 -25.08785,-25.1783 m 96.13987,42.6583 c -4.5285,0 -4.75492,-4.2568 -4.5285,-7.3814 v -28.1219 h 9.05701 v -6.2494 h -9.05701 v -20.96689 l -9.41925,0.63396 c -4.89077,0.2718 -5.88705,0.49824 -5.88705,4.89077 v 9.78154 c 0,5.66062 -1.99253,5.66062 -3.39636,5.66062 h -19.33666 v -20.96689 l -9.41925,0.63396 c -4.89077,0.2718 -5.88705,0.49824 -5.88705,4.89077 v 9.78154 c 0,10.14382 -5.66061,4.25682 -5.66061,10.77782 v 1.3586 h 5.66061 v 28.8464 c 0,7.1552 3.39637,13.3138 13.94775,13.3138 4.89077,0 9.05699,-1.3586 12.18164,-5.1625 l -2.49067,-3.3963 c -1.35855,1.1321 -2.26424,1.766 -4.03036,1.766 -4.52848,0 -4.7549,-4.2566 -4.52848,-7.3814 v -28.2124 h 22.73302 v 29.2541 c 0,7.1549 3.39637,13.3136 13.94775,13.3136 4.89079,0 9.05699,-1.3584 12.18166,-5.1624 l -2.49067,-3.3964 c -0.95098,0.8604 -1.8114,1.4944 -3.57752,1.4944 m 36.00151,-37.7675 c 6.52103,0 7.65316,8.7852 7.65316,14.174 h -15.57802 c 0.0454,-5.6152 1.17742,-14.174 7.92486,-14.174 m 5.66061,38.8997 c -10.55138,0 -13.94775,-10.1439 -13.67604,-18.9291 v -1.1322 h 30.61261 c -0.27171,-14.4459 -8.28715,-23.5935 -23.23117,-23.5935 -13.31376,0 -23.45759,9.9175 -23.45759,23.4577 0,15.0799 11.27595,26.0841 26.35582,26.0841 8.15128,0 15.80443,-3.1247 20.46878,-9.9174 l -3.75864,-3.3964 c -3.66809,4.3022 -7.29087,7.4268 -13.31377,7.4268 m 60.22893,-43.383 c -7.92487,0 -12.18164,9.057 -14.80816,14.8082 h -0.27171 v -14.0383 l -19.56308,0.6339 v 1.3587 c 0,6.521 5.66061,0.8604 5.66061,8.5134 v 26.7181 c 0,7.6532 -5.3889,1.9926 -5.3889,8.5136 v 1.3586 h 26.71808 v -1.3586 c 0,-6.521 -6.02288,-0.8604 -6.02288,-8.5136 v -9.4192 c 0,-1.6303 2.89823,-17.0725 7.92485,-17.0725 1.35855,0 1.99254,0.8604 2.89824,1.7662 0.86042,0.8604 1.99253,1.9926 4.25678,1.9926 4.03035,0 6.79274,-3.8947 6.79274,-7.3816 -0.27171,-4.7549 -3.93978,-7.8795 -8.19657,-7.8795 m -538.07528,32.6051 v -17.9328 H 77.905206 v 1.3585 c 0,7.6532 7.019158,-0.4981 7.019158,11.6836 v 6.0229 c 0,6.5211 -5.16248,10.4155 -12.815632,10.4155 -16.438413,0 -19.56308,-19.3366 -19.56308,-32.2429 0,-12.408 3.622799,-28.98228 19.064949,-28.98228 16.43843,0 16.936561,16.71008 25.857685,16.71008 h 2.762384 v -19.24609 h -5.162482 c -0.633994,1.1322 -0.633994,2.76245 -2.264251,2.76245 -2.264251,0 -13.042053,-5.88706 -24.589696,-5.88706 -20.061228,0 -33.737258,16.16667 -33.737258,35.7751 0,23.2311 15.577997,35.3675 38.265743,35.3675 7.155021,0 32.242844,-2.8983 32.242844,-9.6458 v -1.766 c -4.39263,0.1353 -4.39263,-1.4039 -4.39263,-4.3927"
         id="path501"
         style="fill:#c35a58;fill-opacity:1;stroke-width:0.45284906" />
      <path
         d="m 772.12291,966.4827 h -43.82019 v 3.98354 c 0,9.61818 3.37355,18.33926 8.72097,25.08626 -4.48609,1.61498 -9.36696,2.5123 -14.60672,2.5123 -5.1321,0 -9.86942,-0.86141 -14.60672,-2.5123 5.3833,-6.747 8.72096,-15.46808 8.72096,-25.08626 v -3.98354 h -43.78429 c 0.6101,2.76325 1.61498,5.38327 2.5122,8.11082 3.73244,9.22339 10.37186,17.22659 18.33916,22.82533 0.86133,0.60994 1.75857,1.11239 2.76344,1.61491 0.50245,0.25115 0.6101,0.50252 1.11255,0.61004 0.50245,0.25126 1.11255,0.6101 1.75856,0.8613 0.6101,0.5024 1.61499,0.6103 2.26098,1.1125 h 0.25122 c 6.24465,2.8712 13.49417,4.4861 20.60016,4.4861 7.35719,0 14.35552,-1.6149 20.60017,-4.4861 h 0.25122 c 0.6101,-0.2512 1.36376,-0.6101 2.00976,-1.1125 0.6101,-0.2511 1.36378,-0.61004 1.75855,-0.8613 l 0.25121,-0.25126 c 1.11257,-0.61004 2.261,-1.36375 3.37356,-2.0096 8.25441,-5.63454 14.46317,-13.49431 18.2315,-22.82522 2.04566,-2.4765 2.90699,-5.20394 3.30175,-8.07502 z m -87.49681,8.11082 h 24.22491 c -0.86133,6.74711 -3.73244,12.99179 -7.85963,17.47785 -6.99833,-4.12738 -12.74051,-10.37186 -16.36528,-17.47785 z m 60.04192,17.33422 c -4.23489,-4.48607 -7.10598,-10.73075 -7.85966,-17.47775 h 24.22494 c -3.66066,7.24952 -9.51054,13.24294 -16.36528,17.47775 z m -21.99983,-87.49673 c -20.31304,0 -38.04209,12.09451 -46.15297,29.57235 0,0 0,0.25122 -0.25122,0.50244 -0.50243,1.11254 -1.11253,2.51222 -1.61498,3.62477 0,0.25121 0,0.25121 -0.25122,0.50242 -0.50246,1.11257 -0.61011,2.26101 -1.11256,3.62478 0,0.25122 0,0.25122 -0.25122,0.50244 -1.00488,3.98366 -1.615,8.25443 -1.615,12.74048 v 2.26093 h 8.11086 v -2.26093 c 0,-4.73729 0.61011,-9.22337 2.26101,-13.24292 5.13208,0.25122 10.47951,0.86134 16.11404,2.26099 10.12065,2.51222 19.2364,6.74709 25.33748,11.84323 0.61011,0.50242 1.11255,1.11267 1.75855,1.61509 h 10.37186 c -1.75856,-2.76356 -3.98366,-5.13216 -7.10599,-7.85966 -2.76342,-2.00979 -5.63452,-3.98366 -8.97218,-5.84988 l 12.09451,-12.74051 24.83503,26.45005 h 16.83184 v -2.26104 c 0.43066,-28.45978 -22.39459,-51.28503 -50.38784,-51.28503 z m 9.11576,15.21684 -19.59527,20.85138 c -3.73244,-1.615 -7.85965,-2.87111 -12.09453,-3.73245 -4.88088,-1.11254 -9.8694,-2.00977 -14.60672,-2.5122 7.35718,-12.95585 21.21025,-21.7127 37.18076,-21.7127 21.71271,0 39.69299,16.11405 42.31285,37.18076 h -4.98852 z"
         id="path498"
         style="fill:#c35a58;fill-opacity:1;stroke-width:0.35888767" />
    </g>
  </g>
</svg>