<?xml version="1.0" encoding="UTF-8" standalone="no"?>
<!-- Created with Inkscape (http://www.inkscape.org/) -->

<svg
   xmlns:dc="http://purl.org/dc/elements/1.1/"
   xmlns:cc="http://creativecommons.org/ns#"
   xmlns:rdf="http://www.w3.org/1999/02/22-rdf-syntax-ns#"
   xmlns:svg="http://www.w3.org/2000/svg"
   xmlns="http://www.w3.org/2000/svg"
   xmlns:sodipodi="http://sodipodi.sourceforge.net/DTD/sodipodi-0.dtd"
   xmlns:inkscape="http://www.inkscape.org/namespaces/inkscape"
   width="487.63"
   height="503.29999"
   id="svg11479"
   version="1.1"
   inkscape:version="0.48.4 r9939"
   sodipodi:docname="Neues Dokument 3">
  <defs
     id="defs11481">
    <clipPath
       clipPathUnits="userSpaceOnUse"
       id="clipPath8304">
      <path
         inkscape:connector-curvature="0"
         d="m 492.106,637.255 2.3267,0 0,-38.079 -2.3267,0 0,38.079 z"
         id="path8306" />
    </clipPath>
    <clipPath
       clipPathUnits="userSpaceOnUse"
       id="clipPath8106">
      <path
         inkscape:connector-curvature="0"
         d="m 488.791,637.255 3.3154,0 0,-38.079 -3.3154,0 0,38.079 z"
         id="path8108" />
    </clipPath>
  </defs>
  <sodipodi:namedview
     id="base"
     pagecolor="#ffffff"
     bordercolor="#666666"
     borderopacity="1.0"
     inkscape:pageopacity="0.0"
     inkscape:pageshadow="2"
     inkscape:zoom="1.6035431"
     inkscape:cx="243.81501"
     inkscape:cy="251.64999"
     inkscape:document-units="px"
     inkscape:current-layer="layer1"
     showgrid="false"
     fit-margin-top="0"
     fit-margin-left="0"
     fit-margin-right="0"
     fit-margin-bottom="0"
     inkscape:window-width="1680"
     inkscape:window-height="990"
     inkscape:window-x="-4"
     inkscape:window-y="-4"
     inkscape:window-maximized="1" />
  <metadata
     id="metadata11484">
    <rdf:RDF>
      <cc:Work
         rdf:about="">
        <dc:format>image/svg+xml</dc:format>
        <dc:type
           rdf:resource="http://purl.org/dc/dcmitype/StillImage" />
        <dc:title></dc:title>
      </cc:Work>
    </rdf:RDF>
  </metadata>
  <g
     inkscape:label="Ebene 1"
     inkscape:groupmode="layer"
     id="layer1"
     transform="translate(-289.16995,236.74616)">
    <g
       id="g7748"
       transform="matrix(13.130597,0,0,-13.130597,766.52915,-52.468466)">
      <path
         d="m 0,0 0.003,0.001 c -2.56,8.916 -11.435,14.638 -20.715,12.989 -4.98,-0.884 -9.128,-3.722 -11.809,-7.595 l -0.002,0 c -0.015,-0.024 -0.299,-0.443 -0.305,-0.451 -0.047,-0.066 -0.065,-0.152 -0.05,-0.239 0.03,-0.17 0.192,-0.285 0.361,-0.255 0.002,-0.002 2.49,0.438 2.627,0.462 0.113,0.019 0.235,-0.108 0.235,-0.224 L -29.913,1.88 c 0,0.001 0.002,0.003 0.002,0.001 -0.006,-0.027 -0.004,-0.051 0.006,-0.077 0.02,-0.049 0.067,-0.074 0.116,-0.055 0,0 2.208,0.393 2.211,0.393 0.309,0.062 0.629,0.076 0.951,-0.002 0.904,-0.217 1.487,-1.013 1.448,-1.885 0,-0.011 10e-4,-0.021 0,-0.032 -0.032,-0.427 -0.393,-4.806 -0.393,-4.806 -0.005,-0.064 -0.05,-0.159 -0.098,-0.227 -0.044,-0.061 -0.189,-0.164 -0.272,-0.18 -0.07,-0.014 -3.291,-0.588 -3.297,-0.586 -0.2,-0.048 -0.358,0.056 -0.366,0.182 0.076,0.918 0.392,4.6 0.392,4.6 0.018,0.265 -0.34,0.201 -0.603,0.154 -0.183,-0.031 -0.3,-0.156 -0.347,-0.321 l -0.015,-0.102 c -0.016,-0.204 -0.373,-4.177 -0.398,-4.468 0,-0.001 0.001,-0.002 0.001,-0.003 0,-0.006 -0.001,-0.013 -0.003,-0.019 -0.012,-0.076 -0.062,-0.159 -0.138,-0.225 -0.063,-0.053 -0.133,-0.084 -0.198,-0.095 -0.002,-10e-4 -0.006,-0.002 -0.008,-0.002 -0.144,-0.028 -2.136,-0.381 -3.555,-0.632 l -0.002,0 -10e-4,10e-4 c -0.725,-0.129 -1.212,-0.816 -1.096,-1.54 l 0,-0.003 c 0.015,-0.093 0.03,-0.186 0.046,-0.277 1.753,-10.008 11.226,-16.691 21.163,-14.926 6.023,1.07 10.83,4.999 13.294,10.158 l 10e-4,0 c 0.007,0.015 0.228,0.503 0.226,0.507 0.02,0.052 0.027,0.11 0.017,0.168 -0.031,0.173 -0.192,0.287 -0.363,0.257 -0.007,-0.002 -0.013,-0.004 -0.019,-0.006 0,0 -2.84,-0.504 -5.614,-0.998 -0.126,-0.018 -0.248,0.105 -0.243,0.225 0.026,0.693 0.084,1.07 0.131,1.718 0.007,0.056 0.054,0.21 0.086,0.252 0.139,0.188 0.222,0.185 0.354,0.209 1.066,0.195 3.103,0.523 3.846,0.676 0,0 0.163,0.016 0.341,0.149 0.18,0.133 0.229,0.413 0.234,0.691 0,0.03 -0.029,0.076 -0.068,0.069 -0.07,-0.014 -2.423,-0.432 -2.823,-0.503 -0.113,-0.019 -0.497,-0.042 -0.775,0.072 -0.534,0.22 -0.921,0.761 -0.887,1.422 -0.001,0.092 0.333,4.549 0.335,4.635 0.04,0.601 0.588,1.186 1.042,1.266 0,0 2.188,0.388 4.155,0.736 l 0.002,10e-4 c 0.727,0.131 1.216,0.822 1.098,1.549 L 0,0 z m -24.534,-3.461 c 0.053,0.814 0.165,2.128 0.201,2.309 0.026,0.132 0.062,0.264 0.13,0.368 0.236,0.361 0.402,0.476 1.16,0.61 0.661,0.118 2.96,0.513 2.991,0.526 0.046,0.015 0.114,0.079 0.114,0.123 0.005,0.154 0.027,0.318 -0.028,0.426 -0.076,0.145 -0.303,0.221 -0.479,0.19 -0.169,-0.031 -2.556,-0.454 -3.52,-0.625 -0.131,-0.024 -0.233,0.134 -0.22,0.281 0.051,0.556 0.081,1.233 0.139,1.796 0.022,0.196 0.119,0.27 0.372,0.316 0.036,0.006 6.116,1.089 6.205,1.101 0.312,0.043 0.555,-0.108 0.749,-0.249 0.354,-0.258 0.546,-0.784 0.487,-1.44 l -0.404,-5.286 c -0.013,-0.179 -0.141,-0.326 -0.306,-0.373 -0.065,-0.018 -0.105,-0.024 -0.115,-0.026 -1.736,-0.308 -5.975,-1.052 -6.257,-1.111 -0.311,-0.051 -0.538,-0.028 -0.698,0.018 -0.409,0.183 -0.555,0.517 -0.521,1.046 m -5.143,-3.422 c 0.015,0.076 0.023,0.162 0.1,0.228 0.065,0.056 0.179,0.085 0.246,0.094 0.003,0 2.814,0.494 3.419,0.607 0.099,0.019 0.224,-0.048 0.215,-0.141 -0.019,-0.198 -0.371,-4.382 -0.371,-4.383 0,-0.023 0.001,-0.045 0.005,-0.069 0.047,-0.265 0.319,-0.206 0.581,-0.159 0.182,0.032 0.379,0.168 0.392,0.333 0.001,0.003 0.381,4.365 0.382,4.371 0.012,0.076 0.023,0.163 0.1,0.229 0.065,0.056 0.177,0.084 0.245,0.093 l 0.005,0 c 0.011,0.002 1.978,0.347 2.584,0.461 0.1,0.018 0.226,-0.05 0.221,-0.144 -0.008,-0.168 -0.377,-4.378 -0.377,-4.38 0.001,-0.022 0.001,-0.045 0.005,-0.069 0.048,-0.265 0.321,-0.206 0.583,-0.159 0.182,0.032 0.36,0.173 0.387,0.332 0,0.013 0.375,4.367 0.377,4.374 0.014,0.075 0.023,0.161 0.099,0.227 0.066,0.056 0.178,0.085 0.247,0.094 0,0 2.139,0.372 3.111,0.551 0.054,0.011 0.162,0.004 0.216,-0.03 0.092,-0.054 0.164,-0.149 0.147,-0.287 0,0 -0.564,-6.901 -0.564,-6.903 -0.013,-0.077 -0.062,-0.159 -0.139,-0.225 -0.061,-0.052 -0.129,-0.084 -0.194,-0.094 0,0 -10.186,-1.805 -10.191,-1.806 -0.267,-0.04 -0.547,-0.029 -0.821,0.043 -0.879,0.232 -1.437,1.012 -1.406,1.864 0,10e-4 0.395,4.941 0.396,4.948 m 22.369,2.319 -0.414,-5.283 c -0.012,-0.179 -0.141,-0.325 -0.305,-0.371 -0.066,-0.019 -0.104,-0.026 -0.115,-0.027 -1.736,-0.307 -6.645,-1.171 -6.926,-1.231 -0.313,-0.05 -0.538,-0.027 -0.699,0.019 -0.41,0.183 -0.555,0.517 -0.521,1.046 0.052,0.814 0.165,2.128 0.203,2.309 0.024,0.131 0.06,0.263 0.128,0.366 0.235,0.362 0.483,0.488 1.24,0.622 0.245,0.042 3.366,0.589 3.397,0.601 0.045,0.017 0.114,0.079 0.114,0.123 0.004,0.154 0.027,0.318 -0.029,0.426 -0.076,0.146 -0.304,0.222 -0.479,0.191 -0.168,-0.029 -3.04,-0.54 -4.005,-0.712 -0.132,-0.023 -0.233,0.134 -0.22,0.282 0.049,0.556 0.082,1.233 0.14,1.797 0.021,0.195 0.118,0.27 0.371,0.314 0.036,0.007 6.785,1.209 6.876,1.221 0.311,0.044 0.554,-0.109 0.748,-0.25 0.352,-0.257 0.557,-0.787 0.496,-1.443 m 0.248,3.245 c 0,-0.001 -0.001,0 -0.001,-0.001 -0.045,-0.182 -0.191,-0.33 -0.387,-0.364 -0.009,-0.002 -2.613,-0.458 -3.218,-0.571 -0.098,-0.019 -0.214,0.048 -0.215,0.142 -0.004,0.295 0.378,4.675 0.373,4.697 -0.056,0.263 -0.329,0.205 -0.591,0.158 -0.183,-0.033 -0.316,-0.164 -0.363,-0.329 -10e-4,0 -0.413,-4.723 -0.413,-4.723 -0.006,-0.092 -0.126,-0.186 -0.211,-0.201 -1.064,-0.189 -2.252,-0.396 -3.237,-0.579 -0.053,-0.008 -0.163,-0.002 -0.216,0.03 -0.092,0.055 -0.163,0.151 -0.146,0.289 l 0.567,7.013 c 0.009,0.086 0.123,0.173 0.179,0.183 l 5.66,1 c 0.49,0.102 1.164,0.063 1.543,-0.126 0.538,-0.271 0.893,-0.672 0.99,-1.393 C -6.675,3.371 -6.724,2.737 -6.772,2.235 -6.878,1.097 -7.06,-1.318 -7.06,-1.319"
         style="fill:#da1551;fill-opacity:1;fill-rule:nonzero;stroke:none"
         id="path7750"
         inkscape:connector-curvature="0" />
    </g>
    <g
       id="g7752"
       transform="matrix(13.130597,0,0,-13.130597,736.86713,1.6821159)">
      <path
         d="m 0,0 c -0.183,-0.033 -0.318,-0.164 -0.364,-0.328 -0.003,-0.002 -0.163,-1.888 -0.163,-1.888 0.003,-0.023 0.004,-0.046 0.009,-0.069 0.056,-0.262 0.328,-0.204 0.59,-0.157 0.184,0.032 0.317,0.164 0.365,0.329 0.001,10e-4 0.162,1.886 0.162,1.887 C 0.597,-0.202 0.596,-0.18 0.59,-0.157 0.535,0.105 0.261,0.047 0,0 m -9.701,-3.817 c -0.183,-0.032 -0.316,-0.164 -0.363,-0.328 -0.003,-0.003 -0.069,-0.83 -0.069,-0.83 0.002,-0.023 0.003,-0.046 0.007,-0.07 0.057,-0.262 0.33,-0.203 0.591,-0.156 0.184,0.032 0.317,0.164 0.365,0.327 0,10e-4 0.068,0.83 0.068,0.831 -10e-4,0.024 -0.003,0.046 -0.007,0.069 -0.056,0.262 -0.33,0.203 -0.592,0.157 m -8.545,5.483 c 0.182,0.033 0.353,0.154 0.364,0.329 0.001,0.002 0.068,0.83 0.067,0.83 0,0.024 -0.003,0.047 -0.008,0.07 -0.053,0.261 -0.328,0.203 -0.589,0.157 -0.183,-0.032 -0.318,-0.164 -0.365,-0.328 -0.002,-0.003 -0.069,-0.831 -0.068,-0.832 0.002,-0.023 0.003,-0.045 0.008,-0.069 0.057,-0.262 0.329,-0.203 0.591,-0.157"
         style="fill:#da1551;fill-opacity:1;fill-rule:nonzero;stroke:none"
         id="path7754"
         inkscape:connector-curvature="0" />
    </g>
  </g>
</svg>
