<svg xmlns="http://www.w3.org/2000/svg" width="400" height="240" viewBox="0 0 400 240">
  <path fill="#D0112B" d="M330.256 84.317c5.62-5.367 13.734-6.864 21.242-6.987 7.102-.043 14.652.58 20.8 4.484 3.458 2.17 5.874 5.685 7.155 9.525-5.41 4.09-10.857 8.13-16.273 12.22-.955-4.01-2.46-8.41-6.164-10.67-3.71-2.35-9.625-.73-10.762 3.77-1.39 4.23 1.2 8.67 4.963 10.63 8.287 4.67 18.406 6.09 25.494 12.84 5.32 4.87 7.18 12.42 6.65 19.41-.19 6.85-3.11 13.92-8.97 17.79-7.53 5.01-17.02 5.53-25.79 5.27-7.53-.39-15.93-1.74-21.24-7.63-4.47-4.95-5.08-11.98-4.89-18.35 7.44-.01 14.88-.01 22.32 0 .02 2.94-.06 6.13 1.6 8.7 2.78 4.2 10.13 3.61 12.3-.92 2.126-4.04.68-9.41-3.212-11.8-7.853-5.066-17.87-6.128-24.96-12.52-4.802-4.1-7.037-10.52-6.992-16.718-.114-6.846 1.6-14.23 6.765-19.076zM0 78.957c11.825.015 23.658-.02 35.483.015 7.934.036 16.26 3.277 20.81 10.025 3.977 5.598 4.6 12.954 2.95 19.485-1.606 6.575-6.372 11.73-11.333 16.057-7.97 6.81-16.722 12.63-24.925 19.15.058 5.81.015 11.63.022 17.44H0V78.96zM23.015 94.42c-.007 9.006-.007 18.01 0 27.016 4.462-3.37 10.277-5.98 12.274-11.624 1.25-4.02 1.41-8.875-1.02-12.5-2.61-3.498-7.42-2.87-11.26-2.89zM64.69 78.965c11.694-.015 23.397-.015 35.093-.007 6.82.014 13.916 2.126 18.82 7.045 5.106 4.954 7.195 12.462 6.06 19.413-.824 7.35-5.424 13.583-10.797 18.386 4.37 12.454 8.802 24.888 13.17 37.342-7.542-.02-15.087.037-22.63-.028-2.684-7.97-5.404-15.934-8.138-23.89-2.85 2.09-5.634 4.26-8.462 6.364-.043 5.852 0 11.702-.02 17.554-7.704-.007-15.4.015-23.103-.014.006-27.392 0-54.775.006-82.165zm23.095 42.5c4.63-3.538 10.84-6.236 12.65-12.268 1.063-4.108 1.17-9.2-1.866-12.52-2.83-2.82-7.14-2.14-10.76-2.22-.07 9.005-.01 18.003-.03 27.007zm44.71-42.507h23.046c.02 27.39.01 54.79.01 82.18-7.69.006-15.37.006-23.05 0v-82.18zm32.687.007c9.417-.007 18.834-.022 28.25.007 4.254 12.216 8.42 24.47 12.752 36.656 4.268-12.194 8.42-24.432 12.622-36.656 9.424-.03 18.854-.014 28.286-.007 0 27.39-.006 54.773 0 82.165-7.22.02-14.437.007-21.654.014-.03-16.88.036-33.762-.03-50.644-4.272 11.313-8.136 22.775-12.215 34.16-4.692.015-9.396.108-14.09-.05-4.056-11.393-7.99-22.835-12.287-34.126-.073 16.88 0 33.77-.036 50.658-7.205-.007-14.4.008-21.604-.007.006-27.388 0-54.78.006-82.17zm91.126 0c7.68-.015 15.368 0 23.05-.007.03 19.97-.02 39.94.03 59.908.043 3.21.483 7.437 3.927 8.78 2.8.854 6.625.768 8.396-1.945 1.66-2.69 1.49-6.01 1.54-9.05-.01-19.22 0-38.45 0-57.68 7.7.03 15.4-.1 23.1.07-.11 18.48.03 36.94-.07 55.41-.14 7.53-1.55 15.76-7.08 21.32-5.38 5.35-13.33 6.65-20.61 6.9-7.21.13-14.85-.26-21.27-3.92-4.89-2.76-8.12-7.8-9.52-13.15-1.19-4.31-1.48-8.81-1.47-13.26V78.97zm133.204 2.488c4.854-1.91 10.727 2.228 10.48 7.45.15 4.535-4.252 8.506-8.752 7.84-4.773-.347-8.15-5.656-6.654-10.154.725-2.36 2.62-4.31 4.926-5.14zm-.123 1.287c-2.12.983-3.8 3.067-3.95 5.432-.55 3.783 2.72 7.58 6.56 7.464 3.92.24 7.3-3.587 6.78-7.435-.25-4.39-5.46-7.36-9.4-5.46z"/>
  <path fill="#D0112B" d="M388.94 84.563c1.99.13 4.23-.412 6.024.665 1.316 1.15.76 3.284-.766 3.942 1.41.91 1.402 2.567 1.41 4.072h-1.295c-.262-1.07.088-2.64-1.12-3.226-.897-.152-1.802-.246-2.706-.268-.016 1.15-.02 2.3-.02 3.45-.376 0-1.136.007-1.52.007-.013-2.885-.006-5.763-.006-8.642zm1.628.955c-.072 1.092-.115 2.19.06 3.284 1.163-.304 3.138.188 3.544-1.375.324-2.155-2.258-1.78-3.604-1.91z"/>
</svg>
