<?xml version="1.0" encoding="UTF-8" standalone="no"?>
<svg
   xmlns:dc="http://purl.org/dc/elements/1.1/"
   xmlns:cc="http://creativecommons.org/ns#"
   xmlns:rdf="http://www.w3.org/1999/02/22-rdf-syntax-ns#"
   xmlns:svg="http://www.w3.org/2000/svg"
   xmlns="http://www.w3.org/2000/svg"
   width="400"
   height="58.208"
   viewBox="0 0 400.00002 58.207998"
   id="svg2"
   version="1.1">
  <metadata
     id="metadata10">
    <rdf:RDF>
      <cc:Work
         rdf:about="">
        <dc:format>image/svg+xml</dc:format>
        <dc:type
           rdf:resource="http://purl.org/dc/dcmitype/StillImage" />
        <dc:title></dc:title>
      </cc:Work>
    </rdf:RDF>
  </metadata>
  <defs
     id="defs8" />
  <path
     d="M 0,3.9277203e-4 0,24.936088 l 24.44351,0 0,-24.93569522797 -24.44351,0 z M 15.829046,16.15344 l -7.2220021,0 0,-7.3666898 7.2220021,0 0,7.3666898 z m 35.83795,16.772606 11.039524,0 c 4.158834,0 6.158488,1.83518 6.158488,5.202562 0,4.397507 -3.193016,5.438762 -6.875742,5.438762 l -10.32227,0 0,-10.641324 z M 34.081915,57.1618 l 32.384003,0 c 10.081124,0 19.994064,-5.923526 19.994064,-17.356302 0,-8.396814 -4.798179,-12.472794 -9.91294,-14.237485 4.24169,-2.312525 7.029086,-5.437525 7.029086,-11.191631 0.0012,-5.8431439 -3.189306,-14.31415723 -18.2269,-14.31415723 l -31.267313,0 0,57.09957523 z m 17.585081,-43.508855 9.281015,0 c 3.598635,0 5.995252,1.038782 5.995252,3.920163 0,3.679016 -2.318708,4.720271 -5.995252,4.720271 l -9.281015,0 0,-8.640434 z m 51.650924,18.074793 c 0.72467,-4.476652 3.43787,-6.956124 8.16432,-6.956124 4.07227,0 6.94994,3.116343 6.94994,6.962307 l -15.11303,0 z m 30.31262,8.23605 c 0,-16.150573 -7.1206,-25.351207 -23.5927,-25.351207 -13.124504,0 -21.917045,9.839979 -21.917045,21.917046 0,13.83063 9.999506,21.669717 23.278595,21.669717 9.42941,0 18.15393,-4.158834 21.34695,-13.120795 l -14.79027,0 c -1.28116,2.00089 -4.08339,2.95929 -6.6482,2.95929 -4.94657,0 -7.66719,-3.363673 -8.0691,-8.07776 l 30.3893,-0.0025 z m 19.84814,-36.9484565 -15.84018,0 0,12.6409775 -7.0365,0 0,9.753413 7.0365,0 0,19.839484 c 0,11.352394 7.43966,12.391175 14.15958,12.391175 3.35625,0 6.95983,-0.477344 10.1578,-0.477344 l 0,-12.004106 c -1.20326,0.16942 -2.39909,0.244856 -3.60358,0.244856 -3.99437,0 -4.87857,-1.679363 -4.87857,-5.515434 l 0,-14.481104 8.47967,0 0,-9.75094 -8.48338,0 0,-12.6409775 z m 11.10507,54.1464685 15.83275,0 0,-21.913336 c 0,-6.64078 3.59864,-8.004798 6.32296,-8.004798 4.63247,0 5.19391,3.363672 5.19391,8.159379 l 0,21.758755 15.84141,0 0,-28.477444 c 0,-9.515977 -6.80772,-14.073011 -14.24861,-14.073011 -6.71003,0 -10.23571,2.324891 -12.95632,5.517906 l -0.15706,0 0,-20.06702623 -15.82904,0 0,57.09957523 z m 60.4348,-25.434062 c 0.71725,-4.476652 3.44282,-6.956124 8.16432,-6.956124 4.08093,0 6.94995,3.116343 6.94995,6.962307 l -15.11303,0 z m 30.31262,8.23605 c 0,-16.150573 -7.1107,-25.351207 -23.5927,-25.351207 -13.12079,0 -21.91828,9.839979 -21.91828,21.917046 0,13.83063 10.00074,21.669717 23.28601,21.669717 9.42323,0 18.15394,-4.921844 21.34077,-13.880094 l -14.78532,0 c -1.27374,1.999653 -4.08092,3.716115 -6.64572,3.716115 -4.95153,0 -7.67585,-3.363672 -8.07034,-8.075286 l 30.38929,0 z M 295.1709,27.72843 c -0.39078,-10.632667 -11.19163,-13.113375 -20.14988,-13.113375 -8.3189,0 -19.59833,2.720617 -19.59833,13.197467 0,7.115651 4.87608,10.956668 16.95439,13.03423 7.35803,1.278691 8.71834,1.998418 8.71834,4.402454 0,2.39909 -3.27711,3.199199 -5.3522,3.199199 -1.92298,0 -3.43787,-0.488475 -4.24169,-1.203255 -1.20325,-1.033835 -1.83518,-1.471607 -1.91309,-2.918481 l -15.11179,0 c 0.23249,10.721706 10.95667,13.881332 20.7039,13.881332 10.07865,0 21.12436,-3.125 21.12436,-14.641868 0,-6.801543 -4.64237,-9.917887 -9.9216,-11.599723 -5.28047,-1.756035 -11.26954,-2.077562 -13.91225,-3.202908 -0.8743,-0.395727 -1.83518,-0.952216 -1.83518,-2.157945 0,-2.714434 2.55491,-3.193015 4.79818,-3.193015 1.27869,0 2.56357,0.399436 3.51207,1.199545 1.04868,0.717254 1.76222,1.756035 1.84878,3.116343 l 14.38218,-0.0049 z m 46.6994,-27.66620523 -15.82905,0 0,20.14988123 -0.16323,0 c -2.39662,-3.521962 -6.64078,-5.597051 -11.35734,-5.597051 -13.9172,0 -17.67536,11.839632 -17.67536,21.591808 0,10.400178 5.6762,21.999901 17.43668,21.999901 7.75995,0 10.15285,-2.962999 12.15622,-5.608181 l 0.16447,0 0,4.563217 15.27256,0 0,-57.09586523 z M 326.60145,36.3701 c 0,4.951524 -1.27992,10.313613 -6.94994,10.313613 -5.68238,0 -6.96725,-5.362089 -6.96725,-10.313613 0,-4.878561 1.27993,-10.239414 6.96231,-10.239414 5.6663,0 6.94994,5.360853 6.94994,10.239414 m 45.16225,5.995252 c -0.24239,4.318361 -3.03473,6.472596 -6.64078,6.472596 -2.86902,0 -4.95895,-1.913089 -4.95895,-3.826178 0,-2.807182 1.83889,-3.690146 5.35715,-4.482835 2.16907,-0.489711 4.32207,-1.043728 6.24134,-2.003364 l 0,3.839781 z m 15.20083,-11.516868 c 0,-7.994905 0.14839,-16.237139 -19.68491,-16.237139 -9.83503,0 -20.86837,1.919271 -21.34819,13.59443 l 14.70741,0 c 0.0866,-1.753561 1.05486,-4.23798 5.92353,-4.23798 2.56851,0 5.20133,1.044965 5.20133,3.845964 0,2.641472 -2.16413,3.277107 -4.31589,3.680253 -8.08271,1.518599 -23.42823,1.033835 -23.42823,14.159577 0,8.713395 6.62594,12.551939 14.63198,12.551939 5.12589,0 9.99456,-1.125347 13.35575,-4.961417 l 0.16077,0 c -0.0816,1.121636 0.15458,2.804709 0.5602,3.920162 l 16.15552,0 c -1.76346,-2.638999 -1.91309,-6.158488 -1.91309,-9.281015 l 0,-17.028591 z m 4.62257,-8.740602 -1.20325,0 0,-4.897111 -1.83889,0 0,-1.038781 4.82662,0 0,1.038781 -1.78077,0 0,4.897111 z m 3.62337,0 -1.12906,0 0,-5.935892 1.88341,0 1.07341,4.097002 1.07959,-4.095766 1.88712,0 0,5.935893 -1.14513,0 0,-4.733874 -1.29106,4.732637 -1.07959,0 -1.27374,-4.731401 0.002,4.736348 z"
     id="path4" />
</svg>
