<svg width="84" height="15" xmlns="http://www.w3.org/2000/svg" xmlns:xlink="http://www.w3.org/1999/xlink"><defs><path id="a" d="M16.113 2.66h10v11.313h-10z"/><path id="c" d="M26.113 2.66h10v11.313h-10z"/><path id="e" d="M36.113 0h10v13.973h-10z"/><path id="g" d="M46.113 2.66h11v11.313h-11z"/><path id="i" d="M57.113 0h11v13.973h-11z"/><path id="k" d="M68.113 0h4v13.973h-4z"/><path id="m" d="M72.113 2.66h10.559v11.313H72.113z"/></defs><g transform="translate(.887 .34)" fill="none" fill-rule="evenodd"><path fill="#00AEEF" fill-rule="nonzero" d="M10.656 0l-2.86 7.574L4.919 0H0v13.727h3.54V4.652l3.476 9.075h1.562l3.457-9.075v9.075h3.54V0z"/><mask id="b" fill="#fff"><use xlink:href="#a"/></mask><path d="M22.754 11.176v-.887c-.328-.473-1.07-.7-1.766-.7-.824 0-1.586.372-1.586 1.153s.762 1.153 1.586 1.153c.696 0 1.438-.247 1.766-.72zm0 2.55v-.988c-.617.739-1.809 1.235-3.086 1.235-1.523 0-3.414-1.051-3.414-3.274 0-2.406 1.89-3.207 3.414-3.207 1.32 0 2.492.43 3.086 1.172v-.988c0-.864-.738-1.461-2.016-1.461-.988 0-1.976.39-2.777 1.07l-1.172-2.203c1.277-1.09 2.984-1.543 4.504-1.543 2.387 0 4.633.887 4.633 3.973v6.215h-3.172z" fill="#00AEEF" fill-rule="nonzero" mask="url(#b)"/><mask id="d" fill="#fff"><use xlink:href="#c"/></mask><path d="M26.355 12.43l1.317-2.262c.742.656 2.324 1.336 3.5 1.336.945 0 1.336-.27 1.336-.7 0-1.234-5.781.04-5.781-3.992 0-1.75 1.523-3.273 4.257-3.273 1.688 0 3.086.535 4.157 1.316L33.93 7.102c-.598-.579-1.73-1.094-2.922-1.094-.742 0-1.235.289-1.235.68 0 1.09 5.758-.04 5.758 4.035 0 1.89-1.664 3.25-4.504 3.25-1.789 0-3.62-.598-4.672-1.543" fill="#00AEEF" fill-rule="nonzero" mask="url(#d)"/><mask id="f" fill="#fff"><use xlink:href="#e"/></mask><path d="M42.879 13.727V7.94c0-1.21-.637-1.601-1.649-1.601-.925 0-1.542.512-1.91.965v6.422h-3.172V0h3.172v5c.594-.7 1.77-1.46 3.434-1.46 2.266 0 3.293 1.276 3.293 3.108v7.079h-3.168z" fill="#00AEEF" fill-rule="nonzero" mask="url(#f)"/><mask id="h" fill="#fff"><use xlink:href="#g"/></mask><path d="M53.188 11.176v-.887c-.329-.473-1.07-.7-1.77-.7-.824 0-1.586.372-1.586 1.153s.762 1.153 1.586 1.153c.7 0 1.441-.247 1.77-.72zm0 2.55v-.988c-.618.739-1.813 1.235-3.086 1.235-1.524 0-3.418-1.051-3.418-3.274 0-2.406 1.894-3.207 3.418-3.207 1.316 0 2.488.43 3.086 1.172v-.988c0-.864-.743-1.461-2.016-1.461-.988 0-1.977.39-2.781 1.07l-1.172-2.203c1.277-1.09 2.984-1.543 4.508-1.543 2.386 0 4.628.887 4.628 3.973v6.215h-3.167z" fill="#00AEEF" fill-rule="nonzero" mask="url(#h)"/><mask id="j" fill="#fff"><use xlink:href="#i"/></mask><path d="M62.445 11.176c1.254 0 2.203-.93 2.203-2.43 0-1.48-.949-2.41-2.203-2.41-.68 0-1.5.371-1.894.906v3.047c.394.535 1.215.887 1.894.887zm-5.062 2.55V0h3.168v4.96a3.675 3.675 0 0 1 2.945-1.42c2.488 0 4.383 1.956 4.383 5.206 0 3.375-1.934 5.227-4.383 5.227-1.113 0-2.121-.453-2.945-1.399v1.153h-3.168z" fill="#00AEEF" fill-rule="nonzero" mask="url(#j)"/><mask id="l" fill="#fff"><use xlink:href="#k"/></mask><path fill="#00AEEF" fill-rule="nonzero" mask="url(#l)" d="M68.516 0h3.168v13.727h-3.168z"/><mask id="n" fill="#fff"><use xlink:href="#m"/></mask><path d="M77.59 6.09c-1.38 0-1.914.824-2.04 1.543h4.098c-.085-.7-.597-1.543-2.058-1.543m-5.27 2.656c0-2.879 2.16-5.207 5.27-5.207 2.941 0 5.082 2.16 5.082 5.535v.723h-7.078c.226.883 1.05 1.625 2.488 1.625.7 0 1.852-.309 2.43-.844l1.375 2.078c-.985.883-2.633 1.317-4.153 1.317-3.066 0-5.414-1.996-5.414-5.227" fill="#00AEEF" fill-rule="nonzero" mask="url(#n)"/></g></svg>