<?xml version="1.0" encoding="UTF-8" standalone="no"?>
<!-- Created with Inkscape (http://www.inkscape.org/) -->

<svg
   xmlns:dc="http://purl.org/dc/elements/1.1/"
   xmlns:cc="http://creativecommons.org/ns#"
   xmlns:rdf="http://www.w3.org/1999/02/22-rdf-syntax-ns#"
   xmlns:svg="http://www.w3.org/2000/svg"
   xmlns="http://www.w3.org/2000/svg"
   xmlns:sodipodi="http://sodipodi.sourceforge.net/DTD/sodipodi-0.dtd"
   xmlns:inkscape="http://www.inkscape.org/namespaces/inkscape"
   sodipodi:docname="Allure-logo.svg"
   height="293.53915"
   width="1018.4995"
   inkscape:version="0.48.4 r9939"
   version="1.1"
   id="svg2985">
  <metadata
     id="metadata2991">
    <rdf:RDF>
      <cc:Work
         rdf:about="">
        <dc:format>image/svg+xml</dc:format>
        <dc:type
           rdf:resource="http://purl.org/dc/dcmitype/StillImage" />
      </cc:Work>
    </rdf:RDF>
  </metadata>
  <defs
     id="defs2989" />
  <sodipodi:namedview
     pagecolor="#ffffff"
     bordercolor="#666666"
     borderopacity="1"
     objecttolerance="10"
     gridtolerance="10"
     guidetolerance="10"
     inkscape:pageopacity="0"
     inkscape:pageshadow="2"
     inkscape:window-width="1440"
     inkscape:window-height="877"
     id="namedview2987"
     showgrid="false"
     inkscape:zoom="1.8395825"
     inkscape:cx="334.57425"
     inkscape:cy="164.71088"
     inkscape:window-x="-8"
     inkscape:window-y="-8"
     inkscape:window-maximized="1"
     inkscape:current-layer="svg2985"
     fit-margin-top="0"
     fit-margin-left="0"
     fit-margin-right="0"
     fit-margin-bottom="0" />
  <path
     style="fill:#ee1e23;fill-opacity:1"
     d="m 49.36479,291.99093 c -1.799403,-0.85127 -5.228206,-2.77397 -7.619564,-4.27267 -6.797374,-4.26 -8.717237,-5.0774 -13.072802,-5.56586 -4.803499,-0.53868 -6.533935,-1.6557 -10.620338,-6.85555 -1.496491,-1.90425 -4.29227,-4.71266 -6.212842,-6.2409 C 4.1675051,262.95136 2.5209392,259.58219 1.7544336,248.42062 1.4772501,244.38438 0.9691093,238.32529 0.6252319,234.95598 L 0,228.82994 l 1.7889935,-4.746 c 4.2385021,-11.24428 8.8707475,-18.76718 15.2527645,-24.77093 5.319056,-5.00378 10.049775,-7.56949 13.067178,-7.08699 1.879248,0.30051 2.280308,0.11985 4.680998,-2.10853 3.708022,-3.44187 5.075913,-3.99743 12.996619,-5.27848 3.863356,-0.62484 8.98125,-1.72237 11.373097,-2.43897 2.391847,-0.7166 6.061158,-1.47389 8.154024,-1.68287 2.092866,-0.20898 5.028315,-0.83911 6.52322,-1.40029 1.861226,-0.69869 4.145304,-1.0204 7.245905,-1.02059 5.396404,-3.3e-4 8.673316,-1.14679 16.79571,-5.87619 l 5.312871,-3.09351 5.25357,0.14014 c 6.02827,0.16081 7.69818,-0.29994 8.79659,-2.42709 2.04425,-3.95882 3.58808,-18.50086 2.57918,-24.29441 -0.7033,-4.03862 -2.65026,-8.89577 -4.01888,-10.02604 -0.48596,-0.40133 -3.64443,-1.08167 -7.01881,-1.51186 -4.37981,-0.55838 -6.91293,-1.18236 -8.853261,-2.18085 -3.279373,-1.68756 -5.728042,-1.73554 -11.199034,-0.21945 -5.253371,1.45578 -6.286926,1.39554 -9.131925,-0.53226 -2.01156,-1.36304 -2.923039,-1.62091 -5.729507,-1.62091 -1.835569,0 -4.746142,-0.36693 -6.46794,-0.8154 -4.258483,-1.10919 -7.13831,-1.02495 -11.138185,0.32583 -4.050663,1.36793 -6.616556,3.68693 -6.616556,5.9799 0,0.91931 1.07544,3.45236 2.524763,5.94672 l 2.524763,4.34525 -0.303357,5.29119 c -0.365403,6.37343 -2.370801,13.17421 -4.777963,16.20323 -3.861026,4.85847 -7.504058,6.00994 -14.301115,4.5202 -3.497449,-0.76655 -4.851682,-0.83024 -7.435612,-0.34971 -2.695901,0.50136 -3.543801,0.44231 -5.780351,-0.40252 -3.675622,-1.38843 -8.421269,-4.71268 -10.531656,-7.37726 -3.2135069,-4.05739 -5.4127878,-13.1243 -5.3974186,-22.25179 0.022222,-13.19755 4.4556446,-21.617 14.1834596,-26.9356 2.760056,-1.50904 5.55586,-3.77907 9.408056,-7.63881 3.014543,-3.02046 6.545061,-6.157858 7.845595,-6.972015 1.300534,-0.814163 3.840784,-2.566996 5.644999,-3.895183 l 3.280393,-2.414885 8.488641,0.133204 c 6.837846,0.107307 9.122935,-0.05478 11.750254,-0.833466 1.793885,-0.53167 6.593605,-1.284205 10.666045,-1.672298 6.978611,-0.665048 7.592315,-0.819762 10.67134,-2.69017 3.619604,-2.198793 4.811483,-2.35142 9.297641,-1.190613 1.68755,0.436654 6.127751,1.170548 9.867111,1.63087 8.32942,1.025363 9.51557,1.35521 13.45473,3.741496 1.71672,1.039964 5.4452,2.803815 8.28552,3.919672 4.97762,1.95552 5.37132,2.238763 10.89622,7.839308 7.17627,7.27452 10.74079,11.98423 13.79291,18.22423 3.43601,7.02487 4.61988,11.43875 5.46761,20.38506 0.41079,4.33522 1.15867,9.05438 1.66195,10.48701 0.75157,2.1394 0.80742,3.03222 0.31263,4.99723 -0.77072,3.06078 -0.76152,5.85546 0.0345,10.49764 0.52232,3.0459 0.47567,5.07778 -0.25918,11.28982 -0.49287,4.16649 -1.16746,12.34554 -1.49909,18.17567 -0.33163,5.83012 -0.85921,11.57871 -1.1724,12.77463 -1.02962,3.9317 -1.10977,8.74672 -0.19783,11.88368 1.2315,4.23624 1.07316,6.5944 -0.75334,11.21939 -0.95779,2.42526 -1.61767,5.11809 -1.62881,6.64671 -0.0285,3.91334 4.3219,14.56069 6.25195,15.30132 0.48679,0.1868 1.84083,0.33964 3.00897,0.33964 2.00019,0 2.28243,-0.21796 4.84577,-3.74223 3.05435,-4.19936 5.15615,-5.499 8.89306,-5.499 4.42138,0 23.30602,2.15797 29.60435,3.38292 6.85796,1.3338 7.41029,1.22206 8.90475,-1.80152 1.43151,-2.89622 1.96359,-6.02717 4.00133,-23.54504 2.40084,-20.63939 2.43319,-21.59332 0.80683,-23.79309 -1.2185,-1.6481 -1.25124,-1.96179 -0.92134,-8.82545 0.18814,-3.91413 0.61083,-10.6636 0.93931,-14.99883 0.64513,-8.51433 0.35245,-16.70055 -0.9024,-25.23985 -1.15595,-7.86633 -1.0738,-12.86916 0.29873,-18.19234 1.82965,-7.09603 1.74774,-7.81286 -1.49484,-13.08188 -3.4433,-5.59518 -3.58744,-7.37799 -1.16909,-14.45986 1.77942,-5.210805 1.79634,-6.094205 0.22524,-11.761154 l -1.00944,-3.641066 1.2688,-2.70894 c 1.63656,-3.494136 1.3735,-5.138166 -2.0552,-12.844045 -1.46239,-3.286675 -3.09047,-7.321189 -3.61794,-8.965584 -1.62887,-5.077956 -2.90464,-5.791966 -6.79899,-3.805211 -2.9303,1.494926 -5.11913,1.364842 -9.15414,-0.544031 -3.9578,-1.872349 -4.79913,-1.968028 -6.54602,-0.744457 -1.80701,1.265679 -5.06176,1.881971 -7.00132,1.325709 -0.91306,-0.261859 -2.8701,-1.432554 -4.34899,-2.601547 -1.47888,-1.168988 -5.05111,-3.43407 -7.93829,-5.03351 -6.28711,-3.482939 -10.11042,-7.154555 -12.3878,-11.896318 -3.2891,-6.848248 -1.80857,-15.048527 4.35662,-24.130309 4.25529,-6.2683641 8.36981,-10.4493471 12.13464,-12.3306566 4.27908,-2.1382785 6.80545,-2.1385561 12.85405,-0.00141 7.93966,2.8053082 11.82979,3.4187675 27.54428,4.3436335 5.38165,0.316734 11.49717,0.928766 13.59004,1.360071 4.99839,1.0300861 5.78129,0.9991911 10.12415,-0.399522 l 3.67808,-1.184602 3.97091,1.963197 c 5.79791,2.8664481 6.90311,4.2375201 7.84551,9.7328581 1.55295,9.055598 6.26387,24.687365 8.96605,29.751145 2.27157,4.256831 2.17153,8.138551 -0.38969,15.119298 -2.98634,8.13945 -2.95282,7.964046 -3.48102,18.217661 -0.46967,9.117455 -0.59115,9.853834 -2.28677,13.861841 l -1.79074,4.232869 0,22.01586 0,22.01587 2.38511,5.92961 2.38511,5.92962 -1.9884,6.02962 c -1.09362,3.31629 -1.98345,6.96986 -1.97741,8.11906 0.006,1.14919 0.77843,4.55965 1.71641,7.57881 1.70416,5.48534 1.70491,5.4933 1.02339,10.8411 -0.89617,7.0322 -0.83209,8.70836 0.494,12.92215 1.4015,4.45341 1.39932,6.20789 -0.016,12.8507 -0.86175,4.04468 -1.15896,7.49425 -1.2112,14.05758 -0.0765,9.60732 0.55564,13.69791 2.74502,17.76401 1.55253,2.88333 1.75189,2.98243 10.32593,5.13257 5.54279,1.38998 6.3336,1.46674 8.69763,0.84431 1.43025,-0.37658 4.55743,-1.96648 6.94928,-3.53312 8.15045,-5.33848 7.4571,-5.21691 24.46207,-4.28903 9.26312,0.50544 21.31033,0.86905 23.45175,0.70782 1.68962,-0.12721 4.04965,-9.81388 5.59611,-22.96901 0.62096,-5.28222 1.76775,-12.58277 2.54842,-16.22342 1.51883,-7.08303 1.49095,-7.38135 -0.97693,-10.4522 -1.18863,-1.47903 -1.19234,-1.55117 -0.54491,-10.60023 0.93095,-13.01173 0.82398,-30.357 -0.24755,-40.14274 l -0.89795,-8.20042 1.43812,-6.47683 c 1.97048,-8.87445 1.92026,-9.53009 -1.10096,-14.3731 -3.19132,-5.11569 -3.53549,-7.59935 -1.77909,-12.83856 1.45518,-4.340695 1.65001,-9.217632 0.56592,-14.165901 -0.69705,-3.181684 -0.67352,-3.48235 0.41732,-5.331188 1.66639,-2.824321 1.4437,-5.08198 -1.08801,-11.030237 -1.23424,-2.899816 -3.08271,-7.473984 -4.10773,-10.164812 -2.2937,-6.021306 -3.1265,-7.338622 -4.63947,-7.338622 -0.64974,0 -2.10637,0.641042 -3.23695,1.424535 l -2.05561,1.424536 -4.37197,-0.880934 c -2.40457,-0.484512 -5.70066,-0.880933 -7.32462,-0.880933 -2.86816,0 -2.99876,-0.06701 -4.5637,-2.341575 -2.26167,-3.287222 -2.58879,-3.478992 -6.96936,-4.085676 -2.89005,-0.400256 -4.5406,-0.976719 -6.33865,-2.213809 -3.25769,-2.241348 -6.16364,-5.66551 -7.89067,-9.297794 -1.94895,-4.099009 -2.01084,-11.384371 -0.14779,-17.395251 C 289.9907,15.461876 293.8492,8.2360039 296.7506,5.2079297 299.21469,2.636262 303.87562,0.00999637 305.99328,6.5733476e-6 306.61242,-0.00291343 309.70019,0.96738177 312.85499,2.1562197 c 3.15479,1.1888379 7.1737,2.3062502 8.93091,2.4831385 1.75721,0.1768883 4.66264,0.8515026 6.45653,1.4991436 2.89556,1.0453763 4.17672,1.1598702 11.41563,1.020188 7.6576,-0.1477607 8.3815,-0.071521 11.89031,1.2522861 l 3.73629,1.409626 4.83986,-1.424031 4.83987,-1.4240304 3.38308,1.6433304 c 4.20198,2.0411101 5.09122,2.7557911 5.82269,4.6797011 0.31886,0.838662 2.03016,7.393631 3.8029,14.566598 2.71037,10.966927 3.67023,13.950378 6.03336,18.753072 2.58556,5.254759 2.78477,5.933611 2.49201,8.492172 -0.17501,1.529466 -1.33035,5.471682 -2.56742,8.760471 -2.14098,5.691835 -2.28322,6.450535 -2.95556,15.764447 -0.62468,8.65367 -0.90532,10.318265 -2.42763,14.399186 -2.07309,5.557397 -2.69939,11.330712 -2.71334,25.011922 -0.014,13.71681 0.70387,20.98119 2.68593,27.18008 2.61234,8.17008 2.66247,10.64567 0.34589,17.08264 l -1.94166,5.3952 1.9603,5.73711 1.9603,5.7371 -0.37536,8.20706 c -0.36435,7.96608 -0.33283,8.33025 1.07339,12.40232 l 1.44874,4.19525 -1.68299,8.80967 c -2.38236,12.47048 -2.77469,15.31374 -2.77934,20.1423 -0.004,3.94476 0.16504,4.59092 2.24324,8.58549 2.63979,5.074 3.10562,5.37992 11.14091,7.31632 6.69758,1.61403 8.61452,1.5537 15.95517,-0.50215 5.98668,-1.67665 15.39898,-2.76796 19.3089,-2.2388 5.09605,0.6897 8.70575,3.23255 11.35579,7.99957 2.51887,4.53108 3.49649,9.32293 2.60533,12.77019 -1.52542,5.90077 -6.66741,14.08591 -10.07551,16.03842 -0.7264,0.41617 -3.5297,0.68251 -7.419,0.70487 -4.94246,0.0284 -7.3946,0.33746 -11.71106,1.47592 l -5.45965,1.43997 -4.32518,-1.05646 c -6.05245,-1.47838 -11.27428,-1.85209 -15.88437,-1.13682 -2.96103,0.45942 -6.21831,0.45033 -13.04526,-0.0364 -14.56075,-1.03813 -19.22486,-0.92605 -24.79282,0.5958 -5.24737,1.43423 -5.35739,1.42467 -12.02972,-1.0455 -3.05609,-1.1314 -3.53658,-1.16513 -7.62552,-0.53526 l -4.36392,0.67222 -3.3669,-1.6996 c -1.8518,-0.93478 -4.01382,-1.69961 -4.80449,-1.69961 -0.80395,0 -2.66441,0.89848 -4.22106,2.03851 l -2.78348,2.0385 -5.29899,-0.1532 c -4.24539,-0.12274 -6.4478,0.12897 -11.07677,1.26597 -5.50755,1.35279 -5.99735,1.38668 -10.4728,0.72461 -2.8143,-0.41632 -10.46558,-0.71235 -19.10048,-0.73899 -7.923,-0.0245 -16.97396,-0.24045 -20.11326,-0.48 -5.49516,-0.41932 -5.88414,-0.37472 -10.44019,1.19711 l -4.73237,1.63266 -3.96526,-1.72296 c -3.78004,-1.64247 -4.2525,-1.71637 -10.11491,-1.58211 -6.07339,0.1391 -6.19813,0.11691 -10.05663,-1.78869 -3.23255,-1.59645 -4.28232,-1.87193 -6.08138,-1.5959 -3.29662,0.5058 -9.79612,2.36086 -12.37786,3.53284 -1.77725,0.80677 -3.5557,1.0465 -7.83196,1.05573 -3.04292,0.007 -7.40473,0.27233 -9.6929,0.59059 -9.20587,1.28041 -16.413,-1.35249 -22.74938,-8.31079 -4.29919,-4.72116 -7.75668,-7.21827 -10.75614,-7.76843 -2.24143,-0.41111 -3.44965,0.0846 -6.79612,2.78818 -1.23979,1.00162 -5.44069,3.38004 -9.33534,5.28538 -3.89465,1.90534 -8.01731,4.19816 -9.16147,5.09517 -1.14417,0.89701 -2.61863,1.91309 -3.2766,2.25796 -1.46915,0.77006 -14.267881,1.68429 -23.809372,1.70075 -10.132038,0.0174 -14.945457,0.70294 -20.772268,2.95813 -2.754304,1.06602 -5.812063,1.93802 -6.79502,1.93779 -0.98296,-2.4e-4 -3.259438,-0.69693 -5.05884,-1.5482 l 0,0 z m 18.102854,-32.89586 c 4.267169,-2.1382 5.998785,-2.47199 15.505953,-2.98889 7.906838,-0.4299 9.243049,-0.63303 9.926715,-1.50905 0.4345,-0.55676 2.353697,-3.21388 4.264881,-5.90471 4.818427,-6.78403 5.923227,-7.78733 15.990007,-14.521 7.3824,-4.93807 9.01675,-6.27293 9.70906,-7.92986 0.99447,-2.3801 1.66157,-18.36067 0.88784,-21.26832 -0.2725,-1.02402 -1.14105,-2.34385 -1.93011,-2.93297 -1.4297,-1.06743 -1.45118,-1.06714 -6.22742,0.0858 -2.63602,0.63632 -7.7164,2.0254 -11.28974,3.08683 -5.564701,1.65295 -7.748797,2.00504 -15.220846,2.45366 -15.234653,0.91468 -19.946309,1.94712 -28.600218,6.26703 -2.560532,1.27818 -7.330634,3.46401 -10.600234,4.85742 -3.2696,1.39339 -6.509363,3.05982 -7.199473,3.70316 -1.780304,1.65966 -4.244661,7.12023 -5.025482,11.13557 -2.020004,10.38778 2.85352,19.0544 12.250275,21.78474 2.293002,0.66626 5.924027,2.05319 8.068948,3.08207 4.62169,2.21695 6.076782,2.30871 9.489844,0.59849 l 0,0 z"
     id="path3140"
     inkscape:connector-curvature="0" />
  <path
     style="fill:#ee1e23;fill-opacity:1"
     d="m 596.29737,287.51737 c -2.95719,-0.87155 -7.60498,-1.85263 -10.32844,-2.18017 -3.87223,-0.46571 -6.72935,-1.29924 -13.10576,-3.82346 -10.6035,-4.1976 -10.52286,-4.15264 -12.46776,-6.95059 -0.91623,-1.3181 -2.23442,-3.08732 -2.9293,-3.93159 l -1.26341,-1.53504 -2.27,1.14921 c -1.24849,0.63207 -7.65165,4.7577 -14.22923,9.16807 l -11.95923,8.01886 -14.78972,0.64824 -14.78972,0.64823 -3.27873,-1.4714 c -2.80363,-1.2582 -3.6538,-1.4085 -5.86714,-1.03726 -1.42363,0.23878 -4.66769,0.45438 -7.20903,0.47911 -4.01808,0.0391 -5.02653,-0.15438 -7.7335,-1.48366 -10.78582,-5.29647 -27.30178,-29.76439 -34.63386,-51.30904 -3.92836,-11.54313 -3.91539,-11.39627 -4.14327,-46.91324 -0.11223,-17.49038 -0.47373,-35.34769 -0.80334,-39.68292 -0.58708,-7.72157 -1.98471,-16.12911 -3.19573,-19.22419 -0.60412,-1.54399 -0.63797,-1.55406 -4.00941,-1.19301 -4.27328,0.45763 -10.0501,-0.43934 -12.73322,-1.97708 -6.25226,-3.58328 -11.83732,-9.48802 -13.41413,-14.18192 -1.01812,-3.03078 -1.14308,-10.18448 -0.30591,-17.512151 0.66552,-5.825257 1.76277,-7.79265 6.36816,-11.418233 6.35782,-5.00519 12.80276,-5.931335 20.78765,-2.987209 4.83729,1.783563 8.00889,2.097959 8.49096,0.841695 0.33016,-0.860383 2.50278,-1.662308 5.93676,-2.191286 10.39424,-1.601155 27.72061,9.258239 32.98293,20.672219 1.09606,2.377355 1.23526,3.490195 1.1868,9.488255 -0.0515,6.37198 -0.18562,7.18421 -2.15482,13.04644 -1.93543,5.76173 -2.09928,6.71981 -2.09163,12.23103 0.009,6.75407 0.6616,8.97195 4.57608,15.561 3.12686,5.26329 3.26593,6.70144 1.05558,10.91609 -0.98677,1.88155 -2.14914,4.12051 -2.58305,4.97546 -1.05674,2.08217 -2.71117,8.59671 -3.14362,12.37842 -0.3266,2.85615 -0.20948,3.31057 1.75137,6.79502 l 2.10139,3.73417 0.2718,21.79521 0.2718,21.79521 2.14147,2.66686 c 5.6571,7.04501 11.66234,12.5405 15.44582,14.13471 1.36392,0.57471 4.69844,0.93346 10.68852,1.14994 l 8.70614,0.31465 4.00152,-4.28478 c 6.76394,-7.24277 21.32665,-26.31628 26.07712,-34.15452 2.47566,-4.08483 6.42862,-14.02512 7.82219,-19.67009 l 1.16839,-4.73282 -1.27924,-4.6714 c -1.77087,-6.46667 -1.89415,-8.81453 -0.86038,-16.38668 1.00048,-7.32827 0.97156,-7.60186 -1.68518,-15.94607 -1.21235,-3.8077 -1.76833,-6.44406 -1.55951,-7.39484 0.17849,-0.81264 1.55197,-2.85469 3.05216,-4.53788 3.25537,-3.65244 3.97733,-5.64956 2.93989,-8.13249 -1.11219,-2.66184 -2.34956,-3.48264 -6.76363,-4.4866 -2.21685,-0.50421 -6.37453,-1.89328 -9.23928,-3.08681 -4.94422,-2.05989 -5.42941,-2.15662 -9.55745,-1.90545 -8.81554,0.53638 -15.32382,-1.68255 -20.874,-7.11677 -5.50645,-5.39141 -6.11351,-8.31903 -2.98473,-14.394405 3.33726,-6.4802 15.34865,-19.582587 20.23924,-22.077585 2.77259,-1.414466 4.27575,-1.414439 10.55617,1.85e-4 7.17355,1.615798 10.96277,1.619902 14.39914,0.0156 l 2.78309,-1.299312 3.70499,1.368669 c 4.45759,1.646688 5.52048,1.824127 17.12923,2.859567 10.72344,0.956475 14.26507,2.03878 17.64193,5.391287 2.47919,2.461324 2.97691,3.893725 3.88811,11.189755 0.31739,2.541344 0.98986,6.699889 1.49437,9.241229 1.12949,5.68941 1.28703,29.66074 0.2851,43.37936 -0.66549,9.1121 -1.49873,13.14965 -4.17326,20.22203 -1.37563,3.63763 -1.54359,4.78002 -1.55849,10.60023 -0.0128,5.01391 0.25449,7.52942 1.15541,10.87203 1.00879,3.74282 1.2159,6.35615 1.48634,18.75426 0.19134,8.77204 0.0729,17.62582 -0.30295,22.64041 -0.58455,7.79983 -0.56117,8.33084 0.44248,10.04935 1.37809,2.35961 4.46263,3.50404 12.33964,4.57828 9.7743,1.33298 16.04382,3.92757 18.78177,7.77265 2.67004,3.74973 3.46559,14.94243 1.32021,18.57428 -0.50431,0.85374 -3.5025,3.25657 -6.66264,5.33963 -3.16013,2.08305 -7.94559,5.52235 -10.63435,7.6429 -2.68876,2.12054 -5.25728,3.83555 -5.70782,3.81115 -0.45053,-0.0244 -3.23867,-0.75746 -6.19585,-1.629 l 0,0 z"
     id="path3142"
     inkscape:connector-curvature="0" />
  <path
     style="fill:#ee1e23;fill-opacity:1"
     d="m 642.69357,284.42339 c -7.13407,-5.17684 -11.08549,-13.60564 -9.63043,-20.54269 1.81872,-8.6708 7.29286,-13.39068 15.57532,-13.42925 2.12114,-0.01 5.65226,0.30614 7.84693,0.70226 3.57673,0.64558 4.28148,0.62125 6.79967,-0.23471 3.76391,-1.27939 8.50082,-4.53717 9.76027,-6.71256 1.35888,-2.34712 3.62753,-13.63391 3.63278,-18.07348 0.002,-1.94338 -0.26341,-5.71539 -0.59048,-8.38226 -0.45909,-3.74338 -0.38547,-9.81605 0.32296,-26.63648 1.22785,-29.15363 0.96641,-62.86416 -0.51842,-66.84566 -1.32024,-3.54013 -4.25965,-6.27303 -10.56786,-9.82541 -8.24845,-4.645 -7.24739,-4.49887 -13.11895,-1.91504 -5.73305,2.52287 -8.16971,2.78775 -11.953,1.29933 -8.63748,-3.39815 -16.83803,-11.8756 -19.73131,-20.397549 -0.63424,-1.868111 -0.71364,-3.030504 -0.32513,-4.75966 1.80903,-8.051362 7.99814,-14.137203 17.20724,-16.920122 3.76491,-1.137723 4.68857,-1.180337 21.47227,-0.990628 16.89349,0.190949 17.62225,0.242769 19.82677,1.409833 2.83551,1.501098 4.03282,1.511915 8.09058,0.07309 6.45589,-2.289154 14.80765,-1.321482 19.79862,2.293958 2.65846,1.925787 3.72113,4.095929 6.30422,12.8743 2.12068,7.206916 4.00978,10.817153 5.90974,11.294013 2.76179,0.69316 5.01502,-0.70336 14.57972,-9.036349 5.11381,-4.45527 9.03404,-6.502591 12.45122,-6.502591 2.3408,0 2.87441,-0.28067 6.67623,-3.511608 6.79554,-5.775126 13.59939,-8.447627 21.50662,-8.447627 2.73377,0 5.22765,0.370935 7.30952,1.087203 1.738,0.597962 3.74301,1.087203 4.45557,1.087203 0.71255,0 2.25455,-0.489241 3.42665,-1.087203 3.51072,-1.791039 4.72755,-1.48506 8.12735,2.043676 1.65906,1.721984 6.59477,8.399836 10.96824,14.839671 l 7.95176,11.70879 0.36635,5.13769 c 0.6623,9.288 1.42362,15.9175 2.55643,22.26114 1.76204,9.86728 0.54328,14.74593 -4.90679,19.64164 -3.45698,3.10535 -14.01471,10.29991 -18.62639,12.69293 l -3.07607,1.59619 -4.80615,-2.2135 c -2.64338,-1.21742 -5.90694,-2.66534 -7.25236,-3.2176 -5.73709,-2.35492 -12.62464,-9.5331 -16.11681,-16.79689 -2.2719,-4.7256 -2.36853,-7.89657 -0.46799,-15.35699 1.51329,-5.94032 1.64512,-7.63676 0.74673,-9.60854 -0.86091,-1.88948 -1.83684,-2.11196 -5.10134,-1.16295 -2.05473,0.59733 -4.01549,1.83991 -7.12024,4.51226 -2.35655,2.02836 -6.76824,5.693 -9.80375,8.14364 -6.28799,5.07645 -8.11656,7.11453 -10.57001,11.78101 -4.37822,8.32743 -6.39283,11.19019 -11.9724,17.01279 -4.71765,4.92314 -6.27914,6.97971 -8.11968,10.69407 l -2.27876,4.59873 0.88723,6.15758 c 1.08482,7.52889 1.10372,12.98253 0.0986,28.44526 -0.42756,6.57758 -0.94746,16.36605 -1.15532,21.75217 l -0.37794,9.79294 3.46745,3.03166 c 4.60024,4.02207 8.15219,6.51279 12.43688,8.72108 l 3.53341,1.82108 16.94702,0 16.94703,0 2.89953,2.5005 c 7.62856,6.57875 8.08088,14.32346 1.3508,23.12876 -3.29184,4.30687 -7.06362,5.86807 -18.16344,7.51809 -7.59713,1.12933 -13.81329,1.05096 -19.22851,-0.24243 -3.96461,-0.94691 -4.64162,-0.98048 -5.87816,-0.29138 -5.00796,2.79082 -4.4118,2.70477 -18.79274,2.71289 l -13.59004,0.008 -3.19335,-1.4949 c -3.79387,-1.77602 -5.42808,-1.84182 -10.12489,-0.40769 -4.33007,1.32215 -9.69027,1.39422 -15.22569,0.20472 -4.00481,-0.86059 -4.2209,-0.85156 -8.71004,0.3642 -7.20252,1.95059 -8.57572,1.96288 -11.14326,0.0997 l 0,0 z"
     id="path3144"
     inkscape:connector-curvature="0" />
  <path
     style="fill:#ee1e23;fill-opacity:1"
     d="m 913.96746,288.8442 c -10.51411,-0.69934 -15.03019,-2.42635 -20.55624,-7.86097 -4.44089,-4.36741 -5.33704,-4.83892 -9.19681,-4.83892 -9.12356,0 -18.66016,-4.31904 -28.60242,-12.95378 -4.48268,-3.89316 -5.70335,-5.84805 -7.3567,-11.78168 -1.84062,-6.60576 -3.25759,-9.66127 -9.84857,-21.23717 -10.25578,-18.01249 -11.16689,-20.26185 -14.07652,-34.75221 -2.68905,-13.39187 -2.8282,-15.43755 -1.40176,-20.60728 1.0679,-3.87029 1.14773,-5.04333 0.80009,-11.7575 -0.46199,-8.9228 -0.25698,-9.81433 5.18296,-22.53899 2.04508,-4.78369 4.23941,-10.65459 4.87628,-13.04643 2.90425,-10.90732 5.77309,-17.4527 10.3984,-23.72442 3.08899,-4.188535 5.131,-5.875105 9.39813,-7.762229 2.62847,-1.162432 3.23261,-1.713874 4.15013,-3.788083 1.42483,-3.221055 3.82971,-5.237803 16.4384,-13.785313 l 10.62494,-7.202721 3.44101,-0.01831 c 6.98224,-0.03714 14.82234,-1.002036 15.48298,-1.905509 0.34541,-0.472386 1.93583,-1.389441 3.53426,-2.0379 2.69095,-1.091682 4.01593,-1.192732 17.88727,-1.364183 l 14.98105,-0.185166 5.81706,3.050841 c 3.19939,1.677963 9.05589,4.226144 13.01444,5.662625 12.67023,4.597775 22.33549,9.977336 27.58243,15.352026 1.94338,1.990691 5.42459,4.900668 7.73604,6.466616 5.06451,3.431081 6.11649,4.961056 11.20309,16.292676 5.616,12.5111 7.7835,19.34292 7.9333,25.00568 0.1095,4.13859 0.3653,5.15933 2.4519,9.78482 3.2102,7.1164 3.3852,9.69073 1.0901,16.03625 -0.9733,2.69083 -2.4928,6.96642 -3.3767,9.50132 -0.8839,2.53489 -2.2917,5.59265 -3.1284,6.79502 -3.2,4.59822 -8.089,8.27236 -13.47239,10.12452 -3.60253,1.23945 -5.46875,1.26875 -11.52414,0.1809 -5.12586,-0.92085 -8.41274,-0.73483 -15.89459,0.89954 -6.00477,1.31172 -9.03334,1.30099 -22.4459,-0.0795 -5.9705,-0.61453 -13.66859,-1.15576 -17.10687,-1.20272 -5.78343,-0.079 -6.66532,0.0529 -11.7801,1.76235 l -5.52869,1.84775 -5.10962,-1.00465 c -4.83504,-0.95067 -5.39971,-0.95706 -10.50757,-0.11888 -3.90495,0.64079 -7.0613,0.79439 -11.41186,0.55536 -5.74072,-0.31542 -6.16426,-0.26297 -9.32348,1.15481 -1.82026,0.81689 -3.99027,2.19575 -4.82224,3.06413 l -1.51267,1.5789 0.98928,5.30187 c 2.09773,11.24238 5.00468,21.16579 7.4998,25.60191 3.1308,5.56632 6.21808,7.79034 13.61947,9.81127 4.55555,1.24387 5.82291,1.90084 9.62039,4.98695 3.51039,2.85281 5.38925,3.68284 10.45649,4.61942 5.25856,0.97196 8.74618,2.01403 13.02108,3.89059 l 3.0925,1.35753 7.23593,-1.96028 c 3.97976,-1.07814 8.70365,-2.2185 10.49753,-2.53409 5.40694,-0.95125 6.902,-1.61415 10.82357,-4.79899 4.59364,-3.73064 9.75954,-9.53288 15.95031,-17.91507 6.21513,-8.41516 9.7079,-12.44489 11.76147,-13.56956 1.38763,-0.75996 3.2035,-0.9262 10.117,-0.9262 9.7463,0 11.395,0.41123 14.5912,3.63938 6.4733,6.53796 5.5898,19.99508 -2.3565,35.89561 -2.9782,5.95929 -5.5111,9.58969 -7.98868,11.45033 -0.9899,0.7434 -4.24602,2.36617 -7.23583,3.60615 -2.98981,1.23998 -8.86071,4.17363 -13.04644,6.51924 -9.86319,5.52713 -18.30979,9.72491 -24.65157,12.25131 -4.34268,1.73001 -5.48925,1.97893 -7.88222,1.71122 -9.00584,-1.00751 -12.64586,-0.9828 -18.30395,0.12423 -6.57409,1.28626 -10.0316,1.62964 -13.85085,1.37561 l 0,0 z m 31.62263,-133.38544 c 4.73214,-1.2499 9.50094,-2.49772 10.59735,-2.77291 2.53267,-0.6357 6.53476,-4.63677 8.35085,-8.34873 2.8562,-5.83786 2.34157,-15.89013 -0.98892,-19.31656 -3.89787,-4.01017 -15.50822,-10.35984 -21.45701,-11.73477 -2.01456,-0.46562 -5.49748,-1.868 -7.73984,-3.11638 -3.91867,-2.18165 -4.25647,-2.26833 -8.69763,-2.23186 -3.40107,0.0279 -5.90387,0.42992 -9.48266,1.5231 -10.79611,3.2978 -16.68817,6.49067 -19.69015,10.66999 -3.85759,5.37049 -3.8949,5.39694 -8.8183,6.2512 -8.16173,1.41617 -11.20014,3.75242 -15.09185,11.60422 -1.60337,3.23491 -2.10834,4.95835 -2.26993,7.74715 -0.46428,8.0128 3.15973,9.72193 17.00616,8.0203 4.62977,-0.56896 5.48873,-0.52099 9.7334,0.5436 5.2128,1.30741 7.93861,1.4355 12.52106,0.58839 3.40013,-0.62855 4.6699,-0.43626 12.83066,1.94306 6.60144,1.9247 11.91093,1.61116 23.19681,-1.3698 l 0,0 z"
     id="path3146"
     inkscape:connector-curvature="0" />
</svg>
