<svg version="1.1" id="Layer_1" xmlns="http://www.w3.org/2000/svg" width="512px" height="176px" viewBox="0 0 512 176" enable-background="new 0 0 528 197" preserveAspectRatio="xMaxYMid meet" data-reactid="75"><g data-reactid="76"><path fill="#231F20" d="M95.5,99.7c0-12.4-5-17.3-11.7-17.3c-6.9,0-13.7,5.4-13.7,17.2v0.5c0,12.4,5.1,18,12.9,18 C89.6,118.1,95.5,113,95.5,99.7z M69.7,113l-5.4,8.5h-2V66.1c0-6.2-0.7-6.8-7.1-7.2v-2.8l15.3-1v32.5c2.6-5.6,7.8-9.4,14.8-9.4 c10.7,0,19.1,8.5,19.1,21.5c0,13.4-9.1,22.5-20.6,22.5C76.9,122.3,72.3,119,69.7,113z" data-reactid="77"></path><path fill="#231F20" d="M142.9,100.2c0-10.4-4-18.4-12.7-18.4c-8.7,0-12.6,8-12.6,18.4c0,10.5,3.9,18.5,12.6,18.5C139,118.7,142.9,110.7,142.9,100.2z M108.7,100.2c0-12.4,9-22,21.5-22c12.5,0,21.6,9.5,21.6,22c0,12.5-9.1,22.1-21.6,22.1C117.7,122.3,108.7,112.7,108.7,100.2z" data-reactid="78"></path><path fill="#231F20" d="M202.9,121.1h-22.3v-2.7c6.5-0.6,6.9-1.2,6.9-7.3V92.3c0-6.4-2.3-9.7-8.1-9.7c-7.1,0-11.7,6-11.7,13v15.5c0,6.2,0.6,6.7,7,7.3v2.7h-22.3v-2.7c6.5-0.6,7-1.2,7-7.3V89.7c0-6.2-0.6-6.7-7-7.1v-2.8l14.8-1.2v8.7c2.5-5.6,7.3-9.1,14.2-9.1c8.9,0,14.3,5.1,14.3,14.7v18.1c0,6.2,0.7,6.7,7,7.3V121.1z" data-reactid="79"></path><path fill="#231F20" d="M242.4,105.3v-5.8c-12.9,0.9-17.9,4.3-17.9,10.7c0,5.2,2.5,8,7.3,8C237.3,118.1,242.4,113,242.4,105.3zM250.5,93.7v20.2c0,3.1,1.1,4,2.7,4c1.4,0,2.8-1,3.4-1.4l0.5,2.9c-1.1,1.1-3.2,2.3-6.6,2.3c-5.2,0-8-2.8-8-7.8c-2.5,5.5-7,8.3-13.3,8.3c-8.5,0-13.6-4.5-13.6-11.6c0-8,7.5-13.6,26.8-14.4v-5.4c0-5.9-2.7-9.1-8.1-9.1c-5.6,0-7,2.8-8.7,6.8c-0.9,2.1-1.9,3.5-4.3,3.5c-2.5,0-3.9-1.4-3.9-3.7c0-5.2,7.2-10.1,16.7-10.1C245.1,78.2,250.5,84,250.5,93.7z" data-reactid="80"></path><path fill="#231F20" d="M269.6,100.3c0,12.5,5,17.8,12.9,17.8c6.6,0,12.4-5.1,12.4-18.4c0-12.4-5-17.3-11.7-17.3c-6.9,0-13.7,5.4-13.7,17.3V100.3z M278.4,141.8h-23.8V139c6.5-0.4,7-1.2,7-7.3v-42c0-6.2-0.6-6.7-7-7.1v-2.8l15-1.2v9.6c2.5-6,7.8-10,15.1-10c10.7,0,19.1,8.5,19.1,21.5c0,13.4-8.9,22.5-20.4,22.5c-6.7,0-11.1-2.9-13.5-8.1v17.5c0,6.2,0.9,6.7,8.5,7.3V141.8z" data-reactid="81"></path><path fill="#231F20" d="M319.6,100.3c0,12.5,5,17.8,12.9,17.8c6.6,0,12.4-5.1,12.4-18.4c0-12.4-5-17.3-11.7-17.3c-6.9,0-13.7,5.4-13.7,17.3V100.3z M328.3,141.8h-23.8V139c6.5-0.4,7-1.2,7-7.3v-42c0-6.2-0.6-6.7-7-7.1v-2.8l15-1.2v9.6c2.5-6,7.8-10,15.1-10c10.7,0,19.1,8.5,19.1,21.5c0,13.4-8.9,22.5-20.4,22.5c-6.7,0-11.1-2.9-13.5-8.1v17.5c0,6.2,0.9,6.7,8.5,7.3V141.8z" data-reactid="82"></path><path fill="#231F20" d="M374.3,74.5l5.5-7.2c3.1-4,4.7-5.9,7.2-5.9c2.1,0,3.7,1.7,3.7,3.6c0,2.1-1.2,3.4-6.9,6.6l-8.3,4.5L374.3,74.5z M358.1,100.2c0-12,9.1-22,20.4-22c10.5,0,17.6,8,17.6,17.6v2.9H367c0,0.5,0,0.9,0,1.4c0,11.6,4.8,17.9,13.5,17.9c6.4,0,10.3-3.8,12.8-7.2l3.1,2.2c-3,4.7-8.3,9.2-16.9,9.2C366.2,122.3,358.1,113.6,358.1,100.2z M367.3,95.5h20.2c-0.2-9.1-3.2-13.6-9-13.6C372.8,81.8,368.4,86.7,367.3,95.5z" data-reactid="83"></path><path fill="#231F20" d="M415.6,118c3,0,4.7-4.3,5.1-4.9l2.6,1.8c-0.6,1.2-3.1,7.3-9.5,7.3c-6.1,0-9.4-3.5-9.4-10.8V82.7h-6.9v-3c7.2-0.8,10.8-3.3,12.1-15.7h3.1v15.4h9v3.3h-9v29.7C412.7,116.6,413.5,118,415.6,118z" data-reactid="84"></path><path fill="#231F20" d="M430.6,66.7c0-2.9,2.4-5.3,5.3-5.3c3,0,5.3,2.4,5.3,5.3c0,2.9-2.3,5.3-5.3,5.3C433,72,430.6,69.6,430.6,66.7z M426,118.4c5.4-0.6,5.9-1.2,5.9-7.3V89.8c0-6.1-1.2-6.6-6.4-7.3v-2.7l14.6-1.2v32.4c0,6.2,0.5,6.7,6.6,7.3v2.7H426V118.4z" data-reactid="85"></path><path fill="#231F20" d="M465.1,118c3,0,4.7-4.3,5.1-4.9l2.6,1.8c-0.6,1.2-3.1,7.3-9.6,7.3c-6.1,0-9.4-3.5-9.4-10.8V82.7H446v-3c8.3-1,11.7-3.3,13-15.7h3.1v15.4h10.4v3.3h-10.4v29.7C462.1,116.6,463,118,465.1,118z" data-reactid="86"></path></g></svg>
