<svg xmlns="http://www.w3.org/2000/svg" viewBox="0 0 128 93" width="128" height="93"><g fill="none" fill-rule="evenodd"><path d="M54.74 47.163v-.028l-4.127 2.022 6.589 3.218v.019l.042-.02-6.607-3.21zM89.93 29.372v-.015L84.046 26.5l5.882 2.872zM50.595 42.676v.008l-2.49-1.209 2.484 1.213.006-.003v.008l.017-.008zM89.31 22.601l-.002-.014-5.289-2.57 5.292 2.584zM86.49 14.757l-.004-.008-2.378-1.155 2.382 1.163zM50.595 49.157V49.166l.018-.009-.018-.008v-.033l-6.457-3.137v.031l6.45 3.15zM70.499 7.1l-4.502 2.206 4.538-2.199V7.03l.005-.003v-.005l-6.552-3.163-.019.009 6.53 3.188zM50.655 10.34l4.084 1.995v-.016l-4.078-1.981zM77.141 16.708v.03l.006.003v.051l-.006.003.006-.002v2.251l.04.073v-2.39l.03-.014-.03-.014v-.042l-.04-.02v.074l-.006-.003zM54.74 18.808v-.016L50.636 16.8l4.102-2v-.028l-4.126 2.022zM63.892 49.148l-3.79 1.858 3.79-1.849v.018l.035-.018-.035-.017zM70.127 45.712l.372.182v.043l-4.512 2.211 4.548-2.203v-.088l-.355-.172c-.018.01-.035.019-.053.027zM77.147 42.508l.04-.02v-4.63l-.04.082v4.568zM54.74 25.265l-4.103-1.993 4.102-2v-.028l-4.126 2.022 4.126 2.015zM50.655 29.718l4.084 1.995v-.017l-4.078-1.98zM43.998 7.105l6.597-3.217v.01l.017-.01-.017-.008v-.01l-6.598 3.234-.009-.004v.004l-4.204-2.042 4.194 2.048.01-.006v.005l.009-.004zM50.595 16.784v.018l.018-.009zM54.74 44.7v-.016l-4.103-1.994 4.102-2v-.028l-4.126 2.023zM54.74 38.17l-4.103-1.993 4.102-2v-.029l-4.12 2.02.06.03v.016l-.03.015 4.09 1.998zM48.094 9.105l2.501 1.221v-.006zM48.141 2.655l2.454 1.198v-.006zM48.13 54.391l2.465 1.204v-.006zM48.094 28.482l2.501 1.222v-.006zM48.086 15.574l2.503 1.222.006-.003zM37.34 8.068v1.01c.01.081.024.163.041.244V7.82c-.016.082-.03.165-.041.248zM63.892 55.63v-.01l-3.843 1.885zM77.217 48.971l-.03-.014v-.002l-.04-.02v.14l-.006-.003v.03l.006.004v.051l-.006.003.006-.002v3.841l.04-.025v-3.988l.03-.015zM50.595 10.353v-.01l-6.457 3.166v.001l6.457-3.149zM57.202.652l.042-.02-.967-.47-.034.003.959.469v.018zM41.942 12.548h.013l-2.695-1.31 2.682 1.31zM63.97 55.61l3.052 1.49.047-.012-3.081-1.487-.019.009zM44.138 39.4v.002l2.449-1.194zM50.595 23.266V23.275l.018-.009-.018-.009v-.032l-6.457-3.137v.03l6.451 3.151z"></path><path d="M57.305 58.843l-.02-.01v-6.447l.007-.003-.007-.004.02-.01-.02-.008v-3.324l-.041.006v9.762l-6.583-3.198-.048.024-.018-.009v-.009l-4.696 2.302.004.004 4.692-2.288v.008l.017-.008 6.59 3.218v.025l-.102.05.264-.033-.08-.038.02-.01zM50.595 29.73v-.009l-6.457 3.165v.002l6.457-3.149zM83.78 45.777l-.017-.009-.009.005V47a.133.133 0 0 1 .006-.008v-1.204l.02-.01zM89.178 35.472l.002-.011-5.162-2.508 5.16 2.52zM83.791 45.777l.645.315.022-.03-.626-.305-.04.02zM77.187 42.528l-.04-.02V42.684l-.006.003.006-.002v6.25l.04-.019V42.53zM83.754 13.514v6.313l-6.489-3.133-.037.019 6.546 3.197.007-.003-.02-.01v-6.385zM83.754 26.295l-4.806-2.32.001.006 4.811 2.35v-6.352l-.006.003v6.313zM57.244 7.063L50.66 3.865l-.048.024 6.59 3.217v.019l.04-.02v3.112l.043-.006V7.117l.007-.003-.007-.004 6.606-3.222v-.041L57.285.637l.02-.009-.02-.01V.086l-.041.003v6.975zm.001-6.419l.026-.012 6.58 3.213v.034l-6.58 3.225-.026-.012V.644zM83.754 32.722l-4.518-2.18-.005.044 4.529 2.211v-6.39l-.006.003v6.312zM83.754 45.69l.006.003v-6.351l-.006.003zM83.794 39.308v.003l3.533 1.725.018-.04-3.513-1.706-.038.018zM83.754 39.23l-5.89-2.844 5.896 2.88v-6.392l-.006.003zM77.147 10.28v.04l-.006.003.006-.002v6.317l.04-.02V10.26l.035-.018 6.538 3.193v-.029l-6.532-3.174 4.291-2.094-.025-.024-4.271 2.094-.036-.017V4.746a4.51 4.51 0 0 0-.04-.025v5.558zM63.927 49.157l6.572 3.21v.026l.036-.017v-.047l-6.59-3.18zM80.457 50.548a.153.153 0 0 1 .01-.01l-2.609-1.259 2.599 1.269z"></path><path fill="#F39F9F" d="M54.74 18.808l-4.127-2.015-.018.009v6.455l.018.009 4.126-2.022z"></path><path fill="#D45371" d="M54.74 18.792v-3.994L50.636 16.8z"></path><path fill="#C7DD8A" d="M50.595 16.816l-6.457 3.165v.107l6.457 3.137zM50.589 16.796l.006.003v-.006z"></path><path fill="#806D9A" d="M54.74 14.77v-2.435l-4.085-1.994-.042.02-.018-.008v6.431l.018.009z"></path><path fill="#EC1C3C" d="M50.66 10.338l4.08 1.981v-1.761c.848-.114 1.681-.228 2.504-.34V7.103l-.042.02v.008l-6.541 3.206z"></path><path fill="#EDEA65" d="M50.595 10.329v-.003l-2.501-1.22-4.106-1.996v5.168c.06-.016.112-.032.15-.047v1.278l6.457-3.165v-.015z"></path><path fill="#EDEA65" d="M43.983 7.116l.275-.133.134.275-.276.132z"></path><path fill="#D45371" d="M50.595 16.802v-.003l-.006-.003-2.503-1.222-3.948-1.918v6.325l6.457-3.165z"></path><path fill="#F6AD4F" d="M43.997 7.104l6.598-3.234v-.017l-2.454-1.198-1.614-.785c-.2.057-.398.113-.596.172a30.86 30.86 0 0 0-1.943.656V7.1l.009.005z"></path><path fill="#806D9A" d="M50.595 3.853V3.881l.017.008.048-.024-.024-.012L57.202.652V.634l-.959-.469c-.91.079-1.895.186-2.953.32-.909.117-1.807.26-2.695.426V3.853z"></path><path fill="#C7DD8A" d="M57.244.631l-.042.02-6.565 3.202.024.012 6.583 3.198z"></path><path fill="#BFE1C8" d="M50.655 10.34l.006-.002 6.54-3.206v-.026L50.614 3.89l-.018.008v6.456l.018.008z"></path><path fill="#F39F9F" d="M57.244.088c-.313.021-.635.046-.967.074l.967.47V.088z"></path><path fill="#D45371" d="M50.595 3.897v-.009l-6.597 3.217-.01.005 4.106 1.995 2.501 1.215z"></path><path fill="#EDEA65" d="M54.74 25.265v-3.994l-4.103 2.001z"></path><path fill="#A23151" d="M50.595 16.793v-6.432l-6.457 3.15v.145l3.948 1.918z"></path><path fill="#EDEA65" d="M50.595 3.847V.912c-1.381.258-2.737.579-4.068.959l1.614.784 2.454 1.192z"></path><path fill="#C7DD8A" d="M63.852 3.88v-.035L57.272.63l-.027.013v6.448l.026.012z"></path><path fill="#83F29B" d="M57.304.628l-.019.01 6.607 3.21V.218A40.469 40.469 0 0 0 59.625 0c-.338 0-.694.007-1.066.02L57.312.63l-.008-.003z"></path><path fill="#EDEA65" d="M57.304.628l.008.003L58.56.02c-.405.014-.83.036-1.275.065V.62l.02.009z"></path><path fill="#A23151" d="M63.818 10.282l.074.01V3.888L57.285 7.11l.008.004.019-.01 6.506 3.178z"></path><path fill="#BFE1C8" d="M60.011 10.011c1.335 0 2.603.091 3.807.27l-6.507-3.177-.019.01-.007.003v3.095l.136-.02c.878-.12 1.741-.18 2.59-.18z"></path><path fill="#ED473C" d="M50.595 29.698v-6.409l-6.457 3.165v.096l3.956 1.932zM50.59 23.269l.005.003v-.006z"></path><path fill="#F39F9F" d="M54.74 31.696v-3.98l-4.08 2z"></path><path fill="#A23151" d="M50.655 29.718l.006-.003 4.078-1.999v-2.435l-4.126-2.015-.018.009v6.431l.018-.008z"></path><path fill="#F6AD4F" d="M50.595 23.275v-.003l-.006-.003-6.451-3.15v6.335l6.457-3.165z"></path><path fill="#D45371" d="M75.684 15.93l1.457.711v.067l.006.003V10.32l-.006.003v6.31z"></path><path fill="#EF6B5A" d="M70.578 7.009l.064.031.137-.066-.101-.049-.1.049-.038-.019V7.027z"></path><path fill="#C7DD8A" d="M77.141 16.796v2.237l.006.011v-2.251l-.006.003z"></path><path fill="#88D2CF" d="M70.78 6.974l-.138.066 6.5 3.173v.052l.005.003V4.72l-.006-.004v5.329L70.78 6.974z"></path><path fill="#806D9A" d="M77.147 16.792v-.051l-.006-.003v.057z"></path><path fill="#A23151" d="M77.141 10.322l.006-.003V10.268l-.006-.003z"></path><path fill="#D45372" d="M50.595 29.706v-.002l-2.501-1.222-3.956-1.932v6.336l6.457-3.165z"></path><path fill="#EC1838" d="M50.595 29.739l-6.457 3.149v.135l6.457 3.134z"></path><path fill="#EDEA65" d="M54.74 31.713l-4.085-1.995-.042-.02-.018.008V36.157l.023.011 4.121-2.02z"></path><path fill="#D55274" d="M54.74 38.17v-3.994l-4.103 2z"></path><path fill="#BFE1C8" d="M63.892 3.864l.035-.017.042.02.019-.008-.055-.027 5.357-2.595A32.96 32.96 0 0 0 63.892.22v3.645z"></path><path fill="#EDEA65" d="M63.988 3.859l6.552 3.163v-.067l-.005-.003V1.615c-.41-.135-.825-.26-1.245-.378l-5.356 2.595.054.027z"></path><path fill="#F6AD4F" d="M63.945 10.3l2.051-.994 4.502-2.207v-.043L63.97 3.868l-.042-.02-.035.017v6.428l.053.007z"></path><path fill="#F39F9F" d="M65.997 9.306l-2.052.994c1.59.247 3.066.651 4.428 1.214.76.314 1.48.659 2.162 1.035V7.107l-4.538 2.2z"></path><path fill="#806D9A" d="M43.988 7.104V2.7c-1.555.582-2.94 1.254-4.148 2.018-.111.07-.218.142-.322.215l.266.13 4.204 2.042z"></path><path fill="#D45372" d="M39.784 5.062l-.266-.13c-1.206.84-1.918 1.802-2.137 2.888v1.502c.062.284.167.563.33.844l6.267-3.056-4.194-2.048z"></path><path fill="#F6AD4F" d="M38.049 10.65c.244.297.56.6.97.916 1.162.896 2.362.978 2.923.982l-2.682-1.31-1.211-.588z"></path><path fill="#F6AD4F" d="M43.988 7.115v-.011l-.01.006-6.268 3.056c.093.16.204.322.339.484l1.211.589 2.696 1.31.232-.002c.31 0 1.341-.145 1.8-.269V7.115z"></path><path fill="#BFE1C8" d="M37.306 8.56c0 .176.011.348.034.517v-1.01a3.791 3.791 0 0 0-.034.493z"></path><path fill="#F69F9E" d="M50.595 36.253v-.033l.018-.008.035.017.03-.015v-.017l-.06-.029-.023-.011-6.457-3.134v6.378l2.449-1.193z"></path><path fill="#F39F9F" d="M54.74 44.7l-4.127-2.015-.018.008v6.456l.018.008 4.126-2.022z"></path><path fill="#EDEA65" d="M50.59 42.688l.005.003v-.006zM50.595 42.708l-6.457 3.165v.106l6.457 3.137z"></path><path fill="#F6AD4F" d="M54.74 47.163l-4.103 2 6.607 3.21v-3.33c-.858.113-1.692.214-2.505.303v-2.183z"></path><path fill="#A12F51" d="M44.138 46.01v6.297l6.45-3.147z"></path><path fill="#A23151" d="M57.202 58.848l-6.59-3.217-.017.008v4.018c2.087-.213 4.255-.457 6.505-.733l.102-.05v-.026z"></path><path fill="#F39F9F" d="M57.202 52.401l-6.541 3.206 6.583 3.198v-6.432l-.042.02z"></path><path fill="#A13051" d="M57.202 52.394v-.019l-6.59-3.218-.017.01V55.621l.018.008.048-.023L57.2 52.4z"></path><path fill="#B47542" d="M50.595 55.59v-6.433l-.006.003-6.451 3.147v.135l3.991 1.95z"></path><path fill="#87D2CE" d="M50.595 55.595l-2.466-1.204-3.991-1.949v1.72c.088 1.19.906 2.66.906 2.66.207.377.497.746.855 1.092l4.696-2.302v-.017z"></path><path fill="#EDEA65" d="M50.595 55.63l-4.692 2.289c.875.84 2.17 1.535 3.78 1.81h.195l.717-.072V55.63z"></path><path fill="#83F29B" d="M60.049 57.505l-2.738 1.341-.007-.003-.02.01.08.038c.233-.03.466-.057.7-.087a71.475 71.475 0 0 0 5.828-.97V55.63l-3.843 1.874z"></path><path fill="#EDEA65" d="M63.892 55.59l-6.6-3.207-.007.003v6.448l.02.009.007.003 2.737-1.341 3.843-1.884v-.014z"></path><path fill="#F69F9E" d="M63.892 55.587v-6.43l-3.79 1.85-2.79 1.366-.007-.003-.02.01.007.003 6.6 3.206z"></path><path fill="#EC1838" d="M50.595 42.684v-6.431l-4.008 1.955-2.45 1.194v.135l3.969 1.938z"></path><path fill="#C7DD8A" d="M50.613 42.685l4.126-2.023v-2.435l-4.09-1.998-.036-.017-.018.008v6.456l.017.009zM50.595 42.693v-.002l-.006-.003-2.483-1.213-3.968-1.938v6.336l6.457-3.165z"></path><path fill="#A23151" d="M60.101 51.006l3.79-1.858v-.031l-1.735-.844c-.736.145-1.48.279-2.236.392-.9.135-1.78.26-2.635.372v3.324l.02.009.006.003 2.79-1.367z"></path><path fill="#F6AD4F" d="M63.892 47.9c-.571.136-1.152.257-1.736.373l1.736.844V47.9z"></path><path fill="#C7DD8A" d="M54.74 44.684V40.69l-4.103 2zM77.141 37.953v4.47l-2.106-1.016-.043.055 2.138 1.044.012-.005v.128l.006.003v-4.691a.147.147 0 0 0-.007.012z"></path><path fill="#B47542" d="M70.54 45.793l.033-.016-.033-.016zM70.584 45.777l.09.044.054-.026-.091-.044zM77.141 42.687l.006-.003V42.632l-.006-.003z"></path><path fill="#F6AD4F" d="M77.141 42.687v6.204l-6.413-3.096-.054.026 6.456 3.153.011-.006V49.072l.006.003v-6.39z"></path><path fill="#87D2CE" d="M70.715 52.31l4.064 1.983.077-.037-4.087-1.973-.054.026zM77.141 49.16v3.843l.006-.004v-3.842l-.006.003z"></path><path fill="#806D9A" d="M70.54 52.26l.033-.015-.033-.016zM70.715 52.31l.054-.027-.133-.064-.052.026zM77.147 49.157v-.052l-.006-.002v.057z"></path><path fill="#C7DD8A" d="M65.987 48.148l-2.042 1 6.59 3.181v-.065l.005-.003v-.032l-.005-.003v-6.281z"></path><path fill="#BFE1C8" d="M63.927 55.63l-.035-.017V57.833c.858-.18 1.71-.373 2.555-.583.193-.048.383-.1.575-.15l-3.053-1.491-.042.021z"></path><path fill="#F39F9F" d="M70.499 52.393v.016l-6.511 3.192 3.081 1.487a46.725 46.725 0 0 0 3.466-1.058v-3.654l-.036.017z"></path><path fill="#ED473E" d="M63.927 49.157l-.035.018V55.614l.035.016.042-.02.019-.01 6.51-3.19v-.043z"></path><path fill="#BFE1C8" d="M70.499 45.894l-.372-.182c-.054.028-.107.058-.162.084a26.336 26.336 0 0 1-4.773 1.778c-.43.115-.863.223-1.3.327v1.239l.035.017.019-.008 2.041-1.001 4.512-2.211v-.043zM70.535 45.758V45.5c-.117.064-.236.125-.355.186l.355.171v-.06l.005-.003v-.032l-.005-.003z"></path><path fill="#87D2CE" d="M83.763 45.768l.018.01.005-.003.005.002.04-.02-.037-.018v.014zM83.794 39.325l-.034.017v6.351l.03.015 1.362-.664a28.193 28.193 0 0 0 2.175-4.008l-3.533-1.725v.014z"></path><path fill="#83F29B" d="M83.794 45.71v.03l.038.018.626.304c.24-.335.47-.675.694-1.018l-1.362.664.004.002z"></path><path fill="#EDEA65" d="M83.786 45.775l-.005.002-.02.01v1.205c.23-.296.456-.596.675-.9l-.644-.315-.006-.002z"></path><path fill="#A23151" d="M87.345 40.996c.12-.27.236-.544.348-.82a31.533 31.533 0 0 0 1.137-3.336l-4.998 2.45 3.513 1.706z"></path><path fill="#D45371" d="M83.794 26.376v.014l-.034.017v6.39l.03.016 6.127-2.988c.005-.15.01-.302.013-.453l-5.882-2.873-.254-.123z"></path><path fill="#88D2CF" d="M83.791 19.907l-.005.002-.005-.002-.007.003.02.01v.042l-.034.017v6.351l.03.015 5.702-2.78a29.94 29.94 0 0 0-.182-.964l-5.291-2.583-.228-.111z"></path><path fill="#F6AD4F" d="M83.794 26.347v.029l.254.123 5.882 2.858c.003-.188.006-.375.006-.563 0-1.778-.149-3.522-.444-5.23l-5.702 2.781.004.002z"></path><path fill="#ED473E" d="M83.794 32.814v.03l.224.108 5.162 2.509c.426-1.855.671-3.734.736-5.636l-6.126 2.987.004.002z"></path><path fill="#BFE1C8" d="M83.794 32.843v.014l-.034.017v6.391l.034.017v.027l.038-.02 4.998-2.449c.127-.454.243-.91.348-1.368l-5.16-2.52-.224-.109z"></path><path fill="#D55274" d="M83.791 19.907l.229.11 5.288 2.57a29.748 29.748 0 0 0-1.388-4.703l-4.129 2.023z"></path><path fill="#87D2CE" d="M83.919 13.502l-.132.063-.027-.013v6.345l.02.01.006.002.005-.002 4.128-2.023-.03-.082a28.342 28.342 0 0 0-1.399-3.045l-2.382-1.163-.19-.092z"></path><path fill="#D45371" d="M83.919 13.502l.189.092 2.378 1.155a26.911 26.911 0 0 0-1.14-1.939l-1.427.692z"></path><path fill="#87D2CE" d="M83.76 13.406v-2.798a27.159 27.159 0 0 0-2.24-2.47l-4.292 2.094 6.532 3.174z"></path><path fill="#F6AD4F" d="M77.141 16.67v-.029l-1.457-.711-1.496-.723a16.123 16.123 0 0 1 1.793 2.025l1.16-.562z"></path><path fill="#F6AD4F" d="M77.141 16.795v-.125l-1.16.562c.427.574.814 1.174 1.16 1.801v-2.238z"></path><path fill="#87D2CE" d="M70.54 7.027l-.005.003v5.519c.285.158.564.32.836.49l5.77-2.796v-.03L70.642 7.04l-.064-.031-.038.018z"></path><path fill="#F6AD4F" d="M71.37 13.039a17.1 17.1 0 0 1 2.818 2.169l1.496.722 1.457.703V10.242l-5.77 2.797z"></path><path fill="#EC1C3C" d="M77.141 42.5l-.011.006.011.006zM77.141 42.63v-.067l-6.504 3.188.09.044 6.414 3.096v-6.204z"></path><path fill="#EF6B5A" d="M77.141 42.563v-.051l-.011-.006-2.138-1.044c-.392.519-.81 1.023-1.256 1.513-.898 1-1.964 1.843-3.202 2.524v.26l.006.002.033.016.005-.002.006.002.053-.026 6.504-3.188z"></path><path fill="#B47542" d="M70.674 45.821l-.09-.044-.006-.002-.005.002-.033.016-.005.003v6.374l6.595-3.196z"></path><path fill="#B47542" d="M70.54 52.229l.033.016.005-.003.006.003.052-.026-.101-.05v.057z"></path><path fill="#87D2CE" d="M77.141 49.16v-.191l-.011.005-6.595 3.196.102.049.132.064 4.088 1.973c.786-.38 1.548-.797 2.285-1.253V49.16z"></path><path fill="#88D2CF" d="M77.141 37.953a20.742 20.742 0 0 1-2.106 3.454l2.106 1.017v-4.471z"></path><path fill="#EC1C3C" d="M70.584 52.245l-.006-.003-.005.003-.033.016-.006.003v3.766a44.894 44.894 0 0 0 3.758-1.504c.164-.075.324-.155.486-.233l-4.063-1.984-.131-.064z"></path><path fill="#A13051" d="M77.187 16.699l.03.014.005-.003.006.003.037-.019-.078-.037zM83.754 13.514l.006-.003v-.076l-6.538-3.193-.035.018v6.358l6.567-3.182z"></path><path fill="#806D9A" d="M77.222 16.71l-.005.003-.03.014v2.39c.364.668.683 1.365.956 2.094.15.401.286.806.409 1.213l5.202-2.52v.078l.006-.003.034-.017v-.043l-.02-.01-6.546-3.196-.006-.003z"></path><path fill="#C7DD8A" d="M77.265 16.694l6.489 3.133v-6.391l-6.567 3.182-.04.02.04.019z"></path><path fill="#ED473E" d="M83.76 13.435V13.552l.027.013.132-.063 1.428-.692a26.682 26.682 0 0 0-1.587-2.202v2.828z"></path><path fill="#ED473C" d="M78.948 23.974l4.806 2.32V19.905l-5.202 2.52c.154.512.285 1.029.396 1.55z"></path><path fill="#BFE1C8" d="M83.754 45.697l-6.53-3.152h-.001l-.036-.016v6.387l6.567-3.181v.038l.009-.005.031-.015v-.044l-.004-.001-.03-.015-.006-.003zM77.217 48.971h.002l-.032-.016v.002z"></path><path fill="#F39F9F" d="M83.754 45.735l-6.567 3.181-.04.02.04.019.032.015.003-.002.636.31 2.609 1.26c.201-.176.402-.353.598-.536A29.864 29.864 0 0 0 83.754 47V45.735z"></path><path fill="#EDEA65" d="M79.37 28.04c0 .14-.002.28-.005.418l4.389-2.126v.078l.006-.003.034-.017V26.347l-.004-.002-.03-.014-4.81-2.35c.28 1.322.42 2.675.42 4.06z"></path><path fill="#806D9A" d="M77.187 42.528v-.04l-.04.02zM83.754 45.69v-6.345l-6.53 3.2 6.53 3.152z"></path><path fill="#ED473E" d="M77.222 48.968l-.003.002-.002.001-.03.015v3.988a24.937 24.937 0 0 0 3.27-2.426l-2.599-1.269-.636-.31z"></path><path fill="#87D2CE" d="M79.236 30.541l4.518 2.181v-6.391l-4.388 2.127c-.013.7-.056 1.394-.13 2.083z"></path><path fill="#C7DD8A" d="M78.115 35.571l5.639-2.732v.038l.006-.003.034-.017v-.044h-.004l-.03-.016-4.529-2.211a23.156 23.156 0 0 1-1.116 4.985z"></path><path fill="#F6AD4F" d="M77.826 36.368a20.914 20.914 0 0 1-.639 1.49v4.671l.036.017h.001l6.53-3.2.006-.004.034-.017v-.043l-.034-.017-5.896-2.879-.038-.018z"></path><path fill="#D45371" d="M77.962 36.009c-.044.12-.09.24-.136.36l.038.018 5.89 2.843V32.84l-5.639 2.732c-.05.145-.1.29-.153.437z"></path><path fill="#C7DD8A" d="M70.78 6.974l6.362 3.072v-5.33c-.288-.18-.582-.355-.88-.528l-5.584 2.737.101.049z"></path><path fill="#B47542" d="M70.535 6.953l.005.003.038.018.1-.048 5.584-2.737a31.578 31.578 0 0 0-3.772-1.854 28.06 28.06 0 0 0-1.955-.72v5.338z"></path><path fill="#A13051" d="M77.223 10.208l4.271-2.094a26.37 26.37 0 0 0-4.307-3.368v5.445l.036.017z"></path><path fill="#000" fill-rule="nonzero" d="M5.794 92.756H0V79.203h5.773c4.33 0 7.443 2.56 7.443 6.766 0 4.207-3.113 6.787-7.422 6.787zm-.02-3.048c2.411 0 3.813-1.727 3.813-3.739 0-2.092-1.278-3.718-3.793-3.718H3.546v7.457h2.227zM23.413 93c-4.413 0-6.516-2.398-6.516-5.73v-8.067h3.609v7.945c0 1.605.99 2.763 2.907 2.763 1.897 0 2.886-1.158 2.886-2.763v-7.945h3.588v8.046c0 3.374-2.062 5.751-6.474 5.751zm18.898-.244h-8.041V79.203h7.794c2.742 0 4.02 1.748 4.02 3.454 0 1.687-1.052 2.825-2.35 3.11 1.464.223 2.618 1.604 2.618 3.311 0 1.971-1.34 3.678-4.04 3.678zm-1.051-8.392c.721 0 1.216-.386 1.216-1.056 0-.65-.495-1.057-1.216-1.057h-3.444v2.113h3.444zm.123 5.344c.846 0 1.361-.427 1.361-1.158 0-.67-.495-1.138-1.36-1.138h-3.568v2.296h3.567zM55.314 93c-2.784 0-4.722-.874-6.104-2.154l1.877-2.723a6.274 6.274 0 0 0 4.412 1.788c1.196 0 1.938-.406 1.938-1.076 0-1.789-7.773-.305-7.773-5.527 0-2.276 1.938-4.308 5.464-4.308 2.206 0 4.123.65 5.587 1.89l-1.938 2.62c-1.154-.954-2.66-1.421-4.02-1.421-1.031 0-1.485.345-1.485.934 0 1.666 7.773.407 7.773 5.446 0 2.723-2.04 4.531-5.732 4.531zm24.898-.244h-3.546v-8.96l-3.464 8.96h-1.567l-3.484-8.96v8.96h-3.547V79.203h4.928l2.886 7.478 2.866-7.478h4.928v13.553zm17.744 0h-4.02l-.681-1.95h-5.423l-.68 1.95H83.13l5.175-13.553h4.474l5.176 13.553zm-5.67-4.998l-1.732-5.1-1.753 5.1h3.484zM105.905 93c-2.784 0-4.722-.874-6.103-2.154l1.876-2.723a6.274 6.274 0 0 0 4.412 1.788c1.196 0 1.938-.406 1.938-1.076 0-1.789-7.773-.305-7.773-5.527 0-2.276 1.938-4.308 5.464-4.308 2.206 0 4.124.65 5.588 1.89l-1.939 2.62c-1.154-.954-2.66-1.421-4.02-1.421-1.031 0-1.485.345-1.485.934 0 1.666 7.773.407 7.773 5.446 0 2.723-2.04 4.531-5.731 4.531zM128 92.756h-3.547v-5.445h-5.71v5.445h-3.547V79.203h3.546v5.06h5.711v-5.06H128v13.553z"></path></g></svg>
