<?xml version="1.0" standalone="no"?>
<!DOCTYPE svg PUBLIC "-//W3C//DTD SVG 20010904//EN"
 "http://www.w3.org/TR/2001/REC-SVG-20010904/DTD/svg10.dtd">
<svg version="1.0" xmlns="http://www.w3.org/2000/svg"
 width="896.000000pt" height="250.000000pt" viewBox="0 0 896.000000 250.000000"
 preserveAspectRatio="xMidYMid meet">
<metadata>
Created by potrace 1.15, written by Peter Selinger 2001-2017
</metadata>
<g transform="translate(0.000000,250.000000) scale(0.100000,-0.100000)"
fill="#000000" stroke="none">
<path d="M898 2068 c-2 -4 -24 -9 -50 -10 -27 -2 -48 -6 -48 -10 0 -5 -8 -8
-18 -8 -10 0 -50 -16 -90 -35 -40 -19 -72 -31 -72 -28 0 4 -7 -2 -15 -13 -8
-10 -15 -15 -15 -10 0 4 -9 -2 -21 -15 -11 -13 -17 -17 -14 -9 4 8 -12 -5 -35
-30 -23 -25 -36 -36 -29 -25 7 11 -13 -5 -44 -35 -57 -55 -72 -73 -39 -50 9 7
1 -2 -18 -21 -19 -18 -35 -37 -35 -41 0 -4 -9 -14 -20 -23 -11 -9 -13 -14 -5
-10 10 4 9 2 -2 -8 -10 -8 -15 -17 -12 -20 3 -3 -4 -10 -15 -17 -12 -6 -20
-16 -19 -23 4 -17 -23 -77 -34 -77 -5 0 -6 -4 -3 -10 3 -5 2 -10 -4 -10 -6 0
-8 -7 -5 -15 4 -8 1 -15 -5 -15 -6 0 -8 -7 -5 -15 4 -8 2 -15 -4 -15 -5 0 -10
-6 -9 -12 1 -41 -4 -68 -13 -63 -6 4 -7 -6 -4 -25 4 -16 3 -30 -2 -30 -5 0 -9
-40 -9 -90 0 -49 4 -90 9 -90 4 0 6 -13 4 -30 -3 -16 0 -30 5 -30 5 0 7 -9 4
-20 -3 -11 -1 -20 5 -20 6 0 8 -7 4 -15 -3 -8 -1 -15 5 -15 6 0 9 -6 6 -14 -3
-8 -2 -16 2 -18 7 -3 50 -91 50 -104 0 -3 10 -14 23 -25 13 -11 16 -17 8 -13
-8 4 3 -10 26 -32 22 -21 31 -32 20 -24 -12 8 -5 -2 13 -23 37 -39 52 -49 31
-19 -7 9 5 -1 25 -23 21 -22 35 -33 31 -25 -4 8 0 6 8 -4 9 -11 16 -16 16 -10
0 5 7 0 16 -11 8 -11 17 -19 19 -17 12 6 25 1 41 -16 10 -9 29 -18 42 -19 14
-1 28 -6 31 -10 3 -4 21 -9 40 -10 19 -1 37 -6 40 -10 8 -11 251 -10 251 1 0
4 9 6 20 3 11 -3 20 -1 20 5 0 5 9 6 20 3 12 -4 20 -2 20 5 0 6 4 9 9 6 5 -4
11 -3 13 1 3 8 88 51 98 50 3 0 18 11 34 26 15 14 31 25 35 24 4 -1 20 12 35
28 15 17 24 23 20 15 -4 -8 10 3 31 25 21 22 54 55 74 74 20 18 27 28 16 21
-11 -7 -2 5 20 25 22 21 34 35 26 30 -9 -5 -7 1 4 19 10 14 22 26 28 26 6 0 7
3 4 6 -7 7 33 87 46 92 4 2 5 8 1 13 -3 5 -1 9 5 9 6 0 8 7 5 15 -4 8 -1 15 5
15 6 0 8 7 5 15 -4 8 -2 15 2 15 5 0 10 17 12 38 1 20 6 38 10 40 5 1 6 16 4
32 -3 18 0 30 7 30 6 0 11 14 11 31 0 16 -4 28 -9 25 -4 -3 -157 -6 -338 -6
l-330 -1 -38 -40 c-22 -21 -35 -39 -30 -39 4 0 0 -9 -10 -20 -10 -11 -22 -17
-28 -13 -6 3 -7 1 -3 -6 4 -6 0 -14 -8 -17 -13 -5 -16 -23 -16 -85 l0 -79 260
0 c143 0 260 -4 260 -8 0 -5 -12 -19 -27 -33 -14 -13 -23 -17 -19 -9 4 8 -2 4
-13 -10 -11 -14 -21 -21 -21 -16 0 6 -6 1 -14 -10 -8 -10 -18 -16 -21 -12 -4
4 -14 0 -22 -8 -9 -8 -23 -12 -34 -9 -11 4 -19 2 -19 -5 0 -6 -10 -8 -25 -4
-16 4 -25 2 -25 -5 0 -8 -14 -9 -42 -5 -30 5 -39 4 -34 -4 5 -8 0 -12 -13 -12
-12 0 -21 5 -21 11 0 8 -15 10 -45 7 -25 -3 -45 -1 -45 4 0 5 -9 6 -20 3 -11
-4 -20 -2 -20 4 0 6 -7 8 -15 5 -8 -4 -15 -1 -15 5 0 6 -3 10 -7 10 -24 -4
-43 4 -68 29 -16 15 -25 20 -21 12 5 -8 -9 3 -30 26 -22 22 -30 29 -19 15 16
-21 17 -23 2 -12 -22 17 -87 98 -70 88 9 -6 11 -3 7 7 -3 9 -10 14 -14 11 -10
-6 -36 55 -32 74 2 7 -1 10 -7 6 -7 -3 -8 0 -5 9 4 9 1 16 -6 16 -7 0 -10 6
-7 14 3 8 1 16 -6 19 -17 5 -17 259 0 264 7 3 9 11 6 19 -3 8 0 14 7 14 6 0 9
4 5 9 -3 5 2 17 11 25 8 9 13 16 10 16 -4 0 17 22 45 50 28 27 55 47 60 44 5
-3 9 0 9 6 0 7 8 9 21 5 16 -5 19 -4 14 5 -6 10 -1 12 23 7 19 -4 32 -2 32 3
0 6 29 10 65 10 40 0 65 -4 65 -11 0 -7 11 -8 30 -4 20 4 30 3 30 -5 0 -7 8
-9 20 -5 11 4 20 2 20 -4 0 -6 7 -8 15 -5 8 4 15 2 15 -3 0 -5 6 -10 13 -10
23 0 103 -42 133 -70 16 -15 37 -28 47 -28 10 -1 44 28 83 71 36 41 70 73 76
71 6 -1 12 9 14 23 3 13 9 27 15 31 15 9 -111 83 -185 109 -105 36 -205 52
-280 45 -226 -21 -395 -153 -463 -359 -52 -160 -29 -362 56 -495 174 -271 584
-323 801 -102 55 56 112 155 125 218 l7 33 -239 2 -238 3 0 30 0 30 265 3
c146 1 270 0 277 -2 19 -8 -11 -119 -58 -215 -113 -230 -362 -343 -630 -287
-124 27 -259 110 -336 207 -77 97 -133 263 -133 391 0 79 26 183 63 263 99
208 317 345 548 345 118 0 276 -46 380 -110 64 -39 88 -31 60 20 -10 19 -25
35 -32 35 -21 1 -99 38 -99 47 0 4 -3 7 -7 6 -14 -3 -153 36 -153 44 0 4 -16
4 -35 1 -20 -3 -35 -1 -35 4 0 12 -158 13 -162 1z"/>
<path d="M3025 1990 c-49 -49 -86 -90 -81 -90 5 0 1 -9 -9 -20 -10 -11 -21
-18 -24 -15 -4 2 -8 -6 -8 -17 -1 -12 -6 -24 -10 -27 -4 -3 -10 -15 -11 -26
-2 -11 -7 -22 -10 -25 -4 -3 -9 -14 -10 -25 -2 -11 -7 -22 -10 -25 -4 -3 -9
-14 -10 -25 -2 -11 -7 -22 -10 -25 -4 -3 -9 -14 -10 -25 -2 -11 -7 -22 -10
-25 -4 -3 -9 -14 -10 -25 -2 -11 -7 -22 -10 -25 -4 -3 -9 -14 -10 -25 -2 -11
-7 -22 -10 -25 -4 -3 -9 -14 -10 -25 -2 -11 -8 -22 -13 -23 -5 -2 -7 -8 -3
-13 3 -5 0 -9 -6 -9 -7 0 -9 -7 -6 -16 3 -8 2 -13 -3 -10 -5 3 -8 -6 -8 -20 0
-15 -4 -29 -9 -33 -5 -3 -11 -15 -12 -26 -2 -11 -7 -22 -10 -25 -4 -3 -9 -14
-10 -25 -2 -11 -7 -22 -10 -25 -4 -3 -9 -14 -10 -25 -2 -11 -8 -23 -14 -26 -5
-3 -9 -10 -8 -15 2 -14 -22 -84 -29 -84 -4 0 -7 -10 -8 -22 -1 -11 -6 -24 -10
-27 -4 -3 -10 -15 -11 -26 -2 -11 -7 -22 -10 -25 -4 -3 -9 -14 -10 -25 -2 -11
-7 -22 -10 -25 -4 -3 -9 -14 -10 -25 -2 -11 -7 -22 -10 -25 -4 -3 -9 -14 -10
-25 -2 -11 -7 -22 -10 -25 -4 -3 -9 -14 -10 -25 -2 -11 -7 -22 -10 -25 -4 -3
-9 -14 -10 -25 -2 -11 -7 -22 -10 -25 -4 -3 -9 -14 -10 -25 -2 -11 -7 -22 -10
-25 -4 -3 -9 -14 -10 -25 -2 -11 -7 -22 -10 -25 -4 -3 -8 -15 -10 -28 -3 -23
-3 -23 111 -21 l115 1 68 72 69 71 -70 -65 -71 -65 76 76 c41 42 75 81 76 85
0 5 4 21 8 37 l8 27 223 0 c220 0 260 -3 249 -21 -3 -5 0 -9 6 -9 7 0 10 -6 7
-14 -3 -8 -1 -16 4 -18 5 -2 11 -13 12 -26 0 -12 5 -22 10 -22 5 0 7 -7 3 -15
-3 -8 -2 -15 2 -15 5 0 16 -22 26 -49 l17 -49 75 -4 75 -3 79 80 c63 63 78 83
68 93 -7 7 -8 12 -2 12 5 0 3 4 -4 9 -7 4 -14 18 -15 29 -1 12 -5 22 -10 22
-5 0 -7 6 -5 12 3 7 -2 19 -9 27 -8 7 -12 19 -9 27 3 7 1 14 -4 16 -4 2 -10
12 -12 23 -1 11 -6 22 -10 25 -3 3 -8 14 -10 25 -1 11 -7 23 -11 26 -4 3 -9
16 -10 27 -1 12 -5 22 -10 22 -5 0 -7 6 -4 14 3 8 2 16 -3 18 -4 2 -10 12 -12
23 -1 11 -7 23 -11 26 -4 3 -9 16 -10 27 -1 12 -5 22 -10 22 -5 0 -7 7 -3 15
3 8 1 15 -4 15 -5 0 -6 7 -3 17 5 12 3 14 -7 8 -10 -6 -12 -4 -7 8 3 9 2 17
-3 19 -4 2 -10 12 -12 23 -1 11 -7 23 -11 26 -4 3 -9 16 -10 27 -1 12 -4 22
-8 22 -7 0 -22 44 -23 65 -1 6 -4 12 -8 15 -3 3 -8 14 -10 25 -1 11 -7 23 -11
26 -4 3 -9 16 -10 27 -1 12 -5 22 -10 22 -5 0 -7 6 -4 14 3 8 2 16 -3 18 -4 2
-10 12 -12 23 -1 11 -7 23 -11 26 -4 3 -9 16 -10 27 -1 12 -4 22 -8 22 -7 0
-22 44 -23 65 -1 6 -4 12 -8 15 -3 3 -8 14 -10 25 -1 11 -6 22 -10 25 -3 3 -8
14 -10 25 -1 11 -7 23 -11 26 -4 3 -9 16 -10 27 -1 12 -5 22 -10 22 -5 0 -7 6
-4 14 3 8 1 16 -5 18 -6 2 -10 16 -10 31 0 15 -4 24 -9 21 -5 -3 -6 2 -3 10 3
9 1 16 -5 16 -6 0 -10 6 -8 13 1 7 -10 13 -28 15 -26 2 -42 -9 -120 -88z m130
-17 c4 -10 24 -63 45 -118 45 -119 375 -982 385 -1007 6 -15 1 -18 -28 -18
l-34 0 -37 98 c-20 53 -40 105 -44 115 -7 16 -29 18 -307 18 l-300 0 -42 -112
c-23 -61 -44 -114 -47 -116 -2 -2 -18 -3 -34 -1 l-30 3 179 455 c98 250 200
510 226 577 27 67 51 123 54 123 4 0 10 -8 14 -17z"/>
<path d="M3000 1479 c-74 -188 -136 -345 -138 -350 -2 -5 115 -9 273 -9 217 0
276 3 273 13 -55 152 -262 687 -267 687 -3 -1 -67 -154 -141 -341z m55 -18
c-3 -5 -1 -12 5 -16 6 -4 8 -11 5 -16 -4 -5 -2 -9 4 -9 9 0 27 -56 23 -72 -1
-5 2 -8 7 -8 9 0 27 -57 23 -72 -1 -5 3 -8 9 -8 6 0 8 -9 4 -21 -5 -14 -4 -19
4 -15 7 5 9 1 5 -8 -3 -9 -2 -16 3 -16 5 0 10 -7 10 -15 0 -12 -20 -15 -114
-15 -62 0 -113 2 -113 5 0 6 34 79 40 85 3 3 7 14 8 25 2 11 7 22 10 25 4 3 9
14 10 25 2 11 7 22 10 25 4 3 9 14 10 25 2 11 8 23 14 26 5 3 9 10 8 15 -2 15
8 44 15 44 3 0 4 -4 0 -9z"/>
<path d="M5890 2067 c0 -5 -13 -7 -29 -4 -16 4 -31 2 -33 -3 -2 -5 -16 -10
-33 -12 -16 -2 -32 -6 -35 -10 -3 -3 -14 -8 -25 -10 -11 -1 -22 -5 -25 -8 -11
-11 -90 -48 -85 -39 4 5 -1 6 -9 3 -9 -3 -14 -10 -11 -14 4 -7 -18 -22 -36
-24 -4 -1 -17 -12 -29 -26 -12 -14 -19 -18 -15 -10 4 8 -11 -5 -33 -29 -21
-24 -59 -62 -83 -84 -24 -22 -35 -33 -24 -26 20 13 20 13 1 -8 -10 -13 -22
-21 -25 -18 -4 2 -13 -5 -20 -17 -10 -16 -10 -19 1 -12 7 4 -2 -6 -19 -23 -32
-30 -44 -51 -22 -38 6 4 5 -2 -3 -14 -7 -12 -16 -21 -20 -21 -12 0 -31 -42
-35 -75 -2 -16 -7 -31 -13 -33 -5 -2 -6 -10 -3 -18 3 -8 0 -14 -6 -14 -6 0 -8
-7 -5 -15 4 -8 2 -15 -2 -15 -5 0 -10 -19 -11 -42 -2 -23 -6 -44 -10 -47 -11
-8 -10 -221 1 -221 4 0 6 -11 4 -25 -3 -13 -1 -26 4 -27 4 -2 9 -18 11 -36 1
-17 5 -32 8 -32 7 0 23 -50 21 -62 -1 -5 3 -8 9 -8 5 0 7 -4 4 -10 -3 -5 -1
-10 5 -10 6 0 9 -4 6 -9 -3 -5 1 -12 10 -15 9 -4 14 -9 11 -13 -4 -3 1 -12 11
-20 10 -9 11 -12 2 -7 -8 4 6 -12 32 -35 26 -23 64 -61 84 -84 20 -23 33 -35
29 -27 -8 15 32 -15 46 -33 3 -5 9 -9 12 -8 4 0 32 -11 62 -24 31 -14 60 -25
65 -25 6 0 10 -4 10 -10 0 -5 7 -7 15 -4 8 4 15 1 15 -5 0 -6 11 -8 30 -4 17
3 30 2 30 -3 0 -10 213 -10 228 0 6 3 17 3 26 0 9 -4 16 -1 16 6 0 7 7 10 17
6 9 -4 19 -2 22 3 3 5 15 11 26 13 11 1 22 6 25 9 10 12 90 49 90 42 0 -5 5 0
11 10 6 9 14 15 19 12 4 -3 11 2 14 11 3 8 10 13 15 9 6 -3 15 4 21 15 6 11
14 19 18 18 4 -2 41 31 82 72 41 41 66 69 55 61 -11 -7 -4 1 15 20 19 18 34
36 33 40 -1 3 11 20 26 37 16 17 27 33 24 36 -3 2 5 9 16 16 12 6 20 16 19 23
-3 15 22 77 31 77 4 0 7 10 8 22 1 11 7 24 14 28 6 5 8 13 4 20 -6 9 -4 11 5
5 10 -6 11 -2 6 19 -4 15 -2 26 4 26 6 0 8 10 4 25 -3 14 -2 25 2 25 5 0 9 43
9 95 0 52 -4 95 -8 95 -5 0 -6 14 -2 30 4 20 3 30 -5 30 -7 0 -9 7 -6 17 4 9
1 20 -5 24 -6 4 -11 18 -11 33 0 14 -5 26 -10 26 -5 0 -6 5 -3 11 4 6 -2 19
-14 30 -19 18 -22 26 -20 45 0 3 -8 12 -18 20 -10 7 -14 14 -9 14 4 0 -2 9
-15 21 -13 11 -17 17 -9 13 8 -4 -1 8 -21 27 -19 19 -26 27 -15 19 12 -8 5 2
-13 23 -37 39 -52 49 -31 20 7 -10 -1 -4 -18 14 -17 17 -33 29 -36 26 -3 -3
-8 2 -12 11 -3 9 -10 14 -15 11 -4 -3 -13 4 -19 15 -6 11 -17 19 -23 18 -12
-3 -96 30 -107 42 -3 3 -18 6 -35 8 -16 2 -31 7 -33 12 -2 5 -19 6 -38 3 -19
-3 -34 -1 -34 4 0 5 -36 10 -80 10 -47 0 -80 -4 -80 -10z m220 -63 c216 -51
389 -219 445 -434 23 -86 23 -235 1 -319 -52 -195 -207 -360 -396 -421 -63
-21 -94 -25 -195 -25 -105 1 -129 4 -195 28 -143 52 -273 165 -335 292 -60
122 -81 306 -50 430 54 214 225 388 435 444 91 24 202 26 290 5z"/>
<path d="M5860 1945 c-102 -23 -187 -70 -260 -144 -77 -78 -113 -142 -140
-247 -35 -135 -18 -289 44 -413 63 -123 206 -232 347 -266 278 -65 562 105
634 380 31 119 13 308 -37 410 -105 212 -358 332 -588 280z m60 -186 c0 -5 8
-8 18 -7 38 3 63 -2 57 -13 -4 -6 -1 -10 6 -8 29 3 50 -1 44 -11 -6 -9 8 -14
28 -11 4 0 7 -3 7 -9 0 -5 3 -9 8 -8 15 4 141 -133 135 -148 -3 -7 2 -16 10
-20 9 -3 13 -12 10 -20 -3 -7 2 -17 12 -20 9 -4 14 -13 11 -20 -3 -8 -1 -14 5
-14 6 0 8 -9 4 -21 -5 -16 -4 -19 5 -14 10 6 12 0 7 -24 -4 -18 -3 -30 1 -27
4 2 8 -44 7 -104 0 -59 -4 -106 -9 -103 -4 3 -5 -4 -1 -16 4 -13 2 -21 -5 -21
-7 0 -10 -7 -6 -15 3 -8 1 -15 -5 -15 -6 0 -7 -4 -4 -10 3 -5 -3 -17 -14 -27
-11 -9 -18 -20 -15 -24 7 -12 -77 -78 -92 -72 -8 3 -17 -2 -20 -11 -4 -11 -13
-14 -25 -11 -11 4 -19 2 -19 -5 0 -6 -10 -8 -25 -4 -15 4 -25 2 -25 -5 0 -6
-17 -11 -40 -11 -23 0 -40 5 -40 11 0 8 -14 10 -45 6 -26 -4 -45 -3 -45 3 0 5
-7 7 -15 4 -8 -4 -15 -2 -15 4 0 5 -11 10 -25 10 -14 0 -32 7 -39 17 -7 10
-18 15 -24 11 -6 -3 -25 9 -43 26 -18 18 -30 27 -25 21 13 -23 1 -14 -39 28
-22 23 -33 38 -25 33 8 -4 1 7 -17 24 -18 18 -30 39 -27 47 3 7 -4 23 -16 35
-11 11 -18 25 -15 30 4 6 1 10 -5 10 -7 0 -9 8 -5 20 4 12 2 20 -5 20 -7 0 -9
8 -5 20 3 11 3 20 -2 20 -4 0 -8 47 -8 105 0 58 3 105 7 105 3 0 4 9 1 20 -3
11 0 20 6 20 5 0 8 6 5 14 -3 7 2 16 11 20 10 4 15 12 11 22 -3 8 -2 12 4 9 9
-5 14 6 12 26 -1 3 15 21 35 40 20 19 33 27 29 19 -5 -9 -2 -8 7 2 8 10 17 15
20 11 4 -3 7 -1 7 6 0 7 5 9 10 6 6 -3 10 -1 10 5 0 7 7 10 15 6 8 -3 15 -1
15 5 0 7 12 8 30 4 17 -4 30 -2 30 3 0 6 33 10 75 10 41 0 75 -4 75 -9z"/>
<path d="M3914 2052 c-23 -2 -51 -24 -112 -85 l-82 -83 2 -629 3 -630 93 -5
92 -5 80 80 79 81 1 262 c1 164 5 260 11 257 5 -4 7 -11 4 -16 -4 -5 0 -12 8
-15 16 -6 83 -95 80 -106 -2 -4 6 -12 17 -18 11 -6 18 -15 15 -20 -3 -5 4 -14
15 -20 11 -6 18 -15 15 -20 -3 -5 4 -14 15 -20 11 -6 18 -15 15 -20 -3 -5 4
-14 15 -20 11 -6 19 -14 17 -19 -1 -5 9 -18 23 -30 14 -13 18 -20 10 -16 -8 4
-4 -3 10 -14 14 -11 21 -21 16 -21 -14 0 15 -30 30 -30 14 0 60 40 47 40 -5 0
1 7 12 16 11 8 20 19 20 24 0 5 9 16 20 25 11 9 13 14 5 10 -8 -4 -5 2 7 13
12 11 20 22 18 24 -3 3 12 22 32 44 21 21 31 35 23 30 -8 -4 -4 2 9 13 13 12
19 21 15 21 -5 0 0 7 11 16 11 8 20 18 20 22 0 4 13 19 28 35 16 15 25 31 22
37 -3 5 4 14 15 20 11 6 19 15 17 20 -1 5 7 16 18 25 11 9 13 13 5 9 -13 -7
-13 -5 -1 9 7 9 17 17 22 17 5 0 9 -164 9 -370 l0 -369 93 -3 92 -3 83 79 82
80 0 640 0 641 -40 -1 c-23 -1 -46 -8 -53 -16 -19 -23 -131 -103 -123 -87 4 8
0 5 -8 -5 -9 -11 -23 -21 -32 -22 -17 -3 -78 -62 -79 -76 0 -4 -9 -14 -20 -23
-11 -9 -13 -14 -5 -10 8 4 2 -6 -15 -20 -16 -15 -23 -24 -15 -20 8 3 2 -6 -15
-20 -16 -15 -23 -24 -15 -20 8 3 2 -6 -15 -20 -16 -15 -23 -24 -15 -20 8 4 1
-6 -16 -22 -17 -15 -37 -37 -45 -47 -12 -17 -12 -19 1 -12 8 4 6 0 -5 -9 -11
-9 -20 -20 -20 -26 0 -5 -7 -14 -15 -19 -8 -5 -15 -14 -15 -19 0 -6 -9 -17
-20 -26 -11 -9 -13 -14 -5 -10 8 4 2 -6 -15 -20 -16 -15 -23 -24 -15 -20 8 3
2 -6 -15 -20 -16 -15 -23 -24 -15 -19 10 5 9 0 -4 -14 -10 -12 -23 -19 -28
-16 -5 3 -7 8 -4 11 3 3 -5 14 -17 25 -12 11 -15 16 -7 12 13 -7 13 -5 1 12
-8 10 -28 32 -45 47 -17 16 -24 26 -16 22 8 -4 2 5 -15 20 -16 14 -23 23 -15
20 8 -4 2 5 -15 20 -16 14 -23 23 -15 20 8 -4 2 5 -15 20 -16 14 -23 23 -15
20 8 -4 2 5 -15 20 -16 14 -23 23 -15 19 8 -5 -2 9 -23 29 -21 21 -35 42 -32
47 3 5 -4 14 -15 20 -11 6 -19 14 -17 19 1 5 -9 18 -23 30 -14 13 -18 19 -10
15 8 -5 -2 9 -22 29 -21 21 -37 41 -36 45 1 4 -12 22 -29 41 -18 19 -30 38
-27 42 2 4 -5 13 -16 19 -11 6 -18 15 -15 20 8 12 -5 16 -41 12z m101 -177
c193 -270 479 -654 485 -650 3 2 125 168 271 369 145 201 267 365 272 365 4 1
7 -253 7 -564 l0 -565 -35 0 -35 0 -2 466 -3 466 -239 -327 c-218 -297 -241
-325 -253 -308 -8 10 -116 156 -241 325 l-227 308 -3 -465 -2 -465 -35 0 -35
0 0 565 c0 311 3 565 8 565 4 -1 34 -39 67 -85z"/>
<path d="M8279 2045 c-3 -2 -77 -5 -164 -5 l-160 -1 -77 -77 -78 -77 0 -632 0
-633 92 0 92 0 79 78 c80 77 80 77 78 125 -1 26 1 47 6 47 4 0 21 -14 36 -32
16 -18 26 -26 22 -18 -3 8 10 -3 30 -25 20 -22 34 -33 30 -25 -3 8 10 -3 30
-25 20 -22 34 -33 30 -25 -3 8 10 -3 30 -25 20 -22 34 -33 30 -25 -3 8 8 -1
26 -20 17 -19 28 -28 23 -20 -7 13 -5 13 8 2 12 -9 47 -13 115 -12 l98 2 57
56 c31 30 55 59 53 63 -3 4 2 12 10 19 18 15 19 36 3 46 -7 5 -9 2 -4 -7 4 -8
-7 2 -24 21 -17 19 -29 28 -25 20 4 -8 -8 1 -25 20 -17 19 -29 28 -25 20 4 -8
-8 1 -25 20 -17 19 -29 28 -25 20 4 -8 -8 1 -25 20 -17 19 -29 28 -25 20 4 -8
-8 1 -25 20 -17 19 -29 28 -25 20 3 -8 -8 1 -26 20 -17 19 -28 28 -24 20 4 -9
-1 -6 -13 5 -23 23 -32 49 -17 50 6 0 26 16 44 35 19 19 28 26 20 15 -7 -11
19 11 59 50 70 68 91 93 54 64 -10 -8 1 4 24 26 23 22 44 47 46 55 2 8 9 20
17 26 8 6 15 20 16 30 3 37 27 139 36 156 13 24 11 88 -2 88 -6 0 -9 12 -8 28
2 15 0 33 -4 40 -5 6 -6 16 -3 21 4 5 2 11 -4 13 -5 1 -12 18 -14 37 -2 19
-12 41 -22 48 -11 8 -19 18 -19 24 0 5 -7 14 -15 19 -8 5 -15 15 -15 22 0 7
-6 13 -13 13 -7 0 -24 14 -38 30 -14 17 -23 23 -19 15 4 -9 1 -8 -8 3 -9 10
-18 18 -22 17 -9 -3 -65 22 -65 29 0 3 -12 7 -27 8 -15 0 -29 6 -31 11 -1 5
-12 8 -22 5 -11 -3 -20 -1 -20 5 0 7 -14 9 -35 5 -23 -4 -35 -2 -35 6 0 11
-32 16 -41 6z m82 -65 c150 -28 278 -132 319 -259 45 -141 12 -297 -84 -395
-82 -84 -172 -123 -315 -135 l-74 -6 204 -164 c263 -211 243 -191 187 -191
-45 0 -52 5 -268 180 -122 99 -226 180 -231 180 -5 0 -9 -78 -9 -180 l0 -180
-35 0 -35 0 0 580 0 580 144 0 c79 0 168 -4 197 -10z"/>
<path d="M8090 1585 l0 -345 93 0 c228 1 373 74 426 216 28 74 30 181 6 255
-21 61 -90 141 -148 171 -59 30 -161 48 -274 48 l-103 0 0 -345z m170 143 c0
-5 7 -7 16 -4 10 4 13 2 8 -6 -5 -8 -2 -9 9 -5 9 3 23 -1 32 -9 8 -9 15 -12
15 -8 0 12 80 -76 81 -89 1 -7 1 -15 0 -19 0 -5 4 -8 10 -8 6 0 8 -9 4 -20 -4
-11 -2 -20 4 -20 6 0 11 -20 11 -45 0 -25 -4 -45 -8 -45 -5 0 -9 -13 -9 -29 0
-21 -11 -40 -39 -67 -21 -21 -45 -37 -51 -35 -7 1 -13 -3 -13 -9 0 -7 -8 -9
-20 -5 -11 4 -20 2 -20 -4 0 -7 -28 -11 -72 -11 l-73 0 0 223 0 222 58 2 c35
1 57 -2 57 -9z"/>
<path d="M1760 1985 c-28 -28 -48 -54 -45 -58 3 -4 2 -5 -2 -2 -3 3 -17 -5
-30 -17 l-23 -21 0 -631 0 -631 307 2 307 2 70 73 71 73 -75 -70 -76 -70 78
79 c79 80 90 99 62 110 -9 3 -130 6 -270 6 l-254 0 0 605 0 606 -35 -3 c-27
-2 -46 -13 -85 -53z"/>
<path d="M1950 1460 l0 -580 219 0 c121 0 226 3 235 6 21 8 20 34 -1 50 -14
10 -66 13 -210 14 l-193 0 0 545 0 545 -25 0 -25 0 0 -580z"/>
<path d="M6825 2020 c-8 -9 -12 -20 -8 -25 5 -4 3 -5 -3 -2 -6 3 -26 -10 -45
-30 -19 -21 -25 -31 -14 -23 19 14 19 14 6 -3 -8 -9 -16 -15 -19 -12 -3 3 -16
-5 -29 -17 l-23 -21 0 -433 c0 -304 3 -435 11 -440 6 -3 9 -19 5 -35 -3 -17
-1 -29 5 -29 6 0 8 -9 4 -20 -4 -12 -2 -20 5 -20 6 0 8 -5 5 -10 -3 -5 -1 -10
5 -10 7 0 10 -7 6 -15 -3 -8 -1 -15 5 -15 6 0 7 -5 3 -12 -4 -6 -1 -16 7 -22
23 -18 55 -60 39 -51 -8 5 8 -13 35 -40 28 -27 53 -50 58 -51 4 -1 11 -2 15
-3 5 0 17 -9 28 -18 10 -10 28 -20 39 -21 11 -2 21 -8 23 -12 2 -5 9 -7 17 -4
7 3 16 1 19 -4 3 -6 15 -8 26 -5 11 3 20 1 20 -5 0 -5 29 -9 65 -9 37 0 65 4
65 10 0 5 13 7 30 4 16 -4 32 -2 35 3 3 5 12 7 20 3 8 -3 15 0 15 7 0 6 5 8
10 5 6 -3 10 -2 10 3 0 10 56 37 64 31 3 -2 12 5 20 16 9 11 16 17 16 12 0 -4
14 7 31 25 18 18 26 24 18 13 -7 -11 8 0 34 25 48 45 62 65 29 39 -10 -8 0 4
22 25 23 22 35 36 27 31 -8 -5 -1 9 15 31 16 21 32 41 37 42 4 2 5 7 2 12 -3
5 0 14 7 22 7 7 15 22 16 33 2 11 8 21 12 23 5 2 6 10 3 18 -3 8 0 14 7 14 7
0 9 8 5 20 -4 11 -2 20 4 20 6 0 8 12 5 30 -4 19 -2 30 5 30 8 0 11 117 9 443
l-3 442 -30 0 -30 0 -5 -480 -5 -480 -27 -57 c-54 -116 -122 -174 -238 -204
-166 -42 -335 31 -411 178 -45 87 -49 138 -49 606 l0 443 -35 -3 c-20 -1 -42
-9 -50 -18z"/>
<path d="M6982 1568 l3 -473 28 -61 c53 -114 135 -166 262 -166 96 1 161 28
219 93 81 90 80 82 84 612 l3 467 -28 0 c-22 0 -46 -17 -106 -78 l-77 -77 0
-418 c0 -276 -3 -417 -10 -417 -6 0 -8 -11 -4 -25 4 -16 2 -25 -6 -25 -6 0 -8
-4 -5 -10 3 -5 1 -10 -6 -10 -7 0 -9 -3 -6 -7 11 -10 -23 -42 -39 -36 -8 3
-14 0 -14 -6 0 -6 -17 -11 -40 -11 -23 0 -40 5 -40 11 0 6 -7 9 -15 5 -8 -3
-15 0 -15 6 0 6 -3 8 -7 5 -3 -4 -12 1 -20 11 -9 10 -12 11 -7 2 4 -8 -7 -2
-24 14 -34 31 -40 42 -19 30 6 -4 2 3 -11 15 -12 12 -20 26 -17 31 3 4 0 10
-7 12 -8 3 -12 21 -12 46 1 23 -2 42 -7 42 -5 0 -9 199 -9 445 l0 445 -25 0
-26 0 3 -472z"/>
</g>
</svg>
