<svg viewBox="0 0 1101 540" fill="#070707" preserveAspectRatio="xMinYMax meet" xmlns="http://www.w3.org/2000/svg" aria-labelledby="brand-title"><title id="brand-title">GQ Germany</title><path d="M546.912 316.15c-16.393 103.765-103.74 220.95-276.91 222.832C116.855 540.647.497 424.215.002 266.513-.423 130.394 112.051.753 268.625.004 458.251-.902 530.01 136.592 543.954 190.782c-9.147 0-178.705-.257-178.705-.257-23.415-28.471-38.277-42.34-95.742-42.34-52.026 0-117.773 47.615-116.417 123.827 1.307 73.569 60.933 118.874 115.921 119.864 71.327 1.285 99.574-33.565 99.574-36.652h-73.318V227.93h250.207C564.022 92.128 684.214 1.056 815.977 1c162.126-.07 276.46 120.357 276.255 273.772-.135 101.096-56.2 165.16-56.2 165.16L1101 524.138l-148.404 4.953-11.872-15.52c-8.264 4.419-60.539 26.98-124.988 26.418-137.075-1.195-247.073-84.538-268.824-223.84zm386.298-6.074c24.638-77.828-26.123-161.734-116.814-162.064-67.998-.248-122.457 53.162-121.032 124.494 1.649 82.558 70.904 129.78 147.325 117.811l-78.07-99.647 149.063-4.954 19.528 24.36z" fill-rule="nonzero"></path></svg>
