<?xml version="1.0" encoding="UTF-8" standalone="no"?>
<svg
   xmlns:dc="http://purl.org/dc/elements/1.1/"
   xmlns:cc="http://creativecommons.org/ns#"
   xmlns:rdf="http://www.w3.org/1999/02/22-rdf-syntax-ns#"
   xmlns:svg="http://www.w3.org/2000/svg"
   xmlns="http://www.w3.org/2000/svg"
   xmlns:sodipodi="http://sodipodi.sourceforge.net/DTD/sodipodi-0.dtd"
   xmlns:inkscape="http://www.inkscape.org/namespaces/inkscape"
   version="1.1"
   id="Layer_1"
   x="0px"
   y="0px"
   width="166.252"
   height="36.465"
   viewBox="0 0 166.252 36.465001"
   enable-background="new 0 0 162.25 31.966"
   xml:space="preserve"
   inkscape:version="0.91 r13725"
   sodipodi:docname="índice.svg"><metadata
   id="metadata27"><rdf:RDF><cc:Work
       rdf:about=""><dc:format>image/svg+xml</dc:format><dc:type
         rdf:resource="http://purl.org/dc/dcmitype/StillImage" /><dc:title></dc:title><dc:subject><rdf:Bag><rdf:li>Vanity Fair</rdf:li><rdf:li>Logo</rdf:li><rdf:li>Magazine</rdf:li></rdf:Bag></dc:subject><cc:license
         rdf:resource="http://creativecommons.org/licenses/by-sa/3.0/" /></cc:Work><cc:License
       rdf:about="http://creativecommons.org/licenses/by-sa/3.0/"><cc:permits
         rdf:resource="http://creativecommons.org/ns#Reproduction" /><cc:permits
         rdf:resource="http://creativecommons.org/ns#Distribution" /><cc:requires
         rdf:resource="http://creativecommons.org/ns#Notice" /><cc:requires
         rdf:resource="http://creativecommons.org/ns#Attribution" /><cc:permits
         rdf:resource="http://creativecommons.org/ns#DerivativeWorks" /><cc:requires
         rdf:resource="http://creativecommons.org/ns#ShareAlike" /></cc:License></rdf:RDF></metadata><defs
   id="defs25" /><sodipodi:namedview
   pagecolor="#ffffff"
   bordercolor="#666666"
   borderopacity="1"
   objecttolerance="10"
   gridtolerance="10"
   guidetolerance="10"
   inkscape:pageopacity="0"
   inkscape:pageshadow="2"
   inkscape:window-width="1280"
   inkscape:window-height="721"
   id="namedview23"
   showgrid="false"
   inkscape:showpageshadow="false"
   fit-margin-left="2"
   fit-margin-top="2.5"
   fit-margin-right="2"
   fit-margin-bottom="2"
   inkscape:zoom="4.755103"
   inkscape:cx="103.45548"
   inkscape:cy="-0.56711255"
   inkscape:window-x="-4"
   inkscape:window-y="-4"
   inkscape:window-maximized="1"
   inkscape:current-layer="Layer_1" />
<polygon
   points="15.123,0.75 9.038,31.703 6.922,31.702 0.838,0.75 0,0.75 0,0 7.804,0 7.804,0.75 5.688,0.75 9.965,22.619 14.241,0.75 11.728,0.75 11.729,0 16.534,0 16.534,0.75 "
   id="polygon3"
   style="fill:#000000"
   transform="translate(2,2.5)" />
<path
   d="m 18.453,23.752 4.761,0.001 -2.381,-12.302 -2.38,12.301 z m -4.189,9.7 1.411,0 6.084,-30.952 2.116,0 6.085,30.952 0.706,0 0,0.75 -7.672,0 -0.001,-0.75 2.117,0 -1.764,-8.95 -5.026,0 -1.764,8.95 2.513,0 0.001,0.75 -4.807,0 0,-0.75 z"
   id="path5"
   inkscape:connector-curvature="0"
   style="fill:#000000" />
<polygon
   points="43.833,0.75 43.833,31.79 42.356,31.79 31.886,2.249 31.886,30.952 33.958,30.952 33.958,31.702 29.879,31.702 29.879,30.952 30.938,30.952 30.938,0.75 28.954,0.75 28.954,0 36.052,0 42.885,18.805 42.885,0.75 40.812,0.75 40.812,0 45.508,0 45.508,0.75 "
   id="polygon7"
   style="fill:#000000"
   transform="translate(2,2.5)" />
<polygon
   points="47.171,31.702 47.17,30.952 48.581,30.952 48.581,0.75 47.171,0.75 47.171,0 54.93,0 54.93,0.75 53.476,0.75 53.476,30.952 54.93,30.952 54.93,31.702 "
   id="polygon9"
   style="fill:#000000"
   transform="translate(2,2.5)" />
<path
   d="m 63.147,34.202 0,-0.75 1.455,0 0,-30.29 -0.088,0 c -2.072,0 -4.1,2.116 -4.498,11.728 l -0.749,0 0,-12.39 15.608,0 0,12.39 -0.75,0 C 73.685,5.279 71.48,3.162 69.628,3.162 l -0.133,0 10e-4,30.29 1.498,0 0,0.75 -7.847,0 z"
   id="path11"
   inkscape:connector-curvature="0"
   style="fill:#000000" />
<polygon
   points="86.318,0.75 86.318,0 90.682,0 90.682,0.75 89.492,0.75 85.39,17.02 85.391,30.953 86.846,30.952 86.846,31.702 79.042,31.703 79.042,30.953 80.497,30.952 80.497,17.107 75.911,0.75 74.897,0.75 74.897,0 82.878,0 82.878,0.75 80.674,0.75 84.863,15.608 88.61,0.75 "
   id="polygon13"
   style="fill:#000000"
   transform="translate(2,2.5)" />
<path
   d="m 106.916,34.202 0,-0.75 1.278,0 0,-30.202 -1.278,0 0,-0.75 13.845,0 -10e-4,9.48 -0.749,0 c -0.396,-6.702 -2.425,-8.73 -5.863,-8.73 l -1.059,0 0,14.197 0.396,0 c 2.689,0 3.482,-1.102 3.748,-5.467 l 0.705,0 0,11.992 -0.705,0 c -0.265,-4.762 -1.059,-5.775 -3.528,-5.776 l -0.616,10e-4 0,15.254 1.939,0 0,0.751 -8.112,0 z"
   id="path15"
   inkscape:connector-curvature="0"
   style="fill:#000000" />
<path
   d="m 123.803,23.752 4.762,0 -2.382,-12.301 -2.38,12.301 z m -4.189,9.7 1.411,0 6.085,-30.952 2.115,0 6.086,30.952 0.771,0 0,0.75 -7.738,0 0,-0.75 2.116,0 -1.764,-8.95 -5.025,0 -1.766,8.95 2.515,0.001 0,0.75 -4.807,-0.001 0,-0.75 z"
   id="path17"
   inkscape:connector-curvature="0"
   style="fill:#000000" />
<polygon
   points="135.067,31.702 135.067,30.952 136.346,30.952 136.346,0.75 135.067,0.75 135.067,0 142.563,0 142.563,0.75 141.241,0.75 141.241,30.952 142.562,30.952 142.562,31.702 "
   id="polygon19"
   style="fill:#000000"
   transform="translate(2,2.5)" />
<path
   d="m 153.14,3.25 -10e-4,13.536 0.662,0 c 2.381,0 4.1,0.177 4.099,-5.644 l 0.001,-1.543 c 0,-5.645 -1.719,-6.35 -3.836,-6.35 l -0.925,0 z m 4.497,26.896 -0.001,-7.761 c 0.001,-4.145 -1.19,-4.85 -3.659,-4.85 l -0.837,0 0,15.917 1.939,0 0,0.75 -8.113,0 0,-0.75 1.278,0 0,-30.202 -1.276,0 0,-0.75 7.098,0 c 5.203,0 8.553,2.381 8.554,7.805 -0.001,4.762 -2.866,6.437 -6.393,6.878 l 0,0.044 c 3.703,0.573 6.261,2.117 6.261,7.717 l 0,7.274 c 0,0.97 0.309,1.234 0.837,1.234 0.353,0 0.705,-0.132 0.927,-0.221 l 0,0.75 c -0.265,0.177 -1.104,0.484 -2.249,0.484 -2.735,10e-4 -4.366,-0.969 -4.366,-4.319 z"
   id="path21"
   inkscape:connector-curvature="0"
   style="fill:#000000" />
</svg>