<?xml version="1.0" encoding="UTF-8" standalone="no"?>
<!-- Created with Inkscape (http://www.inkscape.org/) -->

<svg
   xmlns:dc="http://purl.org/dc/elements/1.1/"
   xmlns:cc="http://creativecommons.org/ns#"
   xmlns:rdf="http://www.w3.org/1999/02/22-rdf-syntax-ns#"
   xmlns:svg="http://www.w3.org/2000/svg"
   xmlns="http://www.w3.org/2000/svg"
   xmlns:sodipodi="http://sodipodi.sourceforge.net/DTD/sodipodi-0.dtd"
   xmlns:inkscape="http://www.inkscape.org/namespaces/inkscape"
   width="1543.9294"
   height="409.81769"
   id="svg2"
   version="1.1"
   inkscape:version="0.48.4 r9939"
   sodipodi:docname="VOGUE LOGO.svg">
  <defs
     id="defs4" />
  <sodipodi:namedview
     id="base"
     pagecolor="#ffffff"
     bordercolor="#666666"
     borderopacity="1.0"
     inkscape:pageopacity="0.0"
     inkscape:pageshadow="2"
     inkscape:zoom="1.025638"
     inkscape:cx="771.96476"
     inkscape:cy="204.90885"
     inkscape:document-units="px"
     inkscape:current-layer="layer1"
     showgrid="false"
     fit-margin-top="10"
     fit-margin-left="10"
     fit-margin-right="10"
     fit-margin-bottom="10"
     inkscape:window-width="1680"
     inkscape:window-height="987"
     inkscape:window-x="-8"
     inkscape:window-y="32"
     inkscape:window-maximized="1" />
  <metadata
     id="metadata7">
    <rdf:RDF>
      <cc:Work
         rdf:about="">
        <dc:format>image/svg+xml</dc:format>
        <dc:type
           rdf:resource="http://purl.org/dc/dcmitype/StillImage" />
        <dc:title></dc:title>
      </cc:Work>
    </rdf:RDF>
  </metadata>
  <g
     inkscape:label="Ebene 1"
     inkscape:groupmode="layer"
     id="layer1"
     transform="translate(-1687.849,1694.3458)">
    <g
       id="g3846"
       transform="matrix(1.5770358,0,0,1.5770358,-1570.7398,-1303.8993)"
       style="fill:#000000;fill-opacity:1">
      <g
         id="g3863"
         style="fill:#000000;fill-opacity:1">
        <path
           style="fill:#000000;fill-opacity:1"
           d="m 2354.4524,-240.16704 c -56.321,0.40267 -102.3899,62.99919 -102.3899,117.59784 0,57.4558 33.7704,127.5429059 102.3899,127.3154379 68.6195,-0.2274681 104.2351,-75.6822819 104.2351,-127.3154379 0,-57.03315 -47.914,-118.0005 -104.2351,-117.59784 z m 0,2.14155 c 47.1385,0 59.8557,52.06087 59.8557,115.45629 0,83.648688 -15.3404,124.9169508 -59.8557,124.8383263 -44.5153,-0.078625 -58.9971,-33.8548473 -58.9971,-124.8383263 0,-56.99408 11.8586,-115.45629 58.9971,-115.45629 z"
           id="path3064"
           inkscape:connector-curvature="0"
           sodipodi:nodetypes="zszszzszsz" />
        <path
           style="fill:#000000;fill-opacity:1"
           d="m 2477.285,-121.02558 c -0.2525,-62.12461 49.469,-117.15511 91.5588,-119.88543 15.2034,-1.0771 34.7462,5.88508 46.1555,10.84467 8.2848,3.60141 25.1969,-1.6115 28.2001,-11.17517 l 1.6378,0 0,84.6255 -1.6378,0 c 0,-3.60762 -15.672,-82.16738 -74.3556,-82.16738 -43.3456,0 -47.533,76.21746 -47.533,117.75781 0,41.54035 1.2627,123.7760867 51.8451,123.7760867 24.5035,0 42.6412,-10.7204425 47.3432,-32.4083507 l 0,-65.945112 -20.5676,0 0,-2.809058 79.7236,0 0,2.809058 -19.6636,0 0,96.41130897 -1.6012,0 c 0,0 -3.1966,-13.91085797 -19.4181,-13.86448697 -20.7327,0.05927 -40.2854,18.0717968 -64.1199,17.8525446 -63.0334,-0.5798402 -97.3148,-63.6973766 -97.5673,-125.8219906 z"
           id="path3060"
           inkscape:connector-curvature="0"
           sodipodi:nodetypes="zcsccccszscccccccccssz" />
        <path
           style="fill:#000000;fill-opacity:1"
           d="m 2097.4389,-231.8313 -24.8234,0 0,-2.79036 86.958,0 0,2.79036 -21.8156,0 62.1337,168.735605 c 19.4293,-59.817265 34.481,-104.034155 54.7365,-168.735605 l -21.5783,0 0,-2.79036 45.9142,0 0,2.79036 -20.9089,0 -75.5169,235.4187487 z"
           id="path3058"
           inkscape:connector-curvature="0"
           sodipodi:nodetypes="ccccccccccccccc" />
        <path
           style="fill:#000000;fill-opacity:1"
           d="m 2691.8294,-54.049421 -0.393,-178.052919 -23.6282,0 0,-2.66712 87.0511,0 0,2.66712 -23.6145,0 0.5245,195.225512 c 5.2276,22.355004 14.522,39.3173888 46.2757,39.5699269 31.7537,0.2525381 53.3408,-18.7842919 61.3633,-44.8003239 l 0,-189.995115 -27.03,0 -10e-5,-2.58855 221.2336,0 0.4603,85.47259 -2.1262,0 c -4.1033,-55.18647 -25.3972,-76.04298 -62.6382,-82.12756 -12.8147,-2.09373 -26.2584,-0.54162 -43.2537,-0.67373 l 0,109.08556 c 14.7995,1.14328 30.5639,0.20789 41.1875,-8.91662 9.6605,-8.29738 12.3912,-27.46789 13.1014,-35.25604 l 1.8705,0 0,94.979633 -2.0243,0 c -0.5847,0 -1.3618,-23.834834 -12.9476,-35.142853 -11.6618,-11.38209 -26.5119,-14.18059 -41.1875,-11.46881 l 0,116.5271189 c 20.7296,0 37.2534,1.75591344 51.6031,-2.1781663 43.6198,-11.9587196 58.9755,-48.7587836 58.8579,-85.6677816 l 2.4257,0 0,90.60469983 -173.5303,0 0,-2.75875193 19.6209,0 0,-229.8907389 -42.3926,0 0,189.995115 c -4.8048,18.17898 -22.3661,48.2537441 -67.3716,48.0484524 -41.845,-0.190875 -83.3474,-19.0559274 -83.4377,-59.9906484 z"
           id="path3054"
           inkscape:connector-curvature="0"
           sodipodi:nodetypes="sccccccczcccccccsccscccssccscccccccccss" />
      </g>
    </g>
  </g>
</svg>
