<?xml version="1.0" encoding="UTF-8" standalone="no"?>
<svg
   xmlns:dc="http://purl.org/dc/elements/1.1/"
   xmlns:cc="http://creativecommons.org/ns#"
   xmlns:rdf="http://www.w3.org/1999/02/22-rdf-syntax-ns#"
   xmlns:svg="http://www.w3.org/2000/svg"
   xmlns="http://www.w3.org/2000/svg"
   xmlns:sodipodi="http://sodipodi.sourceforge.net/DTD/sodipodi-0.dtd"
   xmlns:inkscape="http://www.inkscape.org/namespaces/inkscape"
   version="1.1"
   id="svg41117"
   viewBox="0 0 504.75195 504.75195"
   height="504.75195"
   width="504.75195"
   preserveAspectRatio="xMidYMid"
   sodipodi:docname="PlayStation_logo.svg"
   inkscape:version="0.92.3 (2405546, 2018-03-11)">
  <sodipodi:namedview
     pagecolor="#ffffff"
     bordercolor="#666666"
     borderopacity="1"
     objecttolerance="10"
     gridtolerance="10"
     guidetolerance="10"
     inkscape:pageopacity="0"
     inkscape:pageshadow="2"
     inkscape:window-width="1920"
     inkscape:window-height="1046"
     id="namedview32"
     showgrid="false"
     fit-margin-top="0"
     fit-margin-left="0"
     fit-margin-right="0"
     fit-margin-bottom="0"
     inkscape:zoom="0.76217975"
     inkscape:cx="423.3942"
     inkscape:cy="250.68888"
     inkscape:window-x="0"
     inkscape:window-y="34"
     inkscape:window-maximized="1"
     inkscape:current-layer="svg41117" />
  <metadata
     id="metadata41126">
    <rdf:RDF>
      <cc:Work
         rdf:about="">
        <dc:format>image/svg+xml</dc:format>
        <dc:type
           rdf:resource="http://purl.org/dc/dcmitype/StillImage" />
        <dc:title></dc:title>
      </cc:Work>
    </rdf:RDF>
  </metadata>
  <defs
     id="defs41119">
    <style
       id="style41121">

      .cls-2 {
        fill: #ffffff;
      }
    </style>
  </defs>
  <path
     style="fill:#1f1f1f;fill-opacity:1;fill-rule:evenodd"
     class="cls-2"
     id="path-1"
     d="m 349.61512,223.77975 c -3.8677,4.8796 -13.34356,8.36053 -13.34356,8.36053 0,0 -70.49109,25.31994 -70.49109,25.31994 0,0 0,-18.67289 0,-18.67289 0,0 51.87665,-18.48401 51.87665,-18.48401 5.887,-2.10924 6.79096,-5.09097 2.00581,-6.65604 -4.77616,-1.56957 -13.42451,-1.11983 -19.31601,0.99841 0,0 -34.56645,12.17426 -34.56645,12.17426 0,0 0,-19.37898 0,-19.37898 0,0 1.99232,-0.67461 1.99232,-0.67461 0,0 9.98856,-3.5349 24.03371,-5.09097 14.04515,-1.54708 31.24291,0.21137 44.74389,5.32934 15.21445,4.80764 16.92793,11.89543 13.06473,16.77502 z m -77.12463,-31.7961 c 0,0 0,-47.7526 0,-47.7526 0,-5.60816 -1.03439,-10.77109 -6.29626,-12.23272 -4.0296,-1.29074 -6.53012,2.45104 -6.53012,8.0547 0,0 0,119.5839 0,119.5839 0,0 -32.25031,-10.23591 -32.25031,-10.23591 0,0 0,-142.58322 0,-142.58322 13.71234,2.54549 33.68945,8.56291 44.42907,12.18326 27.31226,9.37692 36.57225,21.04748 36.57225,47.34334 0,25.63026 -15.82159,35.34448 -35.92463,25.63925 z m -104.25251,44.85184 c -15.61921,-4.39838 -18.21866,-13.56393 -11.0994,-18.84379 6.57959,-4.8751 17.76894,-8.54492 17.76894,-8.54492 0,0 46.2415,-16.44223 46.2415,-16.44223 0,0 0,18.74486 0,18.74486 0,0 -33.27571,11.90892 -33.27571,11.90892 -5.87801,2.10924 -6.78197,5.09547 -2.00581,6.66054 4.78066,1.56506 13.43351,1.11983 19.32051,-0.99391 0,0 15.96101,-5.79256 15.96101,-5.79256 0,0 0,16.77053 0,16.77053 -1.0119,0.17989 -2.14073,0.35978 -3.18411,0.53518 -15.9655,2.60845 -32.96989,1.5201 -49.72693,-4.00262 z m 171.10525,7.42508 c 2.0193,0 3.91267,0.78254 5.33832,2.22618 1.42566,1.42115 2.21269,3.31903 2.21269,5.33383 0,2.02379 -0.78703,3.91267 -2.21269,5.33383 -1.42565,1.43464 -3.31902,2.21718 -5.33832,2.21718 -2.0193,0 -3.90818,-0.78254 -5.33833,-2.21718 -1.42565,-1.42116 -2.20818,-3.31004 -2.20818,-5.33383 0,-4.16453 3.38198,-7.56001 7.54651,-7.56001 z m -6.27827,7.56001 c 0,1.6775 0.65211,3.25606 1.83941,4.43436 1.18279,1.19629 2.76585,1.8439 4.43886,1.8439 3.46743,0 6.27826,-2.81532 6.27826,-6.27826 0,-1.682 -0.64761,-3.26056 -1.8394,-4.44336 -1.1828,-1.19629 -2.76586,-1.83941 -4.43886,-1.83941 -1.67301,0 -3.25607,0.64312 -4.43886,1.83941 -1.1873,1.1828 -1.83941,2.76136 -1.83941,4.44336 z m 8.55841,-4.07008 c 0.82751,0.36428 1.24576,1.06586 1.24576,2.06427 0,0.5127 -0.10794,0.94444 -0.3283,1.28174 -0.15741,0.24285 -0.38228,0.44074 -0.63413,0.61163 0.19788,0.11694 0.37328,0.25635 0.50371,0.41826 0.17988,0.23386 0.28332,0.60713 0.29682,1.11533 0,0 0.0405,1.07486 0.0405,1.07486 0.0135,0.28783 0.0315,0.5082 0.0765,0.64312 0.045,0.19788 0.13042,0.32381 0.23835,0.36429 0,0 0.11244,0.054 0.11244,0.054 0,0 0,0.12143 0,0.12143 0,0 0,0.18439 0,0.18439 0,0 0,0.18439 0,0.18439 0,0 -0.18439,0 -0.18439,0 0,0 -1.33571,0 -1.33571,0 0,0 -0.10793,0 -0.10793,0 0,0 -0.054,-0.0944 -0.054,-0.0944 -0.045,-0.0899 -0.0764,-0.19338 -0.10793,-0.3283 -0.0225,-0.12143 -0.045,-0.3328 -0.0585,-0.65661 0,0 -0.0675,-1.33571 -0.0675,-1.33571 -0.018,-0.46322 -0.1754,-0.75105 -0.47222,-0.90396 -0.18439,-0.0854 -0.49021,-0.12592 -0.90396,-0.12592 0,0 -2.28914,0 -2.28914,0 0,0 0,3.26056 0,3.26056 0,0 0,0.18439 0,0.18439 0,0 -0.18889,0 -0.18889,0 0,0 -1.08836,0 -1.08836,0 0,0 -0.18438,0 -0.18438,0 0,0 0,-0.18439 0,-0.18439 0,0 0,-8.03672 0,-8.03672 0,0 0,-0.18439 0,-0.18439 0,0 0.18438,0 0.18438,0 0,0 3.71929,0 3.71929,0 0.63863,0 1.17381,0.0944 1.58756,0.28782 z m -4.0296,3.38648 c 0,0 2.32961,0 2.32961,0 0.46772,0 0.841,-0.0855 1.10634,-0.26084 0.24286,-0.1754 0.35979,-0.49471 0.35979,-0.95793 0,-0.5037 -0.1664,-0.83201 -0.51719,-1.0074 -0.19338,-0.0944 -0.46323,-0.14841 -0.80503,-0.14841 0,0 -2.47352,0 -2.47352,0 0,0 0,2.37458 0,2.37458 z"
     inkscape:connector-curvature="0" />
  <g
     id="g6"
     transform="translate(0,305.48731)">
    <g
       id="g4">
      <path
         style="fill:#1e1e1e"
         inkscape:connector-curvature="0"
         d="m 214.979,30.455566 c -0.55078,-0.04639 -8.1582,-0.706543 -9.20361,-0.814453 -5.05176,-0.520996 -7.1626,-5.789551 -7.1626,-9.137207 v -2.55957 c 0,-3.296875 1.06934,-10.0732422 9.33692,-10.0732422 5.20849,0 17.21533,0 17.21533,0 l -0.004,-7.8632812 c 0,0 -11.61035,0 -19.69433,0 -14.34717,0 -19.10059,11.8032224 -19.10059,18.0527344 v 4.317871 c 0,5.135254 3.54492,16.274902 15.66797,17.660645 1.35938,0.155273 4.49805,0.380371 6.06445,0.506835 5.83008,0.470704 8.35694,4.864258 8.35694,9.548829 0,1.331054 -0.0234,3.107421 -0.0234,3.83789 0,8.791016 -5.69092,10.701172 -8.92627,10.701172 -3.16699,0 -18.37549,0 -18.37549,0 v 7.756836 c 0,0 17.81934,0 23.25342,0 10.53369,0 16.85596,-8.72168 16.85596,-19.167969 v -4.514648 c 0,-8.628906 -5.51172,-17.511231 -14.26026,-18.252442 z m 36.41358,-22.4160152 -12.85547,-0.00635 c 0,0 0,42.2680672 0,49.1083982 0,6.025391 4.39795,15.251954 14.68457,15.251954 6.98242,0 8.54297,0 8.54297,0 v -7.75 c 0,0 -0.81348,0 -5.73731,0 -2.43359,0 -4.63183,-1.69336 -4.63183,-5.78125 0,-3.145508 0,-33.732911 0,-33.732911 h 13.77636 v -7.85791 H 251.39258 Z M 78.058594,43.533203 c 0,5.391113 0.0054,2.786621 0.0054,12.123047 0,11.787109 7.887695,16.743164 13.637695,16.743164 7.735352,0 12.843751,0 12.843751,0 v -7.767578 c 0,0 -4.646485,0 -8.228516,0 -2.356934,0 -5.415039,-0.296875 -5.415039,-7.224609 V 42.099609 c 0,-16.028808 5.396484,-16.970703 9.079101,-16.970703 8.770994,0 10.285154,0 10.285154,0 V 72.44043 l 12.7417,-0.03223 V 17.274902 c 0,0 -11.06738,0 -21.83545,0 -8.282224,0 -23.113767,1.540528 -23.113767,26.258301 z M 55.962402,0.0048828 V 72.392578 h 12.720703 l -0.002,-72.3876952 z M 270.3125,43.533203 c 0,5.391113 0.006,2.786621 0.006,12.123047 0,11.787109 7.88769,16.743164 13.63769,16.743164 7.73536,0 12.84375,0 12.84375,0 v -7.767578 c 0,0 -4.64648,0 -8.22851,0 -2.35742,0 -5.41504,-0.296875 -5.41504,-7.224609 V 42.099609 c 0,-16.028808 5.39648,-16.970703 9.0791,-16.970703 8.77051,0 10.28516,0 10.28516,0 V 72.44043 L 315.26284,72.4082 V 17.274902 c 0,0 -11.06739,0 -21.83594,0 -8.28223,0 -23.11426,1.540528 -23.11426,26.258301 z m -114.63574,9.973633 -12.3086,-36.232422 h -13.42968 l 18.62353,54.692383 -10.47851,27.297851 h 11.08984 L 181.84961,17.280273 H 169.71826 Z M 31.369629,4.883e-4 C 20.111816,4.883e-4 0,0.0151367 0,0.0151367 V 72.390625 l 12.754395,9.77e-4 V 7.8823242 c 0,0 9.783691,0 15.036132,0 4.390625,0 7.497071,5.3266598 7.497071,14.6625978 0,9.047363 -2.765137,14.979004 -7.62793,14.979004 -5.135254,0 -9.287598,0 -9.287598,0 v 7.753418 c 0,0 6.829102,-0.0024 13.198242,-0.0024 5.449219,0 16.467774,-5.01123 16.467774,-22.43164 C 48.038086,4.5175781 37.542969,4.883e-4 31.369629,4.883e-4 Z M 459.38574,17.276367 c -10.86133,0 -22.70312,0 -22.70312,0 v 55.118164 l 12.93066,0.002 v -47.27739 c 0,0 2.30957,0 10.4707,0 7.97461,0 8.73731,9.067871 8.73731,17.339843 0,7.901368 0,29.932618 0,29.932618 h 12.78613 c 0,0 0,-23.603516 0,-30.109864 0,-15.033203 -6.26562,-25.005371 -22.22168,-25.005371 z m -54.44824,0.0039 c -22.30664,0 -23.43848,17.872071 -23.43848,24.260743 v 7.112304 c 0,9.322266 3.33106,23.749024 23.74903,23.749024 18.57129,0 23.14257,-13.082032 23.14257,-24.184571 v -6.63916 c 0,-3.241699 -0.01,-24.29834 -23.45312,-24.29834 z m 10.54785,30.003907 c 0,10.816406 -1.89844,17.377929 -10.45508,17.377929 -7.24511,0 -10.71289,-3.914062 -10.71289,-17.498046 v -4.689454 c 0,-9.235351 1.18653,-17.377441 10.63672,-17.377441 9.29004,0 10.53125,7.779785 10.53125,17.404785 V 47.28418 Z M 338.60742,8.0395508 325.75195,8.0332031 c 0,0 0,42.2680669 0,49.1083979 0,6.025391 4.39746,15.251954 14.68457,15.251954 6.98243,0 8.54297,0 8.54297,0 v -7.75 c 0,0 -0.81347,0 -5.7373,0 -2.4336,0 -4.63184,-1.69336 -4.63184,-5.78125 0,-3.145508 0,-33.732911 0,-33.732911 h 13.77637 v -7.85791 h -13.7793 z m 158.9375,49.9067382 c -3.98144,0 -7.20801,3.226563 -7.20801,7.207031 0,3.980469 3.22657,7.208008 7.20801,7.208008 3.98047,0 7.20703,-3.227539 7.20703,-7.208008 0,-3.980468 -3.22656,-7.207031 -7.20703,-7.207031 z m -9.7e-4,13.424805 c -3.4336,0 -6.2168,-2.78418 -6.2168,-6.217774 0,-3.433593 2.7832,-6.217773 6.2168,-6.217773 3.43457,0 6.21875,2.78418 6.21875,6.217773 0,3.433594 -2.78418,6.217774 -6.21875,6.217774 z m -137.32032,1.02832 h 12.75586 V 17.274902 h -12.75586 z m 0,-61.572754 h 12.75586 V 0 h -12.75586 z m 140.57324,57.546387 c -0.0391,-0.146485 -0.0635,-0.368164 -0.0742,-0.666992 l -0.0371,-1.049805 c -0.0176,-0.455078 -0.1045,-0.783203 -0.25879,-0.986328 -0.1543,-0.202148 -0.38477,-0.366211 -0.69043,-0.490234 0.34863,-0.180665 0.61914,-0.420899 0.8125,-0.719727 0.19433,-0.298828 0.29101,-0.681641 0.29101,-1.151367 0,-0.898438 -0.36132,-1.515625 -1.083,-1.84961 -0.38086,-0.173828 -0.86426,-0.260742 -1.4502,-0.260742 h -3.55957 v 7.830078 h 1.06055 v -3.358398 h 2.34668 c 0.4209,0 0.72949,0.04785 0.92675,0.144531 0.34571,0.173828 0.5293,0.516602 0.55372,1.02832 l 0.0645,1.305664 c 0.0146,0.306641 0.0322,0.511719 0.0537,0.619141 0.0215,0.106445 0.0498,0.193359 0.085,0.260742 h 1.30078 v -0.175781 c -0.16406,-0.07129 -0.27734,-0.231445 -0.3418,-0.479492 z m -1.45605,-3.885742 c -0.28223,0.199218 -0.66504,0.297851 -1.14844,0.297851 h -2.38476 v -2.675781 h 2.51953 c 0.35254,0 0.63379,0.05371 0.84473,0.160156 0.39453,0.202149 0.59082,0.583008 0.59082,1.140625 0,0.518555 -0.14063,0.87793 -0.42188,1.077149 z"
         id="path2" />
    </g>
  </g>
  <g
     id="g8"
     transform="translate(-55.3911,445.48731)" />
  <g
     id="g10"
     transform="translate(-55.3911,445.48731)" />
  <g
     id="g12"
     transform="translate(-55.3911,445.48731)" />
  <g
     id="g14"
     transform="translate(-55.3911,445.48731)" />
  <g
     id="g16"
     transform="translate(-55.3911,445.48731)" />
  <g
     id="g18"
     transform="translate(-55.3911,445.48731)" />
</svg>
