<?xml version="1.0" encoding="UTF-8" standalone="no"?>
<svg
   xmlns:dc="http://purl.org/dc/elements/1.1/"
   xmlns:cc="http://creativecommons.org/ns#"
   xmlns:rdf="http://www.w3.org/1999/02/22-rdf-syntax-ns#"
   xmlns:svg="http://www.w3.org/2000/svg"
   xmlns="http://www.w3.org/2000/svg"
   xmlns:sodipodi="http://sodipodi.sourceforge.net/DTD/sodipodi-0.dtd"
   xmlns:inkscape="http://www.inkscape.org/namespaces/inkscape"
   width="600.88501"
   height="600.88501"
   viewBox="0 0 600.88501 600.88501"
   version="1.1"
   id="svg24"
   sodipodi:docname="icon_ps_store.svg"
   inkscape:version="0.92.3 (2405546, 2018-03-11)">
  <metadata
     id="metadata30">
    <rdf:RDF>
      <cc:Work
         rdf:about="">
        <dc:format>image/svg+xml</dc:format>
        <dc:type
           rdf:resource="http://purl.org/dc/dcmitype/StillImage" />
        <dc:title>icon_ps_store</dc:title>
      </cc:Work>
    </rdf:RDF>
  </metadata>
  <defs
     id="defs28" />
  <sodipodi:namedview
     pagecolor="#ffffff"
     bordercolor="#666666"
     borderopacity="1"
     objecttolerance="10"
     gridtolerance="10"
     guidetolerance="10"
     inkscape:pageopacity="0"
     inkscape:pageshadow="2"
     inkscape:window-width="1920"
     inkscape:window-height="1046"
     id="namedview26"
     showgrid="false"
     fit-margin-top="0"
     fit-margin-left="0"
     fit-margin-right="0"
     fit-margin-bottom="0"
     inkscape:zoom="0.54535033"
     inkscape:cx="315.32954"
     inkscape:cy="93.552845"
     inkscape:window-x="0"
     inkscape:window-y="34"
     inkscape:window-maximized="1"
     inkscape:current-layer="svg24" />
  <!-- Generator: Sketch 52.6 (67491) - http://www.bohemiancoding.com/sketch -->
  <title
     id="title17">icon_ps_store</title>
  <desc
     id="desc19">Created with Sketch.</desc>
  <g
     id="Logos"
     style="fill:none;fill-rule:evenodd;stroke:none;stroke-width:1"
     transform="translate(238.80892,164.40091)">
    <g
       id="PS-Store-Mono"
       style="fill:#0172ce">
      <path
         d="m 90.088528,104.38511 c -1.544,1.92 -5.285,3.306 -5.285,3.306 l -27.827,9.997 v -7.376 l 20.48,-7.294 c 2.319,-0.855 2.671,-2.026 0.797,-2.64 -1.904,-0.617998 -5.303,-0.439998 -7.644,0.397 l -13.633,4.81 v -7.668998 l 0.782,-0.261 c 0,0 3.946,-1.398 9.494,-1.999 5.538,-0.608 12.331,0.077 17.67,2.092 6.015,1.909 6.687,4.694998 5.166,6.636998 z m -12.838,17.331 h -0.668 v -4.248 l -1.405,4.248 h -0.677 l -1.405,-4.248 v 4.248 h -0.675 v -5.228 h 0.938 l 1.479,4.452 1.485,-4.452 h 0.928 z m -5.483,-4.634 h -1.676 v 4.634 h -0.673 v -4.634 h -1.691 v -0.594 h 4.04 z m -17.216,-45.759998 v 47.221998 l -12.75,-4.043 V 58.183112 c 5.426,1.001 13.308,3.394 17.562,4.813 10.778,3.708 14.442,8.323 14.442,18.682 0,10.132 -6.249,13.98 -14.184,10.136 v -18.859 c 0,-2.199 -0.408,-4.251 -2.486,-4.829 -1.592,-0.506 -2.584,0.969 -2.584,3.196 z m -1.138,-65.9290001 c 1.023,-0.106 2.029,0.051 3.029,0.454 -5.752,7.8390001 -7.407,21.6660001 -7.878,29.3960001 -2.366,0.005 -4.643,0.013 -6.829,0.022 0.851,-18.417 4.996,-29.1900001 11.678,-29.8720001 z m -14.079,94.2400001 -13.134,4.705998 c -2.326,0.828 -2.673,2.004 -0.798,2.618 1.904,0.638 5.29,0.461 7.618,-0.395 l 6.314,-2.278 v 6.618 c -0.409,0.074 -0.86,0.141 -1.273,0.211 -6.295,1.043 -13.004,0.615 -19.623,-1.578 -6.169,-1.721 -7.198,-5.35 -4.384,-7.442 2.594,-1.923 7.015,-3.359998 7.015,-3.359998 l 18.265,-6.513 z m 20.792,-91.1300001 c 5.486,5.6880001 9.208,17.4310001 10.8,26.7360001 -4.646,-0.002 -9.71,-0.004 -15.183,-0.004 -0.879,0 -1.746,0 -2.605,10e-4 0.529,-8.518 2.351,-20.605 6.988,-26.7330001 z m 6.739,-3.889 c 2.137,-0.011 4.116,1.008 6.041,3.111 5.818,6.3460001 8.827,19.9100001 9.948,27.5240001 -2.271,-0.002 -4.697,-0.005 -7.278,-0.007 -1.637,-10.138 -5.717,-23.07 -12.013,-29.7930001 1.006,-0.523 2.102,-0.828 3.302,-0.835 z M 118.17453,38.105112 c -0.03,-0.575 -0.558,-1.026 -1.192,-1.018 l -12.183,-1.751 c -0.11,-0.029 -0.226,-0.049 -0.347,-0.049 -2.446,-0.007 -8.232002,-0.021 -16.952002,-0.032 -1.035,-7.933 -4.046,-21.162 -9.732,-28.8450001 -3.163,-4.274 -6.84,-6.42800002 -10.926,-6.41000001785 -2.732,0.0169999979 -5.048,0.89999999785 -7.03,2.37600001785 -2.194,-1.286 -4.49,-1.81400002 -6.861,-1.57400002 -11.474,1.17000002 -15.063,18.04800012 -15.807,34.48700012 -16.239,0.096 -26.714,0.295 -30.2070001,0.369 -0.733,0.016 -1.324,0.533 -1.364,1.197 -0.274,4.615 -1.341,22.704 -2.849,50.507 -1.593,29.402998 -2.49699997,45.441998 -2.72299997,49.685998 -0.032,0.608 0.442,1.135 1.10599997,1.236 l 48.4980001,7.351 47.938,7.265 c 0.399,0.061 0.778,-0.04 1.09,-0.244 v 0.009 l 23.685002,-15.144 c 0.628,-0.426 0.983,-1.107 0.946,-1.817 z"
         id="icon_ps_store"
         inkscape:connector-curvature="0" />
    </g>
  </g>
  <g
     transform="matrix(2.999997,0,0,2.999997,-2.2721977,355.5546)"
     style="fill:none;fill-rule:evenodd;stroke:none;stroke-width:0.33333367"
     id="Logos-3">
    <g
       style="fill:#231f20;stroke-width:0.33333367"
       id="PS-Store">
      <path
         inkscape:connector-curvature="0"
         d="m 9.3504,0.9525 c 2.901,0 4.775,2.471 4.775,6.291 0,1.969 -0.535,3.611 -1.546,4.747 -0.857,0.963 -2.034,1.516 -3.229,1.516 h -3.412 c -0.034,0 -0.062,-0.027 -0.062,-0.063 v -2.068 c 0,-0.032 0.028,-0.061 0.062,-0.061 h 2.373 c 1.442,0 2.236,-1.451 2.236,-4.087 0,-2.637 -0.794,-4.088 -2.234,-4.088 l -3.951,0.007 c -0.012,0 -0.023,0.016 -0.023,0.03 l -0.003,17.784 c 0,0.031 -0.027,0.06 -0.059,0.06 h -3.457 c -0.034,0 -0.063,-0.029 -0.063,-0.06 V 1.0095 c 0,-0.034 0.029,-0.061 0.063,-0.061 z M 19.7699,0.9481 c 0.034,0 0.061,0.028 0.061,0.062 v 19.95 c 0,0.031 -0.027,0.061 -0.061,0.061 h -3.456 c -0.033,0 -0.06,-0.03 -0.06,-0.061 v -19.95 c 0,-0.034 0.027,-0.062 0.06,-0.062 z m 15.0903,4.854 v 0.095 l 0.002,15.063 c 0,0.031 -0.029,0.061 -0.061,0.061 h -3.455 c -0.035,0 -0.063,-0.03 -0.063,-0.061 l 0.004,-13 c 0,-0.015 -0.01,-0.029 -0.023,-0.029 h -2.635 c -0.701,0 -1.488,0.117 -1.984,1.006 -0.453,0.806 -0.662,2.214 -0.66,4.427 v 3.325 c 0,1.895 0.742,2.131 1.299,2.142 l 2.4,-0.004 c 0.036,0 0.062,0.027 0.062,0.064 v 2.069 c 0,0.031 -0.026,0.061 -0.062,0.061 h -3.357 c -2.272,0 -3.921,-1.924 -3.921,-4.575 v -3.081 c 0,-3.559 0.706,-7.623 6.223,-7.623 h 6.169 c 0.035,0 0.062,0.026 0.062,0.06 z m 24.8794,3.501 c 1.477,0.112 2.547,0.605 3.277,1.506 0.847,1.047 1.276,2.512 1.276,4.347 0,5.105 -3.144,5.865 -5.018,5.865 h -6.077 c -0.032,0 -0.06,-0.03 -0.06,-0.061 v -2.069 c 0,-0.033 0.028,-0.064 0.06,-0.064 h 0.094 4.799 c 2.356,0 2.624,-1.998 2.624,-3.099 v -0.497 c 0,-1.757 -0.798,-2.909 -2.087,-3.007 l -1.7,-0.128 c -2.725,-0.206 -4.557,-2.349 -4.557,-5.331 v -0.157 c 0,-3.768 2.295,-5.658 5.51,-5.658 l 5.1,-0.002 h 0.005 0.097 c 0.032,0 0.058,0.028 0.058,0.062 v 2.075 c 0,0.034 -0.026,0.062 -0.058,0.062 h -4.712 c -1.458,0 -2.562,0.66 -2.562,3.109 0,2.098 0.952,2.805 2.228,2.917 z m 28.334,-3.501 v 15.158 c 0,0.031 -0.029,0.061 -0.061,0.061 h -3.457 c -0.032,0 -0.06,-0.03 -0.06,-0.061 l 0.004,-13 c 0,-0.015 -0.012,-0.029 -0.024,-0.029 h -2.636 c -0.701,0 -1.485,0.117 -1.982,1.006 -0.454,0.806 -0.663,2.214 -0.661,4.427 v 3.325 c 10e-4,1.895 0.738,2.131 1.299,2.142 l 2.399,-0.004 c 0.036,0 0.064,0.027 0.064,0.064 v 2.069 c 0,0.031 -0.028,0.061 -0.064,0.061 h -3.358 c -2.269,0 -3.918,-1.924 -3.918,-4.575 l -0.004,-3.081 c 0,-3.559 0.71,-7.623 6.228,-7.623 h 6.17 c 0.032,0 0.061,0.026 0.061,0.06 z M 74.1702,5.7425 c 0.033,0 0.061,0.026 0.061,0.06 v 2.061 c 0,0.032 -0.028,0.063 -0.061,0.063 0,0 -2.597,0.004 -3.741,0 -0.011,0 -0.024,0.008 -0.024,0.019 v 8.905 c 0,1.951 0.911,1.971 1.299,1.977 h 1.523 c 0.032,0 0.063,0.03 0.063,0.064 v 2.069 c 0,0.031 -0.031,0.06 -0.063,0.06 h -2.478 c -2.271,0 -3.922,-1.921 -3.922,-4.571 V 3.2075 c 0,-0.033 0.029,-0.061 0.063,-0.061 h 3.458 c 0.032,0 0.061,0.028 0.061,0.061 l -0.004,2.497 0.004,0.014 c 0,0.011 0.01,0.024 0.021,0.024 z m 24.1446,0 c 0.034,0 0.061,0.026 0.061,0.06 v 2.061 c 0,0.032 -0.027,0.063 -0.061,0.063 0,0 -2.599,0.004 -3.744,0 -0.011,0 -0.021,0.008 -0.021,0.019 v 8.905 c 0,1.951 0.909,1.971 1.298,1.977 h 1.523 c 0.035,0 0.061,0.03 0.061,0.064 v 2.069 c 0,0.031 -0.026,0.06 -0.061,0.06 h -2.479 c -2.271,0 -3.923,-1.921 -3.923,-4.571 V 3.2075 c 0,-0.033 0.031,-0.061 0.066,-0.061 h 3.457 c 0.031,0 0.058,0.028 0.058,0.061 v 2.497 0.014 c 0,0.011 0.012,0.024 0.023,0.024 z m 5.7182,0 c 0.032,0 0.059,0.026 0.059,0.06 v 15.158 c 0,0.031 -0.027,0.06 -0.059,0.06 h -3.458 c -0.032,0 -0.062,-0.029 -0.062,-0.06 V 5.8025 c 0,-0.034 0.03,-0.06 0.062,-0.06 z m 0,-4.7944 c 0.032,0 0.059,0.028 0.059,0.062 v 2.893 c 0,0.034 -0.027,0.062 -0.059,0.062 h -3.458 c -0.032,0 -0.062,-0.028 -0.062,-0.062 v -2.893 c 0,-0.034 0.03,-0.062 0.062,-0.062 z m 23.9038,4.7944 c 5.515,0 6.223,4.064 6.223,7.623 v 7.595 c 0,0.031 -0.027,0.06 -0.062,0.06 h -3.453 c -0.036,0 -0.066,-0.029 -0.066,-0.06 0,0 0.008,-7.905 0.006,-7.995 0,-2.055 -0.213,-3.357 -0.663,-4.104 -0.498,-0.82 -1.284,-0.931 -1.986,-0.931 h -2.635 c -0.014,0 -0.027,0.012 -0.027,0.023 l 0.008,13.007 c 0,0.031 -0.028,0.06 -0.063,0.06 h -3.454 c -0.033,0 -0.063,-0.029 -0.063,-0.06 l 0.003,-15.158 c 0,-0.034 0.027,-0.06 0.06,-0.06 z M 115.099,17.828 c 0.499,-0.807 0.73,-2.22 0.73,-4.443 0,-2.644 -0.327,-4.14 -1.051,-4.855 -0.431,-0.421 -0.991,-0.599 -1.873,-0.599 -0.882,0 -1.443,0.178 -1.87,0.599 -0.73,0.715 -1.051,2.207 -1.051,4.838 v 0.017 c 0,2.223 0.23,3.634 0.726,4.443 0.552,0.893 1.42,1.015 2.195,1.015 0.777,0 1.65,-0.122 2.194,-1.015 z M 112.905,5.741 c 5.775,0 6.514,4.086 6.514,7.644 0,3.561 -0.739,7.647 -6.515,7.647 -5.772,0 -6.514,-4.086 -6.514,-7.647 0,-3.558 0.742,-7.644 6.515,-7.644 z m -76.0975,0.0015 3.628,-10e-4 c 0.036,0 0.072,0.026 0.084,0.058 l 3.36,9.871 c 0.013,0.032 0.03,0.034 0.044,0 l 3.816,-9.871 c 0.014,-0.032 0.052,-0.057 0.087,-0.057 h 3.278 c 0.037,0 0.053,0.025 0.041,0.057 l -9.01,22.586 c -0.012,0.03 -0.051,0.058 -0.086,0.058 h -3.004 c -0.033,0 -0.052,-0.028 -0.038,-0.058 l 2.878,-7.449 c 0.014,-0.03 0.014,-0.084 0.004,-0.116 l -5.124,-15.02 c -0.01,-0.033 0.009,-0.058 0.042,-0.058 z M 153.8099,3.4994 c -1.406,-0.562 -2.925,-0.845 -4.416,-0.845 -1.911,0 -4.05,0.731 -4.05,3.067 0,1.799 1.069,2.784 4.191,3.994 3.796,1.463 5.766,2.981 5.766,6.102 0,3.966 -3.431,5.542 -6.751,5.542 -1.772,0 -4.05,-0.395 -5.934,-1.239 l 0.619,-2.108 c 1.829,0.9 3.796,1.293 5.371,1.293 2.419,0 4.248,-1.069 4.248,-3.318 0,-2.053 -1.773,-3.094 -4.809,-4.332 -3.432,-1.377 -5.148,-3.094 -5.148,-5.765 0,-3.713 3.487,-5.288 6.526,-5.288 1.772,0 3.544,0.281 4.977,0.843 z m 2.1924,2.6713 h 2.644 v -3.74 h 2.39 v 3.74 h 3.431 v 1.886 h -3.431 v 8.886 c 0,2.025 0.197,2.391 1.884,2.391 0.648,0 1.068,-0.057 1.575,-0.112 v 1.8 c -0.535,0.084 -1.463,0.197 -2.25,0.197 -3.094,0 -3.599,-1.492 -3.599,-4.135 v -9.027 h -2.644 z m 16.1982,1.5474 c -3.094,0 -4.5,2.419 -4.5,5.848 0,3.462 1.462,5.908 4.5,5.908 3.095,0 4.5,-2.446 4.5,-5.908 0,-3.429 -1.405,-5.848 -4.5,-5.848 z m 0,13.641 c -4.246,0 -6.891,-2.954 -6.891,-7.793 0,-4.835 2.645,-7.734 6.891,-7.734 4.247,0 6.89,2.899 6.89,7.734 0,4.839 -2.643,7.793 -6.89,7.793 z M 188.203,7.8021 c -0.339,-0.056 -0.76,-0.084 -1.237,-0.084 -1.97,0 -3.545,1.154 -3.545,4.613 v 8.69 h -2.389 v -14.85 h 2.303 v 1.997 h 0.03 c 0.732,-1.575 1.968,-2.336 3.88,-2.336 0.254,0 0.647,0 1.07,0.058 z m 2.3046,4.5566 h 8.38 v -0.113 c 0,-2.84 -1.6,-4.528 -3.965,-4.528 -2.671,0 -4.163,1.913 -4.415,4.641 z m 0,1.885 c 0.168,3.177 2.109,5.231 5.259,5.231 1.38,0 2.84,-0.253 3.995,-0.731 l 0.393,1.828 c -1.238,0.534 -2.897,0.787 -4.443,0.787 -4.923,0 -7.511,-3.319 -7.511,-7.734 0,-4.5 2.559,-7.792 6.694,-7.792 4.162,0 6.158,2.868 6.158,7.257 v 1.154 z m -53.9565,4.3919 h -0.887 v -0.305 h 2.118 v 0.305 h -0.88 v 2.388 h -0.351 z m 2.6636,2.3877 -0.738,-2.188 v 2.188 h -0.352 v -2.693 h 0.49 l 0.776,2.294 0.779,-2.294 h 0.487 v 2.693 h -0.351 v -2.188 l -0.737,2.188 z"
         id="icon_ps_store_text"
         style="stroke-width:0.33333367" />
    </g>
  </g>
</svg>
