<?xml version="1.0" encoding="UTF-8" standalone="no"?>
<!-- Created with Inkscape (http://www.inkscape.org/) -->

<svg
   xmlns:dc="http://purl.org/dc/elements/1.1/"
   xmlns:cc="http://creativecommons.org/ns#"
   xmlns:rdf="http://www.w3.org/1999/02/22-rdf-syntax-ns#"
   xmlns:svg="http://www.w3.org/2000/svg"
   xmlns="http://www.w3.org/2000/svg"
   xmlns:sodipodi="http://sodipodi.sourceforge.net/DTD/sodipodi-0.dtd"
   xmlns:inkscape="http://www.inkscape.org/namespaces/inkscape"
   width="95.897377mm"
   height="14.03075mm"
   viewBox="0 0 95.897374 14.03075"
   version="1.1"
   id="svg669"
   inkscape:version="0.92.0 r15299"
   sodipodi:docname="sony financial holdings.svg">
  <defs
     id="defs663">
    <clipPath
       id="clipPath351"
       clipPathUnits="userSpaceOnUse">
      <path
         inkscape:connector-curvature="0"
         id="path349"
         d="m 167.129,434.56 38.917,-14.164 -11.46,-31.486 -38.917,14.164" />
    </clipPath>
    <clipPath
       id="clipPath365"
       clipPathUnits="userSpaceOnUse">
      <path
         inkscape:connector-curvature="0"
         id="path363"
         d="m 167.12887,434.5605 38.91626,-14.16441 -11.45998,-31.48592 -38.91626,14.16441 z" />
    </clipPath>
    <linearGradient
       id="linearGradient371"
       spreadMethod="pad"
       gradientTransform="matrix(12.439297,4.5275499,-4.5275499,12.439297,107.65838,195.56406)"
       gradientUnits="userSpaceOnUse"
       y2="0"
       x2="1"
       y1="0"
       x1="0">
      <stop
         id="stop367"
         offset="0"
         style="stop-opacity:1;stop-color:#ffffff" />
      <stop
         id="stop369"
         offset="1"
         style="stop-opacity:1;stop-color:#002c69" />
    </linearGradient>
    <clipPath
       id="clipPath321"
       clipPathUnits="userSpaceOnUse">
      <path
         inkscape:connector-curvature="0"
         id="path319"
         d="m 193.862,407.497 -38.305,13.942 10.737,29.498 38.304,-13.942" />
    </clipPath>
    <clipPath
       id="clipPath335"
       clipPathUnits="userSpaceOnUse">
      <path
         inkscape:connector-curvature="0"
         id="path333"
         d="m 193.86235,407.49714 -38.30534,13.94217 10.7366,29.49821 38.30534,-13.94217 z" />
    </clipPath>
    <linearGradient
       id="linearGradient341"
       spreadMethod="pad"
       gradientTransform="matrix(-12.510911,-4.5536555,4.5536555,-12.510911,120.07898,194.7689)"
       gradientUnits="userSpaceOnUse"
       y2="0"
       x2="1"
       y1="0"
       x1="0">
      <stop
         id="stop337"
         offset="0"
         style="stop-opacity:1;stop-color:#ffffff" />
      <stop
         id="stop339"
         offset="1"
         style="stop-opacity:1;stop-color:#006c4e" />
    </linearGradient>
  </defs>
  <sodipodi:namedview
     id="base"
     pagecolor="#ffffff"
     bordercolor="#666666"
     borderopacity="1.0"
     inkscape:pageopacity="0.0"
     inkscape:pageshadow="2"
     inkscape:zoom="2.5009261"
     inkscape:cx="179.33356"
     inkscape:cy="24.625032"
     inkscape:document-units="mm"
     inkscape:current-layer="layer1"
     showgrid="false"
     fit-margin-top="0"
     fit-margin-left="0"
     fit-margin-right="0"
     fit-margin-bottom="0"
     inkscape:window-width="1280"
     inkscape:window-height="744"
     inkscape:window-x="-4"
     inkscape:window-y="-4"
     inkscape:window-maximized="1" />
  <metadata
     id="metadata666">
    <rdf:RDF>
      <cc:Work
         rdf:about="">
        <dc:format>image/svg+xml</dc:format>
        <dc:type
           rdf:resource="http://purl.org/dc/dcmitype/StillImage" />
        <dc:title></dc:title>
      </cc:Work>
    </rdf:RDF>
  </metadata>
  <g
     inkscape:label="Layer 1"
     inkscape:groupmode="layer"
     id="layer1"
     transform="translate(-106.76561,-188.18701)">
    <path
       inkscape:connector-curvature="0"
       id="path243"
       style="fill:#231916;fill-opacity:1;fill-rule:nonzero;stroke:none;stroke-width:0.35277778"
       d="m 125.92592,192.78842 c -0.30727,-0.18627 -0.70944,-0.2981 -1.11054,-0.2981 -0.61631,0 -1.01706,0.42016 -1.01706,0.9712 0,0.41981 0.16757,0.68192 1.10066,1.22343 1.0093,0.57856 1.34373,1.14865 1.34373,1.89583 0,1.03576 -0.6424,1.8482 -1.89335,1.8482 -0.52353,0 -1.01883,-0.11183 -1.36384,-0.27975 v -0.84949 c 0.37218,0.22402 0.85866,0.42016 1.24213,0.42016 0.73695,0 1.15746,-0.49495 1.15746,-1.02694 0,-0.50447 -0.13088,-0.79516 -1.00859,-1.32609 -1.17616,-0.70943 -1.43792,-1.11195 -1.43792,-1.95227 0,-1.0735 0.82232,-1.63371 1.81116,-1.63371 0.43004,0 0.88759,0.0931 1.17616,0.21449" />
    <path
       inkscape:connector-curvature="0"
       id="path247"
       style="fill:#231916;fill-opacity:1;fill-rule:nonzero;stroke:none;stroke-width:0.35277778"
       d="m 126.81349,195.98281 c 0,1.49437 0.6537,2.44616 1.91417,2.44616 1.26048,0 1.91523,-0.95179 1.91523,-2.44616 0,-1.49401 -0.65475,-2.44651 -1.91523,-2.44651 -1.26047,0 -1.91417,0.9525 -1.91417,2.44651 m 0.82197,0 c 0,-1.19451 0.34537,-1.81151 1.0922,-1.81151 0.74683,0 1.09326,0.617 1.09326,1.81151 0,1.19451 -0.34643,1.81116 -1.09326,1.81116 -0.74683,0 -1.0922,-0.61665 -1.0922,-1.81116" />
    <path
       inkscape:connector-curvature="0"
       id="path251"
       style="fill:#231916;fill-opacity:1;fill-rule:nonzero;stroke:none;stroke-width:0.35277778"
       d="m 131.36152,194.62883 c 0,-0.34466 -0.0296,-0.69074 -0.0388,-1.02658 h 0.75742 l 0.0286,0.70908 h 0.0194 c 0.25188,-0.54116 0.65369,-0.77505 1.20297,-0.77505 0.83185,0 1.39312,0.47589 1.39312,1.52259 v 3.30588 h -0.78776 v -3.07305 c 0,-0.75636 -0.27657,-1.08373 -0.78175,-1.08373 -0.61701,0 -1.0093,0.43038 -1.0093,1.28975 v 2.86703 h -0.78387" />
    <path
       inkscape:connector-curvature="0"
       id="path255"
       style="fill:#231916;fill-opacity:1;fill-rule:nonzero;stroke:none;stroke-width:0.35277778"
       d="m 137.16965,199.33561 c -0.23389,0.8128 -0.56974,1.10172 -1.16769,1.10172 -0.18592,0 -0.39194,-0.0187 -0.53164,-0.0564 l 0.0381,-0.71014 c 0.11994,0.0568 0.26035,0.0938 0.42862,0.0938 0.22437,0 0.39265,-0.10301 0.52317,-0.59725 l 0.18662,-0.72849 -1.50248,-4.83658 h 0.81915 l 1.0661,3.88373 h 0.0187 l 0.9899,-3.88373 h 0.78458" />
    <path
       inkscape:connector-curvature="0"
       id="path259"
       style="fill:#231916;fill-opacity:1;fill-rule:nonzero;stroke:none;stroke-width:0.35277778"
       d="m 141.49294,191.84578 h 2.91324 v 0.70979 h -2.09092 v 2.07363 h 1.98932 v 0.70943 h -1.98932 v 3.02613 h -0.82232" />
    <path
       d="m 146.05824,192.77642 h -0.85796 v -0.93416 h 0.85796 z m -0.82092,0.82585 h 0.78388 v 4.76215 h -0.78388 z"
       style="fill:#231916;fill-opacity:1;fill-rule:nonzero;stroke:none;stroke-width:0.35277778"
       id="path261"
       inkscape:connector-curvature="0" />
    <path
       d="m 164.34165,192.77642 h -0.85795 v -0.93416 h 0.85795 z m -0.82091,0.82585 h 0.78458 v 4.76215 h -0.78458 z"
       style="fill:#231916;fill-opacity:1;fill-rule:nonzero;stroke:none;stroke-width:0.35277778"
       id="path263"
       inkscape:connector-curvature="0" />
    <path
       d="m 189.98507,192.77642 h -0.85725 v -0.93416 h 0.85725 z m -0.82056,0.82585 h 0.78457 v 4.76215 h -0.78457 z"
       style="fill:#231916;fill-opacity:1;fill-rule:nonzero;stroke:none;stroke-width:0.35277778"
       id="path265"
       inkscape:connector-curvature="0" />
    <path
       inkscape:connector-curvature="0"
       id="path269"
       style="fill:#231916;fill-opacity:1;fill-rule:nonzero;stroke:none;stroke-width:0.35277778"
       d="m 147.04708,194.62883 c 0,-0.34466 -0.0272,-0.69074 -0.0367,-1.02658 h 0.75777 l 0.0268,0.70908 h 0.0201 c 0.25117,-0.54116 0.65334,-0.77505 1.20438,-0.77505 0.8315,0 1.3903,0.47589 1.3903,1.52259 v 3.30588 h -0.78493 v -3.07305 c 0,-0.75636 -0.2794,-1.08373 -0.78423,-1.08373 -0.61665,0 -1.00824,0.43038 -1.00824,1.28975 v 2.86703 h -0.78528" />
    <path
       inkscape:connector-curvature="0"
       id="path273"
       style="fill:#231916;fill-opacity:1;fill-rule:nonzero;stroke:none;stroke-width:0.35277778"
       d="m 151.63461,194.66624 c 0.26882,-0.29845 0.73695,-0.49459 1.22167,-0.49459 0.32702,0 0.63429,0.0832 0.79481,0.29809 0.14852,0.20602 0.17568,0.41099 0.17568,0.76659 v 0.21378 h -0.45685 c -1.63336,0 -2.24119,0.68227 -2.24119,1.60655 0,0.91546 0.58914,1.37231 1.37336,1.37231 0.72813,0 1.12042,-0.34431 1.33632,-0.70909 h 0.018 l 0.0462,0.64488 h 0.71014 c -0.0191,-0.16863 -0.0381,-0.44838 -0.0381,-0.72884 v -2.48391 c 0,-0.67309 -0.20496,-0.96202 -0.41169,-1.16769 -0.14817,-0.14958 -0.56833,-0.44803 -1.26859,-0.44803 -0.46708,0 -0.95321,0.1397 -1.3462,0.39229 z m 2.19216,1.96144 c 0,0.65335 -0.42898,1.20439 -1.11125,1.20439 -0.54116,0 -0.80292,-0.32738 -0.80292,-0.83185 0,-0.55069 0.44027,-0.98954 1.36454,-0.98954 0.21343,0 0.41099,0 0.54963,0.019" />
    <path
       inkscape:connector-curvature="0"
       id="path277"
       style="fill:#231916;fill-opacity:1;fill-rule:nonzero;stroke:none;stroke-width:0.35277778"
       d="m 155.49893,194.62883 c 0,-0.34466 -0.0286,-0.69074 -0.0367,-1.02658 h 0.756 l 0.0282,0.70908 h 0.0187 c 0.25189,-0.54116 0.65405,-0.77505 1.20439,-0.77505 0.83149,0 1.39276,0.47589 1.39276,1.52259 v 3.30588 h -0.78563 v -3.07305 c 0,-0.75636 -0.28011,-1.08373 -0.78493,-1.08373 -0.6149,0 -1.00824,0.43038 -1.00824,1.28975 v 2.86703 h -0.78458" />
    <path
       inkscape:connector-curvature="0"
       id="path281"
       style="fill:#231916;fill-opacity:1;fill-rule:nonzero;stroke:none;stroke-width:0.35277778"
       d="m 162.6155,194.43235 c -0.27093,-0.14817 -0.54187,-0.22437 -0.90664,-0.22437 -0.76447,0 -1.3081,0.5334 -1.3081,1.82175 0,1.10137 0.52388,1.72826 1.28976,1.72826 0.37394,0 0.69109,-0.1136 0.96061,-0.2533 l 0.0402,0.71967 c -0.23636,0.10266 -0.65476,0.20461 -1.00083,0.20461 -1.41958,0 -2.11138,-1.05481 -2.11138,-2.39924 0,-1.54129 0.80469,-2.49344 2.12972,-2.49344 0.32773,0 0.69109,0.066 0.94227,0.18662" />
    <path
       inkscape:connector-curvature="0"
       id="path285"
       style="fill:#231916;fill-opacity:1;fill-rule:nonzero;stroke:none;stroke-width:0.35277778"
       d="m 165.60249,194.66624 c 0.27093,-0.29845 0.73977,-0.49459 1.22484,-0.49459 0.32632,0 0.63536,0.0832 0.7934,0.29809 0.14887,0.20602 0.17639,0.41099 0.17639,0.76659 v 0.21378 h -0.45791 c -1.633,0 -2.24013,0.68227 -2.24013,1.60655 0,0.91546 0.58843,1.37231 1.3723,1.37231 0.72849,0 1.12113,-0.34431 1.33527,-0.70909 h 0.0176 l 0.0476,0.64488 h 0.71085 c -0.0194,-0.16863 -0.0378,-0.44838 -0.0378,-0.72884 v -2.48391 c 0,-0.67309 -0.20638,-0.96202 -0.40993,-1.16769 -0.14922,-0.14958 -0.57115,-0.44803 -1.26965,-0.44803 -0.46743,0 -0.95461,0.1397 -1.34549,0.39229 z m 2.19463,1.96144 c 0,0.65335 -0.42757,1.20439 -1.11125,1.20439 -0.54116,0 -0.80327,-0.32738 -0.80327,-0.83185 0,-0.55069 0.4392,-0.98954 1.36489,-0.98954 0.2152,0 0.40993,0 0.54963,0.019" />
    <path
       d="m 169.54442,198.36442 h 0.78493 v -6.51933 h -0.78493 z"
       style="fill:#231916;fill-opacity:1;fill-rule:nonzero;stroke:none;stroke-width:0.35277778"
       id="path287"
       inkscape:connector-curvature="0" />
    <path
       inkscape:connector-curvature="0"
       id="path291"
       style="fill:#231916;fill-opacity:1;fill-rule:nonzero;stroke:none;stroke-width:0.35277778"
       d="m 173.55904,191.84578 h 0.82162 v 2.78342 h 2.28071 v -2.78342 h 0.81915 v 6.51898 h -0.81915 v -3.02613 h -2.28071 v 3.02613 h -0.82162" />
    <path
       inkscape:connector-curvature="0"
       id="path295"
       style="fill:#231916;fill-opacity:1;fill-rule:nonzero;stroke:none;stroke-width:0.35277778"
       d="m 178.35046,195.98281 c 0,1.49437 0.65405,2.44616 1.91347,2.44616 1.26118,0 1.91593,-0.95179 1.91593,-2.44616 0,-1.49401 -0.65475,-2.44651 -1.91593,-2.44651 -1.25942,0 -1.91347,0.9525 -1.91347,2.44651 m 0.82197,0 c 0,-1.19451 0.34396,-1.81151 1.0915,-1.81151 0.74789,0 1.0929,0.617 1.0929,1.81151 0,1.19451 -0.34501,1.81116 -1.0929,1.81116 -0.74754,0 -1.0915,-0.61665 -1.0915,-1.81116" />
    <path
       d="m 182.97255,198.36442 h 0.78458 v -6.51933 h -0.78458 z"
       style="fill:#231916;fill-opacity:1;fill-rule:nonzero;stroke:none;stroke-width:0.35277778"
       id="path297"
       inkscape:connector-curvature="0" />
    <path
       inkscape:connector-curvature="0"
       id="path301"
       style="fill:#231916;fill-opacity:1;fill-rule:nonzero;stroke:none;stroke-width:0.35277778"
       d="m 188.21164,191.84578 h -0.78458 v 2.40947 h -0.0194 c -0.31679,-0.50482 -0.67239,-0.71896 -1.21356,-0.71896 -0.98107,0 -1.64465,0.80433 -1.64465,2.44651 0,1.64324 0.66358,2.44581 1.64465,2.44581 0.69145,0 1.04705,-0.39158 1.25131,-0.76482 h 0.0187 l 0.0289,0.70097 h 0.75565 c -0.01,-0.28998 -0.037,-0.58879 -0.037,-0.87877 z m -0.78458,4.13702 c 0,1.19486 -0.32596,1.81117 -1.04669,1.81117 -0.71967,0 -1.04528,-0.61631 -1.04528,-1.81117 0,-1.19415 0.32561,-1.81116 1.04528,-1.81116 0.72073,0 1.04669,0.61701 1.04669,1.81116" />
    <path
       inkscape:connector-curvature="0"
       id="path305"
       style="fill:#231916;fill-opacity:1;fill-rule:nonzero;stroke:none;stroke-width:0.35277778"
       d="m 190.97532,194.62883 c 0,-0.34466 -0.0289,-0.69074 -0.0381,-1.02658 h 0.75777 l 0.0272,0.70908 h 0.019 c 0.25259,-0.54116 0.65405,-0.77505 1.20474,-0.77505 0.82938,0 1.39065,0.47589 1.39065,1.52259 v 3.30588 h -0.78388 v -3.07305 c 0,-0.75636 -0.28081,-1.08373 -0.78422,-1.08373 -0.6163,0 -1.00789,0.43038 -1.00789,1.28975 v 2.86703 h -0.78528" />
    <path
       inkscape:connector-curvature="0"
       id="path309"
       style="fill:#231916;fill-opacity:1;fill-rule:nonzero;stroke:none;stroke-width:0.35277778"
       d="m 198.71703,194.46974 c 0,-0.28998 0.0279,-0.58843 0.0378,-0.86748 h -0.75671 l -0.0279,0.68968 h -0.0187 c -0.26246,-0.4572 -0.69109,-0.75565 -1.16804,-0.75565 -1.06504,0 -1.72756,0.80398 -1.72756,2.44651 0,1.64324 0.66252,2.44616 1.64536,2.44616 0.52281,0 0.94156,-0.2607 1.25024,-0.80292 h 0.0187 v 0.74648 c 0,0.82338 -0.37394,1.39206 -1.33668,1.39206 -0.42897,0 -0.9719,-0.18627 -1.30598,-0.41098 l -0.0377,0.7948 c 0.34608,0.13935 0.98955,0.28858 1.39065,0.28858 1.04528,0 2.03659,-0.54998 2.03659,-1.86761 z m -2.87655,1.51306 c 0,-1.1945 0.32597,-1.81151 1.04634,-1.81151 0.71896,0 1.04634,0.61701 1.04634,1.81151 0,1.19451 -0.32738,1.81116 -1.04634,1.81116 -0.72037,0 -1.04634,-0.61665 -1.04634,-1.81116" />
    <path
       inkscape:connector-curvature="0"
       id="path313"
       style="fill:#231916;fill-opacity:1;fill-rule:nonzero;stroke:none;stroke-width:0.35277778"
       d="m 199.38835,197.44013 c 0.35419,0.21449 0.72813,0.35384 1.12183,0.35384 0.59726,0 0.90453,-0.30798 0.90453,-0.67205 0,-0.32702 -0.16793,-0.55033 -0.60572,-0.74718 l -0.52353,-0.23283 c -0.68333,-0.30833 -0.93345,-0.6163 -0.93345,-1.22344 0,-0.78493 0.60784,-1.38218 1.53106,-1.38218 0.39264,0 0.7366,0.066 1.00859,0.16722 l -0.037,0.6731 c -0.24236,-0.11148 -0.57891,-0.20532 -0.93451,-0.20532 -0.51259,0 -0.78352,0.28011 -0.78352,0.65335 0,0.38311 0.28117,0.59866 0.80187,0.80292 l 0.28081,0.11253 c 0.57926,0.23354 0.94368,0.62583 0.94368,1.21391 0,0.82197 -0.43956,1.47497 -1.53247,1.47497 -0.49389,0 -0.94192,-0.10196 -1.28764,-0.2794" />
    <path
       inkscape:connector-curvature="0"
       id="path343"
       style="fill:url(#linearGradient341);stroke:none;stroke-width:0.35277778"
       d="m 112.8615,189.03979 c -2.82434,0.82479 -5.80708,3.14854 -5.58412,5.13327 0.18944,1.67781 3.12173,1.07456 6.096,0.4706 3.0607,-0.62054 6.16655,-1.24178 6.37681,0.62195 v -2.49449 c 0,-1.43369 -0.74754,-2.73932 -1.83127,-3.41948 -0.6731,-0.42227 -1.61255,-0.66463 -2.69593,-0.66463 -0.73378,0 -1.53352,0.11112 -2.36149,0.35278" />
    <path
       inkscape:connector-curvature="0"
       id="path373"
       style="fill:url(#linearGradient371);stroke:none;stroke-width:0.35277778"
       d="m 113.44817,195.09028 c -2.97145,0.61877 -5.90374,1.23719 -6.09318,-0.44027 v 3.91583 c 0,2.43558 3.36585,3.85904 6.92432,2.794 3.46075,-1.03716 5.71994,-3.79271 5.52168,-5.67725 -0.0967,-0.92463 -0.90699,-1.23472 -2.07151,-1.23472 -1.18569,0 -2.73826,0.32138 -4.28131,0.64241" />
  </g>
</svg>
