<?xml version="1.0" encoding="UTF-8" standalone="no"?>
<svg
   xmlns:dc="http://purl.org/dc/elements/1.1/"
   xmlns:cc="http://creativecommons.org/ns#"
   xmlns:rdf="http://www.w3.org/1999/02/22-rdf-syntax-ns#"
   xmlns:svg="http://www.w3.org/2000/svg"
   xmlns="http://www.w3.org/2000/svg"
   xmlns:sodipodi="http://sodipodi.sourceforge.net/DTD/sodipodi-0.dtd"
   xmlns:inkscape="http://www.inkscape.org/namespaces/inkscape"
   xml:space="preserve"
   viewBox="0 0 999.99997 363.772"
   height="363.772"
   width="1000"
   y="0px"
   x="0px"
   id="logo"
   version="1.1"
   inkscape:version="0.91 r13725"
   sodipodi:docname="Sony_Interactive_Entertainment.svg"><sodipodi:namedview
     pagecolor="#ffffff"
     bordercolor="#666666"
     borderopacity="1"
     objecttolerance="10"
     gridtolerance="10"
     guidetolerance="10"
     inkscape:pageopacity="0"
     inkscape:pageshadow="2"
     inkscape:window-width="1366"
     inkscape:window-height="705"
     id="namedview75"
     showgrid="false"
     inkscape:zoom="0.35355339"
     inkscape:cx="256.40085"
     inkscape:cy="259.2805"
     inkscape:window-x="-8"
     inkscape:window-y="-8"
     inkscape:window-maximized="1"
     inkscape:current-layer="logo" /><metadata
     id="metadata40334"><rdf:RDF><cc:Work
         rdf:about=""><dc:format>image/svg+xml</dc:format><dc:type
           rdf:resource="http://purl.org/dc/dcmitype/StillImage" /><dc:title></dc:title></cc:Work></rdf:RDF></metadata><defs
     id="defs40332"><clipPath
       id="clip259"><path
         id="path26534"
         d="m 2173,331 2.6641,0 0,5 -2.6641,0 z m 0,0"
         inkscape:connector-curvature="0" /></clipPath></defs><g
     transform="matrix(8.9847259,0,0,8.9847259,0,4.3829693)"
     id="XMLID_2566_"><g
       transform="matrix(1.0121944,0,0,1.0121944,0,-0.48777634)"
       id="XMLID_2700_"><g
         id="XMLID_2701_"><g
           id="XMLID_2702_"><g
             id="XMLID_2703_"><g
               id="XMLID_2704_"><g
                 id="XMLID_2705_"><linearGradient
                   gradientTransform="translate(-1140.1382,16.7252)"
                   y2="3.2748001"
                   x2="1180.1378"
                   y1="3.2748001"
                   x1="1140.1382"
                   gradientUnits="userSpaceOnUse"
                   id="XMLID_2_"><stop
                     id="stop40248"
                     style="stop-color:#E7380D"
                     offset="0" /><stop
                     id="stop40250"
                     style="stop-color:#E7380D"
                     offset="2.000000e-02" /><stop
                     id="stop40252"
                     style="stop-color:#E8410C"
                     offset="7.511782e-02" /><stop
                     id="stop40254"
                     style="stop-color:#EC590A"
                     offset="0.1651" /><stop
                     id="stop40256"
                     style="stop-color:#F18107"
                     offset="0.2786" /><stop
                     id="stop40258"
                     style="stop-color:#F9B703"
                     offset="0.41" /><stop
                     id="stop40260"
                     style="stop-color:#FFE100"
                     offset="0.5" /><stop
                     id="stop40262"
                     style="stop-color:#F9B703"
                     offset="0.59" /><stop
                     id="stop40264"
                     style="stop-color:#F18107"
                     offset="0.7214" /><stop
                     id="stop40266"
                     style="stop-color:#EC590A"
                     offset="0.8349" /><stop
                     id="stop40268"
                     style="stop-color:#E8410C"
                     offset="0.9249" /><stop
                     id="stop40270"
                     style="stop-color:#E7380D"
                     offset="0.98" /><stop
                     id="stop40272"
                     style="stop-color:#E7380D"
                     offset="1" /></linearGradient><polygon
                   points="40,20 20,0 0,20 20,40 "
                   style="fill:url(#XMLID_2_)"
                   id="XMLID_2708_" /><linearGradient
                   gradientTransform="translate(-1140.1382,16.5269)"
                   y2="-3.5228"
                   x2="1153.3107"
                   y1="-3.5228"
                   x1="1163.9911"
                   gradientUnits="userSpaceOnUse"
                   id="XMLID_3_"><stop
                     id="stop40276"
                     style="stop-color:#FFDD00"
                     offset="0.2" /><stop
                     id="stop40278"
                     style="stop-color:#FDCA02"
                     offset="0.2824" /><stop
                     id="stop40280"
                     style="stop-color:#F79A05"
                     offset="0.4488" /><stop
                     id="stop40282"
                     style="stop-color:#EE4E0C"
                     offset="0.6813" /><stop
                     id="stop40284"
                     style="stop-color:#E50012"
                     offset="0.9" /></linearGradient><polygon
                   points="21.1,21.1 21.1,4.9 13,13 "
                   style="fill:url(#XMLID_3_)"
                   id="XMLID_2707_" /><linearGradient
                   gradientTransform="matrix(-1,0,0,-1,-5179.8062,-6955.6738)"
                   y2="-6982.6733"
                   x2="-5206.6196"
                   y1="-6982.6733"
                   x1="-5195.939"
                   gradientUnits="userSpaceOnUse"
                   id="XMLID_4_"><stop
                     id="stop40288"
                     style="stop-color:#FFDD00"
                     offset="0.2" /><stop
                     id="stop40290"
                     style="stop-color:#FDCA02"
                     offset="0.2824" /><stop
                     id="stop40292"
                     style="stop-color:#F79A05"
                     offset="0.4488" /><stop
                     id="stop40294"
                     style="stop-color:#EE4E0C"
                     offset="0.6813" /><stop
                     id="stop40296"
                     style="stop-color:#E50012"
                     offset="0.9" /></linearGradient><polygon
                   points="18.9,18.9 18.9,35.1 27,27 "
                   style="fill:url(#XMLID_4_)"
                   id="XMLID_2706_" /></g></g></g></g></g></g><g
       id="XMLID_2567_"><g
         id="g40300"><g
           transform="matrix(1.0121944,0,0,1.0121944,0.03344961,0.32212924)"
           id="g41082"><path
             style="fill:#002b69;fill-opacity:1;fill-rule:nonzero;stroke:none"
             d="m 51.619447,7.0471784 c -0.237196,-0.082735 -0.479906,-0.1489091 -0.727968,-0.193031 -0.242709,-0.044052 -0.485407,-0.066225 -0.722604,-0.066225 -0.154325,0 -0.303275,0.016525 -0.452236,0.044052 -0.148813,0.03305 -0.281249,0.082736 -0.391511,0.1489128 -0.110126,0.066221 -0.19851,0.1544174 -0.264735,0.270236 -0.07195,0.1157741 -0.104481,0.2481953 -0.104481,0.4081358 0,0.1267871 0.02259,0.2426611 0.07195,0.3419289 0.04371,0.099253 0.121423,0.198554 0.226047,0.2867979 0.11013,0.093752 0.24821,0.1764876 0.413685,0.2647313 0.170975,0.088248 0.374997,0.182007 0.623208,0.2812747 0.286749,0.1102771 0.545972,0.2316373 0.78317,0.3639992 0.231551,0.1267877 0.43571,0.2702507 0.601181,0.4301917 0.165338,0.159936 0.286761,0.336424 0.375001,0.5460063 0.08335,0.204058 0.127068,0.44672 0.127068,0.71697 0,0.325397 -0.06631,0.61218 -0.192997,0.854856 -0.13272,0.242665 -0.308787,0.441215 -0.529459,0.595636 -0.226185,0.154432 -0.485274,0.270247 -0.766657,0.347467 -0.28676,0.07172 -0.579022,0.110262 -0.876933,0.110262 -0.30327,0 -0.628708,-0.02754 -0.987191,-0.08825 -0.352972,-0.06071 -0.694934,-0.154421 -1.020231,-0.286783 l 0.226047,-0.904501 c 0.303412,0.137941 0.612195,0.237157 0.921119,0.297826 0.308775,0.06071 0.590021,0.09375 0.838234,0.09375 0.402668,0 0.716957,-0.07722 0.948653,-0.237153 0.231685,-0.15994 0.347458,-0.397097 0.347458,-0.705946 0,-0.143409 -0.02687,-0.275771 -0.09318,-0.391589 -0.06077,-0.110262 -0.154462,-0.220605 -0.275736,-0.314358 -0.121424,-0.09925 -0.275749,-0.193031 -0.457882,-0.2812743 -0.1875,-0.09375 -0.397022,-0.182007 -0.63422,-0.275759 C 49.342998,9.5950797 49.094788,9.4736937 48.879761,9.3468517 48.659077,9.2200647 48.47709,9.0766005 48.328276,8.9221832 48.179319,8.7622427 48.063541,8.5912634 47.980806,8.3982288 47.89745,8.2052126 47.859382,7.9901077 47.859382,7.7529549 c 0,-0.3143578 0.06631,-0.590128 0.198659,-0.8272697 0.127071,-0.237153 0.303274,-0.4301876 0.518301,-0.5846198 0.215171,-0.1489127 0.457881,-0.2647313 0.722604,-0.3364243 0.264736,-0.071726 0.540473,-0.104765 0.832734,-0.104765 0.30892,0 0.612195,0.022033 0.904457,0.066225 0.292406,0.044052 0.55713,0.1047612 0.799695,0.1930309 z m 0,0"
             id="path36447"
             inkscape:connector-curvature="0" /><path
             style="fill:#002b69;fill-opacity:1;fill-rule:nonzero;stroke:none"
             d="m 56.820286,10.212905 c 0,-0.2592083 -0.02687,-0.4963613 -0.08335,-0.7059433 C 56.687566,9.2918757 56.604213,9.1043455 56.49422,8.9444086 56.38409,8.7899875 56.24601,8.6686496 56.080535,8.5804058 55.909696,8.4976708 55.71105,8.4536187 55.479501,8.4536187 c -0.231696,0 -0.43571,0.044052 -0.601185,0.1267871 -0.170982,0.088252 -0.30892,0.21509 -0.419193,0.3695222 -0.110129,0.1599368 -0.193001,0.3474527 -0.242699,0.5570337 -0.05501,0.215087 -0.08336,0.446735 -0.08336,0.7059433 0,0.529459 0.110129,0.954127 0.33645,1.279528 0.220683,0.325396 0.55713,0.490856 1.009365,0.496364 0.452221,-0.0056 0.788679,-0.170968 1.009218,-0.490845 0.220673,-0.325397 0.330946,-0.750065 0.330946,-1.285047 m 1.06993,0 c 0,0.402617 -0.055,0.766616 -0.170986,1.080988 -0.110125,0.319878 -0.275733,0.590114 -0.479759,0.816242 -0.215171,0.220606 -0.463382,0.397094 -0.761144,0.512909 -0.297774,0.115774 -0.62872,0.176487 -0.998205,0.176487 -0.375144,0 -0.705946,-0.06071 -1.003853,-0.176487 -0.297772,-0.115775 -0.551484,-0.292303 -0.755509,-0.512909 -0.215171,-0.226128 -0.375134,-0.496364 -0.485408,-0.816242 -0.110128,-0.314372 -0.170975,-0.678371 -0.170975,-1.080988 0,-0.4026133 0.06066,-0.7610923 0.170975,-1.08097 0.11013,-0.3198921 0.270237,-0.590128 0.485408,-0.8107375 0.204025,-0.2206057 0.457737,-0.3860656 0.75551,-0.5018841 0.297907,-0.1212789 0.628709,-0.182007 1.003853,-0.182007 0.369485,0 0.700431,0.060713 0.998205,0.1764876 0.297762,0.1157741 0.545973,0.2812784 0.761144,0.5018841 0.204026,0.2206095 0.369497,0.4963648 0.479759,0.8162569 0.115777,0.3198777 0.170986,0.6783567 0.170986,1.08097"
             id="path36449"
             inkscape:connector-curvature="0" /><path
             style="fill:#002b69;fill-opacity:1;fill-rule:nonzero;stroke:none"
             d="m 59.936326,7.7531249 0,0.6893958 0.01694,0 c 0.138361,-0.2536851 0.347459,-0.4522392 0.617694,-0.5956326 0.275749,-0.1379405 0.579156,-0.2095817 0.915614,-0.2095817 0.545973,0 0.987195,0.1654599 1.307128,0.4853371 0.330802,0.3254003 0.490775,0.7610962 0.490775,1.3126222 l 0,3.2539703 -1.069931,0 0,-2.8513583 c 0,-0.215101 -0.01694,-0.408132 -0.04383,-0.584619 -0.03253,-0.170965 -0.08754,-0.3198778 -0.170837,-0.4356964 -0.08336,-0.1212788 -0.187645,-0.2095817 -0.319933,-0.2702507 -0.132717,-0.066221 -0.297774,-0.093748 -0.507433,-0.093748 -0.148961,0 -0.297774,0.027542 -0.441223,0.082736 -0.143301,0.055202 -0.270235,0.1433934 -0.38601,0.259212 -0.110125,0.1212788 -0.204158,0.2757701 -0.275737,0.4632822 -0.07207,0.193034 -0.10448,0.424668 -0.10448,0.700423 l 0,2.7300312 -1.069928,0 0,-4.9361073 z m 0,0"
             id="path36451"
             inkscape:connector-curvature="0" /><path
             style="fill:#002b69;fill-opacity:1;fill-rule:nonzero;stroke:none"
             d="m 66.427767,11.387642 0.02259,0 1.318141,-3.6400216 1.12514,0 -2.691491,6.7616256 -1.125129,0 0.799695,-1.924801 -1.94686,-4.8368246 1.169324,0 z m 0,0"
             id="path36453"
             inkscape:connector-curvature="0" /><path
             style="fill:#002b69;fill-opacity:1;fill-rule:nonzero;stroke:none"
             d="m 48.155936,15.860467 1.097469,0 0,6.678901 -1.097469,0 z m 0,0"
             id="path36455"
             inkscape:connector-curvature="0" /><path
             style="fill:#002b69;fill-opacity:1;fill-rule:nonzero;stroke:none"
             d="m 51.696674,17.597753 0,0.694919 0.01694,0 c 0.138366,-0.253704 0.347471,-0.452258 0.617707,-0.595648 0.275737,-0.1378 0.579159,-0.209581 0.91547,-0.209581 0.54612,0 0.987327,0.16546 1.312628,0.485336 0.325445,0.325401 0.485408,0.761108 0.485408,1.312623 l 0,3.253966 -1.069931,0 0,-2.851354 c 0,-0.215101 -0.01694,-0.408121 -0.04371,-0.584605 -0.03254,-0.170983 -0.08754,-0.319895 -0.170971,-0.43571 -0.08336,-0.121283 -0.187501,-0.209582 -0.3198,-0.270236 -0.127071,-0.06622 -0.29791,-0.09375 -0.507433,-0.09375 -0.148949,0 -0.292399,0.02754 -0.441211,0.08274 -0.14345,0.0552 -0.270237,0.143405 -0.380646,0.259223 -0.115775,0.121283 -0.209523,0.275756 -0.275748,0.463271 -0.07195,0.193031 -0.110126,0.424668 -0.110126,0.700435 l 0,2.730019 -1.069931,0 0,-4.941615 z m 0,0"
             id="path36457"
             inkscape:connector-curvature="0" /><path
             style="fill:#002b69;fill-opacity:1;fill-rule:nonzero;stroke:none"
             d="m 55.849608,17.597753 0.827232,0 0,-1.279524 1.069928,0 0,1.279524 1.086592,0 0,0.816242 -1.086592,0 0,2.581117 c 0,0.16546 0,0.303331 0.02259,0.408122 0.01412,0.09926 0.03807,0.182006 0.08335,0.237157 0.04372,0.05519 0.10448,0.09374 0.176488,0.110273 0.07771,0.02203 0.181988,0.03305 0.314287,0.03305 0.08754,0 0.176488,-0.0056 0.253711,-0.01127 0.0776,-0.0056 0.154462,-0.01652 0.231697,-0.02754 l 0,0.794187 c -0.104481,0.01131 -0.231697,0.02203 -0.375146,0.03305 -0.143301,0.01652 -0.286749,0.02203 -0.43571,0.02203 -0.286747,0 -0.518299,-0.03305 -0.689282,-0.09375 -0.176482,-0.06072 -0.314418,-0.154443 -0.408168,-0.27578 -0.09883,-0.121283 -0.159973,-0.270236 -0.193012,-0.44122 -0.03254,-0.170964 -0.04936,-0.369518 -0.04936,-0.590128 l 0,-2.779656 -0.827218,0 z m 0,0"
             id="path36459"
             inkscape:connector-curvature="0" /><path
             style="fill:#002b69;fill-opacity:1;fill-rule:nonzero;stroke:none"
             d="m 61.85014,18.254058 c -0.375,0 -0.678408,0.126928 -0.909957,0.369519 -0.226188,0.24818 -0.35862,0.568072 -0.408184,0.970674 l 2.470808,0 0,-0.02203 c 0,-0.397094 -0.09319,-0.716986 -0.303412,-0.954128 C 62.489873,18.375418 62.208624,18.25408 61.85014,18.25408 m -1.318141,2.123355 c 0.03806,0.46879 0.215035,0.827285 0.518446,1.08097 0.308787,0.253704 0.700443,0.380561 1.180205,0.380561 0.209659,0 0.424693,-0.02203 0.645233,-0.05521 0.220672,-0.03305 0.424697,-0.08274 0.612194,-0.154418 l 0.143449,0.794187 c -0.430209,0.154418 -0.926482,0.226115 -1.494624,0.226115 -0.424698,0 -0.799695,-0.0607 -1.130645,-0.19302 -0.330809,-0.126928 -0.612194,-0.303345 -0.838242,-0.52946 -0.226188,-0.231648 -0.397159,-0.501884 -0.512934,-0.816256 -0.115778,-0.31437 -0.170987,-0.656302 -0.170987,-1.03134 0,-0.375027 0.055,-0.722494 0.165475,-1.036851 0.110125,-0.319893 0.264735,-0.595647 0.474258,-0.821762 0.204158,-0.231648 0.452224,-0.413641 0.74463,-0.540501 0.292262,-0.126788 0.617696,-0.193031 0.981683,-0.193031 0.358484,0 0.667259,0.06071 0.931994,0.170979 0.264725,0.115774 0.490909,0.281275 0.672904,0.490842 0.181989,0.209582 0.314425,0.463286 0.408173,0.766615 0.08754,0.303345 0.132717,0.63425 0.132717,1.003769 l 0,0.457762 z m 0,0"
             id="path36461"
             inkscape:connector-curvature="0" /><path
             style="fill:#002b69;fill-opacity:1;fill-rule:nonzero;stroke:none"
             d="m 67.646659,18.342298 c -0.10448,-0.02754 -0.242709,-0.03854 -0.402672,-0.03854 -0.143448,-0.0056 -0.292262,0.01653 -0.44672,0.07724 -0.159973,0.06071 -0.292261,0.154417 -0.39717,0.275755 -0.104481,0.126787 -0.193002,0.292303 -0.253578,0.507393 -0.06066,0.209578 -0.09318,0.457762 -0.09318,0.739036 l 0,2.636268 -1.069932,0 0,-4.936091 1.042405,0 0,0.650781 0.01693,0 c 0.226185,-0.512911 0.656383,-0.766615 1.296116,-0.766615 0.04936,0 0.10448,0 0.170976,0.0056 0.06066,0.0056 0.121419,0.0056 0.187496,0.01652 z m 0,0"
             id="path36463"
             inkscape:connector-curvature="0" /><path
             style="fill:#002b69;fill-opacity:1;fill-rule:nonzero;stroke:none"
             d="m 70.867461,20.145776 c -0.253722,0 -0.490919,0.01131 -0.722468,0.03305 -0.231684,0.02754 -0.43571,0.07723 -0.612198,0.148913 -0.170972,0.07172 -0.314421,0.17098 -0.413681,0.286797 -0.104481,0.121279 -0.159963,0.281275 -0.159963,0.474311 0,0.237141 0.07195,0.424668 0.209659,0.562537 0.138366,0.143405 0.341963,0.215102 0.617708,0.215102 0.220539,0 0.413536,-0.03868 0.579011,-0.115775 0.165475,-0.07172 0.297911,-0.170979 0.402671,-0.297825 0.104481,-0.121279 0.182,-0.264728 0.231697,-0.424668 0.04936,-0.159937 0.07206,-0.325396 0.07206,-0.501885 l 0,-0.380546 z m 0.204014,-0.821761 c 0,-0.33092 -0.09319,-0.584619 -0.281248,-0.761108 -0.187501,-0.170964 -0.479763,-0.259208 -0.871418,-0.259208 -0.176487,0 -0.375001,0.02203 -0.606687,0.06621 -0.226047,0.0497 -0.446719,0.115774 -0.661757,0.204073 l -0.215172,-0.794185 c 0.170987,-0.07172 0.408184,-0.13794 0.711592,-0.198553 0.308787,-0.06071 0.590035,-0.09375 0.849259,-0.09375 0.705946,0 1.240903,0.154432 1.60489,0.463282 0.358484,0.308854 0.540473,0.766615 0.540473,1.373291 l 0,2.090247 c 0,0.176483 0,0.364013 0.01693,0.573576 0.01694,0.204077 0.03806,0.386069 0.07206,0.551529 l -0.954009,0 c -0.02259,-0.08825 -0.04371,-0.193034 -0.06066,-0.319876 -0.02259,-0.121283 -0.03253,-0.242677 -0.04947,-0.352976 l -0.01694,0 c -0.127068,0.231637 -0.314288,0.419148 -0.57351,0.562543 -0.259223,0.148912 -0.568144,0.220605 -0.926627,0.220605 -0.215027,0 -0.424698,-0.02754 -0.628708,-0.07723 -0.198514,-0.0552 -0.386014,-0.143409 -0.545984,-0.264731 -0.165475,-0.12128 -0.292262,-0.275771 -0.39716,-0.468791 -0.09883,-0.19303 -0.148813,-0.430188 -0.148813,-0.705943 0,-0.352971 0.08335,-0.645292 0.253711,-0.865898 0.170983,-0.226114 0.402535,-0.397094 0.689285,-0.518416 0.292406,-0.121283 0.623208,-0.204063 1.003853,-0.248184 0.374997,-0.04405 0.772168,-0.06621 1.196719,-0.06621 z m 0,0"
             id="path36465"
             inkscape:connector-curvature="0" /><path
             style="fill:#002b69;fill-opacity:1;fill-rule:nonzero;stroke:none"
             d="m 76.619784,18.480184 c -0.138366,-0.06071 -0.286761,-0.104762 -0.441223,-0.137942 -0.159958,-0.02754 -0.303271,-0.03854 -0.441207,-0.03854 -0.259223,0 -0.485275,0.04406 -0.678272,0.137944 -0.198658,0.09375 -0.364132,0.220606 -0.496421,0.380546 -0.132717,0.159937 -0.231696,0.347452 -0.297774,0.562539 -0.07206,0.22061 -0.104479,0.452258 -0.104479,0.694919 0,0.242676 0.0339,0.46879 0.104479,0.683891 0.06631,0.209567 0.165338,0.397094 0.297774,0.557033 0.132717,0.165457 0.303275,0.292303 0.507433,0.380547 0.209523,0.09374 0.435707,0.137941 0.683774,0.137941 0.154458,0 0.308919,-0.01652 0.452368,-0.03869 0.143312,-0.02754 0.292261,-0.07172 0.441222,-0.143389 l 0.176485,0.805214 c -0.187645,0.07172 -0.375146,0.115774 -0.562642,0.148912 -0.187501,0.02754 -0.380499,0.03854 -0.573511,0.03854 -0.424698,0 -0.799695,-0.06621 -1.130641,-0.198543 -0.325437,-0.126787 -0.601185,-0.308849 -0.816209,-0.540483 -0.215171,-0.231648 -0.380645,-0.501884 -0.485407,-0.810737 -0.110129,-0.314369 -0.165475,-0.650798 -0.165475,-1.020315 0,-0.380547 0.06066,-0.727999 0.176488,-1.042372 0.121423,-0.314369 0.292395,-0.584604 0.512934,-0.816242 0.220684,-0.226125 0.496421,-0.402612 0.810708,-0.534978 0.319933,-0.132292 0.683917,-0.198554 1.092101,-0.198554 0.441211,0 0.821721,0.06072 1.141654,0.176487 z m 0,0"
             id="path36467"
             inkscape:connector-curvature="0" /><path
             style="fill:#002b69;fill-opacity:1;fill-rule:nonzero;stroke:none"
             d="m 77.375427,17.597753 0.827222,0 0,-1.279524 1.069931,0 0,1.279524 1.086589,0 0,0.816242 -1.086589,0 0,2.581117 c 0,0.16546 0,0.303331 0.02259,0.408122 0.01413,0.09926 0.03807,0.182006 0.08324,0.237157 0.04371,0.05519 0.09883,0.09374 0.176488,0.110273 0.07771,0.02203 0.182132,0.03305 0.314432,0.03305 0.08754,0 0.176487,-0.0056 0.253711,-0.01127 0.07759,-0.0056 0.154461,-0.01652 0.231696,-0.02754 l 0,0.794187 c -0.110125,0.01131 -0.231696,0.02203 -0.375145,0.03305 -0.143301,0.01652 -0.28675,0.02203 -0.435707,0.02203 -0.286749,0 -0.518447,-0.03305 -0.689285,-0.09375 -0.176488,-0.06072 -0.314424,-0.154433 -0.408173,-0.27577 -0.09883,-0.121283 -0.159973,-0.270237 -0.193012,-0.44122 -0.0339,-0.170964 -0.04935,-0.369518 -0.04935,-0.590128 l 0,-2.779657 -0.827222,0 z m 0,0"
             id="path36469"
             inkscape:connector-curvature="0" /><path
             style="fill:#002b69;fill-opacity:1;fill-rule:nonzero;stroke:none"
             d="m 82.416291,22.539368 -1.06993,0 0,-4.936092 1.06993,0 z m 0.02259,-5.835074 -1.097457,0 0,-0.99274 1.097457,0 z m 0,0"
             id="path36471"
             inkscape:connector-curvature="0" /><path
             style="fill:#002b69;fill-opacity:1;fill-rule:nonzero;stroke:none"
             d="m 85.664768,21.596269 0.01694,0 1.31264,-3.992993 1.136141,0 -1.8531,4.936092 -1.252064,0 -1.83645,-4.936092 1.163678,0 z m 0,0"
             id="path36473"
             inkscape:connector-curvature="0" /><path
             style="fill:#002b69;fill-opacity:1;fill-rule:nonzero;stroke:none"
             d="m 90.788382,18.254058 c -0.375,0 -0.678419,0.126928 -0.904455,0.369519 -0.231701,0.24818 -0.364133,0.568072 -0.413686,0.970674 l 2.470808,0 0,-0.02203 c 0,-0.397094 -0.09319,-0.716986 -0.303423,-0.954128 -0.209522,-0.242675 -0.490771,-0.364013 -0.849244,-0.364013 m -1.318141,2.123355 c 0.04371,0.46879 0.215024,0.827285 0.518446,1.08097 0.308776,0.253704 0.700432,0.380561 1.180194,0.380561 0.209522,0 0.424694,-0.02203 0.645233,-0.05521 0.226185,-0.03305 0.424698,-0.08274 0.612195,-0.154418 l 0.143448,0.794187 c -0.430198,0.154418 -0.926618,0.226115 -1.494628,0.226115 -0.424694,0 -0.799691,-0.0607 -1.130641,-0.19302 -0.330945,-0.126928 -0.612195,-0.303345 -0.838231,-0.52946 -0.226188,-0.231648 -0.397171,-0.501884 -0.512945,-0.816256 -0.115778,-0.31437 -0.170976,-0.656302 -0.170976,-1.03134 0,-0.375027 0.055,-0.722494 0.165475,-1.036851 0.110126,-0.319893 0.264724,-0.595647 0.474247,-0.821762 0.204158,-0.231648 0.452235,-0.413641 0.74463,-0.540501 0.292261,-0.126788 0.617707,-0.193031 0.981694,-0.193031 0.358473,0 0.667259,0.06071 0.931984,0.170979 0.264735,0.115774 0.490919,0.281275 0.672904,0.490842 0.181999,0.209582 0.314435,0.463286 0.408183,0.766615 0.08754,0.303345 0.132717,0.63425 0.132717,1.003769 l 0,0.457762 z m 0,0"
             id="path36475"
             inkscape:connector-curvature="0" /><path
             style="fill:#002b69;fill-opacity:1;fill-rule:nonzero;stroke:none"
             d="m 48.155936,25.710598 3.860539,0 0,0.887954 -2.76307,0 0,1.91928 2.548031,0 0,0.898979 -2.548031,0 0,2.084753 2.845805,0 0,0.887938 -3.943274,0 z m 0,0"
             id="path36477"
             inkscape:connector-curvature="0" /><path
             style="fill:#002b69;fill-opacity:1;fill-rule:nonzero;stroke:none"
             d="m 54.294269,27.453408 0,0.689397 0.01694,0 c 0.138366,-0.253702 0.347471,-0.452241 0.623207,-0.595649 0.275885,-0.137799 0.57916,-0.209567 0.910106,-0.209567 0.551485,0 0.987191,0.165445 1.312639,0.485339 0.325301,0.325398 0.490772,0.761093 0.490772,1.312606 l 0,3.253968 -1.06993,0 0,-2.851353 c 0,-0.215088 -0.01694,-0.408122 -0.04947,-0.584608 -0.0339,-0.170979 -0.08754,-0.319878 -0.170987,-0.435709 -0.07771,-0.121281 -0.187634,-0.209568 -0.314421,-0.270235 -0.132717,-0.06623 -0.303275,-0.09375 -0.507433,-0.09375 -0.154325,0 -0.297773,0.02753 -0.441223,0.08274 -0.143301,0.0552 -0.275737,0.143392 -0.38601,0.259208 -0.115774,0.121282 -0.20401,0.275758 -0.275737,0.46327 -0.07206,0.193034 -0.110125,0.424683 -0.110125,0.700439 l 0,2.730016 -1.070079,0 0,-4.936093 z m 0,0"
             id="path36479"
             inkscape:connector-curvature="0" /><path
             style="fill:#002b69;fill-opacity:1;fill-rule:nonzero;stroke:none"
             d="m 58.452714,27.453408 0.827366,0 0,-1.285047 1.06993,0 0,1.285047 1.086446,0 0,0.810736 -1.086446,0 0,2.581103 c 0,0.16546 0,0.303345 0.01694,0.408121 0.01412,0.09926 0.03807,0.182007 0.08336,0.237155 0.04371,0.0552 0.104477,0.09375 0.181984,0.110274 0.07207,0.02202 0.176489,0.03304 0.308924,0.03304 0.09318,0 0.176484,-0.0056 0.253574,-0.01129 0.08335,-0.0056 0.159974,-0.01653 0.231697,-0.02753 l 0,0.794189 c -0.104481,0.01129 -0.231697,0.02202 -0.374998,0.03304 -0.143448,0.01652 -0.286761,0.02202 -0.43021,0.02202 -0.286749,0 -0.518445,-0.03304 -0.694929,-0.09374 -0.176488,-0.06072 -0.314425,-0.154433 -0.408173,-0.275756 -0.09883,-0.121281 -0.159826,-0.27025 -0.193013,-0.441216 -0.02687,-0.170979 -0.04371,-0.369519 -0.04371,-0.590128 l 0,-2.779658 -0.827366,0 z m 0,0"
             id="path36481"
             inkscape:connector-curvature="0" /><path
             style="fill:#002b69;fill-opacity:1;fill-rule:nonzero;stroke:none"
             d="m 64.447735,28.104205 c -0.374997,0 -0.678272,0.126788 -0.904456,0.369505 -0.231685,0.248197 -0.363988,0.568075 -0.408173,0.970674 l 2.465296,0 0,-0.02202 c 0,-0.397093 -0.09319,-0.716971 -0.303276,-0.954127 -0.209522,-0.242675 -0.490908,-0.363999 -0.849391,-0.363999 m -1.312629,2.123342 c 0.03806,0.468788 0.209659,0.827283 0.518446,1.080984 0.303408,0.253689 0.700431,0.380548 1.180341,0.380548 0.204011,0 0.419049,-0.02202 0.645233,-0.0552 0.220536,-0.03304 0.424694,-0.08274 0.612195,-0.154433 l 0.138366,0.794188 c -0.430063,0.154432 -0.926482,0.226128 -1.488981,0.226128 -0.424697,0 -0.805339,-0.06621 -1.136151,-0.193033 -0.33095,-0.126929 -0.612195,-0.303346 -0.832871,-0.529459 -0.226048,-0.231635 -0.397024,-0.501885 -0.512945,-0.816257 -0.115775,-0.314356 -0.176485,-0.656303 -0.176485,-1.031342 0,-0.375026 0.055,-0.722479 0.165472,-1.036851 0.110128,-0.319877 0.270235,-0.595648 0.474398,-0.821761 0.209523,-0.231634 0.457733,-0.413643 0.744493,-0.540485 0.292262,-0.126928 0.617696,-0.193035 0.981684,-0.193035 0.358483,0 0.667403,0.06072 0.932127,0.170969 0.270236,0.115773 0.490775,0.281275 0.672771,0.490856 0.182137,0.209566 0.314424,0.463268 0.408172,0.766612 0.08754,0.303331 0.138366,0.634236 0.138366,1.003756 l 0,0.457763 z m 0,0"
             id="path36483"
             inkscape:connector-curvature="0" /><path
             style="fill:#002b69;fill-opacity:1;fill-rule:nonzero;stroke:none"
             d="m 70.244253,28.186926 c -0.104479,-0.02202 -0.237196,-0.03304 -0.402671,-0.03304 -0.143312,-0.0056 -0.292262,0.01651 -0.44672,0.07723 -0.159826,0.06072 -0.292262,0.154418 -0.397023,0.275756 -0.10448,0.126929 -0.193012,0.292304 -0.253722,0.507406 -0.06076,0.209566 -0.09319,0.457762 -0.09319,0.739024 l 0,2.636268 -1.069931,0 0,-4.936096 1.042404,0 0,0.650797 0.01694,0 c 0.22604,-0.512924 0.661747,-0.766612 1.295968,-0.766612 0.04936,0 0.10448,0 0.170986,0.0056 0.06077,0.0056 0.121423,0.0056 0.187634,0.01653 z m 0,0"
             id="path36485"
             inkscape:connector-curvature="0" /><path
             style="fill:#002b69;fill-opacity:1;fill-rule:nonzero;stroke:none"
             d="m 70.707487,27.453408 0.821869,0 0,-1.285047 1.075432,0 0,1.285047 1.086452,0 0,0.810736 -1.086452,0 0,2.581103 c 0,0.16546 0,0.303345 0.01694,0.408121 0.01412,0.09926 0.03806,0.182007 0.08324,0.237155 0.04382,0.0552 0.104477,0.09375 0.176483,0.110274 0.07771,0.02202 0.182,0.03304 0.314289,0.03304 0.09318,0 0.176487,-0.0056 0.253722,-0.01129 0.08335,-0.0056 0.159963,-0.01653 0.231684,-0.02753 l 0,0.794189 c -0.104479,0.01129 -0.231684,0.02202 -0.374997,0.03304 -0.143448,0.01652 -0.286897,0.02202 -0.430198,0.02202 -0.28676,0 -0.518446,-0.03304 -0.69493,-0.09374 -0.176488,-0.06072 -0.314436,-0.154433 -0.408184,-0.275756 -0.09319,-0.121281 -0.159962,-0.27025 -0.193001,-0.441216 -0.02824,-0.170979 -0.04935,-0.369519 -0.04935,-0.590128 l 0,-2.779658 -0.821869,0 z m 0,0"
             id="path36487"
             inkscape:connector-curvature="0" /><path
             style="fill:#002b69;fill-opacity:1;fill-rule:nonzero;stroke:none"
             d="m 77.265153,29.995911 c -0.248209,0 -0.490908,0.01129 -0.722604,0.03304 -0.231552,0.02754 -0.43571,0.07723 -0.606686,0.148911 -0.176484,0.07172 -0.314284,0.165445 -0.419048,0.286783 -0.104481,0.121282 -0.154459,0.281277 -0.154459,0.474311 0,0.237156 0.0663,0.424669 0.204011,0.562553 0.138365,0.143392 0.34747,0.215088 0.617707,0.215088 0.220671,0 0.413684,-0.03854 0.579159,-0.115776 0.16547,-0.07172 0.297763,-0.170979 0.402524,-0.297823 0.10448,-0.121281 0.181995,-0.26473 0.231696,-0.424668 0.04947,-0.159939 0.07206,-0.325398 0.07206,-0.501885 l 0,-0.380547 z m 0.204023,-0.821763 c 0,-0.330918 -0.09318,-0.584607 -0.28125,-0.761093 -0.187496,-0.17098 -0.474394,-0.259223 -0.871416,-0.259223 -0.176485,0 -0.374998,0.02202 -0.606694,0.06621 -0.226185,0.04955 -0.446724,0.115775 -0.656383,0.204061 l -0.220536,-0.794188 c 0.170972,-0.07172 0.40817,-0.13794 0.716956,-0.198553 0.303412,-0.06072 0.584661,-0.09376 0.843884,-0.09376 0.705943,0 1.240913,0.154422 1.604898,0.463271 0.358472,0.308852 0.540471,0.766614 0.540471,1.373289 l 0,2.090262 c 0,0.176486 0.01413,0.363998 0.02259,0.573579 0.01412,0.204061 0.03254,0.391574 0.06642,0.551512 l -0.948652,0 c -0.02687,-0.08825 -0.04383,-0.193033 -0.06642,-0.319877 -0.01694,-0.121282 -0.03253,-0.242676 -0.04371,-0.352973 l -0.02259,0 c -0.127068,0.231635 -0.314421,0.419149 -0.573644,0.562554 -0.253722,0.148912 -0.562497,0.220608 -0.926482,0.220608 -0.215171,0 -0.419197,-0.02754 -0.623207,-0.07723 -0.204163,-0.0552 -0.386158,-0.143391 -0.551632,-0.264729 -0.159826,-0.121282 -0.292262,-0.275757 -0.391512,-0.468791 -0.09883,-0.193033 -0.14896,-0.430188 -0.14896,-0.705945 0,-0.352972 0.08336,-0.645275 0.253721,-0.865884 0.165475,-0.226128 0.39716,-0.397093 0.689422,-0.518431 0.286761,-0.121281 0.623208,-0.204061 0.998205,-0.248181 0.375145,-0.04405 0.777669,-0.06623 1.196866,-0.06623 z m 0,0"
             id="path36489"
             inkscape:connector-curvature="0" /><path
             style="fill:#002b69;fill-opacity:1;fill-rule:nonzero;stroke:none"
             d="m 80.93268,32.389502 -1.069932,0 0,-4.941613 1.069932,0 z m 0.02259,-5.835072 -1.097454,0 0,-0.99274 1.097454,0 z m 0,0"
             id="path36491"
             inkscape:connector-curvature="0" /><path
             style="fill:#002b69;fill-opacity:1;fill-rule:nonzero;stroke:none"
             d="m 83.4145,27.453408 0,0.689397 0.01694,0 c 0.138363,-0.253702 0.341959,-0.452241 0.617707,-0.595649 0.275881,-0.137799 0.579156,-0.209567 0.910105,-0.209567 0.551481,0 0.992692,0.165445 1.312625,0.485339 0.330812,0.325398 0.490776,0.761093 0.490776,1.312606 l 0,3.253968 -1.069932,0 0,-2.851353 c 0,-0.215088 -0.01693,-0.408122 -0.04371,-0.584608 -0.0339,-0.170979 -0.08754,-0.319878 -0.170976,-0.435709 -0.08324,-0.121281 -0.187645,-0.209568 -0.319932,-0.270235 -0.132717,-0.06623 -0.303275,-0.09375 -0.507433,-0.09375 -0.148814,0 -0.297774,0.02753 -0.441223,0.08274 -0.143301,0.0552 -0.270236,0.143392 -0.380498,0.259208 -0.115775,0.121282 -0.209523,0.275758 -0.281249,0.46327 -0.07207,0.193034 -0.10448,0.424683 -0.10448,0.700439 l 0,2.730016 -1.070075,0 0,-4.936093 z m 0,0"
             id="path36493"
             inkscape:connector-curvature="0" /><path
             style="fill:#002b69;fill-opacity:1;fill-rule:nonzero;stroke:none"
             d="m 89.001492,27.453408 0,0.705945 0.02259,0 c 0.127072,-0.259223 0.319788,-0.463283 0.590025,-0.606674 0.27038,-0.143393 0.557129,-0.21509 0.865916,-0.21509 0.733617,0 1.218877,0.270236 1.46159,0.805216 l 0.02687,0 c 0.176487,-0.286797 0.402672,-0.490858 0.672908,-0.623224 0.270235,-0.126787 0.562497,-0.187511 0.876918,-0.181992 0.297774,0 0.562498,0.04406 0.788682,0.132296 0.226052,0.08825 0.413548,0.209567 0.557001,0.369519 0.148947,0.159939 0.259227,0.347453 0.330947,0.56806 0.0721,0.215088 0.10447,0.457763 0.10447,0.727998 l 0,3.253969 -1.069926,0 0,-2.851354 c 0,-0.248182 -0.01412,-0.452242 -0.03254,-0.601154 -0.02687,-0.148911 -0.07771,-0.286797 -0.148813,-0.408122 -0.07206,-0.126928 -0.170986,-0.220607 -0.303422,-0.281276 -0.12142,-0.06621 -0.286747,-0.09375 -0.479759,-0.09375 -0.132717,0 -0.264725,0.02202 -0.39716,0.07172 -0.127069,0.04405 -0.242562,0.115776 -0.34747,0.209581 -0.09319,0.09926 -0.176488,0.226129 -0.242561,0.386067 -0.06066,0.159939 -0.09319,0.341947 -0.09319,0.557034 l 0,3.011293 -1.070064,0 0,-2.906502 c 0,-0.209581 -0.01413,-0.397094 -0.03254,-0.557034 -0.02824,-0.165458 -0.07195,-0.30885 -0.143448,-0.424668 -0.07207,-0.115776 -0.165338,-0.198554 -0.29777,-0.259223 -0.127072,-0.06072 -0.28675,-0.08825 -0.479763,-0.08825 -0.143449,0 -0.286893,0.02753 -0.424698,0.08274 -0.138362,0.0552 -0.253711,0.1378 -0.352971,0.248182 -0.10448,0.110263 -0.181985,0.253688 -0.24821,0.441216 -0.06642,0.181992 -0.09883,0.40812 -0.09883,0.67285 l 0,2.790685 -1.06993,0 0,-4.936093 z m 0,0"
             id="path36495"
             inkscape:connector-curvature="0" /><path
             style="fill:#002b69;fill-opacity:1;fill-rule:nonzero;stroke:none"
             d="m 98.614342,28.104205 c -0.375,0 -0.67827,0.126788 -0.90996,0.369505 -0.22604,0.248197 -0.35848,0.568075 -0.40803,0.970674 l 2.470802,0 0,-0.02202 c 0,-0.397093 -0.0931,-0.716971 -0.303425,-0.954127 -0.20952,-0.242677 -0.49077,-0.364001 -0.849387,-0.364001 m -1.31799,2.123342 c 0.0438,0.468789 0.21503,0.827283 0.51829,1.080984 0.30892,0.253689 0.70045,0.380548 1.180347,0.380548 0.20952,0 0.42469,-0.02202 0.645225,-0.0552 0.22068,-0.03304 0.424686,-0.08274 0.612186,-0.154433 l 0.14346,0.794188 c -0.430206,0.154432 -0.926621,0.226128 -1.494621,0.226128 -0.424697,0 -0.799697,-0.06621 -1.130637,-0.193033 -0.33096,-0.126929 -0.6122,-0.303345 -0.83838,-0.529459 -0.22605,-0.231635 -0.39703,-0.501885 -0.51281,-0.816257 -0.11576,-0.314356 -0.17097,-0.656303 -0.17097,-1.031342 0,-0.375026 0.0551,-0.722479 0.16547,-1.03685 0.11014,-0.319878 0.26473,-0.595649 0.47426,-0.821762 0.20402,-0.231634 0.45223,-0.413643 0.74449,-0.540485 0.2924,-0.126928 0.6177,-0.193034 0.98168,-0.193034 0.358617,0 0.667397,0.06071 0.932127,0.170968 0.264725,0.115773 0.490911,0.281275 0.672901,0.490856 0.182,0.209566 0.31429,0.463268 0.40803,0.766612 0.0875,0.303331 0.13272,0.634236 0.13272,1.003756 l 0,0.457763 z m 0,0"
             id="path36497"
             inkscape:connector-curvature="0" /><path
             style="fill:#002b69;fill-opacity:1;fill-rule:nonzero;stroke:none"
             d="m 102.78944,27.453408 0,0.689397 0.0169,0 c 0.13836,-0.253702 0.34745,-0.452241 0.61769,-0.595649 0.27575,-0.137799 0.57916,-0.209567 0.91547,-0.209567 0.54611,0 0.98734,0.165445 1.31264,0.485339 0.32544,0.325398 0.4854,0.761093 0.4854,1.312606 l 0,3.253968 -1.06992,0 0,-2.851353 c 0,-0.215088 -0.0169,-0.408122 -0.0438,-0.584608 -0.0326,-0.170979 -0.0875,-0.319878 -0.17099,-0.435709 -0.0833,-0.121281 -0.1875,-0.209568 -0.31979,-0.270235 -0.12707,-0.06623 -0.2979,-0.09375 -0.50193,-0.09375 -0.15446,0 -0.2979,0.02753 -0.44672,0.08274 -0.13837,0.0552 -0.27023,0.143392 -0.38064,0.259208 -0.11578,0.121282 -0.20953,0.275758 -0.27575,0.46327 -0.072,0.193034 -0.11012,0.424683 -0.11012,0.700439 l 0,2.730016 -1.06993,0 0,-4.936093 z m 0,0"
             id="path36499"
             inkscape:connector-curvature="0" /><g
             transform="matrix(1.4118899,0,0,1.4118898,-2961.8721,-441.92824)"
             style="clip-rule:nonzero;fill:#002b69;fill-opacity:1"
             clip-path="url(#clip259)"
             id="g36501"><path
               style="fill:#002b69;fill-opacity:1;fill-rule:nonzero;stroke:none"
               d="m 2173.5508,332.44922 0.5859,0 0,-0.91016 0.7578,0 0,0.91016 0.7735,0 0,0.57422 -0.7735,0 0,1.82812 c 0,0.11719 0.01,0.21485 0.016,0.28906 0.01,0.0703 0.027,0.12891 0.059,0.16797 0.031,0.0391 0.074,0.0664 0.125,0.0781 0.055,0.0156 0.1289,0.0234 0.2226,0.0234 0.062,0 0.125,-0.004 0.1797,-0.008 0.055,-0.004 0.1094,-0.0117 0.1641,-0.0195 l 0,0.5625 c -0.074,0.008 -0.1641,0.0156 -0.2657,0.0234 -0.1015,0.0117 -0.2031,0.0156 -0.3047,0.0156 -0.207,0 -0.371,-0.0234 -0.4921,-0.0664 -0.125,-0.043 -0.2227,-0.10938 -0.2891,-0.19531 -0.07,-0.0859 -0.1133,-0.19141 -0.1367,-0.3125 -0.023,-0.1211 -0.035,-0.26172 -0.035,-0.41797 l 0,-1.96875 -0.5859,0 z m 0,0"
               id="path36503"
               inkscape:connector-curvature="0" /></g></g></g></g></g></svg>