<?xml version="1.0" encoding="UTF-8" standalone="no"?>
<!-- Created with Inkscape (http://www.inkscape.org/) -->

<svg
   xmlns:dc="http://purl.org/dc/elements/1.1/"
   xmlns:cc="http://creativecommons.org/ns#"
   xmlns:rdf="http://www.w3.org/1999/02/22-rdf-syntax-ns#"
   xmlns:svg="http://www.w3.org/2000/svg"
   xmlns="http://www.w3.org/2000/svg"
   xmlns:sodipodi="http://sodipodi.sourceforge.net/DTD/sodipodi-0.dtd"
   xmlns:inkscape="http://www.inkscape.org/namespaces/inkscape"
   width="300"
   height="57.332153"
   id="svg2"
   version="1.1"
   inkscape:version="0.48.1 "
   sodipodi:docname="新規ドキュメント 1">
  <defs
     id="defs4" />
  <sodipodi:namedview
     id="base"
     pagecolor="#ffffff"
     bordercolor="#666666"
     borderopacity="1.0"
     inkscape:pageopacity="0.0"
     inkscape:pageshadow="2"
     inkscape:zoom="0.70710678"
     inkscape:cx="126.95955"
     inkscape:cy="22.780917"
     inkscape:document-units="px"
     inkscape:current-layer="layer1"
     showgrid="false"
     fit-margin-top="0"
     fit-margin-left="0"
     fit-margin-right="0"
     fit-margin-bottom="0"
     inkscape:window-width="1024"
     inkscape:window-height="715"
     inkscape:window-x="-8"
     inkscape:window-y="-8"
     inkscape:window-maximized="1" />
  <metadata
     id="metadata7">
    <rdf:RDF>
      <cc:Work
         rdf:about="">
        <dc:format>image/svg+xml</dc:format>
        <dc:type
           rdf:resource="http://purl.org/dc/dcmitype/StillImage" />
        <dc:title></dc:title>
      </cc:Work>
    </rdf:RDF>
  </metadata>
  <g
     inkscape:label="レイヤー 1"
     inkscape:groupmode="layer"
     id="layer1"
     transform="translate(-227.5886,-344.70712)">
    <g
       id="g3886"
       transform="matrix(1.1612575,0,0,1.1612575,-36.700366,-64.831843)">
      <g
         id="text3768"
         style="font-size:87.33330536px;font-style:normal;font-variant:normal;font-weight:normal;font-stretch:normal;text-align:start;line-height:125%;letter-spacing:0px;word-spacing:0px;writing-mode:lr-tb;text-anchor:start;fill:#000000;fill-opacity:1;stroke:none;font-family:Cordia New;-inkscape-font-specification:Cordia New"
         transform="scale(1.0523937,0.95021478)">
        <path
           id="path3884"
           d="m 216.25804,400.91473 3.85921,-0.34115 c 0.31271,3.35461 1.44275,5.88833 3.39013,7.60116 1.94736,1.71283 4.50595,2.56925 7.67578,2.56925 2.34536,0 4.32827,-0.3518 5.94873,-1.05542 1.62042,-0.70361 2.87128,-1.74837 3.7526,-3.13428 0.88127,-1.38589 1.32191,-2.85353 1.32194,-4.40291 -3e-5,-4.12216 -3.57495,-6.83711 -10.72477,-8.14485 -4.84712,-0.88128 -8.31899,-2.22454 -10.4156,-4.02979 -2.09663,-1.8052 -3.14494,-4.29272 -3.14494,-7.46256 0,-3.36878 1.22599,-6.03398 3.67798,-7.9956 2.45197,-1.96155 5.56848,-2.94234 9.34952,-2.94238 4.23587,4e-5 7.53006,0.94885 9.88257,2.84643 2.35245,1.89766 3.64241,4.78673 3.86987,8.66723 l -3.79525,0.17058 c -0.45488,-5.6573 -3.66734,-8.48596 -9.63736,-8.486 -2.75761,4e-5 -5.04258,0.661 -6.8549,1.98291 -1.81235,1.32197 -2.71851,3.1272 -2.7185,5.41568 -1e-5,3.90899 3.2693,6.51733 9.80794,7.82503 4.83287,0.98082 8.44333,2.35962 10.83137,4.1364 2.38799,1.77681 3.582,4.36383 3.58203,7.76106 -3e-5,1.80524 -0.31985,3.42923 -0.95947,4.87199 -0.63968,1.44277 -1.61692,2.7114 -2.93172,3.80591 -1.31486,1.09451 -2.86068,1.9296 -4.63745,2.50528 -1.77682,0.57569 -3.75262,0.86353 -5.92741,0.86353 -9.31044,0 -14.37787,-4.3425 -15.2023,-13.0275 z"
           inkscape:connector-curvature="0" />
      </g>
      <g
         id="text3772"
         style="font-size:84.6158905px;font-style:normal;font-variant:normal;font-weight:normal;font-stretch:normal;text-align:start;line-height:125%;letter-spacing:0px;word-spacing:0px;writing-mode:lr-tb;text-anchor:start;fill:#000000;fill-opacity:1;stroke:none;font-family:Cordia New;-inkscape-font-specification:Cordia New">
        <path
           id="path3881"
           d="m 288.93783,378.84615 c -3e-5,4.73761 -1.11901,8.41477 -3.35695,11.03146 -2.23799,2.6167 -5.40213,3.92505 -9.49243,3.92506 -1.96943,-10e-6 -3.73226,-0.34431 -5.2885,-1.03291 -1.55625,-0.68861 -2.90936,-1.71463 -4.05933,-3.07807 -1.14997,-1.36344 -2.01417,-2.94034 -2.5926,-4.73072 -0.57843,-1.79037 -0.86765,-3.78732 -0.86764,-5.99088 -10e-6,-2.28615 0.25134,-4.32786 0.75402,-6.12514 0.50268,-1.79724 1.26014,-3.35349 2.2724,-4.66875 1.01224,-1.31521 2.28961,-2.37911 3.83209,-3.19169 1.54247,-0.81253 3.53254,-1.2188 5.97021,-1.21883 3.91127,3e-5 7.02721,1.2705 9.34783,3.81143 2.32057,2.54098 3.48087,6.29732 3.4809,11.26904 z m -3.49123,0 c -2e-5,-2.57537 -0.37876,-4.78924 -1.1362,-6.64161 -0.75749,-1.85232 -1.81105,-3.25708 -3.1607,-4.21427 -1.34969,-0.95713 -2.99545,-1.43571 -4.9373,-1.43574 -2.98857,3e-5 -5.29884,1.09835 -6.93082,3.29498 -1.63201,2.19667 -2.448,5.14735 -2.448,8.85203 0,3.66339 0.82977,6.64161 2.48931,8.93466 1.65953,2.29306 3.9698,3.43959 6.93082,3.43959 1.3772,0 2.6098,-0.25134 3.69782,-0.75403 1.08797,-0.50268 2.04858,-1.27736 2.88181,-2.32404 0.83319,-1.04668 1.47704,-2.3447 1.93154,-3.89407 0.45446,-1.54935 0.6817,-3.30185 0.68172,-5.2575 z"
           inkscape:connector-curvature="0" />
      </g>
      <g
         id="text3798"
         style="font-size:83.3170929px;font-style:normal;font-variant:normal;font-weight:normal;font-stretch:normal;text-align:start;line-height:125%;letter-spacing:0px;word-spacing:0px;writing-mode:lr-tb;text-anchor:start;fill:#000000;fill-opacity:1;stroke:none;font-family:Cordia New;-inkscape-font-specification:Cordia New"
         transform="scale(1.0448009,0.95712016)">
        <path
           sodipodi:nodetypes="cccccccccsccccccsc"
           inkscape:connector-curvature="0"
           id="path3878"
           d="m 303.02524,410.32731 -3.35628,0 0,-19.28974 c -3e-5,-3.05114 -0.58992,-5.22424 -1.76968,-6.51931 -1.1798,-1.29503 -2.77996,-1.94255 -4.80049,-1.94258 -1.08488,3e-5 -2.09854,0.1831 -3.041,0.54921 -0.94248,0.36617 -1.81376,0.91199 -2.61383,1.63746 -0.80009,0.72552 -1.43405,1.5629 -1.90189,2.51212 -0.46785,0.94927 -0.79331,1.98667 -0.97637,3.11219 -0.18308,1.12556 -0.27461,3.1122 -0.27461,5.95994 l 0,13.98071 -3.33593,0 0,-30.02983 3.33593,0 0,4.19026 c 2.53585,-3.21386 5.57345,-4.8208 9.11281,-4.82083 6.4142,3e-5 9.62131,3.49191 9.62134,10.47566 z" />
      </g>
      <g
         id="text3806"
         style="font-size:77.90634918px;font-style:normal;font-variant:normal;font-weight:normal;font-stretch:normal;text-align:start;line-height:125%;letter-spacing:0px;word-spacing:0px;writing-mode:lr-tb;text-anchor:start;fill:#000000;fill-opacity:1;stroke:none;font-family:Cordia New;-inkscape-font-specification:Cordia New">
        <path
           id="path3875"
           d="m 344.52997,364.81692 -10.44204,26.47599 -2.07319,5.24955 c -1.44554,3.66453 -3.49337,5.4968 -6.14349,5.49681 -0.64669,-10e-6 -1.63574,-0.16485 -2.96714,-0.49453 l -0.34236,-3.11929 c 1.24264,0.29163 2.17463,0.43745 2.79595,0.43746 1.00172,-10e-6 1.72766,-0.19655 2.17781,-0.58962 0.45013,-0.39309 0.90344,-1.16658 1.35993,-2.32046 l 1.84495,-4.65992 -10.42301,-26.47599 3.38557,0 8.71121,22.88119 9.03455,-22.88119 z"
           inkscape:connector-curvature="0" />
      </g>
      <g
         id="text3810"
         style="font-size:84.88697052px;font-style:normal;font-variant:normal;font-weight:normal;font-stretch:normal;text-align:start;line-height:125%;letter-spacing:0px;word-spacing:0px;writing-mode:lr-tb;text-anchor:start;fill:#000000;fill-opacity:1;stroke:none;font-family:Cordia New;-inkscape-font-specification:Cordia New">
        <path
           sodipodi:nodetypes="ccccccccc"
           inkscape:connector-curvature="0"
           id="path3835"
           d="m 381.6387,355.97164 -12.20664,0 0,36.50837 -3.36686,0 0,-36.50837 -12.61162,0 0,-3.30312 28.18512,0 z" />
      </g>
      <g
         id="text3814"
         style="font-size:79.14530945px;font-style:normal;font-variant:normal;font-weight:normal;font-stretch:normal;text-align:start;line-height:125%;letter-spacing:0px;word-spacing:0px;writing-mode:lr-tb;text-anchor:start;fill:#000000;fill-opacity:1;stroke:none;font-family:Cordia New;-inkscape-font-specification:Cordia New"
         transform="scale(0.94327877,1.060132)">
        <path
           id="path3860"
           d="m 426.25803,370.39029 -3.43943,0 c -0.5024,-1.26241 -0.83089,-2.62787 -0.98545,-4.09639 -2.91129,3.13026 -6.57613,4.69539 -10.99455,4.69539 -1.61022,0 -3.04975,-0.28018 -4.3186,-0.84053 -1.26885,-0.56036 -2.28329,-1.40089 -3.0433,-2.5216 -0.76003,-1.12071 -1.14004,-2.48617 -1.14004,-4.09639 0,-1.13358 0.17713,-2.14802 0.53138,-3.04331 0.35424,-0.89526 0.89205,-1.68105 1.61343,-2.35735 0.72137,-0.67628 1.69394,-1.25596 2.91771,-1.73903 1.22376,-0.48305 3.42653,-0.94358 6.60833,-1.38157 3.54245,-0.48949 6.04795,-1.0112 7.51648,-1.56513 -2e-5,-1.5329 -0.0419,-2.71158 -0.1256,-3.53603 -0.0838,-0.82441 -0.37037,-1.59731 -0.85985,-2.31871 -0.48953,-0.72135 -1.24311,-1.27527 -2.26074,-1.66174 -1.01768,-0.38643 -2.27364,-0.57966 -3.76791,-0.57968 -4.65031,2e-5 -7.44564,1.99025 -8.386,5.97068 l -3.20755,-0.48307 c 0.99189,-5.29436 4.84996,-7.94155 11.57423,-7.94158 2.11259,3e-5 3.88704,0.24156 5.32337,0.7246 1.43629,0.48309 2.50548,1.16582 3.20755,2.04819 0.70203,0.88242 1.15933,1.97415 1.37191,3.27518 0.21252,1.30107 0.31879,3.09163 0.31882,5.37168 l -0.0966,7.57445 c -0.0258,2.02244 0.0676,3.57468 0.28017,4.65674 0.21253,1.08207 0.66661,2.3638 1.36225,3.8452 z m -4.73404,-12.71426 0,-1.73903 c -1.79058,0.68274 -4.62455,1.35903 -8.50194,2.02887 -2.0482,0.3607 -3.5457,0.73105 -4.4925,1.11105 -0.94681,0.38002 -1.66175,0.93071 -2.1448,1.65208 -0.48307,0.72138 -0.72461,1.57158 -0.7246,2.55058 -10e-6,1.46852 0.54425,2.65042 1.63276,3.54569 1.08849,0.89528 2.48938,1.34292 4.20266,1.34292 1.00476,0 1.99665,-0.13203 2.97568,-0.39611 0.97899,-0.26407 1.93868,-0.65697 2.87906,-1.17868 0.94035,-0.5217 1.72614,-1.15291 2.35736,-1.89361 0.63118,-0.74069 1.0917,-1.69072 1.38156,-2.85008 0.28982,-1.15935 0.43474,-2.55057 0.43476,-4.17368 z"
           inkscape:connector-curvature="0" />
      </g>
      <g
         id="text3818"
         style="font-size:80.87415314px;font-style:normal;font-variant:normal;font-weight:normal;font-stretch:normal;text-align:start;line-height:125%;letter-spacing:0px;word-spacing:0px;writing-mode:lr-tb;text-anchor:start;fill:#000000;fill-opacity:1;stroke:none;font-family:Cordia New;-inkscape-font-specification:Cordia New"
         transform="matrix(0.99177333,0,0,1.0328662,0,-8.6250157)">
        <path
           inkscape:connector-curvature="0"
           id="path3863"
           d="m 414.60066,384.78291 0,4.16613 -3.21838,0 0,-37.92951 3.21838,0 0,14.92697 c 2.75108,-3.39606 6.19981,-5.0941 10.34621,-5.09412 3.88309,2e-5 6.88428,1.33608 9.00356,4.00816 2.11924,2.67214 3.17886,6.04189 3.17889,10.10927 -3e-5,4.39649 -1.09914,7.92749 -3.29735,10.59302 -2.19827,2.66553 -5.25869,3.99829 -9.18127,3.99829 -4.02793,0 -7.37794,-1.59274 -10.05004,-4.77821 z m 19.19182,-9.51693 c -3e-5,-3.42239 -0.81943,-6.23271 -2.45822,-8.43097 -1.63883,-2.19822 -3.89301,-3.29733 -6.76254,-3.29736 -3.13284,3e-5 -5.58447,1.0794 -7.35489,3.23813 -1.77045,2.15877 -2.65567,5.11388 -2.65566,8.86535 -1e-5,3.48823 0.87534,6.23603 2.62604,8.2434 1.75068,2.00738 4.14637,3.01106 7.18706,3.01106 1.44792,0 2.74449,-0.27642 3.8897,-0.82928 1.14517,-0.55284 2.13898,-1.38212 2.98144,-2.48782 0.84242,-1.1057 1.47754,-2.3529 1.90536,-3.74162 0.42778,-1.3887 0.64168,-2.91232 0.64171,-4.57089 z" />
      </g>
      <g
         id="text3822"
         style="font-size:78.59090424px;font-style:normal;font-variant:normal;font-weight:normal;font-stretch:normal;text-align:start;line-height:125%;letter-spacing:0px;word-spacing:0px;writing-mode:lr-tb;text-anchor:start;fill:#000000;fill-opacity:1;stroke:none;font-family:Cordia New;-inkscape-font-specification:Cordia New"
         transform="scale(0.94993297,1.0527059)">
        <path
           sodipodi:nodetypes="ccccc"
           inkscape:connector-curvature="0"
           id="path3866"
           d="m 464.73945,373.8193 -3.1467,0 0,-38.56793 3.1467,0 z" />
      </g>
      <g
         transform="translate(0,-0.50507623)"
         id="text3826"
         style="font-size:85.32730103px;font-style:normal;font-variant:normal;font-weight:normal;font-stretch:normal;text-align:start;line-height:125%;letter-spacing:0px;word-spacing:0px;writing-mode:lr-tb;text-anchor:start;fill:#000000;fill-opacity:1;stroke:none;font-family:Cordia New;-inkscape-font-specification:Cordia New">
        <path
           inkscape:connector-curvature="0"
           id="path3869"
           d="m 471.97312,379.34789 -22.31092,0 c 0.0555,3.74974 0.94089,6.67662 2.65606,8.78063 1.71514,2.10402 4.0865,3.15603 7.11408,3.15602 4.2219,1e-5 7.17308,-2.34705 8.85354,-7.04117 l 3.3331,0.56246 c -1.13884,3.30533 -2.73247,5.67322 -4.78092,7.10367 -2.04848,1.43045 -4.5865,2.14568 -7.61404,2.14568 -4.09694,0 -7.30505,-1.35407 -9.62432,-4.06221 -2.31928,-2.70814 -3.47892,-6.40232 -3.47892,-11.08255 0,-4.68021 1.16658,-8.37439 3.49975,-11.08255 2.33316,-2.70812 5.55515,-4.06218 9.66598,-4.06221 8.38828,3e-5 12.61714,5.1941 12.68661,15.58223 z m -3.68724,-2.8123 c -0.52777,-6.69395 -3.55533,-10.04093 -9.08269,-10.04096 -2.51373,3e-5 -4.62816,0.86802 -6.3433,2.60398 -1.71517,1.73601 -2.74634,4.215 -3.09354,7.43698 z" />
      </g>
      <g
         id="text3830"
         style="font-size:76.29317474px;font-style:normal;font-variant:normal;font-weight:normal;font-stretch:normal;text-align:start;line-height:125%;letter-spacing:0px;word-spacing:0px;writing-mode:lr-tb;text-anchor:start;fill:#000000;fill-opacity:1;stroke:none;font-family:Cordia New;-inkscape-font-specification:Cordia New"
         transform="scale(0.97854219,1.0219283)">
        <path
           id="path3872"
           d="m 496.58486,382.31104 c -1.32868,0.27318 -2.4028,0.40977 -3.22234,0.40977 -1.17968,0 -2.1917,-0.19247 -3.03608,-0.57741 -0.8444,-0.38494 -1.47459,-0.97788 -1.89057,-1.77881 -0.41599,-0.80093 -0.62398,-2.23204 -0.62398,-4.29335 l 0,-17.37831 -3.61349,0 0,-2.30965 3.61349,0 0,-6.63095 3.07333,-1.95576 0,8.58671 4.88009,0 0,2.30965 -4.88009,0 0,16.98716 c 0,1.2045 0.0776,2.10787 0.23283,2.71012 0.15521,0.60225 0.45634,1.04928 0.90338,1.34109 0.44702,0.29181 1.03685,0.43772 1.76949,0.43771 0.55878,10e-6 1.35971,-0.10554 2.40279,-0.31664 z"
           inkscape:connector-curvature="0" />
      </g>
    </g>
  </g>
</svg>
