<?xml version="1.0" encoding="UTF-8" standalone="no"?>
<svg
   xmlns:dc="http://purl.org/dc/elements/1.1/"
   xmlns:cc="http://creativecommons.org/ns#"
   xmlns:rdf="http://www.w3.org/1999/02/22-rdf-syntax-ns#"
   xmlns:svg="http://www.w3.org/2000/svg"
   xmlns="http://www.w3.org/2000/svg"
   version="1.1"
   id="svg88600"
   viewBox="0 0 301.99999 48.083226"
   height="48.083225"
   width="302">
  <defs
     id="defs88602" />
  <metadata
     id="metadata88605">
    <rdf:RDF>
      <cc:Work
         rdf:about="">
        <dc:format>image/svg+xml</dc:format>
        <dc:type
           rdf:resource="http://purl.org/dc/dcmitype/StillImage" />
        <dc:title></dc:title>
      </cc:Work>
    </rdf:RDF>
  </metadata>
  <g
     transform="translate(-349.36652,-547.62781)"
     id="layer1">
    <g
       transform="matrix(3.5720664,0,0,-3.5720664,644.12255,594.70747)"
       id="g87828">
      <path
         id="path87830"
         style="fill:#000000;fill-opacity:1;fill-rule:nonzero;stroke:none"
         d="m 0,0 c -0.032,0.073 -1.711,3.924 -1.711,3.924 l -4.556,0 c 0.055,0.131 0.538,1.255 0.569,1.323 l 3.404,0 -2.471,5.868 c 0,0 -4.763,-11.04 -4.796,-11.115 l -1.812,0 c 0.079,0.175 5.766,12.827 5.8,12.9 l 1.676,0 C -3.861,12.815 1.651,0.216 1.748,0 L 0,0" />
    </g>
    <g
       transform="matrix(3.5720664,0,0,-3.5720664,522.80088,548.63138)"
       id="g87832">
      <path
         id="path87834"
         style="fill:#000000;fill-opacity:1;fill-rule:nonzero;stroke:none"
         d="m 0,0 6.606,0 c 0.018,0.001 1.874,0.046 3.065,-1.053 0.71,-0.654 1.07,-1.565 1.07,-2.707 l 0.005,-0.163 c 0,-0.396 -0.107,-2.421 -2.157,-3.213 l -0.278,-0.11 c 0,0 3.119,-5.475 3.224,-5.653 l -1.848,0 c -0.036,0.061 -2.963,5.37 -2.963,5.37 0,0 -3.456,0 -3.578,0.001 0.002,0.166 0.002,1.298 0.002,1.346 l 3.097,0 c 0.007,-10e-4 1.372,-0.022 2.208,0.774 0.416,0.394 0.628,0.931 0.628,1.593 0,0.943 -0.357,1.632 -1.058,2.049 -0.584,0.345 -1.293,0.417 -1.784,0.417 l -4.553,0 0,-11.55 -1.686,0 L 0,0" />
    </g>
    <path
       id="path87836"
       style="fill:#000000;fill-opacity:1;fill-rule:nonzero;stroke:none"
       d="m 479.08593,573.24292 21.44669,0 0,-4.70084 -21.44669,0 0,4.70084 z" />
    <g
       transform="matrix(3.5720664,0,0,-3.5720664,467.8625,548.63138)"
       id="g87838">
      <path
         id="path87840"
         style="fill:#000000;fill-opacity:1;fill-rule:nonzero;stroke:none"
         d="m 0,0 10.044,0 0,-1.338 -8.36,0 0,-10.239 8.454,0 0,-1.323 L 0,-12.9 0,0" />
    </g>
    <g
       transform="matrix(3.5720664,0,0,-3.5720664,420.54333,594.70747)"
       id="g87842">
      <path
         id="path87844"
         style="fill:#000000;fill-opacity:1;fill-rule:nonzero;stroke:none"
         d="m 0,0 -1.681,0 0,12.9 6.412,0 C 7.5,12.865 8.999,11.56 9.064,9.13 8.998,6.715 7.495,5.426 4.72,5.401 l -3.257,0 c 0,0.106 -0.001,1.219 -0.001,1.325 l 3.093,0 C 5.353,6.726 6.05,6.94 6.571,7.347 7.099,7.745 7.364,8.33 7.381,9.136 7.364,9.98 7.099,10.585 6.571,10.982 6.042,11.376 5.32,11.577 4.426,11.577 L 0,11.577 0,0" />
    </g>
    <g
       transform="matrix(3.5720664,0,0,-3.5720664,390.64157,594.70747)"
       id="g87846">
      <path
         id="path87848"
         style="fill:#000000;fill-opacity:1;fill-rule:nonzero;stroke:none"
         d="m 0,0 -4.501,5.241 -4.507,-5.24 -2.267,0 11.098,12.899 2.26,0 L -3.392,6.532 2.219,0 0,0" />
    </g>
    <g
       transform="matrix(3.5720664,0,0,-3.5720664,358.96091,548.63138)"
       id="g87850">
      <path
         id="path87852"
         style="fill:#000000;fill-opacity:1;fill-rule:nonzero;stroke:none"
         d="M 0,0 3.342,-3.882 2.231,-5.176 -2.223,0 0,0" />
    </g>
    <path
       id="path87854"
       style="fill:#000000;fill-opacity:1;fill-rule:nonzero;stroke:none"
       d="m 582.13649,594.70747 6.01536,0 0,-46.07966 -6.01536,0 0,46.07966 z" />
  </g>
</svg>
