<svg xmlns="http://www.w3.org/2000/svg" width="150" height="53.55172403870807"><rect id="backgroundrect" width="100%" height="100%" x="0" y="0" fill="none" stroke="none" class="" style=""/>
 <defs>
  <style>.cls-1{fill:#333f48;}.cls-2{fill:#97d700;}.cls-3{fill:#147bd1;}.cls-4{fill:#464e7e;}.cls-5{fill:#2dccd3;}</style>
 </defs>
 <title>lockup</title>
 <g style="">
  <title>background</title>
  <rect fill="none" id="canvas_background" height="402" width="582" y="-1" x="-1"/>
 </g>
 <g style="" class="currentLayer">
  <title>Layer 1</title>
  <g id="Layer_2" class="">
   <g id="Layer_3">
    <path id="svg_15" d="m81.36,13.41 l5.43,0 l0,3 l-5.43,0 l0,17.71 c0,1.7000000000000002 0.6800000000000002,2.87 2.3,2.87 a4.65,4.65 0 0 0 2.87,-1.13 l0,3.14 a7.87,7.87 0 0 1 -3.85,1.09 c-2.87,0 -5,-1.7000000000000002 -5,-5.88 l0,-17.78 l-4.05,0 l0,-3 l4.07,0 l0.30000000000000004,-7.83 l3.39,0 l-0.030000000000000006,7.8100000000000005 z" class="cls-1"/>
    <rect id="svg_16" height="38.630001068115234" width="3.619999885559082" x="65.69000244140625" class="cls-1" y="1"/>
    <path id="svg_17" d="m94.9,16.92 l-0.08000000000000002,0 l-0.23,-3.51 l-3.42,0 l0,26.25 l3.62,0 l0,-19 c1.7000000000000002,-3.47 3.89,-4.34 6.53,-4.34 l0.7500000000000001,0 l0,-3.4 l-0.91,0 c-2.79,0 -4.33,1.08 -6.26,4 z" class="cls-1"/>
    <path id="svg_18" d="m60.6,37 a2.46,2.46 0 0 0 1.4,-0.39000000000000007 l0,3.06 a5.8,5.8 0 0 1 -2.19,0.45 a4,4 0 0 1 -4.09,-3.35 a8,8 0 0 1 -6.21,3.35 c-3.77,0 -6.53,-2.6 -6.53,-7 c0,-4.9 3.39,-6.71 8.07,-8.9 l4.45,-2.11 l0,-1.42 c0,-2.87 -1.28,-4.79 -3.66,-4.79 c-2.68,0 -4.38,2.45 -4.34,5.17 l-3.35,0 c0,-4.15 2.45,-8.19 7.8100000000000005,-8.19 c4.53,0 7.13,2.9 7.13,7.54 l0,14.15 c0,1.28 0.15000000000000002,2.43 1.51,2.43 zm-5.13,-11.75 l0,0 l-3.47,1.6300000000000001 c-3,1.4 -5.43,3.21 -5.43,6.3 a3.62,3.62 0 0 0 3.77,4 c2.3,0 3.92,-1.51 5.13,-3.09 l0,-8.84 z" class="cls-1"/>
    <path id="svg_19" d="m14.58,13.41 l3,0 l0,39.08 l-3.58,0 l0,-15.58 a6.5,6.5 0 0 1 -5.43,3.24 c-3.7600000000000002,0 -7.57,-3.54 -7.57,-13.61 s4.26,-13.620000000000001 8.15,-13.620000000000001 a5.61,5.61 0 0 1 5.3,3.71 l0.13,-3.22 zm-0.5800000000000001,5.88 a4.6,4.6 0 0 0 -4.17,-3.39 c-2.68,0 -5.17,2.68 -5.17,10.6 s2.11,10.56 5,10.56 c2.23,0 3.51,-1.58 4.38,-3.17 l-0.04000000000000001,-14.6 z" class="cls-1"/>
    <path id="svg_20" d="m34.79,33.59 c-1.47,2.15 -3.24,3.51 -5.05,3.51 c-2.07,0 -3.09,-1.8900000000000001 -3.09,-4.26 l0,-19.43 l-3.6500000000000004,0 l0,19.59 c0,4.83 2.26,7.09 5.55,7.09 a7.88,7.88 0 0 0 6.45,-3.63 l0.08000000000000002,3.17 l3.36,0 l0,-26.22 l-3.6500000000000004,0 l0,20.18 z" class="cls-1"/>
    <rect id="svg_21" height="4.559999942779541" width="3.5799999237060547" y="2.700000047683716" x="106.26000213623047" class="cls-1"/>
    <path id="svg_22" d="m142,24.16 c-2.34,-1.21 -4.34,-2.34 -4.34,-4.75 a3.36,3.36 0 0 1 3.58,-3.47 c2.83,0 4.11,2.45 3.85,5.09 l3.3200000000000003,0 c0.23,-4.72 -2.5700000000000003,-8.11 -7.13,-8.11 c-4.19,0 -7.09,2.75 -7.09,6.71 c0,4.26 3.36,6.11 6,7.54 s5.09,2.79 5.09,5.62 a4.16,4.16 0 0 1 -4.19,4.3 c-2.68,0 -4.53,-2.38 -4.6,-5.47 l-3.36,0 c0.11000000000000001,5.09 3.06,8.53 8,8.53 c4.68,0 7.66,-3.13 7.66,-7.54 c0.04000000000000001,-4.87 -3.54,-6.75 -6.79,-8.45 z" class="cls-1"/>
    <rect id="svg_23" height="26.219999313354492" width="3.619999885559082" y="13.40999984741211" x="106.22000122070312" class="cls-1"/>
    <path id="svg_24" d="m123,37.1 c-2.5300000000000002,0 -4.83,-2.41 -4.83,-10.56 s2.38,-10.6 4.87,-10.6 c2.67,0 3.88,2.81 3.77,6.15 l3.39,0 c0.23,-5.58 -2.23,-9.2 -7,-9.2 c-5.36,0 -8.64,4.45 -8.64,13.620000000000001 s3.21,13.620000000000001 8.37,13.620000000000001 s7.39,-4.38 7.43,-9.73 l-3.36,0 c0.17,3.6 -1.12,6.7 -4,6.7 z" class="cls-1"/>
   </g>
  </g>
 </g>
</svg>