<svg class="logo__image" viewBox="0 0 187 16" width="100%" height="100%">
      <g fill-rule="evenodd">
        <path d="M27.825 7.667H26.8V3.914h1.024c1.365 0 2.455.454 2.455 1.851 0 1.447-1.09 1.902-2.455 1.902zm-11.017 2.677c-.541 0-1.05-.095-1.489-.261l1.474-4.659h.028l1.447 4.672a4.366 4.366 0 0 1-1.46.248zM27.552.867L22.903.864V11.94L18.843.864h-4.027l-3.466 9.262c-.37-2.335-2.78-3.142-4.677-3.746-1.252-.403-2.581-.996-2.569-1.651.01-.538.713-1.038 2.104-.962.936.05 1.76.125 3.402.919l1.615-2.818C9.727 1.104 7.656.62 5.96.618h-.01c-1.978 0-3.627.643-4.649 1.702A3.933 3.933 0 0 0 .188 5.037C.162 6.466.685 7.48 1.784 8.289c.928.682 2.115 1.124 3.161 1.449 1.29.4 2.344.748 2.332 1.491-.01.27-.112.523-.306.727-.322.333-.816.458-1.498.47-1.317.029-2.294-.179-3.849-1.1L.188 14.185a10.724 10.724 0 0 0 5.262 1.403l.242-.003c1.631-.029 2.947-.495 3.999-1.344.06-.047.115-.097.17-.146l-.466 1.247h4.223l.709-2.16a7.693 7.693 0 0 0 2.481.395c.873 0 1.695-.134 2.423-.373l.684 2.138H26.8V10.87h1.5c3.633 0 5.78-1.852 5.78-4.957 0-3.458-2.087-5.045-6.53-5.045zM170.874 15.27V4.8h3.156v1.65c.628-.826 1.785-1.867 3.431-1.867 1.745 0 2.57.727 2.863 1.866.627-.806 1.804-1.866 3.45-1.866 2.118 0 3.06 1.336 3.06 3.202v7.485h-3.157V8.63c0-.943-.216-1.434-1.137-1.434-.785 0-1.412.432-2.098 1.041v7.033h-3.157V8.63c0-.943-.215-1.434-1.137-1.434-.784 0-1.411.432-2.118 1.041v7.033h-3.156zm-8.13 0V4.8h3.157v1.748h.02c.569-.885 1.569-1.965 3.529-1.965h.098l-.04 2.81a9.038 9.038 0 0 0-.823-.06c-1.254 0-2.195.668-2.784 1.434v6.503h-3.156zm-4.935-5.206c0-1.748-.608-3.163-2.177-3.163-1.51 0-2.195 1.277-2.195 3.163 0 1.748.588 3.203 2.195 3.203 1.491 0 2.177-1.297 2.177-3.203zm-7.529-.02c0-4.106 2.804-5.461 5.352-5.461 2.53 0 5.333 1.355 5.333 5.461 0 4.067-2.803 5.443-5.333 5.443-2.529 0-5.352-1.376-5.352-5.443zm-6.267 5.226V7.098h-1.744V4.799h1.744v-.727c0-1.749.53-3.419 3.628-3.419.608 0 1.724.099 1.9.138v2.2c-.156-.04-.607-.078-.92-.078-.765 0-1.47.137-1.47 1.257v.63h2.274v2.298h-2.275v8.172h-3.137zm-8.6-2.946V7.098h-1.745V4.799h1.744V1.204h3.137v3.595h2.686v2.299h-2.686v4.538c0 1.12.314 1.474 1.451 1.474.353 0 .824-.04 1.039-.119v2.26c-.235.059-1.392.157-2.078.157-3.098 0-3.549-1.12-3.549-3.084zm-6.06-.177V10.2c-2.49.256-3.55.885-3.55 1.847 0 .668.472 1.003 1.158 1.003 1.098 0 1.862-.374 2.392-.904zm-6.627.452c0-2.417 2.039-3.753 6.627-4.126v-.255c0-.767-.392-1.258-1.412-1.258-1.333 0-2.47.55-3.432 1.296l-1.332-1.807c1.04-.943 2.607-1.866 5.215-1.866 2.862 0 4.039 1.414 4.039 4.106v4.027c0 1.258.078 2.024.294 2.554h-3.137a5.008 5.008 0 0 1-.235-1.532c-.961 1.08-2.098 1.69-3.647 1.69-1.608 0-2.98-1.041-2.98-2.83zm-4.847 2.671h3.137V.732h-3.137V15.27zm-9.642-7.642h2.177c1.98 0 2.724-.766 2.724-2.161 0-1.356-.725-2.122-2.724-2.122h-2.177v4.283zm-3.176 7.642V.732h5.274c3.098 0 5.92.825 5.92 4.656 0 3.91-3.057 4.716-5.959 4.716h-2.059v5.166h-3.176zM93.932 12.03v-3.87c-.686-.65-1.255-.963-2.078-.963-1.313 0-2 1.002-2 2.908 0 1.748.628 2.947 2.04 2.947.803 0 1.529-.492 2.038-1.022zm-7.234-1.906c0-3.615 1.666-5.54 4.058-5.54 1.412 0 2.432.51 3.176 1.532V.732h3.157v11.984c0 1.258.078 2.024.314 2.554h-3.235c-.138-.255-.236-1.04-.236-1.57-.686.942-1.666 1.727-3.215 1.727-2.372 0-4.019-1.69-4.019-5.304zm-11.653 2.319V4.799h3.157v6.72c0 .942.353 1.453 1.235 1.453.842 0 1.568-.452 2.273-1.062V4.8h3.157v10.47H81.71v-1.63c-.627.805-1.784 1.847-3.606 1.847-1.785 0-3.06-.885-3.06-3.045zm-4.855-2.378c0-1.748-.608-3.163-2.177-3.163-1.51 0-2.195 1.277-2.195 3.163 0 1.748.587 3.203 2.195 3.203 1.49 0 2.177-1.297 2.177-3.203zm-7.529-.02c0-4.106 2.804-5.461 5.352-5.461 2.53 0 5.334 1.355 5.334 5.461 0 4.067-2.805 5.443-5.334 5.443-2.529 0-5.352-1.376-5.352-5.443zm-4.968 5.226h3.138V.732h-3.138V15.27zM43.172 7.981c0-5.049 2.92-7.524 6.587-7.524 3.666 0 5.254 1.965 5.882 4.578l-3.02.884c-.47-1.67-1.176-2.81-2.881-2.81-2.197 0-3.373 1.867-3.373 4.872 0 3.065 1.216 4.991 3.411 4.991 1.706 0 2.55-1.08 3.059-3.065l3 .668c-.706 2.928-2.431 4.97-6.078 4.97-3.784 0-6.587-2.435-6.587-7.564z"></path>
      </g>
    </svg>
