<svg width="166" height="32" xmlns="http://www.w3.org/2000/svg"><g fill="none" fill-rule="evenodd"><path d="M32 28c0 2.2-1.8 4-4 4H4c-2.2 0-4-1.8-4-4V4c0-2.2 1.8-4 4-4h24c2.2 0 4 1.8 4 4v24z" fill="#FF6550"/><path fill="#FFF" d="M24 14h-6V8h-4v6H8v4h6v6h4v-6h6z"/><path d="M54.912 18.82l-3.706-9.792-3.774 9.792h7.48zM49.472 4h3.706l10.37 24h-4.896l-2.244-5.508H45.97L43.794 28H39L49.472 4zM68.58 19.84c0 .635.107 1.247.323 1.836.215.59.532 1.11.952 1.564.419.454.923.816 1.513 1.088.589.272 1.258.408 2.006.408.748 0 1.416-.136 2.006-.408a4.743 4.743 0 0 0 1.513-1.088c.419-.453.736-.974.952-1.564a5.313 5.313 0 0 0 .323-1.836c0-.634-.108-1.246-.323-1.836a4.633 4.633 0 0 0-2.465-2.652c-.59-.272-1.258-.408-2.006-.408-.748 0-1.417.136-2.006.408a4.736 4.736 0 0 0-1.513 1.088c-.42.454-.737.975-.952 1.564a5.298 5.298 0 0 0-.323 1.836zm9.656 5.712h-.068c-.59.998-1.383 1.723-2.38 2.176a7.72 7.72 0 0 1-3.23.68c-1.27 0-2.397-.221-3.383-.663a7.569 7.569 0 0 1-2.533-1.82 7.753 7.753 0 0 1-1.598-2.72c-.363-1.041-.544-2.163-.544-3.365 0-1.201.192-2.323.578-3.366a8.363 8.363 0 0 1 1.615-2.72 7.447 7.447 0 0 1 2.499-1.82c.974-.441 2.04-.662 3.196-.662.77 0 1.45.08 2.04.238.589.159 1.11.363 1.564.612.453.25.838.516 1.156.799.317.284.578.56.782.833h.102V4h4.08v24h-3.876v-2.448zm11.22-5.712c0 .635.106 1.247.322 1.836.215.59.532 1.11.952 1.564.42.454.923.816 1.513 1.088.59.272 1.258.408 2.006.408.748 0 1.416-.136 2.006-.408a4.743 4.743 0 0 0 1.513-1.088c.42-.453.736-.974.952-1.564a5.313 5.313 0 0 0 .323-1.836c0-.634-.108-1.246-.323-1.836a4.633 4.633 0 0 0-2.465-2.652c-.59-.272-1.258-.408-2.006-.408-.748 0-1.417.136-2.006.408a4.736 4.736 0 0 0-1.513 1.088c-.42.454-.737.975-.952 1.564a5.298 5.298 0 0 0-.323 1.836zm9.655 5.712h-.068c-.59.998-1.383 1.723-2.38 2.176a7.72 7.72 0 0 1-3.23.68c-1.27 0-2.397-.221-3.383-.663a7.569 7.569 0 0 1-2.533-1.82 7.753 7.753 0 0 1-1.598-2.72c-.363-1.041-.544-2.163-.544-3.365 0-1.201.192-2.323.578-3.366a8.363 8.363 0 0 1 1.615-2.72 7.447 7.447 0 0 1 2.5-1.82c.973-.441 2.04-.662 3.195-.662.77 0 1.45.08 2.04.238.59.159 1.11.363 1.564.612.453.25.838.516 1.156.799.317.284.578.56.782.833h.102V4h4.08v24h-3.876v-2.448zM112.371 8h-7.378V4h19.04v4h-7.378v20h-4.284V8zm17.748 5.958h.068c.317-.68.878-1.297 1.683-1.853.804-.555 1.84-.833 3.11-.833 1.089 0 2.012.182 2.772.544.759.363 1.377.839 1.853 1.428s.816 1.27 1.02 2.04a9.4 9.4 0 0 1 .306 2.414V28h-4.08v-8.262c0-.453-.023-.957-.068-1.513a5.484 5.484 0 0 0-.357-1.564 2.936 2.936 0 0 0-.901-1.224c-.408-.328-.964-.493-1.666-.493-.68 0-1.253.114-1.717.34-.465.227-.85.533-1.156.918a3.662 3.662 0 0 0-.663 1.326 5.92 5.92 0 0 0-.204 1.564V28h-4.08V4h4.08v9.958zM144.908 28h4.08V11.68h-4.08V28zm-.578-21.862c0-.657.244-1.229.732-1.717.486-.487 1.105-.731 1.853-.731.747 0 1.377.233 1.886.697.511.465.765 1.049.765 1.751 0 .703-.254 1.287-.765 1.751-.509.465-1.139.697-1.886.697-.748 0-1.367-.243-1.853-.731-.488-.487-.732-1.059-.732-1.717zm17.85 10.064c-.794-1.11-1.859-1.666-3.196-1.666-.544 0-1.077.136-1.598.408-.522.272-.782.714-.782 1.326 0 .5.215.862.646 1.088.43.227.974.42 1.632.578.657.16 1.365.323 2.125.493.76.17 1.467.431 2.125.782a4.652 4.652 0 0 1 1.632 1.445c.43.612.646 1.451.646 2.516 0 .975-.21 1.797-.629 2.465a4.95 4.95 0 0 1-1.632 1.615 7.245 7.245 0 0 1-2.26.884c-.84.181-1.679.272-2.517.272-1.27 0-2.437-.182-3.502-.544-1.066-.363-2.018-1.02-2.856-1.972l2.72-2.55a7.655 7.655 0 0 0 1.683 1.445c.6.374 1.331.561 2.193.561.294 0 .6-.034.918-.102.317-.068.612-.18.884-.34.272-.159.493-.357.663-.595.17-.238.255-.515.255-.833 0-.567-.216-.986-.646-1.258-.43-.272-.975-.493-1.632-.663a35.477 35.477 0 0 0-2.125-.476 8.195 8.195 0 0 1-2.125-.714 4.46 4.46 0 0 1-1.632-1.377c-.43-.589-.646-1.405-.646-2.448 0-.906.187-1.694.561-2.363a4.939 4.939 0 0 1 1.48-1.649 6.378 6.378 0 0 1 2.107-.952 9.653 9.653 0 0 1 2.414-.306c1.088 0 2.164.187 3.23.561a5.285 5.285 0 0 1 2.584 1.921l-2.72 2.448z" fill="#3E3F3F"/></g></svg>