<?xml version="1.0" encoding="UTF-8"?>
<!-- Generator: Adobe Illustrator 21.0.2, SVG Export Plug-In . SVG Version: 6.00 Build 0)  -->
<svg version="1.1" id="Horizontal_Logo" xmlns="http://www.w3.org/2000/svg" xmlns:xlink="http://www.w3.org/1999/xlink" x="0px" y="0px" viewBox="0 0 200 16.5" style="enable-background:new 0 0 200 16.5;" xml:space="preserve">
<style type="text/css">
	.st0{fill:#FFFFFF;}
</style>
<g>
	<path class="st0" d="M127.9,16.5l-5.2-11.1h1.9l3.3,7.2l3.7-7.7l3.4,7.7l3.5-7.2h1.9l-5.4,11.1l-3.4-7.6L127.9,16.5z M142.1,10.9   c0,2.2,1.3,3.7,3.4,3.7c1.3,0,2.1-0.4,3.1-1.3l1.2,1c-1.1,1.2-2.4,1.9-4.3,1.9c-3.1,0-5.3-2.3-5.3-5.5c0-3.3,2.2-5.5,5-5.5   c2.9,0,4.9,2.2,5,5.7H142.1z M148.3,9.5c-0.5-1.8-1.6-2.7-3-2.7c-1.4,0-2.6,1-3,2.7H148.3z M151.8,5.4h1.9V7c1-1.3,2-1.8,3.2-1.8   c0.6,0,1.1,0.1,1.5,0.5l-0.8,1.6c-0.4-0.2-0.8-0.3-1.2-0.3c-1.4,0-2.6,1.4-2.6,3.3V16h-1.9V5.4z M166.6,7.8c-0.7-0.6-1.6-1-2.5-1   c-2,0-3.6,1.7-3.6,3.8c0,2.1,1.6,3.8,3.6,3.8c1.1,0,2.1-0.5,2.8-1.3l1.4,1.1c-1,1.2-2.5,2-4.2,2c-3,0-5.5-2.5-5.5-5.5   c0-3.1,2.5-5.5,5.5-5.5c1.5,0,2.8,0.6,3.8,1.6L166.6,7.8z M169.7,0.3h1.9v9.4l4.3-4.3h2.4l-5.1,5l5.4,5.6h-2.4l-4.6-4.8V16h-1.9   V0.3z M180.5,10.9c0,2.2,1.3,3.7,3.4,3.7c1.3,0,2.1-0.4,3.1-1.3l1.2,1c-1.1,1.2-2.4,1.9-4.3,1.9c-3.1,0-5.3-2.3-5.3-5.5   c0-3.3,2.2-5.5,5-5.5c2.9,0,4.9,2.2,5,5.7H180.5z M186.6,9.5c-0.5-1.8-1.6-2.7-3-2.7c-1.4,0-2.6,1-3,2.7H186.6z M190.4,5.4h1.9V7   c1-1.3,2-1.8,3.2-1.8c0.6,0,1.1,0.1,1.5,0.5l-0.8,1.6c-0.4-0.2-0.8-0.3-1.2-0.3c-1.4,0-2.6,1.4-2.6,3.3V16h-1.9V5.4z M112.9,9.2   V5.5h-0.7v3.8h-3.8V10h3.8v3.8h0.7V10h3.8V9.2H112.9z"/>
	<path class="st0" d="M43.1,11.5h6.5l-3.5-5.6L39.8,16l-2.9,0l7.7-12.1c0.3-0.5,0.9-0.8,1.5-0.8c0.6,0,1.2,0.3,1.5,0.8L55.4,16   l-2.9,0l-1.4-2.3h-6.6L43.1,11.5 M73.1,13.7V3.2h-2.5v11.5c0,0.3,0.1,0.6,0.4,0.8c0.2,0.2,0.6,0.4,0.9,0.4h11.2l1.5-2.3H73.1    M32.5,11.8c2.4,0,4.3-1.9,4.3-4.3c0-2.4-1.9-4.3-4.3-4.3H21.8V16h2.5V5.5h8.1c1.1,0,2.1,0.9,2.1,2.1c0,1.1-0.9,2.1-2.1,2.1l-6.9,0   l7.3,6.4h3.6l-4.9-4.1H32.5 M6.7,16l7.4,0c3.5,0,6.4-2.9,6.4-6.4c0-3.5-2.8-6.4-6.4-6.4H6.7c-3.5,0-6.4,2.9-6.4,6.4   C0.3,13.1,3.1,16,6.7,16 M13.9,13.7H6.8c-2.3,0-4.1-1.9-4.1-4.1c0-2.3,1.8-4.1,4.1-4.1h7.1c2.3,0,4.1,1.8,4.1,4.1   C18.1,11.9,16.2,13.7,13.9,13.7 M60.5,16h7.6l1.4-2.2h-8.8c-2.3,0-4.1-1.9-4.1-4.1c0-2.3,1.8-4.1,4.1-4.1h7.2l1.5-2.3h-8.8   c-3.5,0-6.4,2.9-6.4,6.4C54.1,13.1,57,16,60.5,16 M90.5,13.7c-1.9,0-3.5-1.3-4-3H97l1.4-2.2H86.6c0.5-1.7,2.1-3,4-3h7.2l1.4-2.3   h-8.8c-3.5,0-6.4,2.9-6.4,6.4c0,3.5,2.9,6.4,6.4,6.4h7.6l1.4-2.2H90.5 M100.5,4.6c0,0.6,0.5,1.1,1.1,1.1c0.6,0,1.1-0.5,1.1-1.1   c0-0.6-0.5-1.1-1.1-1.1C101,3.4,100.5,3.9,100.5,4.6 M101.6,6c-0.8,0-1.4-0.6-1.4-1.4c0-0.8,0.6-1.4,1.4-1.4c0.8,0,1.4,0.6,1.4,1.4   C103.1,5.4,102.4,6,101.6,6 M101.5,3.7h-0.4v1.6h0.3V4.7h0.2l0.3,0.6h0.4l-0.4-0.7c0,0,0,0,0.1,0c0.1-0.1,0.2-0.2,0.2-0.3   c0-0.1,0-0.1,0-0.1c0-0.1,0-0.4-0.3-0.5C101.8,3.7,101.7,3.7,101.5,3.7 M101.6,4.5h-0.2V4h0.1c0.2,0,0.2,0,0.3,0   c0.1,0,0.1,0.1,0.1,0.2c0,0.1,0,0.1-0.1,0.1C101.8,4.4,101.7,4.5,101.6,4.5"/>
</g>
</svg>