<?xml version="1.0" encoding="utf-8"?>
<!-- Generator: Adobe Illustrator 16.0.0, SVG Export Plug-In . SVG Version: 6.00 Build 0)  -->
<!DOCTYPE svg PUBLIC "-//W3C//DTD SVG 1.1//EN" "http://www.w3.org/Graphics/SVG/1.1/DTD/svg11.dtd">
<svg version="1.1" id="Layer_1" xmlns="http://www.w3.org/2000/svg" xmlns:xlink="http://www.w3.org/1999/xlink" x="0px" y="0px"
	 width="1000px" height="501.653px" viewBox="0 0 1000 501.653" enable-background="new 0 0 1000 501.653" xml:space="preserve">
<g>
	<path fill="#407FC1" d="M1916.62,743.849c-58.328,0-102.115,40.602-102.115,98.655c0,58.049,43.787,98.656,102.115,98.656
		c58.318,0,101.787-40.607,101.787-98.656C2018.407,784.45,1974.938,743.849,1916.62,743.849 M1972.585,845.894
		c-0.811,13.33-6.154,25.369-14.641,34.601c-1.041,1.019-2.025,2.106-3.088,3.104c-10.029,9.35-23.41,15.191-38.203,15.191
		c-31.098,0-56.303-25.206-56.303-56.286c0-31.091,25.205-56.286,56.303-56.286c29.914,0,54.145,23.416,55.932,52.892V845.894z"/>
	<path fill="#407FC1" d="M1703.782,828.21v43.179h42.889v14.854c-6.854,5.731-21.152,11.458-35.17,11.458
		c-31.184,0-53.193-24.022-53.193-55.196c0-31.464,22.01-55.187,53.193-55.187c18.592,0,33.178,11.717,40.307,24.309l41.191-21.45
		c-13.16-23.739-38.902-46.317-81.498-46.317c-56.916,0-103.244,38.018-103.244,98.646s46.328,98.656,103.244,98.656
		c32.236,0,58.012-11.728,77.633-30.364c0.406-0.377,0.777-0.793,1.172-1.177c3.219-3.498,5.256-8.081,5.563-13.139v-2.568V828.21
		H1703.782z"/>
	<path fill="#407FC1" d="M1559.97,746.996h-3.789c-10.609,0.952-18.943,9.587-19.381,20.328v1.691v82.938l-77.205-104.957h-50.631
		v190.731h49.186V827.354l80.656,110.373h47.465V746.996H1559.97z"/>
	<path fill="#407FC1" d="M1318.388,746.996h-62.061l-71.764,190.737h55.754l9.439-27.451h75.225l4.947,14.398l0.045,0.17
		c3.088,7.275,10.139,12.4,18.418,12.883h2.518h39.266L1318.388,746.996z M1263.204,867.388l24.307-71.787l24.035,71.787H1263.204z"
		/>
	<path fill="#407FC1" d="M1087.171,746.996h-80.08v168.153v2.578c0.674,10.967,9.542,19.677,20.607,20.006h1.259h58.493
		c59.752,0,102.953-36.32,102.953-95.52C1190.403,783.02,1147.202,746.996,1087.171,746.996 M1087.171,894.832h-30.888V789.886
		h31.167c34.885,0,52.619,22.873,52.619,52.328C1140.069,870.524,1120.616,894.832,1087.171,894.832"/>
	<path fill="#407FC1" d="M946.541,746.996h-2.536c-10.719,0.64-19.265,9.127-19.971,19.856v2.76v82.341l-77.195-104.957h-50.625
		v190.731h49.191V827.354l80.648,110.373h47.473V746.996H946.541z"/>
	<path fill="#407FC1" d="M706.733,746.996h-63.458l-71.786,190.737h57.162l9.455-27.451h75.213l4.944,14.398l0.054,0.17
		c3.082,7.275,10.123,12.4,18.412,12.883h2.514h39.265L706.733,746.996z M651.536,867.388l24.318-71.787l24.018,71.787H651.536z"/>
	<path fill="#407FC1" d="M590.52,788.512v-42.54H444.309v190.934l52.164,0.013v-67.319h47.121h4.451
		c8.908-1.068,15.877-8.377,16.418-17.449v-2.216v-23.29h-67.99v-38.132H590.52z"/>
	<path fill="#F26526" d="M324.143,772.974l-24.276-90.574L45.355,750.593l24.286,90.619l0.01,0.033
		c15.215,3.109,28.158,14.513,32.449,30.533c4.298,16.035-1.21,32.371-12.838,42.676l0.012,0.033l24.286,90.618l254.512-68.194
		l-24.274-90.575c-15.297-3.06-28.311-14.485-32.63-30.576C306.864,799.669,312.426,783.267,324.143,772.974 M229.193,776.149
		l-75.75,20.295l15.226,56.813l75.738-20.295l15.232,56.812l-75.755,20.294l15.225,56.813l-75.75,20.297l-18.423-68.742
		c11.07-13.578,15.676-32.088,10.802-50.309c-4.877-18.209-18.132-31.935-34.502-38.171l-18.755-70.022l151.486-40.596
		L229.193,776.149z"/>
	<path fill="#FFFFFF" d="M229.193,776.149l-75.75,20.295l15.226,56.813l75.738-20.295l15.232,56.812l-75.755,20.294l15.225,56.813
		l-75.75,20.297l-18.423-68.742c11.07-13.578,15.676-32.088,10.802-50.309c-4.877-18.209-18.132-31.935-34.502-38.171
		l-18.755-70.022l151.486-40.596L229.193,776.149z"/>
	<path d="M2045.354,753.747c0,2.682-0.963,4.981-2.857,6.887c-1.904,1.895-4.215,2.847-6.908,2.847
		c-2.672,0-4.973-0.952-6.877-2.847c-1.906-1.905-2.857-4.205-2.857-6.887c0-2.689,0.951-4.988,2.857-6.882
		c1.904-1.906,4.205-2.858,6.877-2.858c2.693,0,5.004,0.952,6.908,2.858C2044.392,748.759,2045.354,751.058,2045.354,753.747
		 M2044.03,753.747c0-2.355-0.822-4.348-2.475-5.996c-1.631-1.658-3.635-2.48-5.967-2.48c-2.322,0-4.303,0.822-5.947,2.48
		c-1.652,1.648-2.473,3.641-2.473,5.996c0,2.331,0.82,4.341,2.473,5.988c1.645,1.659,3.625,2.492,5.947,2.492
		c2.332,0,4.336-0.833,5.967-2.492C2043.208,758.088,2044.03,756.078,2044.03,753.747 M2041.194,758.706h-2.541l-3.176-3.969h-1.4
		v3.969h-1.861v-10.313h3.143c0.699,0,1.26,0.032,1.664,0.087c0.406,0.045,0.82,0.193,1.248,0.438
		c0.447,0.257,0.777,0.558,0.975,0.931c0.209,0.355,0.307,0.815,0.307,1.391c0,0.75-0.209,1.368-0.613,1.85
		c-0.416,0.482-0.953,0.86-1.631,1.129L2041.194,758.706z M2037.505,751.349c0-0.279-0.045-0.516-0.133-0.718
		s-0.24-0.378-0.471-0.515c-0.186-0.125-0.404-0.201-0.623-0.246c-0.242-0.043-0.537-0.065-0.91-0.065h-1.291v3.493h1.105
		c0.361,0,0.689-0.033,1.018-0.109c0.309-0.066,0.57-0.203,0.758-0.373c0.197-0.164,0.338-0.366,0.414-0.59
		C2037.46,752.001,2037.505,751.71,2037.505,751.349"/>
</g>
<g>
	<path d="M2045.354,1182.476c0,3.242-1.141,6.002-3.428,8.279c-2.289,2.299-5.059,3.438-8.289,3.438s-5.99-1.139-8.277-3.438
		c-2.301-2.277-3.428-5.037-3.428-8.279c0-3.219,1.127-5.979,3.428-8.256c2.287-2.299,5.047-3.438,8.277-3.438s6,1.139,8.289,3.438
		C2044.214,1176.497,2045.354,1179.257,2045.354,1182.476 M2043.767,1182.476c0-2.802-0.998-5.211-2.967-7.182
		c-1.971-1.994-4.357-2.979-7.162-2.979c-2.793,0-5.18,0.984-7.15,2.979c-1.982,1.971-2.979,4.38-2.979,7.182
		c0,2.825,0.996,5.213,2.979,7.205c1.971,1.994,4.357,3.001,7.15,3.001c2.805,0,5.191-1.007,7.162-3.001
		C2042.769,1187.688,2043.767,1185.301,2043.767,1182.476 M2040.372,1188.455h-3.055l-3.813-4.774h-1.686v4.774h-2.244v-12.396
		h3.768c0.854,0,1.521,0.022,2.014,0.087c0.492,0.088,0.998,0.242,1.488,0.548c0.549,0.307,0.943,0.68,1.172,1.118
		c0.252,0.416,0.373,0.984,0.373,1.664c0,0.898-0.24,1.642-0.756,2.232c-0.492,0.569-1.139,1.03-1.938,1.358L2040.372,1188.455z
		 M2035.937,1179.608c0-0.329-0.055-0.614-0.164-0.854c-0.109-0.263-0.295-0.461-0.568-0.613c-0.221-0.176-0.482-0.264-0.756-0.308
		c-0.285-0.064-0.646-0.064-1.084-0.064h-1.545v4.183h1.324c0.428,0,0.834-0.045,1.205-0.132c0.385-0.088,0.691-0.24,0.922-0.438
		c0.238-0.22,0.404-0.438,0.502-0.724C2035.882,1180.375,2035.937,1180.045,2035.937,1179.608"/>
	<path fill="#407FC1" d="M1918.36,1168.768c-58.385,0-102.205,40.645-102.205,98.744s43.82,98.744,102.205,98.744
		c58.395,0,101.896-40.645,101.896-98.744S1976.755,1168.768,1918.36,1168.768 M1974.39,1270.905
		c-0.822,13.337-6.154,25.403-14.652,34.624c-1.039,1.028-2.035,2.123-3.086,3.131c-10.053,9.352-23.434,15.176-38.26,15.176
		c-31.107,0-56.334-25.206-56.334-56.324c0-31.119,25.227-56.348,56.334-56.348c29.947,0,54.213,23.433,55.998,52.953V1270.905z"/>
	<path fill="#407FC1" d="M1705.323,1253.211v43.208h42.943v14.87c-6.865,5.737-21.188,11.474-35.213,11.474
		c-31.207,0-53.236-24.045-53.236-55.251c0-31.491,22.029-55.252,53.236-55.252c18.613,0,33.211,11.737,40.348,24.352l41.238-21.483
		c-13.184-23.761-38.949-46.36-81.586-46.36c-56.961,0-103.332,38.062-103.332,98.744s46.371,98.765,103.332,98.765
		c32.268,0,58.076-11.737,77.721-30.396c0.395-0.394,0.766-0.81,1.16-1.204c3.23-3.481,5.256-8.059,5.572-13.14v-2.584v-65.742
		H1705.323z"/>
	<path fill="#407FC1" d="M1561.38,1171.921h-3.791c-10.621,0.942-18.963,9.57-19.402,20.322v1.709v83.02l-77.271-105.051h-50.664
		v190.896h49.229v-110.481l80.723,110.481h47.521v-190.896H1561.38z"/>
	<path fill="#407FC1" d="M1319.577,1171.921h-62.105l-71.842,190.918h55.801l9.459-27.483h75.279l4.961,14.409l0.055,0.176
		c3.076,7.271,10.127,12.395,18.416,12.898h2.529h39.309L1319.577,1171.921z M1264.347,1292.411l24.33-71.852l24.045,71.852
		H1264.347z"/>
	<path fill="#407FC1" d="M1088.146,1171.899h-80.163v168.34v2.563c0.69,10.994,9.56,19.709,20.63,20.037h1.259h58.547
		c59.807,0,103.059-36.352,103.059-95.612C1191.478,1207.968,1148.226,1171.899,1088.146,1171.899 M1088.146,1319.895h-30.921
		v-105.051h31.195c34.92,0,52.668,22.885,52.668,52.383C1141.087,1295.565,1121.618,1319.895,1088.146,1319.895"/>
	<path fill="#407FC1" d="M947.376,1171.921h-2.529c-10.73,0.635-19.293,9.132-19.994,19.863v2.759v82.429l-77.26-105.051h-50.676
		v190.896h49.241v-110.481l80.709,110.481h47.521v-190.896H947.376z"/>
	<path fill="#407FC1" d="M707.349,1171.921h-63.519l-71.853,190.918h57.213l9.449-27.483h75.301l4.938,14.409l0.066,0.176
		c3.077,7.271,10.129,12.395,18.43,12.898h2.506h39.311L707.349,1171.921z M652.097,1292.411l24.341-71.852l24.046,71.852H652.097z"
		/>
	<path fill="#407FC1" d="M591.032,1213.464v-42.572H444.677v191.115h52.219v-67.384h47.16h4.457
		c8.924-1.052,15.898-8.366,16.436-17.454v-2.234v-23.301h-68.053v-38.17H591.032z"/>
	<path fill="#F26526" d="M344.072,1271.344c-15.308-3.065-28.349-14.497-32.652-30.593c-4.313-16.119,1.26-32.521,12.977-42.836
		l-24.286-90.663l-254.755,68.261l24.297,90.707l0.011,0.043c15.242,3.11,28.195,14.52,32.489,30.55
		c4.302,16.052-1.217,32.411-12.855,42.703l0.01,0.045l24.309,90.708l254.755-68.262L344.072,1271.344z M99.938,1342.386
		c11.65-12.987,16.021-30.879,11.432-48.048c-4.599-17.147-17.322-30.44-33.91-35.871l-20.433-76.21l236.326-63.31l20.398,76.077
		c-11.747,13.008-16.171,30.965-11.55,48.201c4.609,17.213,17.408,30.549,34.086,35.937l20.398,76.101l-236.326,63.311
		L99.938,1342.386z"/>
	<path fill="#F26526" d="M229.363,1201.091l-75.826,20.301l15.242,56.872l75.815-20.301l15.242,56.852l-75.815,20.321l15.231,56.852
		l-75.815,20.322l-18.451-68.786c11.07-13.62,15.691-32.126,10.819-50.368c-4.896-18.221-18.155-31.973-34.536-38.192
		l-18.789-70.099l151.643-40.646L229.363,1201.091z"/>
</g>
<g>
	<path fill="#F26526" d="M616.299,98.725L589.847,0L312.433,74.334l26.465,98.772l0.008,0.043
		c16.592,3.391,30.698,15.813,35.378,33.277c4.681,17.475-1.328,35.283-14.003,46.516l0.017,0.042l26.47,98.771l277.414-74.334
		l-26.444-98.729c-16.69-3.34-30.869-15.785-35.575-33.324C597.465,127.833,603.538,109.957,616.299,98.725 M512.808,102.188
		l-82.565,22.121l16.592,61.925l82.565-22.121l16.591,61.924l-82.565,22.13l16.592,61.921l-82.565,22.122l-20.072-74.929
		c12.052-14.811,17.083-34.985,11.765-54.831c-5.321-19.854-19.769-34.811-37.611-41.6l-20.448-76.339l165.13-44.244
		L512.808,102.188z"/>
	<path fill="#407FC1" d="M913.451,379.239c-36.181,0-63.342,25.18-63.342,61.197c0,36.027,27.161,61.217,63.342,61.217
		c36.189,0,63.163-25.189,63.163-61.217C976.614,404.419,949.641,379.239,913.451,379.239 M948.181,442.542
		c-0.504,8.269-3.818,15.746-9.088,21.473c-0.649,0.633-1.247,1.303-1.905,1.927c-6.227,5.8-14.529,9.416-23.711,9.416
		c-19.286,0-34.925-15.625-34.925-34.921c0-19.286,15.639-34.916,34.925-34.916c18.56,0,33.593,14.528,34.704,32.814V442.542z"/>
	<path fill="#407FC1" d="M781.402,431.571v26.789h26.615v9.221c-4.253,3.549-13.12,7.103-21.814,7.103
		c-19.355,0-33.013-14.896-33.013-34.243c0-19.512,13.658-34.241,33.013-34.241c11.522,0,20.576,7.269,25,15.088l25.556-13.312
		c-8.157-14.721-24.129-28.742-50.556-28.742c-35.31,0-64.06,23.601-64.06,61.207c0,37.607,28.75,61.217,64.06,61.217
		c19.986,0,35.984-7.277,48.165-18.839c0.247-0.239,0.469-0.49,0.725-0.733c1.99-2.17,3.246-5.015,3.442-8.153v-1.601v-40.76
		H781.402z"/>
	<path fill="#407FC1" d="M692.18,381.186h-2.34c-6.594,0.585-11.762,5.949-12.026,12.611v1.051v51.453l-47.908-65.115h-31.406
		v118.34h30.509v-68.483l50.043,68.483h29.442v-118.34H692.18z"/>
	<path fill="#407FC1" d="M542.306,381.186h-38.504l-44.526,118.335h34.584l5.859-17.026h46.669l3.071,8.931l0.034,0.102
		c1.909,4.515,6.282,7.701,11.415,7.994h1.563h24.368L542.306,381.186z M508.063,455.88l15.081-44.539l14.909,44.539H508.063z"/>
	<path fill="#407FC1" d="M398.846,381.186h-49.689v104.328v1.602c0.423,6.804,5.923,12.21,12.791,12.41h0.787h36.287
		c37.073,0,63.877-22.532,63.877-59.264C462.897,403.542,436.094,381.186,398.846,381.186 M398.846,472.911h-19.163v-65.119h19.338
		c21.64,0,32.641,14.195,32.641,32.47C431.661,457.831,419.601,472.911,398.846,472.911"/>
	<path fill="#407FC1" d="M311.592,381.186h-1.563c-6.657,0.394-11.958,5.667-12.393,12.316v1.713v51.086l-47.896-65.115h-31.411
		v118.34h30.519v-68.483l50.035,68.483h29.45v-118.34H311.592z"/>
	<path fill="#407FC1" d="M162.815,381.186h-39.384L78.905,499.521h35.463l5.864-17.026h46.662l3.07,8.931l0.034,0.102
		c1.913,4.515,6.278,7.701,11.42,7.994h1.559h24.369L162.815,381.186z M128.564,455.88l15.088-44.539l14.904,44.539H128.564z"/>
	<path fill="#407FC1" d="M90.709,406.942v-26.394H0v118.468h32.363V457.25h29.229h2.768c5.526-0.653,9.856-5.192,10.177-10.825
		v-1.371v-14.452H32.363v-23.659H90.709z"/>
	<path fill="#FFFFFF" d="M512.808,102.188l-82.565,22.121l16.592,61.925l82.565-22.121l16.591,61.924l-82.565,22.13l16.592,61.921
		l-82.565,22.122l-20.072-74.929c12.052-14.811,17.083-34.985,11.765-54.831c-5.321-19.854-19.769-34.811-37.611-41.6
		l-20.448-76.339l165.13-44.244L512.808,102.188z"/>
	<path d="M1000,386.755c0,2.07-0.733,3.848-2.203,5.316c-1.486,1.479-3.255,2.213-5.338,2.213c-2.076,0-3.853-0.734-5.33-2.213
		c-1.469-1.469-2.204-3.246-2.204-5.316c0-2.071,0.734-3.848,2.204-5.316c1.477-1.47,3.254-2.205,5.33-2.205
		c2.083,0,3.852,0.735,5.338,2.205C999.267,382.907,1000,384.684,1000,386.755 M998.976,386.755c0-1.811-0.641-3.353-1.905-4.625
		c-1.281-1.281-2.81-1.918-4.612-1.918c-1.794,0-3.332,0.637-4.603,1.918c-1.273,1.272-1.906,2.814-1.906,4.625
		s0.632,3.356,1.906,4.633c1.271,1.277,2.809,1.918,4.603,1.918c1.802,0,3.331-0.641,4.612-1.918
		C998.335,390.111,998.976,388.565,998.976,386.755 M996.789,390.585h-1.972l-2.443-3.063h-1.085v3.063h-1.435v-7.96h2.417
		c0.547,0,0.974,0.017,1.299,0.064c0.315,0.042,0.632,0.157,0.956,0.337c0.351,0.205,0.599,0.44,0.752,0.717
		c0.153,0.283,0.23,0.641,0.23,1.077c0,0.589-0.153,1.059-0.47,1.435c-0.324,0.367-0.743,0.666-1.248,0.876L996.789,390.585z
		 M993.937,384.909c0-0.208-0.035-0.4-0.103-0.559c-0.077-0.15-0.197-0.291-0.368-0.394c-0.146-0.098-0.308-0.166-0.487-0.196
		c-0.18-0.033-0.409-0.043-0.7-0.043h-0.991v2.695h0.854c0.273,0,0.538-0.025,0.777-0.085c0.248-0.056,0.436-0.149,0.589-0.282
		c0.146-0.133,0.265-0.285,0.333-0.465C993.902,385.409,993.937,385.179,993.937,384.909"/>
</g>
<g>
	<path fill="#F26526" d="M1779.102,180.085c-16.801-3.365-31.099-15.912-35.839-33.585c-4.732-17.671,1.384-35.685,14.246-47.002
		L1730.852,0l-279.564,74.916l26.674,99.533l0.009,0.042c16.723,3.425,30.937,15.938,35.65,33.542
		c4.715,17.611-1.332,35.557-14.109,46.874l0.018,0.043l26.665,99.532l279.575-74.908L1779.102,180.085z M1508.386,257.349
		c12.896-13.699,17.825-32.943,12.896-51.367c-4.938-18.424-18.834-32.619-36.855-38.034l-23.421-87.42L1725.249,9.72l23.395,87.318
		c-13.008,13.7-18.006,33.003-13.043,51.512c4.963,18.518,18.937,32.739,37.053,38.104l23.395,87.309l-264.243,70.799
		L1508.386,257.349z"/>
	<path fill="#407FC1" d="M2056.968,382.181c-36.479,0-63.846,25.385-63.846,61.676c0,36.301,27.366,61.695,63.846,61.695
		c36.473,0,63.642-25.395,63.642-61.695C2120.609,407.565,2093.44,382.181,2056.968,382.181 M2091.962,445.976
		c-0.513,8.336-3.853,15.869-9.165,21.635c-0.641,0.633-1.265,1.316-1.922,1.949c-6.278,5.842-14.641,9.488-23.89,9.488
		c-19.44,0-35.199-15.75-35.199-35.191c0-19.439,15.759-35.189,35.199-35.189c18.697,0,33.85,14.641,34.977,33.064V445.976z"/>
	<path fill="#407FC1" d="M1923.894,434.923v27h26.82v9.283c-4.296,3.58-13.23,7.168-21.994,7.168
		c-19.499,0-33.26-15.018-33.26-34.518c0-19.67,13.761-34.506,33.26-34.506c11.625,0,20.747,7.32,25.197,15.203l25.761-13.41
		c-8.226-14.836-24.327-28.963-50.958-28.963c-35.583,0-64.547,23.77-64.547,61.676c0,37.908,28.964,61.686,64.547,61.686
		c20.149,0,36.267-7.328,48.541-18.986c0.256-0.23,0.478-0.488,0.727-0.734c2.023-2.188,3.287-5.057,3.483-8.209v-1.613v-41.076
		H1923.894z"/>
	<path fill="#407FC1" d="M1833.972,384.146h-2.357c-6.637,0.59-11.855,5.986-12.121,12.709v1.051v51.861l-48.275-65.621h-31.654
		v119.254h30.758v-69.014l50.42,69.014h29.681V384.146H1833.972z"/>
	<path fill="#407FC1" d="M1682.936,384.146h-38.795l-44.876,119.254h34.857l5.91-17.16h47.028l3.092,9.002l0.026,0.104
		c1.93,4.545,6.337,7.748,11.514,8.055h1.571h24.556L1682.936,384.146z M1648.437,459.411l15.187-44.877l15.042,44.877H1648.437z"/>
	<path fill="#407FC1" d="M1538.373,384.146h-50.077v105.127v1.613c0.436,6.867,5.979,12.309,12.897,12.514h0.786h36.564
		c37.369,0,64.367-22.703,64.367-59.73C1602.911,406.669,1575.913,384.146,1538.373,384.146 M1538.373,476.579h-19.312v-65.613
		h19.482c21.814,0,32.901,14.297,32.901,32.703C1571.445,461.384,1559.282,476.579,1538.373,476.579"/>
	<path fill="#407FC1" d="M1450.44,384.146h-1.58c-6.696,0.402-12.043,5.705-12.479,12.41v1.734v51.477l-48.275-65.621h-31.654
		v119.254h30.757v-69.014l50.428,69.014h29.682V384.146H1450.44z"/>
	<path fill="#407FC1" d="M1300.515,384.146h-39.682l-44.877,119.254h35.737l5.91-17.16h47.02l3.101,9.002l0.034,0.104
		c1.922,4.545,6.329,7.748,11.505,8.055h1.572h24.557L1300.515,384.146z M1266,459.411l15.204-44.877l15.015,44.877H1266z"/>
	<path fill="#407FC1" d="M1227.854,410.103v-26.598h-91.418v119.373l32.61,0.008v-42.082l29.46-0.01h2.792
		c5.561-0.656,9.925-5.234,10.259-10.906v-1.393v-14.553h-42.511v-23.84H1227.854z"/>
	<path d="M2136.437,392.396c0,2.512-0.889,4.664-2.674,6.441c-1.776,1.768-3.93,2.664-6.439,2.664c-2.512,0-4.664-0.896-6.44-2.664
		c-1.785-1.777-2.674-3.93-2.674-6.441c0-2.51,0.889-4.654,2.674-6.432c1.776-1.775,3.929-2.656,6.44-2.656
		c2.51,0,4.663,0.881,6.439,2.656C2135.548,387.741,2136.437,389.886,2136.437,392.396 M2135.198,392.396
		c0-2.186-0.76-4.057-2.314-5.594c-1.529-1.545-3.383-2.314-5.561-2.314c-2.17,0-4.032,0.77-5.561,2.314
		c-1.555,1.537-2.315,3.408-2.315,5.594c0,2.195,0.761,4.059,2.315,5.604c1.528,1.555,3.391,2.324,5.561,2.324
		c2.178,0,4.031-0.77,5.561-2.324C2134.438,396.454,2135.198,394.591,2135.198,392.396 M2132.559,397.034h-2.375l-2.972-3.699
		h-1.307v3.699h-1.742v-9.635h2.929c0.667,0,1.188,0.025,1.571,0.086c0.377,0.051,0.761,0.18,1.154,0.41
		c0.426,0.23,0.726,0.52,0.913,0.861c0.188,0.342,0.282,0.77,0.282,1.307c0,0.701-0.188,1.273-0.572,1.727
		c-0.393,0.453-0.896,0.811-1.521,1.059L2132.559,397.034z M2129.108,390.167c0-0.256-0.043-0.479-0.129-0.676
		c-0.085-0.18-0.23-0.35-0.443-0.479c-0.172-0.119-0.368-0.195-0.581-0.229c-0.222-0.043-0.504-0.061-0.847-0.061h-1.203v3.262
		h1.033c0.334,0,0.648-0.033,0.939-0.102c0.29-0.068,0.538-0.188,0.718-0.342c0.179-0.172,0.308-0.35,0.393-0.564
		C2129.065,390.765,2129.108,390.501,2129.108,390.167"/>
	<path fill="#F26526" d="M1653.22,102.991l-83.209,22.292l16.724,62.403l83.21-22.293l16.715,62.402l-83.209,22.293l16.724,62.403
		l-83.201,22.302l-20.234-75.514c12.155-14.922,17.21-35.25,11.855-55.254c-5.355-20.013-19.909-35.08-37.89-41.921l-20.619-76.932
		l166.411-44.594L1653.22,102.991z"/>
</g>
<g>
	<path fill="#F26526" d="M933.668-849.875l-75.212-280.673L69.781-919.224l75.251,280.803l0.026,0.128
		c47.162,9.626,87.271,44.949,100.574,94.606c13.3,49.66-3.766,100.293-39.791,132.222l0.026,0.127l75.237,280.79l788.675-211.325
		l-75.212-280.674c-47.404-9.487-87.745-44.885-101.098-94.723C880.117-767.121,897.349-817.946,933.668-849.875"/>
	<path fill="#FFFFFF" d="M638.924-838.467L405.94-776.044l46.817,174.736l232.985-62.436l46.806,174.735l-232.961,62.436
		l46.816,174.736l-232.973,62.425l-56.676-211.442c34.041-41.771,48.227-98.703,33.209-154.725
		c-14.99-55.996-55.752-98.218-106.104-117.371l-57.725-215.408l465.959-124.846L638.924-838.467z"/>
</g>
<g>
	<path fill="#F26526" d="M2052.511-622.537c-47.396-9.505-87.75-44.88-101.105-94.714c-13.352-49.867,3.887-100.688,40.189-132.625
		l-75.203-280.669l-788.678,211.323l75.236,280.785l0.025,0.153c47.178,9.622,87.27,44.938,100.584,94.593
		c13.309,49.683-3.764,100.298-39.783,132.233l0.031,0.124l75.248,280.784l788.658-211.323L2052.511-622.537z M1288.786-404.582
		c36.393-38.633,50.326-92.89,36.393-144.908c-13.924-51.955-53.127-91.995-103.979-107.256l-66.076-246.639l745.463-199.762
		l65.998,246.338c-36.707,38.657-50.795,93.096-36.809,145.324c14.014,52.222,53.42,92.354,104.541,107.467l65.998,246.346
		l-745.441,199.729L1288.786-404.582z"/>
	<path fill="#F26526" d="M1697.388-840.017l-234.727,62.893l47.158,176.037l234.746-62.893l47.146,176.039l-234.721,62.893
		l47.164,176.04l-234.711,62.886l-57.088-212.993c34.285-42.095,48.586-99.465,33.465-155.9
		c-15.133-56.408-56.205-98.952-106.914-118.227l-58.145-217.025l469.434-125.788L1697.388-840.017z"/>
</g>
</svg>
