<?xml version="1.0" encoding="utf-8"?>
<!-- Generator: Adobe Illustrator 16.0.0, SVG Export Plug-In . SVG Version: 6.00 Build 0)  -->
<!DOCTYPE svg PUBLIC "-//W3C//DTD SVG 1.1//EN" "http://www.w3.org/Graphics/SVG/1.1/DTD/svg11.dtd">
<svg version="1.1"
	 id="svg2" xmlns:dc="http://purl.org/dc/elements/1.1/" xmlns:cc="http://creativecommons.org/ns#" xmlns:inkscape="http://www.inkscape.org/namespaces/inkscape" xmlns:sodipodi="http://sodipodi.sourceforge.net/DTD/sodipodi-0.dtd" xmlns:svg="http://www.w3.org/2000/svg" xmlns:rdf="http://www.w3.org/1999/02/22-rdf-syntax-ns#" inkscape:version="0.48.5 r10040" inkscape:export-ydpi="90" sodipodi:docname="NBC 2014 Ident Style.svg" inkscape:export-xdpi="90" inkscape:export-filename="C:\Users\iampears\Pictures\NBC 2014 Ident Style.png"
	 xmlns="http://www.w3.org/2000/svg" xmlns:xlink="http://www.w3.org/1999/xlink" x="0px" y="0px" width="594.855px"
	 height="537.784px" viewBox="0.212 -0.509 594.855 537.784" enable-background="new 0.212 -0.509 594.855 537.784"
	 xml:space="preserve">
<sodipodi:namedview  borderopacity="1" pagecolor="#ffffff" showguides="true" objecttolerance="10" guidetolerance="10" bordercolor="#666666" gridtolerance="10" showgrid="false" inkscape:cx="330.18432" inkscape:zoom="0.8572472" inkscape:cy="273.26429" id="namedview3135" inkscape:guide-bbox="true" inkscape:window-x="-8" inkscape:pageshadow="2" inkscape:current-layer="svg2" inkscape:window-maximized="1" inkscape:window-y="-8" inkscape:window-width="1366" inkscape:pageopacity="0" inkscape:window-height="706">
	</sodipodi:namedview>
<g>
	<g id="g3830">
		<g id="g3775">
			<g id="g3721">
				<g id="g3668">
					<path id="path5264" inkscape:connector-curvature="0" fill="#FFFFFF" d="M228.737-0.236c-1.805,0.032-3.634,0.12-5.432,0.289
						c-0.524,0.049-1.036,0.112-1.56,0.173c-2.905,0.337-5.771,0.869-8.61,1.56c-0.207,0.05-0.429,0.063-0.635,0.116
						c-0.347,0.087-0.695,0.196-1.041,0.289c-0.978,0.263-1.923,0.562-2.889,0.867c-0.523,0.165-1.041,0.342-1.561,0.52
						c-0.246,0.084-0.505,0.144-0.751,0.231c-0.733,0.261-1.471,0.523-2.195,0.809c-0.602,0.236-1.197,0.498-1.791,0.751
						c-0.43,0.183-0.847,0.386-1.271,0.578c-0.267,0.12-0.545,0.224-0.81,0.347c-0.588,0.276-1.152,0.574-1.733,0.867
						c-0.738,0.372-1.471,0.756-2.195,1.155c-0.46,0.254-0.934,0.486-1.387,0.751c-0.155,0.09-0.309,0.197-0.462,0.289
						c-0.676,0.403-1.362,0.844-2.022,1.271c-0.688,0.443-1.354,0.917-2.022,1.387c-0.284,0.2-0.587,0.374-0.867,0.578
						c-0.178,0.129-0.344,0.273-0.52,0.405c-0.868,0.646-1.709,1.33-2.543,2.022c-0.792,0.658-1.551,1.323-2.312,2.021
						c-0.857,0.79-1.728,1.585-2.542,2.427c-18.795,18.861-26.681,46.419-18.259,72.806c1.144,2.596,2.268,5.203,3.409,7.801
						c-19.521-19.068-48.776-25.503-75.291-15.833c-20.032,7.484-36.899,26.478-42.297,46.746
						c-7.219,27.044-0.146,56.561,21.148,74.366c1.817,1.258,3.667,2.497,5.489,3.756c-12.021-1.347-24.45,0.444-34.727,5.663
						c-14.706,6.09-28.595,21.486-35.017,36.865c-10.009,22.406-6.106,53.188,8.147,72.284
						c14.168,18.313,33.126,28.199,55.298,27.563l213.391,0.229l0,0h29.533h-0.007l213.39-0.229c1.386,0.039,2.742,0.043,4.103,0
						c20.403-0.629,37.912-10.396,51.195-27.563c14.254-19.096,18.156-49.878,8.147-72.284
						c-6.422-15.379-20.311-30.775-35.018-36.865c-10.275-5.219-22.705-7.01-34.727-5.663c1.822-1.258,3.672-2.498,5.489-3.756
						c21.296-17.806,28.366-47.322,21.147-74.366c-5.396-20.268-22.265-39.262-42.297-46.746c-26.514-9.67-55.77-3.236-75.29,15.833
						c1.141-2.598,2.265-5.205,3.409-7.801c8.422-26.387,0.535-53.945-18.26-72.806c-0.771-0.796-1.562-1.563-2.369-2.312
						c-0.051-0.047-0.122-0.069-0.173-0.116c-0.386-0.354-0.764-0.697-1.156-1.04c-0.382-0.333-0.767-0.659-1.155-0.982
						c-0.834-0.692-1.675-1.376-2.542-2.022c-0.177-0.131-0.343-0.275-0.521-0.405c-0.703-0.512-1.415-1.02-2.139-1.502
						c-0.245-0.163-0.505-0.303-0.751-0.462c-0.661-0.428-1.347-0.868-2.021-1.271c-0.322-0.191-0.657-0.392-0.982-0.578
						c-0.632-0.362-1.264-0.699-1.907-1.04c-0.385-0.204-0.767-0.382-1.154-0.578c-0.581-0.293-1.146-0.591-1.733-0.867
						c-0.459-0.214-0.924-0.432-1.387-0.635c-0.535-0.236-1.077-0.472-1.618-0.693c-0.536-0.219-1.076-0.43-1.618-0.636
						c-0.478-0.182-0.962-0.349-1.444-0.52c-0.61-0.217-1.23-0.437-1.849-0.636c-0.423-0.137-0.847-0.275-1.271-0.404
						c-0.696-0.21-1.377-0.389-2.08-0.578c-0.346-0.093-0.694-0.201-1.04-0.289c-0.207-0.052-0.43-0.065-0.637-0.116
						c-2.84-0.691-5.704-1.223-8.608-1.56c-0.155-0.018-0.309-0.041-0.463-0.058c-1.01-0.111-1.991-0.221-3.004-0.289
						c-0.077-0.005-0.155,0.005-0.231,0c-1.091-0.069-2.202-0.096-3.294-0.116c-1.164-0.021-2.303-0.036-3.467,0
						c-2.116,0.066-4.257,0.203-6.356,0.462c-6.298,0.779-12.451,2.454-18.259,4.969c-13.221,5.736-25.708,16.428-33.571,29.469
						c-0.761,1.442-1.509,2.907-2.195,4.392c-1.387,2.97-2.592,6.052-3.641,9.188c-0.513,1.533-1.028,3.05-1.444,4.623
						c-0.416-1.566-0.876-3.095-1.387-4.623c-1.049-3.136-2.255-6.217-3.641-9.188c-0.688-1.485-1.436-2.949-2.196-4.392
						c-7.863-13.041-20.351-23.732-33.571-29.469c-7.743-3.354-16.151-5.166-24.615-5.432C231.04-0.271,229.902-0.256,228.737-0.236
						L228.737-0.236z"/>
					
						<radialGradient id="path5266_1_" cx="134.8413" cy="-30.2632" r="160.7198" gradientTransform="matrix(-9.429283e-006 1.8662 -1.8635 -9.415429e-006 242.4689 -21.4654)" gradientUnits="userSpaceOnUse">
						<stop  offset="0" style="stop-color:#FFFFFF"/>
						<stop  offset="1" style="stop-color:#9CAABD"/>
					</radialGradient>
					<path id="path5266" inkscape:connector-curvature="0" opacity="0.5" fill="url(#path5266_1_)" enable-background="new    " d="
						M228.737-0.236c-1.805,0.032-3.634,0.12-5.432,0.289c-0.524,0.049-1.036,0.112-1.56,0.173c-2.905,0.337-5.771,0.869-8.61,1.56
						c-0.207,0.05-0.429,0.063-0.635,0.116c-0.347,0.087-0.695,0.196-1.041,0.289c-0.978,0.263-1.923,0.562-2.889,0.867
						c-0.523,0.165-1.041,0.342-1.561,0.52c-0.246,0.084-0.505,0.144-0.751,0.231c-0.733,0.261-1.471,0.523-2.195,0.809
						c-0.602,0.236-1.197,0.498-1.791,0.751c-0.43,0.183-0.847,0.386-1.271,0.578c-0.267,0.12-0.545,0.224-0.81,0.347
						c-0.588,0.276-1.152,0.574-1.733,0.867c-0.738,0.372-1.471,0.756-2.195,1.155c-0.46,0.254-0.934,0.486-1.387,0.751
						c-0.155,0.09-0.309,0.197-0.462,0.289c-0.676,0.403-1.362,0.844-2.022,1.271c-0.688,0.443-1.354,0.917-2.022,1.387
						c-0.284,0.2-0.587,0.374-0.867,0.578c-0.178,0.129-0.344,0.273-0.52,0.405c-0.868,0.646-1.709,1.33-2.543,2.022
						c-0.792,0.658-1.551,1.323-2.312,2.021c-0.857,0.79-1.728,1.585-2.542,2.427c-18.795,18.861-26.681,46.419-18.259,72.806
						c1.144,2.596,2.268,5.203,3.409,7.801c-19.521-19.068-48.776-25.503-75.291-15.833c-20.032,7.484-36.899,26.478-42.297,46.746
						c-7.219,27.044-0.146,56.561,21.148,74.366c1.817,1.258,3.667,2.497,5.489,3.756c-12.021-1.347-24.45,0.444-34.727,5.663
						c-14.706,6.09-28.595,21.486-35.017,36.865c-10.009,22.406-6.106,53.188,8.147,72.284
						c14.168,18.313,33.126,28.199,55.298,27.563l213.391,0.229l0,0h29.533h-0.007l213.39-0.229c1.386,0.039,2.742,0.043,4.103,0
						c20.403-0.629,37.912-10.396,51.195-27.563c14.254-19.096,18.156-49.878,8.147-72.284
						c-6.422-15.379-20.311-30.775-35.018-36.865c-10.275-5.219-22.705-7.01-34.727-5.663c1.822-1.258,3.672-2.498,5.489-3.756
						c21.296-17.806,28.366-47.322,21.147-74.366c-5.396-20.268-22.265-39.262-42.297-46.746c-26.514-9.67-55.77-3.236-75.29,15.833
						c1.141-2.598,2.265-5.205,3.409-7.801c8.422-26.387,0.535-53.945-18.26-72.806c-0.771-0.796-1.562-1.563-2.369-2.312
						c-0.051-0.047-0.122-0.069-0.173-0.116c-0.386-0.354-0.764-0.697-1.156-1.04c-0.382-0.333-0.767-0.659-1.155-0.982
						c-0.834-0.692-1.675-1.376-2.542-2.022c-0.177-0.131-0.343-0.275-0.521-0.405c-0.703-0.512-1.415-1.02-2.139-1.502
						c-0.245-0.163-0.505-0.303-0.751-0.462c-0.661-0.428-1.347-0.868-2.021-1.271c-0.322-0.191-0.657-0.392-0.982-0.578
						c-0.632-0.362-1.264-0.699-1.907-1.04c-0.385-0.204-0.767-0.382-1.154-0.578c-0.581-0.293-1.146-0.591-1.733-0.867
						c-0.459-0.214-0.924-0.432-1.387-0.635c-0.535-0.236-1.077-0.472-1.618-0.693c-0.536-0.219-1.076-0.43-1.618-0.636
						c-0.478-0.182-0.962-0.349-1.444-0.52c-0.61-0.217-1.23-0.437-1.849-0.636c-0.423-0.137-0.847-0.275-1.271-0.404
						c-0.696-0.21-1.377-0.389-2.08-0.578c-0.346-0.093-0.694-0.201-1.04-0.289c-0.207-0.052-0.43-0.065-0.637-0.116
						c-2.84-0.691-5.704-1.223-8.608-1.56c-0.155-0.018-0.309-0.041-0.463-0.058c-1.01-0.111-1.991-0.221-3.004-0.289
						c-0.077-0.005-0.155,0.005-0.231,0c-1.091-0.069-2.202-0.096-3.294-0.116c-1.164-0.021-2.303-0.036-3.467,0
						c-2.116,0.066-4.257,0.203-6.356,0.462c-6.298,0.779-12.451,2.454-18.259,4.969c-13.221,5.736-25.708,16.428-33.571,29.469
						c-0.761,1.442-1.509,2.907-2.195,4.392c-1.387,2.97-2.592,6.052-3.641,9.188c-0.513,1.533-1.028,3.05-1.444,4.623
						c-0.416-1.566-0.876-3.095-1.387-4.623c-1.049-3.136-2.255-6.217-3.641-9.188c-0.688-1.485-1.436-2.949-2.196-4.392
						c-7.863-13.041-20.351-23.732-33.571-29.469c-7.743-3.354-16.151-5.166-24.615-5.432C231.04-0.271,229.902-0.256,228.737-0.236
						L228.737-0.236z"/>
					<path id="path5313" inkscape:connector-curvature="0" fill="#FFFFFF" d="M228.762-0.257c-1.804,0.032-3.634,0.12-5.432,0.289
						c-0.524,0.049-1.036,0.113-1.56,0.173c-2.905,0.338-5.771,0.869-8.609,1.56c-0.207,0.05-0.43,0.063-0.636,0.116
						c-0.347,0.088-0.695,0.196-1.04,0.289c-0.979,0.263-1.924,0.562-2.89,0.867c-0.522,0.166-1.041,0.342-1.56,0.52
						c-0.247,0.084-0.506,0.144-0.751,0.231c-0.734,0.261-1.472,0.523-2.196,0.809c-0.601,0.236-1.197,0.498-1.791,0.751
						c-0.429,0.184-0.847,0.386-1.271,0.578c-0.266,0.12-0.544,0.223-0.809,0.347c-0.589,0.275-1.153,0.574-1.733,0.867
						c-0.739,0.372-1.472,0.756-2.196,1.156c-0.459,0.254-0.934,0.486-1.387,0.751c-0.154,0.09-0.308,0.197-0.462,0.289
						c-0.676,0.403-1.361,0.843-2.022,1.271c-0.687,0.444-1.353,0.917-2.022,1.387c-0.283,0.2-0.586,0.374-0.866,0.578
						c-0.178,0.129-0.344,0.273-0.521,0.405c-0.867,0.646-1.708,1.33-2.542,2.021c-0.793,0.658-1.552,1.323-2.312,2.022
						c-0.858,0.789-1.729,1.584-2.543,2.427c-18.795,18.861-26.681,46.419-18.259,72.806c1.144,2.596,2.268,5.203,3.409,7.801
						c-19.521-19.068-48.776-25.503-75.29-15.833c-15.001,5.604-28.208,17.682-36.172,31.896h484.735
						c-7.964-14.214-21.171-26.292-36.172-31.896c-26.515-9.67-55.77-3.236-75.29,15.833c1.142-2.598,2.266-5.205,3.408-7.801
						c8.423-26.387,0.535-53.945-18.259-72.806c-0.77-0.795-1.561-1.563-2.369-2.312c-0.051-0.047-0.123-0.069-0.174-0.115
						c-0.385-0.354-0.763-0.697-1.155-1.041c-0.382-0.333-0.767-0.659-1.155-0.982c-0.834-0.692-1.675-1.376-2.542-2.021
						c-0.178-0.131-0.343-0.275-0.521-0.405c-0.703-0.512-1.414-1.02-2.138-1.502c-0.244-0.163-0.504-0.303-0.751-0.462
						c-0.661-0.428-1.347-0.868-2.022-1.271c-0.321-0.192-0.656-0.392-0.981-0.578c-0.632-0.362-1.264-0.699-1.906-1.04
						c-0.386-0.204-0.767-0.382-1.156-0.578c-0.58-0.293-1.145-0.591-1.732-0.867c-0.458-0.214-0.924-0.432-1.388-0.636
						c-0.534-0.236-1.076-0.472-1.617-0.693c-0.535-0.219-1.076-0.43-1.617-0.636c-0.479-0.182-0.963-0.349-1.445-0.52
						c-0.61-0.216-1.23-0.436-1.849-0.636c-0.423-0.137-0.847-0.275-1.271-0.404c-0.695-0.21-1.377-0.389-2.08-0.578
						c-0.345-0.093-0.692-0.201-1.04-0.289c-0.206-0.052-0.429-0.065-0.636-0.116c-2.839-0.691-5.704-1.222-8.609-1.56
						c-0.153-0.018-0.308-0.041-0.462-0.058c-1.01-0.111-1.991-0.221-3.005-0.289c-0.076-0.005-0.154,0.005-0.23,0
						c-1.09-0.069-2.201-0.096-3.293-0.115c-1.165-0.021-2.305-0.037-3.469,0c-2.114,0.066-4.256,0.202-6.354,0.462
						c-6.299,0.779-12.452,2.454-18.26,4.969c-13.222,5.736-25.708,16.428-33.571,29.469c-0.76,1.442-1.509,2.906-2.194,4.392
						c-1.387,2.97-2.594,6.051-3.642,9.187c-0.513,1.533-1.028,3.05-1.444,4.623c-0.415-1.566-0.876-3.095-1.387-4.623
						c-1.049-3.136-2.255-6.217-3.641-9.187c-0.688-1.485-1.436-2.95-2.195-4.392c-7.863-13.042-20.351-23.733-33.571-29.469
						c-7.744-3.354-16.152-5.166-24.615-5.431C231.066-0.294,229.927-0.278,228.762-0.257z"/>
					
						<path id="path3492" sodipodi:nodetypes="cccccccccccccccccccccscccccccccccccccccccccccccccccccsccccccccccccccccccccccssscccscscccscc" inkscape:connector-curvature="0" fill="none" stroke="#9CAABD" stroke-width="0.5" d="
						M228.737-0.236c-1.805,0.032-3.634,0.12-5.432,0.289c-0.524,0.049-1.036,0.112-1.56,0.173c-2.905,0.337-5.771,0.869-8.61,1.56
						c-0.207,0.05-0.429,0.063-0.635,0.116c-0.347,0.087-0.695,0.196-1.041,0.289c-0.978,0.263-1.923,0.562-2.889,0.867
						c-0.523,0.165-1.041,0.342-1.561,0.52c-0.246,0.084-0.505,0.144-0.751,0.231c-0.733,0.261-1.471,0.523-2.195,0.809
						c-0.602,0.236-1.197,0.498-1.791,0.751c-0.43,0.183-0.847,0.386-1.271,0.578c-0.267,0.12-0.545,0.224-0.81,0.347
						c-0.588,0.276-1.152,0.574-1.733,0.867c-0.738,0.372-1.471,0.756-2.195,1.155c-0.46,0.254-0.934,0.486-1.387,0.751
						c-0.155,0.09-0.309,0.197-0.462,0.289c-0.676,0.403-1.362,0.844-2.022,1.271c-0.688,0.443-1.354,0.917-2.022,1.387
						c-0.284,0.2-0.587,0.374-0.867,0.578c-0.178,0.129-0.344,0.273-0.52,0.405c-0.868,0.646-1.709,1.33-2.543,2.022
						c-0.792,0.658-1.551,1.323-2.312,2.021c-0.857,0.79-1.728,1.585-2.542,2.427c-18.795,18.861-26.681,46.419-18.259,72.806
						c1.144,2.596,2.268,5.203,3.409,7.801c-19.521-19.068-48.776-25.503-75.291-15.833c-20.032,7.484-36.899,26.478-42.297,46.746
						c-7.219,27.044-0.146,56.561,21.148,74.366c1.817,1.258,3.667,2.497,5.489,3.756c-12.021-1.347-24.45,0.444-34.727,5.663
						c-14.706,6.09-28.595,21.486-35.017,36.865c-10.009,22.406-6.106,53.188,8.147,72.284
						c14.168,18.313,33.126,28.199,55.298,27.563l213.391,0.229l0,0h29.533h-0.007l213.39-0.229c1.386,0.039,2.742,0.043,4.103,0
						c20.403-0.629,37.912-10.396,51.195-27.563c14.254-19.096,18.156-49.878,8.147-72.284
						c-6.422-15.379-20.311-30.775-35.018-36.865c-10.275-5.219-22.705-7.01-34.727-5.663c1.822-1.258,3.672-2.498,5.489-3.756
						c21.296-17.806,28.366-47.322,21.147-74.366c-5.396-20.268-22.265-39.262-42.297-46.746c-26.514-9.67-55.77-2.553-75.29,16.515
						c1.141-2.597,2.265-5.887,3.409-8.483c8.422-26.387,0.535-53.945-18.26-72.806c-0.771-0.796-1.562-1.563-2.369-2.312
						c-0.051-0.047-0.122-0.069-0.173-0.116c-0.386-0.354-0.764-0.697-1.156-1.04c-0.382-0.333-0.767-0.659-1.155-0.982
						c-0.834-0.692-1.675-1.376-2.542-2.022c-0.177-0.131-0.343-0.275-0.521-0.405c-0.703-0.512-1.415-1.02-2.139-1.502
						c-0.245-0.163-0.505-0.303-0.751-0.462c-0.661-0.428-1.347-0.868-2.021-1.271c-0.322-0.191-0.657-0.392-0.982-0.578
						c-0.632-0.362-1.264-0.699-1.907-1.04c-0.385-0.204-0.767-0.382-1.154-0.578c-0.581-0.293-1.146-0.591-1.733-0.867
						c-0.459-0.214-0.924-0.432-1.387-0.635c-0.535-0.236-1.077-0.472-1.618-0.693c-0.536-0.219-1.076-0.43-1.618-0.636
						c-0.478-0.182-0.962-0.349-1.444-0.52c-0.61-0.217-1.23-0.437-1.849-0.636c-0.423-0.137-0.847-0.275-1.271-0.404
						c-0.696-0.21-1.377-0.389-2.08-0.578c-0.346-0.093-0.694-0.201-1.04-0.289c-0.207-0.052-0.43-0.065-0.637-0.116
						c-2.84-0.691-5.704-1.223-8.608-1.56c-0.155-0.019-0.309-0.041-0.463-0.058c-1.01-0.111-1.991-0.221-3.004-0.289
						c-0.077-0.005-0.155,0.005-0.231,0c-1.091-0.069-2.202-0.096-3.294-0.116c-1.164-0.021-2.303-0.036-3.467,0
						c-2.116,0.066-4.257,0.203-6.356,0.462c-6.298,0.779-12.451,2.454-18.259,4.969c-13.221,5.736-25.708,16.428-33.571,29.469
						c-0.761,1.442-1.509,2.907-2.195,4.392c-1.387,2.97-2.592,6.052-3.641,9.188c-0.513,1.533-1.028,3.05-1.444,4.623
						c-0.416-1.566-0.876-3.095-1.387-4.623c-1.049-3.136-2.255-6.217-3.641-9.188c-0.688-1.485-1.436-2.95-2.196-4.392
						c-7.863-13.041-20.351-23.732-33.571-29.469c-7.743-3.354-16.151-5.166-24.615-5.432C231.04-0.271,229.902-0.256,228.737-0.236
						L228.737-0.236z"/>
					
						<path id="path3577-7" sodipodi:nodetypes="cccccccccccccccccccccscccccccccccccccccccccccccccccccsccccccccccccccccccccccssscccscccccscc" inkscape:connector-curvature="0" fill="none" stroke="#9CAABD" stroke-width="0.5" d="
						M229.156,1.487c-1.794,0.032-3.612,0.119-5.398,0.286c-0.521,0.049-1.03,0.111-1.551,0.171
						c-2.888,0.334-5.735,0.86-8.557,1.545c-0.206,0.05-0.427,0.063-0.632,0.114c-0.345,0.087-0.691,0.194-1.034,0.286
						c-0.973,0.26-1.912,0.557-2.871,0.858c-0.521,0.164-1.035,0.339-1.551,0.515c-0.245,0.083-0.503,0.143-0.747,0.229
						c-0.729,0.258-1.462,0.518-2.183,0.801c-0.597,0.234-1.189,0.493-1.78,0.744c-0.426,0.182-0.841,0.382-1.263,0.572
						c-0.265,0.119-0.542,0.221-0.805,0.343c-0.585,0.273-1.146,0.568-1.723,0.858c-0.734,0.368-1.463,0.749-2.183,1.145
						c-0.457,0.251-0.928,0.481-1.378,0.744c-0.154,0.089-0.307,0.195-0.46,0.286c-0.671,0.399-1.354,0.835-2.01,1.259
						c-0.683,0.439-1.345,0.907-2.01,1.373c-0.282,0.198-0.583,0.37-0.862,0.572c-0.176,0.128-0.341,0.271-0.517,0.4
						c-0.862,0.64-1.698,1.317-2.526,2.002c-0.788,0.651-1.542,1.311-2.298,2.003c-0.853,0.781-1.718,1.569-2.526,2.403
						c-18.681,18.677-26.312,50.845-15.033,76.766c1.137,2.571,2.254,5.152,3.389,7.725c-20.995-20.929-51.368-28.789-77.721-19.213
						c-19.911,7.411-36.903,26.673-42.268,46.743c-6.72,29.51,3.285,56.803,26.044,74.434c1.806,1.246,3.645,2.475,5.456,3.719
						c-11.949-1.332-27.561-1.014-37.774,3.635c-14.617,6.758-29.731,21.314-36.113,36.544c-9.948,22.188-6.524,52.214,7.643,71.124
						c14.082,18.133,32.925,27.922,54.961,27.293l212.093,0.229h0.001h29.354h-0.007l212.093-0.229c1.377,0.039,2.726,0.041,4.077,0
						c20.278-0.623,37.682-10.295,50.884-27.293c14.168-18.91,18.046-49.392,8.098-71.579
						c-6.382-15.229-21.225-27.566-34.803-35.362c-10.215-4.855-28.066-5.693-40.015-4.361c1.812-1.244,4.104-2.473,5.91-3.719
						c18.892-13.082,33.467-41.74,26.063-73.523c-5.364-20.07-22.356-40.244-42.268-47.653
						c-26.354-9.576-57.592,0.534-76.993,19.416c1.134-2.572,2.252-6.291,3.389-8.862c9.809-24.69,3.495-56.867-15.76-75.832
						c-0.766-0.788-1.552-1.547-2.355-2.289c-0.05-0.046-0.121-0.068-0.172-0.114c-0.383-0.351-0.758-0.69-1.147-1.03
						c-0.38-0.33-0.763-0.652-1.148-0.973c-0.829-0.686-1.665-1.362-2.527-2.002c-0.175-0.13-0.34-0.272-0.517-0.4
						c-0.699-0.508-1.406-1.01-2.125-1.488c-0.243-0.161-0.501-0.3-0.747-0.458c-0.656-0.423-1.338-0.86-2.01-1.259
						c-0.32-0.19-0.652-0.388-0.978-0.572c-0.628-0.359-1.255-0.692-1.895-1.03c-0.384-0.202-0.762-0.378-1.149-0.572
						c-0.575-0.29-1.138-0.585-1.723-0.858c-0.455-0.212-0.918-0.428-1.378-0.629c-0.532-0.233-1.07-0.467-1.608-0.687
						c-0.531-0.217-1.069-0.426-1.607-0.629c-0.476-0.18-0.956-0.345-1.437-0.515c-0.606-0.214-1.225-0.432-1.838-0.629
						c-0.42-0.135-0.841-0.273-1.264-0.4c-0.691-0.208-1.368-0.385-2.067-0.572c-0.343-0.092-0.688-0.199-1.033-0.286
						c-0.206-0.051-0.426-0.064-0.632-0.114c-2.821-0.685-5.67-1.21-8.558-1.545c-0.153-0.018-0.306-0.04-0.459-0.057
						c-1.003-0.11-1.98-0.219-2.986-0.286c-0.076-0.005-0.153,0.005-0.229,0c-1.083-0.069-2.188-0.095-3.273-0.114
						c-1.157-0.021-2.289-0.036-3.445,0c-2.104,0.065-4.23,0.201-6.316,0.458c-6.261,0.771-12.376,2.43-18.148,4.921
						c-13.141,5.68-25.552,20.212-33.366,33.126c-0.756,1.428-1.5,2.878-2.184,4.349c-1.378,2.941-2.576,5.992-3.618,9.097
						c-0.51,1.518-1.022,3.185-1.436,4.742c-0.413-1.551-0.871-3.065-1.379-4.578c-1.042-3.105-2.24-6.157-3.618-9.097
						c-0.683-1.471-1.426-2.921-2.182-4.349c-7.815-12.914-20.228-27.447-33.368-33.126c-7.696-3.322-16.054-5.28-24.465-5.543
						C231.445,1.45,230.313,1.466,229.156,1.487L229.156,1.487L229.156,1.487z"/>
					<path id="path3666" inkscape:connector-curvature="0" fill="#FFFFFF" stroke="#9CAABD" stroke-width="0.5" d="M285.386,38.316
						c6.428,12.387,10.255,26.536,7.938,42.098c-12.815,71.184-18.783,144.436-32.784,215.039
						c-31.378-67.408-59.928-136.207-89.514-204.454c-7.581-24.135-0.521-49.312,16.396-66.563
						c17.112-17.984,45.42-22.889,67.726-13.07C267.047,16.612,278.308,26.388,285.386,38.316"/>
					<path id="path3348-8" inkscape:connector-curvature="0" fill="#CE0014" d="M233.617,11.53
						c-15.924-0.499-32.102,5.312-43.279,16.873c-16.073,16.13-22.804,39.666-15.602,62.232
						c28.111,63.812,55.243,128.116,85.056,191.144c13.304-66.014,18.97-134.469,31.145-201.025
						c2.203-14.551-1.462-27.826-7.569-39.408c-6.725-11.153-17.411-20.288-28.718-25.193
						C248.027,13.284,240.854,11.757,233.617,11.53L233.617,11.53z"/>
					<path id="path6129" inkscape:connector-curvature="0" fill="#FFFFFF" stroke="#9CAABD" stroke-width="0.5" d="M172.521,118.897
						l92.259,203.586c-63.125-40.265-127.761-82.241-188.9-124.423c-18.937-15.775-25.235-41.932-18.816-65.894
						c4.799-17.958,19.83-34.742,37.643-41.373C123.955,80.165,156.946,91.446,172.521,118.897"/>
					<path id="path3352-7" inkscape:connector-curvature="0" fill="#FF6714" d="M169.157,121.073l86.777,191.499
						c-59.374-37.874-120.17-77.357-177.677-117.034c-17.811-14.84-23.735-39.442-17.698-61.981
						c4.514-16.894,18.651-32.679,35.405-38.917C123.477,84.64,154.507,95.252,169.157,121.073"/>
					<path id="path6133" inkscape:connector-curvature="0" fill="#FFFFFF" stroke="#9CAABD" stroke-width="0.5" d="M12.07,255.223
						c-9.639,19.668-5.877,46.675,7.852,63.438c13.646,16.074,31.877,24.783,53.231,24.226l205.525,0.166L106.51,226.789
						c-16.793-10.523-42.379-12.443-60.76-3.938C31.587,228.197,18.255,241.723,12.07,255.223"/>
					<path id="path6153" inkscape:connector-curvature="0" fill="#FFFFFF" stroke="#9CAABD" stroke-width="0.5" d="M583.672,255.223
						c9.64,19.668,5.877,46.675-7.852,63.438c-13.646,16.074-31.877,24.783-53.23,24.226l-205.525,0.166l172.169-116.264
						c16.793-10.523,42.378-12.443,60.759-3.938C564.156,228.197,577.488,241.723,583.672,255.223"/>
					
						<linearGradient id="path4015-8_1_" gradientUnits="userSpaceOnUse" x1="278.8618" y1="410.7207" x2="271.9122" y2="407.687" gradientTransform="matrix(2.8704 0 0 -2.7863 -584.296 1330.9348)">
						<stop  offset="0" style="stop-color:#000000"/>
						<stop  offset="1" style="stop-color:#000000;stop-opacity:0"/>
					</linearGradient>
					<path id="path4015-8" inkscape:connector-curvature="0" fill="url(#path4015-8_1_)" d="M169.157,121.073l86.777,191.499
						c-59.374-37.874-120.17-77.357-177.677-117.034c-17.811-14.84-23.735-39.442-17.698-61.981
						c4.514-16.894,18.651-32.679,35.405-38.917C123.477,84.64,154.507,95.252,169.157,121.073"/>
					<path id="path3356-7" inkscape:connector-curvature="0" fill="#FABC13" d="M16.011,256.605
						c-9.082,18.522-5.537,43.96,7.396,59.748c12.856,15.137,30.033,23.34,50.151,22.813l193.637,0.154L104.988,229.826
						c-15.822-9.911-39.928-11.719-57.244-3.708C34.399,231.152,21.838,243.891,16.011,256.605"/>
					
						<path id="path6127" sodipodi:nodetypes="ccccccccccccccccccccccccccc" inkscape:connector-curvature="0" fill="#FFFFFF" stroke="#9CAABD" stroke-width="0.5" d="
						M362.689,6.446c-7.755,0.243-15.502,1.878-22.598,4.951c-12.114,5.254-23.563,15.037-30.771,26.983
						c-5.189,9.837-8.602,23.624-8.661,35.507c0.739,0.087,31.808,0.043,32.504,0c2.751,0.343,3.411,1.001,4.003,2.253
						c-0.2,0.182-1.135,1.439-1.397,1.619c-0.614,0.413-1.013,0.487-1.546,0.789c-0.581,0.291-1.11,0.491-1.863,0.785
						c-0.698,0.235-1.366,0.48-2.044,0.743c-13.846,5.262-21.729,15.034-24.171,23.775l-0.211,0.845
						c-0.225,0.5-0.216,1.286-0.266,1.883c-0.059,0.652-0.064,1.26,0,1.856l0.063,0.681c0.01,0.06-0.013,0.126,0,0.186l0.31,1.918
						l1.176,7.736l8.482,54.646c0.209,1.527,0.412,3.053,0.619,4.58l17.148,111.584c0.406,2.034,0.753,4.096,1.177,6.127
						c0.021-0.043,0.042-0.082,0.063-0.125c31.932-67.453,60.97-136.303,91.072-204.599c7.718-24.169,0.506-49.438-16.717-66.714
						C397.085,12.073,379.751,5.911,362.689,6.446L362.689,6.446L362.689,6.446z"/>
					<path id="path6968-9" inkscape:connector-curvature="0" fill="#5A1566" d="M361.835,11.53
						c-7.238,0.227-14.469,1.754-21.091,4.623c-11.308,4.905-21.993,14.04-28.718,25.193c-4.844,9.185-8.149,19.414-8.205,30.509
						h0.173h0.347h0.116h0.866h5.952h22.882c4.099,0.741,8.23,2.686,6.991,5.084c-0.009,0.019,0.008,0.04,0,0.058
						c-0.035,0.064-0.072,0.108-0.115,0.173c-0.134,0.229-0.329,0.468-0.578,0.693c-0.188,0.169-0.391,0.353-0.636,0.52
						c-0.417,0.3-0.896,0.559-1.502,0.867c-0.026,0.013-0.031,0.044-0.059,0.058c-0.543,0.271-1.203,0.534-1.907,0.809
						c-0.65,0.22-1.273,0.448-1.906,0.693c-12.857,4.988-21.82,15.059-25.366,22.419l-0.115,0.231
						c-0.209,0.467-0.3,1.002-0.347,1.56c-0.054,0.609-0.062,1.176,0,1.733l0.058,0.636c0.011,0.056-0.011,0.117,0,0.173
						l0.289,1.791l1.098,7.223l7.916,50.906v0.115c0.049,0.346,0.068,0.693,0.116,1.039c0.146,1.08,0.315,2.156,0.462,3.236
						l0.059,0.348c4.355,31.998,8.752,63.986,14.677,95.457c0.025,0.133,0.032,0.271,0.058,0.403l1.214,7.975
						c0.38,1.899,0.702,3.825,1.099,5.721c0.019-0.039,0.039-0.076,0.058-0.115c29.802-62.979,56.903-127.263,84.998-191.029
						c7.202-22.566,0.473-46.16-15.602-62.29C393.936,16.784,377.758,11.031,361.835,11.53L361.835,11.53L361.835,11.53z"/>
					
						<linearGradient id="path3162-2_1_" gradientUnits="userSpaceOnUse" x1="178.3843" y1="-81.2754" x2="183.3842" y2="-82.0254" gradientTransform="matrix(1.849 0 0 1.849 -18.6264 302.3707)">
						<stop  offset="0" style="stop-color:#000000"/>
						<stop  offset="1" style="stop-color:#000000;stop-opacity:0"/>
					</linearGradient>
					<path id="path3162-2" inkscape:connector-curvature="0" fill="url(#path3162-2_1_)" d="M361.809,11.552
						c-7.236,0.227-14.468,1.754-21.09,4.623c-11.307,4.906-21.993,14.04-28.718,25.193c-4.844,9.185-8.148,19.414-8.206,30.509
						h30.336c4.101,0.741,8.232,2.686,6.992,5.085c-0.008,0.019,0.007,0.04,0,0.058c-0.035,0.065-0.072,0.108-0.116,0.174
						c-0.133,0.229-0.329,0.468-0.577,0.693c-0.188,0.169-0.391,0.353-0.636,0.52c-0.417,0.3-0.896,0.559-1.503,0.867
						c-0.025,0.013-0.031,0.044-0.058,0.058c-0.542,0.271-1.203,0.534-1.906,0.809c-0.651,0.22-1.274,0.448-1.907,0.693
						c-12.857,4.988-21.82,15.058-25.366,22.419l-0.114,0.231c-0.211,0.467-0.301,1.002-0.348,1.56
						c-0.053,0.609-0.061,1.176,0,1.733l0.059,0.635c0.011,0.056-0.013,0.118,0,0.174l0.289,1.791l1.098,7.223l7.916,51.022
						c0.194,1.427,0.385,2.851,0.578,4.276l16.005,104.182c0.38,1.9,0.703,3.826,1.099,5.72c0.02-0.038,0.039-0.075,0.059-0.114
						c29.802-62.979,56.901-127.264,84.998-191.029c7.201-22.566,0.472-46.159-15.603-62.289
						C393.91,16.806,377.733,11.052,361.809,11.552L361.809,11.552L361.809,11.552z"/>
					
						<linearGradient id="path3172-3_1_" gradientUnits="userSpaceOnUse" x1="225.5649" y1="-74.1079" x2="217.0651" y2="-77.8578" gradientTransform="matrix(1.849 0 0 1.849 -18.6264 302.3707)">
						<stop  offset="0" style="stop-color:#000000"/>
						<stop  offset="1" style="stop-color:#000000;stop-opacity:0"/>
					</linearGradient>
					<path id="path3172-3" inkscape:connector-curvature="0" fill="url(#path3172-3_1_)" d="M361.809,11.552
						c-7.236,0.227-14.468,1.754-21.09,4.623c-11.307,4.906-21.993,14.04-28.718,25.193c-4.844,9.185-8.148,19.414-8.206,30.509
						h30.336c4.101,0.741,8.232,2.686,6.992,5.085c-0.008,0.019,0.007,0.04,0,0.058c-0.035,0.065-0.072,0.108-0.116,0.174
						c-0.133,0.229-0.329,0.468-0.577,0.693c-0.188,0.169-0.391,0.353-0.636,0.52c-0.417,0.3-0.896,0.559-1.503,0.867
						c-0.025,0.013-0.031,0.044-0.058,0.058c-0.542,0.271-1.203,0.534-1.906,0.809c-0.651,0.22-1.274,0.448-1.907,0.693
						c-12.857,4.988-21.82,15.058-25.366,22.419l-0.114,0.231c-0.211,0.467-0.301,1.002-0.348,1.56
						c-0.053,0.609-0.061,1.176,0,1.733l0.059,0.635c0.011,0.056-0.013,0.118,0,0.174l0.289,1.791l1.098,7.223l7.916,51.022
						c0.194,1.427,0.385,2.851,0.578,4.276l16.005,104.182c0.38,1.9,0.703,3.826,1.099,5.72c0.02-0.038,0.039-0.075,0.059-0.114
						c29.802-62.979,56.901-127.264,84.998-191.029c7.201-22.566,0.472-46.159-15.603-62.289
						C393.91,16.806,377.733,11.052,361.809,11.552L361.809,11.552L361.809,11.552z"/>
					
						<linearGradient id="path36476_1_" gradientUnits="userSpaceOnUse" x1="160.0635" y1="-106.4521" x2="163.6103" y2="-106.4521" gradientTransform="matrix(1.849 0 0 1.849 6.5338 343.318)">
						<stop  offset="0" style="stop-color:#FFFFFF"/>
						<stop  offset="1" style="stop-color:#FFFFFF;stop-opacity:0"/>
					</linearGradient>
					<path id="path36476" inkscape:connector-curvature="0" fill="url(#path36476_1_)" d="M361,14.268
						c-7.084,0.222-14.09,1.7-20.57,4.507c-11.064,4.801-21.559,13.757-28.141,24.673c-4.368,8.285-7.427,17.444-7.916,27.331h0.058
						h0.059h30.739c10.537,2.907,9.426,7.38,0.521,10.921c-12.672,3.947-20.38,13.507-26.753,23.979
						c9.3,57.61,14.96,116.262,26.406,173.058c29.178-61.685,55.752-124.647,83.265-187.099
						c7.049-22.085,0.476-45.116-15.255-60.902C392.473,19.422,376.584,13.779,361,14.268L361,14.268L361,14.268z M304.373,75.344
						c0.036,1.129,0.067,2.262,0.174,3.409l-0.058-3.409H304.373z"/>
					
						<linearGradient id="path4648-4_1_" gradientUnits="userSpaceOnUse" x1="120.668" y1="-186.082" x2="132.1758" y2="-85.7443" gradientTransform="matrix(-1.849 0 0 1.849 598.1576 302.3707)">
						<stop  offset="0" style="stop-color:#FFFFFF"/>
						<stop  offset="1" style="stop-color:#FFFFFF;stop-opacity:0"/>
					</linearGradient>
					
						<path id="path4648-4" inkscape:connector-curvature="0" opacity="0.5" fill="url(#path4648-4_1_)" enable-background="new    " d="
						M362.561,14.21c-7.442,0.101-14.862,1.617-21.669,4.565c-11.064,4.801-21.501,13.757-28.082,24.673
						c-4.378,8.303-7.424,17.475-7.916,27.389h30.451c14.917,4.708,2.606,10.118-2.196,11.788c-2.789,0.979-5.346,2.331-7.741,3.929
						c41.031,3.133,72.285,0.927,93.028-7.049c2.916-18.197-1.491-35.654-14.562-48.768c-9.944-10.286-23.962-15.9-38.136-16.468
						C364.675,14.225,363.623,14.196,362.561,14.21L362.561,14.21z"/>
					<path id="path6183" inkscape:connector-curvature="0" fill="#FFFFFF" stroke="#9CAABD" stroke-width="0.5" d="M423.978,118.538
						l-92.267,203.947c62.146-40.267,125.339-84.679,187.526-127.209c18.938-15.777,26.627-39.502,20.208-63.466
						c-4.8-17.96-19.831-34.744-37.646-41.375C472.547,79.803,439.554,91.085,423.978,118.538"/>
					<path id="path6970-1" inkscape:connector-curvature="0" fill="#10578D" d="M426.241,121.073l-86.777,191.825
						c58.45-37.873,117.882-79.645,176.37-119.648c17.811-14.84,25.042-37.154,19.005-59.693
						c-4.514-16.894-18.651-32.679-35.405-38.917C471.92,84.64,440.89,95.252,426.241,121.073"/>
					<path id="path6972-5" inkscape:connector-curvature="0" fill="#359E35" d="M579.386,256.605
						c9.082,18.522,5.537,43.96-7.396,59.748c-12.856,15.137-30.033,23.34-50.151,22.813l-193.637,0.154l162.209-109.496
						c15.821-9.911,39.927-11.719,57.244-3.708C560.998,231.152,573.56,243.891,579.386,256.605"/>
					
						<linearGradient id="path4494_1_" gradientUnits="userSpaceOnUse" x1="337.2012" y1="410.2734" x2="342.3257" y2="407.9272" gradientTransform="matrix(2.8704 0 0 -2.7863 -584.296 1330.9348)">
						<stop  offset="0" style="stop-color:#000000"/>
						<stop  offset="1" style="stop-color:#000000;stop-opacity:0"/>
					</linearGradient>
					<path id="path4494" inkscape:connector-curvature="0" fill="url(#path4494_1_)" d="M426.241,121.073l-86.777,191.825
						c58.45-37.873,117.882-79.645,176.37-119.648c17.811-14.84,25.042-37.154,19.005-59.693
						c-4.514-16.894-18.651-32.679-35.405-38.917C471.92,84.64,440.89,95.252,426.241,121.073"/>
					
						<linearGradient id="path6981-8_1_" gradientUnits="userSpaceOnUse" x1="252.0098" y1="349.6162" x2="252.0098" y2="361.2292" gradientTransform="matrix(2.8704 0 0 -2.7863 -584.296 1330.9348)">
						<stop  offset="0" style="stop-color:#000000"/>
						<stop  offset="0.5" style="stop-color:#000000;stop-opacity:0.2118"/>
						<stop  offset="1" style="stop-color:#000000;stop-opacity:0"/>
					</linearGradient>
					<path id="path6981-8" inkscape:connector-curvature="0" fill="url(#path6981-8_1_)" d="M16.011,256.605
						c-9.082,18.522-5.537,43.96,7.396,59.748c12.856,15.137,30.033,23.34,50.151,22.813l193.637,0.154L104.988,229.826
						c-15.822-9.911-39.928-11.719-57.244-3.708C34.399,231.152,21.838,243.891,16.011,256.605"/>
					
						<linearGradient id="path7368-3_1_" gradientUnits="userSpaceOnUse" x1="362.5361" y1="351.6279" x2="362.5361" y2="359.8398" gradientTransform="matrix(2.8704 0 0 -2.7863 -584.296 1330.9348)">
						<stop  offset="0" style="stop-color:#000000"/>
						<stop  offset="0.5714" style="stop-color:#000000;stop-opacity:0.2275"/>
						<stop  offset="1" style="stop-color:#000000;stop-opacity:0"/>
					</linearGradient>
					<path id="path7368-3" inkscape:connector-curvature="0" fill="url(#path7368-3_1_)" d="M579.386,256.605
						c9.082,18.522,5.537,43.96-7.396,59.748c-12.856,15.137-30.033,23.34-50.151,22.813l-193.637,0.154l162.209-109.496
						c15.821-9.911,39.927-11.719,57.244-3.708C560.998,231.152,573.56,243.891,579.386,256.605"/>
					
						<linearGradient id="path3122-4_1_" gradientUnits="userSpaceOnUse" x1="249.0166" y1="385.1797" x2="255.2972" y2="393.9725" gradientTransform="matrix(2.8704 0 0 -2.7863 -584.296 1330.9348)">
						<stop  offset="0" style="stop-color:#000000"/>
						<stop  offset="1" style="stop-color:#000000;stop-opacity:0"/>
					</linearGradient>
					<path id="path3122-4" inkscape:connector-curvature="0" fill="url(#path3122-4_1_)" d="M169.157,121.073l86.777,191.499
						c-59.374-37.874-120.17-77.357-177.677-117.034c-17.811-14.84-23.735-39.442-17.698-61.981
						c4.514-16.894,18.651-32.679,35.405-38.917C123.477,84.64,154.507,95.252,169.157,121.073"/>
					
						<linearGradient id="path3458-3_1_" gradientUnits="userSpaceOnUse" x1="271.313" y1="418.3506" x2="277.1207" y2="420.8141" gradientTransform="matrix(2.8704 0 0 -2.7863 -584.296 1330.9348)">
						<stop  offset="0" style="stop-color:#000000"/>
						<stop  offset="1" style="stop-color:#000000;stop-opacity:0"/>
					</linearGradient>
					<path id="path3458-3" inkscape:connector-curvature="0" fill="url(#path3458-3_1_)" d="M283.386,41.37
						c6.106,11.582,9.744,24.811,7.542,39.361c-12.176,66.557-17.846,135.047-31.149,201.061
						c-29.813-63.026-56.938-127.352-85.049-191.164c-7.203-22.566-0.495-46.106,15.579-62.236
						c16.258-16.815,43.154-21.401,64.346-12.221C265.961,21.077,276.661,30.218,283.386,41.37"/>
					
						<linearGradient id="path36466_1_" gradientUnits="userSpaceOnUse" x1="87.6045" y1="-106.4551" x2="93.8579" y2="-106.4551" gradientTransform="matrix(1.849 0 0 1.849 6.5338 343.318)">
						<stop  offset="0" style="stop-color:#FFFFFF"/>
						<stop  offset="1" style="stop-color:#FFFFFF;stop-opacity:0"/>
					</linearGradient>
					<path id="path36466" inkscape:connector-curvature="0" fill="url(#path36466_1_)" d="M282.208,43.439
						c5.977,11.335,9.536,24.282,7.381,38.523c-11.916,65.139-17.466,132.17-30.485,196.777
						c-29.178-61.685-55.725-124.64-83.237-187.091c-7.049-22.085-0.484-45.124,15.247-60.91
						c15.912-16.457,42.235-20.945,62.976-11.96C265.155,23.578,275.626,32.524,282.208,43.439"/>
					
						<linearGradient id="path4529-6_1_" gradientUnits="userSpaceOnUse" x1="234.1548" y1="-80.6665" x2="231.92" y2="-80.903" gradientTransform="matrix(1.849 0 0 1.849 -18.6264 302.3707)">
						<stop  offset="0" style="stop-color:#FFFFFF"/>
						<stop  offset="1" style="stop-color:#FFFFFF;stop-opacity:0"/>
					</linearGradient>
					<path id="path4529-6" inkscape:connector-curvature="0" fill="url(#path4529-6_1_)" d="M361,14.268
						c-7.084,0.222-14.09,1.7-20.57,4.507c-11.064,4.801-21.559,13.757-28.141,24.673c-4.368,8.285-7.427,17.444-7.916,27.331h0.058
						h0.059h30.739c10.537,2.907,9.426,7.38,0.521,10.921c-12.672,3.947-20.38,13.507-26.753,23.979
						c9.3,57.61,14.96,116.262,26.406,173.058c29.178-61.685,55.752-124.647,83.265-187.099
						c7.049-22.085,0.476-45.116-15.255-60.902C392.473,19.422,376.584,13.779,361,14.268L361,14.268L361,14.268z M304.373,75.344
						c0.036,1.129,0.067,2.262,0.174,3.409l-0.058-3.409H304.373z"/>
					
						<linearGradient id="path3468-8_1_" gradientUnits="userSpaceOnUse" x1="304.0947" y1="423.1992" x2="299.5396" y2="423.7857" gradientTransform="matrix(2.8704 0 0 -2.7863 -584.296 1330.9348)">
						<stop  offset="0" style="stop-color:#000000"/>
						<stop  offset="1" style="stop-color:#000000;stop-opacity:0"/>
					</linearGradient>
					<path id="path3468-8" inkscape:connector-curvature="0" fill="url(#path3468-8_1_)" d="M283.386,41.37
						c6.106,11.582,9.744,24.811,7.542,39.361c-12.176,66.557-17.846,135.047-31.149,201.061
						c-29.813-63.026-56.938-127.352-85.049-191.164c-7.203-22.566-0.495-46.106,15.579-62.236
						c16.258-16.815,43.154-21.401,64.346-12.221C265.961,21.077,276.661,30.218,283.386,41.37"/>
					
						<linearGradient id="path4471-7_1_" gradientUnits="userSpaceOnUse" x1="305.4014" y1="425.0986" x2="303.3988" y2="425.0986" gradientTransform="matrix(2.8704 0 0 -2.7863 -584.296 1330.9348)">
						<stop  offset="0" style="stop-color:#FFFFFF"/>
						<stop  offset="1" style="stop-color:#FFFFFF;stop-opacity:0"/>
					</linearGradient>
					<path id="path4471-7" inkscape:connector-curvature="0" fill="url(#path4471-7_1_)" d="M282.208,43.439
						c5.977,11.335,9.536,24.282,7.381,38.523c-11.916,65.139-17.466,132.17-30.485,196.777
						c-29.178-61.685-55.725-124.64-83.237-187.091c-7.049-22.085-0.484-45.124,15.247-60.91
						c15.912-16.457,42.235-20.945,62.976-11.96C265.155,23.578,275.626,32.524,282.208,43.439"/>
					
						<linearGradient id="path4487-7_1_" gradientUnits="userSpaceOnUse" x1="129.041" y1="-186.0815" x2="140.5485" y2="-85.7463" gradientTransform="matrix(1.849 0 0 1.849 -18.6264 302.3707)">
						<stop  offset="0" style="stop-color:#FFFFFF"/>
						<stop  offset="1" style="stop-color:#FFFFFF;stop-opacity:0"/>
					</linearGradient>
					<path id="path4487-7" inkscape:connector-curvature="0" fill="url(#path4487-7_1_)" d="M229.257,14.268
						c-14.175,0.568-28.191,6.182-38.137,16.468c-13.068,13.114-17.477,30.571-14.562,48.768c23.9,9.19,61.769,10.731,112.444,5.258
						h0.116c0.166-0.926,0.293-1.849,0.462-2.773c2.155-14.241-1.419-27.207-7.396-38.541
						c-6.582-10.916-17.018-19.872-28.083-24.673C246.325,15.406,237.761,13.927,229.257,14.268L229.257,14.268z"/>
					
						<linearGradient id="path6995-6_1_" gradientUnits="userSpaceOnUse" x1="211.707" y1="339.5488" x2="243.5922" y2="364.8882" gradientTransform="matrix(2.8704 0 0 -2.7863 -584.296 1330.9348)">
						<stop  offset="0" style="stop-color:#000000"/>
						<stop  offset="0.5056" style="stop-color:#000000;stop-opacity:0.1922"/>
						<stop  offset="0.6912" style="stop-color:#000000;stop-opacity:0.0667"/>
						<stop  offset="1" style="stop-color:#000000;stop-opacity:0"/>
					</linearGradient>
					<path id="path6995-6" inkscape:connector-curvature="0" fill="url(#path6995-6_1_)" d="M16.011,256.605
						c-9.082,18.522-5.537,43.96,7.396,59.748c12.856,15.137,30.033,23.34,50.151,22.813l193.637,0.154L104.988,229.826
						c-15.822-9.911-39.928-11.719-57.244-3.708C34.399,231.152,21.838,243.891,16.011,256.605"/>
					
						<linearGradient id="path7390-9_1_" gradientUnits="userSpaceOnUse" x1="402.8291" y1="339.5469" x2="370.944" y2="364.8862" gradientTransform="matrix(2.8704 0 0 -2.7863 -584.296 1330.9348)">
						<stop  offset="0" style="stop-color:#000000"/>
						<stop  offset="0.5056" style="stop-color:#000000;stop-opacity:0.1922"/>
						<stop  offset="0.6912" style="stop-color:#000000;stop-opacity:0.0667"/>
						<stop  offset="1" style="stop-color:#000000;stop-opacity:0"/>
					</linearGradient>
					<path id="path7390-9" inkscape:connector-curvature="0" fill="url(#path7390-9_1_)" d="M579.358,256.605
						c9.081,18.522,5.536,43.96-7.396,59.748c-12.856,15.137-30.033,23.34-50.151,22.813l-193.637,0.154l162.208-109.495
						c15.821-9.911,39.927-11.719,57.244-3.708C560.97,231.152,573.532,243.891,579.358,256.605"/>
					
						<linearGradient id="path3462-5_1_" gradientUnits="userSpaceOnUse" x1="363.3857" y1="388.3613" x2="358.5545" y2="394.9973" gradientTransform="matrix(2.8704 0 0 -2.7863 -584.296 1330.9348)">
						<stop  offset="0" style="stop-color:#000000"/>
						<stop  offset="1" style="stop-color:#000000;stop-opacity:0"/>
					</linearGradient>
					<path id="path3462-5" inkscape:connector-curvature="0" fill="url(#path3462-5_1_)" d="M426.241,121.073l-86.777,191.825
						c58.45-37.873,117.882-79.645,176.37-119.648c17.811-14.84,25.042-37.154,19.005-59.693
						c-4.514-16.894-18.651-32.679-35.405-38.917C471.92,84.64,440.89,95.252,426.241,121.073"/>
					
						<linearGradient id="path4079-0_1_" gradientUnits="userSpaceOnUse" x1="226.002" y1="433.0176" x2="228.2399" y2="431.8042" gradientTransform="matrix(2.8704 0 0 -2.7863 -584.296 1330.9348)">
						<stop  offset="0" style="stop-color:#FFFFFF"/>
						<stop  offset="1" style="stop-color:#FFFFFF;stop-opacity:0"/>
					</linearGradient>
					<path id="path4079-0" inkscape:connector-curvature="0" fill="url(#path4079-0_1_)" d="M116.892,93.545
						c-8.433,0.008-22.01,2.764-29.311,7.437c-16.237,9.158-29.445,28.283-23.271,43.354l-2.754-0.008
						c25.058-0.499,63.407-9.65,81.867,0.999c41.571,33.302,71.257,100.104,98.726,139.159L166.99,123.015
						c-11.395-20.91-30.21-29.491-49.422-29.469L116.892,93.545z"/>
					
						<linearGradient id="path4075-6_1_" gradientUnits="userSpaceOnUse" x1="26.5576" y1="-42.4595" x2="29.1176" y2="-40.3566" gradientTransform="matrix(-1.849 0 0 1.849 602.0072 303.8942)">
						<stop  offset="0" style="stop-color:#FFFFFF"/>
						<stop  offset="1" style="stop-color:#FFFFFF;stop-opacity:0"/>
					</linearGradient>
					
						<path id="path4075-6" inkscape:connector-curvature="0" opacity="0.69" fill="url(#path4075-6_1_)" enable-background="new    " d="
						M525.275,225.944c8.416-0.104,21.39,1.767,26.177,3.555c14.448,6.267,29.971,26.685,28.34,34.263
						c-29.498-9.348-76.149-8.834-105.48,5.403c-45.427,23.422-92.091,47.739-131.107,68.01
						c45.717-31.688,102.383-69.5,151.968-102.968C503.574,228.943,514.453,226.078,525.275,225.944L525.275,225.944
						L525.275,225.944z"/>
					
						<linearGradient id="path3693-9_1_" gradientUnits="userSpaceOnUse" x1="151.5981" y1="7.9751" x2="-13.4019" y2="-46.0249" gradientTransform="matrix(-1.849 0 0 1.849 598.9467 302.3707)">
						<stop  offset="0" style="stop-color:#FFFFFF;stop-opacity:0.75"/>
						<stop  offset="1" style="stop-color:#FFFFFF;stop-opacity:0"/>
					</linearGradient>
					
						<path id="path3693-9" inkscape:connector-curvature="0" opacity="0.75" fill="url(#path3693-9_1_)" enable-background="new    " d="
						M522.213,224.424c8.416-0.104,16.825,1.428,23.979,4.737c14.273,6.787,23.95,16.771,27.54,25.667
						c0.849,1.729,0.741,5.685,1.358,7.526c-30.497-24.538-64.563-14.093-103.843,5.29c-45.427,23.422-92.091,47.737-131.108,68.01
						c45.718-31.689,102.383-69.5,151.968-102.968C500.512,227.422,511.392,224.557,522.213,224.424L522.213,224.424
						L522.213,224.424z"/>
					
						<linearGradient id="path3626-4_1_" gradientUnits="userSpaceOnUse" x1="49.8735" y1="-12.2871" x2="-8.876" y2="-12.5371" gradientTransform="matrix(1.849 0 0 1.849 -18.6264 302.3707)">
						<stop  offset="0" style="stop-color:#FFFFFF;stop-opacity:0.75"/>
						<stop  offset="1" style="stop-color:#FFFFFF;stop-opacity:0"/>
					</linearGradient>
					
						<path id="path3626-4" inkscape:connector-curvature="0" opacity="0.69" fill="url(#path3626-4_1_)" enable-background="new    " d="
						M73.591,224.424c-8.416-0.104-16.825,1.428-23.979,4.737c-15.293,5.929-33.183,24.994-29.692,33.079
						c29.498-9.347,75.305-8.833,104.636,5.404c45.427,23.422,92.09,47.737,131.108,68.01
						c-45.717-31.689-102.383-69.5-151.968-102.968C95.292,227.422,84.411,224.557,73.591,224.424L73.591,224.424z"/>
					
						<linearGradient id="path3924-5_1_" gradientUnits="userSpaceOnUse" x1="100.1543" y1="-143.2295" x2="94.6685" y2="-71.1838" gradientTransform="matrix(1.849 0 0 1.849 -18.6264 302.3707)">
						<stop  offset="0" style="stop-color:#FFFFFF"/>
						<stop  offset="1" style="stop-color:#FFFFFF;stop-opacity:0"/>
					</linearGradient>
					<path id="path3924-5" inkscape:connector-curvature="0" fill="url(#path3924-5_1_)" d="M116.754,93.545
						c-6.403,0.007-20.319,2.087-27.62,6.761c-13.621,9.135-18.427,16.99-23.229,34.265c-0.856,3.229-1.403,6.485-1.733,9.765
						l0.289-0.347c25.058-0.499,60.364-9.313,78.825,1.337c41.57,33.303,71.256,100.104,98.725,139.159l-75.159-161.471
						C155.458,102.104,135.966,93.523,116.754,93.545z"/>
					
						<linearGradient id="path3960-1_1_" gradientUnits="userSpaceOnUse" x1="216.373" y1="-138.522" x2="98.6158" y2="-58.7981" gradientTransform="matrix(1.849 0 0 1.849 -18.4896 302.3707)">
						<stop  offset="0" style="stop-color:#FFFFFF"/>
						<stop  offset="1" style="stop-color:#FFFFFF;stop-opacity:0"/>
					</linearGradient>
					<path id="path3960-1" inkscape:connector-curvature="0" fill="url(#path3960-1_1_)" d="M116.892,93.545
						c-6.403,0.008-20.319,2.087-27.62,6.761c-13.621,9.135-18.427,16.99-23.229,34.265c-0.856,3.229-1.403,6.485-1.733,9.765
						l0.289-0.347c25.058-0.499,60.364-9.313,78.824,1.337c41.571,33.303,71.257,100.104,98.726,139.159L166.99,123.014
						C155.595,102.104,136.103,93.523,116.892,93.545z"/>
					
						<linearGradient id="path3993-3_1_" gradientUnits="userSpaceOnUse" x1="91.7788" y1="-143.23" x2="86.293" y2="-71.1835" gradientTransform="matrix(-1.849 0 0 1.849 598.2084 302.3707)">
						<stop  offset="0" style="stop-color:#FFFFFF"/>
						<stop  offset="1" style="stop-color:#FFFFFF;stop-opacity:0"/>
					</linearGradient>
					<path id="path3993-3" inkscape:connector-curvature="0" fill="url(#path3993-3_1_)" d="M478.313,93.545
						c6.403,0.008,20.319,2.087,27.62,6.761c13.621,9.135,18.428,16.99,23.229,34.265c0.855,3.229,1.402,6.485,1.732,9.765
						l-0.289-0.347c-25.058-0.499-60.363-9.313-78.824,1.337c-41.57,33.303-71.256,100.104-98.726,139.159l75.159-161.471
						C439.609,102.104,459.102,93.523,478.313,93.545L478.313,93.545z"/>
					
						<linearGradient id="path4003-2_1_" gradientUnits="userSpaceOnUse" x1="208.0029" y1="-138.5239" x2="90.2418" y2="-58.7975" gradientTransform="matrix(-1.849 0 0 1.849 598.2357 302.3707)">
						<stop  offset="0" style="stop-color:#FFFFFF"/>
						<stop  offset="1" style="stop-color:#FFFFFF;stop-opacity:0"/>
					</linearGradient>
					<path id="path4003-2" inkscape:connector-curvature="0" fill="url(#path4003-2_1_)" d="M478.34,93.545
						c6.404,0.008,20.32,2.087,27.62,6.761c13.622,9.135,18.428,16.99,23.229,34.265c0.856,3.229,1.403,6.485,1.732,9.765
						l-0.289-0.347c-25.057-0.499-60.363-9.313-78.824,1.337c-41.57,33.303-71.257,100.104-98.725,139.159l75.159-161.471
						C439.637,102.104,459.129,93.523,478.34,93.545L478.34,93.545L478.34,93.545z"/>
					
						<linearGradient id="path4057-1_1_" gradientUnits="userSpaceOnUse" x1="34.9326" y1="-42.4585" x2="37.4927" y2="-40.3556" gradientTransform="matrix(1.849 0 0 1.849 -22.1771 303.8942)">
						<stop  offset="0" style="stop-color:#FFFFFF"/>
						<stop  offset="1" style="stop-color:#FFFFFF;stop-opacity:0"/>
					</linearGradient>
					
						<path id="path4057-1" inkscape:connector-curvature="0" opacity="0.69" fill="url(#path4057-1_1_)" enable-background="new    " d="
						M70.041,225.944c-8.417-0.104-21.391,1.767-26.178,3.555c-14.448,6.267-29.971,26.685-28.34,34.263
						c29.498-9.348,76.149-8.834,105.481,5.403c45.426,23.422,92.09,47.739,131.108,68.01
						c-45.718-31.688-102.383-69.5-151.968-102.968C91.742,228.943,80.862,226.078,70.041,225.944L70.041,225.944z"/>
					
						<linearGradient id="path4045-8_1_" gradientUnits="userSpaceOnUse" x1="159.832" y1="8.5713" x2="-4.918" y2="-46.1787" gradientTransform="matrix(1.849 0 0 1.849 -18.6264 302.3707)">
						<stop  offset="0" style="stop-color:#FFFFFF;stop-opacity:0.75"/>
						<stop  offset="1" style="stop-color:#FFFFFF;stop-opacity:0"/>
					</linearGradient>
					
						<path id="path4045-8" inkscape:connector-curvature="0" opacity="0.69" fill="url(#path4045-8_1_)" enable-background="new    " d="
						M73.591,224.424c-8.416-0.104-16.825,1.428-23.979,4.737c-15.293,5.929-33.183,24.994-29.692,33.079
						c29.498-9.347,75.305-8.833,104.636,5.404c45.427,23.422,92.09,47.737,131.108,68.01
						c-45.717-31.689-102.383-69.5-151.968-102.968C95.292,227.422,84.411,224.557,73.591,224.424L73.591,224.424z"/>
					
						<linearGradient id="path4091-4_1_" gradientUnits="userSpaceOnUse" x1="388.4609" y1="433.0166" x2="386.2228" y2="431.8032" gradientTransform="matrix(2.8704 0 0 -2.7863 -584.296 1330.9348)">
						<stop  offset="0" style="stop-color:#FFFFFF"/>
						<stop  offset="1" style="stop-color:#FFFFFF;stop-opacity:0"/>
					</linearGradient>
					<path id="path4091-4" inkscape:connector-curvature="0" fill="url(#path4091-4_1_)" d="M478.263,93.545
						c8.433,0.008,22.011,2.764,29.312,7.437c16.235,9.158,29.444,28.283,23.271,43.354l2.754-0.008
						c-25.058-0.499-63.406-9.65-81.867,0.999c-41.571,33.302-71.258,100.104-98.726,139.159l75.159-161.471
						c11.394-20.91,30.21-29.491,49.421-29.469L478.263,93.545L478.263,93.545z"/>
					
						<linearGradient id="path4490_1_" gradientUnits="userSpaceOnUse" x1="285.8013" y1="367.7461" x2="269.2672" y2="389.4677" gradientTransform="matrix(-2.8704 0 0 -2.7863 1163.9425 1330.9348)">
						<stop  offset="0" style="stop-color:#FFFFFF"/>
						<stop  offset="1" style="stop-color:#FFFFFF;stop-opacity:0"/>
					</linearGradient>
					<path id="path4490" inkscape:connector-curvature="0" fill="url(#path4490_1_)" d="M478.241,93.545
						c6.403,0.008,20.318,2.087,27.62,6.761c13.621,9.135,18.428,16.99,23.229,34.265c0.856,3.229,1.403,6.485,1.733,9.765
						l-0.289-0.347c-25.059-0.499-60.363-9.313-78.824,1.337c-41.571,33.303-71.257,100.104-98.726,139.159l75.158-161.471
						C439.537,102.104,459.03,93.523,478.241,93.545L478.241,93.545z"/>
					
						<linearGradient id="path4480_1_" gradientUnits="userSpaceOnUse" x1="292.0146" y1="367.4688" x2="274.9112" y2="389.6596" gradientTransform="matrix(2.8704 0 0 -2.7863 -584.296 1330.9348)">
						<stop  offset="0" style="stop-color:#FFFFFF"/>
						<stop  offset="1" style="stop-color:#FFFFFF;stop-opacity:0"/>
					</linearGradient>
					<path id="path4480" inkscape:connector-curvature="0" fill="url(#path4480_1_)" d="M116.892,93.545
						c-6.403,0.008-20.319,2.087-27.62,6.761c-13.621,9.135-18.427,16.99-23.229,34.265c-0.856,3.229-1.403,6.485-1.733,9.765
						l0.289-0.347c25.058-0.499,60.364-9.313,78.824,1.337c41.571,33.303,71.257,100.104,98.726,139.159L166.99,123.014
						C155.595,102.104,136.103,93.523,116.892,93.545z"/>
				</g>
			</g>
		</g>
	</g>
	<g>
		<polygon points="175.988,375.206 175.988,484.294 175.746,484.294 84.914,375.206 61.063,375.206 61.063,532.47 88.045,532.47 
			88.045,423.366 88.287,423.366 179.119,532.47 202.969,532.47 202.969,375.206 		"/>
		<path d="M318.384,532.458c22.648,0,33.01-6.263,40.717-13.483c10.601-10.12,14.458-21.917,14.458-33.471
			c0-19.269-10.362-35.407-28.679-39.742c11.338-4.569,20.004-17.582,20.004-32.025c0-9.63-3.859-18.059-10.6-24.805
			c-7.717-7.702-20.004-13.731-37.824-13.731h-95.175v157.258H318.384z M319.349,461.891c7.953,0,14.932,3.373,19.76,8.434
			c3.848,4.09,6.257,9.16,6.257,14.938c0,5.778-2.409,11.796-6.505,15.898c-4.816,4.817-12.048,7.23-19.512,7.23h-71.082v-46.5
			H319.349z M313.566,399.283c7.468,0,13.246,1.688,17.594,6.021c3.367,3.372,5.529,8.19,5.529,13.487
			c0,5.781-2.409,11.563-6.505,15.659c-4.332,4.333-10.114,5.778-16.618,5.778h-65.299v-40.945H313.566z"/>
		<path d="M526.796,486.707c-13.498,14.453-34.459,26.48-59.031,26.48c-35.179,0-58.064-26.48-58.064-59.233
			c0-32.507,22.4-59.488,56.861-59.488c19.275,0,40.955,8.429,54.938,21.676l18.306-18.06
			c-17.593-16.383-45.05-27.693-73.728-27.693c-50.357,0-84.809,37.809-84.809,83.321c0,46.238,34.214,83.565,86.016,83.565
			c34.213,0,60.709-15.896,77.576-32.752L526.796,486.707z"/>
	</g>
</g>
</svg>
