<?xml version="1.0" encoding="UTF-8"?>
<!-- Generator: Adobe Illustrator 16.0.0, SVG Export Plug-In . SVG Version: 6.00 Build 0)  -->
<!DOCTYPE svg PUBLIC "-//W3C//DTD SVG 1.1//EN" "http://www.w3.org/Graphics/SVG/1.1/DTD/svg11.dtd">
<svg version="1.1" id="Layer_1" xmlns="http://www.w3.org/2000/svg" xmlns:xlink="http://www.w3.org/1999/xlink" x="0px" y="0px" width="1348.249px" height="153.468px" viewBox="0 0 1348.249 153.468" enable-background="new 0 0 1348.249 153.468" xml:space="preserve">
<g>
	<g>
		<path fill="#400095" d="M0,147.164l8.077-8.078c1.97-1.97,2.955-4.202,2.955-6.697V4.925h1.97l96.533,87.077V27.975    c0-2.496-0.985-4.729-2.955-6.698L98.503,13.2v-1.97h51.025v1.97l-8.077,8.077c-1.97,1.97-2.955,4.203-2.955,6.698v126.478h-1.97    L39.992,67.179v65.209c0,2.495,0.985,4.728,2.955,6.697l8.077,8.078v1.97H0V147.164z"/>
		<path fill="#400095" d="M163.704,147.164l8.077-8.078c1.97-1.97,2.955-4.202,2.955-6.697V27.975c0-2.496-0.985-4.729-2.955-6.698    l-8.077-8.077v-1.97h81.363c14.185,0,25.053,3.218,32.604,9.653C285.224,27.318,289,35.855,289,46.494    c0,16.023-8.274,26.07-24.823,30.142v0.394c20.357,3.547,30.536,14.775,30.536,33.688c0,12.608-4.433,22.163-13.298,28.664    s-21.244,9.752-37.136,9.752h-80.575V147.164z M241.127,65.8c11.164,0,16.746-4.86,16.746-14.579    c0-4.597-1.412-8.274-4.236-11.032c-2.824-2.758-6.994-4.137-12.51-4.137h-34.87V65.8H241.127z M240.537,123.917    c14.841,0,22.262-5.845,22.262-17.534c0-11.031-7.421-16.548-22.262-16.548h-34.279v34.082H240.537z"/>
		<path fill="#400095" d="M332.532,132.486c-13.659-12.937-20.488-30.24-20.488-51.91c0-21.803,6.895-39.205,20.686-52.207    s31.258-19.504,52.404-19.504c4.728,0,10.507,0.427,17.336,1.281c6.83,0.854,11.098,1.28,12.805,1.28    c4.991,0,9.588-1.642,13.791-4.925l1.97,0.788l-11.82,46.691l-2.167-0.591c-1.444-4.991-4.695-9.325-9.751-13.002    c-5.057-3.677-11.788-5.516-20.193-5.516c-11.952,0-21.835,4.17-29.649,12.51c-7.814,8.34-11.722,19.471-11.722,33.393    c0,13.528,3.677,24.462,11.032,32.802s17.008,12.51,28.96,12.51c13.922,0,24.888-5.45,32.9-16.352l18.519,21.474    c-12.871,13.79-30.404,20.687-52.601,20.687C363.528,151.893,346.191,145.424,332.532,132.486z"/>
		<path fill="#400095" d="M475.749,137.313c-10.77-9.72-16.155-23.838-16.155-42.356V27.975c0-2.496-0.985-4.729-2.955-6.698    l-8.077-8.077v-1.97h53.192v1.97l-8.078,8.077c-1.97,1.97-2.955,4.203-2.955,6.698v67.77c0,9.981,2.43,17.468,7.29,22.458    c4.859,4.992,11.82,7.486,20.882,7.486c8.931,0,15.793-2.527,20.587-7.584s7.191-12.51,7.191-22.36v-67.77    c0-2.496-0.985-4.729-2.955-6.698l-8.078-8.077v-1.97h53.586v1.97l-8.077,8.077c-1.97,1.97-2.955,4.203-2.955,6.698v66.982    c0,18.519-5.418,32.637-16.253,42.356c-10.835,9.719-25.184,14.579-43.046,14.579C500.9,151.893,486.519,147.032,475.749,137.313z    "/>
		<path fill="#400095" d="M603.599,147.164l8.077-8.078c1.97-1.97,2.955-4.99,2.955-9.062V73.68c0-4.071-0.985-7.092-2.955-9.062    l-8.077-8.077v-1.97h39.795v16.942c2.232-5.385,6.337-9.85,12.313-13.396c5.976-3.546,12.444-5.319,19.405-5.319    c10.244,0,18.19,3.283,23.838,9.85s8.471,15.761,8.471,27.581v39.796c0,4.071,0.985,7.092,2.955,9.062l8.078,8.078v1.97H677.87    V96.73c0-5.648-1.313-10.146-3.94-13.495c-2.626-3.349-6.501-5.024-11.623-5.024c-6.042,0-10.573,1.872-13.594,5.615    c-3.021,3.743-4.531,8.57-4.531,14.48v31.718c0,4.071,0.985,7.092,2.955,9.062l8.077,8.078v1.97h-51.616V147.164z"/>
		<path fill="#400095" d="M727.314,147.164l8.077-8.078c1.971-1.97,2.955-4.99,2.955-9.062V73.68c0-4.071-0.984-7.092-2.955-9.062    l-8.077-8.077v-1.97h40.583v75.454c0,4.071,0.984,7.092,2.955,9.062l8.078,8.078v1.97h-51.616V147.164z M740.612,35.658    c-3.48-3.283-5.221-7.355-5.221-12.214s1.74-8.931,5.221-12.214c3.48-3.284,7.584-4.925,12.313-4.925s8.832,1.642,12.313,4.925    c3.48,3.283,5.221,7.355,5.221,12.214s-1.74,8.931-5.221,12.214s-7.584,4.925-12.313,4.925S744.093,38.941,740.612,35.658z"/>
		<path fill="#400095" d="M795.868,75.65c-4.465-8.668-9.455-14.972-14.971-18.913v-2.167h36.248l19.504,45.706h0.395l17.139-45.706    h36.84v2.167c-5.646,3.94-10.637,10.245-14.973,18.913l-39.006,77.817h-1.971L795.868,75.65z"/>
		<path fill="#400095" d="M907.962,138.791c-9.326-8.734-13.988-20.521-13.988-35.363c0-14.972,4.598-27.153,13.791-36.544    s21.67-14.086,37.43-14.086c15.236,0,26.662,4.433,34.279,13.298c7.619,8.865,11.428,20.784,11.428,35.757    c0,3.021-0.133,5.845-0.395,8.472h-66.193c0.656,4.99,3.086,9.193,7.289,12.607c4.201,3.415,9.783,5.123,16.744,5.123    c8.801,0,15.564-2.627,20.293-7.881l16.352,19.307c-8.932,8.274-22,12.412-39.205,12.412    C929.894,151.893,917.286,147.525,907.962,138.791z M929.632,80.182c-3.414,3.546-5.318,7.881-5.713,13.002h37.037    c-0.264-5.385-1.904-9.784-4.926-13.199c-3.02-3.415-7.289-5.122-12.805-5.122C937.577,74.862,933.046,76.636,929.632,80.182z"/>
		<path fill="#400095" d="M1004.487,147.164l8.078-8.078c1.971-1.97,2.955-4.99,2.955-9.062V73.68c0-4.071-0.984-7.092-2.955-9.062    l-8.078-8.077v-1.97h39.797V73.68c2.232-6.042,5.91-11.032,11.031-14.972c5.123-3.94,11.033-5.91,17.73-5.91    c4.859,0,8.998,0.919,12.412,2.758l-7.684,29.552c-4.203-3.678-8.932-5.517-14.184-5.517c-5.779,0-10.311,1.904-13.594,5.713    c-3.283,3.81-4.926,9.194-4.926,16.155v28.565c0,4.071,0.984,7.092,2.955,9.062l8.078,8.078v1.97h-51.617V147.164z"/>
		<path fill="#400095" d="M1088.606,139.086l13.791-20.094c8.799,7.223,19.371,10.835,31.717,10.835    c8.406,0,12.609-2.627,12.609-7.88c0-2.496-1.084-4.4-3.252-5.713c-2.166-1.314-5.023-2.233-8.568-2.759    c-3.547-0.525-7.553-1.183-12.018-1.97c-19.307-3.283-28.961-12.543-28.961-27.778c0-10.901,3.842-18.781,11.525-23.641    s17.436-7.289,29.256-7.289c4.596,0,9.424,0.427,14.48,1.28c5.057,0.854,8.438,1.281,10.145,1.281    c4.334,0,8.668-1.642,13.002-4.925l1.971,0.788l-9.26,36.052l-1.969-0.591c-3.941-8.405-12.807-12.608-26.596-12.608    c-8.275,0-12.412,2.43-12.412,7.289c0,2.232,1.018,4.006,3.053,5.319c2.037,1.313,4.762,2.2,8.176,2.659    c3.416,0.461,7.291,1.084,11.625,1.872c8.537,1.444,15.662,4.334,21.375,8.669c5.713,4.334,8.568,10.638,8.568,18.912    c0,10.507-3.973,18.65-11.918,24.429s-18.879,8.669-32.801,8.669C1113.495,151.893,1098.981,147.623,1088.606,139.086z"/>
		<path fill="#400095" d="M1197.151,144.307c-5.779-5.057-8.668-11.721-8.668-19.996c0-10.375,3.775-18.124,11.326-23.246    c7.553-5.123,19.34-7.814,35.363-8.078c4.99-0.131,8.406-0.754,10.244-1.871c1.84-1.116,2.758-3.053,2.758-5.812    c0-2.758-1.412-5.057-4.234-6.895c-2.824-1.839-7.125-2.758-12.904-2.758c-8.801,0-16.811,3.284-24.035,9.851l-15.367-18.125    c9.721-9.719,23.838-14.578,42.357-14.578c14.973,0,25.973,3.021,32.998,9.062c7.027,6.042,10.541,15.235,10.541,27.582v40.583    c0,4.071,0.984,7.092,2.955,9.062l8.076,8.078v1.97h-39.795v-12.806c-2.363,4.598-6.174,8.34-11.426,11.229    c-5.254,2.89-11.361,4.335-18.322,4.335C1210.22,151.893,1202.929,149.363,1197.151,144.307z M1243.054,125.789    c3.414-3.48,5.121-7.65,5.121-12.51v-6.502c-1.707,0.656-5.844,1.182-12.41,1.576c-11.82,0.656-17.73,4.729-17.73,12.215    c0,3.021,0.984,5.516,2.955,7.486c1.969,1.97,4.924,2.955,8.865,2.955C1235.239,131.01,1239.638,129.27,1243.054,125.789z"/>
		<path fill="#400095" d="M1296.634,147.164l8.076-8.078c1.971-1.97,2.955-4.99,2.955-9.062V19.11c0-4.072-0.984-7.092-2.955-9.063    l-8.076-8.077V0h40.582v130.024c0,4.071,0.986,7.092,2.955,9.062l8.078,8.078v1.97h-51.615V147.164z"/>
	</g>
</g>
</svg>