<?xml version="1.0" encoding="utf-8"?>
<!-- Generator: Adobe Illustrator 21.1.0, SVG Export Plug-In . SVG Version: 6.00 Build 0)  -->
<svg version="1.1" id="Layer_1" xmlns="http://www.w3.org/2000/svg" xmlns:xlink="http://www.w3.org/1999/xlink" x="0px" y="0px"
	 viewBox="0 0 1199.7 1011.9" style="enable-background:new 0 0 1199.7 1011.9;" xml:space="preserve">
<style type="text/css">
	.st0{fill:#243746;}
	.st1{fill:#EB1010;}
	.st2{fill:#911010;}
	.st3{fill:#C31010;}
</style>
<g>
	<path class="st0" d="M44,892.4H0.6v-0.2c-0.3-1.7-0.5-3.1-0.5-4.2C0,886.9,0,885.6,0,884.1c0-3.7,1.4-7.2,4.1-10.3
		c2.7-3.1,7.2-4.7,13.6-4.7h97.7c0.4,2.9,0.6,5.9,0.6,8.9c0,3.6-1.2,6.9-3.7,9.9s-6.9,4.5-13.3,4.5H72.8v116H44.1L44,892.4L44,892.4
		z M213.5,986.3c6.7,0,11.2,1.5,13.6,4.6c2.4,3.1,3.6,6.4,3.6,10.2c0,1.5,0,2.8-0.1,3.8s-0.2,2.2-0.3,3.4h-90V869H227
		c0.3,1.5,0.4,2.8,0.5,3.8s0.1,2.3,0.1,3.8c0,4.9-1.2,8.5-3.7,10.9s-7.1,3.6-13.9,3.6h-41v34.3h44.1v22.2H169v38.5h44.5V986.3z
		 M285.9,985.3h40.5c3.3,0,6.1,0.4,8.3,1.2c2.2,0.8,3.9,1.9,5.2,3.3c1.2,1.4,2.1,3,2.6,4.8s0.7,3.6,0.7,5.4c0,1.4,0,3.1-0.1,5
		s-0.2,3.1-0.3,3.3h-85.6V869.2c1.9-0.3,3.8-0.5,5.7-0.7s3.3-0.3,4.3-0.3c2.1,0,4.2,0.2,6.3,0.6s4.2,1.2,6,2.4
		c1.9,1.2,3.4,2.8,4.6,4.9c1.2,2.1,1.8,4.9,1.8,8.3V985.3z M442.4,986.3c6.7,0,11.2,1.5,13.6,4.6c2.4,3.1,3.6,6.4,3.6,10.2
		c0,1.5,0,2.8-0.1,3.8s-0.2,2.2-0.3,3.4h-90V869h86.7c0.3,1.5,0.4,2.8,0.5,3.8s0.1,2.3,0.1,3.8c0,4.9-1.2,8.5-3.7,10.9
		s-7.1,3.6-13.9,3.6h-41v34.3H442v22.2h-44.1v38.5h44.5V986.3z M767.9,952.2c0,2.8-0.1,5.5-0.2,8.3s-0.3,5.6-0.6,8.5
		c-0.6,5.8-2,11.3-4.3,16.5s-5.6,9.7-10,13.5s-9.8,6.8-16.3,9s-14.2,3.3-23.1,3.3c-9,0-16.6-1-22.9-2.9c-6.2-1.9-11.4-4.7-15.6-8.4
		c-4.2-3.7-7.3-8.2-9.6-13.5c-2.2-5.3-3.7-11.5-4.6-18.4c-0.3-2.5-0.5-5.1-0.6-7.7s-0.2-5.4-0.2-8.3v-82.9c1.9-0.3,3.8-0.5,5.7-0.7
		c1.9-0.2,3.3-0.3,4.3-0.3c2.1,0,4.2,0.2,6.3,0.6c2.1,0.4,4.1,1.2,5.9,2.4c1.8,1.2,3.3,2.8,4.5,4.9s1.8,4.9,1.8,8.3V954
		c0,5,0.3,9.5,0.9,13.5s1.9,7.5,3.7,10.3c1.9,2.8,4.5,5.1,7.8,6.7s7.7,2.4,13.1,2.4c9.4,0,16-2.7,19.8-8.2c3.7-5.5,5.6-13.1,5.6-23
		v-86.5c1.9-0.3,3.8-0.5,5.7-0.7c1.9-0.2,3.3-0.3,4.3-0.3c2.1,0,4.2,0.2,6.3,0.6c2.1,0.4,4.1,1.2,5.9,2.4c1.8,1.2,3.3,2.8,4.5,4.9
		s1.8,4.9,1.8,8.3L767.9,952.2L767.9,952.2z M908.5,1008.4h-24.1l-59.2-91.5v91.5H798V869.5c1.4-0.3,3.3-0.6,5.6-0.8
		c2.4-0.3,4.7-0.4,7.1-0.4c4.4,0,7.9,0.8,10.4,2.3s4.7,3.9,6.7,7.1l53.6,87.5v-95.8c1.9-0.3,3.7-0.5,5.4-0.7c1.7-0.2,3-0.3,3.9-0.3
		c2.1,0,4.2,0.2,6.2,0.6c2.1,0.4,4,1.2,5.7,2.4c1.7,1.2,3.2,2.8,4.3,4.9c1.1,2.1,1.7,4.9,1.7,8.3L908.5,1008.4L908.5,1008.4z
		 M1049.4,936.4c0,9.8-1.3,19.1-3.9,27.9c-2.6,8.7-6.7,16.4-12.1,22.9c-5.4,6.5-12.3,11.7-20.7,15.5c-8.4,3.8-18.3,5.7-29.6,5.7
		h-44.3v-138c8.9-1.1,16.5-1.8,22.8-2.1c6.3-0.3,11.7-0.4,16.3-0.4c13.9,0,25.4,1.8,34.5,5.5s16.5,8.6,21.9,14.9
		c5.5,6.2,9.4,13.5,11.6,21.8C1048.2,918.4,1049.4,927.2,1049.4,936.4z M1020.3,936.8c0-6.5-0.6-12.6-1.9-18.3
		c-1.2-5.7-3.4-10.6-6.4-14.9c-3.1-4.2-7.2-7.6-12.4-10c-5.2-2.4-11.7-3.6-19.6-3.6c-4,0-8.2,0.2-12.5,0.6v95.8h11.4
		c8.2,0,14.9-1.2,20.3-3.6c5.3-2.4,9.6-5.8,12.7-10.2c3.1-4.4,5.3-9.6,6.5-15.7C1019.6,950.9,1020.3,944.2,1020.3,936.8z
		 M1199.7,938.3c0,10-1.2,19.4-3.5,28.4c-2.4,8.9-6.1,16.8-11.2,23.5c-5.1,6.7-11.7,12-19.7,15.9s-17.7,5.8-29.1,5.8
		c-11.2,0-20.8-2-28.7-5.9c-7.9-3.9-14.3-9.3-19.3-16s-8.6-14.5-10.9-23.4s-3.4-18.2-3.4-28.1c0-9.7,1.2-18.9,3.7-27.6
		s6.4-16.4,11.6-23c5.3-6.6,11.9-11.8,20-15.7c8-3.9,17.6-5.8,28.7-5.8c10.9,0,20.3,1.9,28.2,5.6s14.2,8.8,19.2,15.3
		c5,6.4,8.7,14,11,22.8C1198.5,918.8,1199.7,928.2,1199.7,938.3z M1170.4,938.5c0-6.7-0.6-13-1.7-18.9c-1.1-6-3-11.2-5.6-15.7
		c-2.6-4.5-6-8.1-10.2-10.7s-9.3-3.9-15.4-3.9c-6.4,0-11.7,1.3-16.1,3.9c-4.4,2.6-7.9,6.2-10.6,10.7s-4.6,9.7-5.8,15.7
		c-1.2,6-1.8,12.3-1.8,18.9c0,6.7,0.6,13,1.8,19.1s3.1,11.5,5.7,16.2c2.6,4.7,6.1,8.5,10.4,11.2c4.3,2.8,9.6,4.2,15.8,4.2
		c6.2,0,11.5-1.4,15.8-4.2c4.3-2.8,7.7-6.5,10.3-11.2c2.6-4.7,4.4-10.1,5.6-16.2S1170.4,945.2,1170.4,938.5z M622.5,869.7
		c-3.1-0.4-6.3-0.6-9.6-0.6c-5.2,0-9.2,1.1-12.1,3.2c-2.8,2.1-5.1,4.9-6.9,8.4l-36,73.9l-36-73.9c-1.7-3.4-4-6.2-6.9-8.4
		c-2.8-2.1-6.9-3.2-12.1-3.2c-3.3,0-6.5,0.2-9.6,0.6c-2.2,0.3-5.2,1.1-7.6,1.8v136.9h26.9l0,0l0,0v-91l31.3,62.1h28l31.3-62.1v91
		l0,0l0,0h26.9V871.5C627.7,870.8,624.7,870,622.5,869.7z"/>
	<g>
		<path class="st1" d="M964.8,0H846.6c-93.4,0-179.2,32.3-247,86.2C531.8,32.2,446,0,352.6,0H234.4c-5.1,0-9.3,4.1-9.3,9.3v273.3
			c0,5.1,4.1,9.3,9.3,9.3h215.4v477.6c0,6.2,5.9,10.6,11.9,8.9c50.9-14.5,97.6-38.9,137.9-71c40.3,32.1,87,56.5,137.9,71
			c5.9,1.7,11.9-2.7,11.9-8.9V291.9h215.4c5.1,0,9.3-4.1,9.3-9.3V9.3C974.1,4.2,970,0,964.8,0z"/>
		<path class="st2" d="M449.8,396.8V291.9H234.4c-5.1,0-9.3-4.1-9.3-9.3V9.3c0-5.1,4.1-9.3,9.3-9.3h118.3
			c93.4,0,179.2,32.3,247,86.2C508.4,159,449.8,271.1,449.8,396.8z M449.8,396.8v372.7c0,6.2,5.9,10.6,11.9,8.9
			c50.9-14.5,97.6-38.9,137.9-71C508.4,634.6,449.8,522.6,449.8,396.8z"/>
		<path class="st3" d="M599.6,707.3c-91.3-72.7-149.8-184.8-149.8-310.5S508.3,159,599.6,86.3c91.3,72.7,149.8,184.8,149.8,310.5
			S690.9,634.6,599.6,707.3z"/>
	</g>
</g>
</svg>
