<?xml version="1.0" encoding="UTF-8" standalone="no"?>
<!-- Created with Inkscape (http://www.inkscape.org/) -->

<svg xmlns:dc="http://purl.org/dc/elements/1.1/" xmlns:cc="http://creativecommons.org/ns#" xmlns:rdf="http://www.w3.org/1999/02/22-rdf-syntax-ns#" xmlns:svg="http://www.w3.org/2000/svg" xmlns="http://www.w3.org/2000/svg" xmlns:sodipodi="http://sodipodi.sourceforge.net/DTD/sodipodi-0.dtd" xmlns:inkscape="http://www.inkscape.org/namespaces/inkscape" id="svg2985" version="1.1" inkscape:version="0.48.5 r10040" width="419.963986097" height="238.115655891" viewBox="0 0 1018.172 577.29401" sodipodi:docname="UNIVERSAL_2013_PRINT_LOGO.png">
  <metadata id="metadata2991">
    <rdf:RDF>
      <cc:Work rdf:about="">
        <dc:format>image/svg+xml</dc:format>
        <dc:type rdf:resource="http://purl.org/dc/dcmitype/StillImage" />
        <dc:title></dc:title>
      </cc:Work>
    </rdf:RDF>
  </metadata>
  <defs id="defs2989" />
  <sodipodi:namedview pagecolor="#ffffff" bordercolor="#666666" borderopacity="1" objecttolerance="10" gridtolerance="10" guidetolerance="10" inkscape:pageopacity="0" inkscape:pageshadow="2" inkscape:window-width="1366" inkscape:window-height="706" id="namedview2987" showgrid="false" fit-margin-top="0" fit-margin-left="0" fit-margin-right="0" fit-margin-bottom="0" inkscape:zoom="0.63138686" inkscape:cx="509.086" inkscape:cy="288.647" inkscape:window-x="-8" inkscape:window-y="-8" inkscape:window-maximized="1" inkscape:current-layer="svg2985" />
  <g id="g2996" style="fill:#005395;fill-opacity:1">
	<g id="g2998" style="fill:#005395;fill-opacity:1">
		<path id="path3000" d="m 39.762,328.553 c -25.639,0 -39.276,-16.423 -39.43,-47.498 L 0,209.465 c 0,-0.795 0.596,-1.437 1.37,-1.547 l 22.346,-2.144 c 0.42,-0.044 0.84,0.088 1.172,0.42 0.309,0.243 0.507,0.641 0.507,1.104 l 0.333,70.706 c 0.065,15.538 5.967,23.451 17.593,23.451 0.906,0 1.835,-0.044 2.83,-0.177 13.615,-1.326 20.488,-10.563 20.422,-27.54 l -0.331,-70.706 c 0,-0.817 0.597,-1.437 1.393,-1.525 l 22.412,-2.188 c 0.464,-0.043 0.884,0.088 1.216,0.376 0.31,0.287 0.486,0.729 0.486,1.149 l 0.332,71.545 c 0.088,19.208 -5.725,51.963 -45.774,55.853 -2.28,0.199 -4.468,0.311 -6.545,0.311" inkscape:connector-curvature="0" style="fill:#005395;fill-opacity:1" />

		<path id="path3002" d="m 116.059,318.342 c -0.354,0 -0.751,-0.155 -1.038,-0.442 -0.287,-0.243 -0.464,-0.663 -0.464,-1.104 l -0.575,-118.049 c 0,-0.84 0.619,-1.503 1.415,-1.547 l 23.826,-1.636 c 0.509,-0.044 1.017,0.176 1.304,0.575 l 50.482,66.638 -0.309,-69.379 c -0.022,-0.817 0.596,-1.481 1.415,-1.525 l 19.273,-1.371 c 0.42,0 0.84,0.133 1.15,0.443 0.332,0.287 0.486,0.663 0.486,1.105 l 0.552,118.049 c 0.022,0.84 -0.619,1.503 -1.415,1.547 l -19.781,1.37 c -0.508,0 -1.039,-0.176 -1.326,-0.553 l -54.526,-72.252 0.354,75.259 c 0,0.816 -0.619,1.458 -1.415,1.502 l -19.296,1.371 h -0.112 z" inkscape:connector-curvature="0" style="fill:#005395;fill-opacity:1" />

		<path id="path3004" d="m 241.845,310.208 c -0.376,0 -0.773,-0.154 -1.04,-0.42 -0.309,-0.287 -0.507,-0.686 -0.507,-1.083 l -0.664,-117.718 c 0,-0.817 0.619,-1.524 1.437,-1.546 l 25.639,-1.26 c 0.442,-0.022 0.84,0.133 1.149,0.42 0.31,0.243 0.486,0.663 0.486,1.083 l 0.575,117.718 c 0,0.816 -0.664,1.481 -1.481,1.547 l -25.506,1.26 h -0.088 z" inkscape:connector-curvature="0" style="fill:#005395;fill-opacity:1" />

		<path id="path3006" d="m 336.355,306.23 c -0.619,0 -1.172,-0.376 -1.416,-0.929 L 284.746,189.064 c -0.178,-0.464 -0.133,-1.038 0.154,-1.458 0.265,-0.42 0.707,-0.686 1.237,-0.686 l 29.308,-0.884 c 0.73,0.022 1.216,0.375 1.459,0.928 l 32.646,75.877 33.751,-77.911 c 0.221,-0.53 0.751,-0.906 1.325,-0.929 l 23.142,-0.663 c 0.597,0 1.016,0.222 1.304,0.663 0.331,0.464 0.353,0.973 0.133,1.459 l -51.433,119.244 c -0.222,0.553 -0.774,0.884 -1.371,0.905 l -20.025,0.62 h -0.021 z" inkscape:connector-curvature="0" style="fill:#005395;fill-opacity:1" />

		<path id="path3008" d="m 427.151,303.998 c -0.84,0 -1.547,-0.663 -1.547,-1.503 l -0.685,-117.718 c 0,-0.398 0.154,-0.795 0.442,-1.105 0.309,-0.288 0.686,-0.443 1.083,-0.443 l 94.356,-0.066 c 0.84,0 1.525,0.664 1.525,1.503 l 0.109,22.92 c 0,0.399 -0.154,0.819 -0.441,1.083 -0.31,0.287 -0.686,0.442 -1.105,0.442 l -65.709,0.066 0.087,20.378 44.161,-0.066 c 0.84,0 1.524,0.729 1.524,1.548 l 0.112,23.074 c 0,0.442 -0.155,0.84 -0.442,1.127 -0.288,0.287 -0.686,0.42 -1.083,0.42 l -44.139,0.066 0.066,22.081 66.528,-0.089 c 0.84,0 1.525,0.729 1.525,1.57 l 0.11,23.052 c 0,0.443 -0.154,0.84 -0.443,1.083 -0.286,0.31 -0.684,0.464 -1.082,0.464 l -94.93,0.112 h -0.022 z" inkscape:connector-curvature="0" style="fill:#005395;fill-opacity:1" />

		<path id="path3010" d="m 579.791,235.015 20.931,0.641 c 0.951,0.023 1.856,0.023 2.72,0.023 7.713,0 12.222,-1.083 14.652,-3.559 1.967,-1.967 2.83,-5.04 2.83,-9.99 -0.065,-5.592 -1.105,-10.676 -13.859,-11.029 l -27.361,-0.84 0.087,24.754 z m 74.662,72.563 h -0.067 l -30.501,-0.928 c -0.53,0 -0.994,-0.287 -1.259,-0.774 l -25.838,-44.426 -16.71,-0.508 0.199,42.813 c 0,0.42 -0.154,0.816 -0.486,1.104 -0.244,0.287 -0.662,0.42 -1.105,0.465 l -25.727,-0.796 c -0.84,-0.021 -1.504,-0.686 -1.504,-1.547 l -0.551,-118.049 c 0,-0.42 0.175,-0.818 0.485,-1.105 0.242,-0.265 0.662,-0.464 1.105,-0.442 l 64.782,1.945 c 21.483,0.663 33.861,14.344 33.971,37.596 0.11,22.39 -11.891,31.717 -22.743,35.607 l 27.253,46.746 c 0.286,0.487 0.286,1.085 0,1.549 -0.242,0.462 -0.73,0.75 -1.304,0.75" inkscape:connector-curvature="0" style="fill:#005395;fill-opacity:1" />

		<path id="path3012" d="m 721.491,314.451 c -1.614,0 -3.251,-0.044 -4.952,-0.154 -18.257,-0.949 -37.309,-12.378 -42.68,-15.87 -0.464,-0.242 -0.729,-0.729 -0.729,-1.26 l -0.133,-27.229 c 0,-0.531 0.31,-1.083 0.84,-1.349 0.464,-0.243 1.105,-0.221 1.547,0.089 16.511,11.029 32.293,18.146 41.199,18.654 8.443,0.442 14.035,-0.817 16.843,-3.625 1.37,-1.371 2.011,-3.117 2.011,-5.371 0,-2.653 -2.718,-5.238 -8.554,-8.134 -3.448,-1.768 -7.536,-3.448 -11.891,-5.238 -18.39,-7.559 -43.609,-17.881 -43.719,-45.752 -0.045,-9.283 2.873,-16.996 8.708,-22.876 7.515,-7.536 19.584,-11.383 33.109,-10.654 15.914,0.884 34.878,9.019 43.764,14.301 0.463,0.265 0.729,0.795 0.729,1.326 l 0.155,26.368 c 0,0.575 -0.31,1.105 -0.818,1.349 -0.509,0.288 -1.082,0.265 -1.568,-0.044 -5.481,-3.602 -24.646,-15.338 -42.282,-16.289 -6.256,-0.332 -9.372,1.325 -10.721,2.696 -1.325,1.304 -1.503,2.653 -1.503,3.359 0,2.852 2.83,5.748 8.62,8.863 3.471,1.857 7.913,3.736 12.621,5.703 18.125,7.647 42.944,18.08 43.056,43.144 0.066,11.184 -3.16,20.091 -9.637,26.568 -7.516,7.58 -18.963,11.425 -34.015,11.425" inkscape:connector-curvature="0" style="fill:#005395;fill-opacity:1" />

		<path id="path3014" d="m 815.912,266.909 21.351,1.547 -10.5,-28.887 -10.851,27.34 z m 66.616,55.014 c -0.021,0 -0.044,0 -0.111,-0.022 l -25.396,-1.857 c -0.618,-0.065 -1.127,-0.42 -1.325,-1.017 l -8.555,-23.76 -41.31,-3.05 -8.752,22.345 c -0.243,0.62 -0.817,1.017 -1.525,0.974 l -21.283,-1.569 c -0.465,-0.044 -0.975,-0.31 -1.218,-0.686 -0.242,-0.441 -0.286,-0.95 -0.109,-1.393 l 45.618,-115.684 c 0.266,-0.642 0.863,-1.017 1.549,-0.995 l 17.792,1.326 c 0.574,0.022 1.127,0.42 1.327,1.017 l 44.712,122.314 c 0.242,0.464 0.133,1.017 -0.176,1.415 -0.287,0.42 -0.774,0.642 -1.238,0.642" inkscape:connector-curvature="0" style="fill:#005395;fill-opacity:1" />

		<path id="path3016" d="m 973.679,330.343 h -0.154 l -73.204,-6.74 c -0.795,-0.089 -1.369,-0.751 -1.369,-1.549 l -0.709,-119.44 c 0,-0.464 0.154,-0.862 0.487,-1.172 0.353,-0.287 0.729,-0.419 1.192,-0.397 l 22.126,2.056 c 0.796,0.066 1.393,0.729 1.393,1.525 l 0.441,94.622 49.818,4.596 c 0.774,0.067 1.371,0.729 1.393,1.547 l 0.09,23.407 c 0.021,0.464 -0.154,0.84 -0.466,1.149 -0.285,0.264 -0.662,0.396 -1.038,0.396" inkscape:connector-curvature="0" style="fill:#005395;fill-opacity:1" />

	</g>

	<path id="path3018" d="m 179.472,562.131 2.762,5.77 h -5.636 l 2.874,-5.77 z m -1.637,-7.248 -10.896,21.814 h 5.261 l 2.188,-4.354 h 9.946 l 2.056,4.354 h 6.232 L 182.19,554.883 h -4.355 z" inkscape:connector-curvature="0" style="fill:#005395;fill-opacity:1" />

	<g id="g3020" style="fill:#005395;fill-opacity:1">
		<path id="path3022" d="m 244.497,577.294 c -6.101,0 -12.267,-3.56 -12.267,-11.493 0,-7.979 6.167,-11.538 12.267,-11.538 3.956,0 7.537,1.569 8.2,1.901 l 0.553,0.266 v 5.061 l -1.415,-0.752 c -0.619,-0.308 -3.824,-1.922 -7.338,-1.922 -5.039,0 -6.366,4.397 -6.366,6.984 0,2.585 1.327,6.919 6.366,6.919 3.868,0 5.57,-0.907 6.94,-1.593 l 1.968,-1.016 v 5.259 l -0.974,0.377 c -1.812,0.707 -4.088,1.547 -7.934,1.547" inkscape:connector-curvature="0" style="fill:#005395;fill-opacity:1" />

		<path id="path3024" d="m 281.696,558.816 c -5.062,0 -6.41,4.397 -6.41,6.984 0,2.585 1.348,6.919 6.41,6.919 5.083,0 6.41,-4.334 6.41,-6.919 -10e-4,-2.586 -1.328,-6.984 -6.41,-6.984 m 0,18.478 c -6.101,0 -12.29,-3.56 -12.29,-11.493 0,-7.979 6.189,-11.538 12.29,-11.538 6.1,0 12.289,3.56 12.289,11.538 0,7.933 -6.189,11.493 -12.289,11.493" inkscape:connector-curvature="0" style="fill:#005395;fill-opacity:1" />

	</g>

	<polygon id="polygon3026" points="316.352,576.697 316.352,565.756 321.812,576.697 324.972,576.697 330.166,565.801 330.166,576.697 335.803,576.697 335.803,554.883 330.519,554.883 324.043,568.476 317.191,554.883 311.733,554.883 311.733,576.697 " style="fill:#005395;fill-opacity:1" />

	<g id="g3028" style="fill:#005395;fill-opacity:1">
		<path id="path3030" d="m 365.817,577.294 c -6.123,0 -12.266,-3.56 -12.266,-11.493 0,-7.979 6.144,-11.538 12.266,-11.538 3.979,0 7.514,1.569 8.178,1.901 l 0.552,0.266 v 5.061 l -1.392,-0.752 c -0.597,-0.308 -3.846,-1.922 -7.338,-1.922 -5.061,0 -6.387,4.397 -6.387,6.984 0,2.585 1.326,6.919 6.387,6.919 3.868,0 5.57,-0.907 6.919,-1.593 l 1.966,-1.016 v 5.259 l -0.972,0.377 c -1.813,0.707 -4.068,1.547 -7.913,1.547" inkscape:connector-curvature="0" style="fill:#005395;fill-opacity:1" />

	</g>

	<path id="path3032" d="m 401.225,562.131 2.786,5.77 h -5.637 l 2.851,-5.77 z m -1.592,-7.248 -10.917,21.814 h 5.304 l 2.144,-4.354 h 9.946 l 2.078,4.354 h 6.21 l -10.454,-21.814 h -4.311 z" inkscape:connector-curvature="0" style="fill:#005395;fill-opacity:1" />

	<g id="g3034" style="fill:#005395;fill-opacity:1">
		<path id="path3036" d="m 438.401,577.294 c -2.984,0 -6.475,-1.084 -8.619,-2.211 l -0.53,-0.264 v -5.239 l 1.393,0.795 c 2.188,1.129 5.68,2.345 7.757,2.345 2.83,0 4.245,-0.709 4.245,-2.013 0,-1.06 -2.586,-1.855 -5.349,-2.719 l -0.331,-0.109 c -4.157,-1.26 -8.023,-3.072 -8.023,-7.404 0,-3.779 3.448,-6.212 8.818,-6.212 3.228,0 7.162,1.149 8.819,1.924 l 0.53,0.265 v 5.062 l -1.392,-0.729 c -1.171,-0.598 -4.796,-1.967 -7.958,-1.967 -1.724,0 -2.851,0.574 -2.851,1.414 0,1.193 1.768,1.813 4.708,2.72 0.73,0.198 1.481,0.44 2.231,0.728 2.233,0.753 6.831,2.321 6.831,6.434 -0.001,2.693 -1.37,7.18 -10.279,7.18" inkscape:connector-curvature="0" style="fill:#005395;fill-opacity:1" />

	</g>

	<polygon id="polygon3038" points="476.926,559.28 484.397,559.28 484.397,554.883 463.82,554.883 463.82,559.28 471.268,559.28 471.268,576.697 476.926,576.697 " style="fill:#005395;fill-opacity:1" />

	<g id="g3040" style="fill:#005395;fill-opacity:1">
		<path id="path3042" d="m 536.294,577.294 c -6.079,0 -12.245,-3.56 -12.245,-11.493 0,-7.979 6.166,-11.538 12.245,-11.538 3.978,0 7.559,1.569 8.221,1.901 l 0.509,0.266 v 5.061 l -1.391,-0.752 c -0.598,-0.308 -3.824,-1.922 -7.339,-1.922 -5.018,0 -6.388,4.397 -6.388,6.984 0,2.585 1.37,6.919 6.388,6.919 3.867,0 5.592,-0.907 6.963,-1.593 l 1.923,-1.016 v 5.259 l -0.952,0.377 c -1.811,0.707 -4.067,1.547 -7.934,1.547" inkscape:connector-curvature="0" style="fill:#005395;fill-opacity:1" />

		<path id="path3044" d="m 573.47,558.816 c -5.039,0 -6.364,4.397 -6.364,6.984 0,2.585 1.325,6.919 6.364,6.919 5.106,0 6.432,-4.334 6.432,-6.919 -0.001,-2.586 -1.326,-6.984 -6.432,-6.984 m 0,18.478 c -6.079,0 -12.245,-3.56 -12.245,-11.493 0,-7.979 6.166,-11.538 12.245,-11.538 6.145,0 12.311,3.56 12.311,11.538 -10e-4,7.933 -6.167,11.493 -12.311,11.493" inkscape:connector-curvature="0" style="fill:#005395;fill-opacity:1" />

	</g>

	<polygon id="polygon3046" points="607.993,576.697 607.993,565.756 613.454,576.697 616.636,576.697 621.829,565.801 621.829,576.697 627.512,576.697 627.512,554.883 622.162,554.883 615.708,568.476 608.856,554.883 603.374,554.883 603.374,576.697 " style="fill:#005395;fill-opacity:1" />

	<g id="g3048" style="fill:#005395;fill-opacity:1">
		<path id="path3050" d="m 651.757,566.155 h 4.154 c 3.759,0 4.619,-0.707 4.619,-3.847 0,-1.281 -0.353,-3.005 -3.49,-3.005 h -5.283 v 6.852 z m 0,10.519 H 646.12 V 554.86 h 11.847 c 5.813,0 8.643,2.432 8.643,7.449 0,7.339 -5.127,8.288 -9.637,8.288 h -5.216 v 6.077 z" inkscape:connector-curvature="0" style="fill:#005395;fill-opacity:1" />

	</g>

	<path id="path3052" d="m 693.11,562.131 2.763,5.77 h -5.637 l 2.874,-5.77 z m -1.635,-7.248 -10.896,21.814 h 5.282 l 2.144,-4.354 h 9.989 l 2.058,4.354 h 6.212 l -10.456,-21.814 h -4.333 z" inkscape:connector-curvature="0" style="fill:#005395;fill-opacity:1" />

	<polygon id="polygon3054" points="726.685,576.697 726.685,562.287 739.372,576.697 744.057,576.697 744.057,554.883 739.436,554.883 739.436,568.21 727.679,554.883 722.063,554.883 722.063,576.697 " style="fill:#005395;fill-opacity:1" />

	<polygon id="polygon3056" points="769.452,576.697 775.155,576.697 775.155,568.763 785.366,554.883 779.753,554.883 773.033,563.834 766.557,554.883 759.594,554.883 769.452,568.695 " style="fill:#005395;fill-opacity:1" />

	<path id="path3058" d="m 540.294,16.355 c -12.422,-3.028 -26.06,-0.729 -25.684,-0.198 -1.325,-0.442 -3.868,-1.348 -5.303,-1.039 -0.2,0.022 -0.311,0.066 -0.465,0.133 0.265,0.133 0.574,0.265 0.861,0.375 -0.861,0.332 -1.236,-0.111 -1.967,-0.266 0.463,0.641 0.376,0.531 -0.022,1.194 0.022,0.088 0.067,0.176 0.133,0.287 1.989,0.464 3.933,1.239 6.741,0.929 v -0.155 c -0.597,-0.596 -1.967,-0.707 -2.675,-1.26 h -0.266 v -0.132 c 1.835,0.332 3.384,1.149 4.642,1.989 0.178,-0.155 0.354,-0.265 0.576,-0.375 -0.487,0.751 -0.994,0.951 -0.73,1.724 -3.005,-0.464 -5.216,-1.548 -6.389,1.768 0.333,0.287 0.664,0.553 0.995,0.84 -0.242,0.088 -0.485,0.155 -0.728,0.243 -0.046,0.266 -0.112,0.531 -0.156,0.818 1.194,1.105 1.878,1.681 3.383,2.254 0.065,0.553 0.153,1.172 0.242,1.769 0.354,0.31 0.354,0.244 0.863,0.155 0.64,0.619 0.198,1.083 0.529,1.481 0.817,1.06 3.934,2.607 4.619,3.558 0.243,0.288 0.045,0.906 0.574,1.238 1.105,0.752 2.41,1.194 3.383,2.056 0.354,0.198 0.088,0.022 0,0.375 2.211,1.038 5.614,0.951 7.47,2.078 0.375,0.375 0.177,0.133 0.155,0.663 1.923,0.53 3.847,1.061 5.791,1.591 0.111,-0.022 0.287,-0.066 0.396,-0.111 0.133,-0.508 0.091,-0.531 -0.109,-0.995 1.149,-0.641 1.437,-1.9 2.276,-2.785 -0.398,-0.729 -0.553,-0.795 -0.42,-1.813 1.591,-0.221 2.076,-1.083 3.405,-1.393 -0.156,-0.773 -0.067,-0.951 -0.709,-1.26 0.376,-0.287 0.287,-0.154 0.863,0.022 0.154,-0.133 0.264,-0.287 0.418,-0.42 -0.418,-0.353 -0.861,-0.751 -1.281,-1.126 h -0.266 v -0.155 c 0.753,0.222 1.547,0.354 2.389,0.222 0.109,-0.045 0.22,-0.066 0.309,-0.155 -0.199,-0.199 -0.376,-0.442 -0.574,-0.685 0.067,-0.066 0.109,-0.089 0.109,-0.133 1.105,0.596 1.769,0.64 3.405,0.663 0.11,-0.376 0.22,-0.707 0.286,-1.083 0.244,-0.022 0.466,-0.066 0.729,-0.089 -0.264,0.332 -0.485,0.685 -0.729,1.039 0.046,0.11 0.111,0.199 0.133,0.288 3.316,0.751 5.592,-0.531 8.754,-1.061 V 28.6 c 3.777,-1.083 9.173,1.216 12.863,0.928 1.086,-0.066 -13.503,-9.414 -28.819,-13.173" inkscape:connector-curvature="0" style="fill:#005395;fill-opacity:1" />

	<path id="path3060" d="m 373,327.647 c 1.68,2.784 3.228,6.607 5.395,8.862 4.574,4.686 12.067,7.228 14.94,13.239 1.392,1.371 2.74,2.72 4.111,4.045 -0.066,0.663 -0.154,1.281 -0.243,1.901 0.243,1.878 1.104,4.53 0.795,6.564 -0.11,0.905 -0.442,2.056 -0.375,3.072 0.154,0.597 0.309,1.236 0.442,1.878 -0.332,1.901 -1.127,3.891 -1.171,6.233 -0.575,0.243 -0.221,0.109 -0.995,0 -0.023,0.684 -0.066,1.369 -0.111,2.034 h 0.685 c -0.154,1.26 -0.331,2.541 -0.486,3.779 0.155,1.26 0.31,2.541 0.441,3.779 -0.176,0.508 -0.972,0.707 -1.104,1.458 0.11,0.464 0.221,0.994 0.309,1.416 -0.243,2.585 -0.729,4.817 -1.458,6.275 -0.773,1.591 0.021,3.116 -1.37,4.045 0.266,1.989 0.906,3.051 0.773,5.216 -0.553,0.178 -0.31,0.133 -0.995,0.133 -0.309,4.752 2.055,7.338 0.575,10.831 0.221,0.11 0.773,1.479 0.553,2.032 -1.128,3.117 -2.565,6.101 -2.83,9.771 -0.133,-0.089 -0.266,-0.199 -0.42,-0.287 0,0.618 0.022,1.26 0.022,1.878 -0.42,-0.154 -0.84,-0.309 -1.26,-0.441 -0.043,0.021 -0.088,0.089 -0.133,0.133 0.266,2.606 1.525,5.415 2.586,7.603 -0.11,3.006 -1.878,3.934 0.375,7.293 v 0.598 c -0.243,-0.154 -0.485,-0.287 -0.707,-0.465 -0.464,1.393 0.288,2.853 -0.11,4.442 0.486,0.597 1.039,0.729 1.856,1.017 0.11,-0.065 0.265,-0.109 0.397,-0.154 0.332,-1.502 0.155,-3.293 -0.597,-4.441 0.089,-0.089 0.2,-0.154 0.288,-0.266 0.309,0.154 0.664,0.266 0.973,0.42 h 0.132 c -0.065,-0.619 0.266,-0.509 -0.265,-0.553 0.088,-0.178 0.176,-0.376 0.265,-0.598 0.221,0.311 0.487,0.576 0.73,0.885 -0.155,0.177 -0.288,0.377 -0.464,0.575 0.707,0.464 1.061,2.056 0.198,2.408 0.244,0.222 0.465,0.398 0.708,0.575 -0.398,2.432 0.043,4.111 0.043,6.698 h -0.265 c -0.199,-0.774 -0.773,-2.919 -0.442,-3.118 -0.552,-0.729 -1.083,-1.214 -2.011,-1.592 -0.42,0.642 -0.685,1.614 -0.796,2.587 0.376,0.354 0.73,0.751 1.128,1.148 -0.043,0.664 -0.089,1.306 -0.133,1.991 h -0.972 v 0.131 c 0.155,0.243 0.287,0.553 0.419,0.84 -0.376,0.289 -0.751,0.598 -1.104,0.863 0,0.198 0,0.353 0,0.574 0.309,0.198 0.662,0.375 0.971,0.553 0.199,-0.178 0.376,-0.354 0.576,-0.574 0.641,0.574 1.922,0.772 2.52,1.437 -0.177,-0.067 -0.354,-0.09 -0.552,-0.133 0.198,0.441 0.154,0.243 0.419,0.553 -0.133,0.485 -0.265,0.927 -0.398,1.414 -0.508,-0.287 -0.575,-0.487 -1.415,-0.574 v 0.176 c 0.133,0.133 0.266,0.289 0.442,0.398 -0.265,0.154 -0.486,0.311 -0.707,0.441 0.751,1.371 0.928,3.471 1.856,4.687 0.664,0.31 1.304,0.662 1.968,1.017 -0.376,-0.155 -0.751,-0.242 -1.128,-0.31 v 0.133 c 0.155,0.553 0.267,1.149 0.421,1.701 0.243,0.09 0.485,0.2 0.707,0.288 0.199,-0.42 0.375,-0.84 0.574,-1.282 0.133,0.354 0.266,0.662 0.421,0.994 h -0.575 c -0.044,0.044 -0.089,0.09 -0.132,0.155 0.552,0.818 0.662,1.216 0.729,2.387 0.553,-0.177 1.106,-0.354 1.68,-0.553 0.354,0.331 0.266,0.376 0.84,0.553 l -0.288,0.576 c -0.464,-0.156 -0.929,-0.289 -1.393,-0.42 -0.066,0.087 -0.088,0.175 -0.131,0.264 0.485,0.905 1.238,1.46 2.121,1.99 -0.089,-0.178 -0.177,-0.399 -0.287,-0.574 0.817,0.662 1.568,1.325 2.387,1.987 v 0.134 c -0.752,-0.311 -1.482,-0.642 -2.255,-0.974 0.973,1.194 1.746,1.592 2.83,1.836 -0.043,0.353 0.044,0.044 -0.133,0.397 1.083,1.105 5.636,4.11 6.896,3.802 -0.045,0.574 0.043,0.154 -0.133,0.596 1.326,1.261 5.636,2.874 7.736,3.382 v -0.133 c -0.332,-0.353 -0.686,-0.662 -0.995,-0.971 1.526,0.485 2.499,0.065 3.515,0.971 v -0.574 c 0.641,0.089 1.304,0.199 1.967,0.266 h 0.133 c 0.043,-0.066 0.089,-0.177 0.132,-0.266 v -0.396 c -3.846,-0.487 -5.083,-3.825 -8.179,-4.687 0.155,-0.177 0.31,-0.376 0.443,-0.553 -0.883,-0.95 -2.033,-0.884 -2.807,-1.834 -0.11,-0.067 -0.199,-0.111 -0.287,-0.133 0.132,-0.111 0.287,-0.177 0.42,-0.266 0.707,0.266 1.415,0.553 2.077,0.796 v -0.11 c -1.104,-1.437 -2.917,-2.431 -3.116,-4.819 0.066,-0.089 0.11,-0.176 0.176,-0.287 0.641,-0.154 1.304,-0.242 1.945,-0.441 0.531,-0.398 0.354,-1.217 0.243,-2.255 0.906,-0.596 2.808,-0.994 3.515,-1.813 0.221,-0.332 0.221,-1.237 0.111,-2.145 -2.299,-1.523 -5.68,-1.987 -4.93,-5.392 1.062,-0.84 2.521,-1.128 3.914,-0.553 h 0.595 c -0.198,-0.553 0,-0.333 -0.441,-0.597 0.265,-0.598 0.397,-0.509 0.972,-0.686 0.111,-0.885 -0.176,-1.658 -0.419,-2.432 0.574,-0.862 1.083,-1.238 2.52,-1.304 -0.354,-0.662 -1.194,-0.796 -1.702,-1.26 -0.089,-0.044 -0.199,-0.111 -0.288,-0.154 0.331,-0.134 0.641,-0.31 0.972,-0.442 0.73,0.508 0.973,0.818 1.416,1.569 0.354,0.065 0.751,0.11 1.149,0.133 0.11,-0.133 0.265,-0.244 0.397,-0.42 0,-0.862 -0.066,-1.261 -0.42,-1.702 -0.111,-0.111 -0.199,-0.266 -0.287,-0.42 -0.53,0.044 -1.039,0.088 -1.547,0.154 0.243,0.177 0.463,0.375 0.685,0.553 v 0.133 c -0.309,-0.065 -0.642,-0.178 -0.973,-0.266 -0.421,-0.354 -0.442,-0.73 -1.393,-0.994 -0.486,-0.863 -0.509,-2.498 -0.884,-3.603 1.062,-1.282 3.471,1.37 4.951,1.745 1.105,-0.065 2.21,-0.109 3.338,-0.133 0.243,-0.553 0.464,-1.06 0.707,-1.612 -0.177,0.11 -0.377,0.198 -0.553,0.287 -0.199,-0.177 -0.398,-0.354 -0.575,-0.553 0.664,-0.973 1.635,-2.056 1.083,-3.427 0.199,0.089 0.398,0.178 0.576,0.311 h 0.133 c -0.089,-0.311 -0.178,-0.598 -0.288,-0.863 2.032,0.818 11.028,2.102 13.504,0.686 0.553,-0.287 2.697,-2.916 3.492,-3.536 0,-0.663 0,-1.37 0,-2.011 -1.193,-0.42 -1.768,-0.486 -1.856,-2.012 0.375,-0.31 0.729,-0.662 1.104,-1.017 -0.574,-2.498 -3.139,-2.763 -4.267,-4.729 0.2,-0.221 0.399,-0.464 0.576,-0.708 0.133,-0.065 0.264,-0.11 0.419,-0.176 0.375,0.618 0.775,0.796 0.995,1.612 0.884,0.178 1.769,0.354 2.675,0.598 0.796,0.529 1.769,2.209 2.829,2.409 0.84,0.176 1.482,-0.376 2.41,0 0.664,0.331 1.127,1.148 2.254,0.994 2.852,-0.31 3.359,-1.658 5.039,-2.829 0.995,-0.42 1.968,-0.861 2.962,-1.281 0.707,-0.952 1.458,-1.901 2.21,-2.852 1.879,-0.818 3.757,-1.635 5.613,-2.433 2.233,-1.48 3.404,-4.132 5.459,-5.725 2.587,-2.011 5.857,-2.363 6.875,-6.012 -0.199,-0.021 -0.398,-0.065 -0.597,-0.131 0.398,-1.416 0.486,-3.249 1.259,-5.195 0.597,-1.525 10.521,-6.541 13.084,-5.79 0.554,0.42 1.105,0.885 1.68,1.281 0.089,-0.309 0.222,-0.642 0.288,-0.949 -0.199,-0.067 -0.375,-0.112 -0.574,-0.199 v -0.133 c 1.259,-0.31 2.542,-2.211 3.801,-1.791 0.442,-0.441 0.464,-0.266 0,-0.729 v -0.42 c 2.674,-0.021 7.692,1.039 10.19,2.233 0.243,-0.377 0.22,-0.377 0.707,-0.553 -0.133,-2.232 2.541,-1.371 4.199,-2.146 1.083,-0.816 1.171,-3.447 2.809,-4.243 2.65,-1.325 2.52,-2.165 4.374,-3.403 0.817,-0.509 1.593,-0.465 2.1,-1.26 1.901,-3.05 0.619,-4.419 4.51,-5.835 0.642,-2.1 1.149,-3.758 2.365,-5.282 0.618,-0.686 1.236,-1.393 1.834,-2.101 0.664,-1.878 0.242,-3.448 0.973,-5.128 0.774,-1.855 2.387,-3.049 2.542,-5.415 1.725,-0.905 3.25,-0.597 4.93,-1.789 2.408,-2.078 4.795,-4.201 7.206,-6.301 0.84,-0.175 1.7,-0.331 2.54,-0.507 1.083,-0.84 2.166,-1.68 3.25,-2.542 3.889,-2.52 7.071,-4.729 8.597,-9.637 0.023,-0.95 0.089,-1.901 0.133,-2.874 0.42,-1.79 2.52,-13.416 2.497,-13.416 C 453.851,326.32 373,327.647 373,327.647 M 469.897,23.208 c 1.768,0.243 4.111,0.509 6.056,1.37 1.968,0.884 2.454,2.144 4.575,2.476 -0.463,0.332 -0.729,0.132 -1.414,-0.022 0.508,0.862 1.038,1.326 2.254,1.48 -0.198,0.11 -0.376,0.199 -0.573,0.288 0.552,0.509 0.906,0.906 1.68,1.238 h 0.574 c -0.176,-0.575 -0.066,-0.42 -0.53,-0.708 v -0.11 c 4.068,1.326 7.802,4.199 12.488,4.928 0.221,-0.618 -0.088,-0.287 0.574,-0.397 v -0.132 c -1.371,-1.834 -4.619,-3.801 -6.851,-4.729 -0.066,-0.155 -0.089,-0.354 -0.133,-0.531 0.883,0.464 1.768,0.928 2.652,1.414 V 29.22 c 2.542,1.48 5.459,3.293 8.001,4.752 0.243,-0.044 0.486,-0.088 0.707,-0.11 h 0.266 c 0,-0.022 0.021,-0.089 0.021,-0.133 -0.906,-0.596 -1.37,-0.507 -1.967,-1.415 0.399,0.177 0.752,0.31 1.15,0.442 0.044,0.023 0.089,0.023 0.154,0.023 0.023,-0.508 -0.088,-0.597 -0.44,-1.083 0.043,-0.088 0.11,-0.199 0.154,-0.265 0.332,0.221 0.243,0.132 0.419,0.508 0.863,-0.066 0.597,-0.155 0.995,-0.641 0.222,0.553 0.243,0.553 0.686,0.84 h 0.154 c -0.088,-0.199 -0.198,-0.375 -0.288,-0.531 h 0.995 c 0,-0.111 0,-0.176 0.023,-0.287 -0.84,-0.508 -1.547,-1.083 -2.674,-1.415 -0.066,-0.088 -0.088,-0.176 -0.154,-0.265 0.287,-0.022 0.574,-0.066 0.861,-0.088 v -0.154 c -0.773,-0.664 -3.271,-2.653 -5.061,-2.387 0.043,-0.818 -0.397,-1.901 -1.371,-2.167 h 1.128 c 0.066,-0.11 0.088,-0.177 0.155,-0.287 -0.178,-0.177 -0.376,-0.354 -0.576,-0.531 1.857,0.154 3.471,1.613 5.084,1.702 -0.575,1.835 3.05,2.365 4.31,3.359 0.95,-0.132 0.884,-0.442 1.57,-0.531 -0.133,-0.088 -0.266,-0.198 -0.398,-0.287 0.199,-0.42 0.066,-0.243 0.42,-0.508 0.729,0.287 1.415,0.553 2.1,0.177 v 0.53 c 0.354,0.022 0.664,0.022 0.994,0.022 -0.131,-0.176 -0.285,-0.375 -0.418,-0.552 0.441,-0.222 0.042,-0.089 0.551,0.022 0.178,-0.044 0.311,-0.088 0.443,-0.111 -0.178,-0.287 -0.354,-0.575 -0.576,-0.839 1.283,0.309 1.792,0.265 2.83,0.044 -0.353,-1.172 -1.923,-1.657 -3.336,-1.57 -0.2,-0.354 0.088,-0.176 0.397,-0.354 -0.464,-0.022 -0.928,-0.066 -1.392,-0.066 -0.487,-0.221 -0.863,-1.083 -2.387,-1.127 0.287,-0.288 0.044,-0.155 0.575,-0.266 -0.486,-0.463 -1.813,-1.171 -2.674,-1.127 -0.089,-0.087 -0.177,-0.176 -0.265,-0.265 0.176,-0.089 0.375,-0.177 0.553,-0.244 -1.482,-0.309 -1.857,-0.729 -2.83,-0.221 -0.863,-0.663 -0.773,-1.083 -2.231,-1.238 0.11,-0.132 0.198,-0.264 0.286,-0.398 -1.126,-0.287 -2.232,-0.574 -3.359,-0.839 v -0.155 c 0.266,-0.066 0.553,-0.11 0.863,-0.133 0.021,-0.508 0.065,-0.354 -0.155,-0.773 1.06,0.265 2.077,0.553 3.116,0.796 0.089,-0.067 0.177,-0.154 0.266,-0.243 -0.619,-0.641 -1.57,-0.995 -2.52,-0.973 0.043,-0.111 0.11,-0.244 0.133,-0.397 0.531,0.154 1.06,0.287 1.547,0.397 0.066,-0.022 0.11,-0.066 0.154,-0.088 v -0.42 c -1.238,-0.929 -1.525,-0.951 -3.492,-0.862 0.442,-0.574 0.597,-0.42 1.415,-0.509 0,-0.044 0,-0.065 0.022,-0.132 -1.459,-1.062 -3.581,-0.553 -5.062,-1.393 -0.022,0 -1.304,-1.503 -1.525,-1.614 -1.061,-0.596 -4.642,-1.348 -5.327,-1.37 0.111,-0.133 0.199,-0.266 0.309,-0.398 -1.371,-0.619 -2.718,-1.061 -4.199,-1.746 h 1.149 V 9.195 c -0.685,-1.039 -7.05,1.613 -8.266,3.205 -0.419,-0.244 2.631,2.365 1.791,2.209 -0.089,0.133 -0.199,0.266 -0.288,0.376 h -0.287 c 0.397,0.686 3.359,0.53 4.066,0.553 0.045,0.111 0.089,0.177 0.155,0.288 -0.553,0.265 -0.707,-0.177 -1.436,-0.022 h -0.266 c 0.397,0.994 1.282,0.773 2.231,0.42 0.134,0.354 0.267,0.707 0.443,1.083 -0.641,-0.265 -0.995,-0.265 -1.834,-0.287 0.288,0.951 1.989,1.127 3.183,1.238 0.043,-0.199 0.11,-0.398 0.155,-0.553 -0.464,-0.089 -0.952,-0.199 -1.393,-0.265 0.065,-0.288 0.11,-0.553 0.155,-0.817 0.84,0.287 1.238,0.773 2.364,0.972 0.245,0.686 0.465,1.415 0.664,2.101 -2.21,0.265 -4.421,0.531 -6.653,0.751 -0.043,0.089 -0.087,0.177 -0.133,0.265 0.443,0.464 0.929,0.906 1.371,1.371 v 0.133 c -1.547,-0.464 -3.227,-0.089 -4.664,-0.309 -3.072,-0.531 -5.392,-2.145 -8.464,-0.311 0.065,0.133 0.131,0.222 0.154,0.398 0.879,1.59 3.553,0.97 5.321,1.214 m -92.609,99.306 c 1.017,0.84 4.023,-0.884 5.482,-0.884 0.641,0.862 1.989,4.243 2.784,4.398 1.149,2.652 -2.077,4.001 -1.746,6.034 0.089,0.066 0.177,0.089 0.266,0.133 0.574,-0.487 0.485,-0.464 0.331,-1.106 0.088,-0.088 0.177,-0.11 0.266,-0.154 0.265,0.751 -0.066,0.596 0.707,0.663 -0.531,0.397 -1.061,0.795 -1.57,1.194 -0.243,0.574 0.133,1.945 0.266,3.182 0.221,0.133 0.464,0.222 0.707,0.31 0.089,-0.176 0.176,-0.42 0.266,-0.596 0.043,0.11 0.088,0.176 0.155,0.287 -0.554,0.686 -0.597,0.995 -1.018,1.702 0.354,0.066 0.221,0 0.597,-0.155 0.31,0.509 0.464,0.796 0.266,1.548 0.065,2.166 2.299,2.166 1.26,4.443 0.773,1.171 3.292,0.42 3.911,0.486 0,-1.746 2.232,-3.559 2.984,-5.283 0.973,-2.166 0.045,-5.172 0.045,-7.869 0.265,-0.088 0.574,-0.198 0.862,-0.309 -0.31,-1.968 -0.664,-4.001 -0.95,-6.013 0.707,-7.647 6.829,-9.526 12.952,-11.36 2.874,-0.862 1.79,-3.338 7.095,-2.277 1.325,-2.497 5.768,-2.033 8.376,-2.652 0.066,-0.111 0.111,-0.221 0.155,-0.287 -0.553,-0.376 -0.42,-0.177 -0.707,-0.84 v -0.154 c 0.707,-0.464 2.851,-0.818 3.69,-0.796 0.287,-0.42 0.509,-0.774 0.73,-1.105 -0.443,-0.729 -1.459,-1.083 -2.564,-1.127 v -0.177 c 0.929,0.177 1.813,0.309 2.719,0.442 0,0.375 0,0.73 0,1.127 0.089,-0.066 0.398,-2.961 0.486,-4.442 -0.31,-0.089 -0.596,-0.199 -0.862,-0.266 -0.419,-0.31 -0.089,-0.11 -0.133,-0.707 -0.043,-0.575 0.995,-2.011 1.458,-2.63 -0.419,-0.332 -0.043,-2.608 0.023,-3.315 0.686,-0.575 1.348,-1.171 2.011,-1.769 -1.613,2.277 -0.795,2.277 -1.325,4.951 0.419,0.132 0.84,0.265 1.259,0.442 -0.818,0.685 -1.658,1.016 -2.144,2.077 -0.066,0.067 -0.11,0.155 -0.133,0.244 0.266,0.221 0.155,0.199 0.708,0.287 0.795,-1.702 4.11,-2.851 5.592,-5.239 -0.906,-0.927 -0.53,-1.48 -0.818,-2.74 0.641,0.596 0.906,1.104 1.968,1.37 -0.178,0.243 -0.398,0.464 -0.575,0.707 V 94.4 c 2.188,0.309 5.15,-2.542 6.167,-4.067 -0.177,-0.552 0,-0.265 -0.421,-0.575 -0.043,-0.11 -0.088,-0.176 -0.131,-0.287 2.541,-0.309 6.188,0.442 8.973,0.133 -0.243,-0.288 -0.486,-0.553 -0.707,-0.862 -2.144,0.309 -4.045,-0.553 -6.145,-0.066 2.52,-1.989 10.189,0.795 13.571,-0.486 0.376,0.906 1.171,0.84 2.83,0.906 0.176,-0.287 0.375,-0.553 0.573,-0.84 -0.131,-0.199 -0.264,-0.464 -0.419,-0.685 -0.332,0.751 -0.044,0.796 -0.861,0.796 -0.376,-0.022 -0.774,-0.111 -1.15,-0.155 -0.199,-0.862 0.11,-1.989 -1.415,-2.254 v -0.265 c 0.707,-0.177 1.371,-0.332 2.055,-0.486 -0.199,-0.309 -0.397,-0.553 -0.574,-0.84 0.972,-1.193 2.961,-1.813 3.868,-2.697 2.231,0.442 3.668,0.398 5.857,-0.817 0.353,0.397 0.286,0.287 0.286,0.817 2.741,-0.198 5.372,0.022 8.267,-0.751 -0.133,-0.287 -0.266,-0.553 -0.398,-0.84 0.332,-0.022 1.792,0.507 2.254,0.618 2.167,0.442 6.365,0 8.179,-0.596 0.066,0.066 0.154,0.176 0.243,0.287 -0.663,0.177 -1.326,0.332 -1.989,0.486 -0.044,0.066 -0.088,0.177 -0.133,0.265 0.752,0.155 1.526,0.354 2.256,0.508 -2.719,0.42 -5.416,0.862 -8.135,1.26 -0.043,0.088 -0.088,0.177 -0.132,0.266 0.309,-0.088 0.641,-0.155 0.995,-0.244 -0.2,0.089 -0.399,0.155 -0.576,0.244 -0.685,0.862 -0.883,0.884 -0.883,2.342 0.265,0 0.574,0 0.84,0.022 0.574,0.773 0.221,1.26 1.281,1.282 1.968,0.089 3.824,-1.193 6.035,-1.326 0.266,-0.596 0,-0.685 0.685,-0.928 0.133,0.133 0.199,0.266 0.309,0.398 0.178,-0.155 0.375,-0.354 0.553,-0.531 0.199,0.906 0.62,0.906 1.437,1.149 1.194,-1.238 8.775,0.331 11.006,-0.287 0.088,0.022 0.178,0.022 0.288,0.022 -0.442,-0.464 -0.818,-0.597 -1.725,-0.619 0.376,-0.243 0.464,-0.133 0.708,-0.553 1.769,0.619 3.646,0.244 5.99,0.266 v -0.442 c 0.133,-0.818 -1.15,-1.526 -2.1,-1.592 v -0.154 c 0.375,-0.442 0.773,-0.906 1.149,-1.349 -0.332,-0.486 -0.287,-0.221 -0.287,-0.817 -0.266,-0.089 -0.576,-0.133 -0.862,-0.2 -1.415,0.729 -4.62,1.459 -4.73,3.448 -0.995,0.133 -1.503,0.088 -1.569,-1.061 -3.249,0.354 -4.553,-1.304 -7.25,-1.613 -0.198,-0.244 -0.397,-0.486 -0.574,-0.708 0.199,0 0.376,0 0.574,0.022 0.066,-0.111 0.089,-0.221 0.155,-0.287 -0.862,-0.332 -1.724,-0.686 -2.564,-1.039 -0.442,-0.287 -0.906,-1.613 -1.26,-2.277 0.221,-0.155 0.463,-0.332 0.708,-0.509 -0.376,-0.353 -0.774,-0.441 -1.549,-0.463 v -0.266 c 1.504,-0.22 2.189,-1.016 3.581,-1.547 0.088,-0.199 0.2,-0.354 0.288,-0.53 v -0.155 c -1.48,0.442 -2.719,0.177 -4.839,0.155 -0.288,-1.017 -1.018,-1.393 -2.144,-1.591 -0.045,-0.088 -0.089,-0.177 -0.155,-0.288 1.944,0.2 2.629,1.017 4.288,1.216 1.48,-0.176 2.939,-0.354 4.443,-0.552 0,-0.133 0,-0.288 0,-0.397 0.442,-0.31 0.043,-0.332 -0.155,-0.84 0.222,0.065 0.398,0.132 0.574,0.154 v -0.132 c -3.469,-4.664 -15.648,-3.006 -20.93,-2.078 -2.079,0.397 -3.559,2.365 -6.433,2.365 1.238,-1.171 8.708,-3.979 11.052,-4.708 0,0 4.686,0.354 4.973,0.287 0.419,-0.464 0.861,-0.928 1.282,-1.37 1.945,-1.016 4.773,-0.619 7.294,0.044 3.293,0.929 6.365,1.26 9.615,2.388 2.032,0.685 8.155,3.182 10.255,2.829 1.613,-0.221 3.094,-0.751 4.575,-1.371 3.447,-1.392 10.322,2.166 12.688,-0.442 0.176,-0.486 0.11,-0.044 -0.154,-0.685 0.087,0.044 0.176,0.11 0.285,0.155 0.422,-0.686 -0.021,-2.962 0.466,-3.714 -0.818,-0.309 -1.637,-0.64 -2.409,-0.928 0.021,-0.398 0,-0.088 0.133,-0.553 -1.458,-0.11 -1.569,-0.463 -2.542,-0.42 -0.287,-1.613 -1.79,-2.232 -3.537,-2.453 v -0.155 c 1.237,0.155 2.452,0.288 3.692,0.42 -0.664,-0.95 -2.234,-1.061 -2.409,-2.011 -1.172,-0.265 -2.19,-0.066 -3.14,-0.685 -0.509,-0.333 -0.376,-0.376 -0.397,-0.84 -0.597,-0.42 -2.144,-0.288 -2.696,-0.774 -0.642,-0.552 -0.751,-1.061 -1.703,-1.458 -0.175,-0.597 -0.352,-0.221 0.154,-0.663 -0.109,-0.287 -2.607,-2.1 -3.668,-2.298 0.399,-0.398 0.222,-0.244 0.709,-0.288 0.11,-0.31 0.064,-1.105 0.154,-2.166 -0.309,-0.133 -0.641,-0.31 -0.995,-0.442 -0.088,-0.044 0.31,-0.751 0.31,-1.657 -1.261,-0.509 -2.675,-0.995 -2.521,-2.52 h -0.708 c -0.84,-1.304 -4.088,-5.438 -4.022,-6.764 -3.471,0.929 -7.913,6.477 -12.644,2.697 -0.795,0.066 -1.348,-1.149 -2.806,-1.436 -0.089,-0.398 -0.112,-0.774 -0.155,-1.194 -0.309,-0.067 -0.641,-0.11 -0.973,-0.155 0.421,-1.171 0.862,-1.325 0.751,-2.851 0.53,-0.177 1.061,-0.376 1.569,-0.641 -0.132,-0.199 -0.243,-0.442 -0.398,-0.642 -0.442,0.155 -0.883,0.332 -1.282,0.486 -0.929,-1.039 -2.984,-1.459 -4.664,-1.923 -0.022,-0.11 -0.088,-0.198 -0.11,-0.265 v -0.155 c 0.287,-0.243 0.199,-0.198 0.707,-0.265 v -0.133 c -1.083,-0.973 -3.36,-2.675 -4.73,-3.117 -1.193,0.022 -2.365,0.044 -3.536,0.066 -2.962,-0.994 -5.702,-2.144 -8.708,-2.033 -0.288,0.265 -0.574,0.531 -0.862,0.795 -0.066,0.177 -0.11,0.332 -0.155,0.531 0.244,0.354 0.2,0.354 0.686,0.531 -0.597,0.795 -1.371,1.104 -2.586,1.326 1.127,1.304 0.331,1.436 0.95,2.277 -0.441,0.463 -3.823,1.79 -5.149,1.833 -0.154,0.244 -0.287,0.509 -0.442,0.773 1.813,0.597 3.338,1.923 3.426,4.178 -1.501,3.249 -4.928,3.801 -8.995,4.486 -1.482,0.067 -2.919,0.089 -4.399,0.133 h -0.264 c 0.11,0.619 -0.067,1.437 0.794,1.724 -0.773,1.459 -2.32,3.183 -1.282,4.841 -0.729,0.575 -1.769,1.326 -2.718,1.326 0,0.397 0,0.817 -0.023,1.215 -0.176,0.022 -0.353,0.066 -0.553,0.155 -0.043,-0.53 -0.309,-0.464 -0.552,-1.127 -1.149,0.155 -1.792,0.641 -2.542,1.127 -0.509,-0.265 -0.951,-0.464 -1.415,-0.686 -0.464,-2.232 -1.901,-3.558 -2.851,-5.614 0.728,-0.685 1.347,-1.193 1.901,-2.033 -0.023,-0.354 -0.088,-0.707 -0.133,-1.062 0.818,-0.839 1.701,-1.193 2.32,-2.298 -2.896,-0.221 -11.316,-2.807 -12.996,-4.443 -0.597,-0.531 -0.729,-1.813 -1.614,-2.475 -1.304,-0.597 -2.607,-1.194 -3.89,-1.813 -1.458,0.022 -2.917,0.066 -4.375,0.088 h -0.288 c 1.039,-1.061 1.68,-2.608 2.52,-3.846 -0.729,-0.376 -1.746,-0.42 -2.939,-0.376 0,-0.198 0,-0.397 0.021,-0.64 2.763,-3.206 11.648,-6.476 15.428,-6.255 -0.176,-0.177 -0.397,-0.398 -0.553,-0.619 1.372,0.11 2.873,0.287 4.355,0.089 0.508,-0.708 0.44,-0.708 -0.089,-1.326 h -0.287 V 18.81 c 2.188,0.663 9.614,0.552 12.997,-1.172 0.464,-0.31 0.155,-0.132 0,-0.508 1.481,-0.332 2.961,-0.641 4.421,-0.973 h 0.264 c 0,-0.022 0.022,-0.066 0.022,-0.133 -0.286,-0.221 -0.442,-0.287 -0.995,-0.354 -0.021,-0.066 -0.087,-0.177 -0.11,-0.265 0.973,0.088 1.968,0.154 2.939,0.243 0,0.729 2.078,2.055 3.028,2.343 0.309,-0.31 0.066,-0.044 0.176,-0.376 0.045,-0.065 0.088,-0.11 0.133,-0.132 -0.375,0.022 -0.176,-0.022 -0.596,0.132 -0.222,-0.552 -0.31,-0.596 -0.929,-1.038 v -0.133 c 0.464,0.199 0.929,0.42 1.392,0.641 -0.043,-0.376 -0.088,-0.796 -0.11,-1.171 0.553,0.375 1.104,0.773 1.657,1.149 v -0.375 c 2.41,-0.597 4.664,-0.531 6.498,-1.039 -0.331,-0.42 -0.729,-0.796 -1.083,-1.193 0.111,-0.089 -13.15,-7.382 -28.601,-7.162 -9.946,0.199 -45.797,12.465 -74.087,26.744 -21.616,10.962 -38.259,24.6 -39.254,25.572 -8.642,7.515 -16.93,16.709 -21.284,27.96 -0.531,0.552 -0.995,1.127 -1.503,1.723 -0.375,0.73 -2.851,7.206 -2.874,7.493 0.42,0.022 0.817,0.066 1.215,0.111 -0.265,1.901 0.885,1.922 0.397,4.31 -0.773,3.359 -3.16,7.471 -4.243,11.184 -0.199,0.774 -0.994,2.652 -0.773,3.647 0.244,1.26 0.729,2.961 0.244,4.598 -0.553,0.905 -1.062,1.834 -1.592,2.762 -0.664,0 -0.907,0.177 -1.613,-0.044 -0.045,0 -0.089,0.044 -0.133,0.044 -0.198,1.901 0.509,3.028 0.399,4.686 0.397,-0.022 0.265,0 0.641,-0.221 1.149,2.917 0.597,6.166 -1.592,8.267 0.641,2.762 2.101,4.31 1.57,8.576 v 0.133 c 0.111,0.044 0.199,0.066 0.287,0.087 2.52,-2.629 1.879,-2.298 2.122,-5.658 -0.066,-0.309 -0.176,-0.64 -0.265,-0.927 -0.244,0.243 -0.442,0.507 -0.642,0.773 -0.066,0.044 -0.11,0.066 -0.155,0.066 -0.353,-2.21 1.857,-7.626 2.299,-9.924 0.288,-1.481 -0.531,-4.089 -0.132,-5.858 0.95,-4.177 1.414,-13.217 4.884,-15.848 0.155,0.31 0.354,0.619 0.531,0.906 0.177,-0.088 0.332,-0.199 0.531,-0.354 0.73,2.476 -2.299,6.123 -1.923,9.372 -0.773,0.574 -1.128,0.95 -1.591,1.79 0.111,0.088 0.244,0.221 0.399,0.354 0.243,-0.266 0.529,-0.575 0.794,-0.817 -0.021,0.817 -0.442,3.47 0.354,4.288 0.243,0.332 0,0.154 0.441,0.066 0.089,0.088 0.178,0.154 0.245,0.265 -0.443,0.928 -0.818,1.436 -0.796,2.895 0.266,0.244 0.154,0.244 0.664,0.31 -0.133,0.596 -0.267,1.171 -0.398,1.745 0.22,-0.043 0.441,-0.065 0.662,-0.088 0,1.878 -0.729,2.453 -1.613,3.735 0.243,1.702 0.995,2.144 1.725,3.403 -0.531,0.575 -0.508,0.929 -0.664,1.791 1.349,1.813 3.072,14.234 0.509,16.069 -0.619,0.883 -0.642,0.707 -0.287,1.547 -0.443,0.618 -0.707,0.574 -1.326,0.773 -1.968,4.774 2.276,6.034 2.387,9.924 0.288,0.155 0.597,0.42 0.928,0.641 0,0 15.693,-0.553 25.02,-0.752 0.354,-0.021 -0.685,-0.354 -1.149,-0.729 -0.398,-0.354 -2.232,-9.88 -1.901,-11.206 0.354,-0.508 0.664,-0.995 0.973,-1.525 -1.392,-2.961 0.707,-6.056 1.922,-8.752 0.951,-2.32 1.946,-4.664 2.874,-7.006 0.907,-1.128 2.63,-0.818 3.182,-2.808 0.333,-1.348 -0.265,-2.563 0.421,-4.266 0.619,-1.546 2.299,-2.012 2.188,-3.979 0.906,0.111 2.476,-0.597 2.631,-1.37 0.155,-0.222 0.288,-0.464 0.442,-0.729 0.022,0.575 0.043,0.376 -0.154,0.862 0.685,-0.332 0.419,-0.42 0.817,-0.354 0.199,-0.243 0.375,-0.508 0.575,-0.751 -0.155,-0.198 -0.288,-0.42 -0.421,-0.618 2.432,0.221 4.223,-0.73 6.322,-1.945 1.283,0.331 0.819,-0.619 0.707,-1.325 0.31,-0.377 0.642,-0.509 1.128,-0.797 0.022,0.089 0.066,0.133 0.11,0.177 -0.176,0.199 -0.375,0.398 -0.529,0.574 0.154,0.088 0.353,0.155 0.529,0.266 0.597,0.464 2.83,-0.729 4.156,-0.597 1.304,0.133 4.111,1.217 5.106,1.746 0.132,-0.022 0.265,-0.022 0.419,-0.022 v -0.552 c -0.331,-0.044 -0.641,-0.066 -0.973,-0.089 -0.043,-0.133 -0.088,-0.266 -0.154,-0.42 0.398,-0.11 0.751,-0.221 1.149,-0.354 0.112,0.508 0.906,1.327 1.349,1.856 -0.088,0.044 -0.177,0.111 -0.264,0.155 -0.089,0.154 -0.199,0.309 -0.266,0.464 0.442,0.309 0.884,0.685 1.349,1.017 0.662,-0.266 1.304,-0.553 1.966,-0.797 0.066,0.31 0.155,0.642 0.245,0.951 0.972,-0.265 1.06,-0.795 1.68,-1.348 0.574,0.597 1.016,1.459 1.79,1.834 0.133,0.066 0.287,0.177 0.419,0.265 h 0.177 c 0.177,-0.243 0.354,-0.508 0.531,-0.751 -0.464,-0.42 -0.927,-0.862 -1.348,-1.304 -0.11,-0.066 -0.199,-0.177 -0.309,-0.265 0.397,-0.508 0.73,-0.642 1.546,-0.795 0.243,-0.486 0.177,-0.486 0.154,-1.261 -0.375,0.222 -0.773,0.42 -1.126,0.642 h -0.133 c -0.089,-0.155 -0.176,-0.243 -0.288,-0.42 2.166,-1.371 4.73,-1.04 6.984,-0.597 0.133,-0.376 0.266,-0.685 0.42,-1.016 0.155,-0.089 0.288,-0.177 0.443,-0.31 -0.045,0.597 -0.045,1.238 -0.045,1.813 3.16,0.375 5.482,-0.862 7.824,1.614 0.569,0.619 0.548,1.658 0.812,1.923" inkscape:connector-curvature="0" style="fill:#005395;fill-opacity:1" />

	<path id="path3062" d="m 473.19,15.915 c -0.641,0.221 -1.238,0.441 -1.856,0.641 -0.067,0.243 -0.11,0.464 -0.155,0.685 v 0.133 c 0.995,0.509 4,1.149 5.349,0.42 0.288,-0.265 0.575,-0.508 0.84,-0.795 v -0.42 c -1.325,-0.311 -2.343,-0.664 -4.178,-0.664" inkscape:connector-curvature="0" style="fill:#005395;fill-opacity:1" />

	<path id="path3064" d="m 480.64,16.355 c 0.243,0.288 0,0.111 0.398,0.288 -0.133,-0.11 -0.266,-0.177 -0.398,-0.288" inkscape:connector-curvature="0" style="fill:#005395;fill-opacity:1" />

	<path id="path3066" d="m 457.498,21.925 c -0.686,-0.353 -1.613,-0.574 -2.498,-0.485 0.155,-0.354 0.288,-0.73 0.442,-1.062 -1.104,-0.707 -3.315,-1.348 -4.022,-2.387 -0.508,-0.486 0.043,-1.15 -0.796,-1.547 -0.11,0.133 -0.197,0.265 -0.287,0.397 -2.585,-0.265 -5.525,1.04 -6.299,2.763 -1.326,-0.022 -2.542,-0.022 -3.227,0.531 0.728,0.552 2.674,0.375 3.646,0.398 -0.2,0.132 -0.399,0.265 -0.597,0.397 -0.133,0.265 -0.288,0.531 -0.42,0.796 2.055,0.375 5.372,-0.222 6.786,-1.083 0.795,0.221 1.57,0.442 2.365,0.664 -0.221,0.066 -0.464,0.155 -0.707,0.266 1.326,1.127 3.646,1.149 6.189,1.061 -0.178,-0.244 -0.354,-0.443 -0.575,-0.709" inkscape:connector-curvature="0" style="fill:#005395;fill-opacity:1" />

	<path id="path3068" d="m 450.47,17.638 c -0.155,-0.132 -0.288,-0.265 -0.442,-0.42 -0.088,0.288 -0.177,0.553 -0.287,0.774 0.332,-0.11 0.663,-0.221 0.995,-0.354 h -0.266 z" inkscape:connector-curvature="0" style="fill:#005395;fill-opacity:1" />

	<path id="path3070" d="m 488,22.302 c 0.508,-0.31 0.375,0.044 0.287,-0.508 -1.767,-0.066 -1.458,-0.818 -2.807,-1.106 -0.309,0.2 -0.664,0.354 -0.994,0.509 0.243,0.597 0.243,0.664 -0.022,1.172 1.834,-0.066 2.409,0.065 4.088,0.376 -0.177,-0.134 -0.376,-0.267 -0.552,-0.443" inkscape:connector-curvature="0" style="fill:#005395;fill-opacity:1" />

	<path id="path3072" d="m 500.001,21.174 c -0.044,0.067 -0.088,0.155 -0.133,0.222 h 0.266 c -0.044,-0.067 -0.067,-0.155 -0.133,-0.222" inkscape:connector-curvature="0" style="fill:#005395;fill-opacity:1" />

	<path id="path3074" d="m 488.861,22.213 c 0.222,0.265 0,0.066 0.421,0.265 -0.156,-0.088 -0.288,-0.198 -0.421,-0.265" inkscape:connector-curvature="0" style="fill:#005395;fill-opacity:1" />

	<path id="path3076" d="m 448.193,22.766 c -0.773,0.243 -1.547,0.442 -2.276,0.641 0.022,0.31 0.043,0.619 0.088,0.928 2.144,-0.222 4.111,-0.088 5.967,-0.642 0.043,-0.065 0.088,-0.154 0.133,-0.287 -1.281,-0.22 -2.608,-0.442 -3.912,-0.64" inkscape:connector-curvature="0" style="fill:#005395;fill-opacity:1" />

	<path id="path3078" d="m 464.129,22.898 v 0.399 c 0.288,0.021 0.64,0.021 0.995,0.021 v -0.132 c -0.354,-0.111 -0.664,-0.177 -0.995,-0.288" inkscape:connector-curvature="0" style="fill:#005395;fill-opacity:1" />

	<path id="path3080" d="m 484.685,25.108 c -0.354,-0.818 -1.394,-1.282 -2.343,-1.524 0.021,0.309 0.067,0.64 0.088,0.928 h -1.259 c 0.021,0.087 0.11,0.176 0.155,0.265 1.392,0.176 2.541,0.354 3.624,0.729 -0.089,-0.133 -0.178,-0.265 -0.265,-0.398" inkscape:connector-curvature="0" style="fill:#005395;fill-opacity:1" />

	<path id="path3082" d="m 461.697,23.693 c -0.044,0.111 -0.11,0.177 -0.154,0.266 0.331,0.265 0.64,0.531 0.973,0.795 0.442,0.044 0.861,0.066 1.282,0.133 0.043,-0.066 0.088,-0.088 0.132,-0.133 0,-0.111 0,-0.265 0.023,-0.42 -0.752,-0.197 -1.503,-0.441 -2.256,-0.641" inkscape:connector-curvature="0" style="fill:#005395;fill-opacity:1" />

	<path id="path3084" d="m 466.207,24.113 c -0.464,-0.11 -0.95,-0.176 -1.393,-0.265 0.244,0.597 0.619,0.708 1.105,1.062 h 0.553 c 0.044,-0.067 0.11,-0.155 0.133,-0.266 -0.133,-0.198 -0.244,-0.375 -0.398,-0.531" inkscape:connector-curvature="0" style="fill:#005395;fill-opacity:1" />

	<path id="path3086" d="m 456.018,25.286 c -0.464,0.155 -0.952,0.309 -1.416,0.486 -0.11,0.221 -0.199,0.375 -0.31,0.552 0.155,0.199 0.266,0.442 0.398,0.686 1.061,0.155 1.614,-0.442 2.564,-0.664 0.154,-0.176 0.309,-0.354 0.442,-0.574 -0.486,-0.266 -0.795,-0.464 -1.678,-0.486" inkscape:connector-curvature="0" style="fill:#005395;fill-opacity:1" />

	<path id="path3088" d="m 477.457,26.059 c -0.022,0.111 -0.022,0.176 -0.022,0.287 0.155,-0.044 0.309,-0.111 0.464,-0.132 v -0.133 c -0.133,0 -0.31,0 -0.442,-0.022" inkscape:connector-curvature="0" style="fill:#005395;fill-opacity:1" />

	<path id="path3090" d="m 470.937,27.097 c 0.288,0.399 0.641,0.465 1.127,0.642 h 0.552 c -0.353,-0.332 -1.039,-0.531 -1.679,-0.642" inkscape:connector-curvature="0" style="fill:#005395;fill-opacity:1" />

	<path id="path3092" d="m 540.735,30.258 c 0.222,0.288 0,0.066 0.443,0.288 -0.265,-0.288 10e-4,-0.11 -0.443,-0.288" inkscape:connector-curvature="0" style="fill:#005395;fill-opacity:1" />

	<path id="path3094" d="m 456.615,29.264 c 0.11,0.088 0.177,0.154 0.264,0.265 h 0.84 c 0,-0.066 0.022,-0.11 0.022,-0.155 -0.376,-0.022 -0.729,-0.088 -1.126,-0.11" inkscape:connector-curvature="0" style="fill:#005395;fill-opacity:1" />

	<path id="path3096" d="m 594.887,39.895 c -1.105,0.309 -1.591,-0.398 -2.542,-0.973 -0.243,0.022 -0.485,0.066 -0.729,0.088 0.176,0.133 0.309,0.288 0.463,0.442 -1.568,0.331 -3.47,-0.707 -5.082,-1.105 -0.067,0.044 -0.088,0.111 -0.133,0.133 0.065,0.176 0.154,0.42 0.265,0.596 -0.685,-0.53 -1.237,-1.039 -2.254,-1.237 v 0.154 c 0.31,0.266 0.553,0.553 0.84,0.863 v 0.132 c -0.752,-0.243 -0.619,-0.354 -1.127,0.111 -1.614,-1.349 -2.918,-3.072 -5.637,-3.382 0.265,0.243 0.465,0.486 0.729,0.751 -0.396,-0.154 -0.751,-0.354 -1.171,-0.464 -0.353,0.265 -0.73,0.575 -1.105,0.929 -0.065,0.066 -0.11,0.155 -0.154,0.243 1.856,0.441 3.692,0.928 5.526,1.37 -0.905,0.663 -1.879,0.397 -3.404,0.11 -0.044,0.044 -0.088,0.133 -0.133,0.176 0.045,0.089 0.089,0.177 0.133,0.266 2.564,0.619 3.603,1.326 5.371,2.21 0.044,0.111 0.088,0.222 0.133,0.31 -0.443,-0.154 -0.929,-0.243 -1.393,-0.354 -0.066,0.044 -0.11,0.088 -0.178,0.132 0.111,0.177 0.222,0.421 0.287,0.576 3.847,1.016 13.218,5.702 16.467,1.989 v -0.133 c -1.659,-1.082 -4.111,-2.695 -5.172,-3.933" inkscape:connector-curvature="0" style="fill:#005395;fill-opacity:1" />

	<path id="path3098" d="m 481.832,33.375 v 0.31 c 0.112,-0.132 0.178,-0.221 0.31,-0.31 h -0.31 z" inkscape:connector-curvature="0" style="fill:#005395;fill-opacity:1" />

	<path id="path3100" d="m 495.006,34.148 c 0.265,0.376 0.155,0.31 0.686,0.442 v -0.132 c -0.267,-0.221 -0.178,-0.199 -0.686,-0.31" inkscape:connector-curvature="0" style="fill:#005395;fill-opacity:1" />

	<path id="path3102" d="m 498.255,34.79 c -0.397,-0.133 -0.773,-0.199 -1.127,-0.309 -0.198,0.485 -0.022,0.42 -0.972,0.375 0,0.044 -0.023,0.088 -0.023,0.132 0.399,0.486 1.084,0.929 1.813,1.15 0.243,-0.177 0.485,-0.375 0.707,-0.553 -0.132,-0.265 -0.265,-0.531 -0.398,-0.795" inkscape:connector-curvature="0" style="fill:#005395;fill-opacity:1" />

	<path id="path3104" d="m 487.181,35.629 c -0.243,-0.089 -0.464,-0.111 -0.685,-0.155 -0.155,0.066 -0.31,0.155 -0.441,0.288 -0.089,0.088 -0.199,0.243 -0.288,0.375 0.486,0.376 1.26,0.265 1.99,0.155 0.043,-0.066 0.088,-0.177 0.133,-0.244 -0.222,-0.131 -0.464,-0.286 -0.709,-0.419" inkscape:connector-curvature="0" style="fill:#005395;fill-opacity:1" />

	<path id="path3106" d="m 706.704,157.17 c -0.707,-1.414 -1.394,-2.873 -2.058,-4.354 0.133,0.221 0.245,0.42 0.398,0.619 0.089,0.044 0.156,0.088 0.266,0.155 v -0.288 c 0.176,-0.685 -0.664,-1.591 -1.105,-2.188 0.089,-0.044 0.222,-0.065 0.287,-0.088 0.287,0.31 0.642,0.641 0.994,1.017 0.023,0 0.091,0.044 0.111,0.044 -0.242,-0.597 -0.464,-1.171 -0.706,-1.768 0.553,0.508 1.017,1.017 1.546,1.525 -0.686,-1.547 -2.54,-4.708 -4.154,-5.393 0.22,-0.575 0,-0.332 0.553,-0.199 -0.487,-1.813 -3.205,-3.427 -3.471,-6.123 0.044,0 0.111,0.022 0.133,0.022 0.242,1.48 1.325,1.083 1.945,1.724 h 0.177 c -0.575,-0.796 -1.149,-1.592 -1.68,-2.387 0.265,-0.199 0.53,-0.42 0.817,-0.642 0.686,-0.442 1.171,1.04 2.078,1.04 0.089,0.619 0.154,0.663 0.242,1.304 0.154,-1.702 -0.044,-3.89 -0.286,-4.487 -0.73,-0.84 -1.239,-2.078 -1.879,-3.16 -2.144,-3.559 -3.669,-6.476 -5.26,-10.543 -0.399,-1.017 -13.285,-21.108 -29.686,-36.491 -16.952,-15.847 -37.463,-26.965 -37.176,-27.032 -0.441,0.486 -0.751,0.906 -1.502,1.127 0.088,0.885 -0.089,0.885 0.285,1.437 -0.439,0.177 -0.729,0.375 -1.236,0.619 0.508,0.773 1.215,1.26 1.702,1.878 0.11,0.508 0.22,0.973 0.31,1.459 1.305,1.945 3.979,2.917 5.017,5.283 0.707,0.155 0.642,-0.022 1.105,-0.332 0.222,0.53 0.42,1.127 0.618,1.724 0.707,0.884 4.397,3.006 5.791,2.144 0.641,-0.354 0.708,-1.37 0.398,-2.188 0.266,-0.155 0.553,-0.266 0.816,-0.398 -0.109,-0.199 -0.176,-0.42 -0.264,-0.641 v -0.154 c 3.934,1.878 5.901,6.785 10.078,8.465 0.177,0.508 0.398,0.995 0.574,1.481 -0.619,0.22 -0.752,0.663 -1.083,1.126 0.751,1.04 1.68,1.835 2.962,2.41 -0.375,0.552 -0.266,0.265 -0.993,0.066 0,0.066 0,0.11 0.021,0.133 0.311,0.508 0.598,0.708 1.127,0.995 0.289,0.022 0.553,0.044 0.796,0.044 v -1.062 c -0.376,-0.397 -0.84,-1.237 -1.525,-1.546 0,-0.464 -0.087,-0.133 0.268,-0.486 -0.289,-0.332 -0.598,-0.686 -0.842,-0.973 0.753,0.42 1.194,0.995 1.569,1.791 0.53,0.022 1.083,0.089 1.68,0.089 0.045,0.022 0.066,0.022 0.134,0.022 v -0.42 c -0.42,-0.442 -0.774,-0.928 -1.15,-1.371 0.2,-0.375 0.177,-0.177 0.133,-0.641 0.485,0.043 1.038,0.132 1.525,0.199 -0.177,-0.354 -0.375,-0.707 -0.575,-1.083 0.288,0.244 5.945,5.305 5.659,5.482 -0.774,0.398 -0.598,0.773 -0.397,1.591 -0.244,0.066 -0.442,0.133 -0.686,0.221 -0.95,1.127 -1.238,0.065 -2.365,-0.022 -0.485,-0.486 -0.265,-0.199 -0.154,-0.686 -0.443,-0.353 -0.863,-0.773 -1.283,-1.104 0,0.243 0.023,0.552 0.023,0.773 -0.287,-0.044 -0.555,-0.111 -0.84,-0.177 0.176,0.818 -0.2,0.508 -0.422,1.548 -0.198,-0.044 -0.464,-0.111 -0.662,-0.155 -0.287,-0.309 -0.441,-1.038 -0.465,-1.348 -0.285,-0.332 -0.177,-0.287 -0.707,-0.442 0.112,0.155 0.178,0.376 0.311,0.553 -1.15,0.022 -2.034,-0.929 -2.809,-1.591 -0.331,-0.088 0,-0.066 0.111,-0.266 -0.375,-0.354 -0.575,-0.486 -1.282,-0.596 -0.021,-0.111 -0.089,-0.177 -0.11,-0.266 0.021,-0.065 0.067,-0.176 0.11,-0.265 0.929,0.553 1.901,1.149 2.829,1.702 -0.553,-1.237 -1.9,-3.094 -3.38,-2.652 -0.354,-0.397 -0.487,-1.437 -0.886,-2.033 0.2,0.132 0.354,0.199 0.575,0.309 0.045,-0.198 0.065,-0.442 0.11,-0.64 -1.305,-1.503 -3.139,-2.299 -3.868,-4.398 -0.287,0.132 -0.53,0.265 -0.796,0.396 0.089,0.354 0.199,0.774 0.287,1.15 -0.198,0 -0.375,0 -0.574,-0.022 -0.198,0.133 -0.464,0.244 -0.662,0.354 0.464,2.497 5.568,6.344 5.281,7.471 0.332,0.066 0.665,0.133 0.973,0.221 0.574,0.973 1.193,1.525 1.857,2.587 -0.531,0.221 -0.354,-0.066 -0.266,0.795 -0.863,-0.288 -1.018,-0.398 -2.1,-0.375 v 0.663 c -0.642,0.066 -1.305,0.155 -1.923,0.177 -0.111,0.221 -0.222,0.442 -0.287,0.641 0.198,0.354 0.376,0.641 0.552,0.95 0.575,0.266 0.442,0.266 0.995,0.066 0.353,0.773 0.663,0.929 0.598,1.613 -0.399,0.486 -0.112,0.265 -0.709,0.111 -0.044,-0.022 -0.11,-0.022 -0.154,-0.022 0.133,0.995 0.11,1.171 0.574,1.768 -0.353,-0.066 -0.729,-0.133 -1.104,-0.177 -0.465,-1.415 -0.974,-2.807 -1.438,-4.199 -0.089,-0.066 -0.222,-0.11 -0.331,-0.133 h -0.089 c 0.441,1.857 2.011,4.841 0.884,5.902 -0.729,0.685 -2.166,0.818 -2.785,1.635 0.42,0.884 0.774,1.746 1.15,2.608 -0.443,0.442 -0.73,0.618 -1.525,0.773 -0.354,0.464 -0.707,0.906 0,1.348 -0.111,0.133 -0.266,0.288 -0.397,0.42 -1.726,0.354 -3.669,-1.149 -4.952,-1.613 -0.021,0.044 -0.088,0.111 -0.133,0.133 0.798,1.171 1.857,1.856 2.277,3.337 0.177,0.11 0.31,0.287 0.442,0.397 v 0.133 c -1.127,-0.155 -1.769,-0.332 -2.542,0.287 -0.53,-0.442 -1.127,-0.84 -1.703,-1.282 -0.927,0.508 -2.452,0.309 -3.248,1.127 h -0.266 c 0.243,1.194 1.105,1.061 1.857,1.658 -0.311,0.044 -0.598,0.11 -0.863,0.155 1.504,1.371 3.736,1.017 5.813,1.791 0.089,0 6.697,6.189 6.786,6.498 -0.243,-0.177 -0.465,-0.354 -0.73,-0.575 -0.021,0.066 -0.065,0.111 -0.131,0.133 1.68,2.299 3.514,5.658 3.514,10.013 -2.454,0.906 -8.156,-0.686 -11.361,-1.105 -0.86,-0.088 -2.983,0.862 -4.266,0.442 -0.619,-0.244 -0.883,-0.752 -1.855,-0.531 -0.753,-0.177 -1.171,0.685 -0.842,1.371 -0.684,0.198 -1.547,0.287 -1.813,0.795 -0.222,0.111 -0.418,0.221 -0.574,0.354 0.045,1.437 0.907,1.326 1.105,2.41 0.398,-0.088 0.287,-0.088 0.709,-0.31 0.309,2.41 1.723,4.111 2.541,6.388 0.729,2.011 0.31,7.979 -0.111,9.968 0.641,0.53 0.951,0.95 1.525,1.613 0.266,-0.177 0.553,-0.333 0.84,-0.509 0.729,1.879 1.236,3.824 1.149,6.808 1.304,-0.486 2.939,0.288 3.646,0.044 0.509,-0.154 0.751,-0.773 1.614,-0.972 2.387,-1.083 3.558,4.686 6.188,5.149 0.53,-0.553 2.564,-2.497 2.739,-2.984 1.901,-0.043 3.205,-0.287 4.752,0.199 0.112,-0.199 0.2,-0.397 0.311,-0.597 0.751,0.066 0.818,0.155 1.236,0.486 0.443,-0.95 0.818,-2.719 1.173,-3.537 0.485,-0.221 0.663,-0.265 1.547,-0.265 0.044,-0.817 -0.551,-2.055 -0.065,-3.514 0.243,-0.818 0.884,-0.862 1.127,-1.901 -4.267,-2.895 -0.42,-6.542 -1.612,-8.84 0.816,-1.061 1.501,-0.708 2.52,-1.459 0.618,-0.442 1.281,-1.768 1.834,-2.342 -0.245,-1.548 -2.632,-3.78 -2.079,-5.438 0.199,-0.464 0.863,-0.773 1.127,-1.349 2.145,0.708 3.492,1.636 5.371,2.343 0.907,-0.84 0.686,-2.497 2.388,-2.763 0.11,-0.618 0.266,-1.282 0.398,-1.922 0,-0.111 -0.022,-0.199 -0.022,-0.266 3.801,0.619 6.012,5.813 7.934,8.443 0,0 5.282,5.061 5.482,5.194 0.133,0.088 0.707,-0.222 1.26,0.133 0.309,0.53 0.642,1.104 0.951,1.657 4.066,3.757 5.261,4.907 7.006,10.742 -0.42,0.221 -1.26,0.332 -1.636,1.039 -1.393,-0.066 -1.393,-0.221 -2.253,-0.906 -0.2,0.265 -0.156,0.176 -0.245,0.685 -0.198,-0.177 -0.375,-0.31 -0.574,-0.464 -0.021,0 -0.088,-0.022 -0.133,-0.022 -0.067,0.641 -0.198,1.304 0.133,1.879 0.265,0.442 5.35,4.508 5.946,4.774 h 0.154 c -0.31,-2.122 -1.393,-3.227 -1.393,-5.857 0.311,0.244 0.553,0.42 0.84,0.641 h 0.11 c 0.31,-1.127 0.046,-2.498 -0.354,-3.448 0.088,-0.751 0.024,-0.553 0.531,-0.795 -0.443,-1.791 -1.349,-1.99 -2.188,-3.183 -0.266,-1.062 -0.553,-2.166 -0.862,-3.228 0.111,-0.087 0.222,-0.154 0.31,-0.243 0.576,0.884 2.167,2.542 3.051,3.117 -0.753,-3.05 -3.758,-5.658 -6.387,-6.962 -0.311,-0.553 -0.398,-0.928 -0.376,-1.879 -0.862,-0.442 -1.525,-0.088 -2.387,-0.795 -2.013,-1.658 -2.92,-4.266 -4.532,-6.365 -1.393,-1.769 -4,-2.476 -4.707,-4.929 0.044,-0.309 0.133,-0.641 0.177,-0.951 -0.331,-0.773 -1.149,-0.928 -1.414,-1.944 0.772,-0.133 0.729,-0.354 1.083,-0.884 0.198,0.044 0.375,0.066 0.597,0.066 0.507,0.663 1.525,2.607 1.899,3.536 0.111,0.044 0.222,0.066 0.287,0.155 0.023,-0.31 0.111,-0.664 0.133,-0.951 0.266,0.486 0.485,0.951 0.707,1.459 0.156,0.11 0.243,0.221 0.422,0.309 -0.2,-0.464 -0.378,-0.906 -0.531,-1.282 1.282,0.464 1.789,2.741 2.453,3.537 0.994,1.26 2.52,1.944 3.427,2.873 -0.155,-0.043 -0.333,-0.132 -0.51,-0.198 0.354,0.663 0.62,0.84 0.949,1.393 0.245,0 0.465,0.044 0.686,0.066 -0.221,-0.244 -0.44,-0.442 -0.686,-0.641 0.112,-0.044 0.179,-0.089 0.268,-0.111 0.287,0.199 0.598,0.42 0.861,0.642 0.044,0.11 0.089,0.176 0.111,0.287 -0.288,0.089 -0.555,0.133 -0.818,0.2 0.597,0.618 0.485,0.044 1.216,0.419 1.547,0.752 4.066,3.382 5.016,4.841 0.709,2.055 1.525,4.088 2.323,6.144 0.928,1.769 3.072,3.559 3.845,5.438 0.42,-0.022 0.044,0.044 0.42,-0.089 0.044,0.155 -0.332,0.773 0,1.393 0.398,0.597 1.238,1.437 2.209,1.591 -0.198,0.773 -0.264,0.575 -0.264,1.68 0.973,1.371 1.922,2.719 2.475,4.553 0.154,0.066 0.309,0.2 0.42,0.31 h 0.134 c -0.112,-0.31 -0.154,-0.707 -0.245,-1.017 0.046,0 0.091,0 0.133,0.044 0.289,0.686 0.62,1.415 0.973,2.144 0.067,0.044 0.156,0.089 0.245,0.155 -0.089,-0.376 -0.178,-0.729 -0.245,-1.149 0.245,0.354 0.511,0.729 0.818,1.039 h 0.136 z" inkscape:connector-curvature="0" style="fill:#005395;fill-opacity:1" />

	<path id="path3108" d="m 436.257,46.282 c -0.728,-0.42 -1.723,-0.574 -2.829,-0.663 -0.221,0.088 -0.464,0.177 -0.729,0.287 0.42,0.795 2.542,1.459 3.537,1.724 h 0.11 c 0.177,-0.618 0.066,-0.839 -0.089,-1.348" inkscape:connector-curvature="0" style="fill:#005395;fill-opacity:1" />

	<path id="path3110" d="m 505.991,50.416 c 0.266,0.464 -0.088,0.154 0.442,0.42 h 0.133 c 0.066,-0.089 0.089,-0.177 0.155,-0.266 -0.243,-0.044 -0.509,-0.11 -0.73,-0.154" inkscape:connector-curvature="0" style="fill:#005395;fill-opacity:1" />

	<path id="path3112" d="m 513.462,57.135 c 0.11,0.132 0.199,0.265 0.287,0.398 0.043,0 0.089,0 0.154,0.022 V 57.4 c -0.154,-0.088 -0.287,-0.177 -0.441,-0.265" inkscape:connector-curvature="0" style="fill:#005395;fill-opacity:1" />

	<path id="path3114" d="m 508.753,59.566 c -0.331,0.088 -0.663,0.155 -1.016,0.243 -0.11,0.951 -0.133,0.266 -0.398,0.818 1.945,-0.088 3.823,-0.376 5.503,-0.486 -1.348,-0.199 -2.718,-0.398 -4.089,-0.575" inkscape:connector-curvature="0" style="fill:#005395;fill-opacity:1" />

	<path id="path3116" d="m 517.97,62.417 c 0,0.398 -0.133,0.177 0.133,0.553 0.133,-0.11 0.287,-0.198 0.443,-0.265 V 62.55 c -0.199,-0.067 -0.376,-0.111 -0.576,-0.133" inkscape:connector-curvature="0" style="fill:#005395;fill-opacity:1" />

	<path id="path3118" d="m 488.442,67.037 c -0.045,0.088 -0.088,0.154 -0.133,0.265 3.205,1.99 5.416,3.692 9.637,4.974 0.111,-0.044 0.199,-0.088 0.287,-0.111 v -0.397 c -2.232,-1.969 -6.034,-4.51 -9.791,-4.731" inkscape:connector-curvature="0" style="fill:#005395;fill-opacity:1" />

	<path id="path3120" d="m 524.049,69.292 c -0.044,0.154 -0.11,0.287 -0.156,0.42 0.509,-0.244 0.2,0.088 0.443,-0.397 -0.089,-0.001 -0.198,-0.023 -0.287,-0.023" inkscape:connector-curvature="0" style="fill:#005395;fill-opacity:1" />

	<path id="path3122" d="m 643.601,95.88 c -0.664,-0.044 -1.325,-0.132 -1.968,-0.176 0.288,-0.597 1.019,-1.525 0.774,-2.432 -0.311,-1.371 -2.83,-4.133 -4.355,-2.387 -0.131,-0.022 -0.285,-0.089 -0.464,-0.155 -0.84,-1.746 -2.231,-3.89 -4.397,-5.283 -0.885,-0.375 -1.725,-0.729 -2.586,-1.06 -2.3,-2.188 -3.382,-3.912 -6.874,-3.957 0.375,-0.287 0.751,-0.531 1.149,-0.795 -0.242,-0.2 -0.485,-0.398 -0.729,-0.553 0.553,-1.126 -0.11,-2.011 0.109,-3.072 -1.258,-1.282 -3.623,-0.928 -5.281,-0.597 0,-0.795 0.266,-0.486 -0.42,-0.795 0.177,-0.641 0.441,-1.038 0.951,-1.348 -0.089,-0.309 -0.2,-0.641 -0.289,-0.951 -1.458,-0.309 -2.872,0.31 -4.265,-0.132 -0.31,0.375 -0.266,0.464 0,0.95 -0.221,0.574 -0.133,0.641 0.332,1.216 -0.112,0.044 -0.222,0.088 -0.311,0.133 -0.485,-0.066 -0.242,-0.133 -0.553,0.265 0.266,0.464 0.553,0.929 0.863,1.393 v 0.132 c -0.619,-0.442 -1.26,-0.905 -1.857,-1.349 -0.31,0.553 -0.155,0.222 -0.597,0.863 0.751,0.707 2.3,1.237 3.027,1.282 0.112,0.198 0.222,0.354 0.311,0.574 -0.266,0.133 -0.485,0.288 -0.73,0.42 0.311,0.708 0.554,0.708 0.443,1.503 0.464,-0.044 0.949,-0.133 1.414,-0.177 0.067,-0.221 0.109,-0.464 0.154,-0.663 v -0.288 c 0.067,0 0.088,-0.022 0.133,-0.022 0.242,1.548 1.062,2.609 1.481,4.245 h 0.575 c 0.043,-0.088 0.087,-0.199 0.131,-0.288 -0.088,-0.243 -0.198,-0.464 -0.286,-0.685 0.286,0.177 0.573,0.354 0.862,0.531 h 0.133 c -0.155,-0.442 -0.289,-0.929 -0.442,-1.349 0.396,0.265 0.773,0.53 1.149,0.795 0.331,0.62 0.309,1.238 0.044,2.056 0.42,0.354 0.861,0.708 1.26,1.083 h 0.199 c -0.133,-0.2 -0.245,-0.376 -0.354,-0.553 v -0.132 c 0.464,0.176 0.886,0.332 1.327,0.53 V 84.1 c 0.927,0.354 1.28,0.133 1.987,-0.42 0.952,1.172 0.555,3.05 2.874,2.697 0.023,1.15 0.311,1.547 0.707,2.277 -1.104,0.906 -2.209,0.265 -3.381,0.044 0.154,0.906 0.465,0.751 1.016,1.238 -0.22,0.199 -0.396,0.442 -0.597,0.686 0.046,0.065 0.111,0.154 0.179,0.243 0.375,-0.155 0.729,-0.288 1.104,-0.42 0.398,0.509 0.818,0.994 1.171,1.48 -0.153,0.884 -0.905,1.261 -1.832,1.393 -0.134,0.133 -0.288,0.288 -0.421,0.442 0.464,0.397 0.973,0.773 1.458,1.193 1.481,-0.773 2.851,0.2 4.509,0.774 0.376,-0.177 0.774,-0.398 1.15,-0.553 -0.222,0.464 -0.178,0.42 -0.133,0.973 h -2.852 c 0.021,1.26 -0.818,2.674 -1.922,3.735 v 0.287 c 0.729,0.044 0.816,-0.065 1.591,0.376 0.353,-0.553 0.154,-0.995 1.216,-1.26 0.751,-0.221 1.547,0.221 2.274,0.398 0.046,-0.486 -0.131,-1.393 0.289,-1.658 0,0 4.486,0.353 4.663,0.464 h 0.42 c -0.109,-0.265 -0.198,-0.464 -0.308,-0.707 2.165,0.089 3.227,0.044 4.927,-0.817 0.021,-0.066 0.089,-0.177 0.133,-0.265 -0.11,-0.311 -0.175,-0.554 -0.285,-0.82" inkscape:connector-curvature="0" style="fill:#005395;fill-opacity:1" />

	<path id="path3124" d="m 532.491,85.868 c -0.686,-0.176 -0.795,0.442 -1.987,0.62 -0.023,-0.2 -0.067,-0.398 -0.112,-0.575 0.398,-0.553 0.84,-0.95 1.547,-1.193 0.067,-0.066 0.111,-0.155 0.156,-0.265 -0.045,-0.066 -0.089,-0.111 -0.156,-0.155 -1.767,0.089 -2.121,0.486 -3.138,1.26 -0.089,-0.199 -0.177,-0.397 -0.287,-0.596 -0.354,-0.088 -0.089,0.132 -0.398,-0.155 0.973,-0.862 3.007,-1.393 3.403,-1.791 0.089,-0.066 0.2,-0.177 0.311,-0.243 -0.619,-0.575 -2.123,-0.464 -3.14,-0.575 0.333,-0.906 0.022,-0.244 -0.154,-1.393 0.818,-0.155 1.127,-0.287 1.591,-0.773 -0.927,-0.84 -2.452,-1.702 -3.714,-1.459 -0.574,-0.553 -0.087,-0.906 -0.971,-1.282 -0.42,0.177 0,0.265 -0.464,0.133 -0.089,0.375 -0.133,0.221 0.177,0.553 -0.289,-0.022 -0.575,-0.022 -0.862,-0.044 -0.817,0.044 -0.53,0.088 -0.441,-0.686 -0.707,0.066 -0.422,-0.089 -0.553,0.354 -0.53,-0.287 -0.84,-0.464 -1.416,-0.442 0.089,-0.154 0.178,-0.309 0.266,-0.442 -0.529,-0.265 -0.177,-0.154 -0.684,-0.022 -0.089,-0.11 -0.222,-0.176 -0.311,-0.287 0,-0.176 0,-0.354 0,-0.553 0.574,-0.043 1.15,-0.065 1.701,-0.089 0,-0.021 0,-0.087 0,-0.132 -0.84,-0.619 -1.813,-0.619 -2.695,-1.371 -0.862,0.332 -1.702,0.686 -2.544,1.017 0.4,-1.393 2.876,-2.674 4.267,-2.984 0.2,-0.243 0.398,-0.486 0.598,-0.686 -0.42,-0.331 -0.42,-0.397 -1.127,-0.486 v -0.132 -0.133 c 0.729,0.198 1.236,0.42 1.989,0.354 0.087,-0.089 0.177,-0.176 0.287,-0.243 0.021,-0.155 0.065,-0.288 0.133,-0.42 -0.774,-0.244 -1.549,-0.442 -2.276,-0.664 -0.861,0.022 -1.725,0.022 -2.564,0.044 -0.553,0.111 -2.055,0.995 -2.873,1.415 -1.526,0.729 -2.145,2.696 -4.134,3.139 -0.266,0.53 -0.243,0.398 -0.021,0.972 v 0.133 c -0.553,-0.11 -0.42,0 -0.709,-0.287 -0.882,0.198 -1.369,0.817 -1.854,1.414 0.264,0.266 0.551,0.531 0.86,0.73 -1.192,-0.199 -2.651,0.509 -4.021,0.707 0.11,0.42 0.198,0.928 0.287,1.348 2.342,0.62 11.892,2.542 12.665,3.359 -0.176,-0.022 -0.376,-0.022 -0.554,-0.044 0.95,0.397 1.901,0.774 2.852,1.127 0.222,-0.266 0.177,-0.177 0.266,-0.686 0.62,0.244 1.238,0.508 1.856,0.774 -1.171,0.442 -2.431,0.773 -4.42,0.663 -0.066,0.155 -0.11,0.354 -0.154,0.531 3.005,1.126 5.414,-0.265 7.979,-1.017 0.221,0.221 0.398,0.486 0.597,0.729 -0.044,1.15 -0.729,1.57 -1.437,2.012 0.198,0.575 0.111,0.442 0.553,0.729 0.662,-0.177 1.348,-0.42 1.989,-0.597 -0.266,0.508 -0.376,0.73 -0.42,1.658 0.772,0.198 1.37,0.287 2.121,0.531 1.062,-0.531 1.371,-1.614 2.321,-2.299 -0.07,-0.353 -0.113,-0.751 -0.181,-1.105" inkscape:connector-curvature="0" style="fill:#005395;fill-opacity:1" />

	<path id="path3126" d="m 612.547,72.717 c -0.243,-0.044 -0.485,-0.088 -0.751,-0.133 -0.354,0.332 -0.729,0.663 -1.106,0.973 0.399,0.509 0.663,0.663 0.709,1.127 0.154,0.066 0.287,0.155 0.418,0.266 0.333,-0.288 0.686,-0.575 1.018,-0.84 -0.111,-0.464 -0.221,-0.928 -0.288,-1.393" inkscape:connector-curvature="0" style="fill:#005395;fill-opacity:1" />

	<path id="path3128" d="m 522.589,72.297 v 0.265 c 0.111,-0.088 0.2,-0.155 0.289,-0.265 h -0.289 z" inkscape:connector-curvature="0" style="fill:#005395;fill-opacity:1" />

	<path id="path3130" d="m 611.816,75.215 c -0.154,-0.066 -0.353,-0.177 -0.551,-0.265 -0.177,0.11 -0.398,0.198 -0.553,0.287 0.485,0.509 0.796,0.929 1.194,1.658 0.087,0.022 0.242,0.066 0.396,0.111 -0.153,-0.598 -0.308,-1.173 -0.486,-1.791" inkscape:connector-curvature="0" style="fill:#005395;fill-opacity:1" />

	<path id="path3132" d="m 522.458,72.85 c 0.131,0.155 0.264,0.288 0.42,0.442 0.087,-0.088 0.198,-0.11 0.308,-0.154 V 73.005 C 522.922,72.96 522.7,72.894 522.458,72.85" inkscape:connector-curvature="0" style="fill:#005395;fill-opacity:1" />

	<path id="path3134" d="m 647.403,77.447 c 0.087,0.154 0.176,0.287 0.287,0.42 h 0.131 c -0.263,-0.464 0.068,-0.133 -0.418,-0.42" inkscape:connector-curvature="0" style="fill:#005395;fill-opacity:1" />

	<path id="path3136" d="m 614.425,76.961 c 0.177,0.198 0.311,0.375 0.443,0.531 0.044,-0.066 0.088,-0.155 0.153,-0.244 -0.22,-0.089 -0.396,-0.176 -0.596,-0.287" inkscape:connector-curvature="0" style="fill:#005395;fill-opacity:1" />

	<path id="path3138" d="m 611.884,77.159 v 0.288 c 0.11,-0.088 0.266,-0.111 0.42,-0.155 v -0.133 h -0.42 z" inkscape:connector-curvature="0" style="fill:#005395;fill-opacity:1" />

	<path id="path3140" d="m 614.758,78.221 c -0.046,0.022 -0.111,0.089 -0.156,0.133 v 0.133 c 0.045,0.043 0.11,0.088 0.156,0.132 h 0.133 c 0.021,-0.132 0.065,-0.287 0.131,-0.398 h -0.264 z" inkscape:connector-curvature="0" style="fill:#005395;fill-opacity:1" />

	<path id="path3142" d="m 614.161,78.619 v 0.42 h 0.308 c -0.198,-0.42 0,-0.155 -0.308,-0.42" inkscape:connector-curvature="0" style="fill:#005395;fill-opacity:1" />

	<path id="path3144" d="m 508.468,76.143 c -0.289,0 -0.555,-0.022 -0.819,-0.022 -0.133,0.022 -0.221,0.065 -0.331,0.133 -0.045,0.132 -0.089,0.243 -0.133,0.398 0.664,0.088 1.325,0.154 1.99,0.221 -0.222,-0.243 -0.465,-0.487 -0.707,-0.73" inkscape:connector-curvature="0" style="fill:#005395;fill-opacity:1" />

	<path id="path3146" d="m 527.143,77.646 c -0.045,0.199 -0.11,0.353 -0.176,0.575 0.397,0 0.796,0.022 1.171,0.044 -0.266,-0.641 -0.2,-0.509 -0.995,-0.619" inkscape:connector-curvature="0" style="fill:#005395;fill-opacity:1" />

	<path id="path3148" d="m 617.63,79.812 c -0.353,0.553 -0.441,0.752 -1.149,0.973 0.244,0.774 0.421,0.575 1.019,0.928 0.396,-0.354 0.573,-1.348 0.13,-1.901" inkscape:connector-curvature="0" style="fill:#005395;fill-opacity:1" />

	<path id="path3150" d="m 616.613,79.967 c -0.065,0.022 -0.11,0.089 -0.133,0.133 v 0.132 c 0.067,0.022 0.179,0.066 0.288,0.133 0.045,-0.066 0.065,-0.111 0.133,-0.133 -0.111,-0.11 -0.176,-0.176 -0.288,-0.265" inkscape:connector-curvature="0" style="fill:#005395;fill-opacity:1" />

	<path id="path3152" d="m 487.911,78.596 c -0.531,-0.309 -0.288,-0.022 -0.442,-0.729 -0.664,-0.619 -0.354,-0.375 -0.133,-1.261 -0.132,-0.021 -0.265,-0.087 -0.398,-0.154 -0.531,0.265 -1.061,0.442 -1.592,0.664 -0.043,0.087 -0.088,0.176 -0.131,0.243 1.501,1.371 2.851,2.166 4.95,2.939 0.464,0.287 0.178,0 0.288,0.442 0.354,0.398 0.552,0.486 1.149,0.751 1.304,-0.265 1.105,-0.95 3.006,-0.883 0.023,-0.044 0.089,-0.066 0.133,-0.133 v -0.177 c -0.95,-0.376 -6.83,-1.702 -6.83,-1.702" inkscape:connector-curvature="0" style="fill:#005395;fill-opacity:1" />

	<path id="path3154" d="m 619.62,80.873 h -0.311 v 0.575 c 0.222,-0.089 0.42,-0.133 0.598,-0.177 -0.11,-0.133 -0.178,-0.266 -0.287,-0.398" inkscape:connector-curvature="0" style="fill:#005395;fill-opacity:1" />

	<path id="path3156" d="m 620.548,87.305 c -0.044,-0.066 -0.111,-0.198 -0.133,-0.287 0.885,-0.288 0.818,-0.686 1.393,-0.995 v -0.664 c -0.994,-0.972 -1.88,-0.972 -2.762,-2.298 -1.04,-0.509 -1.857,-0.31 -2.697,0.375 0.089,-0.332 0.045,-0.177 0.287,-0.597 -0.42,-0.154 -0.84,-0.309 -1.304,-0.508 -0.376,0.463 -1.171,0.663 -2.121,0.773 -0.155,0.929 -0.111,0.929 -0.575,1.569 0.529,0.42 1.082,0.354 1.746,0.2 -0.266,0.707 -0.531,0.508 -0.575,1.149 -1.281,0 -2.564,0.022 -3.89,0.044 0.11,0.817 0.265,0.309 0.596,0.817 -0.154,0.066 -0.264,0.111 -0.418,0.177 0.529,0.53 1.06,0.486 1.878,0.441 -0.509,0.53 -0.574,0.619 -1.017,1.061 1.149,1.481 2.076,0.597 3.756,1.039 -0.95,0.641 -0.684,0.663 -0.707,1.613 -0.64,0.619 -0.574,0.376 0,0.84 -0.376,0.642 -0.243,0.244 -0.133,1.017 -0.396,-0.044 -0.772,-0.066 -1.127,-0.088 -0.131,0.265 -0.198,0.486 -0.31,0.729 0.554,-0.088 1.04,-0.177 1.569,-0.243 -0.331,0.221 -0.663,0.442 -0.973,0.619 1.703,4.11 7.67,-1.172 10.278,-1.083 -0.109,-1.832 -0.904,-4.772 -2.761,-5.7" inkscape:connector-curvature="0" style="fill:#005395;fill-opacity:1" />

	<path id="path3158" d="m 528.978,80.962 c -0.044,0.132 -0.088,0.265 -0.133,0.397 0.133,-0.066 0.266,-0.088 0.397,-0.111 -0.065,-0.11 -0.176,-0.198 -0.264,-0.286" inkscape:connector-curvature="0" style="fill:#005395;fill-opacity:1" />

	<path id="path3160" d="m 657.57,84.299 c 0.109,0.199 0.177,0.442 0.264,0.664 0.376,0.132 0.664,0.243 0.996,0.354 -0.353,-0.598 -0.532,-0.753 -1.26,-1.018" inkscape:connector-curvature="0" style="fill:#005395;fill-opacity:1" />

	<path id="path3162" d="m 473.744,81.182 c -0.133,0.2 -0.266,0.376 -0.42,0.531 0.088,0.066 0.176,0.111 0.266,0.155 0.398,-0.31 0.354,-0.089 0.596,-0.686 h -0.442 z" inkscape:connector-curvature="0" style="fill:#005395;fill-opacity:1" />

	<path id="path3164" d="m 484.286,81.779 c -0.044,0.176 -0.088,0.376 -0.155,0.553 0.155,0.11 0.31,0.199 0.465,0.31 0.84,-0.111 1.702,-0.266 2.564,-0.376 -0.973,-0.155 -1.901,-0.31 -2.874,-0.487" inkscape:connector-curvature="0" style="fill:#005395;fill-opacity:1" />

	<path id="path3166" d="m 624.105,85.448 c -0.133,0.288 -0.198,0.553 -0.286,0.862 0.044,0.088 0.088,0.221 0.133,0.376 0.266,-0.044 0.464,-0.089 0.729,-0.155 0.043,-0.133 0.089,-0.288 0.131,-0.397 -0.242,-0.244 -0.485,-0.443 -0.707,-0.686" inkscape:connector-curvature="0" style="fill:#005395;fill-opacity:1" />

	<path id="path3168" d="m 464.748,81.382 c -0.088,0.442 -0.111,0.309 0.155,0.685 0.089,-0.088 0.2,-0.198 0.288,-0.265 -0.155,-0.156 -0.267,-0.266 -0.443,-0.42" inkscape:connector-curvature="0" style="fill:#005395;fill-opacity:1" />

	<path id="path3170" d="m 499.559,82.862 h -0.288 c -0.021,0.111 -0.087,0.177 -0.131,0.266 0.419,-0.045 0.706,0.176 0.419,-0.266" inkscape:connector-curvature="0" style="fill:#005395;fill-opacity:1" />

	<path id="path3172" d="m 465.609,81.956 v 0.288 c 0.089,-0.111 0.178,-0.222 0.266,-0.288 h -0.266 z" inkscape:connector-curvature="0" style="fill:#005395;fill-opacity:1" />

	<path id="path3174" d="m 499.14,83.283 c -0.222,-0.023 -0.487,-0.023 -0.709,-0.067 -0.286,0.199 -0.574,0.399 -0.862,0.553 0.576,0.022 1.128,0.044 1.702,0.089 v -0.154 c -0.043,-0.134 -0.087,-0.311 -0.131,-0.421" inkscape:connector-curvature="0" style="fill:#005395;fill-opacity:1" />

	<path id="path3176" d="m 517.419,84.034 c 0.065,0.176 0.175,0.354 0.264,0.596 0.111,-0.133 0.2,-0.199 0.287,-0.309 -0.176,-0.089 -0.355,-0.177 -0.551,-0.287" inkscape:connector-curvature="0" style="fill:#005395;fill-opacity:1" />

	<path id="path3178" d="m 526.545,84.608 c -0.22,0.111 -0.396,0.266 -0.573,0.376 -0.066,0.133 -0.089,0.266 -0.154,0.42 h 0.42 c 0.266,-0.132 0.485,-0.221 0.729,-0.354 v -0.442 h -0.422 z" inkscape:connector-curvature="0" style="fill:#005395;fill-opacity:1" />

	<path id="path3180" d="m 475.446,83.194 c 0.243,0.11 0.043,0.11 0.265,0 h -0.265 z" inkscape:connector-curvature="0" style="fill:#005395;fill-opacity:1" />

	<path id="path3182" d="m 517.396,84.719 c -0.044,0.111 -0.088,0.177 -0.133,0.287 0.133,0.066 0.289,0.088 0.42,0.177 0.111,-0.044 0.222,-0.111 0.287,-0.155 -0.176,-0.089 -0.376,-0.198 -0.574,-0.309" inkscape:connector-curvature="0" style="fill:#005395;fill-opacity:1" />

	<path id="path3184" d="m 517.97,85.183 v 0.265 c 0.11,-0.088 0.2,-0.154 0.266,-0.243 -0.066,0 -0.156,-0.022 -0.266,-0.022" inkscape:connector-curvature="0" style="fill:#005395;fill-opacity:1" />

	<path id="path3186" d="m 660.134,88.962 c 0.309,0.155 0.574,0.31 0.816,0.442 v -0.132 c -0.307,-0.288 -0.287,-0.155 -0.816,-0.31" inkscape:connector-curvature="0" style="fill:#005395;fill-opacity:1" />

	<path id="path3188" d="m 650.099,90.001 c -0.045,0.044 -0.11,0.176 -0.133,0.243 0.421,-0.132 0.155,0 0.421,-0.243 h -0.288 z" inkscape:connector-curvature="0" style="fill:#005395;fill-opacity:1" />

	<path id="path3190" d="m 648.596,90.708 c -0.044,0.111 -0.109,0.177 -0.154,0.288 0.045,0.021 0.11,0.066 0.154,0.132 0.089,-0.088 0.177,-0.176 0.266,-0.265 V 90.73 c -0.112,0 -0.177,0 -0.266,-0.022" inkscape:connector-curvature="0" style="fill:#005395;fill-opacity:1" />

	<path id="path3192" d="m 648.286,91.659 c 0,0.11 0,0.221 0.044,0.354 0.089,0 0.156,0.044 0.266,0.044 -0.177,-0.398 0,-0.177 -0.31,-0.398" inkscape:connector-curvature="0" style="fill:#005395;fill-opacity:1" />

	<path id="path3194" d="m 456.858,87.283 v 0.266 c 0.087,-0.088 0.176,-0.155 0.287,-0.266 h -0.287 z" inkscape:connector-curvature="0" style="fill:#005395;fill-opacity:1" />

	<path id="path3196" d="m 451.552,87.88 c -0.043,0.132 -0.089,0.265 -0.132,0.375 0.199,-0.265 0.244,-0.066 0.132,-0.375" inkscape:connector-curvature="0" style="fill:#005395;fill-opacity:1" />

	<path id="path3198" d="m 454.117,89.029 c -0.221,0.066 -0.464,0.155 -0.73,0.265 0,0.089 0,0.177 0,0.244 0.509,0.066 0.951,0.111 1.437,0.177 0,-0.066 0,-0.088 0,-0.133 -0.288,-0.42 -0.133,-0.376 -0.707,-0.553" inkscape:connector-curvature="0" style="fill:#005395;fill-opacity:1" />

	<path id="path3200" d="m 446.27,89.162 c -0.088,0.044 -0.176,0.111 -0.286,0.132 v 0.111 c 0.243,-0.066 0.485,-0.132 0.729,-0.221 -0.155,0 -0.289,0 -0.443,-0.022" inkscape:connector-curvature="0" style="fill:#005395;fill-opacity:1" />

	<path id="path3202" d="m 449.983,89.206 c 0.243,0.132 0.022,0.132 0.288,0 h -0.288 z" inkscape:connector-curvature="0" style="fill:#005395;fill-opacity:1" />

	<path id="path3204" d="m 448.259,89.316 c 0.111,0.111 0.199,0.199 0.287,0.288 h 0.155 c -0.264,-0.288 0,-0.111 -0.442,-0.288" inkscape:connector-curvature="0" style="fill:#005395;fill-opacity:1" />

	<path id="path3206" d="m 455.952,90.023 c -0.045,0.111 -0.089,0.177 -0.133,0.287 0.221,0.066 0.486,0.176 0.707,0.287 h 0.154 c 0.045,-0.088 0.089,-0.176 0.112,-0.287 -0.267,-0.22 -0.244,-0.22 -0.84,-0.287" inkscape:connector-curvature="0" style="fill:#005395;fill-opacity:1" />

	<path id="path3208" d="m 298.184,99.792 c -0.487,1.57 -1.084,2.608 -1.371,4.089 0.066,0 0.11,-0.022 0.132,-0.022 0.664,-1.127 2.234,-2.342 1.239,-4.067" inkscape:connector-curvature="0" style="fill:#005395;fill-opacity:1" />

	<path id="path3210" d="m 295.884,104.986 c 0.421,-0.309 0.2,-0.176 0.266,-0.463 -0.087,0.154 -0.154,0.309 -0.266,0.463" inkscape:connector-curvature="0" style="fill:#005395;fill-opacity:1" />

	<path id="path3212" d="m 425.007,107.241 c -0.043,0.11 -0.087,0.177 -0.133,0.266 h 0.399 c -0.088,-0.089 -0.177,-0.155 -0.266,-0.266" inkscape:connector-curvature="0" style="fill:#005395;fill-opacity:1" />

	<path id="path3214" d="m 293.431,116.237 c -0.132,0.663 -0.309,1.348 -0.42,2.033 0.022,0.088 0.089,0.176 0.111,0.265 0.089,-0.022 0.133,-0.022 0.177,-0.022 0.176,-0.685 0.332,-1.393 0.508,-2.055 -0.11,-0.066 -0.243,-0.111 -0.376,-0.221" inkscape:connector-curvature="0" style="fill:#005395;fill-opacity:1" />

	<path id="path3216" d="m 679.34,120.127 c 0.154,0.176 0.311,0.397 0.443,0.596 v -0.442 c -0.133,-0.044 -0.289,-0.11 -0.443,-0.154" inkscape:connector-curvature="0" style="fill:#005395;fill-opacity:1" />

	<path id="path3218" d="m 347.008,117.607 c -0.11,0.222 -0.176,0.398 -0.265,0.575 0.265,-0.309 0.376,-0.199 0.265,-0.575" inkscape:connector-curvature="0" style="fill:#005395;fill-opacity:1" />

	<path id="path3220" d="m 360.181,117.342 c -0.486,0.42 -0.884,0.464 -1.126,1.171 0.929,0.088 1.502,-0.044 2.342,0 v -0.132 c -0.398,-0.354 -0.796,-0.73 -1.216,-1.039" inkscape:connector-curvature="0" style="fill:#005395;fill-opacity:1" />

	<path id="path3222" d="m 343.118,119.309 c -0.089,0.155 -0.177,0.288 -0.265,0.42 0.176,-0.11 0.353,-0.22 0.531,-0.309 -0.089,-0.067 -0.178,-0.067 -0.266,-0.111" inkscape:connector-curvature="0" style="fill:#005395;fill-opacity:1" />

	<path id="path3224" d="m 686.147,129.145 v 0.464 h 0.266 c -0.198,-0.442 0,-0.155 -0.266,-0.464" inkscape:connector-curvature="0" style="fill:#005395;fill-opacity:1" />

	<path id="path3226" d="m 675.097,128.57 c 0.133,0.309 0.266,0.664 0.42,1.017 -0.287,0.154 -0.574,0.309 -0.84,0.508 0.022,1.79 1.281,4.089 2.454,4.775 0.088,0.11 0.177,0.176 0.287,0.287 h 0.133 c -0.045,-2.033 -1.062,-5.791 -2.454,-6.587" inkscape:connector-curvature="0" style="fill:#005395;fill-opacity:1" />

	<path id="path3228" d="m 677.175,129.321 c -0.111,0.022 -0.198,0.044 -0.289,0.111 v 0.397 c 0.245,0.044 0.443,0.066 0.687,0.066 -0.2,-0.441 -0.09,-0.308 -0.398,-0.574" inkscape:connector-curvature="0" style="fill:#005395;fill-opacity:1" />

	<path id="path3230" d="m 286.58,137.654 c -0.021,0.089 -0.087,0.177 -0.133,0.288 0.133,0.176 0.266,0.332 0.398,0.485 h 0.111 c -0.045,-0.684 0.044,-0.573 -0.376,-0.773" inkscape:connector-curvature="0" style="fill:#005395;fill-opacity:1" />

	<path id="path3232" d="m 681.794,144.904 c -0.487,-3.25 -1.878,-6.697 -3.56,-8.952 -0.109,-0.044 -0.264,-0.133 -0.418,-0.199 -0.067,0.443 -0.178,0.863 -0.289,1.305 -0.551,0.31 -0.375,0.332 -1.105,0.043 0.111,1.636 1.769,3.161 2.322,4.509 0.507,1.039 0.132,2.321 0.441,3.117 0.574,0.332 0.685,0.818 1.79,0.995 -0.065,-0.376 -0.087,-0.796 -0.133,-1.172 0.331,0.044 0.377,0.089 0.797,0.354 h 0.155 z" inkscape:connector-curvature="0" style="fill:#005395;fill-opacity:1" />

	<path id="path3234" d="m 700.625,139.113 v 0.597 c 0.133,0.088 0.288,0.177 0.42,0.31 -0.132,-0.62 -0.089,-0.531 -0.42,-0.907" inkscape:connector-curvature="0" style="fill:#005395;fill-opacity:1" />

	<path id="path3236" d="m 701.863,140.24 c 0.089,0.177 0.176,0.354 0.264,0.575 h 0.178 c -0.243,-0.531 0,-0.287 -0.442,-0.575" inkscape:connector-curvature="0" style="fill:#005395;fill-opacity:1" />

	<path id="path3238" d="m 700.891,141.699 c 0.065,0.22 0.177,0.464 0.287,0.729 -0.222,-0.176 -0.376,-0.332 -0.553,-0.463 0.177,0.287 0.331,0.574 0.553,0.861 0.133,-0.132 0.266,-0.243 0.42,-0.353 -0.266,-0.287 -0.486,-0.554 -0.707,-0.774" inkscape:connector-curvature="0" style="fill:#005395;fill-opacity:1" />

	<path id="path3240" d="m 702.416,142.385 v 0.397 c 0.177,0.177 0.353,0.354 0.574,0.486 v -0.574 c -0.221,-0.111 -0.397,-0.199 -0.574,-0.309" inkscape:connector-curvature="0" style="fill:#005395;fill-opacity:1" />

	<path id="path3242" d="m 697.554,143.799 c 0.197,0.265 0.397,0.486 0.574,0.729 -0.177,-0.376 -0.222,-0.443 -0.574,-0.729" inkscape:connector-curvature="0" style="fill:#005395;fill-opacity:1" />

	<path id="path3244" d="m 703.785,146.716 v 0.42 c 0.2,0.089 0.376,0.244 0.576,0.332 -0.2,-0.288 -0.376,-0.487 -0.576,-0.752" inkscape:connector-curvature="0" style="fill:#005395;fill-opacity:1" />

	<path id="path3246" d="m 635.025,144.528 c 0.021,0.265 0.089,0.486 0.133,0.773 0.043,-0.288 0.11,-0.508 0.154,-0.796 -0.111,0.023 -0.198,0.023 -0.287,0.023" inkscape:connector-curvature="0" style="fill:#005395;fill-opacity:1" />

	<path id="path3248" d="m 700.316,148.706 v 1.105 c 0.176,0.177 0.287,0.331 0.441,0.486 0.133,0.066 0.266,0.11 0.398,0.155 0.043,-0.066 0.089,-0.177 0.109,-0.244 -0.308,-0.508 -0.617,-0.994 -0.948,-1.502" inkscape:connector-curvature="0" style="fill:#005395;fill-opacity:1" />

	<path id="path3250" d="m 702.967,149.479 c -0.198,-0.044 -0.353,-0.133 -0.574,-0.177 0.42,0.42 0.863,0.774 1.26,1.216 0.067,-0.088 0.178,-0.155 0.287,-0.266 -0.332,-0.265 -0.64,-0.53 -0.973,-0.773" inkscape:connector-curvature="0" style="fill:#005395;fill-opacity:1" />

	<path id="path3252" d="m 701.287,151.049 c 0.045,0.176 0.111,0.354 0.156,0.574 0.154,0.177 0.353,0.309 0.553,0.464 v -0.597 c -0.243,-0.132 -0.443,-0.287 -0.709,-0.441" inkscape:connector-curvature="0" style="fill:#005395;fill-opacity:1" />

	<path id="path3254" d="m 319.978,151.225 v 1.127 c 0.176,-0.022 0.375,-0.022 0.53,-0.044 v -0.155 c -0.156,-0.442 -0.178,-0.663 -0.53,-0.928" inkscape:connector-curvature="0" style="fill:#005395;fill-opacity:1" />

	<path id="path3256" d="m 706.57,157.612 c 0.134,0.288 0.287,0.575 0.376,0.863 0.065,-0.111 0.133,-0.199 0.198,-0.288 -0.242,-0.177 -0.396,-0.397 -0.574,-0.575" inkscape:connector-curvature="0" style="fill:#005395;fill-opacity:1" />

	<path id="path3258" d="m 503.206,396.827 c -0.045,0.178 -0.088,0.376 -0.133,0.574 0.221,-0.198 0.464,-0.396 0.707,-0.574 h -0.574 z" inkscape:connector-curvature="0" style="fill:#005395;fill-opacity:1" />

	<path id="path3260" d="m 498.697,397.07 c -0.133,0.11 -0.288,0.2 -0.442,0.287 0.088,0.111 0.199,0.177 0.309,0.287 h 0.686 v -0.131 c -0.177,-0.156 -0.376,-0.31 -0.553,-0.443" inkscape:connector-curvature="0" style="fill:#005395;fill-opacity:1" />

	<path id="path3262" d="m 499.825,397.227 v 0.287 c 0.088,-0.112 0.176,-0.178 0.286,-0.287 h -0.286 z" inkscape:connector-curvature="0" style="fill:#005395;fill-opacity:1" />

	<path id="path3264" d="m 477.324,410.817 c -0.043,0.156 -0.088,0.289 -0.11,0.465 0.264,-0.287 0.088,0 0.243,-0.465 h -0.133 z" inkscape:connector-curvature="0" style="fill:#005395;fill-opacity:1" />

	<path id="path3266" d="m 477.037,411.57 c -0.022,0.11 -0.089,0.265 -0.11,0.42 0.088,-0.111 0.177,-0.221 0.266,-0.31 -0.046,-0.023 -0.09,-0.088 -0.156,-0.11" inkscape:connector-curvature="0" style="fill:#005395;fill-opacity:1" />

	<path id="path3268" d="m 466.825,419.394 c -0.664,0.111 -1.326,0.177 -1.968,0.266 -0.75,1.724 -2.497,2.608 -3.934,3.581 v 0.153 c 0.265,0.112 0.486,0.2 0.707,0.311 1.349,-0.198 2.299,-0.73 3.095,-1.304 0,-0.243 0,-0.487 -0.023,-0.707 0.928,-0.133 1.503,-0.576 2.122,-1.018 v -1.282 z" inkscape:connector-curvature="0" style="fill:#005395;fill-opacity:1" />

	<path id="path3270" d="m 389.334,424.92 c 0.286,0.133 0.043,0.153 0.309,0 h -0.309 z" inkscape:connector-curvature="0" style="fill:#005395;fill-opacity:1" />

	<path id="path3272" d="m 388.847,429.098 c -0.043,0.109 -0.11,0.177 -0.154,0.287 0.111,0.044 0.2,0.111 0.288,0.154 0.066,-0.043 0.088,-0.11 0.133,-0.154 -0.067,-0.111 -0.178,-0.178 -0.267,-0.287" inkscape:connector-curvature="0" style="fill:#005395;fill-opacity:1" />

	<path id="path3274" d="m 424.764,439.109 c 0.155,0.707 0.11,0.885 0.707,1.127 v -0.109 c -0.242,-0.553 -0.021,-0.731 -0.707,-1.018" inkscape:connector-curvature="0" style="fill:#005395;fill-opacity:1" />

	<path id="path3276" d="m 393.732,442.69 c 0.244,0.42 0.022,0.044 0.443,0.287 0.044,-0.044 0.088,-0.111 0.133,-0.133 v -0.154 h -0.576 z" inkscape:connector-curvature="0" style="fill:#005395;fill-opacity:1" />

	<path id="path3278" d="m 391.235,445.982 c -0.288,-0.242 -0.266,-0.242 -0.863,-0.287 0.133,0.154 0.2,0.287 0.31,0.42 h 0.576 c 0,-0.065 -0.023,-0.088 -0.023,-0.133" inkscape:connector-curvature="0" style="fill:#005395;fill-opacity:1" />

	<path id="path3280" d="m 391.412,448.68 v 0.442 h 0.397 c -0.132,-0.133 -0.264,-0.288 -0.397,-0.442" inkscape:connector-curvature="0" style="fill:#005395;fill-opacity:1" />

	<path id="path3282" d="m 392.826,450.692 c -0.043,0.087 -0.087,0.175 -0.131,0.287 h 0.286 c -0.066,-0.112 -0.089,-0.2 -0.155,-0.287" inkscape:connector-curvature="0" style="fill:#005395;fill-opacity:1" />

	<path id="path3284" d="m 405.602,472.087 c -0.043,0.044 -0.089,0.109 -0.132,0.153 0.089,0.112 0.222,0.2 0.309,0.311 0.11,-0.067 0.265,-0.11 0.398,-0.154 -0.177,-0.112 -0.376,-0.201 -0.575,-0.31" inkscape:connector-curvature="0" style="fill:#005395;fill-opacity:1" />

	<path id="path3286" d="m 408.144,473.391 c -0.133,-0.044 -0.266,-0.089 -0.421,-0.154 -0.264,0.176 -0.574,0.353 -0.84,0.574 0.885,0.109 1.238,0.353 1.547,-0.42 h -0.286 z" inkscape:connector-curvature="0" style="fill:#005395;fill-opacity:1" />

	<path id="path3288" d="m 411.547,473.391 c -0.264,-0.044 -0.486,-0.089 -0.729,-0.154 -0.133,0.065 -0.288,0.11 -0.442,0.154 0.11,0.021 0.22,0.089 0.309,0.133 0.133,0.133 0.287,0.287 0.397,0.42 0.2,-0.089 0.376,-0.222 0.597,-0.287 -0.044,-0.112 -0.087,-0.178 -0.132,-0.266" inkscape:connector-curvature="0" style="fill:#005395;fill-opacity:1" />

	<path id="path3290" d="m 412.807,475.623 v -0.133 c -1.127,-0.089 -1.636,-0.065 -2.41,-0.553 -0.133,-0.95 0,-1.281 -0.973,-1.547 0.222,1.038 0.531,2.188 0.421,2.829 0.176,0.021 0.287,0.066 0.442,0.132 0.11,-0.332 0.265,-0.685 0.398,-0.994 0.088,0.067 0.176,0.109 0.287,0.133 0.265,0.686 0.641,1.236 1.26,1.547 -0.222,-0.331 -0.464,-0.642 -0.707,-0.973 v -0.154 c 0.442,-0.11 0.84,-0.177 1.282,-0.287" inkscape:connector-curvature="0" style="fill:#005395;fill-opacity:1" />

	<path id="path3292" d="m 410.574,477.744 c 0.045,0.088 0.089,0.177 0.155,0.31 0.023,-0.133 0.066,-0.222 0.111,-0.31 h -0.266 z" inkscape:connector-curvature="0" style="fill:#005395;fill-opacity:1" />

	<path id="path3294" d="m 419.415,480.706 c -0.044,0.53 -0.154,0.222 0.443,0.42 -0.155,-0.133 -0.31,-0.266 -0.443,-0.42" inkscape:connector-curvature="0" style="fill:#005395;fill-opacity:1" />

	<path id="path3296" d="m 423.505,480.86 c 0.331,0.465 1.038,0.42 1.68,0.553 0.065,-0.109 0.11,-0.198 0.132,-0.287 -0.597,-0.088 -1.193,-0.177 -1.812,-0.266" inkscape:connector-curvature="0" style="fill:#005395;fill-opacity:1" />

	<path id="path3298" d="m 418.288,481.126 c 0.31,0.707 0.73,0.95 1.57,1.105 -0.443,-0.507 -0.84,-0.839 -1.57,-1.105" inkscape:connector-curvature="0" style="fill:#005395;fill-opacity:1" />

	<path id="path3300" d="M 479.557,0 C 373.266,0 282.049,64.473 242.905,156.508 278.999,92.212 355.362,15.052 479.379,15.162 591.44,15.273 675.186,82.663 716.252,156.662 677.152,64.561 585.913,0 479.557,0" inkscape:connector-curvature="0" style="fill:#005395;fill-opacity:1" />

	<path id="path3302" d="m 724.718,335.073 c -33.31,101.893 -126.979,181.174 -245.714,181.174 -125.939,0 -210.547,-78.22 -244.563,-179.009 35.386,93.892 131.598,161.216 244.719,161.216 114.027,0 210.856,-68.384 245.558,-163.381" inkscape:connector-curvature="0" style="fill:#005395;fill-opacity:1" />

	<path id="path3304" d="m 1010.768,322.254 c -0.907,4.09 -4.001,6.631 -7.892,6.631 -5.703,0 -9.371,-4.155 -9.371,-9.682 0,-5.636 3.492,-9.613 9.284,-9.613 3.978,0 7.27,2.209 7.89,6.408 h -2.631 c -0.485,-2.363 -2.454,-4.088 -5.259,-4.088 -4.134,0 -6.41,3.161 -6.41,7.204 0,3.957 2.52,7.449 6.497,7.449 2.807,0 4.773,-1.834 5.172,-4.31 h 2.72 z m -8.379,10.41 c 7.295,0 12.909,-5.835 12.909,-13.55 0,-7.537 -5.614,-13.371 -12.909,-13.371 -7.381,0 -13.039,5.834 -13.039,13.371 0,7.715 5.658,13.55 13.039,13.55 m 0,-29.219 c 8.599,0 15.783,6.763 15.783,15.669 0,9.107 -7.185,15.87 -15.783,15.87 -8.686,0 -15.912,-6.763 -15.912,-15.87 0,-8.906 7.226,-15.669 15.912,-15.669" inkscape:connector-curvature="0" style="fill:#005395;fill-opacity:1" />

</g>
</svg>
