<?xml version="1.0" encoding="UTF-8" standalone="no"?>
<svg
   xmlns:dc="http://purl.org/dc/elements/1.1/"
   xmlns:cc="http://creativecommons.org/ns#"
   xmlns:rdf="http://www.w3.org/1999/02/22-rdf-syntax-ns#"
   xmlns:svg="http://www.w3.org/2000/svg"
   xmlns="http://www.w3.org/2000/svg"
   xmlns:xlink="http://www.w3.org/1999/xlink"
   viewBox="0 0 300 238.649"
   height="238.649"
   width="300"
   xml:space="preserve"
   version="1.1"
   id="svg2"><metadata
     id="metadata8"><rdf:RDF><cc:Work
         rdf:about=""><dc:format>image/svg+xml</dc:format><dc:type
           rdf:resource="http://purl.org/dc/dcmitype/StillImage" /><dc:title></dc:title></cc:Work></rdf:RDF></metadata><defs
     id="defs6"><clipPath
       clipPathUnits="userSpaceOnUse"
       id="clipPath4242"><path
         d="m 6.827,6.827 1218.898,0 0,1712.126 -1218.898,0 0,-1712.126 z"
         id="path4244" /></clipPath><clipPath
       clipPathUnits="userSpaceOnUse"
       id="clipPath4318"><path
         d="m 6.827,6.827 1218.898,0 0,1712.126 -1218.898,0 0,-1712.126 z"
         id="path4320" /></clipPath><clipPath
       clipPathUnits="userSpaceOnUse"
       id="clipPath4340"><path
         d="m 1127.2872,131.54814 12.3278,32.01726 42.7554,-16.36235 -12.3278,-32.01725 -42.7554,16.36234 z"
         id="path4342" /></clipPath><linearGradient
       x1="0"
       y1="0"
       x2="1"
       y2="0"
       gradientUnits="userSpaceOnUse"
       gradientTransform="matrix(9.0356598,23.467056,23.538681,-9.0081635,1131.2447,138.55777)"
       spreadMethod="pad"
       id="linearGradient4344"><stop
         style="stop-opacity:1;stop-color:#ee2722"
         offset="0"
         id="stop4346" /><stop
         style="stop-opacity:1;stop-color:#f4694f"
         offset="1"
         id="stop4348" /></linearGradient><clipPath
       clipPathUnits="userSpaceOnUse"
       id="clipPath4356"><path
         d="m 6.827,6.827 1218.898,0 0,1712.126 -1218.898,0 0,-1712.126 z"
         id="path4358" /></clipPath><clipPath
       clipPathUnits="userSpaceOnUse"
       id="clipPathZ"><use
         height="100%"
         width="100%"
         y="0"
         x="0"
         xlink:href="#path4358"
         transform="matrix(1.404664,0,0,-1.408953,-1641.3436,192.08354)"
         id="useg" /></clipPath><clipPath
       clipPathUnits="userSpaceOnUse"
       id="clipPath7s"><use
         height="100%"
         width="100%"
         y="0"
         x="0"
         xlink:href="#path4342"
         id="useCY" /></clipPath><clipPath
       clipPathUnits="userSpaceOnUse"
       id="clipPathnm"><use
         height="100%"
         width="100%"
         y="0"
         x="0"
         xlink:href="#path4320"
         transform="matrix(1.404664,0,0,-1.408953,-1638.1918,169.61155)"
         id="use83" /></clipPath><clipPath
       clipPathUnits="userSpaceOnUse"
       id="clipPathA"><use
         height="100%"
         width="100%"
         y="0"
         x="0"
         xlink:href="#path4244"
         transform="matrix(1.404664,0,0,-1.408953,-1625.922,156.73854)"
         id="usen" /></clipPath><clipPath
       clipPathUnits="userSpaceOnUse"
       id="clipPathOq"><use
         height="100%"
         width="100%"
         y="0"
         x="0"
         xlink:href="#path4244"
         transform="matrix(1.404664,0,0,-1.408953,-1617.8427,154.39162)"
         id="useJi" /></clipPath><clipPath
       clipPathUnits="userSpaceOnUse"
       id="clipPathcX"><use
         height="100%"
         width="100%"
         y="0"
         x="0"
         xlink:href="#path4244"
         transform="matrix(1.404664,0,0,-1.408953,-1604.2001,163.37462)"
         id="usehH" /></clipPath><clipPath
       clipPathUnits="userSpaceOnUse"
       id="clipPathN4"><use
         height="100%"
         width="100%"
         y="0"
         x="0"
         xlink:href="#path4244"
         transform="matrix(1.404664,0,0,-1.408953,-1595.7319,163.93433)"
         id="usesE" /></clipPath><clipPath
       clipPathUnits="userSpaceOnUse"
       id="clipPathv6"><use
         height="100%"
         width="100%"
         y="0"
         x="0"
         xlink:href="#path4244"
         transform="matrix(1.404664,0,0,-1.408953,-1588.2649,157.16303)"
         id="useW" /></clipPath></defs><g
     transform="matrix(4.6563317,0,0,4.6563317,-6543.8378,-9169.3026)"
     id="g12440"><path
       clip-path="url(#clipPathv6)"
       transform="matrix(0.889893,0,0,0.887184,1413.385,2017.7925)"
       id="path4292"
       style="fill:#000000;fill-opacity:1;fill-rule:nonzero;stroke:none"
       d="m 0,0 c -0.444,1.106 -0.684,1.439 -1.356,1.952 -0.81,0.634 -1.336,0.82 -2.438,0.82 l -2.95,0 c -0.418,0 -0.751,-0.017 -1.02,-0.063 C -8.626,2.557 -9.16,1.817 -8.979,1.03 -8.941,0.879 -8.765,0.412 -8.466,-0.315 l 2.071,-5.123 c 0.568,-1.379 0.879,-1.787 1.807,-2.271 0.687,-0.361 0.984,-0.42 2.237,-0.42 l 4.866,0 -0.944,2.359 -4.305,0 -0.465,0 c -0.292,0.013 -0.544,0.194 -0.641,0.45 l -0.164,0.349 -1.838,4.55 c -0.084,0.211 -0.147,0.362 -0.16,0.409 -0.05,0.227 0.114,0.437 0.383,0.437 l 0.368,0 1.663,0 c 0.568,0 0.905,-0.151 1.031,-0.484 l 0.118,-0.286 1.278,-3.146 2.587,0 L 0,0 Z" /><path
       clip-path="url(#clipPathN4)"
       transform="matrix(0.889893,0,0,0.887184,1420.0299,2011.7851)"
       id="path4296"
       style="fill:#000000;fill-opacity:1;fill-rule:nonzero;stroke:none"
       d="m 0,0 c 0.7,-0.938 1.638,-1.468 2.61,-1.468 1.017,0 1.526,0.518 1.457,1.468 l -0.558,9.543 -2.7,0 0.139,-2.347 -3.663,0 -1.762,2.347 -2.7,0 L 0,0 Z m -1.037,4.975 2.103,0 0.214,-3.524 -2.317,3.524 z" /><path
       clip-path="url(#clipPathcX)"
       transform="matrix(0.889893,0,0,0.887184,1427.5656,2012.2817)"
       id="path4300"
       style="fill:#000000;fill-opacity:1;fill-rule:nonzero;stroke:none"
       d="m 0,0 c 0.505,-1.253 1.707,-2.056 3.142,-2.056 1.118,0 1.709,0.546 1.558,1.421 L 3.638,5.669 7.864,-0.635 c 0.587,-0.875 1.615,-1.421 2.665,-1.421 1.318,0 1.894,0.605 1.64,1.711 C 12.142,-0.24 12.112,-0.105 12.07,0 L 8.424,8.983 5.959,8.983 9.13,1.182 4.571,7.755 C 3.894,8.735 3.133,9.223 2.263,9.223 1.434,9.223 1.043,8.735 1.173,7.755 L 1.979,1.182 -1.18,8.983 -3.651,8.983 0,0 Z" /><path
       clip-path="url(#clipPathOq)"
       transform="matrix(0.889893,0,0,0.887184,1439.7061,2020.2513)"
       id="path4304"
       style="fill:#000000;fill-opacity:1;fill-rule:nonzero;stroke:none"
       d="m 0,0 c -1.651,0 -2.38,-0.593 -2.111,-1.758 0.038,-0.181 0.092,-0.332 0.168,-0.513 l 2.549,-6.258 c 0.597,-1.497 1.884,-2.372 3.455,-2.372 l 5.347,0 -0.942,2.359 -4.218,0 -0.452,0 c -0.116,0 -0.229,0.043 -0.36,0.101 -0.244,0.122 -0.408,0.337 -0.532,0.593 l -0.482,1.194 5.27,0 -0.963,2.36 -5.253,0 -0.492,1.207 c -0.033,0.059 -0.048,0.135 -0.067,0.21 -0.084,0.366 0.046,0.53 0.425,0.53 l 0.385,0 4.22,0 L 4.984,0 0,0 Z" /><path
       clip-path="url(#clipPathA)"
       transform="matrix(0.889893,0,0,0.887184,1446.8958,2018.1691)"
       id="path4308"
       style="fill:#000000;fill-opacity:1;fill-rule:nonzero;stroke:none"
       d="m 0,0 4.184,0 c 0.653,0 0.995,-0.193 1.17,-0.635 L 5.682,-1.421 5.715,-1.556 C 5.762,-1.766 5.606,-1.947 5.337,-1.947 l -0.284,0 -1.87,0 c -1.198,0 -1.888,-0.757 -1.644,-1.817 0.029,-0.122 0.065,-0.21 0.109,-0.332 L 2.58,-6.392 C 2.847,-7.103 3.554,-7.86 4.235,-8.209 4.668,-8.42 5.265,-8.554 5.917,-8.554 l 5.236,0 -0.965,2.359 -4.168,0 c -0.65,0 -1.003,0.147 -1.159,0.526 l -0.302,0.74 -0.032,0.139 c -0.08,0.345 0.09,0.483 0.639,0.483 l 1.851,0 c 1.352,0 1.92,0.636 1.651,1.801 -0.032,0.134 -0.074,0.239 -0.116,0.357 L 7.66,0.047 c -0.578,1.421 -1.915,2.3 -3.518,2.3 l -5.099,0 L 0,0 Z" /><path
       transform="matrix(0.889893,0,0,0.887184,1409.9716,2016.1916)"
       id="path4312"
       style="fill:#000000;fill-opacity:1;fill-rule:nonzero;stroke:none"
       d="m 0,0 0.886,-2.2 4.573,0 L 4.58,0 0,0 Z" /><path
       clip-path="url(#clipPathnm)"
       transform="matrix(0.889893,0,0,0.887184,1457.8146,2006.7484)"
       id="path4324"
       style="fill:#ee2722;fill-opacity:1;fill-rule:nonzero;stroke:none"
       d="m 0,0 c -0.322,0.9 -1.479,1.632 -2.584,1.632 l -49.891,0 C -53.582,1.632 -54.217,0.9 -53.901,0 l 15.346,-40.678 c 0.324,-0.9 1.48,-1.632 2.586,-1.632 l 47.919,0 c 1.104,0 1.745,0.732 1.428,1.632 L 0,0 Z" /><path
       clip-path="url(#clipPath7s)"
       transform="matrix(1.25,0,0,-1.25,0,2157.225)"
       id="path4350"
       style="fill:url(#linearGradient4344);stroke:none"
       d="m 1142.567,149.667 c 0,0 -2.992,-0.073 -3.839,-2.357 l 0,0 c -0.842,-2.279 -4.372,-11.903 -4.372,-11.903 l 0,0 c 0,0 4.042,-6.564 17.49,-6.564 l 0,0 c 13.443,0 18.648,7.394 18.648,7.394 l 0,0 4.123,11.718 c 0,0 0.684,1.953 -1.32,1.953 l 0,0 -30.73,-0.241 z" /><path
       clip-path="url(#clipPathZ)"
       transform="matrix(0.889893,0,0,0.887184,1460.6194,1986.8116)"
       id="path4362"
       style="fill:#ffffff;fill-opacity:1;fill-rule:nonzero;stroke:none"
       d="M 0,0 -11.12,0 -21.31,7.495 -18.9,0 -36.692,0 c 0.776,-0.799 1.912,-1.287 3.855,-1.623 l 8.152,-1.443 c 3.249,-0.576 7.932,-2.203 9.225,-6.241 1.897,-5.942 -4.262,-7.17 -11.245,-7.17 -5.421,0 -12.752,0.979 -15.734,8.301 l 9.19,0 c 1.131,-2.758 3.553,-2.973 5.879,-2.973 1.994,0 3.337,0.492 2.944,1.712 -0.284,0.891 -1.043,1.442 -2.181,1.657 l -6.71,1.35 c -5.438,1.102 -11.41,3.579 -14.177,11.759 l 18.492,0 -5.087,15.906 8.389,0 1.823,-5.707 3.545,-2.443 3.194,8.15 11.149,0 L -12.112,8.209 0,0 Z" /></g></svg>