<?xml version="1.0" encoding="UTF-8" standalone="no"?>
<svg
   xmlns:dc="http://purl.org/dc/elements/1.1/"
   xmlns:cc="http://creativecommons.org/ns#"
   xmlns:rdf="http://www.w3.org/1999/02/22-rdf-syntax-ns#"
   xmlns:svg="http://www.w3.org/2000/svg"
   xmlns="http://www.w3.org/2000/svg"
   xmlns:xlink="http://www.w3.org/1999/xlink"
   viewBox="0 0 300 238.248"
   height="238.248"
   width="300"
   xml:space="preserve"
   version="1.1"
   id="svg2"><metadata
     id="metadata8"><rdf:RDF><cc:Work
         rdf:about=""><dc:format>image/svg+xml</dc:format><dc:type
           rdf:resource="http://purl.org/dc/dcmitype/StillImage" /><dc:title></dc:title></cc:Work></rdf:RDF></metadata><defs
     id="defs6"><clipPath
       clipPathUnits="userSpaceOnUse"
       id="clipPath622"><path
         d="m 0,0 668.976,0 0,413.858 L 0,413.858 0,0 Z"
         id="path624" /></clipPath><linearGradient
       x1="0"
       y1="0"
       x2="1"
       y2="0"
       gradientUnits="userSpaceOnUse"
       gradientTransform="matrix(8.8171539,22.969452,22.969452,-8.8171539,608.49646,45.506348)"
       spreadMethod="pad"
       id="linearGradient666"><stop
         style="stop-opacity:1;stop-color:#ee2722"
         offset="0"
         id="stop668" /><stop
         style="stop-opacity:1;stop-color:#f4694f"
         offset="1"
         id="stop670" /></linearGradient><clipPath
       clipPathUnits="userSpaceOnUse"
       id="clipPath678"><path
         d="m 0,0 668.976,0 0,413.858 L 0,413.858 0,0 Z"
         id="path680" /></clipPath><clipPath
       clipPathUnits="userSpaceOnUse"
       id="clipPath"><use
         height="100%"
         width="100%"
         y="0"
         x="0"
         xlink:href="#path680"
         transform="translate(-646.8606,-42.9747)"
         id="use" /></clipPath><clipPath
       clipPathUnits="userSpaceOnUse"
       id="clipPathm"><use
         height="100%"
         width="100%"
         y="0"
         x="0"
         xlink:href="#path624"
         transform="translate(-644.4323,-25.6581)"
         id="useS" /></clipPath><clipPath
       clipPathUnits="userSpaceOnUse"
       id="clipPathh"><use
         height="100%"
         width="100%"
         y="0"
         x="0"
         xlink:href="#path624"
         transform="translate(-639.2179,-22.71)"
         id="user" /></clipPath><clipPath
       clipPathUnits="userSpaceOnUse"
       id="clipPathY"><use
         height="100%"
         width="100%"
         y="0"
         x="0"
         xlink:href="#path624"
         transform="translate(-630.0842,-22.71)"
         id="usek" /></clipPath><clipPath
       clipPathUnits="userSpaceOnUse"
       id="clipPathU"><use
         height="100%"
         width="100%"
         y="0"
         x="0"
         xlink:href="#path624"
         transform="translate(-623.0941,-22.71)"
         id="usef" /></clipPath><clipPath
       clipPathUnits="userSpaceOnUse"
       id="clipPathK"><use
         height="100%"
         width="100%"
         y="0"
         x="0"
         xlink:href="#path624"
         transform="translate(-617.5948,-22.71)"
         id="useW" /></clipPath><clipPath
       clipPathUnits="userSpaceOnUse"
       id="clipPathN"><use
         height="100%"
         width="100%"
         y="0"
         x="0"
         xlink:href="#path624"
         transform="translate(-608.889,-22.71)"
         id="useM" /></clipPath><clipPath
       clipPathUnits="userSpaceOnUse"
       id="clipPathU5"><use
         height="100%"
         width="100%"
         y="0"
         x="0"
         xlink:href="#path624"
         transform="translate(-603.7304,-22.71)"
         id="useJ" /></clipPath></defs><g
     transform="matrix(4.3231269,0,0,4.3231269,-3238.4957,-1921.6132)"
     id="g4216"><path
       clip-path="url(#clipPathU5)"
       transform="matrix(1.25,0,0,-1.25,754.663,488.935)"
       id="path628"
       style="fill:#231f20;fill-opacity:1;fill-rule:nonzero;stroke:none"
       d="m 0,0 c -0.97,0 -1.986,-0.675 -2.31,-1.538 l -0.561,-1.501 c -0.04,-0.108 -0.073,-0.223 -0.089,-0.344 -0.061,-0.483 0.162,-1.015 1.206,-1.305 l 1.17,-0.322 1.052,-0.286 c 0.188,-0.052 0.228,-0.092 0.237,-0.1 -0.009,-0.002 -0.02,-0.049 -0.02,-0.049 L 0.246,-6.613 C 0.194,-6.748 -0.011,-6.9 -0.222,-6.9 l -2.024,0 c -0.094,0 -0.146,0.03 -0.162,0.057 -0.003,0.007 -0.018,0.029 10e-4,0.081 0,0.002 0.447,1.185 0.447,1.185 l -1.902,0 -0.48,-1.274 c -0.155,-0.41 -0.13,-0.812 0.067,-1.123 0.226,-0.357 0.657,-0.563 1.183,-0.563 l 2.788,0 c 0.969,0 1.983,0.674 2.308,1.538 l 0.616,1.644 c 0.036,0.096 0.07,0.215 0.085,0.338 0.058,0.454 -0.12,1.025 -1.189,1.313 l -0.894,0.24 -1.352,0.366 c -0.19,0.057 -0.212,0.1 -0.214,0.102 0.002,0 0.015,0.064 0.015,0.064 l 0.381,1.012 c 0.056,0.149 0.271,0.284 0.453,0.284 l 1.956,0 c 0.094,0 0.143,-0.03 0.159,-0.056 0.006,-0.009 0.02,-0.026 -10e-4,-0.082 l -0.462,-1.232 1.903,0 0.497,1.32 C 4.111,-1.271 4.086,-0.87 3.888,-0.559 3.662,-0.204 3.231,0 2.708,0 L 0,0 Z m -1.754,-4.688 z" /><path
       clip-path="url(#clipPathN)"
       transform="matrix(1.25,0,0,-1.25,761.11125,488.935)"
       id="path632"
       style="fill:#231f20;fill-opacity:1;fill-rule:nonzero;stroke:none"
       d="m 0,0 -3.201,-8.537 1.905,0 c 0,0 1.047,2.794 1.192,3.182 l 2.864,0 c 0.971,0 1.985,0.675 2.307,1.538 l 0.802,2.133 c 0.044,0.123 0.074,0.24 0.089,0.356 C 5.994,-1.045 5.939,-0.78 5.799,-0.559 5.574,-0.204 5.143,0 4.619,0 L 0,0 Z m 3.767,-1.648 c 0.1,0 0.154,-0.028 0.168,-0.053 C 3.947,-1.717 3.939,-1.75 3.931,-1.774 L 3.309,-3.427 C 3.251,-3.585 3.047,-3.706 2.845,-3.706 l -2.33,0 c 0.185,0.495 0.652,1.738 0.772,2.058 l 2.48,0 z" /><path
       clip-path="url(#clipPathK)"
       transform="matrix(1.25,0,0,-1.25,771.9935,488.935)"
       id="path636"
       style="fill:#231f20;fill-opacity:1;fill-rule:nonzero;stroke:none"
       d="m 0,0 c -0.963,0 -1.972,-0.675 -2.292,-1.538 l -1.996,-5.313 c -0.157,-0.414 -0.133,-0.818 0.068,-1.131 0.222,-0.355 0.648,-0.555 1.166,-0.555 l 3.067,0 c 0.971,0 1.984,0.674 2.309,1.538 l 1.995,5.315 C 4.468,-1.271 4.442,-0.87 4.245,-0.559 4.019,-0.204 3.588,0 3.066,0 L 0,0 Z m -2.352,-6.831 c -0.005,0.004 -0.013,0.021 0.002,0.069 0,0.002 1.813,4.842 1.813,4.842 0.058,0.149 0.271,0.272 0.464,0.272 l 2.298,0 c 0.091,0 0.141,-0.026 0.156,-0.046 0.013,-0.021 0.004,-0.056 -0.007,-0.08 L 0.561,-6.613 C 0.503,-6.765 0.303,-6.887 0.112,-6.887 l -2.296,0 c -0.099,0 -0.154,0.032 -0.168,0.056" /><path
       clip-path="url(#clipPathU)"
       transform="matrix(1.25,0,0,-1.25,778.86762,488.935)"
       id="path640"
       style="fill:#231f20;fill-opacity:1;fill-rule:nonzero;stroke:none"
       d="m 0,0 -3.202,-8.537 1.908,0 c 0,0 1.056,2.816 1.202,3.207 l 1.649,0 c 0.067,-0.365 0.589,-3.207 0.589,-3.207 l 2.037,0 c 0,0 -0.528,2.868 -0.614,3.34 0.761,0.237 1.369,0.744 1.619,1.401 l 0.791,2.112 c 0.047,0.123 0.076,0.243 0.092,0.362 C 6.106,-1.038 6.05,-0.775 5.913,-0.556 5.686,-0.201 5.256,0 4.727,0 L 0,0 Z m 3.879,-1.648 c 0.101,0 0.15,-0.028 0.17,-0.053 C 4.052,-1.709 4.052,-1.718 4.052,-1.733 4.05,-1.748 4.043,-1.763 4.041,-1.774 L 3.424,-3.42 C 3.363,-3.571 3.161,-3.692 2.962,-3.692 l -2.441,0 c 0.185,0.493 0.649,1.724 0.767,2.044 l 2.591,0 z" /><path
       clip-path="url(#clipPathY)"
       transform="matrix(1.25,0,0,-1.25,787.60525,488.935)"
       id="path644"
       style="fill:#231f20;fill-opacity:1;fill-rule:nonzero;stroke:none"
       d="m 0,0 -0.617,-1.648 2.598,0 C 1.732,-2.315 -0.604,-8.537 -0.604,-8.537 l 1.901,0 c 0,0 2.427,6.467 2.585,6.889 l 2.6,0 L 7.1,0 0,0 Z" /><path
       clip-path="url(#clipPathh)"
       transform="matrix(1.25,0,0,-1.25,799.02237,488.935)"
       id="path648"
       style="fill:#231f20;fill-opacity:1;fill-rule:nonzero;stroke:none"
       d="m 0,0 c -0.975,0 -1.989,-0.675 -2.315,-1.538 l -0.56,-1.499 c -0.041,-0.11 -0.073,-0.225 -0.087,-0.345 -0.063,-0.484 0.158,-1.016 1.202,-1.306 0.003,0 2.222,-0.608 2.222,-0.608 0.189,-0.052 0.23,-0.092 0.238,-0.1 C 0.692,-5.398 0.682,-5.445 0.682,-5.445 L 0.241,-6.613 C 0.191,-6.748 -0.014,-6.9 -0.226,-6.9 l -2.024,0 c -0.091,0 -0.146,0.03 -0.162,0.057 -0.003,0.007 -0.018,0.029 0.002,0.081 0,0.002 0.444,1.185 0.444,1.185 l -1.901,0 -0.48,-1.274 c -0.157,-0.413 -0.128,-0.812 0.067,-1.125 0.229,-0.355 0.658,-0.561 1.182,-0.561 l 2.788,0 c 0.975,0 1.987,0.674 2.312,1.538 l 0.614,1.644 c 0.036,0.096 0.071,0.215 0.086,0.338 0.053,0.452 -0.118,1.025 -1.189,1.313 l -0.851,0.229 -1.394,0.377 c -0.191,0.057 -0.214,0.102 -0.214,0.102 l 0.012,0.064 0.382,1.012 c 0.055,0.149 0.272,0.284 0.451,0.284 l 1.958,0 c 0.089,0 0.145,-0.03 0.162,-0.056 0.002,-0.009 0.016,-0.029 -0.004,-0.082 l -0.463,-1.232 1.905,0 0.497,1.32 c 0.157,0.415 0.13,0.813 -0.07,1.127 C 3.657,-0.204 3.227,0 2.704,0 L 0,0 Z m -1.76,-4.688 z m 0,0 z" /><path
       clip-path="url(#clipPathm)"
       transform="matrix(1.25,0,0,-1.25,805.54038,485.24987)"
       id="path652"
       style="fill:#ee2722;fill-opacity:1;fill-rule:nonzero;stroke:none"
       d="m 0,0 c -0.246,-0.693 -1.138,-1.256 -1.99,-1.256 l -38.444,0 c -0.855,0 -1.344,0.563 -1.1,1.256 l 11.826,31.346 c 0.249,0.692 1.139,1.257 1.992,1.257 l 36.926,0 c 0.848,0 1.343,-0.565 1.098,-1.257 L 0,0 Z" /><path
       transform="matrix(1.25,0,0,-1.25,0,517.3225)"
       id="path672"
       style="fill:url(#linearGradient666);stroke:none"
       d="m 618.792,57.46 c 0,0 -3.239,-0.077 -4.155,-2.556 l 0,0 C 613.725,52.429 609.904,41.98 609.904,41.98 l 0,0 c 0,0 4.375,-7.127 18.932,-7.127 l 0,0 c 14.549,0 20.183,8.028 20.183,8.028 l 0,0 4.464,12.723 c 0,0 0.74,2.119 -1.429,2.119 l 0,0 -33.262,-0.263 z" /><path
       clip-path="url(#clipPath)"
       transform="matrix(1.25,0,0,-1.25,808.57575,463.60412)"
       id="path684"
       style="fill:#ffffff;fill-opacity:1;fill-rule:nonzero;stroke:none"
       d="M 0,0 -8.569,0 -16.42,-5.775 -14.562,0 -28.272,0 c 0.597,0.615 1.472,0.991 2.97,1.251 l 6.282,1.11 c 2.503,0.445 6.111,1.7 7.108,4.812 1.461,4.578 -3.285,5.524 -8.665,5.524 -4.178,0 -9.827,-0.756 -12.124,-6.398 l 7.08,0 c 0.873,2.125 2.738,2.291 4.531,2.291 1.537,0 2.573,-0.376 2.269,-1.318 -0.218,-0.687 -0.804,-1.111 -1.681,-1.278 l -5.17,-1.039 c -4.189,-0.849 -8.792,-2.758 -10.924,-9.063 l 14.25,0 -3.92,-12.255 6.462,0 1.406,4.397 2.731,1.884 2.462,-6.281 8.591,0 L -9.331,-6.325 0,0 Z" /></g></svg>