<?xml version="1.0" encoding="UTF-8" standalone="no"?>
<svg
   xmlns:dc="http://purl.org/dc/elements/1.1/"
   xmlns:cc="http://creativecommons.org/ns#"
   xmlns:rdf="http://www.w3.org/1999/02/22-rdf-syntax-ns#"
   xmlns:svg="http://www.w3.org/2000/svg"
   xmlns="http://www.w3.org/2000/svg"
   xmlns:sodipodi="http://sodipodi.sourceforge.net/DTD/sodipodi-0.dtd"
   xmlns:inkscape="http://www.inkscape.org/namespaces/inkscape"
   width="861.00238"
   height="80.471024"
   version="1.1"
   id="svg26"
   sodipodi:docname="Civilization_VI.svg"
   inkscape:version="0.92.2 5c3e80d, 2017-08-06">
  <metadata
     id="metadata32">
    <rdf:RDF>
      <cc:Work
         rdf:about="">
        <dc:format>image/svg+xml</dc:format>
        <dc:type
           rdf:resource="http://purl.org/dc/dcmitype/StillImage" />
      </cc:Work>
    </rdf:RDF>
  </metadata>
  <defs
     id="defs30" />
  <sodipodi:namedview
     pagecolor="#ffffff"
     bordercolor="#666666"
     borderopacity="1"
     objecttolerance="10"
     gridtolerance="10"
     guidetolerance="10"
     inkscape:pageopacity="0"
     inkscape:pageshadow="2"
     inkscape:window-width="1680"
     inkscape:window-height="951"
     id="namedview28"
     showgrid="false"
     inkscape:zoom="0.93685913"
     inkscape:cx="507"
     inkscape:cy="55.5"
     inkscape:window-x="0"
     inkscape:window-y="0"
     inkscape:window-maximized="0"
     inkscape:current-layer="svg26" />
  <path
     d="m 59.973443,3.08716 -0.06329,13.34636 -1.165644,-0.06329 c -2.728087,-2.36901 -3.004383,-2.69962 -6.145136,-3.77654 -3.140872,-1.07679 -7.616465,-2.39531 -11.545466,-2.37474 -5.139218,0.02689 -10.580437,0.75997 -15.068386,3.26409 -4.410934,2.46114 -8.073155,6.49263 -10.507806,10.91824 -2.688146,4.8864 -3.706637,10.68219 -3.971133,16.25292 -0.209484,4.41208 0.420019,8.95492 1.911416,13.11256 1.300404,3.62521 3.311288,7.10965 5.980782,9.88579 2.67052,2.77722 6.034853,5.0272 9.64774,6.36571 3.795239,1.40608 8.03403,2.07028 12.045171,1.53026 6.546746,-0.88137 12.842815,-2.36717 18.298929,-7.60786 l 1.127862,1.00033 -1.875046,11.7188 C 51.859208,79.17245 46.623523,80.20567 40.426684,80.42878 34.947554,80.62604 29.262326,80.16983 24.121822,78.26326 19.319159,76.482 14.865753,73.49556 11.253436,69.86381 7.6461449,66.23711 4.8104149,61.72743 2.9347461,56.96851 0.90868245,51.828 0.01937695,46.17954 3.2534987e-4,40.6542 -0.01857765,35.172 0.78473455,29.5459 2.8001431,24.44757 4.6676885,19.72328 7.5841499,15.30809 11.175503,11.71521 c 3.47123,-3.47272 7.715656,-6.34975 12.30304,-8.10047 4.742264,-1.80985 9.990729,-2.05561 15.063656,-2.22881 2.123136,-0.07249 4.252287,0.1873 6.353424,0.50064 3.114562,0.46447 6.114388,1.54502 9.224565,2.03799 1.158113,0.18357 2.689526,0.48605 3.50119,0.34053 0.88915,-0.20987 1.024831,-0.98364 1.107074,-1.36779 z"
     id="C"
     style="fill:#2f1c0d"
     inkscape:connector-curvature="0" />
  <path
     d="M 86.31664,4.4361 V 3.15407 h 24.92268 V 4.4361 c -1.50429,0.27357 -3.66669,0.92313 -4.48717,1.94869 -0.78635,1.02568 -1.35044,2.61539 -1.69228,4.76914 -0.3419,2.15388 -0.51281,5.23074 -0.51281,9.23062 V 59.2557 c 0,3.93157 0.17091,6.96572 0.51281,9.1024 0.34184,2.13674 0.90593,3.73502 1.69228,4.7948 0.82048,1.05984 2.98288,1.74359 4.48717,2.05126 v 1.28203 c -0.85473,-0.0342 -2.41024,-0.0684 -4.6666,-0.10258 -2.25639,0 -5.19651,0 -8.82037,0 -5.846062,0 -9.657957,0.0342 -11.43571,0.10258 v -1.28203 c 2.222169,-0.47862 4.726746,-1.81193 5.513052,-3.99992 0.786296,-2.188 1.179469,-6.17083 1.179469,-11.94854 V 20.38455 c 0,-5.84599 -0.393173,-9.88012 -1.179469,-12.10237 C 91.043386,6.06008 88.538809,4.77806 86.31664,4.4361 Z"
     id="I1"
     style="fill:#2f1c0d"
     inkscape:connector-curvature="0" />
  <path
     d="m 170.02158,56.89112 19.11545,-43.56056 c 1.01981,-2.00678 1.52975,-3.66819 1.5298,-4.98422 -5e-5,-1.80938 -0.88832,-2.9444 -2.66482,-3.40506 V 3.70757 h 18.09345 v 1.23371 c -1.51342,0.62515 -2.68135,1.52988 -3.50374,2.71419 -0.82257,1.15154 -2.07274,3.75055 -3.75052,7.79707 L 170.71246,77.0397 h -1.9246 L 140.01759,13.52796 c -1.18438,-2.76346 -2.2536,-4.74563 -3.20767,-5.94652 -0.95408,-1.20075 -2.0891,-2.0808 -3.40506,-2.64016 V 3.70757 h 19.42587 v 1.23371 c -1.94107,0.65806 -2.91159,1.90823 -2.91157,3.75051 -2e-5,0.65803 0.13157,1.39827 0.39479,2.22068 z"
     id="V1"
     style="font-style:normal;font-variant:normal;font-weight:normal;font-stretch:normal;font-size:144px;line-height:125%;font-family:Elan-Medium;-inkscape-font-specification:Elan-Medium;letter-spacing:0px;word-spacing:0px;fill:#2f1c0d;fill-opacity:1;stroke:none"
     inkscape:connector-curvature="0" />
  <path
     d="M 228.41799,4.4361 V 3.15407 h 24.92267 V 4.4361 c -1.50428,0.27357 -3.66702,0.92313 -4.48748,1.94869 -0.78634,1.02568 -1.35044,2.6154 -1.69229,4.76914 -0.34189,2.15388 -0.5128,5.23075 -0.5128,9.23062 V 59.2557 c 0,3.93158 0.17091,6.96572 0.5128,9.10242 0.34185,2.13672 0.90595,3.73499 1.69229,4.79479 0.82046,1.05982 2.9832,1.74357 4.48748,2.05125 v 1.28203 c -0.85471,-0.0342 -2.41024,-0.0684 -4.66659,-0.10257 -2.25639,0 -5.19651,0 -8.82037,0 -5.84607,0 -9.65796,0.0342 -11.43571,0.10257 v -1.28203 c 2.22218,-0.47861 4.72742,-1.81193 5.51374,-3.99992 0.78631,-2.188 1.17947,-6.17084 1.17947,-11.94854 V 20.38455 c 0,-5.84599 -0.39316,-9.88012 -1.17947,-12.10236 -0.78632,-2.22212 -3.29156,-3.50414 -5.51374,-3.84609 z"
     id="I2"
     style="fill:#2f1c0d"
     inkscape:connector-curvature="0" />
  <path
     d="m 330.01744,61.65324 -1.58973,14.83295 h -41.30673 v -1.28203 c 1.43588,-0.27349 2.57261,-0.93161 3.4102,-1.97433 0.83759,-1.04271 1.42731,-2.65807 1.7692,-4.84607 0.37606,-2.18799 0.56409,-5.23067 0.56409,-9.12806 V 20.38455 c 0,-5.77763 -0.4188,-9.79465 -1.25639,-12.05109 -0.83759,-2.25629 -2.33329,-3.55542 -4.4871,-3.89737 V 3.15407 c 2.73498,7e-5 5.17939,0.01716 7.33322,0.05127 2.15379,0.03427 4.51272,0.05135 7.07679,0.05128 2.52986,-0.03411 1.5467,-0.0683 3.35864,-0.10255 1.81193,7e-5 3.14524,7e-5 3.99994,0 v 1.28202 c -1.47007,0.23938 -2.60682,0.8804 -3.41019,1.92305 -0.80343,1.04278 -1.35897,2.6496 -1.66664,4.82044 -0.30772,2.17095 -0.46154,5.23928 -0.46154,9.20497 v 34.65341 c 0,4.17089 0.13673,7.02555 0.41025,8.56397 0.30767,1.53844 0.96578,2.51279 1.97433,2.92302 1.00852,0.41026 2.89737,0.61537 5.66658,0.61537 h 5.48708 c 3.38453,0 5.98278,-0.42732 7.79474,-1.28202 1.81191,-0.85468 3.1965,-2.32473 4.15379,-4.41019 z"
     id="L"
     style="fill:#2f1c0d"
     inkscape:connector-curvature="0" />
  <path
     d="M 352.70588,4.4361 V 3.15407 h 24.92267 V 4.4361 c -1.50428,0.27357 -3.66752,0.92312 -4.488,1.94869 -0.78632,1.02568 -1.35042,2.6154 -1.69227,4.76914 -0.3419,2.15387 -0.5128,5.23075 -0.5128,9.23062 V 59.2557 c 0,3.93158 0.1709,6.96572 0.5128,9.10242 0.34185,2.13672 0.90595,3.73499 1.69227,4.79479 0.82048,1.05982 2.98372,1.74357 4.488,2.05125 v 1.28203 c -0.85472,-0.0342 -2.41024,-0.0684 -4.66659,-0.10257 -2.2564,0 -5.19651,0 -8.82038,0 -5.84606,0 -9.65795,0.0342 -11.4357,0.10257 v -1.28203 c 2.22218,-0.47861 4.72692,-1.81193 5.51323,-3.99992 0.78631,-2.188 1.17947,-6.17084 1.17947,-11.94854 V 20.38455 c 0,-5.846 -0.39316,-9.88012 -1.17947,-12.10236 -0.78631,-2.22212 -3.29105,-3.50415 -5.51323,-3.84609 z"
     id="I3"
     style="fill:#2f1c0d"
     inkscape:connector-curvature="0" />
  <path
     d="m 459.89334,61.24299 -1.641,15.2432 H 406.03539 V 74.79391 L 440.59892,12.2948 h -14.71771 c -4.99137,6e-5 -8.68362,0.36758 -11.07673,1.10255 -2.39313,0.73509 -4.05123,2.00857 -4.97429,3.82044 h -1.28202 V 3.15407 h 50.7298 V 4.58993 L 422.93228,67.2429 h 20.48711 c 5.74346,0 9.84595,-0.46152 12.30749,-1.3846 2.46145,-0.92305 2.35447,-2.52985 2.83315,-4.82043 z"
     id="Z"
     style="fill:#2f1c0d"
     inkscape:connector-curvature="0" />
  <path
     d="m 528.19831,57.0145 h -28.04699 l -5.73936,11.60427 c -0.64756,1.32743 -0.97132,2.52535 -0.97129,3.59375 -3e-5,1.68358 0.82585,2.70343 2.47704,3.05956 l 0.0486,1.21411 c -2.71963,-0.0648 -3.19204,-0.0971 -7.7247,-0.0971 -4.79169,0 -7.91598,0.0324 -9.37291,0.0971 v -1.21411 c 1.23029,-0.51802 2.16921,-1.2222 2.81673,-2.11254 0.64752,-0.89035 1.69974,-2.87338 3.15668,-5.94913 L 513.835,3.15407 h 1.69975 L 544.67336,68.036 c 1.74822,3.85277 3.62608,6.2648 5.63349,7.23608 v 1.21411 c -1.39229,-0.0648 -4.38708,-0.0971 -8.98445,-0.0971 -2.81682,0 -1.79956,0 -3.25642,0 -1.45695,0.0324 -2.78442,0.0486 -3.98226,0.0486 -1.19799,0.0324 -2.02375,0.0486 -2.47697,0.0486 v -1.21411 c 1.78062,-0.45326 2.67094,-1.6188 2.67094,-3.49662 0,-0.74466 -0.25903,-1.92639 -0.777,-3.5452 z M 524.8335,48.34447 514.32063,23.28789 503.66207,48.34447 Z"
     id="A"
     style="fill:#2f1c0d"
     inkscape:connector-curvature="0" />
  <path
     d="m 593.74884,11.50629 h 6.79485 c 3.72637,6e-5 6.49557,0.35903 8.30758,1.07691 1.81186,0.718 3.14516,2.00002 3.99991,3.84608 h 1.43589 L 612.85118,3.15407 h -49.79409 l -1.48714,13.27521 h 1.48714 c 0.71795,-1.81187 2.00852,-3.08535 3.87178,-3.82045 1.86319,-0.73497 4.69223,-1.10248 8.48705,-1.10254 h 6.28201 V 59.2557 c 0,4.03414 -0.15391,7.11101 -0.46152,9.23062 -0.27352,2.11963 -0.7949,3.69225 -1.56409,4.71787 -0.7692,1.02564 -2.9231,1.69229 -4.46157,1.99997 v 1.28203 h 25.53811 v -1.28203 c -1.64106,-0.30768 -3.88049,-0.98289 -4.71806,-2.0256 -0.83763,-1.04272 -1.42737,-2.64099 -1.76918,-4.7948 -0.34191,-2.1538 -0.51286,-5.19648 -0.51278,-9.12806 z"
     id="T"
     style="fill:#2f1c0d"
     inkscape:connector-curvature="0" />
  <path
     d="M 638.14919,4.4361 V 3.15407 h 24.92268 V 4.4361 c -1.50426,0.27357 -3.66708,0.92312 -4.4876,1.94869 -0.78632,1.02568 -1.35043,2.6154 -1.69224,4.76914 -0.34191,2.15387 -0.51286,5.23075 -0.51278,9.23062 V 59.2557 c -8e-5,3.93158 0.17087,6.96572 0.51278,9.10242 0.34181,2.13672 0.90592,3.73499 1.69224,4.79479 0.82052,1.05982 2.98334,1.74357 4.4876,2.05125 v 1.28203 c -0.85468,-0.0342 -2.41019,-0.0684 -4.66653,-0.10257 -2.25642,0 -5.19657,0 -8.82043,0 -5.84607,0 -9.65793,0.0342 -11.43572,0.10257 v -1.28203 c 2.2222,-0.47861 4.72735,-1.81193 5.51366,-3.99992 0.78631,-2.188 1.17947,-6.17084 1.17947,-11.94854 V 20.38455 c 0,-5.846 -0.39316,-9.88012 -1.17947,-12.10236 -0.78631,-2.22212 -3.29146,-3.50415 -5.51366,-3.84609 z"
     id="I4"
     style="fill:#2f1c0d"
     inkscape:connector-curvature="0" />
  <path
     d="m 727.0588,2.7598 c -5.56362,7e-5 -10.66778,0.88787 -15.30402,2.64297 -4.60321,1.78835 -8.59492,4.33248 -11.95629,7.67718 -3.36129,3.34481 -5.93919,7.30214 -7.72747,11.85558 -1.78828,4.55354 -2.66819,9.61466 -2.66819,15.17817 0,5.43111 0.90569,10.44917 2.74365,15.05231 1.83796,4.60319 4.45899,8.60358 7.8534,11.98145 3.39441,3.37785 7.44643,5.95647 12.13244,7.77786 4.686,1.82139 9.77359,2.74364 15.30402,2.74364 5.39796,0 10.37295,-0.93085 14.92648,-2.76881 4.55345,-1.83797 8.49352,-4.40795 11.80529,-7.75269 3.31154,-3.37787 5.88084,-7.37826 7.70232,-11.98145 1.75508,-4.60314 2.64287,-9.6212 2.64295,-15.05231 -8e-5,-5.49728 -0.91373,-10.54117 -2.71849,-15.12783 -1.80492,-4.58656 -4.36555,-8.54388 -7.67716,-11.85558 -3.3117,-3.31156 -7.25248,-5.84711 -11.8556,-7.65201 C 737.65892,3.67352 732.58922,2.75987 727.0588,2.7598 Z m -0.76723,6.28245 c 4.3952,-0.15651 8.95756,0.64661 12.96142,2.4665 3.69357,1.67889 6.9753,4.39904 9.57662,7.51261 2.22102,2.65842 3.82013,5.88206 4.85805,9.18707 1.40293,4.46752 2.0086,9.27002 1.71156,13.94323 -0.28157,4.43201 -1.52618,8.83352 -3.28409,12.91173 -1.25627,2.91462 -2.8665,5.78452 -5.09706,8.04236 -2.15651,2.18284 -4.8661,3.88174 -7.71486,5.02183 -3.97341,1.59016 -8.3474,2.56707 -12.62188,2.3533 -5.19838,-0.25998 -10.57283,-1.623 -14.98813,-4.37925 -4.06308,-2.53639 -7.64792,-6.28315 -9.67772,-10.62156 -2.13349,-4.56014 -2.59204,-9.82551 -2.56995,-14.86002 0.0241,-5.48574 0.63958,-11.38837 2.89703,-16.38815 2.0503,-4.54092 5.45307,-8.74057 9.66526,-11.40159 4.16439,-2.63086 9.36104,-3.61278 14.28375,-3.78806 z"
     id="O"
     style="fill:#2f1c0d"
     inkscape:connector-curvature="0" />
  <path
     d="m 794.90563,0 50.04997,53.34165 v -32.7298 c -8e-5,-4.05142 -0.1689,-7.17442 -0.50647,-9.36903 -0.30397,-2.19448 -0.86098,-3.76442 -1.67126,-4.70983 -0.77653,-0.97903 -1.9582,-1.53611 -3.54502,-1.67124 V 3.59568 h 21.76955 v 1.26607 c -1.38432,0.23642 -2.44787,0.84414 -3.1905,1.82317 -0.74294,0.97918 -1.25776,2.55756 -1.54471,4.73516 -0.28693,2.17772 -0.43052,5.24165 -0.43044,9.19177 V 78.85174 H 854.3175 L 805.89527,26.37102 v 32.62852 c 0,4.08524 0.14352,7.19136 0.43046,9.31838 0.28702,2.12702 0.83559,3.68009 1.64603,4.65919 0.8102,0.97911 2.02562,1.56994 3.64634,1.77252 v 1.26608 h -23.65058 v -1.26608 c 1.45176,-0.30387 2.56594,-0.9791 3.34247,-2.02573 0.81036,-1.01286 1.38424,-2.58281 1.72196,-4.70984 0.33756,-2.12702 0.50632,-5.13185 0.50632,-9.01452 V 0 Z"
     id="N"
     style="fill:#2f1c0d"
     inkscape:connector-curvature="0" />
</svg>
