<?xml version="1.0" encoding="UTF-8" standalone="no"?>
<svg
   xmlns:dc="http://purl.org/dc/elements/1.1/"
   xmlns:cc="http://creativecommons.org/ns#"
   xmlns:rdf="http://www.w3.org/1999/02/22-rdf-syntax-ns#"
   xmlns:svg="http://www.w3.org/2000/svg"
   xmlns="http://www.w3.org/2000/svg"
   xmlns:xlink="http://www.w3.org/1999/xlink"
   viewBox="0 0 300 189.92799"
   height="189.92799"
   width="300"
   xml:space="preserve"
   version="1.1"
   id="svg2"><metadata
     id="metadata8"><rdf:RDF><cc:Work
         rdf:about=""><dc:format>image/svg+xml</dc:format><dc:type
           rdf:resource="http://purl.org/dc/dcmitype/StillImage" /><dc:title></dc:title></cc:Work></rdf:RDF></metadata><defs
     id="defs6"><clipPath
       id="clipPath268"
       clipPathUnits="userSpaceOnUse"><path
         id="path270"
         d="m 213.139,13.823 47.057,0 0,30.66 -47.057,0 0,-30.66 z" /></clipPath><clipPath
       id="clipPath280"
       clipPathUnits="userSpaceOnUse"><path
         id="path282"
         d="m 246.587,40.83 c 2.637,-2.869 1.624,-5.875 -0.797,-7.633 l 0,0 c -1.469,-1.067 -2.116,-1.329 -5.525,-2.204 l 0,0 c 0.681,0.018 1.946,0.25 2.762,0.49 l 0,0 c -2.003,-0.823 -5.809,-1.201 -7.971,-1.067 l 0,0 c -3.116,0.194 -10.354,1.936 -8.779,6.4 l 0,0 c 0.37,1.049 0.99,1.69 2.03,2.084 l 0,0 c -1.083,-0.305 -1.795,-0.708 -2.512,-1.59 l 0,0 c -2.338,-2.878 -0.043,-4.996 2.153,-6.811 l 0,0 c -9.79,5.986 2.618,12.918 9.887,8.64 l 0,0 c -2.221,2.164 -6.858,2.072 -9.686,1.346 l 0,0 c 1.179,0.38 2.314,0.585 3.552,0.632 l 0,0 c 2.214,0.086 8.123,-0.723 8.354,-3.672 l 0,0 c 0.213,-2.712 -3.099,-3.392 -5.141,-3.392 l 0,0 c -1.173,0 -2.072,0.299 -3.175,0.616 l 0,0 c 2.634,-2.342 10.678,-1.18 10.081,3.249 l 0,0 c 1.502,-5.047 -8.363,-5.647 -11.362,-3.678 l 0,0 c -0.634,0.415 -1.499,1.36 -1.454,2.156 l 0,0 c 0.023,0.396 0.172,0.758 0.416,1.066 l 0,0 c -0.446,-0.254 -0.755,-0.667 -0.87,-1.168 l 0,0 c -0.919,-4.029 11.041,-6.737 15.946,-0.51 l 0,0 c -3.992,-6.389 -17.291,-4.533 -17.131,0.647 l 0,0 c -1.065,-2.499 2.019,-4.187 3.974,-4.701 l 0,0 c 4.382,-1.156 9.203,-0.615 12.734,2.385 l 0,0 c 1.199,1.018 1.712,2.08 1.577,3.612 l 0,0 c -0.244,2.76 -3.741,4.266 -5.759,4.884 l 0,0 c -2.154,0.658 -4.234,0.928 -6.481,0.993 l 0,0 c 3.216,-0.157 9.305,-1.312 10.746,-4.561 l 0,0 c 0.515,-1.158 0.402,-2.303 -0.456,-3.27 l 0,0 c -0.974,-1.099 -2.369,-1.873 -3.802,-2.156 l 0,0 c 0.931,0.401 1.701,0.876 2.342,1.678 l 0,0 c 0.736,0.917 1.11,1.96 0.575,3.072 l 0,0 c -1.632,3.392 -7.217,4.016 -10.512,3.844 l 0,0 c -4.919,-0.257 -8.305,-1.156 -12.153,-4.365 l 0,0 c -0.939,-0.782 -1.76,-1.853 -2.246,-2.976 l 0,0 c -0.772,-1.782 -0.972,-3.978 0.059,-5.686 l 0,0 c -0.952,3.024 0.194,5.806 2.288,7.982 l 0,0 c 2.445,2.541 6.04,3.716 9.497,3.958 l 0,0 c -3.057,-0.611 -6.584,-2.098 -8.344,-4.795 l 0,0 c -0.929,-1.426 -1.043,-3.76 -0.233,-5.248 l 0,0 c 0.793,-1.457 1.846,-2.36 3.207,-3.264 l 0,0 c 4.966,-3.296 12.11,-3.684 17.885,-2.802 l 0,0 c 3.629,0.553 6.956,1.719 10.066,3.671 l 0,0 c -6.586,-3.315 -17.294,-4.655 -24.113,-1.298 l 0,0 c -2.814,1.385 -3.967,2.854 -4.527,4.198 l 0,0 c 1.154,-1.309 2.297,-2.084 3.869,-2.793 l 0,0 c 6.316,-2.85 16.286,-1.878 21.689,2.313 l 0,0 c 1.354,1.05 2.935,3.018 3.187,4.731 l 0,0 c 0.38,2.584 -0.385,4.301 -2.788,6.388 l 0,0 c 3.942,-3.73 2.24,-7.924 -1.951,-10.724 l 0,0 c -2.805,-1.875 -4.985,-2.183 -8.242,-2.597 l 0,0 c -2.145,-0.274 -4.495,-0.213 -7.264,0.411 l 0,0 c 0.602,-0.079 1.491,-0.15 1.549,-0.155 l 0,0 c 1.644,-0.126 3.536,-0.068 5.757,0.277 l 0,0 c 3.602,0.56 6.329,1.539 8.567,3.847 l 0,0 c 1.377,1.419 1.915,2.989 1.33,4.861 l 0,0 c -1.224,3.917 -5.246,5.211 -9.67,6.338 l 0,0 c 2.765,-0.941 4.796,-1.402 6.865,-3.653" /></clipPath><clipPath
       id="clipPath340"
       clipPathUnits="userSpaceOnUse"><path
         id="path342"
         d="m 213.139,13.823 47.057,0 0,30.66 -47.057,0 0,-30.66 z" /></clipPath><clipPath
       id="clipPath"
       clipPathUnits="userSpaceOnUse"><use
         height="100%"
         width="100%"
         y="0"
         x="0"
         id="use"
         transform="translate(-260.0941,-16.6763)"
         xlink:href="#path342" /></clipPath><clipPath
       id="clipPathU"
       clipPathUnits="userSpaceOnUse"><use
         height="100%"
         width="100%"
         y="0"
         x="0"
         id="usex"
         transform="translate(-257.9231,-15.0671)"
         xlink:href="#path342" /></clipPath><clipPath
       id="clipPathB"
       clipPathUnits="userSpaceOnUse"><use
         height="100%"
         width="100%"
         y="0"
         x="0"
         id="useN"
         transform="translate(-255.1357,-17.076)"
         xlink:href="#path342" /></clipPath><clipPath
       id="clipPathBp"
       clipPathUnits="userSpaceOnUse"><use
         height="100%"
         width="100%"
         y="0"
         x="0"
         id="useV"
         transform="translate(-249.6406,-15.7756)"
         xlink:href="#path342" /></clipPath><clipPath
       id="clipPathH"
       clipPathUnits="userSpaceOnUse"><use
         height="100%"
         width="100%"
         y="0"
         x="0"
         id="usef"
         transform="translate(-247.0047,-15.9171)"
         xlink:href="#path342" /></clipPath><clipPath
       id="clipPathL"
       clipPathUnits="userSpaceOnUse"><use
         height="100%"
         width="100%"
         y="0"
         x="0"
         id="useR"
         transform="translate(-259.5052,-23.106)"
         xlink:href="#path342" /></clipPath><clipPath
       id="clipPathk"
       clipPathUnits="userSpaceOnUse"><use
         height="100%"
         width="100%"
         y="0"
         x="0"
         id="use0"
         transform="translate(-252.584,-24.1477)"
         xlink:href="#path342" /></clipPath><clipPath
       id="clipPathl"
       clipPathUnits="userSpaceOnUse"><use
         height="100%"
         width="100%"
         y="0"
         x="0"
         id="use3"
         transform="translate(-249.0765,-17.9767)"
         xlink:href="#path342" /></clipPath><clipPath
       id="clipPathi"
       clipPathUnits="userSpaceOnUse"><use
         height="100%"
         width="100%"
         y="0"
         x="0"
         id="usez"
         transform="translate(-237.5412,-20.759)"
         xlink:href="#path342" /></clipPath><clipPath
       id="clipPathN"
       clipPathUnits="userSpaceOnUse"><use
         height="100%"
         width="100%"
         y="0"
         x="0"
         id="useA"
         transform="translate(-227.812,-21.4579)"
         xlink:href="#path342" /></clipPath><clipPath
       id="clipPathy"
       clipPathUnits="userSpaceOnUse"><use
         height="100%"
         width="100%"
         y="0"
         x="0"
         id="usea"
         transform="translate(-221.5103,-24.1477)"
         xlink:href="#path342" /></clipPath><clipPath
       id="clipPatht"
       clipPathUnits="userSpaceOnUse"><use
         height="100%"
         width="100%"
         y="0"
         x="0"
         id="useB"
         transform="translate(-217.8989,-24.1477)"
         xlink:href="#path342" /></clipPath><clipPath
       clipPathUnits="userSpaceOnUse"
       id="clipPathkh"><use
         height="100%"
         width="100%"
         y="0"
         x="0"
         xlink:href="#path282"
         transform="translate(-231.9147,-36.8038)"
         id="usep" /></clipPath><clipPath
       clipPathUnits="userSpaceOnUse"
       id="clipPathg"><use
         height="100%"
         width="100%"
         y="0"
         x="0"
         xlink:href="#path282"
         transform="translate(-230.2612,-36.8038)"
         id="useI" /></clipPath><clipPath
       clipPathUnits="userSpaceOnUse"
       id="clipPathQ"><use
         height="100%"
         width="100%"
         y="0"
         x="0"
         xlink:href="#path282"
         transform="translate(-228.6076,-36.8038)"
         id="useD" /></clipPath><clipPath
       clipPathUnits="userSpaceOnUse"
       id="clipPathO"><use
         height="100%"
         width="100%"
         y="0"
         x="0"
         xlink:href="#path282"
         transform="translate(-226.9541,-36.8038)"
         id="useW" /></clipPath><clipPath
       clipPathUnits="userSpaceOnUse"
       id="clipPathE"><use
         height="100%"
         width="100%"
         y="0"
         x="0"
         xlink:href="#path282"
         transform="translate(-225.3006,-36.8038)"
         id="usec" /></clipPath><clipPath
       clipPathUnits="userSpaceOnUse"
       id="clipPathtr"><use
         height="100%"
         width="100%"
         y="0"
         x="0"
         xlink:href="#path282"
         transform="translate(-223.647,-36.8038)"
         id="user" /></clipPath><clipPath
       clipPathUnits="userSpaceOnUse"
       id="clipPathBu"><use
         height="100%"
         width="100%"
         y="0"
         x="0"
         xlink:href="#path282"
         transform="translate(-221.9934,-36.8038)"
         id="useE" /></clipPath><clipPath
       clipPathUnits="userSpaceOnUse"
       id="clipPath7"><use
         height="100%"
         width="100%"
         y="0"
         x="0"
         xlink:href="#path282"
         transform="translate(-220.34,-36.8038)"
         id="useVN" /></clipPath><clipPath
       clipPathUnits="userSpaceOnUse"
       id="clipPathZ"><use
         height="100%"
         width="100%"
         y="0"
         x="0"
         xlink:href="#path282"
         transform="translate(-218.6864,-36.8038)"
         id="useD1" /></clipPath><clipPath
       clipPathUnits="userSpaceOnUse"
       id="clipPathc"><use
         height="100%"
         width="100%"
         y="0"
         x="0"
         xlink:href="#path282"
         transform="translate(-217.0329,-36.8038)"
         id="usee" /></clipPath><clipPath
       clipPathUnits="userSpaceOnUse"
       id="clipPathF"><use
         height="100%"
         width="100%"
         y="0"
         x="0"
         xlink:href="#path282"
         transform="translate(-215.3793,-36.8038)"
         id="useg" /></clipPath><clipPath
       clipPathUnits="userSpaceOnUse"
       id="clipPatho"><use
         height="100%"
         width="100%"
         y="0"
         x="0"
         xlink:href="#path282"
         transform="translate(-213.7258,-36.8038)"
         id="useeW" /></clipPath><clipPath
       clipPathUnits="userSpaceOnUse"
       id="clipPathh"><use
         height="100%"
         width="100%"
         y="0"
         x="0"
         xlink:href="#path282"
         transform="translate(-212.0723,-36.8038)"
         id="useC" /></clipPath><clipPath
       clipPathUnits="userSpaceOnUse"
       id="clipPath6"><use
         height="100%"
         width="100%"
         y="0"
         x="0"
         xlink:href="#path270"
         transform="translate(-239.7226,-44.483)"
         id="useZ" /></clipPath></defs><g
     transform="matrix(5.1002952,0,0,5.1002952,-1358.8397,-2966.3125)"
     id="g4140"><path
       clip-path="url(#clipPath6)"
       transform="matrix(1.25,0,0,-1.25,299.65325,581.59625)"
       d="m 0,0 c 4.423,-1.128 8.445,-2.422 9.669,-6.338 0.585,-1.872 0.047,-3.442 -1.329,-4.861 -2.238,-2.308 -4.966,-3.287 -8.567,-3.847 -2.221,-0.345 -4.113,-0.403 -5.757,-0.277 -0.059,0.005 -0.947,0.076 -1.549,0.155 2.768,-0.624 5.119,-0.685 7.263,-0.412 3.258,0.415 5.438,0.723 8.243,2.598 4.19,2.799 5.892,6.994 1.95,10.724 2.404,-2.087 3.169,-3.804 2.788,-6.388 -0.252,-1.713 -1.832,-3.681 -3.186,-4.731 -5.403,-4.19 -15.374,-5.162 -21.69,-2.313 -1.572,0.709 -2.715,1.484 -3.869,2.794 0.56,-1.345 1.714,-2.814 4.527,-4.199 6.819,-3.357 17.528,-2.017 24.113,1.298 -3.109,-1.953 -6.436,-3.118 -10.066,-3.672 -5.775,-0.882 -12.918,-0.493 -17.884,2.803 -1.361,0.903 -2.415,1.807 -3.207,3.264 -0.81,1.488 -0.697,3.822 0.233,5.247 1.759,2.697 5.286,4.185 8.344,4.796 -3.458,-0.242 -7.053,-1.417 -9.498,-3.958 -2.094,-2.175 -3.24,-4.958 -2.288,-7.982 -1.03,1.708 -0.83,3.904 -0.059,5.686 0.486,1.123 1.308,2.193 2.246,2.976 3.849,3.209 7.234,4.108 12.154,4.365 C -4.125,-2.1 1.46,-2.724 3.092,-6.116 3.628,-7.228 3.253,-8.27 2.518,-9.188 1.876,-9.989 1.107,-10.465 0.175,-10.867 c 1.434,0.284 2.829,1.058 3.803,2.157 0.857,0.967 0.97,2.112 0.456,3.27 -1.442,3.249 -7.53,4.403 -10.746,4.561 2.246,-0.064 4.326,-0.335 6.481,-0.994 2.017,-0.617 5.514,-2.122 5.758,-4.883 0.136,-1.531 -0.378,-2.594 -1.577,-3.613 -3.531,-2.999 -8.352,-3.54 -12.734,-2.385 -1.955,0.516 -5.039,2.203 -3.973,4.702 -0.16,-5.181 13.139,-7.037 17.13,-0.647 -4.904,-6.227 -16.865,-3.519 -15.945,0.51 0.114,0.5 0.424,0.913 0.869,1.169 -0.244,-0.31 -0.393,-0.671 -0.415,-1.067 -0.045,-0.796 0.82,-1.74 1.453,-2.156 3,-1.969 12.865,-1.37 11.363,3.678 0.596,-4.429 -7.448,-5.59 -10.081,-3.249 1.102,-0.317 2.001,-0.615 3.175,-0.615 2.041,0 5.353,0.679 5.14,3.392 -0.231,2.948 -6.141,3.757 -8.354,3.671 -1.238,-0.047 -2.373,-0.253 -3.551,-0.632 2.828,0.726 7.464,0.818 9.686,-1.346 -7.27,4.278 -19.677,-2.654 -9.887,-8.639 -2.197,1.814 -4.491,3.932 -2.153,6.81 0.716,0.882 1.428,1.285 2.512,1.59 -1.041,-0.395 -1.661,-1.035 -2.031,-2.084 -1.574,-4.464 5.664,-6.206 8.779,-6.399 2.163,-0.135 5.968,0.243 7.971,1.066 -0.816,-0.239 -2.08,-0.472 -2.762,-0.49 3.409,0.875 4.056,1.137 5.525,2.204 2.422,1.758 3.434,4.764 0.797,7.633 C 4.795,-1.402 2.765,-0.941 0,0"
       style="fill:#231f20;fill-opacity:1;fill-rule:nonzero;stroke:none"
       id="path274" /><path
       clip-path="url(#clipPathh)"
       transform="matrix(1.25,0,0,-1.25,265.09037,591.19525)"
       d="m 0,0 c 0,11.872 9.624,21.496 21.496,21.496 11.872,0 21.496,-9.624 21.496,-21.496 0,-11.872 -9.624,-21.496 -21.496,-21.496 C 9.624,-21.496 0,-11.872 0,0"
       style="fill:#f58451;fill-opacity:1;fill-rule:nonzero;stroke:none"
       id="path286" /><path
       clip-path="url(#clipPatho)"
       transform="matrix(1.25,0,0,-1.25,267.15725,591.19525)"
       d="m 0,0 c 0,10.959 8.884,19.843 19.843,19.843 10.958,0 19.842,-8.884 19.842,-19.843 0,-10.959 -8.884,-19.842 -19.842,-19.842 C 8.884,-19.842 0,-10.959 0,0"
       style="fill:#f6894f;fill-opacity:1;fill-rule:nonzero;stroke:none"
       id="path290" /><path
       clip-path="url(#clipPathF)"
       transform="matrix(1.25,0,0,-1.25,269.22413,591.19525)"
       d="m 0,0 c 0,10.046 8.143,18.189 18.189,18.189 10.046,0 18.189,-8.143 18.189,-18.189 0,-10.046 -8.143,-18.189 -18.189,-18.189 C 8.143,-18.189 0,-10.046 0,0"
       style="fill:#f68f4c;fill-opacity:1;fill-rule:nonzero;stroke:none"
       id="path294" /><path
       clip-path="url(#clipPathc)"
       transform="matrix(1.25,0,0,-1.25,271.29113,591.19525)"
       d="m 0,0 c 0,9.132 7.403,16.535 16.535,16.535 9.133,0 16.536,-7.403 16.536,-16.535 0,-9.132 -7.403,-16.535 -16.536,-16.535 C 7.403,-16.535 0,-9.132 0,0"
       style="fill:#f7934a;fill-opacity:1;fill-rule:nonzero;stroke:none"
       id="path298" /><path
       clip-path="url(#clipPathZ)"
       transform="matrix(1.25,0,0,-1.25,273.358,591.19525)"
       d="m 0,0 c 0,8.219 6.663,14.882 14.882,14.882 8.219,0 14.882,-6.663 14.882,-14.882 0,-8.219 -6.663,-14.882 -14.882,-14.882 C 6.663,-14.882 0,-8.219 0,0"
       style="fill:#f89847;fill-opacity:1;fill-rule:nonzero;stroke:none"
       id="path302" /><path
       clip-path="url(#clipPath7)"
       transform="matrix(1.25,0,0,-1.25,275.425,591.19525)"
       d="m 0,0 c 0,7.306 5.922,13.228 13.228,13.228 7.306,0 13.229,-5.922 13.229,-13.228 0,-7.306 -5.923,-13.228 -13.229,-13.228 C 5.922,-13.228 0,-7.306 0,0"
       style="fill:#f99e44;fill-opacity:1;fill-rule:nonzero;stroke:none"
       id="path306" /><path
       clip-path="url(#clipPathBu)"
       transform="matrix(1.25,0,0,-1.25,277.49175,591.19525)"
       d="M 0,0 C 0,6.393 5.182,11.575 11.575,11.575 17.967,11.575 23.15,6.393 23.15,0 23.15,-6.393 17.967,-11.575 11.575,-11.575 5.182,-11.575 0,-6.393 0,0"
       style="fill:#f9a341;fill-opacity:1;fill-rule:nonzero;stroke:none"
       id="path310" /><path
       clip-path="url(#clipPathtr)"
       transform="matrix(1.25,0,0,-1.25,279.55875,591.19525)"
       d="m 0,0 c 0,5.479 4.442,9.921 9.921,9.921 5.48,0 9.921,-4.442 9.921,-9.921 0,-5.479 -4.441,-9.921 -9.921,-9.921 C 4.442,-9.921 0,-5.479 0,0"
       style="fill:#faa83d;fill-opacity:1;fill-rule:nonzero;stroke:none"
       id="path314" /><path
       clip-path="url(#clipPathE)"
       transform="matrix(1.25,0,0,-1.25,281.62575,591.19525)"
       d="m 0,0 c 0,4.566 3.702,8.268 8.268,8.268 4.566,0 8.267,-3.702 8.267,-8.268 0,-4.566 -3.701,-8.268 -8.267,-8.268 C 3.702,-8.268 0,-4.566 0,0"
       style="fill:#fbad39;fill-opacity:1;fill-rule:nonzero;stroke:none"
       id="path318" /><path
       clip-path="url(#clipPathO)"
       transform="matrix(1.25,0,0,-1.25,283.69263,591.19525)"
       d="m 0,0 c 0,3.653 2.961,6.614 6.614,6.614 3.653,0 6.614,-2.961 6.614,-6.614 0,-3.653 -2.961,-6.614 -6.614,-6.614 C 2.961,-6.614 0,-3.653 0,0"
       style="fill:#fcb234;fill-opacity:1;fill-rule:nonzero;stroke:none"
       id="path322" /><path
       clip-path="url(#clipPathQ)"
       transform="matrix(1.25,0,0,-1.25,285.7595,591.19525)"
       d="M 0,0 C 0,2.74 2.221,4.961 4.961,4.961 7.7,4.961 9.921,2.74 9.921,0 9.921,-2.74 7.7,-4.961 4.961,-4.961 2.221,-4.961 0,-2.74 0,0"
       style="fill:#fdb82f;fill-opacity:1;fill-rule:nonzero;stroke:none"
       id="path326" /><path
       clip-path="url(#clipPathg)"
       transform="matrix(1.25,0,0,-1.25,287.8265,591.19525)"
       d="M 0,0 C 0,1.827 1.481,3.307 3.307,3.307 5.134,3.307 6.614,1.827 6.614,0 6.614,-1.826 5.134,-3.307 3.307,-3.307 1.481,-3.307 0,-1.826 0,0"
       style="fill:#febd29;fill-opacity:1;fill-rule:nonzero;stroke:none"
       id="path330" /><path
       clip-path="url(#clipPathkh)"
       transform="matrix(1.25,0,0,-1.25,289.89337,591.19525)"
       d="M 0,0 C 0,0.913 0.74,1.654 1.654,1.654 2.567,1.654 3.307,0.913 3.307,0 3.307,-0.913 2.567,-1.653 1.654,-1.653 0.74,-1.653 0,-0.913 0,0"
       style="fill:#ffc222;fill-opacity:1;fill-rule:nonzero;stroke:none"
       id="path334" /><path
       d="m 0,0 -4.76,0 c 0.171,-0.237 0.264,-0.488 0.264,-0.751 l 0,-4.616 c 0,-0.184 -0.014,-0.329 -0.053,-0.448 -0.04,-0.118 -0.092,-0.237 -0.171,-0.356 l 1.437,0 -0.119,0.238 c -0.119,0.237 -0.145,0.421 -0.145,0.553 l 0,2.229 c 0.369,0 0.765,-0.027 1.174,-0.079 0.408,-0.053 0.804,-0.106 1.186,-0.185 l 0.567,0.725 -2.927,0 0,2.215 c 0.356,0 0.738,-0.026 1.121,-0.052 0.382,-0.027 0.778,-0.053 1.2,-0.119 L -0.554,-0.751 0,0 Z"
       style="fill:#000000;fill-opacity:1;fill-rule:nonzero;stroke:none"
       id="path346"
       transform="matrix(1.25,0,0,-1.25,272.37362,607.01537)"
       clip-path="url(#clipPatht)" /><path
       d="m 0,0 -1.516,0 0.079,-0.132 c 0.145,-0.237 0.198,-0.448 0.198,-0.633 l 0,-4.602 c 0,-0.29 -0.106,-0.553 -0.304,-0.804 l 1.53,0 -0.145,0.251 c -0.106,0.171 -0.132,0.356 -0.132,0.553 l 0,4.589 c 0,0.211 0.053,0.435 0.198,0.646 L 0,0 Z"
       style="fill:#000000;fill-opacity:1;fill-rule:nonzero;stroke:none"
       id="path350"
       transform="matrix(1.25,0,0,-1.25,276.88787,607.01537)"
       clip-path="url(#clipPathy)" /><path
       d="m 0,0 c -0.224,-0.119 -0.461,-0.224 -0.752,-0.29 -0.29,-0.066 -0.606,-0.119 -0.936,-0.106 l -0.264,0.014 0,2.624 0.33,0 c 0.673,0 1.213,-0.185 1.635,-0.422 C 0.435,1.582 0.646,1.279 0.646,0.91 0.646,0.738 0.593,0.567 0.488,0.409 0.382,0.251 0.211,0.119 0,0 M 2.901,-3.481 C 2.532,-3.27 2.294,-3.112 2.176,-3.033 2.11,-2.98 1.872,-2.822 1.503,-2.558 c -0.831,0.607 -1.529,1.226 -2.11,1.859 l 0.211,0.04 c 0.304,0.052 0.567,0.145 0.792,0.237 0.224,0.092 0.421,0.198 0.606,0.33 0.435,0.303 0.659,0.646 0.659,1.041 0,0.264 -0.092,0.515 -0.29,0.752 C 1.173,1.938 0.883,2.123 0.501,2.281 0,2.492 -0.607,2.663 -1.345,2.677 l -0.514,0.013 -1.306,0 0.079,-0.119 c 0.159,-0.237 0.185,-0.448 0.185,-0.62 l 0,-4.615 c 0,-0.211 -0.039,-0.448 -0.211,-0.685 l -0.092,-0.132 1.516,0 -0.145,0.277 c -0.092,0.184 -0.119,0.369 -0.119,0.54 l 0,2.031 c 0.541,-0.527 1.148,-1.028 1.794,-1.503 0.646,-0.475 1.331,-0.923 2.07,-1.345 l 0.989,0 z"
       style="fill:#000000;fill-opacity:1;fill-rule:nonzero;stroke:none"
       id="path354"
       transform="matrix(1.25,0,0,-1.25,284.765,610.37762)"
       clip-path="url(#clipPathN)" /><path
       d="M 0,0 -2.914,0 -1.371,2.426 0,0 Z M 3.125,-2.782 3.033,-2.69 2.874,-2.519 c -0.342,0.37 -0.593,0.647 -0.751,0.897 l -2.941,4.694 -0.092,0.132 -0.066,0.185 -0.62,0 -0.079,-0.172 -0.092,-0.132 -3.178,-4.707 c -0.224,-0.33 -0.488,-0.62 -0.765,-0.897 l -0.131,-0.131 -0.145,-0.132 1.582,0 -0.013,0.132 c -0.014,0.118 0.013,0.211 0.052,0.303 0.04,0.092 0.106,0.224 0.224,0.409 l 0.91,1.397 3.666,0 0.844,-1.397 c 0.184,-0.29 0.264,-0.581 0.264,-0.844 l 1.582,0 z"
       style="fill:#000000;fill-opacity:1;fill-rule:nonzero;stroke:none"
       id="path358"
       transform="matrix(1.25,0,0,-1.25,296.9265,611.25125)"
       clip-path="url(#clipPathi)" /><path
       d="m 0,0 c -0.251,0.119 -0.435,0.238 -0.567,0.343 -0.132,0.105 -0.409,0.369 -0.818,0.804 l -1.859,1.978 1.859,1.978 c 0.356,0.369 0.581,0.607 0.673,0.686 0.132,0.118 0.316,0.237 0.567,0.382 l -1.596,0 c 0,-0.105 -0.013,-0.198 -0.052,-0.29 -0.04,-0.092 -0.106,-0.198 -0.185,-0.29 L -3.784,3.613 -5.578,5.565 c -0.158,0.171 -0.237,0.316 -0.237,0.408 0,0.027 0,0.053 0.013,0.093 0.013,0.039 0.027,0.079 0.04,0.105 l -1.635,0 C -7.186,6.013 -6.975,5.855 -6.777,5.67 -6.58,5.485 -6.382,5.301 -6.197,5.103 L -4.325,3.099 -6.105,1.2 C -6.553,0.725 -7.015,0.33 -7.476,0 l 1.569,0 C -5.92,0.027 -5.92,0.066 -5.92,0.106 c 0,0.066 0.039,0.158 0.105,0.25 0.066,0.092 0.145,0.172 0.211,0.251 l 1.82,2.004 1.872,-2.017 C -1.806,0.475 -1.714,0.369 -1.635,0.277 -1.622,0.251 -1.596,0.198 -1.609,0.132 L -1.622,0 0,0 Z"
       style="fill:#000000;fill-opacity:1;fill-rule:nonzero;stroke:none"
       id="path362"
       transform="matrix(1.25,0,0,-1.25,311.34562,614.72912)"
       clip-path="url(#clipPathl)" /><path
       d="m 0,0 -1.516,0 0.079,-0.132 c 0.145,-0.237 0.197,-0.448 0.197,-0.633 l 0,-4.602 c 0,-0.29 -0.105,-0.553 -0.303,-0.804 l 1.53,0 -0.145,0.251 c -0.106,0.171 -0.132,0.356 -0.132,0.553 l 0,4.589 c 0,0.211 0.052,0.435 0.197,0.646 L 0,0 Z"
       style="fill:#000000;fill-opacity:1;fill-rule:nonzero;stroke:none"
       id="path366"
       transform="matrix(1.25,0,0,-1.25,315.73,607.01537)"
       clip-path="url(#clipPathk)" /><path
       d="M 0,0 0,0.857 -0.185,0.91 C -0.527,1.002 -0.897,1.068 -1.292,1.068 -1.688,1.068 -2.057,1.015 -2.426,0.91 -2.795,0.804 -3.099,0.646 -3.349,0.462 -3.6,0.277 -3.758,0.066 -3.863,-0.158 -3.969,-0.382 -4.021,-0.58 -4.021,-0.752 c 0,-0.54 0.54,-1.028 1.582,-1.529 l 0.356,-0.172 c 0.435,-0.21 0.764,-0.382 0.949,-0.54 0.185,-0.158 0.29,-0.29 0.303,-0.396 0.014,-0.105 0.027,-0.198 0.027,-0.263 0,-0.264 -0.106,-0.488 -0.33,-0.66 -0.224,-0.171 -0.541,-0.29 -0.923,-0.329 -0.119,-0.014 -0.211,-0.014 -0.264,-0.014 -0.487,0 -0.962,0.132 -1.424,0.396 -0.118,0.079 -0.237,0.158 -0.343,0.251 l 0,-0.884 c 0.304,-0.132 0.633,-0.211 0.95,-0.237 0.316,-0.027 0.567,-0.04 0.765,-0.04 0.936,0 1.648,0.224 2.136,0.673 0.342,0.316 0.501,0.633 0.501,0.936 0,0.58 -0.567,1.068 -1.635,1.556 l -0.29,0.132 c -0.541,0.25 -0.884,0.461 -1.068,0.646 -0.185,0.184 -0.29,0.382 -0.29,0.606 0,0.053 0,0.106 0.013,0.145 0,0.014 0.013,0.066 0.039,0.145 0.093,0.264 0.29,0.475 0.567,0.62 0.277,0.145 0.607,0.224 0.963,0.224 0.277,0 0.553,-0.066 0.804,-0.158 C -0.382,0.264 -0.171,0.145 0,0"
       style="fill:#000000;fill-opacity:1;fill-rule:nonzero;stroke:none"
       id="path370"
       transform="matrix(1.25,0,0,-1.25,324.3815,608.3175)"
       clip-path="url(#clipPathL)" /><path
       d="m 0,0 -0.587,0 0.055,-0.111 c 0.026,-0.046 0.036,-0.081 0.041,-0.101 0.005,-0.021 0.005,-0.046 0.005,-0.076 l 0,-0.658 -0.04,-0.01 -0.086,-0.021 c -0.132,-0.03 -0.258,-0.05 -0.37,-0.06 -0.111,-0.01 -0.233,-0.016 -0.359,-0.016 -0.466,0 -0.84,0.097 -1.129,0.294 -0.288,0.197 -0.43,0.445 -0.43,0.759 0,0.299 0.142,0.541 0.43,0.729 0.274,0.182 0.618,0.268 1.033,0.268 0.157,0 0.308,-0.01 0.45,-0.035 0.142,-0.026 0.284,-0.061 0.425,-0.107 0.142,-0.045 0.263,-0.096 0.37,-0.147 l 0,0.294 -0.112,0.025 c -0.389,0.091 -0.759,0.132 -1.098,0.132 -0.46,0 -0.85,-0.076 -1.164,-0.228 C -2.88,0.779 -3.102,0.567 -3.218,0.299 -3.279,0.162 -3.31,0.031 -3.31,-0.096 c 0,-0.334 0.193,-0.607 0.567,-0.815 0.374,-0.207 0.875,-0.314 1.498,-0.314 0.061,0 0.132,0.006 0.203,0.006 0.07,0 0.131,0 0.182,0.005 0.263,0.015 0.531,0.06 0.809,0.131 -0.045,0.081 -0.071,0.202 -0.071,0.359 l 0,0.43 c 0,0.107 0.041,0.203 0.122,0.294"
       style="fill:#000000;fill-opacity:1;fill-rule:nonzero;stroke:none"
       id="path374"
       transform="matrix(1.25,0,0,-1.25,308.75587,617.30362)"
       clip-path="url(#clipPathH)" /><path
       d="M 0,0 -1.119,0 -0.526,0.931 0,0 Z M 1.199,-1.068 1.164,-1.032 1.103,-0.967 C 0.971,-0.825 0.875,-0.719 0.815,-0.622 L -0.314,1.179 -0.35,1.23 -0.374,1.3 -0.612,1.3 -0.643,1.235 -0.678,1.184 -1.898,-0.622 C -1.984,-0.749 -2.085,-0.86 -2.191,-0.967 l -0.051,-0.05 -0.056,-0.051 0.608,0 -0.005,0.051 c -0.006,0.045 0.005,0.081 0.02,0.116 0.015,0.035 0.04,0.086 0.086,0.157 l 0.349,0.537 1.407,0 0.324,-0.537 c 0.071,-0.111 0.101,-0.223 0.101,-0.324 l 0.607,0 z"
       style="fill:#000000;fill-opacity:1;fill-rule:nonzero;stroke:none"
       id="path378"
       transform="matrix(1.25,0,0,-1.25,312.05075,617.4805)"
       clip-path="url(#clipPathBp)" /><path
       d="m 0,0 -0.572,0 c 0.01,-0.02 0.015,-0.035 0.015,-0.05 0,-0.036 -0.035,-0.087 -0.111,-0.142 l -1.27,-0.967 -1.306,0.977 c -0.045,0.035 -0.071,0.071 -0.071,0.111 0,0.025 0.011,0.051 0.026,0.071 l -0.608,0 0.274,-0.223 0,-1.837 c 0,-0.096 -0.021,-0.187 -0.081,-0.273 l -0.026,-0.035 0.577,0 c -0.045,0.045 -0.071,0.091 -0.086,0.126 -0.015,0.036 -0.02,0.096 -0.02,0.182 l 0,1.564 1.321,-0.992 1.3,0.992 0,-1.564 c 0,-0.07 -0.01,-0.126 -0.025,-0.177 -0.015,-0.05 -0.04,-0.096 -0.071,-0.131 l 0.577,0 -0.05,0.04 c -0.031,0.036 -0.051,0.071 -0.056,0.096 -0.005,0.026 -0.01,0.081 -0.01,0.172 l 0,1.847 L 0,0 Z"
       style="fill:#000000;fill-opacity:1;fill-rule:nonzero;stroke:none"
       id="path382"
       transform="matrix(1.25,0,0,-1.25,318.91962,615.855)"
       clip-path="url(#clipPathB)" /><path
       d="m 0,0 c -0.253,-0.061 -0.506,-0.111 -0.759,-0.142 -0.253,-0.03 -0.506,-0.045 -0.754,-0.045 l 0,0.991 c 0.146,0 0.298,-0.005 0.455,-0.025 0.157,-0.02 0.309,-0.045 0.461,-0.076 l 0.223,0.279 -1.139,0 0,0.845 c 0.192,0 0.389,-0.01 0.587,-0.026 0.197,-0.015 0.389,-0.04 0.582,-0.07 l 0.217,0.278 -1.847,0 c 0.066,-0.091 0.096,-0.187 0.096,-0.293 l 0,-1.767 c 0,-0.076 -0.025,-0.162 -0.076,-0.268 l -0.025,-0.04 1.7,0 L 0,0 Z"
       style="fill:#000000;fill-opacity:1;fill-rule:nonzero;stroke:none"
       id="path386"
       transform="matrix(1.25,0,0,-1.25,322.40388,618.36612)"
       clip-path="url(#clipPathU)" /><path
       d="m 0,0 0,0.329 -0.071,0.02 C -0.202,0.385 -0.344,0.41 -0.496,0.41 -0.648,0.41 -0.789,0.39 -0.931,0.349 -1.073,0.309 -1.189,0.248 -1.285,0.177 -1.381,0.106 -1.442,0.025 -1.483,-0.061 c -0.04,-0.086 -0.06,-0.162 -0.06,-0.227 0,-0.208 0.207,-0.395 0.607,-0.587 L -0.8,-0.941 c 0.167,-0.081 0.294,-0.147 0.365,-0.208 0.071,-0.06 0.111,-0.111 0.116,-0.152 0.005,-0.04 0.01,-0.075 0.01,-0.101 0,-0.101 -0.04,-0.187 -0.126,-0.253 -0.086,-0.066 -0.208,-0.111 -0.354,-0.126 -0.046,-0.005 -0.081,-0.005 -0.102,-0.005 -0.187,0 -0.369,0.05 -0.546,0.151 -0.046,0.031 -0.091,0.061 -0.132,0.097 l 0,-0.339 c 0.117,-0.051 0.243,-0.081 0.365,-0.092 0.121,-0.01 0.217,-0.015 0.293,-0.015 0.36,0 0.633,0.086 0.82,0.258 0.131,0.122 0.192,0.243 0.192,0.36 0,0.222 -0.217,0.41 -0.627,0.597 l -0.111,0.05 c -0.208,0.097 -0.34,0.178 -0.41,0.248 -0.071,0.071 -0.112,0.147 -0.112,0.233 0,0.02 0,0.041 0.005,0.056 0,0.005 0.005,0.025 0.016,0.055 0.035,0.102 0.111,0.183 0.217,0.238 0.106,0.056 0.233,0.086 0.37,0.086 0.106,0 0.212,-0.025 0.308,-0.06 C -0.147,0.101 -0.066,0.056 0,0"
       style="fill:#000000;fill-opacity:1;fill-rule:nonzero;stroke:none"
       id="path390"
       transform="matrix(1.25,0,0,-1.25,325.11762,616.35463)"
       clip-path="url(#clipPath)" /></g></svg>