<?xml version="1.0" encoding="UTF-8" standalone="no"?>
<svg xmlns:xlink="http://www.w3.org/1999/xlink" height="347.45px" width="431.5px" xmlns="http://www.w3.org/2000/svg">
  <g transform="matrix(1.0, 0.0, 0.0, 1.0, -38.65, -60.05)">
    <path d="M123.45 197.3 L140.6 197.3 140.55 192.7 123.45 192.7 123.45 197.3 M346.85 81.65 L346.85 60.05 398.45 60.05 398.45 192.7 339.4 192.7 Q334.6 192.7 329.75 190.85 L329.75 192.7 227.7 192.7 227.7 197.3 235.15 197.3 241.3 198.0 Q246.6 199.25 251.25 202.6 L252.85 203.95 254.45 202.65 Q261.6 197.3 270.6 197.3 L303.95 197.3 Q312.8 197.3 319.95 202.55 L321.7 203.95 323.3 202.65 Q330.5 197.3 339.45 197.3 L437.0 197.3 437.0 202.75 470.15 202.75 470.15 287.25 Q470.15 298.3 460.45 305.15 452.85 310.45 444.4 310.45 L411.1 310.45 Q402.95 310.45 395.5 305.4 L395.25 305.2 Q390.45 301.75 387.7 295.75 385.35 290.5 385.35 285.25 L385.35 270.65 365.35 270.65 365.35 300.35 Q366.6 301.1 367.45 301.75 377.1 308.7 377.1 319.75 L377.1 384.35 Q377.1 395.45 367.5 402.15 360.0 407.5 351.4 407.5 L318.0 407.5 Q309.55 407.5 302.05 402.25 L300.35 400.85 298.7 402.15 Q291.2 407.5 282.6 407.5 L249.3 407.5 Q241.05 407.5 233.7 402.45 L233.45 402.3 229.45 398.8 Q227.55 400.85 225.6 402.15 218.1 407.5 209.5 407.5 L176.15 407.5 Q171.1 407.5 166.45 405.6 L166.45 407.5 107.4 407.5 Q98.8 407.5 91.4 402.25 81.7 395.5 81.7 384.35 L81.7 351.9 Q81.7 350.0 82.05 348.2 L81.7 348.2 81.7 319.75 Q81.7 308.7 91.2 301.8 98.5 296.45 107.4 296.45 L110.45 296.45 Q107.75 290.8 107.75 285.25 L107.75 249.05 101.05 249.05 101.05 219.35 97.75 219.55 38.65 219.55 38.65 173.2 39.05 173.2 38.65 169.55 38.65 105.0 Q38.65 93.85 48.2 86.95 55.4 81.65 64.35 81.65 L166.45 81.65 Q175.5 81.65 182.45 86.85 L184.2 88.25 185.7 86.95 Q192.95 81.65 201.85 81.65 L235.25 81.65 Q240.3 81.65 244.9 83.45 L244.9 81.65 296.55 81.65 296.55 82.1 304.0 81.65 Q313.0 81.65 320.0 86.85 L321.7 88.25 323.25 86.95 Q330.5 81.65 339.4 81.65 L346.85 81.65" fill="#000000" fill-rule="evenodd" stroke="none"/>
    <path d="M146.85 209.8 L146.85 215.2 180.1 215.2 180.1 236.6 146.85 236.6 146.85 274.5 153.55 274.5 153.55 242.05 180.1 242.05 180.1 285.25 Q180.1 291.85 175.7 294.95 171.3 297.95 166.8 297.95 L133.5 297.95 Q129.1 297.95 124.9 295.1 122.75 293.5 121.4 290.5 120.2 287.7 120.2 285.25 L120.2 236.6 113.55 236.6 113.55 215.2 120.2 215.2 120.2 209.8 146.85 209.8" fill="#ffffff" fill-rule="evenodd" stroke="none"/>
    <path d="M303.95 209.8 Q308.75 209.8 312.65 212.65 317.2 215.95 317.2 220.65 L317.2 263.6 284.05 263.6 284.05 274.5 290.5 274.5 290.5 269.05 317.2 269.05 317.2 285.25 Q317.2 291.85 312.8 294.95 308.5 297.95 303.95 297.95 L270.6 297.95 Q266.05 297.95 261.65 294.95 257.3 291.8 257.3 285.25 L257.3 220.65 Q257.3 215.95 261.85 212.65 265.75 209.8 270.6 209.8 L303.95 209.8 M290.5 231.35 L284.05 231.35 284.05 242.05 290.5 242.05 290.5 231.35" fill="#ffffff" fill-rule="evenodd" stroke="none"/>
    <path d="M386.1 209.8 L386.1 231.35 352.9 231.35 352.9 236.6 386.1 236.6 386.1 258.2 352.9 258.2 352.9 297.95 326.2 297.95 326.2 220.65 Q326.2 215.9 330.7 212.65 334.65 209.8 339.45 209.8 L386.1 209.8" fill="#ffffff" fill-rule="evenodd" stroke="none"/>
    <path d="M457.7 215.2 L457.7 236.6 424.5 236.6 424.5 274.5 431.15 274.5 431.15 242.05 457.7 242.05 457.7 287.25 Q457.7 291.85 453.3 294.95 449.0 297.95 444.4 297.95 L411.1 297.95 Q406.8 297.95 402.5 295.1 400.35 293.5 399.0 290.5 397.8 287.7 397.8 285.25 L397.8 236.6 391.15 236.6 391.15 215.2 397.8 215.2 397.8 209.8 424.5 209.8 424.5 215.2 457.7 215.2" fill="#ffffff" fill-rule="evenodd" stroke="none"/>
    <path d="M77.85 115.7 L77.85 158.85 84.25 158.85 84.25 115.7 77.85 115.7 M55.6 97.0 Q59.55 94.1 64.35 94.1 L111.0 94.1 111.0 196.4 Q111.0 200.8 106.25 204.25 102.0 207.1 97.75 207.1 L51.05 207.1 51.05 185.7 84.25 185.7 84.25 180.25 64.35 180.25 Q59.8 180.25 55.45 177.15 51.05 174.15 51.05 169.55 L51.05 105.0 Q51.05 100.2 55.6 97.0" fill="#ffffff" fill-rule="evenodd" stroke="none"/>
    <path d="M221.75 147.95 L215.3 147.95 215.3 158.85 221.75 158.85 221.75 147.95 M193.15 97.0 Q197.05 94.1 201.85 94.1 L235.25 94.1 Q240.05 94.1 244.0 97.0 248.55 100.2 248.55 105.0 L248.55 180.25 201.85 180.25 Q197.3 180.25 193.0 177.15 188.65 174.2 188.65 169.55 L188.65 137.1 Q188.65 132.85 193.3 129.45 197.45 126.4 201.85 126.4 L221.75 126.4 221.75 115.7 215.3 115.7 215.3 120.95 188.65 120.95 188.65 105.0 Q188.65 100.2 193.15 97.0" fill="#ffffff" fill-rule="evenodd" stroke="none"/>
    <path d="M304.0 94.1 Q308.85 94.1 312.7 97.0 317.25 100.2 317.25 105.0 L317.25 180.25 290.55 180.25 290.55 115.7 284.1 115.7 284.1 180.25 257.35 180.25 257.35 94.1 284.1 94.1 284.1 99.55 Q290.8 94.1 304.0 94.1" fill="#ffffff" fill-rule="evenodd" stroke="none"/>
    <path d="M359.3 115.7 L352.8 115.7 352.8 158.85 359.3 158.85 359.3 115.7 M339.4 94.1 L359.3 94.1 359.3 72.55 386.05 72.55 386.05 180.25 339.4 180.25 Q334.85 180.25 330.5 177.15 326.15 174.2 326.15 169.55 L326.15 105.0 Q326.15 100.2 330.65 97.0 334.6 94.1 339.4 94.1" fill="#ffffff" fill-rule="evenodd" stroke="none"/>
    <path d="M146.55 126.4 L153.05 126.4 153.05 115.7 146.55 115.7 146.55 126.4 M166.45 94.1 Q171.35 94.1 175.2 97.0 179.75 100.2 179.75 105.0 L179.75 131.8 Q179.75 134.3 177.65 135.55 175.45 137.1 173.15 137.1 175.4 137.3 177.65 138.65 179.75 140.1 179.75 142.5 L179.75 185.7 215.25 185.7 215.25 209.8 235.15 209.8 238.55 210.15 Q241.4 210.85 243.9 212.65 248.45 215.95 248.45 220.65 L248.45 297.95 221.7 297.95 221.7 231.35 215.25 231.35 215.25 297.95 188.55 297.95 188.55 207.1 166.45 207.1 Q162.05 207.1 157.75 204.25 153.05 200.85 153.05 196.4 L153.05 147.95 146.55 147.95 146.55 180.25 119.85 180.25 119.85 94.1 166.45 94.1" fill="#ffffff" fill-rule="evenodd" stroke="none"/>
    <path d="M162.9 308.9 L189.6 308.9 189.6 373.65 196.05 373.65 196.05 308.9 222.75 308.9 222.75 384.35 Q222.75 388.95 218.45 392.0 214.0 395.05 209.5 395.05 L176.15 395.05 Q171.65 395.05 167.2 392.0 162.9 388.95 162.9 384.35 L162.9 308.9" fill="#ffffff" fill-rule="evenodd" stroke="none"/>
    <path d="M236.0 314.35 L236.0 308.9 262.7 308.9 262.7 314.35 295.9 314.35 295.9 335.75 262.7 335.75 262.7 373.65 269.4 373.65 269.4 341.2 295.9 341.2 295.9 384.35 Q295.9 388.95 291.55 392.0 287.1 395.05 282.6 395.05 L249.3 395.05 Q245.0 395.05 240.7 392.15 236.0 388.8 236.0 384.35 L236.0 335.75 229.4 335.75 229.4 314.35 236.0 314.35" fill="#ffffff" fill-rule="evenodd" stroke="none"/>
    <path d="M120.8 362.75 L120.8 373.65 127.35 373.65 127.35 362.75 120.8 362.75 M127.35 341.2 L127.35 330.5 120.8 330.5 120.8 335.75 94.15 335.75 94.15 319.75 Q94.15 315.05 98.65 311.8 102.6 308.9 107.4 308.9 L140.75 308.9 Q145.55 308.9 149.45 311.8 154.05 315.15 154.05 319.75 L154.05 395.05 107.4 395.05 Q102.95 395.05 98.5 392.0 94.15 389.0 94.15 384.35 L94.15 351.9 Q94.15 347.6 98.8 344.25 103.05 341.2 107.4 341.2 L127.35 341.2" fill="#ffffff" fill-rule="evenodd" stroke="none"/>
    <path d="M337.95 330.5 L331.5 330.5 331.5 373.65 337.95 373.65 337.95 330.5 M351.4 308.9 Q356.25 308.9 360.15 311.8 364.7 315.1 364.7 319.75 L364.7 384.35 Q364.7 388.95 360.3 392.0 355.9 395.05 351.4 395.05 L318.0 395.05 Q313.55 395.05 309.15 392.0 304.8 389.0 304.8 384.35 L304.8 319.75 Q304.8 315.05 309.3 311.8 313.2 308.9 318.0 308.9 L351.4 308.9" fill="#ffffff" fill-rule="evenodd" stroke="none"/>
  </g>
</svg>
