<?xml version="1.0" encoding="utf-8"?>
<!-- Generator: Adobe Illustrator 16.0.0, SVG Export Plug-In . SVG Version: 6.00 Build 0)  -->
<!DOCTYPE svg PUBLIC "-//W3C//DTD SVG 1.1//EN" "http://www.w3.org/Graphics/SVG/1.1/DTD/svg11.dtd">
<svg version="1.1" id="Layer_1" xmlns="http://www.w3.org/2000/svg" xmlns:xlink="http://www.w3.org/1999/xlink" x="0px" y="0px"
	 width="400px" height="106.842px" viewBox="0 0 400 106.842" enable-background="new 0 0 400 106.842" xml:space="preserve">
<g>
	<path fill="#112332" d="M18.522,18.247h34.75l15.506,35.152h0.196l15.507-35.152h34.749v69.808H95.556V50.391H95.36L79.339,88.055
		H58.415L42.392,50.391h-0.194v37.667H18.522V18.247z"/>
	<path fill="#112332" d="M198.64,18.247h63.911v17.011h-36.34v10.658h30.209v17.011h-30.209v25.128H198.64V18.247z"/>
	<path fill="#112332" d="M265.629,18.247h30.283v69.808h-30.283V18.247z"/>
	<path fill="#112332" d="M321.028,18.247h31.118l31.079,69.808h-26.619l-4.29-10.727H320.86l-4.29,10.727H289.95L321.028,18.247z
		 M336.685,39.365h-0.194l-8.214,20.951h16.622L336.685,39.365z"/>
	<path fill="#112332" d="M143.449,18.247h31.119l31.079,69.808h-26.619l-4.29-10.727h-31.458l-4.29,10.727h-26.619L143.449,18.247z
		 M159.106,39.365h-0.194L150.7,60.315h16.621L159.106,39.365z"/>
</g>
</svg>
