<?xml version="1.0" encoding="utf-8"?>
<!-- Generator: Adobe Illustrator 21.1.0, SVG Export Plug-In . SVG Version: 6.00 Build 0)  -->
<svg version="1.1" id="Layer_1" xmlns="http://www.w3.org/2000/svg" xmlns:xlink="http://www.w3.org/1999/xlink" x="0px" y="0px"
	 viewBox="0 0 960 960" style="enable-background:new 0 0 960 960;" xml:space="preserve">
<style type="text/css">
	.st0{fill:#FFFFFF;}
</style>
<path d="M0,960C0,640,0,320,0,0c320,0,640,0,960,0c0,320,0,640,0,960C640,960,320,960,0,960z M480,98.4c-4.8,0.2-7.6,2.8-9.5,6.9
	c-39.3,84.7-78.6,169.5-118,254.2c-1.4,2.9-1.2,5.1,0.1,7.9c8,16.9,15.8,33.8,23.6,50.7c31.3,67.5,62.7,135,94,202.6
	c2,4.2,4.5,7.5,9.6,7.4c5-0.1,7.6-3.2,9.5-7.5c38.7-83.5,77.5-167.1,116.4-250.5c2.3-4.8,2.3-8.6,0.1-13.5
	c-29.3-62.6-58.3-125.3-87.4-188c-9.8-21.1-19.7-42.3-29.4-63.4C487.1,101.3,484.4,98.7,480,98.4z M444.6,832.9
	c1.7-2.8,3-4.4,3.9-6.2c11.2-24,22.4-48,33.4-72c0.8-1.7,0.8-4.3,0-6c-11.1-24.2-22.3-48.4-33.6-72.5c-0.8-1.6-2.4-2.9-3.7-4.3
	c-1.4,1.5-3.2,2.7-4,4.5c-9.6,20.3-18.5,41-28.7,61c-5.1,9.9-5.5,17.9-0.3,28.1c10.5,20.2,19.5,41.2,29.1,61.9
	C441.6,829,442.9,830.4,444.6,832.9z M753.3,793.6c0.2-21.1-16.7-38.3-37.8-38.5c-21.1-0.3-38.3,16.6-38.5,37.8
	c-0.2,21.4,16.4,38.5,37.5,38.7C736.1,831.7,753.1,815.1,753.3,793.6z M270.2,792.9L270.2,792.9c0,11,0.1,22,0,33
	c0,3.4,1.2,4.8,4.7,4.7c8.3-0.2,16.7,0.2,25-0.2c20.2-0.9,35.8-17.6,35.5-37.8c-0.2-19.8-16.2-35.9-36.3-36.5c-8-0.2-16,0.1-24-0.1
	c-3.7-0.1-5,1.2-4.9,4.9C270.3,771.6,270.2,782.3,270.2,792.9z M798.1,790c13.6,13.3,26.8,26.3,40.1,39.1c1.3,1.2,3.4,1.6,5.1,2.3
	c0.6-1.7,1.8-3.4,1.8-5.1c0.1-20,0.2-40,0.1-59.9c-0.1-11.1,2-10-10.5-10.3c-4.7-0.1-6.5,1.1-6.3,6.1c0.4,10.9,0.1,21.8,0.1,33.6
	c-1.4-1.2-2.2-1.8-2.8-2.5c-12.3-11.9-24.6-23.8-37.1-35.6c-1.4-1.3-3.7-1.6-5.5-2.4c-0.6,1.8-1.7,3.5-1.7,5.3
	c-0.1,19.8,0,39.6,0,59.4c0.1,12.3-1.2,10.3,10.7,10.7c4.9,0.2,6.3-1.6,6.2-6.3C797.9,812.9,798.1,801.5,798.1,790z M212.7,718.7
	c4.9-1.6,7.7-0.5,9.5,4c1.9,4.6,4.5,8.9,6.7,13.4c5.7,11.5,5.7,11.4,18.6,11.1c4-0.1,5.3-1.1,3.1-5c-4.5-8.1-8.8-16.4-13.3-24.8
	c1-0.6,1.8-1.1,2.6-1.6c10.7-6.3,14.9-15.7,11.9-26.4c-2.8-10-12-16.5-23.4-16.6c-9.2,0-18.3,0.2-27.5-0.1c-4-0.1-5.1,1.2-5.1,5.2
	c0.2,19.5,0.1,39,0.1,58.5c0,10.8,0,10.6,10.8,10.8c4.5,0.1,6.3-1.1,6-5.9C212.4,733.8,212.7,726.2,212.7,718.7z M592.4,689.1
	c0.8-0.3,1.1-0.5,1.4-0.5c6.2-0.1,12.3,0,18.5-0.2c12.8-0.3,11.1,2.5,11.2-11.4c0-3.1-0.9-4.2-4-4.2c-13.3,0.1-26.7,0.1-40,0
	c-3.1,0-4,1.2-4,4.2c0.1,22,0.1,44,0,66c0,2.9,0.8,4.3,3.9,4.3c13.3-0.1,26.7,0,40-0.1c1.2,0,3.4-0.6,3.4-1.1
	c0.3-4.3,0.7-8.7-0.1-12.8c-0.2-0.9-4.6-1.5-7.1-1.5c-7.8-0.2-15.5-0.1-23.3-0.1c0-5.2,0-9.6,0-14.3c5.5,0,10.7,0,15.8,0
	c11.4-0.1,9.8,1.3,10.1-10.2c0.1-4.2-1.3-5.6-5.4-5.5c-6.8,0.2-13.6,0.1-20.6,0.1C592.4,697,592.4,693.1,592.4,689.1z M130.9,720.2
	c5.1,0,9.2,0.1,13.3,0c13.1-0.4,23.3-10.8,23.4-23.7c0.1-12.8-10.4-23.3-23.5-23.5c-8-0.1-16,0.2-23.9-0.1c-4.5-0.2-6.1,1.1-6,5.9
	c0.3,19.1,0,38.3,0.2,57.4c0.1,12.9-2.3,10.8,11.4,11.2c3.9,0.1,5.3-1.2,5.2-5.1C130.8,735,130.9,727.9,130.9,720.2z M578.9,831.6
	c1.3-0.1,3.7-0.1,5.9-0.6c9.6-2.1,16.3-7.6,18.6-17.4c2.1-9.4-1.9-16.7-9.4-21.9c-4.1-2.8-8.8-4.6-13.2-7c-2.7-1.5-5.7-2.9-7.8-5.2
	c-1.3-1.4-2.1-4.6-1.4-6.2c0.7-1.7,3.6-3.3,5.5-3.3c3.2,0.1,6.6,1.1,9.5,2.5c8.5,4,8.4,4.2,13.5-3.7c0.3-0.4,0.6-0.8,0.9-1.2
	c1.6-2.2,1.2-3.9-1.1-5.4c-9.2-6-19-8.8-29.9-5.9c-7.8,2.1-13.2,6.9-15.4,14.9c-2.1,7.8,0.1,14.7,6,19.9c3.8,3.3,8.6,5.6,12.9,8.3
	c3.1,1.9,6.8,3.2,9.2,5.7c1.6,1.8,2.5,5.8,1.7,7.9c-0.7,1.9-4.4,3.5-6.8,3.6c-3,0.1-6.2-1.1-9-2.4c-8.6-3.9-8.4-3.9-13.1,4.2
	c-1.7,2.9-1.4,4.6,1.3,6.6C563,829.6,570.2,831.3,578.9,831.6z M325.2,673c1,2.8,1.6,4.4,2.3,6c3.1,6.6,6.2,13.2,9.3,19.9
	c6.8,14.8,13.6,29.6,20.5,44.4c0.9,1.9,2.8,3.3,4.2,4.9c1.4-1.7,3.2-3.2,4.1-5.1c10.1-21.4,20-42.8,30-64.2c0.7-1.6,1.2-3.3,2.1-6
	c-5.2,0-9.5,0.2-13.7-0.1c-3.2-0.2-4.7,1.1-6,4c-4.8,11-9.8,21.9-14.8,32.7c-0.4,0.9-1.1,1.7-1.9,3c-1-1.9-1.7-3.2-2.3-4.6
	c-4.7-10.5-9.4-20.9-14.2-31.3c-0.6-1.4-1.9-3.4-3-3.5C336.6,672.7,331.4,673,325.2,673z M530.1,688.4c2.7,0,4.6,0,6.6,0
	c12.4-0.1,10.3,1.5,10.6-10.5c0.1-4-1.4-5.2-5.2-5.1c-11.8,0.2-23.6,0-35.4,0.1c-12.2,0.1-10.3-2-10.6,11c-0.1,3.6,1.4,4.7,4.7,4.6
	c4.1-0.1,8.1,0,12.5,0c0,16.8,0,32.8,0,48.7c0,11.7-1.1,9.9,10.2,10c6.6,0.1,6.6,0,6.6-6.6C530.1,723.5,530.1,706.4,530.1,688.4z
	 M632.1,793c0,8.8-0.1,17.6,0,26.4c0.1,12.6-2.1,10.9,11.5,11.2c4.2,0.1,5.4-1.4,5.4-5.5c-0.2-19.1,0-38.2-0.1-57.4
	c-0.1-13.3,2.5-11.5-12-11.7c-3.6-0.1-5,1.2-4.9,5C632.2,771.7,632.1,782.3,632.1,793z M363.4,793c0,8.8,0,17.7,0,26.5
	c0.1,13.2-1.3,10.7,11.1,11.1c4.4,0.2,5.7-1.4,5.7-5.7c-0.2-19.2,0-38.3-0.1-57.5c-0.1-12.9,2.3-11.1-11.9-11.4
	c-3.7-0.1-5,1.3-4.9,5C363.5,771.7,363.4,782.3,363.4,793z M508.7,793.5C508.7,793.5,508.8,793.5,508.7,793.5c0,8.6,0,17.3,0,25.9
	c0.1,12.8-1.9,10.8,11,11.2c4.9,0.2,5.8-1.8,5.8-6.1c-0.2-18.9,0-37.9-0.1-56.8c-0.1-13.4,1.9-11.3-11.6-11.7
	c-4.3-0.1-5.3,1.6-5.3,5.6C508.9,772.2,508.7,782.9,508.7,793.5z M297.4,710.3c0-9,0.1-18,0-26.9c-0.1-12.3,1.5-10.1-10.7-10.6
	c-5-0.2-6.2,1.6-6.1,6.3c0.2,18.8,0,37.6,0.1,56.4c0.1,13.7-2,11.5,11.9,11.8c3.9,0.1,4.8-1.4,4.8-5
	C297.3,731.6,297.4,721,297.4,710.3z M864.4,760.8c-1-1.7-2-3.2-2.9-4.8c-0.4,0.1-0.9,0.2-1.3,0.3c-0.1,2.4-0.3,4.9-0.5,8.6
	c1.5-1.7,2.1-2.3,2.6-2.9c0.9,0.8,1.7,1.4,2.5,2.1c0.8-1,1.3-1.7,1.7-2.4c0.7,0.9,1.1,1.6,2.1,2.8c0-3.4,0-5.8,0-8.3
	c-0.4-0.1-0.8-0.3-1.1-0.4C866.5,757.5,865.6,759,864.4,760.8z M852.4,756.3c0.9,3,1.6,5.4,2.5,8.6c1-3.4,1.7-5.9,2.4-8.6
	C855.7,756.3,854,756.3,852.4,756.3z"/>
<path class="st0" d="M480,98.4c4.4,0.3,7.1,2.8,8.9,6.8c9.8,21.2,19.6,42.3,29.4,63.4c29.1,62.7,58.1,125.4,87.4,188
	c2.3,4.9,2.2,8.7-0.1,13.5c-38.9,83.5-77.7,167-116.4,250.5c-2,4.3-4.5,7.4-9.5,7.5c-5.1,0.1-7.6-3.2-9.6-7.4
	c-31.3-67.5-62.6-135-94-202.6c-7.9-16.9-15.7-33.9-23.6-50.7c-1.3-2.8-1.5-5-0.1-7.9c39.4-84.7,78.8-169.4,118-254.2
	C472.5,101.2,475.2,98.6,480,98.4z M479.8,216.1c-0.5,0.8-0.8,1.1-1,1.6c-22,47.4-44,94.8-65.8,142.3c-0.9,1.9-0.8,4.9,0,6.9
	c16.9,36.8,33.9,73.5,50.9,110.2c5.1,11.1,10.3,22.1,15.8,33.8c0.7-1.2,1.1-1.8,1.4-2.3c21.7-46.8,43.4-93.7,65.2-140.4
	c1.6-3.4,1.6-6,0.1-9.3c-21.5-46.2-42.9-92.4-64.4-138.6C481.3,218.9,480.6,217.6,479.8,216.1z"/>
<path class="st0" d="M444.6,832.9c-1.7-2.5-3.1-3.9-3.8-5.6c-9.7-20.7-18.6-41.7-29.1-61.9c-5.3-10.1-4.8-18.2,0.3-28.1
	c10.2-20,19.1-40.7,28.7-61c0.8-1.7,2.6-3,4-4.5c1.3,1.4,2.9,2.6,3.7,4.3c11.3,24.1,22.5,48.3,33.6,72.5c0.8,1.7,0.7,4.3,0,6
	c-11,24.1-22.2,48.1-33.4,72C447.7,828.6,446.4,830.2,444.6,832.9z M444.9,708.1c-0.6,0.4-1,0.5-1.1,0.7
	c-6.3,13.6-12.7,27.2-18.9,40.8c-0.5,1.1-0.7,2.7-0.2,3.7c6.4,14.1,12.9,28.1,19.8,42.9c6.9-14.9,13.6-29,20.1-43.2
	c0.3-0.8,0.2-2-0.1-2.8C457.9,736.1,451.4,722.1,444.9,708.1z"/>
<path class="st0" d="M753.3,793.6c-0.2,21.5-17.1,38.1-38.8,37.9c-21.1-0.2-37.7-17.3-37.5-38.7c0.2-21.2,17.4-38,38.5-37.8
	C736.6,755.3,753.5,772.5,753.3,793.6z M736.2,793.6c0.1-11.8-9.3-21.4-20.9-21.5c-11.6-0.1-21.2,9.4-21.3,21.2
	c-0.1,11.6,9.6,21.3,21.2,21.3C726.6,814.5,736.1,805,736.2,793.6z"/>
<path class="st0" d="M270.2,792.9c0-10.7,0.1-21.3-0.1-32c-0.1-3.7,1.3-5,4.9-4.9c8,0.2,16-0.1,24,0.1c20.1,0.6,36.1,16.7,36.3,36.5
	c0.2,20.2-15.3,36.8-35.5,37.8c-8.3,0.4-16.6,0-25,0.2c-3.5,0.1-4.7-1.3-4.7-4.7C270.3,814.9,270.2,803.9,270.2,792.9L270.2,792.9z
	 M287.2,814.2c13,2.2,22.2-0.9,27.2-9.1c5-8.1,4.5-18.3-1.3-25.7c-5.4-7-15.8-9.7-25.9-6.8C287.2,786.5,287.2,800.4,287.2,814.2z"/>
<path class="st0" d="M798.1,790c0,11.6-0.2,23,0.1,34.4c0.1,4.7-1.2,6.5-6.2,6.3c-11.8-0.4-10.6,1.6-10.7-10.7
	c-0.1-19.8-0.1-39.6,0-59.4c0-1.8,1.1-3.5,1.7-5.3c1.9,0.8,4.2,1.1,5.5,2.4c12.5,11.8,24.7,23.7,37.1,35.6c0.7,0.6,1.4,1.2,2.8,2.5
	c0-11.8,0.3-22.7-0.1-33.6c-0.2-5,1.6-6.2,6.3-6.1c12.5,0.3,10.4-0.8,10.5,10.3c0.1,20,0.1,40-0.1,59.9c0,1.7-1.2,3.4-1.8,5.1
	c-1.7-0.8-3.8-1.1-5.1-2.3C824.9,816.2,811.7,803.3,798.1,790z"/>
<path class="st0" d="M212.7,718.7c0,7.4-0.3,15.1,0.1,22.7c0.2,4.8-1.5,6-6,5.9c-10.8-0.2-10.8,0-10.8-10.8c0-19.5,0.1-39-0.1-58.5
	c0-3.9,1.1-5.3,5.1-5.2c9.2,0.3,18.3,0,27.5,0.1c11.5,0.1,20.6,6.6,23.4,16.6c3,10.7-1.2,20-11.9,26.4c-0.8,0.5-1.7,1-2.6,1.6
	c4.5,8.4,8.8,16.6,13.3,24.8c2.2,3.9,0.9,4.9-3.1,5c-12.9,0.3-12.9,0.4-18.6-11.1c-2.2-4.5-4.8-8.8-6.7-13.4
	C220.4,718.2,217.6,717.1,212.7,718.7z M213,704.5c5.5,0,10.8,0.3,16-0.1c4.3-0.3,7.1-4,7.1-8.1c0-4.3-2.8-7.8-7.2-8.1
	c-5.2-0.3-10.5-0.1-16-0.1C213,693.7,213,698.9,213,704.5z"/>
<path class="st0" d="M592.4,689.1c0,4,0,8,0,12.5c7,0,13.8,0.2,20.6-0.1c4.1-0.2,5.5,1.3,5.4,5.5c-0.3,11.5,1.3,10.1-10.1,10.2
	c-5.1,0-10.3,0-15.8,0c0,4.8,0,9.2,0,14.3c7.7,0,15.5-0.1,23.3,0.1c2.5,0.1,6.9,0.6,7.1,1.5c0.7,4.2,0.4,8.5,0.1,12.8
	c0,0.5-2.2,1.1-3.4,1.1c-13.3,0.1-26.7,0-40,0.1c-3.1,0-3.9-1.4-3.9-4.3c0.1-22,0.1-44,0-66c0-3,1-4.2,4-4.2c13.3,0.1,26.7,0.1,40,0
	c3,0,4,1.1,4,4.2c-0.1,13.9,1.5,11.1-11.2,11.4c-6.2,0.2-12.3,0.1-18.5,0.2C593.5,688.6,593.2,688.8,592.4,689.1z"/>
<path class="st0" d="M130.9,720.2c0,7.7-0.2,14.8,0.1,21.9c0.1,3.9-1.3,5.2-5.2,5.1c-13.8-0.4-11.3,1.6-11.4-11.2
	c-0.1-19.1,0.1-38.3-0.2-57.4c-0.1-4.7,1.5-6,6-5.9c8,0.3,16,0,23.9,0.1c13.1,0.2,23.5,10.8,23.5,23.5
	c-0.1,12.9-10.3,23.3-23.4,23.7C140.1,720.3,136,720.2,130.9,720.2z M131.2,704.5c4.8,0,8.9,0.4,13-0.1c4.5-0.5,7.1-4.1,6.9-8.3
	c-0.2-4.6-3-7-7.3-7.4c-4.1-0.4-8.2-0.1-12.6-0.1C131.2,694,131.2,699.1,131.2,704.5z"/>
<path class="st0" d="M578.9,831.6c-8.7-0.3-15.8-2-22.2-6.6c-2.7-2-3-3.7-1.3-6.6c4.7-8.1,4.5-8.1,13.1-4.2c2.8,1.3,6,2.5,9,2.4
	c2.4-0.1,6.1-1.7,6.8-3.6c0.9-2.2,0-6.1-1.7-7.9c-2.3-2.6-6.1-3.8-9.2-5.7c-4.4-2.7-9.1-5-12.9-8.3c-5.9-5.2-8.1-12.1-6-19.9
	c2.2-7.9,7.6-12.8,15.4-14.9c10.9-2.9,20.7,0,29.9,5.9c2.3,1.5,2.7,3.2,1.1,5.4c-0.3,0.4-0.6,0.8-0.9,1.2c-5.1,7.9-5,7.7-13.5,3.7
	c-2.9-1.4-6.3-2.4-9.5-2.5c-1.9-0.1-4.8,1.6-5.5,3.3c-0.7,1.6,0.1,4.8,1.4,6.2c2.1,2.2,5.1,3.6,7.8,5.2c4.4,2.4,9.1,4.2,13.2,7
	c7.6,5.2,11.5,12.6,9.4,21.9c-2.2,9.8-9,15.2-18.6,17.4C582.5,831.5,580.2,831.5,578.9,831.6z"/>
<path class="st0" d="M325.2,673c6.2,0,11.4-0.2,16.6,0.2c1.1,0.1,2.4,2.1,3,3.5c4.8,10.4,9.5,20.9,14.2,31.3
	c0.6,1.3,1.3,2.6,2.3,4.6c0.8-1.3,1.5-2.1,1.9-3c5-10.9,10-21.8,14.8-32.7c1.2-2.8,2.8-4.2,6-4c4.2,0.2,8.5,0.1,13.7,0.1
	c-1,2.8-1.4,4.5-2.1,6c-9.9,21.4-19.9,42.8-30,64.2c-0.9,1.9-2.7,3.4-4.1,5.1c-1.4-1.6-3.4-3-4.2-4.9c-6.9-14.7-13.7-29.6-20.5-44.4
	c-3.1-6.6-6.2-13.2-9.3-19.9C326.8,677.4,326.2,675.7,325.2,673z"/>
<path class="st0" d="M530.1,688.4c0,18,0,35.1,0,52.2c0,6.6,0,6.6-6.6,6.6c-11.2-0.1-10.1,1.7-10.2-10c0-15.9,0-31.9,0-48.7
	c-4.4,0-8.5-0.1-12.5,0c-3.3,0.1-4.8-0.9-4.7-4.6c0.3-13.1-1.5-10.9,10.6-11c11.8-0.1,23.6,0.1,35.4-0.1c3.8-0.1,5.3,1.1,5.2,5.1
	c-0.4,12,1.8,10.4-10.6,10.5C534.7,688.4,532.7,688.4,530.1,688.4z"/>
<path class="st0" d="M632.1,793c0-10.6,0.1-21.3-0.1-31.9c-0.1-3.7,1.3-5,4.9-5c14.5,0.2,11.9-1.6,12,11.7
	c0.1,19.1-0.1,38.2,0.1,57.4c0,4.1-1.2,5.6-5.4,5.5c-13.6-0.3-11.4,1.4-11.5-11.2C632,810.6,632.1,801.8,632.1,793z"/>
<path class="st0" d="M363.4,793c0-10.7,0.1-21.3-0.1-32c-0.1-3.7,1.2-5,4.9-5c14.2,0.3,11.8-1.5,11.9,11.4
	c0.1,19.2-0.1,38.3,0.1,57.5c0,4.4-1.2,5.9-5.7,5.7c-12.5-0.4-11.1,2-11.1-11.1C363.4,810.7,363.4,801.8,363.4,793z"/>
<path class="st0" d="M508.7,793.5c0-10.6,0.1-21.3-0.1-31.9c-0.1-3.9,0.9-5.7,5.3-5.6c13.5,0.4,11.5-1.6,11.6,11.7
	c0.1,18.9-0.1,37.9,0.1,56.8c0,4.3-0.9,6.3-5.8,6.1c-12.9-0.5-10.9,1.5-11-11.2C508.7,810.8,508.8,802.2,508.7,793.5
	C508.8,793.5,508.7,793.5,508.7,793.5z"/>
<path class="st0" d="M297.4,710.3c0,10.6-0.1,21.3,0,31.9c0.1,3.5-0.9,5.1-4.8,5c-13.9-0.3-11.9,2-11.9-11.8
	c-0.1-18.8,0.1-37.6-0.1-56.4c-0.1-4.7,1.1-6.5,6.1-6.3c12.1,0.5,10.5-1.7,10.7,10.6C297.5,692.3,297.4,701.3,297.4,710.3z"/>
<path class="st0" d="M864.4,760.8c1.2-1.8,2.1-3.4,3-4.9c0.4,0.1,0.8,0.3,1.1,0.4c0,2.5,0,4.9,0,8.3c-0.9-1.3-1.4-1.9-2.1-2.8
	c-0.5,0.6-1,1.3-1.7,2.4c-0.8-0.7-1.6-1.3-2.5-2.1c-0.5,0.5-1.1,1.2-2.6,2.9c0.2-3.7,0.4-6.2,0.5-8.6c0.4-0.1,0.9-0.2,1.3-0.3
	C862.5,757.6,863.4,759.1,864.4,760.8z"/>
<path class="st0" d="M852.4,756.3c1.5,0,3.3,0,5,0c-0.8,2.7-1.5,5.2-2.4,8.6C854.1,761.7,853.3,759.3,852.4,756.3z"/>
<path d="M479.8,216.1c0.8,1.5,1.5,2.8,2.1,4.1c21.4,46.2,42.8,92.4,64.4,138.6c1.6,3.3,1.5,5.9-0.1,9.3
	c-21.8,46.8-43.5,93.6-65.2,140.4c-0.3,0.6-0.6,1.1-1.4,2.3c-5.4-11.7-10.6-22.7-15.8-33.8c-17-36.7-34.1-73.4-50.9-110.2
	c-0.9-1.9-0.9-4.9,0-6.9c21.8-47.5,43.8-94.9,65.8-142.3C479,217.2,479.3,216.9,479.8,216.1z"/>
<path d="M444.9,708.1c6.5,14.1,13.1,28.1,19.5,42.1c0.4,0.8,0.5,2,0.1,2.8c-6.5,14.2-13.1,28.3-20.1,43.2
	c-6.9-14.8-13.4-28.8-19.8-42.9c-0.5-1-0.3-2.6,0.2-3.7c6.2-13.6,12.6-27.2,18.9-40.8C443.8,708.5,444.2,708.4,444.9,708.1z"/>
<path d="M736.2,793.6c-0.1,11.4-9.6,20.9-21,21c-11.6,0.1-21.3-9.7-21.2-21.3c0.1-11.8,9.7-21.3,21.3-21.2
	C726.9,772.2,736.3,781.8,736.2,793.6z"/>
<path d="M287.2,814.2c0-13.8,0-27.7,0-41.6c10.1-2.9,20.4-0.2,25.9,6.8c5.8,7.5,6.3,17.6,1.3,25.7
	C309.3,813.3,300.1,816.4,287.2,814.2z"/>
<path d="M213,704.5c0-5.6,0-10.8,0-16.4c5.5,0,10.8-0.3,16,0.1c4.4,0.3,7.2,3.8,7.2,8.1c0,4.1-2.8,7.8-7.1,8.1
	C223.8,704.8,218.5,704.5,213,704.5z"/>
<path d="M131.2,704.5c0-5.4,0-10.5,0-16c4.4,0,8.6-0.3,12.6,0.1c4.2,0.4,7,2.9,7.3,7.4c0.2,4.3-2.4,7.8-6.9,8.3
	C140.2,704.9,136,704.5,131.2,704.5z"/>
</svg>
