<?xml version="1.0" encoding="UTF-8" standalone="no"?>
<svg
   xmlns:dc="http://purl.org/dc/elements/1.1/"
   xmlns:cc="http://creativecommons.org/ns#"
   xmlns:rdf="http://www.w3.org/1999/02/22-rdf-syntax-ns#"
   xmlns:svg="http://www.w3.org/2000/svg"
   xmlns="http://www.w3.org/2000/svg"
   xmlns:xlink="http://www.w3.org/1999/xlink"
   viewBox="0 0 300 283.23098"
   height="283.23099"
   width="300"
   xml:space="preserve"
   version="1.1"
   id="svg6118"><metadata
     id="metadata6124"><rdf:RDF><cc:Work
         rdf:about=""><dc:format>image/svg+xml</dc:format><dc:type
           rdf:resource="http://purl.org/dc/dcmitype/StillImage" /><dc:title></dc:title></cc:Work></rdf:RDF></metadata><defs
     id="defs6122"><clipPath
       clipPathUnits="userSpaceOnUse"
       id="clipPath6224"><path
         d="m 361.17,534.96 c 0,-32.971 -26.759,-59.73 -59.73,-59.73 -32.971,0 -59.73,26.759 -59.73,59.73 0,32.971 26.759,59.73 59.73,59.73 32.971,0 59.73,-26.759 59.73,-59.73"
         id="path6226"
         style="clip-rule:evenodd" /></clipPath><clipPath
       clipPathUnits="userSpaceOnUse"
       id="clipPathDp"
       clip-path="url(#clipPath2l)"><use
         height="100%"
         width="100%"
         y="0"
         x="0"
         xlink:href="#path6226"
         id="user3" /></clipPath><clipPath
       clipPathUnits="userSpaceOnUse"
       id="clipPathfP"
       clip-path="url(#clipPatht2)"><use
         height="100%"
         width="100%"
         y="0"
         x="0"
         xlink:href="#path6226"
         id="useIv" /></clipPath><clipPath
       clipPathUnits="userSpaceOnUse"
       id="clipPathmt"
       clip-path="url(#clipPath3z)"><use
         height="100%"
         width="100%"
         y="0"
         x="0"
         xlink:href="#path6226"
         id="use5S" /></clipPath><clipPath
       clipPathUnits="userSpaceOnUse"
       id="clipPath4f"
       clip-path="url(#clipPath13)"><use
         height="100%"
         width="100%"
         y="0"
         x="0"
         xlink:href="#path6226"
         id="useK6" /></clipPath><clipPath
       clipPathUnits="userSpaceOnUse"
       id="clipPathMI"
       clip-path="url(#clipPathAc)"><use
         height="100%"
         width="100%"
         y="0"
         x="0"
         xlink:href="#path6226"
         id="usebj" /></clipPath><clipPath
       clipPathUnits="userSpaceOnUse"
       id="clipPathF0"
       clip-path="url(#clipPathqS)"><use
         height="100%"
         width="100%"
         y="0"
         x="0"
         xlink:href="#path6226"
         id="useSu8" /></clipPath><clipPath
       clipPathUnits="userSpaceOnUse"
       id="clipPathLa"
       clip-path="url(#clipPath2d)"><use
         height="100%"
         width="100%"
         y="0"
         x="0"
         xlink:href="#path6226"
         id="useVz" /></clipPath><clipPath
       clipPathUnits="userSpaceOnUse"
       id="clipPathZV"
       clip-path="url(#clipPathhq)"><use
         height="100%"
         width="100%"
         y="0"
         x="0"
         xlink:href="#path6226"
         id="useZk" /></clipPath><clipPath
       clipPathUnits="userSpaceOnUse"
       id="clipPathi4"
       clip-path="url(#clipPathZm)"><use
         height="100%"
         width="100%"
         y="0"
         x="0"
         xlink:href="#path6226"
         id="useU74" /></clipPath><clipPath
       clipPathUnits="userSpaceOnUse"
       id="clipPathS8"
       clip-path="url(#clipPathVO)"><use
         height="100%"
         width="100%"
         y="0"
         x="0"
         xlink:href="#path6226"
         id="usen5" /></clipPath><clipPath
       clipPathUnits="userSpaceOnUse"
       id="clipPath5B"
       clip-path="url(#clipPathCB)"><use
         height="100%"
         width="100%"
         y="0"
         x="0"
         xlink:href="#path6226"
         id="useBt" /></clipPath><clipPath
       clipPathUnits="userSpaceOnUse"
       id="clipPath7w"
       clip-path="url(#clipPathtW)"><use
         height="100%"
         width="100%"
         y="0"
         x="0"
         xlink:href="#path6226"
         id="useASf" /></clipPath><clipPath
       clipPathUnits="userSpaceOnUse"
       id="clipPathFO"
       clip-path="url(#clipPathSC)"><use
         height="100%"
         width="100%"
         y="0"
         x="0"
         xlink:href="#path6226"
         id="usem3" /></clipPath><clipPath
       clipPathUnits="userSpaceOnUse"
       id="clipPathZ5"
       clip-path="url(#clipPatha6)"><use
         height="100%"
         width="100%"
         y="0"
         x="0"
         xlink:href="#path6226"
         id="useSy" /></clipPath><clipPath
       clipPathUnits="userSpaceOnUse"
       id="clipPatheN"
       clip-path="url(#clipPathc8)"><use
         height="100%"
         width="100%"
         y="0"
         x="0"
         xlink:href="#path6226"
         id="useH8" /></clipPath><clipPath
       clipPathUnits="userSpaceOnUse"
       id="clipPathJ7"
       clip-path="url(#clipPathID)"><use
         height="100%"
         width="100%"
         y="0"
         x="0"
         xlink:href="#path6226"
         id="useE8" /></clipPath><clipPath
       clipPathUnits="userSpaceOnUse"
       id="clipPathYe"
       clip-path="url(#clipPathG1)"><use
         height="100%"
         width="100%"
         y="0"
         x="0"
         xlink:href="#path6226"
         id="useos" /></clipPath><clipPath
       clipPathUnits="userSpaceOnUse"
       id="clipPathrc"
       clip-path="url(#clipPathjD)"><use
         height="100%"
         width="100%"
         y="0"
         x="0"
         xlink:href="#path6226"
         id="useQU" /></clipPath><clipPath
       clipPathUnits="userSpaceOnUse"
       id="clipPathwJ"
       clip-path="url(#clipPathob)"><use
         height="100%"
         width="100%"
         y="0"
         x="0"
         xlink:href="#path6226"
         id="use2RJ" /></clipPath><clipPath
       clipPathUnits="userSpaceOnUse"
       id="clipPathNM"
       clip-path="url(#clipPathe4)"><use
         height="100%"
         width="100%"
         y="0"
         x="0"
         xlink:href="#path6226"
         id="usenf" /></clipPath><clipPath
       clipPathUnits="userSpaceOnUse"
       id="clipPathHR"
       clip-path="url(#clipPathkh)"><use
         height="100%"
         width="100%"
         y="0"
         x="0"
         xlink:href="#path6226"
         id="useEE" /></clipPath><clipPath
       clipPathUnits="userSpaceOnUse"
       id="clipPath8l"
       clip-path="url(#clipPathP6)"><use
         height="100%"
         width="100%"
         y="0"
         x="0"
         xlink:href="#path6226"
         id="usetS" /></clipPath><clipPath
       clipPathUnits="userSpaceOnUse"
       id="clipPath7e"
       clip-path="url(#clipPathju)"><use
         height="100%"
         width="100%"
         y="0"
         x="0"
         xlink:href="#path6226"
         id="usefs" /></clipPath><clipPath
       clipPathUnits="userSpaceOnUse"
       id="clipPathue"
       clip-path="url(#clipPathgS)"><use
         height="100%"
         width="100%"
         y="0"
         x="0"
         xlink:href="#path6226"
         id="use1t" /></clipPath></defs><g
     transform="matrix(3.1925082,0,0,3.1925082,-1057.2789,-892.41017)"
     id="g9248"><path
       clip-path="url(#clipPathue)"
       transform="matrix(1.25,0,0,-1.25,0,990)"
       id="path6228"
       style="fill:#007ac1;fill-opacity:1;fill-rule:nonzero;stroke:none"
       d="m 291.938,514.365 -15.659,-0.019 -0.049,40.794 -11.275,-0.014 -0.015,12.919 37.974,0.046 0.015,-12.919 -11.04,-0.013 0.049,-40.794" /><path
       clip-path="url(#clipPath7e)"
       transform="matrix(1.25,0,0,-1.25,0,990)"
       id="path6230"
       style="fill:#007ac1;fill-opacity:1;fill-rule:nonzero;stroke:none"
       d="m 291.938,514.365 -15.659,-0.019 -0.049,40.794 -11.275,-0.014 -0.015,12.919 37.974,0.046 0.015,-12.919 -11.04,-0.013 0.049,-40.794" /><path
       clip-path="url(#clipPath8l)"
       transform="matrix(1.25,0,0,-1.25,0,990)"
       id="path6232"
       style="fill:#007ac1;fill-opacity:1;fill-rule:nonzero;stroke:none"
       d="m 334.548,514.34 -39.914,-0.048 -0.014,12.005 17.799,13.403 c 3.209,2.756 7.028,5.972 7.022,10.56 -0.003,3.059 -1.918,5.503 -5.129,5.5 -4.894,-0.006 -6.264,-5.055 -6.489,-9.108 l -13.231,2.584 c 1.44,11.242 9.536,18.287 20.853,18.3 10.476,0.013 19.352,-5.635 19.366,-16.951 0.006,-5.659 -2.588,-9.867 -6.712,-13.543 l -12.148,-9.114 -1.222,-0.766 20.416,0.024 -0.597,-12.846" /><path
       clip-path="url(#clipPathHR)"
       transform="matrix(1.25,0,0,-1.25,0,990)"
       id="path6234"
       style="fill:#000000;fill-opacity:1;fill-rule:nonzero;stroke:none"
       d="m 334.548,514.34 -39.914,-0.048 -0.014,12.005 17.799,13.403 c 3.209,2.756 7.028,5.972 7.022,10.56 -0.003,3.059 -1.918,5.503 -5.129,5.5 -4.894,-0.006 -6.264,-5.055 -6.489,-9.108 l -13.231,2.584 c 1.44,11.242 9.536,18.287 20.853,18.3 10.476,0.013 19.352,-5.635 19.366,-16.951 0.006,-5.659 -2.588,-9.867 -6.712,-13.543 l -12.148,-9.114 -1.222,-0.766 20.416,0.024 -0.597,-12.846" /><path
       clip-path="url(#clipPathNM)"
       transform="matrix(1.25,0,0,-1.25,0,990)"
       id="path6236"
       style="fill:#007ac1;fill-opacity:1;fill-rule:nonzero;stroke:none"
       d="m 278.714,504.533 -1.413,-0.002 -0.005,3.682 -1.017,-0.001 -0.002,1.165 3.427,0.005 0.002,-1.166 -0.997,-0.001 0.005,-3.682" /><path
       clip-path="url(#clipPathwJ)"
       transform="matrix(1.25,0,0,-1.25,0,990)"
       id="path6238"
       style="fill:#007ac1;fill-opacity:1;fill-rule:nonzero;stroke:none"
       d="m 286.167,505.496 -1.293,-0.002 -0.296,-0.954 -1.208,-0.001 1.499,4.848 1.569,0.002 1.525,-4.845 -1.519,-0.002 -0.277,0.954 m -0.256,1.059 -0.397,1.406 -0.394,-1.407 0.791,0.001" /><path
       clip-path="url(#clipPathrc)"
       transform="matrix(1.25,0,0,-1.25,0,990)"
       id="path6240"
       style="fill:#007ac1;fill-opacity:1;fill-rule:nonzero;stroke:none"
       d="m 294.604,504.552 -0.836,1.83 -0.507,-0.708 10e-4,-1.123 -1.399,-0.002 -0.006,4.847 1.399,0.002 0.002,-2 1.341,2.001 1.335,0.002 -1.221,-1.775 1.523,-3.072 -1.632,-0.002" /><path
       clip-path="url(#clipPathYe)"
       transform="matrix(1.25,0,0,-1.25,0,990)"
       id="path6242"
       style="fill:#007ac1;fill-opacity:1;fill-rule:nonzero;stroke:none"
       d="m 303.704,504.563 -3.638,-0.004 -0.006,4.847 3.639,0.004 10e-4,-1.116 -2.183,-0.003 10e-4,-0.707 1.766,0.003 0.001,-1.081 -1.766,-0.002 10e-4,-0.784 2.183,10e-4 0.001,-1.158" /><path
       clip-path="url(#clipPathJ7)"
       transform="matrix(1.25,0,0,-1.25,0,990)"
       id="path6244"
       style="fill:#007ac1;fill-opacity:1;fill-rule:nonzero;stroke:none"
       d="m 315.596,504.578 -1.414,-0.003 -0.004,3.682 -1.018,-0.001 -0.001,1.165 3.427,0.005 10e-4,-1.166 -0.996,-10e-4 0.005,-3.681" /><path
       clip-path="url(#clipPatheN)"
       transform="matrix(1.25,0,0,-1.25,0,990)"
       id="path6246"
       style="fill:#007ac1;fill-opacity:1;fill-rule:nonzero;stroke:none"
       d="m 325.395,504.59 -1.25,-0.003 -0.675,2.671 -0.013,0 -0.626,-2.672 -1.3,-0.001 -1.299,4.845 1.399,0.002 0.674,-2.797 0.015,0 0.654,2.798 1.165,0.002 0.717,-2.798 0.014,0 0.668,2.799 1.138,0.001 -1.281,-4.847" /><path
       clip-path="url(#clipPathZ5)"
       transform="matrix(1.25,0,0,-1.25,0,990)"
       id="path6248"
       style="fill:#007ac1;fill-opacity:1;fill-rule:nonzero;stroke:none"
       d="m 335.03,507.01 c 0.002,-1.378 -0.845,-2.481 -2.314,-2.483 -1.47,-10e-4 -2.32,1.1 -2.321,2.477 -0.002,1.449 0.838,2.51 2.314,2.512 1.477,0.002 2.32,-1.057 2.321,-2.506 M 331.985,507 c 0,-0.467 0.051,-1.364 0.729,-1.363 0.678,0 0.727,0.898 0.726,1.364 0,0.473 -0.072,1.42 -0.729,1.419 -0.657,0 -0.727,-0.947 -0.726,-1.42" /><path
       clip-path="url(#clipPathFO)"
       transform="matrix(1.25,0,0,-1.25,0,990)"
       id="path6250"
       style="fill:#000000;fill-opacity:1;fill-rule:nonzero;stroke:none"
       d="m 335.129,568.374 0,-0.31 0.888,0 0,-2.327 0.359,0 0,2.327 0.888,0 0,0.31 -2.135,0" /><path
       clip-path="url(#clipPath7w)"
       transform="matrix(1.25,0,0,-1.25,0,990)"
       id="path6252"
       style="fill:#000000;fill-opacity:1;fill-rule:nonzero;stroke:none"
       d="m 337.586,565.737 0.338,0 0,1.556 c 0,0.062 -0.003,0.16 -0.007,0.292 -0.006,0.132 -0.008,0.231 -0.008,0.296 l 0,0.08 0.762,-2.224 0.355,0 0.766,2.224 c 0,-0.142 -0.003,-0.276 -0.007,-0.4 -0.006,-0.124 -0.007,-0.213 -0.007,-0.268 l 0,-1.556 0.338,0 0,2.637 -0.507,0 -0.759,-2.23 -0.756,2.23 -0.508,0 0,-2.637" /><path
       clip-path="url(#clipPath5B)"
       transform="matrix(1.25,0,0,-1.25,0,990)"
       id="path6254"
       style="fill:#007ac1;fill-opacity:1;fill-rule:nonzero;stroke:none"
       d="m 276.405,501.884 1.366,0 0,-4.419 -1.366,0 0,4.419 z" /><path
       clip-path="url(#clipPathS8)"
       transform="matrix(1.25,0,0,-1.25,0,990)"
       id="path6256"
       style="fill:#007ac1;fill-opacity:1;fill-rule:nonzero;stroke:none"
       d="m 283.079,497.464 -1.269,2.068 -0.393,0.799 -0.013,-0.013 0.013,-0.052 c 0.064,-0.283 0.09,-0.437 0.09,-0.74 l 0,-2.062 -1.102,0 0,4.42 1.282,0 1.482,-2.468 0.013,0.013 -0.096,1.224 0,1.231 1.101,0 0,-4.42 -1.108,0" /><path
       clip-path="url(#clipPathi4)"
       transform="matrix(1.25,0,0,-1.25,0,990)"
       id="path6258"
       style="fill:#007ac1;fill-opacity:1;fill-rule:nonzero;stroke:none"
       d="m 288.729,497.464 -1.289,0 0,3.356 -0.927,0 0,1.064 3.124,0 0,-1.064 -0.908,0 0,-3.356" /><path
       clip-path="url(#clipPathZV)"
       transform="matrix(1.25,0,0,-1.25,0,990)"
       id="path6260"
       style="fill:#007ac1;fill-opacity:1;fill-rule:nonzero;stroke:none"
       d="m 295.281,497.464 -3.318,0 0,4.42 3.318,0 0,-1.019 -1.991,0 0,-0.644 1.611,0 0,-0.986 -1.611,0 0,-0.715 1.991,0 0,-1.056" /><path
       clip-path="url(#clipPathLa)"
       transform="matrix(1.25,0,0,-1.25,0,990)"
       id="path6262"
       style="fill:#007ac1;fill-opacity:1;fill-rule:nonzero;stroke:none"
       d="m 300.196,497.464 -0.644,1.688 -0.425,0 0,-1.688 -1.372,0 0,4.42 2.248,0 c 0.387,0 0.811,-0.052 1.14,-0.271 0.368,-0.232 0.541,-0.625 0.541,-1.057 0,-0.579 -0.257,-0.927 -0.779,-1.166 l 0.799,-1.926 -1.508,0 m -0.573,2.635 c 0.296,0 0.651,0.045 0.651,0.425 0,0.148 -0.078,0.29 -0.213,0.36 -0.116,0.059 -0.258,0.059 -0.387,0.059 l -0.547,0 0,-0.844 0.496,0" /><path
       clip-path="url(#clipPathF0)"
       transform="matrix(1.25,0,0,-1.25,0,990)"
       id="path6264"
       style="fill:#007ac1;fill-opacity:1;fill-rule:nonzero;stroke:none"
       d="m 306.349,498.334 -1.18,0 -0.27,-0.87 -1.101,0 1.371,4.42 1.431,0 1.385,-4.42 -1.385,0 -0.251,0.87 m -0.232,0.966 -0.361,1.282 -0.361,-1.282 0.722,0" /><path
       clip-path="url(#clipPathMI)"
       transform="matrix(1.25,0,0,-1.25,0,990)"
       id="path6266"
       style="fill:#007ac1;fill-opacity:1;fill-rule:nonzero;stroke:none"
       d="m 313.551,499.074 c -0.084,-1.017 -0.824,-1.674 -1.843,-1.674 -1.327,0 -2.023,0.959 -2.023,2.216 0,1.275 0.613,2.332 2.004,2.332 1.128,0 1.772,-0.671 1.862,-1.772 l -1.263,-0.064 c 0.013,0.374 -0.129,0.843 -0.586,0.843 -0.599,0 -0.625,-0.92 -0.625,-1.339 0,-0.445 0.026,-1.199 0.638,-1.199 0.419,0 0.58,0.367 0.599,0.735 l 1.237,-0.078" /><path
       clip-path="url(#clipPath4f)"
       transform="matrix(1.25,0,0,-1.25,0,990)"
       id="path6268"
       style="fill:#007ac1;fill-opacity:1;fill-rule:nonzero;stroke:none"
       d="m 317.977,497.464 -1.289,0 0,3.356 -0.927,0 0,1.064 3.124,0 0,-1.064 -0.908,0 0,-3.356" /><path
       clip-path="url(#clipPathmt)"
       transform="matrix(1.25,0,0,-1.25,0,990)"
       id="path6270"
       style="fill:#007ac1;fill-opacity:1;fill-rule:nonzero;stroke:none"
       d="m 321.243,501.884 1.366,0 0,-4.419 -1.366,0 0,4.419 z" /><path
       clip-path="url(#clipPathfP)"
       transform="matrix(1.25,0,0,-1.25,0,990)"
       id="path6272"
       style="fill:#007ac1;fill-opacity:1;fill-rule:nonzero;stroke:none"
       d="m 327.743,497.464 -1.385,0 -1.424,4.42 1.424,0 0.696,-2.391 0.129,-0.438 0.122,0.419 0.696,2.41 1.115,0 -1.373,-4.42" /><path
       clip-path="url(#clipPathDp)"
       transform="matrix(1.25,0,0,-1.25,0,990)"
       id="path6274"
       style="fill:#007ac1;fill-opacity:1;fill-rule:nonzero;stroke:none"
       d="m 334.707,497.464 -3.317,0 0,4.42 3.317,0 0,-1.019 -1.99,0 0,-0.644 1.61,0 0,-0.986 -1.61,0 0,-0.715 1.99,0 0,-1.056" /></g></svg>