<?xml version="1.0" encoding="UTF-8"?>
<!-- Generator: Adobe Illustrator 22.0.0, SVG Export Plug-In . SVG Version: 6.00 Build 0)  -->
<svg version="1.1" id="Layer_1" xmlns="http://www.w3.org/2000/svg" xmlns:xlink="http://www.w3.org/1999/xlink" x="0px" y="0px" viewBox="0 0 150.5 45" style="enable-background:new 0 0 150.5 45;" xml:space="preserve">
<style type="text/css">
	.st0{fill:#FFF8ED;}
	.st1{fill:#000100;}
</style>
<title>Page 1</title>
<rect x="2.2" class="st0" width="148.5" height="44"/>
<desc>Created with Sketch.</desc>
<rect x="0.6" y="1" class="st0" width="148.7" height="44"/>
<g id="Symbols">
	<g id="Header-Tablet" transform="translate(0.000000, -43.000000)">
		<g id="Header" transform="translate(0.000000, 43.000000)">
			<g>
				<g id="RISE-logo">
					<g id="Group-3" transform="translate(0.000000, 7.000000)">
						<path id="Fill-1_1_" class="st1" d="M30,6.5c0,2.8-2.3,5-5.1,5H0.3v2l24.6-0.2c3.9,0,7.2-2.8,7.2-6.8s-3.2-7.2-7.2-7.2H0.3v2        h24.6C27.7,1.3,30,3.7,30,6.5"/>
					</g>
					<g id="Group-6">
						<g id="Clip-5">
						</g>
						<path id="Fill-4_1_" class="st1" d="M112.8,6.1H82.2c-3.9,0-7.1,3.2-7.1,7.2c0,3.9,3.2,7.2,7.1,7.2h10.5        c5.3,0,10.5,5.3,10.5,11.2c0,6.2-5,11.3-11.2,11.3H60.9v-4.1H92c3.9,0,7.1-3.2,7.1-7.2c0-3.9-3.2-7.1-7.1-7.1h-9.8        C76,24.6,71,19.5,71,13.3c0-6,4.7-10.9,10.6-11.2L112.8,2V6.1z M105.2,32.7h7.6v4.1h-8.6C104.7,35.6,105.1,34.2,105.2,32.7        L105.2,32.7z M112.8,26.6v4.1h-7.6c-0.1-1.4-0.4-2.8-1-4.1H112.8z M112.8,20.5v4.1h-9.7c-1-1.6-2.4-3-4.1-4.1H112.8z         M82.2,18.4c-2.8,0-5.1-2.3-5.1-5.1s2.3-5.1,5.1-5.1h30.6v4.1H82.2c-0.6,0-1,0.5-1,1c0,0.6,0.5,1,1,1h30.6v4.1H82.2z M99,43        c1.7-1,3.1-2.4,4.1-4.1h9.7V43H99z M17.4,33.9c-1.7-2.7-3.5-5.5-5.9-7.3h5.1c1.7,0.4,3.1,2.6,4.5,4.9c2.2,3.4,4.6,7.3,9.2,7.3        h16.3V43H28.5C23.1,43,20.4,38.6,17.4,33.9L17.4,33.9z M24.7,26.6c1,0,1.6,0.9,2.5,2.4c1,1.7,2.3,3.8,5.1,3.8h14.4v4.1H30.4        c-3.5,0-5.5-3.2-7.5-6.4c-0.9-1.4-1.7-2.8-2.7-3.8L24.7,26.6L24.7,26.6z M35.9,20.5h10.8v4.1H31.8        C33.4,23.5,34.8,22.1,35.9,20.5L35.9,20.5z M31.8,2.1h14.9v4.1H35.9C34.8,4.5,33.4,3.1,31.8,2.1L31.8,2.1z M46.7,30.7H32.3        c-1.5,0-2.3-1.1-3.3-2.8c-0.3-0.4-0.5-0.9-0.8-1.3h18.6L46.7,30.7L46.7,30.7z M37.9,14.3h8.8v4.1H37        C37.5,17.1,37.8,15.8,37.9,14.3L37.9,14.3z M46.7,12.3h-8.8c-0.1-1.4-0.4-2.8-1-4.1h9.7v4.1H46.7z M48.7,43h4.1V2.1h-4.1V43z         M54.8,43h4.1V2.1h-4.1V43z M69.1,12.3h-8.2V8.2h9.2C69.5,9.5,69.2,10.8,69.1,12.3L69.1,12.3z M60.9,18.4v-4.1h8.2        c0.1,1.4,0.5,2.8,1,4.1H60.9z M60.9,24.6v-4.1h10.2c1.1,1.7,2.5,3.1,4.1,4.1H60.9z M60.9,32.7H92c0.6,0,1-0.5,1-1        c0-0.6-0.5-1-1-1H60.9v-4.1H92c2.8,0,5.1,2.3,5.1,5.1s-2.3,5.1-5.1,5.1H60.9V32.7z M75.2,2.1c-1.6,1-3,2.4-4.1,4.1H60.9V2.1        H75.2z M0.3,0v2h25.1C31.3,2.3,36,7.3,36,13.3c0,6.2-5,11.3-11.2,11.3H0.3v2h5.4c3.1,0,5.2,1.7,7.1,4.1H0.3v2h13.9        c0.5,0.7,1,1.5,1.5,2.3c0.4,0.6,0.8,1.2,1.2,1.8H0.3v2h18c1.2,1.6,2.5,3.1,4,4.2h-22v2h150.4v-2h-35.9V2h35.8V0H0.3z"/>
					</g>
					<polygon id="Fill-7_1_" class="st1" points="118.7,38.8 151.1,38.8 151.1,36.8 120.8,36.8 120.8,8.3 151.1,8.3 151.1,6.3        118.7,6.3      "/>
					<g id="Group-11" transform="translate(157.000000, 15.000000)">
						<g id="Clip-10">
						</g>
						<polygon id="Fill-9" class="st1" points="-32.1,5.5 -6.4,5.5 -6.4,3.5 -30.1,3.5 -30.1,-0.7 -6.3,-0.7 -6.4,-2.7 -32.1,-2.7               "/>
					</g>
					<g id="Group-14" transform="translate(157.000000, 31.000000)">
						<g id="Clip-13">
						</g>
						<polygon id="Fill-12" class="st1" points="-32.1,1.7 -6.4,1.7 -6.4,-0.3 -30.1,-0.3 -30.1,-4.4 -6.4,-4.4 -6.4,-6.4         -32.1,-6.4       "/>
					</g>
					<path id="Fill-15" class="st1" d="M24.5,12.3H0.3v2h24.3c0.6,0,1-0.3,1-1C25.5,12.6,25.1,12.3,24.5,12.3"/>
				</g>
			</g>
		</g>
	</g>
</g>
<rect x="48.8" y="1.7" class="st0" width="4.1" height="41"/>
<rect x="55" y="1.7" class="st0" width="4.1" height="41"/>
</svg>