<?xml version="1.0" encoding="UTF-8"?>
<svg width="381px" height="105px" viewBox="0 0 381 105" version="1.1" xmlns="http://www.w3.org/2000/svg" xmlns:xlink="http://www.w3.org/1999/xlink">
    <!-- Generator: Sketch 52.5 (67469) - http://www.bohemiancoding.com/sketch -->
    <title>Group 19 Copy</title>
    <desc>Created with Sketch.</desc>
    <defs>
        <polygon id="path-1" points="0 0.0945 119.657172 0.0945 119.657172 59.6935 0 59.6935"/>
        <polygon id="path-3" points="0.7372 0.8896 63.8442 0.8896 63.8442 62 0.7372 62"/>
        <polygon id="path-5" points="0.2289 0.8896 63.3349 0.8896 63.3349 62 0.2289 62"/>
        <polygon id="path-7" points="0.831908875 0.712 42.8298911 0.712 42.8298911 103.4519 0.831908875 103.4519"/>
    </defs>
    <g id="Page-1" stroke="none" stroke-width="1" fill="none" fill-rule="evenodd">
        <g id="Group-19-Copy" transform="translate(0.000000, -1.000000)">
            <g id="Group-3" transform="translate(0.000000, 45.288000)">
                <mask id="mask-2" fill="white">
                    <use xlink:href="#path-1"/>
                </mask>
                <g id="Clip-2"/>
                <path d="M54.8767,18.2395 C54.0817,21.1365 48.3867,31.3435 46.1347,35.2495 C43.2207,30.7135 36.5987,17.8615 34.3467,12.8215 C33.4197,10.8045 32.8897,9.0415 32.8897,8.1595 C32.8897,6.6475 36.0687,6.0175 41.3667,6.0175 C44.4137,6.0175 47.0627,6.2695 49.3137,6.6475 C52.6257,7.1515 55.5387,11.8135 55.4067,13.9555 C55.4067,15.0895 55.4067,16.3485 54.8767,18.2395 Z M118.8507,5.1355 C120.1747,3.7495 119.7777,0.7245 118.3207,0.0945 C114.7447,0.4725 110.3737,0.5985 105.6057,0.5985 C101.4997,0.5985 97.5257,0.4725 92.0957,0.2205 C90.3737,0.8515 90.3737,4.2535 91.4327,5.2605 L94.2147,5.7645 C96.9957,6.3955 98.3207,7.0255 98.3207,7.7815 C98.3207,8.7895 97.9227,10.8045 96.8637,13.3255 C94.2147,20.0035 91.5657,26.9325 87.5917,35.2495 C84.0157,28.3195 79.3797,19.1215 76.3337,12.1915 C75.2737,9.7975 75.0087,8.9155 75.0087,7.7815 C75.0087,7.0255 77.2607,6.3955 81.1017,5.6385 L83.6187,5.2605 C84.6777,4.6315 84.9427,0.3465 83.0887,0.2205 C72.4927,0.5985 64.2807,0.7245 53.8167,0.7245 L20.4397,0.7245 C13.4197,0.7245 8.1217,0.5985 1.3667,0.3465 C-0.3553,1.1035 -0.3553,4.2535 0.8367,5.3865 L3.6187,5.8905 C6.3997,6.5215 7.9887,7.1515 10.3737,11.3095 C18.4527,26.1765 26.6647,42.5565 34.6117,58.6855 C35.6707,59.5675 36.7307,59.6935 38.4527,59.6935 C40.1747,59.6935 41.3667,59.5675 42.2937,58.6855 C46.1347,51.6295 56.0687,32.6035 60.3077,25.1695 C65.2077,34.2415 73.9497,50.9995 77.3937,58.6855 C78.4527,59.5675 79.6447,59.6935 81.2347,59.6935 C82.9567,59.6935 84.0157,59.5675 85.0757,58.6855 C91.9627,43.4395 99.6447,27.8155 107.1947,13.1995 C109.8437,7.9075 111.0357,6.5215 116.4657,5.5125 L118.8507,5.1355 Z" id="Fill-1" fill="#252729" mask="url(#mask-2)"/>
            </g>
            <path d="M235.8059,37.715 C241.8939,37.715 247.8489,34.061 247.8489,27.257 C247.8489,21.461 243.2169,17.051 236.5999,17.177 C230.2469,17.177 224.5569,21.335 224.5569,27.635 C224.5569,33.431 228.6599,37.715 235.8059,37.715" id="Fill-4" fill="#252729"/>
            <path d="M326.2834,50.801 C327.4354,49.919 327.6914,46.518 326.0264,45.761 C322.5684,45.887 318.9814,46.14 313.9854,46.14 C309.5024,46.14 306.1724,46.013 301.1764,45.761 C299.6384,46.518 299.6384,49.919 301.0484,50.801 L303.2254,51.179 C305.7874,51.81 306.9404,52.188 306.9404,52.944 C306.9404,53.825 306.6834,55.085 306.0444,56.471 C302.7134,65.165 298.8704,72.726 295.4114,79.907 C292.0814,73.104 288.6224,65.669 285.5484,57.858 C284.7794,55.715 284.1384,53.699 284.1384,52.818 C284.1384,52.062 284.9084,51.81 286.8294,51.432 L289.2624,50.801 C290.2884,50.045 290.4164,46.518 289.0074,45.761 C283.2424,45.887 277.4784,46.14 271.7144,46.14 C263.3874,46.14 258.1364,46.013 252.3714,45.761 C250.3224,46.392 250.4504,49.793 251.8594,50.801 L255.0614,51.558 C258.9044,52.314 259.9294,53.573 263.6434,60.503 C273.5074,79.404 276.8384,86.207 284.9084,104.226 C285.8044,104.856 287.2144,105.234 288.6224,105.234 C290.1594,105.234 291.4404,104.856 292.2094,104.226 C299.3834,88.98 306.4284,73.734 314.4984,58.991 C317.7004,53.573 318.8534,51.936 323.5934,51.179 L326.2834,50.801 Z" id="Fill-6" fill="#252729"/>
            <path d="M255.5246,98.6994 L252.4806,98.4474 C247.1876,97.9434 246.5256,96.6824 246.5256,86.7284 L246.5256,60.6474 C246.5256,54.2204 246.7906,47.9214 247.0546,43.6364 C246.3926,42.7554 245.4666,42.3774 244.1436,42.3774 C239.3786,45.0234 227.8656,48.8034 220.3216,50.6934 C219.1306,51.5754 219.1306,54.0954 220.3216,54.9764 L222.5716,56.2374 C225.6156,57.8754 225.6156,59.6384 225.6156,65.3084 L225.6156,86.7284 C225.6156,96.6824 224.9536,98.0694 219.6606,98.4474 L216.6166,98.6994 C215.2926,99.5814 215.2926,102.8574 216.7486,103.7394 C222.0426,103.4874 228.7916,103.3614 236.0706,103.3614 C243.4816,103.3614 249.7016,103.4874 255.3926,103.7394 C256.8476,102.8574 256.8476,99.5814 255.5246,98.6994" id="Fill-8" fill="#252729"/>
            <g id="Group-12" transform="translate(108.000000, 43.288000)">
                <mask id="mask-4" fill="white">
                    <use xlink:href="#path-3"/>
                </mask>
                <g id="Clip-11"/>
                <path d="M35.0632,7.6936 C40.6082,7.6936 43.7762,10.8436 43.7762,15.5056 C43.7762,16.8916 43.3802,18.4036 42.5882,18.7816 C40.8722,19.7906 38.0992,20.0426 35.8552,20.0426 L35.8552,20.1686 L29.9142,20.1686 C24.5012,20.1686 22.2572,20.0426 22.2572,18.0256 C22.2572,13.4896 28.1982,7.6936 35.0632,7.6936 M59.6192,42.4696 C55.2622,49.0216 48.9252,49.9036 44.3042,49.9036 C28.8582,50.0296 20.9372,39.5716 20.9372,28.8616 C20.9372,26.5936 21.2012,26.3416 25.0292,26.3416 L56.7142,26.0896 C61.8632,26.0896 62.6552,24.0736 62.6552,21.4276 C62.6552,10.4656 53.4142,0.8896 36.2512,0.8896 C15.6562,0.8896 0.7372,14.8766 0.7372,32.8936 C0.7372,48.5176 12.7512,62.0006 35.0632,62.0006 C44.9642,62.0006 57.1102,57.8416 63.8442,45.7466 C63.8442,43.3516 61.4672,42.2176 59.6192,42.4696" id="Fill-10" fill="#252729" mask="url(#mask-4)"/>
            </g>
            <g id="Group-15" transform="translate(317.000000, 43.288000)">
                <mask id="mask-6" fill="white">
                    <use xlink:href="#path-5"/>
                </mask>
                <g id="Clip-14"/>
                <path d="M34.5549,7.6936 C40.0999,7.6936 43.2679,10.8436 43.2679,15.5056 C43.2679,16.8916 42.8719,18.4036 42.0799,18.7816 C40.3639,19.7906 37.5909,20.0426 35.3469,20.0426 L35.3469,20.1686 L29.4059,20.1686 C23.9919,20.1686 21.7479,20.0426 21.7479,18.0256 C21.7479,13.4896 27.6899,7.6936 34.5549,7.6936 M59.1109,42.4696 C54.7539,49.0216 48.4169,49.9036 43.7959,49.9036 C28.3499,50.0296 20.4279,39.5716 20.4279,28.8616 C20.4279,26.5936 20.6929,26.3416 24.5209,26.3416 L56.2059,26.0896 C61.3549,26.0896 62.1469,24.0736 62.1469,21.4276 C62.1469,10.4656 52.9059,0.8896 35.7419,0.8896 C15.1479,0.8896 0.2289,14.8766 0.2289,32.8936 C0.2289,48.5176 12.2429,62.0006 34.5549,62.0006 C44.4559,62.0006 56.6019,57.8416 63.3349,45.7466 C63.3349,43.3516 60.9589,42.2176 59.1109,42.4696" id="Fill-13" fill="#252729" mask="url(#mask-6)"/>
            </g>
            <g id="Group-18" transform="translate(169.000000, 0.288000)">
                <mask id="mask-8" fill="white">
                    <use xlink:href="#path-7"/>
                </mask>
                <g id="Clip-17"/>
                <path d="M38.9704,97.8759 C33.2574,97.2119 32.5764,96.0179 32.5764,85.5319 L32.5764,23.6759 C32.5764,14.2509 32.8484,7.8799 33.1204,1.7749 C32.4404,0.9779 31.2164,0.7119 30.2634,0.7119 C21.9674,4.0309 12.0374,7.6149 4.9644,9.0749 C3.7404,10.0039 3.7404,12.6589 4.9644,13.5879 L7.8204,15.0479 C11.0854,16.7739 11.0854,18.4989 11.0854,24.4719 L11.0854,85.5319 C11.0854,96.0179 10.4054,97.4779 4.9644,97.8759 L1.8354,98.1419 C0.4754,99.0709 0.4754,102.5219 1.9724,103.4519 C7.6844,103.1859 14.7584,103.0529 21.8314,103.0529 C29.3114,103.0529 36.2494,103.1859 41.6894,103.4519 C43.1864,102.5219 43.1864,99.0709 41.8264,98.1419 L38.9704,97.8759 Z" id="Fill-16" fill="#252729" mask="url(#mask-8)"/>
            </g>
        </g>
    </g>
</svg>