<?xml version="1.0" encoding="UTF-8"?>
<!-- Generator: Adobe Illustrator 16.0.0, SVG Export Plug-In . SVG Version: 6.00 Build 0)  -->
<!DOCTYPE svg PUBLIC "-//W3C//DTD SVG 1.1//EN" "http://www.w3.org/Graphics/SVG/1.1/DTD/svg11.dtd">
<svg version="1.1" xmlns="http://www.w3.org/2000/svg" xmlns:xlink="http://www.w3.org/1999/xlink" x="0px" y="0px" width="294.057px" height="34.997px" viewBox="0 0 294.057 34.997" enable-background="new 0 0 294.057 34.997" xml:space="preserve">
<g id="レイヤー_1" display="none">
	<path display="inline" d="M111.99,0.034c0,0-0.256,0.115-0.561,0.095c-0.309-0.031-1.121,0.223-1.405,0.583   c0,0-0.898,1.298-0.794,1.436c0.182,0.233,0.529,0.972,0.445,1.257c-0.085,0.286-0.2,0.402-0.435,0.465   c-0.021,0.211,0.062,0.381,0.441,0.581c0.485,0.253,0.604,0.665,0.295,1.151c-0.592,0.962-2.354,2.546-2.408,2.715   c-0.053,0.17-0.645,0.867-0.888,1.056c-0.253,0.202-2.271,1.026-2.577,1.343c-0.307,0.305-1.351,1.901-1.467,2.239   c-0.117,0.338-0.309,0.614-0.032,0.983c0.284,0.37,0.95,0.951,0.983,1.426c0.029,0.475,0.441,2.133,1.488,2.272   c0.507,0.053,0.729,0.012,0.896-0.308c0.369-0.708,1.373-2.155,1.647-2.471c0.147-0.18,0.434-0.391,0.771-0.307l1.923,0.507   c0,0-1.234,1.944-1.572,2.282c-0.339,0.338-3.105,2.156-3.383,2.376c-0.282,0.224-0.812,0.445-0.844,0.949   c-0.029,0.51-0.138,2.496-0.116,3.002c0.032,0.506,0.255,0.867,0.562,1.014c0.307,0.138,0.538,0.285,0.708,0.015   c0.169-0.284,0.782-0.573,1.005-0.743c0.221-0.168,1.215-1.402,1.521-1.541c0.31-0.14,2.081-1.132,2.644-1.268   c0.56-0.139,1.056-0.548,1.815-0.771c0.761-0.223,1.32-0.568,1.658-0.777c0.379-0.243,1.057-0.855,1.49-0.891   c0.252-0.021,1.753,0.063,2.44,0.016c0.503-0.045,1.063-0.256,1.289-0.682c0.222-0.42,0.392-1.542,0.264-1.73   c-0.222-0.371-0.486-1.299-0.508-1.437c-0.031-0.2-0.181-0.422-0.539-0.56c-0.367-0.137-1.118-0.792-1.141-0.929   c-0.115,0.031-0.4,0.147-0.99,0.676c-0.624,0.558-1.075,0.665-1.108,0.908c-0.053,0.359,0,1.511-0.063,1.68   c-0.126,0.307-0.507,0.867-0.908,1.098c-0.223,0.127-3.359,1.735-3.696,1.755c-0.339,0.028-1.259,0.239-1.596-0.226   c0.168-0.419,0.409-0.578,0.621-0.877c0.212-0.295,1.838-1.257,2.112-1.426c0.274-0.17,3.042-3.591,3.604-3.951   c0.56-0.371,1.893-1.523,2.196-1.807c0.309-0.285,1.258-1.49,1.638-1.818c0.527-0.506,2.473-0.982,2.895-1.827   c0,0,0.488-0.877-0.294-1.268c-0.783-0.391-0.803-0.338-0.971-0.443c-0.169-0.117-0.646-0.507-0.951-0.561   c-0.309-0.052-0.846,0.054-1.321,0.117c-0.475,0.052-0.93,0.052-1.269,0.369c-0.337,0.307-0.368,0.889-0.621,1.31   c0,0-1.522,2.071-1.964,2.578c-0.453,0.507-1.427,1.5-1.85,1.648c-0.424,0.138-0.56,0.085-0.781,0.223   c-0.224,0.137-0.846,0.696-1.271,0.845c-0.423,0.137-2.271-0.01-2.46-0.052c-0.296-0.064-0.443-0.476-0.084-0.866   c0.369-0.391,1.035-0.931,1.458-1.164c0.423-0.222,3.35-2.989,3.604-3.19c0.253-0.201,0.707-0.771,0.961-0.856   c0.255-0.084,1.024-0.242,1.429-0.961c0.422-0.76,0-1.183,0.241-1.796c0.254-0.612,0.443-1.13,0.221-1.69   c-0.223-0.561-0.781-1.373-2.134-1.321c-1.344,0.053-1.795,0.032-1.795,0.032S112.383,0.012,111.99,0.034z M110.008,23.782   c-0.201-0.062-0.646,0.139-0.856,0.348c-0.211,0.215-0.519,0.816-0.283,1.195c0.23,0.379,1.994,2.336,3.01,3.168   c0.147,0.115,0.328,0.666,0.581,0.932c0.243,0.266,0.465,0.496,0.56,0.562c0.097,0.062,0.352-0.031,0.549,0.062   c0.2,0.097,0.242,0.148,0.286,0.24c0.032,0.098,0.062,0.234,0.243,0.142c0.179-0.097,0.603-0.582,0.876-0.552   c0.137,0.021,0.38,0.031,0.708,0.436c0,0,0.239,0.381,0.549,0.53c0.294,0.147,1.142,0.558,1.384,0.733   c0.241,0.185,1.174,0.963,2.104,1.154c0.929,0.199,1.69,0.137,1.91,0.199c0.233,0.062,0.434,0.232,0.593,0.283   c0.17,0.055,0.592-0.03,0.708,0c0.115,0.031,0.506,0.242,0.793,0.285c0.284,0.029,0.233,0.029,0.621-0.148   c0.402-0.182,0.708-0.589,0.854-0.621c0.147-0.031,0.284,0,0.435-0.086c0.147-0.084,0.283-0.283,0.444-0.41   c0.156-0.129,1.023-0.436,2.11-2.443c0.328-0.262,0.782-0.406,0.932-0.43c0.147-0.021,1.056-0.031,1.47,0.053   s0.973,0.326,1.119,1.117c0.148,0.795,0.211,0.699,0.286,0.742c0.062,0.053,0.577,0.297,0.79,0   c0.213-0.295,0.381-1.449,0.783-1.799c0.4-0.348,0.992-0.662,1.836-0.559c1.501,0.18,4.219,0.529,6.031,3.045   c0,0,0.097,0.148,0.296,0.197c0.199,0.055,0.675,0.24,1.045,0.209c0.764-0.053,1.725-0.822,2.146-0.812c0,0,0.53,0.062,0.812,0.207   c0.286,0.147,0.319,0.147,0.444-0.196c0.128-0.352,0.114-0.908,0.084-1.107s-0.115-0.68-0.992-1.438   c-0.877-0.761-3.487-2.263-3.979-2.549c0,0-0.813-0.195-1.107-0.443c-0.298-0.241-0.942-1.108-1.64-1.192   c0,0-0.582-0.053-1.354,0.526c-0.707,0.267-0.992,0.382-1.142,0.498c-0.147,0.115-0.351,0.433-0.506,0.433   c-0.159,0-0.201,0.031-0.266-0.054c-0.147-0.178-0.029-0.741-0.324-1.142c-0.106-0.146-0.436-0.35-0.468-0.646   c-0.052-0.475,0.224-1.002,0.508-1.383c0,0,0.358-0.762,0.94-0.738l1.32,0.148c0,0,0.824-0.084,1.004-0.055   c0.18,0.031,0.399,0.211,0.761,0.055c0.358-0.172,0.296-0.382,0.464-0.477c0.169-0.098,0.295-0.139,0.267-0.352   c-0.031-0.211-0.116-0.463-0.116-0.549c0-0.084-0.062-0.283-0.317-0.357c-0.242-0.084-0.888-0.15-1.047-0.293   c-0.156-0.152-0.971-1.195-1.765-1.32c-0.483-0.086-2.25,0.137-2.588-0.033l-0.149-2.017c-0.031-0.296-0.054-1.226-0.031-1.49   c0.212-0.117,1.175-0.17,1.852-0.117c0.674,0.053,2.63,0.55,3.391,0.56c0,0,0.677,0.064,0.97-0.232   c0.297-0.296,0.382-0.644,0.741-0.676c0.264-0.021,0.232,0.094,0.548,0.022c0.318-0.074,0.318-0.243,0.615-0.263   c0.295-0.022,0.876,0.295,1.149,0.241c0.283-0.052,0.212-0.263,0.581-0.94c0.357-0.677,0.497-0.696,0.411-0.942   c-0.084-0.242-0.359-0.559-0.593-0.792c-0.231-0.232-2.28-2.175-2.524-2.513c-0.242-0.327-0.666-1.056-0.824-1.109   c-0.169-0.052-0.729,0.232-1.024,0.117c-0.296-0.117-0.973-0.528-1.192-0.593c-0.211-0.063-0.266-0.094-0.285,0.022   c-0.021,0.115,0.084,0.36,0,0.434c-0.169,0.137-0.24,0.137-0.465,0.095c-0.157-0.021,0.096,0.676-0.055,0.877   c-0.146,0.199-0.17,0.433-0.294,0.475c0.055,0.169,0.358,0.738,0.284,1.024c-0.084,0.285-0.35,1.056-0.876,1.438   c-0.53,0.381-0.973,0.972-2.336,0.591c0.084-0.813,0.137-1.256,0.327-1.489c0.2-0.233,0.708-1.955,0.781-2.313   c0.072-0.36,0.476-2.399,0.738-2.789c0.266-0.391,0.909-1.405,2.135-1.119c1.227,0.285,1.014,0.316,1.289,0.359   c0.435,0.064,1.438,0.022,1.721,0.117c0.286,0.094,0.506,0.232,0.614,0.232c0.106,0,0.239,0.063,0.35-0.169   c0.106-0.233,0.264-0.74,0.264-0.929c0-0.191,0.097-0.201-0.116-0.317c-0.213-0.117-0.476-0.327-0.561-0.497   c-0.084-0.169-0.243-0.38-0.55-0.56c-0.295-0.179-0.78-0.444-0.759-0.961c0.054-0.211,0.096-0.328-0.097-0.381   c-0.189-0.053-1.023-0.327-1.373-0.508c-0.349-0.179-1.193-0.76-1.529-0.887c-0.337-0.127-1.119-0.169-1.49-0.286   c-0.254-0.084-0.508,0.168-0.761,0.401c-0.266,0.211-0.401,0.064-0.729,0.381c-0.329,0.318-0.677,1.11-1.056,1.437   c-0.665,0.582-3.021,1.522-5.42,1.321c-1.458-0.2-1.618-0.117-1.699-0.179c-0.084-0.064-0.411-0.148-0.497-0.264   c-0.084-0.116-0.2-0.169-0.231-0.021c-0.03,0.147-0.03,0.432-0.182,0.559c-0.146,0.137-0.358,0.148-0.296,0.232   s0.529,0.941,0.783,1.056c0.24,0.117,0.368,0.17,0.812,0.232c0.479,0.063,1.13-0.063,1.342-0.053   c0.232,0.022,0.739,0.234,0.763,0.645c0.011,0.391-0.15,0.793-0.562,1.11c-0.266,0.296-0.114,0.762-0.114,0.762s0.23,0,0.314,0.21   c0.084,0.212,0.241,0.413,0.412,0.433c0.17,0.022,0.646,0.371,0.75,0.656c0.097,0.265-0.042,0.423-0.308,0.666   c0,0-0.477,0.19-0.57,0.285c-0.097,0.096-0.265,0.295-0.507,0.401c-0.243,0.096-1.109,0.496-1.49,0.762   c-0.378,0.264-0.941,1.024-1.604,0.94c-0.666-0.084-1.615-0.783-2.176-1.491c-0.179-0.233-0.23-0.296-0.325-0.115   c-0.098,0.18-0.171,0.359-0.285,0.38c-0.116,0.021-0.116,0.064-0.149,0.232c-0.03,0.169,0.097,1.765,0.149,2.134   c0.052,0.37,0.308,1.078,0.665,1.723c0.478,0.855,2.251,3.308,2.811,3.656c0.562,0.348,0.562,0.442,0.708,0   c0.148-0.445,0.36-1.025,0.411-1.271c0.053-0.242,0.053-0.581-0.138-0.792c-0.181-0.211-0.4-0.591-0.351-0.825   c0.052-0.231,0.479-0.643,0.579-0.729c0.095-0.084,0.179-0.084,0.095-0.286c-0.084-0.199-0.21-0.21-0.137-0.358   c0.084-0.149,0.286-0.232,0.36-0.413c0.07-0.179,0.854-1.965,1.055-2.376c0.199-0.412,0.285-0.729,0.614-0.972   c0.325-0.243,0.854-0.495,0.929-0.495s0.39,0.106,0.444,0.559c0,0,0.326,3.285,0.35,3.582c-0.032,0.613,0.127,2.408,0.137,3.042   c0,0.947-0.379,1.898-0.44,2.218c0,0-2.073,1.047-3.015,1.142c-1.046,0.1-2.259-0.213-2.513-0.267   c-0.243-0.058-0.243,0.029-0.201,0.138c0.054,0.102,0.201,0.405,0.085,0.586c-0.116,0.178-0.622,0.312-0.592,0.459   c0.054,0.252,0.434,0.948,1.234,1.143c1.192,0.283,2.135-0.182,2.558-0.149c0,0,0.621,0.212,0.885,0.233   c0.267,0.021,0.806-0.189,1.067-0.227c0.285-0.025,0.137,0.446,0.211,0.711c0.063,0.265,0.118,0.645,0.021,1.19   c-0.074,0.416-0.316,1.404-0.763,1.657c-0.307,0.181-1.438,0.943-1.941,1.035c-0.444,0.084-1.902-0.444-3.847-0.239   c-1.268,0.129-1.797,0.377-2.229,0.43c-1.205,0.149-3.023,0.021-3.486,0.031c-0.465,0.012-2.218-0.052-2.408-0.062   c-0.326,0.028-0.622,0.285-0.908,0.239c-0.549-0.793-1.911-2.786-2.461-3.424c-0.213-0.239-0.813-0.929-1.144-0.961L110.008,23.782   L110.008,23.782z"/>
	<path display="inline" d="M117.986,21.018c-0.301,0.189-0.832-0.129-1.082-0.327c-0.209-0.172-0.301-0.08-0.156,0.14   c0,0,0.3,0.476,0.529,0.672c0.229,0.199,0.551,0.44,0.812,0.803c0.27,0.357,0.608,1.351,0.771,1.55   c0.159,0.199,0.879,0.922,0.97,1.051c0.091,0.134,0.341,0.192,0.552,0.134c0.199-0.062,0.812-0.395,1.172-0.472   c0.341-0.078,0.751,0.021,0.879-0.026c0.131-0.052,0.171-0.273,0.271-0.365c0.092-0.09,0.171-0.09,0.051-0.411   c-0.13-0.31-0.19-0.558-0.42-0.665c-0.23-0.107-0.771-0.479-0.881-0.669c-0.106-0.193-0.592-0.384-0.78-0.452   c-0.19-0.077-0.892-0.419-1.16-0.659c-0.201-0.182-0.342-0.7-0.689-0.86c-0.29-0.131-0.53-0.25-0.551-0.049   C118.236,20.698,118.205,20.877,117.986,21.018L117.986,21.018z M177.231,5.959V5.95V5.959z M159.101,2.648   c0.08-0.191,1.26,0.04,1.531,0.15c0.27,0.101,1.209,0.33,1.729,0.56c0.966,0.33,2.145,2.123,2.767,2.401   c0.702,0.329,1.309,0.351,1.579,0.6c0.271,0.251,0.439,0.341,0.394,0.682c-0.056,0.34,0.021,0.61-0.312,0.701   c-0.33,0.09-0.812,0.08-0.969,0.16c-0.158,0.08-0.521,0.31-0.78,0.269c-0.271-0.049-0.742-0.28-1.021-0.31   c-0.283-0.029-1.812-0.33-2.361-0.551c-0.23-0.089-0.672,0.161-0.782,0.062c-0.106-0.101-0.106-0.412-0.08-0.69   c0,0,0.171-0.341-0.106-0.66c-0.277-0.311-0.812-0.741-0.938-0.97C159.612,4.819,159.018,2.839,159.101,2.648L159.101,2.648z    M155.545,11.413c0,0-0.34,0.301-0.447,0.361c-0.112,0.06-0.112,0.27-0.032,0.38c0.19,0.231-0.129,0.99,0.131,1.392   c0,0,0.631,0.951,1.692,1.451c0.812,0.381,1.828,0.191,2.242,0.501c0.409,0.31,0.249,0.66,0.311,0.691   c0.062,0.03,1.723-0.58,2.251-0.521c0.962,0.109,1.163,0.71,1.578,0.721c0,0,0.745,0.06,1.639-0.852   c-0.771-0.94-1.754-1.671-2.693-2.129c-0.941-0.45-1.223-0.221-1.422-0.33s-0.974-0.551-1.359-0.59   c-0.391-0.05-2.915-0.25-3.212-0.481C155.91,11.774,155.545,11.413,155.545,11.413L155.545,11.413z M102.719,28.204   c0.271,0.248,0.499,0.812,0.57,1.5c0.17,0.5,0.811,1.725,1.479,2.568c0,0,1.382,1.623,2.104,2.114   c0.32,0.22,0.898,0.571,1.312,0.61c0.102-0.342,0.648-1,0.689-1.051c0.271-0.326,0.369-0.623,0.358-1.012   c0-0.1,0.041-0.852,0.03-1.188c-0.011-0.341-0.221-0.582-0.279-0.682c-0.277-0.463-0.392-0.871,0.151-1.318   c0.029-0.07-0.062-0.521-0.081-0.66c-0.06-0.354-0.12-0.752-0.301-0.984c-0.062-0.078-0.271-0.238-0.32-0.721   c-0.052-0.48,0.277-1.143,0.289-1.18l-0.08-0.108c-0.771,0.56-1.723,1.733-1.723,1.733c-0.358,0.469-0.642,0.853-1.08,0.853   c-0.199,0-0.878-0.312-1.301-0.703c-0.321-0.286-1.002-0.681-1.103-0.62c-0.17,0.107-0.142,0.23-0.276,0.409   C103.018,27.944,102.745,28.083,102.719,28.204z M197.172,17.407c-0.077-0.13-2.532-1.842-3.111-2.002   c-0.578-0.17-1.301-0.04-1.722-0.18c-0.42-0.15-0.837-0.492-1.237-0.529c-0.404-0.041-1.172-0.041-1.594-0.251   c-0.42-0.21-0.78-0.51-1.052-0.51c-0.272,0-0.891-0.081-1.07-0.22c-0.192-0.15-0.209-0.242-0.013-0.501   c0.212-0.249,0.593-0.79,0.912-0.878c0.312-0.081,2.102-0.801,2.6-1.072c0.504-0.27,0.69-0.311,0.73-0.5   c0.038-0.191,0.078-0.37-0.171-0.561c-0.448-0.329-0.768-0.511-1.061-0.551c-0.289-0.041-0.622,0-0.793,0.31   c-0.258,0.47-1.168,0.95-1.399,1.222c-0.23,0.27-0.599,0.969-1.115,1.351c-0.521,0.379-0.713,0.68-1.401,0.66   c-0.688-0.022-1.538-0.3-1.772-0.42c-0.229-0.13-0.559-0.38-0.559-0.38s0.311-0.511,0.559-0.671   c0.25-0.171,0.663-0.479,1.143-0.479c0.478,0,0.479,0.15,0.608,0.03c0.3-0.301,1.311-1.512,1.605-1.67   c0.283-0.17,0.5-0.35,0.879-0.42c0.38-0.059,0.648-0.1,0.83-0.331c0,0,0.102-0.229-0.149-0.41c-0.25-0.181-0.501-0.39-0.658-0.451   c-0.158-0.06-0.756,0-0.973-0.131c-0.221-0.129-0.391-0.331-0.52-0.331c-0.071,0-2.524,3.574-3.525,4.364   c0,0-0.156,0.171-0.312,0.131c-0.156-0.05-0.479-0.2-0.58-0.27c-0.088-0.061-0.088-0.271-0.027-0.359   c0.062-0.09,0.421-0.562,0.562-0.721c0.068-0.08,0.05-0.272-0.141-0.381l-0.461-0.182c-0.131-0.081-0.689-0.35-0.898-0.43   c-0.213-0.081-0.312-0.25-0.304-0.381c0.023-0.13,0.452-0.47,0.663-0.53c0.197-0.059,1.161-0.329,1.423-0.36   c0.271-0.031,0.812,0,1.16-0.361c0.342-0.36,0.394-0.521,0.441-0.66c0.049-0.14,0.091-0.329-0.143-0.451   c-0.231-0.121-0.421-0.331-0.45-0.45c-0.062-0.141-0.28-0.271-0.197-0.451c0.078-0.18,0.578-0.701,0.969-0.641   c0.39,0.061,1.604,0.199,1.813,0.28c0.217,0.081,0.528,0.049,0.688-0.229c0.197-0.22,0.411-0.301,0.812-0.11l0.738,0.41   c0,0,1.381,0.691,1.74,1.021c0.363,0.329,0.637,0.74,1.242,0.47c0.589-0.251,0.699-0.251,0.891-0.3   c0.188-0.049,0.271-0.2,0.171-0.44c-0.093-0.231-0.342-1.091-1.141-1.562c-0.8-0.47-1.922-0.53-2.414-0.92   c-0.479-0.391-1.301-1.192-1.697-1.392c-0.408-0.2-1.142-0.36-1.395-0.52c-0.247-0.16-0.55-0.38-0.812-0.361   c-0.27,0.021-0.562-0.061-0.719,0.142c-0.159,0.199-0.33,0.559-0.421,0.67c-0.088,0.109-0.188,0.2-0.13,0.419   c0.06,0.22,0.141,0.471-0.05,0.722c-0.192,0.25-0.482,0.579-0.661,0.689c-0.17,0.11-0.82,0.061-1.271-0.519   c-0.779-1.001-1.188-1.882-1.385-2.112c-0.188-0.229-0.518-0.52-0.828-0.56c-0.312-0.082-0.468-0.22-0.52-0.38   c-0.053-0.159-0.392-0.25-0.61-0.38c-0.22-0.129-1.301-0.58-2.552-0.39c-0.922,0.14-1.674,1.16-2.423,1.029   c-0.25-0.04-0.381,0.061-0.304,0.271c0.079,0.211-0.052,0.56,0,0.832c0.054,0.27,0.361,0.591,0.409,0.77   c0.054,0.17,0.133,0.36,0.442,0.36c0.311,0,0.549-0.051,0.888,0.131c0.34,0.17,1.112,0.7,0.895,1.19   c-0.223,0.48-0.531,0.581-0.75,0.561l-0.395-0.05c0,0-0.968,0.171-1.472,0.05c-0.278-0.131-0.247-0.391-0.378-0.411   c-0.326,0.04-0.55,0.53-0.894,0.631c-0.271,0.068-2.752,0.418-3.061,0.449c-0.31,0.03-0.949-0.082-1.219-0.231   c-0.094-0.061-0.283-0.17-0.194,0.049l0.302,0.482c0.158,0.301,0.281,0.92,0.38,1.13c0.092,0.201,0.249,0.451,0.641,0.331   c0.392-0.129,0.688-0.2,0.972-0.341c0.28-0.139,1.08-0.551,1.521-0.56c0.438-0.021,1.188-0.2,1.25-0.25   c0.062,0.28,0.41,2.142,0.38,2.471c-0.028,0.331-0.128,0.381-0.049,0.641c0.077,0.26,0.141,0.8-0.301,1.03   c-0.44,0.229-0.689,0.481-1.133,0.52c-0.441,0.031-0.988-0.02-1.239,0.141c-0.251,0.159-0.38,0.329-0.77,0.41   c-0.396,0.081-1.095,0.159-1.502,0.051c-0.412-0.11-0.973-0.28-1.092-0.28c-0.135,0-0.172,0.03-0.225,0.28   c-0.047,0.25-0.081,0.75,0.283,0.911c0.359,0.159,1.008,0.41,1.41,0.66c0.531,0.33,0.74,0.951,0.407,1.441   c0,0-1.697,2.041-1.989,2.372c-0.281,0.329-0.481,0.69-0.981,0.899c-0.291,0.123-0.771-0.288-1.541,0.4c0,0-0.794,1.143-0.96,1.34   c-0.171,0.199-0.171,0.25-0.021,0.529c0.143,0.312,0.197,0.674-0.052,1.023c-0.247,0.35-1.526,0.837-2.162,1.85   c-0.327,0.53-1.16,1.394-1.408,2.831c-0.232,0.582-1.294,2.112-2.112,1.775c-1.812-0.751-1.092-2.022-1.331-2.162   c-0.433-0.185-1.28,0.688-1.28,1.5l0.271,1.188c-0.062,0.5-0.297,1.853-0.168,2.192c0.157,0.408,0.141,0.662,1.21,1.149   c1.229,0.56,2.689,2.041,3.229,2.38c0.541,0.327,2.373,1.081,3.264,0.641c0.591-0.303,0.143-1.368,0.16-1.698   c0.021-0.33,0.13-0.722-0.039-1.14c-0.172-0.418-0.692-1.062-0.604-1.862c0.078-0.791,0.981-3.067,1.312-3.522   c0.329-0.46,0.771-1.173,0.438-1.956c-0.35-0.967-0.38-2.395,0.211-3.316c0.58-0.921,0.83-1.539,1.129-1.893   c0.289-0.354,1.254-0.92,1.676-1.159c0.245-0.141,0.317-0.441,0.661-0.801c0.727-0.781,1.86-1.952,2.087-2.332   c0.121-0.201,0.021-0.551,0.289-0.75c0.419-0.309,0.764-0.89,0.939-1.04c0.73-0.6,1.689-1.401,1.981-1.401   c0.129,0.831,0.159,1.739-0.078,2.162c-0.19,0.34-0.3,0.55-0.278,1.069c-0.04,0.662-0.94,1.382-1.322,1.402   c-0.501,0.029-1.539-0.201-1.562,0.089c-0.023,0.29-0.062,0.78-0.842,1.312c0.329,0.08,1.779,0.238,2.473,1.27   c1.271-0.789,1.877-1.588,2.262-2.259c0.169-0.19,0.479-0.42,0.771-0.329c0.439,0.129,1.49,0.329,1.854,0.461   c0.531,0.198,1.142,1.129,0.199,1.692c-0.939,0.559-3.49,1.43-3.995,1.521c-0.5,0.076-1.578,0.168-2.398-0.353   c-0.812-0.519-1.188-0.7-1.299-0.76c-0.104-0.062-0.206-0.312-0.711-0.104c-0.501,0.209-0.738,0.223-0.921,0.28   c-0.193,0.062-0.412,0.248-0.066,0.399c0.33,0.148,1.168,0.539,1.58,1.253c0.418,0.71,0.671,1.729,0.647,2.397   c-0.021,0.674-0.271,6.163-0.56,6.812c-0.292,0.648-0.751,0.873-1.062,0.931c-0.31,0.062-0.479,0.021-0.646,0.021   s-0.211,0.117-0.211,0.287s0.053,0.463,0.068,0.572c0.021,0.1,0.101,0.34,0.432,0.34c0.327,0,1.841,0.237,2.128,0.33   c0.288,0.075,0.671,0.1,0.979-0.33c0.312-0.438,0.521-0.832,0.922-1.021c0.399-0.19,0.635-0.502,0.689-1.134   c0.059-0.629,0.479-3.5,0.479-3.709c0-0.213-0.026-0.43,0.209-0.481c0.521-0.108,1.291-0.519,1.91-0.711   c0.627-0.19,4.571-0.709,5.054-0.94c0.479-0.231,2.609-0.649,3.022-0.752c0.415-0.101,0.748-0.521,1.13-0.269   c0.378,0.25,0.4,0.629,0.271,1.106c-0.129,0.481-0.46,1.474-0.103,2.285c0.35,0.812,0.541,1.16,0.561,1.683   c0.021,0.521,0.021,1.271-1.001,1.36c-1.021,0.088-2.278-0.084-2.722-0.041c-0.44,0.041-0.58,0.021-1.309-0.043   c-0.731-0.062-1.144-0.295-1.074-0.024c0.062,0.271,0.129,0.5,0.578,0.769c0.463,0.271,1.872,1.192,2.183,1.362   c0.312,0.17,2.394,0.998,2.765,1.349c0.379,0.353,1.349,1.571,1.683,1.724c0.327,0.153,0.88,0.169,1.381-0.13   c0.504-0.288,0.684-0.397,1.094-0.479c0.418-0.08,0.881-0.312,0.979-0.92c0.104-0.599,0.062-1-0.229-1.461   c-0.293-0.459-0.441-0.649-0.403-1.363c0.04-0.706-0.038-3.606-0.038-4.002c0-0.389-0.211-0.856-0.211-1.562   c0-0.697,0.171-3.668,0.5-4.479s0.771-1.169,0.962-1.312c0.277-0.195,0.393-0.562-0.279-1.053c-0.669-0.487-2.77-1.769-3.913-2.418   c-0.369-0.21-1.696-0.34-1.909-0.36c-0.208-0.021-0.248,0.08-0.521,0.44c-0.271,0.35-0.667,0.47-0.798,0.631   c-0.262,0.32-0.146,0.891-0.262,1.281c-0.129,0.399-0.4,0.65-0.811,0.56c-0.422-0.08-1.072-0.529-1.244-0.67   c-0.169-0.15-0.27-0.439-0.021-0.81c0.252-0.379,0.232-0.33,0.404-0.69c0.167-0.351-0.146-0.769-0.021-1.161   c0.168-0.53,0.64-1.341,0.91-1.42c0.271-0.08,0.629-0.221,1.254-0.021c0.59,0.189,0.811,0.521,0.961,0.77   c0.148,0.251,0.249,0.311,0.631,0.191c0.378-0.12,0.729-0.399,1.84,0.1c1.111,0.5,2.853,1.46,3.753,2.092   c0.941,0.649,1.604,1.092,5.145,2.211c0.551,0.168,1.571-0.062,1.78-0.145C197.062,18.067,197.233,17.507,197.172,17.407z    M179.031,6.911c0.231-0.11,0.407-0.19,0.633,0.058c0.191,0.222,0.026,0.691-0.271,1.022c-0.303,0.328-1.24,0.64-1.642,0.858   c-0.414,0.22-0.688,0.482-1.11,0.561c-0.421,0.08-0.52-0.109-0.641-0.33c-0.131-0.22,0.08-0.34,0.311-0.45   c0,0,0.859-0.421,1.312-0.69C178.071,7.67,178.773,7.03,179.031,6.911z M175.911,6.12c0,0,0.56-0.22,0.811-0.342   c0.251-0.13,0.42-0.14,0.562-0.109c0.14,0.03,0.421,0.19,0.63,0.3c0.198,0.11,0.198,0.22,0.062,0.451   c-0.14,0.23-0.74,0.589-0.989,0.741c-0.249,0.139-0.949,0.28-0.949,0.28c-0.229,0.052-0.3-0.049-0.342-0.19   c-0.036-0.14-0.026-0.47-0.062-0.69C175.592,6.34,175.771,6.202,175.911,6.12z M174.94,15.216c-0.417,0-0.38-0.11-0.357-0.36   c0.021-0.25,0.105-0.631,0.167-0.75c0.062-0.129,0.13-0.3,0.092-0.53c-0.027-0.23,0.197-0.889,0.419-1.189   c0.222-0.3,0.326-0.231,0.438-0.28c0.109-0.051,0.2-0.142,0.474-0.331c0.271-0.193,0.629-0.34,0.972-0.38   c0.919-0.09,1.056,0.08,1.331,0.309c0.271,0.232,0.338,0.991,0.391,1.253c0.052,0.258-0.021,0.589,0.052,0.989   c0.062,0.39-0.233,0.359-0.439,0.419c-0.199,0.06-0.688,0.28-0.972,0.359C177.223,14.805,175.358,15.216,174.94,15.216z    M173.01,22.899c-0.329,0.105-0.502,0.027-0.613-0.199c-0.105-0.229-0.219-0.662-0.229-0.838c-0.013-0.184,0.158-0.332,0.381-0.443   c0.591-0.301,0.838-0.301,1.13-0.328l0.469-0.229c0.3-0.14,0.61-0.277,1.08-0.58c0.47-0.299,2.104-0.857,2.312-0.92   c0.224-0.062,0.393,0,0.133,0.359s-1.74,1.697-2.672,2.312C174.05,22.631,173.55,22.729,173.01,22.899L173.01,22.899z    M180.802,19.407c0.158-0.049,0.3-0.158,0.7-0.269c0.41-0.108,0.608,0.278,0.641,0.938c0.027,0.66-0.28,0.828-0.45,0.94   c-0.169,0.11,0,0.171-0.33,0.593c-0.48,0.377-3.992,1.605-4.302,1.67c-0.311,0.062-1.173,0.082-1.55,0.229   c-0.385,0.162-1.272,0.33-1.695,0.384c-0.418,0.05-0.193-0.149-0.024-0.229c0.359-0.17,1.992-1.111,2.422-1.426   c0.438-0.311,2.271-1.908,2.604-2.16L180.802,19.407z M246.871,14.735c-0.312-0.119-1.735-0.689-2.171-0.809   c-0.441-0.131-3.361-0.421-4.614-0.86c-0.618-0.222-1.31-0.36-2.521,0.141c-1.464,0.59-2.621,0.429-3.453,1.08   c-0.828,0.661-2.319,1.691-2.769,1.331c-0.414-0.33-0.243-0.651-0.443-0.811c-0.117-0.1,0.068-0.652-0.051-0.831   c-0.128-0.192-0.894-0.791-1.143-1.201c-0.244-0.41-0.166-0.7-0.358-0.859c-0.183-0.141,0.062-0.632,0.681-0.762   c0.636-0.13,0.82-0.319,1.399-0.141c0.63,0.201,1.997-0.089,3.158-0.309c1.166-0.22,1.812-0.341,2.354-0.029   c0.53,0.309,0.722,0.81,1.162,0.84c0.378-0.379,0.816-0.82,1.392-1.01c0.562-0.191,0.801-0.431,0.931-0.621   c0.129-0.191,2.131-0.75,2.284-1.091s0.061-0.931-0.104-1.361c-0.229-0.592-0.828-1.121-1.021-1.651   c-0.192-0.529-1.354-3.192-2.311-3.631c-0.966-0.441-1.254-0.401-1.692-0.462c-0.438-0.059-0.908-0.041-1.127,0.271   c-0.226,0.311-0.636,0.84-1.285,0.88c-0.661,0.029-0.855,0.061-1.14,0.31c-0.278,0.251-0.238,0.44,0.07,0.661   c0.31,0.22,0.837,1.351,0.775,1.881c-0.061,0.531,0.027,1.061-1.062,1.692c0,0-2.021,1.18-2.662,1.811   c-0.388,0.26-1.721,0.47-2.526,0.99c-0.482,0.311-1.504,0.592-1.998,0.69c-0.502,0.09-0.779-0.329-1.133-0.51   c-0.409-0.199-0.474-0.379-0.157-0.439c0.309-0.06,0.309-0.311,0.669-0.642c0.34-0.311,0.549-0.44,0.362-0.84   c-0.193-0.41-0.404-0.832-0.404-0.93c0-0.09-0.049-0.471,0.543-0.44c0.593,0.029,1.49-0.102,1.92,0.21   c0.443,0.31,1.032,0.341,1.252,0.159c0.22-0.19-0.218-0.5-0.469-0.659c-0.25-0.161-1.293-0.761-2.201-0.981   c-0.913-0.219-1.813-0.309-2.433-0.87c-0.262-0.24-0.505-0.049-0.909-0.36c-0.411-0.31-0.951-1.062-1.775-1.312   c-0.338-0.109-1.907-1.41-2.271-2.111c-0.239-0.46-0.77-0.88-1.371-0.88c-0.59,0-0.702,0.04-0.892,0.04   c-0.191,0-0.382-0.161-0.752,0.379c-0.378,0.529-0.969,0.901-1.435,0.959c-0.479,0.061-0.812,0.512-1.386,0.671   c-0.562,0.16-1.121,0.04-0.521,0.73c0.589,0.691,2.412,2.391,2.412,2.391c0.279,0.34,0.812,1.25,0.062,1.721   c-0.752,0.469-9.136,2.251-11.076,2.132c-0.88-0.089-1.311,0.028-1.604-0.221c-0.276,0.221-0.218,0.47,0.156,0.592   c0.382,0.131,1.161,0.541,1.224,0.73c0.062,0.191,0.062,0.701,1.311,0.6c1.253-0.089,3.441-0.189,4.069-0.131   c0.961,0.1,1.25-0.189,1.562-0.439c0.312-0.249,1.398-0.46,1.648-0.15c0.162,0.28,0.067,0.722,0.067,0.722s0,2.572,0.095,2.942   c0.088,0.38,0.23,0.71-0.15,1.181c-0.38,0.471-1.068,0.701-1.17,0.89c-0.089,0.19-0.311,0.59,0.312,0.661   c0.629,0.059,1.002,0.18,1.251,0.462l1.15,1.04c0,0,0.859,0.688,0.261,1.132c-0.589,0.438-1.381,0.509-1.78,0.672   c-0.402,0.155-1.528,1.116-2.279,1.271c-0.75,0.154-5.192,0.66-5.637,0.66c-0.441,0-0.688-0.062-0.972-0.529   c-0.28-0.473-0.44-1.031-0.689-0.943c-0.247,0.091-0.188,0.24-0.278,0.635c-0.129,0.528-0.881,0.557-0.841,0.811   c0,0,1.132,1.438,2.132,1.971c1.001,0.527,1.277,0.408,1.878,0.312c0.592-0.093,1.555-0.08,2.092-0.056   c0.68,0.043,2.511-0.526,3.453-0.509c0.171,0.381,0.106,1.671-0.681,2.222c-0.941,0.65-2.531,2.709-3.343,3.461   c-0.649,0.603-1.093,1.42-1.739,1.609c-0.342,0.104-0.75,0-0.723,0.278c0.027,0.28-0.131,0.474,0.131,0.562   c0.248,0.092,0.881,0.129,1.411-0.13c0.53-0.264,0.75,0.156,1.381,0.029c0.632-0.131,1.094-0.108,1.351-0.722   c0.502-1.19,0.858-1.041,1.425-1.821c0,0,1.58-2.4,2.108-4.965c0.148-0.673,0.354-1.091,0.571-1.438   c0.221-0.342,1.399-1.692,1.62-1.811c0.222-0.136,1.074-0.562,1.567-0.785c0.503-0.217,0.784-0.275,0.909-0.217   c0.133,0.062,0.499,0.59,0.384,0.969c-0.134,0.382-0.314,1.223-0.224,2.13c0.09,0.911,0.63,2.569,0.407,3.134   c-0.219,0.561-0.06,0.689-0.66,0.912c-0.6,0.219-1.092,0.318-1.723,0.169l-1.479-0.503c-0.311-0.028-0.399-0.067-0.327,0.463   c0.062,0.527,0.222,1.499,0.723,1.854c0.503,0.34,1.021,0.834,1.117,1.162c0.091,0.311,0.108,0.836,0.403,1.436   c0.286,0.603,0.709,1.033,1.052,1.255c0.34,0.219,1.381,0.5,1.751,1.188c0.59-0.027,0.85,0.09,1.259-0.537   c0.51-0.771,1.582-2.055,1.62-2.434c0.031-0.381,0.159-1.062-0.159-1.439c-0.309-0.377-0.538-1.053-0.707-1.408   c-0.131-0.281-0.312-1.062-0.169-1.5c0.126-0.402,0.466-2.273,0.577-2.506c0.169-0.326,0.169-0.41,0.451-0.248   c0.276,0.158,2.053,1.17,2.681,2.479c0.283,0.471,0.462,0.672,0.771,0.42c0.31-0.25,0.33-0.488,0.33-0.709   c0-0.223,0.078-0.432-0.173-0.58c-0.246-0.16-0.646-0.73-0.738-1.043c-0.093-0.308-0.38-0.638-0.722-0.92   c-0.342-0.277-1.741-1.609-1.9-1.789c-0.157-0.182-0.103-0.32-0.068-0.541c0.026-0.22,0.129-1.131,0.189-1.279   c0.062-0.15,0.157-0.279,0.501-0.223c0.341,0.062,0.854,0.229,1.224,0.062c0.376-0.129,1.839-0.102,2.501-0.17   c0.25-0.246,0.22-0.457,0.22-0.457s-0.591-0.635-1.407-0.973c-0.812-0.342-2.913-1.031-3.191-1.222   c-0.281-0.189-0.479-0.36-0.418-0.55c0.154-0.471-0.272-0.88-0.142-0.951c0.745-0.419,1.899-0.15,1.899-0.15   s0.33-0.351,0.207-0.729c-0.718-0.28-1.823-0.59-2.138-0.501c-0.193-0.75-0.091-1.13,0.156-1.28c0.244-0.16,1.94-1.251,2.75-1.251   c0.812,0,1.906,0.381,2.38,0.5c0.471,0.13,0.602,0.15,0.94,0.47c0.482,0.461,1.144,1.671,0.981,2.042   c-0.189,0.461,0,1.24-0.32,1.822c-0.191,0.35-0.531,0.329-0.158,0.74c0.369,0.41,0.78,0.722,0.629,1.188   c-0.156,0.472-0.44,1.722-0.44,2.381c0,0.66-0.025,2.947-0.188,3.703c-0.161,0.75-0.751,3.342-1.399,4.111   c-0.538,0.65-1.039,1.541-1.422,1.791c-0.382,0.247-0.527,0.719-0.382,0.941c0.153,0.218,0.442,0.561,0.754,0.279   c0.311-0.279,0.997-1.225,1.351-1.531c0.34-0.311,1.312-0.469,2.036-1.252c0.718-0.778,1.137-1.67,1.279-2.381   c0.258-1.254,0.587-6.344,0.77-7.576c0.026-0.223,0.229-0.279,0.409-0.27c1.521,0.471,2.87,0.598,3.829,0.797   c0.495,0.104,0.583,0.494,0.622,0.883c0.021,1.111-0.088,5.125-0.148,5.976c-0.062,0.94-0.591,4.793-0.474,5.767   c0.121,0.971,0.594,1.812,0.752,2.188c0.16,0.38,0.562,0.34,0.661-0.062c0.091-0.412-0.029-0.58,0.432-0.859   c0.402-0.229,1.11-0.43,1.262-0.359c0.159,0.062,0.248,0.359,0.407,0.548c0.159,0.192,0.341,0.261,0.724,0.104   c0.378-0.156,0.699-0.172,0.973-0.288c0.271-0.132,0.298-0.712,0.208-1.152c-0.092-0.438,0.271-2.431-0.077-3.343   c0.089-0.528,0.059-0.641-0.193-1.109c-0.271-0.5-0.409-2.893-0.438-3.318c-0.027-0.42,0.396-0.592,0.396-0.943   s-0.318-0.75-0.284-1.131c0.026-0.375,0.337-1.33,0.271-2.02c-0.05-0.472-0.067-2.364-0.04-2.543   c0.03-0.191,0.104-0.191,0.312-0.271c0.858-0.299,2.435-0.069,3.214-0.32c0.777-0.25,2.426-0.82,2.675-0.981   c0.247-0.161,0.326-0.241,0.326-0.58C247.361,15.207,247.315,14.896,246.871,14.735L246.871,14.735z M215.403,9.213   c0.161-0.049,1.055-0.48,1.331-0.591c0.282-0.11,0.593,0.109,0.806,0.249c0.194,0.14,0.105,0.411-0.029,0.581   c-0.142,0.17-0.329,0.269-0.723,0.559c-0.394,0.3-1.19,0.329-1.473,0.31c-0.278-0.02-0.197-0.38-0.218-0.63   C215.071,9.443,215.153,9.282,215.403,9.213z M217.344,17.036c-0.157,0.19-0.223,0.16-0.44,0.22c-0.222,0.06-0.391-0.06-0.469-0.23   l-0.131-0.361c0.079-0.169,0.64-0.44,0.908-0.34C217.446,16.656,217.504,16.847,217.344,17.036z M219.508,12.414   c-0.55,0.39-1.255,0.53-1.723,0.771c-0.475,0.229-1.257,0.92-1.582,1.131c-0.329,0.199-0.882,0.25-1.175,0.329   c-0.299,0.079-0.221-0.03-0.299-0.39c-0.077-0.36-0.106-0.99-0.021-1.221c0.092-0.232,0.36-0.24,0.633-0.39   c0.248-0.14,0.421-0.641,0.638-0.881c0.226-0.231,0.394-0.381,0.69-0.611c0.3-0.23,1.383-1.42,1.562-1.581   c0.19-0.16,0.229-0.17,0.561-0.17s0.742,0.52,1.079,0.81c0.34,0.301,0.531,0.77,0.505,1.301   C220.36,12.045,220.056,12.023,219.508,12.414z M275.377,5.418c-0.053-0.341-0.3-1.03-0.53-1.311   c-0.123-0.14-0.161-0.09-0.562-0.109c-0.252-0.01-0.78-0.391-1.08-0.799c-0.752-0.062-0.671-0.041-1.69-0.751   c-1.093-0.761-1.135-0.911-1.529-1.091c-0.41-0.189-0.302-0.021-0.664,0.021c-0.197,0.021-0.589-0.139-1.018-0.271   c-0.423-0.13-1.003,0.162-1.394,0.391c0,0.359-0.342,0.831-0.481,1.02c-0.139,0.191-0.326,0.521-0.47,0.78   c-0.144,0.27-0.278,0.331-0.562,0.47c-1.669,0.581-4.133,0.841-4.133,0.841c-0.521,0.021-1.05-0.5-2.191-0.581   c-0.8-0.049-1.997,0.359-2.741,0.081c0,0-0.468-0.089-0.688-0.5c-0.143-0.25-0.188-0.27-0.438-0.421   c-0.25-0.16-0.224,0.22-0.224,0.61c0,0.391-0.062,0.45-0.229,0.812c-0.312-0.021-0.381,0.19-0.562,0.531   c-0.181,0.341-0.155,0.47,0.33,0.831c0.492,0.36,0.951,1.392,1.352,2.052c0.392,0.66,0.912,1.911,1.271,2.141   c0.359,0.23,0.549,0.25,0.8,0.129c0.251-0.129,0.74-0.369,1.162,0.472c0.438,0.88-0.272,2.632-0.229,3.182   c0.021,0.42,0.277,3.022,0.141,4.102c-0.093,0.673-0.393,1.644-0.393,2c0,0.361,0.19,1.031,0.145,2.176   c-0.053,1.143-0.583,2.961-0.912,3.302c-0.328,0.341-0.939,0.688-1.238,0.972c-0.302,0.278-0.408,0.668-0.108,1.08   c0.3,0.407,0.479,1.188,0.578,1.83c0.104,0.641-0.078,2.03,0.223,2.831c0.302,0.802,0.779,0.64,1.172,0.63   c0.394-0.011,1.358,0.641,1.603,0.739c0.231,0.095,0.34-0.062,0.422-0.217c0.078-0.16,0.8-0.845,1.16-1.252   c0.47-0.55,0.42-0.861,0.38-1.332c-0.062-0.642,0.277-1.91,0.358-2.785c0.08-0.879-0.378-1.8-0.658-2.638   c-0.278-0.844-0.08-1.174-0.109-1.803c-0.027-0.521-0.312-1.134-0.312-2c0-1.054,0.561-1.451,0.641-1.752   c0.081-0.3,0.129-1.66,0.188-2.47c0.062-0.809,0.419-1.801,0.521-2.191c0.102-0.391,0.659-0.36,0.909-0.42   c0.249-0.06,0.382-0.25,1.051-0.521c0.669-0.269,2.131-0.299,2.582-0.47c0.45-0.17,1.299-0.59,1.699-1.09   c0.408-0.502,0.479-0.631,0.777-0.72c0.208-0.071,0.832,0.049,1.109,0c0.281-0.05,0.53-0.861,0.641-1.112   c0.109-0.25,0.562-0.721,0.944-1.831c0.349-1.031,0.547-3.182,0.547-3.182s0.193,0.071,0.362-0.03c0.229-0.14,0.341-0.2,0.839-0.14   c0.424,0.049,0.892,0.021,1.094-0.021C275.407,5.579,275.399,5.561,275.377,5.418z M268.025,9.992   c-0.05,0.33-0.09,0.95-0.301,1.271c-0.197,0.31-0.738,0.812-0.987,0.891c-0.252,0.08-0.48,0.381-0.688,0.42l-0.895,0.341   c0,0-0.642,0.341-1.062,0.271l-0.892-0.131c-0.327-0.049-0.232-0.41-0.312-0.67c-0.076-0.271,0-0.48,0.131-0.772   c0.128-0.279,0.078-0.44,0.078-0.771c0-0.329,0.088-1.05,0.199-1.521c0.104-0.471,0.507-0.61,0.855-0.59   c0.271,0.02,1.172-0.1,1.474-0.06c0.418,0.049,1.735,0.48,2.029,0.529C267.952,9.254,268.074,9.652,268.025,9.992L268.025,9.992z    M268.172,5.2c-0.049,0.279,0.021,0.75-0.312,1.029c-0.328,0.28-0.607,0.391-1.058,0.439c-0.451,0.051-0.78,0.11-1.171,0.28   c-0.395,0.171-1.882,0.451-2.032,0.472c-0.152,0.021-0.249-0.079-0.302-0.189c-0.05-0.11-0.156-0.271-0.271-0.392   c-0.107-0.131-0.358-0.741-0.34-0.909c0.021-0.172-0.029-0.421,0.188-0.561l0.452-0.281c0.189-0.03,0.299,0.111,0.56,0.08   c0.271-0.028,1.021-0.268,1.92-0.659c0.901-0.391,1.279-0.591,1.739-0.529c0.451,0.06,0.812,0.359,0.803,0.75   C268.332,4.998,268.283,4.978,268.172,5.2L268.172,5.2z M281.6,14.746l-1.267-0.191c-1.281-0.23-2.781-0.781-3.613-0.72   c-0.834,0.06-1.894,1.05-2.132,1.16c-0.229,0.109-2.395,0.56-2.395,0.56c-1.158,0.341-1.777,0.8-3.17,1.131   c-1.393,0.33-2.723,0.28-3.002,0.23c-0.282-0.05-0.562-0.021-0.921,0.089c-0.362,0.109-0.479-0.06-0.662-0.029l-0.131,0.14   c-0.091,0.109,0,0.411,0.078,0.629c0.081,0.221,0.361,0.41,0.803,0.671c0.439,0.271,1.997,0.271,2.332,0.229   c0.325-0.028,0.472-0.281,0.688-0.34c0.222-0.062,1.03-0.222,1.16-0.252c0.13-0.029,0.158,0,0.189,0.092   c0.028,0.088,0.19,0.799,0.271,1.06c0.078,0.271-0.196,1.241-0.251,1.504c-0.053,0.271,0.042,0.892,0.028,1.172   c-0.021,0.406-0.389,0.961-0.521,1.296c-0.189,0.501-0.988,1.942-1.33,2.604c-0.353,0.853-1.182,1.487-1.604,1.603   c-0.331,0.093-0.438,0.021-0.551,0.05c-0.108,0.028-0.108,0.108,0,0.358l0.162,0.582c0.106,0.17,2.488,2.395,2.566,2.474   c0.078,0.077,0.053,0.077,0.272-0.091c0.221-0.172,0.638-0.159,0.969-0.279c0.326-0.133,0.444-0.771,0.831-1.241   c0.391-0.472,0.591-0.688,0.938-0.739c0.342-0.05,0.893-0.632,1.533-0.858c0.639-0.229,1.107-0.771,1.446-1   c0.343-0.232,1.41-0.439,1.529-0.453c0.133-0.021,0.133,0.03,0.2,0.133c0.076,0.088,0.026,0.329,0.062,0.812   c0.024,0.479-0.224,1.562-0.191,2.221c0.029,0.66,0.722,2.751,1.164,3.354c0.438,0.601,0.659-0.021,0.736-0.219   c0.081-0.201,1.032-1.363,1.032-1.363c0.129-0.221,0.191-0.578,0.143-0.879c-0.05-0.301,0.271-0.83,0.39-1.092   c0.131-0.273-0.024-0.699-0.062-0.923c-0.027-0.222,0.021-0.521,0.021-0.521c0.021-0.379,0.412-1.426,0.452-1.918   c0.04-0.502-0.201-3.692-0.132-4.637l0.195-2.473c0.027-0.311,0.144-0.521,0.172-0.641c0.025-0.118-0.079-0.25-0.062-0.418   c0.021-0.17,0.279-0.561,0.527-0.893c0.345-0.448,0.894-0.439,1.021-0.479c0.132-0.051,0.159-0.062,0.171-0.191l0.13-0.78   C281.881,14.987,281.773,14.793,281.6,14.746L281.6,14.746z M275.47,23.84c-0.161,0.188-1.312,0.94-2.083,1.281   c-0.635,0.276-1.473,0.778-1.854,0.92c-0.38,0.141-0.581,0.141-0.661,0.078c0.026-0.479,0.192-0.906,0.392-1.25   c0.133-0.222,0.271-0.472,0.312-0.611c0.048-0.144,0.196-0.197,0.379-0.197c0,0,0.438,0,0.947-0.062   c0.521-0.061,1.411-0.324,1.75-0.41c0.34-0.08,0.61-0.088,0.832-0.088C275.495,23.5,275.548,23.711,275.47,23.84L275.47,23.84z    M275.707,21.708c-0.271,0.191-1.001,0.379-1.419,0.482c-0.304,0.075-1.312,0.217-1.864,0.271c-0.548,0.05-0.532,0-0.637-0.062   c-0.056-0.3-0.021-0.88,0.021-1.091c0.036-0.211,0.337-0.632,0.376-0.923c0,0,1.136-0.131,1.332-0.141   c0.201-0.021,2.161-0.111,2.161-0.111l0.054,0.145C275.74,20.346,275.72,21.52,275.707,21.708L275.707,21.708z M275.78,16.786   c-0.03,0.16-0.11,0.971-0.11,1.522c-0.249-0.031-1.079-0.07-1.331-0.052c-0.627,0.052-0.969,0.5-1.419,0.642   c0,0-0.521,0.231-0.751,0.142c-0.062-0.39-0.131-1.167-0.304-1.452c-0.05-0.09-0.139-0.22,0-0.31   c0.144-0.089,0.783-0.391,1.19-0.48c0.409-0.089,0.722-0.17,1.021-0.249c0.301-0.081,1.16-0.412,1.521-0.201   C275.848,16.486,275.821,16.625,275.78,16.786z M293.919,4.56c0.059-0.27,0.275-0.47,0-0.771c-0.278-0.299-0.893-0.859-2.103-1.31   c-1.2-0.45-1.646-0.411-1.92-0.581c-0.455-0.27-1.553-1.061-1.644-1.112c-0.089-0.049-0.062-0.109-0.313-0.021   c-0.25,0.089-1.671,0.61-2.021,0.891c-0.34,0.28-0.461,0.419-0.75,0.59c-0.438,0.27-1.529,0.642-1.671,0.74   c-0.144,0.1-0.857,0.631-1.411,0.701c-0.549,0.081-1.021,0.051-1.994,0.051c-0.969,0-1.812-0.191-2.281-0.632   c-0.1-0.089-0.195-0.08-0.195-0.08l-1.633-0.031c0,0-0.144,0.081-0.129,0.14c0.021,0.062,0.701,1.523,0.771,1.523   c0.19,0.028,0.688,0.269,0.779,0.52c0.09,0.25,0.737,1.83,0.723,2.17c-0.021,0.34-0.021,0.451-0.192,0.691   c-0.171,0.239-0.581,0.63-0.451,1.09c0,0,0.312,1.169,0.562,1.532c0.361,0.109,0.779,0.169,0.939,0.59   c0.158,0.42,0.38,1.161,0.47,1.311c0.091,0.15,0.342,0.381,0.63,0.39c0.283,0.02,0.991-0.091,1.204-0.091   c0.209,0,4.187-0.029,4.354,0.091c0.145,0.109,0.13,0.08,0.13,0.199c0,0.13,0.198,1.601,0.229,2.162   c0.032,0.56-0.141,3.932-0.08,5.293c0.062,1.907,0.664,4.943,0.835,6.324c0,0,0.13,1.331-0.193,1.997   c-0.47-0.091-0.642-0.169-0.892-0.14c-0.249,0.025-0.778,0.14-1.091,0.107c-0.312-0.025-1.128-0.197-1.42-0.277h-0.344   l-0.312-0.107c0,0-0.277-0.129-0.168,0.156c0.105,0.277,0.75,1.141,0.893,1.529c0.144,0.389,0.169,0.811,0.532,1.062   c0.358,0.248,1.58,1.07,1.919,1.379c0.589,0.533,0.971,1.201,1.526,1.443c0,0,1.164,0.438,1.271,0.5   c0.106,0.062,0.441,0.088,0.742,0.088c0,0,2.021,0.109,2.382,0.145c0.359,0.025,1.278,0.051,1.521,0.025   c0.229-0.061,0.34-0.078,0.33-0.25c-0.021-0.168-0.161-0.5-0.092-0.688c0.06-0.189,0.286-0.492,0.25-0.74   c-0.078-0.502-0.771-1.172-0.771-1.58c0-0.412,0.05-0.635,0.02-1.08c-0.026-0.451-0.438-2.241-0.469-3.281   c-0.09-2.131-0.468-6.244-0.502-6.654c-0.118-1.498,0.232-2.553,0.199-3.302c-0.024-0.75-0.669-2.211-0.738-2.961   c-0.062-0.751-0.024-2.281-0.021-2.772c0.021-0.48,0.081-0.91,0.302-1.521c0.223-0.61,0.451-1.361,0.504-1.661   c0.048-0.301-0.03-0.69,0.169-0.911c0.197-0.22,1.091-0.521,1.296-0.78c0.203-0.271,0.275-0.411,0.364-0.881   C294.069,5.261,293.857,4.83,293.919,4.56L293.919,4.56z M285.701,10.323c-0.04,0.4-0.062,0.86-0.251,1   c-0.131,0.101-0.247,0.171-0.521,0.201c-0.271,0.03-3.3-0.081-3.49-0.14c-0.249-0.08-0.34-0.341-0.34-0.341s0.23-1.03,0.502-1.25   c0.272-0.22,0.416-0.33,0.751-0.36l1.453-0.14c0.312-0.031,0.467-0.191,0.669-0.221l0.311-0.049c0.09-0.029,0.501-0.25,0.699-0.189   c0.201,0.06,0.211,0.109,0.233,0.31C285.765,9.391,285.765,9.743,285.701,10.323L285.701,10.323z M285.815,7.282   c-0.143,0.249-0.169,0.22-0.278,0.271c-0.108,0.051-1.199,0.17-1.854,0.161c-0.449-0.01-0.706-0.231-1.02-0.171   c-0.247,0.049-0.688,0.028-0.812,0.028c-0.116,0-0.247,0.051-0.271-0.17l-0.109-1.27c-0.027-0.219,0.054-0.28,0.249-0.33   c0,0,0.972-0.13,1.412-0.31c0.438-0.19,0.881-0.411,1.14-0.69c0.271-0.28,1.021-1.001,1.425-1.001   c0.3,0.091,0.388,0.421,0.388,0.832C286.093,5.029,286.175,6.641,285.815,7.282L285.815,7.282z M42.262,9.672   c-0.271-0.418-3.414-3.413-3.614-3.642c-0.197-0.231-0.889-0.66-1.312-0.74c-0.419-0.081-0.999-0.09-1.38-0.331   c-0.312-0.189-2.492-1.45-2.861-1.561c-0.37-0.109-0.771-0.271-1.28,0.031c-0.521,0.299-0.891,0.56-1.17,0.639   c-0.277,0.081-0.892,0.3-1.11,0.389c-0.22,0.089-1.383,0.832-1.78,0.893C27.346,5.411,21.9,5.62,21.4,5.629   c-1.991,0.049-7.272,0.832-8.626,0.89C11.424,6.58,6.94,6.491,6.403,6.33C3.981,5.639,1.649,3.929,1.158,3.528   c-0.263-0.189-1.264,0.23-1.149,0.641C0.137,4.66,0.257,5.35,0.667,6.029c0.33,0.55,0.419,3.802,0.341,4.603   c-0.062,0.649-0.279,1.31,0.75,2.131c1.029,0.811,3.603,1.751,4.004,2.001c0.407,0.25,1.24,2.392,1.189,4.054   c-0.08,2.634-1.33,7.772-1.424,8.313c-0.09,0.541-0.229,0.752-0.021,1.219c0.211,0.474,1.501,2.415,2.912,3.036   c0.472,0.188,0.63,0.219,1.03,0.024c0.407-0.188,1.131-0.591,1.603-0.529c0.47,0.062,1.441,0,1.66,0.024   c0.221,0.031,0.643-0.062,0.881-0.561c0.362-0.74,1.132-1.939,2.582-2.611c1.521-0.7,4.112-1.552,7.492-1.139   c3.382,0.409,4.073,0.45,4.571,0.771c0.5,0.319,0.63,0.478,0.779,0.887c0.161,0.412,0.2,0.894,0.743,1.082   c0.539,0.188,0.77,0.418,1.33,0.552c0.56,0.129,1.939,0.062,2.221,0.219c0.28,0.161,0.84,0.229,1.191,0.054   c0.34-0.191,0.38-0.552,0.857-0.804c0.382-0.194,1.33-0.339,1.553-0.88c0.22-0.532-0.449-1.92-0.092-2.691   c1.111-2.361,1.853-5.691,2.464-7.875c0.739-2.643,1.724-5.313,1.831-5.684c0.42-1.391,0.811-1.71,1.051-1.88   C42.402,10.182,42.422,9.943,42.262,9.672z M31.398,14.133c-0.143,2.422-1.061,4.883-1.552,5.354   c-0.479,0.469-1.739,1.271-2.361,1.78c-0.629,0.521-0.5,1.202-1.06,1.657c-0.471,0.371-1.7,0.419-2.742,0.363   c-1.001-0.062-4.853,1.06-5.271,1.17c-0.42,0.105-2.604,0.859-2.854,0.859c-0.762,0.01-2.399,0.328-2.911-0.453   c-0.249-0.39-1.028-1.449-1.131-2.029c-0.07-0.432-0.11-2.049-0.11-2.271c0-0.225,0.133-0.662,0.513-0.762   c0.351-0.104,0.881-0.301,0.881-0.301c1.279-0.328,7.164,0.392,7.663,0.418c0.5,0.027,0.7-0.197,0.922-0.221   c0.219-0.021,0.629,0.09,1.049,0c0.622-0.141,1.862-0.611,2.571-1.139c0.703-0.531,0.33-0.941,0.029-1.171   c-0.301-0.231-0.74-0.811-1.08-1.131c-0.343-0.32-0.331-0.301-1.021-0.45c-0.688-0.15-1.271,0.059-1.521,0.08   s-0.802-0.049-0.802-0.049c-0.438,0-2.238,0.66-3.211,0.701c-0.38,0.021-0.779,0-1.13,0c-0.353,0-1.304,0.501-1.912,0.66   c-0.608,0.159-1.279,0.198-1.922,0.062c-0.641-0.14-1.172-1.081-1.25-1.782c-0.081-0.701,0.3-2.771,0.609-3.212   c0.312-0.439,0.858-0.48,2.271-0.609c1.411-0.131,4.084,0.529,4.084,0.529c1.132,0.281,1.83,0.281,2.99-0.279   c1.161-0.561,3.802-2.782,4.104-3.602c0.301-0.812,0.658-1.19,1.22-1.382c0,0,0.41-0.061,0.742,0   c0.329,0.061,1.631,0.631,2.42,0.64C30.076,7.79,30.977,8.4,31.257,9.57C31.415,10.174,31.534,11.714,31.398,14.133z    M60.993,19.329c0,0-5.793,5.515-6.905,6.215c-1.108,0.699-5.493,3.988-7.805,4.521c-1.082,0.299-1.854-0.109-2.303,0   c0,0-0.528,0.079-0.641,0.379c-0.109,0.301,0,0.502-0.08,0.782c-0.079,0.278-0.641,0.88-0.611,1.106   c0.03,0.232,0.222,0.941,0.312,1.135c0.09,0.191,0.28,0.229,0.521,0.219c0.24-0.009,1.741-0.232,1.961-0.27   c0.222-0.025,0.451-0.107,0.644-0.379c0.188-0.273,0.762-0.971,1.25-1.162c3.173-1.223,8.414-4.463,9.746-5.586   c1.161-0.979,8.564-8.522,9.125-8.981c0.562-0.451,1.44-1.251,1.882-1.421c0.439-0.171,1.201-0.501,1.473-0.31   c0.272,0.191,0.33,0.381,0.33,0.741c0,0.36,0,1.16-0.031,1.451c-0.059,0.581-0.059,0.991-0.389,1.312   c-0.148,0.15-0.382,0.189-0.471,0.562c-0.068,0.264-0.669,0.833-1.131,1.027c-0.451,0.201-1.604-0.023-2.243,0.425   c0,0-0.641,0.45-0.61,0.81c0.029,0.359,0.391,0.662,0.631,1.053c0.189,0.311,0.78,1.08,0.91,1.203   c0.13,0.129,0.312,0.299,0.75,0.195c0.438-0.091,1.08-0.275,1.301-0.169c0.222,0.108,0.25,0.156,0.271,0.41   c0.021,0.25,0.052,2.304-0.171,2.972c-0.22,0.67-0.18,0.812-0.106,1.252c0.219,1.291,0.688,3.221,1.271,4.354   c0.158,0.32,0.129,0.392,0.438,0.503c0.312,0.104,1.473,0.27,1.631,0.299c0.158,0.028,0.279-0.054,0.53-0.231   c0.25-0.189,0.58-0.49,0.892-0.449c0.449,0.052,1.662-0.312,1.991-0.342c0.331-0.027,0.771-0.199,0.881-0.38   c0.149-0.237,0.142-0.479,0.079-0.59c-0.062-0.106-0.42-0.771-0.479-1c-0.062-0.231-0.278-2.882-0.278-3.664   c0-0.778,0.049-2.223,0.38-2.502c0.393-0.328,0.643-0.7,1.062-0.502c0.409,0.188,0.83,0.2,1.08,0.2   c0.102,0,0.249-0.021,0.392-0.225c0.14-0.195,0.879-1.33,1.222-1.521c0.34-0.188,0.551-0.188,0.58-0.451   c0.028-0.267,0.062-0.28-0.061-0.479c0,0-0.952-0.948-1.49-1.129c-0.532-0.17-1.173-0.159-1.832-0.409   c-0.66-0.253-1.28-0.644-1.312-1.021c-0.021-0.301,0.081-2.362,0.132-2.712c0.05-0.351,0.629-0.94,1.05-1.061   c0.312-0.089,0.579-0.22,0.971-0.14c0.393,0.08,1.393,0.37,1.63,0.72c0.199,0.292,5.336,3.815,7.138,5.153   c1.291,0.965,6.344,4.564,7.384,5.215c0.262,0.156,0.572,0.18,0.82,0.035c0,0,0.438-0.326,0.89-0.061   c0.45,0.271,0.802,0.391,1.562,0.391c0.771,0,1.292,0.021,1.521-0.381c0.361-0.627,0.198-1.607-0.192-1.917   c-1.562-1.278-5.19-3.188-5.688-3.444c-0.502-0.271-2.611-1.109-3.104-1.383c-0.479-0.271-2.41-1.39-2.738-1.56   c-0.33-0.171-1.942-0.842-2.804-1.472c-0.529-0.38-3.69-1.83-4.042-2.021c-0.341-0.19-1.393-1.132-1.752-1.25   c-0.36-0.131-0.63-0.031-0.971-0.411c-0.181-0.201-0.51-0.271-0.668-0.392c-0.171-0.13-0.271-0.249-0.232-0.59   c0.041-0.339,0.16-0.689,0.16-1.131c0-0.439-0.021-0.591,0.221-0.61l1.143-0.19c0.379-0.049,0.878,0.049,1.199,0.049   c0.479,0,0.891-0.31,1.25-0.25c0.479,0.081,0.47,0.42,0.722,0.58c0.251,0.16,1.5,0.851,2.894,0.741   c1.531-0.13,2.189-0.48,3.021-1.201c0.271-0.03,0.191-0.81-0.197-1.131c-0.221-0.179-1.99-1.28-3.19-1.45   c-2.062-0.301-3.833-0.782-4.216-0.812c-0.521-0.04-1.142,0.09-1.643-0.089l-0.771-0.381c-0.238-0.1-0.379-0.1-0.551-0.199   l-0.379-0.361l-0.633-0.406c-0.251-0.301-0.45-0.59-0.8-1.331c-0.353-0.75-0.221-1.351-0.409-1.701   c-0.188-0.351-0.438-0.581-0.832-0.69c-0.42-0.12-1.251-0.28-1.479-0.341c-0.381-0.089-1.174-0.52-1.772-0.499   c-0.539,0.009-1.67,0.74-2.142,1.03c-0.562,0.34-1.05,0.53-1.05,0.91c0,0.322,0.021,1.13,0.188,1.551   c0.172,0.42,0.281,1.222,0.221,1.521c-0.061,0.302-0.438,0.95-0.392,1.44c0,0,0.201,0.942-0.027,1.141c0,0-0.771,0.69-1.923,0.892   c-1.159,0.199-2.212,0.419-3.031,0.33c-0.83-0.09-1.644-0.341-2.582-0.27c-0.94,0.083-2.502,0.484-3.104,0.413   c-0.59-0.081-1.353-0.27-1.629-0.34c-0.279-0.083-0.547,0.157-0.56,0.197c-0.021,0.049-0.079,0.43-0.05,0.66   c0.05,0.329,0.408,1.06,0.88,1.5c0,0,1.3,1.312,2.381,1.551c0,0,1.395,0.34,2.771,0.14c1.379-0.199,2.854-0.639,3.104-0.72   c0.409-0.141,2.031-0.141,2.221,0.021c0.19,0.16,0.231,0.29,0.251,0.401c0.021,0.109,0.129,0.179,0.3,0.24   c0.17,0.061,0.472,0.14,0.438,0.389c-0.026,0.25-0.106,0.499-0.407,0.812L60.993,19.329L60.993,19.329z"/>
</g>
<g id="レイヤー_2">
	<path d="M113.841,0.96c0,0-0.24,0.114-0.533,0.088c-0.292-0.027-1.064,0.208-1.33,0.554c0,0-0.855,1.229-0.751,1.361   c0.172,0.219,0.502,0.924,0.422,1.189s-0.194,0.385-0.407,0.438c-0.015,0.204,0.063,0.36,0.423,0.548   c0.465,0.243,0.573,0.626,0.282,1.095c-0.563,0.908-2.231,2.407-2.285,2.567s-0.606,0.815-0.845,1.001s-2.149,0.975-2.441,1.268   c-0.292,0.292-1.28,1.805-1.387,2.124c-0.106,0.319-0.292,0.585-0.027,0.93s0.904,0.903,0.93,1.355   c0.027,0.452,0.425,2.02,1.409,2.152c0.479,0.053,0.688,0.015,0.851-0.292c0.352-0.667,1.305-2.037,1.557-2.342   c0.136-0.165,0.41-0.369,0.729-0.289c0.319,0.079,1.822,0.477,1.822,0.477s-1.168,1.841-1.487,2.159   c-0.319,0.319-2.94,2.041-3.206,2.253c-0.266,0.213-0.771,0.426-0.798,0.904c-0.026,0.479-0.133,2.365-0.106,2.844   c0.026,0.479,0.239,0.824,0.531,0.957c0.292,0.133,0.508,0.271,0.667,0.006s0.741-0.537,0.954-0.697   c0.212-0.158,1.148-1.33,1.44-1.463s1.972-1.072,2.504-1.205c0.531-0.133,0.999-0.521,1.716-0.734   c0.717-0.213,1.249-0.543,1.568-0.744c0.361-0.227,1.003-0.807,1.41-0.836c0.239-0.02,1.659,0.061,2.311,0.012   c0.478-0.035,1.01-0.238,1.222-0.637c0.213-0.399,0.366-1.458,0.254-1.645c-0.211-0.353-0.464-1.23-0.485-1.362   c-0.032-0.188-0.167-0.395-0.513-0.528c-0.345-0.132-1.057-0.747-1.083-0.88c-0.106,0.027-0.375,0.141-0.937,0.641   c-0.595,0.53-1.02,0.626-1.051,0.861c-0.046,0.342,0.002,1.433-0.063,1.588c-0.125,0.29-0.484,0.822-0.86,1.041   c-0.206,0.119-3.182,1.639-3.501,1.665c-0.319,0.027-1.194,0.229-1.507-0.209c0.16-0.398,0.392-0.547,0.595-0.83   c0.199-0.275,1.736-1.192,2.002-1.352c0.266-0.159,2.881-3.398,3.413-3.744c0.531-0.346,1.789-1.445,2.081-1.711   c0.292-0.266,1.189-1.408,1.549-1.721c0.505-0.479,2.338-0.93,2.737-1.728c0,0,0.464-0.828-0.28-1.2   c-0.744-0.372-0.756-0.315-0.916-0.421c-0.16-0.106-0.611-0.479-0.904-0.532c-0.292-0.053-0.797,0.053-1.249,0.106   s-0.877,0.053-1.196,0.346s-0.348,0.838-0.586,1.237c0,0-1.438,1.963-1.862,2.441c-0.425,0.479-1.352,1.425-1.75,1.557   c-0.399,0.133-0.532,0.08-0.744,0.213c-0.213,0.133-0.801,0.664-1.199,0.796s-2.146-0.013-2.336-0.052   c-0.277-0.058-0.425-0.452-0.08-0.824c0.345-0.372,0.984-0.883,1.382-1.096c0.399-0.212,3.173-2.834,3.412-3.02   c0.239-0.186,0.668-0.734,0.908-0.813c0.239-0.08,0.97-0.235,1.346-0.908c0.4-0.717-0.004-1.121,0.234-1.705   c0.239-0.585,0.425-1.068,0.213-1.6c-0.213-0.532-0.745-1.302-2.02-1.249c-1.276,0.053-1.701,0.026-1.701,0.026   S114.213,0.934,113.841,0.96"/>
	<path d="M111.963,23.448c-0.193-0.064-0.61,0.125-0.813,0.33c-0.204,0.203-0.486,0.764-0.266,1.127   c0.219,0.359,1.893,2.205,2.848,3.004c0.137,0.113,0.312,0.625,0.547,0.875c0.235,0.252,0.438,0.471,0.532,0.533   c0.094,0.062,0.329-0.031,0.517,0.062c0.188,0.094,0.235,0.141,0.266,0.234c0.031,0.094,0.063,0.219,0.235,0.125   c0.172-0.094,0.565-0.549,0.829-0.516c0.125,0.016,0.36,0.031,0.673,0.406c0,0,0.235,0.359,0.516,0.502   c0.282,0.141,1.08,0.531,1.314,0.703c0.235,0.172,1.111,0.908,1.988,1.096s1.596,0.125,1.815,0.188   c0.219,0.062,0.407,0.219,0.563,0.266c0.157,0.047,0.563-0.031,0.673,0c0.109,0.033,0.485,0.234,0.751,0.268   c0.266,0.031,0.219,0.031,0.595-0.141c0.375-0.174,0.673-0.564,0.814-0.596c0.141-0.031,0.266,0,0.407-0.078   s0.266-0.266,0.422-0.391s0.97-0.408,2.003-2.316c0.313-0.252,0.735-0.393,0.876-0.408c0.141-0.016,1.002-0.031,1.393,0.047   s0.923,0.314,1.064,1.064c0.141,0.752,0.204,0.658,0.266,0.705s0.548,0.281,0.751,0c0.204-0.281,0.356-1.373,0.735-1.707   c0.376-0.328,0.944-0.627,1.737-0.531c1.424,0.172,3.991,0.502,5.712,2.879c0,0,0.094,0.143,0.282,0.189s0.641,0.225,0.986,0.203   c0.72-0.049,1.627-0.783,2.035-0.768c0,0,0.501,0.062,0.767,0.203s0.297,0.141,0.423-0.188c0.125-0.328,0.109-0.859,0.078-1.049   c-0.031-0.188-0.109-0.641-0.939-1.361c-0.829-0.719-3.302-2.143-3.771-2.41c0,0-0.767-0.188-1.049-0.422   c-0.281-0.234-0.892-1.049-1.549-1.127c0,0-0.548-0.047-1.283,0.502c-0.673,0.25-0.939,0.359-1.08,0.469s-0.329,0.406-0.485,0.406   c-0.157,0-0.19,0.027-0.25-0.047c-0.141-0.172-0.032-0.703-0.313-1.08c-0.105-0.139-0.41-0.328-0.438-0.609   c-0.047-0.453,0.21-0.953,0.485-1.314c0,0,0.344-0.721,0.892-0.705c0.548,0.016,0.923,0.156,1.252,0.141   c0.328-0.016,0.782-0.078,0.955-0.047c0.172,0.031,0.375,0.203,0.72,0.047s0.282-0.359,0.438-0.453   c0.157-0.094,0.282-0.125,0.25-0.328s-0.109-0.439-0.109-0.518s-0.063-0.266-0.297-0.344c-0.235-0.078-0.845-0.141-0.986-0.281   c-0.141-0.141-0.923-1.127-1.674-1.252c-0.465-0.078-2.127,0.125-2.456-0.031c-0.034-0.291-0.111-1.628-0.142-1.91   c-0.031-0.282-0.047-1.158-0.031-1.408c0.203-0.11,1.111-0.157,1.753-0.11c0.642,0.047,2.488,0.516,3.208,0.532   c0,0,0.642,0.062,0.923-0.219c0.282-0.282,0.36-0.61,0.705-0.642c0.25-0.023,0.219,0.094,0.516,0.016   c0.297-0.078,0.297-0.234,0.579-0.25c0.282-0.016,0.83,0.282,1.096,0.235c0.266-0.047,0.203-0.25,0.547-0.892   c0.345-0.642,0.47-0.657,0.391-0.892c-0.078-0.234-0.344-0.532-0.563-0.751c-0.219-0.219-2.16-2.065-2.395-2.379   c-0.234-0.313-0.626-1.001-0.782-1.048s-0.688,0.219-0.97,0.11c-0.282-0.11-0.923-0.501-1.127-0.563   c-0.203-0.062-0.25-0.094-0.266,0.016c-0.016,0.109,0.082,0.341,0,0.407c-0.156,0.125-0.235,0.125-0.438,0.094   c-0.146-0.023,0.094,0.642-0.047,0.829c-0.141,0.188-0.156,0.407-0.282,0.454c0.047,0.157,0.344,0.704,0.266,0.971   c-0.078,0.266-0.329,1.001-0.829,1.361c-0.501,0.36-0.924,0.923-2.207,0.563c0.078-0.767,0.125-1.189,0.313-1.409   s0.673-1.847,0.735-2.191c0.063-0.344,0.454-2.269,0.705-2.645c0.25-0.376,0.861-1.33,2.019-1.064   c1.158,0.266,0.958,0.304,1.221,0.344c0.407,0.063,1.362,0.016,1.627,0.11c0.267,0.094,0.485,0.219,0.579,0.219   c0.094,0,0.235,0.062,0.329-0.157c0.094-0.219,0.25-0.704,0.25-0.876c0-0.172,0.094-0.188-0.109-0.297   c-0.204-0.109-0.454-0.313-0.532-0.469s-0.235-0.36-0.517-0.532c-0.282-0.172-0.736-0.422-0.72-0.907   c0.047-0.204,0.094-0.313-0.094-0.36c-0.188-0.047-0.97-0.313-1.298-0.485c-0.329-0.172-1.127-0.719-1.456-0.845   s-1.064-0.157-1.409-0.266c-0.239-0.076-0.485,0.157-0.72,0.375c-0.25,0.204-0.375,0.063-0.688,0.36   c-0.313,0.297-0.641,1.046-1.001,1.361c-0.626,0.547-2.864,1.44-5.133,1.252c-1.377-0.188-1.534-0.109-1.612-0.172   c-0.079-0.062-0.392-0.141-0.47-0.25c-0.079-0.11-0.188-0.157-0.219-0.016c-0.032,0.141-0.032,0.407-0.172,0.532   s-0.345,0.141-0.282,0.219c0.062,0.078,0.501,0.892,0.735,1.001c0.235,0.11,0.347,0.161,0.767,0.219   c0.454,0.062,1.075-0.061,1.268-0.047c0.219,0.016,0.704,0.219,0.72,0.61c0.015,0.372-0.141,0.751-0.532,1.049   c-0.25,0.282-0.109,0.72-0.109,0.72s0.219,0,0.297,0.204c0.078,0.203,0.235,0.391,0.391,0.407c0.157,0.016,0.615,0.354,0.709,0.621   c0.089,0.25-0.042,0.396-0.292,0.626c0,0-0.449,0.178-0.542,0.271c-0.094,0.094-0.25,0.282-0.485,0.375s-1.048,0.47-1.408,0.72   c-0.36,0.25-0.892,0.971-1.518,0.892c-0.626-0.078-1.534-0.735-2.066-1.408c-0.172-0.219-0.219-0.282-0.313-0.11   s-0.156,0.344-0.266,0.36c-0.11,0.016-0.11,0.063-0.141,0.219s0.094,1.675,0.141,2.019c0.046,0.344,0.287,1.02,0.626,1.627   c0.454,0.813,2.128,3.13,2.66,3.458c0.532,0.328,0.532,0.422,0.673,0s0.344-0.971,0.391-1.205c0.047-0.235,0.047-0.549-0.125-0.752   s-0.376-0.563-0.329-0.782c0.047-0.219,0.454-0.61,0.548-0.688c0.094-0.078,0.172-0.078,0.094-0.266s-0.204-0.203-0.125-0.344   c0.078-0.141,0.266-0.219,0.344-0.391c0.078-0.172,0.813-1.863,1.001-2.254c0.188-0.391,0.266-0.688,0.579-0.923   c0.312-0.234,0.813-0.469,0.876-0.469c0.063,0,0.371,0.103,0.423,0.532c0,0,0.313,3.114,0.329,3.396   c-0.031,0.579,0.124,2.285,0.125,2.879c0.002,0.901-0.358,1.801-0.418,2.1c0,0-1.963,0.992-2.853,1.076   c-0.986,0.094-2.144-0.203-2.378-0.25c-0.235-0.047-0.235,0.031-0.188,0.125s0.188,0.377,0.078,0.549   c-0.109,0.172-0.595,0.297-0.563,0.438c0.055,0.244,0.415,0.9,1.174,1.08c1.126,0.266,2.019-0.172,2.426-0.141   c0,0,0.594,0.203,0.845,0.219s0.756-0.186,1.009-0.213c0.271-0.031,0.133,0.416,0.196,0.666c0.062,0.252,0.109,0.611,0.016,1.127   c-0.071,0.393-0.301,1.328-0.722,1.568c-0.294,0.168-1.36,0.889-1.845,0.982c-0.42,0.082-1.8-0.422-3.646-0.234   c-1.2,0.121-1.704,0.357-2.113,0.406c-1.143,0.141-2.864,0.016-3.302,0.031c-0.438,0.016-2.097-0.047-2.285-0.062   c-0.313,0.031-0.595,0.268-0.861,0.236c-0.517-0.752-1.815-2.646-2.332-3.24c-0.198-0.229-0.767-0.877-1.08-0.908   C112.151,23.448,112.151,23.51,111.963,23.448"/>
	<path d="M117.988,21.022c-0.301,0.193-0.83-0.125-1.08-0.328c-0.209-0.17-0.297-0.078-0.157,0.141c0,0,0.302,0.475,0.532,0.674   c0.235,0.203,0.548,0.438,0.814,0.799c0.266,0.359,0.61,1.344,0.767,1.549c0.156,0.203,0.876,0.922,0.97,1.047   s0.344,0.189,0.548,0.125c0.203-0.062,0.806-0.385,1.173-0.469c0.344-0.078,0.751,0.016,0.876-0.031s0.172-0.266,0.266-0.359   c0.094-0.094,0.172-0.094,0.047-0.408c-0.125-0.312-0.188-0.562-0.422-0.672c-0.235-0.109-0.767-0.486-0.876-0.674   c-0.11-0.188-0.595-0.375-0.782-0.453c-0.188-0.078-0.893-0.422-1.158-0.656c-0.2-0.178-0.344-0.705-0.688-0.861   c-0.289-0.131-0.526-0.25-0.548-0.047C118.239,20.694,118.207,20.881,117.988,21.022"/>
	<polygon points="177.226,5.956 177.224,5.952 177.224,5.956  "/>
	<path d="M159.099,2.65c0.082-0.188,1.262,0.042,1.533,0.146c0.271,0.104,1.211,0.334,1.732,0.563   c0.959,0.334,2.143,2.117,2.76,2.405c0.703,0.329,1.309,0.35,1.58,0.6c0.271,0.251,0.438,0.339,0.391,0.684s0.016,0.61-0.312,0.704   c-0.328,0.094-0.814,0.078-0.971,0.157c-0.156,0.078-0.516,0.313-0.783,0.266c-0.266-0.047-0.734-0.282-1.016-0.313   c-0.283-0.032-1.816-0.329-2.363-0.548c-0.234-0.093-0.674,0.157-0.783,0.062c-0.109-0.094-0.109-0.407-0.078-0.688   c0,0,0.172-0.345-0.109-0.657c-0.281-0.313-0.814-0.736-0.939-0.97C159.615,4.826,159.015,2.838,159.099,2.65"/>
	<path d="M155.546,11.414c0,0-0.344,0.297-0.453,0.36c-0.111,0.062-0.115,0.272-0.031,0.375c0.188,0.235-0.127,0.986,0.125,1.393   c0,0,0.625,0.955,1.689,1.456c0.811,0.382,1.83,0.188,2.238,0.501c0.406,0.313,0.25,0.657,0.312,0.688s1.721-0.579,2.254-0.516   c0.955,0.112,1.158,0.709,1.58,0.721c0,0,0.736,0.062,1.627-0.846c-0.766-0.939-1.752-1.674-2.691-2.128   c-0.939-0.454-1.221-0.219-1.424-0.328c-0.203-0.11-0.971-0.548-1.361-0.595s-2.91-0.25-3.207-0.485   C155.906,11.774,155.546,11.414,155.546,11.414"/>
	<path d="M102.715,28.206c0.266,0.25,0.498,0.816,0.569,1.5c0.167,0.502,0.811,1.721,1.481,2.568c0,0,1.383,1.617,2.097,2.113   c0.322,0.223,0.897,0.566,1.31,0.609c0.095-0.342,0.646-0.998,0.691-1.055c0.267-0.332,0.372-0.625,0.363-1.01   c-0.002-0.102,0.043-0.852,0.031-1.189c-0.012-0.34-0.22-0.582-0.279-0.678c-0.285-0.457-0.393-0.871,0.15-1.322   c0.035-0.064-0.056-0.521-0.079-0.66c-0.055-0.354-0.118-0.752-0.303-0.984c-0.061-0.076-0.271-0.236-0.317-0.723   c-0.047-0.484,0.277-1.143,0.288-1.184c0.004-0.02-0.057-0.102-0.084-0.115c-0.767,0.564-1.723,1.73-1.723,1.73   c-0.364,0.475-0.642,0.852-1.079,0.852c-0.198,0-0.876-0.312-1.299-0.695c-0.32-0.289-1.002-0.682-1.101-0.617   c-0.169,0.111-0.136,0.232-0.277,0.404C103.012,27.924,102.745,28.081,102.715,28.206"/>
	<path d="M197.167,17.402c-0.082-0.125-2.529-1.836-3.107-2.003c-0.58-0.167-1.305-0.037-1.723-0.183s-0.84-0.49-1.236-0.532   c-0.396-0.042-1.174-0.036-1.592-0.245c-0.416-0.208-0.781-0.506-1.053-0.506s-0.887-0.078-1.074-0.225   c-0.188-0.146-0.215-0.245-0.006-0.495c0.209-0.25,0.596-0.793,0.908-0.876s2.102-0.798,2.604-1.069   c0.5-0.271,0.688-0.313,0.73-0.501c0.041-0.188,0.08-0.374-0.174-0.558c-0.453-0.329-0.766-0.506-1.059-0.548   c-0.291-0.042-0.619,0-0.793,0.313c-0.26,0.469-1.174,0.949-1.402,1.22c-0.23,0.271-0.6,0.97-1.123,1.346   c-0.52,0.376-0.709,0.678-1.396,0.658c-0.689-0.021-1.539-0.297-1.77-0.423c-0.229-0.125-0.562-0.375-0.562-0.375   s0.312-0.506,0.562-0.673s0.662-0.48,1.143-0.48s0.484,0.152,0.611,0.026c0.297-0.297,1.309-1.507,1.602-1.674   c0.291-0.167,0.5-0.355,0.875-0.418c0.377-0.062,0.648-0.104,0.836-0.333c0,0,0.098-0.235-0.152-0.407   c-0.25-0.172-0.5-0.392-0.656-0.454s-0.752,0-0.971-0.125c-0.219-0.125-0.391-0.329-0.516-0.329c-0.07,0-2.525,3.568-3.521,4.366   c0,0-0.156,0.172-0.314,0.125c-0.156-0.047-0.484-0.204-0.578-0.266s-0.094-0.266-0.031-0.36c0.062-0.094,0.422-0.563,0.564-0.72   c0.072-0.083,0.045-0.266-0.143-0.376c-0.188-0.109-0.338-0.104-0.463-0.182c-0.125-0.079-0.695-0.35-0.898-0.428   c-0.203-0.078-0.312-0.25-0.297-0.375c0.016-0.125,0.453-0.47,0.658-0.532c0.203-0.062,1.156-0.329,1.424-0.36   c0.266-0.031,0.812,0,1.158-0.359c0.344-0.36,0.391-0.517,0.438-0.658s0.094-0.329-0.141-0.454   c-0.234-0.125-0.424-0.329-0.453-0.454c-0.064-0.141-0.283-0.266-0.205-0.454c0.078-0.188,0.58-0.704,0.971-0.642   c0.393,0.062,1.596,0.204,1.816,0.282c0.219,0.078,0.531,0.047,0.688-0.235c0.203-0.219,0.406-0.297,0.814-0.109   c0.406,0.188,0.547,0.36,0.734,0.407c0.188,0.047,1.377,0.689,1.738,1.017c0.359,0.329,0.641,0.735,1.236,0.47   c0.594-0.25,0.703-0.25,0.891-0.297c0.189-0.047,0.266-0.204,0.172-0.438c-0.094-0.234-0.344-1.095-1.141-1.565   c-0.799-0.469-1.926-0.532-2.41-0.923c-0.486-0.391-1.299-1.189-1.707-1.393c-0.406-0.204-1.143-0.36-1.393-0.516   c-0.25-0.157-0.547-0.375-0.812-0.36c-0.268,0.016-0.564-0.062-0.721,0.141s-0.328,0.563-0.422,0.673s-0.188,0.204-0.125,0.422   c0.062,0.219,0.141,0.47-0.049,0.72c-0.188,0.25-0.484,0.579-0.656,0.689c-0.172,0.109-0.818,0.059-1.268-0.517   c-0.783-1.001-1.189-1.878-1.377-2.113c-0.188-0.234-0.516-0.516-0.83-0.563c-0.312-0.078-0.469-0.219-0.516-0.376   c-0.047-0.156-0.391-0.25-0.611-0.375c-0.219-0.125-1.299-0.579-2.551-0.391c-0.918,0.138-1.674,1.158-2.424,1.033   c-0.248-0.041-0.377,0.063-0.299,0.266c0.078,0.204-0.047,0.563,0,0.83s0.359,0.595,0.408,0.767c0.047,0.172,0.125,0.36,0.438,0.36   s0.547-0.046,0.893,0.125c0.344,0.172,1.109,0.704,0.891,1.189s-0.531,0.579-0.75,0.563c-0.221-0.016-0.141-0.046-0.393-0.046   c-0.25,0-0.969,0.172-1.471,0.046c-0.281-0.125-0.25-0.391-0.375-0.407c-0.33,0.042-0.547,0.532-0.893,0.626   c-0.268,0.073-2.754,0.422-3.066,0.454s-0.955-0.078-1.221-0.235c-0.094-0.062-0.281-0.172-0.188,0.047   c0.094,0.204,0.141,0.188,0.297,0.485s0.281,0.923,0.375,1.127s0.25,0.454,0.643,0.329c0.391-0.125,0.688-0.204,0.969-0.344   c0.283-0.141,1.08-0.548,1.52-0.563c0.438-0.016,1.189-0.204,1.252-0.25c0.062,0.282,0.406,2.144,0.375,2.473   s-0.125,0.375-0.047,0.642s0.141,0.798-0.297,1.033c-0.439,0.234-0.689,0.485-1.127,0.516s-0.986-0.016-1.236,0.141   c-0.25,0.156-0.375,0.328-0.768,0.407c-0.391,0.078-1.096,0.156-1.502,0.047s-0.971-0.282-1.096-0.282s-0.172,0.031-0.219,0.282   c-0.047,0.25-0.078,0.751,0.281,0.908c0.359,0.156,1.01,0.409,1.408,0.657c0.527,0.329,0.736,0.955,0.408,1.439   c0,0-1.707,2.045-1.988,2.374c-0.281,0.328-0.48,0.688-0.98,0.897c-0.291,0.121-0.771-0.293-1.545,0.396   c0,0-0.793,1.137-0.965,1.34s-0.172,0.25-0.016,0.533c0.143,0.312,0.205,0.672-0.047,1.018c-0.25,0.344-1.533,0.844-2.158,1.846   c-0.33,0.527-1.158,1.393-1.408,2.832c-0.236,0.58-1.295,2.107-2.113,1.77c-1.816-0.752-1.096-2.02-1.33-2.16   c-0.434-0.186-1.283,0.689-1.283,1.502c0,0.633,0.328,0.689,0.266,1.189s-0.303,1.852-0.172,2.191   c0.156,0.406,0.137,0.656,1.215,1.146c1.227,0.559,2.691,2.047,3.234,2.379c0.543,0.334,2.371,1.084,3.266,0.637   c0.594-0.297,0.135-1.371,0.156-1.705s0.125-0.727-0.041-1.143c-0.168-0.418-0.689-1.064-0.605-1.857s0.98-3.068,1.314-3.525   c0.334-0.459,0.771-1.168,0.438-1.963c-0.354-0.965-0.375-2.395,0.209-3.312s0.834-1.537,1.127-1.893s1.25-0.92,1.674-1.158   c0.25-0.141,0.324-0.443,0.658-0.798c0.734-0.782,1.857-1.955,2.092-2.332c0.123-0.198,0.02-0.547,0.291-0.751   c0.418-0.313,0.756-0.892,0.939-1.043c0.73-0.605,1.691-1.398,1.982-1.398c0.125,0.834,0.156,1.737-0.078,2.159   c-0.191,0.344-0.297,0.553-0.277,1.075c-0.035,0.663-0.938,1.377-1.318,1.398c-0.504,0.027-1.545-0.198-1.564,0.094   c-0.021,0.292-0.064,0.782-0.846,1.314c0.334,0.083,1.783,0.245,2.473,1.268c1.271-0.793,1.883-1.591,2.258-2.259   c0.168-0.188,0.48-0.417,0.773-0.334c0.438,0.125,1.492,0.328,1.852,0.464c0.531,0.204,1.141,1.127,0.203,1.689   c-0.939,0.564-3.496,1.436-3.996,1.52c-0.5,0.082-1.586,0.166-2.4-0.355c-0.812-0.521-1.193-0.699-1.299-0.762   c-0.104-0.062-0.209-0.312-0.709-0.104c-0.5,0.207-0.736,0.219-0.924,0.281s-0.406,0.25-0.072,0.396s1.168,0.543,1.586,1.252   s0.668,1.73,0.646,2.398s-0.271,6.166-0.562,6.814c-0.293,0.646-0.752,0.865-1.064,0.928s-0.48,0.02-0.646,0.02   c-0.168,0-0.215,0.121-0.215,0.289c0,0.166,0.047,0.463,0.068,0.568c0.021,0.104,0.1,0.338,0.434,0.338   c0.332,0,1.84,0.246,2.133,0.33c0.291,0.082,0.668,0.104,0.98-0.336c0.312-0.438,0.521-0.834,0.918-1.021s0.627-0.5,0.689-1.127   c0.062-0.625,0.479-3.504,0.479-3.713s-0.029-0.428,0.209-0.48c0.521-0.115,1.289-0.521,1.914-0.709   c0.627-0.188,4.576-0.711,5.055-0.939c0.48-0.23,2.609-0.646,3.025-0.752c0.418-0.104,0.752-0.521,1.127-0.271   c0.375,0.252,0.396,0.627,0.271,1.105c-0.125,0.48-0.459,1.467-0.104,2.281c0.354,0.812,0.543,1.162,0.562,1.684   c0.021,0.521,0.021,1.273-1.002,1.357c-1.021,0.082-2.283-0.078-2.723-0.037c-0.438,0.043-0.584,0.021-1.314-0.041   s-1.137-0.297-1.074-0.027c0.062,0.271,0.125,0.502,0.584,0.773s1.867,1.193,2.182,1.361c0.312,0.166,2.389,0.996,2.764,1.35   c0.375,0.355,1.346,1.57,1.68,1.717s0.877,0.168,1.377-0.125c0.502-0.291,0.678-0.402,1.096-0.486   c0.418-0.082,0.877-0.312,0.98-0.916c0.105-0.605,0.062-1.002-0.229-1.461c-0.293-0.459-0.439-0.648-0.396-1.357   c0.041-0.709-0.043-3.609-0.043-4.006s-0.207-0.855-0.207-1.564s0.166-3.672,0.5-4.486c0.334-0.812,0.768-1.172,0.959-1.309   c0.281-0.203,0.393-0.559-0.281-1.049c-0.674-0.49-2.77-1.768-3.912-2.42c-0.373-0.213-1.701-0.344-1.91-0.365   s-0.244,0.083-0.516,0.438s-0.67,0.466-0.799,0.626c-0.26,0.324-0.135,0.887-0.26,1.284s-0.396,0.647-0.814,0.563   c-0.416-0.083-1.074-0.527-1.24-0.672c-0.168-0.146-0.271-0.438-0.021-0.814c0.25-0.375,0.23-0.334,0.396-0.688   c0.166-0.355-0.143-0.767-0.016-1.158c0.172-0.526,0.637-1.34,0.908-1.424c0.27-0.084,0.625-0.219,1.246-0.021   c0.588,0.188,0.814,0.522,0.959,0.772c0.146,0.25,0.252,0.313,0.627,0.188s0.73-0.396,1.836,0.104   c1.105,0.5,2.852,1.463,3.756,2.086c0.939,0.647,1.596,1.092,5.143,2.208c0.549,0.172,1.576-0.059,1.785-0.143   C197.064,18.071,197.23,17.507,197.167,17.402 M179.034,6.907c0.236-0.109,0.41-0.19,0.627,0.062   c0.188,0.219,0.031,0.688-0.266,1.017c-0.299,0.329-1.236,0.642-1.645,0.861c-0.406,0.219-0.688,0.485-1.109,0.563   c-0.424,0.078-0.518-0.11-0.643-0.329c-0.125-0.219,0.078-0.344,0.312-0.454c0,0,0.861-0.422,1.316-0.688   C178.081,7.674,178.767,7.032,179.034,6.907 M175.906,6.125c0,0,0.562-0.219,0.814-0.344c0.25-0.125,0.422-0.141,0.562-0.109   s0.422,0.188,0.627,0.297c0.203,0.109,0.203,0.219,0.062,0.454c-0.141,0.235-0.736,0.595-0.986,0.735   c-0.25,0.141-0.955,0.282-0.955,0.282c-0.234,0.047-0.297-0.047-0.344-0.188c-0.047-0.141-0.031-0.47-0.062-0.688   C175.593,6.344,175.765,6.203,175.906,6.125 M174.935,15.217c-0.422,0-0.375-0.11-0.359-0.36c0.016-0.25,0.109-0.626,0.172-0.751   c0.062-0.125,0.125-0.297,0.094-0.532c-0.031-0.235,0.203-0.892,0.424-1.189c0.219-0.297,0.328-0.235,0.438-0.282   s0.203-0.141,0.469-0.329c0.266-0.188,0.627-0.341,0.971-0.375c0.924-0.094,1.064,0.079,1.33,0.313   c0.266,0.235,0.344,0.986,0.391,1.252c0.047,0.266-0.016,0.595,0.047,0.986c0.064,0.391-0.234,0.36-0.438,0.422   c-0.203,0.063-0.689,0.282-0.971,0.36C177.22,14.81,175.359,15.217,174.935,15.217 M173.011,22.901   c-0.33,0.107-0.502,0.031-0.611-0.203c-0.109-0.236-0.219-0.658-0.234-0.846s0.156-0.328,0.375-0.438   c0.596-0.299,0.846-0.299,1.127-0.328c0.283-0.033,0.172-0.096,0.471-0.236c0.297-0.141,0.609-0.281,1.08-0.578   c0.469-0.299,2.096-0.861,2.314-0.924s0.393,0,0.125,0.359c-0.266,0.361-1.736,1.707-2.676,2.316   C174.044,22.635,173.542,22.729,173.011,22.901 M180.804,19.411c0.156-0.047,0.297-0.156,0.703-0.266   c0.408-0.109,0.611,0.281,0.643,0.939c0.031,0.656-0.281,0.828-0.453,0.938c-0.172,0.111,0,0.172-0.33,0.596   c-0.484,0.375-3.99,1.611-4.303,1.674s-1.174,0.078-1.549,0.234c-0.377,0.158-1.268,0.33-1.691,0.377   c-0.422,0.047-0.201-0.154-0.031-0.234c0.361-0.172,1.988-1.113,2.426-1.426c0.439-0.312,2.27-1.908,2.598-2.158   C179.146,19.833,180.648,19.458,180.804,19.411"/>
	<path d="M246.87,14.732c-0.316-0.12-1.732-0.689-2.172-0.814c-0.438-0.125-3.357-0.417-4.611-0.856   c-0.615-0.215-1.312-0.357-2.523,0.136c-1.461,0.594-2.627,0.425-3.455,1.083c-0.828,0.657-2.32,1.688-2.773,1.327   c-0.406-0.334-0.24-0.647-0.438-0.813c-0.121-0.101,0.072-0.647-0.053-0.835c-0.125-0.188-0.887-0.792-1.137-1.2   c-0.252-0.407-0.168-0.704-0.361-0.86c-0.176-0.144,0.059-0.631,0.684-0.757c0.627-0.125,0.824-0.317,1.398-0.136   c0.627,0.198,2.002-0.094,3.16-0.312c1.158-0.219,1.816-0.345,2.348-0.032c0.533,0.313,0.721,0.814,1.158,0.846   c0.377-0.376,0.824-0.825,1.389-1.012c0.562-0.188,0.803-0.428,0.928-0.616s2.129-0.751,2.285-1.095   c0.156-0.344,0.062-0.929-0.105-1.356c-0.229-0.587-0.834-1.116-1.021-1.648s-1.346-3.192-2.316-3.63   c-0.971-0.438-1.252-0.396-1.689-0.459c-0.438-0.062-0.908-0.042-1.127,0.271s-0.627,0.845-1.283,0.876   c-0.658,0.031-0.855,0.062-1.137,0.313c-0.283,0.25-0.24,0.438,0.072,0.657s0.846,1.346,0.783,1.878s0.031,1.064-1.064,1.69   c0,0-2.023,1.179-2.66,1.815c-0.387,0.261-1.723,0.469-2.535,0.991c-0.484,0.311-1.502,0.595-2.004,0.689   c-0.5,0.094-0.781-0.334-1.127-0.506c-0.408-0.204-0.469-0.375-0.156-0.438c0.312-0.062,0.307-0.309,0.674-0.642   c0.344-0.312,0.547-0.438,0.359-0.845c-0.188-0.407-0.396-0.835-0.396-0.929s-0.053-0.47,0.543-0.438   c0.594,0.031,1.486-0.101,1.92,0.208c0.438,0.313,1.031,0.344,1.25,0.157c0.221-0.188-0.219-0.501-0.469-0.658   c-0.25-0.156-1.293-0.761-2.201-0.98s-1.814-0.313-2.43-0.866c-0.264-0.236-0.502-0.052-0.908-0.365   c-0.408-0.313-0.953-1.057-1.773-1.314c-0.344-0.107-1.908-1.415-2.275-2.107c-0.242-0.458-0.771-0.876-1.365-0.876   c-0.596,0-0.699,0.042-0.887,0.042c-0.189,0-0.377-0.157-0.752,0.375s-0.971,0.897-1.439,0.96   c-0.471,0.062-0.814,0.511-1.377,0.668c-0.564,0.156-1.117,0.042-0.523,0.73c0.596,0.688,2.41,2.389,2.41,2.389   c0.283,0.344,0.814,1.252,0.064,1.721c-0.752,0.47-9.141,2.254-11.08,2.128c-0.877-0.094-1.314,0.032-1.596-0.219   c-0.283,0.219-0.221,0.469,0.156,0.594c0.375,0.125,1.158,0.542,1.221,0.73s0.062,0.699,1.314,0.605   c1.252-0.094,3.439-0.194,4.068-0.125c0.959,0.104,1.252-0.188,1.564-0.438c0.312-0.251,1.398-0.459,1.648-0.146   c0.156,0.281,0.072,0.719,0.072,0.719s0,2.567,0.096,2.942c0.094,0.375,0.229,0.709-0.146,1.179   c-0.377,0.47-1.074,0.699-1.168,0.887c-0.096,0.188-0.314,0.595,0.312,0.657c0.625,0.062,1.002,0.177,1.252,0.459   s0.896,0.762,1.146,1.043c0.25,0.281,0.855,0.689,0.262,1.127c-0.596,0.438-1.377,0.512-1.785,0.668   c-0.406,0.156-1.533,1.117-2.283,1.271c-0.752,0.158-5.195,0.658-5.635,0.658c-0.438,0-0.688-0.062-0.971-0.531   c-0.281-0.471-0.438-1.033-0.688-0.939s-0.191,0.244-0.281,0.625c-0.127,0.533-0.877,0.564-0.846,0.814   c0,0,1.127,1.439,2.129,1.973c1,0.531,1.283,0.406,1.877,0.312c0.596-0.094,1.557-0.086,2.086-0.053   c0.68,0.041,2.516-0.531,3.453-0.512c0.174,0.377,0.111,1.676-0.678,2.223c-0.939,0.654-2.529,2.707-3.344,3.459   c-0.652,0.604-1.096,1.424-1.736,1.611c-0.336,0.098-0.752,0-0.719,0.281c0.031,0.283-0.127,0.471,0.125,0.564   c0.25,0.094,0.875,0.125,1.408-0.125c0.531-0.25,0.75,0.156,1.377,0.031c0.625-0.125,1.09-0.115,1.346-0.721   c0.5-1.189,0.855-1.043,1.418-1.826c0,0,1.586-2.398,2.107-4.965c0.146-0.668,0.355-1.096,0.574-1.439   c0.219-0.346,1.398-1.689,1.617-1.816c0.219-0.125,1.074-0.562,1.574-0.781c0.502-0.221,0.783-0.283,0.908-0.221   s0.502,0.596,0.377,0.971c-0.127,0.377-0.314,1.221-0.221,2.129s0.627,2.566,0.408,3.129c-0.219,0.564-0.062,0.689-0.658,0.908   c-0.594,0.219-1.096,0.324-1.721,0.166c-0.627-0.154-1.168-0.469-1.482-0.5c-0.312-0.031-0.396-0.072-0.334,0.459   s0.221,1.502,0.721,1.846c0.5,0.346,1.021,0.846,1.117,1.16c0.094,0.312,0.113,0.844,0.396,1.439   c0.281,0.594,0.709,1.033,1.053,1.252s1.377,0.5,1.752,1.189c0.596-0.031,0.848,0.086,1.264-0.543   c0.51-0.771,1.586-2.055,1.617-2.432c0.031-0.375,0.156-1.064-0.156-1.439c-0.314-0.375-0.543-1.053-0.711-1.408   c-0.133-0.285-0.312-1.064-0.166-1.502c0.135-0.404,0.465-2.266,0.584-2.504c0.166-0.334,0.166-0.406,0.449-0.25   c0.281,0.156,2.055,1.168,2.68,2.482c0.283,0.469,0.461,0.668,0.773,0.418c0.312-0.252,0.334-0.492,0.334-0.711   s0.082-0.426-0.168-0.584c-0.25-0.156-0.646-0.73-0.74-1.043s-0.375-0.637-0.721-0.918c-0.344-0.281-1.742-1.607-1.898-1.795   s-0.104-0.322-0.072-0.543c0.031-0.219,0.125-1.125,0.188-1.283c0.062-0.156,0.156-0.281,0.5-0.219   c0.346,0.062,0.848,0.227,1.221,0.062c0.377-0.125,1.836-0.104,2.504-0.166c0.25-0.25,0.219-0.459,0.219-0.459   s-0.594-0.627-1.408-0.971c-0.812-0.344-2.91-1.033-3.191-1.221c-0.281-0.188-0.484-0.359-0.422-0.547   c0.156-0.469-0.275-0.881-0.143-0.955c0.752-0.417,1.9-0.146,1.9-0.146s0.334-0.355,0.207-0.73   c-0.719-0.282-1.824-0.595-2.139-0.501c-0.188-0.751-0.094-1.126,0.156-1.283c0.252-0.157,1.941-1.252,2.756-1.252   c0.812,0,1.908,0.376,2.379,0.501c0.469,0.125,0.602,0.148,0.938,0.469c0.48,0.459,1.139,1.669,0.98,2.045   c-0.191,0.462,0,1.236-0.322,1.821c-0.195,0.351-0.533,0.329-0.156,0.735c0.375,0.407,0.781,0.72,0.625,1.189   c-0.156,0.471-0.438,1.721-0.438,2.379s-0.031,2.953-0.188,3.703c-0.156,0.752-0.752,3.34-1.398,4.111   c-0.541,0.645-1.043,1.543-1.42,1.795c-0.375,0.25-0.531,0.719-0.375,0.938s0.439,0.564,0.752,0.283   c0.312-0.283,1.002-1.221,1.346-1.533c0.344-0.314,1.314-0.471,2.033-1.254c0.721-0.781,1.139-1.666,1.283-2.377   c0.258-1.252,0.594-6.346,0.77-7.578c0.031-0.219,0.234-0.281,0.406-0.266c1.52,0.471,2.873,0.604,3.834,0.801   c0.49,0.102,0.578,0.492,0.621,0.879c0.023,1.113-0.092,5.125-0.148,5.977c-0.062,0.938-0.596,4.787-0.471,5.758   c0.127,0.971,0.596,1.814,0.752,2.191c0.156,0.375,0.562,0.344,0.656-0.064c0.094-0.406-0.031-0.584,0.428-0.854   c0.398-0.236,1.107-0.428,1.264-0.365s0.25,0.365,0.406,0.553s0.344,0.26,0.721,0.104c0.375-0.156,0.699-0.166,0.971-0.291   c0.27-0.125,0.301-0.709,0.207-1.148c-0.094-0.438,0.271-2.432-0.082-3.338c0.094-0.533,0.062-0.637-0.189-1.105   c-0.264-0.498-0.406-2.896-0.438-3.318s0.404-0.596,0.404-0.939s-0.324-0.75-0.293-1.127c0.031-0.375,0.34-1.33,0.271-2.023   c-0.047-0.469-0.074-2.358-0.043-2.545s0.105-0.193,0.314-0.267c0.859-0.297,2.43-0.067,3.213-0.317   c0.781-0.251,2.42-0.824,2.67-0.981c0.252-0.157,0.334-0.24,0.334-0.584C247.349,15.18,247.308,14.898,246.87,14.732    M215.404,9.208c0.156-0.047,1.049-0.485,1.33-0.595c0.283-0.109,0.596,0.11,0.799,0.25s0.109,0.407-0.031,0.579   c-0.141,0.172-0.328,0.266-0.721,0.563c-0.391,0.297-1.189,0.329-1.471,0.313c-0.281-0.016-0.203-0.375-0.219-0.626   C215.075,9.442,215.146,9.285,215.404,9.208 M217.345,17.032c-0.156,0.188-0.219,0.156-0.439,0.219   c-0.219,0.062-0.391-0.062-0.469-0.234s-0.125-0.36-0.125-0.36c0.078-0.172,0.641-0.438,0.908-0.344   C217.439,16.657,217.501,16.845,217.345,17.032 M219.503,12.416c-0.547,0.391-1.25,0.532-1.721,0.767   c-0.469,0.235-1.252,0.923-1.58,1.127c-0.328,0.203-0.877,0.25-1.174,0.328s-0.219-0.031-0.297-0.391   c-0.078-0.36-0.109-0.986-0.016-1.221s0.355-0.239,0.625-0.391c0.25-0.141,0.424-0.642,0.643-0.876s0.391-0.375,0.688-0.61   c0.299-0.235,1.377-1.424,1.566-1.581c0.188-0.156,0.234-0.172,0.562-0.172s0.736,0.516,1.08,0.813s0.531,0.767,0.5,1.299   C220.349,12.04,220.052,12.024,219.503,12.416"/>
	<path d="M275.372,5.42c-0.047-0.344-0.297-1.033-0.533-1.314c-0.115-0.14-0.156-0.094-0.562-0.109   c-0.254-0.01-0.783-0.391-1.08-0.798c-0.754-0.056-0.672-0.041-1.689-0.751c-1.094-0.764-1.127-0.908-1.535-1.096   c-0.406-0.188-0.297-0.016-0.656,0.016c-0.203,0.016-0.596-0.141-1.018-0.266c-0.422-0.125-1.002,0.156-1.393,0.391   c0,0.36-0.344,0.829-0.484,1.017c-0.143,0.188-0.33,0.517-0.471,0.782c-0.141,0.267-0.281,0.329-0.562,0.47   c-1.676,0.579-4.133,0.845-4.133,0.845c-0.516,0.015-1.047-0.501-2.189-0.579c-0.803-0.055-2.004,0.36-2.738,0.078   c0,0-0.471-0.094-0.689-0.5c-0.141-0.251-0.188-0.266-0.438-0.423c-0.25-0.156-0.219,0.219-0.219,0.61s-0.062,0.454-0.236,0.814   c-0.312-0.016-0.375,0.188-0.562,0.532s-0.156,0.47,0.328,0.829c0.486,0.36,0.955,1.393,1.346,2.051   c0.393,0.657,0.908,1.909,1.268,2.144c0.361,0.235,0.549,0.25,0.799,0.125c0.25-0.125,0.738-0.371,1.158,0.469   c0.438,0.876-0.266,2.629-0.234,3.177c0.023,0.422,0.281,3.02,0.141,4.1c-0.088,0.668-0.393,1.643-0.393,2.004   c0,0.359,0.189,1.031,0.143,2.174s-0.58,2.959-0.908,3.303c-0.33,0.344-0.939,0.688-1.236,0.971   c-0.297,0.281-0.408,0.672-0.109,1.078c0.297,0.408,0.484,1.189,0.578,1.832s-0.078,2.033,0.219,2.832   c0.299,0.799,0.783,0.643,1.174,0.627c0.393-0.016,1.361,0.641,1.598,0.734c0.234,0.094,0.344-0.062,0.422-0.219   s0.805-0.84,1.158-1.252c0.469-0.547,0.422-0.859,0.375-1.33c-0.062-0.641,0.283-1.91,0.359-2.785   c0.08-0.877-0.375-1.801-0.656-2.645c-0.281-0.846-0.078-1.174-0.109-1.801c-0.025-0.516-0.312-1.127-0.312-2.002   c0-1.049,0.562-1.457,0.641-1.754s0.125-1.658,0.188-2.472c0.062-0.813,0.424-1.799,0.518-2.19s0.656-0.36,0.906-0.423   c0.252-0.062,0.377-0.25,1.049-0.516c0.674-0.266,2.129-0.297,2.582-0.469c0.455-0.172,1.299-0.595,1.707-1.096   c0.406-0.501,0.484-0.626,0.781-0.72c0.215-0.067,0.83,0.047,1.111,0s0.533-0.86,0.643-1.111c0.109-0.25,0.562-0.72,0.938-1.831   c0.35-1.033,0.549-3.177,0.549-3.177s0.189,0.071,0.359-0.031c0.234-0.141,0.344-0.203,0.846-0.141   c0.42,0.053,0.891,0.016,1.096-0.015C275.404,5.577,275.392,5.561,275.372,5.42 M268.017,9.99   c-0.047,0.329-0.094,0.955-0.297,1.268c-0.205,0.313-0.736,0.814-0.986,0.892s-0.484,0.375-0.689,0.422   c-0.203,0.047-0.375,0.157-0.891,0.345c-0.518,0.188-0.643,0.344-1.064,0.266c-0.143-0.026-0.564-0.078-0.893-0.125   s-0.234-0.407-0.312-0.673s0-0.485,0.125-0.767s0.078-0.438,0.078-0.767c0-0.329,0.094-1.049,0.203-1.519   c0.109-0.469,0.514-0.615,0.861-0.594c0.266,0.016,1.176-0.096,1.471-0.062c0.422,0.046,1.738,0.485,2.035,0.532   S268.066,9.647,268.017,9.99 M268.173,5.201c-0.047,0.282,0.016,0.751-0.312,1.033c-0.328,0.282-0.611,0.392-1.064,0.438   s-0.783,0.109-1.174,0.282c-0.391,0.172-1.879,0.454-2.033,0.469c-0.158,0.016-0.252-0.078-0.299-0.188   c-0.047-0.109-0.156-0.266-0.266-0.391c-0.109-0.125-0.359-0.735-0.344-0.907c0.016-0.172-0.031-0.423,0.188-0.563   c0.219-0.141,0.453-0.282,0.453-0.282c0.188-0.031,0.297,0.109,0.564,0.078c0.266-0.031,1.018-0.266,1.924-0.657   c0.908-0.391,1.283-0.595,1.738-0.532c0.453,0.062,0.812,0.36,0.797,0.751C268.335,4.998,268.282,4.982,268.173,5.201"/>
	<path d="M281.601,14.748c-0.172-0.047-0.918-0.124-1.268-0.188c-1.283-0.235-2.785-0.782-3.615-0.72   c-0.83,0.063-1.895,1.049-2.129,1.158c-0.234,0.11-2.395,0.563-2.395,0.563c-1.158,0.344-1.783,0.798-3.176,1.127   s-2.723,0.282-3.006,0.235c-0.281-0.047-0.562-0.016-0.922,0.094c-0.361,0.109-0.486-0.063-0.658-0.032   c0,0-0.031,0.032-0.125,0.141s0,0.407,0.078,0.626s0.359,0.407,0.799,0.672c0.438,0.266,2.002,0.266,2.33,0.234   c0.33-0.029,0.471-0.281,0.689-0.344s1.033-0.219,1.158-0.25s0.156,0,0.188,0.094s0.188,0.799,0.266,1.064s-0.203,1.236-0.25,1.502   c-0.047,0.268,0.043,0.889,0.031,1.174c-0.016,0.408-0.389,0.957-0.516,1.299c-0.188,0.5-0.986,1.941-1.33,2.598   c-0.355,0.848-1.178,1.486-1.598,1.596c-0.332,0.088-0.438,0.018-0.547,0.047c-0.109,0.031-0.109,0.111,0,0.361   s0.047,0.406,0.156,0.578s2.488,2.395,2.566,2.473s0.047,0.078,0.266-0.094s0.643-0.156,0.971-0.281s0.439-0.768,0.83-1.236   s0.594-0.689,0.939-0.736c0.344-0.047,0.891-0.625,1.533-0.859c0.641-0.234,1.111-0.768,1.455-1.002s1.408-0.439,1.533-0.453   c0.125-0.018,0.125,0.031,0.203,0.125s0.031,0.328,0.062,0.812s-0.219,1.564-0.188,2.223s0.721,2.754,1.158,3.35   c0.439,0.594,0.658-0.016,0.736-0.221c0.078-0.203,1.031-1.361,1.031-1.361c0.127-0.219,0.189-0.578,0.143-0.875   c-0.049-0.299,0.266-0.83,0.391-1.096c0.125-0.268-0.031-0.705-0.062-0.924s0.016-0.516,0.016-0.516   c0.016-0.377,0.406-1.424,0.453-1.926c0.047-0.5-0.203-3.693-0.125-4.633c0.037-0.453,0.172-2.158,0.203-2.471   c0.031-0.314,0.141-0.518,0.172-0.643c0.033-0.125-0.078-0.25-0.062-0.422s0.281-0.56,0.533-0.893   c0.344-0.453,0.891-0.438,1.018-0.485c0.125-0.047,0.156-0.062,0.172-0.188s0.078-0.501,0.125-0.782   C281.882,14.982,281.773,14.794,281.601,14.748 M275.466,23.84c-0.156,0.188-1.311,0.936-2.082,1.283   c-0.625,0.281-1.471,0.781-1.846,0.922c-0.375,0.143-0.58,0.143-0.658,0.078c0.031-0.484,0.188-0.906,0.391-1.252   c0.133-0.223,0.268-0.469,0.314-0.609s0.203-0.203,0.375-0.203c0,0,0.438,0,0.955-0.062c0.516-0.062,1.408-0.33,1.752-0.406   c0.346-0.08,0.611-0.096,0.83-0.096C275.497,23.495,275.544,23.713,275.466,23.84 M275.7,21.711   c-0.266,0.188-1.002,0.375-1.424,0.484c-0.299,0.078-1.314,0.219-1.863,0.266c-0.547,0.047-0.531,0-0.641-0.062   c-0.047-0.297-0.016-0.875,0.016-1.094s0.344-0.627,0.375-0.924c0,0,1.127-0.125,1.33-0.141s2.16-0.109,2.16-0.109   s0.016,0.062,0.047,0.141S275.716,21.524,275.7,21.711 M275.779,16.782c-0.031,0.156-0.109,0.97-0.109,1.518   c-0.25-0.031-1.08-0.064-1.33-0.047c-0.627,0.047-0.971,0.502-1.424,0.643c0,0-0.518,0.234-0.752,0.141   c-0.062-0.393-0.125-1.174-0.297-1.456c-0.055-0.09-0.141-0.22,0-0.313s0.783-0.391,1.189-0.485s0.721-0.172,1.018-0.25   c0.297-0.078,1.158-0.407,1.518-0.204C275.841,16.484,275.81,16.625,275.779,16.782"/>
	<path d="M293.917,4.56c0.061-0.266,0.281-0.469,0-0.767c-0.283-0.297-0.893-0.86-2.098-1.314s-1.641-0.412-1.926-0.579   c-0.453-0.266-1.549-1.064-1.643-1.111c-0.094-0.047-0.062-0.11-0.312-0.016c-0.252,0.094-1.676,0.61-2.02,0.892   s-0.461,0.419-0.75,0.595c-0.439,0.266-1.535,0.642-1.676,0.735c-0.141,0.094-0.859,0.626-1.408,0.705   c-0.547,0.078-1.018,0.047-1.986,0.047c-0.971,0-1.816-0.188-2.285-0.626c-0.1-0.092-0.205-0.079-0.205-0.079l-1.627-0.031   c0,0-0.141,0.078-0.125,0.141s0.705,1.518,0.768,1.518c0.188,0.031,0.688,0.266,0.781,0.516c0.094,0.25,0.736,1.831,0.721,2.175   s-0.016,0.454-0.188,0.688c-0.172,0.235-0.58,0.626-0.453,1.096c0,0,0.312,1.174,0.562,1.533c0.359,0.11,0.783,0.172,0.939,0.595   c0.156,0.422,0.375,1.158,0.469,1.314c0.094,0.156,0.344,0.375,0.627,0.391c0.281,0.016,0.984-0.094,1.205-0.094   c0.217,0,4.178-0.031,4.35,0.094c0.141,0.109,0.125,0.078,0.125,0.204c0,0.125,0.203,1.596,0.234,2.16   c0.031,0.563-0.141,3.928-0.078,5.289c0.062,1.91,0.656,4.945,0.83,6.322c0,0,0.125,1.33-0.188,2.004   c-0.471-0.094-0.643-0.174-0.893-0.141c-0.25,0.031-0.783,0.141-1.096,0.107c-0.312-0.029-1.127-0.203-1.424-0.281   c-0.182-0.047-0.234,0.047-0.344,0s-0.205-0.078-0.314-0.109s-0.281-0.125-0.172,0.156c0.109,0.283,0.752,1.143,0.893,1.535   c0.141,0.391,0.172,0.812,0.531,1.062c0.361,0.252,1.578,1.068,1.926,1.377c0.594,0.533,0.971,1.207,1.533,1.441   c0,0,1.158,0.438,1.268,0.5s0.438,0.094,0.736,0.094c0,0,2.018,0.109,2.379,0.141c0.359,0.033,1.283,0.047,1.518,0.033   c0.234-0.064,0.344-0.08,0.328-0.252s-0.156-0.5-0.094-0.689c0.062-0.188,0.289-0.49,0.25-0.734c-0.078-0.5-0.766-1.174-0.766-1.58   c0-0.408,0.047-0.627,0.014-1.08c-0.029-0.455-0.438-2.238-0.469-3.287c-0.092-2.131-0.467-6.244-0.5-6.65   c-0.121-1.502,0.234-2.551,0.203-3.302c-0.031-0.751-0.674-2.207-0.736-2.957c-0.062-0.751-0.031-2.285-0.016-2.77   c0.016-0.485,0.078-0.908,0.299-1.518c0.219-0.61,0.453-1.361,0.5-1.659c0.047-0.298-0.031-0.689,0.172-0.908   c0.203-0.219,1.096-0.516,1.299-0.782s0.266-0.407,0.359-0.876C294.062,5.258,293.853,4.826,293.917,4.56 M285.7,10.319   c-0.043,0.396-0.062,0.86-0.25,1.001c-0.133,0.1-0.25,0.172-0.518,0.204c-0.266,0.031-3.303-0.083-3.488-0.141   c-0.252-0.078-0.346-0.344-0.346-0.344s0.234-1.033,0.502-1.252c0.266-0.219,0.422-0.329,0.75-0.36   c0.33-0.031,1.143-0.11,1.455-0.141c0.314-0.031,0.471-0.188,0.674-0.219c0.203-0.032,0.219-0.016,0.312-0.047   c0.094-0.031,0.502-0.25,0.705-0.188s0.209,0.11,0.234,0.313C285.763,9.396,285.763,9.74,285.7,10.319 M285.81,7.283   c-0.139,0.246-0.172,0.219-0.281,0.266c-0.109,0.047-1.205,0.172-1.848,0.156c-0.453-0.011-0.707-0.23-1.018-0.172   c-0.25,0.047-0.688,0.031-0.812,0.031s-0.25,0.047-0.266-0.172c-0.016-0.219-0.109-1.268-0.109-1.268   c-0.031-0.219,0.047-0.282,0.25-0.329c0,0,0.971-0.125,1.408-0.313s0.877-0.407,1.143-0.688s1.018-1.001,1.424-1.001   c0.297,0.094,0.391,0.422,0.391,0.829C286.091,5.029,286.169,6.641,285.81,7.283"/>
	<path d="M42.261,9.677c-0.266-0.422-3.411-3.411-3.615-3.646s-0.892-0.657-1.315-0.736c-0.422-0.078-1.001-0.094-1.377-0.328   c-0.306-0.192-2.488-1.456-2.864-1.565c-0.375-0.11-0.767-0.266-1.283,0.031c-0.517,0.297-0.893,0.563-1.174,0.642   c-0.282,0.078-0.892,0.297-1.111,0.391s-1.377,0.829-1.784,0.892c-0.407,0.062-5.852,0.27-6.354,0.281   c-1.987,0.047-7.277,0.83-8.623,0.893C11.417,6.594,6.926,6.5,6.394,6.344C3.968,5.655,1.638,3.938,1.151,3.542   C0.901,3.339-0.1,3.761,0.009,4.168C0.14,4.656,0.255,5.345,0.666,6.031c0.329,0.548,0.423,3.803,0.344,4.601   c-0.064,0.654-0.281,1.315,0.751,2.129c1.033,0.813,3.6,1.752,4.006,2.003c0.407,0.25,1.239,2.394,1.189,4.054   c-0.078,2.629-1.33,7.777-1.424,8.309c-0.094,0.533-0.235,0.752-0.016,1.221c0.219,0.471,1.502,2.41,2.911,3.035   c0.469,0.189,0.625,0.221,1.032,0.033c0.407-0.188,1.127-0.596,1.596-0.533c0.47,0.062,1.44,0,1.659,0.031   c0.22,0.031,0.636-0.072,0.876-0.562c0.36-0.736,1.127-1.938,2.582-2.613c1.519-0.705,4.116-1.549,7.497-1.143   s4.068,0.453,4.569,0.766c0.501,0.314,0.626,0.486,0.782,0.893c0.157,0.406,0.204,0.893,0.736,1.08   c0.532,0.188,0.767,0.422,1.33,0.547c0.563,0.127,1.94,0.062,2.222,0.221c0.282,0.156,0.845,0.234,1.189,0.047   s0.375-0.549,0.86-0.799c0.378-0.195,1.331-0.344,1.549-0.877c0.219-0.531-0.454-1.924-0.094-2.691   c1.111-2.363,1.847-5.695,2.457-7.872c0.74-2.637,1.719-5.312,1.831-5.68c0.422-1.393,0.812-1.715,1.048-1.878   C42.403,10.178,42.427,9.94,42.261,9.677 M31.401,14.137c-0.141,2.426-1.064,4.883-1.549,5.352s-1.737,1.268-2.363,1.785   c-0.625,0.516-0.5,1.203-1.064,1.658c-0.465,0.375-1.706,0.422-2.738,0.359c-1-0.061-4.851,1.064-5.274,1.174   c-0.422,0.109-2.597,0.859-2.848,0.861c-0.756,0.006-2.398,0.334-2.911-0.455c-0.254-0.389-1.034-1.453-1.127-2.033   c-0.068-0.428-0.11-2.051-0.11-2.27s0.135-0.66,0.512-0.764c0.348-0.096,0.881-0.301,0.881-0.301   c1.283-0.328,7.167,0.391,7.668,0.424c0.5,0.029,0.704-0.205,0.923-0.221c0.219-0.016,0.629,0.094,1.049,0   c0.615-0.135,1.862-0.609,2.566-1.143c0.704-0.531,0.329-0.938,0.031-1.172c-0.297-0.235-0.735-0.814-1.08-1.127   s-0.328-0.297-1.017-0.454c-0.688-0.157-1.268,0.062-1.518,0.078c-0.25,0.016-0.798-0.047-0.798-0.047   c-0.438,0-2.238,0.657-3.208,0.704c-0.376,0.019-0.782,0-1.126,0c-0.345,0-1.299,0.5-1.91,0.657   c-0.61,0.156-1.283,0.203-1.925,0.062s-1.174-1.08-1.252-1.784s0.297-2.77,0.61-3.208s0.861-0.485,2.269-0.61   c1.409-0.125,4.085,0.532,4.085,0.532c1.126,0.282,1.831,0.282,2.988-0.281c1.158-0.563,3.803-2.786,4.1-3.6   c0.298-0.813,0.657-1.189,1.221-1.377c0,0,0.407-0.063,0.736,0c0.329,0.062,1.627,0.626,2.426,0.642   c0.454,0.219,1.345,0.829,1.627,2.003C31.419,10.177,31.542,11.711,31.401,14.137"/>
	<path d="M60.994,19.333c0,0-5.791,5.508-6.901,6.213c-1.111,0.703-5.493,3.99-7.809,4.521c-1.08,0.299-1.847-0.107-2.3,0   c0,0-0.532,0.08-0.642,0.377c-0.11,0.297,0,0.5-0.078,0.783c-0.079,0.281-0.642,0.875-0.61,1.109   c0.031,0.234,0.219,0.939,0.312,1.127c0.094,0.188,0.282,0.234,0.517,0.221c0.235-0.018,1.737-0.236,1.956-0.268   c0.219-0.031,0.454-0.109,0.642-0.375s0.758-0.969,1.252-1.158c3.171-1.217,8.414-4.465,9.75-5.586   c1.162-0.979,8.56-8.53,9.123-8.984c0.563-0.454,1.44-1.251,1.878-1.424c0.438-0.172,1.205-0.501,1.471-0.313   c0.266,0.188,0.329,0.375,0.329,0.735c0,0.36,0,1.165-0.031,1.456c-0.062,0.579-0.062,0.987-0.392,1.315   c-0.149,0.148-0.375,0.188-0.469,0.562c-0.066,0.266-0.673,0.83-1.127,1.033c-0.454,0.203-1.596-0.031-2.238,0.422   c0,0-0.642,0.455-0.61,0.814s0.391,0.658,0.626,1.049c0.189,0.314,0.783,1.08,0.908,1.205c0.125,0.125,0.313,0.297,0.751,0.203   c0.438-0.094,1.08-0.281,1.299-0.172c0.219,0.109,0.25,0.156,0.266,0.406c0.016,0.252,0.047,2.301-0.172,2.973   c-0.219,0.674-0.185,0.811-0.11,1.252c0.22,1.295,0.693,3.223,1.268,4.352c0.163,0.32,0.125,0.391,0.438,0.502   c0.313,0.107,1.471,0.266,1.627,0.295c0.156,0.033,0.282-0.047,0.532-0.234c0.25-0.188,0.581-0.484,0.892-0.453   c0.454,0.047,1.659-0.312,1.988-0.344s0.767-0.203,0.876-0.377c0.154-0.242,0.141-0.484,0.078-0.594s-0.422-0.768-0.485-1.002   c-0.062-0.234-0.281-2.879-0.281-3.662c0-0.781,0.047-2.221,0.375-2.502c0.386-0.332,0.64-0.697,1.064-0.502   c0.407,0.188,0.83,0.203,1.08,0.203c0.096,0,0.25-0.016,0.392-0.219c0.141-0.203,0.876-1.33,1.22-1.518   c0.344-0.188,0.548-0.188,0.579-0.455c0.031-0.266,0.063-0.281-0.062-0.484c0,0-0.955-0.955-1.487-1.127   c-0.532-0.172-1.173-0.156-1.831-0.406s-1.283-0.643-1.315-1.018c-0.025-0.301,0.079-2.363,0.125-2.708s0.626-0.938,1.049-1.064   c0.306-0.091,0.579-0.219,0.97-0.141c0.391,0.078,1.387,0.369,1.628,0.72c0.196,0.287,5.329,3.812,7.131,5.147   c1.293,0.961,6.348,4.561,7.386,5.217c0.256,0.162,0.568,0.184,0.819,0.043c0,0,0.438-0.328,0.892-0.064   c0.454,0.268,0.798,0.393,1.565,0.393c0.767,0,1.291,0.02,1.518-0.375c0.36-0.627,0.198-1.609-0.188-1.926   c-1.56-1.283-5.196-3.176-5.696-3.441c-0.501-0.268-2.613-1.113-3.099-1.379c-0.485-0.266-2.41-1.393-2.739-1.564   c-0.329-0.172-1.94-0.844-2.801-1.471c-0.527-0.383-3.693-1.831-4.038-2.019s-1.393-1.126-1.752-1.252   c-0.36-0.125-0.626-0.031-0.971-0.407c-0.18-0.196-0.508-0.271-0.672-0.391c-0.172-0.125-0.267-0.25-0.235-0.595   c0.031-0.344,0.156-0.688,0.156-1.127c0-0.438-0.016-0.595,0.219-0.61c0.235-0.015,0.767-0.141,1.143-0.188   c0.376-0.047,0.876,0.047,1.205,0.047c0.485,0,0.896-0.308,1.252-0.25c0.485,0.078,0.469,0.423,0.72,0.579   c0.25,0.156,1.498,0.85,2.895,0.735c1.534-0.125,2.191-0.485,3.021-1.205c0.266-0.032,0.188-0.814-0.203-1.127   c-0.225-0.18-1.996-1.283-3.193-1.456c-2.066-0.297-3.834-0.782-4.209-0.814c-0.517-0.042-1.143,0.094-1.643-0.093   c-0.1-0.038-0.48-0.255-0.767-0.376c-0.238-0.1-0.378-0.096-0.547-0.203c-0.295-0.188-0.099-0.173-0.376-0.36   c-0.335-0.226-0.542-0.307-0.625-0.407c-0.25-0.297-0.454-0.595-0.798-1.33c-0.353-0.753-0.219-1.346-0.407-1.706   c-0.188-0.36-0.438-0.579-0.829-0.688c-0.392-0.11-1.224-0.271-1.455-0.329c-0.376-0.094-1.174-0.516-1.769-0.5   c-0.538,0.014-1.672,0.744-2.144,1.033c-0.563,0.344-1.048,0.532-1.048,0.908c0,0.319,0.016,1.126,0.188,1.549   c0.172,0.422,0.282,1.221,0.219,1.518s-0.438,0.955-0.391,1.439c0,0,0.203,0.939-0.031,1.143c0,0-0.767,0.688-1.925,0.892   c-1.158,0.203-2.207,0.422-3.036,0.329c-0.83-0.094-1.643-0.344-2.582-0.266s-2.504,0.485-3.099,0.407   c-0.595-0.078-1.346-0.266-1.627-0.344c-0.282-0.079-0.548,0.157-0.563,0.204s-0.079,0.432-0.047,0.657   c0.047,0.328,0.407,1.064,0.876,1.502c0,0,1.299,1.314,2.379,1.549c0,0,1.393,0.344,2.77,0.141s2.85-0.638,3.098-0.72   c0.415-0.136,2.03-0.135,2.217,0.021c0.188,0.157,0.235,0.287,0.25,0.397c0.016,0.109,0.13,0.177,0.303,0.24   c0.172,0.062,0.469,0.141,0.438,0.391c-0.031,0.251-0.115,0.496-0.407,0.809L60.994,19.333z"/>
</g>
</svg>