<svg width="82" height="21" xmlns="http://www.w3.org/2000/svg"><path d="M35.925 2.592A7.434 7.434 0 0 0 30.668.414H19.825V20.24h7.434V7.849h2.383c.657 0 1.29.26 1.754.725l2.568 2.566a2.48 2.48 0 0 1 .729 1.753v7.346h7.434v-8.373a7.438 7.438 0 0 0-2.18-5.256l-4.022-4.018zM74.342.414v7.347c0 .657-.264 1.287-.73 1.752l-2.569 2.566a2.478 2.478 0 0 1-1.752.726H65.72a7.424 7.424 0 0 0 1.188-4.018V.414h-7.434v7.347c0 .657-.265 1.287-.73 1.752l-2.57 2.566a2.478 2.478 0 0 1-1.751.726h-2.384V.415h-7.434v19.824H55.45a7.438 7.438 0 0 0 5.259-2.178l2.483-2.482v4.66h7.127a7.438 7.438 0 0 0 5.258-2.178l4.02-4.017a7.437 7.437 0 0 0 2.18-5.257V.414h-7.434zM0 7.849h4.956v12.39h7.434V7.849h4.956V.414H0z" fill="#F42"/></svg>