<?xml version="1.0" encoding="utf-8"?>
<!-- Generator: Adobe Illustrator 22.1.0, SVG Export Plug-In . SVG Version: 6.00 Build 0)  -->
<svg version="1.1" id="Layer_1" xmlns="http://www.w3.org/2000/svg" xmlns:xlink="http://www.w3.org/1999/xlink" x="0px" y="0px"
	 viewBox="0 0 85 85" style="enable-background:new 0 0 85 85;" xml:space="preserve">
<style type="text/css">
	.st0{fill:#222221;}
</style>
<g>
	<path class="st0" d="M6.9,54.3v-5.5h4c0.9,0,1.4,0,1.7,0c0.5,0.1,0.8,0.2,1.1,0.4c0.2,0.2,0.4,0.6,0.5,1c0,0.2,0.1,0.6,0.1,1.2
		c0,0.7,0,1.2-0.1,1.5c-0.1,0.4-0.2,0.7-0.4,0.9c-0.1,0.1-0.3,0.2-0.5,0.3c-0.2,0.1-0.5,0.1-0.8,0.1c-0.3,0-0.7,0-1.5,0H6.9z
		 M8.5,52.9h2.3c0.5,0,0.8,0,1.1-0.1c0.3,0,0.4-0.2,0.5-0.4c0.1-0.2,0.1-0.5,0.1-0.8c0-0.4,0-0.7-0.1-0.9c-0.1-0.2-0.2-0.4-0.4-0.4
		c-0.2,0-0.6-0.1-1.1-0.1H8.5V52.9z"/>
	<path class="st0" d="M14.8,54.3v-5.5h4c1,0,1.5,0,1.7,0c0.2,0,0.4,0.1,0.5,0.2c0.2,0.1,0.3,0.2,0.4,0.4c0.1,0.2,0.1,0.3,0.2,0.5
		c0,0.2,0,0.4,0,0.7c0,0.4,0,0.8-0.1,0.9c-0.1,0.3-0.3,0.4-0.5,0.5c-0.1,0-0.2,0.1-0.4,0.1c0.4,0,0.6,0.1,0.8,0.3
		c0.1,0.1,0.1,0.2,0.1,0.3c0,0.1,0,0.2,0.1,0.4c0,0.1,0,0.3,0,0.6v0.5h-1.7V54c0-0.3,0-0.6,0-0.7c0-0.2-0.2-0.3-0.3-0.4
		c-0.1,0-0.4,0-0.7,0h-2.3v1.4H14.8z M16.5,51.5h2.3c0.4,0,0.6,0,0.6,0c0.2,0,0.4-0.1,0.4-0.2c0-0.1,0.1-0.2,0.1-0.5
		c0-0.2,0-0.3-0.1-0.4c-0.1-0.1-0.2-0.2-0.4-0.2c-0.1,0-0.3,0-0.7,0h-2.3V51.5z"/>
	<path class="st0" d="M22.2,48.8h6.1v1.3h-4.4v0.8H28v1.2h-4.2V53h4.5v1.3h-6.1V48.8z"/>
	<path class="st0" d="M34.8,54.3l-0.5-0.9h-3.6l-0.5,0.9h-1.9l2.9-5.5h2.6l2.9,5.5H34.8z M33.7,52.2l-1.1-2.1h-0.3l-1.1,2.1H33.7z"
		/>
	<path class="st0" d="M36.9,48.8h3l1.6,3.6l1.6-3.6h3v5.5h-1.6l0-4.1h-0.3l-2.1,4.1h-1.4l-2.1-4.1h-0.3l0,4.1h-1.6V48.8z"/>
	<path class="st0" d="M47,48.8h1.8v2h3.8v-2h1.8v5.5h-1.8v-2h-3.8v2H47V48.8z"/>
	<path class="st0" d="M61,54.3l-0.5-0.9h-3.6l-0.5,0.9h-1.9l2.9-5.5H60l2.9,5.5H61z M59.9,52.2l-1.1-2.1h-0.3l-1.1,2.1H59.9z"/>
	<path class="st0" d="M68.3,52.2h1.7c0,0.3,0,0.4,0,0.5c0,0.4-0.1,0.7-0.2,1c-0.1,0.3-0.4,0.4-0.8,0.5c-0.4,0.1-1.1,0.2-2.1,0.2
		c-1.1,0-1.8,0-2.2-0.1c-0.4,0-0.6-0.1-0.8-0.1c-0.2-0.1-0.4-0.2-0.5-0.3c-0.2-0.2-0.3-0.4-0.3-0.7c-0.1-0.3-0.1-0.8-0.1-1.7
		c0-0.8,0-1.3,0.1-1.6c0.1-0.4,0.2-0.7,0.5-0.9c0.2-0.1,0.5-0.2,0.9-0.3c0.4-0.1,1.3-0.1,2.4-0.1c0.7,0,1.2,0,1.5,0
		c0.4,0,0.8,0.1,1,0.3c0.3,0.2,0.4,0.4,0.5,0.7c0,0.2,0.1,0.5,0.1,0.7c0,0,0,0.2,0,0.3h-1.7c0-0.1,0-0.2,0-0.3
		c0-0.2-0.1-0.3-0.2-0.3c-0.2-0.1-0.7-0.1-1.6-0.1c-0.6,0-1,0-1.2,0c-0.3,0-0.4,0.2-0.5,0.4c-0.1,0.2-0.1,0.5-0.1,1
		c0,0.5,0,0.8,0.1,1c0.1,0.2,0.2,0.4,0.5,0.4c0.2,0,0.6,0,1.2,0c0.6,0,1.1,0,1.3,0c0.2,0,0.4-0.1,0.4-0.2
		C68.2,52.6,68.3,52.4,68.3,52.2z"/>
	<path class="st0" d="M70.5,48.8h1.7v2h0.9l2.2-2h2.6l-3.2,2.7l3.4,2.8h-2.5l-2.5-2.1h-0.9v2.1h-1.7V48.8z"/>
</g>
<g>
	<path class="st0" d="M25.6,32.6c-0.2,0.2-0.2,0.2-0.2,0.1l-0.2-0.6c0-0.1-0.1-0.1,0.1-0.4l0.7-0.9c0.2-0.2,0.2-0.3,0.2-0.1l0.1,0.6
		c0,0.1,0,0.2-0.2,0.4L25.6,32.6z"/>
	<path class="st0" d="M26.2,33.9c-0.1,0.2-0.1,0.2-0.2,0.1l-0.3-0.5c-0.1-0.1-0.1-0.1,0.1-0.4l0.6-0.9c0.1-0.2,0.2-0.3,0.2-0.1
		l0.2,0.6c0,0.1,0,0.2-0.1,0.4L26.2,33.9z"/>
	<path class="st0" d="M36.2,41.8C36.4,41.9,36.4,41.9,36.2,41.8l-0.8-0.3c-0.2-0.1-0.2-0.1-0.4-0.2l-0.7-0.6c-0.2-0.1-0.2-0.2,0-0.1
		l0.7,0.4c0.2,0.1,0.2,0.1,0.4,0.3L36.2,41.8z"/>
	<path class="st0" d="M34.1,40.8C34.3,40.9,34.2,40.9,34.1,40.8l-0.8-0.3c-0.2-0.1-0.2-0.1-0.3-0.3l-0.5-0.6c-0.1-0.2-0.1-0.2,0-0.1
		l0.6,0.4c0.1,0.1,0.2,0.1,0.4,0.3L34.1,40.8z"/>
	<path class="st0" d="M32.2,39.6C32.3,39.8,32.3,39.8,32.2,39.6l-0.7-0.4c-0.1-0.1-0.2-0.1-0.3-0.3l-0.3-0.7c-0.1-0.2-0.1-0.2,0-0.1
		l0.6,0.4c0.1,0.1,0.2,0.2,0.3,0.3L32.2,39.6z"/>
	<path class="st0" d="M30.6,38.6C30.7,38.8,30.7,38.8,30.6,38.6l-0.7-0.4c-0.1-0.1-0.2-0.1-0.2-0.3l-0.2-0.7c0-0.2,0-0.2,0.1-0.1
		l0.5,0.5c0.1,0.1,0.1,0.2,0.2,0.3L30.6,38.6z"/>
	<path class="st0" d="M29.3,37.5c0,0.2,0,0.2-0.1,0.1l-0.5-0.5c-0.1-0.1-0.1-0.1-0.1-0.3l0-0.8c0-0.2,0-0.2,0.1-0.1l0.4,0.5
		c0.1,0.1,0.1,0.2,0.1,0.4L29.3,37.5z"/>
	<path class="st0" d="M28.1,36.4c0,0.2,0,0.2-0.1,0.1L27.5,36c-0.1-0.1-0.1-0.1-0.1-0.3l0.2-0.8c0-0.2,0.1-0.2,0.1-0.1l0.3,0.5
		c0.1,0.1,0.1,0.2,0.1,0.4L28.1,36.4z"/>
	<path class="st0" d="M27.1,35.2c-0.1,0.2-0.1,0.2-0.2,0.1l-0.4-0.5c-0.1-0.1-0.1-0.1,0-0.3l0.4-0.8c0.1-0.2,0.1-0.2,0.2-0.1
		l0.3,0.5c0.1,0.1,0,0.2,0,0.4L27.1,35.2z"/>
	<path class="st0" d="M19.6,39.5c-0.3,0.3-0.3,0.2-0.5,0.2l-1-0.4c-0.2-0.1-0.3-0.1,0.1-0.4l1.2-1.1c0.3-0.3,0.4-0.3,0.6-0.2
		l0.8,0.4c0.2,0.1,0.1,0.2-0.1,0.4L19.6,39.5z"/>
	<path class="st0" d="M22,40.3c-0.2,0.2-0.2,0.2-0.4,0.2l-1.1-0.3c-0.2-0.1-0.3-0.1,0-0.3l0.9-1c0.2-0.2,0.3-0.3,0.5-0.2l0.9,0.4
		c0.2,0.1,0.2,0.2,0,0.4L22,40.3z"/>
	<path class="st0" d="M43,45C43.3,45.1,43.2,45.1,43,45l-1.5-0.2c-0.3,0-0.4-0.1-0.6-0.2l-1-0.5c-0.3-0.1-0.2-0.1,0-0.1l1.3,0.3
		c0.3,0.1,0.4,0.1,0.7,0.2L43,45z"/>
	<path class="st0" d="M39.6,44.4c0.2,0.1,0.2,0.1-0.1,0.1l-1.4-0.2c-0.3,0-0.4-0.1-0.6-0.2l-0.8-0.5c-0.2-0.1-0.2-0.2,0.1-0.1
		l1.2,0.3c0.3,0.1,0.4,0.1,0.6,0.2L39.6,44.4z"/>
	<path class="st0" d="M36.3,43.9c0.2,0.1,0.1,0.1-0.2,0.1l-1.3-0.2c-0.3-0.1-0.3-0.1-0.5-0.2l-0.5-0.6c-0.1-0.2-0.1-0.2,0.1-0.1
		l1.2,0.3c0.2,0.1,0.3,0.1,0.5,0.3L36.3,43.9z"/>
	<path class="st0" d="M33.2,43.2c0.1,0.2,0.1,0.1-0.2,0.1l-1.3-0.3c-0.3-0.1-0.3-0.1-0.4-0.2L31,42.2c-0.1-0.2,0-0.2,0.2-0.1
		l1.1,0.3c0.2,0.1,0.3,0.1,0.4,0.3L33.2,43.2z"/>
	<path class="st0" d="M30.2,42.6c0,0.2,0,0.2-0.3,0.1l-1.2-0.3c-0.3-0.1-0.3-0.1-0.3-0.3l0-0.7c0-0.2,0.1-0.2,0.3-0.2l1.1,0.3
		c0.2,0.1,0.3,0.1,0.3,0.3L30.2,42.6z"/>
	<path class="st0" d="M27.3,41.9c0,0.2-0.1,0.2-0.3,0.1l-1.2-0.3c-0.2-0.1-0.3-0.1-0.2-0.3l0.3-0.8c0.1-0.2,0.1-0.2,0.4-0.2l1,0.4
		c0.2,0.1,0.2,0.1,0.2,0.3L27.3,41.9z"/>
	<path class="st0" d="M24.6,41.1c-0.1,0.2-0.1,0.2-0.4,0.1l-1.1-0.3c-0.2-0.1-0.3-0.1-0.1-0.3l0.6-0.9c0.1-0.2,0.2-0.3,0.4-0.2
		l0.9,0.4c0.2,0.1,0.2,0.2,0.1,0.4L24.6,41.1z"/>
	<path class="st0" d="M15.5,43.2c-0.3,0.3-0.4,0.3-0.7,0.2l-1.6-0.2c-0.3,0-0.4,0,0-0.3l1.5-1.2c0.4-0.3,0.5-0.4,0.8-0.3l1.3,0.3
		c0.3,0.1,0.2,0.1-0.1,0.4L15.5,43.2z"/>
	<path class="st0" d="M19.2,43.7C19,44,18.9,44,18.6,43.9L17,43.7c-0.3,0-0.4,0-0.1-0.3l1.1-1c0.3-0.3,0.4-0.3,0.7-0.3l1.3,0.3
		c0.3,0.1,0.3,0.1,0.1,0.4L19.2,43.7z"/>
	<path class="st0" d="M47.5,46.4c0.3,0.1,0.3,0.1-0.1,0.1l-1.8-0.1c-0.4,0-0.5,0-0.8-0.1l-1.2-0.4c-0.3-0.1-0.3-0.1,0.1-0.1l1.7,0.2
		c0.3,0,0.5,0.1,0.8,0.2L47.5,46.4z"/>
	<path class="st0" d="M43.2,46.1c0.3,0.1,0.2,0.1-0.2,0.1l-1.8-0.1c-0.4,0-0.5,0-0.7-0.2l-0.9-0.5c-0.2-0.1-0.2-0.2,0.1-0.1l1.6,0.2
		c0.3,0,0.5,0.1,0.7,0.2L43.2,46.1z"/>
	<path class="st0" d="M39,45.8c0.2,0.1,0.1,0.1-0.2,0.1L37,45.7c-0.4,0-0.5,0-0.6-0.2L35.8,45c-0.2-0.1-0.1-0.2,0.2-0.1l1.6,0.2
		c0.3,0,0.4,0.1,0.6,0.2L39,45.8z"/>
	<path class="st0" d="M34.9,45.4c0.1,0.2,0.1,0.1-0.3,0.1l-1.7-0.2c-0.4,0-0.4,0-0.5-0.2L32,44.5c-0.1-0.2,0-0.2,0.3-0.2l1.5,0.2
		c0.3,0,0.4,0.1,0.5,0.2L34.9,45.4z"/>
	<path class="st0" d="M30.8,45c0.1,0.2,0,0.2-0.4,0.1L28.8,45c-0.4,0-0.4,0-0.4-0.2l0-0.7c0-0.2,0.1-0.2,0.4-0.2l1.5,0.2
		c0.3,0,0.4,0.1,0.4,0.3L30.8,45z"/>
	<path class="st0" d="M26.9,44.6c0,0.2-0.1,0.2-0.4,0.2l-1.7-0.2c-0.3,0-0.4,0-0.3-0.3l0.4-0.8c0.1-0.2,0.2-0.3,0.5-0.2l1.4,0.2
		c0.3,0,0.3,0.1,0.3,0.3L26.9,44.6z"/>
	<path class="st0" d="M23,44.2c-0.1,0.2-0.2,0.2-0.5,0.2l-1.6-0.2c-0.3,0-0.4,0-0.2-0.3l0.7-0.9c0.2-0.2,0.3-0.3,0.6-0.2l1.4,0.2
		c0.3,0.1,0.3,0.1,0.2,0.3L23,44.2z"/>
	<path class="st0" d="M10.7,47.2c-0.4,0.3-0.4,0.3-0.9,0.3l-2.2,0c-0.5,0-0.6,0-0.2-0.3l1.7-1.2c0.4-0.3,0.7-0.4,1.1-0.4l1.9,0.1
		c0.4,0,0.4,0.1,0,0.4L10.7,47.2z"/>
	<path class="st0" d="M15.9,47.3c-0.3,0.3-0.3,0.3-0.8,0.2l-2.2,0c-0.5,0-0.6,0-0.3-0.3l1.3-1.1c0.3-0.3,0.5-0.3,0.9-0.3l1.9,0.1
		c0.4,0,0.4,0.1,0.2,0.4L15.9,47.3z"/>
	<path class="st0" d="M52.6,47.7c0.4,0.1,0.3,0.1-0.2,0.1l-2.2,0c-0.5,0-0.6,0-0.9-0.1l-1.3-0.4c-0.3-0.1-0.3-0.1,0.1-0.1l2,0.1
		c0.4,0,0.6,0,1,0.1L52.6,47.7z"/>
	<path class="st0" d="M47.3,47.6c0.3,0.1,0.2,0.1-0.2,0.1l-2.2,0c-0.5,0-0.6,0-0.8-0.1l-1-0.5C42.7,47,42.8,47,43.2,47l2,0.1
		c0.4,0,0.6,0,0.9,0.2L47.3,47.6z"/>
	<path class="st0" d="M42.1,47.6c0.2,0.1,0.2,0.1-0.3,0.1l-2.2,0c-0.5,0-0.6,0-0.8-0.1L38.1,47c-0.2-0.1-0.1-0.2,0.3-0.2l2,0.1
		c0.4,0,0.6,0.1,0.8,0.2L42.1,47.6z"/>
	<path class="st0" d="M36.8,47.5c0.2,0.1,0.1,0.1-0.4,0.1l-2.2,0c-0.5,0-0.6,0-0.7-0.2l-0.4-0.6c-0.1-0.2,0-0.2,0.4-0.2l2,0.1
		c0.4,0,0.5,0.1,0.7,0.2L36.8,47.5z"/>
	<path class="st0" d="M31.6,47.5c0.1,0.2,0,0.2-0.5,0.2l-2.2,0c-0.5,0-0.6,0-0.6-0.2l0-0.7c0-0.2,0.1-0.2,0.5-0.2l2,0.1
		c0.4,0,0.5,0.1,0.6,0.2L31.6,47.5z"/>
	<path class="st0" d="M26.3,47.4c0,0.2-0.1,0.2-0.6,0.2l-2.2,0c-0.5,0-0.6,0-0.5-0.2l0.4-0.9c0.1-0.2,0.2-0.3,0.6-0.3l2,0.1
		c0.4,0,0.5,0.1,0.4,0.3L26.3,47.4z"/>
	<path class="st0" d="M21.1,47.3c-0.1,0.2-0.2,0.2-0.7,0.2l-2.2,0c-0.5,0-0.6,0-0.4-0.2l0.8-1c0.2-0.2,0.4-0.3,0.8-0.3l2,0.1
		c0.4,0,0.4,0.1,0.3,0.3L21.1,47.3z"/>
	<path class="st0" d="M22.9,35.9c-0.2,0.2-0.2,0.2-0.4,0.1L22,35.6c-0.1-0.1-0.2-0.1,0.1-0.4l1-1c0.2-0.3,0.3-0.3,0.4-0.2l0.4,0.5
		c0.1,0.1,0,0.2-0.2,0.4L22.9,35.9z"/>
	<path class="st0" d="M24.4,37c-0.2,0.2-0.2,0.2-0.3,0.1l-0.6-0.5c-0.1-0.1-0.2-0.1,0-0.4l0.7-0.9c0.2-0.2,0.3-0.3,0.3-0.2l0.5,0.5
		c0.1,0.1,0.1,0.2-0.1,0.4L24.4,37z"/>
	<path class="st0" d="M39.1,43.3C39.4,43.5,39.3,43.5,39.1,43.3l-1.2-0.2c-0.2-0.1-0.3-0.1-0.5-0.2l-0.9-0.5c-0.2-0.1-0.2-0.2,0-0.1
		l1,0.3c0.2,0.1,0.3,0.1,0.6,0.2L39.1,43.3z"/>
	<path class="st0" d="M36.5,42.6C36.7,42.7,36.6,42.7,36.5,42.6l-1.1-0.3c-0.2-0.1-0.3-0.1-0.4-0.2l-0.6-0.6c-0.2-0.1-0.2-0.2,0-0.1
		l0.9,0.4c0.2,0.1,0.3,0.1,0.5,0.3L36.5,42.6z"/>
	<path class="st0" d="M34,41.8C34.2,42,34.1,42,34,41.8l-1.1-0.3c-0.2-0.1-0.3-0.1-0.4-0.2l-0.4-0.6c-0.1-0.2-0.1-0.2,0.1-0.1
		l0.8,0.4c0.2,0.1,0.2,0.1,0.4,0.3L34,41.8z"/>
	<path class="st0" d="M31.8,41c0.1,0.2,0.1,0.1-0.1,0.1l-0.9-0.4c-0.2-0.1-0.2-0.1-0.3-0.3l-0.2-0.7c-0.1-0.2,0-0.2,0.1-0.1l0.8,0.4
		c0.2,0.1,0.2,0.1,0.3,0.3L31.8,41z"/>
	<path class="st0" d="M29.7,40.1c0,0.2,0,0.2-0.2,0.1l-0.8-0.4c-0.2-0.1-0.2-0.1-0.2-0.3l0-0.8c0-0.2,0-0.2,0.2-0.1l0.7,0.4
		c0.1,0.1,0.2,0.2,0.2,0.3L29.7,40.1z"/>
	<path class="st0" d="M27.7,39.1c0,0.2-0.1,0.2-0.2,0.1l-0.8-0.4c-0.2-0.1-0.2-0.1-0.1-0.3l0.3-0.8c0.1-0.2,0.1-0.2,0.2-0.1l0.6,0.5
		c0.1,0.1,0.1,0.2,0.1,0.4L27.7,39.1z"/>
	<path class="st0" d="M26,38.1c-0.1,0.2-0.1,0.2-0.3,0.1L25,37.8c-0.1-0.1-0.2-0.1-0.1-0.3l0.5-0.9c0.1-0.2,0.2-0.3,0.3-0.2l0.5,0.5
		c0.1,0.1,0.1,0.2,0,0.4L26,38.1z"/>
</g>
</svg>
