<svg id="AW" xmlns="http://www.w3.org/2000/svg" viewBox="0 0 283.46 86.32"><defs><style type="text/css">.cls-1{fill:#1d1d1b;}.cls-2{fill:#fff;}</style></defs><title>ESL_Logo_Horizontal_2019</title><path class="cls-1" d="M113.91,71.68a16.45,16.45,0,0,0,16.45,16.45h40.12V71.68H132.71V59.9H168V45.29H132.71V33.9h37.77V17.44H130.35a16.45,16.45,0,0,0-16.44,16.45Z" transform="translate(-8.91 -9.79)"/><path class="cls-1" d="M233.56,66.7h0a21.42,21.42,0,0,0-21.42-21.41h-17V33.9h35V17.44H197.54a21.23,21.23,0,0,0-21.22,21.23h0A21.23,21.23,0,0,0,197.54,59.9h17.22V71.68h-35V88.13h32.42A21.41,21.41,0,0,0,233.56,66.7Z" transform="translate(-8.91 -9.79)"/><path class="cls-1" d="M256.74,88.13h35.63V71.68H259.09V17.44h-18.8V71.68A16.45,16.45,0,0,0,256.74,88.13Z" transform="translate(-8.91 -9.79)"/><circle class="cls-1" cx="52.06" cy="52.94" r="43.16" transform="translate(-16.71 -0.76) rotate(-9.22)"/><path class="cls-2" d="M53.7,17.57,20.86,69.71a36,36,0,0,0,3.81,5.69L74.52,25.56A35.22,35.22,0,0,0,53.7,17.57Z" transform="translate(-8.91 -9.79)"/><path class="cls-2" d="M79.56,30.63,29.75,80.44a34.86,34.86,0,0,0,5.72,3.8l52-32.73A35.26,35.26,0,0,0,79.56,30.63Z" transform="translate(-8.91 -9.79)"/><path class="cls-2" d="M86.68,60.45l-42.8,27A35.46,35.46,0,0,0,86.68,60.45Z" transform="translate(-8.91 -9.79)"/></svg>