<svg xmlns="http://www.w3.org/2000/svg" viewBox="0 0 141 25" alt="" class="ap-kartridge__logo" title="Kartridge" height="25px" width="141px">
  <path fill="#FFF" d="M19.2 12.2L29.4 1.9c.6-.6.2-1.5-.6-1.5h-9.7c-.3 0-.7.1-.9.4L7.8 11.3c-.2.2-.4.6-.4.9 0 .3.1.6.4.9l10.4 10.6c.2.2.6.4.9.4h9.7c.8 0 1.2-.9.6-1.5L19.2 12.2z"></path>
  <path d="M13.6 8l-4.1 4.2c-.4.4-.4.9 0 1.3l4.1 4.1V8z" opacity=".2"></path>
  <path fill="#5116DC" d="M13.6 7.4l-4.1 4.2c-.4.4-.4.9 0 1.3l4.1 4.1V7.4z"></path>
  <path d="M19.7 12.8l10-10c.4-.4.5-.9.3-1.4s-.6-.8-1.2-.8h-9.7c-.4 0-.8.2-1.1.5l-4.4 4.4V1.9c0-.7-.6-1.2-1.2-1.2H6.2c-.5-.1-.9.1-1.2.4L.1 6c0 .1-.1.2-.1.3v17.4c0 .7.6 1.3 1.2 1.3h6.2c.4 0 .8-.2 1.1-.5l4.7-4.7 4.7 4.7c.3.3.7.5 1.1.5h9.7c.5 0 1-.3 1.2-.8.2-.5.1-1-.3-1.4l-9.9-10zm9.6 11.1c-.1.2-.3.3-.5.3h-9.7c-.2 0-.5-.1-.6-.3L8 13.4c-.2-.2-.3-.4-.3-.6 0-.2.1-.5.3-.6L18.4 1.6c.2-.2.4-.3.6-.3h9.7c.2 0 .4.1.5.3.1.2 0 .4-.1.6L19 12.6c-.1.1-.1.2-.1.3 0 .1 0 .2.1.3l10.2 10.3c.1 0 .2.2.1.4z" opacity=".2"></path>
  <path fill="#5116DC" d="M19.7 12.2l10-10c.4-.4.5-.9.3-1.4s-.7-.8-1.2-.8h-9.7c-.4 0-.8.2-1.1.5l-4.4 4.4V1.2C13.6.6 13 0 12.3 0H6.2c-.5 0-.9.2-1.2.5L.1 5.4s-.1.1-.1.3v17.4c0 .7.6 1.2 1.2 1.2h6.2c.4 0 .8-.2 1.1-.5l4.7-4.7 4.7 4.7c.3.3.7.5 1.1.5h9.7c.5 0 1-.3 1.2-.8.2-.5.1-1-.3-1.4l-9.9-9.9zm9.6 11.1c-.1.2-.3.3-.5.3h-9.7c-.2 0-.5-.1-.6-.3L8 12.8c-.2-.2-.3-.4-.3-.6 0-.2.1-.5.3-.6L18.4 1c.2-.2.4-.3.6-.3h9.7c.2 0 .4.1.5.3.1.2 0 .4-.1.6L19 11.9c-.1.1-.1.2-.1.3s0 .2.1.3l10.2 10.3c.1.1.2.3.1.5z"></path>
  <path class="svg-full-logo__text-shadow" d="M37.1 19.2v-12h2.5v5.2l4.1-5.2h3.1L42.2 13l4.9 6.3h-3.2l-4.3-5.7v5.7h-2.5zm14 0h-2.6l4.6-12h3l4.6 12h-2.6l-1-2.6h-5.2l-.8 2.6zm3.5-9.6l-1.8 4.7h3.5l-1.7-4.7zm13 5.3h-1.8v4.3h-2.5v-12H68c2.3 0 4.3 1.3 4.3 3.8 0 1.8-.9 2.9-2.3 3.4l2.6 4.8h-2.7l-2.3-4.3zm.2-2.3c.9 0 1.9-.4 1.9-1.6 0-1.2-1-1.5-1.9-1.5h-2.1v3.1h2.1zm10.3-3h-3.6V7.2h9.7v2.4h-3.6v9.6h-2.5V9.6zm12.8 5.3h-1.8v4.3h-2.5v-12h4.8c2.3 0 4.3 1.3 4.3 3.8 0 1.8-.9 2.9-2.3 3.4l2.6 4.8h-2.7l-2.4-4.3zm.2-2.3c.9 0 1.9-.4 1.9-1.6 0-1.2-1-1.5-1.9-1.5H89v3.1h2.1zm10.3 6.6h-2.5v-12h2.5v12zm7.2 0H105v-12h3.7c4.2 0 6.8 2.2 6.8 6 0 3.5-2.6 6-6.9 6zm.1-9.7h-1.3v7.3h1.2c2.5 0 4.2-1.3 4.2-3.7.1-2.3-1.7-3.6-4.1-3.6zm15.6 9.9c-3.7 0-6.7-2.8-6.7-6.2 0-3.5 2.8-6.2 6.3-6.2 3 0 4.9 1.8 5.4 3.7l-2.4.7c-.3-1-1.4-2-3-2-2 0-3.7 1.6-3.7 3.8 0 2.1 1.5 3.8 3.7 3.8 1.6 0 2.8-.8 3.1-2h-3.7v-2.3h6.3v.9c-.1 3.8-2.4 5.8-5.3 5.8zm15.9-12.2v2.3h-5.4v2.4h4.9v2.3h-4.9v2.6h5.5v2.3h-7.9v-12h7.8z" opacity=".2"></path>
  <path class="svg-full-logo__text" fill="#5116DC" d="M37.1 18.5v-12h2.5v5.2l4.1-5.2h3.1l-4.6 5.8 4.9 6.3h-3.2l-4.3-5.7v5.7h-2.5zm14 0h-2.6l4.6-12h3l4.6 12h-2.6l-1-2.6h-5.2l-.8 2.6zm3.5-9.6l-1.8 4.7h3.5l-1.7-4.7zm13 5.3h-1.8v4.3h-2.5v-12H68c2.3 0 4.3 1.3 4.3 3.8 0 1.8-.9 2.9-2.3 3.4l2.6 4.8h-2.7l-2.3-4.3zm.2-2.3c.9 0 1.9-.4 1.9-1.6 0-1.2-1-1.5-1.9-1.5h-2.1v3.1h2.1zm10.3-3h-3.6V6.5h9.7v2.4h-3.6v9.6h-2.5V8.9zm12.8 5.3h-1.8v4.3h-2.5v-12h4.8c2.3 0 4.3 1.3 4.3 3.8 0 1.8-.9 2.9-2.3 3.4l2.6 4.8h-2.7l-2.4-4.3zm.2-2.3c.9 0 1.9-.4 1.9-1.6 0-1.2-1-1.5-1.9-1.5H89v3.1h2.1zm10.3 6.6h-2.5v-12h2.5v12zm7.2 0H105v-12h3.7c4.2 0 6.8 2.2 6.8 6 0 3.6-2.6 6-6.9 6zm.1-9.7h-1.3v7.3h1.2c2.5 0 4.2-1.3 4.2-3.7.1-2.3-1.7-3.6-4.1-3.6zm15.6 9.9c-3.7 0-6.7-2.8-6.7-6.2 0-3.5 2.8-6.2 6.3-6.2 3 0 4.9 1.8 5.4 3.7l-2.4.7c-.3-1-1.4-2-3-2-2 0-3.7 1.6-3.7 3.8 0 2.1 1.5 3.8 3.7 3.8 1.6 0 2.8-.8 3.1-2h-3.7V12h6.3v1c-.1 3.7-2.4 5.7-5.3 5.7zm15.9-12.2v2.3h-5.4v2.4h4.9v2.3h-4.9v2.6h5.5v2.3h-7.9v-12h7.8z"></path>
</svg>
