<svg xmlns="http://www.w3.org/2000/svg" xmlns:xlink="http://www.w3.org/1999/xlink" version="1.1" id="Layer_1" x="0px" y="0px" viewBox="0 145.2 512 94.8" style="enable-background:new 0 145.2 512 94.8;" xml:space="preserve">
<style type="text/css">
	.st0{fill:#991C1F;}
</style>
<g>
	<path class="st0" d="M512,145.2V240H0v-94.8H512z M5,149.9c0,28.5,0,56.9,0,85.3c167.4,0,502.2,0,502.2,0v-85.3   C507.2,149.9,172.4,149.9,5,149.9z"/>
	<path class="st0" d="M9,231.1v-77h494.1V231L9,231.1z M170.6,218c0-12.9,0-25.6,0-38.5c1.3,0,2.5,0,3.7,0c0-2.7,0-5.2,0-7.6   c-5.6,0-11.2,0-16.7,0c0,2.3,0,4.5,0,6.6c1.7,0.6,3.4,1.2,5.1,1.9c0,8.4,0,16.6,0,25c-0.4-0.2-0.8-0.2-0.9-0.4   c-0.3-0.4-0.4-0.9-0.6-1.3c-4.1-9.8-8.1-19.5-12.2-29.3c-0.4-0.9-0.8-1.8-1.1-2.6c-5.7,0-11.3,0-16.9,0c0,2.3,0,4.4,0,6.7   c1.3,0.6,2.6,1.3,3.9,1.9c0,9.8,0,19.5,0,29.4c-1.3,0-2.4,0-3.6,0c0,2.7,0,5.1,0,7.6c5.6,0,11,0,16.6,0c0-2.3,0-4.5,0-6.7   c-1.8-0.6-3.4-1.3-5-1.9c0-8.7,0-17.3,0-25.8c1.1-0.4,1.1,0.6,1.4,1.1c3.9,9.2,7.8,18.4,11.7,27.6c0.9,2.1,1.8,4.2,2.7,6.3   C162.6,218,166.5,218,170.6,218z M40.8,178.5c1.4,0.7,2.7,1.3,3.9,1.9c0,9.8,0,19.5,0,29.3c-1.3,0-2.5,0-3.6,0c0,2.7,0,5.2,0,7.6   c6,0,11.9,0,17.8,0c0-2.2,0-4.4,0-6.6c-1.4-0.6-2.7-1.1-4.1-1.7c0-1.8,0-3.6,0-5.4c0-0.3,0.1-0.7,0.3-0.9c1.7-1.8,3.3-3.5,5.1-5.4   c2.3,4.1,4.5,8.1,6.9,12.3c-1.2,0.1-2,0.1-2.9,0.2c0,2.6,0,5.1,0,7.6c6.3,0,12.4,0,18.7,0c0-2.3,0-4.4,0-6.6   c-1.1-0.4-2.2-0.8-3.2-1.2c-0.8-0.2-1.4-0.8-1.8-1.5c-3.2-5-6.5-10-9.8-15c-0.2-0.4-0.5-0.8-0.7-1.2c0.5-0.5,1-1,1.5-1.5   c3-2.9,6-5.7,8.9-8.7c1.4-1.4,2.7-2.5,4.7-2.1c0.1,0,0.2-0.1,0.3-0.2c0-2.5,0-4.9,0-7.5c-6.3,0-12.5,0-18.8,0c0,2.3,0,4.4,0,6.6   c1.4,0.5,2.7,1,4.2,1.6c-4.4,4.8-8.7,9.4-13.1,14.1c0-5,0-9.7,0-14.6c1.3,0,2.6,0,3.9,0c0-2.7,0-5.2,0-7.6c-6.1,0-12,0-18.1,0   c0,1.8,0,3.6,0,5.3C40.8,177.6,40.8,178,40.8,178.5z M448,197.6c1,0,1.8,0,2.6,0c1.6,0.1,2.1,0.5,2.5,2.2c0.2,0.9,0.4,1.9,0.6,2.8   c1.7,0,3.2,0,4.8,0c0.5-5.5,1-10.9,1.5-16.3c-2,0-3.9,0-5.7,0c-0.3,1.2-0.5,2.3-0.8,3.4c-0.2,0.8-0.5,1.5-1.3,1.7   c-1.4,0.2-2.8,0.2-4.2,0.1c0-4.1,0-7.9,0-11.8c0.2-0.1,0.4-0.1,0.5-0.1c3.1,0,6.2,0.1,9.3,0.2c0.8,0,1.7,0.2,2.5,0.4   c1.3,0.3,2,1.2,2.3,2.6c0.1,0.6,0.2,1.2,0.3,1.8c0.2,1.4,0.4,2.8,0.7,4.1c2.4,0,4.8,0,7.1,0c0-5.7,0-11.2,0-16.9   c-12.3,0-24.5,0-36.8,0c0,2.2,0,4.5,0,6.7c1.4,0.7,2.7,1.3,3.9,1.9c0,9.8,0,19.5,0,29.4c-1.3,0-2.5,0-3.8,0c0,2.4,0,4.6,0,6.8   c0,0.3,0,0.5,0.1,0.8c12.1,0,24.1,0,36.2,0c0.4-5.6,0.8-11.2,1.2-16.7c-2.6,0-5.1,0-7.6,0c-0.5,1.8-1,3.5-1.4,5.2   c-0.5,2-1.6,3.2-3.5,3.5c-0.4,0.1-0.9,0.2-1.3,0.2c-2.9,0.1-5.8,0.2-8.7,0.2c-0.3,0-0.6-0.1-1-0.2C448,205.6,448,201.7,448,197.6z    M241.5,199.3c2.7,6.1,5.3,12.1,8,18c3.9,0,7.7,0,11.5,0c0-2.3,0-4.5,0-6.7c-0.9-0.4-1.6-0.7-2.4-1c-0.9-0.3-1.6-0.9-2.1-1.8   c-1.7-2.8-3.4-5.6-5.1-8.4c-0.2-0.3-0.4-0.7-0.5-1.1c0.7-0.4,1.3-0.7,1.9-1.1c2.9-1.7,4.8-4.3,5.6-7.8c0.7-3.2,0.7-6.4,0.1-9.6   c-0.6-3-2.2-5.1-4.7-6.3c-0.7-0.3-1.5-0.6-2.2-0.8c-2.8-0.8-5.7-1-8.6-1c-6.1,0-12.1,0-18.2,0c-0.4,0-0.9,0-1.3,0   c0,2.4,0,4.6,0,6.8c1,0.4,1.9,0.9,2.8,1.3c1,0.4,1.3,1,1.3,2.2c0,8.6,0,17.3,0,25.9c0,0.5,0,1.1-0.1,1.8c-1.3,0-2.5,0-3.7,0   c0,2.7,0,5.2,0,7.6c5.7,0,11.4,0,17.1,0c0-2.3,0-4.5,0-6.8c-1.1-0.5-2.2-1-3.2-1.5c0-3.1,0-6,0-9   C238.8,199.8,240,199.6,241.5,199.3z M278.3,179.7c0.2-0.1,0.4-0.1,0.6-0.1c3,0,6.1,0.1,9.1,0.2c1,0,1.9,0.3,2.9,0.6   c0.9,0.2,1.5,1,1.8,2c0.2,0.6,0.3,1.3,0.4,1.9c0.2,1.5,0.5,3,0.7,4.5c2.4,0,4.7,0,7.1,0c0-5.7,0-11.3,0-16.9c-12.3,0-24.5,0-36.8,0   c0,2.3,0,4.4,0,6.7c1,0.5,1.9,1,2.9,1.3c0.9,0.3,1.2,0.9,1.2,1.9c0,8.8,0,17.6,0,26.4c0,0.5-0.1,0.9-0.1,1.6c-1.3,0-2.4,0-3.6,0   c0,2.6,0,5.1,0,7.6c12.1,0,24.1,0,36.1,0c0.4-5.6,0.8-11.2,1.2-16.7c-2.6,0-5.1,0-7.6,0c-0.6,2-1.1,3.9-1.6,5.8   c-0.4,1.6-1.4,2.5-2.8,2.8c-0.6,0.1-1.2,0.3-1.7,0.3c-2.9,0.1-5.8,0.2-8.7,0.2c-0.3,0-0.6-0.1-0.9-0.2c0-4,0-7.9,0-12   c0.9,0,1.7,0,2.4,0c1.8,0.1,2.2,0.5,2.6,2.4c0.2,0.9,0.4,1.8,0.6,2.7c1.6,0,3.1,0,4.8,0c0.5-5.5,1-10.9,1.5-16.4   c-1.9,0-3.8,0-5.7,0c-0.3,1.2-0.5,2.4-0.8,3.5c-0.2,0.8-0.6,1.6-1.5,1.6c-1.3,0.1-2.6,0-4,0C278.3,187.5,278.3,183.6,278.3,179.7z    M207,187.1c2.3,0,4.5,0,6.7,0c0-5.7,0-11.3,0-17.1c-1.6,0.5-3.1,0.9-4.6,1.4c-1.3,0.5-2.6,0.7-4,0c-0.5-0.3-1-0.3-1.6-0.4   c-3.2-0.6-6.4-0.5-9.5,0.1c-6.9,1.1-11.6,5.3-13.6,12.9c-0.5,2-0.9,4-1.1,6.1c-0.4,5.2-0.5,10.5,0.7,15.6c1.5,6.4,5.1,10.5,11,12   c2.6,0.7,5.1,0.9,7.8,0.9c4.4-0.1,8.7-0.8,12.9-2.1c1.8-0.6,3.5-1.2,5.3-1.8c0-2.2,0-4.1,0-6.1c-1.2-0.5-2.4-1-3.6-1.4   c0-1.9,0-3.7,0-5.8c1.4,0,2.7,0,4,0c0-2.7,0-5.1,0-7.6c-6.2,0-12.3,0-18.5,0c0,2.3,0,4.4,0,6.6c1.8,0.5,3.5,1,5.2,1.5   c0,2.7,0,5.2,0,7.7c-2.7,1.1-5.5,1.1-8.2,0.7c-3.1-0.4-4.9-2.4-5.6-5.8c-0.1-0.3-0.2-0.6-0.2-1c-0.8-4.6-0.7-9.2-0.5-13.9   c0.1-2.1,0.5-4.2,1.3-6.2c1-2.4,2.6-4.1,5-4.6c2.9-0.6,5.8-0.2,8.5,1c0.6,0.3,0.8,0.7,1,1.3C206,183.2,206.5,185.2,207,187.1z    M345.2,201.5c0-2.7,0-5.2,0-7.7c-6.2,0-12.3,0-18.4,0c0,2.3,0,4.4,0,6.6c1.8,0.5,3.5,1,5.2,1.5c0,2.7,0,5.2,0,7.7   c-3.2,1.1-6.4,1.2-9.5,0.3c-1.7-0.5-3-1.7-3.7-3.5c-0.3-0.8-0.6-1.6-0.7-2.5c-0.9-5.2-1-10.4-0.4-15.7c0.2-1.8,0.7-3.6,1.4-5.3   c0.9-2.2,2.5-3.6,4.7-4.1c2.9-0.7,5.7-0.3,8.4,0.9c0.7,0.3,1.1,0.8,1.3,1.6c0.4,1.9,1,3.8,1.4,5.6c2.3,0,4.5,0,6.6,0   c0-5.7,0-11.3,0-17.1c-1.6,0.5-3,0.9-4.5,1.4c-1.3,0.5-2.6,0.8-4,0c-0.5-0.3-1-0.3-1.6-0.4c-3.2-0.6-6.4-0.5-9.5,0.1   c-6.8,1.2-11.5,5.3-13.5,12.8c-0.8,2.8-1.1,5.6-1.3,8.5c-0.3,4.3-0.1,8.6,0.8,12.9c1.4,6.7,5.1,11,11.3,12.5c2.5,0.6,5,0.9,7.6,0.8   c3.4-0.1,6.9-0.5,10.2-1.4c2.7-0.7,5.4-1.5,8-2.7c0-2,0-4,0-6c-1.2-0.5-2.5-1-3.8-1.5c0-1.9,0-3.7,0-5.7   C342.6,201.5,343.8,201.5,345.2,201.5z M86.5,196c-0.1,3.1,0.2,6.4,0.9,9.7c1.5,6.5,5,10.7,11,12.2c4.7,1.2,9.5,1.1,14.2-0.1   c5.8-1.4,9.7-5.3,11.6-11.5c1-3.1,1.4-6.4,1.5-9.6c0.2-4.7,0.1-9.4-1.2-14c-1.5-5.7-4.8-9.4-10-10.9c-5-1.4-10.1-1.4-15.2-0.1   c-5.9,1.5-9.6,5.6-11.4,11.9C86.8,187.6,86.4,191.6,86.5,196z M371.3,209.7c0,2.7,0,5.2,0,7.7c6.1,0,12.2,0,18.3,0   c0-2.3,0-4.4,0-6.6c-0.9-0.3-1.6-0.7-2.4-0.9c-1.4-0.3-2-1.2-2.4-2.7c-3.1-11.8-6.3-23.5-9.5-35.3c-0.1-0.4-0.3-0.8-0.4-1.2   c-4.6,0.8-9.1,1.6-13.3,2.4c-0.3,1.8-0.4,3.4-0.8,4.9c-1.1,4.3-2.3,8.5-3.4,12.7c-1.6,5.9-3.2,11.7-4.8,17.6   c-0.4,1.5-0.4,1.5-1.8,1.5c-0.8,0-1.6,0-2.4,0c0,2.6,0,5.1,0,7.6c5.3,0,10.5,0,15.6,0c0-2.3,0-4.5,0-6.6c-1.3-0.6-2.5-1.1-3.8-1.7   c0.4-1.9,0.7-3.8,1-5.6c4.2,0,8.2,0,12.3,0c0.3,2.1,0.7,4.1,1,6.3C373.3,209.7,372.4,209.7,371.3,209.7z M398.9,217.4   c7,0,14,0,20.9,0c0-2.2,0-4.4,0-6.6c-1.9-0.6-3.7-1.1-5.5-1.7c0-10,0-19.8,0-29.7c0.9,0,1.6,0,2.4,0c3,0.1,3.5,0.7,4,3.9   c0.3,2.1,0.7,4.3,1,6.4c2.5,0,4.8,0,7.1,0c0-6,0-12,0-17.8c-13,0-25.9,0-39,0c-0.4,6-0.8,11.9-1.2,17.9c2.6,0,5,0,7.5,0   c0.1-0.3,0.2-0.6,0.2-0.8c0.6-2.4,1.3-4.7,1.8-7.1c0.3-1.4,1.1-2.2,2.3-2.3c1.1-0.1,2.2-0.1,3.4-0.2c0,10.2,0,20.2,0,30.4   c-1.8,0-3.5,0-5.2,0C398.9,212.4,398.9,214.8,398.9,217.4z"/>
	<path id="XMLID_3_" class="st0" d="M237.4,193c0-4.4,0-8.8,0-13.4c2.5,0,4.9-0.2,7.3,0.4c1.8,0.5,2.8,1.8,3,3.8   c0.1,1.1,0.1,2.2,0.1,3.3c-0.1,2.5-1.3,4.3-3.3,5.4C242.2,193.7,239.9,193.9,237.4,193z"/>
	<path id="XMLID_2_" class="st0" d="M115.5,195.5c-0.2,2-0.4,4.8-0.7,7.6c-0.1,0.8-0.3,1.6-0.6,2.4c-0.9,2.8-2.8,4.5-5.4,5   c-2.2,0.4-4.5,0.4-6.7-0.2c-2-0.5-3.4-1.9-4.1-4.1c-0.4-1.3-0.7-2.7-0.9-4.1c-0.4-4.6-0.6-9.3-0.1-13.9c0.1-1.1,0.3-2.2,0.6-3.2   c0.9-3.8,3.2-5.8,6.6-6.1c1.8-0.2,3.7,0,5.6,0.3c2.1,0.3,3.6,1.7,4.3,4c0.4,1.5,0.7,3.1,0.9,4.6C115.3,190,115.4,192.3,115.5,195.5   z"/>
	<path id="XMLID_1_" class="st0" d="M371.3,196.4c-2.7,0-5.3,0-8.1,0c0.3-1.4,0.6-2.7,0.9-4c0.8-3.8,1.7-7.6,2.5-11.4   c0.1-0.3,0.1-0.7,0.2-0.9s0.4-0.5,0.6-0.5s0.5,0.4,0.5,0.6c0.4,1.6,0.7,3.2,1,4.8c0.7,3.4,1.5,6.8,2.2,10.2   C371.2,195.4,371.2,195.9,371.3,196.4z"/>
</g>
</svg>
