<?xml version="1.0" encoding="UTF-8" standalone="no"?>
<svg
   xmlns:dc="http://purl.org/dc/elements/1.1/"
   xmlns:cc="http://creativecommons.org/ns#"
   xmlns:rdf="http://www.w3.org/1999/02/22-rdf-syntax-ns#"
   xmlns:svg="http://www.w3.org/2000/svg"
   xmlns="http://www.w3.org/2000/svg"
   xmlns:sodipodi="http://sodipodi.sourceforge.net/DTD/sodipodi-0.dtd"
   xmlns:inkscape="http://www.inkscape.org/namespaces/inkscape"
   width="108.79662"
   height="20.830118"
   viewBox="0 0 108.79661 253.08594"
   version="1.1"
   id="svg11"
   sodipodi:docname="zoomin-tv.svg"
   inkscape:version="0.92.3 (2405546, 2018-03-11)">
  <metadata
     id="metadata17">
    <rdf:RDF>
      <cc:Work
         rdf:about="">
        <dc:format>image/svg+xml</dc:format>
        <dc:type
           rdf:resource="http://purl.org/dc/dcmitype/StillImage" />
        <dc:title></dc:title>
      </cc:Work>
    </rdf:RDF>
  </metadata>
  <defs
     id="defs15" />
  <sodipodi:namedview
     pagecolor="#ffffff"
     bordercolor="#666666"
     borderopacity="1"
     objecttolerance="10"
     gridtolerance="10"
     guidetolerance="10"
     inkscape:pageopacity="0"
     inkscape:pageshadow="2"
     inkscape:window-width="1920"
     inkscape:window-height="1046"
     id="namedview13"
     showgrid="false"
     fit-margin-top="0"
     fit-margin-left="0"
     fit-margin-right="0"
     fit-margin-bottom="0"
     inkscape:zoom="5.2901871"
     inkscape:cx="100.68519"
     inkscape:cy="19.191241"
     inkscape:window-x="0"
     inkscape:window-y="34"
     inkscape:window-maximized="1"
     inkscape:current-layer="svg11" />
  <g
     id="surface1"
     style="fill:#ffffff;fill-opacity:1"
     transform="translate(-606.54115,5.089844)">
    <path
       style="fill:#ffffff;fill-opacity:1;fill-rule:nonzero;stroke:none"
       d="M 9.878906,0 V 89 H 84.03125 L 0,243 h 143.08594 l 52.28515,-96 H 162.62891 L 241.61328,0 Z m 0,0"
       id="path2"
       inkscape:connector-curvature="0" />
    <!--<path style=" stroke:none;fill-rule:nonzero;fill:rgb(6.47583%,5.92804%,5.235291%);fill-opacity:1;" d="M 1533.359375 0 L 1497.660156 57.972656 L 1493.234375 0 L 1346.769531 0 L 1334.960938 44 L 1370.78125 44 L 1347.304688 132 L 1398.019531 132 L 1421.496094 44 L 1444.464844 44 L 1456.347656 133 L 1502.113281 133 L 1590.871094 0 Z M 1533.359375 0 "/>-->
    <path
       style="fill:#ffffff;fill-opacity:1;fill-rule:nonzero;stroke:none"
       d="m 619.87891,122.11719 c 0,22.76172 -15.05079,46.94922 -43.16797,46.94922 -28.54688,0 -43.83203,-24.53125 -43.83203,-47.61328 v -0.66797 c 0,-22.757816 15.05468,-46.945316 43.16796,-46.945316 28.54688,0 43.83204,24.53125 43.83204,47.613286 z m -229,0 c 0,22.76172 -15.05079,46.94922 -43.16797,46.94922 -28.54688,0 -43.83203,-24.53125 -43.83203,-47.61328 v -0.66797 c 0,-22.757816 15.05468,-46.945316 43.16796,-46.945316 28.54688,0 43.83204,24.53125 43.83204,47.613286 z M 696.87891,-1 v 68.511719 c -6.38672,-13.359375 -15.21094,-25.578125 -26.22266,-36.121094 -24.55469,-23.527344 -58,-36.480469 -93.97266,-36.480469 -49.54297,0 -91.98047,24.707032 -114.73437,62.195313 -5.59766,-9.328125 -12.5,-17.976563 -20.58203,-25.714844 -24.5586,-23.527344 -57.9375,-36.480469 -93.91016,-36.480469 -74.32031,0 -132.57812,55.585938 -132.57812,126.542974 v 0.66406 c 0,8.47656 0.83593,16.79687 2.45703,24.88281 h -11.31641 l -52.16797,96 h 96.02735 v -34.5 c 0.99609,1.01562 2,2.02734 3.03125,3.01562 24.55859,23.52344 57.91015,36.48047 93.88281,36.48047 49.54297,0 91.92969,-24.70703 114.6875,-62.19922 5.59765,9.33204 12.47656,17.97657 20.55859,25.71875 24.5586,23.52344 58.11328,36.48047 94.08594,36.48047 54.20703,0 99.96094,-29.57812 120.75391,-73.12109 V 243 h 86 v -94.87109 l 50,29.23437 49,-29.23437 V 243 h 87 V -1 L 832.90625,68.5 Z m 0,0"
       id="path4"
       inkscape:connector-curvature="0" />
    <path
       style="fill:#ffffff;fill-opacity:1;fill-rule:nonzero;stroke:none"
       d="m 983.87891,243 h 87.99999 V 0 h -87.99999 z m 0,0"
       id="path6"
       inkscape:connector-curvature="0" />
    <path
       style="fill:#ffffff;fill-opacity:1;fill-rule:nonzero;stroke:none"
       d="M 1225.8789,79.460938 1086.8789,-1 v 244 h 89 v -82.88281 l 146,84.03125 V 0 h -96 z m 0,0"
       id="path8"
       inkscape:connector-curvature="0" />
    <!--<path style=" stroke:none;fill-rule:nonzero;fill:rgb(6.47583%,5.92804%,5.235291%);fill-opacity:1;" d="M 1336.878906 147 L 1336.878906 243 L 1434.402344 243 L 1382.234375 147 Z M 1336.878906 147 "/>-->
  </g>
</svg>
