<?xml version="1.0" encoding="UTF-8" standalone="no"?>
<svg height="9.2034" version="1.1" width="72" xmlns="http://www.w3.org/2000/svg">
  <path d="m28.111 0.85699v-0.2907l-0.12457-0.083h-4.9827l-0.08305 0.083v0.2907l0.08305 0.083h2.1176l0.08304 0.083v6.0623l0.08304 0.083h0.3737l0.08304-0.083v-6.0208l0.08304-0.083h2.1592l0.12457-0.1245zm1.1217 1.4538c-1.3287 0-2.1191 0.95402-2.1191 2.3242v0.20898c0 1.3288 0.66484 2.4902 2.2012 2.4902 1.3287 0 1.8271-0.87182 1.9102-1.4531l-0.08203-0.082031h-0.375l-0.08203 0.082031c-0.20761 0.5813-0.58267 0.95508-1.3301 0.95508-1.2457 0-1.6191-1.1628-1.6191-1.7441l0.08398-0.082031h3.4453l0.08398-0.083984v-0.29102c0-1.3702-0.74694-2.3242-2.1172-2.3242zm0 0.49805c0.58132 0 0.96437 0.23873 1.2031 0.56055 0.23875 0.32181 0.33203 0.72644 0.33203 1.0586l-0.08203 0.083984h-2.9062l-0.08398-0.083984c0-0.33215 0.09328-0.73678 0.33203-1.0586 0.23875-0.32181 0.62376-0.56055 1.2051-0.56055zm3.072 1.9928c0-1.3287 0.66436-2.0346 1.6194-2.0346 0.95502 0 1.3287 0.5813 1.4533 1.1626l0.08304 0.083h0.41522l0.08304-0.083c-0.08304-0.955-0.87197-1.6193-2.0346-1.6193-1.2457 0-2.2007 0.7889-2.2007 2.4913 0 1.744 0.95502 2.4914 2.2007 2.4914 1.1626 0 1.91-0.6644 2.0346-1.6194l-0.08304-0.083h-0.3737l-0.08304 0.083c-0.08304 0.5813-0.49827 1.1626-1.4533 1.1626-0.95502 0-1.6609-0.6643-1.6609-2.0346zm8.3045 2.3253v-2.9066c0-1.2457-0.66436-1.91-1.7439-1.91-0.66436 0-1.2457 0.2906-1.5363 0.7889h-0.08304v-2.4914l-0.12457-0.1245h-0.3737l-0.08305 0.083v6.5606l0.08305 0.083h0.3737l0.08304-0.083v-2.6159c0-1.0796 0.49827-1.744 1.5363-1.744 0.78893 0 1.2457 0.4983 1.2457 1.4533v2.9066l0.08304 0.083h0.3737l0.16609-0.083zm4.8997 0v-2.9066c0-1.2457-0.66436-1.91-1.7439-1.91-0.66436 0-1.2457 0.2906-1.5363 0.7889h-0.08304l-0.08304-0.5813-0.08304-0.083h-0.29066l-0.08304 0.083v4.609l0.08304 0.083h0.3737l0.08304-0.083v-2.6159c0-1.0796 0.49827-1.744 1.5363-1.744 0.78893 0 1.2457 0.4983 1.2457 1.4533v2.9066l0.08304 0.083h0.41522l0.08305-0.083zm2.7824-4.7751c-1.2457 0-2.2012 0.87289-2.2012 2.4922 0 1.6194 0.9555 2.4902 2.2012 2.4902s2.2012-0.87083 2.2012-2.4902c0-1.6193-0.9555-2.4922-2.2012-2.4922zm0 0.45703c0.47751 0 0.8825 0.19783 1.168 0.55078 0.28547 0.35295 0.45117 0.86158 0.45117 1.4844 0 0.62285-0.1657 1.1314-0.45117 1.4844-0.28547 0.35294-0.69046 0.54883-1.168 0.54883-0.47751 0-0.8825-0.19589-1.168-0.54883-0.28547-0.35294-0.45117-0.86152-0.45117-1.4844 0-0.6436 0.1657-1.1522 0.45117-1.5 0.28547-0.34775 0.69046-0.53516 1.168-0.53516zm3.4875 4.3181v-6.5606l-0.12457-0.083h-0.3737l-0.08304 0.083v6.5606l0.08304 0.083h0.3737l0.12457-0.083zm2.866-4.7751c-1.2457 0-2.2012 0.87289-2.2012 2.4922 0 1.6194 0.9555 2.4902 2.2012 2.4902s2.1992-0.87083 2.1992-2.4902c0-1.6193-0.95354-2.4922-2.1992-2.4922zm0 0.45703c0.47751 0 0.88055 0.19783 1.166 0.55078 0.28547 0.35295 0.45312 0.86158 0.45312 1.4844 0 0.62285-0.16766 1.1314-0.45312 1.4844-0.28547 0.35294-0.68851 0.54883-1.166 0.54883-0.47751 0-0.8825-0.19589-1.168-0.54883-0.287-0.353-0.455-0.8616-0.455-1.4845 0-0.6436 0.16766-1.1522 0.45312-1.5 0.28547-0.34775 0.69046-0.53516 1.168-0.53516zm4.7324-0.49805c-1.3287 0-2.0352 1.0785-2.0352 2.4902 0 1.4533 0.66491 2.4922 2.0352 2.4922 0.87197 0 1.3295-0.37376 1.5371-0.78906v0.041016c0 1.2456-0.2905 2.2012-1.4531 2.2012-0.87197 0-1.163-0.37279-1.2461-0.87109l-0.08398-0.083984h-0.37305l-0.08398 0.083984c0.08304 0.7889 0.6655 1.3281 1.8281 1.3281 1.2457 0 2.0352-0.78912 2.0352-2.6992v-3.9863l-0.08398-0.082031h-0.29102l-0.08203 0.082031-0.08398 0.58203h-0.08203c-0.20761-0.3737-0.66514-0.78906-1.5371-0.78906zm0 0.45703c0.47751 0 0.86225 0.16458 1.127 0.50195 0.26471 0.33738 0.41016 0.84615 0.41016 1.5312 0 0.68515-0.14545 1.1939-0.41016 1.5312-0.26471 0.33736-0.64944 0.50391-1.127 0.50391-0.47751 0-0.86225-0.16654-1.127-0.50391-0.26471-0.33736-0.4082-0.8461-0.4082-1.5312 0-0.66435 0.1435-1.1731 0.4082-1.5156 0.26471-0.34256 0.64944-0.51758 1.127-0.51758zm3.6542-1.2049v-0.5814l-0.083-0.083h-0.37371l-0.12456 0.083v0.5814l0.083 0.083h0.3737l0.12457-0.083zm0 5.564v-4.609l-0.083-0.083h-0.37371l-0.12456 0.083v4.609l0.083 0.083h0.3737l0.12457-0.083zm2.7814-4.8161c-1.3287 0-2.1172 0.95402-2.1172 2.3242v0.20898c0 1.3288 0.66484 2.4902 2.2012 2.4902 1.3287 0 1.8271-0.87182 1.9102-1.4531l-0.08398-0.082031h-0.37305l-0.08398 0.082031c-0.20762 0.5813-0.58072 0.95508-1.3281 0.95508-1.2457 0-1.6191-1.1628-1.6191-1.7441l0.08398-0.082031h3.4453l0.08398-0.083984v-0.29102c0-1.3287-0.79042-2.3242-2.1191-2.3242zm0 0.49805c0.58132 0 0.96632 0.23873 1.2051 0.56055 0.23875 0.32181 0.33203 0.72644 0.33203 1.0586l-0.08398 0.083984h-2.9062l-0.08203-0.083984c0-0.33215 0.09328-0.73678 0.33203-1.0586 0.23875-0.32181 0.62181-0.56055 1.2031-0.56055zm6.1875 3.1554c0-0.8719-0.49827-1.2456-1.4533-1.4532-0.95501-0.2077-1.5363-0.2907-1.5363-0.9551 0-0.4982 0.3737-0.7889 1.0796-0.7889 0.87197 0 1.1626 0.3737 1.1626 0.872l0.083 0.083h0.3737l0.0831-0.083c0-0.955-0.78893-1.3287-1.744-1.3287-1.0796 0-1.6194 0.5813-1.6194 1.2456 0 0.789 0.58131 1.1627 1.5363 1.3288 0.95502 0.2076 1.4533 0.2906 1.4533 1.0795 0 0.4983-0.29066 0.872-1.2457 0.872-0.87197 0-1.2457-0.4983-1.2457-1.0796l-0.0831-0.083h-0.3737l-0.0831 0.083c0 0.872 0.66436 1.5364 1.827 1.5364 1.2042 0.042 1.7855-0.5398 1.7855-1.3288z" fill="#808080" />
  <path d="m22.879 5.7936v1.3747h-4.3205v-6.7755h1.5711v5.4005h2.7494zm-13.061-5.7936-3.8282 2.9473c-0.3928-1.473-1.6691-2.5547-3.2402-2.5547h-2.75v6.7754h2.75c1.5711 0 2.9456-1.0798 3.2402-2.5527l3.8281 2.9453 3.8301-2.9453v2.5527h4.3203v-1.375h-2.8457v-5.4004h-1.5723v2.5527l-3.6328 2.9473-0.78516-0.6875 1.7676-1.375 1.866-1.4727-1.08-0.8828-3.6333 2.8457-0.7851-0.6875 3.6324-2.75-1.0797-0.8828h-0.0019zm-8.3457 1.7676h1.1777c0.24549 0 0.4861 0.05498 0.70703 0.15625 0.22094 0.10126 0.42386 0.24947 0.5957 0.43359 0.17184 0.18411 0.31197 0.40379 0.41016 0.65234 0.098194 0.24855 0.15234 0.52572 0.15234 0.82031 0 0.27003-0.048143 0.53339-0.13867 0.77734-0.0906 0.244-0.22297 0.4679-0.38867 0.6582-0.1657 0.1902-0.36434 0.34608-0.58984 0.45508-0.2255 0.1089-0.47805 0.16992-0.74805 0.16992h-1.1777v-4.123z" fill="#007db8" />
</svg>
