<svg id="b83ac069-d7a7-4f16-aed8-6b7addc7b7ae" data-name="Layer 1" xmlns="http://www.w3.org/2000/svg" width="11.29cm" height="6.73cm" viewBox="0 0 319.9 190.69"><title>Red Tag Logo</title><rect width="319.87" height="190.7" fill="#c3002f"/><path d="M35.35,116.2a53.79,53.79,0,0,0,5.25,16.14,17.48,17.48,0,0,0,3.53,4.95,4,4,0,0,0,5.56,0,15.62,15.62,0,0,0,2.59-3.51,62.12,62.12,0,0,0,6.63-18.44,13,13,0,0,0,.3-2.85,1,1,0,0,0-.63-1,1.83,1.83,0,0,0-2.76,1.4,67.07,67.07,0,0,1-4.12,15.25,23.66,23.66,0,0,1-2.56,5,1.26,1.26,0,0,1-2,.16,6.22,6.22,0,0,1-.87-1.23,54.06,54.06,0,0,1-4.83-13.86c-.33-1.45-.48-2.94-.74-4.41a2.62,2.62,0,0,0-1.89-2.42,2.93,2.93,0,0,0-2.12.18,2.89,2.89,0,0,0-1.49,2.25A6.9,6.9,0,0,0,35.35,116.2Z" fill="#fff"/><path d="M251.68,127.73c0,2.35,0,4.71,0,7.06a10.4,10.4,0,0,1-.1,1.37,2.72,2.72,0,0,1-3.1,2.43,2.75,2.75,0,0,1-2.53-2.85c0-4.8-.05-9.59,0-14.39.06-5.73,4.25-9.88,10.09-10.07a14.49,14.49,0,0,1,3.35.21,7.74,7.74,0,0,1,5.12,3.2c.36.52.7.76,1.18.1,2.27-3.14,5.54-3.76,9.11-3.46a9.85,9.85,0,0,1,9.48,9.83c.06,4.86,0,9.71,0,14.56a2.73,2.73,0,0,1-2.86,2.88,2.68,2.68,0,0,1-2.77-2.94c0-3.91.06-7.81,0-11.72a31.07,31.07,0,0,0-.46-6.16c-.52-2.38-2.2-3.67-4.8-3.68s-4.39,1.26-4.9,3.66a21.7,21.7,0,0,0-.41,4.62q0,6.51,0,13a3,3,0,0,1-2.43,3.19,2.82,2.82,0,0,1-3.31-2.94c0-4.65,0-9.31,0-14a16.11,16.11,0,0,0-.49-4.26,4.41,4.41,0,0,0-4.15-3.31c-3.33-.19-5.15,1.13-5.7,4.16a13.8,13.8,0,0,0-.22,2.22c0,2.41,0,4.83,0,7.24Z" fill="#fff"/><path d="M81.42,128.8c0,2.27,0,4.54,0,6.81a2.84,2.84,0,0,1-5.67.37,7.39,7.39,0,0,1,0-.94c0-4.17,0-8.33,0-12.5A19.19,19.19,0,0,1,76.2,118a8.17,8.17,0,0,1,7.06-6.52,17.6,17.6,0,0,1,6.59.15,6.52,6.52,0,0,1,2.53,1.07c.31.22.71.46,1,0,.41-.79,1.12-.82,1.83-.88.51,0,1,0,1.55,0,1,0,1.16-.19,1.17-1.16,0-1.35,0-2.7,0-4a2.73,2.73,0,1,1,5.43,0c0,1.18,0,2.36,0,3.54,0,1.64,0,1.64,1.71,1.66a31.26,31.26,0,0,1,3.87.09,1.19,1.19,0,0,1,1.15,1.26c0,1.23-.29,1.61-1.52,1.62s-2.65,0-4,0c-.94,0-1.24.31-1.23,1.25,0,4.39-.12,8.78.14,13.18.23,3.83,2.13,6.15,5.88,7,.71.17,1.61.23,1.51,1.28s-1,.92-1.67,1A11.2,11.2,0,0,1,102,136.8c-3-1.85-4.06-4.75-4.12-8.07-.08-4,0-8,0-12,0-1.89-.07-2-1.92-2a5,5,0,0,1-2.37-.26.51.51,0,0,0-.68.22c-.52.77-1.21.63-1.91.35a13.85,13.85,0,0,0-3.52-1.1c-2.88-.34-4.9,1-5.53,3.81a22,22,0,0,0-.53,4.78C81.41,124.67,81.42,126.73,81.42,128.8Z" fill="#fff"/><path d="M112.88,121.55c0-2.44,0-4.88,0-7.32a2.8,2.8,0,1,1,5.6,0c0,4.31,0,8.62,0,12.93a27.13,27.13,0,0,0,.33,4c.48,3.15,2.41,4.9,5.36,4.88s4.82-1.83,5.26-5a51.93,51.93,0,0,0,.31-5.84c.08-3.68,0-7.35,0-11a2.8,2.8,0,1,1,5.6,0v13.87a10.11,10.11,0,0,1-8.16,10.14c-3.76.78-7.4.45-10.54-2.05a9.6,9.6,0,0,1-3.78-7.69C112.86,126.2,112.88,123.88,112.88,121.55Z" fill="#fff"/><path d="M241,125.28a19.25,19.25,0,0,1-.65,6.14,9.24,9.24,0,0,1-7.84,6.94,12.12,12.12,0,0,1-7.52-.63,8,8,0,0,1-4.94-7,7.83,7.83,0,0,1,4.57-8.08,13.52,13.52,0,0,1,7.11-1.33,3.07,3.07,0,0,1,.42.07c.53.1.91.32.93.94a1,1,0,0,1-.93,1,18.75,18.75,0,0,0-2.85.68c-5.07,1.76-5.07,7.89-2.53,10.67a4.41,4.41,0,0,0,6.49-.37A9.2,9.2,0,0,0,235,130a31.39,31.39,0,0,0,0-10.37c-.72-4.32-3.79-6.23-8.22-5.23-.9.2-1.77.48-2.66.71a8.68,8.68,0,0,1-1,.23,1.3,1.3,0,0,1-1.57-1,1.25,1.25,0,0,1,.77-1.55,12,12,0,0,1,4.28-1.23,21.75,21.75,0,0,1,7.11,0,7.81,7.81,0,0,1,6.63,6.38A28.49,28.49,0,0,1,241,125.28Z" fill="#fff"/><path d="M208.1,138.58a11.93,11.93,0,0,1-5.48-.89,10.22,10.22,0,0,1-5.71-6,17.21,17.21,0,0,1-.23-12.22,12.63,12.63,0,0,1,15.07-7.8A7.13,7.13,0,0,1,217,117.9a7.25,7.25,0,0,1-3.92,7.44,17.36,17.36,0,0,1-7.71,1.84,1.13,1.13,0,0,1-1.34-1c-.07-.81.51-1,1.15-1.1a14.17,14.17,0,0,0,3.33-.85,6.24,6.24,0,0,0,3.33-8.11c-.78-2-3.27-2.82-5.56-1.78a6.39,6.39,0,0,0-3.27,3.4,16.49,16.49,0,0,0-.25,13.46c1.62,3.82,4.54,5.17,8.6,4.31a26.09,26.09,0,0,0,3.14-.88c1-.36,1.65-.11,2,.71s0,1.43-1,1.91a15.73,15.73,0,0,1-6,1.37C209.08,138.61,208.59,138.58,208.1,138.58Z" fill="#fff"/><path d="M169.29,122.92c.08,2,0,4.52.17,7a6.91,6.91,0,0,0,5.66,6.31c.28.06.56.11.84.19a1,1,0,0,1,.79,1.07.91.91,0,0,1-.83.93,10.2,10.2,0,0,1-4.19-.06,11.56,11.56,0,0,1-4.78-2.27,8.33,8.33,0,0,1-3-6.07c-.39-4.32-.1-8.66-.17-13,0-2.23,0-2.23-2.22-2.23h-.69c-1.32,0-1.74-.51-1.59-1.82a1.09,1.09,0,0,1,.95-1.06,11.16,11.16,0,0,1,2.31-.12c1.09,0,1.23-.15,1.23-1.27,0-1.29,0-2.58,0-3.88a3,3,0,0,1,2.72-3.09,2.89,2.89,0,0,1,2.79,2.84c.09,1.4,0,2.81,0,4.22,0,1.08.11,1.17,1.2,1.18,1.29,0,2.58,0,3.87,0s1.6.47,1.67,1.45a1.26,1.26,0,0,1-1.4,1.52c-1.33,0-2.65,0-4,0-1.16,0-1.36.2-1.36,1.35C169.29,118.26,169.29,120.36,169.29,122.92Z" fill="#fff"/><path d="M147.46,138.61a19,19,0,0,1-7.59-1.25,1.62,1.62,0,0,1-1.1-1.11,1.45,1.45,0,0,1,.44-1.42,1.51,1.51,0,0,1,1.7-.15,18.67,18.67,0,0,0,5.41,1.34,7.74,7.74,0,0,0,4.34-.78c2.54-1.36,2.73-4.35.34-5.91-2-1.31-4.21-2.22-6.32-3.34a19.19,19.19,0,0,1-2.64-1.61,7,7,0,0,1-2.93-7.09c.42-2.66,2.27-4.18,4.61-5.14a15.69,15.69,0,0,1,9.15-.45,11.16,11.16,0,0,1,3.11,1,1.43,1.43,0,0,1,.39,2.47,1.42,1.42,0,0,1-1.54.12,20.54,20.54,0,0,0-4.3-1.23,8.74,8.74,0,0,0-4,.28,3.37,3.37,0,0,0-2.48,2.62,3.42,3.42,0,0,0,1.27,3.44,13.4,13.4,0,0,0,3.46,1.89c1.9.89,3.78,1.79,5.62,2.81a6.8,6.8,0,0,1,.06,11.75A13,13,0,0,1,147.46,138.61Z" fill="#fff"/><path d="M178.93,128.27c0-2.31-.12-5.1.13-7.88.29-3.22,1.25-6.08,4.25-7.82a10.3,10.3,0,0,1,4.19-1.22,17,17,0,0,1,6.23.46,5.22,5.22,0,0,1,2.06,1,1.38,1.38,0,0,1,.38,1.91c-.43.73-1.09.68-1.74.43a12.94,12.94,0,0,0-3.84-1.17c-2.75-.16-4.55.85-5.26,3.38a18.14,18.14,0,0,0-.63,4.85c0,4.53,0,9.07,0,13.61a2.78,2.78,0,0,1-2.22,2.7,2.85,2.85,0,0,1-3.25-1.67,4.41,4.41,0,0,1-.27-1.69Z" fill="#fff"/><path d="M63.44,124.9c0-3.59,0-7.18,0-10.77a2.84,2.84,0,0,1,2.25-2.79,2.93,2.93,0,0,1,3.11,1.51,3.55,3.55,0,0,1,.34,1.67q0,10.47,0,20.94a2.85,2.85,0,0,1-2.93,3.12c-1.67,0-2.76-1.26-2.76-3.16C63.44,131.91,63.44,128.41,63.44,124.9Z" fill="#fff"/><path d="M136,101.09c0-1.43,0-2.87,0-4.3a2.68,2.68,0,0,1,1.65-2.6,2.6,2.6,0,0,1,2.82.4,2.81,2.81,0,0,1,1,2.3c0,2.78.05,5.56,0,8.34a2.73,2.73,0,0,1-4.17,2.55,2.94,2.94,0,0,1-1.31-2.65c0-1.34,0-2.69,0-4Z" fill="#fff"/><path d="M176.17,96c0,1.34,0,2.69,0,4-.06,1.88-1.09,3-2.69,3a2.59,2.59,0,0,1-2.68-2.08,5.8,5.8,0,0,1-.12-1q0-4,0-7.91a3,3,0,0,1,1.27-2.77A2.69,2.69,0,0,1,176.05,91a2.91,2.91,0,0,1,.1.59c0,1.46,0,2.92,0,4.39Z" fill="#fff"/><path d="M184.58,97.12c0-1.43,0-2.86,0-4.3A2.7,2.7,0,0,1,187.21,90,2.67,2.67,0,0,1,190,92.7c.06,3,.06,5.91,0,8.86a2.69,2.69,0,0,1-2.77,2.69,2.66,2.66,0,0,1-2.62-2.83v-4.3Z" fill="#fff"/><path d="M143,97.52c0-1.46,0-2.93,0-4.39a2.71,2.71,0,0,1,2.57-2.81,2.67,2.67,0,0,1,2.77,2.52c.08,3.07.08,6.15,0,9.22a2.67,2.67,0,1,1-5.34-.32Z" fill="#fff"/><path d="M156.84,95.8c0-1.41,0-2.81,0-4.22a2.71,2.71,0,1,1,5.4,0q0,4.22,0,8.42a2.6,2.6,0,0,1-2.71,2.88,2.65,2.65,0,0,1-2.7-2.9V95.8Z" fill="#fff"/><path d="M177.68,101c0-1.46,0-2.93,0-4.39a2.62,2.62,0,0,1,2.37-2.71A2.69,2.69,0,0,1,183,96.12a2.89,2.89,0,0,1,.08.59c0,2.88,0,5.75,0,8.62a2.69,2.69,0,0,1-5.38.24,1.09,1.09,0,0,1,0-.18Z" fill="#fff"/><path d="M191.48,94c0-1.4,0-2.81,0-4.22A2.6,2.6,0,0,1,194.1,87a2.65,2.65,0,0,1,2.77,2.77q0,4.36,0,8.71a2.66,2.66,0,0,1-2.73,2.73,2.61,2.61,0,0,1-2.65-2.78C191.47,96.92,191.48,95.46,191.48,94Z" fill="#fff"/><path d="M150,92.61c0-1.43,0-2.87,0-4.31a2.59,2.59,0,0,1,2.43-2.72,2.56,2.56,0,0,1,2.92,2.48c.09,3.07.08,6.15,0,9.22a2.68,2.68,0,0,1-5.36-.19V92.61Z" fill="#fff"/><path d="M169.16,90.25c0,1.43,0,2.87,0,4.31a2.65,2.65,0,0,1-2.64,2.81,2.71,2.71,0,0,1-2.75-2.73c-.05-2.9,0-5.8,0-8.7a2.7,2.7,0,1,1,5.39.09C169.17,87.43,169.16,88.84,169.16,90.25Z" fill="#fff"/><path d="M66.32,97a3.14,3.14,0,0,1-.14,6.28A3.14,3.14,0,1,1,66.32,97Z" fill="#fff"/><path d="M43.75,167.48H37.48l-.87,2.67H34.9l4.7-13.77h2.15l4.68,13.77H44.62Zm-5.82-1.42h5.35l-2.66-8.28Z" fill="#fff"/><path d="M56.36,156.38c3.78,0,6.81,2.09,6.81,6.69,0,5.45-3.34,7.08-6.26,7.08H52.39V156.38ZM54,157.88v10.78h2.89c2.13,0,4.55-1.07,4.55-5.57,0-3.09-1.59-5.21-5-5.21Z" fill="#fff"/><path d="M74.09,165v.37H66.46c.06,2.28,1.22,3.64,3.28,3.64a3.23,3.23,0,0,0,2.91-1.63l1.34.73a4.86,4.86,0,0,1-4.31,2.28c-3.15,0-4.88-2.38-4.88-5.37s1.62-5.33,4.75-5.33C72.5,159.69,74.09,162.09,74.09,165Zm-7.61-.87h5.94c-.12-1.89-1.14-3.11-2.91-3.11S66.61,162.28,66.48,164.13Z" fill="#fff"/><path d="M77.77,170.15H76.16V156.38h1.61Z" fill="#fff"/><path d="M82.1,170.15H80.48V156.38H82.1Z" fill="#fff"/><path d="M98.31,157.84H94.14v12.31H92.49V157.84H88.31v-1.46h10Z" fill="#fff"/><path d="M107.42,165v.37H99.78c.06,2.28,1.22,3.64,3.29,3.64a3.23,3.23,0,0,0,2.91-1.63l1.34.73a4.86,4.86,0,0,1-4.31,2.28c-3.15,0-4.88-2.38-4.88-5.37s1.61-5.33,4.74-5.33C105.82,159.69,107.42,162.09,107.42,165Zm-7.62-.87h6c-.12-1.89-1.15-3.11-2.92-3.11S99.94,162.28,99.8,164.13Z" fill="#fff"/><path d="M118,162.28l-1.39.57a2.87,2.87,0,0,0-2.74-1.79c-2,0-3.26,1.52-3.26,4s1.2,4,3.24,4a3,3,0,0,0,2.93-2.16l1.44.61a4.61,4.61,0,0,1-4.45,2.93c-3.11,0-4.84-2.32-4.84-5.33s1.85-5.35,4.86-5.35A4.41,4.41,0,0,1,118,162.28Z" fill="#fff"/><path d="M121.62,161.48a3.63,3.63,0,0,1,3.17-1.79c2.3,0,3.52,1.47,3.52,3.93v6.53H126.7V164c0-1.75-.49-2.95-2.24-2.95-1.56,0-2.84,1.28-2.84,3.39v5.7H120V156.38h1.61Z" fill="#fff"/><path d="M139.23,163.62v6.53h-1.61v-6c0-1.91-.49-3.11-2.24-3.11-1.56,0-2.84,1.28-2.84,3.39v5.7h-1.61V159.9h1.61v1.6a3.56,3.56,0,0,1,3.17-1.81C138,159.69,139.23,161.16,139.23,163.62Z" fill="#fff"/><path d="M151.06,165c0,3.11-1.77,5.33-4.9,5.33s-4.9-2.3-4.9-5.33,1.85-5.35,4.9-5.35S151.06,162.07,151.06,165Zm-8.13,0c0,2.46,1.18,4,3.23,4s3.22-1.51,3.22-4-1.26-3.94-3.22-3.94S142.93,162.58,142.93,165Z" fill="#fff"/><path d="M154.79,170.15h-1.61V156.38h1.61Z" fill="#fff"/><path d="M166.72,165c0,3.11-1.77,5.33-4.9,5.33s-4.9-2.3-4.9-5.33,1.85-5.35,4.9-5.35S166.72,162.07,166.72,165Zm-8.13,0c0,2.46,1.18,4,3.23,4s3.22-1.51,3.22-4-1.25-3.94-3.22-3.94S158.59,162.58,158.59,165Z" fill="#fff"/><path d="M177.69,160.67a2.69,2.69,0,0,0-1.67.41,3,3,0,0,1,.67,2c0,2-1.61,3.23-4.15,3.23a5.09,5.09,0,0,1-2.14-.44,1.34,1.34,0,0,0-.46.87c0,.67.42,1,1.4,1h2.14c3,0,4,1.28,4,2.88,0,1.83-1.79,3-4.78,3-3.43,0-4.67-1.21-4.67-2.77a2.41,2.41,0,0,1,1.6-2.16,1.75,1.75,0,0,1-1.12-1.68,2.1,2.1,0,0,1,1-1.67,2.8,2.8,0,0,1-1.18-2.32c0-1.79,1.38-3.36,4.11-3.36a5.08,5.08,0,0,1,2.64.63,3,3,0,0,1,2.55-1.09Zm-6.9,8.38c-1,.51-1.24,1-1.24,1.63,0,1,.83,1.74,3.19,1.74,2.08,0,3.18-.69,3.18-1.76s-.66-1.61-2.91-1.61Zm-.83-6c0,1.28.95,2.07,2.54,2.07s2.6-.77,2.6-2.07-.81-2.1-2.56-2.1S170,161.79,170,163Z" fill="#fff"/><path d="M181.18,157.15a1.08,1.08,0,1,1-1.07-1.05A1.07,1.07,0,0,1,181.18,157.15Zm-.26,13h-1.61V159.9h1.61Z" fill="#fff"/><path d="M192.33,165v.37H184.7c.06,2.28,1.22,3.64,3.28,3.64a3.25,3.25,0,0,0,2.92-1.63l1.33.73a4.86,4.86,0,0,1-4.3,2.28c-3.15,0-4.88-2.38-4.88-5.37s1.61-5.33,4.74-5.33C190.74,159.69,192.33,162.09,192.33,165Zm-7.61-.87h5.94c-.12-1.89-1.14-3.11-2.91-3.11S184.86,162.28,184.72,164.13Z" fill="#fff"/><path d="M201.91,161.18l-1,1a4.53,4.53,0,0,0-3.07-1.12c-1.49,0-2.32.61-2.32,1.48s.67,1.32,2.79,1.65c2.5.4,3.84,1.14,3.84,3.13,0,1.77-1.5,3.09-4.33,3.09a6,6,0,0,1-4.56-1.75l1-1a4.68,4.68,0,0,0,3.48,1.42c1.85,0,2.72-.71,2.72-1.67s-.59-1.48-3-1.85-3.54-1.34-3.54-2.91c0-1.77,1.57-2.89,3.93-2.89A5.47,5.47,0,0,1,201.91,161.18Z" fill="#fff"/><path d="M218.74,166.24c0,2.26-1.62,3.91-4.94,3.91h-5.16V156.38h4.45c3.36,0,4.88,1.24,4.88,3.48a2.81,2.81,0,0,1-2.32,2.86A3.36,3.36,0,0,1,218.74,166.24Zm-8.46-8.4v4.3h3.5c1.43,0,2.5-.7,2.5-2.2s-1-2.1-3-2.1Zm3.62,10.86c1.86,0,3.08-.93,3.08-2.56,0-2-1.41-2.64-3-2.64h-3.71v5.2Z" fill="#fff"/><path d="M228.67,170.15h-1.61v-1.47a3.75,3.75,0,0,1-3.13,1.69c-2.16,0-3.46-1.22-3.46-3.6V159.9h1.61v6.53c0,1.76.63,2.52,2.16,2.52s2.82-1.1,2.82-3.2V159.9h1.61Z" fill="#fff"/><path d="M238.9,161.18l-1,1a4.53,4.53,0,0,0-3.07-1.12c-1.5,0-2.32.61-2.32,1.48s.67,1.32,2.79,1.65c2.5.4,3.84,1.14,3.84,3.13,0,1.77-1.5,3.09-4.33,3.09a6.08,6.08,0,0,1-4.57-1.75l1.05-1a4.66,4.66,0,0,0,3.48,1.42c1.85,0,2.71-.71,2.71-1.67s-.59-1.48-3.05-1.85-3.54-1.34-3.54-2.91c0-1.77,1.58-2.89,3.94-2.89A5.47,5.47,0,0,1,238.9,161.18Z" fill="#fff"/><path d="M243,157.15a1.07,1.07,0,1,1-1.06-1.05A1.07,1.07,0,0,1,243,157.15Zm-.25,13H241.1V159.9h1.62Z" fill="#fff"/><path d="M253.74,163.62v6.53h-1.62v-6c0-1.91-.49-3.11-2.24-3.11-1.55,0-2.83,1.28-2.83,3.39v5.7h-1.62V159.9h1.62v1.6a3.54,3.54,0,0,1,3.16-1.81C252.52,159.69,253.74,161.16,253.74,163.62Z" fill="#fff"/><path d="M265.05,165v.37h-7.64c.06,2.28,1.22,3.64,3.29,3.64a3.23,3.23,0,0,0,2.91-1.63l1.34.73a4.86,4.86,0,0,1-4.31,2.28c-3.15,0-4.88-2.38-4.88-5.37s1.62-5.33,4.74-5.33C263.46,159.69,265.05,162.09,265.05,165Zm-7.62-.87h5.95c-.12-1.89-1.14-3.11-2.92-3.11S257.57,162.28,257.43,164.13Z" fill="#fff"/><path d="M274.63,161.18l-1,1A4.53,4.53,0,0,0,270.6,161c-1.5,0-2.32.61-2.32,1.48s.66,1.32,2.79,1.65c2.5.4,3.84,1.14,3.84,3.13,0,1.77-1.5,3.09-4.33,3.09a6.08,6.08,0,0,1-4.57-1.75l1.05-1a4.66,4.66,0,0,0,3.48,1.42c1.85,0,2.71-.71,2.71-1.67s-.59-1.48-3.05-1.85-3.54-1.34-3.54-2.91c0-1.77,1.58-2.89,3.94-2.89A5.47,5.47,0,0,1,274.63,161.18Z" fill="#fff"/><path d="M284.35,161.18l-1,1a4.53,4.53,0,0,0-3.07-1.12c-1.5,0-2.33.61-2.33,1.48s.67,1.32,2.8,1.65c2.5.4,3.83,1.14,3.83,3.13,0,1.77-1.49,3.09-4.32,3.09a6.07,6.07,0,0,1-4.57-1.75l1-1a4.7,4.7,0,0,0,3.49,1.42c1.85,0,2.71-.71,2.71-1.67s-.59-1.48-3.05-1.85-3.54-1.34-3.54-2.91c0-1.77,1.57-2.89,3.94-2.89A5.47,5.47,0,0,1,284.35,161.18Z" fill="#fff"/></svg>