<?xml version="1.0" encoding="UTF-8" standalone="no"?>
<!-- Generator: Adobe Illustrator 16.0.0, SVG Export Plug-In . SVG Version: 6.00 Build 0)  -->

<svg
   xmlns:dc="http://purl.org/dc/elements/1.1/"
   xmlns:cc="http://creativecommons.org/ns#"
   xmlns:rdf="http://www.w3.org/1999/02/22-rdf-syntax-ns#"
   xmlns:svg="http://www.w3.org/2000/svg"
   xmlns="http://www.w3.org/2000/svg"
   xmlns:sodipodi="http://sodipodi.sourceforge.net/DTD/sodipodi-0.dtd"
   xmlns:inkscape="http://www.inkscape.org/namespaces/inkscape"
   version="1.1"
   id="svg2"
   sodipodi:docname="Activision.svg"
   inkscape:version="0.91 r13725"
   x="0px"
   y="0px"
   width="1000"
   height="257.771"
   viewBox="216.015 0.002 1000 257.771"
   enable-background="new 216.015 0.002 1009.087 244.23"
   xml:space="preserve"><metadata
   id="metadata5308"><rdf:RDF><cc:Work
       rdf:about=""><dc:format>image/svg+xml</dc:format><dc:type
         rdf:resource="http://purl.org/dc/dcmitype/StillImage" /><dc:title></dc:title></cc:Work></rdf:RDF></metadata><defs
   id="defs5306" />
<sodipodi:namedview
   showgrid="false"
   inkscape:cy="-53.201758"
   inkscape:cx="477.06946"
   inkscape:zoom="0.5"
   borderopacity="1.0"
   bordercolor="#666666"
   pagecolor="#ffffff"
   id="base"
   inkscape:window-maximized="1"
   inkscape:window-y="-8"
   inkscape:current-layer="svg2"
   inkscape:window-x="-8"
   inkscape:pageshadow="2"
   inkscape:document-units="px"
   inkscape:pageopacity="0.0"
   inkscape:window-height="705"
   inkscape:window-width="1366">
	</sodipodi:namedview>
<g
   id="g4192"
   transform="matrix(2.6858977,0,0,2.6858977,251.10894,-896.49681)">
	
	<path
   id="path47"
   inkscape:connector-curvature="0"
   d="m 115.089,360.121 14.857,0 0,56.668 -14.857,0 0,-56.668 z" />
	<path
   id="path49"
   inkscape:connector-curvature="0"
   d="m 332.457,392.629 0,23.944 -14.947,-0.054 0,-58.147 26.919,23.169 0,-21.419 14.82,0 0,58.759 -26.792,-26.252" />
	<path
   id="path51"
   inkscape:connector-curvature="0"
   d="m 40.374,388.302 c 0,-16.083 13.054,-29.136 29.136,-29.136 7.248,0 13.883,2.668 18.986,7.049 l -9.628,10.926 c -2.524,-2.128 -5.788,-3.408 -9.358,-3.408 -8.041,0 -14.568,6.527 -14.568,14.568 0,8.041 6.527,14.568 14.568,14.568 3.624,0 6.942,-1.334 9.502,-3.534 l 9.61,10.944 c -5.103,4.453 -11.791,7.14 -19.112,7.14 -16.083,0.001 -29.136,-13.035 -29.136,-29.117" />
	<path
   id="path53"
   inkscape:connector-curvature="0"
   d="m 158.235,429.752 -28.109,-74.68 -23.493,0 0,61.933 -15.38,0 0,-61.933 -34.04,0 7.897,-14.875 75.996,0 17.128,44.75 17.147,-44.75 73.58,0 8.113,14.875 -70.713,0 -28.126,74.68" />
	<path
   id="path55"
   inkscape:connector-curvature="0"
   d="m 205.726,416.573 0,-12.513 10.205,0 c 1.659,0 4.814,-0.126 5.607,-2.758 1.641,-5.481 -15.163,-14.37 -15.163,-28 0,-10.313 7.464,-13.396 12.531,-13.396 l 15.469,0 0,12.296 -9.556,0 c 0,0 -2.74,0 -3.498,1.1 -4.147,5.932 15.362,14.604 15.362,30.542 0,8.33 -7.14,12.729 -14.262,12.729 l -16.695,0" />
	<path
   id="path57"
   inkscape:connector-curvature="0"
   d="m 186.578,359.905 14.875,0 0,56.668 -14.875,0 0,-56.668 z" />
	<path
   id="path59"
   inkscape:connector-curvature="0"
   d="m 239.099,359.905 14.875,0 0,56.668 -14.875,0 0,-56.668 z" />
	
	<path
   id="path63"
   sodipodi:nodetypes="cccccccccccc"
   inkscape:connector-curvature="0"
   d="m 29.087,416.789 -3.949,-10.547 -18.444,0 -3.948,10.547 -15.812,0 28.992,-83.009 28.992,83.009 -15.831,0 m -17.886,-25.693 8.781,0 -4.399,-14.496 -4.382,14.496" />
	<path
   id="path65"
   inkscape:connector-curvature="0"
   d="m 256.678,388.284 c 0,-16.101 13.072,-29.172 29.19,-29.172 16.101,0 29.172,13.071 29.172,29.172 0,16.119 -13.072,29.19 -29.172,29.19 -16.118,0 -29.19,-13.072 -29.19,-29.19 m 14.694,0 c 0,8.005 6.491,14.496 14.496,14.496 7.987,0 14.478,-6.491 14.478,-14.496 0,-7.987 -6.491,-14.478 -14.478,-14.478 -8.005,0 -14.496,6.49 -14.496,14.478" />
</g>
</svg>