<?xml version="1.0" encoding="UTF-8" standalone="no"?>
<svg
   xmlns:dc="http://purl.org/dc/elements/1.1/"
   xmlns:cc="http://creativecommons.org/ns#"
   xmlns:rdf="http://www.w3.org/1999/02/22-rdf-syntax-ns#"
   xmlns:svg="http://www.w3.org/2000/svg"
   xmlns="http://www.w3.org/2000/svg"
   xmlns:xlink="http://www.w3.org/1999/xlink"
   xmlns:sodipodi="http://sodipodi.sourceforge.net/DTD/sodipodi-0.dtd"
   xmlns:inkscape="http://www.inkscape.org/namespaces/inkscape"
   width="600"
   height="130"
   style="animation-delay: 0s; animation-direction: normal; animation-duration: 0s; animation-fill-mode: none; animation-iteration-count: 1; animation-name: none; animation-play-state: running; animation-timing-function: ease; background-attachment: scroll; background-blend-mode: normal; background-clip: border-box; background-color: rgba(0, 0, 0, 0); background-image: none; background-origin: padding-box; background-position: 0% 0%; background-repeat: repeat; background-size: auto; border-bottom-color: rgb(0, 0, 0); border-bottom-left-radius: 0px; border-bottom-right-radius: 0px; border-bottom-style: none; border-bottom-width: 0px; border-collapse: separate; border-image-outset: 0px; border-image-repeat: stretch; border-image-slice: 100%; border-image-source: none; border-image-width: 1; border-left-color: rgb(0, 0, 0); border-left-style: none; border-left-width: 0px; border-right-color: rgb(0, 0, 0); border-right-style: none; border-right-width: 0px; border-top-color: rgb(0, 0, 0); border-top-left-radius: 0px; border-top-right-radius: 0px; border-top-style: none; border-top-width: 0px; bottom: auto; box-shadow: none; box-sizing: content-box; break-after: auto; break-before: auto; break-inside: auto; caption-side: top; clear: none; clip: auto; color: rgb(0, 0, 0); content: normal; cursor: auto; direction: ltr; display: block; empty-cells: show; float: none; font-family: &quot;Times New Roman&quot;; font-kerning: auto; font-size: 16px; font-stretch: 100%; font-style: normal; font-variant: normal; font-variant-ligatures: normal; font-variant-caps: normal; font-variant-numeric: normal; font-variant-east-asian: normal; font-weight: 400; height: 130px; image-rendering: auto; isolation: auto; justify-items: normal; justify-self: auto; left: auto; letter-spacing: normal; line-height: normal; list-style-image: none; list-style-position: outside; list-style-type: disc; margin-bottom: 0px; margin-left: 0px; margin-right: 0px; margin-top: 0px; max-height: none; max-width: none; min-height: 0px; min-width: 0px; mix-blend-mode: normal; object-fit: fill; object-position: 50% 50%; offset-distance: 0px; offset-path: none; offset-rotate: auto 0deg; opacity: 1; orphans: 2; outline-color: rgb(0, 0, 0); outline-offset: 0px; outline-style: none; outline-width: 0px; overflow-anchor: auto; overflow-wrap: normal; overflow-x: visible; overflow-y: visible; padding-bottom: 0px; padding-left: 0px; padding-right: 0px; padding-top: 0px; pointer-events: auto; position: static; resize: none; right: auto; scroll-behavior: auto; speak: normal; table-layout: auto; tab-size: 8; text-align: start; text-align-last: auto; text-decoration: none solid rgb(0, 0, 0); text-decoration-line: none; text-decoration-style: solid; text-decoration-color: rgb(0, 0, 0); text-decoration-skip-ink: auto; text-underline-position: auto; text-indent: 0px; text-rendering: auto; text-shadow: none; text-size-adjust: auto; text-overflow: clip; text-transform: none; top: auto; touch-action: auto; transition-delay: 0s; transition-duration: 0s; transition-property: all; transition-timing-function: ease; unicode-bidi: normal; vertical-align: baseline; visibility: visible; white-space: normal; widows: 2; width: 600px; will-change: auto; word-break: normal; word-spacing: 0px; word-wrap: normal; z-index: auto; zoom: 1; -webkit-appearance: none; backface-visibility: visible; -webkit-border-horizontal-spacing: 0px; -webkit-border-image: none; -webkit-border-vertical-spacing: 0px; -webkit-box-align: stretch; -webkit-box-decoration-break: slice; -webkit-box-direction: normal; -webkit-box-flex: 0; -webkit-box-ordinal-group: 1; -webkit-box-orient: horizontal; -webkit-box-pack: start; -webkit-box-reflect: none; column-count: auto; column-gap: normal; column-rule-color: rgb(0, 0, 0); column-rule-style: none; column-rule-width: 0px; column-span: none; column-width: auto; align-content: normal; align-items: normal; align-self: auto; flex-basis: auto; flex-grow: 0; flex-shrink: 1; flex-direction: row; flex-wrap: nowrap; justify-content: normal; -webkit-font-smoothing: auto; grid-auto-columns: auto; grid-auto-flow: row; grid-auto-rows: auto; grid-column-end: auto; grid-column-start: auto; grid-template-areas: none; grid-template-columns: none; grid-template-rows: none; grid-row-end: auto; grid-row-start: auto; row-gap: normal; -webkit-highlight: none; hyphens: manual; -webkit-hyphenate-character: auto; -webkit-line-break: auto; -webkit-line-clamp: none; -webkit-locale: auto; -webkit-margin-before-collapse: collapse; -webkit-margin-after-collapse: collapse; -webkit-mask-box-image: none; -webkit-mask-box-image-outset: 0px; -webkit-mask-box-image-repeat: stretch; -webkit-mask-box-image-slice: 0 fill; -webkit-mask-box-image-source: none; -webkit-mask-box-image-width: auto; -webkit-mask-clip: border-box; -webkit-mask-composite: source-over; -webkit-mask-image: none; -webkit-mask-origin: border-box; -webkit-mask-position: 0% 0%; -webkit-mask-repeat: repeat; -webkit-mask-size: auto; order: 0; perspective: none; perspective-origin: 300px 65px; -webkit-print-color-adjust: economy; -webkit-rtl-ordering: logical; shape-outside: none; shape-image-threshold: 0; shape-margin: 0px; -webkit-tap-highlight-color: rgba(0, 0, 0, 0.18); -webkit-text-combine: none; -webkit-text-decorations-in-effect: none; -webkit-text-emphasis-color: rgb(0, 0, 0); -webkit-text-emphasis-position: over right; -webkit-text-emphasis-style: none; -webkit-text-fill-color: rgb(0, 0, 0); -webkit-text-orientation: vertical-right; -webkit-text-security: none; -webkit-text-stroke-color: rgb(0, 0, 0); -webkit-text-stroke-width: 0px; transform: none; transform-origin: 300px 65px; transform-style: flat; -webkit-user-drag: auto; -webkit-user-modify: read-only; user-select: auto; -webkit-writing-mode: horizontal-tb; -webkit-app-region: none; buffered-rendering: auto; clip-path: none; clip-rule: nonzero; mask: none; filter: none; flood-color: rgb(0, 0, 0); flood-opacity: 1; lighting-color: rgb(255, 255, 255); stop-color: rgb(0, 0, 0); stop-opacity: 1; color-interpolation: sRGB; color-interpolation-filters: linearRGB; color-rendering: auto; fill: rgb(0, 0, 0); fill-opacity: 1; fill-rule: nonzero; marker-end: none; marker-mid: none; marker-start: none; mask-type: luminance; shape-rendering: auto; stroke: none; stroke-dasharray: none; stroke-dashoffset: 0px; stroke-linecap: butt; stroke-linejoin: miter; stroke-miterlimit: 4; stroke-opacity: 1; stroke-width: 1px; alignment-baseline: auto; baseline-shift: 0px; dominant-baseline: auto; text-anchor: start; writing-mode: horizontal-tb; vector-effect: none; paint-order: fill stroke markers; d: none; cx: 0px; cy: 0px; x: 0px; y: 0px; r: 0px; rx: auto; ry: auto; caret-color: rgb(0, 0, 0); line-break: auto;"
   version="1.1"
   mask="none"
   clip-path="none"
   id="svg29"
   sodipodi:docname="saved0.svg"
   inkscape:version="0.92.2 (5c3e80d, 2017-08-06)">
  <metadata
     id="metadata35" />
  <defs
     id="defs33" />
  <sodipodi:namedview
     pagecolor="#ffffff"
     bordercolor="#666666"
     borderopacity="1"
     objecttolerance="10"
     gridtolerance="10"
     guidetolerance="10"
     inkscape:pageopacity="0"
     inkscape:pageshadow="2"
     inkscape:window-width="1920"
     inkscape:window-height="1137"
     id="namedview31"
     showgrid="false"
     inkscape:zoom="1.4802102"
     inkscape:cx="260.37869"
     inkscape:cy="83.459126"
     inkscape:window-x="-8"
     inkscape:window-y="-8"
     inkscape:window-maximized="1"
     inkscape:current-layer="layer1" />
  <style
     type="text/css"
     id="style2" />
  <svg
     id="svg2"
     version="1.1"
     inkscape:version="0.48.2 r9819"
     sodipodi:docname="ModernWarfare3Logo.svg">
    <defs
       id="defs4">
      <linearGradient
         id="linearGradient3799">
        <stop
           style="stop-color:#000000;stop-opacity:1;"
           offset="0"
           id="stop3801" />
        <stop
           style="stop-color:#4f4f4f;stop-opacity:1;"
           offset="1"
           id="stop3803" />
      </linearGradient>
      <linearGradient
         id="linearGradient3992">
        <stop
           style="stop-color:#2e2e2e;stop-opacity:1;"
           offset="0"
           id="stop3994" />
        <stop
           style="stop-color:#656565;stop-opacity:1;"
           offset="1"
           id="stop3996" />
      </linearGradient>
      <linearGradient
         id="linearGradient3898">
        <stop
           style="stop-color:#668c1c;stop-opacity:0.46043167;"
           offset="0"
           id="stop3900" />
        <stop
           style="stop-color:#4c6815;stop-opacity:0.30935252;"
           offset="1"
           id="stop3902" />
      </linearGradient>
      <linearGradient
         id="linearGradient3833">
        <stop
           style="stop-color:#ebf2dc;stop-opacity:1;"
           offset="0"
           id="stop3835" />
        <stop
           style="stop-color:#86b133;stop-opacity:1;"
           offset="1"
           id="stop3837" />
      </linearGradient>
      <radialGradient
         inkscape:collect="always"
         xlink:href="#linearGradient3833"
         id="radialGradient3839"
         cx="288.45312"
         cy="886.26636"
         fx="288.45312"
         fy="886.26636"
         r="163.45312"
         gradientTransform="matrix(-1.0308057,-1.5915244e-8,0,-0.53410669,609.93879,1433.1345)"
         gradientUnits="userSpaceOnUse" />
      <radialGradient
         inkscape:collect="always"
         xlink:href="#linearGradient3898"
         id="radialGradient3904"
         cx="288.45312"
         cy="733.27313"
         fx="288.45312"
         fy="733.27313"
         r="163.45312"
         gradientTransform="matrix(-1.7135616,0.00982422,-0.0030602,-0.53376694,809.12584,1353.9573)"
         gradientUnits="userSpaceOnUse" />
      <radialGradient
         inkscape:collect="always"
         xlink:href="#linearGradient3833"
         id="radialGradient4004"
         gradientUnits="userSpaceOnUse"
         gradientTransform="matrix(-1.0308057,-1.5915244e-8,0,-0.53410669,609.93879,1433.1345)"
         cx="288.45312"
         cy="886.26636"
         fx="288.45312"
         fy="886.26636"
         r="163.45312" />
      <radialGradient
         inkscape:collect="always"
         xlink:href="#linearGradient3898"
         id="radialGradient4006"
         gradientUnits="userSpaceOnUse"
         gradientTransform="matrix(-1.7135616,0.00982422,-0.0030602,-0.53376694,809.12584,1353.9573)"
         cx="288.45312"
         cy="733.27313"
         fx="288.45312"
         fy="733.27313"
         r="163.45312" />
    </defs>
    <sodipodi:namedview
       id="base"
       pagecolor="#ffffff"
       bordercolor="#666666"
       borderopacity="1.0"
       inkscape:pageopacity="0.0"
       inkscape:pageshadow="2"
       inkscape:zoom="0.81435133"
       inkscape:cx="299.99999"
       inkscape:cy="64.999998"
       inkscape:document-units="px"
       inkscape:current-layer="layer1"
       showgrid="false"
       showguides="true"
       inkscape:guide-bbox="true"
       inkscape:window-width="1152"
       inkscape:window-height="812"
       inkscape:window-x="-8"
       inkscape:window-y="-8"
       inkscape:window-maximized="1" />
    <metadata
       id="metadata7">
      <rdf:RDF>
        <cc:Work
           rdf:about="">
          <dc:format>image/svg+xml</dc:format>
          <dc:type
             rdf:resource="http://purl.org/dc/dcmitype/StillImage" />
          <dc:title />
        </cc:Work>
      </rdf:RDF>
    </metadata>
    <g
       inkscape:label="Capa 1"
       inkscape:groupmode="layer"
       id="layer1"
       transform="translate(0,-922.36218)">
      <path
         style="font-size:124.22094727px;font-style:normal;font-variant:normal;font-weight:normal;font-stretch:normal;text-align:start;line-height:125%;letter-spacing:0px;word-spacing:0px;writing-mode:lr-tb;text-anchor:start;fill:#000000;fill-opacity:1;stroke:none;font-family:Impact;-inkscape-font-specification:Impact"
         d="m 43.9838,930.85197 c -6.993607,1.1e-4 -13.158591,1.07275 -18.544121,3.16607 -5.38558,2.09352 -9.59215,4.94711 -12.629487,8.59362 -3.0373621,3.64669 -4.8845631,7.43783 -5.4971305,11.37697 -0.6125837,3.93931 -0.9045977,9.86554 -0.9045916,17.7439 l 0,31.93907 c -6.1e-6,10.7147 1.0012324,18.7413 2.9921099,24.076 1.9908612,5.3348 6.0514192,9.5089 12.1771892,12.5252 6.125728,3.0163 13.901506,4.5229 23.345415,4.5229 9.086484,0 16.725521,-1.8014 22.92791,-5.358 6.202259,-3.5565 10.225747,-7.6936 12.038026,-12.4207 1.812121,-4.727 2.713685,-12.7413 2.713774,-24.0413 l 0,-4.24466 -32.252163,0 0,13.70816 c -4.9e-5,5.9877 -0.373195,9.791 -1.113342,11.4118 -0.740243,1.6206 -2.297709,2.4354 -4.696916,2.4354 -2.501393,0 -4.121454,-0.8148 -4.836086,-2.4354 -0.714709,-1.6208 -1.078588,-5.0905 -1.078551,-10.4029 l 0,-50.79628 c -3.7e-5,-5.53733 0.363842,-9.11968 1.078551,-10.78551 0.714632,-1.66562 2.390301,-2.50492 5.044837,-2.50502 2.348161,10e-5 3.868555,0.67973 4.557749,2.05273 0.689097,1.3732 1.043709,4.83068 1.043758,10.36801 l 0,19.066 32.252163,0 0,-10.4028 c -8.9e-5,-10.21938 -0.982781,-17.77507 -2.922526,-22.61477 -1.9399,-4.83953 -6.000463,-8.8661 -12.177194,-12.10762 -6.176865,-3.2413 -14.024505,-4.87076 -23.519374,-4.87087 z m 258.15648,2.26148 0,109.35115 40.14993,0 c 7.61073,0 13.30258,-0.3705 17.08285,-1.1132 3.78013,-0.7429 6.9624,-2.0632 9.53301,-3.9316 2.57044,-1.8682 4.39422,-4.4496 5.42754,-7.7586 1.03319,-3.3089 1.53077,-9.878 1.53085,-19.6923 l 0,-38.27116 c -8e-5,-10.35445 -0.33821,-17.30626 -1.04377,-20.84039 -0.70571,-3.53395 -2.46589,-6.75602 -5.28838,-9.63737 -2.82262,-2.88117 -6.96772,-4.93232 -12.38594,-6.19298 -5.41834,-1.26045 -15.80085,-1.91344 -31.17361,-1.91355 l -23.83248,0 z m 79.98673,0 0,64.71305 c 0,12.3356 0.26073,20.4358 0.76543,24.2848 0.50469,3.8492 2.12982,7.493 4.90567,10.9596 2.7758,3.4664 6.95774,6.2934 12.5599,8.4544 5.6021,2.1609 12.09577,3.2356 19.41392,3.2356 6.61148,0 12.35165,-0.9252 17.22203,-2.7486 4.87027,-1.8233 8.78189,-4.5029 11.75968,-8.0369 2.97764,-3.5341 4.75225,-6.9792 5.35796,-10.3332 0.60557,-3.3539 0.93933,-9.1819 0.93939,-17.4656 l 0,-73.06315 -31.90424,0 0,80.57825 c -6e-5,5.4474 -0.28945,8.9049 -0.86981,10.368 -0.58042,1.4632 -1.87793,2.1919 -3.89669,2.1919 -1.76647,0 -2.93365,-0.6551 -3.51399,-1.9831 -0.58045,-1.3281 -0.86983,-4.3782 -0.8698,-9.1503 l 0,-82.00475 -31.86945,0 z m 75.67254,0 0,21.88414 19.23997,0 0,87.46701 32.56529,0 0,-87.46701 17.43076,0 15.55203,47.87381 0,39.5932 29.8863,0 0,-39.5932 23.51938,-69.75795 -29.64277,0 c -4.18697,17.01754 -7.18925,31.37763 -8.97632,43.03767 -0.5617,-7.38315 -3.14698,-21.74326 -7.79341,-43.03767 l -20.66644,0 -8.97632,0 -62.13847,0 z m -360.618806,0.0347 -15.79557,109.35123 32.217386,0 1.84398,-19.6576 11.13342,0 1.56565,19.6576 31.83465,0 -17.81349,-109.35123 -44.986026,0 z m 65.408906,0 0,109.35123 52.46631,0 0,-21.8842 -19.83144,0 0,-87.46703 -32.63487,0 z m 56.60654,0 0,109.35123 50.20482,0 0,-21.8842 -18.96162,0 0,-87.46703 -31.2432,0 z m 114.77873,18.68334 c 3.47772,9e-5 5.87224,0.32149 7.13235,0.97418 1.26002,0.65288 2.04778,1.66617 2.40066,3.06169 0.35275,1.3957 0.52182,4.58092 0.52187,9.53301 l 0,42.48101 c -5e-5,7.2932 -0.50724,11.7517 -1.56564,13.3948 -1.05849,1.6433 -3.90264,2.4703 -8.48924,2.4703 l 0,-71.91499 z m -212.99647,5.77547 c 1.5759,18.18803 3.15574,33.47545 4.73171,45.85582 l -10.64634,0 c 0.78794,-9.67917 2.76275,-24.96661 5.91463,-45.85582 z m 147.10046,0.24354 c -1.98605,3e-5 -3.72564,0.34147 -5.21878,1.04377 -1.49316,0.70239 -2.67175,1.71588 -3.54877,3.0269 -0.87708,1.31108 -1.39895,2.76484 -1.56565,4.34901 -0.16668,1.58421 -0.27835,4.26347 -0.27835,8.07172 l 0,6.5061 c 0,3.90196 0.10432,6.61535 0.27835,8.17612 0.17396,1.56078 0.72192,3.02234 1.63522,4.34894 0.91329,1.32673 2.11795,2.3288 3.61837,2.99209 1.50039,0.66331 3.19504,0.97408 5.07961,0.97419 1.98603,-1.1e-4 3.72563,-0.34131 5.2188,-1.04374 1.49314,-0.7023 2.67171,-1.71581 3.54879,-3.02692 0.87703,-1.31099 1.3989,-2.76474 1.56564,-4.34893 0.16667,-1.58419 0.2435,-4.26344 0.24354,-8.07175 l 0,-6.5061 c -4e-5,-3.90192 -0.0697,-6.61531 -0.24354,-8.17611 -0.17399,-1.56074 -0.72196,-3.02231 -1.63523,-4.349 -0.91331,-1.32661 -2.11798,-2.29393 -3.61836,-2.95731 -1.50042,-0.66329 -3.19508,-1.00895 -5.07964,-1.00898 z m 12.90784,0.73064 0,37.47089 9.15029,0 0,-15.72591 5.6363,0 0,-7.13235 -5.6363,0 0,-7.09757 6.33213,0 0,-7.51506 -15.48242,0 z m -12.87304,5.67109 c 0.56536,3e-5 0.93212,0.27382 1.11335,0.76542 0.18117,0.4917 0.27831,1.61118 0.27834,3.37482 l 0,17.396 c -3e-5,2.23191 -0.10444,3.65152 -0.27834,4.24461 -0.17397,0.5931 -0.55959,0.9046 -1.18294,0.90459 -0.60887,10e-6 -0.98142,-0.25035 -1.14813,-0.76542 -0.16667,-0.51503 -0.27834,-1.86995 -0.27834,-4.07066 l 0,-17.70912 c 0,-1.95092 0.12902,-3.11597 0.38272,-3.51398 0.2537,-0.39798 0.63494,-0.62623 1.11334,-0.62626 z"
         id="path3026"
         inkscape:connector-curvature="0" />
    </g>
  </svg>
</svg>
