<?xml version="1.0" encoding="iso-8859-1"?>
<!-- Generator: Adobe Illustrator 13.0.0, SVG Export Plug-In . SVG Version: 6.00 Build 14948)  -->
<!DOCTYPE svg PUBLIC "-//W3C//DTD SVG 1.1//EN" "http://www.w3.org/Graphics/SVG/1.1/DTD/svg11.dtd">
<svg version="1.1" id="Layer_1" xmlns="http://www.w3.org/2000/svg" xmlns:xlink="http://www.w3.org/1999/xlink" x="0px" y="0px"
	 width="300px" height="80px" viewBox="0 0 300 80" style="enable-background:new 0 0 300 80;" xml:space="preserve">
<path d="M92.647,32.91c-0.465-8.182,6.973-15.995,19.459-20.35l8.292,0.268c-8.728,2.785-14.518,8.365-15.653,13.33
	c-1.357,5.929,5.412,20.562,2.464,27.304c-2.429,5.561-7.415,10.252-18.773,14.484l-7.025-0.256
	c8.752-3.174,14.232-8.381,14.872-13.066C97.061,48.924,92.864,36.702,92.647,32.91"/>
<path d="M268.466,21.503l-24.977,38.124h5.06c0,0,6.764-10.01,12.565-18.637h7.338c-0.701,8.627-1.577,18.637-1.577,18.637h12.963
	l2.768-38.124H268.466 M262.798,38.628c3.633-5.411,6.608-10.009,6.495-9.925c0.113-0.084-0.196,4.514-0.626,9.925H262.798z"/>
<path d="M196.888,39.237l2.951,20.382h-12.83l-1.507-21.237c5.391,0,9.521-3.049,11.006-6.566c1.654-3.905,2.218-7.549-2.912-7.549
	l-3.13-0.014l-14.73,35.447h-12.552l16.213-38.08l20.273-0.046c7.861,0,12.555,2.475,9.787,9.021
	C207.725,34.688,204.397,38.181,196.888,39.237"/>
<polyline points="111.303,59.646 127.505,21.506 139.976,21.506 123.853,59.646 111.303,59.646 "/>
<polyline points="146.159,56.813 157.856,56.813 156.659,59.646 132.343,59.646 148.545,21.506 172.661,21.506 171.524,24.203 
	159.997,24.217 154.554,37.125 164.631,37.125 163.493,39.833 153.181,39.797 146.159,56.813 "/>
<path d="M237.976,39.188l2.95,20.375H228.1l-1.51-21.23c5.394,0,9.52-3.049,11.009-6.57c1.648-3.908,2.215-7.549-2.915-7.549
	l-3.126-0.011l-14.738,35.443h-12.552l16.224-38.08l20.263-0.042c7.861,0,12.559,2.468,9.791,9.021
	C248.813,34.635,245.489,38.132,237.976,39.188"/>
<polyline points="289.102,27.914 287.749,27.914 287.749,22.573 285.785,22.573 285.785,21.422 291.063,21.422 291.063,22.573 
	289.102,22.573 289.102,27.914 "/>
<polyline points="298.101,27.914 296.837,27.914 296.837,22.489 296.822,22.489 295.611,27.914 294.28,27.914 293.091,22.489 
	293.069,22.489 293.069,27.914 291.813,27.914 291.813,21.422 293.788,21.422 294.964,26.538 294.981,26.538 296.143,21.422 
	298.101,21.422 298.101,27.914 "/>
<linearGradient id="SVGID_1_" gradientUnits="userSpaceOnUse" x1="1.9604" y1="40.4043" x2="78.1152" y2="40.4043">
	<stop  offset="0" style="stop-color:#FFE7B2"/>
	<stop  offset="1" style="stop-color:#FEC015"/>
</linearGradient>
<path style="fill:url(#SVGID_1_);" d="M61.921,9.261c-1.883-1.325-3.885-2.488-5.996-3.461H24.152
	c-2.112,0.973-4.115,2.136-5.998,3.461c-0.339,0.239-0.682,0.472-1.012,0.722h45.792C62.603,9.733,62.26,9.5,61.921,9.261z
	 M74.948,25.238c-0.515-1.184-1.074-2.341-1.7-3.461H60.377l2.422,3.018H44.041l-2.797-2.651l-9.453,2.876l0.836-3.243H6.832
	c-0.628,1.12-1.188,2.277-1.704,3.461c-0.105,0.242-0.222,0.477-0.323,0.722h70.465C75.17,25.715,75.053,25.48,74.948,25.238z
	 M78.015,37.755h-9.089l1.359,3.077H49.486l-1.737-2.883l-25.714,3.186l3.553-3.38H2.061c-0.057,0.876-0.101,1.76-0.101,2.651
	c0,0.27,0.013,0.54,0.021,0.811c0.007,0.238,0.008,0.479,0.019,0.717h76.074c0.011-0.238,0.012-0.479,0.019-0.717
	c0.008-0.271,0.021-0.541,0.021-0.811C78.115,39.515,78.071,38.631,78.015,37.755z M72.113,19.915
	c-0.768-1.199-1.587-2.359-2.48-3.461H50.625l5.672,3.045H39.506l-2.195-2.345l-4.31,2.647l0.762-3.348h-23.32
	c-0.894,1.102-1.712,2.262-2.48,3.461c-0.155,0.241-0.322,0.473-0.472,0.718h65.093C72.436,20.388,72.268,20.156,72.113,19.915z
	 M77.929,36.607c-0.024-0.242-0.064-0.478-0.092-0.718c-0.14-1.169-0.322-2.324-0.564-3.457H66.354l1.365,3.024H46.765l-0.53-2.419
	l-18.662,2.852l-0.623,0.095l0.057-0.095l2.06-3.457H2.804c-0.243,1.133-0.424,2.288-0.561,3.457
	c-0.028,0.24-0.068,0.477-0.091,0.718h75.775H77.929z M51.396,4.057c-3.588-1.119-7.401-1.729-11.36-1.729
	c-3.954,0-7.767,0.609-11.356,1.729c-0.599,0.187-1.193,0.384-1.778,0.599h26.272C52.589,4.441,51.995,4.244,51.396,4.057z
	 M76.81,30.565c-0.312-1.174-0.666-2.335-1.085-3.461H64.159l1.362,3.06h-19.51l-0.606-2.647l-15.432,3.024l1.143-3.436H4.354
	c-0.422,1.125-0.776,2.287-1.088,3.461c-0.064,0.24-0.139,0.477-0.198,0.718h73.94C76.949,31.042,76.874,30.806,76.81,30.565z
	 M68.659,15.306c-0.217-0.248-0.456-0.476-0.679-0.718c-1.129-1.225-2.317-2.397-3.601-3.461H15.697
	c-1.282,1.064-2.47,2.236-3.602,3.461c-0.224,0.243-0.463,0.471-0.681,0.718h0.001H68.659z M57.05,59.584L9.226,62.768
	c0.067,0.09,0.133,0.184,0.199,0.277c0.046,0.064,0.092,0.131,0.139,0.193h60.949c0.048-0.063,0.091-0.129,0.139-0.193
	c0.233-0.318,0.461-0.639,0.687-0.965H57.581L57.05,59.584z M56.524,54.439l-41.741,2.754l-1.821,0.119l0.152-0.119l4.386-3.461
	H4.365c0.443,1.186,0.959,2.334,1.517,3.461C6,57.432,6.107,57.676,6.229,57.912H73.85c0.123-0.238,0.242-0.479,0.363-0.719
	c0.068-0.135,0.139-0.27,0.204-0.404H56.903L56.524,54.439z M55.235,48.768l-36.301,2.951l0.685-3.313H2.811
	c0.25,1.176,0.572,2.326,0.93,3.461c0.076,0.24,0.141,0.482,0.221,0.721h72.152c0.08-0.24,0.156-0.48,0.233-0.721
	c0.048-0.15,0.1-0.301,0.146-0.451H55.841L55.235,48.768z M73.237,46.121H53.873l-2.646-2.57l-31.384,2.795l0.76-3.264H2.064
	c0.082,1.17,0.228,2.318,0.412,3.457c0.039,0.24,0.067,0.484,0.111,0.723h74.901c0.043-0.238,0.072-0.482,0.11-0.723
	c0.184-1.139,0.331-2.287,0.413-3.457h-6.667L73.237,46.121z M36.214,77.469l-3.378,0.324c2.333,0.447,4.737,0.688,7.2,0.688
	c2.995,0,5.902-0.355,8.694-1.012c1.887-0.441,3.722-1.018,5.491-1.727c0-0.002,0.001-0.002,0.001-0.002h-0.001L36.214,77.469z
	 M58.544,66.984l-0.358-1.729l-28.085,1.729l-16.296,1.004c0.201,0.193,0.399,0.387,0.605,0.574h51.256
	c0.401-0.359,0.787-0.736,1.169-1.113H58.64L58.544,66.984z M21.047,73.4c0.136,0.076,0.272,0.154,0.407,0.234
	c0.146,0.086,0.291,0.174,0.439,0.254h36.289c0.146-0.08,0.285-0.172,0.43-0.254c0.551-0.313,1.101-0.629,1.635-0.965l-1.305-2.496
	L21.047,73.4z"/>
</svg>
