<?xml version="1.0" encoding="UTF-8" standalone="no"?>
<svg
   xmlns:dc="http://purl.org/dc/elements/1.1/"
   xmlns:cc="http://creativecommons.org/ns#"
   xmlns:rdf="http://www.w3.org/1999/02/22-rdf-syntax-ns#"
   xmlns:svg="http://www.w3.org/2000/svg"
   xmlns="http://www.w3.org/2000/svg"
   viewBox="0 0 962.85333 125.57333"
   height="125.57333"
   width="962.85333"
   xml:space="preserve"
   id="svg2"
   version="1.1"><metadata
     id="metadata8"><rdf:RDF><cc:Work
         rdf:about=""><dc:format>image/svg+xml</dc:format><dc:type
           rdf:resource="http://purl.org/dc/dcmitype/StillImage" /></cc:Work></rdf:RDF></metadata><defs
     id="defs6" /><g
     transform="matrix(1.3333333,0,0,-1.3333333,0,125.57333)"
     id="g10"><g
       transform="scale(0.1)"
       id="g12"><path
         id="path14"
         style="fill:#3ea09d;fill-opacity:1;fill-rule:nonzero;stroke:none"
         d="M 920.895,626.469 H 75.7227 V 928.281 H 678.613 c 88.371,0 154.239,-25.816 195.801,-76.73 66.223,-81.145 50.457,-201.051 46.481,-225.082" /><path
         id="path16"
         style="fill:#3ea09d;fill-opacity:1;fill-rule:nonzero;stroke:none"
         d="M 874.363,265.543 C 874.016,263.434 828.48,0 576.367,0 H 32.2617 C 32.4492,0.015625 17.6484,0.761719 8.14844,12.2266 1.00391,20.8203 -1.45703,33.2617 0.824219,49.2266 6.49609,88.8984 48.6875,414.293 70.9414,586.301 H 384.859 L 340.672,291.066 H 581.02 l 43.812,295.235 H 915.488 L 874.363,265.543" /><path
         id="path18"
         style="fill:#3ea09d;fill-opacity:1;fill-rule:nonzero;stroke:none"
         d="m 5511.95,323.832 h -250.58 l -1.63,-17.738 c -1.2,-12.973 -3.83,-37.227 -9.69,-79.114 C 5211.61,6.39453 4960.23,0 4931.69,0 h -0.35 l 74.33,620.242 h 813.72 c -19.57,-151.648 -125.91,-296.41 -307.44,-296.41" /><path
         id="path20"
         style="fill:#3ea09d;fill-opacity:1;fill-rule:nonzero;stroke:none"
         d="m 5010.16,657.688 33.46,279.222 h 545.91 c 73.43,0 134.19,-27.898 175.72,-80.664 37.06,-47.141 57.5,-112.836 57.5,-184.988 0,-4.52 -0.12,-9.051 -0.27,-13.57 h -812.32" /><path
         id="path22"
         style="fill:#3ea09d;fill-opacity:1;fill-rule:nonzero;stroke:none"
         d="m 1782.9,658.301 h -705.26 v 279.472 h 859.09 c -1.1,-162.441 -82.86,-241.429 -153.83,-279.472" /><path
         id="path24"
         style="fill:#3ea09d;fill-opacity:1;fill-rule:nonzero;stroke:none"
         d="m 1296.61,324.156 v -37.445 h 338.12 l 7.41,-2.625 c 42.46,-15.113 76.84,-37.582 102.16,-66.789 41.2,-47.481 57.1,-111.977 47.28,-191.6564 C 1789.11,10.8828 1764.73,0 1732.41,0 l -529.7,0.09375 c -9.41,1.19922 -81.17,12.41795 -131.79,79.17575 -45.49,59.9925 -59.22,145.7145 -40.8,254.7695 22.35,154 43.83,268.035 46.98,284.453 h 709.33 l 68.53,-0.277 c 1.75,-0.68 5.27,-2.535 8.35,-7.164 6.19,-9.317 7.2,-24.934 2.95,-45.16 -4.14,-19.645 -44.85,-190.473 -213.3,-241.735 h -356.35" /><path
         id="path26"
         style="fill:#3ea09d;fill-opacity:1;fill-rule:nonzero;stroke:none"
         d="m 6229.87,662.391 h -155.41 c -58.21,0 -95.23,25.867 -108.09,43.175 -63.56,85.598 -44.64,216.036 -41.26,236.047 h 346.69 l -41.93,-279.222" /><path
         id="path28"
         style="fill:#3ea09d;fill-opacity:1;fill-rule:nonzero;stroke:none"
         d="M 6130.71,2.15234 C 6125.22,1.47656 6110.79,0 6091.3,0 c -46.24,0 -131.33,8.67188 -181.56,66.6641 -36.02,41.6089 -48.65,101.8319 -37.52,179.0239 37.81,262.257 51.49,360.953 53.87,378.445 h 148.95 l -1.34,0.812 h 150.54 L 6130.71,2.15234" /><path
         id="path30"
         style="fill:#3ea09d;fill-opacity:1;fill-rule:nonzero;stroke:none"
         d="m 6370.05,658.699 v 279.227 h 605.26 c 88.83,0 154.8,-25.992 196.07,-77.223 52.69,-65.418 52.75,-154.633 48.11,-202.004 h -849.44" /><path
         id="path32"
         style="fill:#3ea09d;fill-opacity:1;fill-rule:nonzero;stroke:none"
         d="m 6565.69,1.50781 h -285.13 l 88.89,619.75019 h 286.02 L 6565.69,1.50781" /><path
         id="path34"
         style="fill:#3ea09d;fill-opacity:1;fill-rule:nonzero;stroke:none"
         d="M 7120.09,2.48828 C 7113.58,1.62891 7098.51,0 7078.32,0 c -45.28,0 -128.85,8.79297 -179.65,67.6914 -39.44,45.7466 -52.83,113.4996 -39.79,201.4176 32.61,219.957 45.95,305.575 51,337.024 l 2.19,15.125 h 301.7 L 7120.09,2.48828" /><path
         id="path36"
         style="fill:#3ea09d;fill-opacity:1;fill-rule:nonzero;stroke:none"
         d="m 4722.05,643.559 h -642.64 l 0.01,0.324 c 10.76,283.808 292.07,297.426 304.02,297.887 l 548.33,-0.016 C 4930.48,742.379 4810.98,669.891 4722.05,643.559" /><path
         id="path38"
         style="fill:#3ea09d;fill-opacity:1;fill-rule:nonzero;stroke:none"
         d="m 4827.72,305.266 -0.15,-3.477 C 4799.81,14.543 4530.97,0 4477.33,0 c -7.38,0 -12.18,0.214844 -13.73,0.308594 l -1.21,0.046875 H 3992.21 C 3993.65,198.16 4126.03,269.621 4220.76,295.426 h 344.66 v 37.445 h -302.58 l -13.09,5.688 c -73.72,32 -162.49,104.472 -170,267.343 h 593.83 l 14.33,-6.703 c 74.16,-34.722 158.63,-113.914 139.81,-293.933" /><path
         id="path40"
         style="fill:#3ea09d;fill-opacity:1;fill-rule:nonzero;stroke:none"
         d="m 3069.69,638.211 v 281.484 h 606.71 c 89.73,0 156.41,-26.023 198.18,-77.375 55.08,-67.695 52.55,-162.007 48.03,-204.109 h -852.92" /><path
         id="path42"
         style="fill:#3ea09d;fill-opacity:1;fill-rule:nonzero;stroke:none"
         d="M 3873.44,263.086 C 3871.76,252.895 3827.2,0 3573.51,0 H 3026 c 0.17,0.015625 -14.91,0.769531 -24.48,12.3125 -7.15,8.6367 -9.52,20.5508 -7.22,36.4453 5.92,40.7305 51.65,388.0822 72.98,550.3792 h 316.37 L 3336.4,288.371 h 241.75 l 46.84,310.766 h 292.21 l -43.76,-336.051" /><path
         id="path44"
         style="fill:#3ea09d;fill-opacity:1;fill-rule:nonzero;stroke:none"
         d="M 2253.9,0.417969 H 1960.27 L 2002.99,276.844 h 286.07 L 2253.9,0.417969" /><path
         id="path46"
         style="fill:#3ea09d;fill-opacity:1;fill-rule:nonzero;stroke:none"
         d="m 2055.96,646.852 c 26.18,267.082 306.14,285.281 318.61,285.925 h 245.81 c 109.05,0 188.89,-30.511 237.29,-90.687 51.94,-64.543 55.76,-146.82 52.38,-195.238 h -854.09" /><path
         id="path48"
         style="fill:#3ea09d;fill-opacity:1;fill-rule:nonzero;stroke:none"
         d="m 2904.98,607.348 -0.21,-1 -30.76,-306.754 C 2872.69,287.465 2838.22,0 2573.48,0 c -12.31,0 -25.1,0.632813 -38.08,1.89063 l 36.78,274.95337 2.44,18.261 2.45,18.278 h -568.43 l 45.16,292.242 v 1.477 c 0,1.105 0.1,2.121 0.11,3.226 h 851.65 c -0.23,-1.226 -0.44,-2.273 -0.58,-2.98" /></g></g></svg>