<?xml version="1.0" encoding="UTF-8" standalone="no"?>
<svg
   xmlns:dc="http://purl.org/dc/elements/1.1/"
   xmlns:cc="http://creativecommons.org/ns#"
   xmlns:rdf="http://www.w3.org/1999/02/22-rdf-syntax-ns#"
   xmlns:svg="http://www.w3.org/2000/svg"
   xmlns="http://www.w3.org/2000/svg"
   viewBox="0 0 860.98669 161.22667"
   height="161.22667"
   width="860.98669"
   xml:space="preserve"
   id="svg2"
   version="1.1"><metadata
     id="metadata8"><rdf:RDF><cc:Work
         rdf:about=""><dc:format>image/svg+xml</dc:format><dc:type
           rdf:resource="http://purl.org/dc/dcmitype/StillImage" /></cc:Work></rdf:RDF></metadata><defs
     id="defs6" /><g
     transform="matrix(1.3333333,0,0,-1.3333333,0,161.22667)"
     id="g10"><g
       transform="scale(0.1)"
       id="g12"><path
         id="path14"
         style="fill:#f6bb0a;fill-opacity:1;fill-rule:nonzero;stroke:none"
         d="M 5853.57,1028.29 5890.04,465.902 5628.5,461 l -30.48,574.44 -198.8,5.61 28.7,-657.886 c 4.03,-94.016 69.58,-168.465 145.48,-165.547 l 396.23,15.274 c 70.22,2.746 121.11,77.664 114.53,166.597 l -45.93,623.652 -184.66,5.15" /><path
         id="path16"
         style="fill:#f6bb0a;fill-opacity:1;fill-rule:nonzero;stroke:none"
         d="m 6245.94,1009.88 c -6.79,81.93 -64.65,150 -129.81,152.6 l -59.73,2.41 21.95,-302.394 179.44,-2.59 -11.85,149.974" /><path
         id="path18"
         style="fill:#f6bb0a;fill-opacity:1;fill-rule:nonzero;stroke:none"
         d="m 6444.4,1004.47 c -7.39,80.54 -64.01,147.44 -126.97,149.94 l -57.73,2.36 24.45,-297.266 173.24,-2.504 -12.99,147.47" /><path
         id="path20"
         style="fill:#f6bb0a;fill-opacity:1;fill-rule:nonzero;stroke:none"
         d="m 4611.25,1063.09 5.74,-882.488 77.6,3.089 c 86,3.25 153.54,86.481 151.88,185.051 l -10.65,688.058 -224.57,6.29" /><path
         id="path22"
         style="fill:#f6bb0a;fill-opacity:1;fill-rule:nonzero;stroke:none"
         d="m 4864.05,748.23 240.61,-1.015 c 78.66,-0.356 114.23,-35.93 143.65,-91.867 L 5538.54,27.4414 C 5506.28,-14.8711 5326.29,2.82813 5252.34,171.281 l -153.84,342.274 -13.54,-0.235 -11.72,-0.351 c -82.9,-1.199 -211.7,78.597 -209.19,235.261" /><path
         id="path24"
         style="fill:#f6bb0a;fill-opacity:1;fill-rule:nonzero;stroke:none"
         d="m 4384.82,1069.46 -373.99,10.44 c -178.03,4.95 -224.82,-153.013 -196.37,-255.724 l 489.07,-4.555 -3.06,-383.754 -336.71,-6.453 1.61,67.766 98.74,1.398 c 176.93,2.418 219.72,151.422 190.73,251.934 l -1.02,-0.024 0.47,0.375 -368.43,1.602 c -95.64,0.39 -177.06,-83 -180.8,-187.207 l -1.15,-33.281 v 0 l -6.85,-191.875 c -3.8,-107.414 73.93,-192.141 172.28,-188.34 l 511.7,19.738 c 90.08,3.5 162.04,88.781 161.66,189.676 l -1.57,532.226 c -0.34,95.172 -69.88,173.648 -156.31,176.058" /><path
         id="path26"
         style="fill:#f6bb0a;fill-opacity:1;fill-rule:nonzero;stroke:none"
         d="m 3167.57,327.023 c -6.68,-111.558 74.86,-199.472 180.82,-195.293 l 94.66,3.59 30.91,652.207 -278.29,1.786 -28.1,-462.29" /><path
         id="path28"
         style="fill:#f6bb0a;fill-opacity:1;fill-rule:nonzero;stroke:none"
         d="m 3581.49,826.438 c 186.74,-1.786 233.98,158.179 205.67,259.782 l -631.07,17.64 c -200.98,5.68 -238.47,-162.446 -210.64,-271.426 l 636.04,-5.996" /><path
         id="path30"
         style="fill:#f6bb0a;fill-opacity:1;fill-rule:nonzero;stroke:none"
         d="m 2705.81,1116.51 -591.96,16.59 c -230.76,6.45 -307.49,-173.127 -280.7,-290.194 l 747.29,-7.066 -38.36,-433.266 -431.11,-8.136 44.09,401.828 -332.31,2.183 -63.29,-506.433 C 1744.29,169.512 1836.5,73.1914 1963.72,78.1797 L 2621,103.469 c 115.04,4.519 214.1,101.39 222.57,215.488 l 44.61,599.426 c 7.98,106.807 -73.08,195.037 -182.37,198.127" /><path
         id="path32"
         style="fill:#f6bb0a;fill-opacity:1;fill-rule:nonzero;stroke:none"
         d="M 596.109,1134.27 386.918,10.8789 518.273,15.9219 C 663.035,21.4492 795.961,129.059 817.117,254.977 l 147.832,868.983 -368.84,10.31" /><path
         id="path34"
         style="fill:#f6bb0a;fill-opacity:1;fill-rule:nonzero;stroke:none"
         d="m 937.688,736.305 393.952,-1.692 c 127.77,-0.547 177.31,-45.168 212.3,-115.172 L 1788.73,25.8906 C 1726.96,-28.4688 1438.25,-9.60938 1356.31,203.512 l -89.35,237.027 -22.14,-0.316 -19.15,-0.133 c -136.51,-1.922 -329.721,98.262 -287.982,296.215" /><path
         id="path36"
         style="fill:#f6bb0a;fill-opacity:1;fill-rule:nonzero;stroke:none"
         d="m 478.828,824.059 57.399,311.911 -199.965,5.58 C 57.7109,1149.35 -19.1484,955.074 3.82031,828.531 L 478.828,824.059" /><path
         id="path38"
         style="fill:#f6bb0a;fill-opacity:1;fill-rule:nonzero;stroke:none"
         d="m 1167.28,753.977 499.22,110.957 c 93.64,58.527 133.77,269.456 67.85,331.246 l -483.83,-119.65 c -82.46,-45.16 -176.88,-176.885 -83.24,-322.553" /><path
         id="path40"
         style="fill:#f6bb0a;fill-opacity:1;fill-rule:nonzero;stroke:none"
         d="m 4990,766.039 263.81,146.609 c 91.39,79.661 117.25,210.992 39.02,296.542 L 5007.99,1025.8 C 4906.54,955.57 4921.74,851.164 4990,766.039" /></g></g></svg>