<?xml version="1.0" encoding="UTF-8" standalone="no"?>
<!-- Created with Inkscape (http://www.inkscape.org/) -->
<svg id="svg2" xmlns:rdf="http://www.w3.org/1999/02/22-rdf-syntax-ns#" xmlns="http://www.w3.org/2000/svg" height="237.67mm" width="1088.1mm" version="1.1" xmlns:cc="http://creativecommons.org/ns#" xmlns:dc="http://purl.org/dc/elements/1.1/" viewBox="0 0 3855.4969 842.12625">
 <metadata id="metadata7">
  <rdf:RDF>
   <cc:Work rdf:about="">
    <dc:format>image/svg+xml</dc:format>
    <dc:type rdf:resource="http://purl.org/dc/dcmitype/StillImage"/>
    <dc:title/>
   </cc:Work>
  </rdf:RDF>
 </metadata>
 <g id="layer1" transform="translate(1852 -247.38)">
  <path id="path3361" d="m608.5 1005.9c-34.1-37.139-62.15-67.957-62.333-68.484-0.2123-0.61029 239.46-0.95819 660.1-0.95819h660.43l46.9 51.243c25.795 28.184 54.019 59.009 62.721 68.5l15.822 17.257-660.82-0.016-660.82-0.016-62-67.526zm-343.33-113.01-90.33-98.43h-10.92-10.92v44.5 44.5h-61-61v-148.5-148.5h61 61v51 51h34.394c36.09 0 48.603-0.78884 65.106-4.1042 49.457-9.9359 78.844-36.362 86.623-77.896 1.7106-9.1334 1.4444-31.882-0.4751-40.615-6.2285-28.338-21.827-45.63-51.825-57.454-6.2968-2.4819-21.984-6.481-30.823-7.8579-20.788-3.2379-26.484-3.4201-124.74-3.9905l-100.24-0.58193 51.677-54.338 51.677-54.338 57.559 0.46643c60.096 0.48699 65.38 0.80798 94.038 5.7133 85.846 14.694 141.32 55.774 163.95 121.42 4.4301 12.848 8.2613 29.84 10.163 45.077 1.8656 14.946 1.5918 50.327-0.5095 65.841-8.2666 61.032-36.629 107.07-85.585 138.91-8.6693 5.6393-27.883 15.575-38.263 19.786l-5.7627 2.338 2.8568 3.0607c1.5713 1.6834 41.692 45.586 89.158 97.561s88.356 96.638 90.868 99.25l4.5671 4.75-80.962-0.0701-80.962-0.0701-90.33-98.43zm-1916.2-3.09c-20.693-1.2614-47.321-7.2002-66.083-14.738-24.036-9.6572-42.272-21.777-60.937-40.499-15.216-15.263-23.677-26.967-33.301-46.068-15.38-30.527-21.736-59.534-21.728-99.168 0-20.935 1.0294-31.677 4.6993-49.229 6.8693-32.853 22.583-64.747 43.527-88.344 30.566-34.438 75.237-56.543 125.82-62.26 23.173-2.619 61.631-0.74977 83.139 4.041 28.624 6.3758 55.572 19.578 75.8 37.135l4.2234 3.6656-31.223 32.834c-17.172 18.059-32.236 33.901-33.475 35.206l-2.2525 2.3712-9.6182-6.031c-10.026-6.2866-22.166-11.267-34.094-13.986-11.109-2.5325-35.596-2.227-46.877 0.58485-46.378 11.56-73.692 53.175-71.339 108.69 1.3294 31.365 10.606 55.848 28.167 74.34 16.56 17.438 36.11 25.828 62.549 26.845 16.85 0.64774 29.158-1.5799 41.413-7.4952 19.013-9.1776 30.542-22.309 36.473-41.545 3.6524-11.845 8.2685-10.585-39.877-10.884l-41.991-0.26085 43.041-45.25 43.041-45.25h51.544 51.545l-0.4566 40.25c-0.3559 31.378-0.8316 42.565-2.1581 50.75-7.2142 44.516-24.36 78.538-53.578 106.31-36.26 34.466-88.124 51.512-146 47.984zm775.71-0.3836c-26.344-2.7841-54.129-10.601-75.152-21.142-53.469-26.81-88.622-75.087-99.589-136.77-2.7622-15.535-3.853-52.104-2.0329-68.158 1.6949-14.951 5.4456-32.713 9.5748-45.342 4.7595-14.556 16.808-38.689 25.213-50.5 8.6891-12.211 30.093-33.609 42.272-42.261 20.153-14.317 49.876-26.893 76-32.157 18.196-3.6663 29.112-4.6614 51-4.6492 39.482 0.022 70.678 6.976 101.96 22.728 54.418 27.401 88.768 75.026 100.14 138.84 4.049 22.723 3.7303 61.014-0.7019 84.32-16.509 86.809-79.718 144-170.96 154.67-13.804 1.6147-44.335 1.8387-57.726 0.42347zm49.29-95.55c32.043-6.5916 56.708-28.599 67.866-60.553 10.604-30.37 8.9011-68.575-4.2997-96.443-10.161-21.45-24.38-35.79-45.126-45.512-13.47-6.3121-23.312-8.2667-41.44-8.2298-13.467 0.0274-16.77 0.37188-25.182 2.6263-38.83 10.406-64.221 42.182-69.715 87.245-8.7609 71.855 35.155 125.88 99.897 122.89 5.775-0.26643 13.875-1.1787 18-2.0273zm304.33 95.538c-34.998-4.078-68.783-18.066-92.662-38.365-7.9585-6.7655-19.864-20.354-19.449-22.199 0.4841-2.1506 64.071-68.459 64.849-67.625 0.4019 0.43117 3.47 4.2557 6.8181 8.4989 7.9634 10.093 17.498 17.872 28.619 23.35 13.568 6.6834 19.39 7.9309 37 7.928 12.889-0.002 16.041-0.3288 22.398-2.3212 15.436-4.8381 21.922-11.988 22.872-25.209 0.3793-5.284 0.036-7.5454-1.7917-11.794-4.5542-10.587-15.548-16.709-52.305-29.131-38.185-12.904-56.074-20.918-75.41-33.781-9.8949-6.5824-23.371-18.951-29.919-27.461-13.957-18.138-21.33-41.509-21.339-67.639-0.01-29.143 10.183-54.124 30.496-74.734 27.119-27.517 62.808-40.467 111.61-40.5 40.038-0.027 68.119 7.5488 95.771 25.837 9.0647 5.9951 28.385 23.821 27.909 25.75-0.1606 0.65117-14.635 16.267-32.166 34.702l-31.874 33.518-10.126-10.188c-7.6407-7.6868-11.845-11.055-17.126-13.721-10.581-5.3414-15.307-6.3208-30.5-6.3208-15.084 0-19.113 1.1481-26.36 7.511-7.1727 6.2977-10.279 17.063-7.6423 26.482 2.8747 10.267 13.125 16.365 50.271 29.904 26.966 9.8283 40.055 15.223 54.676 22.535 41.986 20.998 62.801 43.301 71.813 76.949 2.3231 8.6735 2.5786 11.437 2.5989 28.119 0.021 16.923-0.2038 19.339-2.6317 28.337-13.811 51.188-59.707 84.581-125.94 91.629-11.224 1.1945-39.984 1.1591-50.464-0.062zm268.67-150.17v-151.74h-42-42v-45-45h168.61 168.61l-10.359 10.816c-5.6976 5.949-24.974 26.199-42.837 45l-32.478 34.184h-30.272-30.272l-0.037 95.75-0.037 95.75-49.501 52c-27.226 28.6-51.284 53.793-53.463 55.985l-3.9619 3.9853v-151.74zm1211.5 150.14c-30.187-2.3132-60.834-10.539-85.785-23.024-19.527-9.771-35.189-21.369-50.99-37.757-27.543-28.568-44.192-63.87-50.374-106.81-2.3329-16.204-2.3297-47.651 0.01-63.738 12.633-86.994 70.831-147.36 159.11-165.04 17.951-3.5947 29.691-4.5869 54.075-4.5701 42.511 0.0293 76.048 5.6738 108.16 18.204 5.6287 2.1964 10.466 4.3686 10.749 4.8273 0.2835 0.45869-8.9894 20.624-20.606 44.812l-21.122 43.978-6.1277-2.7716c-33.852-15.312-75.505-19.169-107-9.9084-17.885 5.2589-36.506 17.515-47.013 30.944-15.759 20.141-22.924 42.66-22.898 71.973 0.021 23.44 4.7631 41.616 15.346 58.812 23.417 38.051 70.797 54.587 124.89 43.587 12.148-2.4705 31.017-9.2476 42.197-15.155 0.6221-0.32874 28.852 84.458 28.852 86.655 0 2.6877-24.034 12.34-42.729 17.16-28.919 7.4565-58.943 10.102-88.74 7.8185zm295.13-0.34533c-51.964-6.5715-93.947-26.94-125-60.644-24.767-26.882-40.461-60.823-47.342-102.39-2.5431-15.362-2.5805-56.158-0.066-72 14.534-91.575 76.946-151.68 170.28-163.99 15.862-2.0923 48.017-2.0946 63.96-0.005 77.014 10.095 133.49 52.19 159.82 119.12 18.589 47.257 18.985 111.01 0.9905 159.37-24.245 65.17-79.063 107.92-153.31 119.55-14.418 2.2591-54.718 2.8291-69.335 0.98061zm42.8-93.63c43.301-5.3064 72.345-32.917 82.15-78.095 2.8395-13.084 2.5803-41.927-0.5014-55.796-8.8126-39.661-32.912-66.088-69.098-75.772-8.2253-2.2012-11.701-2.5638-25.05-2.6132-18.474-0.0684-28.096 1.9175-42.44 8.76-28.633 13.658-46.456 39.592-52.664 76.625-1.7816 10.629-1.571 34.558 0.4007 45.516 8.9908 49.966 44.231 80.936 93.703 82.35 2.475 0.0707 8.55-0.36771 13.5-0.97432zm-2723.5-105.89v-194h53 53v74.5 74.5h68.5 68.5v-74.5-74.5h53.502 53.503l-0.2526 193.75-0.2525 193.75h-53-53l-0.2564-74.25-0.2564-74.25h-68.494-68.494v74.5 74.5h-53-53v-194zm1922 0v-194h140.5 140.5v45.5 45.5h-87.5-87.5v28 28h69.5 69.5v42.993 42.993l-69.25 0.25684-69.25 0.25685-0.264 31.75-0.2641 31.75h87.514 87.514v45.5 45.5h-140.5-140.5v-194zm1017 0v-194h51.887 51.887l76.863 116.12 76.863 116.12 0.2542-116.12 0.2541-116.12h49.496 49.496v194 194h-51.862-51.862l-76.888-116.48c-42.288-64.065-77.226-116.49-77.638-116.5-0.4125-0.01-0.75 52.408-0.75 116.48v116.5h-49-49v-194zm-3062-352v-41h-28.5-28.5v-14.5-14.5h71.5 71.5v14.5 14.5h-28.5-28.5v41 41h-14.5-14.5v-41zm119.7 39.558c-9.0231-3.2186-16.285-10.797-18.71-19.523-0.5726-2.061-0.9843-21.577-0.9875-46.814l-0.01-43.28 60.75 0.27969 60.75 0.27969 5.7388 2.8181c3.3861 1.6627 7.173 4.5682 9.2369 7.0869 6.3211 7.7142 6.5243 9.1472 6.5243 46.024v33.178l-2.5839 5.1852c-3.3318 6.6861-10.282 12.793-16.744 14.712-7.0612 2.097-98.11 2.1434-103.97 0.053zm92.716-28.165c1.3833-0.53082 1.5818-3.7057 1.5818-25.3 0-17.872-0.3315-25.024-1.2-25.893-0.8946-0.89459-11.711-1.2-42.5-1.2h-41.3v25.3c0 18.344 0.3299 25.63 1.2 26.5 0.893 0.89305 11.36 1.2 40.918 1.2 21.845 0 40.43-0.27314 41.3-0.60699zm44.582-25.893v-55.5l15.75 0.007 15.75 0.007 26 41.468c14.3 22.807 26.225 41.477 26.5 41.488 0.275 0.0112 12.2-18.636 26.5-41.437l26-41.458 15.75-0.0371 15.75-0.0379v55.5 55.5h-14.485-14.485l-0.2649-29.674-0.2649-29.674-18.506 29.424-18.506 29.424h-17.409-17.41l-18.835-29.919-18.835-29.919v30.169 30.169h-14.5-14.5v-55.5zm240.7 54.056c-5.4496-1.9438-11.14-6.1424-14.077-10.386-5.5403-8.0066-5.6213-8.8102-5.6213-55.795v-43.374h71.5c67.42 0 71.501 0.0999 71.523 1.75 0.013 0.9625-0.7496 7.4875-1.6936 14.5l-1.7162 12.75h-55.306-55.306v25.3c0 18.344 0.3299 25.63 1.2 26.5 0.9038 0.90376 14.555 1.2 55.298 1.2h54.098l2.0033 14.5 2.0032 14.5-60.051-0.0439c-47.924-0.035-60.819-0.31775-63.853-1.4zm137.3-54.06v-55.5h14.5 14.5v41 41h34c18.7 0 34 0.29676 34 0.65947s-3.8696 6.8877-8.5991 14.5l-8.5991 13.841h-39.901-39.901v-55.5zm88 54.937c0-1.0168 57.275-89.824 61.022-94.618 4.9241-6.2991 8.6888-9.3283 15.64-12.585l5.8375-2.7347 34.25-0.32016 34.25-0.32015v55.57 55.57h-14.5-14.5v-14.5-14.5h-34.427-34.427l-1.8226 2.4065c-1.0024 1.3236-5.3178 7.8486-9.5897 14.5l-7.767 12.093h-16.983c-9.3406 0-16.983-0.25332-16.983-0.56294zm122-69.437v-12h-16.066c-16.163 0-19.018 0.51559-21.675 3.9133-1.8036 2.3071-12.26 19.022-12.26 19.598 0 0.26859 11.25 0.48835 25 0.48835h25v-12zm46 14.5v-55.5h14.333 14.333l42.417 35.991c23.329 19.795 42.754 35.995 43.167 36 0.4125 0.005 0.75-16.204 0.75-36.019v-36.027l14.25 0.27745 14.25 0.27746 0.2585 55.25 0.2584 55.25-14.758-0.0238-14.758-0.0238-42.5-36.1-42.5-36.1-0.2625 36.124-0.2624 36.124h-14.488-14.488v-55.5zm179.7 54.058c-9.0231-3.2186-16.285-10.797-18.71-19.523-0.5725-2.0608-0.9843-21.567-0.9875-46.785l-0.006-43.25h71.5c67.42 0 71.501 0.0999 71.523 1.75 0.013 0.9625-0.7496 7.4875-1.6936 14.5l-1.7162 12.75h-55.306-55.306v25.378c0 20.009 0.2839 25.613 1.3419 26.491 0.9406 0.78059 17.461 1.1911 55.235 1.3724l53.893 0.25876 1.6903 11.5c0.9297 6.325 1.7239 12.738 1.7649 14.25l0.074 2.75-59.75-0.0439c-47.636-0.035-60.52-0.31852-63.547-1.3984zm194.28-19.808-0.013-21.25-25.576-30.5c-14.067-16.775-26.924-32.188-28.571-34.25l-2.995-3.75h18.862 18.862l15.472 18.572c8.5098 10.214 16.182 19.483 17.049 20.596 1.5187 1.9497 2.208 1.2678 18.771-18.572l17.194-20.596h18.479c10.164 0 18.479 0.24614 18.479 0.54698s-12.825 15.875-28.5 34.61l-28.5 34.063v20.89 20.89h-14.5-14.5l-0.013-21.25zm146.04 20.53c0.013-0.42907 0.9023-6.6301 1.977-13.78 1.0747-7.15 1.9644-13.334 1.977-13.741 0.013-0.40764 23.76-0.85764 52.773-1l52.75-0.25884v-5-5l-45.5-0.5c-44.835-0.49269-45.573-0.53361-50.5-2.7994-5.9501-2.7363-11.848-8.1835-14.835-13.701-1.9464-3.5956-2.1653-5.5166-2.1653-19 0-14.512 0.088-15.15 2.7118-19.613 2.9367-4.9954 7.9217-9.815 13.052-12.618 2.98-1.6285 8.1309-1.7908 64.986-2.048 42.104-0.19041 61.75 0.0503 61.75 0.75658 0 1.1042-2.6005 19.342-3.5311 24.764l-0.5563 3.2415-54.706 0.25852-54.706 0.25852-0.3049 4.7539c-0.2781 4.3352-0.074 4.8416 2.3151 5.75 1.5949 0.6064 19.733 0.99614 46.359 0.99614h43.738l5.1852 2.5839c6.3593 3.169 12.53 9.9796 14.632 16.15 2.1402 6.2812 2.1527 25.215 0.021 31.472-1.9763 5.8002-7.3032 12.039-13.28 15.552l-4.666 2.743-59.75 0.28013c-32.862 0.15408-59.74-0.0709-59.727-0.5zm-54.02-86.86v-9.572l5.6994-6.928 5.6995-6.928h18.956c17.957 0 18.877 0.0922 17.458 1.75-0.8235 0.9625-7.0121 8.3875-13.752 16.5l-12.255 14.75h-10.902-10.902v-9.572z" fill="#cececd"/>
  <path id="path3359" d="m608.5 1005.9c-34.1-37.147-62.15-67.96-62.333-68.473-0.2062-0.57747 251.57-0.93356 660.08-0.93356h660.41l51.419 56.203c28.281 30.912 56.519 61.737 62.752 68.5l11.332 12.296-660.83-0.026-660.83-0.027-62-67.54zm-341.74-111.64c-49.167-53.488-90.199-98.053-91.181-99.034-1.5216-1.5199-3.2869-1.7418-11.93-1.5l-10.145 0.28382-0.2603 44.75-0.2603 44.75h-60.99-60.99v-148-148h60.991 60.991l0.2591 50.75 0.2592 50.75 35.5-0.15341c38.271-0.16539 51.546-1.2577 70.544-5.8048 29.299-7.0127 50.908-20.356 65.094-40.196 15.014-20.997 20.15-54.085 12.862-82.849-5.8496-23.086-24.499-42.148-50.426-51.542-10.932-3.9609-25.457-7.4378-40.073-9.5924-9.9938-1.4732-24.875-1.7717-113.62-2.2789l-102.12-0.58359 51.578-54.25 51.578-54.25 47.04 0.004c58.824 0.005 80.225 1.4548 111.66 7.5636 83.02 16.136 135.57 56.807 157.3 121.73 7.4493 22.265 10.678 45.035 10.664 75.199-0.018 38.102-6.1843 68.012-19.999 97-20.89 43.834-53.584 73.107-107.9 96.612l-3.3272 1.4398 93.077 101.71c51.18 55.93 93.06 101.94 93.06 102.22 0 0.28375-35.966 0.51591-79.924 0.51591h-79.924l-89.395-97.25zm-1917.3-4.86c-30.092-1.6613-57.013-8.9252-83.5-22.53-55.442-28.478-90.547-82.448-97.946-150.58-1.355-12.478-1.355-40.101 0-52.579 8.6845-79.972 55.364-139.95 127.76-164.15 25.546-8.5398 48.728-11.602 81.574-10.775 32.994 0.83055 54.899 5.0511 79.341 15.287 15.877 6.6489 36.573 19.685 44.207 27.845l2.435 2.603-2.9869 3.2386c-6.5866 7.1413-44.364 46.876-53.671 56.453l-9.9273 10.214-5.6425-3.8258c-16.917-11.47-33.753-16.898-55.142-17.776-28.658-1.1768-51.483 6.6887-69.742 24.033-20.09 19.084-29.796 42.775-30.987 75.64-2.1575 59.523 26.747 102.26 75.472 111.58 9.5198 1.8214 27.99 1.8253 37.419 0.008 30.153-5.8121 50.778-24.796 57.296-52.738l1.3592-5.8265-42.293-0.26066-42.293-0.26067 43.037-45.25 43.037-45.25h51.347 51.347l-0.01 31.75c-0.01 17.462-0.4642 37.15-1.0188 43.75-5.8015 69.03-39.584 122.02-95.561 149.9-30.586 15.234-65.288 21.683-104.91 19.496zm777 0.0351c-40.515-4.1789-76.019-17.287-105.54-38.967-11.239-8.2524-29.837-27.224-38.215-38.982-8.4723-11.89-20.557-36.056-25.247-50.486-7.898-24.299-11.032-48.501-10.221-78.919 1.5055-56.415 19.671-101.51 55.226-137.09 28.519-28.542 62.834-45.562 108-53.57 15.28-2.7088 48.824-3.7171 66.105-1.9869 82.751 8.2851 144.96 55.529 169.3 128.57 8.3309 25 11.693 49.931 10.789 80-0.7966 26.494-4.1482 45.241-12.25 68.515-13.126 37.709-40.248 71.719-73.947 92.725-23.021 14.35-51.042 24.251-81.564 28.819-12.511 1.8723-49.684 2.6917-62.436 1.3763zm42-94.407c49.668-8.0781 80.5-48.114 80.5-104.53 0-65.81-41.882-110.05-102-107.74-31.618 1.2145-56.634 14.911-73.499 40.24-13.434 20.177-19.302 43.751-18.172 73 1.1632 30.085 9.9429 53.253 26.975 71.184 8.7957 9.2595 16.891 15.141 27.852 20.237 17.58 8.1727 38.276 10.871 58.344 7.6073zm311.5 94.44c-37.604-4.5822-69.376-17.694-94.5-39-8.2479-6.9944-19-19.117-19-21.422 0-0.71824 12.154-14.072 27.009-29.676 14.855-15.603 29.287-30.79 32.071-33.748l5.0619-5.378 4.5924 6.378c9.1533 12.712 22.169 23.369 35.096 28.734 19.351 8.0318 47.62 8.2956 63.367 0.59144 6.2312-3.0486 12.497-9.8147 14.127-15.254 1.8688-6.2375 1.4705-14.953-0.9078-19.866-4.9615-10.249-16.346-16.388-54.243-29.25-27.658-9.3864-45.25-16.645-59.673-24.621-37.501-20.739-58.058-47.977-63.51-84.152-5.5447-36.785 5.1646-70.395 30.38-95.343 26.222-25.944 63.27-38.927 111.16-38.952 38.146-0.0202 67.854 8.0543 94.225 25.61 9.0882 6.0502 28.749 23.474 28.749 25.478 0 0.47296-14.236 15.832-31.636 34.132s-31.935 33.609-32.3 34.022c-0.3655 0.41266-3.2171-2.3524-6.3368-6.1446-13.746-16.71-29.446-24.147-51.227-24.269-9.0981-0.0509-12.029 0.32901-16.949 2.1974-7.9952 3.0357-14.929 9.5792-17.111 16.147-2.4387 7.3422-1.6481 16.395 1.9 21.757 5.1914 7.8448 13.975 12.239 53.132 26.579 49.653 18.184 75.242 32.096 94.594 51.427 14.951 14.935 23.172 30.198 27.593 51.234 2.1994 10.464 2.4423 34.293 0.4517 44.322-5.8732 29.593-23.631 55.486-49.938 72.817-17.758 11.699-38.894 19.44-65.161 23.865-13.261 2.2341-48.795 3.2739-61.012 1.7852zm1484-0.0564c-46.03-2.573-86.65-16.427-120.04-40.942-10.726-7.8746-30.753-28.111-38.096-38.494-19.03-26.911-30.416-57.144-34.827-92.475-1.3509-10.822-1.3784-44.04-0.045-54.5 4.4403-34.832 14.462-62.693 31.865-88.59 30.416-45.261 78.358-73.784 140.61-83.652 16.028-2.541 65.526-2.5023 84.541 0.0661 16.932 2.287 34.149 5.8745 46.627 9.7157 9.8229 3.0236 27.281 9.648 28.6 10.852 0.6278 0.57298-39.784 85.999-41.49 87.704-0.3454 0.34542-4.829-1.1739-9.9635-3.3763-19.314-8.2844-36.51-12.022-59.274-12.882-18.074-0.68303-28.869 0.40038-42.281 4.2434-37.278 10.682-61.272 37.462-69.811 77.919-2.4187 11.459-2.4411 38.135-0.041 49.296 6.0917 28.333 19.77 49.47 41.511 64.147 33.694 22.746 87.132 24.019 131.69 3.1369l8.136-3.8127 14.228 43.452c7.8251 23.899 14.078 43.601 13.896 43.782-0.1821 0.1815-4.156 2.1802-8.831 4.4414-29.512 14.275-76.226 22.248-117 19.969zm294.5-0.0283c-37.893-3.5637-78.296-18.459-105-38.71-34.151-25.899-56.776-60.464-67.503-103.13-5.1379-20.434-6.4543-32.171-6.4543-57.546 0-25.347 1.3037-37.012 6.4412-57.636 17.923-71.951 71.228-122.86 145.32-138.79 32.333-6.9509 74.086-6.7569 106.42 0.49454 46.232 10.369 84.505 33.927 111.17 68.428 20.728 26.82 33.832 59.527 38.584 96.303 2.0081 15.541 2.0014 46.96-0.013 62.329-10.196 77.779-55.763 134.17-127.49 157.77-30.148 9.9198-66.991 13.727-101.47 10.484zm50.294-95.837c38.301-9.4056 63.472-38.042 70.693-80.427 1.9321-11.341 1.9406-33.433 0.017-45.291-6.864-42.321-33.179-73.002-70.686-82.413-11.864-2.9768-31.604-3.6555-43.144-1.4833-42.598 8.018-70.99 40.058-77.152 87.064-8.4158 64.2 23.2 114.3 78.3 124.08 10.574 1.8763 31.164 1.1272 41.973-1.527zm-1561.8-54.94v-151.07l-41.75-0.26097-41.75-0.26097-0.2603-44.75-0.2603-44.75h168.01c92.406 0 168.01 0.22967 168.01 0.51037 0 0.55915-80.016 84.906-83.234 87.74-1.7984 1.5833-4.835 1.75-31.877 1.75h-29.889v95.537 95.537l-52.532 55.213c-28.892 30.367-52.968 55.363-53.5 55.547-0.62 0.21-0.97-53.76-0.97-150.74zm-1174-49.085v-194.01h53 53v74.5 74.5h69 69v-74.509-74.509l52.75 0.25884 52.75 0.25884v193.5 193.5l-52.744 0.25884-52.744 0.25883-0.2564-74.259-0.2564-74.259-68.744-0.25689-68.744-0.25689-0.2564 74.257-0.2564 74.257-52.75 0.25884-52.75 0.25884v-194.01zm1922.7 193.32c-0.37-0.37-0.67-87.67-0.67-194v-193.33h140.5 140.5v45.5 45.5h-87.5-87.5v28 28h69.5 69.5v43 43h-69.5-69.5v32 32h87.5 87.5v45.5 45.5h-139.83c-76.908 0-140.13-0.3-140.5-0.66667zm1016.8-0.58333c-0.2613-0.6875-0.3597-87.875-0.2186-193.75l0.2565-192.5 51.509-0.25887 51.509-0.25887 76.991 116.45c42.345 64.048 77.329 116.48 77.741 116.51 0.4125 0.0318 0.75-52.367 0.75-116.44v-116.5h49 49v194 194h-51.449-51.449l-2.4575-3.25c-1.3517-1.7875-35.863-53.875-76.691-115.75s-74.845-113.16-75.593-113.96c-1.147-1.2352-1.3598 16.878-1.3598 115.75v117.21h-48.531c-37.905 0-48.635-0.2737-49.006-1.25zm-3062.5-544.75v-41h-28.5-28.5v-14.5-14.5h71.5 71.5v14.5 14.5h-28.5-28.5v41 41h-14.5-14.5v-41zm120.35 39.585c-8.5418-2.7097-15.612-9.5784-18.521-17.994-1.5722-4.5482-1.7635-9.7063-1.7927-48.342l-0.033-43.25h57.79c62.771 0 64.973 0.16762 73.133 5.5675 2.1533 1.425 5.0559 4.2428 6.45 6.2618 5.5606 8.0525 5.6274 8.5662 5.6274 43.273 0 21.013-0.3917 33.473-1.1296 35.937-1.9008 6.344-7.784 13.097-14.326 16.444l-5.8989 3.0178-48.573 0.20161c-37.876 0.15722-49.487-0.0886-52.727-1.1162zm93.619-29.52c0.6275-1.1725 1.0352-10.99 1.0352-24.929 0-19.571-0.234-23.228-1.5714-24.566-1.378-1.378-6.671-1.5714-43-1.5714h-41.429v25.3c0 18.344 0.3299 25.63 1.2 26.5 0.8941 0.89408 11.592 1.2 41.965 1.2 39.28 0 40.803-0.0705 41.8-1.9343zm43.035-24.591v-55.525l15.745 0.2754 15.745 0.27539 25.995 41.253c14.297 22.689 26.343 41.137 26.769 40.995 0.4254-0.14179 12.38-18.706 26.565-41.253l25.791-40.995 15.695-0.27539 15.695-0.2754v55.525 55.525h-14.485-14.485l-0.2646-29.839-0.2647-29.839-18.612 29.589-18.612 29.589-17.039 0.27319-17.039 0.27319-18.849-29.997-18.849-29.997-0.2647 29.974-0.2646 29.974h-14.485-14.485v-55.525zm240.86 53.958c-5.9155-1.8212-13.991-9.0302-17.032-15.204-2.3178-4.7062-2.3299-4.9333-2.6263-49.478l-0.2979-44.75h71.548 71.548l-0.074 2.75c-0.041 1.5125-0.8352 7.925-1.7649 14.25l-1.6904 11.5-55.235 0.25847-55.235 0.25846v25.369c0 20.002 0.2839 25.605 1.3419 26.483 0.9405 0.78059 17.461 1.1911 55.235 1.3724l53.893 0.25876 1.6903 11.5c0.9297 6.325 1.7239 12.738 1.7649 14.25l0.074 2.75-59.25-0.0697c-48.366-0.0569-60.102-0.33205-63.89-1.4981zm137.38-53.682 0.2585-55.25 14.25-0.27746 14.25-0.27745v41.027 41.027h34.083c18.746 0 33.933 0.38594 33.75 0.85764-0.1833 0.47171-4.1211 6.9967-8.7506 14.5l-8.4173 13.642h-39.841-39.841l0.2584-55.25zm87.72 54.83c0-0.22303 13.519-21.486 30.043-47.25 33.002-51.458 36.677-56.122 47.624-60.439 5.5951-2.2065 7.2083-2.3162 39.583-2.6932l33.75-0.39295v55.59 55.59h-14.5-14.5v-14.5-14.5l-34.75 0.002-34.75 0.002-9.3691 14.498-9.3692 14.498h-16.881c-9.28 0-16.88-0.19-16.88-0.41zm122-69.094v-12.5h-16.566c-9.1112 0-17.384 0.43784-18.384 0.97298-1.5591 0.83441-16.05 22.062-16.05 23.512 0 0.28333 11.475 0.51514 25.5 0.51514h25.5v-12.5zm46 14v-55.5l14.25 0.0155 14.25 0.0155 43 36.518 43 36.518 0.2623-36.534 0.2623-36.534h13.988 13.988v55.5 55.5h-14.062-14.062l-42.403-36c-23.322-19.8-42.643-36-42.938-36-0.2941 0-0.5348 16.2-0.5348 36v36h-14.5-14.5v-55.5zm180.35 54.067c-8.7468-2.7358-16.912-11.24-19.268-20.067-0.6769-2.537-1.0693-19.636-1.0728-46.75l-0.006-42.75h71.5c62.234 0 71.5 0.19046 71.5 1.4697 0 1.761-2.8522 22.081-3.5484 25.28l-0.4897 2.25h-54.981-54.981v25.3c0 18.344 0.3299 25.63 1.2 26.5 0.9036 0.90358 14.485 1.2 54.981 1.2h53.781l0.4897 2.25c0.6962 3.1992 3.5484 23.519 3.5484 25.28 0 1.2772-7.7621 1.461-59.25 1.4028-45.645-0.0515-60.204-0.36522-63.404-1.3662zm193.65-19.9v-21.327l-27.985-33.423c-15.392-18.383-27.992-33.76-28-34.173-0.01-0.4125 7.9939-0.75 17.782-0.75h17.797l3.5494 3.75c1.9522 2.0625 9.312 10.725 16.355 19.25 7.0432 8.525 13.358 16.105 14.033 16.844 0.9991 1.094 4.4382-2.4824 18.511-19.25l17.284-20.594h18.396c14.454 0 18.234 0.26786 17.639 1.25-0.4164 0.6875-13.268 16.188-28.559 34.446l-27.81 33.19v21.054 21.054h-14.5-14.5v-21.327zm146.47 18.077c0.6803-3.9626 3.5327-23.538 3.5327-24.243 0-0.27862 22.98-0.50658 51.066-0.50658 33.289 0 51.739-0.36037 53-1.0352 1.4631-0.78299 1.9343-2.1086 1.9343-5.441 0-2.4265-0.5616-4.7692-1.25-5.2148-0.6875-0.44496-21.95-1.034-47.25-1.309l-46-0.5-4.666-2.743c-6.1226-3.5992-11.372-9.8514-13.402-15.96-1.2638-3.805-1.5463-7.6872-1.2451-17.109 0.3444-10.773 0.6934-12.768 3.0079-17.188 3.0905-5.9019 6.6425-9.4082 12.805-12.64l4.5-2.36 61.25-0.27947c33.688-0.15371 61.25-0.0383 61.25 0.25658 0 0.72766-2.8369 20.22-3.5327 24.273l-0.5579 3.25h-53.02c-34.636 0-53.691 0.35894-54.955 1.0352-1.4482 0.77504-1.9343 2.107-1.9343 5.3 0 2.3456 0.54 4.8048 1.2 5.4648 0.8971 0.89707 12.338 1.2 45.322 1.2 48.902 0 49.721 0.0924 57.143 6.4455 2.1441 1.8353 5.2341 5.7484 6.8666 8.6957 2.8943 5.2256 2.9681 5.7069 2.9681 19.359 0 12.516-0.2335 14.436-2.2022 18.116-3.585 6.7012-7.0121 10.085-13.498 13.326l-6.1196 3.058h-58.386-58.386l0.5579-3.25zm-54.47-84.23v-9.4743l6.0468-7.0257 6.0468-7.0257h18.036c11.192 0 17.91 0.3674 17.703 0.96818-0.1833 0.53251-6.1324 7.9575-13.22 16.5l-12.887 15.532h-10.863-10.863v-9.4743z" fill="#eecf99"/>
  <path id="path3357" d="m609.06 1006c-34.13-37.11-62.06-67.71-62.06-67.99 0-0.278 297.11-0.4793 660.25-0.44732l660.25 0.0581 58.5 63.958c32.175 35.177 60.021 65.751 61.88 67.942l3.3795 3.9839h-660.07-660.07l-62.057-67.494zm-342.3-111.74c-49.167-53.488-90.199-98.053-91.181-99.034-1.5216-1.5199-3.2869-1.7418-11.93-1.5l-10.145 0.28382-0.2603 44.75-0.2603 44.75h-60.99-60.99v-148-148h60.991 60.991l0.2591 50.75 0.2592 50.75 35.5-0.15341c38.271-0.16539 51.546-1.2577 70.544-5.8048 29.299-7.0127 50.908-20.356 65.094-40.196 15.014-20.997 20.15-54.085 12.862-82.849-5.8496-23.086-24.499-42.148-50.426-51.542-10.932-3.9609-25.457-7.4378-40.073-9.5924-9.9938-1.4732-24.875-1.7717-113.62-2.2789l-102.12-0.58359 51.578-54.25 51.578-54.25 47.04 0.004c58.824 0.005 80.225 1.4548 111.66 7.5636 83.02 16.136 135.57 56.807 157.3 121.73 7.4493 22.265 10.678 45.035 10.664 75.199-0.018 38.102-6.1843 68.012-19.999 97-20.89 43.834-53.584 73.107-107.9 96.612l-3.3272 1.4398 93.077 101.71c51.18 55.93 93.06 101.94 93.06 102.22 0 0.28375-35.966 0.51591-79.924 0.51591h-79.924l-89.395-97.25zm-1917.3-4.86c-30.092-1.6613-57.013-8.9252-83.5-22.53-55.442-28.478-90.547-82.448-97.946-150.58-1.355-12.478-1.355-40.101 0-52.579 8.6845-79.972 55.364-139.95 127.76-164.15 25.546-8.5398 48.728-11.602 81.574-10.775 32.994 0.83055 54.899 5.0511 79.341 15.287 15.877 6.6489 36.573 19.685 44.207 27.845l2.435 2.603-2.9869 3.2386c-6.5866 7.1413-44.364 46.876-53.671 56.453l-9.9273 10.214-5.6425-3.8258c-16.917-11.47-33.753-16.898-55.142-17.776-28.658-1.1768-51.483 6.6887-69.742 24.033-20.09 19.084-29.796 42.775-30.987 75.64-2.1575 59.523 26.747 102.26 75.472 111.58 9.5198 1.8214 27.99 1.8253 37.419 0.008 30.153-5.8121 50.778-24.796 57.296-52.738l1.3592-5.8265-42.293-0.26066-42.293-0.26067 43.037-45.25 43.037-45.25h51.347 51.347l-0.01 31.75c-0.01 17.462-0.4642 37.15-1.0188 43.75-5.8015 69.03-39.584 122.02-95.561 149.9-30.586 15.234-65.288 21.683-104.91 19.496zm777 0.0351c-40.515-4.1789-76.019-17.287-105.54-38.967-11.239-8.2524-29.837-27.224-38.215-38.982-8.4723-11.89-20.557-36.056-25.247-50.486-7.898-24.299-11.032-48.501-10.221-78.919 1.5055-56.415 19.671-101.51 55.226-137.09 28.519-28.542 62.834-45.562 108-53.57 15.28-2.7088 48.824-3.7171 66.105-1.9869 82.751 8.2851 144.96 55.529 169.3 128.57 8.3309 25 11.693 49.931 10.789 80-0.7966 26.494-4.1482 45.241-12.25 68.515-13.126 37.709-40.248 71.719-73.947 92.725-23.021 14.35-51.042 24.251-81.564 28.819-12.511 1.8723-49.684 2.6917-62.436 1.3763zm42-94.407c49.668-8.0781 80.5-48.114 80.5-104.53 0-65.81-41.882-110.05-102-107.74-31.618 1.2145-56.634 14.911-73.499 40.24-13.434 20.177-19.302 43.751-18.172 73 1.1632 30.085 9.9429 53.253 26.975 71.184 8.7957 9.2595 16.891 15.141 27.852 20.237 17.58 8.1727 38.276 10.871 58.344 7.6073zm311.5 94.44c-37.604-4.5822-69.376-17.694-94.5-39-8.2479-6.9944-19-19.117-19-21.422 0-0.71824 12.154-14.072 27.009-29.676 14.855-15.603 29.287-30.79 32.071-33.748l5.0619-5.378 4.5924 6.378c9.1533 12.712 22.169 23.369 35.096 28.734 19.351 8.0318 47.62 8.2956 63.367 0.59144 6.2312-3.0486 12.497-9.8147 14.127-15.254 1.8688-6.2375 1.4705-14.953-0.9078-19.866-4.9615-10.249-16.346-16.388-54.243-29.25-27.658-9.3864-45.25-16.645-59.673-24.621-37.501-20.739-58.058-47.977-63.51-84.152-5.5447-36.785 5.1646-70.395 30.38-95.343 26.222-25.944 63.27-38.927 111.16-38.952 38.146-0.0202 67.854 8.0543 94.225 25.61 9.0882 6.0502 28.749 23.474 28.749 25.478 0 0.47296-14.236 15.832-31.636 34.132s-31.935 33.609-32.3 34.022c-0.3655 0.41266-3.2171-2.3524-6.3368-6.1446-13.746-16.71-29.446-24.147-51.227-24.269-9.0981-0.0509-12.029 0.32901-16.949 2.1974-7.9952 3.0357-14.929 9.5792-17.111 16.147-2.4387 7.3422-1.6481 16.395 1.9 21.757 5.1914 7.8448 13.975 12.239 53.132 26.579 49.653 18.184 75.242 32.096 94.594 51.427 14.951 14.935 23.172 30.198 27.593 51.234 2.1994 10.464 2.4423 34.293 0.4517 44.322-5.8732 29.593-23.631 55.486-49.938 72.817-17.758 11.699-38.894 19.44-65.161 23.865-13.261 2.2341-48.795 3.2739-61.012 1.7852zm1484-0.0564c-46.03-2.573-86.65-16.427-120.04-40.942-10.726-7.8746-30.753-28.111-38.096-38.494-19.03-26.911-30.416-57.144-34.827-92.475-1.3509-10.822-1.3784-44.04-0.045-54.5 4.4403-34.832 14.462-62.693 31.865-88.59 30.416-45.261 78.358-73.784 140.61-83.652 16.028-2.541 65.526-2.5023 84.541 0.0661 16.932 2.287 34.149 5.8745 46.627 9.7157 9.8229 3.0236 27.281 9.648 28.6 10.852 0.6278 0.57298-39.784 85.999-41.49 87.704-0.3454 0.34542-4.829-1.1739-9.9635-3.3763-19.314-8.2844-36.51-12.022-59.274-12.882-18.074-0.68303-28.869 0.40038-42.281 4.2434-37.278 10.682-61.272 37.462-69.811 77.919-2.4187 11.459-2.4411 38.135-0.041 49.296 6.0917 28.333 19.77 49.47 41.511 64.147 33.694 22.746 87.132 24.019 131.69 3.1369l8.136-3.8127 14.228 43.452c7.8251 23.899 14.078 43.601 13.896 43.782-0.1821 0.1815-4.156 2.1802-8.831 4.4414-29.512 14.275-76.226 22.248-117 19.969zm294.5-0.0283c-37.893-3.5637-78.296-18.459-105-38.71-34.151-25.899-56.776-60.464-67.503-103.13-5.1379-20.434-6.4543-32.171-6.4543-57.546 0-25.347 1.3037-37.012 6.4412-57.636 17.923-71.951 71.228-122.86 145.32-138.79 32.333-6.9509 74.086-6.7569 106.42 0.49454 46.232 10.369 84.505 33.927 111.17 68.428 20.728 26.82 33.832 59.527 38.584 96.303 2.0081 15.541 2.0014 46.96-0.013 62.329-10.196 77.779-55.763 134.17-127.49 157.77-30.148 9.9198-66.991 13.727-101.47 10.484zm50.294-95.837c38.301-9.4056 63.472-38.042 70.693-80.427 1.9321-11.341 1.9406-33.433 0.017-45.291-6.864-42.321-33.179-73.002-70.686-82.413-11.864-2.9768-31.604-3.6555-43.144-1.4833-42.598 8.018-70.99 40.058-77.152 87.064-8.4158 64.2 23.2 114.3 78.3 124.08 10.574 1.8763 31.164 1.1272 41.973-1.527zm-1561.8-54.94v-151.07l-41.75-0.26097-41.75-0.26097-0.2603-44.75-0.2603-44.75h168.01c92.406 0 168.01 0.22967 168.01 0.51037 0 0.55915-80.016 84.906-83.234 87.74-1.7984 1.5833-4.835 1.75-31.877 1.75h-29.889v95.537 95.537l-52.532 55.213c-28.892 30.367-52.968 55.363-53.5 55.547-0.62 0.21-0.97-53.76-0.97-150.74zm-1174-49.085v-194.01h53 53v74.5 74.5h69 69v-74.509-74.509l52.75 0.25884 52.75 0.25884v193.5 193.5l-52.744 0.25884-52.744 0.25883-0.2564-74.259-0.2564-74.259-68.744-0.25689-68.744-0.25689-0.2564 74.257-0.2564 74.257-52.75 0.25884-52.75 0.25884v-194.01zm1922.7 193.32c-0.37-0.37-0.67-87.67-0.67-194v-193.33h140.5 140.5v45.5 45.5h-87.5-87.5v28 28h69.5 69.5v43 43h-69.5-69.5v32 32h87.5 87.5v45.5 45.5h-139.83c-76.908 0-140.13-0.3-140.5-0.66667zm1016.8-0.58333c-0.2613-0.6875-0.3597-87.875-0.2186-193.75l0.2565-192.5 51.509-0.25887 51.509-0.25887 76.991 116.45c42.345 64.048 77.329 116.48 77.741 116.51 0.4125 0.0318 0.75-52.367 0.75-116.44v-116.5h49 49v194 194h-51.449-51.449l-2.4575-3.25c-1.3517-1.7875-35.863-53.875-76.691-115.75s-74.845-113.16-75.593-113.96c-1.147-1.2352-1.3598 16.878-1.3598 115.75v117.21h-48.531c-37.905 0-48.635-0.2737-49.006-1.25zm-3062.5-544.75v-41h-28.5-28.5v-14.5-14.5h71.5 71.5v14.5 14.5h-28.5-28.5v41 41h-14.5-14.5v-41zm120.35 39.585c-8.5418-2.7097-15.612-9.5784-18.521-17.994-1.5722-4.5482-1.7635-9.7063-1.7927-48.342l-0.033-43.25h57.79c62.771 0 64.973 0.16762 73.133 5.5675 2.1533 1.425 5.0559 4.2428 6.45 6.2618 5.5606 8.0525 5.6274 8.5662 5.6274 43.273 0 21.013-0.3917 33.473-1.1296 35.937-1.9008 6.344-7.784 13.097-14.326 16.444l-5.8989 3.0178-48.573 0.20161c-37.876 0.15722-49.487-0.0886-52.727-1.1162zm93.619-29.52c0.6275-1.1725 1.0352-10.99 1.0352-24.929 0-19.571-0.234-23.228-1.5714-24.566-1.378-1.378-6.671-1.5714-43-1.5714h-41.429v25.3c0 18.344 0.3299 25.63 1.2 26.5 0.8941 0.89408 11.592 1.2 41.965 1.2 39.28 0 40.803-0.0705 41.8-1.9343zm43.035-24.591v-55.525l15.745 0.2754 15.745 0.27539 25.995 41.253c14.297 22.689 26.343 41.137 26.769 40.995 0.4254-0.14179 12.38-18.706 26.565-41.253l25.791-40.995 15.695-0.27539 15.695-0.2754v55.525 55.525h-14.485-14.485l-0.2646-29.839-0.2647-29.839-18.612 29.589-18.612 29.589-17.039 0.27319-17.039 0.27319-18.849-29.997-18.849-29.997-0.2647 29.974-0.2646 29.974h-14.485-14.485v-55.525zm240.86 53.958c-5.9155-1.8212-13.991-9.0302-17.032-15.204-2.3178-4.7062-2.3299-4.9333-2.6263-49.478l-0.2979-44.75h71.548 71.548l-0.074 2.75c-0.041 1.5125-0.8352 7.925-1.7649 14.25l-1.6904 11.5-55.235 0.25847-55.235 0.25846v25.369c0 20.002 0.2839 25.605 1.3419 26.483 0.9405 0.78059 17.461 1.1911 55.235 1.3724l53.893 0.25876 1.6903 11.5c0.9297 6.325 1.7239 12.738 1.7649 14.25l0.074 2.75-59.25-0.0697c-48.366-0.0569-60.102-0.33205-63.89-1.4981zm137.38-53.682 0.2585-55.25 14.25-0.27746 14.25-0.27745v41.027 41.027h34.083c18.746 0 33.933 0.38594 33.75 0.85764-0.1833 0.47171-4.1211 6.9967-8.7506 14.5l-8.4173 13.642h-39.841-39.841l0.2584-55.25zm87.72 54.83c0-0.22303 13.519-21.486 30.043-47.25 33.002-51.458 36.677-56.122 47.624-60.439 5.5951-2.2065 7.2083-2.3162 39.583-2.6932l33.75-0.39295v55.59 55.59h-14.5-14.5v-14.5-14.5l-34.75 0.002-34.75 0.002-9.3691 14.498-9.3692 14.498h-16.881c-9.28 0-16.88-0.19-16.88-0.41zm122-69.094v-12.5h-16.566c-9.1112 0-17.384 0.43784-18.384 0.97298-1.5591 0.83441-16.05 22.062-16.05 23.512 0 0.28333 11.475 0.51514 25.5 0.51514h25.5v-12.5zm46 14v-55.5l14.25 0.0155 14.25 0.0155 43 36.518 43 36.518 0.2623-36.534 0.2623-36.534h13.988 13.988v55.5 55.5h-14.062-14.062l-42.403-36c-23.322-19.8-42.643-36-42.938-36-0.2941 0-0.5348 16.2-0.5348 36v36h-14.5-14.5v-55.5zm180.35 54.067c-8.7468-2.7358-16.912-11.24-19.268-20.067-0.6769-2.537-1.0693-19.636-1.0728-46.75l-0.006-42.75h71.5c62.234 0 71.5 0.19046 71.5 1.4697 0 1.761-2.8522 22.081-3.5484 25.28l-0.4897 2.25h-54.981-54.981v25.3c0 18.344 0.3299 25.63 1.2 26.5 0.9036 0.90358 14.485 1.2 54.981 1.2h53.781l0.4897 2.25c0.6962 3.1992 3.5484 23.519 3.5484 25.28 0 1.2772-7.7621 1.461-59.25 1.4028-45.645-0.0515-60.204-0.36522-63.404-1.3662zm193.65-19.9v-21.327l-27.985-33.423c-15.392-18.383-27.992-33.76-28-34.173-0.01-0.4125 7.9939-0.75 17.782-0.75h17.797l3.5494 3.75c1.9522 2.0625 9.312 10.725 16.355 19.25 7.0432 8.525 13.358 16.105 14.033 16.844 0.9991 1.094 4.4382-2.4824 18.511-19.25l17.284-20.594h18.396c14.454 0 18.234 0.26786 17.639 1.25-0.4164 0.6875-13.268 16.188-28.559 34.446l-27.81 33.19v21.054 21.054h-14.5-14.5v-21.327zm146.47 18.077c0.6803-3.9626 3.5327-23.538 3.5327-24.243 0-0.27862 22.98-0.50658 51.066-0.50658 33.289 0 51.739-0.36037 53-1.0352 1.4631-0.78299 1.9343-2.1086 1.9343-5.441 0-2.4265-0.5616-4.7692-1.25-5.2148-0.6875-0.44496-21.95-1.034-47.25-1.309l-46-0.5-4.666-2.743c-6.1226-3.5992-11.372-9.8514-13.402-15.96-1.2638-3.805-1.5463-7.6872-1.2451-17.109 0.3444-10.773 0.6934-12.768 3.0079-17.188 3.0905-5.9019 6.6425-9.4082 12.805-12.64l4.5-2.36 61.25-0.27947c33.688-0.15371 61.25-0.0383 61.25 0.25658 0 0.72766-2.8369 20.22-3.5327 24.273l-0.5579 3.25h-53.02c-34.636 0-53.691 0.35894-54.955 1.0352-1.4482 0.77504-1.9343 2.107-1.9343 5.3 0 2.3456 0.54 4.8048 1.2 5.4648 0.8971 0.89707 12.338 1.2 45.322 1.2 48.902 0 49.721 0.0924 57.143 6.4455 2.1441 1.8353 5.2341 5.7484 6.8666 8.6957 2.8943 5.2256 2.9681 5.7069 2.9681 19.359 0 12.516-0.2335 14.436-2.2022 18.116-3.585 6.7012-7.0121 10.085-13.498 13.326l-6.1196 3.058h-58.386-58.386l0.5579-3.25zm-54.47-84.23v-9.4743l6.0468-7.0257 6.0468-7.0257h18.036c11.192 0 17.91 0.3674 17.703 0.96818-0.1833 0.53251-6.1324 7.9575-13.22 16.5l-12.887 15.532h-10.863-10.863v-9.4743z" fill="#a3a3a2"/>
  <path id="path3355" d="m609.06 1006c-34.13-37.11-62.06-67.71-62.06-67.99 0-0.278 297.11-0.4793 660.25-0.44732l660.25 0.0581 58.5 63.958c32.175 35.177 60.021 65.751 61.88 67.942l3.3795 3.9839h-660.07-660.07l-62.057-67.494zm-341.14-110.63c-48.631-52.874-89.465-97.424-90.742-99-2.2999-2.8386-2.4284-2.8663-13.25-2.8663h-10.928v44.5 44.5h-61-61v-147.5-147.5h61 61v51.127 51.127l37.75-0.54577c40.186-0.58099 51.77-1.6007 69.347-6.1042 36.063-9.2402 58.638-25.666 71.396-51.95 6.8404-14.092 8.8796-23.925 8.9495-43.153 0.071-19.431-1.5671-27.768-8.152-41.5-3.8489-8.0263-5.8923-10.834-13.173-18.101-12.571-12.546-27.277-20.106-49.415-25.401-24.154-5.7775-24.648-5.8009-135.75-6.4235l-102.56-0.57 51.55-54.23 51.55-54.22 45-0.0131c24.75-0.007 51.75 0.43494 60 0.98255 78.169 5.1886 137.36 27.564 173.46 65.573 10.928 11.504 19.37 23.555 26.925 38.436 15.702 30.929 21.919 62.688 20.826 106.4-0.5845 23.372-2.3758 37.374-7.108 55.563-12.944 49.751-43.51 89.44-89.004 115.57-9.2441 5.309-30.587 15.432-32.536 15.432-0.5218 0-1.2158 0.43207-1.5422 0.96016s40.71 46.105 91.191 101.28c50.481 55.177 92.402 101.09 93.157 102.04 1.2952 1.6216-3.1294 1.7184-78.58 1.7184h-79.953l-88.42-96.134zm-1133.9-5.54c-113.99-8.278-187-86.274-187-199.76 0-58.329 19.317-108.89 55.452-145.15 38.209-38.336 93.382-58.137 156.43-56.144 20.991 0.66347 35.994 2.6833 53.604 7.2163 69.861 17.984 119.47 66.877 137.02 135.04 5.602 21.757 6.9258 33.028 6.9258 58.964 0 24.851-1.2814 36.724-6.0937 56.464-18.355 75.292-75.53 126.98-155.34 140.43-17.851 3.0084-43.177 4.2253-61 2.931zm33.678-94.383c31.709-4.2939 59.493-25.566 71.94-55.079 12.693-30.097 12.678-70.68-0.037-100.09-9.6664-22.358-23.744-37.612-44.081-47.764-16.102-8.0377-22.604-9.4103-44.5-9.3931-17.215 0.0136-19.11 0.2014-27.282 2.7041-30.66 9.3902-52.464 31.105-62.575 62.321-4.8166 14.87-5.6442 21.174-5.6269 42.859 0.015 18.499 0.2232 20.821 2.7766 30.94 8.8218 34.961 30.682 59.422 62.569 70.014 12.789 4.2479 31.116 5.6128 46.816 3.4867zm319.82 94.48c-1.65-0.23332-7.2286-0.91527-12.397-1.5154-11.595-1.3465-29.81-5.7353-41.09-9.9003-12.522-4.6237-30.467-14.223-40.07-21.435-8.401-6.3091-24.651-22.292-26.859-26.417-1.0677-1.995 1.2263-4.6684 29.527-34.41 16.877-17.736 31.442-33.059 32.368-34.051 1.6074-1.7221 1.8117-1.609 4.5144 2.5 4.2036 6.3908 16.198 18.477 22.828 23.002 14.393 9.8242 27.864 13.81 46.588 13.784 14.182-0.0196 23.507-1.64 30.849-5.3607 10.416-5.2784 15.183-12.765 15.219-23.904 0.05-15.344-7.8021-22.974-33.978-33.018-6.325-2.4271-16.9-6.0939-23.5-8.1484s-18.3-6.2229-26-9.2632c-64.554-25.488-93.576-58.615-97.062-110.79-1.2912-19.324 2.2918-37.11 11.08-55 18.641-37.947 56.956-61.056 110.42-66.594 14.116-1.4623 42.146-0.66533 54.565 1.5515 35.044 6.2553 63.423 20.71 84.376 42.976l5.3756 5.7125-2.9478 3.1771c-15.364 16.559-61.621 64.665-62.138 64.621-0.3657-0.0307-2.602-2.5097-4.9694-5.5089-8.7701-11.11-21.295-19.524-34.276-23.023-8.9257-2.4066-26.684-2.4652-33.42-0.11022-12.495 4.3683-19.615 13.748-19.686 25.932-0.092 15.974 7.4199 21.416 52.186 37.805 65.145 23.85 93.632 41.228 111.94 68.288 18.1 26.756 21.961 67.431 9.4002 99.026-17.05 42.885-55.398 69.454-112.84 78.176-9.6565 1.4663-43.867 2.7642-50 1.8969zm1779-0.0853c-77.34-6.2652-134.82-41.611-164.85-101.38-20.981-41.749-27.575-92.085-18.599-141.98 13.696-76.13 64.802-131.27 139.49-150.49 22.36-5.7558 32.887-6.9572 60.964-6.9572 27.375 0 37.214 1.0663 59.041 6.3993 24.01 5.8663 44.471 14.805 64.597 28.221 15.017 10.01 35.764 30.174 46.147 44.849 18.59 26.277 31.234 61.69 34.734 97.289 1.5546 15.81 0.7834 47.007-1.5249 61.692-6.8246 43.416-24.803 79.474-53.65 107.61-18.165 17.714-36.592 29.656-60.465 39.184-31.042 12.39-71.564 18.349-105.88 15.569zm35.619-94.808c41.519-7.2712 69.735-36.816 77.387-81.032 2.0108-11.619 2.0485-34.389 0.077-46.641-6.609-41.071-31.225-70.432-68.295-81.461-12.531-3.728-34.576-4.4707-48.298-1.6272-19.174 3.9731-34.286 12.404-47.63 26.571-18.802 19.961-28.374 47.013-28.354 80.131 0.026 44.65 20.37 80.179 55.274 96.536 7.5602 3.5428 19.832 7.1451 28.22 8.2835 7.268 0.98642 23.931 0.58539 31.619-0.76094zm-2964.6 93.37c-58.51-7.0502-107.19-35.446-137.02-79.917-44.536-66.412-44.784-169.36-0.5695-236.11 17.822-26.903 39.724-46.315 69.094-61.237 32.695-16.611 66.781-23.589 108.99-22.311 36.134 1.0939 63.112 7.217 89.047 20.211 10.093 5.0567 24.438 14.536 31.453 20.784l5 4.4534-5.9897 6.3643c-3.2943 3.5004-18.317 19.317-33.384 35.148-24.576 25.822-27.561 28.634-29.01 27.337-6.0752-5.4382-24.835-14.402-37.116-17.734-11.591-3.1455-35.52-3.7005-48.01-1.1135-39.723 8.2279-66.227 37.503-73.539 81.227-2.0483 12.25-1.5233 41.295 0.9399 52 7.6701 33.334 24.534 56.556 50.109 69.003 20.462 9.9586 46.119 12.189 68.473 5.9512 26-7.2549 45.663-28.217 50.376-53.705l0.601-3.25h-42.058c-23.132 0-41.908-0.38002-41.725-0.84449 0.1833-0.46448 19.458-20.94 42.833-45.502l42.5-44.658 51 0.25214 51 0.25215-0.1077 37.5c-0.1166 40.613-1.0183 51.342-6.0475 71.964-15.869 65.067-61.412 111.89-124.84 128.34-18.992 4.9269-26.749 5.8734-51 6.2229-12.65 0.18228-26.6-0.10236-31-0.63254zm1410.2-149.93-0.25-151.46l-41.75-0.26097-41.75-0.26097v-44.489-44.489h167.69 167.69l-2.5136 2.75c-1.3825 1.5125-20.4 21.538-42.26 44.5l-39.747 41.75h-30.426-30.427v95.936 95.936l-51.627 54.314c-28.395 29.873-52.243 54.971-52.997 55.775-1.1602 1.2375-1.4086-21.713-1.6231-150zm1207.2 150.32c-9.4593-0.76355-29.968-4.4603-41-7.3905-81.916-21.757-134.21-83.077-143.08-167.78-1.7143-16.372-0.6954-47.269 2.0814-63.117 15.25-87.01 78.28-145.67 171.5-159.61 14.214-2.1255 48.066-2.8929 66.031-1.4968 29.573 2.2981 58.95 8.5172 80.736 17.092 5.6278 2.215 10.742 4.3626 11.366 4.7726 0.7654 0.50346-5.6421 14.834-19.743 44.155-11.482 23.876-21.035 43.569-21.23 43.763-0.1941 0.19407-3.0095-0.83427-6.2566-2.2852-9.958-4.4497-25.349-9.3107-36.901-11.654-9.377-1.9025-14.18-2.2307-32.503-2.2213-18.945 0.01-22.55 0.27718-30.33 2.2498-51.357 13.02-80.272 54.805-77.323 111.74 3.7416 72.223 63.071 112.18 142.39 95.909 10.033-2.0586 21.058-5.7771 31.466-10.613 4.8529-2.2547 9.0112-3.9116 9.2408-3.682 0.6288 0.62881 28.666 86.113 28.337 86.4-1.3615 1.193-14.123 6.924-21.784 9.7828-26.049 9.7208-57.718 14.833-89.994 14.529-10.178-0.0961-20.531-0.33816-23.006-0.53794zm-2382-199.8v-193.51l52.75 0.25884 52.75 0.25884 0.2564 74.25 0.2564 74.25h68.994 68.994v-74.5-74.5h52.5 52.5v193.5 193.5h-52.5-52.5v-74-74h-69-69v74 74h-53-53v-193.51zm1922.2 0.25884 0.2525-193.25 140.25-0.25347 140.25-0.25347v45.003 45.003h-87.5-87.5v28.5 28.5h69.5 69.5v43 43h-69.5-69.5v32 32h87.5 87.5v45 45h-140.5-140.5l0.2526-193.25zm1017.8-0.25v-193.5l51.25 0.0205 51.25 0.0205 77.5 117.16 77.5 117.16 0.2541-117.18 0.2542-117.18h48.996 48.996v193.51 193.51l-52.153-0.25892-52.153-0.25892-76.097-115.2c-41.853-63.361-76.659-115.76-77.347-116.45-1-0.99913-1.25 22.092-1.25 115.45v116.7h-48.5-48.5v-193.5zm-3063-351.5v-41h-28.5-28.5v-14-14h71.5 71.5v14 14h-28.5-28.5v41 41h-14.5-14.5v-41zm122.73 39.935c-8.7525-2.1149-15.448-7.4828-19.877-15.935l-2.3578-4.5-0.2983-44.25-0.2983-44.25 60.798 0.01 60.798 0.01 5 2.3387c6.4878 3.0346 12.774 9.9397 14.914 16.382 1.4746 4.4394 1.6502 9.2417 1.3873 37.921l-0.3011 32.838-2.949 5.3236c-3.1612 5.7068-8.0403 10.149-14.213 12.941-3.4518 1.5611-8.6202 1.7532-51.338 1.9081-26.125 0.0948-49.194-0.23716-51.266-0.7376zm91.066-29.135c1.554-1.554 1.7042-46.989 0.1648-49.866-0.9982-1.8652-2.5341-1.9343-43-1.9343h-41.965v25.833c0 14.208 0.3 26.133 0.6667 26.5 0.3666 0.36667 19.177 0.66667 41.8 0.66667 30.659 0 41.439-0.30556 42.333-1.2zm43.2-24.8v-55h15.832 15.832l25.821 41.036c14.202 22.57 26.09 41.188 26.418 41.374 0.3279 0.18599 12.296-18.28 26.596-41.036l26-41.374 15.75-0.00039 15.75-0.0004v55 55h-14-14v-30c0-16.5-0.3375-29.998-0.75-29.995s-9.2395 13.503-19.616 30l-18.866 29.995h-16.701-16.701l-18.933-30.108-18.933-30.108-0.2647 30.108-0.2646 30.108h-14.485-14.485v-55zm243.73 53.912c-9.0462-2.1313-15.993-7.851-19.933-16.412-2.274-4.9409-2.3047-5.5169-2.6-48.75l-0.2987-43.75h71.549c45.543 0 71.549 0.35246 71.549 0.96973 0 1.3924-2.9654 22.101-3.5484 24.78l-0.4897 2.25h-54.998-54.998l0.2666 26.25 0.2666 26.25 54.706 0.25852 54.706 0.25852 0.5563 3.2415c0.9182 5.3498 3.5311 23.653 3.5311 24.735 0 1.2736-114.84 1.1958-120.27-0.0815zm135.3-53.9v-55h14 14v40.487 40.487l33.997 0.26313 33.997 0.26313-8.7471 14.245-8.7471 14.245-39.25 0.005-39.25 0.005v-55zm88.214 52.75c46.749-72.852 59.914-92.985 63.011-96.36 2.0739-2.2603 6.5842-5.6353 10.023-7.5l6.2521-3.3904 35.25-0.29767 35.25-0.29766v55.048 55.048h-13.972-13.973l-0.2774-14.25-0.2775-14.25-35.12-0.26265-35.12-0.26265-9.3197 14.513-9.3197 14.513h-16.925-16.925l1.4438-2.25zm121.57-67.5 0.2808-12.25h-17.308c-13.584 0-17.758 0.3153-19.4 1.4651-1.9109 1.3384-15.353 21.404-15.353 22.918 0 0.35773 11.588 0.53033 25.75 0.38354l25.75-0.26688 0.2808-12.25zm45.219 14.75v-55l14.75 0.0238 14.75 0.0238 42.5 36.1 42.5 36.1 0.2625-36.124 0.2624-36.124h13.988 13.988v55 55h-13.935-13.935l-42.815-36.337-42.815-36.338-0.2623 36.338-0.2623 36.337h-14.488-14.488v-55zm182.73 53.912c-8.7001-2.0497-15.441-7.446-19.877-15.912l-2.3578-4.5-0.2983-44.25-0.2983-44.25h71.548c39.352 0 71.548 0.22796 71.548 0.50658 0 0.7057-2.8524 20.281-3.5327 24.243l-0.5579 3.25h-54.971-54.971l0.2666 26.25 0.2666 26.25 54.706 0.25852 54.706 0.25852 0.5563 3.2415c0.9182 5.3498 3.5311 23.653 3.5311 24.735 0 1.2736-114.84 1.1958-120.27-0.0815zm192.27-19.73v-20.817l-24.148-28.933c-13.281-15.913-26.161-31.296-28.621-34.183l-4.4735-5.25h18.54 18.54l16.762 20c9.2192 11 17.018 19.973 17.331 19.941 0.313-0.0326 7.9942-9.0178 17.069-19.967l16.5-19.908 18.3-0.033c14.977-0.027 18.154 0.20876 17.5 1.2985-0.4398 0.73234-13.062 15.974-28.05 33.871l-27.25 32.539v21.129 21.129h-14-14v-20.817zm147.35 6.8166 1.9719-14h51.784 51.784l1.5567-2.2225c0.8562-1.2224 1.5567-3.1472 1.5567-4.2775 0-1.1302-0.7005-3.0551-1.5567-4.2775l-1.5567-2.2225-44.693-0.00079-44.693-0.00079-6.043-2.8588c-6.3542-3.0061-10.104-6.6937-13.751-13.523-1.9532-3.6577-2.1986-5.6284-2.2022-17.684 0-13.118 0.096-13.763 3.0064-19.457 1.8689-3.6563 4.6346-7.1282 7.2941-9.1567 8.2751-6.3116 8.3563-6.3186 73.396-6.3186h58.838l-0.4897 2.25c-0.5856 2.66-3.551 23.37-3.551 24.77 0 0.6143-19.736 0.96973-53.845 0.96973-50.894 0-53.936 0.10022-55.5 1.8287-2.1801 2.409-2.1107 7.4489 0.1305 9.4772 1.5787 1.4286 7.054 1.6494 47.25 1.905 44.666 0.28401 45.537 0.32777 49.581 2.4913 6.6346 3.5494 10.098 7.0152 13.082 13.094 2.632 5.3597 2.8011 6.4891 2.8011 18.704 0 11.198-0.2984 13.646-2.1523 17.656-2.945 6.371-9.3797 12.338-15.961 14.8-5.267 1.9706-7.5037 2.0435-62.737 2.0435h-57.276l1.9718-14zm-56.35-73.29v-9.2826l5.5757-6.7174 5.5758-6.7174h18.511 18.511l-5.2114 6.25c-2.8662 3.4375-8.8676 10.63-13.336 15.984l-8.1252 9.7344-10.75 0.0156-10.75 0.0156v-9.2826z" fill="#df9d26"/>
  <path id="path3353" d="m1810 1049.9c-12.758-1.5602-26.833-6.2845-34.064-11.434l-3.0224-2.1521 7.7932-5.7213 7.7932-5.7214 6.5 3.2319c7.9389 3.9473 14.663 5.4085 24.89 5.4085 16.185 0 25.362-6.0542 21.139-13.946-1.3709-2.5616-6.7624-4.4915-25.064-8.9721-17.864-4.3732-26.399-8.3031-31.368-14.442-2.5774-3.1844-3.0913-4.7688-3.3888-10.447-0.3094-5.9046-0.035-7.1728 2.3241-10.759 3.2079-4.8753 10.064-9.6278 17.163-11.898 11.46-3.6644 33.015-3.6582 45.304 0.0129 6.0375 1.8036 19 8.2528 19 9.453 0 0.41523-3.2836 3.2264-7.297 6.2471l-7.2969 5.4921-4.7091-2.3932c-7.8458-3.9874-16.196-5.6583-25.411-5.0853-10.115 0.62896-14.786 2.8986-14.786 7.1847 0 4.4947 3.5533 6.2006 22.995 11.04 19.868 4.9452 28.936 8.785 33.328 14.114 12.428 15.077 1.3587 34.155-22.823 39.334-5.95 1.2744-23.335 2.145-29 1.4523zm-1127.4-43.7c-7.0873-23.233-13.087-42.804-13.333-43.492-0.3419-0.95557 2.3898-1.25 11.597-1.25h12.045l1.3834 4.75c0.7609 2.6125 4.4909 16.112 8.2888 29.999s7.1387 25.25 7.424 25.25c0.2853 0.0004 5.0019-13.499 10.481-29.999l9.9625-30h11.529 11.529l10.489 30.431c5.7688 16.737 10.756 29.9 11.082 29.25 0.3261-0.6495 4.3284-14.344 8.8938-30.431l8.3009-29.25h11.464c8.7325 0 11.362 0.29786 11.037 1.25-0.2348 0.6875-6.2075 20.262-13.273 43.5l-12.846 42.25h-13.688-13.688l-9.2899-27.75c-5.1095-15.262-9.5728-28.075-9.9185-28.472-0.3457-0.39688-4.1792 9.7281-8.5189 22.5-4.3398 12.772-8.7499 25.584-9.8003 28.472l-1.9098 5.25-13.178-0.01-13.178-0.01-12.886-42.242zm181.39-1.2v-43.5h12 12v43.5 43.5h-12-12v-43.5zm89 0v-43.5h12 12v35 35h25.108 25.108l-0.5365 2.25c-0.295 1.2375-1.0774 5.0625-1.7385 8.5l-1.202 6.25h-35.37-35.37v-43.5zm123-0.011v-43.686l25.75 0.44313c22.276 0.38334 26.806 0.73096 33.574 2.5766 14.555 3.9687 23.999 11.026 29.357 21.938 2.6348 5.3655 2.8184 6.5538 2.8184 18.239 0 11.478-0.2199 12.969-2.6882 18.236-5.172 11.036-15.827 18.995-31.312 23.39-4.7204 1.3398-11.492 1.7931-31.75 2.1256l-25.75 0.4226v-43.686zm46.967 26.425c6.9368-1.4876 13.954-6.4103 16.984-11.914 2-3.6335 2.555-6.2805 2.8822-13.746 0.3707-8.4575 0.1755-9.716-2.2881-14.751-4.5014-9.2005-14.65-13.437-32.295-13.481l-8.25-0.0209v27.5 27.5h8.9508c4.9229 0 11.23-0.4889 14.016-1.0864zm102.03-26.414v-43.5h12 12v35 35h25c23.152 0 24.998 0.1293 24.976 1.75-0.022 1.538-0.6993 5.0585-2.5027 13l-0.511 2.25h-35.481-35.481v-43.5zm104.17 42.592c0.1833-0.4992 9.7559-20.087 21.272-43.528l20.939-42.62 12.927 0.27771 12.927 0.27771 20.884 42.925c11.486 23.609 20.884 43.071 20.884 43.25 0 0.1786-5.7413 0.3248-12.758 0.3248h-12.759l-4.4829-10-4.4829-10h-20.761-20.761l-4.6414 10-4.6414 10h-12.439c-7.0273 0-12.294-0.3949-12.106-0.9076zm66.463-38.342c-3.7212-8.6558-10.952-24.327-11.506-24.935-0.3429-0.37669-3.6198 5.8108-7.2822 13.75l-6.6587 14.435h13.422 13.422l-1.3972-3.25zm88.37-4.2775v-43.527l14.131 0.27745 14.131 0.27746 17.902 25.5c9.8462 14.025 18.914 26.931 20.15 28.679l2.2475 3.1794-0.3995-28.929-0.3996-28.929h11.619 11.619v43.527 43.528l-14.173-0.2774-14.173-0.2775-19.822-28.411c-10.902-15.626-19.937-28.527-20.077-28.668-0.1405-0.14117-0.1297 12.756 0.024 28.661l0.2796 28.918h-11.53-11.53v-43.528zm156 0.016v-43.686l25.75 0.44313c22.276 0.38334 26.806 0.73096 33.574 2.5766 14.555 3.9687 23.999 11.026 29.357 21.938 2.6355 5.367 2.8184 6.5518 2.8184 18.26 0 12.134-0.1016 12.727-3.2867 19.197-3.8881 7.8977-10.096 13.83-18.713 17.883-11.869 5.5822-15.889 6.1932-43.75 6.6504l-25.75 0.4226v-43.686zm46.967 26.425c7.6243-1.6351 14.009-6.3797 17.283-12.843 2.3677-4.6746 2.75-6.6281 2.75-14.054 0-15.304-5.63-22.559-19.844-25.572-3.6608-0.7759-10.368-1.4186-14.906-1.4281l-8.25-0.0173v27.5 27.5h8.9508c4.9229 0 11.23-0.4889 14.016-1.0864zm-1419.2-136.03c-48.631-52.874-89.465-97.424-90.742-99-2.2999-2.8386-2.4284-2.8663-13.25-2.8663h-10.928v44.5 44.5h-61-61v-147.5-147.5h61 61v51.127 51.127l37.75-0.54577c40.186-0.58099 51.77-1.6007 69.347-6.1042 36.063-9.2402 58.638-25.666 71.396-51.95 6.8404-14.092 8.8796-23.925 8.9495-43.153 0.071-19.431-1.5671-27.768-8.152-41.5-3.8489-8.0263-5.8923-10.834-13.173-18.101-12.571-12.546-27.277-20.106-49.415-25.401-24.154-5.7775-24.648-5.8009-135.75-6.4235l-102.56-0.57 51.55-54.23 51.55-54.22 45-0.0131c24.75-0.007 51.75 0.43494 60 0.98255 78.169 5.1886 137.36 27.564 173.46 65.573 10.928 11.504 19.37 23.555 26.925 38.436 15.702 30.929 21.919 62.688 20.826 106.4-0.5845 23.372-2.3758 37.374-7.108 55.563-12.944 49.751-43.51 89.44-89.004 115.57-9.2441 5.309-30.587 15.432-32.536 15.432-0.5218 0-1.2158 0.43207-1.5422 0.96016s40.71 46.105 91.191 101.28c50.481 55.177 92.402 101.09 93.157 102.04 1.2952 1.6216-3.1294 1.7184-78.58 1.7184h-79.953l-88.42-96.134zm-1133.9-5.54c-113.99-8.278-187-86.274-187-199.76 0-58.329 19.317-108.89 55.452-145.15 38.209-38.336 93.382-58.137 156.43-56.144 20.991 0.66347 35.994 2.6833 53.604 7.2163 69.861 17.984 119.47 66.877 137.02 135.04 5.602 21.757 6.9258 33.028 6.9258 58.964 0 24.851-1.2814 36.724-6.0937 56.464-18.355 75.292-75.53 126.98-155.34 140.43-17.851 3.0084-43.177 4.2253-61 2.931zm33.678-94.383c31.709-4.2939 59.493-25.566 71.94-55.079 12.693-30.097 12.678-70.68-0.037-100.09-9.6664-22.358-23.744-37.612-44.081-47.764-16.102-8.0377-22.604-9.4103-44.5-9.3931-17.215 0.0136-19.11 0.2014-27.282 2.7041-30.66 9.3902-52.464 31.105-62.575 62.321-4.8166 14.87-5.6442 21.174-5.6269 42.859 0.015 18.499 0.2232 20.821 2.7766 30.94 8.8218 34.961 30.682 59.422 62.569 70.014 12.789 4.2479 31.116 5.6128 46.816 3.4867zm319.82 94.48c-1.65-0.23332-7.2286-0.91527-12.397-1.5154-11.595-1.3465-29.81-5.7353-41.09-9.9003-12.522-4.6237-30.467-14.223-40.07-21.435-8.401-6.3091-24.651-22.292-26.859-26.417-1.0677-1.995 1.2263-4.6684 29.527-34.41 16.877-17.736 31.442-33.059 32.368-34.051 1.6074-1.7221 1.8117-1.609 4.5144 2.5 4.2036 6.3908 16.198 18.477 22.828 23.002 14.393 9.8242 27.864 13.81 46.588 13.784 14.182-0.0196 23.507-1.64 30.849-5.3607 10.416-5.2784 15.183-12.765 15.219-23.904 0.05-15.344-7.8021-22.974-33.978-33.018-6.325-2.4271-16.9-6.0939-23.5-8.1484s-18.3-6.2229-26-9.2632c-64.554-25.488-93.576-58.615-97.062-110.79-1.2912-19.324 2.2918-37.11 11.08-55 18.641-37.947 56.956-61.056 110.42-66.594 14.116-1.4623 42.146-0.66533 54.565 1.5515 35.044 6.2553 63.423 20.71 84.376 42.976l5.3756 5.7125-2.9478 3.1771c-15.364 16.559-61.621 64.665-62.138 64.621-0.3657-0.0307-2.602-2.5097-4.9694-5.5089-8.7701-11.11-21.295-19.524-34.276-23.023-8.9257-2.4066-26.684-2.4652-33.42-0.11022-12.495 4.3683-19.615 13.748-19.686 25.932-0.092 15.974 7.4199 21.416 52.186 37.805 65.145 23.85 93.632 41.228 111.94 68.288 18.1 26.756 21.961 67.431 9.4002 99.026-17.05 42.885-55.398 69.454-112.84 78.176-9.6565 1.4663-43.867 2.7642-50 1.8969zm1779-0.0853c-77.34-6.2652-134.82-41.611-164.85-101.38-20.981-41.749-27.575-92.085-18.599-141.98 13.696-76.13 64.802-131.27 139.49-150.49 22.36-5.7558 32.887-6.9572 60.964-6.9572 27.375 0 37.214 1.0663 59.041 6.3993 24.01 5.8663 44.471 14.805 64.597 28.221 15.017 10.01 35.764 30.174 46.147 44.849 18.59 26.277 31.234 61.69 34.734 97.289 1.5546 15.81 0.7834 47.007-1.5249 61.692-6.8246 43.416-24.803 79.474-53.65 107.61-18.165 17.714-36.592 29.656-60.465 39.184-31.042 12.39-71.564 18.349-105.88 15.569zm35.619-94.808c41.519-7.2712 69.735-36.816 77.387-81.032 2.0108-11.619 2.0485-34.389 0.077-46.641-6.609-41.071-31.225-70.432-68.295-81.461-12.531-3.728-34.576-4.4707-48.298-1.6272-19.174 3.9731-34.286 12.404-47.63 26.571-18.802 19.961-28.374 47.013-28.354 80.131 0.026 44.65 20.37 80.179 55.274 96.536 7.5602 3.5428 19.832 7.1451 28.22 8.2835 7.268 0.98642 23.931 0.58539 31.619-0.76094zm-2964.6 93.37c-58.51-7.0502-107.19-35.446-137.02-79.917-44.536-66.412-44.784-169.36-0.5695-236.11 17.822-26.903 39.724-46.315 69.094-61.237 32.695-16.611 66.781-23.589 108.99-22.311 36.134 1.0939 63.112 7.217 89.047 20.211 10.093 5.0567 24.438 14.536 31.453 20.784l5 4.4534-5.9897 6.3643c-3.2943 3.5004-18.317 19.317-33.384 35.148-24.576 25.822-27.561 28.634-29.01 27.337-6.0752-5.4382-24.835-14.402-37.116-17.734-11.591-3.1455-35.52-3.7005-48.01-1.1135-39.723 8.2279-66.227 37.503-73.539 81.227-2.0483 12.25-1.5233 41.295 0.9399 52 7.6701 33.334 24.534 56.556 50.109 69.003 20.462 9.9586 46.119 12.189 68.473 5.9512 26-7.2549 45.663-28.217 50.376-53.705l0.601-3.25h-42.058c-23.132 0-41.908-0.38002-41.725-0.84449 0.1833-0.46448 19.458-20.94 42.833-45.502l42.5-44.658 51 0.25214 51 0.25215-0.1077 37.5c-0.1166 40.613-1.0183 51.342-6.0475 71.964-15.869 65.067-61.412 111.89-124.84 128.34-18.992 4.9269-26.749 5.8734-51 6.2229-12.65 0.18228-26.6-0.10236-31-0.63254zm1410.2-149.93-0.25-151.46l-41.75-0.26097-41.75-0.26097v-44.489-44.489h167.69 167.69l-2.5136 2.75c-1.3825 1.5125-20.4 21.538-42.26 44.5l-39.747 41.75h-30.426-30.427v95.936 95.936l-51.627 54.314c-28.395 29.873-52.243 54.971-52.997 55.775-1.1602 1.2375-1.4086-21.713-1.6231-150zm1207.2 150.32c-9.4593-0.76355-29.968-4.4603-41-7.3905-81.916-21.757-134.21-83.077-143.08-167.78-1.7143-16.372-0.6954-47.269 2.0814-63.117 15.25-87.01 78.28-145.67 171.5-159.61 14.214-2.1255 48.066-2.8929 66.031-1.4968 29.573 2.2981 58.95 8.5172 80.736 17.092 5.6278 2.215 10.742 4.3626 11.366 4.7726 0.7654 0.50346-5.6421 14.834-19.743 44.155-11.482 23.876-21.035 43.569-21.23 43.763-0.1941 0.19407-3.0095-0.83427-6.2566-2.2852-9.958-4.4497-25.349-9.3107-36.901-11.654-9.377-1.9025-14.18-2.2307-32.503-2.2213-18.945 0.01-22.55 0.27718-30.33 2.2498-51.357 13.02-80.272 54.805-77.323 111.74 3.7416 72.223 63.071 112.18 142.39 95.909 10.033-2.0586 21.058-5.7771 31.466-10.613 4.8529-2.2547 9.0112-3.9116 9.2408-3.682 0.6288 0.62881 28.666 86.113 28.337 86.4-1.3615 1.193-14.123 6.924-21.784 9.7828-26.049 9.7208-57.718 14.833-89.994 14.529-10.178-0.0961-20.531-0.33816-23.006-0.53794zm-2382-199.8v-193.51l52.75 0.25884 52.75 0.25884 0.2564 74.25 0.2564 74.25h68.994 68.994v-74.5-74.5h52.5 52.5v193.5 193.5h-52.5-52.5v-74-74h-69-69v74 74h-53-53v-193.51zm1922.2 0.25884 0.2525-193.25 140.25-0.25347 140.25-0.25347v45.003 45.003h-87.5-87.5v28.5 28.5h69.5 69.5v43 43h-69.5-69.5v32 32h87.5 87.5v45 45h-140.5-140.5l0.2526-193.25zm1017.8-0.25v-193.5l51.25 0.0205 51.25 0.0205 77.5 117.16 77.5 117.16 0.2541-117.18 0.2542-117.18h48.996 48.996v193.51 193.51l-52.153-0.25892-52.153-0.25892-76.097-115.2c-41.853-63.361-76.659-115.76-77.347-116.45-1-0.99913-1.25 22.092-1.25 115.45v116.7h-48.5-48.5v-193.5zm-3063-351.5v-41h-28.5-28.5v-14-14h71.5 71.5v14 14h-28.5-28.5v41 41h-14.5-14.5v-41zm122.73 39.935c-8.7525-2.1149-15.448-7.4828-19.877-15.935l-2.3578-4.5-0.2983-44.25-0.2983-44.25 60.798 0.01 60.798 0.01 5 2.3387c6.4878 3.0346 12.774 9.9397 14.914 16.382 1.4746 4.4394 1.6502 9.2417 1.3873 37.921l-0.3011 32.838-2.949 5.3236c-3.1612 5.7068-8.0403 10.149-14.213 12.941-3.4518 1.5611-8.6202 1.7532-51.338 1.9081-26.125 0.0948-49.194-0.23716-51.266-0.7376zm91.066-29.135c1.554-1.554 1.7042-46.989 0.1648-49.866-0.9982-1.8652-2.5341-1.9343-43-1.9343h-41.965v25.833c0 14.208 0.3 26.133 0.6667 26.5 0.3666 0.36667 19.177 0.66667 41.8 0.66667 30.659 0 41.439-0.30556 42.333-1.2zm43.2-24.8v-55h15.832 15.832l25.821 41.036c14.202 22.57 26.09 41.188 26.418 41.374 0.3279 0.18599 12.296-18.28 26.596-41.036l26-41.374 15.75-0.00039 15.75-0.0004v55 55h-14-14v-30c0-16.5-0.3375-29.998-0.75-29.995s-9.2395 13.503-19.616 30l-18.866 29.995h-16.701-16.701l-18.933-30.108-18.933-30.108-0.2647 30.108-0.2646 30.108h-14.485-14.485v-55zm243.73 53.912c-9.0462-2.1313-15.993-7.851-19.933-16.412-2.274-4.9409-2.3047-5.5169-2.6-48.75l-0.2987-43.75h71.549c45.543 0 71.549 0.35246 71.549 0.96973 0 1.3924-2.9654 22.101-3.5484 24.78l-0.4897 2.25h-54.998-54.998l0.2666 26.25 0.2666 26.25 54.706 0.25852 54.706 0.25852 0.5563 3.2415c0.9182 5.3498 3.5311 23.653 3.5311 24.735 0 1.2736-114.84 1.1958-120.27-0.0815zm135.3-53.9v-55h14 14v40.487 40.487l33.997 0.26313 33.997 0.26313-8.7471 14.245-8.7471 14.245-39.25 0.005-39.25 0.005v-55zm88.214 52.75c46.749-72.852 59.914-92.985 63.011-96.36 2.0739-2.2603 6.5842-5.6353 10.023-7.5l6.2521-3.3904 35.25-0.29767 35.25-0.29766v55.048 55.048h-13.972-13.973l-0.2774-14.25-0.2775-14.25-35.12-0.26265-35.12-0.26265-9.3197 14.513-9.3197 14.513h-16.925-16.925l1.4438-2.25zm121.57-67.5 0.2808-12.25h-17.308c-13.584 0-17.758 0.3153-19.4 1.4651-1.9109 1.3384-15.353 21.404-15.353 22.918 0 0.35773 11.588 0.53033 25.75 0.38354l25.75-0.26688 0.2808-12.25zm45.219 14.75v-55l14.75 0.0238 14.75 0.0238 42.5 36.1 42.5 36.1 0.2625-36.124 0.2624-36.124h13.988 13.988v55 55h-13.935-13.935l-42.815-36.337-42.815-36.338-0.2623 36.338-0.2623 36.337h-14.488-14.488v-55zm182.73 53.912c-8.7001-2.0497-15.441-7.446-19.877-15.912l-2.3578-4.5-0.2983-44.25-0.2983-44.25h71.548c39.352 0 71.548 0.22796 71.548 0.50658 0 0.7057-2.8524 20.281-3.5327 24.243l-0.5579 3.25h-54.971-54.971l0.2666 26.25 0.2666 26.25 54.706 0.25852 54.706 0.25852 0.5563 3.2415c0.9182 5.3498 3.5311 23.653 3.5311 24.735 0 1.2736-114.84 1.1958-120.27-0.0815zm192.27-19.73v-20.817l-24.148-28.933c-13.281-15.913-26.161-31.296-28.621-34.183l-4.4735-5.25h18.54 18.54l16.762 20c9.2192 11 17.018 19.973 17.331 19.941 0.313-0.0326 7.9942-9.0178 17.069-19.967l16.5-19.908 18.3-0.033c14.977-0.027 18.154 0.20876 17.5 1.2985-0.4398 0.73234-13.062 15.974-28.05 33.871l-27.25 32.539v21.129 21.129h-14-14v-20.817zm147.35 6.8166 1.9719-14h51.784 51.784l1.5567-2.2225c0.8562-1.2224 1.5567-3.1472 1.5567-4.2775 0-1.1302-0.7005-3.0551-1.5567-4.2775l-1.5567-2.2225-44.693-0.00079-44.693-0.00079-6.043-2.8588c-6.3542-3.0061-10.104-6.6937-13.751-13.523-1.9532-3.6577-2.1986-5.6284-2.2022-17.684 0-13.118 0.096-13.763 3.0064-19.457 1.8689-3.6563 4.6346-7.1282 7.2941-9.1567 8.2751-6.3116 8.3563-6.3186 73.396-6.3186h58.838l-0.4897 2.25c-0.5856 2.66-3.551 23.37-3.551 24.77 0 0.6143-19.736 0.96973-53.845 0.96973-50.894 0-53.936 0.10022-55.5 1.8287-2.1801 2.409-2.1107 7.4489 0.1305 9.4772 1.5787 1.4286 7.054 1.6494 47.25 1.905 44.666 0.28401 45.537 0.32777 49.581 2.4913 6.6346 3.5494 10.098 7.0152 13.082 13.094 2.632 5.3597 2.8011 6.4891 2.8011 18.704 0 11.198-0.2984 13.646-2.1523 17.656-2.945 6.371-9.3797 12.338-15.961 14.8-5.267 1.9706-7.5037 2.0435-62.737 2.0435h-57.276l1.9718-14zm-56.35-73.29v-9.2826l5.5757-6.7174 5.5758-6.7174h18.511 18.511l-5.2114 6.25c-2.8662 3.4375-8.8676 10.63-13.336 15.984l-8.1252 9.7344-10.75 0.0156-10.75 0.0156v-9.2826z" fill="#956b1d"/>
  <path id="path3351" d="m1801 1048c-3.575-0.721-8.997-2.2522-12.049-3.4026-5.4766-2.0644-15.526-7.8672-14.817-8.5552 0.6378-0.6184 12.312-9.1098 13.602-9.8931 0.6971-0.4235 3.0952 0.3268 5.5 1.7208 9.0342 5.2368 23.284 7.5654 34.608 5.6553 11.569-1.9513 17.502-7.7968 13.741-13.538-2.4107-3.6792-5.8664-5.0601-23.411-9.3553-8.8245-2.1603-18.661-5.1235-21.859-6.5849-13.678-6.2504-18.598-16.634-13.064-27.572 2.9524-5.8358 8.7424-10.07 17.85-13.053 6.4925-2.1264 9.1777-2.4177 21.9-2.3758 15.785 0.052 23.1 1.4433 32.429 6.1682 10.706 5.4223 10.569 4.8009 2.4074 10.907-3.9531 2.9575-7.2829 5.3773-7.3995 5.3773s-3.0996-1.3513-6.629-3.0029c-7.6878-3.5975-18.425-5.182-26.95-3.977-12.395 1.752-16.546 8.9869-7.7633 13.529 1.6694 0.86326 9.6751 3.0939 17.79 4.9571 22.456 5.1555 30.68 8.9364 36.491 16.776 3.097 4.1783 3.508 15.065 0.7713 20.429-3.8338 7.5149-12.91 13.072-25.813 15.806-8.4248 1.7851-28.447 1.7765-37.335-0.016zm-1107.9-9.2c-11.57-37.6-23.08-75.72-23.08-76.44 0-0.46995 5.0905-0.85446 11.312-0.85446h11.312l8.4377 30.911c4.6408 17.001 8.6628 30.695 8.9378 30.431 0.275-0.2646 5.0375-14.062 10.583-30.662l10.083-30.181h11.284 11.284l10.568 30.73c5.8126 16.902 10.765 30.534 11.005 30.294 0.2401-0.2401 4.3358-14.069 9.1016-30.73l8.6651-30.294 10.712-0.28383c8.2034-0.21736 10.711 0.0168 10.706 1 0 0.70611-5.7729 20.184-12.821 43.284l-12.816 42h-13.304-13.304l-9.6399-28.182c-5.302-15.5-9.9071-28.45-10.234-28.776-0.3266-0.32656-5.0377 12.468-10.469 28.432l-9.8755 29.026h-12.722-12.722l-3.0023-9.75zm171.92-33.75v-43.5h11.5 11.5v43.5 43.5h-11.5-11.5v-43.5zm88 0v-43.5h11.5 11.5v35.5 35.5h25c19.346 0 24.994 0.2827 24.976 1.25-0.022 1.1007-0.8227 5.1021-2.5027 12.5l-0.511 2.25h-34.981-34.981v-43.5zm123-0.017v-43.76l24.25 0.57933c26.584 0.63509 34.677 1.8319 45.463 6.7225 8.4944 3.8516 16.245 11.673 19.33 19.507 3.3385 8.4771 3.3789 24.363 0.083 32.716-4.6448 11.771-15.993 20.654-31.812 24.9-6.6035 1.7725-11.648 2.1748-32.564 2.5969l-24.75 0.4994v-43.76zm49.845 26.003c6.8093-2.0635 13.433-8.0445 15.852-14.315 2.1647-5.6095 2.3862-17.867 0.4248-23.507-1.9196-5.5198-6.3291-10.066-12.365-12.748-4.3889-1.9501-7.3633-2.4004-18.007-2.7267l-12.75-0.3908v28.25 28.25l10.75-0.597c5.9125-0.3284 13.155-1.3259 16.095-2.2167zm100.16-25.986v-43.5h11.5 11.5v35.5 35.5h25.067c23.402 0 25.034 0.1163 24.557 1.75-0.2807 0.9625-1.0446 4.5625-1.6975 8l-1.1871 6.25h-34.87-34.87v-43.5zm119.93 9.25c9.23-18.838 18.876-38.413 21.436-43.5l4.6545-9.25h12.334 12.334l5.3391 11.25c2.9365 6.1875 12.438 25.776 21.113 43.53l15.774 32.28-12.548-0.2795-12.548-0.2796-4.3708-9.5-4.3709-9.5-21.322-0.2689-21.322-0.2689-4.4656 10.001-4.4655 10.001-12.176 0.018-12.176 0.018 16.782-34.25zm51.1-2.3c0-0.8615-12.093-27.674-12.879-28.557-0.46-0.51614-11.037 20.976-13.954 28.354-0.1834 0.4637 5.7791 0.8431 13.25 0.8431 7.4708 0 13.583-0.2879 13.583-0.6398zm88-6.8602v-43.5h13.273 13.273l20.477 29.454c11.262 16.2 20.702 29.475 20.977 29.501s0.3683-13.229 0.2073-29.454l-0.2926-29.501h11.043 11.043v43.5 43.5h-13.796-13.796l-12.668-18.25c-6.9677-10.038-16.184-23.259-20.48-29.382l-7.8114-11.131 0.3938 29.381 0.3937 29.382h-11.118-11.118v-43.5zm155-0.017v-43.76l24.25 0.57933c27.376 0.65402 35.098 1.8624 46.396 7.2598 12.706 6.0703 19.826 16.759 21.073 31.634 1.8931 22.581-10.319 38.477-34.566 44.992-6.4162 1.7239-11.657 2.1373-32.404 2.556l-24.75 0.4994v-43.76zm42.994 27.449c7.9777-1.2943 13.595-3.726 17.403-7.5344 9.9068-9.9068 9.9989-30.531 0.1785-39.968-5.6912-5.4689-12.787-7.4294-26.891-7.4294h-10.684v28 28l6.75-0.01c3.7125 0 9.6723-0.4816 13.244-1.0611zm-1415.1-137.03c-48.631-52.874-89.465-97.424-90.742-99-2.2999-2.8386-2.4284-2.8663-13.25-2.8663h-10.928v44.5 44.5h-61-61v-147.5-147.5h61 61v51.127 51.127l37.75-0.54577c40.186-0.58099 51.77-1.6007 69.347-6.1042 36.063-9.2402 58.638-25.666 71.396-51.95 6.8404-14.092 8.8796-23.925 8.9495-43.153 0.071-19.431-1.5671-27.768-8.152-41.5-3.8489-8.0263-5.8923-10.834-13.173-18.101-12.571-12.546-27.277-20.106-49.415-25.401-24.154-5.7775-24.648-5.8009-135.75-6.4235l-102.56-0.57 51.55-54.23 51.55-54.22 45-0.0131c24.75-0.007 51.75 0.43494 60 0.98255 78.169 5.1886 137.36 27.564 173.46 65.573 10.928 11.504 19.37 23.555 26.925 38.436 15.702 30.929 21.919 62.688 20.826 106.4-0.5845 23.372-2.3758 37.374-7.108 55.563-12.944 49.751-43.51 89.44-89.004 115.57-9.2441 5.309-30.587 15.432-32.536 15.432-0.5218 0-1.2158 0.43207-1.5422 0.96016s40.71 46.105 91.191 101.28c50.481 55.177 92.402 101.09 93.157 102.04 1.2952 1.6216-3.1294 1.7184-78.58 1.7184h-79.953l-88.42-96.134zm-1133.9-5.54c-113.99-8.278-187-86.274-187-199.76 0-58.329 19.317-108.89 55.452-145.15 38.209-38.336 93.382-58.137 156.43-56.144 20.991 0.66347 35.994 2.6833 53.604 7.2163 69.861 17.984 119.47 66.877 137.02 135.04 5.602 21.757 6.9258 33.028 6.9258 58.964 0 24.851-1.2814 36.724-6.0937 56.464-18.355 75.292-75.53 126.98-155.34 140.43-17.851 3.0084-43.177 4.2253-61 2.931zm33.678-94.383c31.709-4.2939 59.493-25.566 71.94-55.079 12.693-30.097 12.678-70.68-0.037-100.09-9.6664-22.358-23.744-37.612-44.081-47.764-16.102-8.0377-22.604-9.4103-44.5-9.3931-17.215 0.0136-19.11 0.2014-27.282 2.7041-30.66 9.3902-52.464 31.105-62.575 62.321-4.8166 14.87-5.6442 21.174-5.6269 42.859 0.015 18.499 0.2232 20.821 2.7766 30.94 8.8218 34.961 30.682 59.422 62.569 70.014 12.789 4.2479 31.116 5.6128 46.816 3.4867zm319.82 94.48c-1.65-0.23332-7.2286-0.91527-12.397-1.5154-11.595-1.3465-29.81-5.7353-41.09-9.9003-12.522-4.6237-30.467-14.223-40.07-21.435-8.401-6.3091-24.651-22.292-26.859-26.417-1.0677-1.995 1.2263-4.6684 29.527-34.41 16.877-17.736 31.442-33.059 32.368-34.051 1.6074-1.7221 1.8117-1.609 4.5144 2.5 4.2036 6.3908 16.198 18.477 22.828 23.002 14.393 9.8242 27.864 13.81 46.588 13.784 14.182-0.0196 23.507-1.64 30.849-5.3607 10.416-5.2784 15.183-12.765 15.219-23.904 0.05-15.344-7.8021-22.974-33.978-33.018-6.325-2.4271-16.9-6.0939-23.5-8.1484s-18.3-6.2229-26-9.2632c-64.554-25.488-93.576-58.615-97.062-110.79-1.2912-19.324 2.2918-37.11 11.08-55 18.641-37.947 56.956-61.056 110.42-66.594 14.116-1.4623 42.146-0.66533 54.565 1.5515 35.044 6.2553 63.423 20.71 84.376 42.976l5.3756 5.7125-2.9478 3.1771c-15.364 16.559-61.621 64.665-62.138 64.621-0.3657-0.0307-2.602-2.5097-4.9694-5.5089-8.7701-11.11-21.295-19.524-34.276-23.023-8.9257-2.4066-26.684-2.4652-33.42-0.11022-12.495 4.3683-19.615 13.748-19.686 25.932-0.092 15.974 7.4199 21.416 52.186 37.805 65.145 23.85 93.632 41.228 111.94 68.288 18.1 26.756 21.961 67.431 9.4002 99.026-17.05 42.885-55.398 69.454-112.84 78.176-9.6565 1.4663-43.867 2.7642-50 1.8969zm1779-0.0853c-77.34-6.2652-134.82-41.611-164.85-101.38-20.981-41.749-27.575-92.085-18.599-141.98 13.696-76.13 64.802-131.27 139.49-150.49 22.36-5.7558 32.887-6.9572 60.964-6.9572 27.375 0 37.214 1.0663 59.041 6.3993 24.01 5.8663 44.471 14.805 64.597 28.221 15.017 10.01 35.764 30.174 46.147 44.849 18.59 26.277 31.234 61.69 34.734 97.289 1.5546 15.81 0.7834 47.007-1.5249 61.692-6.8246 43.416-24.803 79.474-53.65 107.61-18.165 17.714-36.592 29.656-60.465 39.184-31.042 12.39-71.564 18.349-105.88 15.569zm35.619-94.808c41.519-7.2712 69.735-36.816 77.387-81.032 2.0108-11.619 2.0485-34.389 0.077-46.641-6.609-41.071-31.225-70.432-68.295-81.461-12.531-3.728-34.576-4.4707-48.298-1.6272-19.174 3.9731-34.286 12.404-47.63 26.571-18.802 19.961-28.374 47.013-28.354 80.131 0.026 44.65 20.37 80.179 55.274 96.536 7.5602 3.5428 19.832 7.1451 28.22 8.2835 7.268 0.98642 23.931 0.58539 31.619-0.76094zm-2964.6 93.37c-58.51-7.0502-107.19-35.446-137.02-79.917-44.536-66.412-44.784-169.36-0.5695-236.11 17.822-26.903 39.724-46.315 69.094-61.237 32.695-16.611 66.781-23.589 108.99-22.311 36.134 1.0939 63.112 7.217 89.047 20.211 10.093 5.0567 24.438 14.536 31.453 20.784l5 4.4534-5.9897 6.3643c-3.2943 3.5004-18.317 19.317-33.384 35.148-24.576 25.822-27.561 28.634-29.01 27.337-6.0752-5.4382-24.835-14.402-37.116-17.734-11.591-3.1455-35.52-3.7005-48.01-1.1135-39.723 8.2279-66.227 37.503-73.539 81.227-2.0483 12.25-1.5233 41.295 0.9399 52 7.6701 33.334 24.534 56.556 50.109 69.003 20.462 9.9586 46.119 12.189 68.473 5.9512 26-7.2549 45.663-28.217 50.376-53.705l0.601-3.25h-42.058c-23.132 0-41.908-0.38002-41.725-0.84449 0.1833-0.46448 19.458-20.94 42.833-45.502l42.5-44.658 51 0.25214 51 0.25215-0.1077 37.5c-0.1166 40.613-1.0183 51.342-6.0475 71.964-15.869 65.067-61.412 111.89-124.84 128.34-18.992 4.9269-26.749 5.8734-51 6.2229-12.65 0.18228-26.6-0.10236-31-0.63254zm1410.2-149.93-0.25-151.46l-41.75-0.26097-41.75-0.26097v-44.489-44.489h167.69 167.69l-2.5136 2.75c-1.3825 1.5125-20.4 21.538-42.26 44.5l-39.747 41.75h-30.426-30.427v95.936 95.936l-51.627 54.314c-28.395 29.873-52.243 54.971-52.997 55.775-1.1602 1.2375-1.4086-21.713-1.6231-150zm1207.2 150.32c-9.4593-0.76355-29.968-4.4603-41-7.3905-81.916-21.757-134.21-83.077-143.08-167.78-1.7143-16.372-0.6954-47.269 2.0814-63.117 15.25-87.01 78.28-145.67 171.5-159.61 14.214-2.1255 48.066-2.8929 66.031-1.4968 29.573 2.2981 58.95 8.5172 80.736 17.092 5.6278 2.215 10.742 4.3626 11.366 4.7726 0.7654 0.50346-5.6421 14.834-19.743 44.155-11.482 23.876-21.035 43.569-21.23 43.763-0.1941 0.19407-3.0095-0.83427-6.2566-2.2852-9.958-4.4497-25.349-9.3107-36.901-11.654-9.377-1.9025-14.18-2.2307-32.503-2.2213-18.945 0.01-22.55 0.27718-30.33 2.2498-51.357 13.02-80.272 54.805-77.323 111.74 3.7416 72.223 63.071 112.18 142.39 95.909 10.033-2.0586 21.058-5.7771 31.466-10.613 4.8529-2.2547 9.0112-3.9116 9.2408-3.682 0.6288 0.62881 28.666 86.113 28.337 86.4-1.3615 1.193-14.123 6.924-21.784 9.7828-26.049 9.7208-57.718 14.833-89.994 14.529-10.178-0.0961-20.531-0.33816-23.006-0.53794zm-2382-199.8v-193.51l52.75 0.25884 52.75 0.25884 0.2564 74.25 0.2564 74.25h68.994 68.994v-74.5-74.5h52.5 52.5v193.5 193.5h-52.5-52.5v-74-74h-69-69v74 74h-53-53v-193.51zm1922.2 0.25884 0.2525-193.25 140.25-0.25347 140.25-0.25347v45.003 45.003h-87.5-87.5v28.5 28.5h69.5 69.5v43 43h-69.5-69.5v32 32h87.5 87.5v45 45h-140.5-140.5l0.2526-193.25zm1017.8-0.25v-193.5l51.25 0.0205 51.25 0.0205 77.5 117.16 77.5 117.16 0.2541-117.18 0.2542-117.18h48.996 48.996v193.51 193.51l-52.153-0.25892-52.153-0.25892-76.097-115.2c-41.853-63.361-76.659-115.76-77.347-116.45-1-0.99913-1.25 22.092-1.25 115.45v116.7h-48.5-48.5v-193.5zm-3063-351.5v-41h-28.5-28.5v-14-14h71.5 71.5v14 14h-28.5-28.5v41 41h-14.5-14.5v-41zm122.73 39.935c-8.7525-2.1149-15.448-7.4828-19.877-15.935l-2.3578-4.5-0.2983-44.25-0.2983-44.25 60.798 0.01 60.798 0.01 5 2.3387c6.4878 3.0346 12.774 9.9397 14.914 16.382 1.4746 4.4394 1.6502 9.2417 1.3873 37.921l-0.3011 32.838-2.949 5.3236c-3.1612 5.7068-8.0403 10.149-14.213 12.941-3.4518 1.5611-8.6202 1.7532-51.338 1.9081-26.125 0.0948-49.194-0.23716-51.266-0.7376zm91.066-29.135c1.554-1.554 1.7042-46.989 0.1648-49.866-0.9982-1.8652-2.5341-1.9343-43-1.9343h-41.965v25.833c0 14.208 0.3 26.133 0.6667 26.5 0.3666 0.36667 19.177 0.66667 41.8 0.66667 30.659 0 41.439-0.30556 42.333-1.2zm43.2-24.8v-55h15.832 15.832l25.821 41.036c14.202 22.57 26.09 41.188 26.418 41.374 0.3279 0.18599 12.296-18.28 26.596-41.036l26-41.374 15.75-0.00039 15.75-0.0004v55 55h-14-14v-30c0-16.5-0.3375-29.998-0.75-29.995s-9.2395 13.503-19.616 30l-18.866 29.995h-16.701-16.701l-18.933-30.108-18.933-30.108-0.2647 30.108-0.2646 30.108h-14.485-14.485v-55zm243.73 53.912c-9.0462-2.1313-15.993-7.851-19.933-16.412-2.274-4.9409-2.3047-5.5169-2.6-48.75l-0.2987-43.75h71.549c45.543 0 71.549 0.35246 71.549 0.96973 0 1.3924-2.9654 22.101-3.5484 24.78l-0.4897 2.25h-54.998-54.998l0.2666 26.25 0.2666 26.25 54.706 0.25852 54.706 0.25852 0.5563 3.2415c0.9182 5.3498 3.5311 23.653 3.5311 24.735 0 1.2736-114.84 1.1958-120.27-0.0815zm135.3-53.9v-55h14 14v40.487 40.487l33.997 0.26313 33.997 0.26313-8.7471 14.245-8.7471 14.245-39.25 0.005-39.25 0.005v-55zm88.214 52.75c46.749-72.852 59.914-92.985 63.011-96.36 2.0739-2.2603 6.5842-5.6353 10.023-7.5l6.2521-3.3904 35.25-0.29767 35.25-0.29766v55.048 55.048h-13.972-13.973l-0.2774-14.25-0.2775-14.25-35.12-0.26265-35.12-0.26265-9.3197 14.513-9.3197 14.513h-16.925-16.925l1.4438-2.25zm121.57-67.5 0.2808-12.25h-17.308c-13.584 0-17.758 0.3153-19.4 1.4651-1.9109 1.3384-15.353 21.404-15.353 22.918 0 0.35773 11.588 0.53033 25.75 0.38354l25.75-0.26688 0.2808-12.25zm45.219 14.75v-55l14.75 0.0238 14.75 0.0238 42.5 36.1 42.5 36.1 0.2625-36.124 0.2624-36.124h13.988 13.988v55 55h-13.935-13.935l-42.815-36.337-42.815-36.338-0.2623 36.338-0.2623 36.337h-14.488-14.488v-55zm182.73 53.912c-8.7001-2.0497-15.441-7.446-19.877-15.912l-2.3578-4.5-0.2983-44.25-0.2983-44.25h71.548c39.352 0 71.548 0.22796 71.548 0.50658 0 0.7057-2.8524 20.281-3.5327 24.243l-0.5579 3.25h-54.971-54.971l0.2666 26.25 0.2666 26.25 54.706 0.25852 54.706 0.25852 0.5563 3.2415c0.9182 5.3498 3.5311 23.653 3.5311 24.735 0 1.2736-114.84 1.1958-120.27-0.0815zm192.27-19.73v-20.817l-24.148-28.933c-13.281-15.913-26.161-31.296-28.621-34.183l-4.4735-5.25h18.54 18.54l16.762 20c9.2192 11 17.018 19.973 17.331 19.941 0.313-0.0326 7.9942-9.0178 17.069-19.967l16.5-19.908 18.3-0.033c14.977-0.027 18.154 0.20876 17.5 1.2985-0.4398 0.73234-13.062 15.974-28.05 33.871l-27.25 32.539v21.129 21.129h-14-14v-20.817zm147.35 6.8166 1.9719-14h51.784 51.784l1.5567-2.2225c0.8562-1.2224 1.5567-3.1472 1.5567-4.2775 0-1.1302-0.7005-3.0551-1.5567-4.2775l-1.5567-2.2225-44.693-0.00079-44.693-0.00079-6.043-2.8588c-6.3542-3.0061-10.104-6.6937-13.751-13.523-1.9532-3.6577-2.1986-5.6284-2.2022-17.684 0-13.118 0.096-13.763 3.0064-19.457 1.8689-3.6563 4.6346-7.1282 7.2941-9.1567 8.2751-6.3116 8.3563-6.3186 73.396-6.3186h58.838l-0.4897 2.25c-0.5856 2.66-3.551 23.37-3.551 24.77 0 0.6143-19.736 0.96973-53.845 0.96973-50.894 0-53.936 0.10022-55.5 1.8287-2.1801 2.409-2.1107 7.4489 0.1305 9.4772 1.5787 1.4286 7.054 1.6494 47.25 1.905 44.666 0.28401 45.537 0.32777 49.581 2.4913 6.6346 3.5494 10.098 7.0152 13.082 13.094 2.632 5.3597 2.8011 6.4891 2.8011 18.704 0 11.198-0.2984 13.646-2.1523 17.656-2.945 6.371-9.3797 12.338-15.961 14.8-5.267 1.9706-7.5037 2.0435-62.737 2.0435h-57.276l1.9718-14zm-56.35-73.29v-9.2826l5.5757-6.7174 5.5758-6.7174h18.511 18.511l-5.2114 6.25c-2.8662 3.4375-8.8676 10.63-13.336 15.984l-8.1252 9.7344-10.75 0.0156-10.75 0.0156v-9.2826z" fill="#5e5e5a"/>
  <path id="path3349" d="m1801 1048.1c-8.558-1.8029-16.483-4.8457-22.41-8.6045l-4.8122-3.0518 7.2868-5.4516c4.0077-2.9984 7.4651-5.4516 7.683-5.4516s2.2763 1.0896 4.5742 2.4213c7.2636 4.2095 15.208 5.994 26.707 5.9991 9.1816 0 11.165-0.3104 15.5-2.4578 8.4896-4.2057 9.4966-10.544 2.3644-14.881-1.7311-1.0527-10.475-3.7001-19.43-5.8831-8.9555-2.1829-18.911-5.17-22.123-6.6378-13.392-6.1196-18.434-16.263-13.45-27.061 2.2824-4.9451 5.1587-7.6293 11.61-10.835 8.6414-4.2933 13.144-5.0974 28.5-5.0901 15.794 0.008 23.022 1.3761 32.429 6.1405 10.706 5.4223 10.569 4.8009 2.4074 10.907-3.9531 2.9575-7.2829 5.3773-7.3995 5.3773s-3.0996-1.3513-6.629-3.0029c-7.6878-3.5975-18.425-5.182-26.95-3.977-12.329 1.7427-16.548 8.9858-7.8536 13.482 1.6196 0.83756 10.494 3.3358 19.72 5.5516 18.832 4.5228 25.171 7.0506 31.09 12.397 4.9444 4.4669 6.5458 8.8946 5.9911 16.564-0.7566 10.46-7.83 17.646-21.805 22.152-8.374 2.7005-33.003 3.4976-43 1.3916zm-1107.9-9.3c-17.84-58.29-23.1-75.7-23.1-76.43 0-0.4749 5.0882-0.86346 11.307-0.86346h11.307l8.438 30.955c4.6408 17.025 8.7215 30.638 9.0681 30.25 0.3466-0.3877 2.9993-7.9049 5.895-16.705 2.8957-8.8 7.5059-22.427 10.245-30.282l4.9802-14.282 11 0.28162 11 0.28163 10.541 30.755c5.7977 16.915 10.749 30.548 11.002 30.294 0.2536-0.2537 4.3604-14.094 9.1262-30.755l8.6651-30.294 10.712-0.28383c8.2056-0.21742 10.71 0.0166 10.701 1-0.01 0.70611-5.7814 20.184-12.834 43.284l-12.822 42h-13.28-13.28l-9.6363-28.173c-5.3-15.495-9.9109-28.445-10.246-28.777-0.3356-0.33211-5.0606 12.458-10.5 28.423l-9.8899 29.026-12.707 0.0003-12.707 0.0003-2.9857-9.75zm171.9-33.75v-43.5h11.5 11.5v43.5 43.5h-11.5-11.5v-43.5zm88 0v-43.5h11.5 11.5v35.5 35.5h25c19.346 0 24.994 0.2827 24.976 1.25-0.022 1.1007-0.8227 5.1021-2.5027 12.5l-0.511 2.25h-34.981-34.981v-43.5zm123 0.1132v-43.613h17.394c9.5668 0 21.994 0.47204 27.616 1.049 23.635 2.4254 38.309 11.019 44.179 25.872 3.1894 8.0703 3.1582 24.163-0.063 32.326-3.2425 8.2172-10.637 15.912-19.468 20.257-11.331 5.5753-18.032 6.64-45.408 7.2142l-24.25 0.5085v-43.613zm50 25.854c7.5378-2.3154 14.185-8.9662 16.389-16.399 3.3918-11.436 1.1312-22.945-5.8218-29.639-5.6802-5.4687-12.775-7.4294-26.883-7.4294h-10.684v28.142 28.142l10.75-0.5631c5.9125-0.3097 13.225-1.3233 16.25-2.2525zm100-25.968v-43.5h11.5 11.5v35.5 35.5h25.067c23.402 0 25.034 0.1163 24.557 1.75-0.2807 0.9625-1.0446 4.5625-1.6975 8l-1.1871 6.25h-34.87-34.87v-43.5zm124.38 0.25 21.256-43.25 12.432-0.26996 12.432-0.26996 21.17 43.549 21.17 43.549-12.512-0.2793-12.512-0.2793-4.3708-9.5-4.3709-9.5-21.32-0.2689-21.32-0.2689-4.6355 10.019-4.6355 10.019h-12.021-12.021l21.256-43.25zm46.626 6.5c0.01-0.918-12.048-27.457-12.94-28.486-0.4734-0.54621-11.088 21.124-13.899 28.376-0.1834 0.4729 5.7791 0.8599 13.25 0.8599 7.4708 0 13.586-0.3375 13.59-0.75zm87.994-6.75v-43.5l13.25 0.0154 13.25 0.0154 20.5 29.451c11.275 16.198 20.725 29.467 21 29.485 0.275 0.019 0.3683-13.241 0.2073-29.467l-0.2926-29.501h11.043 11.043v43.5 43.5h-13.78-13.78l-19.97-28.669c-10.984-15.768-20.208-29.019-20.497-29.448-0.2897-0.4284-0.3491 12.473-0.132 28.669l0.3946 29.448h-11.118-11.118v-43.5zm155 0.1132v-43.613h17.394c37.819 0 55.212 4.5437 66.104 17.269 5.8229 6.8027 7.8956 13.558 7.8956 25.731 0 8.5567-0.4196 11.564-2.2675 16.247-3.2425 8.2172-10.637 15.912-19.468 20.257-11.331 5.5753-18.032 6.64-45.408 7.2142l-24.25 0.5085v-43.613zm50 25.916c6.9646-2.4944 11.462-6.1335 14.61-11.821 2.6156-4.7265 2.8802-6.0875 2.8594-14.708-0.019-7.8222-0.4105-10.234-2.217-13.653-5.0381-9.5374-14.048-13.347-31.568-13.347h-10.684v28.149 28.149l11.25-0.5779c6.3364-0.3256 13.215-1.2819 15.75-2.1896zm-1424.4-138.52l-90.902-98.978h-10.848-10.848v44.5 44.5h-61-61v-147.5-147.5h61 61v51 51l31.25-0.009c43.089-0.0118 61.878-1.8569 83.25-8.1752 47.77-14.122 73.5-46.964 73.5-93.816 0-5.9059-0.6838-14.659-1.5196-19.452-6.7586-38.756-33.87-60.103-87.288-68.727-13.305-2.1481-16.615-2.2263-117.08-2.7656l-103.39-0.55498 51.417-54 51.417-54 39.97-0.30635c43.001-0.32958 70.165 0.77347 93.973 3.8159 102.69 13.123 164.84 59.32 185 137.53 5.7728 22.386 6.9393 32.773 6.9594 61.964 0.014 20.123-0.3873 28.6-1.7745 37.5-6.9849 44.815-23.101 78.969-50.657 107.36-20.868 21.498-36.946 32.057-75.686 49.707l-3.1517 1.4359 87.476 95.5c48.112 52.525 90.189 98.538 93.505 102.25l6.0288 6.75-79.853-0.0218-79.853-0.0218-90.902-98.978zm-1128.1-2.58c-48.336-3.7146-84.497-16.126-116.61-40.023-39.7-29.546-64.463-74.011-72.049-129.37-1.9346-14.118-1.6462-49.714 0.5221-64.45 11.223-76.274 55.911-131.45 125.89-155.45 24.238-8.311 46.039-11.588 76.74-11.537 24.272 0.0409 36.182 1.3295 56.5 6.1132 66.748 15.715 116.72 60.758 137.37 123.82 7.5183 22.963 10.563 43.459 10.547 71-0.017 28.908-2.8998 47.944-10.94 72.228-23.316 70.427-82.291 116.36-162 126.17-9.1077 1.1212-38.425 2.0745-45.969 1.4947zm41-96.4c38.013-10.226 63.334-40.41 69.547-82.903 1.9506-13.34 0.7348-40.296-2.372-52.591-10.088-39.923-37.049-66.701-74.675-74.165-10.26-2.0356-30.414-1.9548-40.5 0.16244-22.757 4.7772-43.785 18.522-56.41 36.873-7.9394 11.54-14.738 29.056-17.642 45.459-2.0537 11.596-2.0328 35.93 0.041 47.671 7.6418 43.269 35.791 73.299 76.012 81.09 10.574 2.0482 35.695 1.1769 46-1.5955zm306.09 95.98c-31.207-2.7906-61.307-12.948-85.014-28.689-9.6996-6.4401-26.669-22.068-31.366-28.887l-2.1367-3.102 32.021-33.648c17.612-18.506 32.138-33.648 32.281-33.648s3.12 3.6309 6.6155 8.0686c14.755 18.733 33.308 29.3 56.174 31.994 17.507 2.0633 36.997-1.5114 46.16-8.4663 2.2954-1.7424 5.4843-5.598 7.0864-8.5682 2.4265-4.4986 2.915-6.5797 2.9257-12.464 0.01-4.2809-0.6139-8.5096-1.5778-10.733-4.4429-10.247-17.708-17.487-55.5-30.293-26.722-9.0548-43.952-16.016-56.261-22.73-46.411-25.314-67.35-57.929-67.29-104.81 0.027-20.841 4.6294-37.908 14.898-55.242 6.7118-11.33 24.65-29.263 36.618-36.609 16.188-9.9355 33.699-16.323 55.774-20.345 17.383-3.1668 51.469-3.1304 69.5 0.0744 32.726 5.8165 58.654 18.721 80.213 39.923l8.4421 8.3023-7.281 7.6977c-4.0045 4.2337-18.51 19.5-32.235 33.926l-24.954 26.228-7.8858-8.4285c-4.3371-4.6357-10.679-10.261-14.092-12.501-15.596-10.233-41.98-13.03-55.904-5.9266-12.179 6.2133-18.007 18.804-14.418 31.15 3.1293 10.764 11.602 16.175 44.115 28.175 45.27 16.707 67.468 26.735 85 38.397 32.255 21.456 47.535 46.287 50.387 81.879 1.7426 21.748-1.6751 40.169-10.909 58.797-18.542 37.406-57.008 61.609-109.48 68.884-14.113 1.9567-39.212 2.7256-51.909 1.5903zm1779.4 0.02c-29.429-2.4319-54.456-8.9574-78.725-20.527-58.514-27.894-94.849-79.326-103.83-146.96-2.2906-17.256-2.3114-47.689-0.044-64 6.092-43.819 22.934-80.612 49.986-109.2 30.506-32.234 70.266-51.501 120.61-58.447 12.206-1.6839 50.644-1.7206 62.5-0.0596 16.234 2.2742 29.785 5.3297 43.5 9.8081 84.61 27.628 133.71 101.77 130.72 197.39-0.6112 19.514-2.5455 34.114-6.6909 50.5-10.975 43.384-35.339 79.776-70.149 104.78-11.131 7.9958-35.341 20.277-49.493 25.105-12.284 4.1912-30.169 8.2871-44.354 10.157-13.769 1.8154-40.799 2.5383-54.03 1.445zm46.079-95.803c22.914-6.102 41.883-19.693 54.318-38.92 21.133-32.676 23.077-84.247 4.5713-121.27-12.693-25.393-35.356-42.988-63.296-49.143-11.402-2.5119-31.742-2.7417-42.172-0.47657-38.81 8.4288-64.792 35.69-73.975 77.62-2.4945 11.389-3.1025 38.195-1.1377 50.156 6.5867 40.098 28.944 68.306 63.226 79.773 13.043 4.3626 17.968 5.0056 35.387 4.62 11.502-0.25458 17.455-0.86373 23.079-2.3614zm-2967.1 95.1c-9.0525-0.71225-29.393-4.5043-39.729-7.4066-69.072-19.395-117.7-72.749-131.64-144.44-7.182-36.929-5.7684-75.951 4.0194-110.95 9.6529-34.515 29.818-67.071 55.143-89.028 28.536-24.74 62-39.684 103.21-46.087 13.953-2.1683 53.237-2.4849 68-0.54797 38.727 5.0809 68.317 16.982 94.184 37.881 3.7886 3.0611 6.7596 5.8929 6.6023 6.293-0.5622 1.4296-65.266 68.989-66.072 68.989-0.4529 0-3.5564-1.8559-6.8967-4.1243-22.248-15.108-54.844-21.033-82.106-14.923-31.99 7.1691-56.895 30.506-67.102 62.876-4.2746 13.557-5.756 24.173-5.7452 41.171 0.018 28.269 5.6396 49.01 18.537 68.394 12.604 18.942 32.921 32.551 55.599 37.241 18.27 3.7782 39.945 1.986 55.988-4.6296 21.299-8.783 36.956-27.919 41.519-50.744l0.6475-3.2391-42.222-0.26092-42.222-0.26091 42.395-44.676 42.395-44.676 51.25-0.0735 51.25-0.0736v36.039c0 47.411-1.6354 61.618-10.083 87.591-22.009 67.671-77.378 111.03-152.42 119.35-8.3996 0.9319-34.31 1.1132-44.5 0.31144zm2614.5 0.0836c-37.956-3.9329-70.827-14.053-97-29.864-58.37-35.26-90.5-95.27-90.5-169.01 0-35.532 6.9958-66.346 21.679-95.49 9.6819-19.217 18.101-30.801 33.814-46.526 23.564-23.581 49.346-38.803 82.893-48.94 55.319-16.716 129.83-13.245 185.23 8.6295l10.116 3.9945-20.984 43.666c-11.541 24.016-21.068 43.765-21.17 43.887-0.1023 0.1217-4.36-1.5782-9.4615-3.7776-20.623-8.8912-41.463-13.05-65.615-13.093-27.682-0.05-46.291 4.9752-65.5 17.688-7.2995 4.8308-18.19 15.432-23.588 22.962-12.504 17.441-19.393 41.444-19.406 67.619-0.026 51.899 28.53 90.016 76.825 102.55 17.232 4.4708 46.788 4.3427 66.985-0.29024 10.279-2.3578 22.097-6.351 31.083-10.502 4.6298-2.139 8.5202-3.7727 8.6454-3.6306 0.1252 0.14217 6.5186 19.484 14.208 42.981 16.088 49.163 15.878 42.795 1.6137 49.06-16.339 7.1768-37.194 12.779-60.804 16.334-9.6571 1.4541-50.327 2.6682-59.061 1.7631zm-1209.5-151.13v-151.24h-42-42v-44.5-44.5h167.63 167.63l-7.3339 7.75c-4.0337 4.2625-23.06 24.288-42.28 44.5l-34.946 36.75h-30.347-30.347v95.751 95.751l-46.074 48.499c-25.34 26.674-49.19 51.645-53 55.49l-6.9265 6.9914v-151.24zm-1175-48.241v-193h52.494 52.494l0.2564 74.25 0.2564 74.25 69.25 0.25685 69.25 0.25684v-74.507-74.507h52.5 52.5v193 193h-52.5-52.5v-74-74h-69.5-69.5v74 74h-52.5-52.5v-193zm1923 0v-193h140 140v44.5 44.5h-87.5-87.5v28.493 28.493l69.25 0.25684 69.25 0.25685 0.2607 42.75 0.2608 42.75h-69.511-69.511v32.5 32.5h87.5 87.5v44.5 44.5h-140-140v-193zm1017 0v-193h51.38 51.38l76.239 115.25c41.931 63.388 76.86 115.91 77.62 116.71 1.1762 1.2464 1.3818-15.902 1.3818-115.25v-116.71h49 49v193 193h-51.858-51.858l-77.392-117.18-77.392-117.18-0.2541 117.18-0.2542 117.18h-48.496-48.496v-193zm-3062-351.97v-41.028h-29-29v-14-14h71.5 71.5v14 14h-28.489-28.489l-0.2612 40.75-0.2612 40.75-13.75 0.27822-13.75 0.27822v-41.028zm123.28 39.991c-9.4784-1.4415-17.301-7.5798-21.689-17.02-2.0054-4.3142-2.1045-6.3064-2.3993-48.25l-0.3076-43.75h59.879c66.548 0 65.231-0.12006 73.159 6.6664 2.2861 1.9568 5.3761 5.8699 6.8666 8.6957l2.71 5.1378 0.3023 31.814c0.2509 26.404 0.039 32.719-1.2448 37.136-2.0297 6.982-8.7237 14.476-15.778 17.664l-5.2794 2.3858-45.5 0.15673c-25.025 0.0862-47.849-0.20046-50.719-0.63704zm88.497-28.576c2.1927-1.5359 2.2225-1.8813 2.2225-25.8 0-17.523-0.3327-24.576-1.2-25.443-0.8955-0.89551-11.933-1.2-43.5-1.2h-42.3v25c0 23.667 0.1067 25.107 2 27 1.9321 1.9321 3.3333 2 41.278 2 33.931 0 39.58-0.21191 41.5-1.5567zm45.222-25.443v-55l15.25 0.0166 15.25 0.0166 26 41.46c14.3 22.803 26.225 41.471 26.5 41.483 0.275 0.0124 12.2-18.632 26.5-41.432l26-41.455 15.75-0.0449 15.75-0.0448v55 55h-14-14v-30.559c0-16.807-0.3788-30.325-0.8419-30.039-0.463 0.28616-9.3505 14.038-19.75 30.559l-18.908 30.039-16.5-0.0221-16.5-0.0221-19-30.436c-10.45-16.739-19.338-30.455-19.75-30.478-0.4125-0.0233-0.75 13.683-0.75 30.458v30.5h-13.5-13.5v-55zm244.18 53.976c-9.6805-1.4094-19.668-9.8704-22.134-18.751-0.6388-2.3002-1.0366-20.266-1.04-46.975l-0.01-43.25h71.045 71.045l-0.5579 3.25c-0.6803 3.9626-3.5327 23.538-3.5327 24.243 0 0.27862-24.975 0.50658-55.5 0.50658h-55.5v25c0 23.667 0.1067 25.107 2 27 1.9501 1.9501 3.3333 2 55.455 2h53.455l0.5579 3.25c0.6803 3.9626 3.5327 23.538 3.5327 24.243 0 0.82181-113 0.32969-118.82-0.51746zm133.8-53.97v-55.012h14 14v41 41h33.5c18.425 0 33.5 0.19721 33.5 0.43823 0 0.24103-3.7283 6.4285-8.285 13.75l-8.285 13.312-39.215 0.26161-39.215 0.2616v-55.012zm87.711 53.738c0.5257-0.6875 14.193-21.911 30.372-47.164 16.573-25.867 31.482-48.046 34.147-50.796 2.6015-2.6854 7.3265-6.0992 10.5-7.5863l5.7699-2.7038 34.75-0.29824 34.75-0.29823v55.048 55.048h-14-14v-14.5-14.5h-35.483-35.483l-7.767 12.093c-12.226 19.036-8.7041 16.907-27.962 16.907-13.083 0-16.35-0.26185-15.594-1.25zm122.29-68.25v-12.5h-17.813-17.813l-2.5636 2.75c-2.77 2.96-13.82 20.11-13.82 21.44 0 0.44245 11.7 0.80446 26 0.80446h26v-12.5zm46 14.5v-55h14.006 14.006l42.104 35.75c23.157 19.662 42.505 35.9 42.994 36.083 0.5105 0.19108 0.8906-15.066 0.8906-35.75v-36.083h14 14v55 55l-13.75-0.003-13.75-0.003-43-36.488c-23.65-20.069-43.338-36.492-43.75-36.497-0.4125-0.005-0.75 16.416-0.75 36.491v36.5h-13.5-13.5v-55zm183.28 53.988c-9.4392-1.3786-17.292-7.5293-21.689-16.988-2.005-4.3132-2.1049-6.3161-2.4078-48.25l-0.316-43.75h71.541 71.541l-0.461 2.75c-0.5689 3.3943-3.489 24.134-3.489 24.78 0 0.25835-24.975 0.46973-55.5 0.46973h-55.5v25c0 23.667 0.1067 25.107 2 27 1.9502 1.9502 3.3333 2 55.5 2 29.425 0 53.5 0.22796 53.5 0.50658 0 0.7057 2.8524 20.281 3.5327 24.243l0.5579 3.25-56.795-0.12476c-31.237-0.0686-59.144-0.46778-62.015-0.88704zm190.72-20.05v-21.054l-28-33.41c-15.4-18.375-28-33.651-28-33.946 0-0.29498 8.0264-0.53632 17.836-0.53632h17.836l16.678 20c9.1731 11 17.01 20 17.416 20 0.4061 0 7.8444-8.5115 16.53-18.914 8.6854-10.403 16.393-19.414 17.128-20.024 0.8959-0.74356 7.1339-1.0189 18.928-0.83551l17.592 0.27356-27.972 33.427-27.973 33.427v21.323 21.323h-14-14v-21.054zm145.98 19.842c-0.013-0.70843 0.7496-7.0256 1.6936-14.038l1.7162-12.75h51.735c57.171 0 54.894 0.2623 54.863-6.3214-0.031-6.495 2.5783-6.1296-47.697-6.6786-44.002-0.48051-45.966-0.58276-50.377-2.6227-5.8566-2.7088-11.579-8.4313-14.288-14.288-1.8228-3.9411-2.1205-6.4258-2.107-17.589 0.012-9.9296 0.4074-13.871 1.6738-16.69 2.3953-5.3304 9.2441-12.352 14.642-15.011l4.6685-2.2998 60.568-0.28633 60.568-0.28633-1.977 14.036-1.977 14.036h-53.77c-47.548 0-53.952 0.18182-55.341 1.5714-1.7931 1.7932-2.0666 6.6348-0.5362 9.4943 0.9992 1.8671 2.5547 1.9343 44.818 1.9343 50.067 0 50.68 0.0778 58.913 7.4805 7.8072 7.0193 9.7256 12.371 9.6861 27.02-0.039 14.322-1.9777 19.964-9.1268 26.553-8.473 7.8102-4.8681 7.4123-70.076 7.7348-46.991 0.23238-58.254 0.0391-58.273-1zm-54.98-85.86v-9.072l5.6994-6.928 5.6995-6.928h17.884c9.8361 0 17.734 0.377 17.55 0.83778-0.1833 0.46077-5.9583 7.6348-12.833 15.942l-12.5 15.105-10.75 0.0576-10.75 0.0576v-9.072z" fill="#10100c"/>
 </g>
</svg>
