<?xml version="1.0" encoding="UTF-8" standalone="no"?>
<svg
   xmlns:dc="http://purl.org/dc/elements/1.1/"
   xmlns:cc="http://creativecommons.org/ns#"
   xmlns:rdf="http://www.w3.org/1999/02/22-rdf-syntax-ns#"
   xmlns:svg="http://www.w3.org/2000/svg"
   xmlns="http://www.w3.org/2000/svg"
   version="1.1"
   id="svg2"
   viewBox="0 0 1433.979 398.71"
   height="398.70999"
   width="1433.979">
  <defs
     id="defs4" />
  <metadata
     id="metadata7">
    <rdf:RDF>
      <cc:Work
         rdf:about="">
        <dc:format>image/svg+xml</dc:format>
        <dc:type
           rdf:resource="http://purl.org/dc/dcmitype/StillImage" />
        <dc:title></dc:title>
      </cc:Work>
    </rdf:RDF>
  </metadata>
  <g
     transform="translate(0,-653.65216)"
     id="layer1">
    <path
       id="path4170"
       d="m 1.6602537,863.39714 -1.35534095,-0.94932 0,-93.78754 c 0,-64.65242 0.2013587,-94.36517 0.6481844,-95.64693 0.37204615,-1.06725 1.21638515,-2.01176 1.98193275,-2.21706 1.7196429,-0.46117 66.1661621,-0.4701 67.8828451,-0.009 2.570445,0.68981 2.666096,1.91387 2.666096,34.11891 0,18.08285 0.228855,30.76749 0.555099,30.76749 1.391927,0 5.547327,-3.40336 6.103542,-4.99892 0.339423,-0.97366 1.197728,-2.5112 1.907346,-3.41675 1.327669,-1.69424 6.839772,-10.73457 9.184038,-15.06261 0.726681,-1.34162 1.969792,-3.21502 2.762467,-4.16311 0.792676,-0.9481 1.441225,-2.00442 1.441225,-2.34739 0,-0.82308 6.168482,-11.19975 8.636552,-14.52848 0.62171,-0.83851 1.8231,-2.89667 2.66976,-4.57369 1.93769,-3.83807 4.29701,-7.77821 6.80851,-11.3704 3.50138,-5.00803 1.63945,-4.78998 40.90173,-4.78998 19.10926,0 35.60746,0.17267 36.66267,0.38371 1.82134,0.36427 1.89962,0.49559 1.54494,2.59176 -0.2055,1.21443 -0.89616,2.8941 -1.53481,3.73261 -0.63864,0.83851 -1.68199,2.48504 -2.31855,3.65896 -0.63656,1.17391 -1.73542,2.65715 -2.44192,3.2961 -0.7065,0.63894 -1.28454,1.4253 -1.28454,1.74746 0,0.74561 -5.29994,8.51787 -9.90966,14.53231 -0.92236,1.20343 -1.67702,2.37107 -1.67702,2.59476 0,0.49827 -4.84471,7.69694 -5.95043,8.84163 -0.43878,0.45425 -1.34743,1.82636 -2.01922,3.04913 -0.67179,1.22277 -1.96627,3.21805 -2.87661,4.43395 -4.04095,5.39732 -7.60238,10.61601 -8.05225,11.79926 -0.26887,0.70718 -0.94913,1.66777 -1.51169,2.13465 -0.56256,0.46689 -1.56264,1.82772 -2.2224,3.02407 -0.65975,1.19635 -1.8662,3.13566 -2.68098,4.30957 -0.81479,1.17392 -2.10727,3.05067 -2.87219,4.17056 -0.76492,1.11989 -2.10848,2.90363 -2.98569,3.96386 -1.50232,1.81578 -4.80825,8.17263 -4.80825,9.24561 0,1.02812 3.27782,7.39207 4.65704,9.04172 0.79267,0.94809 1.44122,2.05068 1.44122,2.45019 0,0.39952 0.74902,1.81917 1.66449,3.1548 1.73308,2.52846 2.54713,3.89429 4.95995,8.32184 0.79251,1.45427 1.93136,3.19296 2.53078,3.86377 0.59942,0.67081 1.59754,2.19396 2.21803,3.38478 1.43321,2.75055 3.19969,5.67484 4.90309,8.11672 0.7346,1.05306 1.8698,3.04554 2.52266,4.42772 0.65287,1.38218 1.48474,2.69705 1.8486,2.92193 0.36386,0.22488 1.22691,1.5638 1.91787,2.97537 1.72809,3.53028 4.30153,7.79682 5.94387,9.85442 0.75466,0.94546 1.37211,2.0726 1.37211,2.50474 0,0.43214 0.64692,1.56143 1.43761,2.50952 0.79068,0.94809 2.02648,2.9587 2.74622,4.46802 1.27153,2.66647 2.96672,5.30885 5.53902,8.63401 0.6897,0.89156 1.25723,1.85203 1.26118,2.13439 0.004,0.28235 1.37142,2.70875 3.03884,5.39198 1.66742,2.68323 3.62265,5.97629 4.34495,7.3179 0.72229,1.34162 1.96182,3.21502 2.7545,4.16312 0.79267,0.94809 1.44122,2.06733 1.44122,2.4872 0,0.41987 0.87295,2.0813 1.93987,3.69208 3.25023,4.90695 5.54113,4.65627 -40.78151,4.46243 -34.95188,-0.14625 -40.51222,-0.29223 -41.27999,-1.08375 -0.48801,-0.50311 -3.08846,-5.26596 -5.77879,-10.58411 -2.69032,-5.31815 -5.28049,-10.12053 -5.75592,-10.67195 -0.47544,-0.55141 -1.13961,-1.82612 -1.47596,-2.83269 -0.33634,-1.00657 -1.33568,-2.89721 -2.22074,-4.20142 -0.885067,-1.30422 -1.609207,-2.8608 -1.609207,-3.45907 0,-0.59827 -0.6894,-1.90707 -1.532006,-2.90844 -0.842602,-1.00138 -1.947514,-2.99837 -2.455358,-4.43775 -0.507845,-1.43939 -1.320535,-3.05595 -1.80598,-3.59236 -0.485446,-0.53641 -1.267169,-2.06521 -1.737173,-3.39733 -0.469999,-1.33212 -1.574911,-3.48356 -2.455359,-4.78097 -0.880442,-1.29741 -1.60081,-2.61336 -1.60081,-2.92434 0,-0.31099 -0.648153,-1.43898 -1.440347,-2.50666 -0.792188,-1.06768 -1.742619,-2.84525 -2.112063,-3.95015 -0.369451,-1.1049 -1.19252,-2.75143 -1.82905,-3.65896 -0.63653,-0.90752 -1.484852,-2.66012 -1.88516,-3.89466 -0.821258,-2.53276 -5.447778,-5.8855 -6.2916,-4.5594 -0.246997,0.38817 -0.453295,16.83482 -0.45843,36.5481 l -0.0093,35.84234 -1.564264,0.59474 c -0.947809,0.36035 -14.833102,0.59473 -35.234187,0.59473 -29.486929,0 -33.8383067,-0.11794 -35.0252663,-0.94932 z"
       style="opacity:1;fill:#d40101;fill-opacity:1;stroke:#fdfdfd;stroke-width:0.60982549;stroke-opacity:1" />
    <path
       id="path4174"
       d="m 277.77551,867.34118 c -3.52175,-0.23862 -8.18691,-0.85315 -10.36704,-1.36562 -2.18012,-0.51247 -6.15856,-1.25495 -8.84097,-1.64996 -2.6824,-0.39501 -5.89779,-1.23892 -7.1453,-1.87535 -1.24751,-0.63643 -3.71798,-1.4568 -5.48993,-1.82303 -1.77195,-0.36624 -4.18221,-1.29627 -5.35612,-2.06674 -1.17391,-0.77048 -3.15965,-1.7248 -4.41274,-2.12071 -1.25309,-0.39592 -2.438,-0.97817 -2.63313,-1.2939 -0.19514,-0.31573 -1.50246,-1.1559 -2.90517,-1.86706 -1.40271,-0.71115 -3.51086,-2.09647 -4.68477,-3.07849 -1.17392,-0.98201 -2.9112,-2.38579 -3.86063,-3.11951 -2.41052,-1.86283 -6.46976,-5.85435 -8.64079,-8.49664 -4.59609,-5.59373 -9.4523,-12.97941 -9.4523,-14.37576 0,-0.46498 -0.67587,-2.12076 -1.50194,-3.67951 -2.80862,-5.29971 -5.32045,-16.04336 -6.00462,-25.68302 -0.73162,-10.30816 0.0916,-24.32588 1.59996,-27.24266 0.51129,-0.98872 1.37915,-3.56923 1.92858,-5.73449 1.83196,-7.21955 6.92136,-16.40989 13.63507,-24.62196 2.28985,-2.80089 10.53692,-10.72087 11.16364,-10.72087 0.22429,0 1.55742,-0.96048 2.96251,-2.13439 1.40508,-1.17392 2.88862,-2.13439 3.29674,-2.13439 0.40813,0 1.32079,-0.53917 2.02812,-1.19816 1.57089,-1.4635 11.14206,-5.83257 14.49446,-6.61646 1.34162,-0.31372 3.81141,-1.1216 5.48843,-1.7953 4.11996,-1.6551 13.47079,-2.58659 25.96554,-2.58659 12.72749,0 20.69856,0.80817 27.08928,2.74652 2.68323,0.81384 6.00907,1.76464 7.39075,2.11288 1.38168,0.34824 3.18708,1.16407 4.01199,1.81294 0.82492,0.64888 2.21127,1.35834 3.08078,1.57657 1.49501,0.37522 5.60391,2.77304 10.10445,5.8966 2.24303,1.55676 10.54444,9.7977 12.89751,12.80357 2.0355,2.6002 5.33656,8.13223 5.85071,9.80483 0.22996,0.7481 1.20663,2.8695 2.17039,4.71422 0.96376,1.84472 1.75287,3.80465 1.75359,4.3554 6.1e-4,0.55074 0.87309,4.25543 1.93859,8.23264 1.92956,7.20243 1.93747,7.29358 1.98194,22.84027 0.0354,12.38407 -0.12828,15.8174 -0.79231,16.61774 -0.76471,0.92169 -4.697,1.00877 -45.55576,1.00877 -32.63719,0 -45.13845,0.1912 -46.27207,0.70771 -1.74231,0.79385 -1.72706,0.72611 -0.74458,3.30795 0.74581,1.95992 6.60558,7.57102 7.90655,7.57102 0.41072,0 2.08601,0.71293 3.72286,1.58429 6.11937,3.2576 30.56116,5.68843 36.84902,3.66477 1.56913,-0.505 5.45998,-1.10569 8.64631,-1.33487 3.56824,-0.25665 7.98871,-1.08836 11.50923,-2.16544 6.62947,-2.02825 8.94672,-2.19022 9.75051,-0.68155 0.96949,1.81966 3.6067,14.84573 4.01774,19.84494 0.21488,2.61347 0.90071,6.45537 1.52406,8.53756 1.39606,4.66334 2.03175,9.03249 1.51144,10.38839 -0.55085,1.43549 -5.15361,3.35338 -11.23786,4.68261 -2.85094,0.62285 -6.28888,1.52926 -7.63988,2.01425 -1.351,0.48499 -6.56501,1.33011 -11.58668,1.87805 -5.02168,0.54794 -10.91407,1.38951 -13.09419,1.87015 -4.71534,1.03956 -19.09546,1.49467 -28.05197,0.88779 z m 19.1171,-97.57082 c 1.03704,-1.48057 0.7068,-3.04306 -1.76292,-8.34117 -1.61316,-3.46059 -5.09804,-7.21188 -8.37645,-9.0168 -2.7251,-1.5003 -8.71289,-1.77137 -13.24651,-0.59967 -4.94781,1.27875 -8.25172,4.28325 -11.29289,10.2695 -2.20242,4.33526 -2.64832,6.97231 -1.39148,8.22915 0.53462,0.53462 5.37233,0.73179 17.95527,0.73179 16.77192,0 17.24685,-0.0334 18.11498,-1.2728 z"
       style="opacity:1;fill:#d40101;fill-opacity:1;stroke:#fdfdfd;stroke-width:0.60982549;stroke-opacity:1" />
    <path
       id="path4176"
       d="m 429.62205,867.6119 c -1.17391,-0.15706 -5.70187,-1.10675 -10.06212,-2.11044 -10.45644,-2.40696 -15.42557,-4.86388 -21.61678,-10.68813 -6.59261,-6.20185 -8.64155,-10.07715 -10.99741,-20.80015 l -1.84095,-8.37933 0,-30.3722 0,-30.37219 -1.49684,-1.49684 c -1.3807,-1.3807 -1.94969,-1.49684 -7.333,-1.49684 -5.70361,0 -5.84967,-0.0355 -6.43089,-1.56427 -0.67369,-1.77193 -0.7203,-44.19442 -0.0512,-46.61195 0.40962,-1.48004 0.61415,-1.53347 7.00342,-1.82947 5.59979,-0.25944 6.71029,-0.48148 7.445,-1.48867 0.69093,-0.94716 0.86352,-4.27147 0.86352,-16.63283 l 0,-15.44909 1.56426,-0.59473 c 2.10269,-0.79944 67.33803,-0.79944 69.44071,0 l 1.56426,0.59473 0,15.44909 c 0,12.3649 0.17247,15.6854 0.86391,16.63283 0.78482,1.07539 1.87847,1.21167 11.9468,1.48867 10.73606,0.29537 11.11934,0.34996 12.24735,1.74458 1.09808,1.35762 1.16444,2.69772 1.16444,23.51574 0,21.37374 -0.0396,22.11855 -1.24341,23.41073 -1.18496,1.2719 -1.73087,1.33464 -11.6144,1.33464 -10.19808,0 -10.39595,0.0249 -11.86784,1.49684 l -1.49685,1.49684 0.0149,20.30442 c 0.009,11.64223 0.28205,21.47514 0.64109,23.04863 0.85911,3.76502 3.07675,6.76516 6.76926,9.15783 2.85463,1.84974 3.65222,2.05289 9.5834,2.44096 3.55829,0.23282 6.9251,0.61961 7.48178,0.85955 1.2616,0.54376 1.57585,1.78847 2.34671,9.29489 1.05948,10.31699 1.28733,11.93662 2.52406,17.94217 0.66259,3.21754 1.11931,7.19097 1.01493,8.82984 l -0.18977,2.97976 -3.65896,0.99828 c -2.01242,0.54905 -4.61943,1.42049 -5.79334,1.93652 -1.17391,0.51604 -3.5065,1.12764 -5.18352,1.35912 -5.81287,0.80233 -12.8167,2.0951 -14.94072,2.75776 -2.1899,0.6832 -24.83116,1.3252 -28.6618,0.81271 l -3e-5,0 z"
       style="opacity:1;fill:#d40101;fill-opacity:1;stroke:#fdfdfd;stroke-width:0.60982549;stroke-opacity:1" />
    <path
       id="path4178"
       d="m 576.10312,867.46002 c -2.01243,-0.2582 -4.61943,-0.77406 -5.79334,-1.14636 -1.17392,-0.3723 -4.58027,-1.12166 -7.56968,-1.66524 -2.98941,-0.54358 -6.4514,-1.50672 -7.69332,-2.14029 -1.24191,-0.63358 -3.59841,-1.4783 -5.23666,-1.87715 -1.63824,-0.39886 -3.39519,-1.08306 -3.90433,-1.52045 -0.50914,-0.43739 -2.02196,-1.29059 -3.36183,-1.89599 -1.33988,-0.6054 -3.25589,-1.65946 -4.25782,-2.34236 -1.00192,-0.68289 -2.53846,-1.60086 -3.41454,-2.03993 -0.87607,-0.43907 -4.26288,-3.28777 -7.52626,-6.33044 -5.91768,-5.51748 -9.91402,-10.28365 -12.22477,-14.57971 -4.43772,-8.25042 -7.03894,-14.18271 -7.84286,-17.88625 -0.50963,-2.34782 -1.40294,-5.50367 -1.98513,-7.01299 -0.89794,-2.32788 -1.06297,-5.01092 -1.08783,-17.68494 l -0.0293,-14.94072 1.99709,-7.01299 c 1.0984,-3.85715 2.8065,-8.65953 3.79578,-10.67195 0.98927,-2.01242 1.79858,-4.10218 1.79845,-4.64391 -1.3e-4,-0.54172 0.5098,-1.63941 1.13318,-2.4393 0.62339,-0.79989 1.60347,-2.3705 2.17796,-3.49025 0.5745,-1.11975 2.71928,-4.22724 4.76619,-6.90554 9.39172,-12.28869 22.1896,-20.53549 40.40356,-26.03558 8.19809,-2.47559 19.89396,-3.43281 35.36987,-2.89478 15.38872,0.535 25.6657,2.17444 37.19936,5.93426 2.01242,0.65602 4.75664,1.49142 6.09825,1.85644 4.48508,1.22028 4.62105,1.59459 3.59119,9.8861 -0.49508,3.98593 -1.28117,7.98398 -1.74689,8.88456 -0.4657,0.90058 -1.28875,4.61421 -1.82898,8.25251 -1.00628,6.77692 -2.83785,14.27815 -4.37175,17.90455 -0.60482,1.4299 -1.14563,1.93183 -1.80772,1.67777 -0.51959,-0.19939 -3.18712,-0.92971 -5.92784,-1.62294 -2.74071,-0.69323 -6.159,-1.65404 -7.59619,-2.13514 -3.88668,-1.30105 -21.71672,-1.22449 -24.21925,0.10399 -1.00621,0.53415 -2.93641,1.31101 -4.28932,1.72634 -4.92261,1.51119 -10.26162,6.42981 -13.30821,12.26031 -2.22087,4.25024 -3.04514,9.27619 -2.59365,15.81446 0.71106,10.29713 6.04659,18.08578 15.59613,22.76681 l 4.59505,2.25241 12.19651,-0.0344 c 11.96303,-0.0338 12.30157,-0.0702 17.68494,-1.90237 7.55965,-2.57276 8.58236,-2.7703 9.37821,-1.81136 0.89498,1.07838 3.44985,11.24114 4.3371,17.2521 0.38894,2.63498 1.23577,6.89623 1.88186,9.46943 0.64608,2.57321 1.55604,7.37559 2.02212,10.67195 0.77291,5.4663 0.75682,6.15428 -0.18297,7.82286 -0.90939,1.61465 -1.74303,2.01481 -7.09897,3.4077 -3.33771,0.86802 -6.8214,1.88961 -7.74153,2.27021 -0.92012,0.38059 -5.03644,1.13069 -9.14738,1.66689 -4.11094,0.53621 -8.55934,1.38708 -9.88536,1.89083 -2.77379,1.05377 -26.07754,1.69558 -32.34912,0.89093 l 0,-3e-5 z"
       style="opacity:1;fill:#d40101;fill-opacity:1;stroke:#fdfdfd;stroke-width:0.60982549;stroke-opacity:1" />
    <path
       id="path4186"
       d="m 666.1961,863.3971 -1.35534,-0.94932 0,-102.89024 c 0,-92.13672 0.0992,-103.03189 0.94932,-104.24558 l 0.94932,-1.35534 34.04097,0 c 30.91239,0 34.11791,0.0926 34.87794,1.00786 0.67896,0.81762 0.8945,7.42704 1.14186,35.01466 0.1677,18.70375 0.52389,34.22555 0.79153,34.49291 0.26764,0.26736 0.95369,0.15687 1.52456,-0.24551 0.57087,-0.4024 1.86121,-1.10947 2.86743,-1.57129 1.00621,-0.46182 2.35224,-1.42639 2.99118,-2.14348 0.63894,-0.7171 1.48964,-1.30382 1.89044,-1.30382 0.40079,0 1.80925,-0.78273 3.1299,-1.73941 1.32065,-0.95667 3.48859,-2.09149 4.81765,-2.52182 1.32905,-0.43034 3.50911,-1.33214 4.84456,-2.00401 3.51,-1.76589 12.12161,-2.8745 22.26983,-2.86689 11.28145,0.009 18.74458,1.12745 23.18009,3.47556 1.84843,0.97853 3.90659,1.96479 4.57369,2.19168 1.17342,0.3991 2.90379,1.53028 7.82242,5.11365 5.13336,3.73982 10.16949,9.5381 12.33931,14.2067 0.54559,1.17391 1.40323,2.5974 1.90586,3.16329 1.09971,1.23813 3.68484,9.5338 4.81036,15.43639 0.63794,3.34552 0.81922,15.56917 0.83819,56.51775 0.0218,47.04317 -0.0728,52.34593 -0.94887,53.22205 -0.8717,0.8717 -4.51489,0.95565 -34.97164,0.80584 -27.73487,-0.13642 -34.18428,-0.32142 -35.00663,-1.00418 -0.92028,-0.76407 -1.00806,-4.62242 -1.00806,-44.30796 l 0,-43.47101 -1.74816,-3.86825 c -1.35184,-2.9913 -2.42329,-4.35213 -4.72615,-6.00265 -2.84397,-2.03833 -3.21127,-2.13439 -8.16151,-2.13439 -4.98754,0 -5.28145,0.0788 -7.77415,2.0831 -1.42485,1.14571 -3.4144,3.54273 -4.42123,5.32674 l -1.8306,3.24363 0,44.12707 c 0,41.97512 -0.0544,44.17629 -1.11521,45.13633 -1.00924,0.91335 -4.29953,1.00925 -34.62437,1.00925 -29.34141,0 -33.67772,-0.11807 -34.86449,-0.94931 z"
       style="opacity:1;fill:#d40101;fill-opacity:1;stroke:#fdfdfd;stroke-width:0.60982549;stroke-opacity:1" />
    <path
       id="path4188"
       d="m 902.06287,867.15995 c -2.18012,-0.40067 -4.5199,-1.03719 -5.1995,-1.41451 -0.6796,-0.37733 -3.01218,-1.00639 -5.18351,-1.39794 -2.17134,-0.39153 -4.36445,-1.08571 -4.87359,-1.5426 -0.50914,-0.4569 -2.03019,-1.32605 -3.38011,-1.93145 -1.34993,-0.6054 -3.36503,-1.78678 -4.478,-2.62529 -2.4491,-1.84515 -11.03551,-10.44962 -11.03551,-11.05872 0,-0.23892 -0.64851,-1.2101 -1.44112,-2.15819 -0.79262,-0.9481 -1.64217,-2.40987 -1.88789,-3.24838 -0.24572,-0.83851 -1.22292,-3.17109 -2.17155,-5.18352 -4.2952,-9.11179 -3.83855,-27.97903 0.92682,-38.29305 1.59303,-3.44791 3.3961,-5.95146 7.11823,-9.88364 2.74164,-2.89635 5.96632,-5.81205 7.16595,-6.47934 1.19964,-0.66729 4.10211,-2.3152 6.44993,-3.66203 3.0529,-1.75129 6.0926,-2.85643 10.67195,-3.87998 3.52174,-0.78717 7.22643,-1.78086 8.23264,-2.20821 3.08786,-1.31144 30.09661,-1.4748 40.27082,-0.24357 7.51544,0.90948 8.47669,0.91804 9.31181,0.0829 2.30477,-2.30478 0.42905,-6.61708 -4.52289,-10.39816 -2.08556,-1.59245 -3.73929,-2.24503 -7.11804,-2.80886 -2.42071,-0.40397 -5.14232,-1.1133 -6.04803,-1.5763 -2.52667,-1.29165 -14.8417,-1.10866 -21.55519,0.3203 -3.00293,0.63917 -7.65524,1.35456 -10.33848,1.58974 -2.68323,0.23519 -7.07397,1.06312 -9.7572,1.83986 -2.68324,0.77674 -6.6025,1.81038 -8.70947,2.29698 -3.70618,0.85594 -3.86,0.84313 -4.72615,-0.39346 -0.49241,-0.70301 -0.90424,-1.9718 -0.91519,-2.81953 -0.0109,-0.84773 -0.56367,-3.05065 -1.22827,-4.89537 -0.6646,-1.84472 -1.63048,-6.09825 -2.1464,-9.45229 -0.51591,-3.35404 -1.4541,-7.50006 -2.08485,-9.21336 -0.63075,-1.71331 -1.45364,-5.356 -1.82865,-8.09486 -0.63771,-4.65761 -0.60025,-5.0943 0.57917,-6.75065 1.25903,-1.76813 3.19743,-2.63922 7.46505,-3.35466 1.24339,-0.20845 3.44274,-0.90186 4.88743,-1.54091 1.44469,-0.63906 5.09254,-1.46093 8.10632,-1.82638 3.01379,-0.36545 6.71451,-1.04413 8.22382,-1.50817 9.42591,-2.898 36.90078,-4.19612 58.17856,-2.74879 4.99819,0.33998 10.07498,0.86009 11.28177,1.15581 9.85946,2.41599 16.59709,4.39348 18.63594,5.46963 1.32868,0.70131 2.8583,1.2751 3.39916,1.2751 0.54084,0 2.33429,0.96048 3.98543,2.13439 1.65113,1.17392 3.24115,2.13439 3.53335,2.13439 0.29217,0 1.43297,0.75466 2.53497,1.67702 1.1021,0.92236 3.1215,2.47948 4.4875,3.46027 1.366,0.98079 3.4605,3.03895 4.6544,4.57369 4.8422,6.22473 5.786,7.56152 5.7967,8.21027 0.01,0.37314 0.8293,1.88601 1.8294,3.36195 1.0001,1.47594 1.8249,3.39689 1.8329,4.26878 0.01,0.87189 0.7076,3.23178 1.5548,5.24421 0.952,2.2612 1.7555,5.75557 2.1034,9.14738 0.7559,7.3684 0.7553,99.12 -6e-4,100.31629 -0.5002,0.79165 -5.096,0.93729 -34.15269,1.08231 -22.79363,0.11377 -33.96256,-0.04 -34.78253,-0.47882 -1.01818,-0.54491 -1.20921,-1.2893 -1.21679,-4.74126 -0.009,-4.0245 -0.85548,-6.83024 -2.19412,-7.2712 -0.3732,-0.12294 -2.15338,0.95307 -3.95597,2.39114 -4.04983,3.23086 -9.13434,6.57853 -9.99164,6.57853 -0.35271,0 -1.59884,0.65068 -2.76919,1.44595 -1.17035,0.79527 -3.35719,1.65363 -4.85965,1.90747 -1.50246,0.25384 -3.83306,0.87135 -5.17911,1.37225 -3.04791,1.1342 -12.4078,2.56165 -16.47334,2.5123 -1.67702,-0.0204 -4.83287,-0.36482 -7.013,-0.76548 z m 44.95101,-40.43792 c 1.25893,-0.63254 3.20237,-2.55691 4.57583,-4.53092 1.94523,-2.79578 2.50382,-4.26426 3.01561,-7.92773 0.81452,-5.83045 0.42493,-10.53117 -1.00364,-12.10971 -0.98694,-1.09056 -1.86957,-1.22911 -7.83015,-1.22911 -6.21152,0 -6.99867,0.13682 -10.44406,1.8153 -2.04943,0.99841 -4.58451,2.71355 -5.63353,3.81141 -2.94697,3.08419 -4.03803,8.84923 -2.63236,13.90904 0.74595,2.6851 4.49286,6.38726 7.32205,7.23461 2.96878,0.88916 10.00263,0.34735 12.63025,-0.97289 z"
       style="opacity:1;fill:#d40101;fill-opacity:1;stroke:#fdfdfd;stroke-width:0.60982549;stroke-opacity:1" />
    <path
       id="path4196"
       d="m 1262.5635,1051.57 c -3.9033,-0.2267 -7.8824,-0.7131 -8.8425,-1.0808 -0.9601,-0.3678 -4.9015,-1.1111 -8.7586,-1.6519 -3.8572,-0.5408 -9.2084,-1.6381 -11.8916,-2.4386 -2.6832,-0.8005 -6.5251,-1.7815 -8.5376,-2.1801 -2.0124,-0.3986 -4.6194,-1.208 -5.7933,-1.7986 -1.1739,-0.5907 -3.6401,-1.3932 -5.4805,-1.7835 -1.8404,-0.3902 -3.9907,-1.1319 -4.7786,-1.6481 -0.788,-0.5163 -2.8497,-1.3516 -4.5817,-1.8564 -1.732,-0.5047 -4.0068,-1.4139 -5.0551,-2.0206 -1.0484,-0.6066 -3.4137,-1.5411 -5.2562,-2.0768 -1.8426,-0.5356 -3.6816,-1.3733 -4.0867,-1.8614 -0.4051,-0.4881 -2.0664,-1.3292 -3.6918,-1.869 -1.6254,-0.5399 -3.2719,-1.3632 -3.6589,-1.8295 -0.3871,-0.4664 -2.0515,-1.2956 -3.6987,-1.8427 -1.6473,-0.5471 -3.1555,-1.2544 -3.3516,-1.5716 -0.1961,-0.3173 -2.0206,-1.4626 -4.0546,-2.5452 -2.034,-1.0825 -4.4152,-2.3799 -5.2916,-2.883 -6.641,-3.8128 -8.6101,-5.0629 -9.3191,-5.9166 -1.0654,-1.2828 -1.5453,-51.90593 -0.5104,-53.83978 1.0023,-1.87284 3.0787,-1.47501 6.3318,1.21319 1.6235,1.34162 3.2288,2.43931 3.5672,2.43931 0.3385,0 1.5531,0.82326 2.6991,1.82947 1.146,1.00621 2.4647,1.82948 2.9304,1.82948 0.4657,0 1.6224,0.64692 2.5705,1.43761 0.9481,0.79068 2.9587,2.02926 4.468,2.7524 2.9261,1.40191 4.7402,2.40726 9.2008,5.09877 1.5387,0.92844 3.2129,1.68808 3.7206,1.68808 0.5076,0 2.1523,0.65363 3.6547,1.45251 3.2886,1.74852 12.8905,5.61447 15.4398,6.21634 1.0062,0.23757 2.7899,0.90663 3.9638,1.4868 1.1739,0.58016 4.0554,1.5155 6.4032,2.07852 2.3478,0.56301 5.5037,1.53561 7.013,2.16132 1.5093,0.62571 4.8024,1.423 7.3179,1.77175 2.5155,0.34876 5.7286,1.04173 7.1402,1.53993 3.1502,1.11186 9.404,2.00078 17.8626,2.53903 3.5218,0.2241 8.2735,0.78775 10.5594,1.25257 4.8864,0.99361 25.7047,1.17052 28.1542,0.23924 0.8764,-0.33323 6.1769,-1.01932 11.7788,-1.52464 12.3059,-1.11005 17.2849,-1.81533 18.8936,-2.6763 0.6665,-0.35668 3.2333,-0.93977 5.704,-1.29576 2.4707,-0.35598 6.276,-1.2927 8.4561,-2.08158 2.1801,-0.78888 5.8848,-1.99228 8.2327,-2.67422 6.7847,-1.97065 10.1472,-3.14676 13.4161,-4.69255 1.677,-0.79303 3.8724,-1.63006 4.8786,-1.86008 1.0062,-0.23001 2.9272,-1.03479 4.2688,-1.78838 1.3416,-0.7536 3.537,-1.71631 4.8786,-2.13935 1.3416,-0.42305 2.8509,-1.11483 3.3541,-1.53729 0.8963,-0.75271 4.3049,-2.63182 10.6997,-5.89877 1.763,-0.90067 3.3812,-1.92193 3.596,-2.26949 0.2148,-0.34755 1.5455,-1.18947 2.9571,-1.87093 2.5341,-1.2234 5.9652,-3.44077 7.7555,-5.01207 0.5062,-0.44423 2.006,-1.44825 3.3329,-2.23115 l 2.4126,-1.42346 1.0883,1.34409 c 1.0049,1.24094 1.0882,3.24607 1.085,26.12693 0,15.05203 -0.2489,25.66696 -0.6288,27.03456 -0.4101,1.4768 -1.0911,2.3946 -1.9785,2.6667 -1.3962,0.4282 -7.3133,3.7928 -10.4525,5.9435 -2.7068,1.8546 -25.4619,13.2261 -26.4662,13.2261 -0.484,0 -1.7677,0.5487 -2.8527,1.2192 -1.085,0.6706 -3.8616,1.8788 -6.1702,2.685 -2.3087,0.8062 -6.9418,2.47 -10.2958,3.6974 -3.3541,1.2274 -8.9104,2.8906 -12.3475,3.696 -3.437,0.8053 -6.7375,1.7256 -7.3343,2.045 -0.5968,0.3194 -4.7824,1.1618 -9.3013,1.872 -4.519,0.7102 -9.0812,1.5647 -10.1384,1.8987 -4.7987,1.5163 -37.4367,2.2194 -55.1804,1.1887 z"
       style="opacity:1;fill:#d40101;fill-opacity:1;stroke:#fdfdfd;stroke-width:0.60982549;stroke-opacity:1" />
    <path
       id="path4200"
       d="m 1051.9215,917.72573 c -1.3306,-3.18459 -1.3306,-200.5363 0,-203.72089 l 0.8836,-2.1148 32.5821,0 c 29.5424,0 32.6602,0.0939 33.4191,1.00687 0.5569,0.66995 0.939,3.37373 1.1419,8.08019 l 0.3049,7.07332 2.0514,-0.16421 c 1.5128,-0.12108 3.0342,-1.06152 5.7934,-3.58112 3.8842,-3.54692 12.2914,-9.36592 13.5316,-9.36592 0.3908,0 2.2469,-0.81984 4.1246,-1.82186 2.0488,-1.09329 5.4363,-2.17513 8.4709,-2.70527 2.7813,-0.48589 6.2918,-1.16866 7.8011,-1.51728 3.3909,-0.78321 7.7801,-0.83833 10.1236,-0.12712 0.9724,0.2951 4.375,1.01688 7.5614,1.60394 7.7547,1.42877 17.3739,6.05301 24.0423,11.55786 3.0839,2.54581 11.9374,12.635 11.9374,13.60351 0,0.31191 0.76,1.63737 1.6889,2.94546 3.6059,5.07804 7.7799,14.79494 9.6662,22.50258 0.4925,2.01243 1.5008,5.85433 2.2405,8.53756 1.2125,4.39758 1.3439,6.29162 1.3329,19.2095 -0.01,10.36575 -0.2245,14.70834 -0.7795,15.69505 -0.422,0.75028 -1.2801,4.20819 -1.907,7.68425 -0.6268,3.47606 -1.6048,7.21951 -2.1733,8.31877 -0.5684,1.09927 -1.427,3.32381 -1.908,4.94344 -0.481,1.61961 -1.1482,3.11391 -1.4827,3.32066 -0.3346,0.20674 -1.4285,2.07087 -2.4311,4.14252 -3.4547,7.13839 -6.2955,11.00639 -12.9124,17.58106 -5.3222,5.2883 -8.7005,7.87267 -12.6784,9.69889 -1.5093,0.69291 -3.8025,1.82573 -5.096,2.51739 -1.2935,0.69166 -4.1749,1.73552 -6.4032,2.31969 -2.2283,0.58417 -5.8223,1.54082 -7.9867,2.12588 -5.1612,1.3951 -18.4032,1.07335 -22.5921,-0.54894 -1.5093,-0.58453 -4.3159,-1.45549 -6.2369,-1.93546 -1.921,-0.47998 -4.4801,-1.54278 -5.687,-2.36178 -1.2068,-0.819 -2.791,-1.67539 -3.5203,-1.90309 -0.7293,-0.22771 -2.8353,-1.71071 -4.68,-3.29557 -4.316,-3.70796 -7.2101,-5.23243 -8.1503,-4.2931 -0.491,0.49055 -0.7808,10.05139 -0.9971,32.8895 -0.2467,26.05378 -0.4646,32.39019 -1.1419,33.20561 -0.76,0.91508 -3.9722,1.00771 -34.9436,1.00771 l -34.1067,0 -0.8836,-2.1148 z m 92.3747,-104.35855 c 4.1278,-1.33141 5.4387,-2.10479 8.2385,-4.86022 6.6032,-6.49856 9.5089,-16.47126 7.6885,-26.38828 -1.6205,-8.82784 -8.514,-17.2884 -15.5246,-19.05368 -3.4333,-0.86452 -12.3104,-0.44555 -14.4385,0.68146 -5.2727,2.7923 -10.2456,9.34569 -11.4598,15.10194 -0.8453,4.00781 -0.8863,14.12252 -0.074,18.40326 0.3339,1.7609 1.363,4.45145 2.2868,5.979 2.4026,3.97268 7.1748,8.50846 9.485,9.01512 1.0735,0.23544 2.9083,0.94033 4.0772,1.56643 2.7844,1.49132 3.8725,1.44151 9.7213,-0.44503 z"
       style="opacity:1;fill:#d40101;fill-opacity:1;stroke:#fdfdfd;stroke-width:0.60982549;stroke-opacity:1" />
    <path
       id="path4226"
       d="m 1254.9746,919.0919 c -1.4494,-1.74635 -1.4884,-4.74324 -1.3599,-104.44598 0.1134,-87.99875 0.2102,-99.93333 0.8197,-101.14155 l 0.691,-1.36986 32.3753,-0.11724 c 27.5625,-0.0998 32.5245,-0.0194 33.3796,0.54084 1.4313,0.93782 2.0411,3.93308 2.0411,10.02562 0,2.92498 0.1976,5.37241 0.4461,5.526 1.0681,0.66013 4.2611,-0.80246 6.3254,-2.89743 4.2245,-4.28715 8.7306,-7.52965 13.7764,-9.91313 1.3813,-0.65248 3.9196,-1.8883 5.6406,-2.74627 1.721,-0.85797 3.5703,-1.5652 4.1095,-1.57162 0.5393,-0.006 3.96,-0.62106 7.6015,-1.36587 7.4558,-1.52494 10.3275,-1.66153 14.6119,-0.695 1.6324,0.36826 5.3311,1.10552 8.2192,1.63834 3.6988,0.6824 5.8741,1.34531 7.3585,2.24251 1.159,0.70054 3.1383,1.61614 4.3983,2.03467 1.2601,0.41852 2.6421,1.14888 3.0712,1.62301 0.4291,0.47413 1.532,1.21733 2.4509,1.65156 4.2913,2.02771 13.4438,11.15837 16.8526,16.81216 0.44,0.72984 1.6438,2.58944 2.6751,4.13245 1.0313,1.54301 2.1151,3.53258 2.4084,4.42128 0.2932,0.88869 1.0464,2.31135 1.6736,3.16147 0.6272,0.85011 1.3529,2.37299 1.6127,3.38417 0.2598,1.01117 1.1681,3.58508 2.0185,5.71978 0.8504,2.1347 1.7697,5.31964 2.0429,7.07763 0.2733,1.75799 0.9898,4.94292 1.5922,7.07762 0.6192,2.19397 1.3335,6.56469 1.6431,10.05386 0.752,8.47668 0.01,22.62498 -1.3161,24.99917 -0.3172,0.56912 -0.9707,3.44583 -1.4523,6.39269 -0.902,5.51934 -1.5411,7.87892 -2.5659,9.47295 -0.3249,0.50526 -1.003,2.25379 -1.507,3.88561 -0.5041,1.63182 -1.4321,3.66596 -2.0625,4.5203 -0.6303,0.85434 -1.384,2.29075 -1.675,3.19201 -0.2909,0.90127 -1.2123,2.57961 -2.0475,3.72965 -0.8352,1.15004 -1.7409,2.67562 -2.0125,3.39017 -0.2717,0.71455 -1.1533,2.11631 -1.959,3.11503 -2.9046,3.60011 -12.273,12.69752 -14.6255,14.20239 -1.3223,0.84589 -2.668,1.85579 -2.9904,2.24422 -0.3223,0.38843 -1.6491,1.0496 -2.9482,1.46925 -1.2992,0.41967 -3.2931,1.34809 -4.431,2.06318 -1.1378,0.71508 -3.5008,1.6278 -5.2511,2.02827 -1.7503,0.40047 -4.8262,1.25803 -6.8353,1.90571 -3.0332,0.9778 -4.8012,1.21546 -10.4205,1.40075 -7.8463,0.25873 -12.2069,-0.30109 -16.9436,-2.17524 -1.7762,-0.70279 -4.1,-1.41875 -5.164,-1.59102 -1.064,-0.17228 -2.7079,-0.84109 -3.653,-1.48624 -0.9451,-0.64516 -2.6431,-1.58065 -3.7732,-2.07887 -1.1302,-0.49823 -2.8208,-1.54524 -3.757,-2.3267 -4.169,-3.47998 -5.1479,-4.20843 -6.6648,-4.95965 -1.9121,-0.94701 -2.6365,-0.99975 -3.1358,-0.22831 -0.2031,0.31393 -0.4721,14.86088 -0.5977,32.32655 -0.2114,29.40435 -0.2882,31.84724 -1.0379,32.99087 l -0.8096,1.23509 -34.1802,0 c -26.9789,0 -34.281,-0.12153 -34.6588,-0.57685 z m 93.1533,-106.19656 c 4.9709,-1.89002 9.0672,-5.60051 11.4437,-10.36589 0.6218,-1.2469 1.4814,-2.93646 1.9101,-3.75457 1.6221,-3.09553 2.152,-13.11492 0.9598,-18.14722 -1.3039,-5.50358 -5.1969,-11.24084 -10.484,-15.45072 -3.1017,-2.46977 -10.3559,-3.56937 -15.5375,-2.35517 -3.7869,0.88739 -4.2407,1.11491 -7.5247,3.77308 -1.6652,1.34786 -3.3115,3.3148 -4.7473,5.67194 -3.0066,4.9359 -3.7056,8.65531 -3.3734,17.94991 0.2626,7.34801 0.7315,9.71457 2.3523,11.87214 0.5659,0.75343 1.389,2.08904 1.829,2.96804 1.4201,2.83669 5.4344,6.22052 8.6485,7.29011 1.5852,0.52751 3.2718,1.26958 3.748,1.64905 1.3239,1.05499 6.4951,0.52675 10.7755,-1.1007 z"
       style="opacity:1;fill:#d40101;fill-opacity:1;stroke:#fdfdfd;stroke-width:0.45662099;stroke-opacity:1" />
  </g>
</svg>
