<?xml version="1.0" encoding="UTF-8" standalone="no"?>
<!-- Created with Inkscape (http://www.inkscape.org/) -->
<svg id="svg2" xmlns:rdf="http://www.w3.org/1999/02/22-rdf-syntax-ns#" xmlns="http://www.w3.org/2000/svg" height="112.89mm" width="451.56mm" version="1.1" xmlns:cc="http://creativecommons.org/ns#" xmlns:dc="http://purl.org/dc/elements/1.1/" viewBox="0 0 1600 399.99999">
 <metadata id="metadata7">
  <rdf:RDF>
   <cc:Work rdf:about="">
    <dc:format>image/svg+xml</dc:format>
    <dc:type rdf:resource="http://purl.org/dc/dcmitype/StillImage"/>
    <dc:title/>
   </cc:Work>
  </rdf:RDF>
 </metadata>
 <g id="layer1" transform="translate(432.55 -347.26)">
  <path id="path3361" d="m514.72 711.38c-31.831-3.5919-57.275-19.249-69.246-42.611-3.2124-6.2692-6.0483-16.091-6.3379-21.95l-0.24376-4.9327h31.304 31.304l1.2896 4.3587c2.5516 8.6232 12.404 15.533 24.385 17.101 6.3488 0.83099 16.958-0.85544 22.364-3.555 9.8321-4.9097 10.93-14.998 2.3346-21.459-4.7482-3.5688-12.206-6.1887-32.905-11.559-26.922-6.9851-40.312-11.926-50.042-18.466l-2.7304-1.8353 72.116-0.006 72.116-0.006 2.1124 3.3632c6.2601 9.9667 8.3507 19.364 7.6858 34.548-0.54207 12.382-2.429 19.596-7.7949 29.802-4.3801 8.3308-15.492 19.293-24.734 24.4-8.5171 4.7066-23.256 9.5548-34.585 11.376-10.989 1.767-29.351 2.4514-38.393 1.4311zm285.95-0.10626c-16.723-1.68-35.066-8.1079-48.181-16.884-3.1001-2.0746-8.6006-6.6927-12.223-10.263-17.463-17.208-27.406-41.206-30.043-72.51l-0.4344-5.157h33.023 33.023l0.5995 7.0838c1.8997 22.446 11.767 39.737 25.608 44.872 4.6041 1.7083 6.806 1.9719 14.131 1.6915 10.139-0.3882 16.493-2.8762 22.525-8.8209 7.487-7.378 13.077-22.052 14.428-37.876l0.59359-6.9507h32.891 32.891l-0.65592 8.09c-3.9142 48.276-32.885 83.933-76.483 94.137-14.095 3.2988-26.776 4.0857-41.692 2.5872zm-949.26-4.7399c0-0.30531 5.0869-18.205 11.304-39.777 6.2173-21.572 12.636-43.964 14.265-49.76l2.9605-10.538h16.224 16.224v21.973 21.973h12.083c25.146 0 42.131-3.921 56.112-12.953 10.459-6.7571 18.621-17.033 21.1-26.568l1.151-4.4254h31.66 31.66l-0.51682 2.9148c-2.877 16.226-10.913 34.425-21.293 48.223-5.9597 7.9221-20.827 21.958-28.657 27.053-14.711 9.5737-32.105 16.428-50.036 19.716-9.1485 1.6779-14.623 1.8789-62.137 2.2815-28.658 0.24284-52.105 0.19172-52.105-0.1136zm226.62-49.85v-50.224h32.765 32.765v50.224 50.224h-32.765-32.765v-50.224zm140.78 49.55c-0.50351-0.85182-32.474-98.58-32.474-99.267 0-0.27989 13.453-0.50887 29.896-0.50887h29.896l2.7243 10.09 2.7243 10.09 1.4241-4.9327c0.78327-2.713 2.0885-7.2534 2.9004-10.09l1.4763-5.157h30.423 30.423l-1.3125 3.6657c-0.72185 2.0161-8.2978 24.617-16.835 50.224l-15.523 46.559h-32.672c-17.97 0-32.851-0.30269-33.07-0.67265zm142.27-49.552v-50.224h32.765 32.764v50.224 50.224h-32.764-32.765v-50.224zm271.82 49.626c-0.33375-0.32885-0.60678-22.93-0.60678-50.224v-49.626h32.764 32.765v50.224 50.224h-32.158c-17.687 0-32.431-0.26906-32.764-0.59791zm299.44 0.0116c-0.34021-0.3352-0.61852-22.941-0.61852-50.236v-49.626h30.848 30.848l0.77843 14.126c0.42812 7.769 0.77843 30.269 0.77843 50v35.874l-31.008 0.2358c-17.055 0.12968-31.287-0.0385-31.627-0.3737zm130.09-1.4316c-1.6184-2.5146-60.056-95.771-60.978-97.309-0.5345-0.89236 11.966-1.1211 61.271-1.1211h61.942v50.224 50.224h-30.468-30.468l-1.2986-2.0179zm-1420.4-150v-40.807h-15.043-15.043l0.25395-11.883 0.25394-11.883 43.003-0.233 43.003-0.23299v12.116 12.116h-15.017-15.017v40.807 40.807h-13.197-13.197v-40.807zm66.659-11.883 0.2348-52.691 12.969-0.24885 12.969-0.24883v19.307 19.307h17.292 17.292v-19.283-19.283h13.197 13.197v52.915 52.915h-13.197-13.197v-21.525-21.525h-17.292-17.292v21.525 21.525h-13.204-13.204l0.23482-52.691zm98.073-0.22421v-52.915h40.501c36.477 0 40.501 0.14219 40.501 1.4315 0 0.78731-0.6441 3.7133-1.4313 6.5022-0.78723 2.7889-2.0273 7.1896-2.7558 9.7793l-1.3245 4.7085h-24.548-24.548v8.9686 8.9686h21.843c16.857 0 21.848 0.2559 21.863 1.1211 0.011 0.61659-1.1133 5.4596-2.4985 10.762l-2.5184 9.6412h-19.345-19.345v9.8655 9.8655h16.382c9.0102 0 16.395 0.30269 16.411 0.67264 0.0158 0.36996-1.3131 5.8184-2.9531 12.108l-2.9819 11.435h-26.626-26.626v-52.915zm77.28 47.309c0.88624-3.083 7.5126-26.731 14.725-52.55l13.114-46.945 27.759 0.42301c25.714 0.39186 28.592 0.59915 39.074 2.8146 19.43 4.1067 36.995 11.687 50.185 21.657 7.7192 5.8349 18.519 17.629 23.615 25.788 8.3479 13.367 13.33 29.017 14.256 44.777l0.56628 9.6412h-31.408-31.408l-0.59795-6.9507c-2.1897-25.453-13.962-37.581-42.895-44.188-2.5028-0.57155-14.482-1.2508-26.621-1.5094l-22.071-0.47022v26.559 26.559h-14.953-14.953l1.6113-5.6054zm193.94-44.17v-49.776h32.765 32.765v49.776 49.776h-32.765-32.765v-49.776zm89.246 1.5695c-8.6801-26.513-15.977-48.913-16.215-49.776-0.40667-1.4738 1.587-1.5695 32.71-1.5695h33.143l13.066 48.655c7.1866 26.76 13.251 49.159 13.477 49.776 0.32283 0.88255-6.0589 1.1211-29.995 1.1211h-30.405l-15.782-48.206zm92.996 46.637c0.2363-0.86323 6.4963-23.262 13.911-49.776l13.482-48.206h33.066c18.187 0 33.066 0.24851 33.066 0.55225 0 0.30373-7.3913 22.703-16.425 49.776l-16.425 49.224h-30.552c-28.655 0-30.526-0.0975-30.123-1.5695zm100.81-48.206v-49.776h32.765 32.764v49.776 49.776h-32.764-32.765v-49.776zm92.037 45.763c-11.991-16.453-13.481-42.866-3.5685-63.252 2.9676-6.1032 5.1787-9.0698 11.089-14.877 8.0574-7.9172 15.27-12.37 26.646-16.45 13.853-4.9683 20.636-5.8977 42.624-5.8405 18.77 0.0488 20.588 0.2024 29.059 2.4554 23.159 6.1593 39.133 18.372 48.337 36.954 3.5409 7.1494 7.6767 20.527 7.6945 24.888 0.009 1.4642-2.0728 1.5695-30.966 1.5695-28.705 0-31.009-0.1149-31.461-1.5695-3.6282-11.665-11.173-16.373-26.22-16.363-8.7795 0.006-13.194 1.079-16.825 4.0896-5.2698 4.3696-4.463 11.554 1.9004 16.921 4.4651 3.7662 13.937 7.2532 33.264 12.246 27.143 7.0115 45.405 14.067 53.023 20.484l3.1854 2.6835-72.428 0.0364-72.428 0.0364-2.9244-4.0128zm179.18-45.763v-49.776h32.764 32.765v49.776 49.776h-32.765-32.764v-49.776zm77.874 43.274c2.6936-33.266 15.63-59.729 37.709-77.137 18.165-14.322 40.051-21.286 66.896-21.286 19.609 0 33.984 3.044 49.147 10.407 32.078 15.577 51.818 47.417 55.401 89.362l0.4405 5.157h-33.02-33.02l-0.57629-6.718c-0.82194-9.5816-3.022-17.764-6.9957-26.017-4.123-8.5638-9.8142-14.598-17.087-18.118-4.6933-2.2711-6.0963-2.508-14.743-2.4888-8.7334 0.0194-10.014 0.2479-14.876 2.6536-12.686 6.2774-21.341 22.555-23.019 43.289l-0.59877 7.3991h-33.092-33.092l0.52651-6.5022zm221.56-43.285v-49.788l31.158 0.23599 31.158 0.23599 30.689 48.879c16.879 26.883 30.708 49.182 30.73 49.552 0.023 0.36995-27.809 0.67264-61.848 0.67264h-61.889v-49.788zm131.61 43.734c-0.3115-3.3296-0.8211-25.729-1.1326-49.776l-0.5664-43.722h31.516 31.516v49.776 49.776h-30.383-30.383l-0.5661-6.0538zm-1298.4-163.9v-21.076h-15.017-15.017v-7.6233-7.6233h37.77 37.77v7.6233 7.6233h-15.017-15.017v21.076 21.076h-7.7361-7.7361v-21.076zm62.224 20.1c-4.2749-1.2211-9.1888-7.0643-9.8682-11.735-0.31054-2.1348-0.44281-13.164-0.29393-24.509l0.27069-20.628 30.346-0.23641c20.008-0.15588 31.616 0.10064 34.075 0.753 4.7056 1.2486 9.2716 5.6945 10.566 10.288 1.2727 4.5172 1.3057 31.156 0.0441 35.633-1.2998 4.6124-5.7559 9.3788-9.804 10.487-4.1274 1.1297-51.353 1.0851-55.335-0.0523zm49.519-27.948 0.25187-13.229h-21.867-21.867v12.855c0 7.0703 0.2804 13.131 0.62311 13.469 0.34272 0.33771 10.07 0.50588 21.615 0.37369l20.992-0.24034 0.25185-13.229zm23.171 0 0.24014-28.924 7.5967-0.26189c4.1782-0.14405 8.0724 0.12711 8.6538 0.60256 0.58135 0.47545 6.9808 10.17 14.221 21.542 7.2402 11.373 13.45 20.384 13.799 20.025 0.34956-0.35902 6.553-9.9353 13.785-21.281l13.15-20.628 8.3104-0.25787 8.3104-0.25788v29.218 29.218l-7.5085-0.26049-7.5085-0.26048-0.45506-14.666-0.45506-14.666-9.0521 14.217c-4.9786 7.8196-9.4838 14.522-10.011 14.894-0.52763 0.3719-4.8393 0.57369-9.5815 0.44843l-8.6222-0.22775-8.907-13.866c-4.8989-7.6261-9.3124-14.265-9.8079-14.753-0.59432-0.58566-0.90081 4.2081-0.90081 14.09v14.978h-7.7487-7.7487l0.24014-28.924zm124.93 27.237c-8.6519-3.9151-9.4665-6.8223-9.5164-33.963l-0.03994-21.749h38.079 38.079l-0.79279 5.6054c-0.43603 3.083-0.9922 6.5134-1.2359 7.6233l-0.44313 2.0179h-28.676-28.676l0.25187 13.229 0.25186 13.229 28.662 0.44843 28.662 0.44843 0.97748 6.9661c0.53761 3.8314 0.77975 7.161 0.53808 7.3991-0.24167 0.23816-14.398 0.42414-31.459 0.4133-28.148-0.0178-31.357-0.17225-34.661-1.667zm73.48-27.237 0.24014-28.924 7.5085-0.26049 7.5085-0.26049v21.561 21.561h17.845c14.623 0 17.76 0.21899 17.372 1.213-0.25979 0.66716-2.3487 4.0976-4.642 7.6233l-4.1697 6.4103h-20.951-20.951l0.24015-28.924zm46.586 27.437c0.33296-0.85505 7.8261-12.615 16.652-26.134 17.075-26.155 18.657-27.919 26.65-29.713 2.2526-0.50544 11.16-0.92885 19.795-0.94091l15.7-0.0219v29.148 29.148h-7.7361-7.7361v-7.6423-7.6423l-17.937 0.24318-17.937 0.24317-5.0798 7.1749-5.0798 7.1749-8.9481 0.25801c-8.174 0.23568-8.8957 0.12351-8.3427-1.2966zm63.324-34.836v-5.8296h-9.0673-9.0673l-3.6744 5.332c-2.0209 2.9326-3.6744 5.5559-3.6744 5.8296s5.7338 0.49764 12.742 0.49764h12.742v-5.8296zm24.573 7.2529v-29.07l6.0238-0.0456c3.3131-0.0251 7.3063 0.49043 8.8737 1.1455 1.5674 0.6551 12.27 9.0939 23.783 18.753l20.933 17.562 0.45506-18.561 0.45506-18.561h7.281 7.281l0.24027 29.013 0.24025 29.013-8.0616-0.31392c-7.7581-0.3021-8.2126-0.4383-12.072-3.6174-2.2056-1.8169-11.997-10.008-21.758-18.202l-17.747-14.899-0.246 18.427-0.246 18.427h-7.7176-7.7176v-29.07zm92.288 27.361c-2.0518-0.91823-4.7139-3.0282-5.9158-4.6888-2.1773-3.0083-2.1853-3.1073-2.1853-27.235v-24.215l37.609-0.23422 37.609-0.23422-0.61085 4.8179c-0.33598 2.6498-0.89463 6.1857-1.2414 7.8575l-0.63057 3.0396-28.859 0.23682-28.859 0.23681v12.896c0 10.932 0.21923 12.979 1.4396 13.44 0.79179 0.29941 13.842 0.54438 29 0.54438h27.561l0.5309 3.8117c0.292 2.0964 0.80957 5.5269 1.1502 7.6233l0.61926 3.8117-31.743-0.0197c-28.988-0.018-32.067-0.16463-35.474-1.6892zm104.08 1.14c-0.35231-0.34718-0.64057-5.4112-0.64057-11.253v-10.622l-14.562-17.077c-8.0091-9.3925-14.562-17.474-14.562-17.958 0-0.53788 3.7985-0.78192 9.7518-0.62652l9.7518 0.25456 8.4422 9.8655c4.6432 5.426 8.8154 9.8655 9.2716 9.8655 0.45621 0 4.7673-4.5404 9.5802-10.09l8.7507-10.09h9.541c5.2476 0 9.541 0.32547 9.541 0.72327s-6.5401 8.4451-14.534 17.883l-14.534 17.16-0.25598 11.041-0.256 11.041-7.323 0.25753c-4.0277 0.14164-7.6113-0.0265-7.9636-0.37369zm76.309-1.9018c0.24937-1.3565 0.75649-4.6861 1.1269-7.3991l0.6735-4.9327 27.735-0.44843c26.506-0.42855 27.75-0.5253 28.073-2.1829 0.72756-3.729-1.6233-4.0952-26.293-4.0952-22.721 0-23.436-0.0547-26.364-2.0179-5.8955-3.954-6.8166-6.1052-6.8166-15.919 0-9.8141 0.92114-11.965 6.8166-15.919 2.9821-2 3.2986-2.0179 35.639-2.0179 20.22 0 32.63 0.32716 32.63 0.86022 0 0.47313-0.45852 3.898-1.0189 7.6109l-1.0189 6.7506-28.788 0.23667-28.788 0.23666v2.2422 2.2422l24.573 0.44843c23.616 0.43096 24.704 0.52837 27.922 2.5002 5.2975 3.2461 7.3734 8.4629 6.983 17.549-0.2764 6.4326-0.65392 7.8784-2.7715 10.613-4.6706 6.0322-5.1712 6.1092-39.757 6.1092h-31.012l0.45334-2.4664zm-28.713-42.957c0-4.4786 0.37559-5.5163 3.2463-8.9686l3.2464-3.904h10.026c5.5144 0 9.8898 0.35825 9.7229 0.79612-0.16683 0.43787-3.4868 4.4737-7.3777 8.9686l-7.0742 8.1725h-5.8951-5.895v-5.0646z" fill="#fdd8b4"/>
  <path id="path3359" d="m507.16 710.08c-37.874-6.837-64.297-31.646-68.093-63.935l-0.44812-3.8117h31.145 31.145l2.0707 4.9232c5.2063 12.378 19.856 18.621 37.007 15.77 11.412-1.8968 17.685-7.2152 17.685-14.993 0-3.1918-0.57392-4.5267-3.1583-7.3456-4.5851-5.0012-12.906-8.3582-34.612-13.963-27.899-7.2043-43.108-12.766-50.512-18.472-2.2633-1.744-1.8958-1.7534 69.379-1.7732l71.654-0.0199 2.7583 4.7085c8.4871 14.488 9.587 36.086 2.7763 54.516-8.9117 24.115-31.257 39.389-64.803 44.298-11.576 1.6938-34.869 1.7462-43.994 0.099zm285.78-0.0909c-23.19-4.29-39.64-12.81-54.4-28.16-14.258-14.832-22.884-33.652-26.621-58.08-0.73775-4.8227-1.3437-10.686-1.3466-13.029l-0.005-4.2601h32.764 32.765l0.0118 4.7085c0.0337 13.28 6.9517 32.38 14.481 39.98 4.6242 4.668 12.887 8.7019 19.49 9.5148 6.157 0.75804 15.064-0.6473 20.492-3.2332 12.523-5.9662 21.085-22.309 22.591-43.122l0.56774-7.8475h32.762 32.762l-0.5853 7.5031c-3.8177 48.943-32.018 83.551-77.288 94.85-10.082 2.5165-37.589 3.1845-48.448 1.1765zm-928.68-47.649c6.9206-24.075 13.327-46.396 14.235-49.603l1.6525-5.8296 16.122-0.24491 16.122-0.24492v21.994 21.994l13.879-0.0177c21.649-0.0277 33.219-2.1539 46.91-8.6205 14.04-6.64 25.083-18.58 28.872-31.23l1.0889-3.6349 31.19-0.23612 31.19-0.23613-0.62447 4.7204c-0.93402 7.0602-6.4236 22.458-11.168 31.325-16.74 31.287-46.069 52.448-84.464 60.942-8.7649 1.939-11.106 2.0259-63.35 2.352l-54.248 0.33859 12.583-43.773zm213.78-6.1048v-49.776h32.765 32.765v49.776 49.776h-32.765-32.765v-49.776zm140.78 49.103c-0.21959-0.36996-7.424-22.164-16.01-48.431-8.5858-26.267-15.848-48.369-16.139-49.116-0.46628-1.1974 2.9896-1.3292 29.38-1.1204l29.909 0.23661 2.6903 10.097c1.4796 5.5531 2.9557 9.589 3.2802 8.9686 0.32444-0.6204 1.7436-5.2648 3.1537-10.321l2.5638-9.1928h29.878c16.433 0 29.878 0.24851 29.878 0.55224s-7.3913 22.703-16.425 49.776l-16.425 49.224h-32.668c-17.967 0-32.848-0.30269-33.067-0.67264zm142.27-49.103v-49.776h32.765 32.764v49.776 49.776h-32.764-32.765v-49.776zm271.22 0v-49.776h32.764 32.765v49.776 49.776h-32.765-32.764v-49.776zm300.34-0.0121v-49.788l30.262 0.2363 30.262 0.23631 0.56682 9.8655c0.31172 5.426 0.61889 27.724 0.6826 49.552l0.11576 39.686h-30.944-30.944v-49.788zm103.55 6.4825c-14.882-23.783-28.907-46.168-31.168-49.744l-4.1103-6.5022h61.885 61.885v49.776 49.776l-30.717-0.0318-30.717-0.0317-27.058-43.242zm-1394.1-107.82v-40.807h-15.017-15.017v-11.659-11.659h43.231 43.231v11.659 11.659h-15.017-15.017v40.807 40.807h-13.197-13.197v-40.807zm66.439-11.659v-52.466h13.197 13.197v18.834 18.834h17.292 17.292v-18.834-18.834h13.197 13.197v52.466 52.466h-13.197-13.197v-21.973-21.973h-17.292-17.292v21.973 21.973h-13.197-13.197v-52.466zm98.294 0v-52.466h40.562c38.199 0 40.535 0.0914 40.103 1.5695-0.25266 0.86323-1.5673 5.7063-2.9213 10.762l-2.462 9.1928h-24.444-24.444v9.417 9.417h21.843c12.014 0 21.843 0.24058 21.843 0.53461 0 0.29404-0.6441 2.8165-1.4313 5.6054-0.78723 2.7889-2.0273 7.1896-2.7558 9.7793l-1.3245 4.7085h-19.087-19.087v9.8655 9.8655h16.382c9.0102 0 16.382 0.24818 16.382 0.55153 0 0.68422-4.3365 16.777-5.5913 20.749l-0.92076 2.9148h-26.323-26.323v-52.466zm76.494 51.345c0.024-0.61659 6.5158-24.126 14.426-52.242l14.383-51.121 25.392 0.016c28.047 0.0177 36.309 0.93716 53.54 5.9585 44.649 13.011 72.43 45.97 75.665 89.765l0.64586 8.7444h-31.524-31.524l-0.00728-4.2601c-0.0334-13.39-4.8259-25.53-13.158-33.29-12.234-11.41-32.285-16.27-67.07-16.27h-11.699v26.906 26.906h-14.562c-11.066 0-14.552-0.26913-14.518-1.1211zm194.72-48.655v-49.776h32.765 32.765v49.776 49.776h-32.765-32.765v-49.776zm105.27 49.103c-0.22384-0.36996-7.4612-22.249-16.083-48.62-8.6219-26.371-15.881-48.472-16.131-49.114-0.36925-0.9482 5.7545-1.1233 32.6-0.932l33.055 0.2355 10.619 39.462c5.8405 21.704 11.851 44.002 13.356 49.552l2.7366 10.09h-29.873c-16.43 0-30.056-0.30269-30.28-0.67264zm76.793 0.44843c0.0238-0.12332 6.2814-22.422 13.906-49.552l13.863-49.327 33.067-0.2355c28.885-0.20572 33.002-0.0676 32.551 1.0917-0.28426 0.72997-7.7875 23.134-16.674 49.787l-16.157 48.46h-30.299c-16.665 0-30.28-0.10089-30.256-0.22421zm100.98-49.552v-49.776h32.765 32.764v49.776 49.776h-32.764-32.765v-49.776zm92.183 45.514c-8.7228-12.699-11.948-29.097-9.0021-45.769 1.7516-9.9139 4.4973-16.929 9.4237-24.078 13.534-19.64 41.22-30.837 76.2-30.819 45.004 0.0237 74.381 20.029 83.311 56.733 0.98849 4.0629 1.8 7.695 1.8036 8.0715 0 0.37643-13.957 0.57822-31.023 0.44843l-31.029-0.23599-1.2084-3.4643c-2.4506-7.026-8.9602-11.531-18.928-13.101-7.3132-1.1513-17.839 0.12056-22.007 2.6592-6.8834 4.1922-6.6584 13.164 0.46762 18.649 5.5253 4.2534 13.727 7.1093 41.541 14.465 21.515 5.6898 37.772 12.32 45.516 18.564l2.5711 2.073-72.355 0.0305-72.355 0.0305-2.9249-4.2584zm179.03-45.514v-49.776h32.764 32.765v49.776 49.776h-32.765-32.764v-49.776zm78.545 41.031c1.7424-27.767 12.739-51.916 31.765-69.758 19.808-18.575 45.965-27.443 77.176-26.166 23.984 0.98171 42.214 6.9934 58.997 19.456 22.676 16.838 37.642 45.824 39.909 77.3l0.57001 7.9131h-32.901-32.901v-4.3196c0-10.725-4.5444-25.838-10.329-34.352-7.7124-11.351-16.571-15.627-30.985-14.957-10.281 0.47826-15.478 2.8443-22.226 10.121-7.4773 8.0622-12.178 19.86-13.417 33.675-0.28596 3.1886-0.70616 6.7056-0.93388 7.8155l-0.41401 2.0179h-32.43-32.43l0.54871-8.7444zm221.8-41.043v-49.788l30.557 0.23614 30.557 0.23614 29.566 47.085c16.261 25.897 30.166 48.195 30.9 49.552l1.3342 2.4664h-61.457-61.457v-49.788zm130.71 41.043c-0.311-4.8094-0.8219-27.209-1.1352-49.776l-0.5698-41.031h31.516 31.516v49.776 49.776h-30.381-30.381l-0.5654-8.7444zm-1298.4-161.21v-21.076h-15.017-15.017v-7.6233-7.6233h37.807 37.807l-0.26433 7.3991-0.26434 7.3991-14.79 0.24643-14.79 0.24644v21.054 21.054h-7.7361-7.7361v-21.076zm62.209 20.096c-3.6954-1.0549-8.1703-6.1014-9.3996-10.6-0.58873-2.1545-0.86985-11.864-0.7209-24.9l0.24417-21.368 28.214-0.26828c31.8-0.30239 36.448 0.0175 40.633 2.7966 5.9343 3.9408 6.6594 6.4313 6.9928 24.019 0.18571 9.796-0.0878 17.202-0.7209 19.518-1.3415 4.9094-5.7208 9.7162-9.8922 10.858-4.1354 1.1319-51.356 1.084-55.35-0.0561zm49.534-27.944 0.25187-13.229h-21.867-21.867v12.855c0 7.0703 0.2804 13.131 0.62311 13.469 0.34272 0.33771 10.07 0.50588 21.615 0.37369l20.992-0.24034 0.25185-13.229zm23.171 0 0.24014-28.924 7.7927-0.25668c6.5661-0.21628 8.0097-0.004 9.1713 1.3453 0.75822 0.88108 6.2303 9.2701 12.16 18.642 5.9299 9.3722 11.685 18.374 12.789 20.003l2.007 2.9627 12.747-20.003c7.0106-11.002 13.408-20.709 14.217-21.573 1.179-1.258 3.0064-1.5695 9.207-1.5695h7.7361v29.184 29.184l-7.5085-0.26049-7.5085-0.26048-0.45506-14.702-0.45506-14.702-9.0563 14.254c-4.981 7.8395-9.4861 14.558-10.011 14.93-0.5253 0.3719-4.8351 0.57369-9.5773 0.44843l-8.6222-0.22775-8.907-13.866c-4.8989-7.6261-9.3124-14.265-9.8079-14.753-0.59432-0.58566-0.90081 4.2081-0.90081 14.09v14.978h-7.7487-7.7487l0.24014-28.924zm124.49 26.906c-4.7206-2.3769-7.1093-5.3189-8.2484-10.159-0.45539-1.9349-0.83776-12.901-0.8497-24.37l-0.02172-20.852h38.079 38.079l-0.79279 5.6054c-0.43603 3.083-0.9922 6.5134-1.2359 7.6233l-0.44313 2.0179h-28.676-28.676l0.25187 13.229 0.25186 13.229 28.662 0.44843 28.662 0.44843 0.97748 6.9661c0.53761 3.8314 0.77975 7.161 0.53808 7.3991-0.24167 0.23816-14.414 0.433-31.494 0.433-30.411 0-31.138-0.0419-35.062-2.0179zm73.916-26.906 0.24014-28.924 7.5085-0.26049 7.5085-0.26049v21.561 21.561h17.845c14.623 0 17.76 0.21899 17.372 1.213-0.25979 0.66716-2.3487 4.0976-4.642 7.6233l-4.1697 6.4103h-20.951-20.951l0.24015-28.924zm46.58 27.452c1.7515-4.4979 31.328-48.319 34.647-51.334 5.1094-4.641 9.5512-5.4899 28.728-5.4899h15.427v29.184 29.184l-7.5085-0.26049-7.5085-0.26048-0.26464-7.4179-0.26465-7.4179-17.9 0.24305-17.9 0.24305-5.0798 7.1749-5.0798 7.1749-8.9481 0.25801c-8.1412 0.23473-8.894 0.11916-8.3485-1.2817zm63.33-34.851v-5.8296h-9.0673-9.0673l-3.6744 5.332c-2.0209 2.9326-3.6744 5.5559-3.6744 5.8296s5.7338 0.49764 12.742 0.49764h12.742v-5.8296zm24.573 7.198v-29.197l7.1338 0.24401c8.7014 0.29763 7.2975-0.5987 33.041 21.095l19.438 16.38 0.45506-18.622 0.45506-18.622h7.281 7.281v28.7 28.7l-6.9025 0.25926c-8.43 0.31664-7.5222 0.88765-33.76-21.235l-18.496-15.595-0.45506 18.286-0.45507 18.286-7.5085 0.26048-7.5085 0.26049v-29.197zm93.507 27.843c-4.459-1.568-5.8937-2.8083-8.0369-6.948-1.6375-3.1629-1.751-5.1363-1.5262-26.517l0.24291-23.1 37.575-0.2342 37.575-0.23419-0.59275 4.7185c-0.32602 2.5952-0.87087 6.131-1.2108 7.8575l-0.61804 3.139-28.88 0.23685-28.88 0.23685 0.25179 13.216 0.25178 13.216 28.781 0.23666 28.781 0.23666 0.60239 4.6961c0.33131 2.5828 0.83845 6.0077 1.127 7.6109l0.5246 2.9148-31.273-0.0394c-23.765-0.03-32.095-0.32822-34.695-1.2425zm102.76 0.71c-0.35231-0.34718-0.64057-5.4164-0.64057-11.265v-10.634l-14.562-17.193c-8.0091-9.4562-14.562-17.519-14.562-17.916 0-0.3978 4.2851-0.72327 9.5225-0.72327h9.5225l8.8017 10.349c4.8409 5.6918 9.1618 10.23 9.602 10.086 0.44017-0.14459 4.5978-4.7006 9.2391-10.124l8.4388-9.8616 9.7518-0.25456c5.3635-0.14001 9.7518 0.0879 9.7518 0.50655 0 0.4186-6.5398 8.4388-14.533 17.823l-14.533 17.061-0.25672 11.132-0.25673 11.132-7.323 0.25753c-4.0277 0.14164-7.6113-0.0265-7.9636-0.37369zm76.152-1.0049c0.25547-0.86323 0.72701-3.5874 1.0479-6.0538 1.0929-8.4006-1.982-7.5675 28.917-7.8345 26.325-0.22746 27.476-0.30907 27.801-1.9717 0.7281-3.729-1.6229-4.0952-26.292-4.0952-22.721 0-23.436-0.0547-26.364-2.0179-5.8955-3.954-6.8166-6.1052-6.8166-15.919 0-9.8141 0.92114-11.965 6.8166-15.919 2.9821-2 3.2986-2.0179 35.639-2.0179 20.22 0 32.63 0.32716 32.63 0.86022 0 0.47313-0.45852 3.898-1.0189 7.6109l-1.0189 6.7506-28.788 0.23667-28.788 0.23666v2.2422 2.2422l24.118 0.45702c15.123 0.28657 24.967 0.83825 26.394 1.4792 3.0151 1.3546 6.9308 5.524 8.1332 8.6602 0.53243 1.3886 0.96801 5.2381 0.96801 8.5544 0 8.2055-2.5781 13.279-8.1564 16.051-3.9727 1.9742-4.7296 2.0179-34.874 2.0179-28.916 0-30.784-0.0966-30.348-1.5695zm-28.529-43.946c0.0245-4.6461 0.36258-5.5382 3.4129-9.0054l3.3858-3.8485 9.9257 0.26105 9.9257 0.26106-7.4638 8.7444-7.4638 8.7444h-5.8749-5.875l0.0271-5.157z" fill="#bababa"/>
  <path id="path3357" d="m507.16 710.08c-37.874-6.837-64.297-31.646-68.093-63.935l-0.44812-3.8117h31.145 31.145l2.0707 4.9232c5.2063 12.378 19.856 18.621 37.007 15.77 11.412-1.8968 17.685-7.2152 17.685-14.993 0-3.1918-0.57392-4.5267-3.1583-7.3456-4.5851-5.0012-12.906-8.3582-34.612-13.963-27.899-7.2043-43.108-12.766-50.512-18.472-2.2633-1.744-1.8958-1.7534 69.379-1.7732l71.654-0.0199 2.7583 4.7085c8.4871 14.488 9.587 36.086 2.7763 54.516-8.9117 24.115-31.257 39.389-64.803 44.298-11.576 1.6938-34.869 1.7462-43.994 0.099zm285.78-0.0909c-23.19-4.29-39.64-12.81-54.4-28.16-14.258-14.832-22.884-33.652-26.621-58.08-0.73775-4.8227-1.3437-10.686-1.3466-13.029l-0.005-4.2601h32.764 32.765l0.0118 4.7085c0.0337 13.28 6.9517 32.38 14.481 39.98 4.6242 4.668 12.887 8.7019 19.49 9.5148 6.157 0.75804 15.064-0.6473 20.492-3.2332 12.523-5.9662 21.085-22.309 22.591-43.122l0.56774-7.8475h32.762 32.762l-0.5853 7.5031c-3.8177 48.943-32.018 83.551-77.288 94.85-10.082 2.5165-37.589 3.1845-48.448 1.1765zm-928.68-47.649c6.9206-24.075 13.327-46.396 14.235-49.603l1.6525-5.8296 16.122-0.24491 16.122-0.24492v21.994 21.994l13.879-0.0177c21.649-0.0277 33.219-2.1539 46.91-8.6205 14.04-6.64 25.083-18.58 28.872-31.23l1.0889-3.6349 31.19-0.23612 31.19-0.23613-0.62447 4.7204c-0.93402 7.0602-6.4236 22.458-11.168 31.325-16.74 31.287-46.069 52.448-84.464 60.942-8.7649 1.939-11.106 2.0259-63.35 2.352l-54.248 0.33859 12.583-43.773zm213.78-6.1048v-49.776h32.765 32.765v49.776 49.776h-32.765-32.765v-49.776zm140.78 49.103c-0.21959-0.36996-7.424-22.164-16.01-48.431-8.5858-26.267-15.848-48.369-16.139-49.116-0.46628-1.1974 2.9896-1.3292 29.38-1.1204l29.909 0.23661 2.6903 10.097c1.4796 5.5531 2.9557 9.589 3.2802 8.9686 0.32444-0.6204 1.7436-5.2648 3.1537-10.321l2.5638-9.1928h29.878c16.433 0 29.878 0.24851 29.878 0.55224s-7.3913 22.703-16.425 49.776l-16.425 49.224h-32.668c-17.967 0-32.848-0.30269-33.067-0.67264zm142.27-49.103v-49.776h32.765 32.764v49.776 49.776h-32.764-32.765v-49.776zm271.22 0v-49.776h32.764 32.765v49.776 49.776h-32.765-32.764v-49.776zm300.34-0.0121v-49.788l30.262 0.2363 30.262 0.23631 0.56682 9.8655c0.31172 5.426 0.61889 27.724 0.6826 49.552l0.11576 39.686h-30.944-30.944v-49.788zm103.55 6.4825c-14.882-23.783-28.907-46.168-31.168-49.744l-4.1103-6.5022h61.885 61.885v49.776 49.776l-30.717-0.0318-30.717-0.0317-27.058-43.242zm-1394.1-107.82v-40.807h-15.017-15.017v-11.659-11.659h43.231 43.231v11.659 11.659h-15.017-15.017v40.807 40.807h-13.197-13.197v-40.807zm66.439-11.659v-52.466h13.197 13.197v18.834 18.834h17.292 17.292v-18.834-18.834h13.197 13.197v52.466 52.466h-13.197-13.197v-21.973-21.973h-17.292-17.292v21.973 21.973h-13.197-13.197v-52.466zm98.294 0v-52.466h40.562c38.199 0 40.535 0.0914 40.103 1.5695-0.25266 0.86323-1.5673 5.7063-2.9213 10.762l-2.462 9.1928h-24.444-24.444v9.417 9.417h21.843c12.014 0 21.843 0.24058 21.843 0.53461 0 0.29404-0.6441 2.8165-1.4313 5.6054-0.78723 2.7889-2.0273 7.1896-2.7558 9.7793l-1.3245 4.7085h-19.087-19.087v9.8655 9.8655h16.382c9.0102 0 16.382 0.24818 16.382 0.55153 0 0.68422-4.3365 16.777-5.5913 20.749l-0.92076 2.9148h-26.323-26.323v-52.466zm76.494 51.345c0.024-0.61659 6.5158-24.126 14.426-52.242l14.383-51.121 25.392 0.016c28.047 0.0177 36.309 0.93716 53.54 5.9585 44.649 13.011 72.43 45.97 75.665 89.765l0.64586 8.7444h-31.524-31.524l-0.00728-4.2601c-0.0334-13.39-4.8259-25.53-13.158-33.29-12.234-11.41-32.285-16.27-67.07-16.27h-11.699v26.906 26.906h-14.562c-11.066 0-14.552-0.26913-14.518-1.1211zm194.72-48.655v-49.776h32.765 32.765v49.776 49.776h-32.765-32.765v-49.776zm105.27 49.103c-0.22384-0.36996-7.4612-22.249-16.083-48.62-8.6219-26.371-15.881-48.472-16.131-49.114-0.36925-0.9482 5.7545-1.1233 32.6-0.932l33.055 0.2355 10.619 39.462c5.8405 21.704 11.851 44.002 13.356 49.552l2.7366 10.09h-29.873c-16.43 0-30.056-0.30269-30.28-0.67264zm76.793 0.44843c0.0238-0.12332 6.2814-22.422 13.906-49.552l13.863-49.327 33.067-0.2355c28.885-0.20572 33.002-0.0676 32.551 1.0917-0.28426 0.72997-7.7875 23.134-16.674 49.787l-16.157 48.46h-30.299c-16.665 0-30.28-0.10089-30.256-0.22421zm100.98-49.552v-49.776h32.765 32.764v49.776 49.776h-32.764-32.765v-49.776zm92.183 45.514c-8.7228-12.699-11.948-29.097-9.0021-45.769 1.7516-9.9139 4.4973-16.929 9.4237-24.078 13.534-19.64 41.22-30.837 76.2-30.819 45.004 0.0237 74.381 20.029 83.311 56.733 0.98849 4.0629 1.8 7.695 1.8036 8.0715 0 0.37643-13.957 0.57822-31.023 0.44843l-31.029-0.23599-1.2084-3.4643c-2.4506-7.026-8.9602-11.531-18.928-13.101-7.3132-1.1513-17.839 0.12056-22.007 2.6592-6.8834 4.1922-6.6584 13.164 0.46762 18.649 5.5253 4.2534 13.727 7.1093 41.541 14.465 21.515 5.6898 37.772 12.32 45.516 18.564l2.5711 2.073-72.355 0.0305-72.355 0.0305-2.9249-4.2584zm179.03-45.514v-49.776h32.764 32.765v49.776 49.776h-32.765-32.764v-49.776zm78.545 41.031c1.7424-27.767 12.739-51.916 31.765-69.758 19.808-18.575 45.965-27.443 77.176-26.166 23.984 0.98171 42.214 6.9934 58.997 19.456 22.676 16.838 37.642 45.824 39.909 77.3l0.57001 7.9131h-32.901-32.901v-4.3196c0-10.725-4.5444-25.838-10.329-34.352-7.7124-11.351-16.571-15.627-30.985-14.957-10.281 0.47826-15.478 2.8443-22.226 10.121-7.4773 8.0622-12.178 19.86-13.417 33.675-0.28596 3.1886-0.70616 6.7056-0.93388 7.8155l-0.41401 2.0179h-32.43-32.43l0.54871-8.7444zm221.8-41.043v-49.788l30.557 0.23614 30.557 0.23614 29.566 47.085c16.261 25.897 30.166 48.195 30.9 49.552l1.3342 2.4664h-61.457-61.457v-49.788zm130.71 41.043c-0.311-4.8094-0.8219-27.209-1.1352-49.776l-0.5698-41.031h31.516 31.516v49.776 49.776h-30.381-30.381l-0.5654-8.7444zm-1231.5-140.9c-6.2577-0.65922-9.7228-2.5443-12.283-6.6824-1.6386-2.6482-1.7737-4.6553-1.7768-26.409l-0.003-23.543h31.958c30.865 0 32.075 0.065 35.388 1.8994 1.8863 1.0447 4.32 3.4607 5.4083 5.3688 1.885 3.305 1.9655 4.3594 1.7 22.253-0.31067 20.936-0.54586 21.774-7.1998 25.636-2.8443 1.651-4.8651 1.8042-25.388 1.9252-12.264 0.0723-24.775-0.12951-27.802-0.44844zm45.452-15.9c0.30384-0.78026 0.55243-6.5829 0.55243-12.895 0-8.6433-0.30891-11.729-1.2514-12.5-0.87818-0.7182-7.597-0.95159-22.526-0.78246l-21.274 0.24102-0.25388 12.433c-0.1716 8.4032 0.0857 12.836 0.79403 13.677 0.83872 0.99588 5.2758 1.2443 22.227 1.2443 18.473 0 21.25-0.18126 21.732-1.4186zm57.751 15.544c-0.76831-0.61659-5.4541-7.5342-10.413-15.372l-9.0159-14.251-0.24954 14.924-0.24954 14.924h-7.7141-7.7141v-28.251-28.251h8.5292 8.5292l13.443 21.141c10.933 17.194 13.656 20.92 14.584 19.955 0.62724-0.65219 5.7513-8.4504 11.387-17.329 5.6355-8.8789 11.432-17.859 12.881-19.955l2.6345-3.8117h8.1474 8.1474v28.251 28.251h-7.281-7.281v-14.798c0-8.139-0.30717-14.786-0.68259-14.772-0.37543 0.0143-4.732 6.4464-9.6813 14.294-4.9493 7.8471-9.4339 14.696-9.9659 15.221-1.3838 1.3636-16.299 1.2247-18.034-0.16798zm90.956-0.30446c-2.9836-0.90443-5.0629-2.2978-6.8259-4.5742l-2.5354-3.2736-0.26932-24.063-0.26932-24.063h37.462 37.462l-0.6274 5.157c-0.34506 2.8363-0.84478 6.0594-1.1105 7.1624l-0.48309 2.0055-28.801 0.23669-28.801 0.23668-0.25388 12.433c-0.1716 8.4032 0.08573 12.836 0.79403 13.677 0.85217 1.0118 6.2859 1.2443 29.089 1.2443 25.924 0 28.076 0.11853 28.502 1.5695 0.25341 0.86323 0.73828 4.2937 1.0775 7.6233l0.61675 6.0538-30.368-0.0624c-23.808-0.049-31.294-0.3434-34.658-1.3631zm72.095-27.274v-28.7h7.7361 7.7361v21.076 21.076h17.747c9.7611 0 17.747 0.16355 17.747 0.36344 0 0.91161-8.2947 13.497-9.317 14.137-0.63221 0.39547-10.262 0.72522-21.4 0.73277l-20.25 0.0137v-28.7zm46.66 27.575c0.97917-2.5145 30.979-47.885 33.281-50.334 4.9647-5.28 7.8601-5.8993 27.681-5.921l17.975-0.0197v28.251 28.251h-7.7361-7.7361v-7.1749-7.1749h-18.081-18.081l-4.9 7.3991-4.9 7.3991-8.9842 0.25801c-7.177 0.2061-8.8909 0.0182-8.52-0.9342zm63.466-35.647v-6.278h-7.2218c-3.972 0-8.2425 0.38242-9.49 0.84981-1.2475 0.4674-3.9516 3.2925-6.009 6.278l-3.7408 5.4282h13.231 13.231v-6.278zm84.831 35.786c-1.1475-0.42835-11.453-8.6555-22.901-18.282-11.448-9.627-21.056-17.504-21.349-17.504-0.29383 0-0.53424 8.0718-0.53424 17.937v17.937h-7.7361-7.7361v-28.14-28.14l5.2265-0.4271c9.5351-0.7792 8.3333-1.5044 35.843 21.627l18.544 15.593 0.24599-18.508 0.246-18.508h7.2625 7.2625v28.575 28.575l-6.1433 0.0218c-3.3788 0.012-7.0822-0.32865-8.2297-0.757zm34.082-0.32302c-1.9246-0.6762-4.5371-2.1719-5.8056-3.3239-4.4678-4.0572-4.8021-6.168-4.8021-30.317v-22.45h37.868c31.074 0 37.784 0.21331 37.405 1.189-0.25465 0.65395-0.75574 3.8826-1.1135 7.1749l-0.65051 5.9859h-29.042-29.042l0.25123 13.677 0.25124 13.677 28.64 0.44843 28.64 0.44843 1.0488 6.7265c0.57685 3.6996 0.87275 7.0292 0.65756 7.3991-0.21519 0.36996-13.985 0.65494-30.599 0.63329-23.196-0.0302-31.02-0.32478-33.707-1.2688zm179.09-4.2528c0.3484-3.1073 0.85606-6.5519 1.1281-7.6546l0.49465-2.0049 27.436-0.23722 27.436-0.23723 0.28496-2.4351c0.22526-1.9256-0.15563-2.5348-1.8202-2.9117-1.1579-0.26216-12.582-0.57893-25.386-0.70393l-23.281-0.22727-3.2586-2.4509c-4.6012-3.4606-6.5189-8.8648-5.9458-16.756 0.54489-7.5046 2.6422-11.429 7.581-14.186 3.526-1.968 4.1606-2.004 35.682-2.0184l32.093-0.0147-0.58539 3.8117c-0.32191 2.0964-0.84978 5.426-1.1731 7.3991l-0.58767 3.5874-28.644 0.44843-28.644 0.44843-0.2765 2.3492c-0.21352 1.8142 0.20096 2.4752 1.8202 2.9026 1.1532 0.30437 12.254 0.55892 24.668 0.56565 24.072 0.0131 25.353 0.21487 29.422 4.6356 2.9789 3.2366 4.2586 8.3636 3.7694 15.102-0.50458 6.9493-2.2509 10.386-6.8605 13.5l-3.2581 2.2012-31.363 0.26854-31.363 0.26853 0.63345-5.6497zm-741.23-16.412v-21.076h-15.017-15.017v-7.1749-7.1749h37.77 37.77v7.1749 7.1749h-15.017-15.017v21.076 21.076h-7.7361-7.7361v-21.076zm664.39 10.797v-10.279l-4.2557-5.1918c-3.3917-4.1378-16.886-20.073-24.712-29.183-1.2717-1.4802-0.77796-1.5695 8.6758-1.5695h10.024l8.5469 10.266c4.7008 5.6464 8.7517 10.266 9.002 10.266 0.25029 0 4.3012-4.6198 9.002-10.266l8.5469-10.266h10.042 10.042l-1.8325 2.0179c-2.5575 2.8162-24.039 28.361-26.499 31.511-1.8145 2.3237-2.0203 3.6258-2.0203 12.78v10.193h-7.281-7.281v-10.279zm47.327-34.019c0-4.1115 0.44298-5.3806 2.9579-8.4739l2.9579-3.6381 9.8375-0.0463c7.6361-0.0359 9.6851 0.20458 9.156 1.0748-0.37479 0.61659-3.5147 4.4507-6.9776 8.5202l-6.2962 7.3991h-5.8178-5.8178v-4.8358z" fill="#fda854"/>
  <path id="path3355" d="m508.27 710.03c-29.784-4.9344-52.943-20.932-63.491-43.856-3.0729-6.6784-5.3978-15.468-5.4178-20.483l-0.0135-3.3632h30.859 30.859l1.4115 4.0822c2.195 6.3481 6.2936 10.733 13.129 14.048 5.8148 2.8194 6.5268 2.9451 16.558 2.9233 9.0093-0.0195 11.155-0.31908 15.267-2.1312 5.5944-2.4652 10.188-7.2015 10.337-10.658 0.53042-12.325-5.0427-15.639-42.426-25.227-9.5108-2.4394-20.774-5.698-25.028-7.2414-7.264-2.6349-20.332-9.002-22.253-10.842-0.52894-0.50676 26.858-0.82834 70.541-0.82834h71.406l2.5387 4.1418c1.3963 2.278 3.6253 7.2219 4.9534 10.987 2.1686 6.1477 2.4084 8.0778 2.3529 18.952-0.0473 9.3469-0.49829 13.703-1.9766 19.104-9.0992 33.243-42.085 52.033-90.679 51.656-6.5205-0.0506-15.038-0.61925-18.928-1.2637zm291.03 0.73819c-35.117-4.4853-61.51-22.127-76.23-50.952-5.9726-11.696-10.904-30.202-12.13-45.516l-0.62808-7.8475h32.379 32.379l0.49657 4.2601c3.7011 31.75 15.078 48.078 34.923 50.122 13.919 1.4336 26.202-4.2116 33.44-15.369 5.2921-8.1575 7.7282-16.616 10.009-34.753l0.53561-4.2601h32.371 32.371l-0.6451 7.3991c-5.2469 60.186-46.157 98.074-105.16 97.396-6.2571-0.0719-12.605-0.28771-14.107-0.47952zm-944.47-15.24c1.7578-5.8274 8.2056-28.151 14.329-49.609l11.133-39.013 16.05-0.24491 16.05-0.24492v21.994 21.994h14.898c16.398 0 26.714-1.3684 37.83-5.0181 18.04-5.9226 31.839-18.704 36.944-34.22l1.5494-4.7085h30.839c29.637 0 30.84 0.0661 30.84 1.6955 0 3.3694-4.4977 18.651-7.5533 25.663-6.1773 14.176-14.005 25.407-25.627 36.767-17.055 16.67-37.866 27.367-64.11 32.952-8.1578 1.7361-12.321 1.8841-62.554 2.2242l-53.814 0.36429 3.196-10.595zm223.2-39.295v-49.776h32.765 32.765v49.776 49.776h-32.765-32.765v-49.776zm140.62 48.655c-0.21754-0.61659-6.9765-21.3-15.02-45.964-8.0434-24.664-15.202-46.564-15.907-48.667l-1.2827-3.8239 29.671 0.23641 29.671 0.23641 2.7163 10.142c1.494 5.5782 3.0019 9.8159 3.351 9.417 0.34912-0.39883 1.816-5.0637 3.2598-10.366l2.625-9.6412h29.928c23.56 0 29.839 0.23856 29.509 1.1211-0.50184 1.3412-23.532 70.715-28.88 86.996l-3.7563 11.435h-32.745c-25.378 0-32.834-0.2522-33.141-1.1211zm142.43-48.655v-49.776h32.765 32.764v49.776 49.776h-32.764-32.765v-49.776zm272.13 0v-49.776h32.309 32.309v49.776 49.776h-32.309-32.309v-49.776zm299.43 0v-49.776h29.935 29.935l0.56764 3.3632c0.31227 1.8498 0.81893 24.249 1.126 49.776l0.55827 46.413h-31.061-31.06v-49.776zm128.94 46.413c-11.776-18.474-59.767-95.311-59.767-95.692 0-0.27325 27.645-0.49681 61.433-0.49681h61.434v49.776 49.776h-30.478-30.478l-2.1439-3.3632zm-1419.3-147.76 0.30008-40.808-14.79 0.00039-14.79 0.00037v-11.659-11.659h42.776 42.776v11.659 11.659h-15.017-15.017v40.807 40.807h-13.269-13.269l0.30008-40.808zm66.591 15.92c0.32981-13.688 0.60044-37.298 0.60142-52.466l0.002-27.578h12.742 12.742v19.283 19.283h17.292 17.292v-19.283-19.283h13.324 13.324l-0.57392 4.7085c-0.31566 2.5897-0.57749 26.2-0.58184 52.466l-0.008 47.758h-12.742-12.742v-21.973-21.973h-17.292-17.292v21.973 21.973h-13.343-13.343l0.59967-24.888zm97.987-27.578v-52.466h40.598c37.631 0 40.555 0.11001 40.012 1.5053-0.3224 0.82792-1.6454 5.671-2.9401 10.762l-2.3539 9.257h-24.461-24.461v9.417 9.417h21.904c20.432 0 21.873 0.10553 21.439 1.5695-0.79602 2.6876-3.1532 11.256-4.1943 15.247l-0.99443 3.8116h-19.078-19.078v10.314 10.314h16.319 16.319l-2.1487 7.8475c-1.1818 4.3161-2.6024 9.5628-3.1568 11.659l-1.0081 3.8117h-26.359-26.359v-52.466zm76.451 51.942c0-0.445 23.736-85.5 27.855-99.815l1.388-4.8238 25.197 0.46611c28.546 0.52808 39.362 1.9371 56.31 7.3362 24.766 7.8896 43.628 21.489 56.476 40.717 9.9659 14.915 14.648 28.876 15.462 46.106l0.49791 10.538h-30.943-30.943l-0.49544-7.8475c-1.3198-19.82-10.688-32.7-28.881-39.61-11.048-4.1984-20.842-5.5901-43.072-6.1203l-19.795-0.47206v27.023 27.023h-14.562c-8.0091 0-14.562-0.236-14.562-0.52444zm194.77-49.251v-49.776h32.765 32.765v49.776 49.776h-32.765-32.765v-49.776zm104.96 48.206c-0.24359-0.86323-7.5132-23.161-16.155-49.552l-15.712-47.982 32.307-0.23569c17.769-0.12963 32.522-0.0238 32.785 0.23521 0.55609 0.54799 26.472 96.311 26.516 97.983 0.0232 0.87453-6.4939 1.1211-29.634 1.1211-27.476 0-29.697-0.11576-30.107-1.5695zm78.172-1.7937c0.52894-1.8498 6.7864-24.148 13.905-49.552l12.944-46.188 32.793-0.2353 32.793-0.2353-9.4645 28.486c-5.2055 15.668-12.619 38.072-16.475 49.787l-7.01 21.3h-30.224-30.224l0.96172-3.3632zm99.915-46.413v-49.776h32.765 32.764v49.776 49.776h-32.764-32.765v-49.776zm92.755 45.964c-7.1566-9.6755-10.076-19.745-10.076-34.753 0-39.67 28.503-63.405 79.323-66.055 32.622-1.701 60.336 8.1691 75.697 26.959 7.4279 9.0858 12.822 21.129 15.2 33.939l0.7908 4.2601h-30.612-30.612l-2.3737-5.2925c-2.847-6.3475-6.685-9.1921-15.349-11.376-10.567-2.6632-24.119-0.36593-28.231 4.7855-2.3499 2.9439-2.3557 8.7365-0.0127 12.523 3.6917 5.9665 11.728 9.4259 37.802 16.273 18.428 4.8393 29.647 8.3977 37.805 11.991 4.91 2.1624 17.255 9.4521 17.255 10.189 0 0.20242-32.352 0.36803-71.894 0.36803h-71.894l-2.8193-3.8117zm179.37-45.964v-49.776h32.309 32.309v49.776 49.776h-32.309-32.309v-49.776zm77.654 41.928c1.477-20.471 7.5567-39.002 18.022-54.933 5.5542-8.455 19.871-21.985 28.841-27.258 34.519-20.288 83.842-19.553 116.31 1.7334 23.379 15.329 38.806 40.995 43.545 72.445 0.77597 5.1494 1.4108 10.824 1.4108 12.611v3.2481h-32.244-32.244l-0.55918-5.157c-2.4051-22.182-10.8-38.76-22.92-45.26-9.1383-4.9012-22.414-5.132-32.037-0.55697-12.371 5.8813-21.106 22.697-23.334 44.92l-0.60706 6.0538h-32.373-32.373l0.56628-7.8475zm221.78-41.928v-49.776h30.325 30.325l29.061 46.366c15.984 25.501 30.006 47.901 31.16 49.776l2.0994 3.4095h-61.485-61.485v-49.776zm131.48 48.206c-0.3743-0.86323-0.8788-23.262-1.1211-49.776l-0.4407-48.206h31.058 31.058v49.776 49.776h-29.937c-27.645 0-29.989-0.12013-30.617-1.5695zm-1232.4-148.09c-6.2577-0.65922-9.7228-2.5443-12.283-6.6824-1.6386-2.6482-1.7737-4.6553-1.7768-26.409l-0.003-23.543h31.958c30.865 0 32.075 0.065 35.388 1.8994 1.8863 1.0447 4.32 3.4607 5.4083 5.3688 1.885 3.305 1.9655 4.3594 1.7 22.253-0.31067 20.936-0.54586 21.774-7.1998 25.636-2.8443 1.651-4.8651 1.8042-25.388 1.9252-12.264 0.0723-24.775-0.12951-27.802-0.44844zm45.452-15.9c0.30384-0.78026 0.55243-6.5829 0.55243-12.895 0-8.6433-0.30891-11.729-1.2514-12.5-0.87818-0.7182-7.597-0.95159-22.526-0.78246l-21.274 0.24102-0.25388 12.433c-0.1716 8.4032 0.0857 12.836 0.79403 13.677 0.83872 0.99588 5.2758 1.2443 22.227 1.2443 18.473 0 21.25-0.18126 21.732-1.4186zm57.751 15.544c-0.76831-0.61659-5.4541-7.5342-10.413-15.372l-9.0159-14.251-0.24954 14.924-0.24954 14.924h-7.7141-7.7141v-28.251-28.251h8.5292 8.5292l13.443 21.141c10.933 17.194 13.656 20.92 14.584 19.955 0.62724-0.65219 5.7513-8.4504 11.387-17.329 5.6355-8.8789 11.432-17.859 12.881-19.955l2.6345-3.8117h8.1474 8.1474v28.251 28.251h-7.281-7.281v-14.798c0-8.139-0.30717-14.786-0.68259-14.772-0.37543 0.0143-4.732 6.4464-9.6813 14.294-4.9493 7.8471-9.4339 14.696-9.9659 15.221-1.3838 1.3636-16.299 1.2247-18.034-0.16798zm90.956-0.30446c-2.9836-0.90443-5.0629-2.2978-6.8259-4.5742l-2.5354-3.2736-0.26932-24.063-0.26932-24.063h37.462 37.462l-0.6274 5.157c-0.34506 2.8363-0.84478 6.0594-1.1105 7.1624l-0.48309 2.0055-28.801 0.23669-28.801 0.23668-0.25388 12.433c-0.1716 8.4032 0.08573 12.836 0.79403 13.677 0.85217 1.0118 6.2859 1.2443 29.089 1.2443 25.924 0 28.076 0.11853 28.502 1.5695 0.25341 0.86323 0.73828 4.2937 1.0775 7.6233l0.61675 6.0538-30.368-0.0624c-23.808-0.049-31.294-0.3434-34.658-1.3631zm72.095-27.274v-28.7h7.7361 7.7361v21.076 21.076h17.747c9.7611 0 17.747 0.16355 17.747 0.36344 0 0.91161-8.2947 13.497-9.317 14.137-0.63221 0.39547-10.262 0.72522-21.4 0.73277l-20.25 0.0137v-28.7zm46.66 27.575c0.97917-2.5145 30.979-47.885 33.281-50.334 4.9647-5.28 7.8601-5.8993 27.681-5.921l17.975-0.0197v28.251 28.251h-7.7361-7.7361v-7.1749-7.1749h-18.081-18.081l-4.9 7.3991-4.9 7.3991-8.9842 0.25801c-7.177 0.2061-8.8909 0.0182-8.52-0.9342zm63.466-35.647v-6.278h-7.2218c-3.972 0-8.2425 0.38242-9.49 0.84981-1.2475 0.4674-3.9516 3.2925-6.009 6.278l-3.7408 5.4282h13.231 13.231v-6.278zm84.831 35.786c-1.1475-0.42835-11.453-8.6555-22.901-18.282-11.448-9.627-21.056-17.504-21.349-17.504-0.29383 0-0.53424 8.0718-0.53424 17.937v17.937h-7.7361-7.7361v-28.14-28.14l5.2265-0.4271c9.5351-0.7792 8.3333-1.5044 35.843 21.627l18.544 15.593 0.24599-18.508 0.246-18.508h7.2625 7.2625v28.575 28.575l-6.1433 0.0218c-3.3788 0.012-7.0822-0.32865-8.2297-0.757zm34.082-0.32302c-1.9246-0.6762-4.5371-2.1719-5.8056-3.3239-4.4678-4.0572-4.8021-6.168-4.8021-30.317v-22.45h37.868c31.074 0 37.784 0.21331 37.405 1.189-0.25465 0.65395-0.75574 3.8826-1.1135 7.1749l-0.65051 5.9859h-29.042-29.042l0.25123 13.677 0.25124 13.677 28.64 0.44843 28.64 0.44843 1.0488 6.7265c0.57685 3.6996 0.87275 7.0292 0.65756 7.3991-0.21519 0.36996-13.985 0.65494-30.599 0.63329-23.196-0.0302-31.02-0.32478-33.707-1.2688zm179.09-4.2528c0.3484-3.1073 0.85606-6.5519 1.1281-7.6546l0.49465-2.0049 27.436-0.23722 27.436-0.23723 0.28496-2.4351c0.22526-1.9256-0.15563-2.5348-1.8202-2.9117-1.1579-0.26216-12.582-0.57893-25.386-0.70393l-23.281-0.22727-3.2586-2.4509c-4.6012-3.4606-6.5189-8.8648-5.9458-16.756 0.54489-7.5046 2.6422-11.429 7.581-14.186 3.526-1.968 4.1606-2.004 35.682-2.0184l32.093-0.0147-0.58539 3.8117c-0.32191 2.0964-0.84978 5.426-1.1731 7.3991l-0.58767 3.5874-28.644 0.44843-28.644 0.44843-0.2765 2.3492c-0.21352 1.8142 0.20096 2.4752 1.8202 2.9026 1.1532 0.30437 12.254 0.55892 24.668 0.56565 24.072 0.0131 25.353 0.21487 29.422 4.6356 2.9789 3.2366 4.2586 8.3636 3.7694 15.102-0.50458 6.9493-2.2509 10.386-6.8605 13.5l-3.2581 2.2012-31.363 0.26854-31.363 0.26853 0.63345-5.6497zm-741.23-16.412v-21.076h-15.017-15.017v-7.1749-7.1749h37.77 37.77v7.1749 7.1749h-15.017-15.017v21.076 21.076h-7.7361-7.7361v-21.076zm664.39 10.797v-10.279l-4.2557-5.1918c-3.3917-4.1378-16.886-20.073-24.712-29.183-1.2717-1.4802-0.77796-1.5695 8.6758-1.5695h10.024l8.5469 10.266c4.7008 5.6464 8.7517 10.266 9.002 10.266 0.25029 0 4.3012-4.6198 9.002-10.266l8.5469-10.266h10.042 10.042l-1.8325 2.0179c-2.5575 2.8162-24.039 28.361-26.499 31.511-1.8145 2.3237-2.0203 3.6258-2.0203 12.78v10.193h-7.281-7.281v-10.279zm47.327-34.019c0-4.1115 0.44298-5.3806 2.9579-8.4739l2.9579-3.6381 9.8375-0.0463c7.6361-0.0359 9.6851 0.20458 9.156 1.0748-0.37479 0.61659-3.5147 4.4507-6.9776 8.5202l-6.2962 7.3991h-5.8178-5.8178v-4.8358z" fill="#f27520"/>
  <path id="path3353" d="m508.27 710.09c-14.076-2.4538-28.043-7.8662-38.729-15.008-6.3557-4.248-16.594-14.806-20.497-21.137-4.5755-7.4224-8.7594-18.943-9.4232-25.948l-0.53736-5.6706h30.862 30.862l1.5461 4.2601c2.2676 6.2478 6.3177 10.508 13.133 13.814 7.5462 3.6608 18.341 4.5165 27.574 2.1856 10.615-2.6798 14.943-6.9678 14.824-14.688-0.14034-9.1458-8.2221-13.725-37.538-21.271-28.186-7.2546-38.25-10.835-48.692-17.321l-4.5506-2.8269 71.436 0.21038 71.436 0.21039 3.0016 4.9327c5.266 8.654 7.0209 15.907 6.9439 28.7-0.1235 20.536-5.3411 33.676-18.533 46.676-11.301 11.136-24.587 17.57-44.636 21.615-11.49 2.3181-38.417 3.0219-48.484 1.2672zm288.32 0.29479c-49.815-7.1485-81.084-42.459-85.679-96.753l-0.60769-7.1804h32.44c17.842 0 32.44 0.31328 32.44 0.69617s0.4243 4.1161 0.94289 8.296c2.7398 22.083 10.461 36.028 23.432 42.32 5.6472 2.7396 6.7204 2.9474 15.197 2.943 8.0704-0.004 9.749-0.29341 14.581-2.5119 9.559-4.3886 16.387-12.628 20.314-24.514 1.6552-5.0096 2.8083-11.183 4.2903-22.969l0.53561-4.2601h32.371 32.371l-0.6451 7.3991c-2.3782 27.281-11.956 49.97-28.259 66.944-15.301 15.931-34.135 25.565-57.182 29.248-8.9855 1.4361-27.697 1.611-36.543 0.3416zm-944.27-5.1564c0-0.49608 2.2332-8.4955 4.9626-17.776 2.7294-9.281 8.6836-29.991 13.231-46.023 4.5479-16.031 8.6946-30.46 9.2149-32.063l0.94606-2.9148h15.857 15.857v21.973 21.973l14.79-0.004c30.145-0.007 48.412-5.7681 62.571-19.732 6.0931-6.0094 10.891-13.72 12.693-20.399l1.0286-3.8117h31.013 31.013l-0.62371 4.2601c-0.99542 6.799-6.5139 22.141-11.136 30.96-16.598 31.668-46.343 53.176-85.375 61.733-8.7145 1.9104-11.373 2.0106-62.571 2.3602-35.487 0.24231-53.47 0.0618-53.47-0.53685zm225.71-49.001v-49.776h32.765 32.765v49.776 49.776h-32.765-32.765v-49.776zm132.54 23.56c-4.7406-14.428-11.979-36.525-16.085-49.103s-7.6463-23.178-7.8673-23.555c-0.221-0.37674 13.013-0.57853 29.409-0.44843l29.81 0.23655 0.79111 3.139c2.9719 11.792 4.6549 17.069 5.2403 16.432 0.37189-0.4051 1.8429-5.0751 3.269-10.378l2.5928-9.6412h29.931c23.568 0 29.839 0.23833 29.5 1.1211-0.48626 1.2649-30.307 90.997-31.743 95.516l-0.92619 2.9148h-32.651-32.651l-8.6192-26.233zm150.51-23.543v-49.776h32.765 32.764v49.776 49.776h-32.764-32.765v-49.776zm272.13 0v-49.776h32.309 32.309v49.776 49.776h-32.309-32.309v-49.776zm299.43 0v-49.776h29.935 29.935l0.56764 3.3632c0.31227 1.8498 0.81893 24.249 1.126 49.776l0.55827 46.413h-31.061-31.06v-49.776zm-1290.4-101.35 0.30008-40.808-14.79 0.00039-14.79 0.00037v-11.659-11.659h42.776 42.776v11.659 11.659h-15.017-15.017v40.807 40.807h-13.269-13.269l0.30008-40.808zm66.591 15.92c0.32981-13.688 0.60044-37.298 0.60142-52.466l0.002-27.578h12.742 12.742v19.283 19.283h17.292 17.292v-19.283-19.283h13.324 13.324l-0.57392 4.7085c-0.31566 2.5897-0.57749 26.2-0.58184 52.466l-0.008 47.758h-12.742-12.742v-21.973-21.973h-17.292-17.292v21.973 21.973h-13.343-13.343l0.59967-24.888zm97.987-27.578v-52.466h40.412 40.412l-2.8119 10.762-2.8119 10.762h-24.403-24.403v9.417 9.417h21.94c19.333 0 21.877 0.16328 21.405 1.3741-0.2943 0.75577-1.182 3.8836-1.9727 6.9507s-1.8382 7.09-2.3277 8.9398l-0.8901 3.3632h-19.078-19.078v10.314 10.314h16.333 16.333l-1.2467 4.2601c-0.68567 2.343-2.1419 7.5897-3.2361 11.659l-1.9894 7.3991h-26.294-26.294v-52.466zm76.451 52.046c0-0.37166 27.517-98.808 28.809-103.06 0.48933-1.6097 1.6246-1.6636 25.67-1.2187 28.553 0.52834 40.045 2.0307 56.147 7.3402 19.337 6.3761 33.143 14.828 46.136 28.243 16.292 16.82 24.858 36.177 25.923 58.575l0.50085 10.538h-30.935-30.935l-0.52935-8.296c-2.0798-32.4-24.333-45.52-77.208-45.52h-14.466v26.906 26.906h-14.562c-8.0091 0-14.562-0.18907-14.562-0.42016zm194.77-49.356v-49.776h32.765 32.765v49.776 49.776h-32.765-32.765v-49.776zm96.58 22.197c-4.9897-15.168-12.308-37.466-16.262-49.552l-7.1899-21.973 32.291-0.23569c17.76-0.12963 32.482-0.047 32.716 0.18368 0.46773 0.46091 26.598 97.1 26.598 98.368 0 0.43492-13.21 0.78674-29.54 0.78674h-29.54l-9.0721-27.578zm91.941 5.3812c3.4271-12.209 9.5721-34.177 13.655-48.818 4.0834-14.642 7.6978-27.057 8.032-27.59 0.42126-0.67167 10.512-0.89652 32.898-0.73311l32.29 0.23572-16.424 49.533-16.424 49.533-30.129 0.0188-30.129 0.0188 6.2311-22.197zm94.528-27.578v-49.776h32.765 32.764v49.776 49.776h-32.764-32.765v-49.776zm93.479 46.861c-8.7587-11.73-12.482-27.011-10.587-43.447 2.1825-18.928 11.405-33.744 27.319-43.889 24.267-15.469 66.709-19.13 96.708-8.3416 24.526 8.8204 41.218 28.61 45.903 54.422l0.85469 4.7085h-30.777-30.777l-0.87235-3.1133c-2.7854-9.9409-14.915-15.9-29.612-14.547-11.357 1.0451-16.93 4.9071-16.924 11.728 0.009 10.19 7.4734 14.473 40.111 23.014 9.563 2.5028 20.934 5.7776 25.269 7.2773 8.5691 2.9646 21.641 9.2996 26.543 12.863l3.0803 2.2395h-72.03-72.03l-2.1764-2.9148zm178.65-46.861v-49.776h32.309 32.309v49.776 49.776h-32.309-32.309v-49.776zm77.668 41.719c1.5879-22.044 9.1859-42.914 21.475-58.985 22.757-29.76 63.408-43.489 105.48-35.623 42.707 7.9834 72.689 40.682 79.774 87.003 0.75168 4.9145 1.3691 10.449 1.372 12.299l0.009 3.3632h-32.244-32.244l-0.57957-5.157c-2.77-24.648-11.255-40.237-25.288-46.459-7.5849-3.3631-19.163-3.5252-27.478-0.3845-14.069 5.3137-22.893 21.336-25.551 46.395l-0.59467 5.6054h-32.356-32.356l0.58038-8.0572zm221.76-41.719v-49.776l30.262 0.007 30.262 0.007 25.939 41.41c14.266 22.775 28.291 45.171 31.167 49.768l5.2282 8.3587h-61.428-61.429v-49.776zm131.48 48.206c-0.3743-0.86323-0.8788-23.262-1.1211-49.776l-0.4407-48.206h31.058 31.058v49.776 49.776h-29.937c-27.645 0-29.989-0.12013-30.617-1.5695zm-1232.3-148.08c-6.2577-0.65922-9.7228-2.5443-12.283-6.6824-1.6386-2.6482-1.7737-4.6553-1.7768-26.409l-0.003-23.543h31.958c30.865 0 32.075 0.065 35.388 1.8994 1.8863 1.0447 4.32 3.4607 5.4083 5.3688 1.885 3.305 1.9655 4.3594 1.7 22.253-0.31067 20.936-0.54586 21.774-7.1998 25.636-2.8443 1.651-4.8651 1.8042-25.388 1.9252-12.264 0.0723-24.775-0.12951-27.802-0.44844zm45.452-15.9c0.30384-0.78026 0.55243-6.5829 0.55243-12.895 0-8.6433-0.30891-11.729-1.2514-12.5-0.87818-0.7182-7.597-0.95159-22.526-0.78246l-21.274 0.24102-0.25388 12.433c-0.1716 8.4032 0.0857 12.836 0.79403 13.677 0.83872 0.99588 5.2758 1.2443 22.227 1.2443 18.473 0 21.25-0.18126 21.732-1.4186zm57.751 15.544c-0.76831-0.61659-5.4541-7.5342-10.413-15.372l-9.0159-14.251-0.24954 14.924-0.24954 14.924h-7.7141-7.7141v-28.251-28.251h8.5292 8.5292l13.443 21.141c10.933 17.194 13.656 20.92 14.584 19.955 0.62724-0.65219 5.7513-8.4504 11.387-17.329 5.6355-8.8789 11.432-17.859 12.881-19.955l2.6345-3.8117h8.1474 8.1474v28.251 28.251h-7.281-7.281v-14.798c0-8.139-0.30717-14.786-0.68259-14.772-0.37543 0.0143-4.732 6.4464-9.6813 14.294-4.9493 7.8471-9.4339 14.696-9.9659 15.221-1.3838 1.3636-16.299 1.2247-18.034-0.16798zm90.956-0.30446c-2.9836-0.90443-5.0629-2.2978-6.8259-4.5742l-2.5354-3.2736-0.26932-24.063-0.26932-24.063h37.462 37.462l-0.6274 5.157c-0.34506 2.8363-0.84478 6.0594-1.1105 7.1624l-0.48309 2.0055-28.801 0.23669-28.801 0.23668-0.25388 12.433c-0.1716 8.4032 0.08573 12.836 0.79403 13.677 0.85217 1.0118 6.2859 1.2443 29.089 1.2443 25.924 0 28.076 0.11853 28.502 1.5695 0.25341 0.86323 0.73828 4.2937 1.0775 7.6233l0.61675 6.0538-30.368-0.0624c-23.808-0.049-31.294-0.3434-34.658-1.3631zm72.095-27.274v-28.7h7.7361 7.7361v21.076 21.076h17.747c9.7611 0 17.747 0.16355 17.747 0.36344 0 0.91161-8.2947 13.497-9.317 14.137-0.63221 0.39547-10.262 0.72522-21.4 0.73277l-20.25 0.0137v-28.7zm46.66 27.575c0.97917-2.5145 30.979-47.885 33.281-50.334 4.9647-5.28 7.8601-5.8993 27.681-5.921l17.975-0.0197v28.251 28.251h-7.7361-7.7361v-7.1749-7.1749h-18.081-18.081l-4.9 7.3991-4.9 7.3991-8.9842 0.25801c-7.177 0.2061-8.8909 0.0182-8.52-0.9342zm63.466-35.647v-6.278h-7.2218c-3.972 0-8.2425 0.38242-9.49 0.84981-1.2475 0.4674-3.9516 3.2925-6.009 6.278l-3.7408 5.4282h13.231 13.231v-6.278zm84.831 35.786c-1.1475-0.42835-11.453-8.6555-22.901-18.282-11.448-9.627-21.056-17.504-21.349-17.504-0.29383 0-0.53424 8.0718-0.53424 17.937v17.937h-7.7361-7.7361v-28.14-28.14l5.2265-0.4271c9.5351-0.7792 8.3333-1.5044 35.843 21.627l18.544 15.593 0.24599-18.508 0.246-18.508h7.2625 7.2625v28.575 28.575l-6.1433 0.0218c-3.3788 0.012-7.0822-0.32865-8.2297-0.757zm34.082-0.32302c-1.9246-0.6762-4.5371-2.1719-5.8056-3.3239-4.4678-4.0572-4.8021-6.168-4.8021-30.317v-22.45h37.868c31.074 0 37.784 0.21331 37.405 1.189-0.25465 0.65395-0.75574 3.8826-1.1135 7.1749l-0.65051 5.9859h-29.042-29.042l0.25123 13.677 0.25124 13.677 28.64 0.44843 28.64 0.44843 1.0488 6.7265c0.57685 3.6996 0.87275 7.0292 0.65756 7.3991-0.21519 0.36996-13.985 0.65494-30.599 0.63329-23.196-0.0302-31.02-0.32478-33.707-1.2688zm179.09-4.2528c0.3484-3.1073 0.85606-6.5519 1.1281-7.6546l0.49465-2.0049 27.436-0.23722 27.436-0.23723 0.28496-2.4351c0.22526-1.9256-0.15563-2.5348-1.8202-2.9117-1.1579-0.26216-12.582-0.57893-25.386-0.70393l-23.281-0.22727-3.2586-2.4509c-4.6012-3.4606-6.5189-8.8648-5.9458-16.756 0.54489-7.5046 2.6422-11.429 7.581-14.186 3.526-1.968 4.1606-2.004 35.682-2.0184l32.093-0.0147-0.58539 3.8117c-0.32191 2.0964-0.84978 5.426-1.1731 7.3991l-0.58767 3.5874-28.644 0.44843-28.644 0.44843-0.2765 2.3492c-0.21352 1.8142 0.20096 2.4752 1.8202 2.9026 1.1532 0.30437 12.254 0.55892 24.668 0.56565 24.072 0.0131 25.353 0.21487 29.422 4.6356 2.9789 3.2366 4.2586 8.3636 3.7694 15.102-0.50458 6.9493-2.2509 10.386-6.8605 13.5l-3.2581 2.2012-31.363 0.26854-31.363 0.26853 0.63345-5.6497zm-741.23-16.412v-21.076h-15.017-15.017v-7.1749-7.1749h37.77 37.77v7.1749 7.1749h-15.017-15.017v21.076 21.076h-7.7361-7.7361v-21.076zm664.39 10.797v-10.279l-4.2557-5.1918c-3.3917-4.1378-16.886-20.073-24.712-29.183-1.2717-1.4802-0.77796-1.5695 8.6758-1.5695h10.024l8.5469 10.266c4.7008 5.6464 8.7517 10.266 9.002 10.266 0.25029 0 4.3012-4.6198 9.002-10.266l8.5469-10.266h10.042 10.042l-1.8325 2.0179c-2.5575 2.8162-24.039 28.361-26.499 31.511-1.8145 2.3237-2.0203 3.6258-2.0203 12.78v10.193h-7.281-7.281v-10.279zm47.327-34.019c0-4.1115 0.44298-5.3806 2.9579-8.4739l2.9579-3.6381 9.8375-0.0463c7.6361-0.0359 9.6851 0.20458 9.156 1.0748-0.37479 0.61659-3.5147 4.4507-6.9776 8.5202l-6.2962 7.3991h-5.8178-5.8178v-4.8358z" fill="#fe7e00"/>
  <path id="path3351" d="m-168.2 446.05c-6.2577-0.65922-9.7228-2.5443-12.283-6.6824-1.6386-2.6482-1.7737-4.6553-1.7768-26.409l-0.003-23.543h31.958c30.865 0 32.075 0.065 35.388 1.8994 1.8863 1.0447 4.32 3.4607 5.4083 5.3688 1.885 3.305 1.9655 4.3594 1.7 22.253-0.31067 20.936-0.54586 21.774-7.1998 25.636-2.8443 1.651-4.8651 1.8042-25.388 1.9252-12.264 0.0723-24.775-0.12951-27.802-0.44844zm45.452-15.9c0.30384-0.78026 0.55243-6.5829 0.55243-12.895 0-8.6433-0.30891-11.729-1.2514-12.5-0.87818-0.7182-7.597-0.95159-22.526-0.78246l-21.274 0.24102-0.25388 12.433c-0.1716 8.4032 0.0857 12.836 0.79403 13.677 0.83872 0.99588 5.2758 1.2443 22.227 1.2443 18.473 0 21.25-0.18126 21.732-1.4186zm57.751 15.544c-0.76831-0.61659-5.4541-7.5342-10.413-15.372l-9.0159-14.251-0.24954 14.924-0.24954 14.924h-7.7141-7.7141v-28.251-28.251h8.5292 8.5292l13.443 21.141c10.933 17.194 13.656 20.92 14.584 19.955 0.62724-0.65219 5.7513-8.4504 11.387-17.329 5.6355-8.8789 11.432-17.859 12.881-19.955l2.6345-3.8117h8.1474 8.1474v28.251 28.251h-7.281-7.281v-14.798c0-8.139-0.30717-14.786-0.68259-14.772-0.37543 0.0143-4.732 6.4464-9.6813 14.294-4.9493 7.8471-9.4339 14.696-9.9659 15.221-1.3838 1.3636-16.299 1.2247-18.034-0.16798zm90.956-0.30446c-2.9836-0.90443-5.0629-2.2978-6.8259-4.5742l-2.5354-3.2736-0.26932-24.063-0.26932-24.063h37.462 37.462l-0.6274 5.157c-0.34506 2.8363-0.84478 6.0594-1.1105 7.1624l-0.48309 2.0055-28.801 0.23669-28.801 0.23668-0.25388 12.433c-0.1716 8.4032 0.08573 12.836 0.79403 13.677 0.85217 1.0118 6.2859 1.2443 29.089 1.2443 25.924 0 28.076 0.11853 28.502 1.5695 0.25341 0.86323 0.73828 4.2937 1.0775 7.6233l0.61675 6.0538-30.368-0.0624c-23.808-0.049-31.294-0.3434-34.658-1.3631zm72.095-27.274v-28.7h7.7361 7.7361v21.076 21.076h17.747c9.7611 0 17.747 0.16355 17.747 0.36344 0 0.91161-8.2947 13.497-9.317 14.137-0.63221 0.39547-10.262 0.72522-21.4 0.73277l-20.25 0.0137v-28.7zm46.66 27.575c0.97917-2.5145 30.979-47.885 33.281-50.334 4.9647-5.28 7.8601-5.8993 27.681-5.921l17.975-0.0197v28.251 28.251h-7.7361-7.7361v-7.1749-7.1749h-18.081-18.081l-4.9 7.3991-4.9 7.3991-8.9842 0.25801c-7.177 0.2061-8.8909 0.0182-8.52-0.9342zm63.466-35.647v-6.278h-7.2218c-3.972 0-8.2425 0.38242-9.49 0.84981-1.2475 0.4674-3.9516 3.2925-6.009 6.278l-3.7408 5.4282h13.231 13.231v-6.278zm84.831 35.786c-1.1475-0.42835-11.453-8.6555-22.901-18.282-11.448-9.627-21.056-17.504-21.349-17.504-0.29383 0-0.53424 8.0718-0.53424 17.937v17.937h-7.7361-7.7361v-28.14-28.14l5.2265-0.4271c9.5351-0.7792 8.3333-1.5044 35.843 21.627l18.544 15.593 0.24599-18.508 0.246-18.508h7.2625 7.2625v28.575 28.575l-6.1433 0.0218c-3.3788 0.012-7.0822-0.32865-8.2297-0.757zm34.082-0.32302c-1.9246-0.6762-4.5371-2.1719-5.8056-3.3239-4.4678-4.0572-4.8021-6.168-4.8021-30.317v-22.45h37.868c31.074 0 37.784 0.21331 37.405 1.189-0.25465 0.65395-0.75574 3.8826-1.1135 7.1749l-0.65051 5.9859h-29.042-29.042l0.25123 13.677 0.25124 13.677 28.64 0.44843 28.64 0.44843 1.0488 6.7265c0.57685 3.6996 0.87275 7.0292 0.65756 7.3991-0.21519 0.36996-13.985 0.65494-30.599 0.63329-23.196-0.0302-31.02-0.32478-33.707-1.2688zm179.09-4.2528c0.3484-3.1073 0.85606-6.5519 1.1281-7.6546l0.49465-2.0049 27.436-0.23722 27.436-0.23723 0.28496-2.4351c0.22526-1.9256-0.15563-2.5348-1.8202-2.9117-1.1579-0.26216-12.582-0.57893-25.386-0.70393l-23.281-0.22727-3.2586-2.4509c-4.6012-3.4606-6.5189-8.8648-5.9458-16.756 0.54489-7.5046 2.6422-11.429 7.581-14.186 3.526-1.968 4.1606-2.004 35.682-2.0184l32.093-0.0147-0.58539 3.8117c-0.32191 2.0964-0.84978 5.426-1.1731 7.3991l-0.58767 3.5874-28.644 0.44843-28.644 0.44843-0.2765 2.3492c-0.21352 1.8142 0.20096 2.4752 1.8202 2.9026 1.1532 0.30437 12.254 0.55892 24.668 0.56565 24.072 0.0131 25.353 0.21487 29.422 4.6356 2.9789 3.2366 4.2586 8.3636 3.7694 15.102-0.50458 6.9493-2.2509 10.386-6.8605 13.5l-3.2581 2.2012-31.363 0.26854-31.363 0.26853 0.63345-5.6497zm-741.23-16.412v-21.076h-15.017-15.017v-7.1749-7.1749h37.77 37.77v7.1749 7.1749h-15.017-15.017v21.076 21.076h-7.7361-7.7361v-21.076zm664.39 10.797v-10.279l-4.2557-5.1918c-3.3917-4.1378-16.886-20.073-24.712-29.183-1.2717-1.4802-0.77796-1.5695 8.6758-1.5695h10.024l8.5469 10.266c4.7008 5.6464 8.7517 10.266 9.002 10.266 0.25029 0 4.3012-4.6198 9.002-10.266l8.5469-10.266h10.042 10.042l-1.8325 2.0179c-2.5575 2.8162-24.039 28.361-26.499 31.511-1.8145 2.3237-2.0203 3.6258-2.0203 12.78v10.193h-7.281-7.281v-10.279zm47.327-34.019c0-4.1115 0.44298-5.3806 2.9579-8.4739l2.9579-3.6381 9.8375-0.0463c7.6361-0.0359 9.6851 0.20458 9.156 1.0748-0.37479 0.61659-3.5147 4.4507-6.9776 8.5202l-6.2962 7.3991h-5.8178-5.8178v-4.8358z" fill="#6b6b6b"/>
  <path id="path3349" d="m505.79 445.96c0-0.47313 0.45934-3.9036 1.0208-7.6233l1.0207-6.7631h27.706 27.706l-0.28514-2.9148-0.28524-2.9148-24.573-0.44843c-23.251-0.4243-24.745-0.55373-27.759-2.4044-4.0671-2.4974-6.1037-5.9418-6.8674-11.615-0.91695-6.8121 0.88036-13.829 4.3989-17.173 1.6079-1.5283 4.0764-3.207 5.4856-3.7305 1.6246-0.60358 13.968-0.95187 33.733-0.95187h31.171l-0.97511 6.9507-0.9751 6.9507-27.841 0.44843c-21.737 0.35011-28.171 0.71831-29.345 1.6793-1.7276 1.4144-1.7999 1.8501-0.61406 3.7018 0.71946 1.1235 4.9559 1.4192 25.697 1.7937 24.187 0.43673 24.913 0.50293 27.807 2.5371 4.6333 3.2565 6.0484 6.7328 6.0868 14.952 0.0264 5.5953-0.36623 7.8453-1.7821 10.22-2.3348 3.916-5.6 6.2835-10.077 7.3068-4.8724 1.1136-60.453 1.1122-60.453-0.002zm-740.84-21.113v-21.076h-15.017-15.017v-7.1749-7.1749h37.315 37.315v7.1749 7.1749h-14.562-14.562v21.076 21.076h-7.7361-7.7361v-21.076zm60.054 19.413c-1.7442-0.91458-4.086-3.2352-5.204-5.157-1.9582-3.3659-2.0334-4.3428-2.0478-26.621l-0.015-23.126 32.699 0.25653c31.393 0.24629 32.8 0.33042 35.211 2.1057 6.0869 4.4807 6.2398 5.0638 6.5278 24.895 0.25228 17.368 0.17884 18.259-1.8202 22.068-3.7223 7.093-4.4449 7.2412-35.303 7.2412-24.425 0-27.166-0.15171-30.048-1.6629zm52.346-26.588v-13.453l-22.526-0.23988-22.526-0.23988v13.319c0 7.3255 0.28014 13.595 0.62255 13.933 0.3424 0.33741 10.479 0.50557 22.526 0.37369l21.903-0.23979v-13.453zm22.513 0.22421 0.2405-28.027 8.1911-0.22724 8.1911-0.22724 13.625 21.48c7.4936 11.814 13.842 21.272 14.107 21.019 0.26522-0.25346 6.4681-9.8171 13.784-21.252l13.302-20.792 8.3135-0.25787 8.3135-0.25787v28.285 28.285h-7.281-7.281v-15.439c0-12.977-0.19497-15.229-1.2226-14.126-0.67241 0.72229-5.2446 7.6698-10.16 15.439l-8.9379 14.126-9.1797-0.0353-9.1797-0.0353-9.0778-14.386c-4.9928-7.9122-9.3956-14.579-9.7838-14.816-0.3883-0.23649-0.706 6.253-0.706 14.421v14.851h-7.749-7.749l0.24049-28.027zm123.33 26.032c-2.0921-1.1949-4.1245-3.3867-5.2332-5.6437-1.6632-3.3856-1.8128-5.5542-1.8128-26.277v-22.587h37.418 37.418l-0.60434 4.2601c-0.33239 2.343-0.83403 5.5717-1.1148 7.1749l-0.51041 2.9148h-29.046-29.046l0.25123 13.677 0.25124 13.677 28.795 0.23668 28.795 0.23668 0.60245 4.2476c0.33134 2.3362 0.83213 5.5593 1.1129 7.1624l0.51041 2.9148-32.183-0.0206c-31.389 0-32.268-0.05-35.604-1.96zm75.08-26.032 0.2405-28.027 7.5085-0.26049 7.5085-0.26049v21.094 21.094l17.709 0.24318 17.709 0.24317-4.5006 6.9507-4.5006 6.9507h-20.958-20.958l0.24049-28.027zm62.849 2.7286c13.203-20.156 17.374-25.853 20.516-28.027l3.9436-2.7286 19.037-0.28915 19.037-0.28915v28.316 28.316h-7.281-7.281v-7.1749-7.1749h-18.698-18.698l-4.6344 7.1749-4.6344 7.1749h-8.9388-8.9388l16.572-25.298zm47.061-10.128v-6.7265h-8.4722c-5.41 0-8.988 0.40521-9.8992 1.1211-1.5978 1.2552-8.0222 10.583-8.0222 11.647 0 0.37654 5.9386 0.68462 13.197 0.68462h13.197v-6.7265zm24.573 7.1749v-28.251h7.201c8.509 0 6.7903-1.1063 34.485 22.197 9.5262 8.0157 17.559 14.574 17.851 14.574 0.29194 0 0.53079-8.2736 0.53079-18.386v-18.386h7.281 7.281v28.251 28.251l-7.0535-0.0317c-3.8794-0.0175-7.9004-0.52196-8.9355-1.1211s-10.986-8.7575-22.113-18.13c-11.127-9.3722-20.622-17.175-21.099-17.339-0.53151-0.18319-0.8674 6.8496-0.8674 18.161v18.46h-7.281-7.281v-28.251zm92.378 26.993c-3.4217-1.4884-5.4563-3.7175-7.2463-7.939-1.1307-2.6667-1.3999-7.5327-1.3999-25.304v-22.002h37.421 37.421l-0.65051 5.9859c-0.35778 3.2922-0.85887 6.5209-1.1135 7.1749-0.37113 0.95304-6.2235 1.189-29.49 1.189h-29.027l0.0124 11.883c0.007 6.5359 0.25939 12.791 0.56122 13.901l0.54878 2.0179h28.465c22.8 0 28.558 0.23665 28.928 1.189 0.25465 0.65395 0.75574 3.8826 1.1135 7.1749l0.65055 5.9859-31.733-0.0351c-24.29-0.0269-32.373-0.31367-34.463-1.2228zm104.21-9.3251v-10.583l-15.059-17.668-15.059-17.668 9.826 0.0126 9.826 0.0126 8.6036 10.301c4.732 5.6657 8.8275 10.292 9.1012 10.281 0.27372-0.0113 4.3885-4.6433 9.1439-10.293l8.6462-10.273 9.3288-0.0205c5.1308-0.0113 9.3288 0.19067 9.3288 0.44873 0 0.25807-6.5529 8.2061-14.562 17.662l-14.562 17.193v10.589 10.589h-7.281-7.281v-10.583zm47.327-33.696c0-4.3017 0.36537-5.2192 3.413-8.5703l3.413-3.7529 9.2851 0.27436 9.2852 0.27435-6.4331 7.6233c-3.5382 4.1928-6.8974 7.9198-7.4648 8.2822-0.56747 0.3624-3.3868 0.66509-6.265 0.67264l-5.2332 0.0137v-4.8174z"/>
 </g>
</svg>
