<?xml version="1.0" encoding="UTF-8" standalone="no"?>
<svg
   xmlns:dc="http://purl.org/dc/elements/1.1/"
   xmlns:cc="http://creativecommons.org/ns#"
   xmlns:rdf="http://www.w3.org/1999/02/22-rdf-syntax-ns#"
   xmlns:svg="http://www.w3.org/2000/svg"
   xmlns="http://www.w3.org/2000/svg"
   xmlns:sodipodi="http://sodipodi.sourceforge.net/DTD/sodipodi-0.dtd"
   xmlns:inkscape="http://www.inkscape.org/namespaces/inkscape"
   version="1.0"
   width="566.82001"
   height="92.389999"
   viewBox="0 0 453.45602 73.912001"
   preserveAspectRatio="xMidYMid meet"
   id="svg3087"
   inkscape:version="0.48.5 r10040"
   sodipodi:docname="Watch_Dogs - Logo V2.svg">
  <defs
     id="defs3119" />
  <sodipodi:namedview
     pagecolor="#ffffff"
     bordercolor="#666666"
     borderopacity="1"
     objecttolerance="10"
     gridtolerance="10"
     guidetolerance="10"
     inkscape:pageopacity="0"
     inkscape:pageshadow="2"
     inkscape:window-width="1366"
     inkscape:window-height="705"
     id="namedview3117"
     showgrid="false"
     inkscape:zoom="1.8101934"
     inkscape:cx="301.42021"
     inkscape:cy="47.316207"
     inkscape:window-x="-8"
     inkscape:window-y="-8"
     inkscape:window-maximized="1"
     inkscape:current-layer="svg3087" />
  <metadata
     id="metadata3089">
Created by potrace 1.11, written by Peter Selinger 2001-2013
<rdf:RDF>
  <cc:Work
     rdf:about="">
    <dc:format>image/svg+xml</dc:format>
    <dc:type
       rdf:resource="http://purl.org/dc/dcmitype/StillImage" />
    <dc:title></dc:title>
  </cc:Work>
</rdf:RDF>
</metadata>
  <g
     transform="matrix(0.00833333,0,0,-0.00833331,0.27500341,73.958907)"
     id="g3091"
     style="fill:#000000;stroke:none">
    <path
       d="m 12,8823 c 5,-32 67,-382 139,-778 244,-1356 288,-1601 409,-2270 66,-368 122,-680 125,-692 l 5,-23 265,0 265,0 0,-1355 0,-1355 164,0 c 90,0 178,-3 195,-6 l 31,-6 0,-544 0,-544 -249,0 c -137,0 -263,-3 -280,-6 l -31,-6 0,-69 0,-69 775,0 775,0 0,619 0,618 38,7 c 20,3 200,6 400,6 l 362,0 0,1355 0,1355 70,0 c 39,0 70,4 70,9 0,4 14,93 30,197 25,157 129,823 160,1024 18,116 70,448 80,505 5,33 10,61 10,63 0,1 4,2 8,2 10,0 21,-61 82,-445 22,-137 47,-290 55,-340 8,-49 23,-146 34,-215 11,-69 36,-223 56,-343 l 35,-218 0,-782 c 0,-430 3,-799 6,-820 l 7,-37 248,0 249,0 0,-1385 0,-1385 515,0 515,0 0,175 0,175 84,0 84,0 6,31 c 3,17 6,264 6,549 l 0,517 31,7 c 17,3 161,6 320,6 l 289,0 0,830 0,830 -495,0 -495,0 0,100 0,100 560,0 560,0 0,425 0,425 189,0 c 172,0 190,2 195,18 9,30 686,3761 686,3782 0,20 -3,20 -707,18 l -708,-3 -22,-135 c -20,-126 -42,-274 -144,-950 -21,-146 -44,-292 -49,-325 -5,-33 -28,-181 -50,-330 -22,-148 -45,-297 -50,-330 -5,-33 -28,-181 -50,-330 -22,-148 -45,-297 -50,-330 -5,-33 -28,-181 -50,-330 -22,-148 -46,-302 -51,-341 -6,-40 -15,-78 -20,-85 -7,-11 -62,-14 -288,-14 -154,0 -282,2 -284,5 -3,3 -134,779 -291,1725 -158,946 -289,1732 -292,1748 l -6,27 -709,0 -709,0 -5,-22 c -3,-13 -16,-93 -29,-178 -32,-201 -121,-771 -146,-925 -11,-66 -28,-176 -39,-245 -11,-69 -30,-186 -41,-260 -12,-74 -35,-218 -51,-320 -16,-102 -42,-270 -59,-375 -16,-104 -52,-332 -80,-505 -28,-173 -61,-387 -75,-475 -31,-193 -30,-191 -58,-199 -29,-8 -516,-8 -554,0 l -30,6 -32,216 c -18,120 -37,242 -42,272 -5,30 -27,177 -49,325 -22,149 -45,297 -50,330 -5,33 -28,182 -50,330 -22,149 -45,297 -50,330 -5,33 -23,152 -40,265 -17,113 -35,232 -40,265 -5,33 -28,180 -50,328 -87,578 -121,803 -126,820 -5,16 -48,17 -713,17 l -708,0 9,-57 z"
       id="path3093"
       inkscape:connector-curvature="0" />
    <path
       d="m 39525,8859 c -680,-60 -1127,-244 -1481,-610 -409,-423 -626,-1106 -704,-2214 -26,-379 -30,-592 -30,-1682 l 0,-1163 -440,0 -440,0 0,934 0,934 -31,6 c -17,3 -55,6 -84,6 -51,0 -53,1 -59,31 -3,17 -6,138 -6,268 0,288 -20,632 -56,971 -68,637 -220,1167 -429,1495 -261,409 -650,681 -1160,809 -126,32 -251,52 -430,71 -115,12 -369,15 -1402,15 l -1263,0 0,-1824 0,-1824 79,-3 c 44,-2 83,-8 88,-12 4,-5 9,-429 11,-943 l 2,-934 649,0 c 357,0 663,-3 680,-6 l 31,-6 0,-129 0,-128 -42,-6 c -65,-9 -1475,-1 -1485,8 -4,5 -9,67 -11,138 l -4,129 -344,0 -344,0 0,-140 0,-140 345,0 345,0 0,-170 0,-170 -77,0 c -43,0 -95,-3 -115,-6 l -38,-7 0,-97 0,-98 48,-5 c 26,-3 58,-5 72,-4 14,0 44,0 68,-1 l 42,-2 0,-720 0,-720 769,0 769,0 4,60 c 2,33 8,63 12,67 4,5 466,9 1027,11 l 1019,2 0,619 c 0,340 3,633 6,650 l 7,31 622,0 c 342,0 637,3 654,6 l 31,6 0,274 0,274 550,0 550,0 0,-249 c 0,-137 3,-263 6,-280 l 7,-31 407,0 408,0 6,-31 c 3,-17 6,-267 6,-555 l 0,-524 135,0 135,0 0,-175 0,-175 1255,0 1255,0 0,144 c 0,79 3,158 6,175 l 7,31 253,0 254,0 2,544 c 2,299 7,548 11,553 5,4 146,9 313,11 l 304,3 0,1229 0,1230 -615,0 -615,0 0,125 0,125 615,0 615,0 0,-90 0,-90 369,0 369,0 6,45 c 4,25 4,65 0,90 l -6,45 -312,2 c -395,3 -404,3 -411,9 -3,3 -7,80 -10,170 -12,363 -26,671 -35,799 -59,801 -192,1403 -396,1789 -289,547 -794,886 -1484,996 -254,40 -631,55 -865,34 z m 385,-1089 c 52,-5 122,-16 155,-25 88,-22 211,-87 283,-147 320,-272 433,-787 473,-2148 12,-437 9,-2733 -4,-2747 -5,-4 -137,-9 -293,-11 l -284,-3 0,-163 0,-163 -31,-7 c -41,-8 -1347,-8 -1388,0 l -31,6 0,1234 0,1234 -265,0 -265,0 0,115 0,115 265,0 265,0 0,223 c 0,630 52,1312 126,1646 116,522 373,801 774,841 108,10 115,10 220,0 z m -6117,-154 c 349,-73 582,-243 731,-536 62,-120 95,-217 131,-375 67,-302 115,-863 115,-1341 0,-133 3,-256 6,-273 l 7,-31 143,0 144,0 0,-840 0,-840 -320,0 -320,0 0,-64 c 0,-35 -3,-78 -6,-95 l -6,-31 -678,0 -677,0 -7,31 c -3,17 -6,438 -6,934 l 0,903 -31,6 c -17,3 -53,6 -80,6 l -49,0 0,1286 0,1286 413,-5 c 329,-3 428,-7 490,-21 z m 2624,-4439 c 11,-11 11,-243 0,-254 -10,-9 -1880,-17 -1944,-8 l -43,6 0,129 c 0,125 1,129 23,133 41,8 1955,2 1964,-6 z m 1660,0 c 11,-11 11,-243 0,-254 -10,-10 -434,-17 -494,-8 l -43,6 0,129 0,129 28,4 c 49,8 500,2 509,-6 z m -3651,-313 c 7,-47 0,-142 -12,-153 -3,-3 -146,-7 -317,-8 -172,-1 -322,-2 -334,-2 -22,-1 -23,-5 -23,-71 l 0,-70 339,0 339,0 7,-50 c 4,-27 4,-72 0,-100 l -7,-50 -678,0 -677,0 -7,38 c -8,49 -8,440 0,481 l 7,31 678,0 678,0 7,-46 z"
       id="path3095"
       inkscape:connector-curvature="0" />
    <path
       d="m 45865,8855 c -681,-68 -1173,-316 -1511,-760 -281,-369 -472,-941 -563,-1685 -19,-158 -28,-247 -51,-535 -6,-71 -14,-372 -17,-667 l -6,-538 -177,0 -177,0 -7,-31 c -3,-17 -6,-231 -6,-474 0,-243 3,-457 6,-474 l 7,-31 393,0 394,0 0,-380 0,-380 -255,0 -255,0 0,-99 0,-98 -31,-7 c -17,-3 -93,-6 -169,-6 l -138,0 -6,-35 c -4,-19 -4,-51 0,-70 l 6,-35 424,0 424,0 0,-624 c 0,-343 3,-638 6,-655 l 7,-31 1913,0 1914,0 0,975 0,975 -169,0 c -93,0 -183,3 -200,6 l -31,7 0,223 0,223 419,3 c 231,2 423,7 428,11 4,5 9,263 11,573 l 2,564 250,0 250,0 0,129 0,128 -61,7 c -80,8 -2646,8 -2688,0 l -31,-6 0,-424 0,-424 335,0 335,0 0,-930 0,-930 -685,0 -685,0 0,655 0,655 -136,0 -136,0 5,1093 c 6,1215 12,1354 77,1796 122,820 421,1221 915,1224 211,1 352,-59 503,-215 96,-99 171,-223 242,-403 59,-148 109,-398 110,-542 l 0,-63 704,0 704,0 6,33 c 8,41 -18,407 -38,537 -68,441 -211,789 -436,1065 -225,275 -557,477 -963,585 -325,86 -799,121 -1162,85 z"
       id="path3097"
       inkscape:connector-curvature="0" />
    <path
       d="m 51430,8855 c -566,-55 -972,-216 -1310,-519 -289,-260 -484,-611 -571,-1031 -96,-464 -73,-1003 59,-1396 50,-149 154,-350 239,-464 37,-50 132,-154 211,-232 l 143,-143 -143,0 c -79,0 -160,-3 -180,-6 l -38,-7 0,-88 0,-89 685,0 685,0 0,-414 c 0,-227 3,-428 6,-445 l 7,-31 607,0 608,0 6,-31 c 3,-17 6,-372 6,-789 0,-417 -3,-772 -6,-789 l -6,-31 -624,0 -624,0 0,655 0,655 -799,0 -799,0 -4,-60 c -2,-33 -8,-63 -12,-67 -4,-5 -134,-9 -289,-10 -155,-1 -290,-2 -299,-2 -16,-1 -18,-13 -18,-106 l 0,-105 304,0 304,0 6,-31 c 3,-17 6,-233 6,-480 l 0,-449 279,0 c 153,0 293,-3 310,-6 l 31,-6 0,-693 c 0,-381 3,-707 6,-724 l 7,-31 1683,0 1684,0 2,719 c 2,396 7,723 11,728 5,4 132,9 283,11 l 274,3 0,1109 0,1110 -145,0 -145,0 0,89 c 0,49 -3,103 -6,120 l -6,31 -758,0 c -417,0 -772,3 -789,6 l -31,7 0,118 0,119 615,0 c 356,0 615,4 615,9 0,17 -70,70 -165,126 -173,102 -493,251 -1107,514 -646,277 -713,308 -823,378 -210,135 -331,280 -393,473 -81,249 -64,615 38,822 90,182 237,301 440,358 166,46 426,46 575,0 317,-98 506,-407 531,-870 3,-52 7,-114 10,-137 l 5,-43 705,0 704,0 0,220 c 0,476 -98,836 -313,1155 -78,115 -272,309 -397,397 -235,166 -536,286 -870,347 -313,58 -711,75 -1020,46 z m -1410,-5434 0,-98 -37,-7 c -49,-8 -321,-8 -362,0 l -31,7 0,98 0,99 215,0 215,0 0,-99 z"
       id="path3099"
       inkscape:connector-curvature="0" />
    <path
       d="m 20270,8835 c -301,-22 -494,-57 -721,-131 -747,-245 -1177,-786 -1373,-1729 -120,-575 -176,-1379 -150,-2152 l 7,-213 -256,0 -256,0 -6,-42 c -9,-64 -1,-1275 8,-1285 5,-4 168,-9 363,-11 l 354,-3 0,-634 0,-635 515,0 515,0 0,-135 0,-135 -277,0 c -153,0 -295,-3 -315,-6 l -38,-7 0,-343 0,-344 399,0 399,0 6,-31 c 3,-17 6,-49 6,-70 l 0,-39 340,0 340,0 0,39 c 0,21 3,53 6,70 l 7,31 1053,0 1054,0 0,654 0,654 31,6 c 17,3 146,6 285,6 l 254,0 0,1170 0,1170 -685,0 -685,0 0,-1139 c 0,-626 -3,-1153 -6,-1170 l -6,-31 -958,0 -957,0 -7,31 c -3,17 -6,575 -6,1240 l 0,1209 -264,0 -263,0 -7,31 c -8,40 -8,113 0,162 l 7,37 257,0 257,0 7,38 c 3,20 6,129 6,242 0,379 41,1003 86,1320 87,613 269,938 586,1044 201,67 446,50 643,-44 251,-121 381,-356 444,-805 16,-110 41,-450 41,-552 l 0,-93 740,0 740,0 0,183 c 0,212 -20,450 -60,710 -7,43 -10,80 -7,83 3,4 805,7 1230,4 l 77,0 0,-1027 c 0,-566 3,-1045 6,-1065 l 7,-38 133,0 134,0 0,-2029 c 0,-1116 3,-2043 6,-2060 l 7,-31 653,0 654,0 0,1520 0,1520 910,0 910,0 0,-1489 c 0,-819 3,-1503 6,-1520 l 7,-31 588,0 589,0 0,1399 0,1398 31,7 c 17,3 164,6 325,6 l 294,0 0,114 0,114 -31,6 c -17,3 -164,6 -325,6 l -294,0 0,2350 0,2350 -699,0 -698,0 -7,-31 c -3,-17 -6,-647 -6,-1400 l 0,-1369 -855,0 -855,0 0,1400 0,1400 -739,0 -738,0 -7,-31 c -3,-17 -6,-294 -6,-615 l 0,-584 -689,0 -689,0 -23,68 c -62,190 -131,341 -216,471 -213,328 -514,560 -903,695 -243,85 -461,124 -810,146 -191,12 -198,11 -430,-5 z m 2296,-1381 81,-7 26,-111 c 15,-61 27,-117 27,-123 0,-10 -107,-13 -499,-13 l -498,0 -7,38 c -8,48 -8,141 0,180 6,30 8,31 68,35 114,6 721,7 802,1 z m 6064,-3589 0,-115 -280,0 -280,0 0,115 0,115 280,0 280,0 0,-115 z"
       id="path3101"
       inkscape:connector-curvature="0" />
    <path
       d="m 9631,8623 c -11,-38 -42,-153 -70,-258 -57,-216 -251,-950 -441,-1665 -71,-267 -188,-708 -260,-980 -72,-272 -152,-573 -177,-667 l -46,-173 -258,0 -259,0 0,-1265 0,-1265 -230,0 -230,0 0,-584 0,-585 -55,-6 -55,-7 0,-69 0,-69 574,0 574,0 6,31 c 3,17 6,312 6,654 l 0,623 31,6 c 17,3 193,6 390,6 l 359,0 0,379 c 0,208 3,393 6,410 l 7,31 998,0 999,0 0,-965 0,-965 709,0 708,0 7,37 c 8,49 8,377 0,426 l -7,37 -338,0 -339,0 0,125 0,124 334,3 c 184,2 338,7 343,11 11,11 11,3043 0,3054 -5,4 -112,9 -237,11 -205,3 -230,5 -234,20 -5,17 -360,1352 -457,1717 -28,105 -61,228 -74,275 -12,47 -114,428 -226,848 l -202,762 -918,0 -918,0 -20,-67 z m 963,-1325 c 14,-62 36,-167 50,-233 22,-107 90,-425 351,-1649 41,-192 75,-351 75,-353 0,-1 32,-3 70,-3 l 70,0 0,-415 0,-415 -669,0 -669,0 14,68 c 7,37 99,470 204,962 105,492 213,1001 241,1130 220,1031 217,1020 229,1020 5,0 20,-51 34,-112 z"
       id="path3103"
       inkscape:connector-curvature="0" />
    <path
       d="m 12770,8080 0,-610 814,0 814,0 6,-31 c 3,-17 6,-1505 6,-3305 l 0,-3274 680,0 680,0 0,70 0,70 -215,0 -215,0 0,135 0,135 255,0 255,0 0,394 0,394 31,6 c 17,3 337,6 710,6 l 679,0 0,115 0,115 -710,0 -710,0 0,2585 0,2585 805,0 805,0 0,610 0,610 -2345,0 -2345,0 0,-610 z m 3074,-5821 c 3,-17 6,-53 6,-79 0,-26 -3,-62 -6,-79 l -6,-31 -359,0 -359,0 0,110 0,110 359,0 359,0 6,-31 z"
       id="path3105"
       inkscape:connector-curvature="0" />
    <path
       d="m 7273,5062 c -22,-3 -23,-8 -23,-93 0,-79 2,-89 18,-89 10,0 202,-1 428,-2 226,0 417,2 424,7 9,6 11,28 7,87 -3,44 -7,81 -9,83 -4,5 -815,11 -845,7 z"
       id="path3107"
       inkscape:connector-curvature="0" />
    <path
       d="m 53914,5062 c -30,-3 -32,-6 -38,-52 -4,-27 -4,-67 0,-89 l 7,-41 363,0 364,0 0,90 c 0,79 -2,90 -17,90 -517,4 -654,4 -679,2 z"
       id="path3109"
       inkscape:connector-curvature="0" />
    <path
       d="m 11528,1103 -28,-4 0,-105 0,-104 890,0 890,0 0,104 0,104 -31,6 c -34,7 -1676,6 -1721,-1 z"
       id="path3111"
       inkscape:connector-curvature="0" />
    <path
       d="m 45319,1103 c -10,-2 -20,-14 -23,-26 -8,-29 -8,-117 0,-156 l 7,-31 628,0 629,0 0,104 0,104 -31,6 c -35,7 -1184,6 -1210,-1 z"
       id="path3113"
       inkscape:connector-curvature="0" />
    <path
       d="m 27410,320 0,-310 1714,0 1715,0 7,45 c 3,25 4,59 0,75 -3,17 -3,73 1,125 l 6,95 279,0 278,0 0,140 0,140 -2000,0 -2000,0 0,-310 z"
       id="path3115"
       inkscape:connector-curvature="0" />
  </g>
</svg>
