<?xml version="1.0" encoding="UTF-8" standalone="no"?>
<svg
   xmlns:dc="http://purl.org/dc/elements/1.1/"
   xmlns:cc="http://creativecommons.org/ns#"
   xmlns:rdf="http://www.w3.org/1999/02/22-rdf-syntax-ns#"
   xmlns:svg="http://www.w3.org/2000/svg"
   xmlns="http://www.w3.org/2000/svg"
   xmlns:sodipodi="http://sodipodi.sourceforge.net/DTD/sodipodi-0.dtd"
   xmlns:inkscape="http://www.inkscape.org/namespaces/inkscape"
   viewBox="-147 -70 992 588.14697"
   version="1.1"
   id="svg35"
   sodipodi:docname="Android_robot_2014.svg"
   inkscape:version="0.92.3 (2405546, 2018-03-11)"
   width="992"
   height="588.14697">
  <metadata
     id="metadata41">
    <rdf:RDF>
      <cc:Work
         rdf:about="">
        <dc:format>image/svg+xml</dc:format>
        <dc:type
           rdf:resource="http://purl.org/dc/dcmitype/StillImage" />
        <dc:title></dc:title>
      </cc:Work>
    </rdf:RDF>
  </metadata>
  <defs
     id="defs39" />
  <sodipodi:namedview
     pagecolor="#ffffff"
     bordercolor="#666666"
     borderopacity="1"
     objecttolerance="10"
     gridtolerance="10"
     guidetolerance="10"
     inkscape:pageopacity="0"
     inkscape:pageshadow="2"
     inkscape:window-width="1920"
     inkscape:window-height="1046"
     id="namedview37"
     showgrid="false"
     inkscape:zoom="0.68405797"
     inkscape:cx="948.0012"
     inkscape:cy="231.97511"
     inkscape:window-x="0"
     inkscape:window-y="34"
     inkscape:window-maximized="1"
     inkscape:current-layer="svg35"
     fit-margin-top="0"
     fit-margin-left="0"
     fit-margin-right="0"
     fit-margin-bottom="0" />
  <path
     style="fill:#ffffff;stroke:none;stroke-width:7.19999981;fill-opacity:1"
     d="m 292.37891,-69.991697 c -0.42048,0.03053 -0.8473,0.155257 -1.25782,0.382812 -1.45962,0.809084 -1.93994,2.483733 -1.13086,3.94336 l 14.39258,25.964844 c -27.6547,14.389651 -46.34128,41.7388468 -46.38086,73.123046 h 181.9961 C 439.95847,2.0381658 421.2719,-25.31103 393.61719,-39.700681 l 14.39258,-25.964844 c 0.80908,-1.459627 0.32876,-3.134275 -1.13086,-3.94336 -0.54736,-0.303406 -1.12502,-0.425652 -1.67579,-0.382812 -0.91794,0.0714 -1.7619,0.601405 -2.26757,1.513672 l -14.55274,26.253906 C 376.46532,-47.513654 363.10816,-50.478025 349,-50.478025 c -14.10816,0 -27.46532,2.964371 -39.38281,8.253906 l -14.55274,-26.253906 c -0.50567,-0.912267 -1.34963,-1.442273 -2.26758,-1.513672 -0.13769,-0.01071 -0.27781,-0.01018 -0.41796,0 z M 307,-15.077634 c 4.15472,0 7.59961,3.444886 7.59961,7.5996088 0,4.154723 -3.44489,7.599609 -7.59961,7.599609 -4.15472,0 -7.59961,-3.444886 -7.59961,-7.599609 0,-4.1547228 3.44489,-7.5996088 7.59961,-7.5996088 z m 84,0 c 4.15472,0 7.59961,3.444886 7.59961,7.5996088 0,4.154723 -3.44489,7.599609 -7.59961,7.599609 -4.15472,0 -7.59961,-3.444886 -7.59961,-7.599609 0,-4.1547228 3.44489,-7.5996088 7.59961,-7.5996088 z M 230,37.121585 c -11.36387,0 -20.40039,9.03652 -20.40039,20.40039 v 84.999995 c 0,11.36387 9.03652,20.40039 20.40039,20.40039 11.36387,0 20.40039,-9.03652 20.40039,-20.40039 V 57.521975 c 0,-11.36387 -9.03652,-20.40039 -20.40039,-20.40039 z m 238,0 c -11.36387,0 -20.40039,9.03652 -20.40039,20.40039 v 84.999995 c 0,11.36387 9.03652,20.40039 20.40039,20.40039 11.36387,0 20.40039,-9.03652 20.40039,-20.40039 V 57.521975 c 0,-11.36387 -9.03652,-20.40039 -20.40039,-20.40039 z m -210,3.5 V 172.52197 c 0,12.188 9.812,22 22,22 h 14.59961 v 45 c 0,11.36387 9.03652,20.40039 20.40039,20.40039 11.36387,0 20.40039,-9.03652 20.40039,-20.40039 v -45 h 27.19922 v 45 c 0,11.36387 9.03652,20.40039 20.40039,20.40039 11.36387,0 20.40039,-9.03652 20.40039,-20.40039 v -45 H 418 c 12.188,0 22,-9.812 22,-22 V 40.621585 Z M 649.88281,303.50635 c -12.23161,0 -22.15234,9.92057 -22.15234,22.32031 0,12.2316 9.92073,22.31836 22.15234,22.31836 12.25262,0 22.17188,-10.08676 22.17188,-22.31836 0,-12.39974 -9.91926,-22.32031 -22.17188,-22.32031 z m -335.52929,9.91992 v 59.49804 c -10.67639,-10.38215 -25.26136,-16.58203 -43.23047,-16.58203 -43.86144,0 -77.17188,36.1261 -77.17188,80.74414 0,44.80719 33.31044,80.91407 77.17188,80.91407 17.96911,0 32.55408,-6.05339 43.23047,-16.43555 v 13.32617 h 38.29296 V 313.42627 Z m 492.375,0 v 59.49804 c -10.6974,-10.38215 -25.26136,-16.09961 -43.23047,-16.09961 -43.86145,0 -77.19336,35.64368 -77.19336,80.26172 0,44.80719 33.33191,81.06055 77.19336,81.06055 17.96911,0 32.53307,-6.19987 43.23047,-16.58203 v 13.32617 H 845 V 313.42627 Z M -69.82812,356.8247 c -43.86145,0 -77.17188,35.64368 -77.17188,80.26172 0,44.80719 33.31043,80.91407 77.17188,80.91407 17.96911,0 32.53306,-6.05339 43.23046,-16.43555 v 13.32617 H 11.69531 V 359.91455 h -38.29297 v 13.00976 C -37.29506,362.54216 -51.85902,356.8247 -69.82812,356.8247 Z m 174.8164,0 c -41.06625,0 -72.99023,32.99609 -72.99023,74.23047 v 83.83594 h 38.26953 v -83.83594 c 0,-20.30194 14.27164,-35.8125 34.7207,-35.8125 20.30194,0 34.71875,15.51056 34.71875,35.8125 v 83.83594 h 38.27149 v -83.83594 c 0,-41.23438 -32.07111,-74.23047 -72.99024,-74.23047 z m 343.57813,0 c -49.2837,0 -75.61914,26.18717 -75.61914,75.30274 v 82.76367 h 38.27148 v -82.76367 c 0,-24.48422 12.86343,-37.49414 37.34766,-37.49414 z m 83.6875,0 c -44.61804,0 -80.89258,35.64368 -80.89258,80.26172 0,44.80719 36.27454,80.91407 80.89258,80.91407 44.80719,0 81.06054,-36.10688 81.06054,-80.91407 0,-44.61804 -36.25335,-80.26172 -81.06054,-80.26172 z m 98.39843,3.08985 v 154.97656 h 38.29297 V 359.91455 Z m -696.29687,33.16406 c 15.6573,0 31.31433,7.29273 37.97656,20.61719 0.46237,0.92473 1.07031,2.16548 1.07031,3.7207 v 39.04883 c 0,0.77761 -0.46209,2.47904 -0.77734,2.94141 -7.27171,13.32446 -22.14987,21.85742 -38.26953,21.85742 -23.5595,0 -42.62305,-19.69351 -42.62305,-44.17774 0,-24.02187 19.06355,-44.00781 42.62305,-44.00781 z m 340.94922,0 c 15.65729,0 30.53672,7.75509 37.97656,20.61719 0.46237,0.92473 1.07227,2.16548 1.07227,3.7207 v 39.2168 c 0,0.77761 -0.46163,2.31107 -0.75586,2.77344 -7.29273,13.32446 -22.17331,21.85742 -38.29297,21.85742 -23.55951,0 -42.6211,-19.69351 -42.6211,-44.17774 0,-24.02187 19.06159,-44.00781 42.6211,-44.00781 z m 492.375,0 c 15.6573,0 30.51718,7.75509 37.95703,20.61719 0.48338,0.92473 1.0918,2.16548 1.0918,3.7207 v 39.36328 c 0,0.77761 -0.4621,2.16459 -0.77735,2.62696 -7.27171,13.32446 -22.15182,21.85742 -38.27148,21.85742 -23.5595,0 -42.6211,-19.69351 -42.6211,-44.17774 0,-24.02187 19.0616,-44.00781 42.6211,-44.00781 z m -235.42578,1.87109 c 23.5595,0 42.32617,18.89247 42.32617,42.13672 0,23.41238 -18.76667,42.32813 -42.32617,42.32813 -23.24425,0 -42.13868,-18.91575 -42.13868,-42.32813 0,-23.24425 18.89443,-42.13672 42.13868,-42.13672 z"
     id="rect5236"
     inkscape:connector-curvature="0" />
</svg>
