<?xml version="1.0" encoding="UTF-8" standalone="no"?>
<svg
   xmlns:dc="http://purl.org/dc/elements/1.1/"
   xmlns:cc="http://creativecommons.org/ns#"
   xmlns:rdf="http://www.w3.org/1999/02/22-rdf-syntax-ns#"
   xmlns:svg="http://www.w3.org/2000/svg"
   xmlns="http://www.w3.org/2000/svg"
   version="1.1"
   viewBox="0 0 200.15844 200.15843"
   height="56.489159mm"
   width="56.489159mm">
  <g transform="translate(-27.09796,-27.287332)">
    <g
       style="fill:#000000;fill-opacity:1;">
      <path
         style="fill:#ff5722;fill-opacity:1"
         d="m 147.38098,137.23353 q 4.2287,0 7.04783,3.28899 2.81914,2.81913 2.81914,7.04783 0,4.2287 -2.81914,7.04783 -2.81913,2.81914 -7.04783,2.81914 l -40.87743,0 q -4.2287,0 -7.047836,-2.81914 -2.819133,-2.81913 -2.819133,-7.04783 0,-4.2287 2.819133,-7.04783 2.819136,-3.28899 7.047836,-3.28899 l 40.87743,0 z m -40.87743,-30.07076 q -4.2287,0 -7.047836,-2.81913 -2.819133,-2.81913 -2.819133,-7.047833 0,-4.2287 2.819133,-7.047833 2.819136,-2.819134 7.047836,-2.819134 l 26.31191,0 q 4.2287,0 7.04783,2.819134 2.81913,2.819133 2.81913,7.047833 0,4.228703 -2.81913,7.047833 -2.81913,2.81913 -7.04783,2.81913 l -26.31191,0 z m 60.61136,0 0,-19.73393 q 0,-12.216244 -8.92725,-21.143499 -8.92726,-8.927256 -21.1435,-8.927256 l -39.937724,0 q -12.216244,0 -21.143499,8.927256 -8.927256,8.927255 -8.927256,21.143499 l 0,70.00848 q 0,12.21624 8.927256,21.1435 8.927255,8.92725 21.143499,8.92725 l 60.141514,0 q 12.21624,0 21.1435,-8.92725 8.92725,-8.92726 8.92725,-21.1435 l 0,-30.07076 q 0,-4.2287 -2.81913,-7.04783 -2.81914,-2.81913 -7.04784,-2.81913 -4.2287,0 -7.51768,-2.81914 -2.81914,-3.28899 -2.81914,-7.51769 z m 40.40758,-79.87544 q 7.98754,0 13.62581,6.108122 6.10812,5.638267 6.10812,13.625811 l 0,160.690597 q 0,7.98754 -6.10812,14.09567 -5.63827,5.63826 -13.62581,5.63826 l -160.690597,0 q -7.987545,0 -14.095667,-5.63826 -5.638266,-6.10813 -5.638266,-14.09567 l 0,-160.690597 q 0,-7.987544 5.638266,-13.625811 6.108122,-6.108122 14.095667,-6.108122 l 160.690597,0 z" />
    </g>
    <path
       transform="translate(27.09796,27.287324)"
       d="m 65.761357,159.75754 c -9.336003,-1.19708 -18.475728,-8.04083 -22.832613,-17.09688 -2.830636,-5.88364 -2.64474,-2.55363 -2.64474,-47.376152 0,-37.957108 0.03311,-40.075082 0.66331,-42.426407 2.809199,-10.481389 11.197563,-18.814146 21.964107,-21.818507 2.797691,-0.780685 3.089685,-0.789368 26.870057,-0.799086 23.804382,-0.0097 24.072512,-0.002 27.171122,0.787567 8.35403,2.128599 15.95662,8.328453 19.8324,16.173172 2.72958,5.524766 2.75042,5.673938 2.98903,21.38998 l 0.21203,13.965359 0.91973,1.944544 c 1.76588,3.733534 4.04565,5.182466 9.21485,5.856604 3.88163,0.506218 5.52881,1.167218 7.20209,2.890137 2.57227,2.648585 2.46232,1.618302 2.46232,23.073059 0,19.22498 -0.002,19.27465 -0.82873,21.90786 -1.71194,5.45182 -4.438,9.73635 -8.76724,13.77939 -4.72738,4.41484 -9.89404,6.8985 -16.1652,7.77074 -3.36915,0.4686 -64.590665,0.44942 -68.262523,-0.0214 z m 58.668353,-30.30823 c 2.10695,-0.96046 3.63435,-2.39908 4.697,-4.42398 0.81414,-1.55135 0.95004,-2.2397 0.95065,-4.81531 7.1e-4,-3.47266 -0.57199,-4.88462 -2.99426,-7.38061 -2.92323,-3.01217 -1.43692,-2.85589 -27.244322,-2.86467 l -22.823162,-0.008 -1.821436,0.90766 c -3.31576,1.65232 -5.385654,4.8251 -5.662342,8.67938 -0.308758,4.30102 1.621978,7.82063 5.293876,9.65042 l 1.836349,0.91509 23.176715,-0.008 c 21.666172,-0.007 23.268892,-0.0498 24.590932,-0.65244 l 0,1e-5 z M 109.93402,79.060862 c 3.80787,-1.803303 5.64223,-4.747335 5.64223,-9.055421 0,-4.285934 -1.87947,-7.305806 -5.64223,-9.065754 l -1.76777,-0.826834 -15.404974,-0.0035 c -17.744838,-0.004 -17.722108,-0.0071 -20.524733,2.870201 -1.95392,2.006014 -2.784385,4.156199 -2.784385,7.20914 0,3.969223 2.653756,7.903665 6.174032,9.153578 1.152415,0.409178 4.423972,0.511514 16.983715,0.53126 l 15.556345,0.02447 1.76777,-0.837165 0,-7e-6 z"
       style="fill:#ffffff;fill-opacity:1" />
  </g>
</svg>
