<svg width="88" height="88" version="1.1" viewBox="1 1 88 88" xmlns="http://www.w3.org/2000/svg" xmlns:xlink="http://www.w3.org/1999/xlink"><defs><circle id="a" cx="96" cy="96" r="88"/></defs><clipPath><use width="100%" height="100%" overflow="visible" xlink:href="#a"/></clipPath><path transform="translate(1,1)" d="m44 0c-24.277 0-44 19.723-44 44s19.723 44 44 44 44-19.723 44-44-19.723-44-44-44zm0 4c14.823 0 27.736 8.0415 34.646 20h-34.646a2.0002 2.0002 0 0 0-0.23633 0.011719 20 20 0 0 0-19.6 17.631l-12.355-21.4c7.2809-9.8553 18.979-16.242 32.191-16.242zm-34.645 19.996 17.324 30.004a2.0003 2.0003 0 0 0 0.17578 0.25391 20 20 0 0 0 17.145 9.7461 20 20 0 0 0 7.8613-1.6152l-12.336 21.365c-20.004-2.2198-35.525-19.148-35.525-39.75 0-7.2934 1.9548-14.12 5.3555-20.004zm34.645 4.0039a16 16 0 0 1 16 16 16 16 0 0 1-16 16 16 16 0 0 1-16-16 16 16 0 0 1 16-16zm11.967 0h24.705c2.1371 4.8991 3.3281 10.307 3.3281 16 0 22.114-17.884 39.999-39.998 40l17.32-30a2.0002 2.0002 0 0 0 0.14648-0.30859 20 20 0 0 0 2.5312-9.6914 20 20 0 0 0-8.0332-16z" fill="#fff"/></svg>
