<?xml version="1.0" encoding="UTF-8" standalone="no"?>
<svg
   xmlns:dc="http://purl.org/dc/elements/1.1/"
   xmlns:cc="http://creativecommons.org/ns#"
   xmlns:rdf="http://www.w3.org/1999/02/22-rdf-syntax-ns#"
   xmlns:svg="http://www.w3.org/2000/svg"
   xmlns="http://www.w3.org/2000/svg"
   xmlns:sodipodi="http://sodipodi.sourceforge.net/DTD/sodipodi-0.dtd"
   xmlns:inkscape="http://www.inkscape.org/namespaces/inkscape"
   viewBox="0 0 826.50592 296.90625"
   height="296.90625"
   width="826.50592"
   xml:space="preserve"
   id="svg2"
   version="1.1"
   sodipodi:docname="GoogleFiberLogo.svg"
   inkscape:version="0.92.3 (2405546, 2018-03-11)"><sodipodi:namedview
     pagecolor="#ffffff"
     bordercolor="#666666"
     borderopacity="1"
     objecttolerance="10"
     gridtolerance="10"
     guidetolerance="10"
     inkscape:pageopacity="0"
     inkscape:pageshadow="2"
     inkscape:window-width="1920"
     inkscape:window-height="1046"
     id="namedview21"
     showgrid="false"
     fit-margin-top="0"
     fit-margin-left="0"
     fit-margin-right="0"
     fit-margin-bottom="0"
     inkscape:zoom="0.23038515"
     inkscape:cx="-1034.5194"
     inkscape:cy="115.543"
     inkscape:window-x="0"
     inkscape:window-y="34"
     inkscape:window-maximized="1"
     inkscape:current-layer="svg2" /><metadata
     id="metadata8"><rdf:RDF><cc:Work
         rdf:about=""><dc:format>image/svg+xml</dc:format><dc:type
           rdf:resource="http://purl.org/dc/dcmitype/StillImage" /><dc:title></dc:title></cc:Work></rdf:RDF></metadata><defs
     id="defs6"><clipPath
       id="clipPath14"
       clipPathUnits="userSpaceOnUse"><path
         id="path12"
         d="M 0,0 H 1712.35 V 315.5 H 0 Z"
         inkscape:connector-curvature="0" /></clipPath></defs><path
     style="fill:#ffffff;fill-opacity:1;fill-rule:nonzero;stroke:none;stroke-width:0.13333333"
     d="m 215.2539,0 c -7.2133,0 -13.3731,2.546333 -18.4531,7.625 -5.08,5.084 -7.627,11.232412 -7.627,18.455078 0,7.221334 2.547,13.379698 7.627,18.457031 5.08,5.085333 11.2398,7.623047 18.4531,7.623047 7.2267,0 13.3731,-2.537714 18.4531,-7.623047 5.08,-5.077333 7.627,-11.235697 7.627,-18.457031 C 241.334,18.857412 238.787,12.709 233.707,7.625 228.627,2.546333 222.4806,0 215.2539,0 Z M 0,3.208984 V 290.48828 H 36.9199 V 167.31055 h 117.961 V 132.80664 H 36.9199 V 38.517578 H 167.7207 V 3.208984 Z m 272.1465,0 V 290.48828 h 35.3066 v -27.2832 h 1.5996 c 6.4267,10.16934 15.5739,18.32478 27.4805,24.47265 11.9067,6.14946 25.0798,9.22852 39.5332,9.22852 25.9333,0 47.8671,-10.16193 65.7871,-30.49219 18.4667,-20.3224 27.6934,-45.06994 27.6934,-74.22461 0,-28.89066 -9.2267,-53.62584 -27.6934,-74.22851 -17.92,-20.32267 -39.8538,-30.49219 -65.7871,-30.49219 -14.4534,0 -27.6265,3.07919 -39.5332,9.22852 -11.9066,6.156 -21.0538,14.31061 -27.4805,24.4746 h -1.5996 l 1.5996,-27.2832 V 3.208984 Z M 587.0273,87.4668 c -28.36,0 -51.6277,9.96857 -69.8144,29.89257 -18.2,19.92934 -27.2793,44.87675 -27.2793,74.83008 0,30.228 9.3601,55.2357 28.0801,75.0293 18.72,19.79586 42.5323,29.6875 71.4257,29.6875 19.7866,0 37.5068,-4.68057 53.1602,-14.04297 15.64,-9.35893 27.8804,-22.3301 36.707,-38.91797 l -32.8925,-16.04883 c -13.3867,23.54 -31.8398,35.31055 -55.3731,35.31055 -17.12,0 -31.8415,-5.8823 -44.1348,-17.6543 -12.3067,-11.768 -18.7323,-27.28225 -19.2656,-46.54492 h 154.4805 l 0.3984,-4.01172 c 0,-33.96533 -8.6256,-60.38484 -25.8789,-79.24218 C 639.3872,96.89791 616.174,87.4668 587.0273,87.4668 Z m 212.1875,0.80468 c -11.2349,0 -22.6648,3.68218 -34.291,11.03516 -11.6401,7.35996 -19.3393,16.24885 -23.0703,26.68164 h -1.6074 V 93.88867 h -35.3125 v 196.59961 h 36.9199 V 182.1582 c 0,-14.97565 5.1408,-28.08683 15.4395,-39.32031 10.2986,-11.23488 22.4008,-16.84961 36.3046,-16.84961 9.8934,0 17.1185,0.94115 21.6739,2.80664 l 11.2344,-35.70898 c -7.4901,-3.20977 -16.5872,-4.81446 -27.2911,-4.81446 z M 196.793,93.88672 v 196.60156 h 36.914 V 93.88672 Z m 173.248,27.28515 c 17.6533,0 32.4932,6.68917 44.5332,20.0625 12.04,13.37734 18.0527,30.35908 18.0527,50.95508 0,20.86133 -6.0127,37.85241 -18.0527,50.95508 -12.04,13.37733 -26.8799,20.06055 -44.5332,20.06055 -17.92,0 -32.8936,-6.55286 -44.9336,-19.65821 -11.7734,-13.37465 -17.6543,-30.49609 -17.6543,-51.35742 0,-20.596 5.8809,-37.5777 17.6543,-50.95508 12.04,-13.37333 27.0136,-20.0625 44.9336,-20.0625 z m 216.1856,0 c 16.8534,0 30.2937,4.48079 40.3203,13.43946 10.0267,8.96666 15.5876,20.26296 16.6543,33.9043 H 530.4531 c 3.2134,-14.44401 9.8272,-25.94186 19.8672,-34.50586 10.0266,-8.55733 21.9997,-12.8379 35.9063,-12.8379 z"
     id="path30"
     inkscape:connector-curvature="0" /></svg>