<?xml version="1.0" encoding="UTF-8" standalone="no"?>
<svg
   xmlns:dc="http://purl.org/dc/elements/1.1/"
   xmlns:cc="http://creativecommons.org/ns#"
   xmlns:rdf="http://www.w3.org/1999/02/22-rdf-syntax-ns#"
   xmlns:svg="http://www.w3.org/2000/svg"
   xmlns="http://www.w3.org/2000/svg"
   xmlns:sodipodi="http://sodipodi.sourceforge.net/DTD/sodipodi-0.dtd"
   xmlns:inkscape="http://www.inkscape.org/namespaces/inkscape"
   id="svg9804"
   width="142"
   height="84.529297"
   viewBox="0 0 142 84.529295"
   version="1.1"
   sodipodi:docname="google+.svg"
   inkscape:version="0.92.3 (2405546, 2018-03-11)">
  <metadata
     id="metadata39">
    <rdf:RDF>
      <cc:Work
         rdf:about="">
        <dc:format>image/svg+xml</dc:format>
        <dc:type
           rdf:resource="http://purl.org/dc/dcmitype/StillImage" />
        <dc:title></dc:title>
      </cc:Work>
    </rdf:RDF>
  </metadata>
  <defs
     id="defs37" />
  <sodipodi:namedview
     pagecolor="#ffffff"
     bordercolor="#666666"
     borderopacity="1"
     objecttolerance="10"
     gridtolerance="10"
     guidetolerance="10"
     inkscape:pageopacity="0"
     inkscape:pageshadow="2"
     inkscape:window-width="1920"
     inkscape:window-height="1046"
     id="namedview35"
     showgrid="false"
     inkscape:zoom="2"
     inkscape:cx="52.483697"
     inkscape:cy="34.484397"
     inkscape:window-x="0"
     inkscape:window-y="34"
     inkscape:window-maximized="1"
     inkscape:current-layer="svg9804"
     fit-margin-top="0"
     fit-margin-left="0"
     fit-margin-right="0"
     fit-margin-bottom="0" />
  <path
     style="clip-rule:nonzero;fill:#ffffff;fill-opacity:1;fill-rule:nonzero;stroke:none;stroke-width:5.28055"
     d="M 42.429688,0 C 19.327281,0 0,18.936082 0,42.306641 c 0,23.288055 19.327281,42.222656 42.429688,42.222656 12.417545,0 21.803836,-4.104667 29.208984,-11.839844 7.570164,-7.590791 9.878906,-18.29534 9.878906,-27 0,-2.743409 -0.246749,-5.157747 -0.638672,-7.261719 H 42.429688 v 11.53125 h 27.291015 c -0.783834,6.456297 -2.929272,11.199656 -6.208984,14.5 -3.981044,4.042921 -10.190897,8.457032 -21.082031,8.457032 C 25.618559,72.916016 12.5,59.22138 12.5,42.224609 12.5,25.227839 25.618559,11.53125 42.429688,11.53125 c 9.075944,0 15.676056,3.608652 20.523437,8.291016 l 8.128906,-8.126954 C 64.233818,5.0739989 55.156636,0 42.429688,0 Z M 112.27539,16.934195 V 38.428336 H 91.05078 v 8.580078 h 21.22461 v 21.49414 h 8.5 V 47.008414 H 142 V 38.428336 H 120.77539 V 16.934195 Z"
     id="path9862"
     inkscape:connector-curvature="0"
     sodipodi:nodetypes="ssscscccccsssccsccccccccccccc" />
</svg>
