<?xml version="1.0" encoding="UTF-8" standalone="no"?>
<svg
   xmlns:dc="http://purl.org/dc/elements/1.1/"
   xmlns:cc="http://creativecommons.org/ns#"
   xmlns:rdf="http://www.w3.org/1999/02/22-rdf-syntax-ns#"
   xmlns:svg="http://www.w3.org/2000/svg"
   xmlns="http://www.w3.org/2000/svg"
   xmlns:sodipodi="http://sodipodi.sourceforge.net/DTD/sodipodi-0.dtd"
   xmlns:inkscape="http://www.inkscape.org/namespaces/inkscape"
   viewBox="0 0 269.64062 88.759766"
   width="269.64062"
   height="88.759766"
   version="1.1"
   id="svg14"
   sodipodi:docname="Google_2015_logo.svg"
   inkscape:version="0.92.3 (2405546, 2018-03-11)">
  <metadata
     id="metadata20">
    <rdf:RDF>
      <cc:Work
         rdf:about="">
        <dc:format>image/svg+xml</dc:format>
        <dc:type
           rdf:resource="http://purl.org/dc/dcmitype/StillImage" />
        <dc:title></dc:title>
      </cc:Work>
    </rdf:RDF>
  </metadata>
  <defs
     id="defs18" />
  <sodipodi:namedview
     pagecolor="#ffffff"
     bordercolor="#666666"
     borderopacity="1"
     objecttolerance="10"
     gridtolerance="10"
     guidetolerance="10"
     inkscape:pageopacity="0"
     inkscape:pageshadow="2"
     inkscape:window-width="1920"
     inkscape:window-height="1046"
     id="namedview16"
     showgrid="false"
     fit-margin-top="0"
     fit-margin-left="0"
     fit-margin-right="0"
     fit-margin-bottom="0"
     inkscape:zoom="1.9338235"
     inkscape:cx="49.283211"
     inkscape:cy="43.230469"
     inkscape:window-x="0"
     inkscape:window-y="34"
     inkscape:window-maximized="1"
     inkscape:current-layer="svg14" />
  <path
     d="M 34.941406,0 C 15.961406,0 0,15.459453 0,34.439453 c 0,18.98 15.961406,34.439453 34.941406,34.439453 10.24,0 17.969532,-3.360156 24.019531,-9.660156 6.22,-6.22 8.150391,-14.949765 8.150391,-22.009765 0,-2.1 -0.160703,-4.039688 -0.470703,-5.679688 H 34.929687 v 9.410156 l 22.490235,-0.0098 c -0.69,5.19 -2.439609,8.99039 -5.099609,11.65039 -3.28,3.28 -8.400625,6.888672 -17.390626,6.888672 -13.86,0 -24.699218,-11.169297 -24.699218,-25.029297 0,-13.86 10.839219,-25.0292967 24.699218,-25.0292967 7.48,0 12.940704,2.9387497 16.970704,6.7187497 l 6.640625,-6.6386716 c -5.62,-5.37 -13.09961,-9.4902344 -23.59961,-9.4902344 z M 215.14062,2.5292969 V 67.529297 h 9.5 V 2.5292969 Z m 34.50977,21.9902341 c -11.43,0 -20.91993,8.989688 -20.91993,22.179688 0,12.44 9.40978,22.179687 22.00978,22.179687 10.15999,0 16.04046,-6.220078 18.48046,-9.830078 l -7.56054,-5.039062 c -2.52,3.7 -5.95992,6.138672 -10.91992,6.138672 -4.95,0 -8.48,-2.26875 -10.75,-6.71875 l 29.65038,-12.28125 -1.00977,-2.519532 c -1.83999,-4.95 -7.47046,-14.109375 -18.98046,-14.109375 z m -156.509765,0.0098 c -12.26,0 -22.25,9.319688 -22.25,22.179688 0,12.77 9.99,22.179687 22.25,22.179687 12.260005,0 22.250005,-9.409687 22.250005,-22.179687 0,-12.86 -9.99,-22.179688 -22.250005,-22.179688 z m 47.999995,0 c -12.26,0 -22.24999,9.329687 -22.24999,22.179688 0,12.77 9.98999,22.179687 22.24999,22.179687 12.26,0 22.25,-9.409687 22.25,-22.179687 0,-12.86 -9.99,-22.179688 -22.25,-22.179688 z m 46.98047,0 c -11.09,0 -21.25,9.739766 -21.25,22.259766 0,12.43 10.16,22.089843 21.25,22.089843 5.3,0 9.49969,-2.349062 11.67969,-5.039062 h 0.33984 v 3.189453 c 0,8.49 -4.52984,13 -11.83984,13 -5.96,0 -9.65993,-4.259141 -11.16993,-7.869141 l -8.48046,3.529297 c 2.44,5.88 8.91015,13.070313 19.66015,13.070313 11.42,0 21.08008,-6.690313 21.08008,-23.070313 V 25.878906 h -9.25 v 3.611329 h -0.33984 c -2.19,-2.61 -6.38969,-4.960938 -11.67969,-4.960938 z m 61.85937,8.570312 c 3.86,0 7.14047,1.929219 8.23047,4.699219 l -19.82031,8.230469 c -0.25,-8.56 6.63984,-12.929688 11.58984,-12.929688 z M 93.140625,33.269531 c 6.72,0 12.509775,5.459454 12.509775,13.439454 0,7.89 -5.789775,13.439453 -12.509775,13.439453 -6.72,0 -12.509766,-5.539454 -12.509766,-13.439453 0,-7.98 5.789766,-13.439454 12.509766,-13.439454 z m 47.999995,0 c 6.72,0 12.50977,5.459454 12.50977,13.439454 0,7.89 -5.78977,13.439453 -12.50977,13.439453 -6.72,0 -12.50977,-5.539454 -12.50977,-13.439453 0,-7.98 5.78977,-13.439454 12.50977,-13.439454 z m 47.84961,0 c 6.63,0 11.83984,5.709532 11.83984,13.519532 0,7.73 -5.20984,13.359375 -11.83984,13.359375 -6.72,0 -12.34961,-5.629375 -12.34961,-13.359375 0,-7.81 5.62961,-13.519532 12.34961,-13.519532 z"
     id="path2"
     inkscape:connector-curvature="0"
     style="stroke:none;fill:#ffffff;fill-opacity:1" />
</svg>
