<?xml version="1.0" encoding="UTF-8" standalone="no"?>
<svg xmlns:dc="http://purl.org/dc/elements/1.1/" xmlns:cc="http://creativecommons.org/ns#" xmlns:rdf="http://www.w3.org/1999/02/22-rdf-syntax-ns#" xmlns:svg="http://www.w3.org/2000/svg" xmlns="http://www.w3.org/2000/svg" version="1.1" id="svg3363" viewBox="0 0 500.00001 126.19953" height="126.19952" width="500">
    <defs id="defs3365"/>
    <metadata id="metadata3368">
        <rdf:RDF>
            <cc:Work rdf:about="">
                <dc:format>image/svg+xml</dc:format>
                <dc:type rdf:resource="http://purl.org/dc/dcmitype/StillImage"/>
                <dc:title/>
            </cc:Work>
        </rdf:RDF>
    </metadata>
    <g transform="translate(-29.048715,-393.1929)" id="layer1">
        <g class="st0" id="XMLID_54_" transform="matrix(0.84037876,0,0,0.84037876,29.120071,393.34829)">
            <g id="XMLID_55_">
                <path style="fill:#737373;fill-opacity:1" d="m 110.4,43.1 c -4.6,-4.7 -9.6,-8.3 -14.9,-10.8 -5.3,-2.5 -12,-3.7 -19.7,-3.7 -6.2,0 -12.1,1.1 -17.6,3.3 -5.5,2.2 -10.3,5.3 -14.4,9.3 -4.2,4 -7.5,8.9 -9.9,14.6 -2.4,5.7 -3.6,12 -3.6,19 0,7 1.2,13.3 3.6,19 2.4,5.7 5.7,10.5 9.9,14.5 4.2,4 9.1,7.2 14.6,9.4 5.5,2.2 11.5,3.3 17.8,3.3 6.7,0 12.6,-0.9 17.6,-2.8 5,-1.9 9.3,-4.5 12.9,-7.7 2.4,-2.2 4.6,-4.9 6.5,-8.1 1.9,-3.3 3.4,-6.9 4.5,-10.9 l -42.3,0 0,-24 69,0 c 0.4,1.6 0.7,3.5 1,5.9 0.3,2.4 0.4,4.6 0.4,6.9 0,9.5 -1.4,18.1 -4.2,26 -2.8,7.9 -7.1,14.8 -12.7,20.9 -6.3,6.7 -13.8,11.8 -22.6,15.5 -8.8,3.7 -18.9,5.5 -30.2,5.5 -10.2,0 -19.8,-1.8 -28.8,-5.5 -9,-3.7 -16.9,-8.8 -23.7,-15.3 -6.7,-6.5 -12,-14.2 -16,-23.1 -4,-8.9 -5.9,-18.8 -5.9,-29.4 0,-10.6 2,-20.4 5.9,-29.4 3.9,-9 9.2,-16.7 16,-23.2 C 30.3,15.8 38.2,10.8 47.3,7.1 56.4,3.4 66,1.6 76.1,1.6 c 11.6,0 21.9,2 30.8,6 8.9,4 16.6,9.5 23.1,16.5 l -19.6,19 z" id="XMLID_69_"/>
                <g id="XMLID_56_">
                    <path style="fill:#737373;fill-opacity:1" d="m 287.7,107.5 c 0,12.3 -4.5,22.2 -13.5,29.7 -9.1,7.3 -20.2,11 -33.3,11 -11.6,0 -21.9,-3.4 -30.8,-10.2 -8.9,-6.8 -15,-16.1 -18.4,-27.8 l 17.2,-7.1 c 1.2,4.2 2.8,8 4.9,11.4 2.1,3.4 4.5,6.3 7.3,8.7 2.8,2.4 5.9,4.3 9.3,5.7 3.4,1.4 7,2.1 10.8,2.1 8.2,0 15,-2.1 20.2,-6.4 5.2,-4.2 7.8,-9.9 7.8,-16.9 0,-5.9 -2.2,-10.9 -6.5,-15.1 -4,-4 -11.6,-8 -22.7,-11.8 -11.2,-4 -18.2,-6.8 -21,-8.2 -14.9,-7.6 -22.3,-18.7 -22.3,-33.5 0,-10.3 4.1,-19.1 12.3,-26.4 8.4,-7.3 18.6,-11 30.8,-11 10.7,0 20,2.7 27.8,8.2 7.8,5.4 13.1,12.1 15.7,20.2 L 266.6,37 c -1.6,-5.2 -4.7,-9.6 -9.3,-13 -4.6,-3.5 -10.3,-5.2 -16.9,-5.2 -7.1,0 -13,2 -17.8,5.9 -4.8,3.6 -7.2,8.4 -7.2,14.2 0,4.8 1.9,9 5.7,12.5 4.2,3.5 13.3,7.7 27.2,12.5 14.2,4.8 24.4,10.8 30.5,17.8 5.9,7 8.9,15.6 8.9,25.8 z" id="XMLID_67_"/>
                    <path style="fill:#737373;fill-opacity:1" d="m 387.6,145 -17.2,0 0,-13.3 -0.8,0 c -2.7,4.7 -7,8.6 -12.6,11.8 -5.7,3.1 -11.6,4.7 -17.7,4.7 -11.8,0 -20.8,-3.4 -27.1,-10.1 -6.3,-6.7 -9.5,-16.3 -9.5,-28.7 l 0,-60.4 18,0 0,59.2 c 0.4,15.7 8.3,23.5 23.7,23.5 7.2,0 13.2,-2.9 18,-8.7 4.8,-5.8 7.2,-12.8 7.2,-20.9 l 0,-53.1 18,0 0,96 z" id="XMLID_65_"/>
                    <path style="fill:#737373;fill-opacity:1" d="m 428.7,15.9 c 0,3.5 -1.2,6.5 -3.7,9 -2.5,2.5 -5.5,3.7 -9,3.7 -3.5,0 -6.5,-1.2 -9,-3.7 -2.5,-2.5 -3.7,-5.5 -3.7,-9 0,-3.5 1.2,-6.5 3.7,-9 2.5,-2.5 5.5,-3.7 9,-3.7 3.5,0 6.5,1.2 9,3.7 2.5,2.5 3.7,5.5 3.7,9 z M 425,49 l 0,96 -18,0 0,-96 18,0 z" id="XMLID_62_"/>
                    <path style="fill:#737373;fill-opacity:1" d="m 480.3,146.6 c -7.8,0 -14.3,-2.4 -19.5,-7.2 -5.2,-4.8 -7.8,-11.6 -7.9,-20.2 l 0,-53.7 -16.9,0 0,-16.5 16.8,0 0,-29.4 18,0 0,29.4 23.5,0 0,16.5 -23.5,0 0,47.8 c 0,6.4 1.2,10.7 3.7,13 2.5,2.3 5.3,3.4 8.4,3.4 1.4,0 2.8,-0.2 4.2,-0.5 1.4,-0.3 2.6,-0.8 3.8,-1.3 l 5.7,16.1 c -4.5,1.7 -10,2.6 -16.3,2.6 z" id="XMLID_60_"/>
                    <path style="fill:#737373;fill-opacity:1" d="m 547.7,148.1 c -14.1,0 -25.7,-4.8 -34.9,-14.5 -9.1,-9.7 -13.7,-21.9 -13.7,-36.6 0,-14.6 4.4,-26.8 13.3,-36.5 8.9,-9.7 20.2,-14.6 34.1,-14.6 14.2,0 25.6,4.6 34,13.8 8.4,9.2 12.6,22.1 12.6,38.7 l -0.2,2 -75.4,0 c 0.3,9.4 3.4,17 9.4,22.7 6,5.7 13.2,8.6 21.6,8.6 11.5,0 20.5,-5.7 27,-17.2 l 16.1,7.8 c -4.3,8.1 -10.3,14.4 -17.9,19 -7.7,4.5 -16.4,6.8 -26,6.8 z m -28.8,-62.7 55.1,0 c -0.5,-6.7 -3.2,-12.2 -8.1,-16.6 -4.9,-4.4 -11.5,-6.6 -19.7,-6.6 -6.8,0 -12.6,2.1 -17.5,6.3 -5,4.3 -8.2,9.9 -9.8,16.9 z" id="XMLID_57_"/>
                </g>
            </g>
        </g>
    </g>
</svg>