<?xml version="1.0" encoding="UTF-8" standalone="no"?>
<svg
   xmlns:dc="http://purl.org/dc/elements/1.1/"
   xmlns:cc="http://creativecommons.org/ns#"
   xmlns:rdf="http://www.w3.org/1999/02/22-rdf-syntax-ns#"
   xmlns:svg="http://www.w3.org/2000/svg"
   xmlns="http://www.w3.org/2000/svg"
   xmlns:sodipodi="http://sodipodi.sourceforge.net/DTD/sodipodi-0.dtd"
   xmlns:inkscape="http://www.inkscape.org/namespaces/inkscape"
   viewBox="0 0 41.519086 41.519086"
   version="1.1"
   width="273.33398"
   height="273.33398"
   id="svg76"
   sodipodi:docname="GoogleMaps.svg"
   inkscape:version="0.92.3 (2405546, 2018-03-11)">
  <metadata
     id="metadata82">
    <rdf:RDF>
      <cc:Work
         rdf:about="">
        <dc:format>image/svg+xml</dc:format>
        <dc:type
           rdf:resource="http://purl.org/dc/dcmitype/StillImage" />
        <dc:title></dc:title>
      </cc:Work>
    </rdf:RDF>
  </metadata>
  <defs
     id="defs80" />
  <sodipodi:namedview
     pagecolor="#ffffff"
     bordercolor="#666666"
     borderopacity="1"
     objecttolerance="10"
     gridtolerance="10"
     guidetolerance="10"
     inkscape:pageopacity="0"
     inkscape:pageshadow="2"
     inkscape:window-width="1920"
     inkscape:window-height="1046"
     id="namedview78"
     showgrid="false"
     inkscape:zoom="2.1123696"
     inkscape:cx="160.23359"
     inkscape:cy="164.5798"
     inkscape:window-x="0"
     inkscape:window-y="34"
     inkscape:window-maximized="1"
     inkscape:current-layer="svg76"
     fit-margin-top="0"
     fit-margin-left="0"
     fit-margin-right="0"
     fit-margin-bottom="0" />
  <path
     style="fill:#ffffff;fill-opacity:1;stroke-width:1"
     d="M 29.999999,0 C 25.851349,0 22.203447,2.2133728 20.17494,5.5190861 H 2.9999999 C 1.3437499,5.5190861 0,6.862836 0,8.519086 V 38.272844 L 20.505438,17.767405 c 0.709023,1.104227 1.527729,2.144623 2.326246,3.194026 0.139296,0.183061 0.27783,0.370255 0.416831,0.55538 l -2.002274,2.002275 6.200555,6.200553 c 0.149957,0.596447 0.2798,1.223694 0.38479,1.888054 a 1.5191392,1.5191392 0 0 0 6.07e-4,0.0041 c 0.0469,0.291475 0.03303,0.614693 0.266713,1.173656 0.116839,0.27948 0.34675,0.647146 0.723298,0.904271 0.376551,0.257127 0.824653,0.3483 1.177809,0.3483 0.353155,0 0.801258,-0.09117 1.177809,-0.3483 0.04779,-0.03264 0.09304,-0.06715 0.136174,-0.102946 l 4.686003,4.686023 v -15.73601 c 0.384036,-0.539074 0.776347,-1.060237 1.168315,-1.575356 2.103989,-2.765039 4.35077,-5.466478 4.35077,-9.442345 C 41.519084,5.174905 36.34418,0 29.999999,0 Z m 0,3.0379747 c 4.702694,0 8.481111,3.778418 8.481111,8.4811113 0,2.836633 -1.585411,4.783706 -3.730419,7.60265 -1.664893,2.187984 -3.564524,4.847776 -4.750692,8.547568 -1.186168,-3.699792 -3.085798,-6.359584 -4.750692,-8.547568 -2.145007,-2.818944 -3.730418,-4.766017 -3.730418,-7.60265 0,-4.7026933 3.778417,-8.4811113 8.48111,-8.4811113 z M 8.4920884,7.5189872 c 1.4296875,0 2.7265626,0.543216 3.7031256,1.4338409 L 10.648338,10.499703 C 10.070213,10.003609 9.3163061,9.6986746 8.4920884,9.6986746 c -1.8320319,0 -3.3162578,1.4844744 -3.3162578,3.3204114 0,1.832031 1.4842259,3.316258 3.3162578,3.316258 1.5390626,0 2.6016116,-0.910108 2.9961436,-2.183545 H 8.4920884 v -2.101364 l 5.1835446,0.0077 c 0.453124,2.144531 -0.371045,6.461036 -5.1835446,6.461036 -3.0390627,0 -5.4998021,-2.464943 -5.4998021,-5.500098 0,-3.0351559 2.4607394,-5.500099 5.4998021,-5.5000988 z M 29.999999,8.0191849 c -1.933593,0 -3.499902,1.566307 -3.499902,3.4999011 0,1.933594 1.566309,3.499902 3.499902,3.499902 1.933594,0 3.499902,-1.566308 3.499902,-3.499902 0,-1.9335941 -1.566308,-3.4999011 -3.499902,-3.4999011 z M 18,26.765327 3.246242,41.519085 h 29.507516 z"
     id="path59"
     inkscape:connector-curvature="0" />
</svg>
