<?xml version="1.0" encoding="UTF-8" standalone="no"?>
<svg
   xmlns:dc="http://purl.org/dc/elements/1.1/"
   xmlns:cc="http://creativecommons.org/ns#"
   xmlns:rdf="http://www.w3.org/1999/02/22-rdf-syntax-ns#"
   xmlns:svg="http://www.w3.org/2000/svg"
   xmlns="http://www.w3.org/2000/svg"
   xmlns:sodipodi="http://sodipodi.sourceforge.net/DTD/sodipodi-0.dtd"
   xmlns:inkscape="http://www.inkscape.org/namespaces/inkscape"
   xml:space="preserve"
   id="svg2"
   height="110.98125"
   width="245.42999"
   version="1.1"
   sodipodi:docname="nest.svg"
   inkscape:version="0.92.3 (2405546, 2018-03-11)"><metadata
     id="metadata14"><rdf:RDF><cc:Work
         rdf:about=""><dc:format>image/svg+xml</dc:format><dc:type
           rdf:resource="http://purl.org/dc/dcmitype/StillImage" /><dc:title></dc:title></cc:Work></rdf:RDF></metadata><defs
     id="defs12" /><sodipodi:namedview
     pagecolor="#ffffff"
     bordercolor="#666666"
     borderopacity="1"
     objecttolerance="10"
     gridtolerance="10"
     guidetolerance="10"
     inkscape:pageopacity="0"
     inkscape:pageshadow="2"
     inkscape:window-width="1920"
     inkscape:window-height="1046"
     id="namedview10"
     showgrid="false"
     fit-margin-top="0"
     fit-margin-left="0"
     fit-margin-right="0"
     fit-margin-bottom="0"
     inkscape:zoom="2.036865"
     inkscape:cx="47.131253"
     inkscape:cy="55.490259"
     inkscape:window-x="0"
     inkscape:window-y="34"
     inkscape:window-maximized="1"
     inkscape:current-layer="svg2" /><path
     style="fill:#ffffff;fill-opacity:1;fill-rule:nonzero;stroke:none;stroke-width:1.25"
     id="path26"
     d="m 183.40625,74.61625 c 4.7275,2.025 7.55125,5.83125 7.55125,10.1725 0,5.7475 -4.4175,9.1725 -11.83,9.1725 -7.86375,0 -11.515,-6.92125 -12.45,-9.03875 l -1.15,-2.61875 H 150.80125 L 150.77745,82.285 H 137.13 c -3.7225,6.215 -11.23,11.94875 -19.955,11.94875 -15.75,0 -23.60875,-12.30875 -24.6175,-24.46 h 64.375 v -2.66 c 0,-5.0375 -0.525,-9.77625 -1.50375,-14.1825 1.8425,5.65125 6.04375,11.5075 14.84875,15.65125 3.215,1.535 8.06875,3.82125 13.12875,6.03375 M 116.24875,36.0025 c 13.175,0 19.63125,9.09125 21.5,18.345 h -43.8475 c 2.29125,-9.2725 10.415,-18.345 22.3475,-18.345 M 245.43,36.27 V 19.65 H 231.745 V 0 h -16.7975 v 19.65 h -33.84125 c -15.63,0.0087 -26.9725,10.51625 -26.9725,25 0,1.55 0.14,3.22875 0.4525,4.9725 C 149.2625,31.17125 135.225,19.65 116.37625,19.65 93.3175,19.65 75.695,37.6 74.215,61.92 V 56.75375 C 74.215,36.28875 57.56625,19.65 37.10625,19.65 16.6475,19.65 0,36.28875 0,56.75375 v 53.1925 h 17.00625 v -53.1925 c 0,-11.0775 9.015,-20.1 20.1,-20.1 11.0825,0 20.1025,9.0225 20.1025,20.1 v 53.1925 H 74.215 v -41.3875 c 1.48875,24.41 19.34,42.42251 42.69625,42.42251 14.26,0 26.835,-8.28125 33.95875,-17.87001 5.31625,11.36001 15.70125,17.87 28.525,17.87 14.87,0 29.92,-9.49625 29.92,-27.65 0,-10.87 -6.31375,-19.75125 -17.775,-25.01875 -1.46625,-0.6675 -2.64875,-1.22875 -3.7825,-1.76625 l -0.155,-0.07875 c -1.28,-0.605 -2.5225,-1.1875 -4.055,-1.885 C 176.0575,51.22 172.49,48.75375 172.49,43.845 c 0,-4.32125 3.86125,-7.575 8.6375,-7.575 h 33.82 v 47.37375 c 0,15.08 12.2625,27.3375 27.3375,27.3375 V 94.185 c -5.8125,0 -10.54,-4.73125 -10.54,-10.54125 V 36.27 c 6.72,0.0087 11.9,0 13.685,0"
     inkscape:connector-curvature="0" /></svg>