<?xml version="1.0" encoding="UTF-8" standalone="no"?>
<svg
   xmlns:dc="http://purl.org/dc/elements/1.1/"
   xmlns:cc="http://creativecommons.org/ns#"
   xmlns:rdf="http://www.w3.org/1999/02/22-rdf-syntax-ns#"
   xmlns:svg="http://www.w3.org/2000/svg"
   xmlns="http://www.w3.org/2000/svg"
   xmlns:sodipodi="http://sodipodi.sourceforge.net/DTD/sodipodi-0.dtd"
   xmlns:inkscape="http://www.inkscape.org/namespaces/inkscape"
   width="170.33641"
   height="143.12282"
   viewBox="0 0 170.33641 143.12282"
   version="1.1"
   id="svg21"
   sodipodi:docname="stadia.svg"
   inkscape:version="0.92.3 (2405546, 2018-03-11)">
  <metadata
     id="metadata25">
    <rdf:RDF>
      <cc:Work
         rdf:about="">
        <dc:format>image/svg+xml</dc:format>
        <dc:type
           rdf:resource="http://purl.org/dc/dcmitype/StillImage" />
        <dc:title></dc:title>
      </cc:Work>
    </rdf:RDF>
  </metadata>
  <sodipodi:namedview
     pagecolor="#ffffff"
     bordercolor="#666666"
     borderopacity="1"
     objecttolerance="10"
     gridtolerance="10"
     guidetolerance="10"
     inkscape:pageopacity="0"
     inkscape:pageshadow="2"
     inkscape:window-width="1920"
     inkscape:window-height="1046"
     id="namedview23"
     showgrid="false"
     fit-margin-top="0"
     fit-margin-left="0"
     fit-margin-right="0"
     fit-margin-bottom="0"
     inkscape:zoom="2.085965"
     inkscape:cx="85.377673"
     inkscape:cy="31.079386"
     inkscape:window-x="0"
     inkscape:window-y="34"
     inkscape:window-maximized="1"
     inkscape:current-layer="svg21" />
  <defs
     id="defs17">
    <linearGradient
       x1="0"
       y1="0.27777779"
       x2="1"
       y2="0.72222221"
       id="linearGradient-1">
      <stop
         stop-color="#FF4C1D"
         offset="0%"
         id="stop12" />
      <stop
         stop-color="#9B0063"
         offset="100%"
         id="stop14" />
    </linearGradient>
  </defs>
  <g
     id="g13831"
     style="fill:#ffffff;fill-opacity:1"
     transform="translate(25.168206)">
    <g
       id="stadia-logo-mark"
       style="fill:#ffffff;fill-opacity:1;fill-rule:evenodd;stroke:none;stroke-width:1">
      <path
         id="Fill-1"
         d="M 1.0085714,23.341386 C 0.36285714,23.803281 0.00285714,24.53604 0,25.290184 v 0 0.02994 c 0.00285714,0.31791 0.06857143,0.640096 0.20428571,0.9466 v 0 L 11.69,52.288239 c 0.508571,1.153312 1.821429,1.717851 3.011429,1.295872 v 0 c 7.52,-2.681557 33.561428,-11.165316 50.414285,-6.589133 v 0 c 0,0 -16.905714,0.977963 -32.192857,12.965852 v 0 c -0.861428,0.677161 -1.148571,1.854709 -0.707143,2.855481 v 0 c 1.241429,2.80416 3.732857,8.440991 5.142857,11.627212 v 0 l 1.98,4.644612 C 39.81,80.190126 41.315714,80.322707 41.98,79.324785 v 0 c 3.567143,-5.371669 9.581429,-8.054652 15.358571,-10.396917 v 0 c 5.918572,-2.397863 12.094286,-4.186994 18.394286,-5.251919 v 0 C 82.445714,62.54117 89.3,62.237517 96.084286,62.837695 v 0 c 1.13,0.09979 2.178571,-0.59305 2.515714,-1.673657 v 0 l 5.18857,-16.582605 c 0.30572,-0.980814 -0.0457,-2.052867 -0.88,-2.655897 v 0 C 97.122857,37.734266 74.204286,23.656444 33.901429,29.311808 v 0 c 0,0 34.391428,-19.755996 78.052861,1.945947 v 0 c 1.32285,0.658628 2.92,-0.03279 3.36142,-1.438433 v 0 L 119.89,15.195494 c 0.0714,-0.22667 0.10571,-0.456192 0.11,-0.682863 v 0 -0.06985 c -0.0129,-0.832552 -0.45857,-1.622336 -1.21571,-2.051442 v 0 C 113.30429,9.29065 94.751429,2.7922232e-7 69.23,2.7922232e-7 v 0 C 49.668571,-0.00142532 26.015714,5.45578 1.0085714,23.341386"
         style="fill:#ffffff;fill-opacity:1"
         inkscape:connector-curvature="0" />
    </g>
    <g
       id="logo-stadia-wordmark"
       style="fill:#ffffff;fill-opacity:1;fill-rule:evenodd;stroke:none;stroke-width:1"
       transform="matrix(1.8718287,0,0,1.8718287,-25.168206,103.81442)">
      <path
         id="Shape"
         d="m 25.766257,20.98006 h -2.213384 c -0.167183,0 -0.327519,-0.06653 -0.445735,-0.184941 -0.118216,-0.118416 -0.18463,-0.279023 -0.18463,-0.446488 V 7.5244405 h -5.42208 c -0.347029,-0.00157 -0.627524,-0.28381 -0.62752,-0.6314295 V 4.9066194 c 0,-0.3487289 0.282223,-0.6314295 0.630364,-0.6314295 H 31.81965 c 0.34814,0 0.630364,0.2827006 0.630364,0.6314295 V 6.893011 c 0,0.3487289 -0.282224,0.6314295 -0.630364,0.6314295 H 26.396621 V 20.348631 c 0,0.167465 -0.06641,0.328072 -0.184629,0.446488 -0.118216,0.118416 -0.278552,0.184941 -0.445735,0.184941 z M 15.418804,19.767526 c 0.811417,-0.812788 1.143187,-1.846813 1.143187,-3.56734 v -0.437727 c 0,-1.722426 -0.33177,-2.753602 -1.143187,-3.568289 -0.85976,-0.862162 -1.999155,-1.213484 -3.929112,-1.213484 H 4.4817476 c -0.2787188,0 -0.5460082,-0.110972 -0.7430033,-0.308479 C 3.5417492,10.474701 3.4312049,10.20686 3.4314565,9.9276706 V 8.5765065 c 0,-0.58104 0.4702313,-1.052066 1.0502911,-1.052066 H 14.514492 c 0.348141,0 0.630365,-0.2827006 0.630365,-0.6314295 V 4.9066194 c 0,-0.3487289 -0.282224,-0.6314295 -0.630365,-0.6314295 H 5.0722994 c -1.9309052,0 -3.0693526,0.3513217 -3.9300604,1.213484 C 0.33082274,6.3014613 0,7.3354864 0,9.0560131 v 0.3456245 c 0,1.7252744 0.33082274,2.7555014 1.142239,3.5682884 0.8607078,0.862163 1.9991552,1.213484 3.9300604,1.213484 h 7.0335376 c 0.580214,0 1.050716,0.470873 1.051239,1.052066 v 1.442318 c 0,0.581564 -0.470655,1.053015 -1.051239,1.053015 H 1.5394158 c -0.3481405,0 -0.63036421,0.282701 -0.63036421,0.63143 v 1.986392 c 0,0.167465 0.0664132,0.328072 0.18462941,0.446488 0.1182162,0.118416 0.2785518,0.184941 0.4457348,0.184941 h 9.9531202 c 1.928061,0 3.066508,-0.351322 3.926268,-1.212534 z m 50.082203,-7.185953 v 0.114892 c 0,3.218866 -0.509032,4.869128 -1.94702,6.309547 C 62.226904,20.335337 60.251447,21 57.669323,21 H 50.032911 C 49.68477,21 49.402546,20.717299 49.402546,20.36857 V 4.9066194 c 0,-0.3487289 0.282224,-0.6314295 0.630365,-0.6314295 h 7.639256 c 2.582124,0 4.561372,0.6722588 5.884663,1.9939878 1.437989,1.4394693 1.944177,3.0944792 1.944177,6.3123953 z m -3.473165,0 c 0,-2.142112 -0.135552,-3.1723392 -0.974458,-4.0126627 -0.686291,-0.687451 -1.79251,-1.0207318 -3.384061,-1.0207318 H 52.876659 V 17.730809 h 4.795508 c 1.591551,0 2.698717,-0.33423 3.384061,-1.021681 0.838905,-0.839374 0.974457,-1.87055 0.974457,-4.012663 z m 9.107578,7.767058 V 4.9066194 c 0,-0.3487289 -0.282224,-0.6314295 -0.630364,-0.6314295 h -2.210541 c -0.34814,0 -0.630364,0.2827006 -0.630364,0.6314295 V 20.348631 c 0,0.348728 0.282224,0.631429 0.630364,0.631429 H 70.5079 c 0.167183,0 0.327518,-0.06653 0.445735,-0.184941 0.118216,-0.118416 0.184629,-0.279023 0.184629,-0.446488 z M 47.36737,20.98006 h -2.341352 c -0.328481,-2.91e-4 -0.626784,-0.191958 -0.764021,-0.490901 l -1.076833,-2.335814 h -8.689547 l -1.078729,2.336764 c -0.136555,0.296658 -0.432213,0.487309 -0.758333,0.489002 h -2.352728 c -0.216806,1.95e-4 -0.4185,-0.111228 -0.534012,-0.295011 -0.115513,-0.183782 -0.128633,-0.41413 -0.03474,-0.60988 L 36.846449,5.2465468 c 0.371476,-0.7620177 1.144038,-1.2453304 1.990624,-1.2453304 0.846586,0 1.619147,0.4833127 1.990624,1.2453304 l 7.109371,14.8257742 c 0.09508,0.195699 0.08284,0.42665 -0.03238,0.611168 -0.115225,0.184517 -0.317194,0.296587 -0.53447,0.296571 z M 35.914647,15.060765 h 5.855278 L 38.848448,8.3866029 Z m 54.453992,5.919295 h -2.346092 c -0.32855,-5.4e-5 -0.626971,-0.191796 -0.764021,-0.490901 l -1.074937,-2.335814 h -8.689547 l -1.077781,2.336764 c -0.137105,0.29618 -0.432421,0.48661 -0.758333,0.489002 H 73.3052 c -0.216807,1.95e-4 -0.4185,-0.111228 -0.534012,-0.295011 -0.115513,-0.183782 -0.128633,-0.41413 -0.03474,-0.60988 L 79.845822,5.2465468 C 80.216779,4.483898 80.989521,4 81.836446,4 82.68337,4 83.456112,4.483898 83.82707,5.2465468 l 7.109371,14.8257742 c 0.09515,0.19585 0.08282,0.426997 -0.03263,0.611571 -0.115454,0.184574 -0.317723,0.296512 -0.535167,0.296168 z M 78.913072,15.060765 H 84.76835 L 81.847821,8.3866029 Z"
         inkscape:connector-curvature="0"
         style="fill:#ffffff;fill-opacity:1;fill-rule:nonzero" />
    </g>
  </g>
</svg>
