<?xml version="1.0" encoding="utf-8"?>
<svg version="1.1" id="Content" xmlns="http://www.w3.org/2000/svg" xmlns:xlink="http://www.w3.org/1999/xlink" x="0px" y="0px" width="192px" height="192px" viewBox="0 0 192 192" enable-background="new 0 0 192 192" xml:space="preserve">
    <defs>
        <filter id="material-drop-shadow" x="-24" y="-24" width="192" height="192">
            <feGaussianBlur result="blur" stdDeviation="4" in="SourceGraphic" />
            <feOffset result="offsetBlurredGraphic" dx="4" dy="4" in="blur" />
        </filter>
        <clipPath id="clip-path">
            <path d="M172,84A76,76,0,0,0,20,84c0,39.8,36.3,72,76,72v28C142.2,160.6,172,122.9,172,84Z" style="fill:none" />
        </clipPath>
        <linearGradient id="linear-gradient" x1="-20.21263" y1="-1604.00836" x2="785.86078" y2="-797.93516" gradientTransform="translate(73.5 262.5) scale(0.125)" gradientUnits="userSpaceOnUse">
            <stop offset="0" stop-color="#263238" stop-opacity="0.2" />
            <stop offset="1" stop-color="#263238" stop-opacity="0.02" />
        </linearGradient>
        <radialGradient id="radial-gradient" cx="-252" cy="-1860" r="1237.81921" gradientTransform="translate(73.5 262.5) scale(0.125)" gradientUnits="userSpaceOnUse">
            <stop offset="0" stop-color="#fff" stop-opacity="0.1" />
            <stop offset="1" stop-color="#fff" stop-opacity="0" />
        </radialGradient>
    </defs>
    <title>Google Voice</title>
    <path d="M172,84A76,76,0,0,0,20,84c0,39.8,36.3,72,76,72v28C142.2,160.6,172,122.9,172,84Z" style="fill:#00897b" />
    <path d="M96,155c-39.6,0-75.7-32-76-71.5V84c0,39.8,36.3,72,76,72Z" style="fill:#263238;opacity:0.2" />
    <path d="M96,183v1c46.2-23.4,76-61.1,76-100v-.5C171.7,122.2,142,159.7,96,183Z" style="fill:#263238;opacity:0.2" />
    <path d="M96,9a76.05424,76.05424,0,0,1,76,75.5V84A76,76,0,0,0,20,84v.5A76.05424,76.05424,0,0,1,96,9Z" style="fill:#fff;opacity:0.2;isolation:isolate" />
    <g style="opacity:0.2;filter:url(#material-drop-shadow)">
        <path d="M135.12048,97.35968c-5.33471-.72223-10.75573-1.59955-16.38006-2.69733a3.92358,3.92358,0,0,0-4.46808,1.37122l-8.08948,8.09015A67.39506,67.39506,0,0,1,77.96667,76.04626l8.296-8.297a3.52268,3.52268,0,0,0,1.29876-3.48487C86.16492,56.91492,85.3324,52.257,84.64215,46.88458A2.80076,2.80076,0,0,0,81.49689,44H61.35107a3.42288,3.42288,0,0,0-3.363,3.33514A79.71557,79.71557,0,0,0,63.65533,76.251a78.403,78.403,0,0,0,4.63245,9.4754,77.58177,77.58177,0,0,0,28.192,28.10107A76.18775,76.18775,0,0,0,134.49213,123.958a3.29726,3.29726,0,0,0,3.508-3.31159V100.15161C138.00018,98.774,137.14337,97.63354,135.12048,97.35968Z" style="fill:#263238" />
    </g>
    <path d="M134.49213,123.958A76.18775,76.18775,0,0,1,96.4798,113.82751a77.58177,77.58177,0,0,1-28.192-28.10107,78.403,78.403,0,0,1-4.63245-9.4754A79.77776,79.77776,0,0,1,58.009,48.13928c-.00439.0658-.02093.13-.02093.19623A79.71552,79.71552,0,0,0,63.65533,77.2514a78.40236,78.40236,0,0,0,4.63245,9.47541,77.58177,77.58177,0,0,0,28.192,28.10107,76.18785,76.18785,0,0,0,38.01233,10.13043,3.29726,3.29726,0,0,0,3.508-3.31158v-1.00037A3.29726,3.29726,0,0,1,134.49213,123.958Z" style="fill:#263238;opacity:0.2" />
    <g style="clip-path:url(#clip-path)">
        <path d="M83.88185,44.86909,73.882,54.869l6.52226,46.59909L171.3,192.1H192V153Z" style="fill:url(#linear-gradient)" />
    </g>
    <path d="M77.96608,76.04519l-9.67831,9.68127a77.582,77.582,0,0,0,28.192,28.10107l9.70252-9.70373A67.39181,67.39181,0,0,1,77.96608,76.04519Z" style="fill:#e0e0e0" />
    <path d="M78.31958,76.69373c-.116-.21546-.24078-.43293-.35291-.64747l-9.67889,9.68018c.11945.208.25012.41864.37293.62744Z" style="fill:#191919;opacity:0.1" />
    <path d="M77.96606,77.045a67.39944,67.39944,0,0,0,27.57239,27.72272l.64386-.64392A67.39176,67.39176,0,0,1,77.96606,76.04517c0,.00544-.38008.29726-.38008.29726S77.96606,77.0343,77.96606,77.045Z" style="fill:#fff;opacity:0.4" />
    <path d="M135.12046,97.3597c-5.33472-.72224-10.75571-1.59958-16.38-2.69737a3.92359,3.92359,0,0,0-4.46809,1.37121l-17.79255,17.794A76.188,76.188,0,0,0,134.49212,123.958a3.2973,3.2973,0,0,0,3.50807-3.31159V100.1516C138.00019,98.774,137.14337,97.63357,135.12046,97.3597Z" style="fill:#f5f5f5" />
    <path d="M135.12048,97.35968c-5.33471-.72223-10.75573-1.59955-16.38006-2.69733a3.92358,3.92358,0,0,0-4.46808,1.37122L96.4798,113.82751c.2124.12256.4295.23658.64312.357l17.14942-17.15076a3.92358,3.92358,0,0,1,4.46808-1.37121c5.62433,1.09777,11.04535,1.97509,16.38006,2.69738,2.02289.27387,2.8797,1.41425,2.8797,2.79187v-1.00018C138.00018,98.774,137.14337,97.63354,135.12048,97.35968Z" style="fill:#fff;opacity:0.4" />
    <path d="M77.96667,76.04626c.11213.21454.237.432.35291.6474l7.94312-7.94409A3.52835,3.52835,0,0,0,87.594,65.49579a3.82591,3.82591,0,0,1-1.33129,2.25342Z" style="fill:#263238;opacity:0.2" />
    <path d="M68.28777,85.72646,86.26271,67.74918a3.52261,3.52261,0,0,0,1.29874-3.48485c-1.39656-7.34944-2.229-12.00733-2.91933-17.37972A2.80072,2.80072,0,0,0,81.49687,44H61.35106a3.42285,3.42285,0,0,0-3.363,3.33517A79.71543,79.71543,0,0,0,63.65533,76.251,78.401,78.401,0,0,0,68.28777,85.72646Z" style="fill:#f5f5f5" />
    <path d="M61.35107,45.00037H81.49689A2.80077,2.80077,0,0,1,84.64215,47.885c.69025,5.37238,1.52277,10.03027,2.91931,17.3797.01447.076.0221.15393.03253.23108a3.59863,3.59863,0,0,0-.03253-1.23145C86.16492,56.91492,85.3324,52.257,84.64215,46.88458A2.80076,2.80076,0,0,0,81.49689,44H61.35107a3.42288,3.42288,0,0,0-3.363,3.33514c0,.263.0177.5387.02093.8042A3.41859,3.41859,0,0,1,61.35107,45.00037Z" style="fill:#fff;opacity:0.4" />
    <path d="M172,84A76,76,0,0,0,20,84c0,39.8,36.3,72,76,72v28C142.2,160.6,172,122.9,172,84Z" style="fill:url(#radial-gradient)" />
</svg>