<?xml version="1.0" encoding="UTF-8" standalone="no"?>
<!-- Generator: Adobe Illustrator 19.1.0, SVG Export Plug-In . SVG Version: 6.00 Build 0)  -->

<svg
   xmlns:dc="http://purl.org/dc/elements/1.1/"
   xmlns:cc="http://creativecommons.org/ns#"
   xmlns:rdf="http://www.w3.org/1999/02/22-rdf-syntax-ns#"
   xmlns:svg="http://www.w3.org/2000/svg"
   xmlns="http://www.w3.org/2000/svg"
   xmlns:sodipodi="http://sodipodi.sourceforge.net/DTD/sodipodi-0.dtd"
   xmlns:inkscape="http://www.inkscape.org/namespaces/inkscape"
   version="1.1"
   id="Layer_1"
   x="0px"
   y="0px"
   viewBox="0 0 319.4 271.9"
   width="342.738468752"
   height="291.767657025"
   style="enable-background:new 0 0 319.4 271.9;"
   xml:space="preserve"
   sodipodi:docname="Waymo_Logo.svg"
   inkscape:version="0.92.3 (2405546, 2018-03-11)"><metadata
   id="metadata121"><rdf:RDF><cc:Work
       rdf:about=""><dc:format>image/svg+xml</dc:format><dc:type
         rdf:resource="http://purl.org/dc/dcmitype/StillImage" /></cc:Work></rdf:RDF></metadata><defs
   id="defs119">

	

		

	

		

	

	

	

	

	

	

	

	



		

	</defs><sodipodi:namedview
   pagecolor="#ffffff"
   bordercolor="#666666"
   borderopacity="1"
   objecttolerance="10"
   gridtolerance="10"
   guidetolerance="10"
   inkscape:pageopacity="0"
   inkscape:pageshadow="2"
   inkscape:window-width="1920"
   inkscape:window-height="1046"
   id="namedview117"
   showgrid="false"
   inkscape:zoom="1.6177255"
   inkscape:cx="53.408392"
   inkscape:cy="171.26392"
   inkscape:window-x="0"
   inkscape:window-y="34"
   inkscape:window-maximized="1"
   inkscape:current-layer="Layer_1" />

<style
   type="text/css"
   id="style84">

	.st0{display:none;fill:#77787B;}

	.st1{fill:#0078FF;}

	.st2{fill:#00E89D;}

	.st3{fill:#949A9F;}

</style>

<polygon
   class="st0"
   points="653.4,277.5 643.2,277.5 643.2,249.3 633.4,277.5 625.6,277.5 615.4,249.3 615.4,277.5 605.2,277.5    605.2,232.1 617.3,232.1 629.5,263.7 641.5,232.1 653.4,232.1 "
   id="polygon86" />

<rect
   x="521.9"
   y="213.1"
   class="st0"
   width="16.7"
   height="86.2"
   id="rect88" />

<rect
   x="462.5"
   y="213.1"
   class="st0"
   width="16.7"
   height="86.2"
   id="rect90" />

<path
   style="fill:#ffffff;stroke-width:1.07305384;fill-opacity:1"
   d="M 170.22266 -0.068359375 C 165.31892 0.048614658 160.37109 1.3550956 155.81055 3.9707031 C 150.17396 7.2273963 145.97316 12.030081 143.42969 17.539062 L 100.76172 91.679688 L 56.765625 15.238281 C 48.395681 0.64453283 29.83203 -4.2918189 15.238281 4.078125 C 0.64453283 12.448069 -4.2918189 31.011605 4.078125 45.498047 L 74.363281 167.7207 C 80.050551 177.48564 90.245635 182.95898 100.76172 182.95898 C 105.91245 182.95898 111.06181 181.67084 115.89062 178.88086 C 120.68663 176.10983 124.44153 172.21829 127.02344 167.72656 L 127.05859 167.74609 L 171.02148 91.357422 L 214.93555 167.7207 C 220.62282 177.48564 230.8179 182.95898 241.33398 182.95898 C 246.48472 182.95898 251.74138 181.67084 256.46289 178.88086 C 261.62401 175.89888 265.57969 171.61878 268.16406 166.68945 L 337.39258 46.398438 C 340.3003 41.741758 341.98828 36.247845 341.98828 30.367188 C 341.98828 13.6273 328.46634 0 311.61914 0 C 300.41025 -3.1718248e-15 290.60511 6.1145003 285.34375 15.177734 L 285.30078 15.154297 L 241.30859 91.59375 L 197.33789 15.130859 C 191.58355 5.1714309 181.01088 -0.32570225 170.22266 -0.068359375 z M 318.05859 242.51367 C 302.49908 242.51367 293.26953 254.21105 293.26953 267.08789 C 293.26953 279.96473 302.49908 291.76746 318.05859 291.66016 C 333.5108 291.66016 342.73828 279.85742 342.73828 267.08789 C 342.73828 254.31836 333.6181 242.51367 318.05859 242.51367 z M 0 243.69336 L 16.525391 290.48047 L 25.431641 290.48047 L 34.660156 261.07812 L 43.996094 290.48047 L 52.794922 290.48047 L 69.320312 243.69336 L 57.837891 243.69336 L 48.394531 274.38477 L 38.845703 243.69336 L 30.474609 243.69336 L 21.03125 274.38477 L 11.482422 243.69336 L 0 243.69336 z M 104.30273 243.69336 L 87.5625 290.48047 L 99.044922 290.48047 L 100.86914 284.79297 L 117.50195 284.79297 L 119.32617 290.48047 L 131.23633 290.48047 L 114.28125 243.69336 L 104.30273 243.69336 z M 148.40625 243.69336 L 165.57422 273.84766 L 165.57422 290.48047 L 176.51953 290.48047 L 176.51953 273.84766 L 193.58203 243.69336 L 181.02734 243.69336 L 171.04688 262.15039 L 161.06836 243.69336 L 148.40625 243.69336 z M 217.61914 243.69336 L 217.61914 290.48047 L 228.13477 290.48047 L 228.13477 261.50781 L 238.54297 290.48047 L 246.5918 290.48047 L 256.67773 261.50781 L 256.67773 290.48047 L 267.19531 290.48047 L 267.19531 243.69336 L 254.96094 243.69336 L 242.62109 276.31641 L 230.06641 243.69336 L 217.61914 243.69336 z M 318.05859 252.2793 C 326.53584 252.2793 331.79297 259.36179 331.79297 267.08789 C 331.79297 274.81399 326.53584 282.00184 318.05859 281.89453 C 309.47404 281.89453 304.32227 274.70669 304.32227 267.08789 C 304.32227 259.4691 309.47404 252.2793 318.05859 252.2793 z M 109.23828 257.10742 L 114.81836 276.31641 L 103.44336 276.31641 L 109.23828 257.10742 z "
   transform="scale(0.93190588)"
   id="rect92" />

</svg>