<?xml version="1.0" encoding="UTF-8" standalone="no"?>
<!-- Created with Inkscape (http://www.inkscape.org/) -->
<svg xmlns:dc="http://purl.org/dc/elements/1.1/" xmlns:cc="http://creativecommons.org/ns#" xmlns:rdf="http://www.w3.org/1999/02/22-rdf-syntax-ns#" xmlns:svg="http://www.w3.org/2000/svg" xmlns="http://www.w3.org/2000/svg" xmlns:sodipodi="http://sodipodi.sourceforge.net/DTD/sodipodi-0.dtd" xmlns:inkscape="http://www.inkscape.org/namespaces/inkscape" width="464.39999" height="86.999992" viewBox="0 0 122.87249 23.018748" version="1.1" id="svg4180" inkscape:version="0.92.0 r15299" sodipodi:docname="youtube tv.svg">
  <defs id="defs4174"/>
  <sodipodi:namedview id="base" pagecolor="#ffffff" bordercolor="#666666" borderopacity="1.0" inkscape:pageopacity="0.0" inkscape:pageshadow="2" inkscape:zoom="1.9398789" inkscape:cx="231.2" inkscape:cy="42.499988" inkscape:document-units="mm" inkscape:current-layer="layer1" showgrid="false" fit-margin-top="0" fit-margin-left="0" fit-margin-right="0" fit-margin-bottom="0" units="px" inkscape:window-width="1280" inkscape:window-height="744" inkscape:window-x="-4" inkscape:window-y="-4" inkscape:window-maximized="1"/>
  <metadata id="metadata4177">
    <rdf:RDF>
      <cc:Work rdf:about="">
        <dc:format>image/svg+xml</dc:format>
        <dc:type rdf:resource="http://purl.org/dc/dcmitype/StillImage"/>
        <dc:title/>
      </cc:Work>
    </rdf:RDF>
  </metadata>
  <g inkscape:label="Layer 1" inkscape:groupmode="layer" id="layer1" transform="translate(232.0169,-326.80343)">
    <g id="g4290" transform="translate(0.26458419,-0.26457413)">
      <path style="stroke-width:0.26458332" id="path4255" d="m -120.91836,331.48655 h -3.14854 v 16.74812 h -3.09563 v -16.74812 h -3.14854 v -2.56646 h 9.39271 z m 0.68792,-2.56646 h 3.30729 l 1.03187,8.67833 c 0.29105,2.48709 0.55563,4.63021 0.87313,7.56709 h 0.13229 c 0.29104,-2.93688 0.58208,-5.02709 0.87313,-7.56709 l 1.05833,-8.67833 h 3.28083 l -3.175,19.28812 h -4.18041 z" class="wordmark" inkscape:connector-curvature="0"/>
      <path id="path4257" d="m -200.55794,330.85155 c -0.37042,-1.40229 -1.45521,-2.46063 -2.83104,-2.8575 -2.51355,-0.66146 -12.56771,-0.66146 -12.56771,-0.66146 0,0 -10.05417,0 -12.56771,0.66146 -1.37583,0.37041 -2.46063,1.45521 -2.83104,2.8575 -0.66146,2.51354 -0.66146,7.72583 -0.66146,7.72583 0,0 0,5.23875 0.66146,7.72583 0.39687,1.4023 1.45521,2.48709 2.8575,2.8575 2.48708,0.66146 12.54125,0.66146 12.54125,0.66146 0,0 10.05416,0 12.56771,-0.66146 1.37583,-0.37041 2.46062,-1.4552 2.8575,-2.83104 0.66145,-2.51354 0.66145,-7.72583 0.66145,-7.72583 0,0 -0.0264,-5.23875 -0.68791,-7.75229 z" inkscape:connector-curvature="0" style="fill:#ff0000;stroke-width:0.26458332"/>
      <path id="path4259" d="m -219.15815,343.3928 8.36083,-4.81542 -8.36083,-4.81542 z" inkscape:connector-curvature="0" style="fill:#ffffff;stroke-width:0.26458332"/>
      <path style="stroke-width:0.26458332" id="path4261" d="m -185.37086,347.81134 c -0.68792,-0.47625 -1.16417,-1.19063 -1.34937,-2.01083 -0.29105,-1.19063 -0.42334,-2.38125 -0.39688,-3.59834 v -2.03729 c -0.0265,-1.24354 0.13229,-2.46062 0.47625,-3.65125 0.23813,-0.82021 0.74083,-1.53458 1.42875,-2.01083 0.76729,-0.44979 1.66688,-0.66146 2.56646,-0.635 1.03187,0 1.87854,0.21166 2.51354,0.635 0.66146,0.50271 1.16417,1.19062 1.37583,2.01083 0.3175,1.19063 0.47625,2.40771 0.42334,3.65125 v 2.03729 c 0.0265,1.21709 -0.10584,2.43417 -0.42334,3.62479 -0.21166,0.82021 -0.68791,1.50813 -1.37583,2.01084 -0.635,0.42333 -1.50812,0.635 -2.59292,0.635 -1.11125,-0.0265 -2.01083,-0.23813 -2.64583,-0.66146 z m 3.57188,-2.2225 c 0.1852,-0.44979 0.26458,-1.21708 0.26458,-2.24896 v -4.36562 c 0.0265,-0.74084 -0.0529,-1.50813 -0.26458,-2.2225 -0.10584,-0.42334 -0.50271,-0.71438 -0.92605,-0.71438 -0.42333,0 -0.79375,0.29104 -0.89958,0.71438 -0.21167,0.71437 -0.29104,1.48166 -0.26458,2.2225 v 4.39208 c 0,1.03187 0.0794,1.79917 0.26458,2.24896 0.10583,0.42333 0.47625,0.71437 0.92604,0.68791 0.42334,0 0.79375,-0.29104 0.89959,-0.71437 z m 45.2702,-3.36021 v 0.71438 c 0,0.68791 0.0265,1.34937 0.0794,2.03729 0.0265,0.34396 0.13229,0.68791 0.34396,0.97896 0.21166,0.21166 0.50271,0.34395 0.79375,0.3175 0.39687,0.0264 0.79375,-0.18521 0.97896,-0.55563 0.1852,-0.37042 0.26458,-0.97896 0.29104,-1.85208 l 2.72521,0.18521 c 0.0265,0.15875 0.0265,0.34395 0.0265,0.5027 0,1.29646 -0.34395,2.27542 -1.05833,2.91042 -0.71437,0.635 -1.71979,0.9525 -3.01625,0.9525 -1.56104,0 -2.64583,-0.50271 -3.28083,-1.48167 -0.635,-0.97895 -0.9525,-2.48708 -0.9525,-4.55083 v -2.46062 c 0,-2.11667 0.3175,-3.65125 0.97896,-4.63021 0.66145,-0.97896 1.7727,-1.45521 3.33375,-1.45521 1.08479,0 1.93145,0.21167 2.51354,0.60854 0.60854,0.44979 1.05833,1.11125 1.24354,1.85208 0.26458,1.13771 0.39687,2.32834 0.34396,3.4925 v 2.40771 z m 0.39688,-5.92667 c -0.18521,0.29105 -0.3175,0.635 -0.3175,0.97896 -0.0529,0.68792 -0.0794,1.37584 -0.0794,2.06375 v 1.00542 h 2.32834 v -1.00542 c 0,-0.68791 -0.0265,-1.37583 -0.10584,-2.06375 -0.0265,-0.34396 -0.13229,-0.68791 -0.34395,-0.97896 -0.18521,-0.21166 -0.47625,-0.3175 -0.74084,-0.29104 -0.29104,-0.0265 -0.55562,0.0794 -0.74083,0.29104 z m -56.96479,5.66209 -3.59834,-13.04396 h 3.14855 l 1.27,5.90021 c 0.3175,1.45521 0.55562,2.69875 0.71437,3.73062 h 0.10583 c 0.10584,-0.74083 0.34396,-1.95791 0.71438,-3.70416 l 1.32292,-5.92667 h 3.14854 l -3.65125,13.04396 v 6.27062 h -3.14854 v -6.27062 z m 25.00312,-7.83167 v 14.10229 h -2.48708 l -0.26458,-1.71979 h -0.0794 c -0.66146,1.29646 -1.69333,1.95792 -3.04271,1.95792 -0.92604,0 -1.61396,-0.3175 -2.06375,-0.92604 -0.44979,-0.60855 -0.66146,-1.56105 -0.66146,-2.88396 v -10.53042 h 3.175 v 10.34521 c -0.0265,0.44979 0.0529,0.92604 0.21167,1.34937 0.13229,0.26459 0.39688,0.42334 0.68792,0.39688 0.29104,0 0.55562,-0.10583 0.79375,-0.26458 0.23812,-0.15875 0.44979,-0.37042 0.55562,-0.635 v -11.19188 z m 16.27188,0 v 14.10229 h -2.48709 l -0.26458,-1.71979 h -0.0794 c -0.66146,1.29646 -1.69334,1.95792 -3.04271,1.95792 -0.92604,0 -1.61396,-0.3175 -2.06375,-0.92604 -0.44979,-0.60855 -0.66146,-1.56105 -0.66146,-2.88396 v -10.53042 h 3.175 v 10.34521 c -0.0265,0.44979 0.0529,0.92604 0.21167,1.34937 0.13229,0.26459 0.39687,0.42334 0.68791,0.39688 0.29104,0 0.55563,-0.10583 0.79375,-0.26458 0.23813,-0.15875 0.44979,-0.37042 0.55563,-0.635 v -11.19188 z" class="wordmark" inkscape:connector-curvature="0"/>
      <path style="stroke-width:0.26458332" id="path4263" d="m -159.46815,331.48655 h -3.14854 v 16.74812 h -3.09563 v -16.74812 h -3.14854 v -2.56646 h 9.39271 z m 18.15042,4.89479 c -0.18521,-0.87313 -0.50271,-1.53458 -0.92605,-1.93146 a 2.587625,2.587625 0 0 0 -1.7727,-0.60854 c -0.58209,0 -1.13771,0.15875 -1.64042,0.50271 -0.50271,0.3175 -0.89958,0.76729 -1.16417,1.29646 h -0.0265 v -7.4348 h -3.0427 v 20.02896 h 2.61937 l 0.3175,-1.32291 h 0.0794 c 0.23812,0.47625 0.635,0.87312 1.11125,1.1377 0.5027,0.26459 1.05833,0.42334 1.64041,0.42334 1.00542,0.0265 1.95792,-0.55563 2.38125,-1.48167 0.50271,-0.97896 0.76729,-2.54 0.76729,-4.63021 v -2.2225 c -0.0264,-1.29646 -0.13229,-2.54 -0.34395,-3.75708 z m -2.91042,5.74146 c 0,0.79375 -0.0265,1.61396 -0.13229,2.40771 -0.0265,0.44979 -0.18521,0.87312 -0.42334,1.24354 -0.1852,0.23812 -0.47625,0.37041 -0.79375,0.37041 -0.26458,0 -0.5027,-0.0529 -0.71437,-0.1852 -0.21167,-0.1323 -0.39688,-0.3175 -0.52917,-0.55563 v -7.99042 c 0.10584,-0.37041 0.29104,-0.68791 0.55563,-0.9525 0.21166,-0.23812 0.52916,-0.37041 0.84666,-0.37041 0.29105,0 0.58209,0.13229 0.74084,0.37041 0.21166,0.39688 0.34396,0.82021 0.37041,1.27 0.0794,0.84667 0.10584,1.69334 0.10584,2.54 z" class="wordmark" inkscape:connector-curvature="0"/>
    </g>
  </g>
</svg>