<?xml version="1.0" encoding="UTF-8"?>
<!-- Generator: Adobe Illustrator 20.1.0, SVG Export Plug-In . SVG Version: 6.00 Build 0)  -->
<svg version="1.1" id="logos" xmlns="http://www.w3.org/2000/svg" xmlns:xlink="http://www.w3.org/1999/xlink" x="0px" y="0px" viewBox="0 0 125 40" enable-background="new 0 0 125 40" xml:space="preserve">
<g>
	<g>
		<g>
			<g>
				<path id="lozenge-path" fill="#FF0000" d="M25.409,13.754c-0.297-1.115-1.177-1.994-2.295-2.295      c-2.023-0.541-10.139-0.541-10.139-0.541s-8.112,0-10.139,0.541c-1.115,0.297-1.994,1.177-2.295,2.295C0,15.777,0,20,0,20      s0,4.223,0.541,6.246c0.297,1.115,1.177,1.994,2.295,2.295c2.027,0.541,10.139,0.541,10.139,0.541s8.116,0,10.139-0.541      c1.115-0.297,1.994-1.177,2.295-2.295C25.95,24.223,25.95,20,25.95,20S25.95,15.777,25.409,13.754z"/>
				<polygon id="play-polygon" fill="#FFFFFF" points="10.382,23.893 17.124,20 10.382,16.107     "/>
			</g>
			<g>
				<g id="youtube-paths">
					<path d="M37.666,27.443c-0.512-0.347-0.879-0.883-1.094-1.614c-0.215-0.731-0.326-1.701-0.326-2.915v-1.651       c0-1.226,0.124-2.209,0.372-2.952c0.248-0.743,0.636-1.284,1.16-1.622c0.524-0.339,1.214-0.512,2.068-0.512       c0.842,0,1.515,0.173,2.023,0.52s0.879,0.888,1.115,1.622c0.235,0.735,0.351,1.717,0.351,2.939v1.651       c0,1.214-0.116,2.188-0.343,2.923s-0.599,1.276-1.115,1.614c-0.512,0.339-1.21,0.512-2.089,0.512       C38.888,27.963,38.178,27.79,37.666,27.443z M40.543,25.66c0.14-0.372,0.215-0.978,0.215-1.816v-3.546       c0-0.817-0.07-1.412-0.215-1.792c-0.14-0.376-0.392-0.566-0.751-0.566c-0.347,0-0.59,0.19-0.735,0.566       c-0.14,0.376-0.215,0.974-0.215,1.792v3.546c0,0.842,0.066,1.449,0.202,1.816c0.136,0.372,0.384,0.557,0.743,0.557       C40.151,26.217,40.399,26.031,40.543,25.66z"/>
					<path d="M77.078,22.943v0.574c0,0.731,0.021,1.276,0.066,1.643c0.041,0.363,0.132,0.632,0.268,0.797       c0.136,0.165,0.347,0.252,0.632,0.252c0.384,0,0.648-0.149,0.788-0.446c0.14-0.297,0.219-0.793,0.231-1.486l2.209,0.128       c0.012,0.099,0.017,0.235,0.017,0.409c0,1.053-0.289,1.837-0.863,2.357c-0.574,0.52-1.387,0.78-2.44,0.78       c-1.263,0-2.147-0.396-2.654-1.189c-0.508-0.793-0.76-2.015-0.76-3.674v-1.986c0-1.709,0.264-2.952,0.788-3.74       c0.524-0.784,1.424-1.177,2.7-1.177c0.879,0,1.552,0.161,2.023,0.483c0.471,0.322,0.801,0.822,0.995,1.503       c0.19,0.681,0.289,1.622,0.289,2.82v1.949h-4.289V22.943z M77.404,18.155c-0.128,0.161-0.215,0.425-0.26,0.788       s-0.066,0.921-0.066,1.66v0.817h1.874v-0.817c0-0.731-0.025-1.284-0.074-1.66c-0.05-0.376-0.14-0.644-0.268-0.797       c-0.128-0.153-0.33-0.231-0.603-0.231C77.734,17.911,77.532,17.994,77.404,18.155z"/>
					<path id="XMLID_41_" d="M31.432,22.729l-2.915-10.523h2.543l1.02,4.768c0.26,1.177,0.45,2.176,0.574,3.005h0.074       c0.087-0.594,0.277-1.589,0.574-2.989l1.057-4.789h2.543l-2.948,10.527v5.049h-2.522V22.729z"/>
					<path id="XMLID_38_" d="M51.603,16.4v11.373h-2.002l-0.223-1.391h-0.054c-0.545,1.053-1.362,1.577-2.448,1.577       c-0.755,0-1.313-0.248-1.672-0.743c-0.359-0.495-0.537-1.267-0.537-2.32V16.4h2.559v8.351c0,0.508,0.054,0.871,0.165,1.086       c0.111,0.215,0.297,0.326,0.557,0.326c0.223,0,0.438-0.066,0.64-0.202c0.202-0.136,0.355-0.31,0.454-0.52V16.4H51.603z"/>
					<path id="XMLID_36_" d="M64.739,16.4v11.373h-2.002l-0.223-1.391H62.46c-0.545,1.053-1.362,1.577-2.448,1.577       c-0.755,0-1.313-0.248-1.672-0.743c-0.359-0.495-0.537-1.267-0.537-2.32V16.4h2.559v8.351c0,0.508,0.054,0.871,0.165,1.086       c0.111,0.215,0.297,0.326,0.557,0.326c0.223,0,0.438-0.066,0.64-0.202c0.202-0.136,0.355-0.31,0.454-0.52V16.4H64.739z"/>
					<path id="XMLID_35_" d="M58.563,14.266H56.02v13.508h-2.506V14.266h-2.543v-2.06h7.588v2.06H58.563z"/>
					<path d="M73.214,18.221c-0.157-0.718-0.405-1.238-0.751-1.56c-0.347-0.322-0.822-0.483-1.428-0.483       c-0.471,0-0.908,0.132-1.317,0.4c-0.409,0.264-0.722,0.615-0.945,1.049h-0.021v-5.994h-2.469v16.145h2.114l0.26-1.077h0.054       c0.198,0.384,0.495,0.685,0.892,0.908c0.396,0.223,0.834,0.334,1.317,0.334c0.867,0,1.503-0.4,1.911-1.197       c0.409-0.797,0.611-2.043,0.611-3.74v-1.8C73.445,19.934,73.367,18.939,73.214,18.221z M70.865,22.861       c0,0.83-0.033,1.478-0.103,1.949c-0.066,0.471-0.182,0.805-0.343,1.003c-0.161,0.198-0.376,0.297-0.648,0.297       c-0.211,0-0.405-0.05-0.586-0.149c-0.178-0.099-0.326-0.248-0.438-0.446v-6.461c0.087-0.31,0.235-0.561,0.446-0.76       c0.211-0.198,0.438-0.297,0.685-0.297c0.26,0,0.462,0.103,0.603,0.305c0.14,0.202,0.239,0.549,0.297,1.028       c0.054,0.483,0.083,1.168,0.083,2.06v1.47H70.865z"/>
				</g>
			</g>
		</g>
		<polygon points="88.297,12.206 84.803,12.206 84.803,27.943 87.074,27.943 87.074,15.162 89.578,27.943 91.674,27.943     94.294,14.871 94.294,27.959 96.507,27.959 96.507,12.206 92.897,12.206 90.655,24.653   "/>
		<path d="M103.203,27.959h1.805V16.4h-2.446v9.127c-0.408,0.699-1.863,1.281-1.863-0.116c0-1.397,0-9.01,0-9.01h-2.446    c0,0,0,7.38,0,9.36s2.679,3.727,4.542,0.757L103.203,27.959z"/>
		<rect x="114.441" y="16.4" width="2.271" height="11.559"/>
		<path d="M115.635,15.046L115.635,15.046c-0.785,0-1.427-0.642-1.427-1.427V13.27c0-0.785,0.642-1.427,1.427-1.427h0    c0.785,0,1.427,0.642,1.427,1.427v0.349C117.061,14.404,116.42,15.046,115.635,15.046z"/>
		<path d="M110.773,20.083h1.98c0.058-0.961,0.116-3.872-2.97-3.872c-2.562,0-3.261,1.63-3.261,3.086    c0,1.456,0.738,2.484,2.834,4.115c1.786,0.932,1.863,3.067,0.388,3.067c-0.699,0-1.126-0.466-1.126-1.126s0-1.048,0-1.048h-2.096    c0,0,0,0.893,0,1.203c0,1.048,0.699,2.64,3.144,2.64c2.446,0,3.3-1.359,3.3-3.455s-4.425-4.154-4.425-5.59    c0-1.669,2.203-1.485,2.203-0.272L110.773,20.083z"/>
		<path d="M120.885,19.141c-0.233,2.64-0.039,4.658,0.039,5.939c0.106,1.744,1.941,1.747,1.941-0.039c0-1.203,0-1.281,0-1.281H125    c0,2.329-0.815,4.231-3.106,4.231c-2.679,0-3.455-1.902-3.455-3.921s0-3.377,0-3.377c0-2.717,1.165-4.542,3.377-4.542    c2.95,0,3.028,2.096,3.028,3.067c0,0.97,0,1.281,0,1.281l-1.98,0.155c0,0,0-0.466,0-1.553    C122.865,18.015,121.506,17.045,120.885,19.141z"/>
	</g>
	<rect x="0" y="0" fill="none" width="125" height="40"/>
</g>
</svg>