<?xml version="1.0" encoding="UTF-8" standalone="no"?>
<!-- Generator: Adobe Illustrator 21.1.0, SVG Export Plug-In . SVG Version: 6.00 Build 0)  -->

<svg
   xmlns:dc="http://purl.org/dc/elements/1.1/"
   xmlns:cc="http://creativecommons.org/ns#"
   xmlns:rdf="http://www.w3.org/1999/02/22-rdf-syntax-ns#"
   xmlns:svg="http://www.w3.org/2000/svg"
   xmlns="http://www.w3.org/2000/svg"
   xmlns:sodipodi="http://sodipodi.sourceforge.net/DTD/sodipodi-0.dtd"
   xmlns:inkscape="http://www.inkscape.org/namespaces/inkscape"
   version="1.1"
   id="Layer_1"
   x="0px"
   y="0px"
   viewBox="0 0 247.5 179.90039"
   xml:space="preserve"
   sodipodi:docname="YouTube_Logo_2017.svg"
   width="247.5"
   height="179.90039"
   inkscape:version="0.92.3 (2405546, 2018-03-11)"><metadata
   id="metadata72"><rdf:RDF><cc:Work
       rdf:about=""><dc:format>image/svg+xml</dc:format><dc:type
         rdf:resource="http://purl.org/dc/dcmitype/StillImage" /><dc:title></dc:title></cc:Work></rdf:RDF></metadata><defs
   id="defs70">
	
	

	

		
		
		
		
		
		
		
	</defs><sodipodi:namedview
   pagecolor="#ffffff"
   bordercolor="#666666"
   borderopacity="1"
   objecttolerance="10"
   gridtolerance="10"
   guidetolerance="10"
   inkscape:pageopacity="0"
   inkscape:pageshadow="2"
   inkscape:window-width="1920"
   inkscape:window-height="1046"
   id="namedview68"
   showgrid="false"
   fit-margin-top="0"
   fit-margin-left="0"
   fit-margin-right="0"
   fit-margin-bottom="0"
   inkscape:zoom="1.3809399"
   inkscape:cx="2.8178726"
   inkscape:cy="157.40039"
   inkscape:window-x="0"
   inkscape:window-y="34"
   inkscape:window-maximized="1"
   inkscape:current-layer="Layer_1" />
<style
   type="text/css"
   id="style41">
	.st0{fill:#FF0000;}
	.st1{fill:#FFFFFF;}
	.st2{fill:#282828;}
</style>
<path
   style="fill:#ffffff;stroke:none;fill-opacity:1"
   d="M 123.74805 0 C 123.74805 0 85.748047 0 76.248047 2.5 C 71.148047 3.9 66.948828 8.1007812 65.548828 13.300781 C 63.048828 22.800781 63.048828 42.5 63.048828 42.5 C 63.048828 42.5 63.048828 62.299219 65.548828 71.699219 C 66.948828 76.899219 71.048047 81.000391 76.248047 82.400391 C 85.848047 85.000391 123.74805 85 123.74805 85 C 123.74805 85 161.74805 85 171.24805 82.5 C 176.44805 81.1 180.54922 77.000781 181.94922 71.800781 C 184.44922 62.300781 184.44922 42.599609 184.44922 42.599609 C 184.44922 42.599609 184.54922 22.800781 181.94922 13.300781 C 180.54922 8.1007813 176.44805 3.9996094 171.24805 2.5996094 C 161.74805 -0.00039062496 123.74805 0 123.74805 0 z M 111.64844 24.300781 L 143.24805 42.5 L 111.64844 60.699219 L 111.64844 24.300781 z M 176.80078 103.30078 L 176.80078 178.90039 L 186.69922 178.90039 L 187.90039 173.90039 L 188.19922 173.90039 C 189.09922 175.70039 190.50039 177.09922 192.40039 178.19922 C 194.30039 179.19922 196.29961 179.80078 198.59961 179.80078 C 202.69961 179.80078 205.6 177.89922 207.5 174.19922 C 209.4 170.49922 210.40039 164.59922 210.40039 156.69922 L 210.40039 148.30078 C 210.30039 142.20078 210.00078 137.49922 209.30078 134.19922 C 208.60078 130.79922 207.40078 128.40039 205.80078 126.90039 C 204.20078 125.40039 201.89961 124.59961 199.09961 124.59961 C 196.89961 124.59961 194.80039 125.2 192.90039 126.5 C 191.00039 127.7 189.5 129.40039 188.5 131.40039 L 188.40039 131.40039 L 188.40039 103.30078 L 176.80078 103.30078 z M 0 106 L 13.599609 155.30078 L 13.699219 155.30078 L 13.699219 178.90039 L 25.5 178.90039 L 25.5 155.30078 L 39.300781 106 L 27.400391 106 L 22.400391 128.40039 C 21.000391 135.00039 20.099219 139.60039 19.699219 142.40039 L 19.400391 142.40039 C 18.800391 138.50039 17.899219 133.80078 16.699219 128.30078 L 11.900391 106 L 0 106 z M 105.19922 106 L 105.19922 115.69922 L 117.09961 115.69922 L 117.09961 178.90039 L 128.80078 178.90039 L 128.80078 115.69922 L 140.69922 115.69922 L 140.69922 106 L 105.19922 106 z M 232.09961 124.5 C 226.19961 124.5 222 126.3 219.5 130 C 217 133.7 215.80078 139.5 215.80078 147.5 L 215.80078 156.80078 C 215.80078 164.60078 217.00039 170.3 219.40039 174 C 221.80039 177.7 225.90078 179.59961 231.80078 179.59961 C 236.70078 179.59961 240.49922 178.4 243.19922 176 C 245.89922 173.6 247.19922 169.9 247.19922 165 C 247.19922 164.2 247.1996 163.59961 247.09961 163.09961 L 236.80078 162.5 C 236.70078 165.8 236.39922 168.1 235.69922 169.5 C 234.99922 170.9 233.8 171.59961 232 171.59961 C 230.6 171.59961 229.6 171.20039 229 170.40039 C 228.3 169.70039 227.89922 168.39922 227.69922 166.69922 C 227.49922 164.99922 227.40039 162.4 227.40039 159 L 227.40039 156.30078 L 227.40039 156.09961 L 247.5 156.09961 L 247.5 147 C 247.5 141.4 247.09922 137.00078 246.19922 133.80078 C 245.29922 130.70078 243.79961 128.30078 241.59961 126.80078 C 239.39961 125.30078 236.19961 124.5 232.09961 124.5 z M 53 124.69922 C 49 124.69922 45.800781 125.49961 43.300781 127.09961 C 40.900781 128.69961 39.100391 131.19922 37.900391 134.69922 C 36.800391 138.19922 36.199219 142.8 36.199219 148.5 L 36.199219 156.19922 C 36.199219 161.79922 36.699219 166.40078 37.699219 169.80078 C 38.699219 173.30078 40.400781 175.80039 42.800781 177.40039 C 45.200781 179.00039 48.600781 179.80039 52.800781 179.90039 C 56.900781 179.90039 60.199609 179.1 62.599609 177.5 C 64.999609 175.9 66.700781 173.30039 67.800781 169.90039 C 68.900781 166.40039 69.400391 161.89922 69.400391 156.19922 L 69.400391 148.5 C 69.400391 142.7 68.799219 138.09922 67.699219 134.69922 C 66.599219 131.29922 64.9 128.69961 62.5 127.09961 C 60.1 125.49961 56.9 124.69922 53 124.69922 z M 75.599609 125.69922 L 75.599609 165.5 C 75.599609 170.5 76.399609 174.10039 78.099609 176.40039 C 79.799609 178.70039 82.400391 179.90039 85.900391 179.90039 C 91.000391 179.90039 94.900391 177.4 97.400391 172.5 L 97.699219 172.5 L 98.699219 179 L 108.09961 179 L 108.09961 125.69922 L 96.099609 125.69922 L 96.099609 168 C 95.699609 169 95 169.80039 94 170.40039 C 93 171.10039 92 171.40039 91 171.40039 C 89.8 171.40039 88.900391 170.90039 88.400391 169.90039 C 87.900391 168.90039 87.599609 167.20078 87.599609 164.80078 L 87.599609 125.69922 L 75.599609 125.69922 z M 137.09961 125.69922 L 137.09961 165.5 C 137.09961 170.5 137.89961 174.10039 139.59961 176.40039 C 141.29961 178.70039 143.90039 179.90039 147.40039 179.90039 C 152.50039 179.90039 156.40039 177.4 158.90039 172.5 L 159.19922 172.5 L 160.19922 179 L 169.59961 179 L 169.59961 125.69922 L 157.59961 125.69922 L 157.59961 168 C 157.19961 169 156.5 169.80039 155.5 170.40039 C 154.5 171.10039 153.5 171.40039 152.5 171.40039 C 151.3 171.40039 150.40039 170.90039 149.90039 169.90039 C 149.40039 168.90039 149.09961 167.20078 149.09961 164.80078 L 149.09961 125.69922 L 137.09961 125.69922 z M 231.80078 132.80078 C 233.00078 132.80078 233.99961 133.20039 234.59961 133.90039 C 235.19961 134.60039 235.70039 135.79961 235.90039 137.59961 C 236.10039 139.39961 236.19922 142.00039 236.19922 145.40039 L 236.19922 149.19922 L 227.40039 149.19922 L 227.40039 145.40039 C 227.40039 141.90039 227.49919 139.29961 227.69922 137.59961 C 227.89922 135.89961 228.30039 134.70039 228.90039 133.90039 C 229.50039 133.10039 230.40078 132.70078 231.80078 132.80078 z M 52.800781 132.90039 C 54.500781 132.90039 55.600781 133.7 56.300781 135.5 C 57.000781 137.3 57.300781 140.10039 57.300781 143.90039 L 57.300781 160.5 C 57.300781 164.4 57.000781 167.3 56.300781 169 C 55.600781 170.8 54.500391 171.59961 52.900391 171.59961 C 51.200391 171.59961 50.000391 170.7 49.400391 169 C 48.700391 167.3 48.400391 164.4 48.400391 160.5 L 48.400391 143.90039 C 48.400391 140.10039 48.700391 137.3 49.400391 135.5 C 50.000391 133.8 51.200781 132.90039 52.800781 132.90039 z M 193.80078 133.09961 C 195.00078 133.09961 195.99961 133.6 196.59961 134.5 C 197.29961 135.5 197.7 137.10078 198 139.30078 C 198.3 141.60078 198.40039 144.80039 198.40039 148.90039 L 198.40039 155.90039 L 198.30078 155.90039 C 198.30078 159.80039 198.10078 162.8 197.80078 165 C 197.50078 167.2 196.89922 168.79922 196.19922 169.69922 C 195.39922 170.59922 194.39922 171.09961 193.19922 171.09961 C 192.19922 171.09961 191.3 170.90039 190.5 170.40039 C 189.7 169.90039 189 169.20078 188.5 168.30078 L 188.5 138.09961 C 188.9 136.69961 189.59961 135.5 190.59961 134.5 C 191.59961 133.6 192.70078 133.09961 193.80078 133.09961 z "
   id="path43" />

</svg>