<svg width="248" height="40" viewBox="0 0 248 40" fill="none" xmlns="http://www.w3.org/2000/svg">
<path fill-rule="evenodd" clip-rule="evenodd" d="M17.0291 21.6373L12.4834 2.92082C12.3578 2.40879 12.1279 1.92817 11.8082 1.50898C11.4884 1.08979 11.0857 0.741043 10.6251 0.484519C10.1645 0.227995 9.65593 0.0692076 9.1312 0.0180765C8.60647 -0.0330546 8.07683 0.024569 7.57537 0.187348L2.65623 1.78648C2.15435 1.94855 1.69129 2.21241 1.29601 2.56157C0.900728 2.91072 0.581721 3.33766 0.358931 3.8157C0.136141 4.29374 0.0143579 4.81259 0.00119463 5.33983C-0.0119687 5.86707 0.0837709 6.39136 0.282428 6.87992L7.6141 24.6945C7.98024 25.5906 8.67153 26.3152 9.54941 26.7231C10.4273 27.131 11.4269 27.192 12.3479 26.894L14.492 26.1968C15.4126 25.8977 16.1859 25.2614 16.6565 24.4156C17.1271 23.5698 17.2602 22.5772 17.0291 21.6373ZM17.7124 39.7452C16.7241 40.0647 15.6632 40.0842 14.6638 39.8012C13.6643 39.5183 12.7711 38.9456 12.0969 38.1554C11.4227 37.3653 10.9976 36.3931 10.8755 35.3616C10.7533 34.3301 10.9395 33.2855 11.4104 32.3597C11.8814 31.4339 12.6162 30.6684 13.5219 30.1598C14.4275 29.6513 15.4636 29.4224 16.4993 29.5022C17.5349 29.5819 18.5237 29.9667 19.3409 30.608C20.158 31.2492 20.7669 32.1182 21.0905 33.1052C21.3063 33.7629 21.3899 34.4568 21.3368 35.1469C21.2837 35.8371 21.0947 36.51 20.7808 37.1269C20.467 37.7439 20.0343 38.2928 19.5078 38.7421C18.9812 39.1914 18.3711 39.5323 17.7124 39.7452ZM28.6325 34.9395C35.3776 32.7483 40.8224 24.9712 38.1139 16.6324C35.4025 8.29923 26.4274 5.20333 19.6823 7.39453C18.9251 7.63997 18.289 8.16311 17.9019 8.85865C17.5149 9.5542 17.4057 10.3705 17.5962 11.1434L18.2768 13.946C18.3808 14.3667 18.5702 14.7616 18.8333 15.1059C19.0965 15.4502 19.4277 15.7367 19.8064 15.9475C20.1851 16.1582 20.6031 16.2887 21.0344 16.3309C21.4657 16.3731 21.9011 16.326 22.3134 16.1925L22.5901 16.104C23.2575 15.8668 23.9656 15.7657 24.6727 15.8068C25.3798 15.8479 26.0715 16.0302 26.707 16.3431C27.3424 16.656 27.9087 17.093 28.3724 17.6284C28.8361 18.1638 29.1879 18.7867 29.4068 19.4603C29.6257 20.1339 29.7074 20.8446 29.6471 21.5503C29.5868 22.256 29.3856 22.9425 29.0555 23.5692C28.7254 24.1959 28.2731 24.75 27.7253 25.199C27.1774 25.6479 26.5451 25.9825 25.8658 26.183L25.5891 26.2715C25.1776 26.4061 24.7982 26.6241 24.4746 26.9119C24.1511 27.1997 23.8903 27.5511 23.7086 27.9441C23.5269 28.3371 23.4281 28.7634 23.4184 29.1963C23.4088 29.6292 23.4885 30.0595 23.6525 30.4602L24.7398 33.1329C25.0404 33.87 25.6089 34.4661 26.3311 34.8012C27.0532 35.1364 27.8754 35.1858 28.6325 34.9395Z" fill="#E31E52"/>
<path fill-rule="evenodd" clip-rule="evenodd" d="M59.0631 13.5171C62.6487 11.5971 67.0671 11.9484 70.0606 14.9392C72.9324 17.8165 72.9905 21.9527 72.9905 23.5795C72.9905 28.186 70.8629 32.0676 66.8125 33.2628C61.4203 34.9145 53.1618 33.4565 53.1618 33.4565C52.9786 33.4361 52.8093 33.3489 52.6863 33.2116C52.5634 33.0744 52.4952 32.8966 52.495 32.7123V7.25892C52.495 7.09822 52.5588 6.94411 52.6725 6.83048C52.7861 6.71685 52.9402 6.65302 53.1009 6.65302H58.1584C58.3191 6.65302 58.4732 6.71685 58.5868 6.83048C58.7005 6.94411 58.7643 7.09822 58.7643 7.25892V13.3456C58.7645 13.3805 58.7738 13.4147 58.7913 13.4448C58.8089 13.475 58.8341 13.5 58.8643 13.5174C58.8946 13.5347 58.9288 13.5439 58.9637 13.5438C58.9986 13.5438 59.0329 13.5346 59.0631 13.5171ZM59.0105 28.1058C60.5654 28.5429 63.6696 28.7089 65.4458 26.8635V26.8691C66.6631 25.6849 68.088 21.8559 65.2272 18.9951C64.021 17.7612 62.0456 17.0944 59.301 18.2398C59.1385 18.3175 59.0016 18.44 58.9065 18.593C58.8114 18.7459 58.762 18.9229 58.7643 19.103V27.7572C58.7618 27.8341 58.7846 27.9098 58.829 27.9727C58.8734 28.0356 58.9372 28.0823 59.0105 28.1058ZM146.639 7.27556V33.6032C146.64 33.7101 146.683 33.8124 146.758 33.888C146.834 33.9636 146.936 34.0064 147.043 34.0071H152.541C152.648 34.0071 152.751 33.9646 152.827 33.889C152.903 33.8133 152.946 33.7106 152.947 33.6032V7.27556C152.947 7.11486 152.883 6.96075 152.77 6.84712C152.656 6.73349 152.502 6.66966 152.341 6.66966H147.24C147.08 6.67112 146.927 6.7356 146.815 6.84907C146.702 6.96254 146.639 7.11582 146.639 7.27556ZM97.5198 29.3508C97.2107 29.3074 96.9175 29.1865 96.6677 28.9994C96.391 28.756 96.2443 28.3271 96.2139 27.6299V13.0634C96.2132 12.9235 96.1573 12.7895 96.0583 12.6906C95.9594 12.5916 95.8254 12.5357 95.6855 12.535H90.5007C90.3606 12.535 90.2262 12.5907 90.1271 12.6898C90.028 12.7889 89.9723 12.9233 89.9723 13.0634V26.5758C89.975 26.596 89.975 26.6165 89.9723 26.6367C89.4743 28.3963 87.4104 28.9275 85.7919 28.6536C83.4928 28.2663 82.5327 26.3351 82.6157 24.1107C82.6157 24.0333 82.6462 13.816 82.6517 13.0634C82.6517 12.9233 82.596 12.7889 82.4969 12.6898C82.3978 12.5907 82.2634 12.535 82.1233 12.535H76.9496C76.8107 12.535 76.6774 12.59 76.5789 12.688C76.4804 12.786 76.4247 12.9189 76.4239 13.0579C76.4239 15.2712 76.4073 25.9118 76.4073 25.9118C76.4073 27.5718 76.9275 32.9502 82.3335 33.9352C84.8761 34.3972 87.9001 33.581 90.343 31.8436C90.3655 31.8268 90.3912 31.8147 90.4184 31.8081C90.4457 31.8015 90.474 31.8005 90.5017 31.8051C90.5294 31.8098 90.5558 31.82 90.5794 31.8352C90.6031 31.8503 90.6233 31.8701 90.6391 31.8934C91.2276 32.7051 92.0649 33.3025 93.0239 33.5949C94.4506 34.064 96.3886 33.8748 96.974 33.8176L96.9886 33.8162C97.0805 33.8061 97.1662 33.7649 97.2316 33.6995C97.297 33.6342 97.3381 33.5484 97.3483 33.4565L97.8435 29.8156C97.862 29.7111 97.8384 29.6034 97.7777 29.5163C97.717 29.4292 97.6243 29.3697 97.5198 29.3508ZM201.245 21.4021C201.06 19.0311 200.326 16.5577 198.821 14.7621L198.781 14.7136L198.742 14.6674C198.123 13.9214 196.467 11.927 191.368 11.9429C189.279 11.9429 187.188 12.084 185.107 12.2832C183.917 12.3911 182.728 12.5128 181.541 12.6373C180.772 12.7181 180.774 13.1844 180.777 13.8118C180.777 13.8504 180.777 13.8896 180.777 13.9294V39.0563C180.762 39.1784 180.771 39.3025 180.803 39.4212C180.836 39.5399 180.892 39.651 180.968 39.7479C181.156 39.8833 181.388 39.9426 181.618 39.9139H186.172C186.284 39.9456 186.402 39.9474 186.515 39.9193C186.628 39.8911 186.732 39.8339 186.815 39.7534C186.899 39.6728 186.961 39.5717 186.993 39.4601C187.026 39.3485 187.029 39.2302 187.002 39.1171C187.013 37.6576 187.01 36.2176 187.006 34.7728C187.004 34.0486 187.002 33.3231 187.002 32.5933C187.002 32.5546 187.012 32.5165 187.033 32.4836C187.053 32.4507 187.082 32.4243 187.117 32.4077C187.152 32.3911 187.191 32.3849 187.23 32.3898C187.268 32.3948 187.305 32.4107 187.334 32.4356C189.149 34.0154 191.863 34.4525 194.193 33.7775C196.661 33.0692 198.708 31.1768 199.884 28.8888C201.06 26.6007 201.441 23.9696 201.245 21.4021ZM194.882 24.4289C194.361 26.4624 193.429 28.0256 190.629 28.1943C189.229 28.2746 187.005 27.4833 187.005 26.1802V18.3865C187.005 18.0877 187.038 17.8691 187.329 17.7391C187.929 17.4624 189.542 17.2383 190.779 17.277C196.102 17.4292 195.153 23.4246 194.895 24.4289H194.882ZM113.807 22.5144C113.364 23.1424 113.364 23.3554 113.779 23.942L121.117 33.3791C121.16 33.4396 121.186 33.5111 121.191 33.5854C121.196 33.6597 121.18 33.7339 121.144 33.7996C121.111 33.8664 121.06 33.9224 120.996 33.9611C120.933 33.9998 120.859 34.0196 120.785 34.0182H114.742C114.675 34.0179 114.61 34.0011 114.551 33.9692C114.492 33.9373 114.442 33.8915 114.405 33.8356L108.086 25.6407C108.047 25.5909 107.993 25.5543 107.933 25.5358C107.872 25.5172 107.808 25.5176 107.747 25.5369C107.687 25.5561 107.634 25.5934 107.596 25.6436C107.557 25.6938 107.535 25.7546 107.532 25.8178V33.6143C107.532 33.7216 107.488 33.8244 107.412 33.9C107.336 33.9757 107.233 34.0182 107.126 34.0182H101.67C101.563 34.0175 101.461 33.9747 101.385 33.8991C101.309 33.8235 101.267 33.7212 101.266 33.6143V7.27556C101.265 7.19529 101.28 7.11568 101.311 7.04135C101.341 6.96702 101.386 6.89944 101.442 6.84256C101.499 6.78567 101.566 6.7406 101.64 6.70997C101.715 6.67934 101.794 6.66376 101.875 6.66413H106.924C107.084 6.66413 107.238 6.72796 107.352 6.84159C107.466 6.95522 107.53 7.10933 107.53 7.27003V21.1034C107.532 21.1598 107.551 21.2143 107.585 21.2595C107.619 21.3048 107.665 21.3385 107.719 21.3563C107.773 21.3741 107.83 21.375 107.885 21.359C107.939 21.3429 107.987 21.3107 108.022 21.2666C109.239 19.6066 113.436 13.7247 114.109 12.7646C114.146 12.7107 114.195 12.6667 114.253 12.6363C114.311 12.6059 114.375 12.5901 114.441 12.5903H120.342C120.418 12.5884 120.493 12.6089 120.557 12.6492C120.622 12.6896 120.673 12.748 120.704 12.8172C120.739 12.8846 120.754 12.9608 120.747 13.0364C120.739 13.112 120.71 13.1839 120.663 13.2433L113.807 22.5144ZM240.449 23.942C240.036 23.3554 240.036 23.1424 240.479 22.5144L247.346 13.2433C247.392 13.1831 247.42 13.1115 247.427 13.0363C247.434 12.9611 247.421 12.8854 247.387 12.8176C247.354 12.7498 247.302 12.6927 247.238 12.6525C247.174 12.6124 247.101 12.5908 247.025 12.5903H241.113C241.047 12.5899 240.983 12.6056 240.925 12.636C240.867 12.6664 240.817 12.7106 240.781 12.7646C240.108 13.7247 235.911 19.6066 234.694 21.2666C234.659 21.3118 234.611 21.345 234.556 21.3617C234.502 21.3784 234.443 21.3777 234.389 21.3598C234.334 21.3419 234.287 21.3077 234.253 21.2618C234.219 21.2158 234.2 21.1605 234.199 21.1034V7.27002C234.199 7.19045 234.183 7.11166 234.153 7.03815C234.122 6.96464 234.078 6.89785 234.021 6.84158C233.965 6.78532 233.898 6.74069 233.825 6.71024C233.751 6.67979 233.672 6.66412 233.593 6.66412H228.533C228.453 6.66412 228.374 6.67979 228.301 6.71024C228.227 6.74069 228.16 6.78532 228.104 6.84158C228.048 6.89785 228.003 6.96464 227.973 7.03815C227.942 7.11166 227.927 7.19045 227.927 7.27002V33.6087C227.927 33.7161 227.971 33.8188 228.047 33.8945C228.123 33.9702 228.226 34.0126 228.333 34.0126H233.789C233.896 34.0119 233.999 33.9691 234.074 33.8935C234.15 33.8179 234.193 33.7156 234.193 33.6087V25.8178C234.198 25.7553 234.221 25.6956 234.259 25.6464C234.298 25.5971 234.35 25.5606 234.41 25.5415C234.469 25.5225 234.533 25.5217 234.593 25.5394C234.653 25.5571 234.707 25.5924 234.747 25.6407L241.066 33.8356C241.103 33.8913 241.153 33.937 241.212 33.9689C241.271 34.0007 241.336 34.0176 241.403 34.0182H247.448C247.523 34.019 247.596 33.9989 247.659 33.9603C247.723 33.9216 247.774 33.866 247.808 33.7996C247.843 33.7339 247.859 33.6594 247.854 33.5849C247.849 33.5104 247.822 33.439 247.778 33.3791L240.449 23.942ZM142.801 29.347L142.865 29.3618C142.966 29.3851 143.055 29.4457 143.113 29.5314C143.171 29.6171 143.194 29.7216 143.178 29.8239L142.677 33.4648C142.668 33.5559 142.628 33.6412 142.564 33.7062C142.499 33.7712 142.414 33.812 142.323 33.8217L142.227 33.8318C141.526 33.906 139.363 34.135 137.808 33.3957C137.071 33.0697 136.435 32.5507 135.968 31.8934C135.954 31.8709 135.936 31.8516 135.914 31.8365C135.892 31.8215 135.868 31.8111 135.842 31.8059C135.816 31.8007 135.789 31.8009 135.763 31.8064C135.737 31.8119 135.713 31.8227 135.692 31.838C134.9 32.408 131.45 34.6268 127.557 33.9075C126.424 33.7111 125.361 33.2219 124.475 32.4882C121.573 29.9982 121.38 24.6557 124.229 21.9942C124.944 21.3962 125.753 20.9195 126.622 20.5832C130.305 18.9868 135.312 19.2248 135.312 19.2248C135.368 18.2675 135.191 17.0446 132.806 16.8288C130.888 16.6175 127.344 17.2405 126.294 17.4252C126.203 17.4411 126.131 17.4538 126.08 17.4624C126.001 17.477 125.919 17.4756 125.841 17.4582C125.762 17.4408 125.687 17.4078 125.622 17.3611C125.556 17.3144 125.5 17.255 125.458 17.1864C125.415 17.1178 125.387 17.0414 125.375 16.9616L124.229 13.5559C124.216 13.4772 124.218 13.3966 124.236 13.3188C124.253 13.241 124.286 13.1674 124.333 13.1024C124.379 13.0373 124.438 12.9821 124.505 12.9398C124.573 12.8975 124.648 12.869 124.727 12.8559C125.817 12.6844 128.858 12.25 130.175 12.1089C136.913 11.309 138.976 13.5299 139.732 14.3435L139.733 14.3439C139.779 14.394 139.821 14.4388 139.858 14.4772C141.499 16.3142 141.609 18.9038 141.593 21.2361L141.549 27.3228C141.549 29.0616 142.143 29.197 142.801 29.347ZM134.969 27.8429C135.177 27.6298 135.295 27.344 135.296 27.0461V23.5103C135.296 23.139 134.292 23.2484 134.044 23.2755C134.014 23.2787 133.996 23.2807 133.99 23.2807C132.297 23.5103 131.096 23.8257 130.33 24.2241C129.356 24.7387 128.866 25.5162 128.866 26.5481C128.852 26.8994 128.92 27.2491 129.064 27.5697C129.208 27.8904 129.424 28.1733 129.696 28.3963C131.743 29.8571 134.305 28.5484 134.969 27.8429ZM177.014 29.3618L176.949 29.3469C176.294 29.1969 175.7 29.0611 175.7 27.3228L175.745 21.2361C175.761 18.9038 175.648 16.3142 174.01 14.4772C173.972 14.4382 173.929 14.3926 173.882 14.3415L173.882 14.3414C173.122 13.5261 171.056 11.3096 164.327 12.1089C163.01 12.25 159.969 12.6844 158.879 12.8559C158.721 12.8836 158.58 12.9728 158.487 13.1039C158.394 13.235 158.357 13.3975 158.384 13.5559L159.529 16.9616C159.541 17.0414 159.57 17.1178 159.612 17.1864C159.655 17.255 159.71 17.3144 159.776 17.3611C159.842 17.4078 159.916 17.4408 159.995 17.4582C160.074 17.4756 160.155 17.477 160.235 17.4624L160.281 17.454C161.033 17.3166 164.917 16.6068 166.952 16.8233C169.337 17.0391 169.514 18.262 169.461 19.2192C169.461 19.2192 164.451 18.9813 160.769 20.5777C159.903 20.9151 159.098 21.3917 158.387 21.9887C155.54 24.6502 155.73 29.9927 158.633 32.4827C159.519 33.2163 160.581 33.7056 161.715 33.902C165.61 34.6213 169.058 32.4024 169.849 31.8325C169.87 31.8172 169.895 31.8064 169.921 31.8009C169.946 31.7953 169.973 31.7952 169.999 31.8004C170.025 31.8055 170.05 31.816 170.071 31.831C170.093 31.8461 170.111 31.8654 170.125 31.8878C170.592 32.5451 171.228 33.0642 171.965 33.3901C173.52 34.1294 175.683 33.9005 176.384 33.8263L176.481 33.8162C176.572 33.8065 176.656 33.7657 176.721 33.7007C176.785 33.6357 176.826 33.5504 176.835 33.4593L177.349 29.8239C177.365 29.7185 177.338 29.6112 177.276 29.525C177.213 29.4387 177.119 29.3802 177.014 29.3618ZM169.459 27.0461C169.457 27.344 169.34 27.6298 169.132 27.8429C168.465 28.5484 165.904 29.8571 163.859 28.3963C163.587 28.1732 163.371 27.8902 163.227 27.5696C163.083 27.249 163.015 26.8994 163.029 26.5481C163.029 25.5162 163.519 24.7387 164.495 24.2241C165.262 23.8257 166.46 23.5103 168.153 23.2807C168.158 23.2807 168.177 23.2787 168.206 23.2755C168.455 23.2484 169.461 23.1389 169.461 23.5103L169.459 27.0461ZM224.061 29.347C224.082 29.3519 224.104 29.3569 224.125 29.3618C224.226 29.3844 224.315 29.4437 224.374 29.5281C224.433 29.6125 224.459 29.716 224.446 29.8183L223.945 33.4593C223.936 33.5504 223.896 33.6357 223.832 33.7007C223.767 33.7657 223.682 33.8065 223.591 33.8162C223.563 33.8191 223.53 33.8226 223.493 33.8265C222.788 33.9009 220.627 34.1288 219.076 33.3901C218.338 33.0649 217.703 32.5457 217.236 31.8878C217.222 31.8657 217.204 31.8467 217.182 31.8318C217.16 31.817 217.136 31.8067 217.11 31.8016C217.084 31.7964 217.057 31.7965 217.032 31.8018C217.006 31.8071 216.981 31.8175 216.96 31.8325C216.168 32.4024 212.718 34.6213 208.826 33.902C207.692 33.7062 206.629 33.2169 205.744 32.4827C202.841 29.9927 202.648 24.6502 205.497 21.9887C206.209 21.3917 207.014 20.9151 207.879 20.5777C211.562 18.9813 216.57 19.2192 216.57 19.2192C216.622 18.262 216.448 17.0391 214.063 16.8233C212.017 16.6059 208.108 17.3227 207.382 17.4558L207.345 17.4624C207.266 17.4771 207.184 17.4757 207.105 17.4583C207.027 17.4409 206.952 17.4079 206.886 17.3613C206.82 17.3146 206.764 17.2552 206.721 17.1866C206.678 17.118 206.65 17.0415 206.637 16.9616L205.492 13.5559C205.466 13.3972 205.504 13.2347 205.597 13.1037C205.69 12.9727 205.831 12.8837 205.99 12.8559C207.077 12.6844 210.12 12.25 211.435 12.1089C218.173 11.309 220.236 13.5299 220.992 14.3435C221.039 14.3938 221.08 14.4387 221.118 14.4772C222.756 16.3142 222.869 18.9038 222.853 21.2361L222.808 27.3228C222.808 29.0616 223.403 29.197 224.061 29.347ZM216.24 27.8429C216.448 27.6298 216.565 27.344 216.567 27.0461V23.5103C216.567 23.139 215.563 23.2484 215.314 23.2755C215.285 23.2787 215.266 23.2807 215.261 23.2807C213.565 23.5103 212.367 23.8257 211.601 24.2241C210.624 24.7387 210.137 25.5162 210.137 26.5481C210.123 26.8994 210.191 27.2491 210.335 27.5697C210.479 27.8904 210.695 28.1733 210.967 28.3963C213.014 29.8571 215.574 28.5484 216.24 27.8429Z" fill="#303330"/>
</svg>