<svg id="puff-logo" data-name="logo" width="111.1761" height="41.4642" viewBox="0 0 91 30" transform="translate(-0.0001 0.0001)" stroke="#00a4ff" fill="transparent" xmlns="http://www.w3.org/2000/svg" class="sticky-header__gopuff-logo"><path d="M62.9363 7.39392V16.2206C62.9363 18.5024 62.2111 19.8644 60.4953 19.8644C58.7972 19.8644 58.0543 18.5024 58.0543 16.2206V7.39392H53.2076V16.5567C53.2076 21.3503 56.1262 23.3314 60.4953 23.3314C64.1038 23.3314 67.783 21.3503 67.783 16.5567V7.39392H62.9363Z" class="puff-logo-path"></path><path d="M25.9846 7.04004C20.9787 7.04004 17.6533 10.2771 17.6533 15.3007C17.6533 20.3419 21.1733 23.3313 25.7016 23.3313C29.8761 23.3313 33.9268 20.7311 33.9268 15.0353C33.9268 10.3301 30.7606 7.04004 25.9846 7.04004ZM25.8431 19.882C23.7735 19.882 22.6592 17.8655 22.6592 15.1945C22.6592 12.8773 23.5436 10.507 25.8608 10.507C28.0542 10.507 28.9386 12.8773 28.9386 15.1768C28.9386 17.9893 27.7358 19.882 25.8431 19.882Z" class="puff-logo-path"></path><path d="M14.204 6.29712C12.5767 7.41151 12.1521 9.10962 12.1521 9.10962C11.2677 7.99523 9.44575 7.1108 7.30542 7.1108C3.73231 7.1108 0 10.2948 0 15.3183C0 19.7759 3.14858 23.2075 7.30542 23.2075C9.02123 23.2075 10.1887 22.783 11.1085 21.8632C11.1085 21.8632 11.1085 22.0754 11.1085 22.1992C11.1085 25.0294 9.35731 26.303 7.05778 26.303C4.81132 26.303 3.21934 25.5601 2.22877 24.9941L1.27358 28.6733C2.56486 29.3455 5.12972 29.9999 7.1816 29.9999C9.48113 29.9999 11.7983 29.5577 13.4965 28.0896C15.2653 26.533 15.8667 24.0742 15.8667 21.0849V14.1863C15.9021 11.7983 16.7512 10.1179 17.7948 8.93273L14.204 6.29712ZM8.18986 19.9351C6.12028 19.9351 5.0059 17.9186 5.0059 15.2476C5.0059 12.9304 5.89033 10.5601 8.20755 10.5601C10.3833 10.5778 11.2677 12.9304 11.2677 15.2299C11.2677 18.0424 10.0825 19.9351 8.18986 19.9351Z" class="puff-logo-path"></path><path d="M43.5672 7.04004C38.3668 7.04004 35.5366 10.4893 35.5366 15.5837V29.6639H40.3833V21.9516C41.25 22.8537 42.6297 23.349 44.487 23.349C47.954 23.349 51.5802 20.678 51.5802 14.9999C51.5802 10.0117 48.2901 7.04004 43.5672 7.04004ZM43.5495 19.882C41.48 19.882 40.3656 17.8655 40.3656 15.1945C40.3656 12.8773 41.25 10.507 43.5672 10.507C45.7606 10.507 46.6451 12.8773 46.6451 15.1768C46.6274 17.9893 45.4422 19.882 43.5495 19.882Z" class="puff-logo-path"></path><path d="M90.5 4.0684V0.353774C89.8278 0.159198 88.9965 0.0176887 87.9351 0.0176887C86.52 0.0176887 84.8396 0.424528 83.6191 1.57429C82.2394 2.86557 81.6557 4.93514 81.6557 6.79245V7.37618H76.6498V6.58019C76.579 2.8125 80.2583 3.9092 80.6828 4.05071V0.336085C80.0106 0.141509 79.1792 0 78.1179 0C76.7028 0 75.0224 0.40684 73.8019 1.5566C72.4222 2.84788 71.8384 4.91745 71.8384 6.77476V7.35849H69.7689V10.9316H71.8384V22.9776C71.8384 26.2854 69.5389 25.8078 68.513 25.6486L68 29.2217C68.4953 29.4163 69.2736 29.6108 70.0696 29.6108C72.263 29.6285 73.8196 28.9564 74.8632 27.9304C76.1722 26.6392 76.6675 24.7818 76.6675 22.9422L76.7028 10.9316H81.6733V22.9776C81.7441 26.4623 79.02 25.7547 78.3479 25.6486L77.8349 29.2217C78.3302 29.4163 79.1085 29.6108 79.9045 29.6108C82.0979 29.6285 83.6545 28.9564 84.6981 27.9304C86.0071 26.6392 86.5024 24.7818 86.5024 22.9422L86.5377 10.9316H90.5177V7.39387H86.4847V6.59788C86.5377 2.79481 90.0755 3.94458 90.5 4.0684Z" class="puff-logo-path"></path></svg>
