<?xml version="1.0" encoding="utf-8"?>
<!-- Generator: Adobe Illustrator 18.1.1, SVG Export Plug-In . SVG Version: 6.00 Build 0)  -->
<svg version="1.1" id="Layer_1" xmlns="http://www.w3.org/2000/svg" xmlns:xlink="http://www.w3.org/1999/xlink" x="0px" y="0px"
	 width="83px" height="22px" viewBox="0 0 83 22" enable-background="new 0 0 83 22" xml:space="preserve">
<rect fill="#52C7F3" width="7" height="22"/>
<polygon fill="#52C7F3" points="9,0 9,7.1 9,9.3 9,16.9 9,22 16,22 16,16 23,16 23,9 16,9 16,7 26,7 26,0 16.4,0 "/>
<polygon fill="#52C7F3" points="32.8,0 28,0 28,7 33,7 33,22 40,22 40,7 45,7 45,0 40.4,0 "/>
<polygon fill="#52C7F3" points="51.8,0 47,0 47,7 52,7 52,22 59,22 59,7 64,7 64,0 59.4,0 "/>
<polygon fill="#52C7F3" points="70.8,0 66,0 66,7 71,7 71,22 78,22 78,7 83,7 83,0 78.4,0 "/>
</svg>
