<?xml version="1.0" encoding="UTF-8" standalone="no"?>
<svg width="125px" height="25px" viewBox="0 0 125 25" version="1.1" xmlns="http://www.w3.org/2000/svg" xmlns:xlink="http://www.w3.org/1999/xlink">
    <!-- Generator: Sketch 3.8.3 (29802) - http://www.bohemiancoding.com/sketch -->
    <title>instacart-logo-wordmark</title>
    <desc>Created with Sketch.</desc>
    <defs/>
    <g id="Page-1" stroke="none" stroke-width="1" fill="none" fill-rule="evenodd">
        <g id="SVT-instacart-Landing-page" transform="translate(-570.000000, -682.000000)">
            <g id="instacart-logo-wordmark" transform="translate(570.000000, 682.000000)">
                <g id="new">
                    <g id="Logo">
                        <path d="M14.9192435,10.0309517 C16.3927673,11.5116614 17.597482,13.936111 16.9078905,15.3764179 C15.0635029,19.2285893 1.30296902,25.9839762 0.133930115,24.8150122 C-1.03503818,23.645969 5.72553746,9.88031628 9.57771326,8.03593804 C11.0182176,7.34617075 13.4430814,8.55139481 14.9238084,10.0252003 C14.9238084,10.0252003 14.9222687,10.0271354 14.9192435,10.0309517 L14.9192435,10.0309517 L14.9192435,10.0309517 Z" id="Carrot_2_" fill="#FF8200"/>
                        <path d="M22.2093566,8.40469957 C22.2094532,8.40464697 22.2094971,8.40462032 22.2094971,8.40462032 C21.9698948,7.51858141 21.3592089,6.62345821 20.4475778,6.51742003 C18.7756895,6.32294308 16.1400526,9.27891787 16.3281182,9.980567 C16.5161138,10.6822248 20.2394078,11.9188732 21.6303141,10.9192334 C22.3472486,10.4039878 22.4480886,9.2910281 22.2126016,8.40382853 L22.2093566,8.40469957 L22.2093566,8.40469957 L22.2093566,8.40469957 Z M17.0346484,0.214889769 C18.2767932,0.550979107 19.5314352,1.40710663 19.6800389,2.68507205 C19.9526571,5.02912968 15.808255,8.72430692 14.8245425,8.46070389 C13.8407594,8.19710086 12.1069481,2.97686239 13.5084524,1.02672767 C14.230866,0.0216087896 15.791317,-0.119818444 17.0351765,0.210395533 C17.0351758,0.210395533 17.035,0.211907781 17.0346484,0.214889769 L17.0346484,0.214889769 L17.0346484,0.214889769 Z" id="Leaves_2_" fill="#43B02A"/>
                    </g>
                    <g id="Logotype" transform="translate(29.322767, 4.466859)" fill="#43B02A">
                        <path d="M24.7392903,9.62415346 L23.5084733,9.43758285 C22.3356225,9.26448559 21.6566808,8.88483646 21.6566808,8.19308141 C21.6566808,7.40001153 22.540371,6.90738545 23.8469633,6.90738545 C24.770951,6.90738545 25.5230908,7.25371182 26.2430591,7.62043228 L26.3862896,7.69313833 C26.5525973,7.77750576 26.7309539,7.82020389 26.9163631,7.82020389 C27.343732,7.82020389 27.7372507,7.58812104 27.9434337,7.21447839 L28.0439661,7.03278026 C28.2033437,6.74376945 28.2373264,6.41076729 28.1392305,6.0953451 C28.0416448,5.78081196 27.8259813,5.52667147 27.532353,5.37946614 C26.4833573,4.85414193 25.3456499,4.3826585 23.846964,4.3826585 C20.7147349,4.3826585 18.6968984,5.89505548 18.6968984,8.32963689 C18.6968984,10.3279928 20.1330014,11.5807442 22.8506924,11.9524604 L24.0924063,12.1140187 C25.404513,12.2981441 26.0424359,12.6864121 26.0424359,13.3012406 C26.0424359,13.8692637 25.7353429,14.6243754 23.7028725,14.6243754 C22.5824553,14.6243754 21.4447651,14.3399726 20.5211643,13.754897 C20.3369157,13.6382089 20.1241895,13.5765403 19.9063451,13.5765403 C19.5009013,13.5765403 19.1159841,13.7916938 18.9018509,14.1382752 L18.8328653,14.250214 C18.6610346,14.528214 18.609366,14.869281 18.6910418,15.1859957 C18.7726037,15.5020677 18.9728768,15.7633847 19.2548343,15.9219971 C20.8651952,16.8275159 22.7238912,17.1488386 23.7028725,17.1488386 C26.9682097,17.1488386 28.9897659,15.7174676 28.9897659,13.1992839 C28.9897644,11.1841297 27.5594395,10.0290785 24.7392903,9.62415346 L24.7392903,9.62415346 Z" id="Shape"/>
                        <path d="M62.7086275,14.0224928 C62.4729474,13.7593818 62.1347039,13.6084654 61.7808055,13.6084654 C61.5418012,13.6084654 61.3084251,13.6765454 61.1055843,13.8054135 C60.4411275,14.2271369 59.712822,14.4501174 58.9991153,14.4501174 C57.0370461,14.4501174 55.6130007,12.9006686 55.6130007,10.7657486 C55.6130007,8.63082853 57.0370461,7.08125648 58.9991153,7.08125648 C59.7523105,7.08125648 60.4262471,7.28589986 61.0594121,7.70711311 C61.5497334,8.03305331 62.2542061,7.94958285 62.6570735,7.51926729 L62.7617125,7.40796182 C63.0379013,7.11318156 63.1692061,6.71350648 63.1222774,6.31178242 C63.0763689,5.91711167 62.8614618,5.56577305 62.5329625,5.34806052 C61.5682024,4.70834366 60.3721419,4.37022262 59.0737464,4.37022262 C55.3080886,4.37022262 52.6779654,7.0002219 52.6779654,10.7657486 C52.6779654,14.5314157 55.3080879,17.1613977 59.0737464,17.1613977 C60.3772601,17.1613977 61.580005,16.8163559 62.5519409,16.1636931 C62.8763422,15.945585 63.0904748,15.5970778 63.1391974,15.2074114 C63.1881664,14.8145353 63.0650756,14.4203746 62.8011996,14.1258401 L62.7086275,14.0224928 L62.7086275,14.0224928 Z" id="Shape"/>
                        <path d="M1.76563977,0.0430763689 C0.785489193,0.0430763689 0.0178270893,0.820615274 0.0178270893,1.81320173 C0.0178270893,2.80962248 0.769210375,3.56100576 1.76563977,3.56100576 C2.75820893,3.56100576 3.53562392,2.79333501 3.53562392,1.81320173 C3.53562392,0.820615274 2.75820893,0.0430763689 1.76563977,0.0430763689 L1.76563977,0.0430763689 Z" id="Shape"/>
                        <path d="M2.29469308,4.47378026 L1.26355043,4.47378026 C0.758409942,4.47378026 0.348920029,4.88327017 0.348920029,5.38840202 L0.348920029,15.9356023 C0.348920029,16.4409366 0.758577089,16.8505929 1.26390202,16.8505929 L2.29433213,16.8505929 C2.79966643,16.8505929 3.20932277,16.4409359 3.20932277,15.9356023 L3.20932277,5.38840202 C3.20932349,4.88327017 2.79982493,4.47378026 2.29469308,4.47378026 L2.29469308,4.47378026 Z" id="Shape"/>
                        <path d="M36.144562,14.3952824 C34.9875151,14.3907968 33.6427803,13.4839589 33.6427803,11.8963148 L33.6427803,7.13892363 L36.1531542,7.13892363 C36.6584885,7.13892363 37.0681362,6.72927594 37.0681362,6.22394164 L37.0681362,5.3887889 C37.0681362,4.88344597 36.6584885,4.47379827 36.1531542,4.47379827 L33.6427803,4.47379827 L33.6427803,1.72826297 C33.6427803,1.22292003 33.2331326,0.813272334 32.7277983,0.813272334 L31.6400094,0.813272334 C31.1346837,0.813272334 30.7250274,1.22292003 30.7250274,1.72826297 L30.7250274,11.7259798 C30.7250274,14.6039899 32.9090303,17.1488393 35.933384,17.1488393 L35.9344215,17.1488393 C36.2362817,17.1488393 36.5206844,17.0305944 36.7352839,16.8159957 C36.9498919,16.6013876 37.0681369,16.3169849 37.0681369,16.0151427 L37.0681455,15.3102572 C37.0681455,14.8022392 36.6525785,14.3972522 36.144562,14.3952824 L36.144562,14.3952824 Z" id="Shape"/>
                        <path d="M11.1600058,4.37022262 C7.49957637,4.37022262 5.45838977,7.2977111 5.45838977,9.80307277 L5.45838977,15.9356023 C5.45838977,16.4409366 5.86804683,16.8505929 6.37337176,16.8505929 L7.41625504,16.8505929 C7.92158934,16.8505929 8.33124568,16.4409359 8.33124568,15.9356023 L8.33124568,10.2633869 C8.33124568,8.36427017 9.48194308,7.10625144 11.160005,7.10625144 C12.838067,7.10625144 13.9887644,8.36427017 13.9887644,10.2633869 L13.9887644,15.9356023 C13.9887644,16.4409366 14.3984215,16.8505929 14.9037464,16.8505929 L15.9466297,16.8505929 C16.451964,16.8505929 16.8616203,16.4409359 16.8616203,15.9356023 L16.8616203,9.80307277 C16.8616218,7.29771182 14.8204265,4.37022262 11.1600058,4.37022262 L11.1600058,4.37022262 Z" id="Shape"/>
                        <path d="M86.4506001,4.49729755 C86.0541354,4.41061744 85.0590865,4.37022334 84.5441398,4.37022334 C84.4976686,4.37022334 84.4520944,4.37188545 84.4071535,4.37188545 C81.5727125,4.37188545 78.9563098,6.68241787 78.9563098,9.86704611 C78.9560461,9.86965778 78.9554301,9.87269236 78.9554301,9.8750317 L78.9554301,9.93498487 L78.9554301,15.9356023 C78.9554301,16.4409366 79.3650872,16.8505929 79.8704121,16.8505929 L80.913304,16.8505929 C81.4186297,16.8505929 81.828286,16.4409359 81.828286,15.9356023 L81.828286,9.97188689 C81.828286,8.23812752 83.0660159,7.10800144 84.5828012,7.10800144 C84.8605202,7.11234582 85.158572,7.14354107 85.4504503,7.20126945 C85.5299546,7.21691499 85.6110065,7.22485663 85.6912493,7.22485663 C86.269799,7.22485663 86.771237,6.82529611 86.9068163,6.26254179 C86.9812543,5.95352305 87.0360101,5.72332133 87.0876001,5.51320749 C87.1391902,5.30309366 87.1040108,5.06481052 86.9834885,4.87222406 C86.8627017,4.67910951 86.6734395,4.54588761 86.4506001,4.49729755 L86.4506001,4.49729755 Z" id="Shape"/>
                        <path d="M94.0994308,7.13892363 C94.6047738,7.13892363 95.0144308,6.72927594 95.0144308,6.22394164 L95.0144308,5.3887889 C95.0144308,4.88344597 94.6047738,4.47379827 94.0994308,4.47379827 L91.5890742,4.47379827 L91.5890742,1.72826297 C91.5890742,1.22292003 91.1794171,0.813272334 90.6740742,0.813272334 L89.5862939,0.813272334 C89.0809683,0.813272334 88.671312,1.22292003 88.671312,1.72826297 L88.671312,11.7259798 C88.671312,14.6039899 90.8553148,17.1488393 93.8796686,17.1488393 L93.8807061,17.1488393 C94.1825749,17.1488393 94.4669777,17.0305944 94.6815684,16.8159957 C94.8961765,16.6013876 95.0144301,16.3169849 95.0144301,16.0151427 L95.0144301,15.3102572 C95.0144301,14.8022406 94.5988631,14.3972536 94.0908465,14.3952839 C92.9337997,14.3907983 91.5890735,13.4839604 91.5890735,11.8963163 L91.5890735,7.13892507 L94.0994308,7.13892507 L94.0994308,7.13892363 Z" id="Shape"/>
                        <path d="M74.1968689,5.35156052 C74.1952327,5.35046974 74.1938084,5.34914193 74.1921549,5.34806052 C73.2274128,4.70835231 72.0313523,4.37022262 70.7329568,4.37022262 C70.7103372,4.37022262 70.6882976,4.37150648 70.6657651,4.37170029 C70.6432334,4.37150648 70.6211758,4.37022262 70.5985735,4.37022262 C69.300178,4.37022262 68.1041174,4.70835231 67.1393754,5.34806052 C67.1377392,5.34914193 67.1363148,5.35046182 67.1346967,5.35154323 C65.397763,6.44452089 64.3371758,8.37575576 64.3371758,10.7657486 C64.3371758,13.2694121 65.5007659,15.2698091 67.3867875,16.3302464 C68.2661333,16.8493004 69.3100807,17.1587767 70.4352738,17.1595857 C72.4903999,17.1610634 73.7312428,15.9966816 74.1214978,15.4883833 L74.1214978,15.9265965 C74.1214978,16.4319308 74.5311549,16.8415872 75.0364798,16.8415872 L76.0793718,16.8415872 C76.5846974,16.8415872 76.9943537,16.4319301 76.9943537,15.9265965 L76.9943537,10.7657399 C76.9943545,8.37576513 75.9337853,6.4445389 74.1968689,5.35156052 L74.1968689,5.35156052 Z M71.8150728,14.2582435 C71.4809445,14.3687925 71.1407133,14.4327918 70.8024697,14.4469251 C70.7777392,14.4477954 70.7529207,14.4483941 70.7280137,14.448763 C70.7072759,14.4491852 70.6864849,14.449933 70.6657651,14.4499769 C70.6450447,14.449933 70.6242543,14.4491852 70.6034986,14.448763 C70.5785922,14.4483934 70.5537731,14.4477954 70.5290605,14.4469251 C70.190817,14.4327918 69.850585,14.3687932 69.5164575,14.2582435 C68.1677918,13.7820288 67.2722104,12.4583487 67.2722104,10.7657486 C67.2722104,8.76700576 68.5204582,7.28147695 70.2897565,7.10008646 C70.2990785,7.09918084 70.3084719,7.09845965 70.3178112,7.09761527 C70.3577565,7.09384222 70.3980893,7.09101081 70.4385447,7.08857421 C70.4613754,7.08723775 70.4842421,7.08593588 70.5072133,7.08498631 C70.5462442,7.08338545 70.5855036,7.08243588 70.6249921,7.08208429 C70.6386059,7.08192579 70.6520973,7.08140706 70.6657644,7.0813804 C70.6794316,7.08140706 70.6929222,7.08192579 70.7065367,7.08208429 C70.7460252,7.08243588 70.7852846,7.08338617 70.8243156,7.08498631 C70.8472875,7.08593588 70.8701362,7.08723775 70.8929669,7.08857421 C70.9334402,7.09101009 70.973755,7.09384222 71.0137183,7.09761527 C71.0230584,7.09845965 71.032451,7.09918084 71.0417731,7.10008646 C72.8110713,7.28147695 74.0593192,8.76700576 74.0593192,10.7657486 C74.0593199,12.4583487 73.1637392,13.7820288 71.8150728,14.2582435 L71.8150728,14.2582435 Z" id="Shape"/>
                        <path d="M48.1658321,5.35156052 C48.164196,5.35046974 48.1627716,5.34914193 48.1611354,5.34806052 C47.1963754,4.70835231 46.0003148,4.37022262 44.7019193,4.37022262 C44.679317,4.37022262 44.6572601,4.37150648 44.6347277,4.37170029 C44.612196,4.37150648 44.5901383,4.37022262 44.567536,4.37022262 C43.2691405,4.37022262 42.07308,4.70835231 41.1083379,5.34806052 C41.1067017,5.34914193 41.1052774,5.35046182 41.1036592,5.35154323 C39.3667255,6.44452089 38.3061383,8.37575576 38.3061383,10.7657486 C38.3061383,13.2694121 39.4697284,15.2698091 41.35575,16.3302464 C42.2351045,16.8493004 43.2790432,17.1587767 44.4042363,17.1595857 C46.4593624,17.1610634 47.700214,15.9966816 48.0904604,15.4883833 L48.0904604,15.9265965 C48.0904604,16.4319308 48.5001174,16.8415872 49.005451,16.8415872 L50.0483343,16.8415872 C50.5536686,16.8415872 50.9633163,16.4319301 50.9633163,15.9265965 L50.9633163,10.7657399 C50.9633177,8.37576513 49.9027486,6.4445389 48.1658321,5.35156052 L48.1658321,5.35156052 Z M45.784036,14.2582435 C45.4499078,14.3687925 45.1096765,14.4327918 44.771433,14.4469251 C44.7467197,14.4477954 44.721884,14.4483941 44.6969769,14.448763 C44.6762392,14.4491852 44.6554661,14.449933 44.6347284,14.4499769 C44.6140079,14.449933 44.5932176,14.4491852 44.5724798,14.448763 C44.5475735,14.4483934 44.522737,14.4477954 44.4980238,14.4469251 C44.1597803,14.4327918 43.8195483,14.3687932 43.4854207,14.2582435 C42.1367723,13.7820288 41.2411736,12.4583487 41.2411736,10.7657486 C41.2411736,8.76700576 42.4894215,7.28147695 44.2587197,7.10008646 C44.2680418,7.09918084 44.2774352,7.09845965 44.2867745,7.09761527 C44.3267197,7.09384222 44.3670526,7.09101081 44.4075259,7.08857421 C44.4303566,7.08723775 44.4532053,7.08593588 44.4761772,7.08498631 C44.5152082,7.08338545 44.5544676,7.08243588 44.5939561,7.08208429 C44.6075699,7.08192579 44.6210612,7.08140706 44.6347284,7.0813804 C44.6483955,7.08140706 44.6618862,7.08192579 44.6755007,7.08208429 C44.7149892,7.08243588 44.7542486,7.08338617 44.7932795,7.08498631 C44.8162514,7.08593588 44.8391001,7.08723775 44.8619308,7.08857421 C44.9024042,7.09101009 44.9427363,7.09384222 44.9826823,7.09761527 C44.9920223,7.09845965 45.001415,7.09918084 45.010737,7.10008646 C46.7800353,7.28147695 48.0282831,8.76700576 48.0282831,10.7657486 C48.0282831,12.4583487 47.1327017,13.7820288 45.784036,14.2582435 L45.784036,14.2582435 Z" id="Shape"/>
                    </g>
                </g>
            </g>
        </g>
    </g>
</svg>