<svg xmlns="http://www.w3.org/2000/svg" class="header__svg-logo header__svg-logo" viewBox="0 0 443.43 98.26" preserveAspectRatio="xMinYMin meet" width="195.18" height="35" xmlns:xlink="http://www.w3.org/1999/xlink"> <defs> <style> .logo__text__fill{fill:#253858;} .header__svg-logo__icon--path--3{fill:#2684ff;} .header__svg-logo__icon--path--4{fill:url(#logo-gradient);} </style> <linearGradient id="logo-gradient" gradientUnits="userSpaceOnUse" x1="64.01" y1="65.26" x2="32.99" y2="89.48"> <stop stop-color="rgb(0, 82, 204)" offset="0.18" /> <stop stop-color="rgb(38, 132, 255)" offset="1" /> </linearGradient> </defs> <title>Bitbucket logo</title> <g class="header__svg-logo__icon"> <path class="header__svg-logo__icon--path--3" d="M 2 41.25 a 2 2 0 0 0 -2 2.32 L 8.49 95.11 a 2.72 2.72 0 0 0 2.66 2.27 H 51.88 a 2 2 0 0 0 2 -1.68 l 8.51 -52.11 a 2 2 0 0 0 -2 -2.32 Z M 37.75 78.5 h -13 L 21.23 60.12 H 40.9 Z" /> <path class="header__svg-logo__icon--path--4" d="M 59.67 60.12 H 40.9 L 37.75 78.5 h -13 L 9.4 96.73 a 2.71 2.71 0 0 0 1.75 0.66 H 51.89 a 2 2 0 0 0 2 -1.68 Z" /> </g> <g class="header__svg-logo__atlassian svg-hide-on-stuck"> <path class="logo__text__fill" d="M 160.49 5.22 c 0 2.6 1.21 4.66 5.92 5.57 c 2.81 0.59 3.4 1 3.4 2 s -0.59 1.5 -2.57 1.5 a 14.51 14.51 0 0 1 -6.83 -1.85 v 4.23 a 14 14 0 0 0 6.78 1.47 c 4.93 0 6.88 -2.2 6.88 -5.46 m 0 0 c 0 -3.08 -1.63 -4.53 -6.24 -5.52 c -2.54 -0.56 -3.16 -1.12 -3.16 -1.93 c 0 -1 0.91 -1.45 2.6 -1.45 a 14.63 14.63 0 0 1 5.95 1.47 v -4 A 13.44 13.44 0 0 0 167.39 0 c -4.55 0 -6.91 2 -6.91 5.22" /> <polygon class="logo__text__fill" points="223.79,0.27 223.79,17.86 227.54,17.86 227.54,4.45 229.12,8.01 234.43,17.86 239.14,17.86 239.14,0.27 235.39,0.27 235.39,11.62 233.97,8.33 229.71,0.27 223.79,0.27" /> <rect class="logo__text__fill" x="195.85" y="0.27" width="4.1" height="17.6" /> <path class="logo__text__fill" d="M 191.12 12.67 c 0 -3.08 -1.63 -4.53 -6.24 -5.52 c -2.54 -0.56 -3.16 -1.12 -3.16 -1.93 c 0 -1 0.91 -1.45 2.6 -1.45 a 14.63 14.63 0 0 1 5.95 1.47 v -4 A 13.44 13.44 0 0 0 184.45 0 c -4.55 0 -6.91 2 -6.91 5.22 c 0 2.6 1.21 4.66 5.92 5.57 c 2.81 0.59 3.4 1 3.4 2 s -0.59 1.5 -2.57 1.5 a 14.51 14.51 0 0 1 -6.83 -1.85 v 4.23 a 14 14 0 0 0 6.78 1.47 c 4.93 0 6.88 -2.2 6.88 -5.46" /> <polygon class="logo__text__fill" points="128.65,0.27 128.65,17.86 137.08,17.86 138.4,14.06 132.78,14.06 132.78,0.27 128.65,0.27" /><polygon class="logo__text__fill" points="112.01,0.27 112.01,4.07 116.57,4.07 116.57,17.86 120.69,17.86 120.69,4.07 125.56,4.07 125.56,0.27 112.01,0.27" /> <path class="logo__text__fill" d="M 106 0.27 h -5.4 l -6.14 17.6 h 4.69 l 0.87 -3 a 11.65 11.65 0 0 0 6.56 0 l 0.87 3 h 4.69 Z m -2.7 11.46 a 8 8 0 0 1 -2.25 -0.32 l 2.25 -7.68 l 2.25 7.68 A 8 8 0 0 1 103.33 11.73 Z" /> <path class="logo__text__fill" d="M 151.6 0.27 h -5.4 l -6.14 17.6 h 4.69 l 0.87 -3 a 11.65 11.65 0 0 0 6.56 0 l 0.87 3 h 4.69 Z m -2.7 11.46 a 8 8 0 0 1 -2.25 -0.32 l 2.25 -7.68 l 2.25 7.68 A 8 8 0 0 1 148.89 11.73 Z" /> <path class="logo__text__fill" d="M 214.71 0.27 h -5.4 l -6.14 17.6 h 4.69 l 0.87 -3 a 11.65 11.65 0 0 0 6.56 0 l 0.87 3 h 4.69 Z M 212 11.73 a 8 8 0 0 1 -2.25 -0.32 L 212 3.72 l 2.25 7.68 A 8 8 0 0 1 212 11.73 Z" /> </g> <g class="header__svg-logo__text"> <path class="logo__text__fill" d="M 116.87 39.57 c 11.79 0 17.51 5.81 17.51 15.14 c 0 7 -3.17 11.26 -9.68 12.85 c 8.54 1.41 12.76 6.07 12.76 14.26 c 0 9.24 -6.25 15.58 -19.18 15.58 H 94.43 V 39.57 Z m -14.52 7.57 V 64.38 h 13.46 c 7.48 0 10.56 -3.43 10.56 -9 s -3.34 -8.27 -10.56 -8.27 Z m 0 24.29 v 18 h 16.19 c 7.57 0 11 -2.73 11 -8.54 c 0 -6.16 -3.26 -9.5 -11.17 -9.5 Z" /> <path class="logo__text__fill" d="M 150.4 36.49 a 4.94 4.94 0 0 1 5.28 5.28 a 5.28 5.28 0 0 1 -10.56 0 A 4.94 4.94 0 0 1 150.4 36.49 Z m -3.87 16.89 h 7.57 v 44 h -7.57 Z" /><path class="logo__text__fill" d="M 183 90 a 24 24 0 0 0 4.75 -0.62 v 7.3 a 18.19 18.19 0 0 1 -5.1 0.7 c -9.42 0 -14 -5.54 -14 -13.73 V 60.42 h -7.13 v -7 h 7.13 V 44.06 H 176 v 9.33 h 11.7 v 7 H 176 V 83.48 C 176 87.35 178.29 90 183 90 Z" /> <path class="logo__text__fill" d="M 218.95 98.26 c -6.42 0 -11.35 -2.9 -14 -8.62 v 7.74 h -7.57 V 35 H 205 V 61.3 c 2.82 -5.81 8.1 -8.8 14.87 -8.8 c 11.7 0 17.6 9.94 17.6 22.88 C 237.43 87.79 231.27 98.26 218.95 98.26 Z M 217.8 59.54 C 211 59.54 205 63.86 205 73.62 v 3.52 c 0 9.77 5.54 14.08 12 14.08 c 8.54 0 12.94 -5.63 12.94 -15.84 C 229.86 64.82 225.64 59.54 217.8 59.54 Z" /> <path class="logo__text__fill" d="M 245.35 53.38 h 7.57 V 80 c 0 7.92 3.17 11.44 10.38 11.44 c 7 0 11.88 -4.66 11.88 -13.55 V 53.38 h 7.57 v 44 h -7.57 V 90.17 a 15.43 15.43 0 0 1 -13.9 8.1 c -10.12 0 -15.93 -7 -15.93 -19.1 Z" /> <path class="logo__text__fill" d="M 325.25 96.24 c -2.64 1.41 -6.69 2 -10.74 2 c -15.66 0 -23 -9.5 -23 -23 c 0 -13.29 7.3 -22.79 23 -22.79 A 23.26 23.26 0 0 1 325 54.62 v 7 A 22.18 22.18 0 0 0 315 59.54 c -11.44 0 -16.1 7.22 -16.1 15.75 S 303.69 91 315.22 91 a 27.8 27.8 0 0 0 10 -1.58 Z" /><path class="logo__text__fill" d="M 333.88 97.38 V 35 h 7.57 V 74 l 18.92 -20.59 h 9.86 L 349.54 75 L 371.1 97.38 H 360.8 L 341.44 76.79 V 97.38 Z" /> <path class="logo__text__fill" d="M 396.18 98.26 c -16.46 0 -23.67 -9.5 -23.67 -23 c 0 -13.29 7.39 -22.79 20.77 -22.79 c 13.55 0 19 9.42 19 22.79 v 3.43 H 380.16 c 1.06 7.48 5.9 12.32 16.28 12.32 a 39 39 0 0 0 13.38 -2.38 v 7 C 406.21 97.56 400.67 98.26 396.18 98.26 Z m -16.1 -26 h 24.55 c -0.44 -8.18 -4.14 -12.85 -11.7 -12.85 C 384.91 59.37 380.87 64.56 380.08 72.22 Z" /> <path class="logo__text__fill" d="M 438.68 90 a 24 24 0 0 0 4.75 -0.62 v 7.3 a 18.19 18.19 0 0 1 -5.1 0.7 c -9.42 0 -14 -5.54 -14 -13.73 V 60.42 h -7.13 v -7 h 7.13 V 44.06 h 7.39 v 9.33 h 11.7 v 7 h -11.7 V 83.48 C 431.73 87.35 434 90 438.68 90 Z" /> </g> </svg>