<?xml version="1.0" encoding="UTF-8" standalone="no"?>
<svg
   xmlns:dc="http://purl.org/dc/elements/1.1/"
   xmlns:cc="http://creativecommons.org/ns#"
   xmlns:rdf="http://www.w3.org/1999/02/22-rdf-syntax-ns#"
   xmlns:svg="http://www.w3.org/2000/svg"
   xmlns="http://www.w3.org/2000/svg"
   id="svg2"
   style="overflow:hidden"
   width="300"
   version="1.1"
   height="161.242">
  <metadata
     id="metadata32">
    <rdf:RDF>
      <cc:Work
         rdf:about="">
        <dc:format>image/svg+xml</dc:format>
        <dc:type
           rdf:resource="http://purl.org/dc/dcmitype/StillImage" />
        <dc:title></dc:title>
      </cc:Work>
    </rdf:RDF>
  </metadata>
  <defs
     id="defs6" />
  <g
     transform="matrix(1.0355731,0,0,1.0355731,5.522563e-4,-3.0874961e-4)"
     id="g3360">
    <path
       d="m 152.737,78.995 c -0.279,-0.949 -0.51,-1.774 -0.765,-2.592 -0.164,-0.526 -0.348,-1.047 -0.547,-1.561 -0.186,-0.482 -0.184,-0.923 0.255,-1.252 0.567,-0.424 0.606,-0.944 0.371,-1.554 -0.088,-0.229 -0.101,-0.488 -0.192,-0.715 -0.318,-0.794 -0.387,-1.537 0.247,-2.238 0.278,-0.307 0.228,-0.711 0.031,-1.049 -0.417,-0.714 -0.384,-1.456 -0.274,-2.238 0.11,-0.789 0.109,-1.593 0.19,-2.387 0.059,-0.579 0.145,-1.158 0.266,-1.728 0.287,-1.357 0.595,-2.71 0.908,-4.062 0.313,-1.352 0.622,-2.706 0.968,-4.049 0.204,-0.794 0.135,-1.171 -0.354,-1.336 -0.561,-0.189 -1.013,0.03 -1.298,0.723 -0.197,0.479 -0.384,0.992 -0.423,1.502 -0.09,1.198 -0.686,2.177 -1.309,3.12 -0.816,1.237 -1.682,2.428 -2.242,3.822 -0.473,1.177 -1.183,2.223 -2.002,3.208 -0.486,0.583 -0.854,1.283 -1.183,1.974 -0.521,1.096 -1.028,2.187 -2.018,2.956 -0.685,0.532 -1.409,1.196 -2.283,1.08 -1.057,-0.14 -1.905,0.059 -2.778,0.627 -0.624,0.406 -1.226,0.205 -1.663,-0.48 -0.479,-0.752 -0.847,-1.574 -1.309,-2.338 -1.319,-2.182 -2.149,-4.57 -3.004,-6.952 -0.09,-0.25 -0.363,-0.552 -0.601,-0.605 -0.367,-0.082 -0.752,0.118 -0.865,0.531 -0.258,0.943 -0.681,1.865 -0.386,2.89 0.298,1.037 0.076,2.075 -0.029,3.114 -0.068,0.672 -0.064,1.352 -0.097,2.028 -0.045,0.892 -0.094,1.784 -0.143,2.676 -0.03,0.54 -0.208,1.01 -0.563,1.438 -0.344,0.414 -0.387,0.923 -0.1,1.388 0.29,0.47 0.197,0.831 -0.104,1.266 -0.565,0.815 -0.507,1.053 0.13,1.898 0.178,0.236 0.381,0.537 0.383,0.809 0.007,0.985 -0.057,1.971 -0.115,2.955 -0.045,0.764 -0.51,1.317 -1.028,1.81 -0.563,0.535 -1.22,0.462 -1.665,-0.181 -0.333,-0.481 -0.648,-0.985 -0.885,-1.517 -0.127,-0.285 -0.09,-0.65 -0.095,-0.98 -0.007,-0.368 0.067,-0.743 0.021,-1.105 -0.041,-0.326 -0.132,-0.699 -0.576,-0.73 -0.479,-0.034 -0.656,0.319 -0.737,0.688 -0.072,0.325 -0.089,0.678 -0.053,1.01 0.126,1.165 -0.427,1.915 -1.587,1.984 -0.445,0.027 -0.919,-0.077 -1.349,-0.215 -0.814,-0.261 -1.094,-0.13 -1.204,0.691 -0.071,0.532 -0.093,1.037 0.44,1.411 0.173,0.121 0.268,0.413 0.312,0.643 0.069,0.354 -0.014,0.732 -0.404,0.833 -0.402,0.104 -0.59,-0.212 -0.733,-0.549 -0.275,-0.651 -0.557,-1.3 -0.86,-1.938 -0.253,-0.533 -0.53,-1.047 -0.469,-1.671 0.017,-0.174 -0.012,-0.414 -0.121,-0.527 -0.176,-0.183 -0.457,-0.418 -0.651,-0.384 -0.18,0.032 -0.451,0.407 -0.424,0.594 0.075,0.513 -0.06,0.961 -0.172,1.439 -0.054,0.234 0.05,0.562 0.192,0.774 0.825,1.232 0.522,2.949 -0.679,4.139 -0.481,0.477 -0.675,0.484 -1.146,-0.019 -0.253,-0.269 -0.457,-0.584 -0.696,-0.867 -0.789,-0.934 -0.768,-0.919 -0.162,-1.947 0.309,-0.524 0.487,-1.115 0.965,-1.547 0.098,-0.088 0.041,-0.514 -0.086,-0.633 -0.11,-0.103 -0.421,0.005 -0.643,0.025 -0.023,0.002 -0.046,0.04 -0.064,0.065 -0.31,0.429 -0.633,0.78 -1.22,0.402 -0.579,-0.373 -0.871,-1.009 -0.672,-1.662 0.152,-0.5 0.35,-0.99 0.563,-1.468 0.236,-0.528 0.275,-1.058 0.209,-1.629 -0.044,-0.38 0.011,-0.783 0.085,-1.164 0.129,-0.66 0.328,-1.307 0.462,-1.967 0.152,-0.754 0.266,-1.516 0.395,-2.275 0.021,-0.122 0.03,-0.247 0.059,-0.367 0.088,-0.367 0.02,-0.749 -0.325,-0.862 -0.281,-0.091 -0.705,-0.05 -0.952,0.108 -1.289,0.826 -1.898,2.716 -1.338,4.175 0.307,0.8 -0.015,1.522 -0.131,2.271 -0.046,0.3 -0.181,0.591 -0.306,0.873 -0.702,1.575 -1.041,3.229 -1.052,4.946 -0.005,0.909 -0.412,1.6 -1.046,2.187 -0.513,0.475 -1.351,0.574 -1.796,0.24 -0.571,-0.429 -0.812,-1.484 -0.39,-2.066 0.521,-0.721 0.842,-1.49 0.957,-2.371 0.037,-0.284 0.221,-0.572 0.401,-0.811 0.341,-0.452 0.396,-0.89 0.072,-1.362 -0.407,-0.594 -0.437,-1.221 -0.368,-1.938 0.108,-1.129 0.162,-2.272 -0.135,-3.409 -0.125,-0.48 -0.036,-1.03 0.026,-1.54 0.111,-0.915 0.263,-1.826 0.421,-2.735 0.1,-0.575 0.296,-1.137 0.354,-1.715 0.152,-1.503 0.24,-3.012 0.376,-4.516 0.056,-0.613 0.173,-1.22 0.257,-1.83 0.046,-0.336 0.104,-0.673 0.118,-1.011 0.071,-1.695 0.126,-3.39 0.195,-5.085 0.009,-0.213 0.039,-0.434 0.107,-0.634 0.504,-1.485 0.533,-3.026 0.577,-4.569 0.009,-0.332 0.087,-0.671 0.188,-0.989 0.489,-1.536 0.818,-3.106 0.896,-4.714 0.026,-0.543 -0.155,-1.095 -0.217,-1.645 -0.048,-0.426 -0.096,-0.858 -0.077,-1.285 0.043,-0.955 0.144,-1.907 0.189,-2.862 0.04,-0.846 0.529,-1.424 1.085,-1.974 0.043,-0.043 0.095,-0.08 0.15,-0.106 0.732,-0.349 2.352,0.061 2.723,0.779 0.398,0.772 1.027,1.113 1.813,1.288 0.789,0.176 1.111,0.021 1.469,-0.716 0.383,-0.788 0.97,-1.104 1.852,-0.995 0.613,0.076 0.785,0.333 0.671,0.942 -0.073,0.391 -0.135,0.788 -0.145,1.184 -0.009,0.41 0.205,0.709 0.621,0.816 0.415,0.107 0.915,-0.091 1.102,-0.485 0.376,-0.789 0.453,-1.591 0.03,-2.404 -0.183,-0.351 -0.379,-0.719 -0.449,-1.102 -0.215,-1.184 0.303,-2.066 1.322,-2.616 0.939,-0.507 1.796,-1.052 2.369,-2.004 0.34,-0.564 0.635,-0.601 1.273,-0.362 0.867,0.326 1.721,0.689 2.583,1.029 0.7,0.276 1.113,0.876 1.568,1.414 0.504,0.597 1.029,1.138 1.741,1.496 0.61,0.307 0.911,0.84 1.099,1.518 0.438,1.575 1.004,3.114 1.463,4.683 0.335,1.146 0.579,2.319 0.873,3.478 0.068,0.267 0.165,0.528 0.268,0.785 0.354,0.887 0.716,1.77 1.074,2.655 0.046,0.114 0.057,0.273 0.141,0.337 0.228,0.172 0.485,0.411 0.735,0.417 0.193,0.004 0.476,-0.267 0.573,-0.481 0.162,-0.359 0.158,-0.791 0.309,-1.157 0.482,-1.167 0.96,-2.339 1.519,-3.469 1.233,-2.491 2.495,-4.968 3.786,-7.428 0.616,-1.173 1.308,-2.307 2.001,-3.437 0.408,-0.664 0.76,-1.313 0.84,-2.123 0.107,-1.091 0.86,-1.885 1.46,-2.744 0.223,-0.319 0.434,-0.667 0.551,-1.034 0.327,-1.024 0.684,-2.001 1.819,-2.406 0.083,-0.03 0.149,-0.108 0.222,-0.164 0.776,-0.592 0.995,-0.566 1.566,0.185 0.488,0.642 0.983,0.83 1.678,0.473 0.559,-0.288 1.1,-0.363 1.698,-0.269 0.552,0.087 1.027,-0.093 1.468,-0.43 0.782,-0.599 1.583,-1.173 2.372,-1.763 0.496,-0.371 0.866,-0.351 1.295,0.113 0.21,0.226 0.373,0.495 0.581,0.723 0.531,0.58 1.231,0.651 1.789,0.095 0.561,-0.558 1.083,-0.923 1.954,-0.687 0.643,0.174 1.144,-0.207 1.301,-0.898 0.19,-0.836 0.356,-1.698 0.364,-2.551 0.011,-1.055 0.509,-1.754 1.309,-2.304 0.55,-0.378 1.039,-0.277 1.443,0.268 0.441,0.595 0.862,1.205 1.285,1.814 0.087,0.126 0.187,0.267 0.206,0.412 0.204,1.547 0.84,3.037 0.51,4.659 -0.158,0.779 -0.095,1.6 -0.183,2.397 -0.122,1.102 -0.338,2.195 -0.431,3.298 -0.158,1.873 -0.116,3.764 -0.522,5.615 -0.033,0.149 -0.063,0.318 -0.026,0.46 0.184,0.723 0.057,1.376 -0.266,2.048 -0.121,0.251 -0.057,0.713 0.106,0.957 0.441,0.661 0.34,1.227 0.027,1.908 -0.221,0.479 -0.212,1.073 -0.264,1.619 -0.053,0.55 -0.06,1.104 -0.076,1.657 -0.007,0.242 0.02,0.485 0.019,0.727 -0.005,0.984 -0.007,1.969 -0.028,2.952 -0.007,0.307 -0.142,0.624 -0.096,0.918 0.241,1.551 -0.208,3.138 0.247,4.672 0.187,0.63 0.088,1.213 -0.165,1.8 -0.288,0.669 -0.364,1.297 0.328,1.821 0.411,0.311 0.412,0.769 0.112,1.159 -0.788,1.026 -1.199,2.231 -1.629,3.418 -0.159,0.439 -0.176,0.969 -0.118,1.44 0.112,0.913 0.354,1.809 0.483,2.721 0.086,0.605 0.228,1.064 0.946,1.161 0.208,0.028 0.506,0.309 0.533,0.506 0.031,0.223 -0.161,0.509 -0.324,0.714 -0.1,0.126 -0.322,0.177 -0.499,0.215 -0.641,0.14 -1.014,0.521 -1.189,1.156 -0.084,0.306 -0.289,0.579 -0.424,0.839 -0.573,-0.039 -0.646,-0.444 -0.839,-0.747 -0.121,-0.191 -0.347,-0.492 -0.469,-0.467 -0.23,0.048 -0.506,0.253 -0.608,0.467 -0.398,0.831 -0.573,1.673 0.004,2.536 0.327,0.489 0.502,1.054 0.318,1.665 -0.101,0.336 -0.219,0.653 -0.631,0.709 -0.407,0.056 -0.602,-0.177 -0.784,-0.507 -0.332,-0.6 -0.733,-0.637 -1.244,-0.184 -0.437,0.388 -0.887,0.762 -1.335,1.138 -0.388,0.326 -0.768,0.375 -1.135,-0.04 -0.081,-0.092 -0.178,-0.174 -0.28,-0.241 -0.506,-0.335 -0.727,-0.243 -0.983,0.305 -0.299,0.641 -0.601,1.289 -0.987,1.878 -0.604,0.922 -1.355,1.17 -2.411,0.925 -0.371,-0.086 -0.527,-0.33 -0.485,-0.675 0.098,-0.796 -0.181,-1.353 -0.885,-1.771 -0.256,-0.152 -0.412,-0.527 -0.541,-0.831 -0.464,-1.088 -1.265,-1.469 -2.363,-1.083 -0.117,0.041 -0.229,0.095 -0.346,0.134 -1.058,0.345 -1.33,0.796 -1.162,1.929 0.166,1.105 0.166,1.105 -0.15,2.342 z M 164.1,70.389 c 0.006,-0.631 -0.384,-1.04 -1.028,-1.084 -0.68,-0.046 -0.915,0.157 -0.977,0.916 -0.065,0.798 -0.112,1.598 -0.128,2.397 -0.005,0.23 0.08,0.49 0.201,0.689 0.24,0.392 0.525,0.756 0.807,1.121 0.4,0.519 0.947,0.568 1.448,0.143 0.588,-0.499 0.709,-1.418 0.165,-1.974 -0.561,-0.572 -0.704,-1.203 -0.56,-1.947 0.018,-0.089 0.049,-0.177 0.072,-0.261 z"
       style="fill:#964707;stroke:#000000;stroke-width:0;stroke-opacity:1"
       id="path8" />
    <path
       d="m 153.022,119.192 c -0.028,1.469 -0.15,2.909 -0.059,4.335 0.137,2.157 0.29,4.304 0.106,6.466 -0.064,0.761 0.025,1.536 0.038,2.304 0.009,0.523 0.019,1.047 0.009,1.57 -0.005,0.276 -0.079,0.551 -0.075,0.826 0.014,0.901 -0.014,1.776 -0.414,2.627 -0.338,0.719 -0.272,1.515 -0.113,2.282 0.229,1.102 -0.023,2.144 -0.37,3.173 -0.077,0.229 -0.221,0.446 -0.373,0.637 -0.53,0.667 -1.249,0.637 -1.638,-0.114 -0.324,-0.626 -0.598,-1.291 -0.791,-1.969 -0.303,-1.066 -0.766,-1.23 -1.6,-0.486 -0.762,0.68 -1.477,0.538 -1.923,-0.38 -0.134,-0.277 -0.238,-0.577 -0.418,-0.822 -0.28,-0.381 -0.733,-0.573 -1.146,-0.396 -0.291,0.125 -0.597,0.49 -0.663,0.798 -0.107,0.499 -0.054,1.042 -0.012,1.562 0.038,0.466 -0.064,0.859 -0.391,1.185 -0.484,0.483 -0.995,0.414 -1.353,-0.175 -0.048,-0.079 -0.093,-0.161 -0.131,-0.246 -0.201,-0.452 -0.543,-0.676 -1.036,-0.587 -0.482,0.087 -0.749,0.428 -0.84,0.884 -0.085,0.421 -0.101,0.856 -0.173,1.281 -0.077,0.454 -0.124,0.925 -0.287,1.349 -0.355,0.924 -1.129,1.386 -2.102,1.339 -1.061,-0.05 -1.174,-0.001 -1.394,1.01 -0.261,1.195 -1.076,1.986 -1.895,2.785 -0.065,0.063 -0.156,0.1 -0.233,0.151 -0.289,0.191 -0.584,0.215 -0.856,-0.014 -0.262,-0.221 -0.372,-0.514 -0.187,-0.828 0.408,-0.691 0.399,-1.382 0.128,-2.122 -0.157,-0.429 -0.007,-0.861 0.276,-1.219 0.45,-0.569 0.52,-1.137 0.172,-1.807 -0.192,-0.369 -0.25,-0.822 -0.305,-1.245 -0.083,-0.639 -0.293,-1.205 -0.792,-1.625 -0.493,-0.415 -0.568,-0.87 -0.359,-1.485 0.717,-2.107 1.096,-4.297 1.434,-6.49 0.131,-0.851 0.129,-1.722 0.215,-2.581 0.147,-1.469 0.377,-2.934 0.458,-4.406 0.094,-1.715 0.385,-3.408 0.219,-5.157 -0.1,-1.046 -0.394,-2.215 0.251,-3.248 -0.007,-1.893 0.857,-3.656 0.776,-5.577 -0.035,-0.838 0.289,-1.691 0.45,-2.538 0.023,-0.121 0.078,-0.247 0.063,-0.363 -0.191,-1.461 -0.007,-2.938 -0.191,-4.4 -0.034,-0.267 -0.026,-0.541 -0.014,-0.81 0.019,-0.401 0.09,-0.801 0.084,-1.201 -0.016,-1.051 -0.055,-2.099 0.307,-3.115 0.068,-0.192 0.019,-0.427 0.019,-0.641 -0.001,-0.676 0.201,-1.254 0.69,-1.756 0.772,-0.793 0.747,-0.954 0.18,-1.922 -0.247,-0.421 -0.416,-0.892 -0.586,-1.354 -0.12,-0.326 -0.007,-0.658 0.297,-0.789 0.22,-0.095 0.516,-0.019 0.777,-0.007 0.054,0.003 0.119,0.049 0.156,0.094 0.779,0.951 1.903,1.58 2.5,2.703 0.45,0.845 0.999,0.965 1.816,0.433 0.891,-0.58 1.424,-1.308 1.272,-2.465 -0.108,-0.82 0.239,-1.068 1.031,-0.919 1.005,0.189 1.117,0.128 1.52,-0.836 0.265,-0.632 0.403,-0.75 1.125,-0.692 0.502,0.04 0.874,-0.077 1.251,-0.429 0.54,-0.505 0.804,-0.494 1.324,0.077 0.479,0.525 0.987,0.561 1.585,0.323 0.315,-0.125 0.633,-0.244 0.942,-0.383 0.622,-0.28 1.071,-0.049 1.433,0.463 0.089,0.126 0.2,0.242 0.266,0.379 0.278,0.583 0.763,0.893 1.372,0.991 1.251,0.202 2.091,1.01 2.857,1.914 0.338,0.399 0.579,0.878 0.896,1.297 1.53,2.018 3.07,4.029 4.611,6.039 0.131,0.171 0.295,0.317 0.448,0.47 0.901,0.903 1.498,1.951 1.592,3.252 0.03,0.411 0.128,0.804 0.575,0.98 0.828,0.326 1.511,-0.167 1.299,-1.036 -0.605,-2.477 -0.436,-4.99 -0.281,-7.471 0.088,-1.413 0.139,-2.806 0.096,-4.218 -0.018,-0.591 0.203,-1.217 0.433,-1.78 0.338,-0.828 0.359,-1.588 -0.032,-2.407 -0.515,-1.076 -0.283,-1.879 0.805,-2.368 1.092,-0.491 1.462,-1.222 1.229,-2.344 -0.037,-0.18 -0.044,-0.369 -0.037,-0.553 0.02,-0.532 0.211,-0.973 0.744,-1.174 0.547,-0.205 1.267,-0.023 1.6,0.432 0.236,0.322 0.392,0.701 0.611,1.036 0.478,0.728 0.931,0.77 1.58,0.167 0.091,-0.084 0.182,-0.169 0.263,-0.262 0.315,-0.361 0.647,-0.487 1.144,-0.298 0.689,0.263 0.978,0.125 1.401,-0.478 0.213,-0.304 0.395,-0.635 0.642,-0.906 0.377,-0.414 0.718,-0.388 1.101,0.024 0.042,0.045 0.073,0.1 0.111,0.148 0.725,0.908 0.8,0.917 1.717,0.158 0.358,-0.296 0.755,-0.387 1.076,-0.025 0.653,0.737 1.279,1.501 1.865,2.292 0.144,0.195 0.133,0.538 0.12,0.809 -0.032,0.672 0.111,1.295 0.457,1.862 0.29,0.475 0.227,0.917 0.044,1.414 -0.254,0.692 -0.442,1.409 -0.629,2.122 -0.061,0.234 -0.095,0.507 -0.036,0.735 0.38,1.483 0.069,2.954 -0.079,4.42 -0.088,0.873 0.049,1.71 0.107,2.566 0.068,1.01 0.022,2.028 0.019,3.042 0,0.152 -0.054,0.305 -0.047,0.456 0.053,1.263 0.127,2.525 0.17,3.789 0.072,2.099 0.139,4.198 0.18,6.298 0.017,0.892 -0.048,1.786 -0.057,2.679 -0.011,1.075 0.01,2.15 -0.005,3.224 -0.024,1.718 -0.069,3.436 -0.099,5.154 -0.011,0.65 -0.002,1.3 -0.008,1.949 -0.006,0.641 -0.001,1.282 -0.034,1.922 -0.062,1.201 -0.141,2.401 -0.227,3.601 -0.028,0.397 -0.092,0.793 -0.153,1.188 -0.108,0.696 -0.262,1.388 -0.326,2.088 -0.039,0.428 -0.143,0.78 -0.477,1.055 -0.238,0.197 -0.466,0.405 -0.703,0.603 -0.635,0.529 -1.007,0.476 -1.372,-0.238 -0.153,-0.298 -0.199,-0.648 -0.329,-0.959 -0.129,-0.309 -0.25,-0.646 -0.467,-0.887 -0.385,-0.426 -0.963,-0.388 -1.259,0.094 -0.465,0.759 -0.915,1.535 -1.274,2.347 -0.523,1.18 -1.649,1.591 -2.697,0.837 -0.569,-0.41 -1.086,-0.915 -1.548,-1.445 -0.695,-0.798 -0.991,-0.877 -1.853,-0.297 -0.498,0.335 -0.678,0.323 -1.239,-0.097 -1.324,-0.99 -2.395,-2.229 -3.422,-3.506 -0.622,-0.774 -1.321,-1.434 -2.123,-2.04 -1.333,-1.006 -2.449,-2.256 -3.345,-3.685 -0.311,-0.496 -0.647,-0.978 -0.995,-1.449 -0.897,-1.216 -1.815,-2.418 -2.711,-3.635 -0.696,-0.945 -1.387,-1.895 -2.05,-2.863 -0.4,-0.585 -0.923,-0.652 -1.701,-0.47 z"
       style="fill:#964707;stroke:#000000;stroke-width:0;stroke-opacity:1"
       id="path10" />
    <path
       d="m 289.684,23.945 c -0.135,0.912 -0.29,1.852 -0.41,2.797 -0.133,1.038 -0.204,2.085 -0.358,3.12 -0.104,0.699 -0.263,1.396 -0.475,2.07 -0.242,0.769 -0.469,1.524 -0.498,2.343 -0.013,0.376 -0.206,0.754 -0.355,1.116 -0.328,0.799 -0.662,1.597 -1.024,2.381 -0.518,1.121 -1.063,2.229 -1.598,3.341 -0.026,0.055 -0.091,0.102 -0.096,0.156 -0.103,1.177 -0.914,1.992 -1.489,2.927 -0.096,0.157 -0.233,0.332 -0.232,0.498 0.008,0.981 -0.656,1.573 -1.252,2.191 -0.577,0.598 -1.212,1.139 -1.804,1.723 -1.475,1.455 -2.93,2.929 -4.418,4.37 -0.221,0.214 -0.579,0.389 -0.878,0.396 -0.467,0.01 -0.818,0.165 -1.18,0.43 -1.667,1.22 -3.559,1.952 -5.531,2.501 -0.146,0.041 -0.31,0.072 -0.456,0.047 -1.542,-0.262 -2.982,0.097 -4.431,0.596 -0.712,0.245 -1.52,0.363 -2.27,0.317 -1.438,-0.089 -2.896,-0.161 -4.255,-0.768 -0.357,-0.159 -0.775,-0.217 -1.171,-0.246 -1.036,-0.076 -1.986,-0.395 -2.901,-0.872 -0.574,-0.299 -1.169,-0.569 -1.778,-0.785 -1.161,-0.412 -2.347,-0.75 -3.504,-1.172 -0.457,-0.167 -0.865,-0.468 -1.288,-0.721 -0.265,-0.159 -0.507,-0.356 -0.774,-0.51 -1.342,-0.777 -2.275,-1.895 -3.092,-3.218 -0.944,-1.528 -1.807,-3.065 -2.424,-4.756 -0.293,-0.802 -0.857,-1.503 -1.181,-2.297 -0.287,-0.702 -0.421,-1.468 -0.606,-2.21 -0.067,-0.268 -0.08,-0.548 -0.127,-0.821 -0.262,-1.517 -0.48,-3.044 -0.806,-4.548 -0.211,-0.975 -0.052,-1.906 0.094,-2.846 0.141,-0.906 0.054,-1.702 -0.349,-2.582 -0.494,-1.076 -0.651,-2.273 0.217,-3.384 0.469,-0.6 0.758,-1.342 1.118,-2.025 0.417,-0.791 0.816,-1.592 1.236,-2.381 0.278,-0.522 0.549,-1.04 0.534,-1.654 -0.001,-0.062 -0.02,-0.14 0.009,-0.183 0.766,-1.132 0.829,-2.631 1.949,-3.592 0.797,-0.683 1.5,-1.475 2.242,-2.221 0.629,-0.633 1.263,-1.235 1.619,-2.11 0.388,-0.956 1.286,-1.488 2.133,-1.998 0.846,-0.51 1.478,-1.168 1.97,-2.032 0.328,-0.576 0.802,-1.102 1.309,-1.535 0.985,-0.843 1.999,-1.666 3.075,-2.386 1.205,-0.806 2.501,-1.454 3.972,-1.69 0.468,-0.075 0.903,-0.344 1.358,-0.509 0.227,-0.082 0.477,-0.211 0.698,-0.18 0.542,0.077 0.966,-0.12 1.377,-0.42 0.491,-0.357 0.99,-0.528 1.641,-0.391 0.56,0.118 1.206,0.138 1.747,-0.024 1.317,-0.395 2.556,-0.126 3.821,0.18 0.342,0.083 0.748,0.104 1.076,0.001 1.073,-0.336 2.063,-0.364 2.926,0.483 0.044,0.043 0.098,0.108 0.147,0.108 0.979,0.006 1.686,0.742 2.569,0.967 1.466,0.375 2.582,1.29 3.709,2.207 0.972,0.791 1.668,1.783 2.293,2.874 0.609,1.064 1.406,2.031 2.192,2.981 0.894,1.081 1.589,2.225 2.076,3.567 0.3,0.826 0.48,1.617 0.586,2.473 0.182,1.476 0.954,2.709 1.777,3.916 0.502,0.737 0.998,1.497 1.351,2.309 0.206,0.479 0.132,1.082 0.19,1.681 z m -18.858,0.899 c -0.202,-0.75 -0.395,-1.655 -0.704,-2.518 -0.135,-0.376 -0.476,-0.7 -0.779,-0.989 -1.202,-1.144 -2.635,-2.036 -3.556,-3.489 -0.567,-0.895 -1.868,-1.091 -2.699,-0.402 -0.97,0.804 -1.892,1.685 -2.73,2.625 -1.386,1.556 -2.142,3.53 -3.307,5.238 -0.082,0.121 -0.114,0.289 -0.131,0.439 -0.121,1.061 -0.478,2.103 -0.17,3.198 0.097,0.345 -0.017,0.744 0.033,1.109 0.086,0.636 0.22,1.266 0.344,1.896 0.048,0.241 0.182,0.478 0.178,0.715 -0.014,0.798 0.364,1.428 0.824,2.015 0.398,0.509 0.865,0.965 1.262,1.475 0.276,0.355 0.547,0.74 0.706,1.155 0.141,0.368 0.363,0.606 0.704,0.647 0.386,0.046 0.829,0.069 1.171,-0.076 0.553,-0.235 0.965,-0.206 1.442,0.172 0.722,0.572 1.384,0.524 1.934,-0.194 0.5,-0.654 0.926,-1.384 1.278,-2.13 0.813,-1.722 1.566,-3.472 2.336,-5.214 0.435,-0.985 0.918,-1.956 1.265,-2.972 0.277,-0.807 0.38,-1.676 0.599,-2.7 z m 3.071,-0.969 c -0.469,0.283 -0.912,0.54 -1.342,0.817 -0.095,0.061 -0.213,0.197 -0.205,0.289 0.06,0.68 -0.23,1.149 -0.737,1.591 -0.36,0.314 -0.124,0.88 0.346,0.846 0.622,-0.045 1.033,0.167 1.455,0.599 0.378,0.387 0.838,0.199 0.954,-0.336 0.058,-0.267 0.079,-0.559 0.038,-0.828 -0.146,-0.965 -0.326,-1.926 -0.509,-2.978 z"
       style="fill:#964707;stroke:#000000;stroke-width:0;stroke-opacity:1"
       id="path12" />
    <path
       d="m 267.324,118.647 c -0.869,0.092 -1.912,0.2 -2.955,0.314 -0.189,0.021 -0.38,0.106 -0.562,0.084 -1.081,-0.126 -2.147,-0.128 -3.202,0.201 -0.168,0.052 -0.382,-10e-4 -0.565,-0.046 -1.573,-0.389 -3.143,-0.791 -4.716,-1.182 -0.432,-0.108 -0.875,-0.173 -1.303,-0.295 -0.515,-0.146 -1.06,-0.259 -1.518,-0.517 -0.704,-0.395 -1.422,-0.553 -2.201,-0.422 -0.574,0.097 -1.068,-0.031 -1.524,-0.384 -0.251,-0.195 -0.509,-0.397 -0.794,-0.53 -1.801,-0.837 -2.978,-2.344 -4.181,-3.83 -0.48,-0.593 -0.978,-1.177 -1.518,-1.716 -0.466,-0.465 -0.745,-1.005 -0.991,-1.607 -0.565,-1.385 -1.235,-2.728 -1.795,-4.115 -0.713,-1.764 -1.568,-3.484 -1.868,-5.392 -0.01,-0.063 -0.007,-0.138 -0.041,-0.185 -0.925,-1.31 -0.496,-2.753 -0.415,-4.161 0.007,-0.127 0.031,-0.256 0.019,-0.382 -0.195,-2.156 0.459,-4.208 0.786,-6.298 0.102,-0.652 0.363,-1.279 0.558,-1.916 0.037,-0.121 0.142,-0.231 0.149,-0.35 0.072,-1.242 0.927,-2.05 1.596,-2.972 1.233,-1.699 2.46,-3.404 3.627,-5.148 0.456,-0.681 0.702,-1.499 1.123,-2.206 0.325,-0.546 0.609,-1.064 0.751,-1.708 0.106,-0.482 0.529,-0.923 0.887,-1.313 0.688,-0.75 1.479,-1.408 2.138,-2.181 1.399,-1.639 3.035,-3.029 4.801,-4.207 1.13,-0.754 2.481,-1.279 3.928,-1.316 0.344,-0.009 0.685,-0.115 1.028,-0.168 0.75,-0.116 1.5,-0.23 2.251,-0.338 0.719,-0.103 1.439,-0.205 2.161,-0.293 0.374,-0.045 0.755,-0.108 1.126,-0.078 0.917,0.075 1.829,0.217 2.746,0.299 0.888,0.08 1.773,0.139 2.649,-0.163 0.279,-0.096 0.622,-0.041 0.93,-0.006 0.567,0.063 1.129,0.172 1.696,0.244 0.554,0.07 0.928,0.312 1.121,0.876 0.352,1.035 1.058,1.522 2.201,1.645 1.408,0.151 2.843,0.346 4.113,1.104 1.254,0.747 2.555,1.418 3.788,2.195 2.523,1.59 4.262,3.78 5,6.719 0.17,0.675 0.422,1.339 0.714,1.972 0.619,1.347 0.758,2.727 0.525,4.185 -0.12,0.75 -0.106,1.524 -0.12,2.288 -0.019,1.055 -0.223,2.064 -0.472,3.093 -0.461,1.908 -0.954,3.822 -1.007,5.809 -0.033,1.272 -0.037,2.555 -0.219,3.808 -0.154,1.06 -0.536,2.088 -0.836,3.125 -0.228,0.791 -0.485,1.573 -0.728,2.359 -0.056,0.182 -0.079,0.381 -0.165,0.547 -1.263,2.437 -2.591,4.787 -4.878,6.499 -2.239,1.676 -4.33,3.551 -6.468,5.36 -1.054,0.892 -2.165,1.704 -3.462,2.17 -1.19,0.428 -2.421,0.801 -3.908,0.529 z m -8.349,-25.233 c 0.052,0.953 -0.128,1.997 0.204,2.84 0.655,1.662 0.702,3.603 2.104,4.948 0.088,0.084 0.138,0.215 0.184,0.333 0.514,1.306 1.46,2.306 2.38,3.316 0.268,0.294 0.654,0.492 1.011,0.688 0.366,0.201 0.715,0.06 0.907,-0.27 0.738,-1.267 1.898,-2.13 2.901,-3.148 0.575,-0.584 1.084,-1.254 1.522,-1.948 0.627,-0.992 1.172,-2.037 1.735,-3.069 0.334,-0.612 0.691,-1.222 0.936,-1.871 0.238,-0.632 0.549,-1.14 1.199,-1.388 0.417,-0.159 0.552,-0.468 0.542,-0.902 -0.02,-0.84 -0.246,-1.54 -0.981,-2.059 -0.727,-0.514 -1.365,-1.123 -1.805,-1.935 -0.97,-1.795 -2.283,-3.278 -4.098,-4.273 -0.333,-0.183 -0.688,-0.344 -0.981,-0.579 -0.339,-0.272 -0.635,-0.211 -0.967,-0.034 -1.6,0.853 -3.199,1.706 -4.803,2.55 -0.471,0.248 -0.825,0.578 -0.977,1.107 -0.533,1.862 -1.205,3.699 -1.013,5.694 z m -3.382,-3.015 c 1.132,-0.212 1.435,-0.716 1.001,-1.418 -0.086,-0.14 -0.28,-0.304 -0.416,-0.297 -0.136,0.007 -0.341,0.195 -0.377,0.338 -0.101,0.413 -0.133,0.844 -0.208,1.377 z m 0.026,0.192 c -0.726,0.535 -0.906,0.877 -0.689,1.276 0.08,0.147 0.3,0.35 0.403,0.323 0.172,-0.045 0.418,-0.248 0.425,-0.395 0.018,-0.377 -0.079,-0.758 -0.139,-1.204 z m 2.136,-3.07 c -0.369,-0.208 -0.555,-0.392 -0.754,-0.406 -0.304,-0.022 -0.457,0.24 -0.367,0.507 0.055,0.163 0.292,0.381 0.431,0.37 0.186,-0.015 0.356,-0.228 0.69,-0.471 z"
       style="fill:#964707;stroke:#000000;stroke-width:0;stroke-opacity:1"
       id="path14" />
    <path
       d="m 69.684,151.912 c -0.366,0.314 -0.695,0.486 -0.858,0.757 -0.386,0.643 -0.972,1.01 -1.586,1.377 -0.933,0.558 -1.849,0.145 -1.927,-0.941 -0.06,-0.832 -0.032,-1.671 -0.018,-2.507 0.008,-0.509 -0.059,-0.945 -0.428,-1.362 -0.449,-0.509 -0.579,-1.161 -0.344,-1.826 0.443,-1.249 0.853,-2.515 1.39,-3.723 0.211,-0.475 0.67,-0.892 1.11,-1.205 1.142,-0.813 1.883,-1.903 2.577,-3.099 0.818,-1.408 1.804,-2.725 2.788,-4.027 0.395,-0.522 0.81,-0.997 0.995,-1.644 0.399,-1.395 1.394,-2.467 2.057,-3.72 0.721,-1.363 1.422,-2.736 2.127,-4.107 0.296,-0.576 0.599,-1.149 0.866,-1.738 0.305,-0.671 0.566,-1.362 0.863,-2.037 0.11,-0.25 0.253,-0.488 0.407,-0.715 0.619,-0.915 1.378,-1.768 1.224,-3.003 -0.018,-0.141 0.036,-0.322 0.12,-0.439 0.78,-1.095 0.958,-2.459 1.618,-3.599 0.416,-0.718 0.938,-1.374 1.421,-2.052 0.143,-0.2 0.325,-0.372 0.474,-0.569 0.546,-0.719 0.548,-0.894 0.042,-1.642 -0.503,-0.743 -0.533,-1.411 -0.017,-2.136 0.861,-1.209 1.742,-2.403 2.64,-3.584 0.497,-0.653 0.864,-1.349 0.97,-2.17 0.016,-0.122 0.027,-0.248 0.066,-0.363 0.149,-0.433 0.427,-0.501 0.758,-0.193 0.023,0.021 0.04,0.048 0.063,0.068 0.247,0.212 0.502,0.604 0.74,0.593 0.398,-0.018 0.883,-0.197 1.157,-0.478 0.662,-0.682 1.457,-0.615 2.248,-0.533 0.26,0.027 0.519,0.299 0.731,0.507 0.589,0.575 1.04,0.602 1.679,0.056 0.094,-0.08 0.168,-0.212 0.274,-0.246 1.206,-0.387 1.802,-1.449 2.578,-2.31 0.525,-0.583 0.803,-0.584 1.401,-0.104 0.453,0.364 0.951,0.677 1.448,0.98 0.526,0.321 1.066,0.623 1.618,0.897 0.627,0.312 0.909,0.135 0.974,-0.563 0.095,-1.014 0.418,-1.234 1.366,-0.907 0.662,0.229 1.238,0.302 1.695,-0.421 0.254,-0.401 0.759,-0.387 1.194,-0.334 0.573,0.071 1.087,0.121 1.425,-0.521 0.173,-0.328 0.544,-0.322 0.774,-0.019 0.288,0.38 0.681,0.443 1.09,0.591 0.432,0.156 0.86,0.525 1.118,0.915 0.439,0.663 0.767,1.405 1.098,2.133 0.367,0.807 0.741,1.607 0.797,2.531 0.023,0.371 0.284,0.748 0.496,1.084 0.617,0.974 1.046,2.001 1.217,3.158 0.207,1.401 0.513,2.788 0.777,4.181 0.011,0.061 0.017,0.125 0.04,0.181 1.008,2.462 1.386,5.111 2.252,7.615 0.393,1.137 0.712,2.317 1.255,3.38 1.099,2.15 1.5,4.5 2.162,6.777 0.369,1.27 0.816,2.517 1.215,3.779 0.129,0.409 0.298,0.827 0.31,1.245 0.022,0.735 0.269,1.381 0.544,2.041 0.367,0.881 0.837,1.759 0.983,2.682 0.227,1.429 0.34,2.869 0.981,4.196 -0.129,1.299 0.366,2.466 0.734,3.668 0.141,0.46 0.116,0.979 0.12,1.471 0.003,0.42 -0.255,0.742 -0.654,0.777 -0.256,0.022 -0.633,-0.114 -0.783,-0.311 -0.613,-0.808 -1.152,-1.673 -1.735,-2.504 -0.172,-0.246 -0.368,-0.498 -0.609,-0.668 -0.652,-0.462 -1.35,-0.859 -1.998,-1.325 -0.379,-0.273 -0.712,-0.331 -1.097,-0.056 -0.124,0.089 -0.262,0.181 -0.407,0.215 -1.116,0.265 -1.282,1.238 -1.55,2.111 -0.06,0.195 0.084,0.464 0.166,0.688 0.181,0.492 0.429,0.963 0.564,1.466 0.135,0.504 0.206,1.047 -0.364,1.454 -0.492,-0.141 -0.833,-0.49 -1.089,-0.914 -0.667,-1.105 -1.234,-2.281 -1.994,-3.316 -0.574,-0.782 -1.343,-1.441 -2.106,-2.056 -0.382,-0.307 -0.984,-0.303 -1.396,0.029 -0.388,0.311 -0.334,0.788 -0.254,1.276 0.128,0.786 0.177,1.589 0.196,2.387 0.015,0.605 -0.914,1.721 -1.482,1.867 -0.423,0.108 -0.79,-0.081 -0.929,-0.433 -0.392,-0.993 -1.156,-1.851 -1.246,-2.942 -0.137,-1.661 -0.704,-3.16 -1.389,-4.658 -0.532,-1.165 -1.212,-2.289 -1.311,-3.637 -0.037,-0.501 -0.311,-1.002 -0.55,-1.466 -0.374,-0.729 -0.847,-0.797 -1.491,-0.265 -0.166,0.137 -0.329,0.287 -0.463,0.456 -0.458,0.577 -1.081,0.793 -1.781,0.857 -0.092,0.008 -0.188,0.003 -0.276,0.027 -1.243,0.333 -2.485,0.67 -3.726,1.008 -0.118,0.032 -0.229,0.111 -0.347,0.123 -1.125,0.108 -2.165,0.471 -3.15,1.011 -0.054,0.029 -0.113,0.06 -0.173,0.065 -1.862,0.183 -3.376,1.303 -5.086,1.893 -0.143,0.049 -0.327,0.113 -0.396,0.228 -0.438,0.735 -0.928,1.455 -1.248,2.241 -0.393,0.965 -0.6,2.003 -0.956,2.985 -0.238,0.659 -0.571,1.275 -0.795,1.954 -0.233,0.705 -0.736,1.374 -1.267,1.915 -0.938,0.956 -2.732,0.445 -3.074,-0.837 -0.069,-0.259 0.048,-0.599 0.159,-0.869 0.268,-0.651 0.236,-0.943 -0.246,-1.4 -0.633,-0.6 -1.313,-0.808 -1.824,-0.411 -0.652,0.506 -1.254,1.09 -1.814,1.699 -0.539,0.587 -0.92,1.323 -1.67,1.705 -0.11,0.056 -0.208,0.156 -0.323,0.179 -1.022,0.21 -1.99,0.505 -2.889,1.093 -0.562,0.367 -1.2,0.087 -1.691,-0.371 -0.421,-0.402 -0.837,-0.809 -1.345,-1.296 z m 28.89,-24.045 c 0.002,0.051 0.004,0.102 0.005,0.153 1.176,-0.252 2.366,-0.455 3.518,-0.789 0.31,-0.09 0.677,-0.557 0.716,-0.886 0.073,-0.626 0.063,-1.33 -0.162,-1.903 -0.27,-0.686 -0.383,-1.353 -0.394,-2.068 -0.011,-0.743 -0.088,-1.471 -0.474,-2.14 -0.167,-0.291 -0.352,-0.631 -0.349,-0.948 0.005,-0.609 -0.343,-0.969 -0.722,-1.334 -0.222,-0.214 -0.464,-0.408 -0.699,-0.608 -0.357,-0.305 -0.483,-0.676 -0.167,-1.054 0.458,-0.549 0.411,-1.049 -0.003,-1.585 -0.129,-0.167 -0.208,-0.381 -0.277,-0.585 -0.163,-0.48 -0.41,-0.816 -0.99,-0.792 -0.545,0.023 -0.616,0.437 -0.734,0.816 -0.247,0.793 -0.435,1.607 -0.736,2.378 -0.325,0.832 -0.758,1.621 -1.13,2.435 -0.1,0.218 -0.216,0.464 -0.205,0.692 0.032,0.659 -0.237,1.207 -0.557,1.739 -0.327,0.543 -0.512,1.114 -0.518,1.752 -0.002,0.238 -0.054,0.494 -0.155,0.709 -0.313,0.669 -0.66,1.323 -0.994,1.982 -0.387,0.765 -0.219,1.299 0.585,1.634 0.451,0.188 0.941,0.356 1.422,0.384 1.003,0.059 2.013,0.018 3.02,0.018 z"
       style="fill:#964707;stroke:#000000;stroke-width:0;stroke-opacity:1"
       id="path16" />
    <path
       d="m 233.682,28.001 c 0,0.736 0.1,1.489 -0.022,2.205 -0.218,1.273 -0.535,2.533 -0.88,3.779 -0.235,0.851 -0.517,1.688 -0.866,2.515 -0.328,0.776 -0.498,1.63 -0.981,2.359 -0.079,0.12 -0.13,0.302 -0.106,0.44 0.102,0.594 -0.223,0.977 -0.578,1.386 -1.258,1.443 -2.476,2.921 -3.743,4.356 -0.558,0.632 -1.212,1.047 -2.154,1.075 -1.16,0.035 -2.178,0.64 -3.157,1.237 -0.844,0.515 -1.67,1.059 -2.497,1.602 -0.434,0.285 -0.891,0.353 -1.41,0.332 -0.61,-0.025 -1.225,0.073 -1.838,0.114 -0.431,0.029 -0.869,0.111 -1.292,0.065 -1.869,-0.203 -3.735,-0.428 -5.598,-0.68 -0.56,-0.076 -0.975,0.089 -1.461,0.365 -0.9,0.511 -1.399,1.24 -1.683,2.192 -0.086,0.288 -0.285,0.544 -0.443,0.808 -0.377,0.624 -0.372,0.738 0.091,1.313 0.039,0.048 0.078,0.098 0.125,0.137 0.913,0.74 1.234,1.585 0.526,2.656 -0.109,0.165 -0.08,0.418 -0.133,0.626 -0.107,0.416 -0.138,0.886 -0.36,1.231 -0.606,0.947 -0.636,1.966 -0.589,3.029 0.038,0.855 -0.049,1.717 0.002,2.571 0.069,1.144 -0.456,2.089 -0.931,3.047 -0.273,0.55 -0.819,0.832 -1.4,0.994 -0.73,0.204 -1.146,-0.066 -1.346,-0.813 -0.063,-0.234 -0.13,-0.494 -0.279,-0.673 -0.41,-0.493 -0.577,-1.027 -0.679,-1.671 -0.14,-0.885 -0.839,-1.482 -1.609,-1.902 -0.173,-0.095 -0.589,0.012 -0.742,0.171 -0.399,0.416 -0.719,0.908 -1.059,1.379 -0.196,0.271 -0.308,0.641 -0.561,0.824 -0.641,0.463 -1.095,1.065 -1.556,1.688 -0.315,0.426 -0.507,0.819 -0.408,1.355 0.06,0.326 0.132,0.717 -0.253,0.91 -0.392,0.197 -0.799,0.143 -1.107,-0.184 -0.417,-0.443 -0.841,-0.44 -1.314,-0.111 -0.434,0.302 -0.861,0.215 -1.312,-0.004 -0.441,-0.215 -0.901,-0.412 -1.373,-0.538 -0.73,-0.195 -1.074,-0.005 -1.24,0.686 -0.112,0.469 -0.171,0.957 -0.756,1.017 -0.558,0.057 -1.031,-0.15 -1.336,-0.656 -0.048,-0.079 -0.091,-0.191 -0.163,-0.219 -0.245,-0.096 -0.54,-0.274 -0.745,-0.207 -0.198,0.065 -0.405,0.384 -0.433,0.613 -0.039,0.322 0.071,0.666 0.138,0.996 0.146,0.713 -0.165,1.061 -0.898,0.976 -0.122,-0.014 -0.244,-0.047 -0.358,-0.092 -0.481,-0.191 -0.84,0.006 -1.15,0.356 -0.123,0.138 -0.222,0.302 -0.358,0.425 -0.317,0.287 -0.655,0.286 -0.856,-0.093 -0.416,-0.783 -0.911,-1.58 -0.276,-2.503 0.346,-0.502 0.267,-0.985 -0.163,-1.426 -0.214,-0.22 -0.404,-0.467 -0.581,-0.72 -1.045,-1.495 -0.962,-3.114 0.272,-4.481 0.368,-0.408 0.817,-0.754 1.27,-1.069 0.393,-0.274 0.629,-0.576 0.571,-1.071 -0.04,-0.34 -0.177,-0.588 -0.537,-0.664 -0.151,-0.032 -0.304,-0.056 -0.451,-0.102 -1.156,-0.361 -1.348,-1.103 -0.53,-1.995 1.309,-1.426 1.48,-2.886 0.569,-4.501 -0.65,-1.151 -0.748,-2.257 -0.375,-3.459 0.124,-0.399 0.13,-0.756 -0.018,-1.162 -0.298,-0.817 -0.185,-1.078 0.51,-1.563 0.884,-0.617 1.776,-1.205 2.297,-2.223 0.218,-0.425 0.38,-0.82 0.403,-1.295 0.024,-0.49 0.046,-0.994 0.177,-1.461 0.151,-0.538 0.096,-1.026 -0.055,-1.543 -0.181,-0.62 -0.477,-0.991 -1.133,-1.298 -1.034,-0.482 -1.809,-1.373 -2.294,-2.452 -0.189,-0.42 -0.365,-0.846 -0.54,-1.272 -0.334,-0.816 -0.299,-1.529 0.191,-2.353 0.75,-1.259 1.401,-2.591 1.432,-4.143 0.034,-1.676 0.533,-3.279 0.973,-4.885 0.169,-0.618 0.382,-1.243 0.423,-1.875 0.061,-0.937 0.625,-1.533 1.242,-2.086 0.468,-0.419 0.859,-0.86 1.175,-1.408 0.698,-1.211 1.79,-1.9 3.136,-2.258 0.589,-0.156 1.147,-0.446 1.7,-0.713 0.693,-0.335 1.369,-0.704 2.048,-1.067 1.376,-0.738 2.859,-1.102 4.384,-1.394 1.721,-0.329 3.438,-0.717 5.06,-1.419 0.028,-0.012 0.056,-0.031 0.085,-0.036 1.964,-0.305 3.79,-1.257 5.869,-1.093 1.075,0.085 2.194,0.099 3.249,-0.487 0.524,-0.291 1.26,-0.261 1.901,-0.271 1.981,-0.031 3.962,-0.015 5.944,-0.008 0.339,0.001 0.682,0.024 1.016,0.08 1.732,0.293 3.468,0.569 5.191,0.909 1.983,0.392 3.46,1.357 3.953,3.501 0.147,0.637 0.611,1.2 0.919,1.803 0.656,1.286 1.306,2.576 1.955,3.866 0.069,0.137 0.145,0.283 0.165,0.432 0.192,1.377 1.051,2.475 1.539,3.725 0.197,0.503 0.293,1.06 0.344,1.601 0.058,0.613 0.013,1.236 0.013,1.855 0.036,-0.003 0.072,-0.003 0.108,-0.003 z m -27.219,15.901 c 0.86,0.044 1.657,-0.11 2.42,-0.524 0.319,-0.173 0.695,-0.256 1.054,-0.34 2.376,-0.559 4.32,-1.783 5.779,-3.75 0.386,-0.52 0.79,-1.035 1.104,-1.597 0.184,-0.33 0.285,-0.75 0.284,-1.129 -0.001,-0.487 -0.053,-1.013 -0.245,-1.451 -0.29,-0.659 -0.138,-1.174 0.213,-1.731 0.604,-0.958 0.427,-1.891 -0.207,-2.762 -0.308,-0.423 -0.661,-0.815 -1.005,-1.212 -0.626,-0.723 -1.287,-1.419 -1.885,-2.165 -0.925,-1.153 -2.035,-2.053 -3.364,-2.701 -0.526,-0.257 -0.997,-0.24 -1.496,0.036 -0.266,0.147 -0.559,0.248 -0.841,0.366 -0.363,0.152 -0.722,0.313 -1.091,0.448 -0.805,0.297 -1.596,0.672 -2.428,0.847 -1.05,0.221 -2.139,0.254 -3.204,0.419 -0.226,0.035 -0.56,0.262 -0.6,0.452 -0.167,0.793 -0.69,1.323 -1.263,1.782 -0.905,0.725 -1.669,1.462 -1.957,2.686 -0.188,0.796 -0.38,1.563 -0.248,2.359 0.202,1.217 0.059,2.449 -0.267,3.563 -0.314,1.076 -0.295,1.822 0.602,2.493 0.071,0.053 0.111,0.147 0.164,0.223 1.028,1.476 2.585,2.254 4.096,3.09 0.158,0.088 0.348,0.14 0.529,0.161 1.285,0.153 2.571,0.293 3.856,0.437 z m -16.73,2.184 c -0.173,0.067 -0.455,0.126 -0.677,0.275 -0.197,0.132 -0.305,0.391 -0.492,0.545 -0.524,0.432 -0.76,0.914 -0.547,1.619 0.136,0.449 -0.065,0.607 -0.544,0.564 -0.091,-0.008 -0.182,-0.034 -0.27,-0.061 -0.461,-0.143 -0.753,0.037 -0.977,0.449 -0.512,0.938 -0.416,1.382 0.519,2.092 -0.076,0.251 -0.179,0.507 -0.229,0.774 -0.074,0.397 0.159,0.669 0.561,0.645 0.21,-0.013 0.423,-0.087 0.62,-0.168 1.037,-0.429 2.092,-0.699 3.236,-0.581 0.602,0.062 0.965,-0.294 0.906,-0.884 -0.037,-0.373 -0.175,-0.814 -0.425,-1.071 -0.386,-0.397 -0.491,-0.81 -0.488,-1.326 0.002,-0.328 -0.039,-0.686 -0.173,-0.979 -0.277,-0.606 -0.628,-1.177 -1.02,-1.893 z"
       style="fill:#964707;stroke:#000000;stroke-width:0;stroke-opacity:1"
       id="path18" />
    <path
       d="m 63.011,90.343 c -0.9,-0.102 -1.631,-0.095 -2.247,0.456 -0.11,0.098 -0.299,0.22 -0.41,0.188 -0.87,-0.247 -1.84,0.203 -2.661,-0.422 -0.484,-0.368 -0.896,-0.251 -1.362,0.247 -0.442,0.473 -0.868,0.972 -1.368,1.377 -0.89,0.719 -1.338,0.724 -2.222,0.014 -1.688,-1.355 -1.658,-0.788 -2.972,0.173 -0.223,0.163 -0.386,0.406 -0.605,0.574 -0.391,0.301 -0.722,0.257 -1.056,-0.111 -0.428,-0.472 -0.579,-1.04 -0.417,-1.64 0.198,-0.733 0.262,-1.342 -0.65,-1.639 -0.127,-0.041 -0.267,-0.462 -0.197,-0.615 0.497,-1.102 0.468,-2.296 0.583,-3.446 0.113,-1.131 0.488,-2.128 1.158,-2.975 1.131,-1.429 1.817,-3.086 2.597,-4.696 0.153,-0.315 0.192,-0.724 0.164,-1.081 -0.058,-0.761 0.144,-1.434 0.653,-1.964 0.988,-1.031 1.403,-2.375 2.068,-3.582 0.774,-1.406 1.538,-2.819 2.349,-4.203 0.262,-0.447 0.659,-0.814 0.994,-1.218 1.09,-1.314 1.998,-2.732 2.651,-4.323 0.995,-2.426 2.067,-4.817 3.407,-7.081 0.502,-0.849 0.928,-1.747 1.327,-2.65 0.182,-0.412 0.247,-0.887 0.304,-1.341 0.061,-0.489 0.077,-0.988 0.064,-1.481 -0.011,-0.411 0.144,-0.726 0.434,-0.98 0.809,-0.71 1.55,-1.496 2.604,-1.894 1.034,-0.391 2.014,-0.893 3.093,-1.204 0.725,-0.209 1.343,-0.837 1.97,-1.328 0.492,-0.386 0.965,-0.784 1.609,-0.849 0.3,-0.03 0.637,-0.053 0.909,0.049 1.007,0.38 2.043,0.435 3.101,0.417 1.213,-0.021 1.519,0.258 1.718,1.441 0.041,0.243 0.095,0.484 0.122,0.728 0.043,0.389 0.272,0.602 0.621,0.729 0.401,0.146 0.756,0.053 1.001,-0.268 0.355,-0.464 0.643,-0.98 0.995,-1.448 0.257,-0.341 0.526,-0.702 0.87,-0.94 0.552,-0.382 0.953,-0.229 1.26,0.375 0.056,0.11 0.078,0.238 0.139,0.343 0.276,0.47 0.67,0.518 1.056,0.127 0.108,-0.109 0.214,-0.232 0.279,-0.369 0.282,-0.585 0.805,-0.879 1.381,-0.997 0.812,-0.166 1.645,-0.271 2.472,-0.294 0.271,-0.008 0.665,0.257 0.806,0.508 0.466,0.828 0.908,1.683 1.233,2.573 0.348,0.954 0.54,1.963 0.823,2.942 0.128,0.441 0.31,0.866 0.472,1.296 0.108,0.287 0.301,0.565 0.324,0.858 0.115,1.418 0.71,2.683 1.23,3.967 0.476,1.176 0.9,2.347 1.111,3.615 0.144,0.864 0.586,1.679 0.902,2.513 0.318,0.838 0.672,1.663 0.956,2.511 0.164,0.489 0.215,1.015 0.328,1.521 0.079,0.354 0.137,0.72 0.276,1.051 0.835,1.987 1.814,3.92 2.136,6.09 0.058,0.391 0.17,0.805 0.373,1.137 0.494,0.808 0.518,1.685 0.575,2.585 0.038,0.601 0.118,1.277 0.423,1.768 0.575,0.921 0.902,1.87 0.959,2.941 0.049,0.924 0.134,1.847 0.213,2.769 0.047,0.549 -0.133,1.015 -0.402,1.49 -0.238,0.42 -0.447,0.893 -0.511,1.365 -0.097,0.724 -0.481,1.172 -1.073,1.512 -0.856,0.491 -1.81,0.636 -2.763,0.666 -0.342,0.011 -0.795,-0.231 -1.025,-0.504 -0.906,-1.073 -2.035,-1.056 -2.753,0.434 -0.119,0.248 -0.274,0.489 -0.455,0.697 -0.869,1 -1.788,0.941 -2.758,0.054 -1.022,-0.934 -2.165,-1.739 -3.282,-2.563 -0.182,-0.134 -0.566,-0.191 -0.746,-0.089 -0.326,0.185 -0.188,0.532 -0.058,0.827 0.324,0.734 0.637,1.472 0.959,2.206 0.266,0.606 0.072,1.191 -0.563,1.67 -0.574,0.433 -1.022,0.407 -1.582,-0.067 -1.038,-0.879 -1.498,-2.09 -1.934,-3.319 -0.184,-0.518 -0.44,-1.014 -0.585,-1.541 -0.111,-0.404 -0.172,-0.85 -0.125,-1.263 0.081,-0.721 -0.054,-1.333 -0.523,-1.9 -0.448,-0.542 -0.61,-1.139 -0.476,-1.89 0.203,-1.133 -0.594,-1.974 -1.757,-2.004 -0.4,-0.01 -0.835,-0.054 -1.198,0.074 -1.593,0.562 -3.223,0.28 -4.841,0.31 -0.421,0.008 -0.852,0.138 -1.256,0.278 -0.704,0.245 -1.394,0.416 -2.16,0.339 -0.926,-0.094 -1.834,-0.022 -2.686,0.49 -0.726,0.437 -1.198,1.023 -1.558,1.772 -0.682,1.418 -1.387,2.828 -2.153,4.202 -0.262,0.47 -0.696,0.869 -1.12,1.217 -0.872,0.716 -0.912,0.831 -0.251,1.703 0.019,0.024 0.054,0.043 0.061,0.069 0.056,0.224 0.213,0.504 0.132,0.658 -0.086,0.165 -0.392,0.271 -0.614,0.295 -0.335,0.037 -0.678,-0.022 -0.87,-0.032 z M 78.134,70.167 c 0.017,0.07 0.034,0.139 0.051,0.208 0.464,-0.129 0.957,-0.198 1.387,-0.399 1.308,-0.612 1.399,-1.097 0.462,-2.234 -0.327,-0.397 -0.604,-0.845 -0.531,-1.339 0.124,-0.832 -0.043,-1.597 -0.36,-2.335 -0.411,-0.956 -0.436,-1.874 -0.074,-2.865 0.18,-0.493 0.155,-1.089 0.101,-1.626 -0.024,-0.236 -0.314,-0.542 -0.554,-0.635 -0.378,-0.147 -0.817,-0.091 -1.078,0.3 -0.187,0.28 -0.368,0.585 -0.459,0.905 -0.447,1.576 -1.021,3.096 -1.866,4.506 -0.125,0.208 -0.178,0.459 -0.272,0.687 -0.517,1.255 -0.989,2.532 -1.568,3.758 -0.508,1.076 -0.238,1.708 0.953,1.722 0.696,0.008 1.396,-0.197 2.092,-0.319 0.574,-0.102 1.144,-0.222 1.716,-0.334 z"
       style="fill:#964707;stroke:#000000;stroke-width:0;stroke-opacity:1"
       id="path20" />
    <path
       d="m 45.009,87.83 c 0.18,1.557 0.084,2.94 -0.334,4.272 -0.29,0.924 -1.012,1.535 -1.883,1.946 -0.363,0.171 -0.761,0.279 -1.101,0.486 -1.073,0.653 -2.247,0.705 -3.463,0.819 -1.555,0.145 -3.018,-0.055 -4.544,-0.295 -1.877,-0.295 -3.819,-0.204 -5.733,-0.231 -0.703,-0.01 -1.35,-0.077 -1.908,-0.547 -0.684,-0.575 -1.405,-0.557 -2.144,-0.104 -0.052,0.032 -0.112,0.052 -0.168,0.079 -1.618,0.797 -1.716,0.79 -3.174,-0.247 -0.277,-0.197 -0.543,-0.408 -0.822,-0.602 -0.501,-0.349 -1.021,-0.492 -1.653,-0.337 -0.774,0.19 -1.524,0.144 -2.12,-0.541 C 14.702,91.081 13.001,90.344 11.248,89.72 10.19,89.343 9.159,88.933 8.38,88.086 8.132,87.817 7.921,87.509 7.727,87.198 7.3,86.516 6.914,85.81 6.483,85.133 5.472,83.545 4.465,81.954 3.414,80.392 2.951,79.703 2.433,79.038 1.857,78.442 1.27,77.834 1.001,77.231 1.194,76.362 1.3,75.884 1.222,75.301 1.041,74.837 0.578,73.649 0.477,72.453 0.647,71.205 0.701,70.811 0.693,70.398 0.642,70.004 0.481,68.755 0.329,67.502 0.09,66.266 c -0.152,-0.787 -0.109,-1.552 0.102,-2.29 0.339,-1.185 0.763,-2.346 1.17,-3.511 0.366,-1.048 0.775,-2.081 1.126,-3.133 0.105,-0.314 0.119,-0.673 0.105,-1.009 -0.042,-1.062 0.279,-2.006 0.86,-2.876 0.498,-0.746 0.996,-1.491 1.492,-2.238 0.678,-1.02 1.504,-1.871 2.633,-2.404 1.469,-0.693 2.724,-1.69 3.889,-2.81 0.721,-0.693 1.526,-1.228 2.512,-1.505 1.739,-0.488 3.27,-1.453 4.884,-2.226 0.498,-0.238 1.025,-0.439 1.561,-0.564 0.343,-0.08 0.759,-0.079 1.086,0.04 1.294,0.474 2.553,0.237 3.82,-0.079 1.016,-0.253 2.026,-0.538 3.053,-0.736 0.373,-0.072 0.792,0.036 1.178,0.116 0.299,0.062 0.609,0.163 0.865,0.324 1.269,0.796 2.662,0.912 4.104,0.817 0.215,-0.014 0.452,-0.047 0.646,0.023 1.179,0.424 2.348,0.877 3.521,1.316 0.311,0.116 0.618,0.275 0.94,0.322 1.697,0.249 3.088,1.017 4.167,2.353 0.315,0.39 0.373,0.815 0.317,1.304 -0.069,0.607 -0.121,1.227 -0.076,1.834 0.066,0.88 -0.122,1.414 -0.919,1.815 -0.573,0.288 -1.195,0.489 -1.811,0.681 -0.438,0.136 -0.836,0.26 -0.867,0.81 -0.027,0.49 0.186,0.829 0.789,0.977 0.923,0.227 1.546,0.886 2.238,1.442 0.388,0.312 0.392,0.585 0.034,0.946 -0.547,0.551 -1.139,1.047 -1.977,1.104 -0.305,0.021 -0.615,0.08 -0.907,0.17 -0.626,0.194 -0.837,0.638 -0.54,1.218 0.149,0.291 0.425,0.515 0.634,0.776 0.228,0.285 0.554,0.549 0.646,0.875 0.188,0.671 0.429,1.27 0.968,1.743 0.262,0.23 0.248,0.54 0.032,0.836 -0.414,0.567 -1.325,0.965 -1.963,0.728 -1.147,-0.425 -2.351,-0.466 -3.529,-0.68 -0.893,-0.162 -1.747,-0.578 -2.598,-0.93 -0.941,-0.389 -1.862,-0.829 -2.787,-1.257 -0.753,-0.349 -1.42,-0.267 -2.19,0.104 -1.639,0.789 -3.326,1.492 -5.034,2.118 -1.11,0.407 -1.794,1.021 -1.863,2.243 -0.069,1.22 -0.441,2.366 -1.003,3.44 -0.359,0.685 -0.272,1.297 0.094,1.927 0.294,0.508 0.568,1.028 0.851,1.543 0.341,0.621 0.406,1.212 -0.104,1.798 -0.174,0.201 -0.285,0.476 -0.364,0.736 -0.223,0.732 -0.007,1.012 0.735,1.129 0.511,0.081 1.006,0.254 1.511,0.372 0.835,0.194 1.434,0.74 1.925,1.38 0.454,0.592 1.019,0.765 1.704,0.706 0.276,-0.024 0.547,-0.132 0.821,-0.133 0.64,-0.003 1.28,0.051 1.92,0.053 0.482,10e-4 1.016,0.081 1.434,-0.094 0.649,-0.272 1.283,-0.418 1.976,-0.373 0.628,0.041 1.229,0.002 1.737,-0.459 0.353,-0.32 0.731,-0.276 1.068,0.06 0.842,0.843 1.778,0.867 2.903,0.573 0.903,-0.236 1.897,-0.124 2.851,-0.154 0.115,-0.004 0.238,0.062 0.349,0.115 0.42,0.201 0.888,0.387 0.949,0.923 0.058,0.507 -0.346,0.753 -0.698,1.011 -0.734,0.539 -0.793,1.298 -0.156,1.946 0.043,0.044 0.097,0.076 0.143,0.118 0.745,0.688 0.751,0.807 -0.023,1.516 -0.474,0.435 -0.962,0.857 -1.471,1.25 -0.968,0.747 -0.921,1.431 0.146,2.071 0.422,0.253 0.836,0.527 1.216,0.837 0.587,0.48 1.156,0.954 2.094,0.486 z"
       style="fill:#964707;stroke:#000000;stroke-width:0;stroke-opacity:1"
       id="path22" />
    <path
       d="m 24.462,119.462 c -0.11,-0.81 0.07,-1.75 0.576,-2.653 0.208,-0.371 0.265,-0.848 0.31,-1.285 0.073,-0.705 0.185,-1.385 0.56,-2.005 0.112,-0.186 0.216,-0.413 0.22,-0.623 0.018,-0.919 0.528,-1.549 1.181,-2.094 0.764,-0.638 1.382,-1.362 1.881,-2.247 0.486,-0.861 1.259,-1.551 2.306,-1.728 1.094,-0.184 2.088,-0.518 2.901,-1.324 0.374,-0.371 0.876,-0.462 1.424,-0.396 0.837,0.1 1.638,-0.077 2.429,-0.387 0.493,-0.194 1.043,-0.236 1.563,-0.366 0.893,-0.223 1.808,-0.393 2.664,-0.716 0.69,-0.26 1.34,-0.383 2.046,-0.183 0.672,0.191 1.274,0.126 1.93,-0.208 0.544,-0.277 1.225,-0.282 1.841,-0.425 0.424,-0.098 0.863,-0.176 1.255,-0.353 0.563,-0.254 1.104,-0.404 1.738,-0.311 0.563,0.082 1.151,0.067 1.721,0.021 1.659,-0.134 3.231,0.305 4.8,0.718 2.442,0.644 4.905,1.131 7.439,0.995 0.968,-0.052 1.548,0.434 2.114,1.067 0.246,0.275 0.265,0.562 0.117,0.882 -0.361,0.778 -0.695,1.571 -1.088,2.333 -0.261,0.507 -0.603,0.972 -0.914,1.453 -0.405,0.627 -0.401,1.044 0.166,1.502 0.496,0.401 0.601,0.845 0.482,1.433 -0.075,0.37 -0.065,0.76 -0.073,1.141 -0.024,1.049 -0.178,1.272 -1.193,1.535 -0.691,0.179 -1.236,0.469 -1.412,1.243 -0.118,0.519 0.039,0.96 0.331,1.336 0.307,0.395 0.296,0.737 0.048,1.13 -0.119,0.188 -0.206,0.396 -0.311,0.592 -0.563,1.057 -0.811,1.168 -1.977,0.981 -0.374,-0.06 -0.773,-0.107 -1.14,-0.044 -1.638,0.28 -3.167,0.052 -4.578,-0.853 -0.106,-0.068 -0.225,-0.138 -0.346,-0.159 -0.964,-0.164 -1.944,-0.268 -2.695,-1.014 -0.088,-0.088 -0.315,-0.101 -0.454,-0.062 -0.73,0.204 -1.441,0.105 -2.174,-0.008 -0.488,-0.075 -1.012,0.023 -1.512,0.098 -1.161,0.174 -2.253,0.669 -3.462,0.668 -0.721,0 -1.006,0.333 -1.035,0.881 -0.035,0.654 0.348,1.178 1.021,1.3 0.594,0.108 1.205,0.117 1.799,0.224 0.523,0.094 1.065,0.192 1.537,0.418 0.477,0.229 0.935,0.378 1.461,0.343 0.585,-0.038 1.131,0.077 1.655,0.37 0.762,0.425 1.581,0.654 2.468,0.657 1.029,0.004 1.88,0.582 2.742,1.026 0.709,0.365 1.505,0.714 1.857,1.567 0.073,0.176 0.334,0.283 0.523,0.4 0.352,0.218 0.71,0.428 1.075,0.625 1.3,0.701 2.101,1.83 2.674,3.143 0.124,0.283 0.165,0.61 0.203,0.922 0.127,1.041 0.201,2.089 0.361,3.124 0.118,0.759 -0.186,1.446 -0.235,2.165 -0.046,0.671 0.341,1.399 0.205,2.031 -0.539,2.502 -1.364,4.898 -2.954,6.98 -1.026,1.342 -1.928,2.78 -3.229,3.891 -0.024,0.021 -0.049,0.043 -0.066,0.069 -1.225,1.962 -3.325,2.714 -5.234,3.684 -1.295,0.658 -2.716,1.068 -4.071,1.612 -0.471,0.189 -0.938,0.412 -1.364,0.686 -0.941,0.605 -1.861,0.563 -2.793,0.011 -0.247,-0.146 -0.473,-0.351 -0.738,-0.439 -0.346,-0.114 -0.726,-0.206 -1.084,-0.186 -0.728,0.042 -1.449,0.199 -2.177,0.241 -0.334,0.019 -0.687,-0.094 -1.015,-0.197 -0.939,-0.295 -1.838,-0.435 -2.719,0.211 -0.499,0.366 -1.096,0.433 -1.732,0.387 -1.455,-0.105 -2.838,-0.382 -3.998,-1.339 -0.32,-0.264 -0.642,-0.234 -0.979,-0.062 -0.456,0.233 -0.873,0.136 -1.361,0.006 -1.192,-0.317 -2.186,-1.014 -3.25,-1.562 -0.846,-0.436 -1.665,-0.807 -2.627,-0.699 -0.695,0.077 -1.257,-0.176 -1.725,-0.648 -0.877,-0.883 -1.729,-1.791 -2.602,-2.678 -0.442,-0.449 -0.477,-0.935 -0.228,-1.489 0.259,-0.574 0.698,-0.785 1.306,-0.751 0.444,0.024 0.895,0.041 1.336,-0.004 0.661,-0.067 0.917,-0.413 0.744,-1.044 -0.099,-0.359 -0.29,-0.713 -0.516,-1.013 -0.404,-0.536 -0.56,-1.132 -0.594,-1.782 -0.037,-0.707 0.018,-0.809 0.649,-1.109 0.989,-0.47 1.147,-1.174 0.591,-2.176 -0.382,-0.688 -0.666,-1.433 -0.955,-2.168 -0.116,-0.295 -0.02,-0.638 0.353,-0.639 1.356,-0.005 2.089,-1.006 2.878,-1.835 0.601,-0.631 1.073,-1.027 2.081,-0.977 0.884,0.044 1.49,0.313 2.139,0.791 0.614,0.452 1.297,0.811 1.938,1.228 0.638,0.415 1.245,0.881 1.897,1.271 0.759,0.453 1.544,0.867 2.339,1.256 0.243,0.119 0.583,0.192 0.831,0.12 0.58,-0.169 1.073,-0.006 1.554,0.255 0.449,0.243 0.947,0.367 1.38,0.148 1.167,-0.592 2.421,-0.739 3.686,-0.899 0.715,-0.09 1.369,-0.393 1.792,-0.996 0.205,-0.292 0.403,-0.716 0.348,-1.036 -0.118,-0.682 -0.371,-1.349 -0.632,-1.997 -0.196,-0.484 -0.567,-0.817 -1.096,-0.996 -0.779,-0.263 -1.504,-0.496 -2.389,-0.438 -1.09,0.072 -2.204,-0.208 -3.211,-0.763 -1.197,-0.659 -2.442,-1.238 -3.813,-1.411 -1.212,-0.153 -2.156,-0.727 -2.945,-1.618 -0.506,-0.573 -1.022,-1.138 -1.522,-1.717 -0.73,-0.846 -1.446,-1.693 -1.755,-2.816 -0.106,-0.384 -0.346,-0.778 -0.632,-1.057 -0.748,-0.732 -1.058,-1.571 -0.863,-2.599 0.022,-0.126 0.002,-0.257 0.002,-0.587 z"
       style="fill:#964707;stroke:#000000;stroke-width:0;stroke-opacity:1"
       id="path24" />
    <path
       d="m 155.282,78.204 c -0.904,-0.578 -1.023,-1.108 -0.493,-1.977 0.604,0.453 0.825,1.268 0.493,1.977 z"
       style="fill:#964707;stroke:#000000;stroke-width:0;stroke-opacity:1"
       id="path26" />
    <path
       d="m 222.424,74.991 c 0.072,-0.393 0.157,-0.891 0.007,-1.201 -0.609,-1.259 0.161,-3.439 -0.548,-4.631 -0.348,-0.585 -0.888,-0.526 -1.417,-0.16 -1.358,0.937 -1.454,0.91 -2.222,-0.545 -0.041,-0.077 -0.07,-0.163 -0.116,-0.237 -0.42,-0.671 -0.862,-0.77 -1.441,-0.236 -0.38,0.35 -0.686,0.799 -1.027,1.202 -0.677,0.8 -1.085,0.948 -1.936,0.44 -0.614,-0.367 -1.076,-0.243 -1.563,0.224 -0.126,0.121 -0.263,0.228 -0.399,0.334 -0.975,0.76 -1.561,0.616 -2.041,-0.532 -0.023,-0.054 -0.039,-0.111 -0.058,-0.166 -1.093,-0.053 -2.952,-0.331 -3.338,0.869 -0.132,0.41 -0.422,0.627 -0.746,0.718 -0.001,0.001 -0.002,0.003 -0.003,0.004 -0.302,0.746 -0.872,1.284 -1.83,1.606 -1.528,0.513 -1.996,1.64 -1.538,3.301 0.33,1.2 -0.841,4.151 -0.454,8.207 -1.071,0.577 -2.131,1.175 -3.389,1.293 -0.182,0.017 -0.358,0.132 -0.529,0.218 -0.825,0.42 -1.637,0.868 -2.476,1.26 -0.36,0.169 -0.77,0.299 -1.163,0.317 -0.734,0.035 -1.354,0.273 -1.937,0.713 -0.402,0.303 -0.863,0.533 -1.311,0.769 -0.65,0.342 -1.341,0.614 -1.959,1.004 -0.418,0.263 -0.825,0.624 -1.087,1.037 -0.68,1.071 -0.561,1.541 0.442,2.322 0.393,0.306 0.708,0.648 0.62,1.199 -0.102,0.637 -0.556,0.864 -1.12,1.022 -0.419,0.117 -0.851,0.278 -1.198,0.53 -0.335,0.243 -0.519,0.629 -0.356,1.101 0.442,1.274 2.01,2.442 3.365,2.467 0.51,0.009 1.021,-0.04 1.532,-0.04 1.795,-0.001 2.879,1.471 2.324,3.146 -0.01,0.03 -0.017,0.062 -0.032,0.09 -0.253,0.502 -0.1,0.935 0.26,1.302 0.221,0.226 0.476,0.426 0.742,0.598 1.942,1.254 3.944,0.959 5.944,0.178 0.541,-0.211 1.047,-0.478 1.622,-0.267 l 0.093,-0.041 c 0.001,0.087 -0.001,0.174 0.001,0.261 0.009,0.347 0.127,0.713 0.05,1.035 -0.208,0.867 -0.191,4.041 -0.512,4.871 -0.208,0.539 -0.168,0.955 0.131,1.434 0.229,0.367 0.499,0.82 0.471,1.215 -0.12,1.68 0.123,3.369 -0.317,5.049 -0.353,1.345 -0.602,2.769 0.43,4.025 0.269,0.327 0.241,0.746 0.148,1.187 -0.189,0.901 -0.424,1.826 -0.389,2.732 0.079,2.027 0.311,4.048 0.483,6.071 0.05,0.588 0.602,1.342 1.088,1.457 0.662,0.156 1.108,-0.188 1.441,-0.705 0.224,-0.347 0.41,-0.719 0.604,-1.084 0.12,-0.225 0.201,-0.474 0.339,-0.686 0.431,-0.661 1.185,-0.694 1.668,-0.081 0.098,0.124 0.163,0.274 0.246,0.41 0.599,0.985 1.349,0.773 1.842,0.105 0.386,-0.523 0.601,-1.179 0.856,-1.791 0.219,-0.526 0.359,-1.085 0.588,-1.605 0.194,-0.439 0.629,-0.514 1.06,-0.5 0.439,0.015 0.569,0.343 0.655,0.706 0.029,0.123 0.082,0.242 0.137,0.356 0.455,0.946 1.833,1.267 2.662,0.622 1.01,-0.786 1.238,-0.787 2.265,-0.014 0.856,0.644 1.296,0.551 1.803,-0.399 0.104,-0.194 0.201,-0.408 0.234,-0.623 0.13,-0.849 0.261,-1.699 0.343,-2.554 0.145,-1.522 0.228,-3.049 0.39,-4.569 0.087,-0.818 0.348,-1.618 0.419,-2.436 0.12,-1.364 0.201,-2.736 0.204,-4.105 0.004,-1.221 0.07,-2.421 0.434,-3.592 0.195,-0.628 0.163,-1.243 0.039,-1.889 -0.113,-0.587 -0.14,-1.206 -0.098,-1.804 0.096,-1.365 0.263,-2.724 0.389,-4.087 0.074,-0.795 -0.115,-5.7 -0.084,-7.895 1.034,-0.241 2.234,-0.372 2.692,-0.376 0.276,-0.002 0.556,-0.121 0.826,-0.21 0.968,-0.32 1.911,-0.759 2.903,-0.951 1.651,-0.319 3.117,-1.11 4.679,-1.646 0.313,-0.107 0.608,-0.365 0.827,-0.625 0.503,-0.596 0.379,-1.3 -0.281,-1.714 -0.266,-0.167 -0.582,-0.252 -0.869,-0.388 -0.627,-0.297 -0.798,-0.664 -0.518,-1.313 0.246,-0.572 0.359,-1.108 0.227,-1.747 -0.187,-0.903 0.172,-1.369 1.079,-1.604 0.243,-0.063 0.503,-0.064 0.755,-0.091 0.91,-0.098 1.151,-0.434 0.982,-1.35 -0.057,-0.312 -0.139,-0.63 -0.122,-0.941 0.035,-0.649 -0.246,-1.076 -0.857,-1.194 -0.926,-0.179 -1.129,-0.781 -1.144,-1.606 -0.02,-1.071 -0.383,-1.412 -1.444,-1.485 -0.096,-0.007 -0.192,-0.002 -0.287,-0.007 -1.177,-0.057 -2.354,-0.126 -3.532,-0.167 -0.38,-0.013 -0.763,0.038 -1.144,0.071 -1.075,0.093 -2.151,0.178 -3.224,0.293 -0.471,0.051 -0.938,0.137 -1.405,0.222 -0.17,-0.323 -0.426,-0.576 -0.143,-1.149 l 0.263,-2.554 z"
       style="fill:#964707;stroke:#000000;stroke-width:0;stroke-opacity:1"
       id="path28" />
  </g>
</svg>
