<?xml version="1.0" encoding="utf-8"?>
<!-- Generator: Adobe Illustrator 21.0.0, SVG Export Plug-In . SVG Version: 6.00 Build 0)  -->
<svg version="1.1" id="Layer_1" xmlns="http://www.w3.org/2000/svg" xmlns:xlink="http://www.w3.org/1999/xlink" x="0px" y="0px"
	 width="658.907894215" height="151.766280049" viewBox="0 0 718.1 165.4" style="enable-background:new 0 0 718.1 165.4;" xml:space="preserve"
	>
<g id="_x23_000000ff">
	<path d="M412.7,39.4C412.9,39.5,412.9,39.5,412.7,39.4z"/>
</g>
<g id="_x23_ffffffff">
	<path d="M400,2.9c3-2.7,7.5-3.7,11.4-2.5c1.5,0.5,2.8,1.4,4.2,2.3c1.1,0.7,2.4,1,3.4,1.8c0.5,0.4,0.1,1.1,0.1,1.6
		c1.3,3.1,2,6.5,0.9,9.8c-0.9,1.1-2.5,1.4-3.8,1.9c-0.2,1.4,0.3,2.7,0.5,4.1c-0.3,0.2-0.5,0.4-0.8,0.6c1.9-0.1,3.8-0.5,5.7-0.9
		c0.7-0.7,1.8-0.3,2.7-0.4c0.1-1.4,0.6-2.7,0.6-4.1c0.2,0,0.6-0.1,0.8-0.2c0.1,1,0,2,0.3,3c0.5,0.4,1.3,0.2,1.9,0.3
		c0,0.4,0,0.8,0.1,1.2c11.6-0.1,23.3,0,34.9,0c0,0.6,0,1.2,0,1.7c0.3,0,0.7,0,1.1,0c0-2.2,0-4.3,0-6.5c0.3,0,1,0,1.3,0
		c0,1.8-0.1,3.5,0,5.3c0.1,0.1,0.3,0.2,0.5,0.2c0,0.2,0.1,0.6,0.1,0.8c0.4-0.4,0.9-0.7,1.5-0.5c0.1,0.3,0.2,0.6,0.3,1
		c-0.4,0.4-0.6,0.9-0.4,1.5c3.2,0.1,6.4,0,9.7,0c0.3-0.4,0.8-0.6,1.3-0.8c0.2,0.1,0.5,0.3,0.6,0.4c1.6,0,3.1,0,4.7,0
		c0.2,0.8,0.2,1.6,0.1,2.3c-1.6,0-3.2,0-4.8,0c-0.1,0.1-0.4,0.4-0.6,0.5c-0.5-0.3-0.9-0.5-1.4-0.8c-2.9,0-5.8,0-8.7,0
		c-1.7,0.5-3.5,0.4-5.2,0.1c0,0.6,0,1.3,0,1.9c-4.8,0-9.5,0-14.3,0c-0.6,0.5-1.2,0.8-2,0.9c0.3,1.5-1.4,1.9-2,3
		c-0.4,0.6-1,1-1.6,1.2c-0.5,3.1,0.6,6,1.4,8.9c-0.9,0.2-1.9,0.5-2.8,0.7c-0.5,2-1,4.1-1.4,6.1c-0.4,1.8-1.8,3.3-3.5,4
		c-1.2,1.4-2.8,2.8-4.7,2.9c-0.7,0.2-1.2-0.3-1.7-0.7c-2.5,0.2-4.8-1-7-2c-2.4-1.1-4.6-2.5-6.9-3.8c0.2,1.4-0.5,2.6-1,3.8
		c1.1,0.5,2.6,0.9,3.2,2.1c0.4,0.9,0.8,1.9,0.8,3c-0.1,3.6-0.5,7.2-0.7,10.8c0.1,2.6-1.2,5.2-3,7.1c-1.2-0.1-2.2-0.6-3.3-1.1
		c-0.4,0.9-1.3,1.8-0.8,2.9c0.4,1.3,0.4,2.7,1,3.9c3.4,3.6,6.3,7.6,8.4,12.1c2.1,4.3,3.7,8.8,5.4,13.3c0.3,0,0.9-0.1,1.2-0.1
		c0.4,1.3,0,2.8,0.8,4c0.7,1.1,0.5,2.4,0.5,3.7c-0.2,3-0.4,6-0.7,9c-0.2,2.1-0.7,4.2-1,6.3c0.1,1.6,0.8,3.2,0.7,4.8
		c-0.1,1.5-0.1,3.1-1.3,4.2c0.1,3.4-0.8,6.8,0.4,10.1c1.6,2.2,3.4,4.3,5.3,6.2c2.1,1,4.6,1.2,6.4,3c0.7,1.1,0.3,2.4,0.1,3.6
		c-4.3,0.6-8.6,0.6-12.9,0c-1.7-0.4-3.3-1.1-5-1.3c-2.3,0.1-5,1-7.1-0.6c-0.2-2.7,0.8-5.3,1.3-7.9c0.2-0.9,1.1-1.5,1-2.4
		c-0.2-3.1-0.4-6.3-0.6-9.4c-0.4-0.2-1.1-0.4-1-1c0-1.5-0.5-3-0.9-4.4c-0.7-3.8-1-7.7-1.1-11.6c-0.1-1.1,0.6-1.9,1.4-2.6
		c0.2-1.7,0.4-3.5,0.5-5.2c-0.3-0.9-1-1.6-1.4-2.4c-1.8,0.2-4.4,0.6-5.5-1.3c-2.6-3.9-5.3-7.9-7.9-11.8c-1.1-0.1-2.4,0-3.4-0.7
		c-1.1-1.2-1.8-2.8-2.5-4.3c-0.3,1.2-0.5,2.5-1.2,3.5c-0.6,1-1.6,1.7-2.3,2.6c-0.7,1.6-1.3,3.2-1.9,4.8c-0.7,2-1.7,4-1.9,6.2
		c-0.1,1.1-0.3,2.1-0.7,3.1c-0.5,0.8-1.4,1.1-2.2,1.5c-0.6,1.3-1,2.6-1.9,3.7c-0.6,0.7-1.6,0.9-2,1.8c-0.4,1.2-1,2.3-1.5,3.4
		c-0.2,1.2,0.6,2.5,0.2,3.7c-0.7,3-2.2,5.8-3.6,8.5c-0.7,2-1.2,4.1-2.2,6c-0.4,0.8-1.4,1-2.2,1.1c-0.9,2.2-1.9,4.3-2.5,6.6
		c-0.3,2.2-0.3,4.5-0.2,6.7c0,1,0.6,1.8,1,2.7c0.4,1.2,0.1,2.4-0.1,3.6c-3.9,0.5-7.9,0.9-11.7-0.3c-0.4-0.3-0.3-0.8-0.4-1.2
		c-0.3-1.8-0.5-3.7,0.1-5.4c1.3-4.7,2.4-9.4,3.7-14.1c-0.5-0.5-1.2-0.9-1.2-1.7c-0.1-1.3,0-2.7,0.3-4c0.6-2.2,2.2-3.9,3-6
		c0.3-0.9,0.2-1.8,0.3-2.7c0-2.1,1.2-3.8,2.1-5.6c0.9-1.5,1.6-3.1,2.8-4.4c0.8-0.7,0.8-1.8,1.4-2.7c0.6-1.1,1.6-2,1.6-3.3
		c0.2-1.6-0.4-3.2-0.2-4.8c0.4-4.7,1.3-9.3,2.1-14c-0.4-0.5-1-1-1.2-1.7c0.1-0.5,0.2-0.9,0.3-1.4c-0.3-0.5-0.6-1-0.9-1.5
		c0.4-0.6,0.8-1.3,1.2-1.9c-0.4-0.3-0.9-0.7-1.3-1c0.5-1.5,0.3-3.7,2.1-4.4c0.2,0.1,0.7,0.2,0.9,0.3c-0.3-2.6-0.3-5.3-0.6-7.9
		c-0.7-2.8-0.8-5.7-0.5-8.5c1-1.5,2.9-2.1,4.6-2.2c-2.2-0.5-4.4-0.7-6.5-1.4c-0.1-1.8,0.2-3.6,0.5-5.4c0.9-3.5,0.5-7.1,1-10.7
		c0.5-1,1.8-1.2,2.9-1c1.3,0.2,2.6-0.2,3.9-0.6c0-0.5,0.1-1.1,0-1.6c-0.8-3.5-0.6-7.1,0-10.5c0.8-4.4,2.6-8.7,5.9-11.8
		c2.2-2.1,5.4-3.1,8.4-3c1,0,1.6,1,2.4,1.6c0.4-0.4,0.8-0.8,1.1-1.2c-0.5-1.7-1.3-3.5-1.2-5.3C395.7,9.7,397,5.6,400,2.9
		 M431.2,31.2C431.4,31.4,431.4,31.4,431.2,31.2 M432.6,31.4c0.1,0.7,0.3,1.4-0.1,2c-0.5,0.2-1.1,0.2-1.6,0.5c1.4,0,2.8,0.1,4.2,0
		c1.1-0.3,0.7-1.7,0.7-2.5C435.1,30.6,433.6,31.1,432.6,31.4 M429.1,35.6c1,1.1,1.5,2.8,2.4,3.9c1.3-1.7,2.3-3.5,3.8-5
		c-1.8-0.1-3.6,0.1-5.4-0.1C429.6,34.8,429.4,35.2,429.1,35.6z"/>
	<path d="M712.5,88c2.1-0.9,4.8,0.3,5.4,2.5c0.6,2-0.5,4.3-2.5,4.9c-1.9,0.7-4.3-0.2-5-2.2C709.6,91.4,710.5,88.8,712.5,88
		 M711.9,89.2c-1.6,1.4-1.4,4.2,0.4,5.3c1.1,0.8,2.6,0.6,3.8,0.1c-0.7-0.8-1.3-1.7-1.8-2.6c-0.2,0-0.7,0-0.9-0.1
		c-0.1,0.8,0.3,1.8-0.5,2.3c-0.3-1.6-0.1-3.2-0.2-4.8c1,0,2.3-0.4,3.1,0.4c0.6,0.8,0,1.9-0.9,2.2c0.4,0.5,0.7,1.1,1.1,1.6l0.2-0.5
		c0,0.3-0.1,0.9-0.2,1.3c1.7-1,1.9-3.6,0.6-5C715.4,88.1,713.1,88,711.9,89.2 M713.3,89.9c0,0.5,0,1.1,0,1.6
		c0.7-0.1,2.1,0.2,2.1-0.9C715.2,89.7,713.9,90,713.3,89.9z"/>
	<path d="M0,97.6c0.1-5,4.6-9.3,9.5-9.4c8.5,0,17.1,0,25.7,0c4.9,0,9.3,4.3,9.6,9.2c-11.3,0-22.5,0-33.8,0c0,7.5,0,15.1,0,22.6
		c11.3,0,22.5,0,33.8,0c-0.2,3.2-2,6.3-4.8,7.9c-1.7,1-3.6,1.4-5.5,1.4c-8.4,0-16.8,0-25.1,0c-4.9-0.1-9.3-4.5-9.3-9.4
		C0,112.5,0,105.1,0,97.6z"/>
	<path d="M57.4,88.6c1.1-0.3,2.3-0.4,3.5-0.4c8.7,0,17.3,0,26,0c4.9,0.2,9.1,4.4,9.3,9.3c0,7.4,0,14.9,0,22.3
		c-0.1,5-4.6,9.5-9.6,9.5c-9,0-18,0-27,0c-4.9-0.1-9.3-4.5-9.3-9.4c0-7.3,0-14.6,0-22C50.1,93.7,53.2,89.7,57.4,88.6 M60.2,97.2
		c0,7.8,0,15.6,0,23.4c8.6,0,17.3,0,25.9,0c0-7.8,0-15.6,0-23.4C77.4,97.2,68.8,97.2,60.2,97.2z"/>
	<path d="M103.7,118.4c0-10.1,0-20.2,0-30.2c3,0.1,6.1,1.4,7.9,3.9c1.3,1.7,2,3.8,2.1,5.9c0,7.5,0,15.1,0,22.6
		c8.6-0.1,17.2,0,25.9,0c0-10.8,0-21.5,0-32.3c3.3,0,6.7,0,10,0c0,10.6,0,21.1,0,31.7c-0.1,5-4.4,9.3-9.4,9.5
		c-8.9,0.1-17.8,0-26.7,0c-3.9,0-7.7-2.5-9.2-6.2C103.8,121.7,103.7,120.1,103.7,118.4z"/>
	<path d="M158.1,88.2c5.4-0.4,11.1,1.1,15.3,4.7c8,7.6,16.1,15.1,24.1,22.6c0-5.7,0-11.5,0-17.2c-0.1-3.6,1.9-7.1,5.1-8.9
		c1.5-0.9,3.2-1.2,4.9-1.3c0.1,13.7,0,27.5,0,41.2c-3.2,0-6.4,0-9.7,0c-9.9-9.4-19.8-18.8-29.7-28.2c0,9.4,0,18.8,0,28.2
		c-3.3,0-6.7,0-10,0C158.1,115.7,158.1,102,158.1,88.2z"/>
	<path d="M210.6,97.2c0-4.6,3.8-9.1,8.6-8.9c12.7,0,25.4,0,38.1,0c0,2.3-1,4.6-2.5,6.3c-1.7,1.8-4.2,2.6-6.6,2.6c-3.1,0-6.3,0-9.4,0
		c0,10.7,0,21.5,0,32.2c-3.4,0-6.7,0-10.1,0c0-10.7,0-21.5,0-32.2C222.7,97.2,216.7,97.2,210.6,97.2z"/>
	<path d="M260.8,88.3c13.3,0,26.6,0,40,0c-0.1,2.9-1.5,5.9-3.9,7.5c-1.5,1-3.4,1.5-5.2,1.5c-6.9,0-13.9,0-20.8,0c0,2.4,0,4.7,0,7.1
		c8.4,0,16.8,0,25.3,0c0,3.5-2.1,7-5.4,8.4c-1.2,0.5-2.6,0.7-3.9,0.7c-5.3,0-10.6,0-15.9,0c0,2.4,0,4.8,0,7.1c10,0,20,0,30.1,0
		c0,4.5-3.6,8.8-8.2,8.9c-10.7,0-21.3,0-32,0C260.9,115.7,260.8,102,260.8,88.3z"/>
	<path d="M307,88.3c10,0,20,0,30.1,0c3.5,0.1,7.4,0.5,10.1,3c2.6,2.6,2.9,6.6,2.9,10.1c-0.1,3,0,6.1-1.2,8.8
		c-1.6,2.7-4.4,4.6-7.5,5.4c4.4,5,8.7,10.1,13.1,15.1c-3.6,0-7.2,0-10.7,0c-1.1,0-2.2,0-3.1-0.5c-1.1-0.6-1.8-1.7-2.6-2.6
		c-5.4-6.6-10.7-13.3-16.1-19.9c4.5,0,9.1,0,13.6,0c1.3-0.1,2.7-0.1,3.7-1.1c0.8-1.3,0.6-2.9,0.7-4.4c-0.1-1.3,0.1-2.8-0.8-3.9
		c-1-0.8-2.4-0.9-3.6-0.9c-6.2,0-12.3,0-18.5,0c0,10.7,0,21.5,0,32.2c-3.4,0.1-6.7,0-10.1,0C306.9,115.7,307,102,307,88.3z"/>
	<path d="M445.6,94.2c1.5-3.5,5.1-5.9,8.9-5.9c8.2,0,16.4,0,24.5,0c2-0.1,4.1,0.2,5.9,1.2c2.8,1.5,4.6,4.5,5.1,7.6
		c-11.7,0.1-23.5,0-35.2,0c0,2.4,0,4.7,0,7.1c8,0,15.9,0,23.9,0c1.8,0,3.7-0.1,5.5,0.5c4,1.3,6.8,5.4,6.6,9.6
		c-0.1,3,0.4,6.2-0.8,9.1c-1.5,3.5-5.2,6-9,5.9c-8.9,0-17.8,0-26.8,0c-4.8-0.1-9.1-4.2-9.4-8.9c12,0,23.9,0,35.9,0
		c0-2.4,0-4.9,0-7.3c-8.7,0-17.5,0-26.2,0c-5.3,0.1-10.1-4.7-9.8-10C444.9,100.2,444.3,97,445.6,94.2z"/>
	<path d="M498.2,88.9c1.7-0.8,3.6-0.6,5.3-0.6c11.2,0,22.4,0,33.5,0c0,3.5-2.1,7.1-5.6,8.3c-2.2,0.8-4.5,0.6-6.8,0.6
		c-1.7,0-3.3,0-5,0c0,10.7,0,21.5,0,32.2c-3.3,0-6.7,0-10,0c0-10.7,0-21.5,0-32.2c-5.6,0.1-11.3,0-16.9,0
		C492.9,93.7,494.9,90.2,498.2,88.9z"/>
	<path d="M541,88.3c10,0,19.9,0,29.9,0c3.4,0.1,7.2,0.4,10,2.7c2.8,2.5,3.2,6.5,3.2,10c-0.1,3,0,6.2-1.1,9.1
		c-1.6,2.8-4.4,4.7-7.5,5.5c2.9,3.2,5.8,6.5,8.7,9.7c1.2,1.4,2.5,2.6,3.6,4.2c-3.7,0-7.5,0-11.2,0c-1.5,0-3.1-0.6-4-1.8
		c-5.5-6.7-11-13.3-16.5-20c4.6,0,9.2,0,13.8,0c1.4-0.1,3.3-0.2,3.7-1.8c0.5-2.2,0.5-4.5,0.1-6.7c-0.3-1.6-2.2-1.8-3.5-1.9
		c-6.4,0-12.7,0-19.1,0c0,10.7,0,21.5,0,32.2c-3.4,0-6.7,0-10.1,0C541,115.7,541,102,541,88.3z"/>
	<path d="M595.3,88.3c3.3,0,6.7,0,10,0c0.1,13.7,0,27.5,0,41.2c-3.3,0-6.7,0-10,0C595.3,115.7,595.3,102,595.3,88.3z"/>
	<path d="M616.6,88.3c3.3,0,6.7,0,10,0c0,5.2,0,10.4,0,15.7c0.6-0.1,1.3,0.1,1.8-0.4c6.5-5.1,12.9-10.2,19.4-15.3
		c4.9,0,9.7,0,14.6,0c-7.6,6.7-15.3,13.3-23,20c9,7.1,18.1,14.1,27,21.2c-4.9,0-9.7,0-14.6,0c-1.3,0-2.5-0.4-3.5-1.2
		c-6.8-5.1-13.6-10.3-20.3-15.4c-0.5,0-1,0-1.5,0c0,5.5,0,11.1,0,16.6c-3.3-0.1-6.7,0-10,0C616.6,115.7,616.6,102,616.6,88.3z"/>
	<path d="M667.4,88.3c13.3,0,26.7,0,40,0c-0.1,2.5-1.1,4.9-2.9,6.6c-1.8,1.6-4.2,2.4-6.6,2.3c-6.8,0-13.6,0-20.5,0
		c0,2.4,0,4.7,0,7.1c8.4,0,16.9,0,25.3,0c-0.1,3.6-2.2,7.2-5.7,8.4c-2.1,0.9-4.4,0.6-6.6,0.6c-4.3,0-8.7,0-13,0
		c-0.1,2.4-0.1,4.8,0,7.1c10,0,20,0,30,0c0.1,3.7-2.4,7.4-6,8.5c-1.9,0.6-3.9,0.4-5.8,0.4c-9.5,0-18.9,0-28.4,0
		C667.5,115.7,667.4,102,667.4,88.3z"/>
	<path d="M452.4,145c1-1.2,2.8-1.2,4.3-1.3c1.9,0,3.9-0.1,5.7,0.6c1.4,0.7,1.4,2.5,1.5,3.9c-0.9,0-1.9,0-2.8,0
		c-0.2-0.8-0.2-1.9-1.2-2c-1.5-0.2-3.1-0.3-4.6,0.1c-1.2,0.4-1.1,1.9-1.2,3c0.1,1.8-0.2,3.7,0.3,5.5c0.3,1,1.5,1.1,2.4,1.2
		c1.2,0,2.6,0.2,3.7-0.4c0.8-0.7,0.6-2,0.7-3c-1.2,0-2.5,0-3.7,0c0-0.7,0-1.4,0-2.1c2.1,0,4.3,0,6.4,0c-0.1,2.3,0.5,4.9-1,6.8
		c-1.7,1.2-3.9,1-5.8,1.1c-1.8-0.1-4.1-0.1-5.1-1.8c-1-2-0.8-4.4-0.7-6.6C451.4,148.3,451.2,146.4,452.4,145z"/>
	<path d="M470.2,143.8c0.9,0,1.9,0,2.8,0c0,4,0,8,0,12c2.3,0.1,4.6,0,6.8,0c0,0.8,0,1.7,0,2.5c-3.2,0-6.4,0-9.6,0
		C470.2,153.5,470.2,148.6,470.2,143.8z"/>
	<path d="M487.8,144c2.6-0.5,5.3-0.6,7.8,0.2c1.9,0.7,2,3,2.2,4.8c0,2.6,0.3,5.4-0.8,7.8c-1.1,1.5-3.2,1.5-4.9,1.6
		c-2,0-4.4,0.2-6-1.2c-1.1-1.4-1.1-3.3-1.2-4.9c0-2.2-0.1-4.4,0.7-6.5C485.8,144.8,486.8,144.2,487.8,144 M489.3,146.2
		c-0.5,0.1-1.2,0.3-1.3,0.9c-0.4,2.1-0.3,4.2-0.3,6.3c0.1,0.9,0.1,2.3,1.3,2.4c1.7,0.2,3.8,0.6,5.4-0.4c0.8-2,0.5-4.3,0.5-6.5
		c-0.1-0.9,0.1-2.3-1-2.6C492.4,145.9,490.8,146,489.3,146.2z"/>
	<path d="M504,143.8c2.7,0,5.4,0,8.1,0c1.2,0.1,2.7,0.4,3.1,1.7c0.6,1.8,0.5,4.6-1.7,5.3c2.7,0.6,2.8,4.1,1.8,6.1
		c-0.7,1.2-2.3,1.4-3.6,1.4c-2.6,0-5.2,0-7.7,0C504,153.5,504,148.6,504,143.8 M506.8,146.1c0,1.2,0,2.5,0,3.7c1.5,0,3,0.1,4.5-0.1
		c1.9,0,1.8-3.5,0-3.6C509.8,146,508.3,146.1,506.8,146.1 M506.8,156c1.7,0,3.3,0.1,5-0.1c1.6-0.2,1.4-2.4,0.9-3.5
		c-1.8-0.9-3.9-0.2-5.9-0.5C506.8,153.3,506.8,154.6,506.8,156z"/>
	<path d="M525.7,143.8c1.4-0.1,2.8,0,4.2,0c1.6,4.8,3.3,9.7,4.9,14.5c-1,0-1.9,0-2.9,0c-0.3-0.9-0.6-1.9-0.9-2.8c-2.1,0-4.2,0-6.2,0
		c-0.3,0.9-0.6,1.9-0.9,2.8c-1,0-2,0-3,0C522.5,153.5,524.2,148.7,525.7,143.8 M525.4,153.5c1.6,0,3.3,0,4.9,0
		c-0.8-2.4-1.6-4.9-2.4-7.3C526.9,148.5,526.3,151,525.4,153.5z"/>
	<path d="M540.4,143.8c0.9,0,1.9,0,2.8,0c0,4,0,8,0,12c2.3,0,4.5,0,6.8,0c0,0.8,0,1.7,0,2.5c-3.2,0-6.4,0-9.6,0
		C540.4,153.5,540.4,148.6,540.4,143.8z"/>
	<path d="M568.1,143.9c2.5-0.4,5.2-0.6,7.6,0.3c1.7,0.6,2,2.7,2.1,4.3c0.1,2.6,0.3,5.3-0.6,7.8c-0.5,1.5-2.4,1.8-3.8,2
		c-2.2,0.1-4.5,0.3-6.6-0.6c-1.5-0.7-1.8-2.6-1.9-4c-0.2-2.6-0.2-5.3,0.5-7.9C565.8,144.7,567,144.1,568.1,143.9 M569.2,146.2
		c-0.8,0.1-1.3,0.8-1.3,1.6c-0.2,2.3-0.3,4.8,0.1,7.1c0.3,1.2,1.9,1.1,2.9,1.2c1.2-0.1,2.8,0.2,3.7-0.8c0.7-2,0.4-4.2,0.4-6.3
		c-0.1-0.9,0-2.4-1.1-2.6C572.3,145.9,570.7,146,569.2,146.2z"/>
	<path d="M584,143.8c3.2,0,6.4,0,9.6,0c0,0.8,0,1.6,0,2.3c-2.3,0-4.6,0-6.9,0c0,1.3,0,2.6,0,3.9c2.2,0,4.4,0,6.5,0
		c0,0.8,0,1.6,0,2.4c-2.2,0-4.4,0-6.5,0c0,2,0,4,0,5.9c-0.9,0-1.8,0-2.8,0C584,153.5,584.1,148.6,584,143.8z"/>
	<path d="M599.7,143.8c3.2,0,6.4,0,9.7,0c0,0.8,0,1.6,0,2.3c-2.3,0-4.6,0-6.9,0c0,1.3,0,2.6,0,3.9c2.2,0,4.3,0,6.5,0
		c0,0.8,0,1.6,0,2.4c-2.2,0-4.3,0-6.5,0c0,2,0,4,0,6c-0.9,0-1.9,0-2.8,0C599.7,153.5,599.7,148.6,599.7,143.8z"/>
	<path d="M615.1,143.8c3.3,0,6.6,0,9.9,0c0,0.8,0,1.6,0,2.4c-2.4,0-4.8,0-7.2,0c0,1.2,0,2.5,0,3.7c2.3,0,4.5,0,6.8,0
		c0,0.7,0,1.4,0,2.1c-2.3,0-4.6,0-6.8,0c0,1.3,0,2.7,0,4c2.4,0.1,4.8,0,7.3,0c0,0.8,0,1.6,0,2.3c-3.3,0-6.7,0-10,0
		C615.1,153.5,615.1,148.6,615.1,143.8z"/>
	<path d="M631.5,143.8c1.6,0,3.1,0,4.7,0c2.1,3.9,4,7.9,6,11.9c0-4,0-7.9,0-11.9c0.9,0,1.9,0,2.8,0c0,4.8,0,9.7,0,14.5
		c-1.6,0-3.1,0-4.7,0c-2.1-4-4.3-8-6.1-12.2c0.1,4.1,0,8.1,0.1,12.2c-0.9,0-1.9,0-2.8,0C631.5,153.5,631.5,148.6,631.5,143.8z"/>
	<path d="M651.8,145.4c0.7-1.4,2.5-1.6,3.8-1.7c1.9,0,3.9-0.2,5.7,0.6c1.3,0.7,1.3,2.4,1.4,3.7c-0.9,0.1-1.8,0.1-2.8,0
		c-0.2-0.7-0.1-1.9-1.1-2c-1.3-0.2-2.7-0.2-3.9,0.1c-1,0.4-0.9,1.7-0.8,2.5c0.1,1.1,1.4,0.9,2.1,1.1c1.9,0.2,4.1,0,5.8,1.1
		c1.2,1.5,0.9,3.6,0.6,5.4c-0.3,1.5-1.8,2-3.1,2.1c-2.2,0.2-4.6,0.3-6.7-0.4c-1.6-0.7-1.6-2.7-1.7-4.2c0.9,0,1.8,0,2.7,0
		c0.1,0.8-0.1,2,0.9,2.3c1.6,0.3,3.2,0.4,4.8-0.1c0.9-0.7,0.8-2.2,0.4-3.2c-1.3-0.8-3-0.4-4.5-0.7c-1.4-0.2-3.3-0.2-3.9-1.8
		C651.2,148.7,651.2,146.9,651.8,145.4z"/>
	<path d="M669.3,143.8c0.9,0,1.9,0,2.8,0c0,4.8,0,9.7,0,14.5c-0.9,0-1.9,0-2.8,0C669.3,153.5,669.3,148.6,669.3,143.8z"/>
	<path d="M677.6,143.8c1,0,1.9,0,2.9,0c1.3,4.1,2.8,8.1,3.9,12.2c1.1-4.1,2.6-8.2,3.9-12.2c1,0,2,0,3,0c-1.6,4.8-3.1,9.7-4.7,14.5
		c-1.4,0-2.9,0-4.3,0C680.7,153.5,679.2,148.6,677.6,143.8z"/>
	<path d="M696.5,143.8c3.3,0,6.6,0,10,0c0,0.8,0,1.6,0,2.3c-2.4,0-4.8,0-7.2,0c0,1.2,0,2.5,0,3.7c2.3,0,4.5,0,6.8,0
		c0,0.7,0,1.4,0,2.1c-2.3,0-4.6,0-6.8,0c0,1.3,0,2.7,0,4c2.4,0.1,4.8,0,7.3,0c0,0.8,0,1.6,0,2.3c-3.3,0-6.7,0-10,0
		C696.5,153.5,696.5,148.6,696.5,143.8z"/>
</g>
</svg>
