<?xml version="1.0" encoding="UTF-8" standalone="no"?>
<svg xmlns="http://www.w3.org/2000/svg" version="1.0" width="653" height="200" id="source-logo">
    <path id="s" d="M 23.174265,127.30566 C 23.345105,137.94646 32.27447,142.24012 41.88716,142.24012 C 48.92322,142.24012 57.8499,139.49325 57.8499,130.90581 C 57.8499,123.52736 47.72124,120.94769 30.2108,117.17352 C 16.133057,114.08151 2.060007,109.10464 2.060007,93.48307 C 2.060007,70.82524 21.630313,64.98736 40.68434,64.98736 C 60.08379,64.98736 77.93614,71.50813 79.82515,93.30914 L 56.65161,93.30914 C 55.96491,83.87105 48.753,81.2952 40.00173,81.2952 C 34.50521,81.2952 26.436292,82.32298 26.436292,89.5344 C 26.436292,98.28964 40.17258,99.48842 54.07397,102.75448 C 68.32343,106.01322 82.22987,111.16441 82.22987,127.64689 C 82.22987,150.99197 61.97311,158.54419 41.71635,158.54419 C 21.118209,158.54419 1.035796,150.8209 4.3e-05,127.30186 L 23.174265,127.30186 L 23.174265,127.30566 z" style="fill: rgb(102, 102, 102);" />
    <path id="o" d="M 132.69797,64.98736 C 160.68195,64.98736 178.7042,83.52898 178.7042,111.85131 C 178.7042,140.00617 160.68195,158.54419 132.69797,158.54419 C 104.88737,158.54419 86.86166,140.00617 86.86166,111.85131 C 86.86166,83.52898 104.88737,64.98736 132.69797,64.98736 z M 132.69797,140.17662 C 149.34735,140.17662 154.32479,125.92849 154.32479,111.85131 C 154.32479,97.60298 149.34735,83.3551 132.69797,83.3551 C 116.2153,83.3551 111.23876,97.60298 111.23876,111.85131 C 111.23876,125.93216 116.2153,140.17662 132.69797,140.17662 z" style="fill: rgb(102, 102, 102);" />
    <path id="u" d="M 267.84154,156.14328 L 244.66767,156.14328 L 244.66767,143.78059 L 244.15131,143.78059 C 237.96839,153.73819 227.32763,158.54815 217.02867,158.54815 C 191.1083,158.54815 184.58362,143.95479 184.58362,121.97947 L 184.58362,67.39206 L 208.96356,67.39206 L 208.96356,117.51847 C 208.96356,132.11209 213.25432,139.31944 224.58498,139.31944 C 237.80126,139.31944 243.46864,131.94129 243.46864,113.91114 L 243.46864,67.39206 L 267.84154,67.39206 L 267.84154,156.14328 L 267.84154,156.14328 z" style="fill: rgb(102, 102, 102);" />
    <path id="r" d="M 275.22786,67.39206 L 298.39747,67.39206 L 298.39747,83.87105 L 298.7416,83.87105 C 303.20385,72.71455 315.22169,64.98736 327.06856,64.98736 C 328.78706,64.98736 330.8462,65.33205 332.39067,65.84498 L 332.39067,88.50642 C 330.15639,87.98681 326.55232,87.6451 323.6388,87.6451 C 305.78507,87.6451 299.60366,100.52025 299.60366,116.14082 L 299.60366,156.1391 L 275.22786,156.1391 L 275.22786,67.39206 z" style="fill: rgb(102, 102, 102);" />
    <path id="c" d="M 392.47327,98.63502 C 390.92679,88.6801 384.57304,83.35851 374.45166,83.35851 C 358.82678,83.35851 353.67558,99.15056 353.67558,112.19991 C 353.67558,124.90097 358.6564,140.18042 373.93237,140.18042 C 385.26317,140.18042 391.78737,132.97255 393.33148,122.15782 L 416.85081,122.15782 C 413.75902,145.67354 397.45188,158.55188 374.1068,158.55188 C 347.32518,158.55188 329.30293,139.66816 329.30293,113.06111 C 329.30293,85.42197 345.78127,64.99115 374.619,64.99115 C 395.56619,64.99115 414.79105,75.97666 416.33537,98.63502 L 392.47327,98.63502 z" style="fill: rgb(102, 102, 102);" />
    <path id="e" d="M 443.79962,117.68941 C 444.48616,133.13991 452.0427,140.18042 465.60017,140.18042 C 475.38724,140.18042 483.28518,134.17174 484.82548,128.67838 L 506.28515,128.67838 C 499.41554,149.62227 484.82548,158.54815 464.74427,158.54815 C 436.76234,158.54815 419.42302,139.31944 419.42302,111.85547 C 419.42302,85.24769 437.79073,64.99115 464.74427,64.99115 C 494.95796,64.99115 509.5473,90.39921 507.83286,117.69291 L 443.79962,117.69291 L 443.79962,117.68941 z M 483.45611,102.23889 C 481.22199,89.87977 475.89886,83.35851 464.05292,83.35851 C 448.60601,83.35851 444.14078,95.37624 443.79962,102.23889 L 483.45611,102.23889 z" style="fill: rgb(102, 102, 102);" />
    <path id="corner" d="M 591.62121,2.48665 C 586.04697,0.20065 580.89574,-0.06695 574.63446,0.012 L 468.52148,0.59412 C 446.62403,-0.51914 425.03851,4.84361 406.38084,15.58449 L 406.40013,15.60658 C 403.06302,17.42549 400.7921,20.97147 400.7921,25.03796 C 400.7921,30.96488 405.60191,35.77118 411.52499,35.77118 C 414.61665,35.77118 417.39203,34.45692 419.35228,32.36755 C 442.68249,19.86338 471.19737,17.45883 497.53351,28.27442 C 544.31211,47.47641 566.74725,101.1626 547.54083,147.93767 C 542.38953,160.48173 534.74005,171.25589 525.42489,179.97016 L 525.50673,180.08542 C 522.31888,181.94514 520.16635,185.39693 520.16635,189.35703 C 520.16635,195.28371 524.97935,200.08631 530.90695,200.08631 C 534.71807,200.08631 538.0654,198.08609 539.96975,195.07581 C 551.31929,184.40553 560.6238,171.2154 566.91837,155.88718 C 567.35224,154.84047 610.8282,48.94267 610.93937,48.65997 C 618.36201,30.58633 609.69577,9.90597 591.62121,2.48665 z" style="fill: rgb(247, 154, 16);" />
	<path id="T" d="M 634.54004,24.17623 L 634.54004,35.70814 L 632.51721,35.70814 L 632.51721,24.17623 L 628.84345,24.17623 L 628.84345,22.36905 L 638.21448,22.36905 L 638.21448,24.17623 L 634.54004,24.17623 L 634.54004,24.17623 z" />
    <path id="M" d="M 650.25347,35.70814 L 650.25347,26.78928 L 647.17375,33.28807 L 645.67809,33.28807 L 642.52743,26.78928 L 642.52743,35.70814 L 640.50472,35.70814 L 640.50472,22.36905 L 642.52743,22.36905 L 646.42458,30.66779 L 650.25347,22.36905 L 652.27327,22.36905 L 652.27327,35.70814 L 650.25347,35.70814 L 650.25347,35.70814 z" />
</svg>