<svg xmlns="http://www.w3.org/2000/svg" viewBox="0 0 579.67 476.89"><g data-name="Layer 2"><g data-name="图层 1"><path d="M404.5 165.56L313.48 8a16 16 0 0 0-13.86-8H268a16 16 0 0 0-13.86 8l-91 157.57a16 16 0 0 0 0 16L178.92 209a16 16 0 0 0 13.86 8h182a16 16 0 0 0 13.86-8l15.82-27.38a16 16 0 0 0 0-16m-77.3 15.22a144.81 144.81 0 0 1-86.79 0c-16-5-25.93-21.31-22.48-37.75a143.89 143.89 0 0 1 43.52-76.4 33 33 0 0 1 44.68 0A144 144 0 0 1 349.67 143a32.74 32.74 0 0 1-22.47 37.76" fill="#24acd3"/><path d="M410 366l-54.92 108a5.19 5.19 0 0 1-4.64 2.83h-18.12a5.27 5.27 0 0 1-4.64-2.83l-54.92-108a6 6 0 0 1 .14-5.72l5.86-10.14a6.39 6.39 0 0 1 5.53-3.19h5.32a3.6 3.6 0 0 1 3.27 2l46.18 91.84a2.62 2.62 0 0 0 4.68 0l46.14-91.84a3.63 3.63 0 0 1 3.31-2h5.29a6.37 6.37 0 0 1 5.52 3.19l5.88 10.17A5.93 5.93 0 0 1 410 366m-272.07 0L83 474a5.19 5.19 0 0 1-4.65 2.83H60.22a5.27 5.27 0 0 1-4.65-2.83L.66 366a6 6 0 0 1 .13-5.72l5.88-10.16a6.32 6.32 0 0 1 5.49-3.17h5.35a3.59 3.59 0 0 1 3.26 2L67 440.77a2.62 2.62 0 0 0 4.68 0l46.15-91.84a3.61 3.61 0 0 1 3.29-2h5.32a6.31 6.31 0 0 1 5.49 3.17l5.9 10.19a6 6 0 0 1 .15 5.69m78.63-17.54a5.24 5.24 0 0 0-3.72-1.54h-8.22a6.34 6.34 0 0 0-5.5 3.18l-5.86 10.16a6.09 6.09 0 0 0-.8 3V471.6a5.27 5.27 0 0 0 5.27 5.26H213a5.22 5.22 0 0 0 5.22-5.22V352.18a5.23 5.23 0 0 0-1.56-3.74m254.64 1.63a6.34 6.34 0 0 1 5.5-3.17h78.67a6.26 6.26 0 0 1 5.4 3.1l5.54 9.53a9.06 9.06 0 0 1 1.2 4.49v2.37A3.59 3.59 0 0 1 564 370h-71.69a2.63 2.63 0 0 0-2.62 2.63v24.87a2.62 2.62 0 0 0 2.61 2.63h48.61a4.34 4.34 0 0 1 4.29 4.32v14.25a4.34 4.34 0 0 1-4.32 4.32H492.3a2.61 2.61 0 0 0-2.61 2.61v25.55a2.61 2.61 0 0 0 2.61 2.62H564a3.56 3.56 0 0 1 3.58 3.54v2.39a9 9 0 0 1-1.2 4.5l-5.54 9.55a6.24 6.24 0 0 1-5.4 3.11H476.8a6.33 6.33 0 0 1-5.5-3.18l-5.47-9.44a8.89 8.89 0 0 1-1.22-4.52V364a8.94 8.94 0 0 1 1.21-4.49zm96.85-3.17h4.67v.73H571v4.64h-.88v-4.64h-1.92zm5.43 0h1.21l1.81 4.21 1.82-4.21h1.2v5.37h-.87v-4.17l-1.75 4.17h-.74l-1.79-4.17h-.05l.05 4.17h-.88z" fill="#54565a"/></g></g></svg>