<?xml version="1.0" encoding="UTF-8" standalone="no"?>
<svg xmlns="http://www.w3.org/2000/svg" version="1.1" width="736.99786" height="262.02756" id="svg2">
  <defs id="defs4"/>
  <g transform="translate(-36.002411,-481.34777)" id="layer1">
    <g transform="matrix(0.88120859,0,0,0.88120859,48.051286,72.743293)" id="g3118">
      <path d="m 717.29197,744.95134 89.3,-89.82229 -0.002,-175.35875 -804.1792426,0 0,265.1825 714.8817426,-10e-4" id="path3024" style="fill:#175082;fill-opacity:1;fill-rule:nonzero;stroke:none"/>
      <path d="m 663.43572,641.1003 c 0,15.4165 9.58875,22.7475 26.725,22.7475 5.7125,0 8.4225,0.0161 11.46,0.0161 l -0.0362,-19.19237 -7.5475,0 c -5.30375,0 -7.7525,-3.00738 -7.7525,-8.2715 l 0.015,-55.44475 15.32125,0 0,-22.0175 -15.33625,0 0,-18.045 -22.84875,0 0,100.2075" id="path3026" style="fill:#ffffff;fill-opacity:1;fill-rule:nonzero;stroke:none"/>
      <path d="m 516.69322,596.53655 0,29.70388 c 0,22.18362 -9.385,37.60012 -35.4975,37.60012 -4.8325,0 -8.91375,-0.68175 -12.64125,-1.67638 l -10e-4,25.03476 -22.60875,0 -0.002,-126.39613 22.6125,0 0,-0.001 -0.65,0 c 3.88375,-1.11625 8.17875,-1.865 13.29125,-1.865 26.1125,0 35.4975,15.415 35.4975,37.6 z m -22.84875,-3.76125 c 0,-11.655 -4.4875,-16.54375 -12.64875,-16.54375 -8.1475,0 -12.62875,4.88 -12.64125,16.49625 l 0,37.32125 c 0.0125,11.61513 4.49375,16.495 12.64125,16.495 8.16125,0 12.64875,-4.88762 12.64875,-16.54387 l 0,-37.22488" id="path3028" style="fill:#ffffff;fill-opacity:1;fill-rule:nonzero;stroke:none"/>
      <path d="m 127.08359,627.36293 22.84963,0 c -0.40875,21.61962 -9.7925,36.47124 -35.49813,36.47124 -26.113749,0 -35.497999,-15.41512 -35.497999,-37.60012 l 0,-29.69875 c 0,-22.18375 9.38425,-37.6 35.497999,-37.6 25.70563,0 35.08938,14.8525 35.49813,36.4725 l -22.84963,0 0,-2.6325 c 0,-11.65625 -4.48825,-16.54375 -12.6485,-16.54375 -8.16062,0 -12.64887,4.8875 -12.64887,16.54375 l 0,37.2185 c 0,11.65525 4.48825,16.54538 12.64887,16.54538 8.16025,0 12.6485,-4.89013 12.6485,-16.54538 l 0,-2.63087" id="path3030" style="fill:#ffffff;fill-opacity:1;fill-rule:nonzero;stroke:none"/>
      <path d="m 378.30947,596.53655 c 0,-0.41125 -0.12625,-0.7275 -0.14,-1.12875 l 0.13875,0 c -0.4075,-21.62 -9.7925,-36.4725 -35.4975,-36.4725 -26.1125,0 -35.4975,15.41625 -35.4975,37.60125 l 0,29.699 c 0,22.1835 9.385,37.59963 35.4975,37.59963 25.705,0 35.09,-14.85113 35.4975,-36.47126 l -22.84875,0 0,2.63138 c 0,11.65475 -4.4875,16.54488 -12.64875,16.54488 -8.16,0 -12.64875,-4.89013 -12.64875,-16.54488 l 0,-14.6575 48.1475,0 0,-18.80125 z m -22.85,-1.12875 0,2.6325 -25.2975,0 0,-5.265 c 0,-11.655 4.48875,-16.54375 12.64875,-16.54375 8.16125,0 12.64875,4.88875 12.64875,16.54375 l 0,2.6325" id="path3032" style="fill:#ffffff;fill-opacity:1;fill-rule:nonzero;stroke:none"/>
      <path d="m 572.27572,630.00018 c 0,11.65625 -4.48875,16.54387 -12.64875,16.54387 -8.16,0 -12.64875,-4.88762 -12.64875,-16.54387 l 0,-37.22488 c 0,-11.655 4.48875,-16.54375 12.64875,-16.54375 8.16,0 12.64875,4.88875 12.64875,16.54375 l 0,37.22488 z m -48.14625,-3.75975 c 0,22.18362 9.38375,37.60012 35.4975,37.60012 26.11375,0 35.4975,-15.4165 35.4975,-37.60012 l 0,-29.70513 c 0,-22.18375 -9.38375,-37.6 -35.4975,-37.6 -26.11375,0 -35.4975,15.41625 -35.4975,37.6 l 0,29.70513" id="path3034" style="fill:#ffffff;fill-opacity:1;fill-rule:nonzero;stroke:none"/>
      <path d="m 656.12197,580.91155 0.11,-21.77 -14.98375,0 0,10e-4 c 0,0 0,-10e-4 -10e-4,-10e-4 -8.31,0 -15.2175,6.49375 -15.2175,14.805 0,0.0425 0,6.965 0,6.965 l 30.0925,0 z m -52.9125,81.09888 22.82,0 0,-101.21638 -22.82,0 0,101.21638 z m 37.8675,-81.09888 -10e-4,0 10e-4,0 z m -10e-4,0 -15.04625,0 0,14.85 0.0388,0 c 0.1125,-8.21375 6.7675,-14.85 15.0075,-14.85" id="path3036" style="fill:#ffffff;fill-opacity:1;fill-rule:nonzero;stroke:none"/>
      <path d="m 300.34572,626.26143 0,-29.70488 c 0,-22.18375 -9.38375,-37.6 -35.4975,-37.6 -4.83375,0 -8.915,0.68125 -12.64375,1.6775 l 0.035,-25.05875 -22.67875,0 0,126.42 22.64375,0 0,10e-4 -0.64875,0 c 3.885,1.11475 8.18,1.86475 13.2925,1.86475 26.11375,0 35.4975,-15.41513 35.4975,-37.60012 z m -22.84875,3.76025 c 0,11.65625 -4.48875,16.54337 -12.64875,16.54337 -8.1475,0 -12.62875,-4.87837 -12.64375,-16.49463 l 0,-37.32262 c 0.015,-11.615 4.49625,-16.49625 12.64375,-16.49625 8.16,0 12.64875,4.88875 12.64875,16.545 l 0,37.22512" id="path3038" style="fill:#ffffff;fill-opacity:1;fill-rule:nonzero;stroke:none"/>
      <path d="m 438.59322,580.91155 0.10875,-21.77 -14.985,0 0,10e-4 0,-10e-4 c -8.31,0 -15.2175,6.49375 -15.2175,14.805 0,0.0425 0,6.965 0,6.965 l 30.09375,0 z m -52.91375,81.09888 22.81875,0 0,-101.21638 -22.81875,0 0,101.21638 z m 37.8675,-81.09888 0,0 z m 0,0 -15.0475,0 0,14.85 0.04,0 c 0.11125,-8.21375 6.76625,-14.85 15.0075,-14.85" id="path3040" style="fill:#ffffff;fill-opacity:1;fill-rule:nonzero;stroke:none"/>
      <path d="m 187.40572,619.12405 -0.33625,0 -13.60125,-58.325 -21.72125,0 23.4125,83.96775 c 0.61875,2.74463 1.54,7.04488 1.54,8.52725 0,8.72863 -7.7325,10.56013 -15.22375,10.56013 l 0,18.05225 c 23.14625,0 30.06625,-8.60351 35.38875,-28.20513 l 2.89,-11.351 -0.0575,0 23.3675,-81.55125 -21.72625,0 -13.9325,58.325" id="path3042" style="fill:#ffffff;fill-opacity:1;fill-rule:nonzero;stroke:none"/>
    </g>
  </g>
</svg>