<?xml version="1.0" encoding="UTF-8"?>
<!-- Generator: Adobe Illustrator 16.0.4, SVG Export Plug-In . SVG Version: 6.00 Build 0)  -->
<!DOCTYPE svg PUBLIC "-//W3C//DTD SVG 1.1//EN" "http://www.w3.org/Graphics/SVG/1.1/DTD/svg11.dtd">
<svg version="1.1" id="Ebene_1" xmlns="http://www.w3.org/2000/svg" xmlns:xlink="http://www.w3.org/1999/xlink" x="0px" y="0px" width="522.4px" height="189.4px" viewBox="0 0 522.4 189.4" enable-background="new 0 0 522.4 189.4" xml:space="preserve">
<g>
	<path fill="#FAD73C" d="M471.3,129.7c0,4.7-3.8,8.5-8.5,8.5c-4.7,0-8.5-3.8-8.5-8.5c0-4.7,3.8-8.5,8.5-8.5   C467.5,121.2,471.3,125,471.3,129.7"/>
	<path fill="#FAD73C" d="M437.4,129.7c0,4.7-3.8,8.5-8.5,8.5c-4.7,0-8.5-3.8-8.5-8.5c0-4.7,3.8-8.5,8.5-8.5   C433.6,121.2,437.4,125,437.4,129.7"/>
	<path fill="#FAD73C" d="M403.4,129.7c0,4.7-3.8,8.5-8.5,8.5c-4.7,0-8.5-3.8-8.5-8.5c0-4.7,3.8-8.5,8.5-8.5   C399.6,121.2,403.4,125,403.4,129.7"/>
	<path fill="#FAD73C" d="M369.4,129.7c0,4.7-3.8,8.5-8.5,8.5c-4.7,0-8.5-3.8-8.5-8.5c0-4.7,3.8-8.5,8.5-8.5   C365.6,121.2,369.4,125,369.4,129.7"/>
	<path fill="#FAD73C" d="M335.4,129.7c0,4.7-3.8,8.5-8.5,8.5c-4.7,0-8.5-3.8-8.5-8.5c0-4.7,3.8-8.5,8.5-8.5   C331.6,121.2,335.4,125,335.4,129.7"/>
	<path fill="#FAD73C" d="M301.3,129.7c0,4.7-3.8,8.5-8.5,8.5c-4.7,0-8.5-3.8-8.5-8.5c0-4.7,3.8-8.5,8.5-8.5   C297.5,121.2,301.3,125,301.3,129.7"/>
	<path fill="#0058A3" d="M104.4,86.2c0-6.9,4.2-13.5,11.4-13.5c7.1,0,11.3,6.7,11.3,13.5c0,6.5-3.5,13.5-11.3,13.5   C107.9,99.7,104.4,92.6,104.4,86.2 M97.3,86.2c0,10.3,7.6,18.9,18.5,18.9c10.9,0,18.5-8.6,18.5-18.9c0-11-7.4-18.9-18.5-18.9   C104.7,67.2,97.3,75.2,97.3,86.2 M97.3,86.2c0,10.3,7.6,18.9,18.5,18.9c10.9,0,18.5-8.6,18.5-18.9c0-11-7.4-18.9-18.5-18.9   C104.7,67.2,97.3,75.2,97.3,86.2 M104.4,86.2c0-6.9,4.2-13.5,11.4-13.5c7.1,0,11.3,6.7,11.3,13.5c0,6.5-3.5,13.5-11.3,13.5   C107.9,99.7,104.4,92.6,104.4,86.2"/>
	<path fill="#0058A3" d="M257.8,101.8l-12-32.7c0-0.1-0.1-0.2-0.1-0.3c0-0.4,0.3-0.7,0.8-0.7h5.1l0.1,0c0.6,0,1.2,0.4,1.4,1   l9.5,28.9h0.1l9.6-28.8l0-0.1c0.2-0.5,0.7-0.9,1.3-0.9h4.7c0.4,0,0.8,0.3,0.8,0.7c0,0.1,0,0.1,0,0.2l-12.4,34.1l-8,23.1   c0,0.1-0.1,0.2-0.1,0.3c-0.3,0.3-0.7,0.4-1.1,0.1l-4-3.2c-0.6-0.5-0.8-1.1-0.5-1.7l6.1-15.8C259.2,105.6,258.2,103,257.8,101.8"/>
	<path fill="#0058A3" d="M235,90.2V87c-1.4,0-2.9-0.1-4.3-0.1c-3.6,0-12.6,0.6-12.6,6.9c0,3.8,3.7,5.9,6.8,5.9   C231.5,99.7,235,95.6,235,90.2 M241.9,102.8c0,0.8-0.7,1.5-1.5,1.5h-3.1c-0.9,0-1.6-0.6-1.6-1.5l0-3.2h-0.1   c-1.6,2.2-5.1,5.5-11.3,5.5c-7.8,0-13.3-3.4-13.3-11.3c0-9.1,10-11.9,16.9-11.9c2.6,0,4.5,0,7.1,0.1c0-6.2-2.3-9.4-9-9.4   c-2.9,0-6,0.8-8.5,2.3c-0.2,0.1-0.5,0.2-0.8,0.2c-0.8,0-1.4-0.6-1.5-1.4l-0.2-2.6c0-0.3,0.1-0.6,0.4-0.7c3.3-1.9,7.1-3.2,11.6-3.2   c10.4,0,14.6,5.1,14.6,15v15C241.7,99.8,241.8,101.5,241.9,102.8L241.9,102.8z"/>
	<path fill="#0058A3" d="M176.5,86c-0.1,5.7,2.9,13.7,10.1,13.7c7.6,0,10.7-7.4,10.7-13.5c0-6.7-3.5-13.6-10.8-13.6   S176.3,79.4,176.5,86 M197.5,102.7v-3.6h-0.1c-1.8,2.7-5.9,6-12.4,6c-11,0-15.6-9.7-15.6-19.6c0-9.7,5.1-18.3,15.7-18.3   c6.3,0,10,2.5,12.1,5.8h0.1V52.5c0-0.8,0.6-1.5,1.4-1.5h3.8c0.8,0,1.5,0.6,1.5,1.5v50.2c0,0.8-0.6,1.4-1.4,1.5H199   C198.2,104.2,197.5,103.5,197.5,102.7"/>
	<path fill="#0058A3" d="M89.1,102.8c0,0.8-0.7,1.5-1.5,1.5h-4.2c-0.8,0-1.4-0.7-1.4-1.5V81.7H58.1l0,21.1c0,0.8-0.6,1.4-1.4,1.5   h-0.1h-4c-0.9,0-1.6-0.7-1.6-1.5l0-0.1V56.3c0-0.9,0.7-1.5,1.5-1.5l4.2,0c0.8,0,1.5,0.7,1.5,1.4v19.2H82V56.1   c0-0.8,0.7-1.4,1.5-1.4l4.1,0c0.9,0,1.6,0.7,1.6,1.5V102.8z"/>
	<path fill="#0058A3" d="M142.9,104.2l-0.1,0c-0.8,0-1.5-0.7-1.5-1.5V52.5c0-0.8,0.7-1.5,1.5-1.5l0.1,0h3.7c0.8,0,1.5,0.7,1.5,1.5   v51.7H142.9z"/>
	<path fill="#0058A3" d="M158.3,104.2l-0.1,0c-0.8,0-1.5-0.7-1.5-1.5V69.5c0-0.8,0.7-1.5,1.5-1.5h3.8c0.8,0,1.5,0.7,1.5,1.5v34.7   H158.3z"/>
	<path fill="#0058A3" d="M163.8,52.4v6.1c0,0.8-0.7,1.4-1.5,1.4l-0.1,0h-6v-6.1c0-0.8,0.7-1.5,1.5-1.5l0.1,0H163.8z"/>
	<path fill="#0058A3" d="M104.4,86.2c0,6.5,3.5,13.5,11.4,13.5c7.9,0,11.3-7.1,11.3-13.5c0-6.9-4.2-13.5-11.3-13.5   C108.6,72.6,104.4,79.3,104.4,86.2 M97.3,86.2c0-11,7.4-18.9,18.5-18.9c11.1,0,18.5,7.9,18.5,18.9c0,10.3-7.6,18.9-18.5,18.9   C104.8,105.1,97.3,96.5,97.3,86.2"/>
	<path fill="#0058A3" d="M321.9,102.3c0,0.7-0.4,1.2-0.9,1.4c-3.6,1.2-7.7,1.4-10.4,1.4c-15.8,0-26.2-10.1-26.2-25.8   c0-15.2,11.1-25.4,26.3-25.4c3.5,0,6.9,0.5,10.1,1.7l0.1,0c0.5,0.2,0.9,0.7,0.9,1.3l-0.4,4.8c0,0.4-0.4,0.7-0.7,0.7   c-0.1,0-0.2,0-0.3-0.1c-2.9-1.5-6.1-2.2-9.3-2.2c-11.5,0-19.1,8.2-19.1,19.3c0,11.6,8.4,19.4,18.8,19.4c3.1,0,7.2-0.7,9.9-1.9   c0.1,0,0.2-0.1,0.3-0.1c0.4,0,0.7,0.3,0.7,0.8L321.9,102.3z"/>
	<path fill="#0058A3" d="M362.3,102.7c0,0.8-0.7,1.5-1.5,1.5l-3.8,0c-0.8,0-1.5-0.7-1.5-1.5l0-0.1V85.5c0-8.4-1.9-12.5-7.7-12.9   c-7.6,0-11.1,6.1-11.1,14.9l0,15.3c0,0.8-0.6,1.4-1.4,1.5h-3.8c-0.8,0-1.5-0.7-1.5-1.5V52.6c0-0.9,0.7-1.6,1.5-1.6h3.8   c0.8,0,1.5,0.7,1.5,1.5v20.7h0.1c2.4-3.8,6.6-6,11.7-6c9.4,0,13.6,5.8,13.6,15.5V102.7z"/>
	<path fill="#0058A3" d="M433.8,102.6c0,0.8-0.5,1.3-1.1,1.5c-2.5,0.9-5.1,1-7.2,1c-11,0-18.5-8.6-18.5-18.9   c0-11,7.4-18.9,18.5-18.9c2.2,0,4.9,0.4,6.9,1c0.7,0.2,1.1,0.7,1.1,1.4l0,0.1l-0.3,3.4c0,0.4-0.3,0.7-0.8,0.7c-0.1,0-0.2,0-0.2,0   c-2.3-0.8-4.5-1.2-6.4-1.2c-7.5,0-11.7,6.7-11.7,13.5c0,6.5,3.5,13.5,12.1,13.5c1.9,0,4.3-0.5,6.2-1.5c0.1-0.1,0.2-0.1,0.4-0.1   c0.4,0,0.7,0.3,0.7,0.7L433.8,102.6z"/>
	<path fill="#0058A3" d="M463.5,104.2c-0.5,0-0.9-0.2-1.2-0.5l-15.8-18.1l0,17.1c0,0.8-0.7,1.5-1.5,1.5l-0.1,0h-3.5l-0.1,0   c-0.8,0-1.5-0.7-1.5-1.5V52.5c0-0.8,0.7-1.5,1.5-1.5l3.7,0c0.9,0,1.5,0.7,1.5,1.5v30.2l14.1-14.1c0.3-0.3,0.7-0.5,1.1-0.5l6.7,0   c0.4,0,0.7,0.3,0.7,0.8c0,0.2-0.1,0.4-0.2,0.5l-15.6,14.8l17.8,18.8c0.2,0.1,0.3,0.3,0.3,0.6c0,0.4-0.3,0.7-0.7,0.7L463.5,104.2z"/>
	<path fill="#0058A3" d="M376.6,82.7h18.8c0-5.5-3.3-10.1-9.1-10.1C379.8,72.6,377.1,78,376.6,82.7 M399.8,101.7   c0,0.7-0.4,1.2-0.9,1.4c-2.4,0.9-5.3,2-10.6,2c-12.9,0-18.8-7.8-18.8-19.6c0-10.7,6.8-18.3,17.1-18.3c11.8,0,15.9,8.4,16,19.7   c0,0.4-0.3,0.8-0.7,0.8l-25.2,0c0,7.2,5.6,12.1,12,12.1c3.7,0,7.8-1.6,10.1-2.9c0.1-0.1,0.2-0.1,0.4-0.1c0.4,0,0.8,0.3,0.8,0.7   V101.7z"/>
</g>
</svg>