<?xml version="1.0" encoding="UTF-8" standalone="no"?>
<!-- Created with Inkscape (http://www.inkscape.org/) -->

<svg
   xmlns:dc="http://purl.org/dc/elements/1.1/"
   xmlns:cc="http://creativecommons.org/ns#"
   xmlns:rdf="http://www.w3.org/1999/02/22-rdf-syntax-ns#"
   xmlns:svg="http://www.w3.org/2000/svg"
   xmlns="http://www.w3.org/2000/svg"
   xmlns:sodipodi="http://sodipodi.sourceforge.net/DTD/sodipodi-0.dtd"
   xmlns:inkscape="http://www.inkscape.org/namespaces/inkscape"
   width="219.21667"
   height="30.541691"
   viewBox="0 0 58.001079 8.0808221"
   version="1.1"
   id="svg12312"
   inkscape:version="0.92.0 r15299"
   sodipodi:docname="cheapflights.svg">
  <defs
     id="defs12306">
    <clipPath
       id="clip8-7">
      <path
         inkscape:connector-curvature="0"
         id="path6661"
         d="m 370,88 h 18.75 v 18 H 370 Z m 0,0" />
    </clipPath>
    <clipPath
       id="clip7-1">
      <path
         inkscape:connector-curvature="0"
         id="path6658"
         d="m 312,87.777344 h 6 V 92 h -6 z m 0,0" />
    </clipPath>
    <clipPath
       id="clip6-4">
      <path
         inkscape:connector-curvature="0"
         id="path6655"
         d="M 224.71094,88 H 240 v 18 h -15.28906 z m 0,0" />
    </clipPath>
    <clipPath
       id="clip3-1">
      <path
         inkscape:connector-curvature="0"
         id="path6645"
         d="m 28,69 h 556 v 2 H 28 Z m 0,0" />
    </clipPath>
    <clipPath
       id="clip2-1">
      <path
         inkscape:connector-curvature="0"
         id="path6642"
         d="m 28,69 h 556 v 63 H 28 Z m 0,0" />
    </clipPath>
  </defs>
  <sodipodi:namedview
     id="base"
     pagecolor="#ffffff"
     bordercolor="#666666"
     borderopacity="1.0"
     inkscape:pageopacity="0.0"
     inkscape:pageshadow="2"
     inkscape:zoom="4.1105931"
     inkscape:cx="109.10834"
     inkscape:cy="14.770841"
     inkscape:document-units="mm"
     inkscape:current-layer="layer1"
     showgrid="false"
     fit-margin-top="0"
     fit-margin-left="0"
     fit-margin-right="0"
     fit-margin-bottom="0"
     units="px"
     inkscape:window-width="1280"
     inkscape:window-height="744"
     inkscape:window-x="-4"
     inkscape:window-y="-4"
     inkscape:window-maximized="1" />
  <metadata
     id="metadata12309">
    <rdf:RDF>
      <cc:Work
         rdf:about="">
        <dc:format>image/svg+xml</dc:format>
        <dc:type
           rdf:resource="http://purl.org/dc/dcmitype/StillImage" />
        <dc:title></dc:title>
      </cc:Work>
    </rdf:RDF>
  </metadata>
  <g
     inkscape:label="Layer 1"
     inkscape:groupmode="layer"
     id="layer1"
     transform="translate(-92.337419,-122.88074)">
    <g
       id="g12612"
       transform="translate(0.13229076,-0.13228838)">
      <path
         inkscape:connector-curvature="0"
         style="clip-rule:nonzero;fill:#2b303d;fill-opacity:1;fill-rule:nonzero;stroke:none;stroke-width:0.35277778"
         d="m 97.596012,128.60924 c -0.299035,0.31144 -0.927421,0.80891 -2.146984,0.80891 -1.74322,0 -3.111609,-1.15755 -3.111609,-3.06751 0,-1.91685 1.380793,-3.062 3.117123,-3.062 1.219563,0 1.885156,0.51125 2.040872,0.67248 l -0.428568,1.15066 c -0.112999,-0.14882 -0.746898,-0.62149 -1.531003,-0.62149 -1.008722,0 -1.779044,0.6711 -1.779044,1.83555 0,1.16306 0.808905,1.82314 1.779044,1.82314 0.740008,0 1.276064,-0.29214 1.598524,-0.62838 z m 0,0"
         id="path7766" />
      <path
         id="path7770"
         d="m 102.34887,129.31205 h -1.3863 v -2.22691 c 0,-0.51677 -0.0689,-0.96463 -0.64768,-0.96463 -0.578779,0 -0.759299,0.47956 -0.759299,1.10794 v 2.0836 H 98.18031 v -5.93659 h 1.375281 v 1.41386 c 0,0.42857 -0.007,0.89573 -0.007,0.89573 0.219112,-0.38034 0.622879,-0.6904 1.251259,-0.6904 1.23197,0 1.54892,0.78273 1.54892,1.81626 z m 0,0"
         style="fill:#2b303d;fill-opacity:1;fill-rule:nonzero;stroke:none;stroke-width:0.35277778"
         inkscape:connector-curvature="0" />
      <path
         id="path7772"
         d="m 107.36493,127.5206 h -3.0179 c 0.062,0.60909 0.52228,0.89021 1.08314,0.89021 0.55397,0 1.03215,-0.24391 1.27468,-0.40514 l 0.54157,0.7152 c -0.13642,0.10611 -0.69729,0.69177 -2.01607,0.69177 -1.30638,0 -2.26412,-0.80891 -2.26412,-2.21588 0,-1.4056 1.03216,-2.20211 2.28893,-2.20211 1.25677,0 2.12907,0.83372 2.12907,2.07119 0,0.20533 -0.0193,0.45476 -0.0193,0.45476 z m -1.26366,-0.7786 c -0.005,-0.38585 -0.29214,-0.85162 -0.87092,-0.85162 -0.56637,0 -0.85851,0.44786 -0.87781,0.85162 z m 0,0"
         style="fill:#2b303d;fill-opacity:1;fill-rule:nonzero;stroke:none;stroke-width:0.35277778"
         inkscape:connector-curvature="0" />
      <path
         id="path7774"
         d="m 111.82702,129.31205 h -1.32016 l -0.0248,-0.44787 c -0.18052,0.18053 -0.52228,0.54157 -1.21267,0.54157 -0.7469,0 -1.54341,-0.40376 -1.54341,-1.35048 0,-0.94533 0.87092,-1.26228 1.65503,-1.30086 l 1.07073,-0.0427 v -0.0937 c 0,-0.44786 -0.31832,-0.67799 -0.87092,-0.67799 -0.54157,0 -1.08314,0.24253 -1.30087,0.37896 l -0.36104,-0.89573 c 0.36104,-0.18052 1.02664,-0.42857 1.81625,-0.42857 0.791,0 1.25126,0.17915 1.5875,0.49058 0.32935,0.31144 0.50988,0.7221 0.50988,1.4373 v 2.38952 z m -1.36977,-1.86587 -0.67799,0.0427 c -0.42306,0.0193 -0.67249,0.19982 -0.67249,0.51677 0,0.32935 0.26872,0.52227 0.64768,0.52227 0.37345,0 0.62288,-0.24253 0.7028,-0.38585 z m 0,0"
         style="fill:#2b303d;fill-opacity:1;fill-rule:nonzero;stroke:none;stroke-width:0.35277778"
         inkscape:connector-curvature="0" />
      <path
         id="path7776"
         d="m 115.26109,129.41264 c -0.62838,0 -1.07624,-0.23151 -1.34359,-0.62976 v 2.09186 h -1.37528 v -5.80567 h 1.30638 l -0.006,0.54157 h 0.0179 c 0.31144,-0.37345 0.76619,-0.62288 1.41249,-0.62288 1.21956,0 1.99816,0.95774 1.99816,2.20349 -0.007,1.25677 -0.7786,2.22139 -2.01056,2.22139 z m -0.39825,-3.33623 c -0.58429,0 -0.98943,0.44786 -0.98943,1.10105 0,0.65457 0.40514,1.10244 0.98943,1.10244 0.59118,0 1.00183,-0.44787 1.00183,-1.10244 0,-0.65319 -0.40376,-1.10105 -1.00183,-1.10105 z m 0,0"
         style="fill:#2b303d;fill-opacity:1;fill-rule:nonzero;stroke:none;stroke-width:0.35277778"
         inkscape:connector-curvature="0" />
      <path
         id="path7778"
         d="m 120.49488,124.32768 c 0,0 -0.23013,-0.0744 -0.49196,-0.0744 -0.40376,0 -0.50987,0.23013 -0.50987,0.55397 v 0.27423 h 0.91502 v 1.03904 h -0.91502 v 3.19154 h -1.38769 v -3.19154 h -0.54157 v -1.03904 h 0.54157 v -0.24943 c 0,-0.42857 0.0868,-0.83371 0.33624,-1.11345 0.26045,-0.28663 0.6656,-0.45475 1.21268,-0.45475 0.50987,0 0.90262,0.11162 0.90262,0.11162 z m 0,0"
         style="fill:#2b303d;fill-opacity:1;fill-rule:nonzero;stroke:none;stroke-width:0.35277778"
         inkscape:connector-curvature="0" />
      <path
         id="path7780"
         d="m 121.19217,123.37546 h 1.3739 v 5.94348 h -1.3739 z m 0,0"
         style="fill:#2b303d;fill-opacity:1;fill-rule:nonzero;stroke:none;stroke-width:0.35277778"
         inkscape:connector-curvature="0" />
      <path
         inkscape:connector-curvature="0"
         style="clip-rule:nonzero;fill:#2b303d;fill-opacity:1;fill-rule:nonzero;stroke:none;stroke-width:0.35277778"
         d="m 124.05986,124.5771 c -0.46578,0 -0.78411,-0.28663 -0.78411,-0.7152 0,-0.42305 0.31833,-0.71658 0.78411,-0.71658 0.46715,0 0.7841,0.29353 0.7841,0.71658 0,0.43546 -0.31695,0.7152 -0.7841,0.7152 z m 0,0"
         id="path7782" />
      <path
         id="path7786"
         d="m 123.37498,125.06907 h 1.37528 v 4.24298 h -1.37528 z m 0,0"
         style="fill:#2b303d;fill-opacity:1;fill-rule:nonzero;stroke:none;stroke-width:0.35277778"
         inkscape:connector-curvature="0" />
      <path
         id="path7788"
         d="m 130.07776,128.45353 c 0,0.91502 -0.23013,1.44418 -0.64768,1.83554 -0.41617,0.39274 -0.98254,0.67249 -1.95406,0.67249 -0.98254,0 -1.76664,-0.41066 -2.05879,-0.62839 l 0.565,-0.92053 c 0.24942,0.18604 0.8971,0.47818 1.46348,0.47818 0.56637,0 0.85162,-0.18052 1.00183,-0.33624 0.14883,-0.16123 0.26045,-0.46578 0.26045,-0.84612 v -0.13642 h -0.0179 c -0.26183,0.33624 -0.67249,0.60358 -1.33256,0.60358 -1.03904,0 -2.00367,-0.72209 -2.00367,-2.09048 0,-1.36977 0.96463,-2.09049 2.00367,-2.09049 0.71658,0 1.12034,0.32935 1.34496,0.6215 h 0.0179 l -0.0179,-0.54157 h 1.37528 z m -2.32199,-2.38263 c -0.6091,0 -1.00184,0.44786 -1.00184,1.02664 0,0.58429 0.38585,1.03215 1.00184,1.03215 0.61046,0 0.98943,-0.44786 0.98943,-1.03215 0,-0.57878 -0.37897,-1.02664 -0.98943,-1.02664 z m 0,0"
         style="fill:#2b303d;fill-opacity:1;fill-rule:nonzero;stroke:none;stroke-width:0.35277778"
         inkscape:connector-curvature="0" />
      <path
         id="path7790"
         d="m 135.04972,129.31205 h -1.38768 v -2.22691 c 0,-0.51677 -0.0689,-0.96463 -0.64768,-0.96463 -0.57878,0 -0.7593,0.47956 -0.7593,1.10794 v 2.0836 h -1.37528 v -5.93659 h 1.37528 v 1.41386 c 0,0.42857 -0.005,0.89573 -0.005,0.89573 0.21772,-0.38034 0.62149,-0.6904 1.24988,-0.6904 1.23196,0 1.55029,0.78273 1.55029,1.81626 z m 0,0"
         style="fill:#2b303d;fill-opacity:1;fill-rule:nonzero;stroke:none;stroke-width:0.35277778"
         inkscape:connector-curvature="0" />
      <path
         id="path7792"
         d="m 138.45347,126.12051 h -0.93982 v 1.52411 c 0,0.36105 0.0496,0.44786 0.11852,0.52228 0.062,0.0689 0.14882,0.10611 0.32934,0.10611 0.21774,0 0.41066,-0.0744 0.41066,-0.0744 l 0.0689,1.07625 c -0.1061,0.0248 -0.47956,0.1378 -0.98391,0.1378 -0.49197,0 -0.81443,-0.1502 -1.03216,-0.39825 -0.21773,-0.24943 -0.29903,-0.60358 -0.29903,-1.25126 v -1.64262 h -0.60358 v -1.03904 h 0.60358 v -1.15755 h 1.38768 v 1.15066 h 0.93982 z m 0,0"
         style="fill:#2b303d;fill-opacity:1;fill-rule:nonzero;stroke:none;stroke-width:0.35277778"
         inkscape:connector-curvature="0" />
      <path
         id="path7794"
         d="m 141.89995,129.03919 c -0.31144,0.24254 -0.7345,0.37345 -1.30087,0.37345 -0.6339,0 -1.30638,-0.19981 -1.79145,-0.65457 l 0.51676,-0.81441 c 0.34176,0.29214 0.91502,0.51676 1.25678,0.51676 0.34175,0 0.58428,-0.0882 0.58428,-0.36105 0,-0.27423 -0.62149,-0.41065 -0.77721,-0.46715 -0.16123,-0.0427 -0.40514,-0.11162 -0.60358,-0.19844 -0.19981,-0.0882 -0.7152,-0.35553 -0.7152,-1.11483 0,-0.82683 0.72071,-1.33119 1.61092,-1.33119 0.89022,0 1.38769,0.32935 1.63023,0.52228 l -0.44787,0.80891 c -0.24253,-0.18604 -0.72209,-0.41066 -1.07073,-0.41066 -0.32935,0 -0.50988,0.0882 -0.50988,0.31144 0,0.22462 0.33073,0.32935 0.62287,0.41065 0.29215,0.0868 0.42306,0.13092 0.60359,0.19982 0.18603,0.0675 0.40376,0.18052 0.55397,0.31695 0.13642,0.13642 0.34175,0.41065 0.34175,0.85852 -0.007,0.44235 -0.19292,0.7841 -0.50436,1.03352 z m 0,0"
         style="fill:#2b303d;fill-opacity:1;fill-rule:nonzero;stroke:none;stroke-width:0.35277778"
         inkscape:connector-curvature="0" />
      <path
         inkscape:connector-curvature="0"
         style="clip-rule:nonzero;fill:#ffd400;fill-opacity:1;fill-rule:nonzero;stroke:none;stroke-width:0.35277778"
         d="m 149.82228,125.96341 c -0.33624,-0.12402 -0.69178,-0.18741 -1.05282,-0.18052 l -0.90813,0.007 -1.85484,-2.27239 c -0.0427,-0.0496 -0.0992,-0.0799 -0.16674,-0.0799 h -0.33624 c -0.0937,0 -0.16261,0.0992 -0.1254,0.18603 l 0.8406,2.18419 -1.34359,0.0813 -0.44786,-0.61599 c -0.0565,-0.0813 -0.14331,-0.1254 -0.23702,-0.1254 h -0.24943 c -0.0799,0 -0.13642,0.0882 -0.11162,0.16812 l 0.32384,1.04593 -0.31144,1.05145 c -0.0248,0.0813 0.0317,0.16812 0.11163,0.16812 h 0.25493 c 0.0937,0 0.18052,-0.0496 0.23703,-0.12403 l 0.43545,-0.62287 1.34497,0.0868 -0.8034,2.19108 c -0.0317,0.0868 0.0317,0.18603 0.13092,0.18603 h 0.32935 c 0.0689,0 0.12402,-0.0303 0.16812,-0.0799 l 1.81763,-2.3027 0.90813,-0.007 c 0.35415,0 0.7028,-0.0675 1.03215,-0.19293 0.1378,-0.0496 0.24391,-0.17363 0.26183,-0.32246 0.0248,-0.19982 -0.0813,-0.36105 -0.24805,-0.42995"
         id="path7796" />
    </g>
  </g>
</svg>
