<?xml version="1.0" encoding="utf-8"?>
<!-- Generator: Adobe Illustrator 17.0.0, SVG Export Plug-In . SVG Version: 6.00 Build 0)  -->
<!DOCTYPE svg PUBLIC "-//W3C//DTD SVG 1.1//EN" "http://www.w3.org/Graphics/SVG/1.1/DTD/svg11.dtd">
<svg version="1.1" id="momondo_logo" xmlns="http://www.w3.org/2000/svg" xmlns:xlink="http://www.w3.org/1999/xlink" x="0px"
	 y="0px" width="803.600587512" height="124.439928932" viewBox="0 0 868.398 134.474" enable-background="new 0 0 868.398 134.474"
	 xml:space="preserve">
<g id="do">
	<linearGradient id="SVGID_1_" gradientUnits="userSpaceOnUse" x1="820.9003" y1="39.4776" x2="820.9003" y2="134.4742">
		<stop  offset="0" style="stop-color:#FFBA00"/>
		<stop  offset="1" style="stop-color:#FF2E00"/>
	</linearGradient>
	<path fill="url(#SVGID_1_)" d="M868.398,87.066c0,26.139-15.36,47.408-47.588,47.408c-30.772,0-47.408-21.27-47.408-47.408
		c0-26.318,15.636-47.588,47.408-47.588C853.038,39.478,868.398,60.748,868.398,87.066z M843.701,87.066
		c0-16.405-11.175-21.091-22.891-21.091c-11.537,0-22.715,4.686-22.715,21.091c0,16.404,11.178,20.909,22.715,20.909
		C832.526,107.975,843.701,103.47,843.701,87.066z"/>
	<linearGradient id="SVGID_2_" gradientUnits="userSpaceOnUse" x1="715.5287" y1="1.105036e-009" x2="715.5287" y2="134.4742">
		<stop  offset="0" style="stop-color:#FFBA00"/>
		<stop  offset="1" style="stop-color:#FF2E00"/>
	</linearGradient>
	<path fill="url(#SVGID_2_)" d="M668.03,87.066c0-26.318,21.271-47.588,47.406-47.588c8.292,0,16.043,2.164,22.893,5.767V1.802
		c0-1.081,0.722-1.802,1.802-1.802h21.093c0.9,0,1.803,0.722,1.803,1.802v85.264c0,26.139-21.274,47.408-47.591,47.408
		C689.301,134.474,668.03,113.205,668.03,87.066z M715.437,107.975c11.718,0,22.893-4.505,22.893-20.909
		c0-16.405-11.176-21.091-22.893-21.091c-11.538,0-22.712,4.686-22.712,21.091C692.725,103.47,703.898,107.975,715.437,107.975z"/>
</g>
<g id="mon">
	<linearGradient id="SVGID_3_" gradientUnits="userSpaceOnUse" x1="363.9775" y1="39.4776" x2="363.9775" y2="134.4742">
		<stop  offset="0" style="stop-color:#FF30AE"/>
		<stop  offset="1" style="stop-color:#D1003A"/>
	</linearGradient>
	<path fill="url(#SVGID_3_)" d="M444.823,134.474h-21.088c-1.084,0-1.803-0.722-1.803-1.803V87.066
		c0-16.405-11.178-21.091-22.894-21.091c-11.537,0-22.712,4.686-22.712,21.091v45.605c0,1.081-0.902,1.803-1.803,1.803h-21.091
		c-1.081,0-1.803-0.722-1.803-1.803V87.066c0-16.405-11.175-21.091-22.891-21.091c-11.537,0-22.714,4.686-22.714,21.091v45.605
		c0,1.081-0.899,1.803-1.801,1.803h-21.091c-1.081,0-1.803-0.722-1.803-1.803V87.066c0-26.318,16.594-47.588,47.409-47.588
		c14.059,0,26.497,5.949,35.15,15.5c8.833-9.552,21.271-15.5,35.15-15.5c30.885,0,47.588,21.27,47.588,47.588v45.605
		C446.626,133.753,445.725,134.474,444.823,134.474z"/>
	<linearGradient id="SVGID_4_" gradientUnits="userSpaceOnUse" x1="504.7819" y1="39.4776" x2="504.7819" y2="134.4742">
		<stop  offset="0" style="stop-color:#FF30AE"/>
		<stop  offset="1" style="stop-color:#D1003A"/>
	</linearGradient>
	<path fill="url(#SVGID_4_)" d="M552.28,87.066c0,26.139-15.36,47.408-47.588,47.408c-30.772,0-47.409-21.27-47.409-47.408
		c0-26.318,15.636-47.588,47.409-47.588C536.92,39.478,552.28,60.748,552.28,87.066z M527.583,87.066
		c0-16.405-11.175-21.091-22.891-21.091c-11.537,0-22.715,4.686-22.715,21.091c0,16.404,11.178,20.909,22.715,20.909
		C516.408,107.975,527.583,103.47,527.583,87.066z"/>
	<linearGradient id="SVGID_5_" gradientUnits="userSpaceOnUse" x1="610.1537" y1="39.4776" x2="610.1537" y2="134.4742">
		<stop  offset="0" style="stop-color:#FF30AE"/>
		<stop  offset="1" style="stop-color:#D1003A"/>
	</linearGradient>
	<path fill="url(#SVGID_5_)" d="M655.85,134.474h-21.089c-1.084,0-1.803-0.722-1.803-1.803V87.066
		c0-16.405-11.176-21.091-22.894-21.091c-11.537,0-22.712,4.686-22.712,21.091v45.605c0,1.081-0.902,1.803-1.804,1.803h-21.09
		c-1.081,0-1.803-0.722-1.803-1.803V87.066c0-26.318,15.938-47.588,47.409-47.588c31.529,0,47.588,21.27,47.588,47.588v45.605
		C657.652,133.753,656.752,134.474,655.85,134.474z"/>
</g>
<g id="mo">
	<linearGradient id="SVGID_6_" gradientUnits="userSpaceOnUse" x1="82.6484" y1="39.4776" x2="82.6484" y2="134.4742">
		<stop  offset="0" style="stop-color:#00D7E5"/>
		<stop  offset="1" style="stop-color:#0066AE"/>
	</linearGradient>
	<path fill="url(#SVGID_6_)" d="M163.494,134.474h-21.088c-1.084,0-1.803-0.722-1.803-1.803V87.066
		c0-16.405-11.178-21.091-22.894-21.091c-11.537,0-22.712,4.686-22.712,21.091v45.605c0,1.081-0.902,1.803-1.803,1.803H72.103
		c-1.081,0-1.803-0.722-1.803-1.803V87.066c0-16.405-11.175-21.091-22.891-21.091c-11.537,0-22.714,4.686-22.714,21.091v45.605
		c0,1.081-0.899,1.803-1.801,1.803H1.803c-1.081,0-1.803-0.722-1.803-1.803V87.066c0-26.318,16.594-47.588,47.409-47.588
		c14.059,0,26.497,5.949,35.15,15.5c8.833-9.552,21.271-15.5,35.15-15.5c30.885,0,47.588,21.27,47.588,47.588v45.605
		C165.297,133.753,164.395,134.474,163.494,134.474z"/>
	<linearGradient id="SVGID_7_" gradientUnits="userSpaceOnUse" x1="223.4558" y1="39.4776" x2="223.4558" y2="134.4742">
		<stop  offset="0" style="stop-color:#00D7E5"/>
		<stop  offset="1" style="stop-color:#0066AE"/>
	</linearGradient>
	<path fill="url(#SVGID_7_)" d="M270.954,87.066c0,26.139-15.36,47.408-47.588,47.408c-30.772,0-47.409-21.27-47.409-47.408
		c0-26.318,15.636-47.588,47.409-47.588C255.594,39.478,270.954,60.748,270.954,87.066z M246.257,87.066
		c0-16.405-11.175-21.091-22.891-21.091c-11.537,0-22.715,4.686-22.715,21.091c0,16.404,11.178,20.909,22.715,20.909
		C235.082,107.975,246.257,103.47,246.257,87.066z"/>
</g>
</svg>
