<?xml version="1.0" encoding="UTF-8" standalone="no"?>
<svg
   xmlns:dc="http://purl.org/dc/elements/1.1/"
   xmlns:cc="http://creativecommons.org/ns#"
   xmlns:rdf="http://www.w3.org/1999/02/22-rdf-syntax-ns#"
   xmlns:svg="http://www.w3.org/2000/svg"
   xmlns="http://www.w3.org/2000/svg"
   version="0.0"
   id="svg3029"
   height="73"
   width="310">
  <defs
     id="defs3031" />
  <g
     id="layer1"
     transform="matrix(0.99041534,0,0,0.95890411,-96.211779,-318.92265)">
    <path
       id="rect3037"
       d="m 97.14286,332.59076 313,0 0,76.12857 -313,0 z"
       style="fill:#0a78b0;fill-opacity:1;fill-rule:evenodd;stroke:none" />
    <path
       id="path2997"
       d="m 128.9477,357.29973 c -2.88531,0 -5.5411,1.30883 -7.66724,3.47156 l 0,-2.20029 -8.99244,0 0,39.11623 0,2.39587 0,0.29337 8.94511,0 0,-0.29337 0.0473,0 0,-12.61499 c 2.12614,2.16273 4.78194,3.47157 7.66724,3.47157 6.98411,0 12.63675,-7.52421 12.63675,-16.81998 0,-9.29576 -5.65264,-16.81997 -12.63675,-16.81997 z m -2.22445,7.43208 c 1.29649,0 2.45943,0.65287 3.45499,1.66244 0.27585,0.27585 0.56284,0.59257 0.80459,0.92902 0.0345,0.049 0.0609,0.0965 0.0947,0.14668 0.0131,0.0191 0.0343,0.0297 0.0473,0.0489 0.26629,0.4021 0.49659,0.80232 0.70993,1.27128 0.0157,0.0335 0.0319,0.0639 0.0473,0.0978 0.04,0.0904 0.0567,0.20079 0.0947,0.29336 0.16731,0.40844 0.34972,0.82438 0.47329,1.27127 0.14506,0.52461 0.25305,1.09455 0.3313,1.66245 0.002,0.0164 -0.002,0.0324 0,0.0489 0.0785,0.58541 0.14198,1.18947 0.14198,1.80913 6e-5,0.0166 0,0.0322 0,0.0489 -0.002,0.6189 -0.0615,1.2248 -0.14198,1.80912 -0.002,0.0157 0.002,0.0332 0,0.0489 -0.0825,0.5824 -0.17858,1.12622 -0.3313,1.66245 -0.004,0.0152 0.004,0.0337 0,0.0489 -0.94038,3.31495 -3.15593,5.67186 -5.72677,5.67186 -0.44505,0 -0.86055,-0.11005 -1.27787,-0.24447 -0.40021,-0.12892 -0.76911,-0.29861 -1.13589,-0.53786 -0.01,-0.006 -0.0374,0.006 -0.0473,0 -0.3613,-0.23981 -0.72038,-0.54551 -1.04123,-0.88009 -0.32351,-0.33734 -0.62451,-0.70377 -0.89925,-1.12459 -0.21571,-0.33042 -0.43385,-0.7009 -0.61527,-1.07569 -0.0221,-0.0457 -0.0257,-0.10037 -0.0473,-0.14669 -0.0831,-0.17455 -0.16168,-0.35463 -0.23664,-0.53785 -0.047,-0.11729 -0.0984,-0.22177 -0.14199,-0.34227 l 0,-0.0489 c -0.47773,-1.30601 -0.75726,-2.76087 -0.75726,-4.35168 0,-5.09053 2.77227,-9.24121 6.20005,-9.24121 z"
       style="fill:#ffffff;fill-rule:evenodd;stroke:none" />
    <path
       id="rect3031"
       d="m 144.14039,358.47322 0,28.11478 0,2.88483 0,0.34226 9.03976,0 0,-0.34226 0.0473,0 0,-19.31365 c 1.20815,-1.87719 4.26505,-3.38107 8.23518,-3.76493 0.17341,-0.0168 0.34829,0.0105 0.52061,0 l 0,-7.92103 -1.51451,0 c -0.41306,0.0624 -0.83879,0.14542 -1.27788,0.24447 -0.53697,0.12116 -1.06022,0.27276 -1.56184,0.44006 -0.0322,0.0108 -0.0626,0.038 -0.0947,0.0489 l -2.22444,1.17348 -0.61528,0.34227 -1.46718,0.78232 0,-3.0315 -9.0871,0 z"
       style="fill:#ffffff;stroke:none" />
    <path
       id="rect3030"
       d="m 164.90736,358.79784 9.04166,0 0,31.01725 -9.04166,0 z"
       style="fill:#ffffff;stroke:none" />
    <path
       id="path3008"
       d="m 191.98917,357.59258 c -8.54392,0 -15.42913,7.40446 -15.42913,16.57549 0,9.17105 6.88521,16.6244 15.42913,16.6244 3.90402,0 7.45218,-1.59093 10.17566,-4.1561 l -4.3069,-6.45418 c -1.28303,2.15087 -3.20801,3.56936 -5.39547,3.56936 -3.87809,0 -7.05197,-4.31128 -7.05197,-9.63237 0,-5.32108 3.17388,-9.63237 7.05197,-9.63237 2.2582,0 4.25782,1.49313 5.53745,3.76494 l 3.83363,-6.89424 c -2.67553,-2.3624 -6.1064,-3.76493 -9.84437,-3.76493 z"
       style="fill:#ffffff;stroke:none" />
    <path
       id="rect3403"
       d="m 280.44689,358.17971 c -2.9586,0 -5.66153,1.04785 -7.57258,2.68925 l 0,-2.05361 -9.03977,0 0,30.99961 9.03977,0 0,-20.7805 c 0.89293,-1.91141 2.59008,-3.22709 4.54355,-3.22709 1.92007,0 3.57799,1.27158 4.49622,3.1293 l 0,4.49837 0,1.80912 0,0.34227 0,5.72075 0,8.85005 9.03977,0 0,-21.41614 c 0.009,-0.46453 0.0115,-0.94377 0,-1.41796 0.007,-0.11597 0,-0.22362 0,-0.34225 0,-0.28599 -0.0153,-0.55208 -0.0473,-0.83124 -0.004,-0.032 0.004,-0.0659 0,-0.0978 -0.56303,-4.40361 -5.03218,-7.87214 -10.45961,-7.87214 z"
       style="fill:#ffffff;stroke:none" />
    <path
       style="fill:#ffffff;stroke:none"
       d="m 217.11359,357.05446 c -6.00994,0 -11.18308,3.73235 -13.7253,9.17629 -0.0404,0.11622 -0.1031,0.22331 -0.14197,0.33986 -0.91025,2.72932 -1.32234,5.58202 -1.3252,8.39946 0.0115,0.29108 0.0258,0.58088 0.0473,0.87393 0.13569,1.84944 0.4621,3.64024 0.94657,5.38925 0.0755,0.19709 0.1529,0.3854 0.23665,0.58262 1.00856,2.37481 2.50142,4.46279 4.40156,6.16607 0.0448,0.0331 0.0967,0.0645 0.14199,0.0971 2.5516,1.83741 5.77051,2.96167 9.27641,2.96167 6.87039,0 12.70355,-4.21639 14.52989,-9.95312 l -6.15271,-2.67035 c -1.3574,3.21145 -4.00956,5.38925 -7.0993,5.38925 -3.41194,0 -6.25908,-2.69224 -7.43059,-6.45739 -0.0409,-0.13151 -0.10528,-0.25433 -0.14199,-0.38841 l 0,-0.1942 c -0.0797,-0.32019 -0.18196,-0.63822 -0.23664,-0.97105 -0.002,-0.0157 0.002,-0.0328 0,-0.0485 l 0.23664,0 0.28397,0 14.62454,0 6.76799,0 c 0.0354,-2.12193 -0.09,-4.31201 -0.47328,-6.50594 -0.0351,-0.1301 -0.064,-0.26045 -0.0946,-0.38841 -1.94318,-6.82779 -7.73741,-11.79808 -14.67197,-11.79808 z m -0.47328,6.79725 c 0.22007,-0.027 0.48398,0 0.70994,0 3.19928,0 5.77953,2.75231 6.34204,6.40884 l -12.77873,0 c 0.53442,-3.40735 2.82957,-6.05358 5.72675,-6.40884 z"
       id="path3235" />
    <path
       id="rect3035"
       d="m 235.35154,346.1479 9.04166,0 0,43.66719 -9.04166,0 z"
       style="fill:#ffffff;stroke:none" />
    <path
       id="rect3269"
       d="m 249.74449,358.79784 9.04166,0 0,31.01725 -9.04166,0 z"
       style="fill:#ffffff;stroke:none" />
    <path
       id="path3060"
       d="m 308.35001,357.05393 c -6.00995,0 -11.18309,3.73229 -13.7253,9.17615 -0.0405,0.11622 -0.10314,0.2233 -0.14192,0.33986 -0.91025,2.72928 -1.32233,5.58193 -1.3252,8.39933 0.0121,0.29108 0.0258,0.58088 0.0473,0.87392 0.1357,1.84942 0.46209,3.64018 0.94657,5.38916 0.0755,0.19709 0.15289,0.38541 0.23664,0.58262 1.00857,2.37478 2.50143,4.46273 4.40157,6.16598 0.0448,0.0331 0.0967,0.0645 0.14191,0.0971 2.5516,1.83739 5.7705,2.96162 9.27641,2.96162 6.87039,0 12.70355,-4.21633 14.52989,-9.95297 l -6.15273,-2.6703 c -1.3574,3.21139 -4.00956,5.38916 -7.09929,5.38916 -3.41194,0 -6.25909,-2.69219 -7.43059,-6.45729 -0.0409,-0.13151 -0.10526,-0.25432 -0.14191,-0.38841 l 0,-0.1942 c -0.0797,-0.32017 -0.18197,-0.6382 -0.23665,-0.97102 -0.003,-0.0157 0.003,-0.0328 0,-0.0485 l 0.23665,0 0.28397,0 14.62454,0 6.768,0 c 0.0354,-2.1219 -0.09,-4.31194 -0.47328,-6.50584 -0.0351,-0.1301 -0.0641,-0.26045 -0.0946,-0.38841 -1.9431,-6.82769 -7.73734,-11.7979 -14.67188,-11.7979 z m -0.47328,6.79715 c 0.22006,-0.027 0.48396,0 0.70992,0 3.19929,0 5.77954,2.75227 6.34204,6.40874 l -12.77873,0 c 0.53442,-3.4073 2.82959,-6.05349 5.72677,-6.40874 z"
       style="fill:#ffffff;stroke:none" />
    <path
       id="path3278"
       d="m 331.70152,387.1145 c 0,1.96907 -1.54499,3.56532 -3.45082,3.56532 -1.90584,0 -3.45083,-1.59625 -3.45083,-3.56532 0,-1.96908 1.54499,-3.56533 3.45083,-3.56533 1.90583,0 3.45082,1.59625 3.45082,3.56533 z"
       style="fill:#ffffff;stroke:none" />
    <path
       style="fill:#ffffff;stroke:none"
       d="m 342.29225,372.58205 c -4.92283,0 -8.88993,4.07234 -8.88993,9.11627 0,5.04394 3.9671,9.14318 8.88993,9.14318 2.24942,0 4.29375,-0.87499 5.86298,-2.28579 l -2.48152,-3.54971 c -0.73927,1.18295 -1.84839,1.9631 -3.10876,1.9631 -2.23448,0 -4.06317,-2.37114 -4.06317,-5.29766 0,-2.92652 1.82869,-5.29766 4.06317,-5.29766 1.30112,0 2.45325,0.8212 3.19055,2.07066 l 2.20886,-3.79172 c -1.54159,-1.29929 -3.5184,-2.07067 -5.67211,-2.07067 z"
       id="path3282" />
    <path
       id="path3286"
       d="m 357.68683,372.22217 c -5.05234,0 -9.18175,4.13375 -9.18175,9.28598 0,5.15222 4.12941,9.33335 9.18175,9.33335 5.05235,0 9.13442,-4.18113 9.13442,-9.33335 0,-5.15223 -4.08207,-9.28598 -9.13442,-9.28598 z m -0.0946,4.16921 c 2.20438,0 4.02293,2.29986 4.02293,5.11677 0,2.81689 -1.81855,5.11676 -4.02293,5.11676 -2.20438,0 -3.97561,-2.29987 -3.97561,-5.11676 0,-2.81691 1.77123,-5.11677 3.97561,-5.11677 z"
       style="fill:#ffffff;stroke:none" />
    <path
       id="path3449"
       d="m 378.17987,372.55543 c -1.62899,0 -3.10584,0.57172 -4.16491,1.46686 l 0,-0.53784 -5.15882,0 0,16.4777 5.15882,0 0,-11.93045 c 0.35785,-1.00297 1.12331,-1.71134 2.03513,-1.71134 0.91717,0 1.69239,0.69916 2.03513,1.71134 0.005,0.0147 -0.005,0.034 0,0.0489 l 0,11.88155 5.15882,0 0,-9.53457 0,-2.39588 0,-0.0978 c 0.37327,-0.94704 1.10784,-1.61355 1.98781,-1.61355 0.89953,0 1.68271,0.68152 2.03512,1.66244 l 0,11.93045 5.15883,0 0,-12.81056 0,-1.95582 0,-0.0489 c -0.96904,-1.50849 -2.84855,-2.54255 -5.06417,-2.54255 -1.89146,0 -3.57327,0.74816 -4.63821,1.90691 -1.04486,-1.15053 -2.66026,-1.90691 -4.54355,-1.90691 z"
       style="fill:#ffffff;stroke:none" />
    <path
       id="path3255"
       d="m 173.79353,351.4379 c 0,2.57944 -2.02404,4.67048 -4.52083,4.67048 -2.49678,0 -4.52083,-2.09104 -4.52083,-4.67048 0,-2.57943 2.02405,-4.67048 4.52083,-4.67048 2.49679,0 4.52083,2.09105 4.52083,4.67048 z"
       style="fill:#ffffff;stroke:none" />
    <path
       id="path3271"
       d="m 258.63066,351.4379 c 0,2.57944 -2.02404,4.67048 -4.52083,4.67048 -2.49678,0 -4.52083,-2.09104 -4.52083,-4.67048 0,-2.57943 2.02405,-4.67048 4.52083,-4.67048 2.49679,0 4.52083,2.09105 4.52083,4.67048 z"
       style="fill:#ffffff;stroke:none" />
    <g
       id="priceline_blue"
       style="fill:#007aff"
       transform="matrix(2.5648128,0,0,2.6730702,112.41776,343.09073)">
      <g
         id="Group" />
    </g>
    <path
       id="®-1"
       d="m 398.0362,351.97951 c 1.17444,0 2.251,0.2981 3.2297,0.8943 0.9787,0.59621 1.75218,1.40532 2.32045,2.42739 0.56828,1.02206 0.85241,2.13583 0.85241,3.34133 0,1.19241 -0.28413,2.3029 -0.85241,3.33151 -0.56827,1.02862 -1.34491,1.84756 -2.32992,2.45687 -0.98502,0.60931 -2.07104,0.91395 -3.25811,0.91395 -1.17444,0 -2.251,-0.30137 -3.2297,-0.90412 -0.9787,-0.60276 -1.74902,-1.41515 -2.31098,-2.43721 -0.56196,-1.02206 -0.84294,-2.12928 -0.84294,-3.32169 0,-1.1924 0.28413,-2.30289 0.85241,-3.33151 0.56828,-1.02861 1.34176,-1.84756 2.32046,-2.45686 0.9787,-0.60931 2.06156,-0.91396 3.24863,-0.91396 z m -0.0379,11.734 c 0.90925,0 1.73639,-0.22931 2.48147,-0.68793 0.74507,-0.45861 1.33544,-1.07446 1.77112,-1.84756 0.43568,-0.7731 0.65352,-1.61825 0.65352,-2.53549 0,-0.91723 -0.21468,-1.75911 -0.64405,-2.52565 -0.42937,-0.76655 -1.01658,-1.37585 -1.76165,-1.82791 -0.74508,-0.45207 -1.56591,-0.6781 -2.46253,-0.6781 -0.90924,0 -1.73323,0.22931 -2.47199,0.68793 -0.73876,0.45861 -1.32282,1.07446 -1.75218,1.84756 -0.42937,0.7731 -0.64405,1.61825 -0.64405,2.53548 0,0.91724 0.21152,1.75912 0.63458,2.52566 0.42305,0.76655 1.00394,1.37584 1.74271,1.82791 0.73876,0.45207 1.55643,0.6781 2.45305,0.6781 z m 2.72772,-6.21096 c 0,0.47172 -0.0916,0.88119 -0.27467,1.22843 -0.1831,0.34724 -0.45146,0.60603 -0.80505,0.77637 l 1.26915,2.04411 -1.76166,0 -0.89029,-1.72963 -1.13655,0 0,1.72963 -1.53435,0 0,-6.23061 2.61407,0 c 0.80822,0 1.43015,0.19 1.86583,0.56999 0.43568,0.38 0.65352,0.91723 0.65352,1.61171 z m -3.59907,1.06136 1.07972,0 c 0.32834,0 0.58406,-0.0884 0.76717,-0.26534 0.1831,-0.17689 0.27466,-0.42258 0.27466,-0.73706 0,-0.32758 -0.0916,-0.57327 -0.27466,-0.73706 -0.1831,-0.16379 -0.43883,-0.24568 -0.76717,-0.24568 l -1.07972,0 0,1.98514 z"
       style="fill:#ffffff" />
  </g>
  <metadata
     id="metadata4724">
    <rdf:RDF>
      <cc:Work
         rdf:about="">
        <dc:title></dc:title>
        <dc:format>image/svg+xml</dc:format>
        <dc:type
           rdf:resource="http://purl.org/dc/dcmitype/StillImage" />
      </cc:Work>
    </rdf:RDF>
  </metadata>
</svg>
