<svg viewBox="0 0 67 16" version="1.1" xmlns="http://www.w3.org/2000/svg" xmlns:xlink="http://www.w3.org/1999/xlink" class="vep-head-logo-small">
<g id="pc-logo黑">
<path d="M-2.11164419e-13,2.53190601 L-2.11164419e-13,0.000436711207 L2.62439881,0.000436711207 L2.62439881,2.53190601 L-2.11164419e-13,2.53190601 Z M-2.11164419e-13,15.4046967 L-2.11164419e-13,5.0619196 L2.62439881,5.0619196 L2.62439881,15.4046967 L-2.11164419e-13,15.4046967 Z M15.8011747,2.53190601 C12.8417463,2.53190601 10.4437188,4.8464754 10.4437188,7.69965529 C10.4437188,10.5542909 12.8417463,12.8688603 15.8011747,12.8688603 L15.8011747,15.4003296 C11.3929695,15.4003296 7.81932003,11.9517667 7.81932003,7.69965529 C7.81932003,3.44754384 11.3929695,0.000436711207 15.8011747,0.000436711207 C20.2108891,0.000436711207 23.7830294,3.44754384 23.7830294,7.69965529 L21.1601397,7.69965529 C21.1601397,4.8464754 18.7606032,2.53190601 15.8011747,2.53190601 Z M31.603104,7.69921858 C31.603104,10.5538542 34.0026406,12.8684236 36.9605599,12.8684236 C39.9199883,12.8684236 42.3195249,10.5538542 42.3195249,7.69921858 C42.3195249,4.84603869 39.9199883,2.5314693 36.9605599,2.5314693 C34.0026406,2.5314693 31.603104,4.84603869 31.603104,7.69921858 Z M28.9787052,7.69921858 C28.9787052,3.44710713 32.5523546,0 36.9605599,0 C41.3687651,0 44.9439237,3.44710713 44.9439237,7.69921858 C44.9439237,11.9527857 41.3687651,15.3998929 36.9605599,15.3998929 C32.5523546,15.3998929 28.9787052,11.9527857 28.9787052,7.69921858 Z M52.762791,7.69921858 C52.762791,10.5538542 55.1608184,12.8684236 58.1202469,12.8684236 C61.0796753,12.8684236 63.4777027,10.5538542 63.4777027,7.69921858 C63.4777027,4.84603869 61.0796753,2.5314693 58.1202469,2.5314693 C55.1608184,2.5314693 52.762791,4.84603869 52.762791,7.69921858 Z M58.1202469,0 C62.114947,0 65.4260057,2.83134433 66.011553,6.52737684 C66.0719187,6.910227 66.1036107,7.30181138 66.1036107,7.70067428 C66.1036107,11.9527857 62.5284521,15.3998929 58.1202469,15.3998929 C53.7120416,15.3998929 50.136883,11.9527857 50.136883,7.69921858 C50.136883,3.44710713 53.7120416,0 58.1202469,0 Z M15.6291325,9.32087286 L17.4899052,7.53472402 L24.0018551,13.8495681 L22.1410824,15.6342612 L15.6291325,9.32087286 Z" id="IQOO-LOGO-黄"></path>
</g>
</svg>
