<?xml version="1.0" encoding="UTF-8" standalone="no"?>
<!-- Created with Inkscape (http://www.inkscape.org/) -->

<svg
   xmlns:dc="http://purl.org/dc/elements/1.1/"
   xmlns:cc="http://creativecommons.org/ns#"
   xmlns:rdf="http://www.w3.org/1999/02/22-rdf-syntax-ns#"
   xmlns:svg="http://www.w3.org/2000/svg"
   xmlns="http://www.w3.org/2000/svg"
   xmlns:sodipodi="http://sodipodi.sourceforge.net/DTD/sodipodi-0.dtd"
   xmlns:inkscape="http://www.inkscape.org/namespaces/inkscape"
   width="171.84131mm"
   height="43.642704mm"
   viewBox="0 0 171.84131 43.642704"
   version="1.1"
   id="svg8"
   inkscape:version="0.92.3 (2405546, 2018-03-11)"
   sodipodi:docname="Realme-realme-_logo_box-RGB-01 with out back ground.svg">
  <defs
     id="defs2" />
  <sodipodi:namedview
     id="base"
     pagecolor="#ffffff"
     bordercolor="#666666"
     borderopacity="1.0"
     inkscape:pageopacity="0.0"
     inkscape:pageshadow="2"
     inkscape:zoom="0.49497475"
     inkscape:cx="242.08315"
     inkscape:cy="-57.949084"
     inkscape:document-units="mm"
     inkscape:current-layer="layer2"
     showgrid="false"
     inkscape:window-width="1600"
     inkscape:window-height="837"
     inkscape:window-x="-8"
     inkscape:window-y="-8"
     inkscape:window-maximized="1"
     fit-margin-top="1"
     fit-margin-left="1"
     fit-margin-right="1"
     fit-margin-bottom="1" />
  <metadata
     id="metadata5">
    <rdf:RDF>
      <cc:Work
         rdf:about="">
        <dc:format>image/svg+xml</dc:format>
        <dc:type
           rdf:resource="http://purl.org/dc/dcmitype/StillImage" />
        <dc:title></dc:title>
      </cc:Work>
    </rdf:RDF>
  </metadata>
  <g
     inkscape:groupmode="layer"
     id="layer2"
     inkscape:label="Rectangle "
     transform="translate(-21.12115,-110.14389)">
    <path
       style="display:inline;fill:#676c73;fill-opacity:1;stroke-width:0.08466666"
       d="m 85.32481,152.74507 c -3.59362,-0.41659 -6.49823,-1.7441 -8.83262,-4.03681 -2.88613,-2.83462 -4.41771,-6.65563 -4.41771,-11.02137 0,-8.77582 6.31781,-15.21089 14.91916,-15.19601 2.26875,0.004 4.52963,0.53349 6.52709,1.52886 0.95275,0.47478 2.17056,1.28578 2.81463,1.87443 0.24375,0.22278 0.46642,0.40505 0.49482,0.40505 0.0284,0 0.0516,-0.74295 0.0516,-1.651 v -1.651 h 1.86267 1.86266 v 14.68967 14.68967 h -1.86266 -1.86267 v -1.70045 -1.70045 l -0.34052,0.28228 c -2.49675,2.06974 -4.77071,3.07826 -7.78527,3.45281 -0.65966,0.082 -2.83274,0.1037 -3.43121,0.0343 z m 3.43525,-3.88915 c 4.50312,-0.75588 7.62473,-3.93681 8.51519,-8.677 0.20642,-1.09886 0.21188,-3.86378 0.01,-4.94736 -0.23561,-1.26315 -0.55169,-2.23214 -1.0771,-3.302 -1.55051,-3.15724 -4.28143,-5.07169 -7.91976,-5.55197 -1.26109,-0.16647 -3.09969,-0.06 -4.30435,0.24918 -3.51134,0.9013 -6.21879,3.44562 -7.44467,6.99612 -0.50924,1.47491 -0.61231,2.15899 -0.61231,4.064 0,1.46519 0.0266,1.81218 0.19748,2.57546 1.02,4.55636 4.2892,7.80764 8.64356,8.59616 0.90358,0.16362 3.01017,0.16226 3.99221,-0.003 z m -35.92454,3.7714 c -2.49107,-0.26147 -4.79101,-1.0698 -6.7577,-2.37504 -1.10009,-0.7301 -2.82022,-2.46012 -3.57021,-3.59072 -1.8319,-2.76159 -2.71056,-6.07584 -2.58132,-9.73667 0.1175,-3.3282 1.04344,-6.16975 2.84171,-8.72067 0.26261,-0.37253 0.93468,-1.13674 1.49348,-1.69825 1.99424,-2.00389 4.39661,-3.273 7.29161,-3.85197 1.166,-0.23318 3.77502,-0.32142 4.98832,-0.1687 5.58785,0.70335 9.7734,4.44559 11.21182,10.02432 0.3504,1.35899 0.50774,2.516 0.56876,4.18244 l 0.0535,1.4605 H 56.03045 43.68542 l 0.056,0.86783 c 0.24881,3.85824 2.48826,7.31598 5.83143,9.00377 1.57962,0.79747 3.08683,1.14429 4.98226,1.14647 3.24962,0.004 5.70533,-0.99926 7.75027,-3.16549 0.51092,-0.54121 1.66386,-2.08933 1.86303,-2.50159 0.0247,-0.0511 3.24881,2.05961 3.24913,2.12709 10e-4,0.20482 -1.32071,1.96309 -2.04896,2.72584 -2.69198,2.81954 -6.02851,4.20959 -10.35438,4.31378 -0.79164,0.0191 -1.77202,-2.6e-4 -2.17863,-0.0429 z m 11.66136,-18.1366 c -0.70107,-4.41414 -3.71319,-7.61411 -7.95873,-8.4551 -0.89385,-0.17706 -3.20465,-0.15638 -4.10634,0.0367 -2.13984,0.4583 -3.92454,1.38475 -5.40745,2.80704 -1.56967,1.50549 -2.61629,3.39644 -3.17612,5.73832 l -0.0556,0.23284 h 10.38072 10.38072 z m 112.01393,18.13062 c -6.48663,-0.60436 -11.30289,-4.99963 -12.60749,-11.50545 -0.88765,-4.42653 -0.0637,-9.04331 2.22274,-12.45508 2.19091,-3.26917 5.31124,-5.29241 9.34878,-6.06181 1.14065,-0.21736 4.53099,-0.21572 5.60796,0.003 2.69465,0.54654 4.9222,1.71971 6.77725,3.56933 2.67474,2.66692 4.10241,6.43754 4.10241,10.8349 v 1.14605 l -12.29783,0.0215 -12.29782,0.0214 0.0227,0.67733 c 0.0896,2.66725 1.35036,5.4565 3.32823,7.36317 1.53406,1.47885 3.39538,2.41566 5.56688,2.80187 0.9647,0.17157 3.03794,0.17129 4.00826,-5.3e-4 3.00929,-0.53293 5.18794,-2.01209 7.05246,-4.78815 0.26584,-0.39582 0.515,-0.71117 0.55367,-0.70079 0.10103,0.0271 2.98496,1.88295 3.10787,1.99994 0.13054,0.12426 -0.66339,1.32166 -1.59298,2.4025 -2.96643,3.44909 -7.68507,5.15731 -12.90314,4.67114 z m 11.64106,-18.00362 c 0,-0.12806 -0.0746,-0.54129 -0.16494,-0.9183 -1.01788,-4.24542 -4.01549,-7.07282 -8.17413,-7.70995 -1.58488,-0.24282 -3.47609,-0.0751 -5.07999,0.45054 -3.4685,1.1367 -6.15108,4.01142 -7.07149,7.57799 -0.0921,0.35701 -0.16751,0.69038 -0.16751,0.74083 0,0.0654 2.96953,0.0917 10.32933,0.0917 h 10.32932 l -7.9e-4,-0.23284 z m -166.03072,3.02684 v -14.732 h 8.80533 8.80533 v 1.73517 1.73517 l -6.9215,0.0217 -6.9215,0.0217 -0.0214,12.97517 -0.0214,12.97517 h -1.8624 -1.86239 z m 85.00533,-5.92667 v -20.574 h 1.905 1.905 v 20.574 20.574 h -1.905 -1.905 z m 10.32932,5.88433 v -14.68966 h 1.86268 1.86265 l 0.004,1.92616 0.004,1.92617 0.31369,-0.3809 c 1.03555,-1.25738 2.10244,-2.14205 3.31045,-2.74505 1.44079,-0.71918 2.7073,-1.03441 4.49626,-1.11911 2.06384,-0.0977 3.74311,0.22202 5.37633,1.02363 1.73366,0.85091 2.98002,2.0728 4.15521,4.07362 0.081,0.13791 0.12968,0.0989 0.43519,-0.34846 1.60119,-2.34475 3.9832,-3.89569 6.9666,-4.536 1.18294,-0.25389 3.78271,-0.27976 4.92843,-0.049 2.09518,0.42191 3.74497,1.27344 5.10961,2.63732 1.45298,1.45217 2.34562,3.20099 2.89297,5.6678 l 0.22755,1.02552 0.0276,10.13884 0.0276,10.13883 h -1.86559 -1.86559 v -9.05036 c 0,-5.6423 -0.0331,-9.38054 -0.088,-9.92717 -0.34875,-3.47526 -2.14776,-5.98742 -4.95928,-6.92517 -1.08399,-0.36156 -2.2495,-0.48212 -3.42661,-0.35445 -3.62693,0.39338 -5.97137,2.35554 -6.79036,5.68315 -0.17369,0.7057 -0.17771,0.9123 -0.20704,10.64683 l -0.0299,9.92717 h -1.85907 -1.85907 v -8.8777 c 0,-5.30641 -0.0349,-9.30727 -0.0867,-9.94554 -0.34652,-4.26735 -2.68926,-6.97265 -6.43263,-7.42814 -3.41439,-0.41546 -6.95877,1.57882 -8.24607,4.63973 -0.53725,1.27748 -0.50659,0.61535 -0.53724,11.59982 l -0.028,10.01183 h -1.8597 -1.8597 v -14.68967 z"
       id="path826"
       inkscape:connector-curvature="0" />
  </g>
</svg>
