<svg viewBox="0 0 3912 1024" xmlns="http://www.w3.org/2000/svg"><g id="vivo_logo" fill="#415fff"><path d="m3522.471385 853.333333h-336.436513c-189.111795 0-205.929026-155.871179-205.929026-203.487179s16.817231-203.48718 205.929026-203.48718h336.436513c189.124923 0 205.942153 155.87118 205.942153 203.48718s-16.81723 203.487179-205.942153 203.487179m7.31241-577.641025h-337.92c-351.179487 0-382.424616 286.588718-382.424616 374.153846s31.245129 374.153846 382.424616 374.153846h337.92c351.192615 0 382.424615-286.588718 382.424615-374.153846s-31.232-374.153846-382.424615-374.153846"/><path d="m2741.894564 301.948718h-109.554872c-46.920205 0-56.582564 7.890051-74.67323 34.382769-18.116923 26.47959-331.460923 498.372923-331.460924 498.372923-10.003692 14.506667-20.611282 20.374974-33.792 20.374975-13.193846 0-23.788308-5.868308-33.778871-20.374975 0 0-313.370256-471.893333-331.474052-498.372923-18.090666-26.505846-27.753025-34.382769-74.67323-34.382769h-109.554872c-25.206154 0-36.758974 19.442872-20.900103 43.191795l374.258872 560.548102c58.066051 84.256821 100.680205 118.311385 196.122256 118.311385s138.056205-34.054564 196.135385-118.311385l374.245744-560.548102c15.858872-23.748923 4.332308-43.191795-20.900103-43.191795m-1442.198974 45.778051c0-32.794256 12.8-45.778051 45.108513-45.778051h80.462769c32.295385 0 45.095385 12.996923 45.095384 45.778051v630.482052c0 32.794256-12.8 45.791179-45.095384 45.791179h-80.462769c-32.295385 0-45.108513-12.996923-45.108513-45.791179zm-6.721641-199.771897c-26.046359-26.033231-26.046359-46.683897 0-72.730257l55.676718-55.676718c26.046359-26.059487 46.697026-26.059487 72.743384-.013128l55.702975 55.676718c26.033231 26.059487 26.033231 46.710154 0 72.756513l-55.702975 55.676718c-26.046359 26.046359-46.697026 26.046359-72.730256 0l-55.689846-55.676718zm-166.439385 153.993846h-109.436718c-46.867692 0-56.530051 7.903179-74.594461 34.382769-18.090667 26.47959-331.11959 498.359795-331.11959 498.359795-9.977436 14.506667-20.571897 20.374974-33.739487 20.374974-13.193846 0-23.775179-5.868308-33.765744-20.374974 0 0-313.028923-471.893333-331.093333-498.372923-18.06441-26.466462-27.726769-34.369641-74.594462-34.369641h-109.436718c-28.120615 0-36.719589 19.442872-20.873846 43.191795 15.819487 23.762051 373.838769 560.534974 373.838769 560.534974 58.013539 84.269949 100.601436 118.324513 195.925334 118.324513 95.310769 0 137.911795-34.054564 195.912205-118.324513l373.851897-560.534974c15.832615-23.748923 7.246769-43.191795-20.873846-43.191795"/></g></svg>