<?xml version="1.0" encoding="UTF-8"?>
<svg xmlns="http://www.w3.org/2000/svg" xmlns:xlink="http://www.w3.org/1999/xlink" width="2000pt" height="777pt" viewBox="0 0 2000 777" version="1.1">
<g id="surface1">
<path style=" stroke:none;fill-rule:nonzero;fill:rgb(0%,0%,0%);fill-opacity:1;" d="M 725.273438 13.480469 L 884.792969 13.480469 L 884.792969 205.597656 L 901.691406 205.597656 L 1102.84375 13.480469 L 1320.066406 13.480469 L 1038.128906 269.085938 L 1353.042969 536.234375 L 1131.695312 536.234375 L 901.691406 335.460938 L 884.792969 335.460938 L 884.792969 536.234375 L 725.273438 536.234375 Z M 252.902344 330.925781 L 432.203125 330.925781 L 341.109375 134.6875 Z M 252.902344 330.925781 L 432.203125 330.925781 L 341.109375 134.6875 Z M 252.902344 330.925781 L 432.203125 330.925781 L 341.109375 134.6875 Z M 250.015625 13.480469 L 432.617188 13.480469 L 684.054688 535.824219 L 528.246094 535.824219 L 484.554688 443.476562 L 200.140625 443.476562 L 158.921875 535.824219 L 2.289062 535.824219 Z M 250.015625 13.480469 L 432.617188 13.480469 L 684.054688 535.824219 L 528.246094 535.824219 L 484.554688 443.476562 L 200.140625 443.476562 L 158.921875 535.824219 L 2.289062 535.824219 Z M 250.015625 13.480469 L 432.617188 13.480469 L 684.054688 535.824219 L 528.246094 535.824219 L 484.554688 443.476562 L 200.140625 443.476562 L 158.921875 535.824219 L 2.289062 535.824219 Z M 1894.253906 156.949219 L 1914.863281 26.261719 C 1842.007812 11.851562 1768.136719 3.167969 1693.925781 0.289062 C 1605.71875 -1.773438 1530.285156 7.296875 1507.203125 11.417969 C 1464.335938 18.839844 1428.472656 32.859375 1400.03125 53.472656 C 1371.105469 74.691406 1349.035156 103.933594 1336.554688 137.574219 C 1322.539062 173.441406 1315.535156 218.789062 1315.535156 274.445312 C 1315.535156 330.101562 1322.539062 375.453125 1336.554688 410.496094 C 1349.171875 443.609375 1371.066406 472.378906 1399.621094 493.359375 C 1427.648438 513.148438 1463.511719 527.167969 1506.378906 534.175781 C 1557.808594 541.929688 1609.765625 545.652344 1661.773438 545.304688 C 1773.890625 545.304688 1899.199219 513.972656 1922.691406 504.078125 L 1922.691406 261.664062 L 1681.5625 261.664062 L 1681.5625 360.609375 L 1786.257812 360.609375 L 1786.257812 403.484375 C 1745.230469 411.632812 1703.589844 416.320312 1661.773438 417.503906 C 1475.464844 422.449219 1462.6875 349.890625 1462.6875 272.796875 C 1462.6875 204.359375 1486.59375 147.878906 1572.742188 136.75 C 1658.890625 125.617188 1768.535156 131.390625 1894.253906 156.949219 "/>
<path style=" stroke:none;fill-rule:nonzero;fill:rgb(0%,0%,0%);fill-opacity:1;" d="M 916.53125 607.558594 L 916.53125 674.34375 L 836.976562 674.34375 L 836.976562 607.558594 L 804.828125 607.558594 L 804.828125 758.035156 L 836.976562 758.035156 L 836.976562 687.949219 L 916.53125 687.949219 L 916.53125 741.957031 C 916.578125 744.828125 917.285156 747.648438 918.59375 750.203125 C 919.804688 752.238281 921.503906 753.9375 923.539062 755.148438 C 925.554688 756.394531 927.796875 757.234375 930.132812 757.625 C 932.175781 757.964844 934.246094 758.105469 936.316406 758.035156 L 948.683594 758.035156 L 948.683594 607.558594 Z M 916.53125 607.558594 "/>
<path style=" stroke:none;fill-rule:nonzero;fill:rgb(0%,0%,0%);fill-opacity:1;" d="M 1545.125 757.625 L 1545.125 607.144531 L 1513.796875 607.144531 L 1450.734375 718.457031 L 1386.429688 607.144531 L 1354.691406 607.144531 L 1354.691406 757.625 L 1371.179688 757.625 L 1371.179688 640.953125 L 1438.777344 757.625 L 1447.023438 757.625 L 1512.972656 641.777344 L 1512.972656 741.132812 C 1513.019531 744.003906 1513.726562 746.824219 1515.035156 749.378906 C 1516.246094 751.414062 1517.945312 753.113281 1519.980469 754.324219 C 1521.996094 755.570312 1524.238281 756.410156 1526.574219 756.800781 C 1528.617188 757.140625 1530.691406 757.277344 1532.757812 757.210938 Z M 1545.125 757.625 "/>
<path style=" stroke:none;fill-rule:nonzero;fill:rgb(0%,0%,0%);fill-opacity:1;" d="M 1747.097656 757.625 L 1666.722656 603.847656 L 1657.242188 603.847656 L 1574.800781 757.625 L 1593.761719 757.625 L 1619.320312 709.800781 L 1677.851562 709.800781 L 1669.605469 694.546875 L 1627.5625 694.546875 L 1654.769531 643.835938 L 1707.941406 745.667969 C 1709.480469 749.472656 1712.234375 752.660156 1715.773438 754.738281 C 1719.371094 756.894531 1723.539062 757.902344 1727.726562 757.625 Z M 1747.097656 757.625 "/>
<path style=" stroke:none;fill-rule:nonzero;fill:rgb(0%,0%,0%);fill-opacity:1;" d="M 1914.449219 607.558594 C 1913.46875 607.492188 1912.484375 607.632812 1911.5625 607.96875 C 1910.347656 607.941406 1909.164062 608.382812 1908.265625 609.207031 C 1905.972656 610.617188 1904.570312 613.113281 1904.558594 615.804688 L 1904.558594 712.6875 L 1797.386719 607.558594 L 1776.777344 607.558594 L 1776.777344 758.035156 L 1795.738281 758.035156 L 1795.738281 644.664062 L 1904.558594 754.324219 C 1909.089844 758.449219 1915.273438 758.035156 1921.042969 758.035156 L 1923.105469 758.035156 L 1923.105469 607.558594 Z M 1914.449219 607.558594 "/>
<path style=" stroke:none;fill-rule:nonzero;fill:rgb(0%,0%,0%);fill-opacity:1;" d="M 1070.691406 604.261719 L 1061.210938 604.261719 L 978.773438 758.035156 L 997.734375 758.035156 L 1058.738281 644.25 L 1084.707031 694.546875 L 1042.25 694.546875 L 1034.007812 709.800781 L 1092.949219 709.800781 L 1111.5 745.667969 C 1113.039062 749.472656 1115.792969 752.660156 1119.328125 754.738281 C 1122.929688 756.894531 1127.097656 757.902344 1131.285156 757.625 L 1151.070312 757.625 Z M 1070.691406 604.261719 "/>
<path style=" stroke:none;fill-rule:nonzero;fill:rgb(0%,0%,0%);fill-opacity:1;" d="M 1277.613281 745.667969 L 1230.210938 689.1875 L 1213.722656 689.1875 L 1213.722656 758.035156 L 1181.570312 758.035156 L 1181.570312 607.558594 L 1240.515625 607.558594 C 1240.515625 607.558594 1264.832031 607.144531 1280.910156 614.980469 C 1296.984375 622.8125 1303.578125 633.53125 1303.578125 647.546875 C 1303.578125 661.566406 1294.925781 677.644531 1264.421875 685.890625 L 1325.839844 757.625 L 1301.105469 757.625 C 1297.308594 757.539062 1293.550781 756.84375 1289.976562 755.5625 C 1284.207031 753.914062 1277.613281 745.667969 1277.613281 745.667969 M 1213.308594 620.75 L 1213.308594 677.644531 L 1228.148438 677.644531 C 1228.148438 677.644531 1242.988281 678.054688 1252.46875 672.285156 C 1261.949219 666.511719 1268.957031 659.503906 1268.957031 648.371094 C 1268.523438 637.226562 1261.582031 627.378906 1251.230469 623.222656 C 1246.019531 621.039062 1240.386719 620.054688 1234.742188 620.339844 L 1213.308594 620.339844 Z M 1213.308594 620.75 "/>
<path style=" stroke:none;fill-rule:nonzero;fill:rgb(0%,0%,0%);fill-opacity:1;" d="M 677.460938 687.539062 L 682.40625 687.539062 L 682.40625 716.398438 C 686.527344 711.882812 692.371094 709.335938 698.480469 709.386719 C 710.433594 709.386719 718.679688 718.046875 718.679688 730.824219 C 718.679688 745.667969 708.785156 755.148438 693.535156 755.148438 C 688.015625 755.089844 682.558594 753.96875 677.460938 751.851562 Z M 682.40625 748.554688 C 685.980469 749.835938 689.738281 750.53125 693.535156 750.613281 C 698.675781 750.839844 703.691406 749.007812 707.480469 745.527344 C 711.269531 742.046875 713.519531 737.203125 713.730469 732.0625 L 713.730469 731.238281 C 713.730469 720.933594 707.136719 713.511719 698.070312 713.511719 C 692.296875 713.511719 687.765625 715.984375 682.40625 722.167969 Z M 682.40625 748.554688 "/>
<path style=" stroke:none;fill-rule:nonzero;fill:rgb(0%,0%,0%);fill-opacity:1;" d="M 733.105469 777 L 728.160156 777 L 743.820312 745.667969 L 724.863281 710.625 L 729.808594 710.625 L 746.296875 741.132812 L 761.957031 710.625 L 766.90625 710.625 Z M 733.105469 777 "/>
<path style=" stroke:none;fill-rule:nonzero;fill:rgb(0%,0%,0%);fill-opacity:1;" d="M 1966.796875 101.707031 C 1958.601562 101.703125 1950.742188 98.441406 1944.953125 92.636719 C 1939.140625 86.683594 1935.882812 78.695312 1935.882812 70.375 C 1935.894531 57.875 1943.425781 46.613281 1954.972656 41.832031 C 1966.515625 37.050781 1979.804688 39.691406 1988.644531 48.523438 C 1994.453125 54.3125 1997.71875 62.171875 1997.71875 70.375 C 1997.71875 78.574219 1994.453125 86.4375 1988.644531 92.222656 C 1982.898438 98.140625 1975.046875 101.550781 1966.796875 101.707031 M 1966.796875 44.8125 C 1952.796875 44.929688 1941.542969 56.371094 1941.65625 70.375 C 1941.769531 84.375 1953.210938 95.632812 1967.210938 95.519531 C 1981.210938 95.40625 1992.46875 83.964844 1992.355469 69.960938 C 1992.273438 63.3125 1989.613281 56.957031 1984.933594 52.234375 C 1980.316406 47.15625 1973.652344 44.429688 1966.796875 44.8125 M 1974.628906 87.6875 L 1974.628906 87.277344 L 1974.21875 85.628906 L 1974.21875 82.742188 C 1974.21875 79.03125 1973.394531 76.558594 1971.332031 75.734375 C 1969.371094 74.925781 1967.269531 74.507812 1965.148438 74.496094 L 1961.027344 74.496094 L 1961.027344 87.6875 L 1954.019531 87.6875 L 1954.019531 53.058594 L 1966.386719 53.058594 C 1969.585938 53.035156 1972.777344 53.453125 1975.867188 54.296875 C 1979.441406 55.824219 1981.609375 59.496094 1981.226562 63.367188 C 1981.578125 66.25 1980.097656 69.046875 1977.515625 70.375 L 1975.042969 71.609375 C 1976.589844 72.085938 1977.910156 73.113281 1978.75 74.496094 C 1980.023438 76 1980.75 77.886719 1980.8125 79.855469 L 1980.8125 84.804688 C 1980.8125 85.628906 1980.8125 86.039062 1981.226562 86.453125 L 1981.636719 87.6875 Z M 1965.5625 69.136719 C 1967.371094 69.066406 1969.171875 68.789062 1970.917969 68.3125 C 1972.789062 67.617188 1973.96875 65.765625 1973.804688 63.777344 C 1973.734375 62.054688 1972.992188 60.429688 1971.746094 59.242188 C 1969.503906 58.398438 1967.128906 57.980469 1964.738281 58.007812 L 1960.203125 58.007812 L 1960.203125 68.726562 L 1965.5625 68.726562 Z M 1965.5625 69.136719 "/>
</g>
</svg>
