<?xml version="1.0" encoding="UTF-8"?>
<svg xmlns="http://www.w3.org/2000/svg" xmlns:xlink="http://www.w3.org/1999/xlink" width="2001pt" height="326pt" viewBox="0 0 2001 326" version="1.1">
<g id="surface1">
<path style=" stroke:none;fill-rule:nonzero;fill:rgb(0%,0%,0%);fill-opacity:1;" d="M 1981.226562 51.527344 C 1983.707031 51.527344 1985.960938 51.328125 1985.960938 48.359375 C 1985.960938 45.964844 1983.765625 45.507812 1981.738281 45.507812 L 1977.6875 45.507812 L 1977.6875 51.527344 Z M 1977.6875 62.425781 L 1974.835938 62.425781 L 1974.835938 42.996094 L 1982.054688 42.996094 C 1986.644531 42.996094 1988.898438 44.707031 1988.898438 48.53125 C 1988.992188 49.925781 1988.503906 51.296875 1987.542969 52.316406 C 1986.585938 53.335938 1985.246094 53.90625 1983.851562 53.894531 L 1989.554688 62.457031 L 1986.246094 62.457031 L 1981.113281 54.066406 L 1977.71875 54.066406 L 1977.71875 62.457031 Z M 1981.28125 66.761719 C 1984.972656 66.765625 1988.503906 65.269531 1991.066406 62.617188 C 1993.632812 59.964844 1995.011719 56.386719 1994.886719 52.699219 C 1994.886719 45.148438 1988.769531 39.03125 1981.226562 39.03125 C 1973.679688 39.03125 1967.566406 45.148438 1967.566406 52.699219 C 1967.449219 56.402344 1968.84375 59.996094 1971.433594 62.648438 C 1974.019531 65.304688 1977.578125 66.789062 1981.28125 66.761719 M 1964.171875 52.699219 C 1964.066406 45.75 1968.167969 39.429688 1974.554688 36.699219 C 1980.941406 33.96875 1988.34375 35.371094 1993.289062 40.246094 C 1998.238281 45.121094 1999.75 52.503906 1997.117188 58.929688 C 1994.484375 65.359375 1988.226562 69.558594 1981.28125 69.558594 C 1976.761719 69.644531 1972.402344 67.902344 1969.179688 64.730469 C 1965.960938 61.558594 1964.15625 57.21875 1964.171875 52.699219 M 1187.097656 326 L 1176.773438 326 L 1184.445312 312.191406 L 1164.480469 275.785156 L 1175.347656 275.785156 L 1189.605469 304.316406 L 1202.984375 275.785156 L 1212.964844 275.785156 L 1187.039062 326 Z M 1137.839844 280.492188 C 1129.941406 280.492188 1124.75 285.542969 1124.75 294.015625 C 1124.75 302.488281 1129.597656 307.339844 1137.839844 307.339844 C 1141.441406 307.554688 1144.953125 306.1875 1147.46875 303.601562 C 1149.980469 301.019531 1151.246094 297.464844 1150.933594 293.875 C 1150.933594 285.542969 1146.167969 280.492188 1137.839844 280.492188 M 1140.4375 313.476562 C 1132.050781 313.476562 1127.289062 310.621094 1124.4375 306.683594 C 1124.4375 307.855469 1124.179688 311.078125 1124.09375 312.105469 L 1115.023438 312.105469 C 1115.023438 310.136719 1115.28125 306.027344 1115.28125 304.429688 L 1115.28125 259.863281 L 1124.691406 259.863281 L 1124.691406 281.433594 C 1128.550781 276.738281 1134.394531 274.136719 1140.464844 274.414062 C 1151.503906 274.414062 1160.800781 281.207031 1160.800781 293.816406 C 1160.863281 299.183594 1158.703125 304.339844 1154.835938 308.0625 C 1150.972656 311.785156 1145.738281 313.742188 1140.378906 313.476562 M 1932.597656 313.675781 L 1880.089844 236.640625 L 1880.089844 313.816406 L 1863.863281 313.816406 L 1863.863281 220.519531 L 1888.589844 220.519531 L 1941.125 297.695312 L 1941.125 220.660156 L 1957.355469 220.660156 L 1957.355469 313.816406 Z M 1791.363281 233.957031 L 1769.546875 278.609375 L 1813.039062 278.609375 Z M 1830.210938 313.84375 L 1819.371094 291.535156 L 1763.128906 291.535156 L 1752.148438 313.84375 L 1732.8125 313.84375 L 1781.152344 220.691406 L 1802.601562 220.691406 L 1850.6875 313.84375 Z M 1702.09375 313.84375 L 1702.09375 232.273438 L 1664.046875 313.675781 L 1644.3125 313.675781 L 1606.265625 232.273438 L 1606.265625 313.675781 L 1590.152344 313.675781 L 1590.152344 220.519531 L 1618.671875 220.519531 L 1654.890625 298.722656 L 1691.140625 220.519531 L 1719.664062 220.519531 L 1719.664062 313.675781 Z M 1527.746094 233.558594 L 1500.878906 233.558594 L 1500.878906 261.175781 L 1527.746094 261.175781 C 1542.007812 261.175781 1548.109375 257.296875 1548.109375 247.226562 C 1548.109375 237.152344 1542.035156 233.558594 1527.746094 233.558594 M 1551.390625 313.675781 C 1550.25 308.652344 1549.082031 301.691406 1548.054688 297.667969 L 1545.203125 286.253906 C 1542.351562 275.585938 1538.640625 274.273438 1524.808594 274.273438 L 1500.824219 274.273438 L 1500.824219 313.761719 L 1482.941406 313.761719 L 1482.941406 220.519531 L 1531.996094 220.519531 C 1556.355469 220.519531 1566.679688 230.304688 1566.679688 245.570312 C 1566.679688 262.203125 1548.625 266.96875 1544.347656 267.625 C 1555.582031 268.507812 1561.773438 271.617188 1564.3125 286.085938 L 1567.648438 302.0625 C 1568.277344 306.03125 1569.320312 309.921875 1570.757812 313.675781 Z M 1410.328125 233.957031 L 1388.566406 278.609375 L 1432.003906 278.609375 Z M 1449.171875 313.84375 L 1438.335938 291.535156 L 1382.09375 291.535156 L 1371.167969 313.84375 L 1351.746094 313.84375 L 1400.230469 220.691406 L 1421.652344 220.691406 L 1469.765625 313.84375 Z M 1320.574219 313.84375 L 1320.574219 272.53125 L 1265.5 272.53125 L 1265.5 313.675781 L 1247.445312 313.675781 L 1247.445312 220.519531 L 1265.5 220.519531 L 1265.5 258.980469 L 1320.574219 258.980469 L 1320.574219 220.519531 L 1338.625 220.519531 L 1338.625 313.675781 Z M 957.988281 191.558594 L 1072.242188 0 L 1079.375 0 L 964.75 191.558594 Z M 1830.292969 49.472656 L 1867.515625 49.472656 L 1867.515625 70.929688 L 1867.96875 70.929688 C 1874.1875 56.839844 1887.949219 47.582031 1903.335938 47.132812 C 1936.277344 47.132812 1958.582031 60.742188 1958.582031 96.292969 L 1958.582031 191.304688 L 1921.503906 191.304688 L 1921.503906 107.050781 C 1921.503906 94.46875 1919.847656 79.574219 1894.609375 79.574219 C 1871.992188 79.574219 1867.515625 91.871094 1867.515625 103.371094 L 1867.515625 191.304688 L 1830.292969 191.304688 L 1830.292969 49.472656 M 1708.253906 94.46875 C 1703.800781 103.039062 1701.425781 112.539062 1701.324219 122.199219 C 1701.421875 131.859375 1703.796875 141.363281 1708.253906 149.933594 C 1713.476562 159.757812 1723.695312 165.902344 1734.820312 165.902344 C 1745.949219 165.902344 1756.164062 159.757812 1761.386719 149.933594 C 1765.773438 141.34375 1768.089844 131.84375 1768.148438 122.199219 C 1768.03125 112.542969 1765.660156 103.042969 1761.21875 94.46875 C 1755.980469 84.65625 1745.769531 78.53125 1734.652344 78.53125 C 1723.535156 78.53125 1713.320312 84.65625 1708.082031 94.46875 M 1684.953125 180.0625 C 1670.691406 167.25 1663.761719 145.28125 1663.761719 122.230469 C 1663.761719 99.175781 1670.664062 77.261719 1684.953125 64.425781 C 1697.703125 53.011719 1716.070312 47.164062 1734.664062 47.164062 C 1753.261719 47.164062 1771.742188 52.867188 1784.375 64.425781 C 1798.636719 77.261719 1805.625 99.203125 1805.625 122.230469 C 1805.625 145.253906 1798.664062 167.25 1784.375 180.0625 C 1771.597656 191.472656 1753.261719 197.351562 1734.664062 197.351562 C 1716.070312 197.351562 1697.585938 191.644531 1684.953125 180.0625 M 1546.027344 94.753906 C 1541.949219 103.4375 1539.773438 112.890625 1539.640625 122.484375 C 1539.773438 132.078125 1541.949219 141.535156 1546.027344 150.21875 C 1550.617188 159.882812 1560.320312 166.074219 1571.011719 166.167969 C 1579.570312 166.167969 1589.292969 162 1595.742188 150.21875 C 1599.808594 141.53125 1601.976562 132.078125 1602.101562 122.484375 C 1601.976562 112.894531 1599.808594 103.4375 1595.742188 94.753906 C 1589.292969 82.996094 1579.511719 78.804688 1571.011719 78.804688 C 1560.320312 78.902344 1550.621094 85.09375 1546.027344 94.753906 M 1639.261719 192.074219 L 1602.1875 192.074219 L 1602.1875 177.152344 L 1601.644531 177.152344 C 1593.414062 189.316406 1579.867188 196.8125 1565.195312 197.324219 C 1539.242188 198.320312 1524.351562 188.109375 1513.171875 164.570312 C 1507.078125 152.214844 1503.378906 138.816406 1502.277344 125.082031 C 1501.679688 109.34375 1504.859375 93.691406 1511.546875 79.429688 C 1523.753906 51.957031 1547.425781 48.046875 1560.972656 47.246094 C 1585.1875 46.191406 1596.367188 56.949219 1601.644531 68.933594 L 1602.1875 68.933594 L 1602.1875 0.570312 L 1639.261719 0.570312 L 1639.261719 192.074219 M 1407.5625 49.417969 L 1444.636719 49.417969 L 1444.636719 77.035156 L 1445.238281 77.035156 C 1447.632812 68.648438 1449.488281 63.738281 1462.519531 54.808594 C 1469.890625 48.640625 1479.527344 45.882812 1489.042969 47.21875 L 1489.042969 84.539062 C 1473.101562 82.683594 1449.117188 80.601562 1444.636719 111.472656 L 1444.636719 191.359375 L 1407.5625 191.359375 L 1407.5625 49.472656 M 1338.484375 124.566406 C 1327.847656 130.875 1313.5 130.273438 1303.886719 132.1875 C 1292.480469 134.269531 1284.523438 143.597656 1287.71875 155.152344 C 1289.800781 163.570312 1296.472656 169.417969 1312.417969 166.964844 C 1334.492188 163.570312 1338.484375 148.363281 1338.484375 132.726562 Z M 1342.707031 191.304688 C 1339.835938 187.121094 1338.441406 182.101562 1338.742188 177.039062 C 1325.679688 189.050781 1314.296875 197.210938 1292.507812 197.210938 C 1263.21875 197.210938 1248.871094 180.976562 1249.984375 153.46875 C 1250.78125 133.5 1258.742188 114.238281 1291.710938 108.761719 C 1304.425781 108.164062 1317.015625 105.96875 1329.1875 102.226562 C 1335.53125 99.605469 1339.339844 93.0625 1338.484375 86.25 C 1338.484375 77.347656 1331.039062 73.410156 1314.042969 73.410156 C 1292.738281 73.410156 1290.113281 86.25 1289.542969 96.464844 L 1254.460938 96.464844 C 1255.003906 51.183594 1294.390625 47.019531 1314.042969 47.019531 C 1325.582031 46.769531 1337.078125 48.539062 1348.011719 52.242188 C 1362.269531 57.949219 1373.679688 69.359375 1373.679688 91.984375 L 1373.679688 169.5625 C 1373.875 176.082031 1376.890625 182.195312 1381.949219 186.308594 L 1381.949219 191.304688 L 1342.707031 191.304688 M 1146.398438 0.570312 L 1146.398438 104.683594 L 1146.9375 104.683594 L 1193.429688 49.472656 L 1235.980469 49.472656 L 1187.351562 103.683594 L 1239.117188 191.332031 L 1195.679688 191.332031 L 1161.96875 130.589844 L 1146.398438 147.050781 L 1146.398438 191.304688 L 1109.320312 191.304688 L 1109.320312 0.570312 Z M 800.015625 49.472656 L 837.261719 49.472656 L 837.261719 70.929688 L 837.746094 70.929688 C 844.992188 56.007812 858.765625 47.132812 873.140625 47.132812 C 906.082031 47.132812 928.386719 60.742188 928.386719 96.292969 L 928.386719 191.304688 L 891.308594 191.304688 L 891.308594 107.050781 C 891.308594 94.46875 889.683594 79.574219 864.441406 79.574219 C 841.855469 79.574219 837.375 91.871094 837.375 103.371094 L 837.375 191.304688 L 800.015625 191.304688 L 800.015625 49.472656 M 730.652344 124.566406 C 720.011719 130.875 705.667969 130.273438 696.113281 132.1875 C 684.703125 134.269531 676.691406 143.597656 679.886719 155.152344 C 682.023438 163.570312 688.640625 169.417969 704.613281 166.964844 C 726.660156 163.570312 730.652344 148.363281 730.652344 132.726562 Z M 734.902344 191.304688 C 732.023438 187.125 730.617188 182.105469 730.910156 177.039062 C 717.875 189.050781 706.464844 197.210938 684.675781 197.210938 C 655.441406 197.210938 641.125 180.976562 642.152344 153.46875 C 642.980469 133.5 650.90625 114.238281 683.878906 108.761719 C 696.617188 108.214844 709.238281 106.058594 721.441406 102.34375 C 727.832031 99.777344 731.664062 93.191406 730.738281 86.363281 C 730.738281 77.460938 723.265625 73.527344 706.324219 73.527344 C 684.988281 73.527344 682.367188 86.363281 681.824219 96.578125 L 646.628906 96.578125 C 647.199219 51.300781 686.558594 47.132812 706.238281 47.132812 C 717.777344 46.875 729.277344 48.640625 740.207031 52.355469 C 754.464844 58.0625 765.875 69.472656 765.875 92.097656 L 765.875 169.5625 C 766.046875 176.074219 769.046875 182.1875 774.089844 186.308594 L 774.089844 191.304688 L 734.902344 191.304688 M 416.753906 191.304688 L 416.753906 49.472656 L 453.972656 49.472656 L 453.972656 70.671875 L 454.457031 70.671875 C 466.179688 53.894531 476.816406 44.222656 498.636719 47.132812 C 516.917969 49.472656 522.023438 55.691406 532.605469 67.789062 C 541.644531 55.238281 552.824219 43.710938 583.058594 47.132812 C 611.835938 51.300781 619.761719 70.128906 619.761719 92.785156 L 619.761719 191.21875 L 582.6875 191.21875 L 582.6875 93.695312 C 582.144531 83.226562 572.902344 79.289062 564.089844 78.804688 C 544.125 77.460938 537.023438 94.753906 537.023438 104.480469 L 537.023438 191.332031 L 499.664062 191.332031 L 499.664062 93.695312 C 497.523438 83.738281 490.90625 79.03125 479.214844 78.804688 C 466.179688 78.519531 453.972656 86.90625 453.972656 104.480469 L 453.972656 191.332031 L 416.753906 191.332031 M 309.34375 49.472656 L 346.421875 49.472656 L 346.421875 77.035156 L 346.933594 77.035156 C 349.332031 68.648438 351.210938 63.738281 364.21875 54.808594 C 371.601562 48.640625 381.246094 45.882812 390.769531 47.21875 L 390.769531 84.539062 C 374.855469 82.683594 350.84375 80.601562 346.421875 111.472656 L 346.421875 191.359375 L 309.34375 191.359375 L 309.34375 49.472656 M 240.265625 124.566406 C 229.628906 130.875 215.285156 130.273438 205.671875 132.1875 C 194.261719 134.269531 186.304688 143.597656 189.5 155.152344 C 191.582031 163.570312 198.257812 169.417969 214.171875 166.964844 C 236.304688 163.570312 240.265625 148.363281 240.265625 132.726562 Z M 244.488281 191.304688 C 241.617188 187.121094 240.222656 182.101562 240.523438 177.039062 C 227.519531 189.050781 216.082031 197.210938 194.292969 197.210938 C 165.058594 197.210938 150.683594 180.976562 151.738281 153.46875 C 152.59375 133.5 160.523438 114.238281 193.492188 108.761719 C 206.175781 108.203125 218.738281 106.042969 230.882812 102.34375 C 237.242188 99.738281 241.054688 93.183594 240.183594 86.363281 C 240.183594 77.460938 232.738281 73.527344 215.738281 73.527344 C 194.433594 73.527344 191.8125 86.363281 191.269531 96.578125 L 156.246094 96.578125 C 156.730469 51.355469 196.117188 47.132812 215.824219 47.132812 C 227.375 46.871094 238.882812 48.640625 249.820312 52.355469 C 264.082031 58.0625 275.492188 69.472656 275.492188 92.097656 L 275.492188 169.5625 C 275.675781 176.070312 278.671875 182.179688 283.703125 186.308594 L 283.703125 191.304688 L 244.488281 191.304688 M 2.71875 0.570312 L 39.9375 0.570312 L 39.9375 68.476562 L 40.453125 68.476562 C 47.773438 55.757812 61.152344 47.738281 75.816406 47.277344 C 108.785156 47.132812 131.0625 60.742188 131.0625 96.292969 L 131.0625 191.304688 L 93.984375 191.304688 L 93.984375 107.050781 C 93.984375 94.46875 92.332031 79.574219 67.117188 79.574219 C 44.5 79.574219 40.023438 91.871094 40.023438 103.371094 L 40.023438 191.304688 L 2.71875 191.304688 L 2.71875 0.570312 M 957.988281 191.558594 L 1072.242188 0 L 1079.375 0 L 964.75 191.558594 Z M 1830.292969 49.472656 L 1867.515625 49.472656 L 1867.515625 70.929688 L 1867.96875 70.929688 C 1874.1875 56.839844 1887.949219 47.582031 1903.335938 47.132812 C 1936.277344 47.132812 1958.582031 60.742188 1958.582031 96.292969 L 1958.582031 191.304688 L 1921.503906 191.304688 L 1921.503906 107.050781 C 1921.503906 94.46875 1919.847656 79.574219 1894.609375 79.574219 C 1871.992188 79.574219 1867.515625 91.871094 1867.515625 103.371094 L 1867.515625 191.304688 L 1830.292969 191.304688 L 1830.292969 49.472656 M 1708.253906 94.46875 C 1703.800781 103.039062 1701.425781 112.539062 1701.324219 122.199219 C 1701.421875 131.859375 1703.796875 141.363281 1708.253906 149.933594 C 1713.476562 159.757812 1723.695312 165.902344 1734.820312 165.902344 C 1745.949219 165.902344 1756.164062 159.757812 1761.386719 149.933594 C 1765.773438 141.34375 1768.089844 131.84375 1768.148438 122.199219 C 1768.03125 112.542969 1765.660156 103.042969 1761.21875 94.46875 C 1755.980469 84.65625 1745.769531 78.53125 1734.652344 78.53125 C 1723.535156 78.53125 1713.320312 84.65625 1708.082031 94.46875 M 1684.953125 180.0625 C 1670.691406 167.25 1663.761719 145.28125 1663.761719 122.230469 C 1663.761719 99.175781 1670.664062 77.261719 1684.953125 64.425781 C 1697.703125 53.011719 1716.070312 47.164062 1734.664062 47.164062 C 1753.261719 47.164062 1771.742188 52.867188 1784.375 64.425781 C 1798.636719 77.261719 1805.625 99.203125 1805.625 122.230469 C 1805.625 145.253906 1798.664062 167.25 1784.375 180.0625 C 1771.597656 191.472656 1753.261719 197.351562 1734.664062 197.351562 C 1716.070312 197.351562 1697.585938 191.644531 1684.953125 180.0625 M 1546.027344 94.753906 C 1541.949219 103.4375 1539.773438 112.890625 1539.640625 122.484375 C 1539.773438 132.078125 1541.949219 141.535156 1546.027344 150.21875 C 1550.617188 159.882812 1560.320312 166.074219 1571.011719 166.167969 C 1579.570312 166.167969 1589.292969 162 1595.742188 150.21875 C 1599.808594 141.53125 1601.976562 132.078125 1602.101562 122.484375 C 1601.976562 112.894531 1599.808594 103.4375 1595.742188 94.753906 C 1589.292969 82.996094 1579.511719 78.804688 1571.011719 78.804688 C 1560.320312 78.902344 1550.621094 85.09375 1546.027344 94.753906 M 1639.261719 192.074219 L 1602.1875 192.074219 L 1602.1875 177.152344 L 1601.644531 177.152344 C 1593.414062 189.316406 1579.867188 196.8125 1565.195312 197.324219 C 1539.242188 198.320312 1524.351562 188.109375 1513.171875 164.570312 C 1507.078125 152.214844 1503.378906 138.816406 1502.277344 125.082031 C 1501.679688 109.34375 1504.859375 93.691406 1511.546875 79.429688 C 1523.753906 51.957031 1547.425781 48.046875 1560.972656 47.246094 C 1585.1875 46.191406 1596.367188 56.949219 1601.644531 68.933594 L 1602.1875 68.933594 L 1602.1875 0.570312 L 1639.261719 0.570312 L 1639.261719 192.074219 M 1407.5625 49.417969 L 1444.636719 49.417969 L 1444.636719 77.035156 L 1445.238281 77.035156 C 1447.632812 68.648438 1449.488281 63.738281 1462.519531 54.808594 C 1469.890625 48.640625 1479.527344 45.882812 1489.042969 47.21875 L 1489.042969 84.539062 C 1473.101562 82.683594 1449.117188 80.601562 1444.636719 111.472656 L 1444.636719 191.359375 L 1407.5625 191.359375 L 1407.5625 49.472656 M 1338.484375 124.566406 C 1327.847656 130.875 1313.5 130.273438 1303.886719 132.1875 C 1292.480469 134.269531 1284.523438 143.597656 1287.71875 155.152344 C 1289.800781 163.570312 1296.472656 169.417969 1312.417969 166.964844 C 1334.492188 163.570312 1338.484375 148.363281 1338.484375 132.726562 Z M 1342.707031 191.304688 C 1339.835938 187.121094 1338.441406 182.101562 1338.742188 177.039062 C 1325.679688 189.050781 1314.296875 197.210938 1292.507812 197.210938 C 1263.21875 197.210938 1248.871094 180.976562 1249.984375 153.46875 C 1250.78125 133.5 1258.742188 114.238281 1291.710938 108.761719 C 1304.425781 108.164062 1317.015625 105.96875 1329.1875 102.226562 C 1335.53125 99.605469 1339.339844 93.0625 1338.484375 86.25 C 1338.484375 77.347656 1331.039062 73.410156 1314.042969 73.410156 C 1292.738281 73.410156 1290.113281 86.25 1289.542969 96.464844 L 1254.460938 96.464844 C 1255.003906 51.183594 1294.390625 47.019531 1314.042969 47.019531 C 1325.582031 46.769531 1337.078125 48.539062 1348.011719 52.242188 C 1362.269531 57.949219 1373.679688 69.359375 1373.679688 91.984375 L 1373.679688 169.5625 C 1373.875 176.082031 1376.890625 182.195312 1381.949219 186.308594 L 1381.949219 191.304688 L 1342.707031 191.304688 M 1146.398438 0.570312 L 1146.398438 104.683594 L 1146.9375 104.683594 L 1193.429688 49.472656 L 1235.980469 49.472656 L 1187.351562 103.683594 L 1239.117188 191.332031 L 1195.679688 191.332031 L 1161.96875 130.589844 L 1146.398438 147.050781 L 1146.398438 191.304688 L 1109.320312 191.304688 L 1109.320312 0.570312 Z M 800.015625 49.472656 L 837.261719 49.472656 L 837.261719 70.929688 L 837.746094 70.929688 C 844.992188 56.007812 858.765625 47.132812 873.140625 47.132812 C 906.082031 47.132812 928.386719 60.742188 928.386719 96.292969 L 928.386719 191.304688 L 891.308594 191.304688 L 891.308594 107.050781 C 891.308594 94.46875 889.683594 79.574219 864.441406 79.574219 C 841.855469 79.574219 837.375 91.871094 837.375 103.371094 L 837.375 191.304688 L 800.015625 191.304688 L 800.015625 49.472656 M 730.652344 124.566406 C 720.011719 130.875 705.667969 130.273438 696.113281 132.1875 C 684.703125 134.269531 676.691406 143.597656 679.886719 155.152344 C 682.023438 163.570312 688.640625 169.417969 704.613281 166.964844 C 726.660156 163.570312 730.652344 148.363281 730.652344 132.726562 Z M 734.902344 191.304688 C 732.023438 187.125 730.617188 182.105469 730.910156 177.039062 C 717.875 189.050781 706.464844 197.210938 684.675781 197.210938 C 655.441406 197.210938 641.125 180.976562 642.152344 153.46875 C 642.980469 133.5 650.90625 114.238281 683.878906 108.761719 C 696.617188 108.214844 709.238281 106.058594 721.441406 102.34375 C 727.832031 99.777344 731.664062 93.191406 730.738281 86.363281 C 730.738281 77.460938 723.265625 73.527344 706.324219 73.527344 C 684.988281 73.527344 682.367188 86.363281 681.824219 96.578125 L 646.628906 96.578125 C 647.199219 51.300781 686.558594 47.132812 706.238281 47.132812 C 717.777344 46.875 729.277344 48.640625 740.207031 52.355469 C 754.464844 58.0625 765.875 69.472656 765.875 92.097656 L 765.875 169.5625 C 766.046875 176.074219 769.046875 182.1875 774.089844 186.308594 L 774.089844 191.304688 L 734.902344 191.304688 M 416.753906 191.304688 L 416.753906 49.472656 L 453.972656 49.472656 L 453.972656 70.671875 L 454.457031 70.671875 C 466.179688 53.894531 476.816406 44.222656 498.636719 47.132812 C 516.917969 49.472656 522.023438 55.691406 532.605469 67.789062 C 541.644531 55.238281 552.824219 43.710938 583.058594 47.132812 C 611.835938 51.300781 619.761719 70.128906 619.761719 92.785156 L 619.761719 191.21875 L 582.6875 191.21875 L 582.6875 93.695312 C 582.144531 83.226562 572.902344 79.289062 564.089844 78.804688 C 544.125 77.460938 537.023438 94.753906 537.023438 104.480469 L 537.023438 191.332031 L 499.664062 191.332031 L 499.664062 93.695312 C 497.523438 83.738281 490.90625 79.03125 479.214844 78.804688 C 466.179688 78.519531 453.972656 86.90625 453.972656 104.480469 L 453.972656 191.332031 L 416.753906 191.332031 M 309.34375 49.472656 L 346.421875 49.472656 L 346.421875 77.035156 L 346.933594 77.035156 C 349.332031 68.648438 351.210938 63.738281 364.21875 54.808594 C 371.601562 48.640625 381.246094 45.882812 390.769531 47.21875 L 390.769531 84.539062 C 374.855469 82.683594 350.84375 80.601562 346.421875 111.472656 L 346.421875 191.359375 L 309.34375 191.359375 L 309.34375 49.472656 M 240.265625 124.566406 C 229.628906 130.875 215.285156 130.273438 205.671875 132.1875 C 194.261719 134.269531 186.304688 143.597656 189.5 155.152344 C 191.582031 163.570312 198.257812 169.417969 214.171875 166.964844 C 236.304688 163.570312 240.265625 148.363281 240.265625 132.726562 Z M 244.488281 191.304688 C 241.617188 187.121094 240.222656 182.101562 240.523438 177.039062 C 227.519531 189.050781 216.082031 197.210938 194.292969 197.210938 C 165.058594 197.210938 150.683594 180.976562 151.738281 153.46875 C 152.59375 133.5 160.523438 114.238281 193.492188 108.761719 C 206.175781 108.203125 218.738281 106.042969 230.882812 102.34375 C 237.242188 99.738281 241.054688 93.183594 240.183594 86.363281 C 240.183594 77.460938 232.738281 73.527344 215.738281 73.527344 C 194.433594 73.527344 191.8125 86.363281 191.269531 96.578125 L 156.246094 96.578125 C 156.730469 51.355469 196.117188 47.132812 215.824219 47.132812 C 227.375 46.871094 238.882812 48.640625 249.820312 52.355469 C 264.082031 58.0625 275.492188 69.472656 275.492188 92.097656 L 275.492188 169.5625 C 275.675781 176.070312 278.671875 182.179688 283.703125 186.308594 L 283.703125 191.304688 L 244.488281 191.304688 M 2.71875 0.570312 L 39.9375 0.570312 L 39.9375 68.476562 L 40.453125 68.476562 C 47.773438 55.757812 61.152344 47.738281 75.816406 47.277344 C 108.785156 47.132812 131.0625 60.742188 131.0625 96.292969 L 131.0625 191.304688 L 93.984375 191.304688 L 93.984375 107.050781 C 93.984375 94.46875 92.332031 79.574219 67.117188 79.574219 C 44.5 79.574219 40.023438 91.871094 40.023438 103.371094 L 40.023438 191.304688 L 2.71875 191.304688 L 2.71875 0.570312 "/>
</g>
</svg>
