<?xml version="1.0" encoding="UTF-8"?>
<svg xmlns="http://www.w3.org/2000/svg" xmlns:xlink="http://www.w3.org/1999/xlink" width="2000pt" height="2076pt" viewBox="0 0 2000 2076" version="1.1">
<g id="surface1">
<path style=" stroke:none;fill-rule:nonzero;fill:rgb(100%,20%,0%);fill-opacity:1;" d="M 0.175781 0 L 1999.128906 0 L 1999.128906 1674.363281 L 0.175781 1674.363281 Z M 0.175781 0 "/>
<path style=" stroke:none;fill-rule:nonzero;fill:rgb(100%,100%,100%);fill-opacity:1;" d="M 1537.566406 962.886719 L 1537.566406 1084.945312 C 1537.566406 1117.113281 1511.480469 1143.191406 1479.304688 1143.191406 C 1447.128906 1143.191406 1421.042969 1117.113281 1421.042969 1084.945312 L 1421.042969 484.746094 L 1308 484.746094 L 1308 1185.789062 L 1650.609375 1185.789062 L 1650.609375 962.539062 L 1537.566406 962.539062 Z M 688.523438 1083.902344 C 688.523438 1116.589844 662.78125 1144.058594 630.433594 1144.058594 C 597.914062 1143.679688 571.804688 1117.109375 572 1084.597656 L 572 962.539062 L 458.957031 962.539062 L 458.957031 1063.734375 C 458.957031 1114.503906 503.476562 1196.222656 630.085938 1196.222656 C 756.695312 1196.222656 801.21875 1133.628906 801.21875 1063.734375 L 801.21875 484.746094 L 688.523438 484.746094 Z M 1112.871094 484.746094 L 886.78125 484.746094 L 886.78125 1185.789062 L 1112.871094 1185.789062 C 1197.390625 1185.789062 1225.914062 1129.804688 1225.914062 1093.984375 L 1225.914062 884.300781 C 1225.914062 854.394531 1196 815.445312 1151.476562 815.445312 C 1196 815.445312 1225.914062 753.550781 1225.914062 718.777344 L 1225.914062 599.152344 C 1225.914062 521.609375 1156.347656 484.746094 1112.871094 484.746094 Z M 1068.347656 1128.761719 L 999.824219 1128.761719 L 999.824219 846.046875 L 1068.347656 846.046875 C 1112.871094 846.046875 1112.871094 878.386719 1112.871094 988.273438 C 1112.871094 1098.160156 1112.871094 1128.761719 1068.347656 1128.761719 Z M 1061.390625 786.933594 L 999.824219 786.585938 L 999.824219 551.164062 L 1061.390625 551.164062 C 1102.78125 551.164062 1112.871094 559.859375 1112.871094 669.746094 C 1112.871094 779.628906 1102.78125 786.933594 1061.390625 786.933594 Z M 515.652344 886.386719 C 552.429688 887.050781 582.785156 857.785156 583.457031 821.019531 C 584.125 784.25 554.855469 753.898438 518.078125 753.222656 C 481.300781 752.550781 450.9375 781.808594 450.261719 818.578125 L 450.261719 819.621094 C 449.875 856.109375 479.152344 886.003906 515.652344 886.386719 Z M 620 484.746094 L 411.304688 484.746094 L 515.652344 727.121094 Z M 620 484.746094 "/>
<path style=" stroke:none;fill-rule:nonzero;fill:rgb(100%,20%,0%);fill-opacity:1;" d="M 383.824219 1793.289062 L 383.824219 1904.914062 L 256.175781 1904.914062 L 256.175781 1793.289062 L 204.695312 1793.289062 L 204.695312 2044.355469 L 256.523438 2044.355469 L 256.523438 1927.167969 L 384.175781 1927.167969 L 384.175781 2017.230469 C 383.964844 2022.0625 385.046875 2026.863281 387.304688 2031.140625 C 389.265625 2034.550781 392.160156 2037.328125 395.652344 2039.140625 C 398.824219 2041.132812 402.378906 2042.4375 406.085938 2042.964844 C 409.292969 2043.625 412.554688 2043.972656 415.824219 2044.007812 L 435.652344 2044.007812 L 435.652344 1792.941406 L 383.824219 1792.941406 Z M 383.824219 1793.289062 "/>
<path style=" stroke:none;fill-rule:nonzero;fill:rgb(100%,20%,0%);fill-opacity:1;" d="M 1393.21875 2044.355469 L 1393.21875 1793.289062 L 1342.78125 1793.289062 L 1241.566406 1978.980469 L 1138.609375 1792.941406 L 1087.476562 1792.941406 L 1087.476562 2044.007812 L 1113.914062 2044.007812 L 1113.914062 1849.273438 L 1222.433594 2044.007812 L 1236 2044.007812 L 1341.738281 1851.011719 L 1341.738281 2017.230469 C 1341.640625 2022.09375 1342.84375 2026.898438 1345.21875 2031.140625 C 1347.261719 2034.574219 1350.128906 2037.445312 1353.566406 2039.488281 C 1356.734375 2041.480469 1360.292969 2042.785156 1364 2043.3125 C 1367.324219 2043.972656 1370.699219 2044.320312 1374.085938 2044.355469 Z M 1393.21875 2044.355469 "/>
<path style=" stroke:none;fill-rule:nonzero;fill:rgb(100%,20%,0%);fill-opacity:1;" d="M 1717.042969 2044.355469 L 1588 1787.726562 L 1572.695312 1787.726562 L 1440.523438 2044.355469 L 1470.78125 2044.355469 L 1511.824219 1964.722656 L 1605.390625 1964.722656 L 1592.523438 1938.992188 L 1525.042969 1938.992188 L 1568.523438 1854.492188 L 1653.738281 2024.1875 C 1656.480469 2030.308594 1660.804688 2035.589844 1666.261719 2039.488281 C 1672.046875 2042.886719 1678.683594 2044.578125 1685.390625 2044.355469 Z M 1717.042969 2044.355469 "/>
<path style=" stroke:none;fill-rule:nonzero;fill:rgb(100%,20%,0%);fill-opacity:1;" d="M 1985.914062 1793.289062 C 1984.28125 1793.246094 1982.652344 1793.363281 1981.042969 1793.636719 C 1979.199219 1794.03125 1977.433594 1794.734375 1975.824219 1795.722656 C 1974.109375 1796.746094 1972.675781 1798.179688 1971.652344 1799.894531 C 1970.472656 1802.023438 1969.875 1804.417969 1969.914062 1806.851562 L 1969.914062 1968.546875 L 1798.085938 1793.289062 L 1765.042969 1793.289062 L 1765.042969 2044.355469 L 1795.304688 2044.355469 L 1795.304688 1855.1875 L 1969.914062 2038.097656 C 1976.871094 2045.050781 1986.957031 2044.355469 1996.347656 2044.355469 L 1999.824219 2044.355469 L 1999.824219 1793.289062 Z M 1985.914062 1793.289062 "/>
<path style=" stroke:none;fill-rule:nonzero;fill:rgb(100%,20%,0%);fill-opacity:1;" d="M 631.476562 1787.726562 L 616.523438 1787.726562 L 484 2044.355469 L 514.261719 2044.355469 L 612 1854.492188 L 654.433594 1938.992188 L 586.609375 1938.992188 L 573.390625 1964.375 L 667.652344 1964.375 L 697.566406 2024.1875 C 700.308594 2030.308594 704.628906 2035.589844 710.085938 2039.488281 C 715.914062 2042.757812 722.542969 2044.324219 729.21875 2044.007812 L 760.871094 2044.007812 Z M 631.476562 1787.726562 "/>
<path style=" stroke:none;fill-rule:nonzero;fill:rgb(100%,20%,0%);fill-opacity:1;" d="M 963.304688 2024.1875 L 887.128906 1929.601562 L 860.695312 1929.601562 L 860.695312 2044.355469 L 809.21875 2044.355469 L 809.21875 1793.289062 L 904.175781 1793.289062 C 904.175781 1793.289062 943.128906 1792.59375 968.871094 1805.808594 C 994.609375 1819.019531 1005.390625 1837.105469 1005.390625 1860.402344 C 1005.390625 1883.699219 991.824219 1910.824219 942.78125 1924.734375 L 1041.566406 2044.355469 L 1001.566406 2044.355469 C 995.421875 2044.152344 989.332031 2043.101562 983.476562 2041.226562 C 974.085938 2037.402344 963.304688 2024.1875 963.304688 2024.1875 Z M 860.695312 1815.195312 L 860.695312 1910.128906 L 884.695312 1910.128906 C 884.695312 1910.128906 908.347656 1910.476562 924 1901.433594 C 939.652344 1892.394531 950.433594 1879.875 950.433594 1861.445312 C 950.320312 1843.023438 939.035156 1826.515625 921.914062 1819.714844 C 913.566406 1816.164062 904.542969 1814.503906 895.476562 1814.847656 L 860.695312 1814.847656 Z M 860.695312 1815.195312 "/>
<path style=" stroke:none;fill-rule:nonzero;fill:rgb(100%,20%,0%);fill-opacity:1;" d="M 0.175781 1927.167969 L 7.824219 1927.167969 L 7.824219 1975.503906 C 15.476562 1967.851562 22.433594 1963.679688 33.914062 1963.679688 C 52.695312 1963.679688 65.914062 1978.285156 65.914062 1999.496094 C 65.914062 2024.1875 49.914062 2039.835938 25.566406 2039.835938 C 16.8125 2039.722656 8.171875 2037.828125 0.175781 2034.269531 Z M 8.175781 2029.054688 C 13.816406 2031.316406 19.835938 2032.496094 25.914062 2032.53125 C 43.191406 2033.117188 57.675781 2019.589844 58.261719 2002.3125 C 58.261719 2001.617188 58.261719 2000.886719 58.261719 2000.191406 C 58.261719 1982.804688 47.824219 1970.636719 33.21875 1970.636719 C 24.175781 1970.636719 16.871094 1974.808594 8.175781 1984.890625 Z M 8.175781 2029.054688 "/>
<path style=" stroke:none;fill-rule:nonzero;fill:rgb(100%,20%,0%);fill-opacity:1;" d="M 89.566406 2076 L 81.914062 2076 L 106.957031 2024.1875 L 76.695312 1965.070312 L 84.695312 1965.070312 L 110.78125 2016.535156 L 135.824219 1965.070312 L 143.824219 1965.070312 Z M 89.566406 2076 "/>
</g>
</svg>
