<?xml version="1.0" encoding="UTF-8" standalone="no"?>
<!-- Created with Inkscape (http://www.inkscape.org/) -->

<svg
   xmlns:dc="http://purl.org/dc/elements/1.1/"
   xmlns:cc="http://creativecommons.org/ns#"
   xmlns:rdf="http://www.w3.org/1999/02/22-rdf-syntax-ns#"
   xmlns:svg="http://www.w3.org/2000/svg"
   xmlns="http://www.w3.org/2000/svg"
   xmlns:sodipodi="http://sodipodi.sourceforge.net/DTD/sodipodi-0.dtd"
   xmlns:inkscape="http://www.inkscape.org/namespaces/inkscape"
   width="143.50424"
   height="18.009331"
   viewBox="0 0 37.96883 4.7649685"
   version="1.1"
   id="svg723"
   inkscape:version="0.92.0 r15299"
   sodipodi:docname="samsung sds.svg">
  <defs
     id="defs717" />
  <sodipodi:namedview
     id="base"
     pagecolor="#ffffff"
     bordercolor="#666666"
     borderopacity="1.0"
     inkscape:pageopacity="0.0"
     inkscape:pageshadow="2"
     inkscape:zoom="6.2945496"
     inkscape:cx="71.25212"
     inkscape:cy="8.5046665"
     inkscape:document-units="mm"
     inkscape:current-layer="layer1"
     showgrid="false"
     fit-margin-top="0"
     fit-margin-left="0"
     fit-margin-right="0"
     fit-margin-bottom="0"
     units="px"
     inkscape:window-width="1280"
     inkscape:window-height="744"
     inkscape:window-x="-4"
     inkscape:window-y="-4"
     inkscape:window-maximized="1" />
  <metadata
     id="metadata720">
    <rdf:RDF>
      <cc:Work
         rdf:about="">
        <dc:format>image/svg+xml</dc:format>
        <dc:type
           rdf:resource="http://purl.org/dc/dcmitype/StillImage" />
        <dc:title></dc:title>
      </cc:Work>
    </rdf:RDF>
  </metadata>
  <g
     inkscape:label="Layer 1"
     inkscape:groupmode="layer"
     id="layer1"
     transform="translate(48.334266,-57.87213)">
    <g
       id="g789"
       transform="translate(0.13229185,-0.13229022)">
      <path
         d="m -47.037401,62.637098 c -1.126772,0 -1.338086,-0.663222 -1.290814,-1.418872 h 0.911931 c 0,0.417689 0.01729,0.767291 0.518936,0.767291 0.307269,0 0.457553,-0.199672 0.457553,-0.494947 0,-0.783519 -1.833387,-0.832203 -1.833387,-2.129719 0,-0.680508 0.32632,-1.224139 1.434395,-1.224139 0.888294,0 1.327855,0.398639 1.26753,1.309158 h -0.88653 c 0,-0.325966 -0.05397,-0.657577 -0.42157,-0.657577 -0.29598,0 -0.471311,0.16263 -0.471311,0.465313 0,0.825853 1.834092,0.753181 1.834092,2.122311 0,1.128537 -0.826558,1.261181 -1.520825,1.261181"
         style="fill:#000000;fill-opacity:1;fill-rule:nonzero;stroke:none;stroke-width:0.35277778"
         id="path150"
         inkscape:connector-curvature="0" />
      <path
         d="m -43.471876,59.048289 h -0.01235 l -0.415572,1.882069 h 0.868538 z m -1.755422,3.515078 1.2065,-4.353984 h 1.199797 l 1.183569,4.353984 h -0.960613 l -0.239537,-0.964142 h -1.243894 l -0.246944,0.964142"
         style="fill:#000000;fill-opacity:1;fill-rule:nonzero;stroke:none;stroke-width:0.35277778"
         id="path154"
         inkscape:connector-curvature="0" />
      <path
         d="m -41.258187,62.563729 v -4.354336 h 1.465439 l 0.681567,2.962275 h 0.01164 l 0.724253,-2.962275 h 1.417461 v 4.354336 H -37.84471 V 59.204226 H -37.856 l -0.838553,3.359503 h -0.869597 l -0.795867,-3.359503 h -0.01199 v 3.359503"
         style="fill:#000000;fill-opacity:1;fill-rule:nonzero;stroke:none;stroke-width:0.35277778"
         id="path158"
         inkscape:connector-curvature="0" />
      <path
         d="m -35.063418,62.637098 c -1.128889,0 -1.339144,-0.663222 -1.291872,-1.418872 h 0.911578 c 0,0.417689 0.01799,0.767291 0.518936,0.767291 0.307269,0 0.458611,-0.199672 0.458611,-0.494947 0,-0.783519 -1.834797,-0.832203 -1.834797,-2.129719 0,-0.680508 0.327025,-1.224139 1.435805,-1.224139 0.886531,0 1.32715,0.398639 1.266825,1.309158 h -0.886178 c 0,-0.325966 -0.05539,-0.657577 -0.422275,-0.657577 -0.295627,0 -0.470605,0.16263 -0.470605,0.465313 0,0.825853 1.833739,0.753181 1.833739,2.122311 0,1.128537 -0.826559,1.261181 -1.519767,1.261181"
         style="fill:#000000;fill-opacity:1;fill-rule:nonzero;stroke:none;stroke-width:0.35277778"
         id="path162"
         inkscape:connector-curvature="0" />
      <path
         d="m -29.979528,58.209375 v 3.088217 c 0,0.651933 -0.3683,1.339497 -1.477081,1.339497 -1.002241,0 -1.484488,-0.518584 -1.484488,-1.339497 v -3.088217 h 0.910166 v 3.027892 c 0,0.536927 0.229306,0.748241 0.561975,0.748241 0.398286,0 0.578909,-0.265641 0.578909,-0.748241 v -3.027892"
         style="fill:#000000;fill-opacity:1;fill-rule:nonzero;stroke:none;stroke-width:0.35277778"
         id="path166"
         inkscape:connector-curvature="0" />
      <path
         d="m -29.261264,62.563729 v -4.354336 h 1.230136 l 1.15817,3.015897 h 0.01235 v -3.015897 h 0.849841 v 4.354336 h -1.20015 l -1.18745,-3.183819 h -0.01199 v 3.183819"
         style="fill:#000000;fill-opacity:1;fill-rule:nonzero;stroke:none;stroke-width:0.35277778"
         id="path170"
         inkscape:connector-curvature="0" />
      <path
         d="m -23.283109,59.548167 c 0.0056,-0.403225 -0.06103,-0.759531 -0.543983,-0.759531 -0.567267,0 -0.567267,0.766234 -0.567267,1.610784 0,1.362428 0.133703,1.604433 0.651581,1.604433 0.151341,0 0.313266,-0.03634 0.452966,-0.08431 v -0.965905 h -0.494947 v -0.668867 h 1.405819 v 2.208389 c -0.24765,0.04763 -0.869597,0.143933 -1.230841,0.143933 -1.532467,0 -1.707092,-0.633236 -1.707092,-2.286353 0,-1.096786 0.05398,-2.21368 1.544461,-2.21368 0.892175,0 1.446742,0.501297 1.393472,1.411111"
         style="fill:#000000;fill-opacity:1;fill-rule:nonzero;stroke:none;stroke-width:0.35277778"
         id="path174"
         inkscape:connector-curvature="0" />
      <path
         d="m -19.12915,62.637098 c -1.126419,0 -1.338086,-0.663222 -1.290108,-1.418872 h 0.910519 c 0,0.417689 0.01799,0.767291 0.519289,0.767291 0.307622,0 0.457906,-0.199672 0.457906,-0.494947 0,-0.783519 -1.833387,-0.832203 -1.833387,-2.129719 0,-0.680508 0.325967,-1.224139 1.435453,-1.224139 0.886531,0 1.326797,0.398639 1.26612,1.309158 h -0.886178 c 0,-0.325966 -0.05362,-0.657577 -0.422628,-0.657577 -0.295275,0 -0.470605,0.16263 -0.470605,0.465313 0,0.825853 1.83515,0.753181 1.83515,2.122311 0,1.128537 -0.826559,1.261181 -1.521531,1.261181"
         style="fill:#000000;fill-opacity:1;fill-rule:nonzero;stroke:none;stroke-width:0.35277778"
         id="path178"
         inkscape:connector-curvature="0" />
      <path
         d="m -16.058211,61.894862 h 0.439914 c 0.555272,0 0.663575,-0.416631 0.663575,-1.507772 0,-0.80257 0,-1.507772 -0.633942,-1.507772 h -0.469547 z m -0.910872,-3.685469 h 1.519414 c 1.194505,0 1.417108,0.796219 1.417108,2.153708 0,0.669925 0.103717,2.200628 -1.453092,2.200628 h -1.48343"
         style="fill:#000000;fill-opacity:1;fill-rule:nonzero;stroke:none;stroke-width:0.35277778"
         id="path182"
         inkscape:connector-curvature="0" />
      <path
         d="m -12.149786,62.637098 c -1.127478,0 -1.338439,-0.663222 -1.291872,-1.418872 h 0.910872 c 0,0.417689 0.01976,0.767291 0.518936,0.767291 0.307622,0 0.459317,-0.199672 0.459317,-0.494947 0,-0.783519 -1.834445,-0.832203 -1.834445,-2.129719 0,-0.680508 0.325967,-1.224139 1.435453,-1.224139 0.886883,0 1.327856,0.398639 1.266825,1.309158 h -0.885472 c 0,-0.325966 -0.05503,-0.657577 -0.422628,-0.657577 -0.295628,0 -0.470958,0.16263 -0.470958,0.465313 0,0.825853 1.833739,0.753181 1.833739,2.122311 0,1.128537 -0.826206,1.261181 -1.519767,1.261181"
         style="fill:#000000;fill-opacity:1;fill-rule:nonzero;stroke:none;stroke-width:0.35277778"
         id="path186"
         inkscape:connector-curvature="0" />
    </g>
  </g>
</svg>
