<?xml version="1.0" encoding="utf-8"?>
<!-- Generator: Adobe Illustrator 21.0.0, SVG Export Plug-In . SVG Version: 6.00 Build 0)  -->
<svg version="1.1" id="Samsung_Pay_1_" xmlns="http://www.w3.org/2000/svg" xmlns:xlink="http://www.w3.org/1999/xlink" x="0px"
	 y="0px" viewBox="0 0 450.8 65.3" style="enable-background:new 0 0 450.8 65.3;" xml:space="preserve">
<style type="text/css">
	.st0{fill:#034EA2;}
</style>
<title>Samsung Pay Logo</title>
<path id="Samsung_Pay" class="st0" d="M385.3,1.2V5c-3.9-3.2-8.8-5-13.9-5c-12.6,0-22.9,11-22.9,24.5s10.2,24.5,22.9,24.5
	c5.1,0,10-1.8,13.9-5v4.2h10.5V1.2H385.3z M372.6,39.8c-7.6,0-13.8-6.8-13.8-15.3S365,9.3,372.6,9.3s13.8,6.8,13.8,15.3
	S380.2,39.8,372.6,39.8z M319.7,0c-5.1,0-10.1,1.8-14,5.2v-4h-10.6v64.1h10.5V43.9c3.9,3.3,8.9,5.1,14,5.2c12.6,0,22.9-11,22.9-24.5
	S332.4,0,319.7,0z M318.5,39.8c-7.6,0-13.8-6.8-13.8-15.3s6.2-15.3,13.8-15.3s13.8,6.8,13.8,15.3S326.1,39.8,318.5,39.8z M440.5,1.2
	L427,33.2L412.6,1.2h-10.4l19.8,44l-8.5,20.1h10.3l27-64.1H440.5z M228.3,7.7l0.5,31h-0.2l-9.1-31h-14.7v39.1h9.7l-0.5-32.1h0.2
	l9.8,32.1h14.1V7.7H228.3z M42.3,7.7L35,47.2h10.7l5.4-35.9h0.2l5.3,35.9h10.6L59.9,7.7H42.3z M102,7.7l-4.9,30.2h-0.2L92.1,7.7
	H75.9l-0.9,39.5h9.9l0.2-35.5h0.2L92,47.2h10l6.6-35.5h0.2l0.2,35.5h9.9l-0.9-39.5H102z M18.4,36c0.3,1,0.3,2,0.1,3
	c-0.3,1.3-1.2,2.6-3.9,2.6c-2.5,0-4-1.4-4-3.6v-3.9H0v3c0,8.8,6.9,11.5,14.4,11.5c7.2,0,13-2.4,14-9c0.4-2.2,0.4-4.3,0-6.5
	c-1.7-8.3-16.7-10.7-17.8-15.4c-0.1-0.7-0.1-1.4,0-2.1c0.3-1.3,1.1-2.7,3.6-2.7c1.9-0.2,3.5,1.2,3.7,3c0,0.2,0,0.4,0,0.6v2.4h9.9
	v-2.8c0-8.6-7.7-10-13.3-10c-7,0-12.8,2.3-13.8,8.8c-0.4,1.8-0.4,3.6,0,5.4C2.3,28.6,16.3,30.9,18.4,36 M146.8,36
	c0.3,0.9,0.3,1.9,0.1,2.9c-0.3,1.3-1.2,2.6-3.8,2.6c-2.4,0-3.9-1.4-3.9-3.5v-3.8h-10.5v3c0,8.7,6.9,11.3,14.2,11.3
	c7.1,0,12.9-2.4,13.8-8.9c0.4-2.1,0.4-4.3,0-6.4c-1.7-8.1-16.6-10.6-17.6-15.2c-0.1-0.7-0.1-1.3,0-2c0.3-1.3,1.1-2.6,3.6-2.6
	c1.8-0.2,3.5,1.2,3.6,3c0,0.2,0,0.3,0,0.5v2.4h9.7v-2.8c0-8.5-7.6-9.9-13.2-9.9c-7,0-12.6,2.3-13.7,8.7c-0.3,1.7-0.3,3.5,0.1,5.3
	C130.9,28.6,144.8,30.9,146.8,36 M180,41.2c1.8,0.2,3.4-1.1,3.8-2.8c0.1-0.5,0.1-1,0.1-1.5V7.7h10V36c0,0.7-0.1,2.2-0.1,2.6
	c-0.7,7.4-6.5,9.8-13.8,9.8s-13.1-2.4-13.8-9.8c0-0.4-0.1-1.9-0.1-2.6V7.7h10v29.2c0,0.5,0,1,0.1,1.5
	C176.6,40.2,178.2,41.4,180,41.2 M262.4,40.8c2.9,0,3.9-1.8,4-2.8c0.1-0.5,0.1-1,0.1-1.5v-5.7h-4V25h14v10.6c0,0.7,0,1.3-0.1,2.6
	c-0.6,7.2-6.9,9.8-13.9,9.8s-13.2-2.6-13.9-9.8c-0.1-1.3-0.1-1.9-0.1-2.6V18.9c0-0.9,0.1-1.7,0.2-2.6c0.9-7.4,6.9-9.8,13.9-9.8
	c7,0,13.1,2.3,13.9,9.8c0.1,0.9,0.1,1.7,0.1,2.6v1.3h-10V18c0-0.5,0-1-0.1-1.5c-0.2-0.9-0.9-2.9-4-2.9c-1.9-0.2-3.5,1.1-3.9,2.9
	c-0.1,0.6-0.2,1.2-0.2,1.9v18.1c0,0.5,0,1,0.1,1.5C258.5,39,259.5,40.8,262.4,40.8"/>
</svg>
