<?xml version="1.0" encoding="UTF-8" standalone="no"?>
<svg
   xmlns:dc="http://purl.org/dc/elements/1.1/"
   xmlns:cc="http://creativecommons.org/ns#"
   xmlns:rdf="http://www.w3.org/1999/02/22-rdf-syntax-ns#"
   xmlns:svg="http://www.w3.org/2000/svg"
   xmlns="http://www.w3.org/2000/svg"
   xmlns:sodipodi="http://sodipodi.sourceforge.net/DTD/sodipodi-0.dtd"
   xmlns:inkscape="http://www.inkscape.org/namespaces/inkscape"
   width="200pt"
   height="28.031778pt"
   viewBox="0 0 199.99999 28.031779"
   version="1.1"
   id="svg2"
   inkscape:version="0.91 r"
   sodipodi:docname="samsung ct logo.svg">
  <metadata
     id="metadata51">
    <rdf:RDF>
      <cc:Work
         rdf:about="">
        <dc:format>image/svg+xml</dc:format>
        <dc:type
           rdf:resource="http://purl.org/dc/dcmitype/StillImage" />
        <dc:title></dc:title>
      </cc:Work>
    </rdf:RDF>
  </metadata>
  <sodipodi:namedview
     pagecolor="#ffffff"
     bordercolor="#666666"
     borderopacity="1"
     objecttolerance="10"
     gridtolerance="10"
     guidetolerance="10"
     inkscape:pageopacity="0"
     inkscape:pageshadow="2"
     inkscape:window-width="1440"
     inkscape:window-height="876"
     id="namedview49"
     showgrid="false"
     fit-margin-top="0"
     fit-margin-left="0"
     fit-margin-right="0"
     fit-margin-bottom="0"
     inkscape:zoom="3.8059685"
     inkscape:cx="104.29799"
     inkscape:cy="3.4384783"
     inkscape:window-x="1280"
     inkscape:window-y="24"
     inkscape:window-maximized="1"
     inkscape:current-layer="svg2" />
  <defs
     id="defs4">
    <clipPath
       id="clip3">
      <path
         d="m 44.277344,735.42578 64.722656,0 0,21.16016 -64.722656,0 z m 0,0"
         id="path14"
         inkscape:connector-curvature="0" />
    </clipPath>
  </defs>
  <g
     style="clip-rule:nonzero"
     id="g25"
     clip-path="url(#clip3)"
     transform="matrix(1.3247433,0,0,1.3247433,-58.656139,-974.25035)">
    <path
       inkscape:connector-curvature="0"
       id="path27"
       d="m 108,740.45703 c -0.86719,-4.97656 -15.835938,-6.53516 -33.433594,-3.47266 -7.390625,1.28907 -14.0625,3.1875 -19.257812,5.32422 0.796875,0.0195 1.390625,0.19922 1.753906,0.5586 0.277344,0.28125 0.417969,0.66797 0.417969,1.14843 l 0,0.49219 -1.722657,0 0,-0.4375 c 0,-0.35937 -0.21875,-0.58594 -0.605468,-0.58594 -0.324219,0 -0.523438,0.14454 -0.59375,0.4375 -0.01172,0.0781 -0.01563,0.21875 0.01563,0.34375 0.183593,0.75391 2.742187,1.22266 3.019531,2.61719 0.03906,0.17969 0.08594,0.5586 0.01172,1.10938 -0.164063,1.125 -1.148438,1.55859 -2.402344,1.55859 -1.753906,0 -2.46875,-0.83203 -2.46875,-1.98047 l 0,-0.53515 1.851563,0 0.0039,0.67187 c 0,0.37891 0.273437,0.58984 0.648437,0.58984 0.355469,0 0.566407,-0.14453 0.636719,-0.4375 0.03125,-0.13281 0.04687,-0.33593 -0.01563,-0.48437 -0.339844,-0.85938 -2.730469,-1.25781 -3.027344,-2.64844 -0.06641,-0.3164 -0.07031,-0.57812 -0.01563,-0.91406 0.02734,-0.18359 0.08203,-0.33984 0.152344,-0.48047 -5.765625,2.69531 -9.136719,5.66016 -8.691406,8.21875 0.871094,4.98438 15.835937,6.53906 33.433594,3.47656 7.734374,-1.34765 14.6875,-3.36328 19.980468,-5.625 -0.07813,0.008 -0.152344,0.0117 -0.230468,0.0117 -1.203126,0 -2.28125,-0.44922 -2.390626,-1.67969 -0.02344,-0.22265 -0.02344,-0.32031 -0.02734,-0.44531 l 0.0039,-2.83203 c 0,-0.12109 0.01563,-0.33594 0.02734,-0.44531 0.144531,-1.19141 1.082031,-1.67969 2.386719,-1.67969 1.007812,0 2.242187,0.28906 2.378906,1.68359 0.01953,0.17188 0.01953,0.35938 0.01953,0.41797 0,0.004 0,0.004 0,0.004 l 0,0.26562 -1.742187,0 0,-0.39843 c 0,-0.008 -0.0078,-0.15625 -0.02344,-0.25 -0.02734,-0.14063 -0.148438,-0.47266 -0.648438,-0.47266 -0.492187,0 -0.617187,0.33203 -0.648437,0.47266 -0.01563,0.0781 -0.02344,0.1914 -0.02344,0.3125 l 0,3.07422 c 0,0.10937 0,0.1914 0.01172,0.2539 0.0078,0.0469 0.09766,0.47266 0.667969,0.47266 0.570313,0 0.65625,-0.42578 0.664063,-0.47266 0.01562,-0.0859 0.01562,-0.18359 0.01562,-0.2539 l 0,-0.94922 -0.6875,0 0,-1.02735 2.425782,0 0,1.82422 c 0,0.125 0,0.21485 -0.02344,0.44531 -0.03125,0.32032 -0.132812,0.59766 -0.289062,0.82813 5.613283,-2.66406 8.878903,-5.58203 8.441403,-8.10547 z m -45.628906,8.82813 -0.882813,-5.9961 -0.03125,0 -0.902343,5.9961 -1.863282,0 1.25,-6.77344 3.039063,0 1.242187,6.77344 z m 8.949218,0 -0.03906,-5.88282 -0.03125,0 -1.09375,5.88282 -1.746094,0 -1.089844,-5.88282 -0.03125,0 -0.03906,5.88282 -1.730469,0 0.148438,-6.77344 2.785156,0 0.808594,5.03515 0.03906,0 0.8125,-5.03515 2.785157,0 0.144531,6.77344 z m 8.148438,-1.3125 c -0.1875,1.3125 -1.472656,1.54296 -2.378906,1.54296 -1.507813,0 -2.445313,-0.64453 -2.445313,-1.95703 l 0.0078,-0.53906 1.824218,0 0,0.66797 c 0,0.36328 0.257813,0.58203 0.652344,0.58203 0.351563,0 0.554688,-0.14062 0.625,-0.42578 0.03516,-0.13672 0.05078,-0.33594 -0.01172,-0.48438 -0.335938,-0.83984 -2.710938,-1.2539 -2.996094,-2.61718 -0.07031,-0.31641 -0.07031,-0.57422 -0.01563,-0.91016 0.195312,-1.23828 1.386719,-1.49219 2.34375,-1.49219 0.859375,0 1.480469,0.1836 1.855469,0.5586 0.277343,0.27734 0.417968,0.66015 0.417968,1.13672 l 0,0.49218 -1.707031,0 0,-0.43359 c 0,-0.37109 -0.230469,-0.58203 -0.597656,-0.58203 -0.328125,0 -0.527344,0.14453 -0.589844,0.42969 -0.01172,0.0586 -0.02734,0.19921 0.0078,0.33984 0.1875,0.75391 2.722656,1.21094 3,2.59375 0.03125,0.17578 0.08594,0.55078 0.0078,1.09766 z m 6.328125,-0.61329 c 0.0039,0.125 -0.0078,0.37891 -0.01563,0.44532 -0.105469,1.11328 -0.902344,1.68359 -2.367188,1.68359 -1.46875,0 -2.269531,-0.57031 -2.371093,-1.68359 -0.0039,-0.0664 -0.01953,-0.32032 -0.01563,-0.44532 l 0,-4.84765 1.746094,0 0,5 c 0,0.11328 0.0039,0.19531 0.01562,0.25 0.02344,0.11328 0.132813,0.47265 0.625,0.47265 0.492188,0 0.601563,-0.35937 0.628907,-0.47265 0.0078,-0.0547 0.01172,-0.14063 0.01172,-0.25 l 0,-5 1.742187,0 z m 7.53125,1.85547 -2.429687,0 -1.632813,-5.36328 -0.02344,0 0.08594,5.36328 -1.695313,0 0,-6.70312 2.53125,0 1.511719,5.15625 0.03516,0 -0.08594,-5.15625 1.703125,0 0,6.70312"
       style="fill:#2347a3;fill-opacity:1;fill-rule:nonzero;stroke:none" />
  </g>
  <path
     inkscape:connector-curvature="0"
     id="path29"
     d="m 105.03245,19.943628 c -2.90305,0 -3.44123,-1.70251 -3.31703,-3.64304 l 2.339,0 c 0,1.07117 0.0466,1.97159 1.33509,1.97159 0.78657,0 1.17468,-0.51231 1.17468,-1.273 0,-2.01299 -4.71422,-2.13719 -4.71422,-5.46974 0,-1.7542496 0.83831,-3.1462596 3.69479,-3.1462596 2.2769,0 3.405,1.01943 3.24975,3.3635996 l -2.2769,0 c 0,-0.83831 -0.13971,-1.69216 -1.08152,-1.69216 -0.76069,0 -1.2109,0.41916 -1.2109,1.19538 0,2.12166 4.71422,1.93537 4.71422,5.45422 0,2.89788 -2.12683,3.23941 -3.90696,3.23941"
     style="fill:#2347a3;fill-opacity:1;fill-rule:nonzero;stroke:none" />
  <path
     inkscape:connector-curvature="0"
     id="path31"
     d="m 109.7622,19.757328 3.0997,-11.1878696 3.08416,0 3.0376,11.1878696 -2.4632,0 -0.62098,-2.47871 -3.19283,0 -0.6365,2.47871 z m 4.5124,-9.03516 -0.031,0 -1.07118,4.83841 2.23551,0 -1.13328,-4.83841"
     style="fill:#2347a3;fill-opacity:1;fill-rule:nonzero;stroke:none" />
  <path
     inkscape:connector-curvature="0"
     id="path33"
     d="m 120.04448,19.757328 0,-11.1878696 3.76724,0 1.74908,7.6069296 0.031,0 1.86292,-7.6069296 3.63787,0 0,11.1878696 -2.2769,0 0,-8.63152 -0.0258,0 -2.15787,8.63152 -2.23034,0 -2.0492,-8.63152 -0.031,0 0,8.63152 -2.27691,0"
     style="fill:#2347a3;fill-opacity:1;fill-rule:nonzero;stroke:none" />
  <path
     inkscape:connector-curvature="0"
     id="path35"
     d="m 136.04491,19.943628 c -2.89788,0 -3.44124,-1.70251 -3.31704,-3.64304 l 2.34417,0 c 0,1.07117 0.0466,1.97159 1.32992,1.97159 0.79174,0 1.17985,-0.51231 1.17985,-1.273 0,-2.01299 -4.70905,-2.13719 -4.70905,-5.46974 0,-1.7542496 0.83314,-3.1462596 3.68444,-3.1462596 2.28208,0 3.41018,1.01943 3.25495,3.3635996 l -2.27691,0 c 0,-0.83831 -0.13972,-1.69216 -1.08671,-1.69216 -0.75551,0 -1.20572,0.41916 -1.20572,1.19538 0,2.12166 4.70904,1.93537 4.70904,5.45422 0,2.89788 -2.12165,3.23941 -3.90694,3.23941"
     style="fill:#2347a3;fill-opacity:1;fill-rule:nonzero;stroke:none" />
  <path
     inkscape:connector-curvature="0"
     id="path37"
     d="m 149.19402,8.5694584 0,7.9329396 c 0,1.67663 -0.94182,3.44123 -3.79311,3.44123 -2.57705,0 -3.81382,-1.32992 -3.81382,-3.44123 l 0,-7.9329396 2.33899,0 0,7.7776896 c 0,1.38167 0.58994,1.92503 1.44377,1.92503 1.01943,0 1.48516,-0.68308 1.48516,-1.92503 l 0,-7.7776896 2.33901,0"
     style="fill:#2347a3;fill-opacity:1;fill-rule:nonzero;stroke:none" />
  <path
     inkscape:connector-curvature="0"
     id="path39"
     d="m 151.12421,19.757328 0,-11.1878696 3.16179,0 2.97549,7.7466496 0.031,0 0,-7.7466496 2.18376,0 0,11.1878696 -3.08417,0 -3.05313,-8.18132 -0.031,0 0,8.18132 -2.18376,0"
     style="fill:#2347a3;fill-opacity:1;fill-rule:nonzero;stroke:none" />
  <path
     inkscape:connector-curvature="0"
     id="path41"
     d="m 166.56575,12.010698 c 0.0155,-1.04014 -0.15525,-1.95608 -1.3972,-1.95608 -1.45411,0 -1.45411,1.9716 -1.45411,4.13982 0,3.50334 0.34154,4.12431 1.67663,4.12431 0.38293,0 0.80209,-0.0931 1.15915,-0.21735 l 0,-2.47871 -1.273,0 0,-1.7232 3.61199,0 0,5.67156 c -0.63132,0.12942 -2.23032,0.37258 -3.16177,0.37258 -3.93284,0 -4.38305,-1.62488 -4.38305,-5.87338 0,-2.82025 0.13972,-5.6870696 3.96906,-5.6870696 2.29242,0 3.71549,1.28334 3.57576,3.6275196 l -2.32346,0"
     style="fill:#2347a3;fill-opacity:1;fill-rule:nonzero;stroke:none" />
  <path
     inkscape:connector-curvature="0"
     id="path43"
     d="m 174.26064,14.163398 c 0,-2.95998 0,-5.7802196 3.86038,-5.7802196 2.38558,0 3.34809,1.31438 3.25495,3.7154796 l -2.29243,0 c 0,-1.48516 -0.2691,-2.04404 -0.96252,-2.04404 -1.31956,0 -1.49034,1.24195 -1.49034,4.10878 0,2.86683 0.17078,4.10878 1.49034,4.10878 1.08153,0 1.04013,-1.3972 1.07119,-2.28209 l 2.30795,0 c 0,2.99103 -1.19538,3.95354 -3.37914,3.95354 -3.86038,0 -3.86038,-2.85131 -3.86038,-5.78023"
     style="fill:#2347a3;fill-opacity:1;fill-rule:nonzero;stroke:none" />
  <path
     inkscape:connector-curvature="0"
     id="path45"
     d="m 190.01784,18.872438 c -0.88489,0.86937 -1.92501,1.07119 -3.11522,1.07119 -2.57703,0 -4.0001,-1.21089 -4.0001,-3.39465 0,-1.49034 1.04014,-2.43215 2.19929,-3.19285 -0.58994,-0.76069 -1.23678,-1.6404 -1.23678,-2.80473 0,-1.2419496 1.46964,-2.1682196 3.37913,-2.1682196 1.066,0 2.83578,0.4916 2.83578,2.1837396 0,1.4593 -1.00908,2.19929 -1.9095,3.00655 l 1.75425,2.29243 c 0.20182,-0.72964 0.24839,-1.14363 0.24839,-2.23033 l 1.8888,0 c 0,1.16433 0,2.61844 -0.7607,3.82933 l 1.69216,2.29243 -2.29243,0 z m -3.64305,-4.13464 c -0.55887,0.43469 -1.1281,1.06601 -1.1281,1.81118 0,1.07117 0.63132,1.7232 1.70251,1.7232 0.66754,0 1.29887,-0.21734 1.7025,-0.74517 z m 1.56279,-4.0001 c 0,-0.58992 -0.35706,-0.9625096 -0.95734,-0.9625096 -0.49678,0 -0.97803,0.3570596 -0.97803,0.8848896 0,0.63649 0.41916,1.14363 0.8228,1.60935 0.54334,-0.34153 1.11257,-0.83314 1.11257,-1.53173"
     style="fill:#2347a3;fill-opacity:1;fill-rule:nonzero;stroke:none" />
  <path
     inkscape:connector-curvature="0"
     id="path47"
     d="m 199.99999,8.5694584 0,1.8577396 -2.60291,0 0,9.33013 -2.33901,0 0,-9.33013 -2.60808,0 0,-1.8577396 7.55,0"
     style="fill:#2347a3;fill-opacity:1;fill-rule:nonzero;stroke:none" />
</svg>
