<?xml version="1.0" encoding="UTF-8" standalone="no"?>
<!-- Created with Inkscape (http://www.inkscape.org/) -->

<svg
   xmlns:dc="http://purl.org/dc/elements/1.1/"
   xmlns:cc="http://creativecommons.org/ns#"
   xmlns:rdf="http://www.w3.org/1999/02/22-rdf-syntax-ns#"
   xmlns:svg="http://www.w3.org/2000/svg"
   xmlns="http://www.w3.org/2000/svg"
   xmlns:sodipodi="http://sodipodi.sourceforge.net/DTD/sodipodi-0.dtd"
   xmlns:inkscape="http://www.inkscape.org/namespaces/inkscape"
   width="211.35374"
   height="30.56868"
   viewBox="0 0 55.920676 8.0879633"
   version="1.1"
   id="svg2723"
   inkscape:version="0.92.0 r15299"
   sodipodi:docname="samsung life.svg">
  <defs
     id="defs2717">
    <clipPath
       id="clipPath1382"
       clipPathUnits="userSpaceOnUse">
      <path
         inkscape:connector-curvature="0"
         id="path1380"
         d="M 0,0 H 963.78 V 841.89 H 0 Z" />
    </clipPath>
  </defs>
  <sodipodi:namedview
     id="base"
     pagecolor="#ffffff"
     bordercolor="#666666"
     borderopacity="1.0"
     inkscape:pageopacity="0.0"
     inkscape:pageshadow="2"
     inkscape:zoom="4.2642453"
     inkscape:cx="105.17688"
     inkscape:cy="14.784338"
     inkscape:document-units="mm"
     inkscape:current-layer="layer1"
     showgrid="false"
     fit-margin-top="0"
     fit-margin-left="0"
     fit-margin-right="0"
     fit-margin-bottom="0"
     units="px"
     inkscape:window-width="1280"
     inkscape:window-height="744"
     inkscape:window-x="-4"
     inkscape:window-y="-4"
     inkscape:window-maximized="1" />
  <metadata
     id="metadata2720">
    <rdf:RDF>
      <cc:Work
         rdf:about="">
        <dc:format>image/svg+xml</dc:format>
        <dc:type
           rdf:resource="http://purl.org/dc/dcmitype/StillImage" />
        <dc:title></dc:title>
      </cc:Work>
    </rdf:RDF>
  </metadata>
  <g
     inkscape:label="Layer 1"
     inkscape:groupmode="layer"
     id="layer1"
     transform="translate(-64.39829,-211.18065)">
    <path
       inkscape:connector-curvature="0"
       id="path1386"
       style="fill:#003f98;fill-opacity:1;fill-rule:nonzero;stroke:none;stroke-width:0.35277778"
       d="M 78.701942,215.9891 H 78.08952 v 2.07469 c 0,0.55245 0.324908,0.89852 0.998361,0.89852 0.745772,0 0.991305,-0.46073 0.991305,-0.89852 v -2.07469 h -0.612069 v 2.03623 c 0,0.32526 -0.122061,0.50024 -0.384175,0.50024 -0.226836,0 -0.381,-0.14076 -0.381,-0.50024 z m -2.90583,2.02247 c -0.03175,0.50589 0.109361,0.95109 0.866774,0.95109 0.468842,0 1.024467,-0.0868 1.024467,-0.84525 0,-0.9204 -1.233664,-0.87136 -1.233664,-1.42699 0,-0.20285 0.118181,-0.31291 0.316442,-0.31291 0.245533,0 0.280811,0.22436 0.280811,0.44273 h 0.598311 c 0.03986,-0.61171 -0.256117,-0.87947 -0.851958,-0.87947 -0.747183,0 -0.964495,0.36407 -0.964495,0.82374 0,0.87065 1.2319,0.90452 1.2319,1.43121 0,0.19685 -0.1016,0.3302 -0.309033,0.3302 -0.336197,0 -0.346075,-0.23248 -0.346075,-0.51435 z m -3.104798,-2.02247 h -0.611011 v 2.92453 h 0.611011 z m -3.768019,7.1e-4 h -1.522236 v 2.92417 h 0.616655 v -1.27459 h 0.864659 v -0.45014 h -0.864659 v -0.75071 h 0.905581 z m -2.001308,-7.1e-4 h -0.61207 v 2.92453 h 0.61207 z m -1.775531,7.1e-4 h -0.612422 v 2.92417 h 1.527175 v -0.48507 h -0.914753 z m 0.04551,-3.74792 c 0,-0.20073 0.119238,-0.3115 0.314677,-0.3115 0.24765,0 0.284692,0.22296 0.284692,0.44133 h 0.595136 c 0.04092,-0.61137 -0.254,-0.87842 -0.8509,-0.87842 -0.744714,0 -0.9652,0.36442 -0.9652,0.82162 0,0.87348 1.232958,0.90558 1.232958,1.43157 0,0.19826 -0.09913,0.33302 -0.306916,0.33302 -0.336197,0 -0.349956,-0.23389 -0.349956,-0.5154 h -0.611716 c -0.0321,0.50447 0.109008,0.95108 0.866069,0.95108 0.469547,0 1.023055,-0.0871 1.023055,-0.84525 0,-0.92146 -1.231899,-0.87277 -1.231899,-1.42805 m 2.900891,1.12642 H 67.50901 l 0.280458,-1.26365 h 0.0078 z m 0.2921,1.10102 h 0.642761 l -0.793044,-2.9277 h -0.806803 l -0.808919,2.9277 h 0.603602 l 0.1651,-0.65193 h 0.835025 z m 2.406297,1.52048 H 69.19564 v 2.92417 h 1.629481 v -0.44838 h -1.01847 v -0.85478 h 0.908755 v -0.44979 h -0.908755 v -0.72249 h 0.984602 z m 0.788106,-1.52118 h 0.594078 v -2.92629 h -0.953207 l -0.486128,1.99037 h -0.0071 l -0.458611,-1.99037 h -0.983545 v 2.92629 h 0.594431 v -2.25813 h 0.0085 l 0.533753,2.25813 h 0.584906 l 0.56515,-2.25813 h 0.0078 z m 1.655939,-2.22674 c 0,-0.20073 0.117475,-0.3115 0.315736,-0.3115 0.246944,0 0.284691,0.22296 0.284691,0.44133 h 0.594431 c 0.04198,-0.61137 -0.255411,-0.87842 -0.850547,-0.87842 -0.745772,0 -0.964847,0.36442 -0.964847,0.82162 0,0.87348 1.232958,0.90558 1.232958,1.43157 0,0.19826 -0.100542,0.33302 -0.308328,0.33302 -0.33655,0 -0.348544,-0.23389 -0.348544,-0.5154 h -0.611718 c -0.03246,0.50447 0.108656,0.95108 0.866422,0.95108 0.467431,0 1.022703,-0.0871 1.022703,-0.84525 0,-0.92146 -1.232958,-0.87277 -1.232958,-1.42805 m 1.568802,3.74792 v 2.02529 h -0.0085 l -0.777875,-2.02529 h -0.825853 v 2.92417 h 0.570442 v -2.13748 h 0.0081 l 0.799041,2.13748 h 0.805039 v -2.92417 z m 2.056695,-2.37385 v -2.07433 h -0.610306 v 2.03341 c 0,0.32667 -0.122766,0.50377 -0.389114,0.50377 -0.224366,0 -0.377119,-0.14358 -0.377119,-0.50377 v -2.03341 h -0.612422 v 2.07433 c 0,0.55104 0.325966,0.89888 0.997655,0.89888 0.745772,0 0.991306,-0.46108 0.991306,-0.89888 m 1.859844,0.85267 h 0.806803 v -2.92629 h -0.569031 v 2.02494 h -0.0092 l -0.777875,-2.02494 h -0.824441 v 2.92629 h 0.570441 v -2.14101 h 0.006 z m 2.419703,0.0473 c 0.243417,0 0.66428,-0.067 0.830439,-0.0981 v -1.48202 h -0.945797 v 0.44979 h 0.331611 v 0.6477 c -0.09384,0.0325 -0.202495,0.0564 -0.302684,0.0564 -0.350661,0 -0.438502,-0.16227 -0.438502,-1.07808 0,-0.56692 0,-1.08233 0.381,-1.08233 0.324202,0 0.367594,0.23919 0.363713,0.51224 h 0.610659 c 0.03528,-0.61348 -0.338314,-0.94756 -0.939095,-0.94756 -1.00083,0 -1.037872,0.74718 -1.037872,1.48695 0,1.10878 0.119592,1.53494 1.146528,1.53494 m 0.601133,2.30893 c 0,0.18591 -0.06879,0.42898 -0.312208,0.42898 h -0.271639 v -0.81457 h 0.271639 c 0.192969,0 0.312208,0.10619 0.312208,0.38559 m 0.07726,0.65652 v -0.009 c 0.395111,-0.0639 0.541161,-0.34466 0.541161,-0.71579 0,-0.49812 -0.267406,-0.76764 -0.682978,-0.76764 H 80.54556 v 2.92559 h 0.612069 v -1.21144 h 0.157692 c 0.470252,0 0.436739,0.29845 0.436739,0.64629 0,0.18908 -0.01446,0.38911 0.06668,0.56515 h 0.597605 c -0.05644,-0.12065 -0.06738,-0.67099 -0.06738,-0.85761 0,-0.52811 -0.397581,-0.5595 -0.530225,-0.57573 m 2.226733,0.33584 h -0.584912 l 0.281517,-1.26365 h 0.006 z m 0.291042,1.09679 h 0.643113 l -0.793044,-2.92523 H 83.37837 l -0.809625,2.92523 h 0.603603 l 0.166158,-0.6477 h 0.83432 z m 2.293408,0 h 0.805039 v -2.92395 h -0.570801 v 2.02529 h -0.0092 l -0.77858,-2.02529 h -0.82512 v 2.92417 h 0.571148 v -2.13748 h 0.0081 z m 1.892653,-1.46191 c 0,-0.74965 0.04339,-1.07386 0.388408,-1.07386 0.180269,0 0.251178,0.14711 0.251178,0.53693 h 0.597958 c 0.02505,-0.63006 -0.226483,-0.97402 -0.849136,-0.97402 -1.010356,0 -1.010356,0.73837 -1.010356,1.51095 0,0.76729 0,1.5113 1.010356,1.5113 0.570089,0 0.883003,-0.25083 0.883003,-1.03258 h -0.603956 c -0.0078,0.22966 0.0039,0.59584 -0.279047,0.59584 -0.345017,0 -0.388408,-0.32385 -0.388408,-1.07456 m 1.639005,1.46191 h 1.630539 v -0.44838 h -1.017058 v -0.85478 h 0.906991 v -0.44979 h -0.906991 v -0.72249 H 91.7579 v -0.44873 h -1.596319 z m 24.591439,-2.50366 h -0.89712 l -0.6036,-1.98156 h -0.01 l 0.0325,1.98156 h -0.62653 v -2.4765 h 0.93592 l 0.5588,1.90429 h 0.012 l -0.0321,-1.90429 h 0.62971 z m -2.7813,-0.6858 c 10e-4,0.0462 -0.004,0.1404 -0.006,0.16439 -0.0388,0.41169 -0.33373,0.6216 -0.87524,0.6216 -0.54222,0 -0.83785,-0.20991 -0.87595,-0.6216 -10e-4,-0.024 -0.006,-0.11818 -0.005,-0.16439 v -1.79141 h 0.64523 v 1.8482 c 0,0.0409 0.001,0.072 0.006,0.0921 0.008,0.042 0.049,0.17498 0.22966,0.17498 0.18203,0 0.22401,-0.133 0.23318,-0.17498 0.003,-0.0201 0.005,-0.0526 0.005,-0.0921 v -1.8482 h 0.64382 z m -2.33821,0.22648 c -0.0691,0.48507 -0.54399,0.56974 -0.87877,0.56974 -0.55704,0 -0.90241,-0.23778 -0.90241,-0.72249 l 0.001,-0.19862 h 0.67451 v 0.2466 c 0,0.1337 0.0956,0.21484 0.24095,0.21484 0.12982,0 0.20567,-0.0515 0.23177,-0.1584 0.0123,-0.0494 0.0187,-0.12277 -0.004,-0.17815 -0.12488,-0.31045 -1.00154,-0.46249 -1.10737,-0.96697 -0.0247,-0.11606 -0.0254,-0.21202 -0.006,-0.33549 0.0734,-0.45685 0.51329,-0.5521 0.86571,-0.5521 0.31715,0 0.54681,0.0692 0.6851,0.20673 0.1023,0.10301 0.15451,0.24448 0.15451,0.41981 v 0.18133 h -0.63076 v -0.15946 c 0,-0.13617 -0.0854,-0.21519 -0.22049,-0.21519 -0.12136,0 -0.19438,0.0536 -0.21766,0.1598 -0.005,0.0215 -0.0102,0.073 0.003,0.12453 0.0684,0.27764 1.00577,0.44733 1.10807,0.95709 0.0127,0.066 0.0307,0.20532 0.003,0.4064 m -2.37314,0.48507 h -0.63571 l -0.0159,-2.17276 h -0.0102 l -0.40464,2.17276 h -0.64558 l -0.40181,-2.17276 h -0.0113 l -0.0152,2.17276 h -0.63853 l 0.055,-2.50225 h 1.028 l 0.29915,1.85949 h 0.0152 l 0.29986,-1.85949 h 1.02764 z m -3.2579,0 h -0.68333 l -0.32562,-2.21544 h -0.012 l -0.33408,2.21544 h -0.68862 l 0.46249,-2.50225 h 1.12254 z m 16.16957,-3.26037 c -0.32103,-1.83903 -5.84976,-2.41406 -12.34934,-1.2827 -2.72909,0.47519 -5.19324,1.17651 -7.11271,1.96532 0.29422,0.007 0.51329,0.0744 0.64735,0.20708 0.10266,0.10443 0.15522,0.24695 0.15522,0.42439 v 0.18239 h -0.63712 v -0.16228 c 0,-0.1337 -0.0808,-0.2159 -0.2233,-0.2159 -0.11995,0 -0.19297,0.0529 -0.21802,0.16052 -0.006,0.0293 -0.007,0.0804 0.004,0.12664 0.0684,0.27905 1.01459,0.45227 1.11724,0.96732 0.0141,0.0656 0.031,0.20673 0.004,0.40958 -0.0603,0.41557 -0.42404,0.57573 -0.88795,0.57573 -0.6477,0 -0.911224,-0.30727 -0.911224,-0.73096 V 215.604 h 0.683334 l 0.001,0.24906 c 0,0.1397 0.10195,0.21731 0.24059,0.21731 0.12982,0 0.20814,-0.0533 0.23495,-0.16157 0.0113,-0.049 0.0173,-0.12347 -0.006,-0.17921 -0.12559,-0.3168 -1.009302,-0.46461 -1.118311,-0.97755 -0.02505,-0.11642 -0.02681,-0.21413 -0.0063,-0.33831 0.01023,-0.067 0.03069,-0.12453 0.05609,-0.1771 -2.129014,0.99554 -3.37432,2.09056 -3.209572,3.03671 0.322086,1.84009 5.849753,2.41406 12.347923,1.28341 2.85715,-0.49883 5.42572,-1.24284 7.38011,-2.07751 l -0.085,0.005 c -0.4445,0 -0.84279,-0.16687 -0.883,-0.62089 -0.008,-0.0825 -0.008,-0.11818 -0.01,-0.16475 l 10e-4,-1.04634 c 0,-0.0437 0.005,-0.12312 0.01,-0.16369 0.054,-0.44026 0.40005,-0.62089 0.88159,-0.62089 0.37218,0 0.82903,0.10619 0.87983,0.62125 0.007,0.0642 0.007,0.13335 0.007,0.15522 v 0.001 0.0984 h -0.64487 v -0.1464 -0.001 c 0,-0.003 -10e-4,-0.0575 -0.007,-0.0921 -0.0116,-0.0526 -0.055,-0.17462 -0.24024,-0.17462 -0.18098,0 -0.2279,0.12206 -0.23919,0.17462 -0.005,0.0289 -0.009,0.0709 -0.009,0.11607 v 1.13559 c 0,0.0395 0.001,0.0709 0.005,0.0938 0.002,0.0169 0.0353,0.17462 0.24589,0.17462 0.21025,0 0.24271,-0.15769 0.24483,-0.17462 0.006,-0.0321 0.007,-0.0677 0.006,-0.0938 v -0.35066 h -0.25364 v -0.37994 h 0.89535 v 0.6738 c 0,0.0462 0,0.0801 -0.007,0.16475 -0.0127,0.11853 -0.0501,0.22013 -0.1083,0.30621 2.07363,-0.9846 3.28013,-2.06234 3.11891,-2.99367" />
  </g>
</svg>
