<?xml version="1.0" encoding="UTF-8" standalone="no"?>
<!-- Created with Inkscape (http://www.inkscape.org/) -->
<svg xmlns:dc="http://purl.org/dc/elements/1.1/" xmlns:cc="http://creativecommons.org/ns#" xmlns:rdf="http://www.w3.org/1999/02/22-rdf-syntax-ns#" xmlns:svg="http://www.w3.org/2000/svg" xmlns="http://www.w3.org/2000/svg" xmlns:sodipodi="http://sodipodi.sourceforge.net/DTD/sodipodi-0.dtd" xmlns:inkscape="http://www.inkscape.org/namespaces/inkscape" version="1.1" width="590" height="250" id="svg2" inkscape:version="0.48.5 r10040" sodipodi:docname="GalaxyS6 Logo.svg">
  <sodipodi:namedview pagecolor="#ffffff" bordercolor="#666666" borderopacity="1" objecttolerance="10" gridtolerance="10" guidetolerance="10" inkscape:pageopacity="0" inkscape:pageshadow="2" inkscape:window-width="1920" inkscape:window-height="1051" id="namedview23" showgrid="false" showguides="true" inkscape:guide-bbox="true" inkscape:snap-to-guides="true" inkscape:snap-grids="false" inkscape:zoom="2.4763819" inkscape:cx="454.07272" inkscape:cy="100.67015" inkscape:window-x="0" inkscape:window-y="0" inkscape:window-maximized="1" inkscape:current-layer="svg2">
    <sodipodi:guide orientation="0,1" position="83.791599,157.08401" id="guide3000"/>
    <sodipodi:guide orientation="0,1" position="44.62155,33.920455" id="guide3002"/>
  </sodipodi:namedview>
  <metadata id="metadata8">
    <rdf:RDF>
      <cc:Work rdf:about="">
        <dc:format>image/svg+xml</dc:format>
        <dc:type rdf:resource="http://purl.org/dc/dcmitype/StillImage"/>
        <dc:title/>
        <cc:license rdf:resource="http://creativecommons.org/licenses/by-sa/3.0/"/>
      </cc:Work>
      <cc:License rdf:about="http://creativecommons.org/licenses/by-sa/3.0/">
        <cc:permits rdf:resource="http://creativecommons.org/ns#Reproduction"/>
        <cc:permits rdf:resource="http://creativecommons.org/ns#Distribution"/>
        <cc:requires rdf:resource="http://creativecommons.org/ns#Notice"/>
        <cc:requires rdf:resource="http://creativecommons.org/ns#Attribution"/>
        <cc:permits rdf:resource="http://creativecommons.org/ns#DerivativeWorks"/>
        <cc:requires rdf:resource="http://creativecommons.org/ns#ShareAlike"/>
      </cc:License>
    </rdf:RDF>
  </metadata>
  <defs id="defs6"/>
  <path d="m 118.57689,123.56193 -18.979296,12.11445 c -23.320313,-37.790351 -73.551118,-19.54 -74.257794,20.00021 -0.706676,39.54021 60.427132,58.17163 73.652071,13.71833 l -37.756696,0 0,-22.00791 62.389405,0 C 128.69253,242.63984 7.232469,230.45563 3.3886783,161.33297 -0.45511234,92.210313 82.72637,68.38722 118.57689,123.56193 z" id="path2997" style="fill:#000000;fill-opacity:1;stroke:none" inkscape:connector-curvature="0"/>
  <path d="m 180.93221,116.34541 c -22.37943,0.17998 -46.0733,15.76709 -47.625,46.375 -2.36448,46.64062 50.88433,70.55289 78.34375,39.59375 l 0,11.875 22.40625,0 0,-96.09375 -22.40625,0 0,10.71875 C 204.01633,120.4 192.65477,116.25114 180.93221,116.34541 z m 3.0625,20.53125 c 36.38998,0 39.78529,59.15625 0,59.15625 -39.7853,0 -36.38998,-59.15625 0,-59.15625 z" id="path3792" style="fill:#000000;fill-opacity:1;stroke:none" inkscape:connector-curvature="0"/>
  <path d="m 248.80721,92.670083 0,121.509747 23.01745,0 0,-121.354612 z" id="path3796" style="fill:#000000;fill-opacity:1;stroke:none" inkscape:connector-curvature="0"/>
  <path d="m 330.49471,116.34541 c -22.37943,0.17998 -46.0733,15.76709 -47.625,46.375 -2.36448,46.64062 50.88433,70.55289 78.34375,39.59375 l 0,11.875 22.40625,0 0,-96.09375 -22.40625,0 0,10.71875 C 353.57883,120.4 342.21727,116.25114 330.49471,116.34541 z m 3.0625,20.53125 c 36.38998,0 39.78529,59.15625 0,59.15625 -39.7853,0 -36.38998,-59.15625 0,-59.15625 z" id="path3792-7" style="fill:#000000;fill-opacity:1;stroke:none" inkscape:connector-curvature="0"/>
  <path d="m 390.34435,118.11043 34.92998,47.85206 -36.14143,48.21734 27.66132,0 22.20983,-31.25711 23.42126,31.25711 27.45942,0 -36.54526,-48.01542 34.52618,-48.05398 -26.44988,0 -22.00791,30.08421 -21.80601,-30.08421 z" id="path3819" style="fill:#000000;fill-opacity:1;stroke:none" inkscape:connector-curvature="0"/>
  <path d="m 489.279,118.11043 39.97768,91.66599 -16.3545,39.37195 22.61364,0 53.50547,-131.03794 -23.62317,0 -25.23843,64.61038 -26.65179,-64.61038 z" id="path3821" style="fill:#000000;fill-opacity:1;stroke:none" inkscape:connector-curvature="0"/>
  <path d="m 22.472124,37.57317 14.419784,0 C 34.15548,50.874588 47.278436,50.409753 47.135666,42.944897 46.922641,31.806705 22.815665,32.972537 22.815665,16.186649 c 0,-14.929876 15.348516,-14.5142198 18.028433,-14.5142198 2.679917,0 20.503145,-1.77867858 18.177182,17.1978528 l -13.277624,0 C 48.107819,8.4371031 36.666978,8.3228089 36.178058,14.551485 35.478751,23.460414 60.664914,24.779711 60.379373,40.98988 60.093833,57.20005 45.785412,56.962515 42.025907,56.962515 c -3.759505,0 -20.67215,0.717449 -19.553783,-19.389345 z" id="path3869" style="fill:#000000;fill-opacity:1;stroke:none" inkscape:connector-curvature="0"/>
  <path d="m 191.14376,37.568772 14.41978,0 c -2.73643,13.301418 10.38653,12.836583 10.24376,5.371727 -0.21303,-11.138192 -24.32,-9.97236 -24.32,-26.758248 0,-14.9298762 15.34851,-14.51422 18.02843,-14.51422 2.67992,0 20.50314,-1.77867863 18.17718,17.197853 l -13.27762,0 c 2.36416,-10.4331788 -9.07668,-10.5474728 -9.5656,-4.318797 -0.69931,8.908929 24.48686,10.228226 24.20131,26.438395 -0.28554,16.21017 -14.59396,15.972635 -18.35346,15.972635 -3.75951,0 -20.67215,0.717449 -19.55378,-19.389345 z" id="path3869-4" style="fill:#000000;fill-opacity:1;stroke:none" inkscape:connector-curvature="0"/>
  <path d="m 77.866938,3.0231677 -9.280059,52.4959403 14.062554,0 7.317427,-47.1078053 6.870737,47.1078053 13.830323,0 -9.38668,-52.4959403 z" id="path3889" style="fill:#000000;fill-opacity:1;stroke:none" inkscape:connector-curvature="0"/>
  <path d="m 122.18221,3.0231677 -1.125,52.4959403 13.25,0 0.375,-46.1112007 8.75,46.1112007 13,0 8.625,-46.6112007 0.875,46.6112007 13.125,0 -1.625,-52.4959403 -20.75,0 -6.625,41.5097403 -6.625,-41.5097403 z" id="path3891" style="fill:#000000;fill-opacity:1;stroke:none" inkscape:connector-curvature="0"/>
  <path d="m 239.93221,3.0231677 0,38.8847403 c 0,8.639749 7.4742,15.02455 19.25,15.02455 11.7758,0 18.375,-6.23769 18.375,-15.02455 l 0,-38.8847403 -14,0 0,38.8847403 c 0,4.216793 -2.00744,5.875 -4.5,5.875 -2.49256,0 -4.75,-1.569972 -4.75,-5.875 l 0,-38.8847403 z" id="path3903" style="fill:#000000;fill-opacity:1;stroke:none" inkscape:connector-curvature="0"/>
  <path d="m 291.43221,3.0231677 0,52.4959403 12.625,0 -0.5,-43.2362 13.75,43.2362 18.25,0 0,-52.4959403 -13,0 0.5,41.3847403 -12.25,-41.3847403 z" id="path3905" style="fill:#000000;fill-opacity:1;stroke:none" inkscape:connector-curvature="0"/>
  <path d="m 385.55721,41.907908 0,-16.25 -18.875,0 0,7.625 5.625,0 0,8.625 c 0,3.107757 -1.79707,4.875 -5.125,4.875 -3.32793,0 -4.875,-1.576903 -4.875,-4.875 l 0,-24.75 c 0,-3.477559 1.10595,-6.125 5,-6.125 3.89405,0 5,2.416149 5,8.5 4.5,0 9,0 13.5,0 0.16667,-16.5097403 -10.43132,-17.9230903 -18.625,-17.9230903 -8.19368,0 -18.5,3.2430254 -18.5,15.5480903 l 0,24.75 c 0,8.337978 6.23562,13.6112 18.75,13.6112 12.51438,0 18.125,-3.930622 18.125,-13.6112 z" id="path3909" style="fill:#000000;fill-opacity:1;stroke:none" inkscape:connector-curvature="0"/>
</svg>