<?xml version="1.0" encoding="UTF-8" standalone="no"?>
<svg
   xmlns:dc="http://purl.org/dc/elements/1.1/"
   xmlns:cc="http://creativecommons.org/ns#"
   xmlns:rdf="http://www.w3.org/1999/02/22-rdf-syntax-ns#"
   xmlns:svg="http://www.w3.org/2000/svg"
   xmlns="http://www.w3.org/2000/svg"
   height="221.351"
   width="300"
   id="svg26"
   version="1.1"
   viewBox="0 0 300 221.35099">
  <metadata
     id="metadata32">
    <rdf:RDF>
      <cc:Work
         rdf:about="">
        <dc:format>image/svg+xml</dc:format>
        <dc:type
           rdf:resource="http://purl.org/dc/dcmitype/StillImage" />
        <dc:title></dc:title>
      </cc:Work>
    </rdf:RDF>
  </metadata>
  <defs
     id="defs30" />
  <g
     transform="matrix(0.36656528,0,0,0.36656528,-0.00619358,-1.1109422)"
     id="g46">
    <path
       d="m 647.5,524.8 c -0.5,-0.8 -3.2,-6 -3.5,-6.7 -0.3,-0.7 -3.9,-5.7 -4.5,-6.4 -0.6,-0.8 -3.7,-6.8 -4.3,-7.7 -0.7,-0.8 -8.2,-12.3 -8.7,-13 -0.2,-0.4 -1.5,-2.6 -2.8,-4.9 0,1.1 -0.1,1.9 -0.1,2.3 -0.1,1.4 0.7,14 0.6,15.3 -0.1,1.3 -0.7,17.4 -0.7,18.4 0,1 0.1,8.3 -0.1,8.5 -0.3,0.3 -1.8,0.3 -2.3,0.4 -0.5,0.1 -6.8,-0.5 -7.4,-0.5 -0.6,0 -8.9,0.6 -9.5,0.6 -0.6,0 -8.2,-0.3 -8.3,-0.6 -0.1,-0.3 0,-5.4 0,-6.4 0,-1 0.5,-6.8 0.6,-7.5 0.1,-0.7 -0.3,-6.9 -0.4,-7.9 -0.1,-1 0.5,-7.8 0.4,-8.8 -0.1,-1.1 -0.4,-14.8 -0.4,-15.6 0,-0.9 0.4,-9.6 0.4,-11.2 0,-1.6 -1.1,-9.7 -1.1,-10.5 0,-0.8 0.5,-11.9 0.5,-13.5 0,-1.7 -0.3,-14.7 0,-14.8 0.3,-0.1 3,-0.1 3.4,-0.1 0.4,0 5.3,-0.4 6.1,-0.3 0.8,0.1 6.5,0.4 7.9,0.4 1.4,0 7,-0.4 8.3,-0.2 1.1,0.2 1.7,-0.1 1.9,0 0,0 0,0 0,0 0.2,0.4 5.2,9.1 5.9,10 0.7,0.8 4.2,5.7 4.9,7.1 0.8,1.4 5.4,8.9 6,10.2 0.6,1.2 5.6,8.4 6.2,9.5 0.5,0.9 3,5.1 4.4,7.6 0.1,-2.3 0.2,-4.5 0.2,-5.3 0,-1.6 -1.1,-9.7 -1.1,-10.5 0,-0.8 0.5,-11.9 0.5,-13.5 0,-1.7 -0.3,-14.7 0,-14.8 0.3,-0.1 3,-0.1 3.4,-0.1 0.4,0 5.3,-0.4 6.1,-0.3 0.8,0.1 6.5,0.4 7.9,0.4 1.4,0 7,-0.4 8.3,-0.2 1.4,0.2 2.3,0 2.3,0.4 0,0.4 -0.4,10.5 -0.3,11.6 0.1,1.1 0.5,7 0.4,8.6 -0.1,1.6 -0.2,10.4 -0.3,11.8 -0.1,1.4 0.3,10.1 0.2,11.4 -0.1,1.3 -0.3,9.3 -0.4,10.7 -0.1,1.4 0.7,14 0.6,15.3 -0.1,1.3 -0.7,17.4 -0.7,18.4 0,1 0.1,8.3 -0.1,8.5 -0.3,0.3 -1.8,0.3 -2.3,0.4 -0.5,0.1 -6.8,-0.5 -7.4,-0.5 -0.6,0 -8.9,0.6 -9.5,0.6 -0.6,0 -8.2,-0.3 -8.3,-0.6 l -1.3,-2.3 z"
       id="path2"
       style="fill:#000000" />
    <path
       d="m 113.1,433.5 c 0,0 -0.1,8.7 -0.1,10 0,1.3 -0.5,10.9 -0.6,12.4 -0.1,1.5 0.6,5.4 0.5,6.3 -0.1,0.9 -0.7,9.3 -0.7,10.5 0,1.2 0.6,6.9 0.6,7.4 0,0.5 -0.4,7.2 -0.5,8.2 -0.1,1 0.7,4.6 0.7,5.1 0,0.5 -0.6,3.8 -0.6,5.3 0,1.5 0.1,8.8 0.1,10 0,1.2 -0.5,7.5 -0.6,8.3 -0.1,0.8 0.7,5.3 0.7,5.9 0,0.6 -0.7,6.5 -0.6,7 0.1,0.4 5.8,1 6.8,1 0.9,0 9.4,-0.3 11.5,-0.4 2.1,-0.1 10.8,0.9 12.4,0.8 1.7,-0.1 7.8,-0.8 9,-1 1.2,-0.2 13.3,0.3 14.3,0.3 1.1,0 7.1,0.5 8.3,0.4 1.2,-0.1 3.9,-0.1 4.3,-0.4 0.4,-0.3 0.5,-7 0.5,-8.2 0,-1.2 -0.3,-6.3 -0.1,-7.6 0.1,-1.3 0,-5.2 -0.1,-5.9 -0.1,-0.7 0.6,-2.9 0.1,-3.3 -0.2,-0.2 -6.2,-0.3 -8,-0.2 -1.8,0.1 -6.6,0.8 -7.7,0.8 -1.1,0 -6,-0.5 -7.5,-0.6 -1.4,-0.1 -5,0.3 -6.2,0.2 -1.2,-0.1 -6.6,-0.3 -7.2,-0.3 -0.6,0 -0.6,-0.9 -0.6,-1.4 0,-0.5 0.4,-5.6 0.4,-6.8 0,-1.2 -0.6,-4.2 -0.5,-4.6 0.1,-0.4 6,-0.2 7,-0.1 1.1,0.1 9.2,0.9 10.8,1 1.5,0.1 6,-0.5 7.1,-0.6 1.1,-0.1 7,0 7.2,-0.2 0.3,-0.3 0.2,-3.8 0.4,-5 0.2,-1.2 0,-6.1 -0.2,-6.7 -0.2,-0.6 0.1,-4.4 0.1,-5.3 0,-1 0.1,-4.5 -0.4,-4.7 -0.4,-0.2 -1.3,-0.1 -2,-0.1 -1.4,0 -12.4,-0.1 -13.8,-0.2 -1.3,-0.1 -4.7,0.5 -6,0.5 -1.3,0 -8.3,-0.4 -8.8,-0.4 -0.5,0 -0.9,-6 -1.1,-6.7 -0.2,-0.7 0.7,-6.1 0.8,-6.4 0.1,-0.3 7,0.4 8.7,0.4 1.7,0 10.6,0 12.4,0 1.8,0 10.4,0.5 11.2,0.5 0.8,0 2.6,-0.3 3.1,-0.2 0.5,0.1 0.1,-7.6 0.2,-9.3 0.1,-1.7 0.4,-7.6 0.4,-8.4 0,-0.8 0,-5.9 0,-6.3 0,-0.4 -5.9,-0.5 -8.1,-0.5 -2.2,0 -5.5,-0.4 -6.8,-0.4 -1.3,0 -12,0.4 -13.3,0.4 -1.3,0 -8.4,-0.8 -10.3,-0.6 -1.9,0.1 -11.1,0.8 -12.3,0.6 -1.2,-0.1 -10.9,-0.4 -12,-0.4 -1.1,0 -2.6,-0.2 -2.9,-0.1 z"
       id="path4"
       style="fill:#000000" />
    <path
       d="m 275.7,474.5 c -0.1,-1.1 -1.9,-10.9 -2.2,-11.8 -0.3,-1 -4.3,-9.9 -4.5,-10.4 -0.2,-0.5 -3.5,-6 -4.2,-7.2 -0.7,-1.2 -7.7,-5.6 -8.3,-5.9 -0.6,-0.3 -8.8,-2.8 -9.7,-3 -1,-0.2 -7.2,-2 -8.5,-2.2 -1.3,-0.1 -6.3,-0.9 -7.9,-0.9 -1.6,0 -9,0.5 -9.8,0.5 -0.9,0 -10.3,-0.8 -11.9,-0.6 -1.6,0.1 -9,0.3 -9.6,0.3 -0.6,0 -5.5,-0.1 -5.6,0.1 -0.3,0.6 0.3,15.5 0.2,16.2 -0.1,0.8 -0.5,11.8 -0.5,13 0,1.2 0.6,2.6 0.5,3.2 -0.1,0.6 -0.6,11.1 -0.5,12.3 0.1,1.2 0.7,10.4 0.6,11.3 -0.1,0.9 0,10.9 -0.1,12.1 -0.1,1.3 0.3,6 0.4,6.8 0.1,0.8 -0.2,9.2 -0.2,10.2 0,1 0.5,4.4 0.5,5.1 0,0.7 -0.2,6.5 0,6.8 0.2,0.3 13.1,0.6 14.3,0.8 1.3,0.1 16.6,-0.5 17.3,-0.6 0.7,-0.1 14.4,-1 15,-1 0.5,0 8.1,-2.3 8.8,-2.5 0.6,-0.2 12.4,-9 13,-9.6 0.5,-0.5 6.7,-8.3 7.3,-9.2 0.5,-1 3.1,-8.1 3.4,-9 0.3,-1 1.7,-9 2,-10.8 0.3,-1.7 0.3,-12.9 0.2,-14 z m -28.7,8.3 c -0.1,0.8 -1.6,10.2 -2,11.2 -0.4,1 -4.6,4 -5,4.3 -0.4,0.3 -6.2,3.3 -7,3.3 -0.7,0 -10.3,0.2 -11.2,0.1 -1,-0.1 -1,-0.1 -1,-0.4 0,-0.3 0,-6 0,-7.1 0,-1.1 -0.3,-9 -0.1,-11.1 0.2,-2 0.5,-7.7 0.3,-9.4 -0.2,-1.6 0,-11.2 0,-11.2 0.2,-0.2 6.2,-0.8 7,-0.8 0.8,0 7.1,0.9 8.6,1.2 1.5,0.3 5.5,3.8 5.8,4.2 0.3,0.4 2.9,4.4 3,5.2 0,0.8 1.7,9.7 1.6,10.5 z"
       id="path6"
       style="fill:#000000" />
    <path
       d="m 286.5,433.5 c -0.2,0.2 -0.1,7.6 -0.1,8.6 0,1 -0.6,17.2 -0.7,18.5 -0.1,1.3 0.7,14 0.6,15.4 -0.1,1.4 -0.3,9.5 -0.4,10.8 -0.1,1.3 0.3,10.1 0.2,11.5 -0.1,1.4 -0.2,10.3 -0.3,11.9 -0.1,1.6 0.3,7.6 0.4,8.7 0.1,1.1 -0.3,11.2 -0.3,11.7 0,0.4 0.9,0.2 2.3,0.4 1.4,0.2 7,-0.2 8.3,-0.2 1.3,0 7.1,0.3 7.9,0.4 0.8,0.1 5.7,-0.3 6.1,-0.3 0.4,0 3.1,0 3.4,-0.1 0.3,-0.1 0,-13.3 0,-14.9 0,-1.7 0.5,-12.8 0.5,-13.7 0,-0.9 -1.1,-9 -1.1,-10.6 0,-1.6 0.4,-10.4 0.4,-11.3 0,-0.9 -0.3,-14.7 -0.4,-15.8 -0.1,-1.1 0.5,-7.9 0.4,-8.9 -0.1,-1 -0.5,-7.2 -0.4,-7.9 0.1,-0.7 0.6,-6.6 0.6,-7.6 0,-1 0.1,-6.1 0,-6.4 -0.1,-0.3 -7.7,-0.6 -8.3,-0.6 -0.6,0 -8.9,0.6 -9.5,0.6 -0.6,0 -6.9,-0.6 -7.4,-0.5 -0.4,0 -1.9,0 -2.2,0.3 z"
       id="path8"
       style="fill:#000000" />
    <path
       d="m 413.1,527.7 c -0.1,-0.7 -0.7,-5.2 -1,-6.2 -0.3,-1 -2.6,-7.3 -2.8,-8.1 -0.2,-0.9 -1.2,-6 -1.6,-6.9 -0.4,-0.9 -2.4,-6.2 -2.6,-7.2 -0.2,-1 -2.4,-9.3 -2.7,-10.2 -0.3,-0.9 -2.6,-6.6 -2.8,-7.4 -0.2,-0.7 -1.6,-6.6 -1.9,-7.4 -0.3,-0.7 -4.5,-10.5 -4.6,-11 -0.1,-0.5 -1.1,-4.4 -1.6,-6 -0.5,-1.6 -3.5,-10.2 -4,-11.8 -0.5,-1.6 -3.8,-12 -4.1,-12.2 -0.3,-0.2 -2.2,0.2 -2.9,0.2 -0.7,0 -5.7,-0.6 -6.9,-0.6 -1.2,0 -5.3,0.5 -6.5,0.5 -1.2,0 -6.2,-0.6 -7.1,-0.5 -0.9,0.1 -4.3,0.1 -4.5,0.4 -0.2,0.4 -2.8,8 -2.9,8.7 -0.1,0.7 -5,12.5 -5.3,13.6 -0.3,1.1 -2.6,9 -3.1,10.1 -0.5,1.1 -5.6,15.6 -5.9,16.6 -0.3,1 -2,7.4 -2.2,8.2 -0.2,0.9 -3.5,10.4 -3.8,11.3 -0.3,1 -2,9.2 -2.4,10.5 -0.4,1.3 -2.8,8.8 -3.3,9.9 -0.5,1.2 -2.6,7.8 -2.5,8 0.1,0.2 1.5,0.2 1.9,0.2 0.4,0 6,-0.1 6.5,-0.1 0.5,0 8.2,0.9 9.6,0.7 1.4,-0.1 11.1,-0.1 11.2,-0.5 0.1,-0.4 0.8,-5.2 0.9,-6 0.1,-0.7 1.3,-4.8 1.3,-5.5 0,-0.4 1.3,-3.8 1.3,-3.8 0,0 7.4,0.4 8.5,0.4 1.1,0 9,-0.7 9.7,-0.7 0.7,0 6,0.3 6,0.3 l 0.6,1.1 c 0,0 1.3,4.8 1.6,6.1 0.3,1.3 1.8,8.4 2,8.4 0.2,0 5.8,0.1 6.2,0.1 0.4,0 7,-0.2 7.6,-0.2 0.6,0 6.3,0.4 7.3,0.4 1,0 7.5,-0.3 7.5,-0.6 0,-0.3 -0.6,-2 -0.7,-2.8 z m -36.5,-34.9 c -0.5,0 -5.2,0 -6,0 -0.8,0 -7,0.5 -8.5,0.4 -0.5,0 -0.5,-0.2 -0.5,-0.6 0.1,-0.5 1.3,-6.9 1.7,-7.7 0.4,-0.8 1.8,-7.4 1.9,-8.2 0.1,-0.8 3.6,-10 3.8,-10.6 0.4,-1.2 0.5,-0.9 0.7,-0.1 0.2,0.8 2.3,7.6 2.5,8.4 0.2,0.8 2.5,7.8 3,9.5 0.5,1.7 1.5,7.8 1.7,8.3 0.1,0.3 0,0.6 -0.3,0.6 z"
       id="path10"
       style="fill:#000000" />
    <path
       d="m 718,434.3 c 0.2,0.2 0.1,7.5 0.1,8.5 0,1 0.6,17.1 0.7,18.4 0.1,1.3 -0.7,13.9 -0.6,15.3 0.1,1.4 0.3,9.5 0.4,10.7 0.1,1.3 -0.3,10 -0.2,11.4 0.1,1.4 0.2,10.2 0.3,11.8 0.1,1.6 -0.3,7.5 -0.4,8.6 -0.1,1.1 0.3,11.2 0.3,11.6 0,0.4 -0.9,0.2 -2.3,0.4 -1.4,0.2 -6.9,-0.2 -8.2,-0.2 -1.4,0 -7,0.3 -7.8,0.4 -0.8,0.1 -5.6,-0.3 -6.1,-0.3 -0.4,0 -3,0 -3.3,-0.1 -0.3,-0.1 -0.3,-10.2 -0.3,-11.8 0,-1.7 0.5,-15.8 0.5,-16.6 0,-0.8 0.3,-8.9 0.3,-10.5 0,-1.6 -0.4,-10.3 -0.4,-11.2 0,-0.9 0,-9.8 0.1,-10.8 0.1,-1.1 -0.2,-12.7 -0.1,-13.6 0.1,-0.9 0.2,-7 0.1,-7.8 -0.1,-0.8 -0.3,-6.7 -0.3,-7.6 0,-0.9 -0.1,-6.1 0,-6.4 0.1,-0.3 7.5,-0.2 8.1,-0.2 0.6,0 9.1,-0.2 9.7,-0.2 0.6,0 8,-0.1 8.5,0 0.6,0 0.5,-0.1 0.9,0.2 z"
       id="path12"
       style="fill:#000000" />
    <path
       d="m 486.8,461.5 c -0.7,0 -6.9,0.3 -7.9,0.4 -1,0.1 -7.8,-0.5 -8.8,-0.4 -0.3,0 -6.5,0.1 -8.2,0.1 -0.1,2.7 -0.1,5.4 -0.2,6.1 -0.1,1.3 0.3,9.9 0.2,11.1 -0.1,1.2 -0.3,9.1 -0.4,10.5 -0.1,1.3 0.7,13.7 0.6,14.9 -0.1,1.2 -0.7,17 -0.7,18 0,0.9 0.1,8.1 -0.1,8.3 -0.3,0.3 -1.8,0.3 -2.3,0.4 -0.5,0.1 -7.3,-0.4 -7.9,-0.4 -0.6,0 -8.3,0.5 -9,0.5 -0.6,0 -8.2,-0.3 -8.3,-0.6 -0.1,-0.3 -0.6,-5.3 -0.6,-6.2 0,-0.9 0.5,-6.6 0.6,-7.4 0.1,-0.7 -0.3,-6.7 -0.4,-7.7 -0.1,-0.9 0.5,-7.6 0.4,-8.6 -0.1,-1 -0.4,-14.4 -0.4,-15.3 0,-0.9 0.2,-8.5 0.2,-10 0,-1.5 -0.4,-6.6 -0.4,-7.4 0,-0.2 0.2,-5.2 0.2,-5.5 -0.3,0 -10.1,-0.4 -10.5,-0.4 -0.8,0 -11.8,0.1 -13.4,0.1 0,0 -0.5,0 -0.8,0 -0.2,0 -0.2,-0.3 -0.2,-0.5 0,-0.3 -0.1,-4.5 0,-4.9 0.1,-0.4 -0.3,-3.4 -0.3,-4.2 0.1,-0.8 0.3,-9.3 0.3,-9.8 0,-0.5 -0.3,-7.7 -0.3,-8 0,-0.3 0.2,-0.4 0.4,-0.4 1.1,0.1 4.9,-0.5 6.5,-0.4 1.6,0.1 15.3,0.2 16.7,0.3 1.4,0.1 10.1,-0.3 11.4,-0.2 1.3,0.1 9.3,0.3 10.7,0.4 1.4,0.1 18.9,-0.7 20.2,-0.6 0.8,0.1 8,0.2 13.2,0.5 0.3,0 0.4,0.1 0.4,0.2 0.1,0.1 0,5 0,5.9 0,0.8 0,9.6 0,10.3 0,0.7 -0.4,6.5 -0.4,6.9 0,0.4 0.1,3.5 0.1,3.7 0,0.2 -0.4,0.3 -0.6,0.3 z"
       id="path14"
       style="fill:#000000" />
    <path
       d="m 582.9,465.8 c -0.5,-1.4 -3.1,-7.2 -3.5,-8.3 -0.4,-1.1 -3.1,-7.2 -4,-8.5 -1,-1.3 -6.4,-5.6 -7.4,-6.7 -1,-1.1 -7.1,-5.7 -9.2,-6.4 -2.1,-0.6 -7.2,-1.6 -8.4,-1.9 -1.1,-0.3 -6.1,-1.3 -7.7,-1.3 -1,0 -9.5,-0.2 -11.2,0.3 -1.4,0.4 -10.1,2.1 -11.1,2.4 -1,0.3 -7.9,4.6 -9.2,5.3 -1.3,0.7 -7.7,6.4 -8.4,7 -0.6,0.6 -3.9,7 -4.7,8 -0.8,1 -3.1,8.5 -3.4,9.9 -0.3,1.4 -1,9.7 -1.3,11.3 -0.3,1.6 0.5,10.1 0.5,10.8 0,0.7 0.5,9.3 0.8,10.5 0.3,1.3 3.9,10.5 4.3,11.6 0.5,1.1 3.4,7.5 4.2,8.5 0.8,1 4.2,3.7 4.7,4.1 0.5,0.5 8.2,4.5 9.2,4.9 1,0.5 5.5,2.6 7.2,3.2 1.7,0.6 9.3,0.8 10.9,1 1.6,0.2 10.9,-0.6 12.1,-0.8 1.1,-0.2 7.6,-0.5 8.5,-0.6 1,-0.2 9.5,-4.4 11,-5.5 1.5,-1 6.5,-6.8 7.3,-8.2 0.6,-1.1 5.7,-6.8 6.2,-7.9 0.5,-1.1 2.7,-7.7 3,-9 0.3,-1.3 1.7,-9.7 1.7,-10.7 0,-1 -0.6,-10.2 -0.6,-11.9 0,-1.7 -1,-9.6 -1.5,-11.1 z m -27.4,18.6 c -0.1,0.7 -0.3,4 -0.5,4.6 -0.1,0.6 -0.9,3.7 -1.2,4 -0.3,0.4 -1.5,3 -1.7,3.3 -0.2,0.3 -2.6,2.6 -3,2.9 -0.4,0.3 -3,2 -3.3,2.2 -0.3,0.1 -3.5,0.8 -4,1 -0.6,0.2 -3.7,0.1 -4.1,0.1 -0.6,0 -2.4,-0.4 -2.8,-0.5 -0.4,-0.1 -2.3,-0.5 -3,-0.8 -0.8,-0.3 -3,-2.2 -3.3,-2.6 -0.3,-0.5 -2.3,-2.2 -2.7,-2.7 -0.3,-0.5 -1.3,-3 -1.5,-3.5 -0.2,-0.5 -1.1,-2.8 -1.3,-3.4 -0.2,-0.6 -0.6,-3.8 -0.6,-4.6 0,-0.7 0.3,-4.8 0.3,-5.1 0,-0.3 0,-3.6 0.1,-4.1 0.1,-0.5 1.3,-3 1.5,-3.5 0.2,-0.5 1.3,-3.3 1.6,-3.7 0.3,-0.3 3,-2.4 3.5,-2.9 0.5,-0.5 3,-2.5 3.3,-2.5 0.3,-0.1 2.7,-0.2 3.1,-0.3 0.4,-0.1 3.8,-0.4 4.4,-0.3 0.6,0.1 3.3,0.1 4,0.4 0.6,0.3 2.3,1.1 2.6,1.3 0.3,0.2 3.1,1.8 3.3,2 0.2,0.2 1.4,1.3 1.7,1.7 0.3,0.4 1.3,3 1.5,3.5 0.2,0.5 1.5,4.2 1.6,4.8 0.1,0.5 0.3,4 0.3,4.3 0,0.3 0.3,3.8 0.2,4.4 z"
       id="path16"
       style="fill:#000000" />
    <path
       d="m 800.9,494.8 c -0.8,0 -5.7,-1 -6.5,-1 -0.7,0 -5.1,-0.5 -5.9,-0.5 -0.1,0 -0.2,0 -0.3,0 0,0.1 -0.1,0.1 -0.1,0.2 -0.3,0.4 -1.5,3 -1.7,3.2 -0.2,0.3 -2.6,2.6 -3.1,2.8 -0.5,0.3 -3,2 -3.4,2.1 -0.4,0.1 -3.6,0.8 -4.1,1 -0.7,0.2 -3.8,0.1 -4.1,0.1 -0.6,0 -2.4,-0.4 -2.8,-0.5 -0.4,-0.1 -2.3,-0.5 -3.1,-0.8 -0.8,-0.3 -3,-2.1 -3.4,-2.6 -0.4,-0.5 -2.4,-2.2 -2.7,-2.7 -0.3,-0.5 -1.3,-3 -1.5,-3.4 -0.2,-0.5 -1.1,-2.8 -1.3,-3.3 -0.2,-0.6 -0.6,-3.8 -0.6,-4.5 0,-0.7 0.3,-4.7 0.3,-5.1 0,-0.4 0,-3.5 0.1,-4.1 0.1,-0.5 1.4,-3 1.5,-3.4 0.2,-0.5 1.3,-3.3 1.7,-3.6 0.4,-0.3 3,-2.4 3.5,-2.8 0.5,-0.5 3,-2.4 3.4,-2.5 0.4,-0.1 2.7,-0.2 3.1,-0.3 0.4,-0.1 3.8,-0.4 4.4,-0.3 0.6,0.1 3.4,0.1 4,0.4 0.7,0.3 2.3,1.1 2.7,1.3 0.4,0.2 3.2,1.8 3.4,2 0.2,0.2 1.4,1.3 1.7,1.7 0.3,0.4 1.4,3 1.5,3.4 0.1,0.2 0.2,0.7 0.5,1.3 2,-0.1 4.2,-0.2 4.4,-0.3 0.4,0 4.7,-0.2 5.7,-0.3 0.9,-0.1 6.4,-1 6.9,-1.1 0.6,-0.1 6.9,-0.8 7.7,-0.8 0.4,0 2.8,-0.3 5.4,-0.6 -0.3,-1.5 -0.5,-2.8 -0.7,-3.3 -0.5,-1.4 -3.1,-7.1 -3.6,-8.2 -0.5,-1.1 -3.1,-7.1 -4.1,-8.3 -1,-1.3 -6.5,-5.5 -7.5,-6.6 -1,-1.1 -7.2,-5.7 -9.3,-6.3 -2.1,-0.6 -7.3,-1.6 -8.5,-1.9 -1.1,-0.3 -6.2,-1.3 -7.8,-1.3 -1,0 -9.6,-0.2 -11.4,0.3 -1.4,0.4 -10.3,2 -11.2,2.4 -1,0.3 -8,4.6 -9.3,5.2 -1.3,0.6 -7.8,6.3 -8.5,6.9 -0.7,0.6 -3.9,6.9 -4.7,7.9 -0.8,0.9 -3.1,8.3 -3.4,9.8 -0.3,1.4 -1,9.6 -1.3,11.2 -0.3,1.6 0.5,9.9 0.5,10.7 0,0.8 0.5,9.1 0.8,10.4 0.3,1.3 3.9,10.4 4.4,11.5 0.5,1.1 3.4,7.4 4.2,8.3 0.8,0.9 4.2,3.6 4.7,4.1 0.5,0.5 8.3,4.4 9.3,4.9 1,0.5 5.5,2.5 7.3,3.2 1.8,0.6 9.5,0.8 11.1,0.9 1.6,0.2 11.1,-0.6 12.2,-0.8 1.1,-0.2 7.7,-0.5 8.6,-0.6 0.9,-0.1 9.6,-4.4 11.1,-5.4 1.5,-1 6.6,-6.7 7.4,-8.1 0.7,-1.1 5.8,-6.7 6.3,-7.8 0.5,-1.1 2.7,-7.6 3.1,-8.9 0.1,-0.4 0.3,-1.4 0.5,-2.6 -2.9,-0.5 -9.9,-1.9 -10.7,-2 -0.8,-0.1 -6,-0.6 -6.8,-0.6 z"
       id="path18"
       style="fill:#000000" />
    <path
       d="m 98.2,508.2 c 0,-0.1 0,-0.2 0,-0.3 0.1,-2.7 0.2,-5.2 0.2,-5.6 0,-0.8 -0.8,-7.6 -0.9,-10.1 0,-0.8 0.1,-1.3 0.1,-1.5 0,-0.2 0,-0.8 0,-1.8 0.1,-3.2 0.3,-8 0.3,-8.7 0,-0.9 -0.3,-14.7 -0.3,-15.8 0,-0.4 0,-1.7 0.1,-3.2 0.1,-1.1 0.2,-2.2 0.2,-2.5 0,-0.3 0,-1.1 0,-1.9 0,-0.6 0,-1.1 0,-1.3 v 0 c 0,-1 0,-1.8 0,-1.9 0,0 0,0 -0.1,0 -0.1,-2.2 -0.3,-5.5 -0.2,-6 0.1,-0.8 0.6,-6.7 0.6,-7.6 0,-1 0.1,-6.1 0,-6.4 -0.1,-0.3 -6.7,-0.6 -7.3,-0.6 -0.6,0 -6,0.6 -6.6,0.6 -0.6,0 -6.3,-0.5 -6.8,-0.4 l -3.5,0.3 c -0.3,0.2 -3.9,3.9 -4.6,4.6 -0.7,0.7 -4.5,5.2 -5,5.8 -0.5,0.6 -5.1,4.7 -5.9,5.4 -0.7,0.6 -5.2,5.9 -6,6.6 -0.3,0.2 -1.3,1.2 -2.8,2.6 -0.2,0.2 -0.6,0.2 -0.9,0 -1.3,-1.2 -2.3,-2.2 -2.5,-2.4 -0.8,-0.7 -5.3,-5.9 -6,-6.6 -0.7,-0.7 -5.4,-4.8 -5.9,-5.4 -0.5,-0.6 -4.3,-5.1 -5,-5.8 -0.6,-0.6 -3.9,-4 -4.5,-4.5 l -7.3,-0.7 c -0.6,0 -7.8,0.6 -8.3,0.6 -0.6,0 -6,-0.6 -6.5,-0.5 -0.5,0.1 -1.8,0.1 -2,0.4 -0.1,0.2 -0.1,7.6 -0.1,8.6 0,1 -0.6,17.2 -0.7,18.5 -0.1,1.3 0.6,14.1 0.6,15.5 -0.1,1.4 -0.3,9.6 -0.4,10.8 -0.1,1.3 0.3,10.1 0.2,11.5 -0.1,1.4 -0.2,10.3 -0.3,11.9 -0.1,1.6 0.3,7.6 0.4,8.7 0.1,1.1 -0.3,11.3 -0.3,11.7 0,0.4 0.8,0.2 2,0.4 0.9,0.2 3.9,0 5.9,-0.2 0.5,0 1,0 1.5,-0.1 1.3,0 6.1,0.3 6.8,0.4 0.4,0.1 2,-0.1 3.3,-0.2 0.9,0.1 5.7,-0.3 6.1,-0.3 0.4,0 3.1,0 3.4,-0.1 0.3,-0.1 0,-10.5 0,-11.9 0,-1.3 0.5,-10.2 0.5,-10.8 0,-0.7 -1.1,-7.1 -1.1,-8.4 0,-1.3 0.4,-8.3 0.4,-9 0,-0.6 -0.2,-10 -0.4,-12.1 0,0 0.1,0.1 0.1,0.1 0.5,0.7 4.9,4.4 5.4,5.1 0.6,0.7 4.6,4.9 5.3,5.7 0.7,0.8 3.7,3.3 4.3,3.7 0.4,0.3 3,3 4.5,4.6 0.6,0.6 1.6,0.6 2.2,0 1.8,-2 5.4,-5.7 6.1,-6.4 1,-1 6.5,-6.1 7.1,-6.7 0.6,-0.5 4.9,-5.4 5.8,-6.4 0.2,3.4 0.6,8.3 0.5,9 -0.1,1.1 -0.3,7.6 -0.4,8.6 -0.1,1 0.3,8 0.2,9.1 -0.1,1.1 -0.2,8.2 -0.3,9.4 -0.1,1.3 0.3,6 0.4,6.9 0.1,0.9 -0.3,8.9 -0.3,9.3 0,0.3 0.9,0.2 2.3,0.3 0.5,0.1 1.5,0.1 2.7,0 0.2,0 0.5,0 0.7,0.1 1.2,0.2 6.1,-0.2 7.3,-0.2 0,0 0.1,0 0.1,0 0.7,0 1.4,0.1 2.1,0.1 1.9,0.1 4.3,0.3 4.7,0.3 0.7,0.1 5,-0.3 5.4,-0.3 0.4,0 2.7,0 3,-0.1 0.3,-0.1 0,-13.3 0,-15 0,-0.6 0.1,-2.7 0.2,-5.1 0.2,-1.1 0.2,-2.2 0.2,-2.4 z"
       id="path20"
       style="fill:#000000" />
    <path
       d="m 592.8,0.6 c -0.1,0 -8.7,-0.1 -8.7,-0.1 h -10.9 l -10.1,0.8 c 0,0 -5.3,6.1 -7.4,9.3 -2.1,3.2 -9.2,8.1 -9.9,10.4 -0.7,2.3 -21.8,20.2 -21.8,20.2 0,0 -9.9,9.6 -11.1,10.7 -1.1,1.1 -7.8,8.3 -11.1,9.9 -3.3,1.6 -7.5,6 -9.9,8.8 -2.5,2.8 -7.2,8.6 -9.1,10.4 -1.9,1.8 -9.5,10 -9.5,10 0,0 -4.8,5.4 -6.9,6.6 -2.1,1.2 -4.8,3.8 -6.9,5.8 -2.1,2 -4.6,4 -7.7,6.6 -3.1,2.6 -4.7,6.2 -7.8,8.7 -3.1,2.6 -7,8.4 -10.1,10.9 -3.1,2.6 -11.8,12.4 -14.3,15.9 -0.3,0.4 -0.6,0.9 -1,1.3 -0.1,0.1 -0.2,0.2 -0.3,0.3 -1.3,1.2 -3.5,3 -5.2,4.3 -0.9,0.6 -1.8,1.1 -2.7,1.6 0,0 0,0 0,0 l -5,-4.4 c -2,-2.1 -6.4,-4.6 -7.7,-6.4 -2.5,-3.6 -5.3,-8.4 -8.4,-10.9 -3.1,-2.6 -8.7,-7.5 -11.7,-10.1 -3.1,-2.6 -5.3,-7.5 -8.4,-10.1 -3.1,-2.6 -7.1,-6.4 -9.2,-8.4 -2.1,-2 -3.3,-4 -5.5,-5.2 -2.1,-1.2 -6.9,-6.6 -6.9,-6.6 0,0 -7.6,-8.1 -9.5,-10 -1.9,-1.8 -10.1,-7.3 -12.5,-10 -2.5,-2.8 -11.8,-14.4 -15.1,-15.9 -3.3,-1.6 -11.4,-12.3 -12.6,-13.4 -1.1,-1.1 -8.8,-6.6 -9.4,-7 0,0 0,0 -0.1,-0.1 -0.7,-0.6 -10.8,-9.1 -11.5,-11.4 -0.7,-2.3 -9.7,-9.3 -11.8,-12.5 -1.8,-2.7 -6.5,-7.5 -8,-8.9 -0.3,-0.3 -0.6,-0.4 -1,-0.4 h -10.3 l -0.7,0.1 c -1.4,-0.5 -3.8,-0.8 -4.5,-0.9 -0.1,0 -0.3,0 -0.4,0 -1.1,0.3 -6.7,1.5 -8.7,0.5 -2.3,-1 -7.8,-0.5 -7.8,-0.5 l -3,0.3 c -0.2,0 -0.3,0 -0.4,0 -1.2,-0.3 -3.1,0 -4.2,0.2 -0.6,0.1 -1.1,0.6 -1.1,1.2 l -0.7,6.7 c 0,0.2 0,0.3 0,0.5 0.4,1.5 2.5,10.2 1.7,13.6 -0.9,3.7 0.6,12.2 -0.6,14.3 -1.1,2.1 0.5,28.5 0.6,29.7 0,0 0,0.1 0,0.1 v 15.3 c 0,1.6 -0.6,11.4 0.6,14.9 1.2,3.4 0.9,9.5 0.6,13.3 -0.3,3.7 -1.2,11.1 -1.2,13.8 0,2.7 -0.6,13.8 -0.6,13.8 0,0 -0.6,7.2 0,9.5 0.6,2.4 0.6,6.1 0.6,9 0,2.9 0.3,6.1 0.6,10.1 0.3,4 -0.3,7.2 0,11.1 0.3,4 -0.3,11.9 0,15.9 0.3,4 0.3,13.8 -0.6,18 -0.9,4.2 -2,9.4 -1.1,12.6 0.9,3.2 1.1,10.2 1.1,14.4 0,4.2 0,18.6 0,23.3 0,4.8 -0.3,11.7 -0.6,17 -0.3,5.3 0.3,12.2 0,15.9 -0.3,3.7 -0.6,17 0,19.2 0.6,2.1 2.9,16.7 1.7,20.2 -1.2,3.4 -0.3,14.1 -1.2,17.8 -0.9,3.7 -1.2,12.9 -0.6,15.3 0.6,2.4 0.9,8.5 1.2,10.6 0.2,1.6 0.2,7.9 0.2,10.6 0,0.7 0.5,1.3 1.3,1.4 l 4.7,0.4 c 0.1,0 0.1,0 0.2,0 l 15.5,-0.8 c 0.1,0 0.1,0 0.2,0 1.7,0.1 27.8,2.1 29.5,1.1 1.6,-1 11.9,0.1 13.6,0.2 0.2,0 0.3,0 0.5,0 1.4,-0.3 8.8,-2 12,-1.3 3.5,0.8 28.4,0 28.4,0 0,0 21.7,-0.8 26.6,0 3.4,0.6 11.7,0.4 17,0.7 0.8,0 1.5,-0.6 1.5,-1.5 l -0.1,-6 c 0,0 0,-12.6 0,-15.9 l -0.7,-17.8 1,-30.5 c 0.5,-13.9 -0.4,-30 0.3,-39.6 0.1,-0.8 -0.5,-1.4 -1.3,-1.5 L 346,276 c 0,0 -0.1,0 -0.1,0 h -24.4 c -0.1,0 -0.1,0 -0.2,0 l -7.3,-1 c -0.7,-0.1 -1.2,-0.7 -1.2,-1.3 L 312.2,256 c 0,0 0,-0.1 0,-0.1 0.7,-14 -0.6,-24.1 -0.6,-34 0,-0.1 0,-0.1 0,-0.2 1.6,-12.1 0.4,-19.9 1.2,-19.9 l 12.1,-1.9 c 0.1,0 0.2,0 0.3,0 l 14.8,1.1 18.4,0.9 8.4,-0.1 9.2,-0.8 c 0.1,0 8.3,0.8 8.4,0.8 l 10.9,0.8 c 6.7,0 20.3,1.2 31,0.8 l 22.5,-0.4 17.8,-1.3 12.1,0.1 c 0.1,0 0.1,0 0.2,0 l 14.4,-0.4 c 0.1,0 0.2,0 0.3,0 4.9,1 12.3,1.3 12.3,1.5 l 0.3,16.6 -0.4,33.8 C 505.3,268.4 505,276 504,276 l -14.2,-0.9 c -0.1,0 -0.1,0 -0.2,0 l -14,1.1 c 0,0 -0.1,0 -0.1,0 h -17.1 l -7.4,0.3 c -0.8,0 -1.4,0.8 -1.3,1.6 1.9,15.1 0.5,31.7 0.5,40.6 l 1.1,30.5 c 0.2,9.9 0.4,29.1 0.7,38.7 0,0.8 0.7,1.4 1.5,1.3 6,-0.3 11.9,-0.3 13.8,-0.3 2.6,0 11.6,1.4 14.4,1.1 2.7,-0.3 8.1,0 8.6,0 0,0 0.1,0 0.1,0 0.6,0 5.6,-0.3 8.9,-0.3 3.5,0 12.2,0 15.6,0 3.5,0 11.3,-0.8 13.9,-0.8 2.6,0 7.9,0.2 12.2,0.5 4.3,0.3 7.5,1.6 13.3,0.5 5.8,-1.1 9.2,0 14.4,0.3 5.2,0.3 9.8,0 12.7,0.5 2.7,0.5 12.7,0.5 14,0.5 0.1,0 0.2,0 0.3,0 l 5.7,-1.3 c 0.6,-0.1 1.1,-0.7 1.1,-1.4 0,-1.9 -0.2,-5.7 -0.3,-7.4 -0.1,-2.3 1.4,-10.3 0.1,-18.1 -1.3,-7.8 -0.2,-14.8 -0.2,-16.4 0,-1.6 0.3,-9 0.1,-13.9 -0.1,-4.9 1,-23.2 0,-27.6 -1,-4.4 -0.7,-11.3 0,-17 0.7,-5.7 1.9,-8.9 1.7,-14.9 -0.1,-6 -0.1,-9.9 -0.6,-14.3 -0.4,-4.4 -0.7,-19 -0.6,-21.2 0.1,-2.3 0.7,-16.6 0,-21.8 -0.7,-5.2 0.4,-11.5 -0.6,-12.7 -1,-1.2 -0.1,-6 -0.1,-7.6 0,-1.5 0.1,-7.7 0.1,-8.7 0,-0.1 0,-0.2 0,-0.3 0.2,-0.9 1.5,-6.3 1.1,-8.9 -0.4,-2.8 0.1,-9.2 -0.6,-11.1 -0.7,-2 0.7,-8.9 0,-12.2 -0.7,-3.3 -0.7,-8.9 -0.7,-8.9 0,0 0,-4 0,-6.4 0,-2.4 0,-8 0,-11.1 0,-3.2 0.3,-9.5 0.1,-12.3 -0.1,-2.8 1.3,-4.6 0.6,-8.5 -0.7,-3.8 -0.8,-8.6 -0.8,-11.8 0,-3.2 -0.9,-5.6 0,-9.5 0.9,-4 0.9,-5.3 1.4,-9.4 0.4,-4.1 0.7,-7 0.6,-11.1 -0.1,-4.1 -0.1,-7.6 -0.6,-12.2 -0.4,-4.6 -0.7,-6.2 -0.6,-10.6 0.1,-4.4 -0.1,-6 0,-9.5 0.1,-3.6 0.7,-12.3 0,-14.3 -0.7,-2 0.4,-3.3 -0.6,-5.8 -0.9,-2.2 -0.2,-5 0,-5.7 0,-0.1 0,-0.2 0,-0.3 V 3.7 c 0,0 0,-0.1 0,-0.2 0.1,-1.2 -0.8,-2.2 -2,-2.3 h -1.2 z"
       id="path22"
       style="fill:#fe9803" />
    <path
       d="m 601.9,592.8 c 0,-0.7 -0.3,-10.6 -0.3,-11.4 0,-0.5 -0.1,-4.6 -0.2,-7.3 0,-1.2 -1.1,-2.2 -2.5,-2.2 h -6.4 c -1.3,0 -9.5,0.2 -10.5,0.3 -1,0.1 -9.4,0 -10.7,-0.1 -1.3,-0.1 -17.3,0.2 -18.7,0.1 -1.4,-0.1 -13.7,-0.1 -14.9,-0.1 -1.2,0 -13.3,0.5 -15.5,0.5 -2.2,0 -13.2,-0.4 -14.4,-0.4 -1.2,0 -20.6,-0.6 -22.9,-0.6 -1.9,0 -11.5,0 -15,0.2 -1.7,0 -3.2,0 -3.8,0 -1.3,0 -9.5,0.2 -10.5,0.3 -1,0.1 -9.4,0 -10.7,-0.1 -1.3,-0.1 -17.3,0.2 -18.7,0.1 -1.5,-0.1 -13.7,-0.1 -14.9,-0.1 -1.2,0 -13.3,0.5 -15.5,0.5 -2.2,0 -13.2,-0.4 -14.4,-0.4 -1.2,0 -20.6,-0.6 -22.9,-0.6 -1.9,0 -11.5,0 -15,0.2 -1.7,0 -3.2,0 -3.8,0 -1.3,0 -9.5,0.2 -10.5,0.3 -1,0.1 -9.4,0 -10.7,-0.1 -1.3,-0.1 -17.3,0.2 -18.7,0.1 -1.5,-0.1 -13.7,-0.1 -14.9,-0.1 -1.2,0 -13.3,0.5 -15.5,0.5 -2.2,0 -13.2,-0.4 -14.4,-0.4 -1.2,0 -20.6,-0.6 -22.9,-0.6 -1.7,0 -9.8,0.2 -13.9,0.3 -1.3,0 -2.4,1 -2.4,2.2 0,0.8 -0.1,1.5 -0.1,1.7 0,0.5 -0.6,6.1 -0.4,7.1 0.1,1 0.6,7.5 0.6,9.1 0,1.6 -0.6,8 -0.3,9.6 0.1,0.4 0.1,0.7 0.2,1 0.3,1.1 1.3,1.8 2.5,1.8 4,-0.2 12.6,-0.6 13.8,-0.5 1.5,0.1 9.7,0.6 11.8,0.5 2.2,-0.1 14.3,-0.2 16.2,-0.4 1.9,-0.1 13.9,0.4 15.7,0.2 1.8,-0.1 12.9,-0.4 14.8,-0.5 1.9,-0.1 19.3,0.9 21.1,0.7 1.8,-0.1 24,-0.9 25.3,-0.9 0.6,0 5.9,0.8 8.2,0.8 0,0.4 11.8,-0.7 13.3,-0.5 1.5,0.2 9.7,0.6 11.8,0.5 2.2,-0.1 14.3,-0.2 16.2,-0.4 1.9,-0.1 13.9,0.4 15.7,0.2 1.8,-0.1 12.9,-0.4 14.8,-0.5 1.9,-0.1 19.3,0.9 21.1,0.7 1.8,-0.1 24,-0.9 25.3,-0.9 0.6,0 7.3,0.8 7.3,0.8 0,0 12.7,-0.7 14.2,-0.5 1.5,0.2 9.7,0.6 11.8,0.5 2.2,-0.1 14.3,-0.2 16.2,-0.4 1.9,-0.1 13.9,0.4 15.7,0.2 1.8,-0.2 12.9,-0.4 14.8,-0.5 1.9,-0.1 19.3,0.9 21.1,0.7 1.8,-0.1 24,-0.9 25.3,-0.9 0.9,0 6.2,-0.1 9.3,-0.1 1.3,0 2.4,-1 2.5,-2.2 z"
       id="path24"
       style="fill:#fe9803" />
  </g>
</svg>
