<?xml version="1.0" encoding="UTF-8" standalone="no"?>
<svg
   xmlns:dc="http://purl.org/dc/elements/1.1/"
   xmlns:cc="http://creativecommons.org/ns#"
   xmlns:rdf="http://www.w3.org/1999/02/22-rdf-syntax-ns#"
   xmlns:svg="http://www.w3.org/2000/svg"
   xmlns="http://www.w3.org/2000/svg"
   height="300"
   width="255.87199"
   xml:space="preserve"
   viewBox="0 0 255.87199 300.00001"
   y="0px"
   x="0px"
   id="Layer_1"
   version="1.1"><metadata
     id="metadata49"><rdf:RDF><cc:Work
         rdf:about=""><dc:format>image/svg+xml</dc:format><dc:type
           rdf:resource="http://purl.org/dc/dcmitype/StillImage" /><dc:title></dc:title></cc:Work></rdf:RDF></metadata><defs
     id="defs47" /><g
     transform="matrix(3.5587189,0,0,3.5587189,-0.35587189,-1.6948242e-5)"
     id="g3761"><radialGradient
       gradientUnits="userSpaceOnUse"
       r="55.8899"
       cy="13.1219"
       cx="16.953699"
       id="Neuron_Gradient_1_">
	<stop
   id="stop5"
   style="stop-color:#4AF5FF"
   offset="5.000000e-02" />
	<stop
   id="stop7"
   style="stop-color:#3AE2FB"
   offset="0.1574" />
	<stop
   id="stop9"
   style="stop-color:#10B2EF"
   offset="0.4528" />
	<stop
   id="stop11"
   style="stop-color:#00A0EB"
   offset="0.6" />
	<stop
   id="stop13"
   style="stop-color:#0098E2"
   offset="0.6341" />
	<stop
   id="stop15"
   style="stop-color:#0078BA"
   offset="0.7943" />
	<stop
   id="stop17"
   style="stop-color:#0063A2"
   offset="0.9218" />
	<stop
   id="stop19"
   style="stop-color:#005C99"
   offset="1" />
</radialGradient><radialGradient
       gradientUnits="userSpaceOnUse"
       r="52.322601"
       cy="16.666201"
       cx="21.5298"
       id="BG_Neurons_1_">
	<stop
   id="stop33"
   style="stop-color:#003270"
   offset="0" />
	<stop
   id="stop35"
   style="stop-color:#003677"
   offset="0.349" />
	<stop
   id="stop37"
   style="stop-color:#003B80"
   offset="1" />
</radialGradient><radialGradient
       gradientUnits="userSpaceOnUse"
       r="30.9457"
       cy="71.381798"
       cx="35.945801"
       id="Bottom_Gradient_1_">
	<stop
   id="stop23"
   style="stop-color:#0055AD"
   offset="0" />
	<stop
   id="stop25"
   style="stop-color:#004DA0"
   offset="0.2141" />
	<stop
   id="stop27"
   style="stop-color:#003F88"
   offset="0.7007" />
	<stop
   id="stop29"
   style="stop-color:#003A7F"
   offset="1" />
</radialGradient><path
       style="clip-rule:evenodd;fill:#ffffff;fill-rule:evenodd"
       id="Outline"
       class="st0"
       d="M 6.2,80.4 C 6.1,78.6 6,76.8 5.9,74.9 c 0,0 -5.1,-1.7 -5.3,-4.2 -0.1,-1.1 -0.3,-4.3 -0.5,-7.4 0,-0.4 0,-0.8 0,-1.2 0,-0.4 0,-0.8 0,-1.1 0,-0.7 0,-1.4 0,-2.1 0,-1.3 0,-2.3 0.1,-2.7 C 0.4,54.4 5.2,53 5.2,53 4.9,36.6 5.3,20.2 6.2,3.9 6.2,3.9 8.1,3.1 12.8,2.1 17.4,1.1 24.9,0 35.9,0 47,0 54.5,1.1 59.1,2.1 c 4.7,1 6.6,1.8 6.6,1.8 0.9,16 1.2,32 1,48 0,0 4.8,-1.6 5.2,0.7 0.1,0.5 0.1,2 0.1,4 0,1 0,2.1 -0.1,3.3 0,0.6 0,1.2 -0.1,1.8 0,0.3 0,0.6 0,0.9 0,0.3 0,0.6 0,0.9 -0.2,5 -0.5,9.9 -0.7,10.7 -0.5,2.5 -5.1,1.4 -5.1,1.4 -0.1,1.6 -0.2,3.2 -0.2,4.8 0,0 -1.9,0.8 -6.6,1.8 -4.7,0.9 -12.1,2 -23.2,2.1 -11.1,0 -18.5,-1.1 -23.2,-2.1 -4.7,-1 -6.6,-1.8 -6.6,-1.8 z" /><path
       style="fill:url(#Neuron_Gradient_1_)"
       id="Neuron_Gradient"
       class="st1"
       d="M 63.8,6.6 C 63.8,5.9 63.3,5.4 62.7,5.2 62.1,5 59.9,4.4 56,3.6 49.8,2.5 43.1,1.9 36,1.9 28.9,1.9 22.2,2.5 16,3.6 12,4.4 9.8,5 9.1,5.2 8.5,5.4 8.1,6 8.1,6.6 c -1,23.5 -1,47.4 0,71 0,0.7 0.5,1.2 1.1,1.4 0.6,0.2 2.9,0.9 6.8,1.6 6.2,1.1 12.9,1.7 20,1.7 0,0 0,0 0,0 7.1,0 13.8,-0.6 20,-1.7 3.9,-0.7 6.1,-1.4 6.8,-1.6 0.6,-0.2 1.1,-0.7 1.1,-1.4 1,-23.6 1,-47.4 -0.1,-71 z" /><path
       style="clip-rule:evenodd;fill:url(#Bottom_Gradient_1_);fill-rule:evenodd"
       id="Bottom_Gradient"
       class="st2"
       d="m 7.9,66.2 c 18.7,0.8 37.3,0.8 56,0 -0.1,4.2 -0.3,8.3 -0.5,12.5 0,0 -1.7,0.7 -6,1.6 C 53.1,81 46.3,82 35.9,82 25.6,82 18.7,81 14.4,80.2 10.1,79.4 8.4,78.6 8.4,78.6 8.2,74.5 8.1,70.4 7.9,66.2 Z" /><path
       style="clip-rule:evenodd;fill:url(#BG_Neurons_1_);fill-rule:evenodd"
       id="BG_Neurons"
       class="st3"
       d="m 15.3,44.3 c 1.9,0.4 4,2.8 3.5,4.2 -1.1,3 -7.9,3.3 -10.4,3.4 -1.3,0.1 0.2,6.4 2.3,3.3 0.9,-1.3 4.2,-3.3 7.4,-3.3 1.6,0 2.6,1 1.8,3.2 -1.2,3.2 3.8,1.7 2.7,-0.2 -1,-1.7 -0.2,-4.3 3,-3.5 3.2,0.8 4.4,1.8 6.1,2.9 1.6,1.1 4.6,-3.1 1.9,-2.9 -3.6,0.3 -8.2,-1.6 -8.3,-3.3 -0.1,-1.8 3.7,-4.7 6,-5.9 2.4,-1.2 -3.5,-2.2 -4.1,-0.4 -0.9,2.7 -3.3,4.3 -4.1,4.7 -1.6,0.8 -3.8,0.3 -4,-3.4 0,-3.8 -5,0.9 -3.8,1.2 z m 23.2,6.6 c 1.3,-0.2 5.4,0.5 5.3,1.7 -0.1,0.9 -1.7,2 -3.6,2.3 -2,0.4 3.2,3.8 3.2,2.2 0,-2.2 1.2,-3.3 2.5,-3.3 1.3,0 2,0.9 2.1,2.1 0.1,1 3.1,-0.3 2.1,-0.9 -1.2,-0.8 -2,-1.4 -1.5,-2.3 0.6,-1 3.7,-1.2 8,-0.4 4.3,0.9 -0.8,-2.9 -1.9,-2.4 -1.1,0.6 -5.2,1.3 -6.2,0.6 -1,-0.6 -0.7,-1.9 0,-2.9 0.7,-1 -1.9,-1.2 -2,-0.2 -0.1,1 0,2.3 -1.3,2.8 -1.3,0.6 -3.5,-0.6 -4.2,-1.9 -0.9,-1.1 -3.8,2.8 -2.5,2.6 z m 13,-14.8 c 1.4,-0.1 4,-0.2 4.7,1.3 0.7,1.5 -0.1,4.4 -2.8,5.6 -2.8,1.2 1.6,4.8 2.1,2.8 0.6,-2.1 1.9,-6.5 4.1,-6.2 2.1,0.3 3.4,2.6 4.2,4.4 0.8,1.8 1.2,-3.6 0,-4 -1.3,-0.4 -3,-1.7 -3,-3.5 0,-1.7 0.7,-2.9 2.5,-3.8 2.3,-1.1 0.5,-4.8 -0.1,-3.3 -0.6,1.5 -1.4,3.3 -3.2,3.4 -1.8,0.1 -3.9,-5.9 -2.3,-10.3 1.5,-4 -6.1,-0.4 -4,2 2.1,2.3 3.6,7.6 2.9,9 -0.7,1.4 -3,1.4 -5.2,0.3 -2.2,-1.1 -1.3,2.4 0.1,2.3 z M 48.3,3.3 c -1.8,1.1 -4.2,5 -2.3,7 1.9,2 8.6,4.7 15.7,2.6 7.1,-2.1 0.3,4.8 -2.5,3.4 -2.8,-1.4 -11.3,-2.5 -13.3,0.4 -1.8,2.6 0.2,5.5 1.1,7.1 0.9,1.5 -3.4,3.5 -3.1,0.8 0.3,-2.6 0.4,-6.3 -3.7,-7.2 -3.1,-0.6 -5.6,0.7 -7.3,3.1 -1.7,2.4 -5,-1.4 -2.1,-2.3 2.9,-1 7.1,-2.4 5.8,-6.3 C 35,8.1 28.2,6.5 25.6,6 23.6,5.6 28,1.2 28.3,2.3 c 0.5,2 7.6,7.1 11.5,6.4 2,-0.4 4.7,-1.7 4.3,-5.5 -0.2,-1.1 5.6,-0.8 4.2,0.1 z M 20.8,9.6 C 21.2,14 21,22.9 16.6,24.8 12,26.7 10,22.5 9,21 8,19.4 6.7,25.9 8.9,25.9 c 2.2,0 4.8,1.2 4.7,3.1 -0.1,1.9 -2.6,3.9 -5,4.8 -2.4,0.9 -2.1,7.7 -0.1,4.6 2,-3.1 4.9,-7.1 8,-6.5 3.2,0.6 5.1,3.8 5.3,8 0.3,4.3 4.9,0.5 3,-1.3 -1.9,-1.8 -4.7,-7.1 -3.4,-8.8 1.3,-1.7 5.5,-1.1 9.2,-0.1 3.8,1.1 1.8,-6.4 -0.3,-4.5 -2,1.9 -6.1,2.5 -8.4,0.4 -2.3,-2.1 1,-9.7 2.7,-11.5 2.1,-2.2 -4.3,-8.9 -3.8,-4.5 z" /><path
       style="clip-rule:evenodd;fill-rule:evenodd"
       id="Blackness"
       class="st4"
       d="m 70.7,52.8 c -0.2,-0.7 -3,0 -5.2,0.6 C 65.7,37.2 65.5,21 64.6,4.7 64.6,4.7 63,4 58.6,3.1 54.2,2.3 47,1.3 35.9,1.2 24.8,1.2 17.6,2.2 13.2,3.1 8.8,4 7.2,4.7 7.2,4.7 6.4,21.1 6.2,37.5 6.4,53.9 3.8,54.5 1.5,55.8 1.2,56.4 v 0 c -0.2,0.5 0.4,13.9 0.6,14.5 0.2,0.8 1.5,1.6 3,2.3 0.7,0.3 1.5,0.6 2.3,0.9 0.1,1.8 0.2,3.6 0.3,5.5 0,0 1.6,0.7 6,1.6 4.4,0.8 11.6,1.8 22.7,1.9 11.1,0 18.3,-1 22.7,-1.9 4.4,-0.9 6,-1.6 6,-1.6 0.1,-1.8 0.2,-3.6 0.3,-5.4 2.4,0.5 4.7,0.8 5.1,0 0.1,-0.4 0.5,-5.5 0.6,-10.6 0,-5.2 0,-10.3 -0.1,-10.8 z m -16.3,1.4 c -0.3,-0.4 -4.5,0.3 -6.9,1.1 -2.4,0.7 -3.4,1.7 -3.6,1.4 -0.3,-0.4 0.1,-1.3 -0.2,-1.8 -0.2,-0.4 -3.7,-0.1 -5.8,0.4 -0.2,-4.2 3,-7 7.5,-7.5 4.8,-0.6 8.2,1 11.7,6.6 -0.1,0 -0.2,0.1 -0.3,0.1 -1.3,0.5 -2,1.4 -2.1,1.1 -0.3,-0.2 0,-1 -0.3,-1.4 z m -41,-0.5 C 13.1,53.4 11,53.3 8.8,53.5 c 0,-1.6 0,-3.1 -0.1,-4.7 4.1,-3 10.8,-6.5 19.4,-6.1 8.7,0.4 6.4,7.8 1.8,12.3 -0.8,0.1 -1.7,0.3 -2.4,0.4 -2,0.4 -3.5,1.6 -3.7,1.2 -0.3,-0.5 0.1,-1.3 -0.4,-1.8 C 23,54.3 20,54.5 17.6,55 c -2.3,0.5 -3.7,1.4 -4,1.1 -0.1,-0.5 0.3,-2 -0.2,-2.4 z M 62.8,20.2 c 0.3,10 0.4,20 0.3,30 C 56.3,48.6 51.3,42.1 51.5,34.9 51.7,28.1 53.4,24.1 62.8,20.2 Z M 55.7,5.1 c 4.2,0.8 6.5,1.5 6.6,1.6 -0.1,6.1 -3.7,10.6 -8.3,13.5 -4.8,3 -10.9,4.1 -15.1,2.9 C 31,20.7 27.2,12.7 26.2,3.8 29.1,3.6 32.3,3.4 36,3.4 c 8.7,0 15.3,0.9 19.7,1.7 z M 15.6,5.2 C 25.9,14.7 32,23.5 29.9,31.6 27.9,39.4 15.5,41.9 8.8,40.2 8.8,29 9.1,17.8 9.6,6.7 c 0,0 2,-0.7 6,-1.5 z M 55.7,79.1 C 51.3,79.9 44.7,80.8 36,80.8 27.2,80.8 20.7,79.9 16.3,79.1 11.9,78.3 9.7,77.5 9.7,77.5 9.6,74.8 9.5,72.1 9.4,69.4 10.8,69 11.7,68 11.9,68.5 c 0.2,0.5 0,1.2 0.3,1.7 0.4,0.4 2.5,1.7 5.9,2.5 3.4,0.8 5.6,0.8 5.9,0.4 0.4,-0.4 0,-1.5 0.2,-2 0.2,-0.4 1,0.8 3.3,1.3 2.3,0.5 5.4,0.7 5.8,0.2 0.4,-0.4 0.1,-1.1 0.3,-1.5 0.1,-0.4 1.5,0.7 3.9,1.3 2.5,0.7 5.7,0.7 6,0.3 0.4,-0.4 0.1,-1.2 0.3,-1.5 0.2,-0.4 1.5,0.8 3.9,1.5 2.5,0.7 5.8,1.2 6.2,0.8 0.4,-0.4 0.2,-1 0.3,-1.3 0.1,-0.4 0.7,0.2 2,0.7 1.4,0.5 3,0.9 3.3,0.5 0.3,-0.4 0.1,-0.7 0.3,-1.2 0.1,-0.4 0.8,0.5 2.8,1.2 -0.1,1.3 -0.1,2.7 -0.2,4 -0.1,0.1 -2.3,0.9 -6.7,1.7 z" /><path
       style="clip-rule:evenodd;fill:#ffffff;fill-rule:evenodd"
       id="Eyeball"
       class="st0"
       d="m 44.1,35.1 c 2.2,2.6 2.1,6.3 -0.2,8.1 -2.3,1.9 -5.9,1.3 -8,-1.4 -2.2,-2.6 -2,-6.3 0.2,-8.1 2.2,-1.8 5.8,-1.2 8,1.4 z m -6.9,2.7 c 0.8,-1 2.3,-1 3.5,-0.1 1.1,0.9 1.4,2.4 0.7,3.4 -0.8,1 -2.3,1 -3.5,0.1 -1.2,-0.9 -1.5,-2.5 -0.7,-3.4 z" /><path
       style="clip-rule:evenodd;fill:#ffffff;fill-rule:evenodd"
       id="Psyonix"
       class="st0"
       d="m 3.3,57.7 c -0.3,0.4 0.1,12 0.4,12.4 0.2,0.4 2.9,1.9 3.2,1.6 0.3,-0.3 -0.2,-4 0.1,-4.2 0.3,-0.2 1,0 2.5,-0.6 1.6,-0.6 2.3,-1.1 2.4,-1.5 0.1,-0.3 0.2,-9.5 -0.1,-9.9 -0.3,-0.4 -2.9,-0.2 -5,0.3 -1.8,0.6 -3.2,1.6 -3.5,1.9 z m 3.3,1.1 c -0.2,0.3 0,5.9 0.3,6.2 0.3,0.3 1.5,-0.2 1.7,-0.5 C 8.7,64.2 8.7,58.2 8.5,58 8.2,57.9 6.8,58.5 6.6,58.8 Z m 7.2,-0.1 c -0.3,0.4 -0.4,5.3 -0.1,5.6 0.2,0.3 0.5,0.6 2.3,1.6 1.8,1 2.7,1 2.8,1.2 0.2,0.3 0.2,1.3 0,1.4 -0.2,0.2 -1.3,-0.2 -2.6,-0.9 C 14.9,67 14,66 13.7,66.2 c -0.3,0.2 -0.2,1.9 0,2.2 0.1,0.2 0.7,1.1 3.1,2 2.4,0.9 4.7,1 4.9,0.8 C 22,71 22.2,65.9 22,65.7 21.8,65.5 20.2,65.3 19,64.6 17.8,63.9 17.2,63.5 17.1,63.3 17,63 17,60.7 17.2,60.3 17.4,60 18.9,59.6 19,59.8 c 0.1,0.2 -0.1,2.9 0.1,3.1 0.2,0.2 0.6,0.6 1.2,0.9 0.6,0.2 1.5,0.6 1.8,0.5 0.3,-0.1 0.3,-7.1 0,-7.3 -0.3,-0.3 -3,-0.2 -4.8,0.2 -1.9,0.4 -3.2,1.1 -3.5,1.5 z m 10.1,0.4 c -0.2,0.3 -0.1,5 0.1,5.3 0.2,0.3 1.1,1 2.3,1.6 1.2,0.6 2.6,0.8 2.8,1 0.2,0.2 0.2,1.3 0,1.4 -0.2,0.1 -1.5,-0.2 -2.6,-0.6 -1,-0.5 -2,-1.2 -2.2,-1.1 -0.2,0.1 -0.1,1.8 0,2.1 0.1,0.3 1.4,1.1 3.1,1.7 1.8,0.6 4.1,0.6 4.3,0.3 0.2,-0.2 0.3,-13.4 0.1,-13.7 -0.2,-0.3 -2.7,0 -2.9,0.3 -0.2,0.3 0.1,6.8 0,7.1 -0.2,0.3 -1.6,-0.3 -1.7,-0.5 -0.1,-0.3 0,-6 -0.2,-6.2 -0.2,-0.1 -2.9,1 -3.1,1.3 z m 9.9,-0.2 c -0.2,0.4 -0.4,9.4 -0.2,9.8 0.2,0.3 1.9,1.3 3.7,1.7 1.8,0.5 4,0.9 4.4,0.5 0.5,-0.5 0.4,-13.5 0,-13.8 -0.4,-0.2 -2.6,-0.1 -4.4,0.3 -1.8,0.5 -3.2,1.1 -3.5,1.5 z m 3.1,1 c -0.2,0.2 -0.3,7.6 -0.1,7.9 0.2,0.3 1.5,0.7 1.7,0.6 0.2,-0.2 0.4,-8.7 0.1,-8.9 -0.2,-0.2 -1.5,0.2 -1.7,0.4 z m 7,-0.6 c -0.2,0.7 -0.2,8.2 -0.1,8.9 0.1,0.4 0.5,1.1 1.4,1.5 0.9,0.5 1.6,0.6 1.8,0.6 0.2,-0.1 0,-8.2 0.2,-8.5 0.1,-0.2 1.7,1.1 1.8,1.4 0.2,0.4 -0.1,7 -0.1,7.4 0.1,0.2 0.4,0.5 1.5,0.7 1,0.2 1.6,0.3 1.7,0 0.2,-0.4 0.6,-14.2 0.6,-14.4 -0.1,-0.3 -3.1,0.3 -3.4,0.7 -0.2,0.4 0.1,2 -0.2,2.1 -0.2,0.1 -2.1,-1.6 -2.3,-1.6 -0.2,-0.1 -2.6,0.5 -2.9,1.2 z m 10.8,-1.5 c -0.2,0.5 -0.5,11.1 -0.3,11.9 0.1,0.5 0.6,0.9 1.5,1.2 0.8,0.3 1.7,0.5 1.8,0.3 0.2,-0.3 0.6,-14.1 0.4,-14.6 -0.1,-0.3 -1.3,0 -2,0.3 -0.6,0.1 -1.2,0.5 -1.4,0.9 z M 60,57.6 c -0.2,0.3 -0.4,6.7 -0.2,7.2 0.1,0.4 1.4,1.1 1.4,1.5 0,0.4 -1.3,0.8 -1.5,1.1 -0.2,0.3 -0.2,1.9 0,2.3 0.2,0.3 2.3,1.4 3.1,1.3 0.3,-0.1 0.1,-1.7 0.3,-2.1 0.2,-0.4 0.7,-0.8 1,-0.8 0.3,0 0.7,0.6 0.8,0.8 0.1,0.3 -0.1,2.2 0.1,2.6 0.2,0.4 2.5,0.9 2.8,0.6 0.2,-0.2 0.4,-3.8 0.2,-4.2 -0.1,-0.4 -1.5,-0.8 -1.4,-1.3 0,-0.4 1.5,-1.1 1.7,-1.5 0.2,-0.4 0.6,-9.8 0.4,-10 -0.2,-0.2 -2.9,0.5 -3.1,0.8 -0.3,0.4 -0.2,7.5 -0.4,8 -0.1,0.4 -0.7,0.9 -1,0.9 -0.3,0 -0.8,-0.6 -0.9,-0.9 -0.1,-0.3 0.2,-7.1 0,-7.4 -0.3,-0.4 -3,0.8 -3.3,1.1 z" /></g></svg>