<?xml version="1.0" encoding="UTF-8" standalone="no"?>
<!-- Created with Inkscape (http://www.inkscape.org/) -->

<svg
   xmlns:dc="http://purl.org/dc/elements/1.1/"
   xmlns:cc="http://creativecommons.org/ns#"
   xmlns:rdf="http://www.w3.org/1999/02/22-rdf-syntax-ns#"
   xmlns:svg="http://www.w3.org/2000/svg"
   xmlns="http://www.w3.org/2000/svg"
   xmlns:sodipodi="http://sodipodi.sourceforge.net/DTD/sodipodi-0.dtd"
   xmlns:inkscape="http://www.inkscape.org/namespaces/inkscape"
   width="1010px"
   height="180px"
   viewBox="0 0 1010 180"
   version="1.1"
   id="SVGRoot"
   inkscape:version="0.92.1 r15371"
   sodipodi:docname="BioWare.svg">
  <sodipodi:namedview
     id="base"
     pagecolor="#ffffff"
     bordercolor="#666666"
     borderopacity="1.0"
     inkscape:pageopacity="0.0"
     inkscape:pageshadow="2"
     inkscape:zoom="0.5"
     inkscape:cx="267.35807"
     inkscape:cy="33.343052"
     inkscape:document-units="px"
     inkscape:current-layer="layer1"
     showgrid="false"
     inkscape:window-width="1366"
     inkscape:window-height="705"
     inkscape:window-x="-8"
     inkscape:window-y="-8"
     inkscape:window-maximized="1"
     showguides="true"
     inkscape:guide-bbox="true" />
  <defs
     id="defs6754" />
  <metadata
     id="metadata6757">
    <rdf:RDF>
      <cc:Work
         rdf:about="">
        <dc:format>image/svg+xml</dc:format>
        <dc:type
           rdf:resource="http://purl.org/dc/dcmitype/StillImage" />
        <dc:title></dc:title>
      </cc:Work>
    </rdf:RDF>
  </metadata>
  <g
     id="layer1"
     inkscape:groupmode="layer"
     inkscape:label="Layer 1">
    <path
       style="fill:#000000;fill-opacity:1;stroke:none;stroke-width:1.86400974px;stroke-linecap:butt;stroke-linejoin:miter;stroke-opacity:1"
       d="M 186.38421,0.57812122 A 19.410791,19.42979 0 0 0 166.9729,20.008167 19.410791,19.42979 0 0 0 186.38421,39.438212 19.410791,19.42979 0 0 0 205.79552,20.008167 19.410791,19.42979 0 0 0 186.38421,0.57812122 Z M 357.63425,4.1411501 406.66951,175.62956 h 35.11826 l 24.74824,-81.572862 24.12963,81.572862 h 33.96889 L 575.23645,4.1411501 H 542.90744 L 508.23575,123.71956 472.86125,4.1411501 H 441.93786 L 452.24564,35.65794 425.53907,123.71956 389.69604,4.1411501 Z M 1.4843753,5.7307457 9.0102408,36.157629 V 174.50707 H 98.508016 C 132.50623,170.41042 144.73259,142.9062 143.70712,126.05145 142.7211,110.36716 139.7237,93.863759 125.48546,85.319336 133.61033,77.048016 137.47606,64.32997 136.72666,52.430213 136.45058,24.340039 112.98341,5.7307457 91.172479,5.7307457 Z M 38.795244,35.194458 h 47.644287 c 18.931739,0 20.352059,19.223648 20.352059,19.223648 -2.12981,19.223945 -16.567166,18.184429 -16.567166,18.184429 H 38.795244 Z M 807.8794,49.642071 c 0,0 -26.83722,-0.653808 -37.43898,18.354619 V 52.806783 H 738.96795 V 175.62956 h 31.47247 v -68.96109 c 0,0 6.29628,-22.940379 37.43898,-24.579029 z m 79.01793,0 c -35.40594,-8.16e-4 -64.10864,28.862409 -64.10895,64.467489 0.007,35.40483 28.40538,64.17885 63.61114,64.45298 23.14342,0.86201 50.73887,-11.58466 56.78074,-24.67681 l -24.45173,-13.71255 c -6.32525,8.08921 -18.74146,11.77534 -32.32901,11.7536 -15.17543,-0.0767 -28.02362,-10.48767 -32.80488,-24.96284 h 65.92454 c -0.002,0.007 -0.004,0.0167 -0.007,0.0255 h 30.12909 c 0.88269,-4.23639 1.33888,-8.55139 1.36167,-12.87973 -3.2e-4,-35.603644 -28.7008,-64.466257 -64.1053,-64.467481 z m -594.65686,0.604696 a 65.348863,63.843706 0 0 0 -65.34984,63.844673 65.348863,63.843706 0 0 0 65.34984,63.84467 65.348863,63.843706 0 0 0 65.34985,-63.84467 65.348863,63.843706 0 0 0 -65.34985,-63.844673 z m 662.19199,0.879892 v 2.882284 h 9.02663 V 77.37134 h 3.87275 V 54.008943 h 9.06692 v -2.882284 z m 26.50525,0 -2.06816,26.244681 h 3.65313 l 0.79064,-11.253923 c 0.26411,-3.932739 0.48301,-8.330759 0.57104,-11.601534 h 0.0915 c 0.83634,3.115027 2.02125,6.501117 3.42984,10.200224 l 4.79883,12.49954 h 2.90639 l 5.23808,-12.731281 c 1.4965,-3.621242 2.7285,-6.892389 3.7409,-9.968483 h 0.1317 c -0.044,3.270775 0.2193,7.669777 0.4393,11.329952 l 0.7504,11.525505 h 3.741 l -1.8485,-26.244681 h -4.8868 l -5.28189,12.695075 c -1.32053,3.309726 -2.37771,6.190955 -3.12599,8.838736 h -0.13177 c -0.74826,-2.725646 -1.76172,-5.606893 -2.9942,-8.838736 l -5.05877,-12.695075 z m -340.34043,1.680124 a 64.189483,61.411394 0 0 0 -64.18949,61.411397 64.189483,61.411394 0 0 0 64.18949,61.41138 64.189483,61.411394 0 0 0 34.20315,-9.52672 v 9.52672 h 29.98632 V 114.21818 52.806783 H 674.80043 V 62.27921 A 64.189483,61.411394 0 0 0 640.59728,52.806783 Z M 169.97444,53.480278 V 174.50707 h 31.23821 V 53.480278 Z M 886.56423,77.13235 c 15.98492,5.56e-4 29.43514,11.47109 33.61749,27.12095 h -67.23497 c 4.18232,-15.64986 17.63254,-27.120394 33.61748,-27.12095 z m -594.32376,2.556401 a 33.968887,33.834201 0 0 1 33.9689,33.834209 33.968887,33.834201 0 0 1 -33.9689,33.83419 33.968887,33.834201 0 0 1 -33.96888,-33.83419 33.968887,33.834201 0 0 1 33.96888,-33.834209 z m 347.65401,1.390447 a 33.968887,33.37072 0 0 1 33.96888,33.370712 33.968887,33.37072 0 0 1 -33.96888,33.37073 33.968887,33.37072 0 0 1 -33.96889,-33.37073 33.968887,33.37072 0 0 1 33.96889,-33.370712 z M 38.795244,102.06988 h 51.194912 c 11.595694,0 22.244674,9.93686 22.954634,22.812 0.70994,12.87516 -17.039362,19.5604 -17.039362,19.5604 H 38.795244 Z"
       id="path7330"
       inkscape:connector-curvature="0" />
  </g>
</svg>
