<?xml version="1.0" encoding="UTF-8" standalone="no"?>
<svg xmlns:rdf="http://www.w3.org/1999/02/22-rdf-syntax-ns#" xmlns="http://www.w3.org/2000/svg" enable-background="new 0 0 864 480" xml:space="preserve" height="152.142" viewBox="0 0 691.51086 152.142" width="691.511" version="1.1" y="0px" x="0px" xmlns:cc="http://creativecommons.org/ns#" xmlns:dc="http://purl.org/dc/elements/1.1/">
<g fill="#f30001" transform="translate(-86.3361 -168.9)"><g fill-rule="evenodd" clip-rule="evenodd">
	<path d="m98.589 172.9h118.514c0.063 19.933 0.563 50.766 0.397 73.6-3.124-3.878-18.25-14.625-23.649-18.093-4.476-2.657-8.974-5.028-14.252-6.751-9.5-4.501-20.59-7.413-30.753-11.251-10.377-3.625-20.039-7.964-29.253-12.751-4.342-2.778-7.967-4.903-12.092-8.153-3-2.375-8.375-5.625-9.661-12.099-0.1-1.85-0.114-3.615 0.749-4.502z"/>
	<path d="m334.117 182.651c3.015 2.486 6.542 4.459 9.001 7.501v54.756h-9.001v-62.257z"/>
	<path d="m245.606 183.401h2.25c5.294 5.457 11.382 10.121 17.252 15.002 5.708 4.793 10.97 10.033 17.252 14.251 3.627-1.873 29.063-25.943 36.754-29.253v61.507h-9.001v-42.004c-2.175-1.391-22.776 17.729-27.003 21.752-5.466-3.035-9.243-7.759-14.252-11.251-4.67-3.831-8.582-8.42-14.251-11.251v42.754c-2.974-0.276-6.714 0.059-9.107-0.158 0-20.252 0.106-41.096 0.106-61.349z"/>
	<path d="m548.641 184.152c20.397-0.645 33.445 6.06 40.505 18.752 2.229 5.721 2.846 11.156 2.251 18.752-0.646 6.344-3.021 10.844-6.751 15.002-3.586 2.915-7.021 5.842-11.252 8.25-3.894 1.842-5.894 2.592-9.751 3.001-9.018 0.591-13.143 0.591-21.002 0-10.305-2.697-18.464-7.539-24.003-15.002-3.86-6.616-5.142-19.584-2.25-28.503 2.362-6.279 8.329-11.672 14.251-15.751 4.986-2.778 13.486-4.153 18.002-4.501zm-2.891 9.723c-9 0.625-14.375 4.25-18.111 8.279-2.889 3.971-4.482 8.844-4.5 14.251-0.014 4.22 0.736 5.47 1.5 9.001 1.361 3.969 5.986 8.469 11.251 11.251 8.297 1.986 18.518 3.828 27.003 2.25 9.339-1.736 15.08-7.945 18.752-14.252 5.216-23.108-11.645-32.781-31.02-31.156-0.5 0.001-4.375 0.376-4.875 0.376z"/>
	<path d="m402.375 220.906c-1.641 0.508 28.285 23.325 26.253 24.002h-11.251c-3.113-1.388-24.776-20.228-30.003-24.002h-19.502c-0.745 6.719-0.253 16.249-0.75 24.002h-8.251c0.493-19.009 0.256-39.283 0.75-57.756 19.036 0.717 42.505-1.527 57.505 1.598 7.374 2.973 9.935 7.72 10.002 16.404-1.691 11.811-10.069 16.934-24.753 15.752zm-4.501-8.251c9.839 0 20.67 1.159 20.252-9.751-1.549-8.48-12.055-6.751-21.002-6.751h-28.503c-0.943 0.308-1.533 0.967-1.5 2.25 0.396 4.604 0.005 10.722 0.255 14.222 8.212 0 20.562 0.03 30.498 0.03z"/>
	<path d="m683.656 187.902v16.501c-3.156-2.529-4.906-4.029-9.001-7.5v-9.001c3.22-0.152 5.72-0.027 9.001 0z"/>
	<path d="m755.375 187.25c0 2.75 0.29 6.153 0.29 8.903h-32.254c-10.301 0-22.588-2.466-24.003 7.501 0.092 4.221 1.467 5.846 3.751 7.501 12.341 1.22 29.718 0.285 44.255 0.75 3.961 0.845 5.711 2.095 7.501 3.75 2.96 2.47 4.585 5.095 5.25 8.251 1.21 3.344 0.835 5.969 0 9.001-2.312 5.689-6.313 9.689-12.001 12.001h-46.506c-2.533-1.783-7.158-6.533-9.001-9 10.093-0.158 34.593 0.967 49.506 0 5.381-0.349 8.903-0.783 9.001-7.501 0.087-9.674-10.729-7.501-19.502-7.501h-27.003c-3.284-0.531-4.284-0.906-7.501-3-3.222-3.529-6.258-7.244-6.751-13.502-0.018-5.518 2.093-8.529 4.501-12.001 3.063-2.687 5.342-4.028 12.001-5.251 16.091 0.098 34.051-0.429 48.466 0.098z"/>
	<path d="m90.338 197.653c0.185 0.094 0.583-0.118 0.75 0 4.514 3.159 8.552 6.321 13.501 9.001 14.25 7.716 32.552 11.654 51.006 16.502 12.865 2.137 23.846 6.157 33.754 11.251 5.408 2.093 22.809 14.195 24.752 19.503h-38.254c-3.042 2.209-15.245 36.261-15.751 38.254-0.847 2.211-0.478 4.523-3 4.501-4.465-14.038-10.635-26.369-15.001-40.505-10.486 1.765-18.667 5.836-28.503 8.251 2.404-8.598 6.567-15.436 9.751-23.253-1.816-4.435-6-6.501-9.001-9.751-3.091-3.282-5.341-5.532-8.251-9.751-5.34-6.031-11.125-13.377-15.001-21.752-0.398-0.604-0.784-1.218-0.752-2.251z"/>
	<path d="m309.364 316.917c-21.002 0-42.736-0.167-63.739-0.167-0.125-16.625-0.375-40.25 0.25-57.875 20.875 0.125 44 0.125 63.375 0.125 0 2.751 0.114 6.411 0.114 9.161h-54.756c0.413 5.088-0.881 11.883 0.75 15.752 16.503 0.499 33.018-0.038 50.143 0.212 0 2.5 0.113 5.539 0.113 8.039h-41.255c-2.9-0.101-10.393-9.67-9.733-7.039 0 7.251-0.018 15.54-0.018 22.791h54.756v9.001z"/>
	<path d="m364.12 316.917h-44.255c0.135-18.917 0.135-39.917 0.75-57.757h44.255c14.118 3.635 23.463 12.041 24.753 28.503-0.956 17.297-10.769 25.736-25.503 29.254zm5.255-10.792c5.875-2.875 10.625-9.75 11.247-13.211 2.253-12.914-4.872-20.289-12.752-24.003-5.62-1.411-25.048-0.481-37.745-0.786-1.375-0.25-1.283 1.218-1.25 2.5-0.25 12.125-0.125 26.875-0.009 37.291 13.434-0.567 29.391 1.093 40.509-1.791z"/>
	<path d="m465.5 316.917h-44.374c-5.751-1.042-6.626-1.292-10.501-3-1.625-0.917-1-0.292-4.5-3.001-4.932-5.069-9.032-10.971-10.501-19.502-0.499-2.664-0.374-4.289 0-7.501 1.236-5.515 2.876-9.038 6-14.252 4.501-4.911 10.042-9.161 19.502-10.501 14.374-0.16 31.207 0.007 44.255 0.34v8.661c-15.844 0.408-33.378-0.874-48.006 0.75-5.376 1.922-10.363 7.64-12.751 14.252-0.625 3.837-0.791 6.837 0 9.751 2.25 6.001 6.16 10.342 11.251 13.502 11.117 2.884 27.07 0.933 40.505 1.5v-15.752h-21.753c-2.35-2.9-5.783-4.719-7.501-8.251h38.255c0.119 11.087 0.619 22.92 0.119 33.004z"/>
	<path d="m217.667 316.917c-39.504 0-80.287-0.042-119.792-0.042-0.214-4.417 0.125-12.625-0.036-18.71 5.497-5.255 12.642-8.861 18.752-13.502 6.722-4.028 12.226-9.276 19.502-12.751 3.503 6.998 7.561 13.549 11.031 21.088 2 3.375 7.625 17.375 11.471 19.416 3.078-9.173 6.896-17.606 10.501-26.253 1.652-4.538 3.152-8.163 5.25-13.501 1.777-4.162 2.891-9.61 6-12.752 12.151-0.035 25.901 0.215 37.504 0.75 0.15 18.84 0.317 39.173-0.183 56.257z"/>
	<path d="m483 221.031c-1.642 0.508 28.284 23.325 26.252 24.002h-11.251c-3.112-1.388-24.776-20.228-30.003-24.002h-19.503c-0.745 6.719-0.253 16.249-0.75 24.002h-8.251c0.492-19.009 0.256-39.658 0.75-57.756 19.036 0.717 42.506-1.527 57.506 1.598 7.374 2.973 9.936 7.72 10.002 16.404-1.69 11.811-10.068 16.934-24.752 15.752zm-4.501-8.251c9.839 0 20.67 1.159 20.252-9.751-1.55-8.48-12.055-6.751-21.003-6.751h-28.502c-0.943 0.308-1.533 0.967-1.501 2.25 0.396 4.604 0.005 10.722 0.255 14.222 8.213 0 20.563 0.03 30.499 0.03z"/>
	<path d="m644.75 221.031c-1.642 0.508 28.284 23.325 26.252 24.002h-11.251c-3.112-1.388-24.776-20.228-30.003-24.002h-19.503c-0.745 6.719-0.253 16.249-0.75 24.002h-8.251c0.492-19.009 0.256-39.658 0.75-57.756 19.036 0.717 42.506-1.527 57.506 1.598 7.374 2.973 9.936 7.72 10.002 16.404-1.69 11.811-10.068 16.934-24.752 15.752zm-4.501-8.251c9.839 0 20.67 1.159 20.252-9.751-1.55-8.48-12.055-6.751-21.003-6.751h-28.502c-0.943 0.308-1.533 0.967-1.501 2.25 0.396 4.604 0.005 10.722 0.255 14.222 8.213 0 20.563 0.03 30.499 0.03z"/>
	</g><path d="m553.375 248.125" stroke="#000" stroke-width="9"/>
	<path d="m514.75 214.375" stroke="#000" stroke-width="9"/>
	<path d="m591.5 215.125"/>
	<path d="m553.375 248.125"/>
	<path d="m553.5 185.625"/>
	<path d="m591.625 216.75"/>
		<path fill="#f30001" d="m760.894 186.778v-6.1h-2.643v-1.063h6.667v1.063h-2.663v6.1h-1.361zm4.935 0v-7.163h2.002l2.062 5.722 1.992-5.722h1.962v7.163h-1.241v-6.012l-2.103 6.012h-1.23l-2.192-6.1v6.1h-1.252z"/>
	<path d="m541.988 317.042c-21.002 0-42.736-0.167-63.738-0.167-0.125-16.625-0.375-40.25 0.25-57.875 20.875 0.125 44 0.125 63.375 0.125 0 2.751 0.113 6.411 0.113 9.161h-54.756c0.413 5.088-0.881 11.883 0.75 15.752 16.503 0.499 33.018-0.038 50.143 0.212 0 2.5 0.113 5.539 0.113 8.039h-41.255c-2.899-0.101-10.394-9.67-9.733-7.039 0 7.251-0.018 15.54-0.018 22.791h54.756v9.001z" fill-rule="evenodd" clip-rule="evenodd"/>
</g>
</svg>
