<?xml version="1.0" encoding="utf-8"?>
<!-- Generator: Adobe Illustrator 21.0.0, SVG Export Plug-In . SVG Version: 6.00 Build 0)  -->
<svg version="1.1" id="Layer_1" xmlns="http://www.w3.org/2000/svg" xmlns:xlink="http://www.w3.org/1999/xlink" x="0px" y="0px"
	 width="238px" height="70.8px" viewBox="0 0 238 70.8" style="enable-background:new 0 0 238 70.8;" xml:space="preserve">
<style type="text/css">
	.st0{fill:url(#SVGID_1_);}
</style>
<linearGradient id="SVGID_1_" gradientUnits="userSpaceOnUse" x1="0" y1="47.9667" x2="238.0906" y2="47.9667">
	<stop  offset="0" style="stop-color:#87006B"/>
	<stop  offset="5.000000e-02" style="stop-color:#970063"/>
	<stop  offset="0.2" style="stop-color:#C4004F"/>
	<stop  offset="0.34" style="stop-color:#E40040"/>
	<stop  offset="0.45" style="stop-color:#F80036"/>
	<stop  offset="0.52" style="stop-color:#FF0033"/>
	<stop  offset="0.59" style="stop-color:#FF0C34"/>
	<stop  offset="0.71" style="stop-color:#FF2D36"/>
	<stop  offset="0.88" style="stop-color:#FF623B"/>
	<stop  offset="1" style="stop-color:#FF8E3E"/>
</linearGradient>
<path class="st0" d="M204.4,75.2h-6.2l-10.1,7.3l4.2-7.3h-5l-11.9,20.5h5l3.7-6.4l3.4-2.3l-0.1,8.8h5.4l-0.2-12.2L204.4,75.2z
	 M175.9,81.7c1.9-4.5,0-6.7-3.9-6.7c-2.5,0-4.7,0.8-7,2.2c-3.3,2.1-4.8,4.7-6.8,8.2c-2,3.5-3.5,6.1-2.6,8.2c0.6,1.5,1.9,2.2,4.4,2.2
	c3.9,0,8.3-2.2,11.6-6.7h-5.2c-1,1.2-2.3,2.3-4,2.3c-0.9,0-1.4-0.4-1.5-0.9c-0.1-0.6,0.1-1.4,2.3-5.2c2.2-3.7,2.9-4.5,3.7-5.1
	c0.7-0.5,1.6-0.8,2.5-0.9c1.7,0,1.7,1,1.4,2.2H175.9z M80.9,75.2L61.6,95.8h5.3l2.8-3.1h6.8l-0.7,3.1h4.6l4.4-20.5H80.9z M77.3,88.5
	h-3.8l5-5.5L77.3,88.5z M148.1,75.2l-19.3,20.5h5.3l2.8-3.1h6.8l-0.7,3.1h4.6l4.4-20.5H148.1z M144.6,88.5h-3.8l5-5.5L144.6,88.5z
	 M127.4,75.2h-8.5l-11.9,20.5h8.9c3.7,0,7.6-2.1,9.9-6.1c1.7-2.9,0.6-4,0-4.5c0.9-0.4,3.2-1.7,4.6-4.1
	C132.6,77.6,131.7,75.2,127.4,75.2L127.4,75.2z M121,89.4c-0.6,1.1-1.7,1.8-2.9,1.8h-3.4l2.1-3.6h3.4
	C121.6,87.6,121.5,88.5,121,89.4L121,89.4z M125.3,81.4c-0.6,1-1.6,1.7-2.8,1.7h-3.1l1.9-3.3h3.1C125.9,79.7,125.8,80.6,125.3,81.4
	L125.3,81.4z M105.8,75.2l-7.5,7.4l1-7.4h-5.5L93,87.4l-4.8,8.4h5l4.8-8.4l13.2-12.2H105.8z M61.2,75.2H53L41.2,95.7h5l4.3-7.3h3.1
	c4.6,0,8.9-3.2,10.8-6.6C66.3,78.4,65.7,75.2,61.2,75.2L61.2,75.2z M59.3,81.8c-0.7,1.2-2,2-3.4,2.1h-2.8l2.4-4.2h2.8
	C59.7,79.7,59.9,80.8,59.3,81.8L59.3,81.8z M234.9,13.3h-16.3l-11.9,20.6h6.5l3.5-6h8.5l-3.5,6h6.5l3.3-5.7l0,0c1.1-2,1-2.9-1.3-3.1
	c2.9-0.3,4.2-2,5.6-4.4l1.7-2.9c0.4-0.6,0.6-1.3,0.6-2C238.1,14.3,236.9,13.3,234.9,13.3z M229.7,20.1l-0.7,1.2
	c-0.4,0.6-1,0.9-1.7,0.9h-7.3l1.9-3.3h7.2C229.8,18.9,230.1,19.5,229.7,20.1z M211.1,13.3h-39.7l-11.9,20.6h6.5l3.2-5.6l1.5-2.6h6.1
	l6.5-4.3h-10.1l1.4-2.5h12.5l6.9-4.6l-8.1,14l-0.7,1.2c-1.4,2.4-0.3,4.4,2.5,4.4h11.4c2.8,0,6.2-2,7.6-4.4l6.8-11.8
	C215.1,15.3,213.9,13.3,211.1,13.3z M205.8,20.1l-4.2,7.3c-0.4,0.6-1,0.9-1.7,0.9h-6c-0.8,0-1-0.6-0.6-1.4l3.8-6.6
	c0.5-0.8,1.3-1.3,2.2-1.4h5.8C206,18.9,206.2,19.5,205.8,20.1z M176,46.1l13.9-9.2h-38.1l-19.6,33.9h36.4l5.3-9.2h-25.6l2.5-4.3h8.2
	l10.7-7.1h-14.8l2.4-4.1L176,46.1z M137.7,46.1l13.9-9.2h-38.1L93.9,70.8h36.4l5.3-9.2H110l2.5-4.3h8.2l10.7-7.1h-14.8l2.4-4.1
	H137.7z M218.1,36.9h-28l-19.6,33.9h28c4.6,0,10.2-3.3,12.5-7.2l11.2-19.5C224.5,40.1,222.7,36.9,218.1,36.9z M209.3,48.1l-6.9,12
	c-0.7,0.9-1.7,1.5-2.8,1.5h-13.1l8.9-15.5h12.9c0.9,0,1.4,0.4,1.4,1C209.6,47.4,209.5,47.8,209.3,48.1L209.3,48.1z M162.8,0h-28
	l-19.6,33.9h28c4.6,0,10.2-3.3,12.5-7.2L167,7.2C169.3,3.3,167.4,0,162.8,0z M154.1,11.2l-6.9,12c-0.7,0.9-1.7,1.5-2.8,1.5h-13.1
	l8.9-15.5H153c0.9,0,1.4,0.4,1.4,1C154.3,10.6,154.2,10.9,154.1,11.2L154.1,11.2z M45.6,0L33.3,21.3L29.5,0h-9.9L0,33.9h10.6
	l11.7-20.3L26,33.9h10.7L56.2,0H45.6z M223.5,66.1l-3.3,3.5l0.6-3.5h-1.3l-2.7,4.7h0.8l2.2-3.8h0l-0.7,3.8h0.6l3.7-3.8h0l-2.2,3.8
	h0.8l2.7-4.7L223.5,66.1z M214.4,66.1l-0.4,0.7h2l-2.9,4h0.8l2.9-4h1.4l0.4-0.7H214.4z M57.2,50.2H39.8l1-1.8
	c0.7-1.3,2.4-2.3,3.6-2.3h16.8l13.9-9.2h-30c-4.6,0-10.3,3.3-12.6,7.3l-3.4,5.9c-2.3,4-0.4,7.2,4.2,7.3h17.5l-1.6,2.7
	c-0.6,0.9-1.7,1.5-2.8,1.5H29.2l-13.9,9.2h29.9c4.6,0,10.3-3.3,12.6-7.2l3.5-6.1C63.6,53.5,61.8,50.2,57.2,50.2z M103.1,36.9h-28
	L55.6,70.8h10.6l5.8-10h17.3c4.6,0,10.2-3.3,12.6-7.2l5.5-9.5C109.6,40.2,107.8,36.9,103.1,36.9z M94.4,48.1l-1.2,2
	c-0.6,0.9-1.7,1.5-2.8,1.5H77.3l3.2-5.5h12.8C94.6,46.1,95.1,47,94.4,48.1L94.4,48.1z M120.7,9.2L134.6,0H96.5L76.9,33.9h36.4
	l5.3-9.2H93l2.5-4.3h8.2l10.7-7.1H99.5l2.4-4.1H120.7z M82.4,9.2L96.3,0H58.1L38.6,33.9H75l5.3-9.2H54.7l2.5-4.3h8.2l10.7-7.1H61.2
	l2.4-4.1H82.4z"/>
</svg>
