<?xml version="1.0" encoding="UTF-8"?>
<!-- Generator: Adobe Illustrator 19.1.0, SVG Export Plug-In . SVG Version: 6.00 Build 0)  -->
<svg version="1.1" id="Layer_1" xmlns="http://www.w3.org/2000/svg" xmlns:xlink="http://www.w3.org/1999/xlink" x="0px" y="0px" viewBox="-1109 1182.6 179.1 36.4" style="enable-background:new -1109 1182.6 179.1 36.4;" xml:space="preserve">
<style type="text/css">
	.st0{fill:#168CDF;}
</style>
<g>
	<polygon class="st0" points="-1097.8,1187.2 -1096.6,1197.3 -1092.1,1197.1 -1089.1,1183.8 -1093,1183.6 -1095.5,1189.3    -1095.3,1184.3 -1102.1,1183.6 -1106.4,1191.5 -1108.2,1201.1 -1106.9,1212.5 -1093.7,1210.9 -1092.8,1200.7 -1099.9,1202.7    -1101.6,1202.4 -1102.5,1196.8 -1100,1187.8  "/>
	<path class="st0" d="M-931.7,1198.6l-3.8,3.2l0.7-3.4c0-0.3,0-0.6,0-0.8c0-2-0.7-3-2.2-3c-0.5,0-1,0.1-1.5,0.3l-4.4,4l0.7-4   l-4.3,0.1l-0.6,3.2l-0.5,0.5l-3.1,2.9c0.3-0.7,0.4-1.4,0.4-2.3c0-1.4-0.3-2.5-1-3.4c-0.8-1.1-2.1-1.7-3.7-1.7c-0.4,0-0.7,0-1.1,0.1   c-3.7,0.5-5.9,3.1-6.8,7.8c-0.1,0.4-0.1,0.9-0.1,1.3c0,0.3,0,0.7,0.1,1l-3.3,2.8l1.6-8.8c0-0.3,0-0.6,0-0.8c0-2-0.7-3-2.2-3   c-0.5,0-1,0.1-1.5,0.3l-4.4,4l0.1-0.5c0-0.3,0-0.6,0-0.8c0-2-0.7-3-2.2-3c-0.5,0-1,0.1-1.5,0.3l-4.4,4l0.7-4l-4.3,0.1l-1.7,9.1   l-3.5,3c0.2-1.6,0.4-3,0.6-4l1.5-8.4h-4.6l-1.6,9.1v0.2l-4.1,3.4c0.4-1.7,0.7-3.1,0.9-4.2l1.5-8.4h-4.7l-0.8,5l-5.1,0.8l2.1-8.8   l1.5-8.1h-7.6l0.8,4l-3.2,13.2l-3.2,0.2l2.5-17.2l-8.4,3.4l3.4,2.1l-1.6,10.4l-6.6,6.1c-1.6-1.4-2.4-2.4-2.4-3   c3.9-3.7,6-5.8,6.4-6.3c0.1-0.2,0.2-0.4,0.2-0.6c0-0.2-0.1-0.4-0.2-0.5c-0.3-0.5-0.8-0.8-1.5-1.1c-0.7-0.3-1.4-0.4-2.1-0.4   c-0.3,0-0.6,0-0.8,0.1c-3.7,0.7-5.9,3.3-6.8,7.8c-0.1,0.4-0.1,0.9-0.1,1.3c0,0.3,0,0.6,0.1,0.8l-3.4,2.9c0.2-1.6,0.4-3,0.6-4l1.4-8   h-5.5c-2.3,0-4.4,1-6.3,2.9c-0.2,0.2-0.5,0.5-0.7,0.8h-0.1l-7.9,7.4c-1.6-1.4-2.4-2.4-2.4-3c3.9-3.7,6-5.8,6.4-6.3   c0.1-0.2,0.2-0.4,0.2-0.6s-0.1-0.4-0.2-0.5c-0.3-0.5-0.8-0.8-1.5-1.1c-0.7-0.3-1.4-0.4-2.1-0.4c-0.3,0-0.6,0-0.8,0.1   c-3.7,0.7-5.9,3.3-6.8,7.8c-0.1,0.4-0.1,0.9-0.1,1.3c0,0.2,0,0.4,0,0.6l-3.8,3.1l4.1-22.4h-4.3l-3.5,19.4l-3.5,2.9l4.1-22.4h-4.3   l-2.5,14l-3,2.8c0.3-0.7,0.4-1.4,0.4-2.3c0-1.4-0.3-2.5-1-3.4c-0.8-1.1-2.1-1.7-3.7-1.7c-0.4,0-0.7,0-1.1,0.1   c-3.7,0.5-5.9,3.1-6.8,7.8c-0.1,0.4-0.1,0.9-0.1,1.3c0,1.5,0.4,2.8,1.3,4.1c0.7,1,1.5,1.8,2.6,2.4c0.7,0.8,1.3,1,1.7,1l9-9.1   l-0.6,3.1c-0.1,0.7-0.2,1.3-0.2,1.9c0,2.4,0.9,3.6,2.8,3.6c0.3,0,0.5,0,0.7-0.1l3.7-3.5c0,2.4,1,3.6,2.8,3.6c0.3,0,0.5,0,0.7-0.1   l4.7-4.4c0.2,0.6,0.5,1.1,0.9,1.7c0.7,1,1.5,1.8,2.6,2.4c0.9,0.7,1.5,0.9,1.9,0.9l7.7-7.8c-0.1,0.5-0.2,1-0.2,1.6   c0,1.5,0.4,2.9,1.2,4.2c0.8,1.3,1.7,1.9,2.6,1.9l4.3-4.2l-0.3,2.3c-0.3,0-1.1,0.4-2.5,1.4c-1.4,1.1-2,1-3,2.2   c-1.2,1.4-1.8,2.6-1.8,3.6c0,1.2,1,2,2.9,2.2c0.4,0,0.7,0.1,1.1,0.1c2.2,0,4.1-1,5.7-2.9c1.3-1.7,1.4-2.4,1.5-4l0.2-0.9l4.6-4.4   c0.2,0.5,0.5,1,0.8,1.5c0.7,1,1.5,1.8,2.6,2.4c0.9,0.6,1.5,0.8,1.8,0.8l7.8-7.9l-1.3,8.1l4,0.8l1-6.9l3.8-1.1l-1.9,8l7.1-0.5   l1.3-8.7l5-0.8l-0.4,2.2c-0.1,0.7-0.2,1.3-0.2,1.9c0,2.8,1.1,4.4,3.4,4.7l4.4-4.1c0.1,1.7,0.7,2.8,1.9,3.5c0.5,0.3,1.1,0.5,1.8,0.6   l3.8-3.7l-0.6,3.5h4.6l1.6-8.7l4.1-3.7l-2.4,12.4h4.3l1.6-8.7l4.3-3.8l-1.2,6.9c-0.1,0.7-0.2,1.4-0.2,2c0,2.4,0.9,3.6,2.8,3.6   c0.3,0,0.5,0,0.7-0.1l4.4-4.1c0.2,0.5,0.4,0.9,0.8,1.4c0.7,1,1.5,1.8,2.6,2.4c0.9,0.6,1.5,0.8,1.8,0.8l9.6-9.7l-1.7,9.4h4.6   l1.6-8.8l4.1-3.7l-0.3,1.5c-0.2,0.7-0.2,1.4-0.2,2c0,2.4,1,3.5,2.9,3.5c0.3,0,0.5,0,0.7-0.1l5.4-5L-931.7,1198.6z M-1084.4,1206.2   c-2-1.9-3-3.7-3-5.2c0-3.4,0.8-5.1,2.2-5.4c0.3,0,0.5-0.1,0.7-0.1c0.5,0,1.1,0.2,1.9,0.7L-1084.4,1206.2z M-1058.6,1199.8   c0-0.9,0.2-1.8,0.6-2.6c0.5-0.9,1.1-1.4,1.8-1.5c0.3,0,0.5-0.1,0.7-0.1c0.5,0,1.1,0.2,1.9,0.7c-0.2,0.5-0.8,1.3-1.8,2.2   c-1,1-2,1.8-3,2.5C-1058.5,1200.7-1058.6,1200.3-1058.6,1199.8z M-1045.2,1216.2c-0.2,0-0.4,0-0.7-0.1c-0.4-0.2-0.7-0.5-0.7-0.9   c0-1.1,1.6-2.2,4.9-4.6C-1042.5,1214.8-1043.6,1216.2-1045.2,1216.2z M-1041.1,1204l-2.1,2c-1-0.6-1.5-1.6-1.5-2.9   c0-0.7,0.2-1.5,0.5-2.4c0.9-2.5,2.2-3.7,4-3.7c0.2,0,0.3,0,0.4,0L-1041.1,1204z M-1029.4,1199.8c0-0.9,0.2-1.8,0.6-2.6   c0.5-0.9,1.1-1.4,1.8-1.5c0.3,0,0.5-0.1,0.7-0.1c0.5,0,1.1,0.2,1.9,0.7c-0.2,0.5-0.8,1.3-1.8,2.2c-1,1-2,1.8-3,2.5   C-1029.4,1200.7-1029.4,1200.3-1029.4,1199.8z M-955.5,1206.2c-2-1.9-3-3.7-3-5.2c0-3.4,0.8-5.1,2.2-5.4c0.3,0,0.5-0.1,0.7-0.1   c0.5,0,1.1,0.2,1.9,0.7L-955.5,1206.2z"/>
</g>
</svg>