<?xml version="1.0" encoding="UTF-8" standalone="no"?>
<!-- Created with Inkscape (http://www.inkscape.org/) -->

<svg
   xmlns:dc="http://purl.org/dc/elements/1.1/"
   xmlns:cc="http://creativecommons.org/ns#"
   xmlns:rdf="http://www.w3.org/1999/02/22-rdf-syntax-ns#"
   xmlns:svg="http://www.w3.org/2000/svg"
   xmlns="http://www.w3.org/2000/svg"
   version="1.1"
   width="151.25751"
   height="53.341251"
   id="svg52804"
   xml:space="preserve"><metadata
     id="metadata52810"><rdf:RDF><cc:Work
         rdf:about=""><dc:format>image/svg+xml</dc:format><dc:type
           rdf:resource="http://purl.org/dc/dcmitype/StillImage" /><dc:title></dc:title></cc:Work></rdf:RDF></metadata><defs
     id="defs52808"><clipPath
       id="clipPath52818"><path
         d="M 0,612 792,612 792,0 0,0 0,612 z"
         id="path52820" /></clipPath></defs><g
     transform="matrix(1.25,0,0,-1.25,-401.28067,401.472)"
     id="g52812"><g
       id="g53047"><path
         d="m 418.47354,298.2576 0,-18.688 23.557,38.945 -23.557,-20.257 z"
         id="path52890"
         style="fill:#fff200;fill-opacity:1;fill-rule:nonzero;stroke:none" /><path
         d="m 418.47354,298.2526 0,-18.683 9.812,26.401 7.612,2.411 6.133,10.133 -23.557,-20.262 z"
         id="path52892"
         style="fill:#0c2950;fill-opacity:1;fill-rule:nonzero;stroke:none" /><path
         d="m 321.02454,279.4346 0,1.161 5.232,0 0,38.372 -5.232,0 0,1.164 16.857,0 0,-1.164 -5.231,0 0,-38.372 5.231,0 0,-1.161 -16.857,0 z"
         id="path52894"
         style="fill:#0c2950;fill-opacity:1;fill-rule:nonzero;stroke:none" /><path
         d="m 352.44754,292.3416 -26.191,0 0,1.162 26.191,0 0,-1.162 z"
         id="path52896"
         style="fill:#fff200;fill-opacity:1;fill-rule:nonzero;stroke:none" /><path
         d="m 407.46154,278.6196 c -0.112,0.874 -1.224,1.863 -2.849,1.863 -1.797,0 -4.88,-1.978 -9.766,-1.978 -10.585,0 -17.966,9.769 -17.966,21.28 0,11.512 7.381,21.279 17.966,21.279 3.776,0 6.223,-1.748 9.241,-1.748 1.049,0 2.097,0.874 2.209,1.626 l 1.165,0 0,-12.785 -1.165,0 c 0,7.905 -6.45,11.741 -11.45,11.741 -2.557,0 -4.884,-0.461 -6.858,-2.32 -2.562,-2.508 -4.365,-8.257 -4.365,-17.793 0,-9.539 1.803,-15.293 4.365,-17.791 1.974,-1.862 4.301,-2.328 6.858,-2.328 7.501,0 12.615,5.294 12.615,12.854 l 1.164,0 0,-13.9 -1.164,0 z"
         id="path52898"
         style="fill:#0c2950;fill-opacity:1;fill-rule:nonzero;stroke:none" /><path
         d="m 363.01654,279.4346 0,1.161 5.349,0 -4.301,11.746 -13.608,0 -4.301,-11.746 5.349,0 0,-1.161 -11.511,0 0,1.161 4.94,0 14.71,40.582 0.816,0 15.916,-40.582 3.733,0 0,-1.161 -17.092,0 z m -5.7,31.862 -6.454,-17.793 12.853,0 -6.399,17.793 z"
         id="path52900"
         style="fill:#0c2950;fill-opacity:1;fill-rule:nonzero;stroke:none" /><path
         d="m 363.71554,293.5036 0.349,-1.162 20.043,0 c 0,0 -0.139,0.689 -0.152,1.162 l -20.24,0 z"
         id="path52902"
         style="fill:#fff200;fill-opacity:1;fill-rule:nonzero;stroke:none" /></g></g></svg>