<svg xmlns="http://www.w3.org/2000/svg" xmlns:xlink="http://www.w3.org/1999/xlink" viewBox="0 0 361.60441 79.37008"><defs><linearGradient id="Unbenannter_Verlauf_33" x1="32.82957" y1="53.21982" x2="32.82957" y2="12.34898" gradientUnits="userSpaceOnUse"><stop offset="0" stop-color="#e52329"/><stop offset="1" stop-color="#e74011"/></linearGradient><linearGradient id="Unbenannter_Verlauf_17" x1="207.33998" y1="43.61876" x2="207.33998" y2="4.053" gradientUnits="userSpaceOnUse"><stop offset="0" stop-color="#00304d"/><stop offset="0.00808" stop-color="#01314e"/><stop offset="0.43287" stop-color="#1f5072"/><stop offset="0.77858" stop-color="#316488"/><stop offset="1" stop-color="#386b90"/></linearGradient></defs><title>MyH_Logo_DE_combined_RGB_gradient</title><g id="Logo_RGB_-_Gradient_DE" data-name="Logo RGB - Gradient DE"><polyline style="fill:url(#Unbenannter_Verlauf_33);" points="51.693 53.22 53.265 51.648 53.265 13.921 51.693 12.349 13.966 12.349 12.394 13.921 12.394 51.648 13.966 53.22 51.693 53.22"/><path style="fill:#fff;" d="M32.40969,48.01374a6.17626,6.17626,0,0,0,2.84481-.56743c-.14447-4.81887-.26119-23.53177-.26119-23.53177h.35045L43.255,21.43315l-.01014-.60848-7.96809-2.83059L23.342,17.99246l-.463.64249-.001,4.76283.464.57757h6.50006c-.016.02669-.17073,18.69432-.27865,23.46926a6.80539,6.80539,0,0,0,2.84628.56912Z"/><path style="fill:url(#Unbenannter_Verlauf_17);" d="M83.00083,51.96268h4.333l2.3521-8.789c.7427-2.3526,2.7231-11.8848,2.7231-11.8848l.4952.124s-.5572,9.4082-.5572,13.6172V53.201h12.3794V12.349H89.25233l-3.1567,12.2553c-.3711,1.3623-.7427,4.209-.7427,4.209h-.3711s-.3716-2.8467-.7432-4.209L81.08193,12.349H65.60783V53.201h12.3794v-8.1709c0-4.209-.5572-13.6172-.5572-13.6172l.4952-.124s1.9809,9.5322,2.7236,11.8848l2.352,8.789m55.9434-30.9482h-12.3174l-2.5381,10.5224-.6186,6.1895h-.8047l-.6812-6.1895-2.9707-10.5224h-12.2558l9.7177,32.1865h2.3521l-.2476,1.1143c-.3711,1.3613-1.4233,1.8574-2.8471,1.8574a22.71017,22.71017,0,0,1-2.8472-.2481l-1.1758,1.1143s-.4956,3.5898-1.0522,7.7978a16.92749,16.92749,0,0,0,7.2417,1.4864c6.623,0,9.8413-3.2188,11.6367-10.0274l9.4082-35.2812m18.7065,32.1865h12.3789V12.349h-12.3789v15.4126h-4.333V12.349h-12.3794V53.201h12.3794V37.91188h4.333V53.201m18.5391-32.125a90.54933,90.54933,0,0,0-1.3613,9.4707l1.1142.7422a32.30366,32.30366,0,0,1,7.4273-.8662c4.395,0,5.1997.8047,5.1997,2.3515v.1866l-6.4375.6806c-5.4473.5577-9.6563,3.7139-9.6563,9.6563V44.536c0,5.5703,3.7139,9.4082,9.3467,9.4082a9.30391,9.30391,0,0,0,7.3657-3.0332h.4952a7.75851,7.75851,0,0,0,6.4375,3.0332,9.15383,9.15383,0,0,0,6.62249-2.5996s1.1143-4.5196,1.4238-6.4375l-.4956-1.1768-1.3613-.2471a1.54535,1.54535,0,0,1-1.3618-1.7959v-9.0361c0-8.3564-4.45659-12.3799-16.0313-12.3799a44.01542,44.01542,0,0,0-8.7275.8047m10.1514,23.583c-.9287,0-1.4854-.6806-1.4854-1.7324v-.8672a2.24645,2.24645,0,0,1,1.4234-2.3525l2.2905-.7422v4.8896a4.8038,4.8038,0,0,1-2.2285.8047m31.9214-13.8652a5.177,5.177,0,0,1,1.7949-.3711c1.3618,0,1.6094.8047,1.6094,1.4238V53.201h12.3793V30.79378a5.18169,5.18169,0,0,1,1.7955-.3711c1.36131,0,1.60931.8047,1.60931,1.4238V53.201h12.37889V29.37088c0-5.2617-3.2807-9.0996-8.7275-9.0996a10.27331,10.27331,0,0,0-8.2939,3.9619,8.57993,8.57993,0,0,0-7.4898-3.9619c-4.5806,0-6.9326,2.291-8.6655,4.3955l-3.5283-3.6523h-7.2417V53.201h12.3794V30.79378m47.35841,0a5.18055,5.18055,0,0,1,1.79489-.3711c1.3613,0,1.6089.8047,1.6089,1.4238V53.201h12.3794V30.79378a5.18061,5.18061,0,0,1,1.7949-.3711c1.3623,0,1.6094.8047,1.6094,1.4238V53.201h12.3798V29.37088c0-5.2617-3.2802-9.0996-8.7275-9.0996a10.2736,10.2736,0,0,0-8.2944,3.9619,8.5772,8.5772,0,0,0-7.4893-3.9619c-4.58009,0-6.9326,2.291-8.6655,4.3955l-3.5283-3.6523h-7.2417V53.201H265.621V30.79378m60.63469,9.4082a46.04522,46.04522,0,0,0,.5576-5.6944v-1.0517c0-8.9756-4.0849-13.1846-11.8222-13.1846h-1.4239c-7.7373,0-13.8647,5.3233-13.8647,15.5362V38.036c0,10.956,5.6948,15.9082,15.16451,15.9082,6.93269,0,10.83209-2.2901,10.83209-2.2901-.0615-4.6435-.4336-8.666-.4336-8.666l-.8657-.4951a30.82531,30.82531,0,0,1-7.7994,1.2988c-3.9619,0-4.5185-1.2988-4.5185-2.9707V40.202h14.1738m-14.1738-8.8506c0-1.9189,1.0527-2.7861,2.1045-2.7861,1.1142,0,1.6094.6191,1.6094,2.0429v3.5284h-3.7139v-2.7852m29.8105,21.8496V32.46568a5.04346,5.04346,0,0,1,2.47561-.4952,9.4523,9.4523,0,0,1,2.53759.3711l1.3618-.6806.8047-11.2657a12.78075,12.78075,0,0,0-1.7334-.124c-4.209,0-5.9419,2.291-7.17969,4.209h-.124l-3.28031-3.4658h-7.2421V53.201h12.3798"/></g></svg>