<svg width="103" height="32"><g fill="#FFF" fill-rule="evenodd"><path d="M18.377 2.924c1.15-1.375 2.934-2.063 5.35-2.063h5.246v1.031c-.02.976-.75 1.761-1.65 1.761h-3.536c-1.305 0-2.247.452-2.82 1.357-.577.905-.865 2.392-.865 4.461 0 1.794.277 3.058.828 3.794.55.735 1.503 1.1 2.857 1.1h5.186v1.048c0 .995-.74 1.801-1.652 1.801h-3.687c-1.177 0-2.102-.108-2.776-.328-.674-.218-1.306-.588-1.899-1.108-.769-.667-1.345-1.536-1.731-2.608-.384-1.072-.576-2.353-.576-3.843 0-2.892.575-5.027 1.725-6.403m36.567 0c1.15-1.375 2.934-2.063 5.35-2.063h5.246v1.031c-.02.976-.75 1.761-1.65 1.761h-3.535c-1.306 0-2.247.452-2.821 1.357-.576.905-.864 2.392-.864 4.461 0 1.794.276 3.058.828 3.794.55.735 1.503 1.1 2.857 1.1h5.185v1.048c0 .995-.74 1.801-1.652 1.801h-3.686c-1.178 0-2.103-.108-2.776-.328-.675-.218-1.307-.588-1.9-1.108-.769-.667-1.345-1.536-1.73-2.608-.384-1.072-.577-2.353-.577-3.843 0-2.892.575-5.027 1.725-6.403M32.05 2.93C33.202 1.55 34.984.86 37.393.86h6.788v1.018c0 .966-.697 1.751-1.573 1.797h-5.215c-1.239 0-2.142.438-2.71 1.312-.57.875-.853 2.27-.853 4.184 0 1.787.282 3.081.847 3.882.565.802 1.47 1.202 2.716 1.202h3.551v-3.85H36.72V7.513l6.103.002c.76.068 1.36.752 1.36 1.597v6.301c0 .995-.74 1.801-1.654 1.801h-5.135c-1.254 0-2.214-.111-2.884-.334a5.47 5.47 0 0 1-1.883-1.102c-.77-.666-1.346-1.535-1.73-2.608-.386-1.072-.578-2.354-.578-3.844 0-2.885.578-5.017 1.73-6.396M12.412 1.686c.253-.493.728-.83 1.28-.83h2.395L10.11 16.449c-.202.455-.627.77-1.122.77H6.547L0 .856h2.608c.561 0 1.042.347 1.293.85L8.1 13.044l4.312-11.358zM84 .904h3.915c.78 0 1.473.5 1.719 1.24l3.536 10.811 3.736-10.81c.246-.74.94-1.24 1.72-1.24h3.692v14.448c0 1-.811 1.813-1.812 1.813h-1.281L99.21 4.499l-3.73 11.416a1.812 1.812 0 0 1-1.723 1.25h-2.313L87.14 4.368l-.002 10.988c.028 1.02-.79 1.815-1.81 1.815L84 17.166V.904zm-9.587 2.622c-1.424 0-2.489.443-3.192 1.332-.705.888-1.058 2.23-1.058 4.028 0 1.95.342 3.377 1.025 4.283.683.906 1.758 1.359 3.225 1.359 1.444 0 2.516-.45 3.213-1.349.697-.899 1.047-2.283 1.047-4.152 0-1.877-.35-3.263-1.047-4.159-.697-.895-1.769-1.342-3.213-1.342m-7.881 5.34c0-2.716.65-4.735 1.949-6.06C69.779 1.48 71.757.818 74.413.818c2.677 0 4.657.67 5.943 2.009 1.284 1.34 1.927 3.406 1.927 6.2 0 2.793-.643 4.863-1.927 6.21-1.286 1.346-3.266 2.02-5.943 2.02-2.706 0-4.696-.677-5.97-2.03-1.275-1.355-1.911-3.474-1.911-6.362M49.11 17.566a1.055 1.055 0 1 1 0-2.11 1.055 1.055 0 0 1 0 2.11"></path><path d="M6.18 23.73v4.7h-.64v-5.29h4.47v5.29h-.67v-4.7H6.18zm-2.1.19l-.54.35c-.18-.37-.57-.91-.93-1.3l.5-.3c.39.37.79.89.97 1.25zm.97 4.31l-.43.53c-.2-.31-.66-.9-1.02-1.36v4.35h-.63v-3.98c-.39.44-.8.81-1.21 1.12-.05-.19-.22-.51-.32-.63 1.04-.71 2.12-1.99 2.72-3.28H1.68v-.61h2.8l.12-.03.36.25c-.28.76-.7 1.52-1.18 2.19.37.4 1.08 1.23 1.27 1.45zm3.65 2.86h.88c.36 0 .41-.26.46-1.71.17.13.38.22.56.27-.09 1.56-.2 1.95-1.03 1.95h-.95c-.65 0-.91-.17-.91-.79v-2.1c-.37 1.13-1.14 2.23-2.71 3.06-.08-.15-.28-.4-.42-.5 2.5-1.3 2.81-3.19 2.81-4.74v-2.01h.64v2.03c0 .53-.04 1.1-.18 1.69h.48v2.5c0 .28.08.35.37.35zm10.96-6.94l-.6.24c-.14-.41-.48-1.04-.81-1.5l.56-.2c.34.45.7 1.06.85 1.46zm-4.01.9v1.35h-.66v-1.95h1.71c-.2-.37-.61-.91-.99-1.29l.55-.28c.4.39.86.94 1.05 1.32l-.47.25h3.92c.39-.49.86-1.19 1.13-1.71l.68.25c-.32.49-.73 1.02-1.08 1.46h1.78v1.95h-.68v-1.35h-6.94zm6.34 4.55h-.69v-2.99h-4.4v2.97h-.67v-3.57h5.76v3.59zm-3.27-1.48v-1.06h.68v1.08c0 1.15-.39 2.64-4.08 3.66-.08-.15-.28-.4-.44-.53 3.6-.9 3.84-2.19 3.84-3.15zm2.03 2.85h1.66c.39 0 .46-.13.5-1.06.14.11.41.21.6.25-.09 1.12-.29 1.4-1.04 1.4H20.7c-.92 0-1.16-.19-1.16-.87v-1.73h.66v1.73c0 .23.09.28.55.28zm11.77-3.15h2.97v-2.74h-2.97v2.74zm-3.65 0h2.96v-2.74h-2.96v2.74zm3.65-3.39h3.65v4.63h-.68v-.58h-2.97v3.26h-.69v-3.26h-2.96v.63h-.66v-4.68h3.62v-1.79h.69v1.79zm13.04 4.66h2.53v.57h-5.51v-.57h2.36v-1.77h-1.93v-.58h1.93v-1.51h-2.21v-.6h5.15v.6h-2.32v1.51h2.06v.58h-2.06v1.77zm.68-1.31l.44-.24c.38.33.83.8 1.03 1.12l-.45.27c-.2-.32-.64-.8-1.02-1.15zm-4.37 2.86h6.84v-6.91h-6.84v6.91zm-.67-7.53h8.2v8.66h-.69v-.51h-6.84v.51h-.67v-8.66zm15.06.91l-.59.24c-.14-.38-.46-.98-.74-1.42l.56-.19c.3.43.62 1 .77 1.37zm.56 2.32h.34s0 .22-.01.31c-.09 3.26-.18 4.33-.43 4.67-.14.2-.29.27-.52.29-.21.02-.53.03-.87 0-.01-.18-.07-.43-.15-.59.33.02.61.03.75.03.13 0 .2-.02.27-.14.17-.22.26-1.2.35-3.96h-1.14c-.11 1.92-.38 3.66-1.14 4.81-.1-.14-.31-.32-.48-.41.94-1.4 1.06-3.95 1.09-6.44h-1.02v-.6h3.39v.6h-1.77c-.01.48-.02.95-.04 1.42l1.38.01zm5.96-2.04h-4.39c-.27.54-.6 1.03-.96 1.41-.09-.11-.34-.31-.48-.41.66-.64 1.17-1.62 1.44-2.68l.6.14c-.1.33-.21.67-.34.98h4.13v.56zm-3.69 5.62l.6.19c-.4.63-1.06 1.27-1.65 1.69-.1-.11-.33-.32-.48-.41.59-.37 1.18-.91 1.53-1.47zm1.52.31l.45-.32c.57.44 1.28 1.07 1.62 1.5l-.48.38c-.33-.43-1.03-1.09-1.59-1.56zm-1.44-1.84v.77h2.07v-.77h-2.07zm2.07-2.4h-2.07v.7h2.07v-.7zm-2.07 1.17v.75h2.07v-.75h-2.07zm2.67 2h1.04v.56h-5.4v-.56h1.09v-3.17h-.62v-.56h.62v-.66h.6v.66h2.07v-.66h.6v.66h.76v.56h-.76v3.17zm14.08-5.11h-4.27v1.78l.11-.13c1.19.58 2.78 1.5 3.58 2.1l-.46.61c-.69-.57-2.07-1.41-3.23-2.02v5.33h-.7v-7.67h-3.86v-.67h8.83v.67zm8.71 4.94l-.45.42c-.2-.38-.48-.85-.8-1.35-.41.96-.91 1.78-1.53 2.43-.1-.1-.38-.29-.52-.38.71-.67 1.24-1.58 1.64-2.64-.45-.66-.94-1.32-1.4-1.89l.41-.36c.41.48.83 1.03 1.22 1.57.2-.68.36-1.4.48-2.18l.62.07c-.17.98-.39 1.89-.67 2.72.4.58.76 1.15 1 1.59zm2.94.36l-.48.38c-.2-.46-.5-1.02-.86-1.61-.4.97-.91 1.78-1.56 2.44-.12-.1-.38-.28-.53-.36.74-.69 1.29-1.61 1.7-2.7-.45-.67-.93-1.34-1.39-1.92l.44-.32c.4.47.8 1 1.17 1.55.2-.68.35-1.41.47-2.18l.6.08c-.16.99-.37 1.9-.65 2.72.46.7.84 1.38 1.09 1.92zm1.14-6.09v7.59c0 .44-.12.65-.43.76-.31.11-.83.13-1.73.12-.04-.18-.16-.47-.25-.66.67.03 1.31.02 1.49.02.18-.01.26-.07.26-.24v-6.96h-6.86v7.85h-.66v-8.48h8.18zm7.08.93l-.61.21c-.11-.41-.4-1.05-.67-1.52l.55-.18c.31.47.6 1.09.73 1.49zm.15 5.25l1.13-.27.07.6c-1.32.35-2.73.71-3.76.97l-.17-.65c.59-.13 1.35-.31 2.19-.51.25-1.08.52-2.85.65-4.08l.63.12c-.2 1.2-.47 2.76-.74 3.82zm-2.2-3.71l.53-.1c.24 1.16.47 2.62.53 3.61l-.57.11c-.05-.99-.25-2.47-.49-3.62zm-.41-.57v-.62h3.84v.62h-3.84zm7.82 5.49v-2.61h-3.12v2.61h3.12zm1.11-5.26h-2.57v2.02h2.14v4.3h-.68v-.44h-3.12v.48h-.65v-4.34h1.64v-4.77h.67v2.11h2.57v.64z" fill-rule="nonzero"></path></g></svg>
