<?xml version="1.0" encoding="UTF-8"?>
<svg width="790.3" height="188.7" version="1.1" viewBox="0 0 790.3 188.7" xmlns="http://www.w3.org/2000/svg">
<title>Goplay logo</title>
 <g transform="scale(11.8)" style="fill-rule:evenodd;fill:none">
  <path d="m0 0h67v16h-67z" style="fill-opacity:.01;fill:#fff"/>
  <g style="fill-rule:nonzero;fill:#000">
   <path d="m18.98 11.75a2.924 2.924 0 0 0 2.546 1.252c1.188 0 2.06-0.762 2.06-1.8v-0.546h-0.029c-0.65 0.64-1.538 0.974-2.445 0.921a3.957 3.957 0 0 1-3.515-1.939 4.01 4.01 0 0 1-0.036-4.033 3.958 3.958 0 0 1 3.48-2.003 3.393 3.393 0 0 1 2.516 0.893h0.03v-0.749h2.03v7.428c0 2.16-1.702 3.657-4.09 3.657a4.875 4.875 0 0 1-4.063-1.814zm4.52-4.62c0-0.865-0.972-1.657-2.059-1.657-1.374 0-2.289 0.836-2.289 2.088-0.04 0.593 0.181 1.175 0.606 1.588 0.425 0.414 1.01 0.618 1.597 0.557 1.187 0 2.145-0.749 2.145-1.685v-0.892zm7.439-3.6c2.474 0 4.277 1.77 4.277 4.031 0 2.26-1.803 4.03-4.277 4.03a4.007 4.007 0 0 1-3.695-1.934 4.061 4.061 0 0 1 0-4.192 4.007 4.007 0 0 1 3.695-1.935zm0 1.871a2.153 2.153 0 0 0-2.131 2.17 2.152 2.152 0 0 0 2.15 2.15 2.153 2.153 0 0 0 2.141-2.16 2.074 2.074 0 0 0-0.604-1.562 2.047 2.047 0 0 0-1.556-0.598zm5.422-1.655h2.03v0.677h0.03a3.363 3.363 0 0 1 2.445-0.893c2.181 0.04 3.93 1.829 3.934 4.024s-1.738 3.99-3.92 4.038a3.655 3.655 0 0 1-2.374-0.807h-0.028v3.83h-2.117zm4.177 1.67c-1.117 0-2.06 0.792-2.06 1.656v0.964c0 0.921 0.915 1.684 2.073 1.684a2.145 2.145 0 0 0 2.132-2.159 2.145 2.145 0 0 0-2.145-2.145zm5.377-4.55h2.118v10.51h-2.118zm6.68 5.96c1.388-0.186 1.803-0.388 1.803-0.777 0-0.504-0.53-0.806-1.345-0.806a1.789 1.789 0 0 0-1.888 1.368l-2.002-0.418c0.286-1.554 1.872-2.663 3.832-2.663 2.217 0 3.59 1.138 3.59 2.994v4.852h-1.9v-0.835h-0.029a3.12 3.12 0 0 1-2.56 1.05c-1.674 0-2.832-0.92-2.832-2.274 0-1.425 0.944-2.159 3.332-2.49zm1.974 0.807h-0.028c-0.186 0.273-0.586 0.432-1.616 0.619-1.245 0.23-1.688 0.475-1.688 0.921 0 0.461 0.371 0.663 1.173 0.663 1.216 0 2.16-0.562 2.16-1.296v-0.907zm5.851 3.325-3.505-7.212h2.331l2.303 4.98h0.029l2.274-4.98h2.346l-5.25 10.87h-2.331z"/>
  </g>
  <g transform="translate(0,1.483)" style="fill-rule:nonzero">
   <ellipse cx="6.814" cy="6.857" rx="6.814" ry="6.857" style="fill:#df1995"/>
   <path d="m5.824 10.33c-0.304 0.145-0.659 0.13-0.95-0.039a1.03 1.03 0 0 1-0.508-0.808 31.48 31.48 0 0 1 0-5.25 1.03 1.03 0 0 1 0.508-0.808c0.291-0.169 0.646-0.183 0.95-0.038a31.04 31.04 0 0 1 4.52 2.624 1.031 1.031 0 0 1 0 1.694 31.07 31.07 0 0 1-4.52 2.625z" style="fill:#fff"/>
  </g>
 </g>
</svg>