<?xml version="1.0" encoding="UTF-8"?>
<svg width="887.9" height="370.2" version="1.1" viewBox="0 0 887.9 370.2" xmlns="http://www.w3.org/2000/svg">
<title>GoTo Group logo</title>
 <g transform="translate(-.3367 382.4)">
  <path d="m97.41-12.65c-29.78-3.414-60.68-16.71-79.44-34.17-4.508-4.196-4.941-4.951-5.647-9.84-0.937-6.493 0.08096-46.5 1.201-47.19 0.4438-0.2742 3.793 2.44 7.444 6.031 15.81 15.56 41.1 28.58 66.14 34.05 10.27 2.246 32.41 2.778 42.47 1.021 32.51-5.677 57.23-30.21 60.31-59.88 0.3178-3.056 0.3007-5.556-0.038-5.556-0.3388 0-2.997 1.617-5.907 3.593-11.79 8.007-27.14 14.4-43.94 18.31-10.06 2.339-34.38 2.339-44.44 0-33.45-7.778-57.51-23.82-75.33-50.23-14.4-21.34-21.83-49.83-19.45-74.59 5.409-56.28 47.03-99.45 103.1-107 25.1-3.358 55.67 3.766 77.67 18.1 4.193 2.733 7.858 4.734 8.145 4.447s0.5221-4.055 0.5221-8.374v-7.852h43.54l0.231 41.56 0.231 41.56 3.373-9.657c6.204-17.76 15.19-32.6 27.01-44.62 16.36-16.62 34.41-26.97 56.66-32.49 43.13-10.69 89.41 4.565 117.7 38.82 10.56 12.77 17.99 26.59 22.91 42.61 1.626 5.3 1.638 4.913 1.864-61.56l0.2278-66.89h43.54v50.67h95.11v43.54l-94.67 0.46 4e-3 38.22c5e-3 42.55 0.1005 43.4 6.283 56.02 7.895 16.12 22.86 27.95 41.71 32.98 9.038 2.413 40.69 2.421 49.78 0.0128 18.5-4.9 33.47-16.86 41.35-33.02 4.484-9.197 5.894-15.85 6.591-31.08 0.3121-6.829 1.187-15.42 1.945-19.09 5.33-25.8 19.09-49.78 37.81-65.89 23.53-20.25 51.34-30.13 81.64-29 91.56 3.396 143.7 104.6 93.74 181.7-6.198 9.563-22.98 26.5-32.29 32.57-21.62 14.12-45.17 20.78-69.9 19.78-21.95-0.8879-40.98-6.768-58.67-18.13-9.248-5.938-20.02-15.31-26.26-22.86-3.044-3.68-5.806-6.691-6.138-6.691-0.3318 0-3.436 3.344-6.898 7.431-20.33 24-52.13 38.66-87.42 40.3-51.42 2.398-100.9-35.3-113.6-86.58-1.246-5.033-2.526-9.152-2.846-9.152s-1.255 3.1-2.079 6.889c-4.731 21.75-19.76 45.98-37.92 61.1-16.17 13.47-33.17 21.54-55.56 26.39-8.474 1.833-33.96 1.55-42.67-0.4726-33.2-7.719-58.17-24.5-75.53-50.76-6.155-9.312-9.246-15.65-13.46-27.59l-3.452-9.778-0.5526 40c-0.5658 40.96-0.7077 42.69-4.737 57.85-8.077 30.39-33.33 60.06-63 74.02-7.702 3.624-19.79 7.421-28.57 8.974-7.461 1.32-31.57 1.865-39.95 0.9041zm44.63-146.7c14.13-3.29 27.53-11.3 35.48-21.22 2.183-2.723 5.833-8.746 8.11-13.39l4.14-8.434v-39.13l-3.786-7.919c-8.734-18.27-22.34-29.28-42.44-34.34-7.042-1.774-10.24-2.016-26.67-2.025-16.33-9e-3 -19.56 0.2288-25.78 1.902-24.63 6.625-41.11 23.97-46.2 48.64-6.654 32.22 11.78 64.26 42.67 74.15 4.55 1.458 10.81 3.037 13.9 3.511 8.49 1.298 31.8 0.2959 40.56-1.744zm232.7-0.4035c22.25-5.617 38.34-20.46 45.51-41.97 2.026-6.079 2.31-8.416 2.352-19.36 0.0375-9.658-0.3264-13.74-1.625-18.22-6.726-23.22-22.6-38.58-45.87-44.39-15.75-3.931-43.02-3.344-57.47 1.239-19.96 6.33-34.82 22.08-40.47 42.89-1.439 5.304-1.88 9.519-1.886 18.03-9e-3 12.99 2.012 21.2 7.773 31.57 4.295 7.727 14.91 18.51 22.67 23.03 7.036 4.095 19.08 8.218 27.26 9.333 10.04 1.37 32.35 0.2173 41.75-2.157zm422 0.0786c22.79-5.789 39.02-21.31 46.09-44.07 1.708-5.505 2.065-8.603 2.046-17.78-0.0266-12.95-1.391-19.1-6.605-29.78-7.94-16.26-22.16-27.46-41.35-32.57-6.194-1.648-9.575-1.894-26.22-1.907-16.77-0.0127-19.98 0.2193-26.22 1.892-12.05 3.231-21.19 8.325-28.86 16.08-7.859 7.949-11.65 14.03-15.43 24.72-2.583 7.313-2.753 8.573-2.777 20.68-0.0299 14.62 0.9172 18.93 6.631 30.16 7.587 14.92 20.63 25.92 36.95 31.15 11.59 3.714 17.54 4.43 33.26 4.008 10.86-0.2918 15.62-0.8389 22.48-2.581z" style="fill:#1fca3e;stroke-width:.8889"/>
 </g>
</svg>