<?xml version="1.0" encoding="UTF-8" standalone="no"?>
<!-- Created with Inkscape (http://www.inkscape.org/) -->

<svg
   xmlns:dc="http://purl.org/dc/elements/1.1/"
   xmlns:cc="http://creativecommons.org/ns#"
   xmlns:rdf="http://www.w3.org/1999/02/22-rdf-syntax-ns#"
   xmlns:svg="http://www.w3.org/2000/svg"
   xmlns="http://www.w3.org/2000/svg"
   xmlns:sodipodi="http://sodipodi.sourceforge.net/DTD/sodipodi-0.dtd"
   xmlns:inkscape="http://www.inkscape.org/namespaces/inkscape"
   width="76.819382"
   height="20.699989"
   viewBox="0 0 20.325128 5.4768721"
   version="1.1"
   id="svg11693"
   inkscape:version="0.92.0 r15299"
   sodipodi:docname="rakuten overdrive.svg">
  <defs
     id="defs11687">
        
        
        
  
        
    
        
        
      
        
        
        
        
        
        
        
        
        
        
        
        
        
        
        
        
        
        
        
        
        
        
          </defs>
  <sodipodi:namedview
     id="base"
     pagecolor="#ffffff"
     bordercolor="#666666"
     borderopacity="1.0"
     inkscape:pageopacity="0.0"
     inkscape:pageshadow="2"
     inkscape:zoom="11.830748"
     inkscape:cx="37.909692"
     inkscape:cy="9.8499969"
     inkscape:document-units="mm"
     inkscape:current-layer="layer1"
     showgrid="false"
     fit-margin-top="0"
     fit-margin-left="0"
     fit-margin-right="0"
     fit-margin-bottom="0"
     units="px"
     inkscape:window-width="1280"
     inkscape:window-height="744"
     inkscape:window-x="-4"
     inkscape:window-y="-4"
     inkscape:window-maximized="1" />
  <metadata
     id="metadata11690">
    <rdf:RDF>
      <cc:Work
         rdf:about="">
        <dc:format>image/svg+xml</dc:format>
        <dc:type
           rdf:resource="http://purl.org/dc/dcmitype/StillImage" />
        <dc:title></dc:title>
      </cc:Work>
    </rdf:RDF>
  </metadata>
  <g
     inkscape:label="Layer 1"
     inkscape:groupmode="layer"
     id="layer1"
     transform="translate(129.47075,-241.96856)">
    <g
       id="g11917"
       transform="translate(0.13229135,-0.13228927)">
      <path
         style="fill:#006693;fill-opacity:1;stroke-width:0.26458332"
         id="path11699"
         d="m -128.3595,243.00043 h -0.15875 v 0.37042 h 0.15875 c 0.10583,0 0.18521,-0.0794 0.18521,-0.18521 0,-0.10583 -0.0794,-0.18521 -0.18521,-0.18521 z"
         class="r_logo"
         inkscape:connector-curvature="0" />
      <path
         style="fill:#006693;fill-opacity:1;stroke-width:0.26458332"
         id="path11701"
         d="m -128.3595,242.2596 c -0.60854,0 -1.11125,0.50271 -1.11125,1.11125 0,0.60854 0.50271,1.11125 1.11125,1.11125 0.60854,0 1.11125,-0.50271 1.11125,-1.11125 0,-0.60854 -0.50271,-1.11125 -1.11125,-1.11125 z m 0.29104,1.69333 -0.26458,-0.37042 h -0.18521 v 0.37042 h -0.21167 v -1.19062 h 0.37042 c 0.21167,0 0.39687,0.1852 0.39687,0.42333 0,0.13229 -0.0794,0.26458 -0.1852,0.34396 l 0.34395,0.44979 h -0.26458 z"
         class="r_logo"
         inkscape:connector-curvature="0" />
      <g
         id="g11894">
        <path
           id="path11705"
           d="m -119.787,243.90001 c -0.0265,0.0529 -0.0529,0.10584 -0.15875,0.10584 -0.0529,0 -0.15875,-0.0265 -0.15875,-0.18521 v -0.68792 h 0.55562 v -0.37041 h -0.55562 v -0.39688 h -0.37042 v 0.39688 h -0.26458 v 0.37041 h 0.26458 v 0.68792 c 0,0.34396 0.29104,0.55562 0.55563,0.55562 0.26458,0 0.44979,-0.1852 0.52916,-0.39687 z"
           class="rakuten"
           inkscape:connector-curvature="0"
           style="stroke-width:0.26458332" />
        <path
           id="path11707"
           d="m -124.47013,242.76231 v 0.0794 c -0.10583,-0.0794 -0.23812,-0.13229 -0.37041,-0.13229 -0.42334,0 -0.74084,0.37042 -0.74084,0.84667 0,0.44979 0.34396,0.84666 0.74084,0.84666 0.13229,0 0.26458,-0.0529 0.37041,-0.10583 v 0.0529 h 0.37042 v -1.5875 z m -0.37041,1.24354 c -0.21167,0 -0.37042,-0.21167 -0.37042,-0.44979 0,-0.26459 0.15875,-0.4498 0.37042,-0.4498 0.21166,0 0.37041,0.21167 0.37041,0.4498 0,0.26458 -0.15875,0.44979 -0.37041,0.44979 z"
           class="rakuten"
           inkscape:connector-curvature="0"
           style="stroke-width:0.26458332" />
        <path
           id="path11709"
           d="m -121.26867,242.76231 v 0.92604 c 0,0.18521 -0.13229,0.3175 -0.3175,0.3175 -0.18521,0 -0.3175,-0.13229 -0.3175,-0.3175 v -0.92604 h -0.37041 v 0.92604 c 0,0.39687 0.3175,0.68791 0.68791,0.68791 0.10584,0 0.21167,-0.0265 0.3175,-0.0794 v 0.0529 h 0.37042 v -1.5875 z"
           class="rakuten"
           inkscape:connector-curvature="0"
           style="stroke-width:0.26458332" />
        <path
           id="path11711"
           d="m -117.06179,242.70939 c -0.10584,0 -0.21167,0.0265 -0.3175,0.0794 v -0.0264 h -0.37042 v 1.5875 h 0.37042 v -0.92605 c 0,-0.1852 0.13229,-0.3175 0.3175,-0.3175 0.18521,0 0.3175,0.1323 0.3175,0.3175 v 0.92605 h 0.37041 v -0.92605 c 0.0265,-0.39687 -0.29104,-0.71437 -0.68791,-0.71437 z"
           class="rakuten"
           inkscape:connector-curvature="0"
           style="stroke-width:0.26458332" />
        <path
           id="path11713"
           d="m -117.90846,243.55606 c 0,-0.4498 -0.34396,-0.84667 -0.74083,-0.84667 -0.42334,0 -0.74084,0.37042 -0.74084,0.84667 0,0.5027 0.42334,0.84666 0.79375,0.84666 0.18521,0 0.4498,-0.0529 0.66146,-0.34396 l -0.3175,-0.1852 c -0.29104,0.34395 -0.66146,0.10583 -0.71437,-0.18521 h 1.05833 c 0,-0.0529 0,-0.10584 0,-0.13229 z m -0.42333,-0.21167 h -0.635 c 0.0794,-0.3175 0.55562,-0.39688 0.635,0 z"
           class="rakuten"
           inkscape:connector-curvature="0"
           style="stroke-width:0.26458332" />
        <polygon
           id="polygon11715"
           points="26.8,2 24.8,2 22.6,4.2 22.6,0 21.2,0 21.2,8 22.6,8 22.6,5.5 25.2,8 27.2,8 24,4.8 "
           class="rakuten"
           transform="matrix(0.26458333,0,0,0.26458333,-129.47075,242.23314)" />
        <path
           id="path11717"
           d="m -126.66617,244.34981 v -0.60855 h 0.26459 l 0.47625,0.60855 h 0.47625 l -0.55563,-0.74084 c 0.18521,-0.13229 0.29104,-0.3175 0.29104,-0.55562 0,-0.37042 -0.3175,-0.68792 -0.68791,-0.68792 h -0.635 v 1.98438 z m 0,-1.61396 h 0.23813 c 0.15875,0 0.3175,0.13229 0.3175,0.3175 0,0.15875 -0.13229,0.3175 -0.3175,0.3175 h -0.23813 z"
           class="rakuten"
           inkscape:connector-curvature="0"
           style="stroke-width:0.26458332" />
      </g>
      <g
         style="fill:#006693;fill-opacity:1"
         id="g11885">
        <path
           id="path11721"
           d="m -125.29033,244.85251 c 0.84666,0 1.42875,0.55563 1.27,1.29646 -0.15875,0.71438 -0.97896,1.29646 -1.82563,1.29646 -0.84667,0 -1.42875,-0.58208 -1.27,-1.29646 0.15875,-0.71437 0.97896,-1.29646 1.82563,-1.29646 m -0.47625,2.16959 c 0.55562,0 1.08479,-0.39688 1.19062,-0.87313 0.10583,-0.47625 -0.26458,-0.87312 -0.82021,-0.87312 -0.55562,0 -1.08479,0.39687 -1.19062,0.87312 -0.0794,0.47625 0.26458,0.87313 0.82021,0.87313"
           class="overdrive"
           inkscape:connector-curvature="0"
           style="fill:#006693;fill-opacity:1;stroke-width:0.26458332" />
        <polygon
           style="fill:#006693;fill-opacity:1"
           id="polygon11723"
           points="23.2,12.5 24.2,17.1 27.2,12.5 29.4,12.5 24.4,19.5 22.8,19.5 21,12.5 "
           class="overdrive"
           transform="matrix(0.26458333,0,0,0.26458333,-129.47075,242.23314)" />
        <path
           id="path11725"
           d="m -121.55971,246.65168 c 0,0.13229 0.15875,0.37042 0.52917,0.37042 0.23812,0 0.42333,-0.0794 0.55562,-0.23813 h 0.55563 c -0.21167,0.34396 -0.68792,0.66146 -1.21709,0.66146 -0.68791,0 -1.08479,-0.44979 -0.9525,-0.97896 0.10584,-0.52916 0.68792,-1.00541 1.37584,-1.00541 0.71437,0 1.03187,0.5027 0.92604,0.97895 -0.0265,0.0794 -0.0529,0.15875 -0.0794,0.23813 h -1.69333 z m 1.27,-0.34396 c 0,-0.29104 -0.21167,-0.42333 -0.50271,-0.42333 -0.21166,0 -0.55562,0.0794 -0.71437,0.42333 z"
           class="overdrive"
           inkscape:connector-curvature="0"
           style="fill:#006693;fill-opacity:1;stroke-width:0.26458332" />
        <path
           id="path11727"
           d="m -119.39013,245.54043 h 0.47625 l -0.0264,0.15875 v 0 c 0.13229,-0.13229 0.23812,-0.23812 0.52916,-0.23812 h 0.0529 l -0.10583,0.42333 c -0.47625,0.0265 -0.55563,0.34396 -0.58209,0.44979 l -0.23812,1.05833 h -0.52917 z"
           class="overdrive"
           inkscape:connector-curvature="0"
           style="fill:#006693;fill-opacity:1;stroke-width:0.26458332" />
        <path
           id="path11729"
           d="m -118.09367,244.90543 h 0.66146 c 0.71438,0 1.00542,0.15875 1.13771,0.29104 0.23812,0.21167 0.37042,0.58209 0.26458,0.9525 -0.10583,0.44979 -0.47625,0.87313 -0.9525,1.08479 -0.29104,0.1323 -0.68791,0.15875 -1.00541,0.15875 h -0.68792 z m 0.0794,2.06375 h 0.10583 c 0.29104,0 0.50271,-0.0265 0.74083,-0.13229 0.3175,-0.13229 0.52917,-0.42333 0.58209,-0.68792 0.0529,-0.23812 -0.0265,-0.47625 -0.18521,-0.60854 -0.18521,-0.18521 -0.47625,-0.21167 -0.82021,-0.21167 h -0.10583 z"
           class="overdrive"
           inkscape:connector-curvature="0"
           style="fill:#006693;fill-opacity:1;stroke-width:0.26458332" />
        <path
           id="path11731"
           d="m -115.71242,245.54043 h 0.47625 l -0.0265,0.15875 v 0 c 0.1323,-0.13229 0.23813,-0.23812 0.52917,-0.23812 h 0.0529 l -0.10584,0.42333 c -0.47625,0.0265 -0.55562,0.34396 -0.58208,0.44979 l -0.23812,1.05833 h -0.52917 z"
           class="overdrive"
           inkscape:connector-curvature="0"
           style="fill:#006693;fill-opacity:1;stroke-width:0.26458332" />
        <path
           id="path11733"
           d="m -114.57471,245.54043 h 0.52917 l -0.42334,1.87854 h -0.52916 z m 0.15875,-0.635 h 0.52917 l -0.0794,0.39688 h -0.52916 z"
           class="overdrive"
           inkscape:connector-curvature="0"
           style="fill:#006693;fill-opacity:1;stroke-width:0.26458332" />
        <polygon
           style="fill:#006693;fill-opacity:1"
           id="polygon11735"
           points="60.6,19.5 58.8,12.5 60.9,12.5 61.9,17.1 62,17.1 64.9,12.5 67.1,12.5 62.2,19.5 "
           class="overdrive"
           transform="matrix(0.26458333,0,0,0.26458333,-129.47075,242.23314)" />
        <path
           id="path11737"
           d="m -111.55846,246.65168 c 0,0.13229 0.15875,0.37042 0.52917,0.37042 0.23812,0 0.42333,-0.0794 0.55562,-0.23813 h 0.58209 c -0.21167,0.34396 -0.68792,0.66146 -1.21709,0.66146 -0.68791,0 -1.08479,-0.44979 -0.9525,-0.97896 0.10584,-0.52916 0.68792,-1.00541 1.37584,-1.00541 0.71437,0 1.03187,0.5027 0.92604,0.97895 -0.0265,0.0794 -0.0529,0.15875 -0.0794,0.23813 h -1.71979 z m 1.29646,-0.34396 c 0,-0.29104 -0.21167,-0.42333 -0.50271,-0.42333 -0.21167,0 -0.55562,0.0794 -0.71437,0.42333 z"
           class="overdrive"
           inkscape:connector-curvature="0"
           style="fill:#006693;fill-opacity:1;stroke-width:0.26458332" />
        <path
           id="path11739"
           d="m -109.41533,245.48751 c -0.0265,0.10584 -0.1323,0.18521 -0.23813,0.18521 -0.10583,0 -0.18521,-0.0794 -0.15875,-0.18521 0.0265,-0.10583 0.13229,-0.1852 0.23813,-0.1852 0.10583,-0.0265 0.1852,0.0794 0.15875,0.1852 m -0.34396,0 c -0.0265,0.0794 0.0265,0.15875 0.13229,0.15875 0.0794,0 0.15875,-0.0794 0.18521,-0.15875 0.0265,-0.0794 -0.0265,-0.15875 -0.13229,-0.15875 -0.0794,0 -0.15875,0.0794 -0.18521,0.15875 m 0.18521,-0.10583 c 0.0264,0 0.0794,0 0.0794,0.0529 0,0.0265 -0.0265,0.0529 -0.0529,0.0529 v 0 c 0.0265,0 0.0265,0.0265 0.0265,0.0529 0,0.0265 0,0.0529 0,0.0529 h -0.0529 c 0,0 0,0 0,-0.0529 0,-0.0265 0,-0.0529 -0.0265,-0.0529 h -0.0529 l -0.0265,0.0794 h -0.0529 l 0.0529,-0.21167 h 0.10584 z m -0.0794,0.0794 h 0.0529 c 0.0265,0 0.0529,0 0.0529,-0.0265 0,-0.0265 -0.0264,-0.0265 -0.0264,-0.0265 h -0.0529 z"
           class="overdrive"
           inkscape:connector-curvature="0"
           style="fill:#006693;fill-opacity:1;stroke-width:0.26458332" />
      </g>
    </g>
  </g>
</svg>
