<?xml version="1.0" encoding="UTF-8"?>
<!--Generator: Adobe Illustrator 22.1.0, SVG Export Plug-In . SVG Version: 6.00 Build 0)-->
<svg id="Layer_1" width="506.75" height="77.45" inkscape:version="0.92.4 (5da689c313, 2019-01-14)" sodipodi:docname="Viber_logo_2018r.svg" viewBox="0 0 506.745 77.453" xmlns="http://www.w3.org/2000/svg" xmlns:inkscape="http://www.inkscape.org/namespaces/inkscape" xmlns:sodipodi="http://sodipodi.sourceforge.net/DTD/sodipodi-0.dtd">
 <sodipodi:namedview bordercolor="#666666" borderopacity="1" gridtolerance="10" guidetolerance="10" inkscape:current-layer="Layer_1" inkscape:cx="253.745" inkscape:cy="38.5" inkscape:pageopacity="0" inkscape:pageshadow="2" inkscape:window-height="480" inkscape:window-maximized="0" inkscape:window-width="640" inkscape:window-x="0" inkscape:window-y="0" inkscape:zoom=".256" objecttolerance="10" pagecolor="#ffffff" showgrid="false"/>
 <g id="g84" transform="translate(-429.26 -345.05)">
  <g id="g70">
   <g id="g60">
    <g id="g26">
     <g id="g24">
      <g id="g22">
       <g id="g20" fill="#655cac">
        <path id="polygon4" d="m581.2 422.5 136.1-11.7h-147.9z"/>
        <path id="path6" d="m583.1 363.1v1.8c-2.7-1.8-5.2-2.8-8.6-2.8-10.4 0-18.2 9.5-18.2 21.1s7.9 21.1 18.2 21.1c3.4 0 5.8-1 8.6-2.8v1.8h9.1v-40.1h-9.1zm-8.6 31.5c-5.1 0-8.9-5-8.9-11.4s3.7-11.4 8.9-11.4c5.1 0 8.7 5 8.7 11.4 0 6.3-3.6 11.4-8.7 11.4z" inkscape:connector-curvature="0"/>
        <path id="path8" d="m656.1 363.1v23.6c0 4.4-3 8.2-7.5 8.2-4.4 0-7.5-3.7-7.5-8.2v-23.6h-9.1v23.6c0 9.7 6.6 17.5 16.3 17.5 4.5 0 7.7-2.5 7.7-2.5v1.5h9.1v-40.1z" inkscape:connector-curvature="0"/>
        <path id="path10" d="m741 403.2v-23.6c0-4.4 3-8.2 7.5-8.2 4.4 0 7.5 3.7 7.5 8.2v23.6h9.1v-23.6c0-9.7-6.6-17.5-16.3-17.5-4.5 0-7.7 2.5-7.7 2.5v-1.5h-9.1v40.1z" inkscape:connector-curvature="0"/>
        <path id="path12" d="m530 403.2v-15.6h6.7l11.7 15.6h11.9l-14.1-18.8c4.4-3.2 7.3-8.3 7.3-14.1 0-9.5-7.8-17.3-17.3-17.3h-15.7v50.1h9.5zm0-40.6h6.2c4.3 0 7.8 3.5 7.8 7.8s-3.5 7.8-7.8 7.8h-6.2z" inkscape:connector-curvature="0"/>
        <path id="path14" d="m689.7 393.7c-.8.6-1.9 1-3 1-1.5 0-4.3-1.1-4.3-4.9v-17.2h7.8v-9.5h-7.8v-10h-9.1v10h-4.8v9.5h4.8v17.3c0 9 6.8 14.3 13.5 14.3 2.5 0 6-.8 8.9-2.5z" inkscape:connector-curvature="0"/>
        <path id="polygon16" d="m617.7 363.1-10.9 14v-27.3h-9.4v53.4h9.4v-16.4l13.4 16.4h12.8l-18.2-21.3 15.7-18.8z"/>
        <path id="path18" d="m710.8 362.1c-10.5 0-18.1 9.3-18.1 21.1 0 12.4 9.5 21.1 19 21.1 4.8 0 11-1.6 16.1-9l-8-4.6c-6.2 9.2-16.6 4.5-17.8-4.7h26.2c2.3-14.4-7.1-23.9-17.4-23.9zm7.9 15.9h-16.4c1.9-9.4 14.7-10 16.4 0z" inkscape:connector-curvature="0"/>
       </g>
      </g>
     </g>
    </g>
    <g id="g58">
     <g id="g56">
      <g id="g54">
       <g id="g52">
        <g id="g30">
         <path id="path28" d="m794.3 399.8-14.7-36.6c-.2-.5-.4-1-.5-1.5s-.2-1.1-.2-1.6c0-1.6.5-2.8 1.6-3.9 1.1-1 2.4-1.5 4.1-1.5 1.2 0 2.2.4 2.9 1.1.8.7 1.5 1.9 2.1 3.6l10 26.9 9.6-26.5c.6-1.9 1.4-3.2 2.2-4 .8-.7 1.9-1.1 3.2-1.1 1.7 0 3 .4 3.9 1.3s1.4 2.1 1.4 3.7c0 .6-.1 1.2-.2 1.9-.1.6-.3 1.3-.5 1.9l-14.2 35.9c-.6 1.6-1.4 2.8-2.2 3.5-.9.7-2 1.1-3.3 1.1s-2.3-.3-3.1-1c-.7-.7-1.4-1.7-2.1-3.2z" fill="#655cac" inkscape:connector-curvature="0"/>
        </g>
        <g id="g34">
         <path id="path32" d="m833 396.6c0 2.5-.4 4.3-1.2 5.5s-2.1 1.8-3.7 1.8c-1.7 0-3-.6-3.8-1.8s-1.2-3-1.2-5.5v-20.2c0-2.5.4-4.3 1.2-5.5s2.1-1.8 3.8-1.8 2.9.6 3.7 1.8 1.2 3 1.2 5.5z" fill="#655cac" inkscape:connector-curvature="0"/>
        </g>
        <g id="g38">
         <path id="path36" d="m848.2 369.4c1.2-1 2.5-1.8 3.9-2.3s2.9-.8 4.5-.8c4.6 0 8.5 1.8 11.7 5.5 3.2 3.6 4.7 8.2 4.7 13.7 0 5.2-1.6 9.6-4.9 13.2-3.2 3.6-7.1 5.5-11.5 5.5-1.8 0-3.4-.3-4.9-.9s-2.7-1.5-3.8-2.7c-.7 1.1-1.4 2-2.3 2.6-.8.6-1.8.9-2.8.9-1.8 0-3.1-.6-4-1.9s-1.3-3.2-1.3-5.9v-33.8c0-2.6.4-4.6 1.3-5.9s2.2-1.9 4-1.9 3.2.6 4 1.9c.9 1.3 1.3 3.2 1.3 5.9v6.9zm-.8 15.9c0 2.9.7 5.3 2.1 7 1.4 1.8 3.3 2.7 5.5 2.7s4.1-.9 5.5-2.7 2.2-4.1 2.2-7-.7-5.3-2.1-7.1-3.3-2.7-5.5-2.7c-2.3 0-4.1.9-5.5 2.7-1.5 1.8-2.2 4.2-2.2 7.1z" fill="#655cac" inkscape:connector-curvature="0"/>
        </g>
        <g id="g42">
         <path id="path40" d="m885 388.3c.2 2 1.7 3.6 3.1 4.7s3.3 1.7 5.6 1.7c2 0 4.2-.6 6.7-1.7 2.5-1.2 4-1.7 4.5-1.7 1.3 0 2.3.4 3.1 1.2s1.2 1.8 1.2 3c0 2.3-1.6 4.3-4.8 6.2-3.2 1.8-7 2.8-11.3 2.8-5.3 0-9.7-1.8-13.2-5.4s-5.3-8.1-5.3-13.5 1.7-10 5.1-13.6 7.7-5.4 12.8-5.4c4.9 0 9.1 1.7 12.4 5.1s5 7.6 5 12.5c0 1.6-.4 2.7-1.1 3.4-.7.6-2.1 1-4.2 1h-19.6zm-.4-6.3h15.7c-.1-2-.9-4-2.4-5.4-1.5-1.3-3.2-2-5.2-2s-3.9.6-5.3 1.9c-1.5 1.3-2.4 3.4-2.8 5.5z" fill="#655cac" inkscape:connector-curvature="0"/>
        </g>
        <g id="g46">
         <path id="path44" d="m912.9 396.1v-21.5c0-2.6.4-4.6 1.3-5.8.9-1.3 2.2-1.9 4-1.9 1.1 0 2 .3 2.9.8.8.6 1.6 1.4 2.2 2.6 1.1-1.2 2.3-2.1 3.5-2.7s2.5-.9 3.7-.9c1.5 0 2.7.5 3.8 1.6 1.1 1 1.6 2.3 1.6 3.7 0 2.1-2 3.9-5.9 5.4-1.4.5-2.5.9-3.2 1.3-1.3.6-2.2 1.3-2.7 2.1-.4.8-.7 2.2-.7 4.2v11.1c0 2.6-.4 4.6-1.3 5.9s-2.2 1.9-4 1.9-3.1-.6-4-1.9c-.7-1.3-1.2-3.3-1.2-5.9z" fill="#655cac" inkscape:connector-curvature="0"/>
        </g>
        <g id="g50">
         <path id="path48" d="m822.7 360.2c0-1.5.6-2.8 1.7-3.9s2.4-1.6 4-1.6c1.5 0 2.8.5 3.9 1.6s1.6 2.4 1.6 3.9-.5 2.9-1.6 3.9c-1.1 1.1-2.4 1.6-3.9 1.6-1.6 0-2.9-.5-4-1.6-1.2-1-1.7-2.3-1.7-3.9z" fill="#655cac" inkscape:connector-curvature="0"/>
        </g>
       </g>
      </g>
     </g>
    </g>
   </g>
   <g id="g68">
    <g id="g66">
     <g id="g64">
      <path id="rect62" d="m520.5 353.1h415.5v57.7h-415.5z" fill="none"/>
     </g>
    </g>
   </g>
  </g>
  <g id="g82">
   <path id="path72" d="m493.4 352.5c-1.9-1.7-9.5-7.3-26.6-7.4 0 0-20.1-1.2-29.9 7.8-5.5 5.5-7.4 13.4-7.6 23.3s-.5 28.4 17.4 33.5v7.7s-.1 3.1 1.9 3.7c2.5.8 3.9-1.6 6.3-4.1 1.3-1.4 3.1-3.4 4.4-5 12.2 1 21.6-1.3 22.7-1.7 2.5-.8 16.4-2.6 18.7-21.1 2.4-19.2-1-31.3-7.3-36.7zm2.1 35.2c-1.9 15.5-13.2 16.5-15.3 17.1-.9.3-9.1 2.3-19.5 1.7 0 0-7.7 9.3-10.2 11.8-.4.4-.8.5-1.1.5-.4-.1-.5-.6-.5-1.3 0-1 .1-12.8.1-12.8-15.1-4.2-14.2-20-14.1-28.3.2-8.3 1.7-15 6.3-19.6 8.3-7.5 25.4-6.4 25.4-6.4 14.4.1 21.3 4.4 22.9 5.9 5.2 4.6 7.9 15.5 6 31.4z" fill="#665ca7" inkscape:connector-curvature="0"/>
   <path id="path74" d="m473.8 375.8c-.2-3.8-2.1-5.8-5.8-6" fill="none" stroke="#665ca7" stroke-linecap="round" stroke-linejoin="round" stroke-width="1.927" inkscape:connector-curvature="0"/>
   <path id="path76" d="m478.8 377.4c.1-3.5-1-6.5-3.1-8.8-2.2-2.4-5.2-3.7-9-4" fill="none" stroke="#665ca7" stroke-linecap="round" stroke-linejoin="round" stroke-width="1.927" inkscape:connector-curvature="0"/>
   <path id="path78" d="m483.8 379.4c0-6.1-1.9-10.9-5.5-14.4s-8.1-5.3-13.5-5.3" fill="none" stroke="#665ca7" stroke-linecap="round" stroke-linejoin="round" stroke-width="1.927" inkscape:connector-curvature="0"/>
   <path id="path80" d="m468.2 388.7s1.4.1 2.1-.8l1.4-1.8c.7-.9 2.3-1.5 4-.6.9.5 2.5 1.5 3.5 2.3 1.1.8 3.3 2.6 3.3 2.6 1.1.9 1.3 2.2.6 3.6-.7 1.3-1.7 2.5-3 3.6-1 .9-2 1.3-3 1.5h-.4c-.4 0-.9-.1-1.3-.2-1.5-.4-4-1.5-8.3-3.8-2.7-1.5-5-3.1-6.9-4.6-1-.8-2.1-1.7-3.1-2.8l-.4-.4c-1.1-1.1-2-2.1-2.8-3.1-1.5-1.9-3.1-4.2-4.6-6.9-2.3-4.2-3.4-6.7-3.8-8.3-.1-.4-.2-.8-.2-1.3v-.4c.1-1 .6-2 1.5-3 1.1-1.2 2.3-2.2 3.6-3 1.4-.7 2.7-.5 3.6.6 0 0 1.8 2.2 2.6 3.3.7 1 1.7 2.6 2.3 3.5.9 1.6.3 3.3-.5 4l-1.8 1.4c-.9.7-.8 2.1-.8 2.1s2.5 9.9 12.4 12.5z" fill="#665ca7" inkscape:connector-curvature="0"/>
  </g>
 </g>
</svg>
