<?xml version="1.0" encoding="UTF-8" standalone="no"?>
<!-- Created with Inkscape (http://www.inkscape.org/) -->

<svg
   xmlns:dc="http://purl.org/dc/elements/1.1/"
   xmlns:cc="http://creativecommons.org/ns#"
   xmlns:rdf="http://www.w3.org/1999/02/22-rdf-syntax-ns#"
   xmlns:svg="http://www.w3.org/2000/svg"
   xmlns="http://www.w3.org/2000/svg"
   xmlns:sodipodi="http://sodipodi.sourceforge.net/DTD/sodipodi-0.dtd"
   xmlns:inkscape="http://www.inkscape.org/namespaces/inkscape"
   width="293.29999"
   height="35.300018"
   viewBox="0 0 77.602291 9.3397967"
   version="1.1"
   id="svg141"
   inkscape:version="0.92.0 r15299"
   sodipodi:docname="rakuten viki.svg">
  <defs
     id="defs135">
	
	
	
	
	
	
	
	
	
	
	
	
	
	
</defs>
  <sodipodi:namedview
     id="base"
     pagecolor="#ffffff"
     bordercolor="#666666"
     borderopacity="1.0"
     inkscape:pageopacity="0.0"
     inkscape:pageshadow="2"
     inkscape:zoom="3.068765"
     inkscape:cx="146.15"
     inkscape:cy="17.150012"
     inkscape:document-units="mm"
     inkscape:current-layer="layer1"
     showgrid="false"
     fit-margin-top="0"
     fit-margin-left="0"
     fit-margin-right="0"
     fit-margin-bottom="0"
     units="px"
     inkscape:window-width="1280"
     inkscape:window-height="744"
     inkscape:window-x="-4"
     inkscape:window-y="-4"
     inkscape:window-maximized="1" />
  <metadata
     id="metadata138">
    <rdf:RDF>
      <cc:Work
         rdf:about="">
        <dc:format>image/svg+xml</dc:format>
        <dc:type
           rdf:resource="http://purl.org/dc/dcmitype/StillImage" />
        <dc:title></dc:title>
      </cc:Work>
    </rdf:RDF>
  </metadata>
  <g
     inkscape:label="Layer 1"
     inkscape:groupmode="layer"
     id="layer1"
     transform="translate(87.805756,-280.10258)">
    <path
       style="display:none;fill:none;stroke-width:0.26458332"
       inkscape:connector-curvature="0"
       class="st0"
       d="m -89.895966,277.45674 h 81.544582 c 0.5027083,0 0.8995833,0.39688 0.8995833,0.89959 v 13.2027 c 0,0.50271 -0.396875,0.89959 -0.8995833,0.89959 h -81.544582 c -0.502709,0 -0.899584,-0.39688 -0.899584,-0.89959 v -13.2027 c 0,-0.50271 0.396875,-0.89959 0.899584,-0.89959 z"
       id="path147" />
    <rect
       id="rect149"
       height="8.9958334"
       width="77.337708"
       class="st1"
       y="280.31424"
       x="-87.673462"
       style="fill:none;stroke-width:0.26458332" />
    <circle
       id="circle151"
       r="4.4979167"
       cy="284.81216"
       cx="-83.175545"
       class="st2"
       style="fill:#0c9bff;stroke-width:0.26458332" />
    <path
       id="path153"
       d="m -83.757635,287.24633 v -1.50813 h 0.661459 l 1.11125,1.50813 h 1.137708 l -1.349375,-1.79917 c 0.740833,-0.52917 0.926042,-1.56104 0.396875,-2.32833 -0.3175,-0.44979 -0.820208,-0.71438 -1.375833,-0.71438 h -1.508125 v 4.84188 z m 0,-3.91584 h 0.582084 c 0.423333,0 0.740833,0.34396 0.740833,0.74084 0,0.42333 -0.343958,0.74083 -0.740833,0.74083 h -0.582084 z"
       class="st3"
       inkscape:connector-curvature="0"
       style="fill:#ffffff;stroke-width:0.26458332" />
    <path
       id="path155"
       d="m -48.303468,287.06112 c -0.15875,0.34396 -0.555625,0.52917 -0.926042,0.37042 -0.291042,-0.1323 -0.449792,-0.42334 -0.423333,-0.71438 v -2.80458 h 2.275416 v -1.53459 h -2.275416 v -1.61395 h -1.508125 v 1.61395 h -1.084792 v 1.53459 h 1.084792 v 2.80458 c -0.02646,1.24354 0.9525,2.24896 2.196041,2.27542 0.978959,0.0265 1.878542,-0.60854 2.169583,-1.53459 z"
       inkscape:connector-curvature="0"
       style="stroke-width:0.26458332" />
    <path
       id="path157"
       d="m -67.300552,282.37799 v 0.29105 c -0.449791,-0.29105 -0.978958,-0.4498 -1.508125,-0.4498 -1.666875,0 -3.042708,1.53459 -3.042708,3.38667 0,1.85208 1.375833,3.41313 3.042708,3.41313 0.529167,0 1.058334,-0.15875 1.508125,-0.4498 v 0.29105 h 1.534584 v -6.4823 z m -1.508125,5.10646 c -0.820208,0 -1.508125,-0.84666 -1.508125,-1.85208 0,-1.00542 0.661459,-1.85208 1.508125,-1.85208 0.846667,0 1.508125,0.8202 1.508125,1.82562 0,1.00542 -0.661458,1.87854 -1.508125,1.87854 z"
       inkscape:connector-curvature="0"
       style="stroke-width:0.26458332" />
    <path
       id="path159"
       d="m -54.335968,282.37799 v 3.81 c -0.02646,0.71438 -0.635,1.27 -1.349375,1.24355 -0.661459,-0.0265 -1.217084,-0.55563 -1.243542,-1.24355 v -3.81 h -1.534583 v 3.81 c 0,1.56105 1.27,2.83105 2.831041,2.83105 0.449792,0 0.899584,-0.10584 1.296459,-0.3175 v 0.15875 h 1.534583 v -6.4823 z"
       inkscape:connector-curvature="0"
       style="stroke-width:0.26458332" />
    <path
       id="path161"
       d="m -37.138052,282.21924 c -0.449792,0 -0.899583,0.10584 -1.296458,0.3175 v -0.15875 h -1.534584 v 6.4823 h 1.534584 v -3.81 c -0.02646,-0.71438 0.529166,-1.32292 1.243541,-1.34938 0.714375,-0.0265 1.322917,0.52917 1.349375,1.24354 0,0.0265 0,0.0794 0,0.10584 v 3.81 h 1.534584 v -3.81 c 0,-1.56105 -1.27,-2.83105 -2.831042,-2.83105 z"
       inkscape:connector-curvature="0"
       style="stroke-width:0.26458332" />
    <path
       id="path163"
       d="m -40.577635,285.60591 c 0,-1.87854 -1.349375,-3.41312 -3.042709,-3.41312 -1.693333,0 -3.042708,1.53458 -3.042708,3.41312 0,2.01083 1.719792,3.41313 3.254375,3.41313 1.084792,0 2.090208,-0.55563 2.672292,-1.45521 l -1.349375,-0.76729 c -1.137709,1.37583 -2.725209,0.44979 -2.883959,-0.74084 h 4.339167 c 0.02646,-0.13229 0.05292,-0.29104 0.05292,-0.44979 z m -1.74625,-0.89958 h -2.592917 c 0.291042,-1.27 2.301875,-1.53459 2.592917,0 z"
       inkscape:connector-curvature="0"
       style="stroke-width:0.26458332" />
    <polygon
       id="polygon165"
       points="92.1,22.2 102.5,32.6 110.7,32.6 97.7,19.6 109.2,8.1 101,8.1 92.1,17 92.1,0 86.3,0 86.3,32.6 92.1,32.6 "
       transform="matrix(0.26458333,0,0,0.26458333,-87.673468,280.23487)" />
    <path
       id="path167"
       d="m -76.243468,288.86029 v -2.51355 h 1.084792 l 1.878541,2.51355 h 1.931458 l -2.275416,-3.04271 c 1.243541,-0.89959 1.561041,-2.64584 0.661458,-3.88938 -0.502708,-0.71437 -1.375833,-1.16416 -2.275416,-1.16416 h -2.54 v 8.09625 z m 0,-6.56167 h 1.005417 c 0.687916,0 1.269999,0.55562 1.269999,1.27 0,0.71437 -0.555624,1.27 -1.269999,1.27 h -1.005417 z"
       inkscape:connector-curvature="0"
       style="stroke-width:0.26458332" />
    <path
       id="path169"
       d="m -30.153052,280.76404 1.5875,5.29166 1.561042,-5.29166 h 2.328333 l -2.989792,8.09625 h -1.852083 l -2.963333,-8.09625 z"
       class="st2"
       inkscape:connector-curvature="0"
       style="fill:#0c9bff;stroke-width:0.26458332" />
    <path
       id="path171"
       d="m -23.908885,288.86029 v -8.09625 h 2.2225 v 8.09625 z"
       class="st2"
       inkscape:connector-curvature="0"
       style="fill:#0c9bff;stroke-width:0.26458332" />
    <path
       id="path173"
       d="m -20.416386,288.86029 v -8.09625 h 2.2225 v 3.06916 l 2.460625,-3.06916 h 2.513542 l -2.936875,3.62479 3.148542,4.47146 h -2.566459 l -2.010833,-2.9898 -0.608542,0.635 v 2.32834 z"
       class="st2"
       inkscape:connector-curvature="0"
       style="fill:#0c9bff;stroke-width:0.26458332" />
    <path
       id="path175"
       d="m -12.558261,288.86029 v -8.09625 h 2.2225 v 8.09625 z"
       class="st2"
       inkscape:connector-curvature="0"
       style="fill:#0c9bff;stroke-width:0.26458332" />
  </g>
  <style
     id="style143"
     type="text/css">
	.st0{display:none;fill:none;}
	.st1{fill:none;}
	.st2{fill:#0C9BFF;}
	.st3{fill:#FFFFFF;}
</style>
</svg>
