<?xml version="1.0" encoding="utf-8"?>
<!-- Generator: Adobe Illustrator 16.0.4, SVG Export Plug-In . SVG Version: 6.00 Build 0)  -->
<!DOCTYPE svg PUBLIC "-//W3C//DTD SVG 1.1//EN" "http://www.w3.org/Graphics/SVG/1.1/DTD/svg11.dtd">
<svg version="1.1" id="Layer_1" xmlns="http://www.w3.org/2000/svg" xmlns:xlink="http://www.w3.org/1999/xlink" x="0px" y="0px"
	 width="254px" height="56px" viewBox="0 0 254 56" enable-background="new 0 0 254 56" xml:space="preserve">
  <g>
    <g>
      <path fill="#010202" d="M90.564,43.651h-0.116l-7.112-29.057H74.97l-7.083,29.057h-0.117l-6.587-29.057h-8.803l11.076,40.681
			h8.307l7.316-27.807h0.146l7.316,27.807h8.366l11.047-40.681h-8.803L90.564,43.651z M195.701,13.938
			c-10.493,0-16.76,6.944-16.76,18.597v4.919c0,11.772,6.237,18.508,16.73,18.508c10.522,0,15.77-6.557,15.77-13.89v-0.744h-7.899
			c0,4.202-2.041,7.48-7.725,7.48c-5.713,0-8.511-3.606-8.511-11.354v-4.919c0-7.658,2.827-11.503,8.453-11.503
			c5.275,0,7.782,3.576,7.782,7.6h7.899v-0.418C211.441,20.286,205.553,13.938,195.701,13.938z M119.275,14.594L106.45,55.275h8.249
			l2.881-10.252h12.587l2.836,10.252h8.832L129.04,14.594H119.275z M119.34,38.765l4.541-16.154h0.087l4.468,16.154H119.34z
			 M244.728,14.594v16.333h-16.265V14.594h-8.248v40.681h8.248V37.93h16.265v17.346h8.278V14.594H244.728z M141.69,21.627h11.833
			v33.648h8.22V21.627h11.863v-7.033H141.69V21.627z M36.915,29.983c-0.065-7.019,5.605-10.396,5.864-10.559
			c-3.219-4.846-8.191-5.381-9.942-5.515c-4.47-0.336-8.259,2.554-10.375,2.554c-2.146,0-5.455-2.481-8.964-2.414
			c-4.606,0.071-8.852,2.738-11.226,6.958c-4.785,8.495-1.222,21.076,3.438,27.964c2.28,3.37,4.998,7.163,8.57,7.024
			c3.438-0.138,4.737-2.275,8.893-2.275c4.153,0,5.325,2.275,8.96,2.204c3.699-0.066,6.044-3.432,8.306-6.822
			c2.62-3.906,3.696-7.688,3.76-7.893C44.116,41.181,36.985,38.383,36.915,29.983z M30.078,9.36
			c1.898-2.343,3.176-5.612,2.824-8.856c-2.732,0.109-6.034,1.861-7.994,4.201c-1.754,2.077-3.296,5.401-2.878,8.586
			C25.076,13.53,28.182,11.706,30.078,9.36z"/>
	</g>
  </g>
</svg>