<svg id="Arcade_Logo_SVG" data-name="Arcade Logo SVG" xmlns="http://www.w3.org/2000/svg" viewBox="0 0 465 97"><defs><style>.cls-1{fill:#fff;}.cls-2{fill:none;}</style></defs><title>arcade</title><g id="arcade"><path class="cls-1" d="M53.63,15.84c-3.43,4-8.86,7.22-14.3,6.75-.71-5.45,2-11.25,5.08-14.8A21.39,21.39,0,0,1,58.59.44a21.48,21.48,0,0,1-5,15.4M65.72,51.51c-.12-12.16,9.9-17.94,10.37-18.3-5.66-8.38-14.48-9.32-17.54-9.56h0c-7.9-.47-14.65,4.49-18.43,4.49S30.6,23.89,24.35,24A23.29,23.29,0,0,0,4.55,36c-8.49,14.65-2.24,36.37,6,48.3,4,5.9,8.84,12.4,15.2,12.17,6-.24,8.37-3.9,15.68-3.9s9.43,3.9,15.79,3.78C63.83,96.27,68,90.49,72,84.58A52.48,52.48,0,0,0,78.57,71C78.45,70.88,65.84,66,65.72,51.51ZM163.1,96H148.57l-8.09-24H106.76L98.67,96H84.39L116.33,7h14.84ZM137,61,123.81,21.92h-.37L110.26,61Zm62.1-30.85c-7.6,0-13.37,4.48-15.51,12H183V31H171V96h12V57.1c0-9.15,6.16-14.84,14.68-14.84a21.3,21.3,0,0,1,6.26.72V30.64a28,28,0,0,0-4.85-.49ZM252.1,74c-1.53,7.49-6.87,11.89-15,11.89-10.3,0-17.11-8.23-17.11-22.41,0-13.87,6.74-22.41,17-22.41,8.64,0,13.79,5,15.14,11.92h12.63c-1.16-12.71-11.28-23-27.9-23-18.33,0-30.35,13-30.35,33.46,0,20.87,12,33.52,30.47,33.52,15.51,0,26.48-9.22,27.9-23Zm19.57,3.42c0,11.6,8.83,19.46,21.46,19.46,8.46,0,16.61-4.54,20.35-11.72H314V96h12V51.27c0-13-9.55-21.24-25.19-21.24-16,0-25.87,8.21-26.61,20h12.51c1.16-5.77,6-9.14,13.61-9.14,8.09,0,13.68,4.3,13.68,11.48v5l-18.4,1c-15.33.86-24,7.8-24,19.09m25.14,9C289.65,86.38,285,82.7,285,77s5.47-9,13.38-9.58l15.62-1v5.09c0,8.49-8,14.87-17.23,14.87Zm39-22.9c0,20.38,10.79,33.39,27.1,33.39,9.38,0,17.41-5.13,20.13-12.09h0V96h13V8H383V41.94h0c-3.62-7.12-11-11.79-20.23-11.79-16.19,0-27,13-27,33.33m30.59-22.16c10.18,0,17,8.78,17,22.16s-6.8,22.16-17,22.16c-10.48,0-17-8.53-17-22.16s6.5-22.16,17-22.16ZM419.42,67v.6c0,11.23,6.74,18.66,17.35,18.66,7.54,0,13.12-4.61,14.9-10.26h12.57c-1.84,11.79-13,21-27.77,21-19,0-30.41-12.83-30.41-33.21S417.7,30,435.91,30C453.81,30,465,42.67,465,62.25V67Zm.06-9h32.25c-.31-9.88-6.56-17.29-15.82-17.29S420.16,48.24,419.48,58Z"/><rect class="cls-2" width="465" height="97"/></g></svg>