<?xml version="1.0" encoding="UTF-8" standalone="no"?>
<!-- Created with Inkscape (http://www.inkscape.org/) -->
<!DOCTYPE svg PUBLIC "-//W3C//DTD SVG 1.0//EN" "http://www.w3.org/TR/2001/REC-SVG-20010904/DTD/svg10.dtd">
<svg
   xmlns:svg="http://www.w3.org/2000/svg"
   xmlns="http://www.w3.org/2000/svg"
   version="1.0"
   width="499.99988"
   height="86.18"
   id="svg2523">
  <defs
     id="defs2525" />
  <g
     transform="matrix(0.9601154,0,0,0.9601154,-271.17674,127.35295)"
     id="layer1">
    <path
       d="M 302.65966,-54.402851 L 302.65966,-102.32606 L 293.94635,-102.32606 L 293.94635,-54.402851 L 302.65966,-54.402851 z"
       id="path2595"
       style="font-size:42.4355011px" />
    <path
       d="M 298.303,-121.2379 C 296.68988,-121.20276 295.38618,-120.67881 294.39191,-119.66604 C 293.39763,-118.65313 292.88606,-117.36181 292.85718,-115.79208 C 292.884,-114.26967 293.37494,-113.00723 294.33003,-112.00476 C 295.2851,-111.00218 296.54342,-110.48235 298.10497,-110.44528 C 299.85835,-110.48235 301.22805,-111.00218 302.21409,-112.00476 C 303.2001,-113.00723 303.67867,-114.26967 303.64981,-115.79208 C 303.63122,-117.36181 303.14853,-118.65313 302.20171,-119.66604 C 301.25487,-120.67881 299.9553,-121.20276 298.303,-121.2379 L 298.303,-121.2379 z"
       id="path2593"
       style="font-size:42.4355011px" />
    <path
       d="M 330.08707,-54.402851 L 338.80038,-54.402851 L 338.80038,-113.81178 L 359.19744,-113.81178 L 359.19744,-121.13888 L 309.78902,-121.13888 L 309.78902,-113.81178 L 330.08707,-113.81178 L 330.08707,-54.402851 z"
       id="path2591"
       style="font-size:42.4355011px" />
    <path
       d="M 406.42839,-102.32606 L 397.71508,-102.32606 L 397.71508,-72.918634 C 397.71298,-72.120311 397.64284,-71.340569 397.50467,-70.579409 C 397.36642,-69.818215 397.17252,-69.112735 396.92296,-68.462965 C 396.11636,-66.443463 394.73428,-64.640569 392.77671,-63.054279 C 390.81907,-61.467971 388.37258,-60.63047 385.43723,-60.541774 C 381.52612,-60.607778 378.75371,-62.010488 377.11998,-64.749908 C 375.48622,-67.489308 374.6941,-71.169357 374.74363,-75.790066 L 374.74363,-102.32606 L 366.03032,-102.32606 L 366.03032,-74.304843 C 366.24897,-66.065967 368.06424,-60.46338 371.47613,-57.497066 C 374.88801,-54.530746 378.58456,-53.136288 382.5658,-53.313687 C 386.80897,-53.443646 390.22911,-54.446171 392.82622,-56.321265 C 395.42326,-58.196355 397.28391,-60.164274 398.40818,-62.225027 L 398.60621,-62.225027 L 399.10129,-54.402851 L 406.82445,-54.402851 C 406.54386,-58.165413 406.41184,-62.522063 406.42839,-67.472816 L 406.42839,-102.32606 z"
       id="path2589"
       style="font-size:42.4355011px" />
    <path
       d="M 420.88528,-54.402851 L 429.59859,-54.402851 L 429.59859,-83.216182 C 429.59858,-83.967016 429.64808,-84.693125 429.74711,-85.39451 C 429.84611,-86.095833 429.99463,-86.722927 430.19268,-87.275793 C 430.97034,-89.769697 432.38543,-91.861385 434.43795,-93.550863 C 436.49042,-95.240263 438.96991,-96.119019 441.87644,-96.187132 C 445.93395,-96.079825 448.80951,-94.685367 450.50311,-92.003753 C 452.19664,-89.322065 453.01764,-85.996818 452.96611,-82.028004 L 452.96611,-54.402851 L 461.67941,-54.402851 L 461.67941,-83.018153 C 461.38851,-91.05895 459.39584,-96.513016 455.70139,-99.380365 C 452.00686,-102.24762 448.35569,-103.59257 444.74787,-103.41522 C 440.77075,-103.32441 437.43725,-102.39202 434.74737,-100.61805 C 432.05744,-98.843988 430.11015,-96.772928 428.90549,-94.404864 L 428.70746,-94.404864 L 428.21238,-102.32606 L 420.48922,-102.32606 C 420.63568,-100.36221 420.73882,-98.324158 420.79864,-96.211885 C 420.85846,-94.099527 420.88734,-91.813936 420.88528,-89.355105 L 420.88528,-54.402851 z"
       id="path2587"
       style="font-size:42.4355011px" />
    <path
       d="M 202,18.8125 C 194.95549,18.98583 189.46915,21.48557 185.53125,26.3125 C 181.59334,31.139512 179.59519,37.254918 179.53125,44.65625 C 179.59108,51.991618 181.67419,57.853854 185.78125,62.21875 C 189.8883,66.583656 195.6573,68.798981 203.09375,68.90625 C 206.90166,68.864994 210.10544,68.541594 212.75,67.90625 C 215.39447,67.270904 217.5006,66.578111 219.03125,65.84375 L 217.53125,59.59375 C 215.93872,60.303365 214.11877,60.912938 212.03125,61.375 C 209.94365,61.837073 207.35893,62.077252 204.28125,62.09375 C 199.79668,62.137075 195.96683,60.829967 192.84375,58.1875 C 189.72064,55.545052 188.07064,51.285582 187.84375,45.4375 L 221.5,45.4375 C 221.55565,44.989892 221.61938,44.432813 221.6875,43.75 C 221.75553,43.067233 221.77501,42.268221 221.78125,41.375 C 221.82642,38.322068 221.27524,35.085053 220.125,31.625 C 218.97467,28.16502 216.98225,25.199665 214.09375,22.71875 C 211.20516,20.237925 207.16952,18.92807 202,18.8125 z M 201.3125,25.0625 C 206.11057,25.305952 209.35858,26.972452 211.0625,30.0625 C 212.76635,33.152623 213.52761,36.202952 213.375,39.21875 L 187.9375,39.21875 C 188.24693,35.986359 189.44605,32.872299 191.5625,29.875 C 193.67893,26.877779 196.94345,25.27501 201.3125,25.0625 z"
       transform="translate(292.857,-122.228)"
       id="path2585"
       style="font-size:42.4355011px" />
    <path
       d="M 522.07984,-56.680193 C 523.78578,-55.673542 525.79496,-54.864922 528.10737,-54.25433 C 530.41977,-53.643739 532.89927,-53.330192 535.54587,-53.313687 C 541.27427,-53.390013 545.68455,-54.747341 548.77673,-57.385677 C 551.86885,-60.024006 553.43245,-63.485397 553.46756,-67.76986 C 553.4634,-71.293122 552.40724,-74.197555 550.29908,-76.48317 C 548.19086,-78.768741 545.05539,-80.683027 540.89267,-82.226034 C 537.784,-83.356424 535.48603,-84.511597 533.99876,-85.691555 C 532.51146,-86.87145 531.77297,-88.422682 531.7833,-90.345254 C 531.79567,-92.176993 532.48877,-93.711722 533.86261,-94.949448 C 535.23643,-96.187092 537.21672,-96.830688 539.80351,-96.880236 C 542.04369,-96.838938 543.99923,-96.525392 545.67014,-95.939597 C 547.34098,-95.353718 548.65293,-94.743126 549.60598,-94.10782 L 551.78431,-100.44477 C 550.42694,-101.2616 548.73544,-101.9547 546.70979,-102.52408 C 544.68409,-103.09337 542.448,-103.39042 540.00154,-103.41522 C 534.80736,-103.31203 530.76426,-101.93407 527.87221,-99.281346 C 524.98014,-96.628531 523.51142,-93.319787 523.46605,-89.355105 C 523.45573,-86.469204 524.49126,-83.874192 526.57264,-81.570062 C 528.65401,-79.265878 531.84311,-77.339215 536.13996,-75.790066 C 539.32697,-74.643123 541.61669,-73.397186 543.00911,-72.052253 C 544.40148,-70.707284 545.08221,-69.015782 545.0513,-66.977741 C 545.05952,-64.947925 544.30041,-63.264673 542.77395,-61.927982 C 541.24745,-60.591276 538.9041,-59.898173 535.7439,-59.84867 C 533.52017,-59.887858 531.3831,-60.255039 529.33268,-60.950213 C 527.28224,-61.645373 525.59074,-62.433365 524.25817,-63.314191 L 522.07984,-56.680193 z"
       id="path2581"
       style="font-size:42.4355011px" />
    <path
       d="M 582.57855,-57.670342 C 584.44538,-56.449157 586.92488,-55.426004 590.01704,-54.600881 C 593.10918,-53.775757 596.30653,-53.346693 599.60911,-53.313687 C 607.47045,-53.474588 613.33295,-55.405377 617.19662,-59.10606 C 621.06022,-62.806733 622.98689,-67.311905 622.97662,-72.62159 C 622.97245,-77.454733 621.54499,-81.402948 618.69422,-84.466248 C 615.84338,-87.529487 611.594,-90.116247 605.94606,-92.226537 C 601.36454,-93.932441 598.00216,-95.743586 595.85892,-97.659978 C 593.71564,-99.576283 592.65536,-102.05578 592.67807,-105.09847 C 592.63267,-107.50778 593.58981,-109.74387 595.5495,-111.80673 C 597.50915,-113.86948 600.74363,-114.9669 605.25296,-115.09898 C 608.28732,-115.04116 610.88233,-114.6616 613.038,-113.96031 C 615.1936,-113.25889 616.82322,-112.58229 617.92686,-111.9305 L 620.30322,-118.96056 C 618.81589,-119.83306 616.83972,-120.58805 614.3747,-121.22552 C 611.90961,-121.86286 608.96805,-122.19704 605.55,-122.22805 C 598.9758,-122.12278 593.7569,-120.40239 589.89327,-117.0669 C 586.02962,-113.73127 584.05345,-109.41175 583.96476,-104.10832 C 584.01838,-99.446328 585.59437,-95.601254 588.69272,-92.57309 C 591.79105,-89.544851 596.08994,-87.085983 601.5894,-85.19648 C 606.05536,-83.517325 609.27746,-81.652547 611.25573,-79.602141 C 613.23393,-77.551684 614.20345,-74.993801 614.1643,-71.928486 C 614.13332,-68.508332 612.90801,-65.768923 610.48837,-63.71025 C 608.06866,-61.651559 604.64027,-60.595402 600.2032,-60.541774 C 597.20179,-60.574773 594.36749,-61.003837 591.70029,-61.828967 C 589.03307,-62.654083 586.7186,-63.677236 584.75687,-64.898429 L 582.57855,-57.670342 z"
       id="path2579"
       style="font-size:42.4355011px" />
    <path
       d="M 636.44325,-111.13838 L 636.44325,-102.32606 L 629.01713,-102.32606 L 629.01713,-95.692058 L 636.44325,-95.692058 L 636.44325,-69.552128 C 636.4288,-66.724006 636.68046,-64.261014 637.19824,-62.163145 C 637.71599,-60.06526 638.5865,-58.369632 639.80975,-57.076253 C 640.85765,-55.87982 642.17784,-54.955682 643.77035,-54.303836 C 645.36282,-53.65199 647.17809,-53.321941 649.21617,-53.313687 C 650.90558,-53.324001 652.40318,-53.451895 653.70897,-53.697369 C 655.0147,-53.942845 656.09149,-54.244016 656.93933,-54.600881 L 656.54327,-61.135863 C 655.91821,-60.937827 655.21273,-60.789305 654.42682,-60.690298 C 653.64087,-60.591278 652.6631,-60.54177 651.49351,-60.541774 C 649.09856,-60.558271 647.40293,-61.366892 646.40662,-62.96764 C 645.41026,-64.568371 644.92757,-66.862213 644.95853,-69.849173 L 644.95853,-95.692058 L 657.4344,-95.692058 L 657.4344,-102.32606 L 644.95853,-102.32606 L 644.95853,-113.81178 L 636.44325,-111.13838 z"
       id="path2577"
       style="font-size:42.4355011px" />
    <path
       d="M 394.6875,18.8125 C 387.89259,18.87031 382.25578,21.116879 377.8125,25.53125 C 373.3692,29.945702 371.06714,36.172069 370.90625,44.25 C 371.05269,51.905105 373.26329,57.930793 377.53125,62.28125 C 381.79919,66.63172 387.24305,68.825799 393.875,68.90625 C 399.93758,68.953696 405.36843,66.942556 410.15625,62.84375 C 414.94399,58.744956 417.47972,52.283152 417.75,43.46875 C 417.64886,36.03029 415.52326,30.099582 411.375,25.65625 C 407.22663,21.213003 401.67008,18.92394 394.6875,18.8125 z M 394.46875,25.34375 C 399.57212,25.603705 403.2745,27.650837 405.53125,31.5 C 407.78793,35.349236 408.88909,39.430504 408.84375,43.75 C 408.75706,49.247405 407.37324,53.719315 404.6875,57.125 C 402.00168,60.530707 398.52648,62.273927 394.28125,62.375 C 389.94934,62.263614 386.46112,60.497394 383.8125,57.09375 C 381.16384,53.69013 379.793,49.327948 379.71875,43.96875 C 379.68985,39.207813 380.87776,34.971343 383.25,31.25 C 385.62222,27.528728 389.34883,25.55007 394.46875,25.34375 z"
       transform="translate(292.857,-122.228)"
       id="path2575"
       style="font-size:42.4355011px" />
    <path
       d="M 721.59723,-54.402851 L 730.21152,-54.402851 L 730.21152,-79.948691 C 730.21563,-80.693341 730.25689,-81.407074 730.33529,-82.08989 C 730.41366,-82.772652 730.50443,-83.412121 730.60758,-84.008301 C 731.23053,-87.333521 732.55898,-90.015172 734.59293,-92.053264 C 736.62684,-94.09128 739.19297,-95.139185 742.29134,-95.196983 C 742.87921,-95.196941 743.41142,-95.172186 743.88795,-95.122721 C 744.36443,-95.073174 744.82238,-94.998913 745.26178,-94.899939 L 745.26178,-103.11817 C 744.87395,-103.21714 744.48614,-103.2914 744.09836,-103.34096 C 743.71052,-103.39042 743.27321,-103.41517 742.78641,-103.41522 C 739.81388,-103.3801 737.1446,-102.43533 734.77858,-100.58092 C 732.41252,-98.726404 730.65914,-96.172649 729.51842,-92.919641 L 729.12236,-92.919641 L 728.82531,-102.32606 L 721.20117,-102.32606 C 721.34762,-100.10643 721.45076,-97.763076 721.51059,-95.295998 C 721.5704,-92.828839 721.59928,-90.188444 721.59723,-87.374808 L 721.59723,-54.402851 z"
       id="path2571"
       style="font-size:42.4355011px" />
    <path
       d="M 480.125,18.8125 C 473.08047,18.98583 467.59414,21.48557 463.65625,26.3125 C 459.71832,31.139512 457.72019,37.254918 457.65625,44.65625 C 457.71606,51.991618 459.79918,57.853854 463.90625,62.21875 C 468.01329,66.583656 473.7823,68.798981 481.21875,68.90625 C 485.02668,68.864994 488.26169,68.541594 490.90625,67.90625 C 493.55074,67.270904 495.6256,66.578111 497.15625,65.84375 L 495.6875,59.59375 C 494.09498,60.303365 492.24377,60.912938 490.15625,61.375 C 488.06866,61.837073 485.48393,62.077252 482.40625,62.09375 C 477.92167,62.137075 474.12308,60.829967 471,58.1875 C 467.87689,55.545052 466.19565,51.285582 465.96875,45.4375 L 499.625,45.4375 C 499.68065,44.989892 499.74438,44.432813 499.8125,43.75 C 499.88054,43.067233 499.93126,42.268221 499.9375,41.375 C 499.98267,38.322068 499.43149,35.085053 498.28125,31.625 C 497.13091,28.16502 495.10725,25.199665 492.21875,22.71875 C 489.33017,20.237925 485.29452,18.92807 480.125,18.8125 z M 479.4375,25.0625 C 484.23557,25.305952 487.48358,26.972452 489.1875,30.0625 C 490.89135,33.152623 491.68386,36.202952 491.53125,39.21875 L 466.0625,39.21875 C 466.37191,35.986359 467.6023,32.872299 469.71875,29.875 C 471.83518,26.877779 475.06845,25.27501 479.4375,25.0625 z"
       transform="translate(292.857,-122.228)"
       id="path2569"
       style="font-size:42.4355011px" />
  </g>
</svg>