<?xml version="1.0" encoding="UTF-8" standalone="no"?>
<svg
   xmlns:dc="http://purl.org/dc/elements/1.1/"
   xmlns:cc="http://creativecommons.org/ns#"
   xmlns:rdf="http://www.w3.org/1999/02/22-rdf-syntax-ns#"
   xmlns:svg="http://www.w3.org/2000/svg"
   xmlns="http://www.w3.org/2000/svg"
   xmlns:sodipodi="http://sodipodi.sourceforge.net/DTD/sodipodi-0.dtd"
   xmlns:inkscape="http://www.inkscape.org/namespaces/inkscape"
   version="1.1"
   x="0px"
   y="0px"
   viewBox="0 0 150 145.08255"
   enable-background="new 0 0 100 100"
   xml:space="preserve"
   id="svg8"
   sodipodi:docname="network.svg"
   width="150"
   height="145.08255"
   inkscape:version="0.92.3 (2405546, 2018-03-11)"><metadata
     id="metadata14"><rdf:RDF><cc:Work
         rdf:about=""><dc:format>image/svg+xml</dc:format><dc:type
           rdf:resource="http://purl.org/dc/dcmitype/StillImage" /><dc:title></dc:title></cc:Work></rdf:RDF></metadata><defs
     id="defs12" /><sodipodi:namedview
     pagecolor="#ffffff"
     bordercolor="#666666"
     borderopacity="1"
     objecttolerance="10"
     gridtolerance="10"
     guidetolerance="10"
     inkscape:pageopacity="0"
     inkscape:pageshadow="2"
     inkscape:window-width="1920"
     inkscape:window-height="1046"
     id="namedview10"
     showgrid="false"
     fit-margin-top="0"
     fit-margin-left="0"
     fit-margin-right="0"
     fit-margin-bottom="0"
     inkscape:zoom="1.888"
     inkscape:cx="-153.50151"
     inkscape:cy="33.875003"
     inkscape:window-x="0"
     inkscape:window-y="34"
     inkscape:window-maximized="1"
     inkscape:current-layer="svg8" /><path
     d="m 140.69322,72.541273 c -3.60019,0 -6.71678,2.048044 -8.26433,5.037205 L 89.786905,70.299786 C 89.645661,69.33564 89.426118,68.405269 89.126741,67.505604 L 124.02946,50.206237 c 2.61455,2.671362 6.73827,3.47277 10.22179,1.645805 4.25729,-2.238417 5.89081,-7.489023 3.66007,-11.743243 -2.23074,-4.249613 -7.48441,-5.886206 -11.73863,-3.655466 -3.3346,1.754808 -5.02493,5.358075 -4.53978,8.881509 l -35.068526,17.3792 C 85.809033,61.736078 84.952355,60.839483 83.995885,60.054963 L 113.01546,19.562347 c 1.44008,0.167344 2.92622,0.02457 4.36016,-0.572653 4.43077,-1.853065 6.5218,-6.940934 4.67181,-11.376314 -1.84846,-4.42924 -6.94093,-6.518736 -11.37017,-4.670277 -4.42924,1.849995 -6.52027,6.940934 -4.67028,11.373244 0.48668,1.166801 1.20979,2.153977 2.07721,2.970738 L 79.228887,57.357502 C 78.418267,57.068872 77.586154,56.8263 76.7218,56.666633 L 74.911722,26.423447 c 3.07053,-1.263523 5.235254,-4.281854 5.235254,-7.808358 0,-4.6626 -3.781358,-8.443958 -8.443958,-8.443958 -4.6626,0 -8.443958,3.781358 -8.443958,8.443958 0,3.901108 2.649868,7.174293 6.242388,8.144581 l 1.782443,29.808706 c -1.060868,0.158132 -2.086425,0.409916 -3.068995,0.761491 L 36.497856,16.728248 c 1.255846,-1.736385 2.005056,-3.865797 2.005056,-6.173301 C 38.502912,4.725546 33.777366,0 27.947965,0 22.118563,0 17.393018,4.725546 17.393018,10.554947 c 0,5.829402 4.725545,10.554948 10.554947,10.554948 1.549082,0 3.01526,-0.342365 4.340194,-0.941118 l 31.13671,39.835522 C 61.775994,61.347656 60.38658,62.99653 59.361023,64.87723 L 30.802022,54.9978 c 0.0077,-0.153527 0.04606,-0.297842 0.04606,-0.455974 0,-4.948159 -4.013182,-8.965948 -8.965947,-8.965948 -4.95123,0 -8.964413,4.017789 -8.964413,8.965948 0,4.955835 4.013183,8.967483 8.964413,8.967483 2.847916,0 5.356539,-1.354104 6.997738,-3.422106 l 28.732485,9.937771 c -0.139709,0.864354 -0.233361,1.744061 -0.233361,2.649867 0,0.119751 0.01535,0.234896 0.01689,0.354646 L 16.057337,86.458451 C 14.522072,83.99435 11.809259,82.34087 8.6926706,82.34087 3.8918969,82.34087 0,86.232767 0,91.03354 c 0,4.80231 3.8918969,8.692671 8.6926706,8.692671 4.5551314,0 8.2505144,-3.517292 8.6235834,-7.975702 L 58.419905,78.362998 c 0.850537,2.287545 2.192359,4.329448 3.908785,5.99521 L 44.594843,110.20286 c -3.930278,-1.04244 -8.009477,1.18062 -9.213125,5.09862 -1.229747,4.01471 1.020951,8.27047 5.040275,9.50175 4.017789,1.23282 8.270473,-1.02402 9.504826,-5.0372 0.689334,-2.24763 0.256389,-4.54899 -0.931906,-6.37289 l 17.81061,-25.95519 c 2.091031,0.974893 4.413887,1.535265 6.873381,1.535265 0.3178,0 0.621783,-0.02917 0.934977,-0.04452 l 3.640113,35.624295 c -4.145216,1.42626 -7.1267,5.34732 -7.1267,9.97461 0,5.8294 4.725546,10.55495 10.554947,10.55495 5.829401,0 10.554947,-4.72555 10.554947,-10.55495 0,-5.16617 -3.715341,-9.45877 -8.617443,-10.36918 L 80.102453,87.655957 c 2.14323,-0.919623 4.030071,-2.29215 5.583759,-3.987083 l 25.285818,26.271456 c -0.79988,1.29116 -1.26967,2.80646 -1.26967,4.43692 0,4.6626 3.78136,8.44395 8.44396,8.44395 4.6626,0 8.44396,-3.78135 8.44396,-8.44396 0,-4.6626 -3.78136,-8.44395 -8.44396,-8.44395 -0.94419,0 -1.84999,0.1612 -2.699,0.4483 -0.0691,-0.0445 -0.18883,-0.023 -0.41145,0.13817 L 88.655415,79.110672 c 0.462114,-1.07315 0.804479,-2.206176 1.030162,-3.382189 l 41.757673,7.134377 c 0.50664,4.6626 4.45227,8.291966 9.24997,8.291966 5.14007,0 9.30678,-4.166709 9.30678,-9.306776 0.002,-5.138532 -4.16671,-9.306777 -9.30678,-9.306777 z"
     id="path2"
     inkscape:connector-curvature="0"
     style="fill:#ffffff;fill-opacity:1;stroke:none;stroke-width:1.53526509" /></svg>