<?xml version="1.0" encoding="UTF-8" standalone="no"?>
<svg xmlns:dc="http://purl.org/dc/elements/1.1/" xmlns:cc="http://creativecommons.org/ns#" xmlns:rdf="http://www.w3.org/1999/02/22-rdf-syntax-ns#" xmlns:svg="http://www.w3.org/2000/svg" xmlns="http://www.w3.org/2000/svg" xmlns:sodipodi="http://sodipodi.sourceforge.net/DTD/sodipodi-0.dtd" xmlns:inkscape="http://www.inkscape.org/namespaces/inkscape" width="100" height="30" viewBox="-239.655 147.427 31.74992 9.5312052" id="svg2" version="1.1" inkscape:version="0.91 r13725" sodipodi:docname="alexa-2.svg">
  <title id="title4153">Alexa Internet logo</title>
  <metadata id="metadata25">
    <rdf:RDF>
      <cc:Work rdf:about="">
        <dc:format>image/svg+xml</dc:format>
        <dc:type rdf:resource="http://purl.org/dc/dcmitype/StillImage"/>
        <cc:license rdf:resource="http://artlibre.org/licence/lal"/>
        <dc:title>Alexa Internet logo</dc:title>
      </cc:Work>
      <cc:License rdf:about="http://artlibre.org/licence/lal">
        <cc:permits rdf:resource="http://creativecommons.org/ns#Reproduction"/>
        <cc:permits rdf:resource="http://creativecommons.org/ns#Distribution"/>
        <cc:permits rdf:resource="http://creativecommons.org/ns#DerivativeWorks"/>
        <cc:requires rdf:resource="http://creativecommons.org/ns#ShareAlike"/>
        <cc:requires rdf:resource="http://creativecommons.org/ns#Notice"/>
        <cc:requires rdf:resource="http://creativecommons.org/ns#Attribution"/>
      </cc:License>
    </rdf:RDF>
  </metadata>
  <defs id="defs23"/>
  <sodipodi:namedview pagecolor="#ffffff" bordercolor="#666666" borderopacity="1" objecttolerance="10" gridtolerance="10" guidetolerance="10" inkscape:pageopacity="0" inkscape:pageshadow="2" inkscape:window-width="1366" inkscape:window-height="705" id="namedview21" showgrid="false" inkscape:showpageshadow="false" inkscape:zoom="1" inkscape:cx="50.441653" inkscape:cy="14.686871" inkscape:window-x="-8" inkscape:window-y="-8" inkscape:window-maximized="1" inkscape:current-layer="svg2"/>
  <linearGradient id="a" gradientUnits="userSpaceOnUse" x1="-123.692" y1="171.177" x2="-123.692" y2="355.603" gradientTransform="matrix(0.03905589,0,0,0.03853989,-229.87087,142.03056)">
    <stop offset="0" stop-color="#4779f1" id="stop5"/>
    <stop offset="1" stop-color="#223baa" id="stop7"/>
  </linearGradient>
  <ellipse cx="-234.70178" cy="152.18158" id="circle9" style="fill:url(#a)" rx="3.6014607" ry="3.553879"/>
  <path d="m -234.70178,156.65078 c -2.4973,0 -4.52903,-2.00488 -4.52903,-4.4692 0,-2.46432 2.03173,-4.4692 4.52903,-4.4692 2.49732,0 4.52901,2.00488 4.52901,4.4692 0,2.46432 -2.03169,4.4692 -4.52901,4.4692 z m 0,-8.84205 c -2.44345,0 -4.43139,1.96164 -4.43139,4.37285 0,2.41121 1.98791,4.37285 4.43139,4.37285 2.4435,0 4.43141,-1.96164 4.43141,-4.37285 0,-2.41121 -1.98791,-4.37285 -4.43141,-4.37285 z" id="path11" inkscape:connector-curvature="0" style="fill:#223baa"/>
  <path d="m -232.58627,153.73119 c -0.006,0.003 -0.0139,0.006 -0.0195,0.006 -0.13107,0.0798 -0.30128,0.14861 -0.44903,0.0743 -0.17298,-0.0935 -0.20641,-0.30821 -0.212,-0.48433 l 0,-2.0092 c 0,-0.088 -0.002,-0.17887 -0.0195,-0.26693 -0.0614,-0.17613 -0.16172,-0.34123 -0.31237,-0.45685 -0.3124,-0.26146 -0.74467,-0.30273 -1.1407,-0.28624 -0.35705,-0.003 -0.71402,0.088 -1.01803,0.26963 -0.22312,0.15419 -0.42676,0.36057 -0.49648,0.63028 -0.008,0.0991 0,0.20364 0.0335,0.29999 0.0279,0.0605 0.067,0.11554 0.11993,0.15963 0.19247,0.17894 0.56624,0.13763 0.67497,-0.11284 0.002,-0.0137 0.0139,-0.0385 0.0195,-0.0495 0.0116,-0.0826 0.0167,-0.17069 -0.0251,-0.24777 -0.0391,-0.0936 -0.11994,-0.16241 -0.16454,-0.25317 -0.0614,-0.11011 0.0335,-0.21463 0.12272,-0.27244 0.19801,-0.12934 0.4407,-0.18441 0.67777,-0.17612 0.2873,-0.0138 0.58572,0.10733 0.76144,0.33845 0.10601,0.12665 0.14224,0.29175 0.14224,0.45138 -0.002,0.18164 0.002,0.36051 -0.002,0.53945 -0.318,0.0385 -0.63591,0.0854 -0.94832,0.1624 -0.4156,0.10734 -0.8256,0.26146 -1.17699,0.50915 -0.15341,0.12934 -0.29287,0.27799 -0.37376,0.46241 -0.0558,0.15134 -0.0725,0.31375 -0.0418,0.47334 0.053,0.27522 0.27335,0.50368 0.53834,0.59725 0.33467,0.12383 0.70281,0.1211 1.0487,0.0551 0.36532,-0.0744 0.65543,-0.32482 0.90644,-0.58353 0.0167,-0.022 0.0419,-0.033 0.0697,-0.033 0.0893,0.27798 0.27057,0.58068 0.58572,0.63849 0.27613,0.0716 0.56623,-0.033 0.77815,-0.21463 0.008,-0.006 0.0279,-0.0221 0.0363,-0.0303 -0.0308,-0.066 -0.0754,-0.12657 -0.1145,-0.18989 z m -1.30529,-1.41461 c 0,0.15682 0,0.3138 -0.006,0.47335 0,0 -0.005,0.0314 -0.006,0.0604 -0.003,0.14217 -0.11182,0.35511 -0.25686,0.50649 -0.1367,0.16241 -0.31237,0.28077 -0.49925,0.37985 -0.2566,0.12653 -0.56897,0.17613 -0.83951,0.0578 -0.0603,-0.0347 -0.10741,-0.0832 -0.13182,-0.1108 -0.0244,-0.0275 -0.0436,-0.0467 -0.0607,-0.0763 -0.10601,-0.1789 -0.14224,-0.41284 -0.0363,-0.59725 0.12548,-0.21189 0.35142,-0.3385 0.55783,-0.46233 0.10043,-0.0523 0.18141,-0.1022 0.28862,-0.14433 l 0.0287,-0.012 0.0246,-0.009 c 0.0981,-0.0467 0.18289,-0.0614 0.2548,-0.0902 0.22032,-0.066 0.4518,-0.1128 0.68051,-0.13481 8e-5,0.0523 8e-5,0.10456 8e-5,0.15963 z" id="path13" inkscape:connector-curvature="0" style="fill:#172760"/>
  <path d="m -232.58627,153.57703 c -0.006,0.003 -0.0139,0.006 -0.0195,0.006 -0.13107,0.0798 -0.30128,0.14861 -0.44903,0.0743 -0.17298,-0.0935 -0.20641,-0.30821 -0.212,-0.48433 l 0,-2.0092 c 0,-0.088 -0.002,-0.17887 -0.0195,-0.26693 -0.0614,-0.17613 -0.16172,-0.34123 -0.31237,-0.45685 -0.3124,-0.26146 -0.74467,-0.30273 -1.1407,-0.28624 -0.35705,-0.003 -0.71402,0.088 -1.01803,0.26963 -0.22312,0.15419 -0.42676,0.36058 -0.49648,0.63028 -0.008,0.0991 0,0.20364 0.0335,0.29999 0.0279,0.0605 0.067,0.11554 0.11993,0.15963 0.19247,0.17894 0.56624,0.13763 0.67497,-0.11284 0.002,-0.0137 0.0139,-0.0385 0.0195,-0.0495 0.0116,-0.0826 0.0167,-0.17069 -0.0251,-0.24777 -0.0391,-0.0936 -0.11994,-0.16241 -0.16454,-0.25317 -0.0614,-0.11011 0.0335,-0.21463 0.12272,-0.27244 0.19801,-0.12934 0.4407,-0.18441 0.67777,-0.17612 0.2873,-0.0138 0.58572,0.10733 0.76144,0.33845 0.10601,0.12665 0.14224,0.29175 0.14224,0.45138 -0.002,0.18164 0.002,0.36051 -0.002,0.53945 -0.318,0.0385 -0.63591,0.0854 -0.94832,0.1624 -0.4156,0.10734 -0.8256,0.26146 -1.17699,0.50915 -0.15341,0.12934 -0.29287,0.27799 -0.37376,0.46241 -0.0558,0.15134 -0.0725,0.31375 -0.0418,0.47334 0.053,0.27522 0.27335,0.50368 0.53834,0.59726 0.33467,0.12382 0.70281,0.12109 1.0487,0.0551 0.36532,-0.0744 0.65543,-0.32482 0.90644,-0.58353 0.0167,-0.022 0.0419,-0.033 0.0697,-0.033 0.0893,0.27798 0.27057,0.58068 0.58572,0.63849 0.27613,0.0716 0.56623,-0.033 0.77815,-0.21463 0.008,-0.006 0.0279,-0.022 0.0363,-0.0303 -0.0308,-0.066 -0.0754,-0.12657 -0.1145,-0.18989 z m -1.30529,-1.41461 c 0,0.15682 0,0.3138 -0.006,0.47335 0,0 -0.005,0.0314 -0.006,0.0604 -0.003,0.14218 -0.11182,0.35511 -0.25686,0.50649 -0.1367,0.16241 -0.31237,0.28077 -0.49925,0.37985 -0.2566,0.12653 -0.56897,0.17613 -0.83951,0.0578 -0.0603,-0.0347 -0.10741,-0.0832 -0.13182,-0.1108 -0.0244,-0.0275 -0.0436,-0.0467 -0.0607,-0.0763 -0.10601,-0.1789 -0.14224,-0.41284 -0.0363,-0.59725 0.12548,-0.21189 0.35142,-0.3385 0.55783,-0.46233 0.10043,-0.0523 0.18141,-0.1022 0.28862,-0.14433 l 0.0287,-0.012 0.0246,-0.009 c 0.0981,-0.0467 0.18289,-0.0614 0.2548,-0.0902 0.22032,-0.066 0.4518,-0.1128 0.68051,-0.13481 8e-5,0.0523 8e-5,0.10456 8e-5,0.15963 z" id="path15" inkscape:connector-curvature="0" style="fill:#fdfefd"/>
  <g id="g17" transform="matrix(0.03905589,0,0,0.03853989,-229.87087,142.03056)" style="fill:#363636">
    <path d="m 134.717,337.699 -8.654,-25.968 -52.425,0 -9.135,26.451 -30.302,0 53.865,-148.125 22.605,0 54.344,148.125 -30.298,0 0,-0.483 z M 100.09,233.339 81.336,287.2 l 37.028,0 -18.274,-53.861 z m 111.575,104.36 c -22.12,0 -31.738,-15.387 -31.738,-30.777 l 0,-117.344 26.93,0 0,115.424 c 0,6.244 2.884,9.618 9.619,9.618 l 10.581,0 0,23.079 -15.392,0 z m 58.193,-45.69 c 0,13.95 8.66,24.047 23.567,24.047 12.021,0 17.794,-3.362 24.525,-10.097 l 16.353,15.874 c -11.06,11.054 -21.642,16.833 -41.357,16.833 -25.492,0 -50.019,-11.544 -50.019,-55.792 0,-35.587 19.237,-55.307 47.13,-55.307 30.298,0 47.13,22.125 47.13,51.939 l 0,12.022 -67.329,0 0,0.481 z m 38.957,-30.293 c -2.889,-6.255 -9.14,-11.063 -18.273,-11.063 -9.141,0 -15.392,4.809 -18.28,11.063 -1.44,3.842 -2.403,6.731 -2.403,11.539 l 41.361,0 c -0.001,-4.325 -0.963,-7.212 -2.405,-11.539 z m 113.5,75.983 -19.718,-32.219 -19.72,32.219 -32.704,0 37.511,-55.307 -36.069,-52.903 32.708,0 18.274,30.78 18.272,-30.78 32.706,0 -36.069,52.903 37.507,55.307 z m 105.804,0 0,-9.134 c -7.213,7.213 -13.948,10.579 -26.45,10.579 -12.501,0 -21.162,-2.882 -27.897,-9.619 -5.767,-6.253 -9.141,-14.905 -9.141,-24.523 0,-17.317 12.022,-31.261 37.038,-31.261 l 25.483,0 0,-5.293 c 0,-12.023 -5.767,-16.833 -20.195,-16.833 -10.577,0 -15.385,2.404 -20.685,9.136 l -17.31,-16.834 c 10.586,-11.539 21.163,-14.905 38.951,-14.905 30.304,0 46.179,12.984 46.179,38.473 l 0,71.183 -25.974,0 0,-0.969 z m -0.479,-45.69 -21.642,0 c -9.618,0 -15.393,4.811 -15.393,12.507 0,7.698 4.807,12.508 15.393,12.508 7.694,0 12.502,-0.484 16.834,-5.293 2.884,-2.888 3.842,-7.215 3.842,-13.944 l 0,-5.777 0.966,0 z" id="path19" inkscape:connector-curvature="0"/>
  </g>
</svg>