<?xml version="1.0" encoding="utf-8"?>
<!-- Generator: Adobe Illustrator 22.1.0, SVG Export Plug-In . SVG Version: 6.00 Build 0)  -->
<svg version="1.1" id="Layer_1" xmlns="http://www.w3.org/2000/svg" xmlns:xlink="http://www.w3.org/1999/xlink" x="0px" y="0px"
	 viewBox="0 0 500 108.5" style="enable-background:new 0 0 500 108.5;" xml:space="preserve">
<style type="text/css">
	.st0{fill:#F8991D;}
	.st1{fill:#050606;}
</style>
<g>
	<path d="M246.5,71.9c-1.9-2.7-3.7-3.7-6.6-3.7c-6.3,0-9.4,5.2-9.4,15.8c0,5.9,0.9,9.7,2.8,12.2c1.5,1.9,4.1,3.1,6.8,3.1
		c2.6,0,4.6-0.9,6.5-3.1v1.1c0,5.8-1.5,7.7-6,7.7c-2.9,0-4.4-1.1-4.8-3.6l0-0.1h-4.4l0,0.1c0.7,4.8,3.5,7,9.2,7c4,0,7.1-1.3,8.7-3.8
		c1.3-1.9,1.7-3.9,1.7-8.8V68.8h-4.3V71.9z M245.1,92.8c-0.8,1.6-2.5,2.7-4.3,2.7c-1.8,0-3.6-1.1-4.3-2.7c-1-2-1.4-4.7-1.4-9.1
		c0-4.4,0.4-7.2,1.4-9.1c0.8-1.6,2.5-2.7,4.3-2.7c1.8,0,3.6,1.1,4.3,2.7c1,1.9,1.4,4.7,1.4,9.2C246.5,88.1,246.1,90.8,245.1,92.8z"
		/>
	<path d="M276.5,95.7c-0.6,0-1.1-0.2-1.4-0.5c-0.4-0.5-0.5-1-0.5-4.2V76.8c0-3.5-0.6-5.5-2.2-6.9c-1.6-1.5-4-2.2-7.1-2.2
		c-6.5,0-9.5,2.9-9.5,9.1v0.1h4.3v-0.1c0-1.6,0.1-2,0.3-2.7c0.5-1.7,2.2-2.6,4.8-2.6c3.6,0,5.1,1.6,5.1,5.4c0,3-0.7,3.5-5.4,4.7
		c-4.3,1.1-5.6,1.6-7,2.6c-1.9,1.4-3,3.9-3,6.8c0,5.1,3.2,8.6,7.9,8.6c3.2,0,5.6-1.4,7.5-4.3c0.6,2.5,2.3,3.8,5,3.8
		c0.6,0,0.9-0.1,1.6-0.2l0.3,0v-3.3l-0.1,0C276.8,95.7,276.7,95.7,276.5,95.7z M270.3,86.5c0,3.7-0.3,5.1-1.4,6.6
		c-1.1,1.6-3,2.6-4.9,2.6c-2.7,0-4.3-1.8-4.3-5c0-1.9,0.5-3.2,1.7-4.1c0.8-0.6,1.5-0.9,4.8-1.8l0.4-0.1c1.9-0.6,2.6-0.8,3.7-1.4
		V86.5z"/>
	<path d="M307.3,68.9c-3.1,0-5,1.1-7.3,4c-1.4-2.8-3.4-4-6.6-4c-2.9,0-4.8,0.9-7.1,3.4v-3h-4.2v29.2h4.5V79.2c0-2.8,0.3-3.8,1.5-5
		c1-1,2.4-1.6,3.9-1.6c1.5,0,2.8,0.6,3.4,1.7c0.5,1,0.7,2.3,0.7,4.8v19.4h4.5V79.2c0-2.6,0.3-3.6,1.4-4.8c1-1.1,2.5-1.7,4-1.7
		c1.4,0,2.6,0.5,3.1,1.4c0.6,0.9,0.8,2,0.8,5.1v19.4h4.5V78.8c0-4.2-0.4-5.8-1.7-7.5C311.6,69.8,309.7,68.9,307.3,68.9z"/>
	<path d="M330.7,68.6c-3.2,0-6,1.5-7.6,4.1c-1.5,2.5-2.2,5.7-2.2,10.6c0,10.7,3.2,15.6,9.9,15.6c5.5,0,8.9-3.9,9.2-10.4l0-0.1H336
		l0,0.1c-0.2,4.4-1.9,6.7-4.9,6.7c-3.8,0-5.6-3.4-5.6-11.2h14.7l0-0.1c0.1-0.8,0.1-1.5,0.1-1.9C340.3,73.5,336.8,68.6,330.7,68.6z
		 M325.5,80.6c0.1-5.5,1.9-8.3,5.2-8.3c3.3,0,5,2.7,5,8.3H325.5z"/>
	<path d="M370.5,82l-3.8-1.4c-3.4-1.2-4.1-1.9-4.1-4.1c0-2.8,1.6-4.2,4.6-4.2c3.2,0,4.4,1.3,4.4,4.8v0.1h4.4l0-0.1
		c-0.2-2.5-0.4-3.7-1-4.7c-1.3-2.4-4-3.7-7.6-3.7c-5.6,0-8.9,3-8.9,8.3c0,4,1.7,6,6.3,7.7l3.4,1.2c2.2,0.8,2.7,1.1,3.2,1.7
		c0.6,0.6,1,1.7,1,3c0,3-2,4.8-5.2,4.8c-1.7,0-2.9-0.4-3.8-1.2c-0.9-0.9-1.3-2.4-1.3-4.6l0-0.1h-4.3v0.1c0,1.8,0.1,2.8,0.4,4.1
		c0.9,3.4,4.3,5.4,9,5.4c6.1,0,9.4-3.2,9.4-9C376.5,85.7,374.8,83.4,370.5,82z"/>
	<path d="M390.5,94.7c-1,0-1.9-0.3-2.4-0.8c-0.7-0.6-0.8-1.4-0.8-4.3V71.9h5v-3.6h-5v-7.9h-4.9v7.9h-4.3v3.6h4.3V90
		c0,4.3,0.3,5.8,1.6,7c1.1,1.1,2.8,1.5,5.6,1.5c0.9,0,1.6,0,2.8-0.1l0.1,0v-3.9l-0.1,0C391.3,94.7,390.9,94.7,390.5,94.7z"/>
	<path d="M410.4,87.2c0,3.1-0.3,4.6-1.3,5.8c-1,1.3-2.7,2.2-4.5,2.2c-1.4,0-2.6-0.5-3.2-1.4c-0.9-1.1-1-2.1-1-5.8V68.9h-4.7v20
		c0,4.3,0.4,5.9,1.8,7.6c1.3,1.6,3.4,2.4,5.9,2.4c3.1,0,5.2-1,7.3-3.5v3.1h4.4V68.9h-4.7V87.2z"/>
	<path d="M436.1,71.1c-1.9-2.3-3.6-3.1-6.2-3.1c-6.4,0-9.6,5.3-9.6,15.7c0,10.5,3.3,16.1,9.6,16.1c2.8,0,4.8-1.2,6.5-3.7v3.3h4.3
		V57.8h-4.6V71.1z M430.7,95.9c-3.9,0-5.7-3.7-5.7-12s1.8-12,5.7-12c4,0,5.7,3.7,5.7,12.2C436.4,94.7,433.1,95.9,430.7,95.9z"/>
	<rect x="447.2" y="59.1" width="4.5" height="5.5"/>
	<rect x="447.2" y="69.4" width="4.5" height="29.2"/>
	<path d="M467.2,68.7c-6.5,0-10,5.2-10,15.2c0,10,3.5,15.2,10,15.2c6.5,0,10-5.2,10-14.9C477.1,73.9,473.8,68.7,467.2,68.7z
		 M467.2,95.4c-3.8,0-5.5-3.4-5.5-11.5c0-8,1.6-11.5,5.5-11.5c3.9,0,5.5,3.4,5.5,11.6C472.6,92,471,95.4,467.2,95.4z"/>
	<path d="M494,82l-3.8-1.4c-3.4-1.2-4.1-1.9-4.1-4.1c0-2.8,1.6-4.2,4.6-4.2c3.2,0,4.4,1.3,4.4,4.8v0.1h4.4l0-0.1
		c-0.2-2.5-0.4-3.7-1-4.7c-1.3-2.4-4-3.7-7.6-3.7c-5.6,0-8.9,3-8.9,8.3c0,4,1.6,6,6.3,7.7l3.4,1.2c2.2,0.8,2.7,1.1,3.2,1.7
		c0.6,0.6,1,1.7,1,3c0,3-2,4.8-5.2,4.8c-1.7,0-2.9-0.4-3.8-1.2c-0.9-0.9-1.3-2.4-1.3-4.6l0-0.1h-4.3v0.1c0,1.8,0.1,2.8,0.4,4.1
		c0.9,3.4,4.3,5.4,9,5.4c6.1,0,9.4-3.2,9.4-9C500,85.7,498.3,83.4,494,82z"/>
</g>
<g>
	<path id="path8" class="st0" d="M205.5,77.4C186.2,91.5,158.3,99,134.3,99c-33.7,0-64-12.4-86.9-32.9c-1.8-1.6-0.2-3.8,2-2.6
		c24.8,14.3,55.4,22.9,87,22.9c21.3,0,44.8-4.4,66.3-13.5C205.9,71.6,208.7,75.1,205.5,77.4"/>
	<path id="path10" class="st0" d="M213.5,68.4c-2.5-3.1-16.3-1.5-22.5-0.7c-1.9,0.2-2.2-1.4-0.5-2.6c11-7.7,29.1-5.5,31.2-2.9
		c2.1,2.6-0.5,20.5-10.9,29.1c-1.6,1.3-3.1,0.6-2.4-1.1C210.7,84.4,215.9,71.5,213.5,68.4"/>
</g>
<g>
	<path class="st1" d="M228.2,43.3c-5.9-3.3-12.7-4.2-19.2-4.1l17.5-24.7c1.6-2.2,2.5-3.6,2.5-4.7V3.3c0-1.1-0.9-1.9-1.9-1.9h-33.7
		c-1,0-1.9,0.8-1.9,1.9v7.5l0,0c0,1.1,0.9,1.9,1.9,1.9H211l-20.2,28.8c-1.2,1.8-1.2,3.9-1.2,5.1v7.6c0,1.1,1.2,2.3,2.4,1.7
		c11.5-6,25.2-5.5,35.6-0.1c1.3,0.7,2.5-0.6,2.5-1.7v-8C229.9,45.1,229.5,44,228.2,43.3z"/>
	<path class="st1" d="M111,0.5c-6,0-11.7,3.1-14.2,9.7C94,3.6,89.9,0.5,83.5,0.5c-6.3,0-11,3.1-13.5,9.7h-0.2V3.3
		C69.8,2.4,69,1.6,68,1.6h-9.6c-1.1,0-2,0.8-2,1.9v52.2c0.1,0.9,0.9,1.7,1.8,1.7h10.3c1.1,0,2-0.8,2-1.9V27.9c0-6-0.3-14.4,7.1-14.4
		c7.3,0,6.3,8.6,6.3,14.4l0,27.7c0,1,0.8,1.8,1.8,1.9H96c1.1,0,2-0.8,2-1.9V27.9c0-3-0.1-7.4,1-10c1.1-2.6,3.6-4.3,6.1-4.3
		c3,0,5.3,1,6,4.5c0.5,2.1,0.3,7.6,0.3,9.8v27.7c0,1,0.8,1.8,1.8,1.9h10.2c1.1,0,2-0.8,2-1.9l0-32.9c0-5.6,0.7-12-2.6-16.4
		C120,2.3,115.3,0.5,111,0.5z"/>
	<path class="st1" d="M258,0.5c-14.8,0-23.1,12.6-23.1,28.9c0,16.2,8.1,29.1,23.1,29.1c14.3,0,23.4-12.6,23.4-28.6
		C281.4,13.5,273.2,0.5,258,0.5z M258,47.7c-8,0-7.9-13.6-7.9-20c0-6.4,0.5-16.6,8-16.6c3.3,0,5.6,1.4,6.7,5
		c1.3,4.2,1.5,9.4,1.5,13.8C266.3,36.7,265.9,47.7,258,47.7z"/>
	<path class="st1" d="M328.5,6.7c-2.9-4.5-7.4-6.2-12-6.2c-7.1,0-11.1,3.4-14,10.5h-0.2v-8c-0.2-0.8-0.9-1.4-1.8-1.5h-9.5
		c-1,0-1.9,0.7-2,1.7l0,52.2c0,1,0.8,1.8,1.8,1.9h10.2c1.1,0,2-0.8,2-1.9V27.4c0-3.5,0.2-6.7,1.6-9.9c1.1-2.5,3.4-4.2,5.9-4.2
		c7.1,0,6.4,8.4,6.4,14.1v28.4c0.1,0.9,0.9,1.6,1.8,1.6h10.3c1,0,1.9-0.7,2-1.6V22.9C331.2,17.9,331.2,10.8,328.5,6.7z"/>
	<path class="st1" d="M179,38.4V22.6c0-6.7,0.5-12.9-4.5-17.5C170.5,1.3,164,0,159,0c-9.7,0-20.6,3.6-22.9,15.6
		c-0.2,1.3,0.7,1.9,1.5,2.1l9.9,1.1c0.9,0,1.6-0.9,1.8-1.9c0.9-4.1,4.3-6.1,8.2-6.1c2.1,0,4.5,0.8,5.8,2.6c1.4,2.1,1.2,4.9,1.2,7.4
		v1.3c-5.9,0.7-13.7,1.1-19.3,3.5c-6.4,2.7-10.9,8.4-10.9,16.6c0,10.6,6.7,15.8,15.3,15.8c7.3,0,11.3-1.7,16.9-7.4
		c1.9,2.7,2.5,4,5.9,6.8c0.8,0.4,1.7,0.4,2.4-0.2v0l0,0c2-1.8,5.8-5,7.9-6.8c0.8-0.7,0.7-1.8,0-2.7C181,45.3,179,43.2,179,38.4z
		 M162.7,43.3c-1.6,2.9-4.2,4.6-7.1,4.6c-3.9,0-6.2-3-6.2-7.4c0-8.7,7.8-10.2,15.2-10.2v2.2C164.6,36.4,164.7,39.7,162.7,43.3z"/>
	<path class="st1" d="M44.6,38.4V22.6c0-6.7,0.5-12.9-4.5-17.5C36.1,1.3,29.6,0,24.6,0C14.9,0,4,3.6,1.7,15.6
		c-0.2,1.3,0.7,1.9,1.5,2.1l9.9,1.1c0.9,0,1.6-0.9,1.8-1.9c0.9-4.1,4.3-6.1,8.2-6.1c2.1,0,4.5,0.8,5.8,2.6c1.4,2.1,1.2,4.9,1.2,7.4
		v1.3c-5.9,0.7-13.7,1.1-19.3,3.5C4.5,28.4,0,34,0,42.3c0,10.6,6.7,15.8,15.3,15.8c7.3,0,11.3-1.7,16.9-7.4c1.9,2.7,2.5,4,5.9,6.8
		c0.8,0.4,1.7,0.4,2.4-0.2v0l0,0c2-1.8,5.8-5,7.9-6.8c0.8-0.7,0.7-1.8,0-2.7C46.6,45.3,44.6,43.2,44.6,38.4z M28.3,43.3
		c-1.6,2.9-4.2,4.6-7.1,4.6c-3.9,0-6.2-3-6.2-7.4c0-8.7,7.8-10.2,15.2-10.2v2.2C30.2,36.4,30.3,39.7,28.3,43.3z"/>
</g>
</svg>
