<?xml version="1.0" encoding="UTF-8" standalone="no"?>
<svg
   xmlns:dc="http://purl.org/dc/elements/1.1/"
   xmlns:cc="http://creativecommons.org/ns#"
   xmlns:rdf="http://www.w3.org/1999/02/22-rdf-syntax-ns#"
   xmlns:svg="http://www.w3.org/2000/svg"
   xmlns="http://www.w3.org/2000/svg"
   viewBox="0 0 1186.4933 173.33333"
   height="173.33333"
   width="1186.4933"
   xml:space="preserve"
   id="svg2"
   version="1.1"><metadata
     id="metadata8"><rdf:RDF><cc:Work
         rdf:about=""><dc:format>image/svg+xml</dc:format><dc:type
           rdf:resource="http://purl.org/dc/dcmitype/StillImage" /></cc:Work></rdf:RDF></metadata><defs
     id="defs6"><clipPath
       id="clipPath22"
       clipPathUnits="userSpaceOnUse"><path
         style="clip-rule:evenodd"
         id="path20"
         d="m 2102.92,562.199 c -116.26,0 -174.38,-44.875 -174.38,-134.582 0,-78.101 41.11,-117.144 123.31,-117.144 31.54,0 65.58,6.215 102.13,18.699 36.53,12.441 73.49,30.719 110.86,54.82 v 155.774 c -56.47,14.961 -110.45,22.433 -161.92,22.433 m 17.44,342.699 c 143.65,0 215.46,-61.91 215.46,-185.695 V 278.078 c 0,-12.476 -6.22,-18.699 -18.66,-18.699 h -26.15 c -12.48,0 -19.13,6.223 -19.94,18.699 l -4.98,53.578 c -71.43,-57.316 -146.16,-85.996 -224.2,-85.996 -57.31,0 -102.77,16.41 -136.39,49.238 -33.64,32.793 -50.45,76.629 -50.45,131.469 0,60.625 20.56,108.414 61.65,143.293 41.11,34.914 97.8,52.332 170.03,52.332 26.58,0 55.62,-2.484 87.18,-7.457 31.54,-4.984 61.85,-12.047 90.93,-21.195 v 104.668 c 0,50.687 -12.06,87.043 -36.12,109.055 -24.1,22.003 -63.95,33.027 -119.58,33.027 -51.47,0 -105.87,-8.309 -163.16,-24.926 -9.14,-2.496 -16.4,-4.773 -21.79,-6.863 -5.43,-2.078 -9.77,-3.098 -13.08,-3.098 -9.98,0 -14.95,5.395 -14.95,16.192 v 19.933 c 0,12.477 5.38,20.758 16.2,24.922 31.54,12.484 65.39,22.012 101.49,28.664 36.15,6.652 71.62,9.984 106.51,9.984" /></clipPath><clipPath
       id="clipPath34"
       clipPathUnits="userSpaceOnUse"><path
         style="clip-rule:evenodd"
         id="path32"
         d="m 3222.67,904.902 c 57.28,0 100.88,-16.011 130.78,-48 29.87,-31.98 44.83,-79.109 44.83,-141.433 V 278.078 c 0,-12.476 -6.25,-18.699 -18.69,-18.699 h -33.64 c -12.44,0 -18.67,6.223 -18.67,18.699 v 407.488 c 0,54.821 -9.35,94.282 -28.04,118.395 -18.69,24.09 -49.18,36.133 -91.54,36.133 -79.71,0 -154.87,-26.176 -225.44,-78.512 2.49,-19.945 3.74,-39.48 3.74,-58.566 V 278.078 c 0,-12.476 -6.23,-18.699 -18.7,-18.699 h -33.61 c -12.45,0 -18.69,6.223 -18.69,18.699 v 407.488 c 0,54.821 -9.35,94.282 -28.02,118.395 -18.68,24.09 -49.2,36.133 -91.54,36.133 -77.24,0 -151.13,-25.36 -221.71,-76.028 V 278.078 c 0,-12.476 -6.25,-18.699 -18.68,-18.699 h -33.63 c -12.46,0 -18.68,6.223 -18.68,18.699 V 867.5 c 0,12.473 6.22,18.707 18.68,18.707 h 24.91 c 12.44,0 19.51,-6.234 21.15,-18.707 l 5.01,-49.848 c 37.36,27.414 76.38,48.809 117.06,64.18 40.69,15.371 80.98,23.07 120.82,23.07 78.03,0 130.35,-32.019 156.93,-95.961 39.87,31.551 81.6,55.461 125.19,71.653 43.61,16.199 86.98,24.308 130.18,24.308" /></clipPath><clipPath
       id="clipPath46"
       clipPathUnits="userSpaceOnUse"><path
         style="clip-rule:evenodd"
         id="path44"
         d="m 3773.17,562.199 c -116.25,0 -174.38,-44.875 -174.38,-134.582 0,-78.101 41.11,-117.144 123.32,-117.144 31.53,0 65.58,6.215 102.12,18.699 36.54,12.441 73.49,30.719 110.87,54.82 v 155.774 c -56.48,14.961 -110.46,22.433 -161.93,22.433 m 17.44,342.699 c 143.65,0 215.47,-61.91 215.47,-185.695 V 278.078 c 0,-12.476 -6.23,-18.699 -18.67,-18.699 h -26.15 c -12.47,0 -19.12,6.223 -19.94,18.699 l -4.97,53.578 c -71.44,-57.316 -146.16,-85.996 -224.21,-85.996 -57.31,0 -102.76,16.41 -136.38,49.238 -33.65,32.793 -50.46,76.629 -50.46,131.469 0,60.625 20.56,108.414 61.66,143.293 41.11,34.914 97.79,52.332 170.02,52.332 26.58,0 55.63,-2.484 87.18,-7.457 31.55,-4.984 61.86,-12.047 90.94,-21.195 v 104.668 c 0,50.687 -12.07,87.043 -36.14,109.055 -24.09,22.003 -63.94,33.027 -119.57,33.027 -51.47,0 -105.87,-8.309 -163.16,-24.926 -9.14,-2.496 -16.39,-4.773 -21.78,-6.863 -5.44,-2.078 -9.77,-3.098 -13.09,-3.098 -9.97,0 -14.95,5.395 -14.95,16.192 v 19.933 c 0,12.477 5.39,20.758 16.2,24.922 31.55,12.484 65.4,22.012 101.5,28.664 36.14,6.652 71.62,9.984 106.5,9.984" /></clipPath><clipPath
       id="clipPath58"
       clipPathUnits="userSpaceOnUse"><path
         style="clip-rule:evenodd"
         id="path56"
         d="m 4601.45,302.996 v -24.918 c 0,-12.476 -6.22,-18.699 -18.69,-18.699 h -438.42 c -12.47,0 -18.69,6.223 -18.69,18.699 v 26.168 c 0,8.277 1.05,14.942 3.13,19.945 2.05,4.985 5.99,10.778 11.84,17.426 l 378.63,482.27 h -362.46 c -12.45,0 -18.7,6.242 -18.7,18.695 V 867.5 c 0,12.477 6.25,18.707 18.7,18.707 h 423.48 c 12.47,0 18.69,-6.23 18.69,-18.707 v -26.164 c 0,-6.652 -1.07,-12.887 -3.12,-18.699 -2.08,-5.821 -6.43,-12.446 -13.08,-19.926 L 4202.88,321.676 h 379.88 c 12.47,0 18.69,-6.223 18.69,-18.68" /></clipPath><clipPath
       id="clipPath70"
       clipPathUnits="userSpaceOnUse"><path
         style="clip-rule:evenodd"
         id="path68"
         d="m 4967.63,305.488 c 143.64,0 215.48,89.309 215.48,267.914 0,177.789 -71.84,266.688 -215.48,266.688 -143.66,0 -215.47,-88.899 -215.47,-266.688 0,-178.605 71.81,-267.914 215.47,-267.914 m 0,-64.797 c -90.5,0 -161.31,28.848 -212.37,86.602 -51.06,57.734 -76.59,139.754 -76.59,246.109 0,106.348 25.53,188.176 76.59,245.493 51.06,57.339 121.87,86.003 212.37,86.003 90.49,0 161.3,-28.664 212.36,-86.003 51.07,-57.317 76.61,-139.145 76.61,-245.493 0,-106.355 -25.54,-188.375 -76.61,-246.109 -51.06,-57.754 -121.87,-86.602 -212.36,-86.602" /></clipPath><clipPath
       id="clipPath82"
       clipPathUnits="userSpaceOnUse"><path
         style="clip-rule:evenodd"
         id="path80"
         d="m 5722.42,904.902 c 61.42,0 107.92,-16.011 139.51,-48 31.54,-31.98 47.31,-79.109 47.31,-141.433 V 278.078 c 0,-12.476 -6.22,-18.699 -18.66,-18.699 h -33.65 c -12.45,0 -18.66,6.223 -18.66,18.699 v 407.488 c 0,54.821 -10.42,94.282 -31.17,118.395 -20.74,24.09 -53.98,36.133 -99.64,36.133 -44,0 -85.93,-6.871 -125.8,-20.567 -39.84,-13.711 -78.89,-33.457 -117.07,-59.195 V 278.078 c 0,-12.476 -6.25,-18.699 -18.68,-18.699 h -33.62 c -12.46,0 -18.69,6.223 -18.69,18.699 V 867.5 c 0,12.473 6.23,18.707 18.69,18.707 h 24.91 c 12.44,0 19.5,-6.234 21.14,-18.707 l 5.01,-53.582 c 39.85,29.07 82.2,51.504 127.05,67.305 44.81,15.781 88.83,23.679 132.02,23.679" /></clipPath><clipPath
       id="clipPath94"
       clipPathUnits="userSpaceOnUse"><path
         style="clip-rule:evenodd"
         id="path92"
         d="m 8665.76,562.199 c -116.25,0 -174.38,-44.875 -174.38,-134.582 0,-78.101 41.12,-117.144 123.32,-117.144 31.53,0 65.58,6.215 102.13,18.699 36.54,12.441 73.49,30.719 110.87,54.82 v 155.774 c -56.48,14.961 -110.46,22.433 -161.94,22.433 z m 17.45,342.699 c 143.65,0 215.46,-61.91 215.46,-185.695 V 278.078 c 0,-12.476 -6.23,-18.699 -18.67,-18.699 h -26.15 c -12.47,0 -19.12,6.223 -19.93,18.699 l -4.98,53.578 c -71.43,-57.316 -146.16,-85.996 -224.19,-85.996 -57.32,0 -102.77,16.41 -136.4,49.238 -33.65,32.793 -50.46,76.629 -50.46,131.469 0,60.625 20.58,108.414 61.66,143.293 41.11,34.914 97.78,52.332 170.03,52.332 26.56,0 55.62,-2.484 87.18,-7.457 31.54,-4.984 61.86,-12.047 90.94,-21.195 v 104.668 c 0,50.687 -12.06,87.043 -36.14,109.055 -24.1,22.003 -63.94,33.027 -119.57,33.027 -51.48,0 -105.87,-8.309 -163.16,-24.926 -9.14,-2.496 -16.41,-4.773 -21.79,-6.863 -5.44,-2.078 -9.77,-3.098 -13.07,-3.098 -9.99,0 -14.97,5.395 -14.97,16.192 v 19.933 c 0,12.477 5.39,20.758 16.21,24.922 31.54,12.484 65.39,22.012 101.5,28.664 36.13,6.652 71.61,9.984 106.5,9.984 z M 8078.25,536.023 7897.64,273.102 c -6.65,-9.172 -15.36,-13.723 -26.15,-13.723 h -34.87 c -10.82,0 -16.2,4.551 -16.2,13.723 0,3.296 2.89,8.718 8.71,16.179 l 213,296.59 -194.31,271.668 c -4.98,7.473 -7.47,12.445 -7.47,14.941 0,9.149 5.39,13.723 16.18,13.723 h 38.62 c 10.79,0 19.51,-4.574 26.16,-13.723 l 163.18,-231.789 163.15,231.789 c 6.62,9.149 14.96,13.723 24.91,13.723 h 33.62 c 10.8,0 16.2,-4.574 16.2,-13.723 0,-3.335 -2.48,-8.707 -7.47,-16.187 L 8123.08,590.852 8336.09,289.281 c 4.98,-7.461 7.46,-12.883 7.46,-16.179 0,-9.172 -5.42,-13.723 -16.21,-13.723 h -38.58 c -9.98,0 -18.29,4.551 -24.92,13.723 z m -575.23,305.305 c -62.26,0 -111.48,-18.265 -147.59,-54.82 -36.13,-36.563 -57.92,-90.149 -65.38,-160.746 32.37,-8.332 64.56,-14.563 96.52,-18.699 31.94,-4.165 64.14,-6.223 96.51,-6.223 62.29,0 107.95,9.121 137.03,27.406 29.05,18.277 43.59,47.359 43.59,87.223 0,83.922 -53.56,125.859 -160.68,125.859 z m 158.19,-514.652 c 10.79,3.304 18.69,6 23.67,8.105 4.98,2.059 9.54,3.098 13.7,3.098 9.97,0 14.94,-5.414 14.94,-16.207 v -17.43 c 0,-13.312 -4.56,-22.023 -13.69,-26.164 -59.81,-24.918 -123.31,-37.398 -190.58,-37.398 -95.48,0 -168.37,27.621 -218.59,82.879 -50.25,55.23 -75.34,136.019 -75.34,242.367 0,52.344 6.63,99.504 19.9,141.441 13.28,41.949 32.58,77.684 57.92,107.188 25.32,29.472 56.26,51.906 92.79,67.273 36.55,15.371 77.65,23.07 123.32,23.07 72.24,0 128.08,-16.636 167.52,-49.843 39.44,-33.262 59.17,-79.754 59.17,-139.586 0,-58.996 -20.97,-102.395 -62.89,-130.231 -41.94,-27.812 -106.93,-41.746 -194.94,-41.746 -31.57,0 -63.34,1.887 -95.27,5.613 -31.98,3.735 -63.75,10.168 -95.31,19.317 0,-89.707 18.89,-155.965 56.68,-198.75 37.79,-42.82 94.46,-64.184 170.02,-64.184 49,0 97.98,7.043 146.98,21.188 z M 6982.9,1162.85 c 0,12.45 6.22,18.69 18.69,18.69 h 33.62 c 12.44,0 18.68,-6.24 18.68,-18.69 V 367.793 c 0,-18.277 3.52,-31.152 10.6,-38.621 7.04,-7.5 19.71,-11.238 37.99,-11.238 4.97,0 10.59,0.421 16.81,1.25 6.22,0.839 11.4,1.25 15.56,1.25 11.61,0 17.45,-5.817 17.45,-17.442 V 279.32 c 0,-9.98 -5.41,-16.211 -16.2,-18.691 -4.98,-1.66 -12.26,-2.899 -21.79,-3.738 -9.58,-0.809 -18.07,-1.25 -25.55,-1.25 -33.21,0 -59.17,9.757 -77.85,29.308 -18.67,19.485 -28.01,46.707 -28.01,81.594 z M 6585.57,562.199 c -116.25,0 -174.38,-44.875 -174.38,-134.582 0,-78.101 41.12,-117.144 123.32,-117.144 31.53,0 65.59,6.215 102.12,18.699 36.55,12.441 73.49,30.719 110.87,54.82 v 155.774 c -56.47,14.961 -110.46,22.433 -161.93,22.433 z m 17.44,342.699 c 143.66,0 215.46,-61.91 215.46,-185.695 V 278.078 c 0,-12.476 -6.21,-18.699 -18.65,-18.699 h -26.17 c -12.46,0 -19.11,6.223 -19.93,18.699 l -4.97,53.578 c -71.44,-57.316 -146.17,-85.996 -224.2,-85.996 -57.31,0 -102.77,16.41 -136.39,49.238 -33.64,32.793 -50.45,76.629 -50.45,131.469 0,60.625 20.56,108.414 61.65,143.293 41.12,34.914 97.79,52.332 170.03,52.332 26.56,0 55.61,-2.484 87.18,-7.457 31.54,-4.984 61.85,-12.047 90.93,-21.195 v 104.668 c 0,50.687 -12.06,87.043 -36.14,109.055 -24.09,22.003 -63.94,33.027 -119.58,33.027 -51.46,0 -105.85,-8.309 -163.14,-24.926 -9.15,-2.496 -16.41,-4.773 -21.78,-6.863 -5.45,-2.078 -9.79,-3.098 -13.09,-3.098 -9.98,0 -14.96,5.395 -14.96,16.192 v 19.933 c 0,12.477 5.39,20.758 16.21,24.922 31.54,12.484 65.39,22.012 101.5,28.664 36.13,6.652 71.6,9.984 106.49,9.984 z" /></clipPath><clipPath
       id="clipPath106"
       clipPathUnits="userSpaceOnUse"><path
         style="clip-rule:evenodd"
         id="path104"
         d="M 649.672,1300 C 290.871,1300 0,1008.98 0,649.996 0,320.398 245.207,48.1406 563.055,5.76172 V 136.738 c 0,36.934 -23.282,70.121 -58.274,81.871 -183.39,61.641 -314.586,237.012 -309.754,442.356 5.883,249.984 209.418,446.535 459.336,444.015 249.004,-2.52 450.087,-205.257 450.087,-454.984 0,-5.691 -0.14,-11.355 -0.35,-16.988 -0.05,-1.262 -0.09,-2.535 -0.14,-3.801 -0.24,-5.234 -0.56,-10.457 -0.97,-15.648 -0.12,-1.653 -0.29,-3.301 -0.44,-4.95 -0.32,-3.625 -0.69,-7.226 -1.1,-10.82 -0.46,-4.082 -0.99,-8.141 -1.56,-12.18 -0.25,-1.847 -0.5,-3.699 -0.78,-5.531 C 1043.43,213.121 565.727,6.87891 563.105,5.75 591.434,1.98047 620.324,0 649.672,0 1008.48,0 1299.35,291.012 1299.35,649.996 1299.35,1008.98 1008.48,1300 649.672,1300" /></clipPath></defs><g
     transform="matrix(1.3333333,0,0,-1.3333333,0,173.33333)"
     id="g10"><g
       transform="scale(0.1)"
       id="g12"><path
         id="path14"
         style="fill:#3f3b3c;fill-opacity:1;fill-rule:evenodd;stroke:none"
         d="m 2102.92,562.199 c -116.26,0 -174.38,-44.875 -174.38,-134.582 0,-78.101 41.11,-117.144 123.31,-117.144 31.54,0 65.58,6.215 102.13,18.699 36.53,12.441 73.49,30.719 110.86,54.82 v 155.774 c -56.47,14.961 -110.45,22.433 -161.92,22.433 m 17.44,342.699 c 143.65,0 215.46,-61.91 215.46,-185.695 V 278.078 c 0,-12.476 -6.22,-18.699 -18.66,-18.699 h -26.15 c -12.48,0 -19.13,6.223 -19.94,18.699 l -4.98,53.578 c -71.43,-57.316 -146.16,-85.996 -224.2,-85.996 -57.31,0 -102.77,16.41 -136.39,49.238 -33.64,32.793 -50.45,76.629 -50.45,131.469 0,60.625 20.56,108.414 61.65,143.293 41.11,34.914 97.8,52.332 170.03,52.332 26.58,0 55.62,-2.484 87.18,-7.457 31.54,-4.984 61.85,-12.047 90.93,-21.195 v 104.668 c 0,50.687 -12.06,87.043 -36.12,109.055 -24.1,22.003 -63.95,33.027 -119.58,33.027 -51.47,0 -105.87,-8.309 -163.16,-24.926 -9.14,-2.496 -16.4,-4.773 -21.79,-6.863 -5.43,-2.078 -9.77,-3.098 -13.08,-3.098 -9.98,0 -14.95,5.395 -14.95,16.192 v 19.933 c 0,12.477 5.38,20.758 16.2,24.922 31.54,12.484 65.39,22.012 101.49,28.664 36.15,6.652 71.62,9.984 106.51,9.984" /><g
         id="g16"><g
           clip-path="url(#clipPath22)"
           id="g18"><path
             id="path24"
             style="fill:#3f3b3c;fill-opacity:1;fill-rule:nonzero;stroke:none"
             d="m 1756.41,147.02 h 678.05 v 856.52 H 1756.41 V 147.02" /></g></g><path
         id="path26"
         style="fill:#3f3b3c;fill-opacity:1;fill-rule:evenodd;stroke:none"
         d="m 3222.67,904.902 c 57.28,0 100.88,-16.011 130.78,-48 29.87,-31.98 44.83,-79.109 44.83,-141.433 V 278.078 c 0,-12.476 -6.25,-18.699 -18.69,-18.699 h -33.64 c -12.44,0 -18.67,6.223 -18.67,18.699 v 407.488 c 0,54.821 -9.35,94.282 -28.04,118.395 -18.69,24.09 -49.18,36.133 -91.54,36.133 -79.71,0 -154.87,-26.176 -225.44,-78.512 2.49,-19.945 3.74,-39.48 3.74,-58.566 V 278.078 c 0,-12.476 -6.23,-18.699 -18.7,-18.699 h -33.61 c -12.45,0 -18.69,6.223 -18.69,18.699 v 407.488 c 0,54.821 -9.35,94.282 -28.02,118.395 -18.68,24.09 -49.2,36.133 -91.54,36.133 -77.24,0 -151.13,-25.36 -221.71,-76.028 V 278.078 c 0,-12.476 -6.25,-18.699 -18.68,-18.699 h -33.63 c -12.46,0 -18.68,6.223 -18.68,18.699 V 867.5 c 0,12.473 6.22,18.707 18.68,18.707 h 24.91 c 12.44,0 19.51,-6.234 21.15,-18.707 l 5.01,-49.848 c 37.36,27.414 76.38,48.809 117.06,64.18 40.69,15.371 80.98,23.07 120.82,23.07 78.03,0 130.35,-32.019 156.93,-95.961 39.87,31.551 81.6,55.461 125.19,71.653 43.61,16.199 86.98,24.308 130.18,24.308" /><g
         id="g28"><g
           clip-path="url(#clipPath34)"
           id="g30"><path
             id="path36"
             style="fill:#3f3b3c;fill-opacity:1;fill-rule:nonzero;stroke:none"
             d="M 2404.1,160.738 H 3496.92 V 1003.54 H 2404.1 V 160.738" /></g></g><path
         id="path38"
         style="fill:#3f3b3c;fill-opacity:1;fill-rule:evenodd;stroke:none"
         d="m 3773.17,562.199 c -116.25,0 -174.38,-44.875 -174.38,-134.582 0,-78.101 41.11,-117.144 123.32,-117.144 31.53,0 65.58,6.215 102.12,18.699 36.54,12.441 73.49,30.719 110.87,54.82 v 155.774 c -56.48,14.961 -110.46,22.433 -161.93,22.433 m 17.44,342.699 c 143.65,0 215.47,-61.91 215.47,-185.695 V 278.078 c 0,-12.476 -6.23,-18.699 -18.67,-18.699 h -26.15 c -12.47,0 -19.12,6.223 -19.94,18.699 l -4.97,53.578 c -71.44,-57.316 -146.16,-85.996 -224.21,-85.996 -57.31,0 -102.76,16.41 -136.38,49.238 -33.65,32.793 -50.46,76.629 -50.46,131.469 0,60.625 20.56,108.414 61.66,143.293 41.11,34.914 97.79,52.332 170.02,52.332 26.58,0 55.63,-2.484 87.18,-7.457 31.55,-4.984 61.86,-12.047 90.94,-21.195 v 104.668 c 0,50.687 -12.07,87.043 -36.14,109.055 -24.09,22.003 -63.94,33.027 -119.57,33.027 -51.47,0 -105.87,-8.309 -163.16,-24.926 -9.14,-2.496 -16.39,-4.773 -21.78,-6.863 -5.44,-2.078 -9.77,-3.098 -13.09,-3.098 -9.97,0 -14.95,5.395 -14.95,16.192 v 19.933 c 0,12.477 5.39,20.758 16.2,24.922 31.55,12.484 65.4,22.012 101.5,28.664 36.14,6.652 71.62,9.984 106.5,9.984" /><g
         id="g40"><g
           clip-path="url(#clipPath46)"
           id="g42"><path
             id="path48"
             style="fill:#3f3b3c;fill-opacity:1;fill-rule:nonzero;stroke:none"
             d="m 3426.66,147.02 h 678.06 v 856.52 H 3426.66 V 147.02" /></g></g><path
         id="path50"
         style="fill:#3f3b3c;fill-opacity:1;fill-rule:evenodd;stroke:none"
         d="m 4601.45,302.996 v -24.918 c 0,-12.476 -6.22,-18.699 -18.69,-18.699 h -438.42 c -12.47,0 -18.69,6.223 -18.69,18.699 v 26.168 c 0,8.277 1.05,14.942 3.13,19.945 2.05,4.985 5.99,10.778 11.84,17.426 l 378.63,482.27 h -362.46 c -12.45,0 -18.7,6.242 -18.7,18.695 V 867.5 c 0,12.477 6.25,18.707 18.7,18.707 h 423.48 c 12.47,0 18.69,-6.23 18.69,-18.707 v -26.164 c 0,-6.652 -1.07,-12.887 -3.12,-18.699 -2.08,-5.821 -6.43,-12.446 -13.08,-19.926 L 4202.88,321.676 h 379.88 c 12.47,0 18.69,-6.223 18.69,-18.68" /><g
         id="g52"><g
           clip-path="url(#clipPath58)"
           id="g54"><path
             id="path60"
             style="fill:#3f3b3c;fill-opacity:1;fill-rule:nonzero;stroke:none"
             d="m 4027.01,160.738 h 673.08 v 824.11 h -673.08 v -824.11" /></g></g><path
         id="path62"
         style="fill:#3f3b3c;fill-opacity:1;fill-rule:evenodd;stroke:none"
         d="m 4967.63,305.488 c 143.64,0 215.48,89.309 215.48,267.914 0,177.789 -71.84,266.688 -215.48,266.688 -143.66,0 -215.47,-88.899 -215.47,-266.688 0,-178.605 71.81,-267.914 215.47,-267.914 m 0,-64.797 c -90.5,0 -161.31,28.848 -212.37,86.602 -51.06,57.734 -76.59,139.754 -76.59,246.109 0,106.348 25.53,188.176 76.59,245.493 51.06,57.339 121.87,86.003 212.37,86.003 90.49,0 161.3,-28.664 212.36,-86.003 51.07,-57.317 76.61,-139.145 76.61,-245.493 0,-106.355 -25.54,-188.375 -76.61,-246.109 -51.06,-57.754 -121.87,-86.602 -212.36,-86.602" /><g
         id="g64"><g
           clip-path="url(#clipPath70)"
           id="g66"><path
             id="path72"
             style="fill:#3f3b3c;fill-opacity:1;fill-rule:nonzero;stroke:none"
             d="m 4580.03,142.051 h 775.21 V 1003.54 H 4580.03 V 142.051" /></g></g><path
         id="path74"
         style="fill:#3f3b3c;fill-opacity:1;fill-rule:evenodd;stroke:none"
         d="m 5722.42,904.902 c 61.42,0 107.92,-16.011 139.51,-48 31.54,-31.98 47.31,-79.109 47.31,-141.433 V 278.078 c 0,-12.476 -6.22,-18.699 -18.66,-18.699 h -33.65 c -12.45,0 -18.66,6.223 -18.66,18.699 v 407.488 c 0,54.821 -10.42,94.282 -31.17,118.395 -20.74,24.09 -53.98,36.133 -99.64,36.133 -44,0 -85.93,-6.871 -125.8,-20.567 -39.84,-13.711 -78.89,-33.457 -117.07,-59.195 V 278.078 c 0,-12.476 -6.25,-18.699 -18.68,-18.699 h -33.62 c -12.46,0 -18.69,6.223 -18.69,18.699 V 867.5 c 0,12.473 6.23,18.707 18.69,18.707 h 24.91 c 12.44,0 19.5,-6.234 21.14,-18.707 l 5.01,-53.582 c 39.85,29.07 82.2,51.504 127.05,67.305 44.81,15.781 88.83,23.679 132.02,23.679" /><g
         id="g76"><g
           clip-path="url(#clipPath82)"
           id="g78"><path
             id="path84"
             style="fill:#3f3b3c;fill-opacity:1;fill-rule:nonzero;stroke:none"
             d="m 5294.96,160.738 h 712.92 V 1003.54 H 5294.96 V 160.738" /></g></g><path
         id="path86"
         style="fill:#3f3b3c;fill-opacity:1;fill-rule:evenodd;stroke:none"
         d="m 8665.76,562.199 c -116.25,0 -174.38,-44.875 -174.38,-134.582 0,-78.101 41.12,-117.144 123.32,-117.144 31.53,0 65.58,6.215 102.13,18.699 36.54,12.441 73.49,30.719 110.87,54.82 v 155.774 c -56.48,14.961 -110.46,22.433 -161.94,22.433 z m 17.45,342.699 c 143.65,0 215.46,-61.91 215.46,-185.695 V 278.078 c 0,-12.476 -6.23,-18.699 -18.67,-18.699 h -26.15 c -12.47,0 -19.12,6.223 -19.93,18.699 l -4.98,53.578 c -71.43,-57.316 -146.16,-85.996 -224.19,-85.996 -57.32,0 -102.77,16.41 -136.4,49.238 -33.65,32.793 -50.46,76.629 -50.46,131.469 0,60.625 20.58,108.414 61.66,143.293 41.11,34.914 97.78,52.332 170.03,52.332 26.56,0 55.62,-2.484 87.18,-7.457 31.54,-4.984 61.86,-12.047 90.94,-21.195 v 104.668 c 0,50.687 -12.06,87.043 -36.14,109.055 -24.1,22.003 -63.94,33.027 -119.57,33.027 -51.48,0 -105.87,-8.309 -163.16,-24.926 -9.14,-2.496 -16.41,-4.773 -21.79,-6.863 -5.44,-2.078 -9.77,-3.098 -13.07,-3.098 -9.99,0 -14.97,5.395 -14.97,16.192 v 19.933 c 0,12.477 5.39,20.758 16.21,24.922 31.54,12.484 65.39,22.012 101.5,28.664 36.13,6.652 71.61,9.984 106.5,9.984 z M 8078.25,536.023 7897.64,273.102 c -6.65,-9.172 -15.36,-13.723 -26.15,-13.723 h -34.87 c -10.82,0 -16.2,4.551 -16.2,13.723 0,3.296 2.89,8.718 8.71,16.179 l 213,296.59 -194.31,271.668 c -4.98,7.473 -7.47,12.445 -7.47,14.941 0,9.149 5.39,13.723 16.18,13.723 h 38.62 c 10.79,0 19.51,-4.574 26.16,-13.723 l 163.18,-231.789 163.15,231.789 c 6.62,9.149 14.96,13.723 24.91,13.723 h 33.62 c 10.8,0 16.2,-4.574 16.2,-13.723 0,-3.335 -2.48,-8.707 -7.47,-16.187 L 8123.08,590.852 8336.09,289.281 c 4.98,-7.461 7.46,-12.883 7.46,-16.179 0,-9.172 -5.42,-13.723 -16.21,-13.723 h -38.58 c -9.98,0 -18.29,4.551 -24.92,13.723 z m -575.23,305.305 c -62.26,0 -111.48,-18.265 -147.59,-54.82 -36.13,-36.563 -57.92,-90.149 -65.38,-160.746 32.37,-8.332 64.56,-14.563 96.52,-18.699 31.94,-4.165 64.14,-6.223 96.51,-6.223 62.29,0 107.95,9.121 137.03,27.406 29.05,18.277 43.59,47.359 43.59,87.223 0,83.922 -53.56,125.859 -160.68,125.859 z m 158.19,-514.652 c 10.79,3.304 18.69,6 23.67,8.105 4.98,2.059 9.54,3.098 13.7,3.098 9.97,0 14.94,-5.414 14.94,-16.207 v -17.43 c 0,-13.312 -4.56,-22.023 -13.69,-26.164 -59.81,-24.918 -123.31,-37.398 -190.58,-37.398 -95.48,0 -168.37,27.621 -218.59,82.879 -50.25,55.23 -75.34,136.019 -75.34,242.367 0,52.344 6.63,99.504 19.9,141.441 13.28,41.949 32.58,77.684 57.92,107.188 25.32,29.472 56.26,51.906 92.79,67.273 36.55,15.371 77.65,23.07 123.32,23.07 72.24,0 128.08,-16.636 167.52,-49.843 39.44,-33.262 59.17,-79.754 59.17,-139.586 0,-58.996 -20.97,-102.395 -62.89,-130.231 -41.94,-27.812 -106.93,-41.746 -194.94,-41.746 -31.57,0 -63.34,1.887 -95.27,5.613 -31.98,3.735 -63.75,10.168 -95.31,19.317 0,-89.707 18.89,-155.965 56.68,-198.75 37.79,-42.82 94.46,-64.184 170.02,-64.184 49,0 97.98,7.043 146.98,21.188 z M 6982.9,1162.85 c 0,12.45 6.22,18.69 18.69,18.69 h 33.62 c 12.44,0 18.68,-6.24 18.68,-18.69 V 367.793 c 0,-18.277 3.52,-31.152 10.6,-38.621 7.04,-7.5 19.71,-11.238 37.99,-11.238 4.97,0 10.59,0.421 16.81,1.25 6.22,0.839 11.4,1.25 15.56,1.25 11.61,0 17.45,-5.817 17.45,-17.442 V 279.32 c 0,-9.98 -5.41,-16.211 -16.2,-18.691 -4.98,-1.66 -12.26,-2.899 -21.79,-3.738 -9.58,-0.809 -18.07,-1.25 -25.55,-1.25 -33.21,0 -59.17,9.757 -77.85,29.308 -18.67,19.485 -28.01,46.707 -28.01,81.594 z M 6585.57,562.199 c -116.25,0 -174.38,-44.875 -174.38,-134.582 0,-78.101 41.12,-117.144 123.32,-117.144 31.53,0 65.59,6.215 102.12,18.699 36.55,12.441 73.49,30.719 110.87,54.82 v 155.774 c -56.47,14.961 -110.46,22.433 -161.93,22.433 z m 17.44,342.699 c 143.66,0 215.46,-61.91 215.46,-185.695 V 278.078 c 0,-12.476 -6.21,-18.699 -18.65,-18.699 h -26.17 c -12.46,0 -19.11,6.223 -19.93,18.699 l -4.97,53.578 c -71.44,-57.316 -146.17,-85.996 -224.2,-85.996 -57.31,0 -102.77,16.41 -136.39,49.238 -33.64,32.793 -50.45,76.629 -50.45,131.469 0,60.625 20.56,108.414 61.65,143.293 41.12,34.914 97.79,52.332 170.03,52.332 26.56,0 55.61,-2.484 87.18,-7.457 31.54,-4.984 61.85,-12.047 90.93,-21.195 v 104.668 c 0,50.687 -12.06,87.043 -36.14,109.055 -24.09,22.003 -63.94,33.027 -119.58,33.027 -51.46,0 -105.85,-8.309 -163.14,-24.926 -9.15,-2.496 -16.41,-4.773 -21.78,-6.863 -5.45,-2.078 -9.79,-3.098 -13.09,-3.098 -9.98,0 -14.96,5.395 -14.96,16.192 v 19.933 c 0,12.477 5.39,20.758 16.21,24.922 31.54,12.484 65.39,22.012 101.5,28.664 36.13,6.652 71.6,9.984 106.49,9.984" /><g
         id="g88"><g
           clip-path="url(#clipPath94)"
           id="g90"><path
             id="path96"
             style="fill:#3f3b3c;fill-opacity:1;fill-rule:nonzero;stroke:none"
             d="M 6239.07,142.039 H 8997.31 V 1280.17 H 6239.07 V 142.039" /></g></g><path
         id="path98"
         style="fill:#5fcaf4;fill-opacity:1;fill-rule:evenodd;stroke:none"
         d="M 649.672,1300 C 290.871,1300 0,1008.98 0,649.996 0,320.398 245.207,48.1406 563.055,5.76172 V 136.738 c 0,36.934 -23.282,70.121 -58.274,81.871 -183.39,61.641 -314.586,237.012 -309.754,442.356 5.883,249.984 209.418,446.535 459.336,444.015 249.004,-2.52 450.087,-205.257 450.087,-454.984 0,-5.691 -0.14,-11.355 -0.35,-16.988 -0.05,-1.262 -0.09,-2.535 -0.14,-3.801 -0.24,-5.234 -0.56,-10.457 -0.97,-15.648 -0.12,-1.653 -0.29,-3.301 -0.44,-4.95 -0.32,-3.625 -0.69,-7.226 -1.1,-10.82 -0.46,-4.082 -0.99,-8.141 -1.56,-12.18 -0.25,-1.847 -0.5,-3.699 -0.78,-5.531 C 1043.43,213.121 565.727,6.87891 563.105,5.75 591.434,1.98047 620.324,0 649.672,0 1008.48,0 1299.35,291.012 1299.35,649.996 1299.35,1008.98 1008.48,1300 649.672,1300" /><g
         id="g100"><g
           clip-path="url(#clipPath106)"
           id="g102"><path
             id="path108"
             style="fill:#5fcaf4;fill-opacity:1;fill-rule:nonzero;stroke:none"
             d="M -98.6406,-98.6406 H 1397.99 V 1398.64 H -98.6406 V -98.6406" /></g></g></g></g></svg>