<svg xmlns="http://www.w3.org/2000/svg" viewBox="0 0 129.1 81"><defs><style>.cls-1,.cls-4{fill:#fff;}.cls-1{stroke:#e6e7e7;stroke-miterlimit:10;}.cls-2{fill:#f8981c;}.cls-3{fill:#333e48;}</style></defs><title>amazon-pay-text-logo</title><g id="Layer_1" data-name="Layer 1"><path class="cls-1" d="M128.9,76.7a4.33,4.33,0,0,1-4.3,4.3H5.2A4.33,4.33,0,0,1,.9,76.7V5.3A4.33,4.33,0,0,1,5.2,1H124.7A4.33,4.33,0,0,1,129,5.3V76.8h-.1Z" transform="translate(-0.4 -0.5)"/></g><g id="Layer_2" data-name="Layer 2"><path class="cls-2" d="M26.12,50.19c.28-.51.62-.59,1.17-.31,1.25.68,2.47,1.38,3.75,2a72,72,0,0,0,15.31,5.57A75.31,75.31,0,0,0,54,58.88a72.56,72.56,0,0,0,11.42.62c2.09,0,4.18-.22,6.26-.46A72.53,72.53,0,0,0,91.26,53.9a1.71,1.71,0,0,1,1.09-.14,1,1,0,0,1,.49,1.67,8.57,8.57,0,0,1-1.15.89,46.2,46.2,0,0,1-12,5.75,57.2,57.2,0,0,1-9,2.12,52.5,52.5,0,0,1-6.39.58,2.77,2.77,0,0,0-.3,0H61.46l-.3,0c-.43,0-.87,0-1.29,0a51.45,51.45,0,0,1-6.06-.64,54,54,0,0,1-9.66-2.51,53.33,53.33,0,0,1-17.5-10.46,4.29,4.29,0,0,1-.53-.68Zm73.47-.38c-.12-.6-.58-.83-1.1-1A10.76,10.76,0,0,0,96,48.35a17.72,17.72,0,0,0-4.71.22,12.44,12.44,0,0,0-4.81,1.88,1.47,1.47,0,0,0-.44.42.63.63,0,0,0-.07.48c0,.18.26.23.44.22h.26l2.8-.3a22.81,22.81,0,0,1,4.13-.11,8.77,8.77,0,0,1,1.73.32,1.21,1.21,0,0,1,.91,1.25,8.84,8.84,0,0,1-.42,2.8,49.72,49.72,0,0,1-1.9,5.42,1.69,1.69,0,0,0-.12.36c-.06.35.14.58.49.5a1.29,1.29,0,0,0,.58-.3,19.32,19.32,0,0,0,1.53-1.61,16.3,16.3,0,0,0,3-6.69c.09-.43.16-.88.25-1.31V49.81Z" transform="translate(-0.4 -0.5)"/><path class="cls-3" d="M45,18.55l-.52.07a9.75,9.75,0,0,0-4.57,1.81c-.29.21-.55.43-.85.65a.41.41,0,0,1,0-.16c-.05-.33-.1-.67-.16-1a.8.8,0,0,0-.91-.79H36.54c-.83,0-1,.15-1,1V45.28c0,.12,0,.24,0,.36a.59.59,0,0,0,.59.6h2.54a.6.6,0,0,0,.6-.6c0-.12,0-.24,0-.36v-8.7l.27.23a8.44,8.44,0,0,0,7.33,1.85,7.29,7.29,0,0,0,5.26-4.2,12.2,12.2,0,0,0,1.24-5.3,13.75,13.75,0,0,0-1-6,7.08,7.08,0,0,0-5.28-4.44c-.38-.08-.78-.12-1.18-.18Z" transform="translate(-0.4 -0.5)"/><path class="cls-4" d="M39.28,23.58a.42.42,0,0,1,.2-.39A8.3,8.3,0,0,1,45,21.6a4.35,4.35,0,0,1,4,3.11,11.42,11.42,0,0,1,.59,4,12.05,12.05,0,0,1-.48,3.68A4.64,4.64,0,0,1,44,35.78a8.35,8.35,0,0,1-4.5-1.67.42.42,0,0,1-.2-.39c0-1.7,0-3.38,0-5.08s0-3.36,0-5.06Z" transform="translate(-0.4 -0.5)"/><path class="cls-3" d="M64,18.55l-.34.05a17.69,17.69,0,0,0-3.48.49c-.73.19-1.44.46-2.15.7a.86.86,0,0,0-.64.92c0,.4,0,.79,0,1.19,0,.58.26.73.82.59.94-.24,1.88-.5,2.83-.68a13.14,13.14,0,0,1,4.47-.17,2.93,2.93,0,0,1,2,1,3.3,3.3,0,0,1,.63,2c0,1,0,2,0,3a1.11,1.11,0,0,1,0,.17H68a21.57,21.57,0,0,0-3.85-.59,10.24,10.24,0,0,0-4,.47,5.85,5.85,0,0,0-3.53,3,6.26,6.26,0,0,0-.47,3.69,4.94,4.94,0,0,0,2.57,3.81,7,7,0,0,0,4.56.65,10,10,0,0,0,4.84-2.21.7.7,0,0,1,.19-.13c.07.45.13.89.22,1.32a.68.68,0,0,0,.65.62c.65,0,1.31,0,2,0a.57.57,0,0,0,.57-.56,1.94,1.94,0,0,0,0-.34V24.75a10.1,10.1,0,0,0-.11-1.55,4.75,4.75,0,0,0-2.29-3.65,6.7,6.7,0,0,0-2.62-.86c-.43-.06-.86-.09-1.29-.15Z" transform="translate(-0.4 -0.5)"/><path class="cls-4" d="M68.21,33.9a.42.42,0,0,1-.18.36,9.16,9.16,0,0,1-4.49,1.79,4.08,4.08,0,0,1-2-.22A2.4,2.4,0,0,1,60,34.23a4,4,0,0,1,0-2.33A2.75,2.75,0,0,1,62,30a7.34,7.34,0,0,1,3-.27c1,.09,2,.28,3,.41.19,0,.25.12.25.31,0,.58,0,1.15,0,1.72S68.2,33.33,68.21,33.9Z" transform="translate(-0.4 -0.5)"/><path class="cls-3" d="M83.57,34.64,78.92,21.76c-.24-.69-.5-1.36-.76-2a.79.79,0,0,0-.76-.58c-.92,0-1.83,0-2.76,0-.3,0-.44.24-.38.54a4.75,4.75,0,0,0,.23.73Q78,29.15,81.59,37.9a1.61,1.61,0,0,1,0,1.42c-.39.88-.7,1.8-1.11,2.68a2.77,2.77,0,0,1-1.83,1.6,5,5,0,0,1-1.85.13c-.3,0-.6-.1-.9-.12a.52.52,0,0,0-.63.58c0,.39,0,.79,0,1.19,0,.66.24,1,.89,1.07a12.77,12.77,0,0,0,2,.24A5,5,0,0,0,83,44.11a15.22,15.22,0,0,0,1.11-2.21q4.28-10.78,8.48-21.59a3,3,0,0,0,.2-.66c0-.33-.11-.53-.45-.53-.79,0-1.6,0-2.39,0a.92.92,0,0,0-.93.63c-.06.17-.13.32-.19.49q-2.08,6-4.18,12c-.3.87-.62,1.75-.93,2.67-.05-.13-.07-.2-.11-.29Z" transform="translate(-0.4 -0.5)"/></g></svg>