<?xml version="1.0" encoding="UTF-8" standalone="no"?>
<!-- Created with Inkscape (http://www.inkscape.org/) -->

<svg
   xmlns:dc="http://purl.org/dc/elements/1.1/"
   xmlns:cc="http://creativecommons.org/ns#"
   xmlns:rdf="http://www.w3.org/1999/02/22-rdf-syntax-ns#"
   xmlns:svg="http://www.w3.org/2000/svg"
   xmlns="http://www.w3.org/2000/svg"
   xmlns:sodipodi="http://sodipodi.sourceforge.net/DTD/sodipodi-0.dtd"
   xmlns:inkscape="http://www.inkscape.org/namespaces/inkscape"
   version="1.0"
   width="602.27954"
   height="181.49922"
   id="svg1936"
   inkscape:version="0.92.3 (2405546, 2018-03-11)"
   sodipodi:docname="Amazon_logo_plain.svg">
  <metadata
     id="metadata3355">
    <rdf:RDF>
      <cc:Work
         rdf:about="">
        <dc:format>image/svg+xml</dc:format>
        <dc:type
           rdf:resource="http://purl.org/dc/dcmitype/StillImage" />
        <dc:title />
      </cc:Work>
    </rdf:RDF>
  </metadata>
  <sodipodi:namedview
     pagecolor="#ffffff"
     bordercolor="#666666"
     borderopacity="1"
     objecttolerance="10"
     gridtolerance="10"
     guidetolerance="10"
     inkscape:pageopacity="0"
     inkscape:pageshadow="2"
     inkscape:window-width="1920"
     inkscape:window-height="1046"
     id="namedview3353"
     showgrid="false"
     fit-margin-top="0"
     fit-margin-left="0"
     fit-margin-right="0"
     fit-margin-bottom="0"
     inkscape:zoom="1.241148"
     inkscape:cx="326.55175"
     inkscape:cy="89.541051"
     inkscape:window-x="0"
     inkscape:window-y="34"
     inkscape:window-maximized="1"
     inkscape:current-layer="layer1"
     inkscape:pagecheckerboard="false" />
  <defs
     id="defs1938" />
  <g
     transform="translate(144.53434,-649.87719)"
     id="layer1">
    <path
       style="fill:#ffffff;fill-opacity:1;fill-rule:evenodd;stroke:none"
       d="M 44.804688 0 C 27.082087 0 7.2876206 6.606157 3.1191406 28.523438 C 2.6996706 30.856718 4.3778575 32.088887 5.8984375 32.429688 L 23.988281 34.371094 C 25.666151 34.292444 26.898281 32.640781 27.212891 30.962891 C 28.759681 23.412441 35.104234 19.767578 42.208984 19.767578 C 46.036655 19.767578 50.389041 21.182766 52.669922 24.617188 C 55.265392 28.444827 54.923828 33.688481 54.923828 38.119141 L 54.923828 40.53125 C 44.122476 41.76344 29.992747 42.548979 19.873047 47.005859 C 8.2065568 52.039489 0 62.343573 0 77.470703 C 0 96.844933 12.216851 106.51953 27.894531 106.51953 C 41.160271 106.51953 48.396523 103.39914 58.621094 92.964844 C 62.029284 97.867394 63.129246 100.25408 69.316406 105.39258 C 70.705896 106.12664 72.490466 106.04642 73.722656 104.94531 L 73.773438 104.99805 C 77.496247 101.69473 84.26106 95.79725 88.0625 92.625 C 89.58308 91.36659 89.321204 89.347782 88.115234 87.669922 C 84.707044 82.950872 81.087891 79.122798 81.087891 70.392578 L 81.087891 41.34375 C 81.087891 29.04804 81.953852 17.74929 72.882812 9.28125 C 65.725613 2.41244 53.875698 0 44.804688 0 z M 289.17188 0 C 271.4493 0 251.62859 6.606157 247.48633 28.523438 C 247.04064 30.856718 248.74506 32.088887 250.26562 32.429688 L 268.33008 34.371094 C 270.03419 34.292444 271.26548 32.640781 271.58008 30.962891 C 273.12689 23.412441 279.446 19.767578 286.55078 19.767578 C 290.40464 19.767578 294.75512 21.182766 297.00977 24.617188 C 299.63145 28.444827 299.29102 33.688481 299.29102 38.119141 L 299.29102 40.53125 C 288.48967 41.76344 274.35993 42.548979 264.24023 47.005859 C 252.54752 52.039489 244.36719 62.343573 244.36719 77.470703 C 244.36719 96.844933 256.55783 106.51953 272.26172 106.51953 C 285.50122 106.51953 292.76371 103.39914 302.98828 92.964844 C 306.37025 97.867394 307.49641 100.25408 313.68359 105.39258 C 315.07308 106.12664 316.85766 106.04642 318.08984 104.94531 L 318.11523 104.99805 C 321.83802 101.69473 328.6009 95.79725 332.40234 92.625 C 333.92298 91.36659 333.66219 89.347782 332.48242 87.669922 C 329.07423 82.950872 325.45508 79.122798 325.45508 70.392578 L 325.45508 41.34375 C 325.45508 29.04804 326.32102 17.74929 317.25 9.28125 C 310.0928 2.41244 298.2429 0 289.17188 0 z M 151.90039 0.91796875 C 140.4174 0.91796875 131.89684 6.554645 127.36133 18.640625 L 127.02148 18.640625 L 127.02148 6.1347656 C 126.89038 4.4044556 125.44765 3.0141469 123.63867 2.9355469 L 106.25781 2.9355469 C 104.26533 2.9355469 102.66602 4.4572638 102.66602 6.3710938 L 102.66602 102.03516 C 102.79711 103.73927 104.21141 105.07791 105.99414 105.20898 L 124.63477 105.20898 C 126.62725 105.20898 128.22656 103.66188 128.22656 101.74805 L 128.22656 51.044922 C 128.22656 39.981402 127.70279 24.669922 141.09961 24.669922 C 154.3391 24.669922 152.58203 40.374672 152.58203 51.044922 L 152.60742 101.74805 C 152.60742 103.58323 154.07723 105.07791 155.96484 105.20898 L 174.57812 105.20898 C 176.57061 105.20898 178.16992 103.66188 178.16992 101.74805 L 178.16992 51.044922 C 178.16992 45.618022 177.98656 37.54265 179.90039 32.71875 C 181.81422 27.89484 186.53367 24.878906 191.04297 24.878906 C 196.44365 24.878906 200.61051 26.688218 202 33.111328 C 202.89136 36.938998 202.52539 47.007532 202.52539 51.044922 L 202.52539 101.74805 C 202.52539 103.58323 204.01948 105.07791 205.88086 105.20898 L 224.49414 105.20898 C 226.48662 105.20898 228.08594 103.66188 228.08594 101.74805 L 228.11328 41.371094 C 228.11328 31.120294 229.31871 19.427476 223.41992 11.378906 C 218.20277 4.1430564 209.65637 0.91796875 201.84375 0.91796875 C 190.85888 0.91796875 180.60696 6.554645 176.09766 18.640625 C 170.85429 6.554645 163.56688 0.91796875 151.90039 0.91796875 z M 469.15039 0.91796875 C 442.17325 0.91796875 427.20312 24.067269 427.20312 53.849609 C 427.20313 83.448419 441.98973 107.20117 469.15039 107.20117 C 495.23613 107.20117 511.7793 84.050434 511.7793 54.871094 C 511.7793 24.669284 496.80916 0.91796875 469.15039 0.91796875 z M 575.64258 0.91796875 C 562.77011 0.91796875 555.45545 7.1580348 550.23828 20.240234 L 549.89844 20.240234 L 549.89844 5.6113281 C 549.53139 4.1169681 548.19379 3.0141469 546.56836 2.9355469 L 529.29102 2.9355469 C 527.40341 2.9355469 525.85652 4.3001106 525.69922 6.0566406 L 525.72656 101.74805 C 525.72656 103.58323 527.22062 105.07791 529.08203 105.20898 L 547.64453 105.20898 C 549.63701 105.20898 551.26091 103.66188 551.28711 101.74805 L 551.28711 50.232422 C 551.28711 43.783082 551.62833 37.961604 554.25 32.115234 C 556.32113 27.501084 560.48989 24.460938 565.02539 24.460938 C 577.89787 24.460938 576.69141 39.771902 576.69141 50.232422 L 576.69141 102.19336 C 576.87491 103.8188 578.29198 105.07791 579.99609 105.20898 L 598.6875 105.20898 C 600.52266 105.20898 602.06957 103.87122 602.2793 102.19336 L 602.2793 41.972656 C 602.2793 32.718126 602.27867 19.846726 597.40234 12.191406 C 592.15897 3.9331065 584.00575 0.91796875 575.64258 0.91796875 z M 351.59375 2.6738281 C 349.70614 2.6738281 348.13281 4.0636356 348.13281 6.1347656 L 348.13281 19.820312 C 348.13281 21.865242 349.7056 23.253906 351.67188 23.253906 L 383.68359 23.253906 L 346.90039 76.001953 C 344.67196 79.383923 344.64648 83.185632 344.64648 85.414062 L 344.64648 99.283203 C 344.64648 101.27568 346.87449 103.58323 348.99805 102.42969 C 369.84044 91.366165 394.8786 92.440458 413.72852 102.32422 C 416.0356 103.53018 418.23828 101.19756 418.23828 99.205078 L 418.23828 84.601562 C 418.05476 82.635283 417.39828 80.642567 414.98633 79.279297 C 404.28986 73.249417 391.83665 71.49288 380.03906 71.78125 L 411.78711 26.453125 C 414.72341 22.389515 416.37614 19.819776 416.40234 17.853516 L 416.40234 6.1347656 C 416.40234 4.0898556 414.82956 2.6738281 412.86328 2.6738281 L 351.59375 2.6738281 z M 469.30859 20.449219 C 475.23361 20.449219 479.4007 23.044065 481.49805 29.703125 C 483.93623 37.358455 484.27734 47.007261 484.27734 55.082031 C 484.27734 67.351541 483.59587 87.486328 469.15039 87.486328 C 454.52138 87.486328 454.70508 62.526694 454.70508 50.833984 C 454.70508 39.167474 455.57098 20.449219 469.30859 20.449219 z M 54.923828 55.474609 L 54.923828 59.511719 C 54.923828 66.773779 55.107841 72.829947 51.4375 79.279297 C 48.47498 84.522677 43.782432 87.748047 38.539062 87.748047 C 31.381863 87.748047 27.212891 82.294664 27.212891 74.246094 C 27.212891 58.358694 41.448356 55.474609 54.923828 55.474609 z M 299.29102 55.474609 L 299.29102 59.511719 C 299.29102 66.773779 299.47505 72.829947 295.80469 79.279297 C 292.84219 84.522677 288.1234 87.748047 282.90625 87.748047 C 275.74905 87.748047 271.55469 82.294664 271.55469 74.246094 C 271.55469 58.358694 285.78935 55.474609 299.29102 55.474609 z M 382.94727 109.50977 C 371.35369 109.37042 357.10926 111.72786 346.48242 119.20703 C 343.38885 121.35683 343.91324 124.3472 347.34766 123.92773 C 358.6209 122.59067 383.73648 119.57575 388.19336 125.29102 C 392.67644 131.03251 383.21113 154.65224 378.99023 165.19141 C 377.70559 168.38988 380.45795 169.67562 383.3418 167.26367 C 402.13929 151.5598 406.96436 118.65737 403.13672 113.91211 C 401.3425 111.70006 393.17689 109.63272 382.94727 109.50977 z M 87.667969 115.80469 C 84.925355 115.65134 83.485794 118.76678 86.148438 121.17383 C 127.85945 158.84744 182.99378 181.5 244.23633 181.5 C 287.91358 181.5 338.6431 167.73489 373.64258 141.9375 C 379.4365 137.63794 374.48165 131.24098 368.55664 133.75781 C 329.33624 150.4055 286.68094 158.42773 247.90625 158.42773 C 190.41271 158.42773 134.75454 142.67111 89.740234 116.48047 C 89.002883 116.04789 88.30088 115.84008 87.667969 115.80469 z "
       transform="translate(-144.53434,649.87719)"
       id="path8" />
  </g>
</svg>
