<?xml version="1.0" encoding="UTF-8"?>
<!-- Generator: Adobe Illustrator 18.1.1, SVG Export Plug-In . SVG Version: 6.00 Build 0)  -->
<!DOCTYPE svg PUBLIC "-//W3C//DTD SVG 1.1//EN" "http://www.w3.org/Graphics/SVG/1.1/DTD/svg11.dtd">
<svg version="1.1" id="Layer_1" xmlns="http://www.w3.org/2000/svg" xmlns:xlink="http://www.w3.org/1999/xlink" x="0px" y="0px" viewBox="0 0 102.475 26.422" style="enable-background:new 0 0 102.475 26.422;" xml:space="preserve">
<style type="text/css">
	.st0{fill-rule:evenodd;clip-rule:evenodd;fill:#FF9900;}
	.st1{fill-rule:evenodd;clip-rule:evenodd;fill:#FFFFFF;}
	.st2{fill:#FF9900;}
</style>
<g>
	<g>
		<g>
			<path class="st0" d="M41.331,21.319c-3.777,2.795-9.253,4.281-13.969,4.281c-6.609,0-12.56-2.449-17.064-6.527     c-0.353-0.32-0.038-0.758,0.387-0.51c4.859,2.835,10.867,4.542,17.073,4.542c4.186,0,8.789-0.871,13.023-2.672     C41.421,20.163,41.956,20.856,41.331,21.319z"/>
		</g>
		<g>
			<path class="st0" d="M42.903,19.52c-0.483-0.62-3.194-0.294-4.411-0.148c-0.369,0.044-0.426-0.278-0.093-0.513     c2.162-1.523,5.705-1.083,6.116-0.573c0.415,0.514-0.109,4.076-2.135,5.775c-0.312,0.261-0.608,0.122-0.47-0.223     C42.366,22.696,43.387,20.14,42.903,19.52z"/>
		</g>
		<g>
			<path class="st1" d="M38.578,8.103V6.624c0.001-0.225,0.17-0.375,0.374-0.375l6.614-0.001c0.212,0,0.381,0.154,0.382,0.374     l0,1.269c-0.002,0.213-0.18,0.491-0.498,0.931l-3.426,4.904c1.272-0.03,2.617,0.161,3.772,0.812     c0.261,0.147,0.33,0.364,0.351,0.578v1.578c0,0.218-0.237,0.469-0.487,0.338c-2.036-1.069-4.737-1.186-6.988,0.013     c-0.23,0.123-0.471-0.125-0.471-0.343v-1.501c0-0.24,0.004-0.651,0.246-1.017l3.969-5.709L38.96,8.476     C38.749,8.476,38.579,8.325,38.578,8.103z"/>
		</g>
		<g>
			<path class="st1" d="M14.453,17.344h-2.012c-0.191-0.013-0.345-0.157-0.36-0.341l0.001-10.354c0-0.207,0.174-0.373,0.388-0.373     l1.874-0.001c0.196,0.01,0.353,0.159,0.366,0.348v1.352h0.038c0.488-1.307,1.409-1.917,2.648-1.917     c1.258,0,2.047,0.61,2.611,1.917c0.488-1.307,1.596-1.917,2.78-1.917c0.845,0,1.765,0.349,2.329,1.133     c0.639,0.872,0.507,2.135,0.507,3.246l-0.002,6.534c0,0.207-0.174,0.373-0.388,0.373h-2.01c-0.202-0.013-0.361-0.173-0.361-0.372     l0-5.489c0-0.436,0.038-1.525-0.056-1.939c-0.15-0.697-0.601-0.893-1.183-0.893c-0.488,0-0.996,0.327-1.202,0.85     c-0.207,0.523-0.188,1.394-0.188,1.983v5.488c0,0.207-0.174,0.373-0.388,0.373h-2.01c-0.202-0.013-0.361-0.173-0.361-0.372     l-0.002-5.489c0-1.155,0.188-2.854-1.239-2.854c-1.446,0-1.39,1.656-1.39,2.854l-0.001,5.488     C14.841,17.178,14.667,17.344,14.453,17.344z"/>
		</g>
		<g>
			<path class="st1" d="M51.64,6.058c2.986,0,4.601,2.571,4.601,5.839c0,3.159-1.784,5.665-4.601,5.665     c-2.93,0-4.527-2.571-4.527-5.774C47.114,8.564,48.729,6.058,51.64,6.058z M51.659,8.171c-1.484,0-1.578,2.026-1.578,3.29     c0,1.264-0.019,3.965,1.559,3.965c1.559,0,1.634-2.179,1.634-3.508c0-0.872-0.037-1.917-0.3-2.745     C52.748,8.455,52.297,8.171,51.659,8.171z"/>
		</g>
		<g>
			<path class="st1" d="M60.115,17.344H58.11c-0.201-0.013-0.361-0.173-0.361-0.372L57.746,6.614     c0.017-0.189,0.184-0.338,0.386-0.338l1.866-0.001c0.176,0.009,0.321,0.129,0.358,0.29V8.15h0.038     c0.563-1.416,1.352-2.092,2.742-2.092c0.901,0,1.784,0.327,2.348,1.22C66.01,8.106,66.01,9.5,66.01,10.503v6.515     c-0.023,0.184-0.187,0.326-0.386,0.326h-2.017c-0.186-0.012-0.337-0.149-0.358-0.326v-5.622c0-1.133,0.132-2.789-1.258-2.789     c-0.489,0-0.939,0.327-1.164,0.828c-0.282,0.632-0.32,1.264-0.32,1.961v5.575C60.503,17.178,60.329,17.344,60.115,17.344z"/>
		</g>
		<g>
			<path class="st1" d="M33.306,12.399c0,0.786,0.019,1.441-0.376,2.14c-0.32,0.568-0.828,0.917-1.393,0.917     c-0.772,0-1.223-0.59-1.223-1.463c0-1.718,1.537-2.031,2.993-2.031V12.399z M35.334,17.318c-0.133,0.12-0.325,0.128-0.475,0.047     c-0.668-0.557-0.788-0.814-1.153-1.344c-1.105,1.128-1.887,1.466-3.317,1.466c-1.694,0-3.012-1.048-3.012-3.144     c0-1.638,0.885-2.751,2.146-3.297c1.092-0.48,2.616-0.568,3.783-0.699v-0.262c0-0.48,0.038-1.048-0.245-1.463     c-0.245-0.371-0.715-0.524-1.129-0.524c-0.767,0-1.45,0.394-1.617,1.211c-0.035,0.182-0.167,0.362-0.349,0.371l-1.95-0.212     c-0.165-0.037-0.348-0.17-0.3-0.422c0.448-2.372,2.585-3.089,4.5-3.089c0.979,0,2.259,0.262,3.03,1.004     c0.979,0.917,0.885,2.14,0.885,3.472v3.143c0,0.945,0.392,1.36,0.76,1.87c0.128,0.183,0.157,0.402-0.007,0.536     c-0.411,0.345-1.141,0.981-1.543,1.34L35.334,17.318z"/>
		</g>
		<g>
			<path class="st1" d="M6.929,12.399c0,0.786,0.019,1.441-0.376,2.14c-0.32,0.568-0.828,0.917-1.393,0.917     c-0.772,0-1.223-0.59-1.223-1.463c0-1.718,1.537-2.031,2.993-2.031V12.399z M8.958,17.318c-0.133,0.12-0.325,0.128-0.475,0.047     c-0.668-0.557-0.788-0.814-1.153-1.344c-1.104,1.128-1.887,1.466-3.317,1.466C2.317,17.487,1,16.439,1,14.343     c0-1.638,0.885-2.751,2.146-3.297c1.092-0.48,2.616-0.568,3.783-0.699v-0.262c0-0.48,0.038-1.048-0.245-1.463     C6.44,8.251,5.969,8.098,5.555,8.098c-0.767,0-1.45,0.394-1.617,1.211C3.903,9.491,3.771,9.671,3.588,9.68l-1.95-0.212     c-0.165-0.037-0.348-0.17-0.3-0.422c0.448-2.372,2.585-3.089,4.499-3.089c0.979,0,2.259,0.262,3.031,1.004     c0.979,0.917,0.885,2.14,0.885,3.472v3.143c0,0.945,0.392,1.36,0.759,1.87c0.128,0.183,0.157,0.402-0.006,0.536     c-0.411,0.345-1.141,0.981-1.543,1.34L8.958,17.318z"/>
		</g>
	</g>
	<g>
		<path class="st2" d="M68.341,20.464c0.226,0.041,0.493,0.103,0.761,0.103c0.72,0,0.905-0.31,0.905-1.382V6.951h1.729v12.46    c0,1.774-0.514,2.641-2.407,2.641c-0.371,0-0.7-0.062-0.988-0.186V20.464z M71.818,2.619v2.063h-1.893V2.619H71.818z"/>
		<path class="st2" d="M78.153,6.807c2.778,0,4.218,2.104,4.218,5.405c0,3.301-1.441,5.405-4.218,5.405    c-2.777,0-4.217-2.104-4.217-5.405C73.936,8.911,75.376,6.807,78.153,6.807z M78.153,16.214c1.646,0,2.408-1.361,2.408-4.002    c0-2.641-0.762-4.002-2.408-4.002c-1.646,0-2.407,1.361-2.407,4.002C75.746,14.853,76.507,16.214,78.153,16.214z"/>
		<path class="st2" d="M84.241,2h1.729v6.395h0.042c0.699-1.114,1.48-1.588,2.675-1.588c2.16,0,3.621,1.774,3.621,5.405    c0,3.631-1.461,5.405-3.621,5.405c-1.523,0-2.304-0.866-2.757-1.691h-0.042l-0.061,1.547h-1.667    c0.02-0.639,0.082-1.299,0.082-1.938V2z M88.274,16.214c1.585,0,2.304-1.361,2.304-4.002c0-2.641-0.72-4.002-2.304-4.002    s-2.305,1.361-2.305,4.002C85.969,14.853,86.689,16.214,88.274,16.214z"/>
		<path class="st2" d="M93.889,15.43c0.781,0.475,1.604,0.784,2.468,0.784c1.317,0,1.997-0.681,1.997-1.485    c0-0.722-0.371-1.218-1.338-1.65l-1.151-0.516c-1.503-0.681-2.058-1.362-2.058-2.703c0-1.733,1.337-3.053,3.375-3.053    c0.863,0,1.625,0.145,2.222,0.371L99.32,8.663c-0.535-0.248-1.276-0.454-2.057-0.454c-1.132,0-1.728,0.619-1.728,1.444    c0,0.846,0.617,1.32,1.769,1.774l0.618,0.248c1.276,0.516,2.079,1.382,2.079,2.681c0,1.816-0.968,3.26-3.375,3.26    c-1.09,0-2.078-0.227-2.839-0.619L93.889,15.43z"/>
	</g>
</g>
</svg>