<?xml version="1.0" encoding="UTF-8" standalone="no"?>
<svg
   xmlns:dc="http://purl.org/dc/elements/1.1/"
   xmlns:cc="http://creativecommons.org/ns#"
   xmlns:rdf="http://www.w3.org/1999/02/22-rdf-syntax-ns#"
   xmlns:svg="http://www.w3.org/2000/svg"
   xmlns="http://www.w3.org/2000/svg"
   xmlns:sodipodi="http://sodipodi.sourceforge.net/DTD/sodipodi-0.dtd"
   xmlns:inkscape="http://www.inkscape.org/namespaces/inkscape"
   height="146.91344"
   width="449.09961"
   version="1.1"
   viewBox="0 0 449.09961 146.91344"
   id="svg829"
   sodipodi:docname="The_Book_Depository.svg"
   inkscape:version="0.92.3 (2405546, 2018-03-11)">
  <metadata
     id="metadata835">
    <rdf:RDF>
      <cc:Work
         rdf:about="">
        <dc:format>image/svg+xml</dc:format>
        <dc:type
           rdf:resource="http://purl.org/dc/dcmitype/StillImage" />
        <dc:title />
      </cc:Work>
    </rdf:RDF>
  </metadata>
  <defs
     id="defs833" />
  <sodipodi:namedview
     pagecolor="#ffffff"
     bordercolor="#666666"
     borderopacity="1"
     objecttolerance="10"
     gridtolerance="10"
     guidetolerance="10"
     inkscape:pageopacity="0"
     inkscape:pageshadow="2"
     inkscape:window-width="1920"
     inkscape:window-height="1046"
     id="namedview831"
     showgrid="false"
     fit-margin-top="0"
     fit-margin-left="0"
     fit-margin-right="0"
     fit-margin-bottom="0"
     inkscape:zoom="1.0787234"
     inkscape:cx="26.631647"
     inkscape:cy="72.066469"
     inkscape:window-x="0"
     inkscape:window-y="34"
     inkscape:window-maximized="1"
     inkscape:current-layer="svg829" />
  <path
     style="fill:#ffffff;fill-opacity:1"
     d="m 28.52539,0.01112871 c -1.45,-0.0625 -2.924218,0.136718 -4.324218,0.636718 C 21.101172,1.7478467 3.601562,7.9486277 3.601562,7.9486287 0.801562,8.9486287 0,10.747457 0,13.247457 V 116.64785 c 0,1.3 0,1.90117 1,2.70117 l 54.601562,26.59961 c 3.4,1.5 6.59961,1.79883 6.59961,-3.20117 V 38.048238 c 0,-2.2 -0.8,-2.600782 -2.5,-3.300781 -0.7,-0.4 -45.800391,-20 -46.900391,-20.5 -1.1,-0.5 -0.499219,-1.398438 0.800781,-1.898438 2.2,-0.8 10.898438,-3.8015623 11.898438,-4.1015623 1.4,-0.5 3.201562,-0.499219 5.101562,0.300781 4.2,1.8000003 37.69961,16.3992193 40.59961,17.6992193 3,1.299999 3.5,2.1 3.5,4.5 v 92.201173 c 0,0 -0.3,1.69922 1.5,1.69922 h 5.40039 c 1.5,0 1.298828,-1.5 1.298828,-1.5 V 27.647847 c 0,-3.9 -0.09922,-4.799609 -3.199218,-6.099609 0,0 -42.9,-18.7996093 -47,-20.59960929 -1.3,-0.550001 -2.725782,-0.875 -4.175782,-0.9375 z M 227.90039,19.74941 V 70.548238 H 239 V 54.448629 h 0.19922 l 11,16.099609 h 13.60156 L 250.40039,52.147847 263.30078,37.048238 H 249.90039 L 239.19922,50.647847 H 239 V 19.74941 Z m -119.70117,3.199219 v 47.699218 h 18.90039 c 2.3,0 4.50117,-0.199218 6.70117,-0.699218 2.2,-0.5 4.09883,-1.200782 5.79883,-2.300782 1.7,-1.099999 3.09961,-2.498828 4.09961,-4.298828 1,-1.8 1.5,-3.999609 1.5,-6.599609 0,-1.599999 -0.29883,-3.00039 -0.79883,-4.400391 -0.5,-1.3 -1.19961,-2.400781 -2.09961,-3.300781 -0.9,-0.9 -1.90156,-1.698828 -3.10156,-2.298828 -1.2,-0.6 -2.49883,-1.001172 -3.79883,-1.201172 v -0.09961 c 2.3,-0.700001 4.19961,-1.999219 5.59961,-3.699219 1.5,-1.8 2.19922,-4.001563 2.19922,-6.601563 0,-2.4 -0.5,-4.4 -1.5,-6 -1,-1.5 -2.19883,-2.799219 -3.79883,-3.699218 -1.5,-0.9 -3.30117,-1.500391 -5.20117,-1.900391 -1.9,-0.4 -3.79961,-0.599609 -5.59961,-0.599609 z m 11.10156,9.199218 h 5.59961 c 2.4,0 4.3,0.401563 5.5,1.101563 1.2,0.7 1.79883,1.9 1.79883,3.5 0,1.7 -0.59922,2.998437 -1.69922,3.898437 -1.19999,0.9 -2.8,1.300782 -5,1.300782 h -6.19922 z m 47.09961,3.800782 c -2.6,0 -4.90117,0.399218 -7.20117,1.199218 -2.2,0.8 -4.19844,2 -5.89844,3.5 -1.7,1.5 -3,3.401563 -4,5.601563 -1,2.2 -1.5,4.698436 -1.5,7.398437 0,2.7 0.5,5.200391 1.5,7.400391 1,2.2 2.3,4.099609 4,5.599609 1.7,1.6 3.59844,2.701563 5.89844,3.601563 2.3,0.9 4.70117,1.298828 7.20117,1.298828 2.6,0 4.99922,-0.498828 7.19922,-1.298828 2.2,-0.9 4.20039,-2.101563 5.90039,-3.601563 1.7,-1.5 3,-3.399609 4,-5.599609 1,-2.2 1.5,-4.700391 1.5,-7.400391 0,-2.700001 -0.5,-5.198438 -1.5,-7.398437 -1,-2.2 -2.3,-4.101563 -4,-5.601563 -1.7,-1.5 -3.70039,-2.700001 -5.90039,-3.5 -2.3,-0.8 -4.59922,-1.199218 -7.19922,-1.199218 z m 39.79883,0 c -2.6,0 -4.89922,0.399218 -7.19922,1.199218 -2.2,0.8 -4.20039,2 -5.90039,3.5 -1.7,1.5 -3,3.401563 -4,5.601563 -1,2.2 -1.5,4.698436 -1.5,7.398437 0,2.7 0.5,5.200391 1.5,7.400391 1,2.2 2.3,4.099609 4,5.599609 1.7,1.6 3.60039,2.701563 5.90039,3.601563 2.3,0.9 4.69922,1.298828 7.19922,1.298828 2.6,0 5.00117,-0.498828 7.20117,-1.298828 2.2,-0.9 4.20039,-2.101563 5.90039,-3.601563 1.7,-1.5 3,-3.399609 4,-5.599609 1,-2.2 1.5,-4.700391 1.5,-7.400391 0,-2.700001 -0.5,-5.198438 -1.5,-7.398437 -1,-2.2 -2.3,-4.101563 -4,-5.601563 -1.7,-1.5 -3.70039,-2.700001 -5.90039,-3.5 -2.3,-0.8 -4.60117,-1.199218 -7.20117,-1.199218 z M 166.5,45.147847 c 1.30001,0 2.40039,0.201172 3.40039,0.701172 1,0.5 1.8,1.100391 2.5,1.900391 0.6,0.8 1.1,1.699219 1.5,2.699219 0.3,1.1 0.5,2.099218 0.5,3.199218 0,1.1 -0.2,2.201172 -0.5,3.201172 -0.3,1 -0.8,1.998828 -1.5,2.798828 -0.7,0.8 -1.5,1.5 -2.5,2 -1,0.5 -2.10039,0.701172 -3.40039,0.701172 -1.3,0 -2.39844,-0.201172 -3.39844,-0.701172 -1,-0.5 -1.80001,-1.2 -2.5,-2 -0.7,-0.8 -1.2,-1.798828 -1.5,-2.798828 -0.30001,-1.1 -0.5,-2.101172 -0.5,-3.201172 0,-1.1 0.19999,-2.199218 0.5,-3.199218 0.4,-1 0.9,-1.899219 1.5,-2.699219 0.69999,-0.8 1.5,-1.400391 2.5,-1.900391 1,-0.5 2.09845,-0.701171 3.39844,-0.701172 z m 39.80078,0 c 1.30001,0 2.39844,0.201172 3.39844,0.701172 1,0.5 1.80001,1.100391 2.5,1.900391 0.6,0.8 1.1,1.699219 1.5,2.699219 0.30001,1.1 0.5,2.099218 0.5,3.199218 0,1.1 -0.19999,2.201172 -0.5,3.201172 -0.3,1 -0.8,1.998828 -1.5,2.798828 -0.69999,0.8 -1.5,1.5 -2.5,2 -1,0.5 -2.09844,0.701172 -3.39844,0.701172 -1.3,0 -2.39844,-0.201172 -3.39844,-0.701172 -1,-0.5 -1.80001,-1.2 -2.5,-2 -0.7,-0.8 -1.2,-1.798828 -1.5,-2.798828 -0.30001,-1.1 -0.5,-2.101172 -0.5,-3.201172 0,-1.1 0.19999,-2.199218 0.5,-3.199218 0.4,-1 0.9,-1.899219 1.5,-2.699219 0.69999,-0.8 1.5,-1.400391 2.5,-1.900391 1,-0.5 2.09845,-0.701171 3.39844,-0.701172 z m -87.10156,5.300782 h 6.40039 c 2.5,0 4.40039,0.299609 5.90039,1.099609 1.5,0.8 2.19922,2.099609 2.19922,4.099609 0,1.1 -0.19883,2.1 -0.79883,3 -0.5,0.7 -1.10039,1.301172 -1.90039,1.701172 -0.8,0.400001 -1.59961,0.598828 -2.59961,0.798828 -1,0.1 -1.90078,0.201172 -2.80078,0.201172 h -6.40039 z m 191.60351,24.199218 c -0.9,0 -1.7,0.2 -2.5,0.5 -0.7,0.3 -1.4,0.800782 -2,1.300782 -0.5,0.5 -1.00078,1.20039 -1.30078,1.90039 -0.3,0.7 -0.5,1.498828 -0.5,2.298828 0,1.7 0.60078,3.100782 1.80078,4.300782 1.2,1.2 2.7,1.800781 4.5,1.800781 0.9,0 1.7,-0.2 2.5,-0.5 0.8,-0.3 1.4,-0.800781 2,-1.300781 0.5,-0.5 0.99883,-1.200391 1.29883,-1.900391 0.3,-0.8 0.5,-1.50039 0.5,-2.400391 0,-0.9 -0.2,-1.698828 -0.5,-2.298828 -0.3,-0.7 -0.69883,-1.40039 -1.29883,-1.90039 -0.5,-0.599999 -1.2,-1.000782 -2,-1.300782 -0.8,-0.3 -1.7,-0.5 -2.5,-0.5 z m -202.70117,2.5 v 47.701173 h 17.70117 c 3.3,0 6.49922,-0.50039 9.69922,-1.40039 3.2,-0.9 6.09961,-2.40078 8.59961,-4.30078 2.5,-2 4.59961,-4.5 6.09961,-7.5 1.5,-3 2.30078,-6.59883 2.30078,-10.79883 0,-4.499999 -0.80039,-8.200779 -2.40039,-11.300779 -1.6,-3.099999 -3.59922,-5.498831 -6.19922,-7.298831 -2.5,-1.8 -5.40117,-3.100391 -8.70117,-3.900391 -3.2,-0.8 -6.49844,-1.201172 -9.89844,-1.201172 z m 217.30078,5.400391 v 8.800783 h -5.30078 v 8.19922 h 5.40039 v 14.201169 c 0,1.8 0.19961,3.39844 0.59961,4.89844 0.4,1.5 1.1,2.70078 2,3.80078 1,1 2.20117,1.80039 3.70117,2.40039 1.5,0.5 3.39961,0.79883 5.59961,0.79883 1.19999,0 2.3,-0.0988 3.5,-0.29883 1.19999,-0.2 2.10039,-0.40117 2.90039,-0.70117 l -0.10156,-8.09961 c -0.4,0.2 -0.9,0.30039 -1.5,0.40039 -0.60001,0.1 -1.20117,0.0996 -1.70117,0.0996 -1.6,0 -2.69884,-0.39922 -3.29883,-1.19922 -0.60001,-0.7 -0.89844,-1.9 -0.89844,-3.5 V 99.548241 h 7.79883 v -8.19922 h -7.90039 v -8.800783 z m -206,4.400391 h 5.69922 c 1.9,0 3.79923,0.299219 5.69922,0.699218 1.90001,0.5 3.5,1.200784 5,2.300784 1.5,1 2.6,2.39922 3.5,4.19922 0.90001,1.8 1.30078,4.00117 1.30078,6.701169 0,2.6 -0.5004,4.89961 -1.40039,6.59961 -0.9,1.8 -2,3.20078 -3.5,4.30078 -1.4,1.1 -3.1,1.79883 -5,2.29883 -1.9,0.5 -3.79844,0.70117 -5.89844,0.70117 h -5.40039 z M 288.5,90.048241 c -1.6,0 -3.30038,0.19961 -4.90039,0.59961 -1.7,0.4 -3.2,1.1 -4.5,2 -1.39999,0.9 -2.39882,2.1 -3.29883,3.5 -0.9,1.4 -1.30078,3.10156 -1.30078,5.101559 0,1.5 0.30233,2.9 0.90234,4 0.6,1.1 1.39882,1.99883 2.29883,2.79883 0.89999,0.7 1.90156,1.40078 3.10156,1.80078 1.2,0.5 2.3,0.79961 3.5,1.09961 2.2,0.5 3.9,1 5,1.5 1.1,0.5 1.59961,1.30078 1.59961,2.30078 0,1.1 -0.40078,1.89883 -1.30078,2.29883 -0.9,0.4 -1.79922,0.59961 -2.69922,0.59961 -1.60001,0 -3.19961,-0.39961 -4.59961,-1.09961 -1.4,-0.7 -2.60156,-1.59922 -3.60156,-2.69922 l -6.20117,6.5 c 1.80001,1.7 3.99962,3.00039 6.59961,3.90039 2.60001,0.9 5.3,1.29883 8,1.29883 1.7,0 3.39961,-0.19961 5.09961,-0.59961 1.7,-0.4 3.20156,-1.00039 4.60156,-1.90039 1.3,-0.9 2.39883,-2 3.29883,-3.5 0.9,-1.4 1.30078,-3.19883 1.30078,-5.29883 0,-1.6 -0.30039,-3.00117 -0.90039,-4.20117 -0.6,-1.2 -1.5,-2.2 -2.5,-3 -1.1,-0.8 -2.2,-1.40039 -3.5,-1.90039 -1.3,-0.5 -2.50078,-0.79961 -3.80078,-1.09961 -2.2,-0.4 -3.69922,-0.89883 -4.69922,-1.29883 -0.9,-0.4 -1.40039,-1.1 -1.40039,-2 0,-0.999999 0.40078,-1.701559 1.30078,-2.101559 0.9,-0.4 1.90039,-0.59961 2.90039,-0.59961 1.3,0 2.59883,0.30039 3.79883,0.90039 1.3,0.6 2.30117,1.299219 3.20117,2.199219 L 302,94.749411 c -1.69999,-1.5 -3.69767,-2.7 -6.09766,-3.5 -2.4,-0.8 -4.90234,-1.20117 -7.40234,-1.20117 z m -35.30078,0.0996 c -2.6,0 -4.89922,0.40117 -7.19922,1.20117 -2.2,0.8 -4.20039,2 -5.90039,3.5 -1.7,1.5 -3,3.39961 -4,5.599609 -1,2.2 -1.5,4.70039 -1.5,7.40039 0,2.7 0.5,5.20039 1.5,7.40039 1,2.2 2.3,4.09961 4,5.59961 1.7,1.6 3.60039,2.69961 5.90039,3.59961 2.3,0.9 4.69922,1.30078 7.19922,1.30078 2.6,0 5.00117,-0.50078 7.20117,-1.30078 2.2,-0.9 4.20039,-2.09961 5.90039,-3.59961 1.7,-1.5 3,-3.39961 4,-5.59961 1,-2.2 1.5,-4.70039 1.5,-7.40039 0,-2.7 -0.5,-5.10039 -1.5,-7.40039 -1,-2.199999 -2.3,-4.099609 -4,-5.599609 -1.7,-1.5 -3.70039,-2.7 -5.90039,-3.5 -2.3,-0.8 -4.60117,-1.20117 -7.20117,-1.20117 z m 111.60156,0 c -2.6,0 -4.90117,0.40117 -7.20117,1.20117 -2.2,0.8 -4.20039,2 -5.90039,3.5 -1.7,1.5 -3,3.39961 -4,5.599609 -1,2.2 -1.5,4.70039 -1.5,7.40039 0,2.7 0.5,5.20039 1.5,7.40039 1,2.2 2.3,4.09961 4,5.59961 1.7,1.6 3.60039,2.69961 5.90039,3.59961 2.3,0.9 4.70117,1.30078 7.20117,1.30078 2.6,0 4.99922,-0.50078 7.19922,-1.30078 2.2,-0.9 4.20234,-2.09961 5.90234,-3.59961 1.69999,-1.5 3,-3.39961 4,-5.59961 1,-2.2 1.5,-4.70039 1.5,-7.40039 0,-2.7 -0.5,-5.10039 -1.5,-7.40039 -1,-2.199999 -2.30001,-4.099609 -4,-5.599609 -1.7,-1.5 -3.70234,-2.7 -5.90234,-3.5 -2.3,-0.8 -4.59922,-1.20117 -7.19922,-1.20117 z m -191.70117,0.20117 c -2.5,0 -4.89961,0.39883 -7.09961,1.29883 -2.2,0.9 -4.09922,2.10156 -5.69922,3.60156 -1.6,1.5 -2.90078,3.39961 -3.80078,5.599609 -0.9,2.2 -1.40039,4.70039 -1.40039,7.40039 0,2.8 0.40039,5.3 1.40039,7.5 1,2.2 2.3,4 4,5.5 1.7,1.5 3.70039,2.59844 5.90039,3.39844 2.2,0.8 4.59961,1.20117 7.09961,1.20117 3.4,0 6.4,-0.60078 9,-1.80078 2.6,-1.3 4.59922,-2.99883 6.19922,-5.29883 L 181,113.94862 c -0.8,1 -1.8,1.9 -3,2.5 -1.19999,0.7 -2.69845,1 -4.39844,1 -1,0 -2.0004,-0.2 -2.90039,-0.5 -0.9,-0.3 -1.8,-0.70078 -2.5,-1.30078 -0.7,-0.6 -1.29883,-1.2 -1.79883,-2 -0.4,-0.8 -0.70078,-1.69961 -0.80078,-2.59961 h 24.30078 c 0.1,-0.4 0.0977,-0.89883 0.0977,-1.29883 l 0.002,-1.30078 c 0,-2.9 -0.40078,-5.39961 -1.30078,-7.59961 -0.9,-2.199999 -2,-4.101169 -3.5,-5.701169 -1.5,-1.6 -3.19883,-2.79961 -5.29883,-3.59961 -2.1,-0.8 -4.30273,-1.19922 -6.80273,-1.19922 z m 233.40039,0 c -2,0 -3.80038,0.49961 -5.40039,1.59961 -1.5,1.1 -2.69961,2.49922 -3.59961,4.19922 h -0.0977 v -4.79883 h -10.59961 v 33.298829 h 11 v -17.19922 c 0,-0.6 0.0984,-1.40078 0.39844,-2.30078 0.30001,-0.9 0.70079,-1.7 1.30078,-2.5 0.6,-0.7 1.40039,-1.39844 2.40039,-1.89844 1,-0.5 2.19922,-0.800779 3.69922,-0.800779 0.5,0 0.90039,0.0996 1.40039,0.0996 0.4,0.1 0.90039,0.20078 1.40039,0.30078 l 0.40039,-9.701169 c -0.2,-0.1 -0.6,-0.19922 -1,-0.19922 -0.4,-0.1 -0.90078,-0.0996 -1.30078,-0.0996 z m -190.80078,0.0996 c -2.4,0 -4.59844,0.5 -6.39844,1.5 -1.8,1 -3.30078,2.2 -4.30078,3.5 h -0.19922 v -4.09961 h -10.5 V 140.849 h 11 v -19.80076 h 0.0996 c 1,1.4 2.49883,2.60039 4.29883,3.40039 1.8,0.8 3.70078,1.19922 5.80078,1.19922 2.5,0 4.69922,-0.5 6.69922,-1.5 2,-1 3.6,-2.29844 5,-3.89844 1.3,-1.7 2.40156,-3.60117 3.10156,-5.70117 0.7,-2.1 1.09961,-4.39922 1.09961,-6.69922 0,-2.3 -0.40039,-4.49961 -0.90039,-6.59961 -0.8,-2.099999 -1.79922,-4.001559 -3.19922,-5.601559 -1.4,-1.6 -3,-2.89883 -5,-3.79883 -2,-0.9 -4.20156,-1.40039 -6.60156,-1.40039 z m 89.5,0.90039 v 33.400389 0.0996 h 11 V 91.348991 Z m 105.60156,0 14,32.900389 -1.10156,2.79883 c -0.5,1.4 -1.09844,2.50078 -1.89844,3.30078 -0.8,0.8 -2.00117,1.19922 -3.70117,1.19922 -0.6,0 -1.19883,-0.0992 -1.79883,-0.19922 -0.7,-0.1 -1.30078,-0.20039 -1.80078,-0.40039 l -1.19922,9.30078 c 0.9,0.2 1.79844,0.4 2.89844,0.5 1.1,0.1 2.20117,0.19922 3.20117,0.19922 2.1,0 4,-0.19922 5.5,-0.69922 1.5,-0.5 2.9,-1.20117 4,-2.20117 1.2,-1 2.2,-2.1 3,-3.5 0.9,-1.4 1.59883,-2.99922 2.29883,-4.69922 L 449.09961,91.349001 H 437.40039 L 430.69922,112.849 H 430.5 L 423,91.349001 Z m -237.40039,6.5 c 2.2,0 3.80039,0.60039 4.90039,1.90039 1.1,1.299999 1.59961,2.799999 1.59961,4.499999 h -14.20117 c 0.1,-0.9 0.30118,-1.7 0.70117,-2.5 0.4,-0.7 0.89961,-1.4 1.59961,-1.999999 0.7,-0.6 1.5004,-1.10039 2.40039,-1.40039 0.9,-0.3 1.9,-0.5 3,-0.5 z m 39.40039,1.5 c 1.3,0 2.39844,0.19922 3.39844,0.699219 1,0.5 1.8,1.10039 2.5,1.90039 0.7,0.8 1.2,1.69922 1.5,2.69922 0.3,1.1 0.5,2.10117 0.5,3.20117 0,1.1 -0.2,2.19883 -0.5,3.29883 -0.4,1.1 -0.9,2.00078 -1.5,2.80078 -0.7,0.8 -1.5,1.40039 -2.5,1.90039 -1,0.5 -2.09844,0.69922 -3.39844,0.69922 -1.3,0 -2.40039,-0.19922 -3.40039,-0.69922 -1,-0.4 -1.8,-1.10039 -2.5,-1.90039 -0.7,-0.9 -1.19961,-1.80078 -1.59961,-2.80078 -0.4,-1.1 -0.60156,-2.09922 -0.60156,-3.19922 0,-1.1 0.20156,-2.19922 0.60156,-3.19922 0.4,-1.1 0.89961,-2.00078 1.59961,-2.80078 0.7,-0.8 1.5,-1.40039 2.5,-1.90039 1,-0.499999 2.10039,-0.699219 3.40039,-0.699219 z m 40.5,0 c 1.3,0 2.39844,0.19922 3.39844,0.699219 1,0.5 1.8,1.10039 2.5,1.90039 0.6,0.8 1.1,1.69922 1.5,2.69922 0.3,1.1 0.5,2.10117 0.5,3.20117 0,1.1 -0.2,2.19922 -0.5,3.19922 -0.3,1 -0.8,2.00078 -1.5,2.80078 -0.7,0.8 -1.5,1.5 -2.5,2 -1,0.5 -2.09844,0.69922 -3.39844,0.69922 -1.3,0 -2.40039,-0.19922 -3.40039,-0.69922 -1,-0.5 -1.8,-1.2 -2.5,-2 -0.7,-0.8 -1.2,-1.80078 -1.5,-2.80078 -0.3,-1.1 -0.5,-2.09922 -0.5,-3.19922 0,-1.1 0.2,-2.20117 0.5,-3.20117 0.4,-1 0.9,-1.89922 1.5,-2.69922 0.7,-0.8 1.5,-1.40039 2.5,-1.90039 1,-0.499999 2.10039,-0.699219 3.40039,-0.699219 z m 111.59961,0 c 1.3,0 2.40039,0.19922 3.40039,0.699219 1,0.5 1.8,1.10039 2.5,1.90039 0.6,0.8 1.1,1.69922 1.5,2.69922 0.3,1.1 0.5,2.10117 0.5,3.20117 0,1.1 -0.1,2.19922 -0.5,3.19922 -0.3,1 -0.8,2.00078 -1.5,2.80078 -0.7,0.8 -1.5,1.5 -2.5,2 -1,0.5 -2.10039,0.69922 -3.40039,0.69922 -1.3,0 -2.40039,-0.19922 -3.40039,-0.69922 -1,-0.5 -1.8,-1.2 -2.5,-2 -0.7,-0.8 -1.2,-1.80078 -1.5,-2.80078 -0.3,-1.1 -0.5,-2.09922 -0.5,-3.19922 0,-1.1 0.2,-2.20117 0.5,-3.20117 0.4,-1 0.9,-1.89922 1.5,-2.69922 0.7,-0.8 1.5,-1.40039 2.5,-1.90039 1,-0.499999 2.10039,-0.699219 3.40039,-0.699219 z"
     id="path825"
     inkscape:connector-curvature="0" />
</svg>
