<svg class="Logo-svg prefix-1@m prefix-2@m-min" viewBox="0 0 800 228"><path d="m108.2 1.4c-15.7 0-30.2 2.9-43.1 8.6 -12.9 5.7-24.3 13.6-33.8 23.6 -9.5 10-17 21.9-22.2 35.4 -5.2 13.5-7.9 28.5-7.9 44.5 0 16.6 2.6 32 7.7 45.7 5.1 13.7 12.5 25.7 22 35.7 9.5 10 21 17.8 34.3 23.4 13.2 5.5 28.2 8.3 44.5 8.3 19.1 0 36.8-3.6 52.7-10.7 15.6-7 28.9-18.6 39.6-34.5l-19.2-16.1c-7.2 11.5-17.5 20.8-30.6 27.5 -13.4 6.9-27.6 10.4-42 10.4 -16.6 0-30.3-3.2-40.8-9.5 -10.5-6.3-19-13.9-25.2-22.7 -6.3-8.7-10.6-17.9-13-27.1 -2.3-9.2-3.5-16.9-3.5-22.9v-0.9h181.2v-18.7c0-12.3-2.2-24.6-6.5-36.6 -4.3-12-10.8-22.8-19.2-32.2 -8.4-9.4-19-17-31.5-22.7 -12.7-5.6-27.2-8.5-43.5-8.5l0 0 0 0 0 0 0 0 0 0 0 0zm74.2 95.3h-155v-0.9c0-2.9 1.2-8.1 3.8-15.9 2.5-7.7 6.8-15.7 12.7-23.8 5.9-8.1 14.1-15.4 24.3-21.7 10.2-6.3 23.2-9.5 38.5-9.5 10.3 0 20.3 1.9 29.5 5.7 9.2 3.8 17.3 8.9 24.1 15.4 6.7 6.4 12.1 14 16.1 22.5 3.9 8.5 5.9 17.7 5.9 27.5v0.7l0.1 0 0 0 0 0 0 0 0 0 0 0zm164.9-95.3c-15.7 0-30.2 2.9-43.1 8.6 -12.9 5.7-24.3 13.6-33.8 23.6 -9.5 10-17 21.9-22.2 35.4 -5.2 13.5-7.9 28.5-7.9 44.5 0 16.6 2.6 32 7.7 45.7 5.1 13.7 12.5 25.7 22 35.7 9.5 10 21 17.8 34.3 23.4 13.2 5.5 28.2 8.3 44.5 8.3 19.1 0 36.8-3.6 52.7-10.7 15.6-7 28.9-18.6 39.6-34.5l-19.2-16.1c-7.2 11.5-17.5 20.8-30.6 27.5 -13.4 6.9-27.6 10.4-42 10.4 -16.6 0-30.3-3.2-40.8-9.5 -10.5-6.3-19-13.9-25.2-22.7 -6.3-8.7-10.6-17.9-13-27.1 -2.3-9.2-3.5-16.9-3.5-22.9v-0.9h181.2v-18.7c0-12.3-2.2-24.6-6.5-36.6 -4.3-12-10.8-22.8-19.2-32.2 -8.4-9.4-19-17-31.5-22.7 -12.7-5.6-27.2-8.5-43.5-8.5l0 0zm74.2 95.3h-155v-0.9c0-2.9 1.2-8.1 3.8-15.9 2.5-7.7 6.8-15.7 12.7-23.8 5.9-8.1 14.1-15.4 24.3-21.7 10.2-6.3 23.2-9.5 38.5-9.5 10.3 0 20.3 1.9 29.5 5.7 9.2 3.8 17.3 8.9 24.1 15.4 6.7 6.4 12.1 14 16.1 22.5 3.9 8.5 5.9 17.7 5.9 27.5v0.7l0.1 0 0 0zm264.7-95.3c-16.3 0-31.6 2.8-45.4 8.3 -13.8 5.5-25.8 13.4-35.7 23.4 -9.8 10-17.6 22-23.2 35.7 -5.5 13.7-8.3 28.9-8.3 45.2 0 16.3 2.8 31.5 8.3 45.2 5.5 13.7 13.3 25.7 23.2 35.7 9.8 10 21.8 17.8 35.7 23.4 13.8 5.5 29.1 8.3 45.4 8.3 16.3 0 31.5-2.8 45.2-8.3 13.7-5.5 25.7-13.4 35.7-23.4 10-10 17.9-22 23.4-35.7 5.5-13.7 8.3-28.9 8.3-45.2 0-16.3-2.8-31.5-8.3-45.2 -5.5-13.7-13.4-25.7-23.4-35.7 -10-10-22-17.9-35.7-23.4 -13.6-5.5-28.9-8.3-45.2-8.3zm0 201.8c-13.1 0-25.2-2.4-35.8-7.1 -10.6-4.7-19.9-11.1-27.4-19.1 -7.5-8-13.3-17.5-17.2-28.3 -3.9-10.8-5.9-22.4-5.9-34.6s2-23.9 5.9-34.6c3.9-10.8 9.7-20.3 17.2-28.3 7.5-8 16.7-14.4 27.4-19.1 10.6-4.7 22.7-7.1 35.8-7.1 13.1 0 25.2 2.4 35.8 7.1 10.6 4.7 19.9 11.1 27.4 19.1 7.5 8 13.3 17.5 17.2 28.3 3.9 10.8 5.9 22.4 5.9 34.6s-2 23.8-5.9 34.6c-3.9 10.8-9.7 20.3-17.2 28.3 -7.5 8-16.7 14.4-27.4 19.1 -10.6 4.7-22.6 7.1-35.8 7.1zm-207.1 17.9h26.3v-116.8c0-10.6 1.4-20.7 4.2-29.9 2.8-9.3 7.2-17.5 13-24.4 5.8-6.9 13.3-12.4 22.3-16.3 8.7-3.8 19.2-5.8 31-5.9v-24.3c-30.6 0.7-54.5 10-71.2 27.8 -27.4 29.2-25.6 71.7-25.6 72.1l0 117.7 0 0 0 0 0 0 0 0 0 0z"></path></svg>
