<?xml version="1.0" encoding="UTF-8" standalone="no"?>
<!-- Created with Inkscape (http://www.inkscape.org/) -->

<svg
   xmlns:dc="http://purl.org/dc/elements/1.1/"
   xmlns:cc="http://creativecommons.org/ns#"
   xmlns:rdf="http://www.w3.org/1999/02/22-rdf-syntax-ns#"
   xmlns:svg="http://www.w3.org/2000/svg"
   xmlns="http://www.w3.org/2000/svg"
   xmlns:sodipodi="http://sodipodi.sourceforge.net/DTD/sodipodi-0.dtd"
   xmlns:inkscape="http://www.inkscape.org/namespaces/inkscape"
   id="svg2"
   version="1.1"
   inkscape:version="0.92.3 (2405546, 2018-03-11)"
   width="303.45377"
   height="65.497818"
   sodipodi:docname="Goodreads_logo.svg">
  <metadata
     id="metadata8">
    <rdf:RDF>
      <cc:Work
         rdf:about="">
        <dc:format>image/svg+xml</dc:format>
        <dc:type
           rdf:resource="http://purl.org/dc/dcmitype/StillImage" />
      </cc:Work>
    </rdf:RDF>
  </metadata>
  <defs
     id="defs6" />
  <sodipodi:namedview
     pagecolor="#ffffff"
     bordercolor="#666666"
     borderopacity="1"
     objecttolerance="10"
     gridtolerance="10"
     guidetolerance="10"
     inkscape:pageopacity="0"
     inkscape:pageshadow="2"
     inkscape:window-width="1920"
     inkscape:window-height="1046"
     id="namedview4"
     showgrid="false"
     inkscape:zoom="1"
     inkscape:cx="300.81758"
     inkscape:cy="256.26755"
     inkscape:window-x="0"
     inkscape:window-y="34"
     inkscape:window-maximized="1"
     inkscape:current-layer="svg2"
     fit-margin-top="0"
     fit-margin-left="0"
     fit-margin-right="0"
     fit-margin-bottom="0" />
  <path
     style="font-style:normal;font-variant:normal;font-weight:200;font-stretch:normal;font-size:medium;line-height:0%;font-family:Aliquam;-inkscape-font-specification:'Aliquam Ultra-Light';letter-spacing:-1.30000007px;word-spacing:-0.85000002px;fill:#f5ffff;fill-opacity:1;stroke:none"
     d="M 135.88867 0 L 135.88867 24.892578 L 135.74414 24.892578 C 134.83801 21.315174 133.07301 18.523925 130.44727 16.517578 C 127.82147 14.511301 124.66948 13.507853 120.99414 13.507812 C 115.9815 13.507853 112.04363 15.221742 109.17969 19.378906 C 106.60272 23.100943 105.31445 27.597686 105.31445 32.867188 C 105.31445 38.232616 106.57901 42.727407 109.10938 46.353516 C 111.97332 50.462036 115.93488 52.517577 120.99414 52.517578 C 124.52671 52.517577 127.6296 51.477038 130.30273 49.398438 C 132.97582 47.319841 134.78994 44.56616 135.74414 41.134766 L 135.88867 41.134766 L 135.88867 51.648438 L 137.32031 51.648438 L 137.32031 0 L 135.88867 0 z M 263.31641 0.01953125 L 263.31641 18.642578 C 262.22091 17.108373 260.79884 15.864189 259.05078 14.908203 C 257.30267 13.952291 252.12425 13.474647 249.88672 13.474609 C 246.83338 13.474647 244.07023 14.289351 241.59961 15.917969 C 239.12897 17.546658 237.27633 19.888666 236.04102 22.945312 C 234.80571 26.002016 234.18749 29.407191 234.1875 33.160156 C 234.18749 37.007574 234.86891 40.412747 236.23242 43.375 C 237.59593 46.337269 239.51967 48.64462 242.00195 50.296875 C 244.48423 51.949134 247.20591 52.77539 250.16602 52.775391 C 254.73433 52.77539 261.38222 50.909073 263.73633 47.179688 L 263.73633 51.923828 L 268.74414 51.923828 L 268.74414 0.01953125 L 263.31641 0.01953125 z M 161.23047 12.958984 C 159.80727 12.986827 158.38 13.454383 157.25391 13.882812 C 155.88148 14.404965 154.32911 15.714739 153.10547 16.564453 C 151.88178 17.414204 151.00367 18.942192 149.55859 21.609375 L 149.55859 14.046875 L 144.72461 14.046875 L 144.72461 51.648438 L 149.8418 51.648438 L 149.8418 31.962891 C 149.84179 29.272092 150.12303 27.762074 150.82227 25.496094 C 151.28841 24.00909 152.21987 23.46453 153.24609 22.210938 C 154.11971 21.143747 155.68631 20.349534 156.93945 19.783203 C 158.67369 18.999452 162.2683 17.891987 163.80664 18.8125 L 163.72266 13.486328 C 162.93779 13.083177 162.08439 12.942279 161.23047 12.958984 z M 15.822266 13.144531 C 10.811071 13.14457 6.8495124 14.981485 3.9375 18.65625 C 1.3124531 22.038984 -1.9236176e-06 26.341682 0 31.5625 C -1.9236176e-06 36.687468 1.2640667 40.892883 3.7929688 44.179688 C 6.5622211 47.804333 10.40576 49.617189 15.322266 49.617188 C 18.664006 49.617189 21.730846 48.650091 24.523438 46.716797 C 27.315978 44.783514 29.069865 42.220231 29.785156 39.029297 L 29.929688 39.029297 L 29.929688 50.416016 C 29.929657 59.503433 25.275332 64.046863 15.966797 64.046875 C 12.386118 64.046863 9.4980285 63.225426 7.3027344 61.582031 C 4.8685169 59.74536 3.5802549 57.085534 3.4375 53.605469 L 2.0039062 53.605469 C 2.100047 57.520726 3.5310186 60.54263 6.2988281 62.669922 C 8.7811006 64.555255 12.028647 65.498033 16.039062 65.498047 C 20.955534 65.498033 24.737612 64.216761 27.386719 61.654297 C 30.035766 59.091814 31.361294 55.346235 31.361328 50.416016 L 31.361328 14.013672 L 29.929688 14.013672 L 29.929688 24.019531 L 29.785156 24.019531 C 29.021794 20.830112 27.326914 18.220141 24.701172 16.189453 C 22.075375 14.158835 19.115932 13.14457 15.822266 13.144531 z M 51.541016 13.144531 C 46.38706 13.14457 42.259094 15.149516 39.15625 19.162109 C 36.338913 22.884145 34.931638 27.429531 34.931641 32.794922 C 34.931638 38.209034 36.314719 42.752942 39.083984 46.427734 C 42.186829 50.487571 46.317243 52.517577 51.472656 52.517578 C 56.674647 52.517577 60.803108 50.487571 63.859375 46.427734 C 66.675218 42.752942 68.083949 38.209034 68.083984 32.794922 C 68.083949 27.429531 66.675218 22.909682 63.859375 19.236328 C 60.803108 15.175053 56.696391 13.14457 51.541016 13.144531 z M 87.449219 13.144531 C 82.295262 13.14457 78.167297 15.149516 75.064453 19.162109 C 72.247117 22.884145 70.837889 27.429531 70.837891 32.794922 C 70.837889 38.209034 72.222923 42.752942 74.992188 46.427734 C 78.095032 50.487571 82.223494 52.517577 87.378906 52.517578 C 92.580898 52.517577 96.711309 50.487571 99.767578 46.427734 C 102.58342 42.752942 103.99019 38.209034 103.99023 32.794922 C 103.99019 27.429531 102.58342 22.909682 99.767578 19.236328 C 96.711309 15.175053 92.604594 13.14457 87.449219 13.144531 z M 179.73438 13.197266 C 174.60665 13.197304 170.43522 14.94419 167.21875 18.4375 C 164.00227 21.930877 162.39453 26.84025 162.39453 33.166016 C 162.39453 39.279387 163.98449 44.028893 167.16602 47.416016 C 170.34752 50.803148 174.65324 52.498046 180.08398 52.498047 C 184.39591 52.498046 187.93923 51.43488 190.71289 49.310547 C 193.48648 47.186218 195.6795 43.417724 196.70508 39.570312 L 190.79102 39.636719 C 189.83537 42.327549 188.54167 44.286287 186.91016 45.513672 C 185.27859 46.741069 182.42659 48.138676 180.11914 48.138672 C 177.01917 48.138676 173.25797 47.040853 171.18359 44.845703 C 169.10918 42.650569 167.75846 38.607222 167.52539 34.476562 L 196.58594 34.476562 C 196.60924 33.721261 196.62106 33.155021 196.62109 32.777344 C 196.62106 26.569596 195.04886 21.752644 191.90234 18.330078 C 188.75575 14.907578 184.69893 13.197304 179.73438 13.197266 z M 215.63477 13.197266 C 212.44158 13.197304 209.63297 13.640291 207.20898 14.525391 C 204.78496 15.410567 202.93036 16.672078 201.64844 18.3125 C 200.3665 19.952989 199.91094 22.940233 199.35156 25.607422 L 205.04102 25.625 C 205.03117 21.978123 206.75978 20.021099 208.16992 18.970703 C 209.58002 17.920372 211.7645 17.394565 214.72461 17.394531 C 217.89445 17.394565 220.28432 18.114894 221.89258 19.554688 C 223.08125 20.616884 223.67575 23.524715 223.67578 26.121094 C 223.67578 26.357156 223.66393 26.911845 223.64062 27.785156 C 221.23989 28.634912 217.49906 29.364843 212.41797 29.978516 C 209.92402 30.285385 208.05953 30.605116 206.82422 30.935547 C 205.14605 31.407642 203.63707 32.102913 202.29688 33.023438 C 200.95668 33.943999 199.87235 35.167031 199.04492 36.689453 C 198.21749 38.211905 197.80273 39.893299 197.80273 41.734375 C 197.80273 44.873674 198.8989 47.45259 201.08984 49.470703 C 203.28077 51.488819 206.41525 52.498046 210.49414 52.498047 C 212.96475 52.498046 215.27759 52.083942 217.43359 51.257812 C 219.58954 50.431685 221.83326 49.016084 224.16406 47.009766 C 224.35049 48.780047 225.22606 51.047887 226.60156 51.578125 C 228.28785 52.228173 233.18359 51.935547 233.18359 51.935547 L 233.10352 47.076172 C 231.06409 47.437484 229.49456 46.763008 229.22656 45.193359 C 228.95859 43.623718 229.17188 41.817116 229.17188 35.892578 L 229.17188 27.394531 C 229.17185 24.562113 229.06716 22.603378 228.85742 21.517578 C 228.48446 19.770936 228.0397 18.533484 227.10742 17.388672 C 226.17508 16.243927 224.85614 15.085433 222.875 14.330078 C 220.89382 13.574797 218.80461 13.197304 215.63477 13.197266 z M 287.33594 13.294922 C 285.40137 13.29496 283.5902 13.549199 281.90039 14.056641 C 280.21056 14.564158 279.36564 15.184337 278.38672 15.916016 C 277.08147 16.860198 276.05047 18.044666 275.29297 19.472656 C 274.53547 20.900711 274.15624 22.453073 274.15625 24.128906 C 274.15624 25.970021 274.61646 27.651415 275.53711 29.173828 C 276.45777 30.696289 278.39664 31.693172 280.17969 32.554688 C 281.96272 33.416241 284.76981 33.751473 289.38477 34.931641 C 292.81101 35.804993 295.54384 37.013604 296.40625 37.580078 C 297.64155 38.40622 298.45505 40.226202 298.45508 41.666016 C 298.45505 44.152795 296.67774 45.061926 295.2793 46.253906 C 293.88081 47.445898 291.34523 47.943363 288.45508 47.943359 C 285.58821 47.943363 282.76844 47.073932 281.17188 45.728516 C 279.57527 44.383113 278.16211 41.664277 277.8125 39.138672 L 273.10742 39.199219 C 273.80664 43.188248 274.93007 47.520867 277.45898 49.550781 C 279.98787 51.5807 283.66551 52.595702 288.49023 52.595703 C 291.4037 52.595702 294.01478 52.081448 296.32227 51.054688 C 298.62972 50.027929 300.39545 48.57767 301.61914 46.701172 C 302.84276 44.824685 303.4531 42.82356 303.45312 40.699219 C 303.4531 38.527692 302.95336 36.709538 301.95117 35.246094 C 300.9489 33.782682 299.56634 32.66753 297.80664 31.900391 C 296.04687 31.133291 293.03966 30.83467 288.58789 29.630859 C 285.51125 28.78115 283.36368 27.943093 282.73438 27.707031 C 281.63889 27.258586 280.44441 26.202109 279.93164 25.517578 C 279.4188 24.8567 279.45507 23.917955 279.45508 23.091797 C 279.45507 21.793624 280.07326 20.661142 281.30859 19.693359 C 282.54389 18.72564 283.92036 17.457064 286.81055 17.457031 C 289.25785 17.457064 292.62267 17.804887 293.96289 18.890625 C 295.30307 19.976424 297.1402 22.857495 297.41992 24.792969 L 302.10352 24.826172 C 301.70725 22.39502 300.93554 19.473143 299.88672 18.021484 C 298.83784 16.569891 297.21234 15.420082 295.00977 14.570312 C 292.80717 13.720617 290.2494 13.29496 287.33594 13.294922 z M 15.822266 14.595703 C 20.214312 14.59574 23.722586 16.359954 26.347656 19.888672 C 28.687148 23.07815 29.85739 26.97013 29.857422 31.5625 C 29.85739 36.252275 28.617019 40.14278 26.134766 43.236328 C 23.413552 46.523148 19.784806 48.166019 15.25 48.166016 C 10.811303 48.166019 7.3272213 46.474029 4.796875 43.089844 C 2.5534925 40.093661 1.4316372 36.252275 1.4316406 31.5625 C 1.4316372 26.776875 2.6236226 22.835776 5.0097656 19.742188 C 7.6362564 16.310836 11.240809 14.59574 15.822266 14.595703 z M 51.541016 14.595703 C 56.266653 14.59574 60.038109 16.48082 62.855469 20.25 C 65.384336 23.682891 66.650357 27.864723 66.650391 32.794922 C 66.650357 37.773841 65.384336 41.979256 62.855469 45.412109 C 60.086182 49.182803 56.314726 51.068359 51.541016 51.068359 C 46.768725 51.068359 42.975527 49.182803 40.158203 45.412109 C 37.6293 42.027939 36.363278 37.822524 36.363281 32.794922 C 36.363278 27.816041 37.653493 23.634209 40.230469 20.25 C 43.046336 16.48082 46.815341 14.59574 51.541016 14.595703 z M 87.449219 14.595703 C 92.174856 14.59574 95.946309 16.48082 98.763672 20.25 C 101.29253 23.682891 102.5566 27.864723 102.55664 32.794922 C 102.5566 37.773841 101.29253 41.979256 98.763672 45.412109 C 95.994381 49.182803 92.222929 51.068359 87.449219 51.068359 C 82.676928 51.068359 78.881776 49.182803 76.064453 45.412109 C 73.535549 42.027939 72.271481 37.822524 72.271484 32.794922 C 72.271481 27.816041 73.559744 23.634209 76.136719 20.25 C 78.952586 16.48082 82.723544 14.59574 87.449219 14.595703 z M 120.99414 14.595703 C 125.95869 14.59574 129.75384 16.457715 132.37891 20.179688 C 134.7184 23.417847 135.88864 27.646369 135.88867 32.867188 C 135.88864 37.797423 134.64632 41.953721 132.16406 45.337891 C 129.39478 49.157267 125.6717 51.068359 120.99414 51.068359 C 116.31655 51.068359 112.68976 49.157267 110.11133 45.337891 C 107.86796 42.002403 106.74609 37.846106 106.74609 32.867188 C 106.74609 27.936989 107.89214 23.780692 110.18359 20.396484 C 112.762 16.529938 116.36461 14.59574 120.99414 14.595703 z M 251.46094 17.574219 C 254.32778 17.574252 258.94642 19.953783 260.9043 22.361328 C 262.86212 24.768932 263.83981 28.545823 263.83984 33.691406 C 263.83981 38.364951 262.87989 41.839441 260.95703 44.117188 C 259.0341 46.39495 253.90264 48.513677 251.15234 48.513672 C 248.42531 48.513677 243.9029 46.342962 241.89844 43.958984 C 239.89397 41.57502 238.89257 37.975324 238.89258 33.160156 C 238.89257 28.1798 239.83074 24.53194 241.70703 22.21875 C 243.58329 19.905619 248.66399 17.574252 251.46094 17.574219 z M 179.83398 17.654297 C 183.49064 17.654335 186.46626 19.060017 188.76172 21.871094 C 190.2564 23.682132 191.16405 26.397548 191.48438 30.019531 L 167.74219 30.019531 C 167.98241 26.2624 169.23091 23.263048 171.48633 21.019531 C 173.74171 18.776084 176.52427 17.654335 179.83398 17.654297 z M 223.64062 32.152344 L 223.64062 35.113281 C 223.6406 37.922134 223.30285 40.046514 222.62695 41.486328 C 221.74123 43.351029 220.35276 44.820569 218.46484 45.894531 C 216.57689 46.968504 214.42205 47.505864 211.99805 47.505859 C 209.55072 47.505864 207.06909 47.63103 205.79883 46.498047 C 204.52855 45.365077 203.13085 43.949475 203.13086 42.25 C 203.13085 40.655716 202.96003 39.199587 204.14258 37.767578 C 205.61362 35.986208 207.70127 35.753339 208.77344 35.28125 C 209.84559 34.809191 211.12114 34.592273 214.05469 33.9375 C 218.69228 32.999515 221.35643 33.096509 223.64062 32.152344 z "
     id="path3063" />
</svg>
