<?xml version="1.0" encoding="UTF-8" standalone="no"?>
<!-- Generator: Adobe Illustrator 16.0.0, SVG Export Plug-In . SVG Version: 6.00 Build 0)  -->

<svg
   xmlns:dc="http://purl.org/dc/elements/1.1/"
   xmlns:cc="http://creativecommons.org/ns#"
   xmlns:rdf="http://www.w3.org/1999/02/22-rdf-syntax-ns#"
   xmlns:svg="http://www.w3.org/2000/svg"
   xmlns="http://www.w3.org/2000/svg"
   xmlns:sodipodi="http://sodipodi.sourceforge.net/DTD/sodipodi-0.dtd"
   xmlns:inkscape="http://www.inkscape.org/namespaces/inkscape"
   version="1.1"
   id="wide_rectangle"
   x="0px"
   y="0px"
   width="2160.8008"
   height="872.49609"
   viewBox="0 0 2160.8008 872.4961"
   enable-background="new 0 0 2100 1008.141"
   xml:space="preserve"
   inkscape:version="0.92.3 (2405546, 2018-03-11)"
   sodipodi:docname="IMDB_Logo_2016.svg"><title
     id="title4240">Internet Movie Database</title><metadata
     id="metadata62"><rdf:RDF><cc:Work
         rdf:about=""><dc:format>image/svg+xml</dc:format><dc:type
           rdf:resource="http://purl.org/dc/dcmitype/StillImage" /><dc:title>Internet Movie Database</dc:title></cc:Work></rdf:RDF></metadata><defs
     id="defs60"><radialGradient
       gradientUnits="userSpaceOnUse"
       r="847.35468"
       cy="541.58502"
       cx="1032.2695"
       id="background_2_"
       gradientTransform="matrix(1.4095238,0,0,1.4095238,20,19.801257)"><stop
         id="stop8"
         style="stop-color:#FCF06E"
         offset="0" /><stop
         id="stop10"
         style="stop-color:#DBA506"
         offset="0.99" /></radialGradient><radialGradient
       gradientUnits="userSpaceOnUse"
       gradientTransform="matrix(1.4095238,0,0,1.2288228,20,2329.696)"
       r="794.36902"
       cy="-1827.189"
       cx="1041.9995"
       id="highlight_2_"><stop
         id="stop14"
         style="stop-color:#FFFFFF"
         offset="0" /><stop
         id="stop16"
         style="stop-color:#FFFFFF;stop-opacity:0"
         offset="1" /></radialGradient></defs><sodipodi:namedview
     pagecolor="#ffffff"
     bordercolor="#666666"
     borderopacity="1"
     objecttolerance="10"
     gridtolerance="10"
     guidetolerance="10"
     inkscape:pageopacity="0"
     inkscape:pageshadow="2"
     inkscape:window-width="1920"
     inkscape:window-height="1046"
     id="namedview58"
     showgrid="false"
     showguides="false"
     inkscape:showpageshadow="false"
     fit-margin-top="0"
     fit-margin-right="0"
     fit-margin-bottom="0"
     fit-margin-left="0"
     inkscape:zoom="0.54594594"
     inkscape:cx="890.47622"
     inkscape:cy="654.37672"
     inkscape:window-x="0"
     inkscape:window-y="34"
     inkscape:window-maximized="1"
     inkscape:current-layer="wide_rectangle" /><path
     style="clip-rule:evenodd;fill:#ffffff;fill-opacity:1;fill-rule:evenodd;stroke:none;stroke-width:1.40952384"
     d="m 1069.6035,0 v 861.21876 h 271.0371 v 0 c 53.5915,0 93.7043,-2.9165 120.3457,-8.7675 26.6273,-5.8354 48.9811,-16.113 67.1075,-30.7989 18.0983,-14.6886 30.783,-35.0404 38.0703,-61.0898 7.2731,-26.0043 11.5996,-77.63675 11.5996,-154.82227 V 303.28711 c 0,-81.45638 -3.1864,-136.07529 -8.1465,-163.87109 C 1564.6416,111.6343 1552.2244,86.40343 1532.336,63.73828 1512.4617,41.07314 1483.4258,24.79372 1445.2559,14.88477 1407.1015,4.97582 1344.7992,0 1236.5195,0 Z M 0,0.002 V 861.22071 H 223.7207 V 0.00195 Z m 300.11523,0 v 861.21871 h 195.95313 l 0.70508,-568.64449 82.47074,568.64449 h 139.5703 l 78.2441,-581.30269 0.7031,581.30269 H 993.0938 V 0.00195 H 700.84378 l -51.8145,402.33399 -32.0527,-218.78711 c -9.3452,-70.22107 -18.281,-131.40719 -26.8086,-183.54688 z m 1353.84767,0 v 861.21871 h 201.4082 l 13.9414,-54.873 c 18.211,22.0591 38.297,38.6065 60.2715,49.6289 21.9604,11.0211 54.7613,16.5195 80.1172,16.5195 35.365,0 65.8953,-9.2886 91.6191,-27.8379 25.7097,-18.5635 42.06,-40.5099 49.0371,-65.7968 6.9617,-25.3009 10.4434,-63.7393 10.4434,-115.38284 v -241.6211 c 0,-51.99733 -1.1694,-85.93803 -3.4824,-101.85156 -2.3384,-15.91352 -9.1897,-32.18054 -20.6055,-48.79883 -11.4312,-16.60419 -28.0232,-29.51456 -49.8144,-38.71875 -21.7758,-9.21828 -47.4578,-13.81445 -77.086,-13.81445 -25.7097,0 -58.6626,5.11705 -80.623,15.26562 -21.9603,10.14857 -41.863,25.55556 -59.709,46.20508 V 0.00195 Z m -360.8496,147.29488 c 24.3693,0 41.0021,2.56465 49.8398,7.69531 8.8391,5.11657 14.504,13.19253 16.9707,24.14453 2.4666,10.98019 3.7208,35.93029 3.7207,74.86133 v 333.87304 c 0,57.33943 -3.7202,92.45009 -11.1484,105.36133 -7.4296,12.93944 -27.2315,19.38084 -59.3828,19.38084 z m 608.1797,196.24804 c 13.6442,0 31.9546,5.53859 36.6328,16.67383 4.6655,11.13524 7.0059,34.91468 7.0059,71.30859 v 220.7168 c 0,41.67962 -2.0727,68.00892 -6.2012,78.96092 -4.144,10.9661 -22.1562,16.4785 -35.8145,16.4785 -13.32,0 -22.2004,-5.2867 -26.7109,-15.9004 -4.4949,-10.5996 -6.7246,-34.79921 -6.7246,-72.63082 V 431.55469 c 0,-39.24114 1.9728,-63.69574 5.9336,-73.43555 3.9481,-9.69753 12.5744,-14.57422 25.8789,-14.57422 z"
     id="rect28"
     inkscape:connector-curvature="0" /></svg>