<svg viewBox="0 0 228 29" version="1.1" xmlns="http://www.w3.org/2000/svg" xmlns:xlink="http://www.w3.org/1999/xlink" class="navigation__icon">
    <!-- Generator: Sketch 52.2 (67145) - http://www.bohemiancoding.com/sketch -->
    <g stroke="none" stroke-width="1" fill-rule="evenodd">
        <g fill-rule="nonzero">
            <path d="M17.5673797,15.072385 C16.1814973,15.072385 15.057754,16.1961283 15.057754,17.5820107 C15.057754,18.9682995 16.1814973,20.0916364 17.5673797,20.0916364 C18.9536684,20.0916364 20.0770053,18.9682995 20.0770053,17.5820107 C20.0770053,16.1961283 18.9536684,15.072385 17.5673797,15.072385 Z M10.0385027,7.54391444 C8.65262032,7.54391444 7.52887701,8.66725134 7.52887701,10.0531337 C7.52887701,11.4394225 8.65262032,12.5627594 10.0385027,12.5627594 C11.4247914,12.5627594 12.5481283,11.4394225 12.5481283,10.0531337 C12.5481283,8.66725134 11.4247914,7.54391444 10.0385027,7.54391444 Z M10.0385027,22.601262 C8.65262032,22.601262 7.52887701,23.7245989 7.52887701,25.1108877 C7.52887701,26.4967701 8.65262032,27.6205134 10.0385027,27.6205134 C11.4247914,27.6205134 12.5481283,26.4967701 12.5481283,25.1108877 C12.5481283,23.7245989 11.4247914,22.601262 10.0385027,22.601262 Z M10.0385027,15.072385 C8.65262032,15.072385 7.52887701,16.1961283 7.52887701,17.5820107 C7.52887701,18.967893 8.65262032,20.0916364 10.0385027,20.0916364 C11.4247914,20.0916364 12.5481283,18.967893 12.5481283,17.5820107 C12.5481283,16.1961283 11.4247914,15.072385 10.0385027,15.072385 Z M2.51003209,15.072385 C1.12374332,15.072385 -5.68434189e-14,16.1961283 -5.68434189e-14,17.5820107 C-5.68434189e-14,18.9682995 1.12374332,20.0916364 2.51003209,20.0916364 C3.89591444,20.0916364 5.01925134,18.9682995 5.01925134,17.5820107 C5.01925134,16.1961283 3.89591444,15.072385 2.51003209,15.072385 Z M223.608257,27.6205134 L227.839059,27.6205134 L227.839059,0.359272727 L223.608257,0.359272727 L223.608257,27.6205134 Z M177.283615,27.6205134 L181.474588,27.6205134 L181.474588,7.54391444 L177.283615,7.54391444 L177.283615,27.6205134 Z M179.358781,-1.42108547e-14 C177.972898,-1.42108547e-14 176.849155,1.1233369 176.849155,2.50962567 C176.849155,3.89550802 177.972898,5.01925134 179.358781,5.01925134 C180.74507,5.01925134 181.868406,3.89550802 181.868406,2.50962567 C181.868406,1.1233369 180.74507,-1.42108547e-14 179.358781,-1.42108547e-14 Z M215.745711,20.0765989 C215.745711,23.2698182 213.909519,25.2254973 210.995508,25.2254973 C208.640727,25.2254973 207.363765,23.9485348 207.363765,21.9924492 C207.363765,19.7973904 208.880107,18.4399572 212.233048,18.4399572 L215.745711,18.4399572 L215.745711,20.0765989 Z M211.674225,6.94485561 C208.361519,6.94485561 206.04616,8.10233155 204.290032,9.61908021 L204.290032,12.7724706 C206.006332,10.8566203 208.121733,9.93852406 210.556578,9.93852406 C213.74939,9.93852406 215.745711,11.6946524 215.745711,15.2869733 L215.745711,16.0851765 L211.953433,16.0851765 C206.006332,16.0851765 203.092727,18.5598503 203.092727,22.1123422 C203.092727,25.5449412 205.766952,28.1391016 209.558824,28.1391016 C212.631743,28.1391016 214.707722,26.5825241 215.745711,24.3472299 L215.745711,27.6205134 L219.936278,27.6205134 L219.936278,15.1272513 C219.936278,9.93852406 216.943016,6.94485561 211.674225,6.94485561 Z M137.36939,15.0471872 C137.848556,11.8543743 139.684342,9.65931551 142.71784,9.65931551 C145.511957,9.65931551 147.427807,11.4951016 147.507465,15.0471872 L137.36939,15.0471872 Z M142.837733,6.94485561 C136.730909,6.94485561 132.779316,11.2955508 132.779316,17.4422032 C132.779316,23.9485348 137.249904,28.2191658 143.635936,28.2191658 C146.829155,28.2191658 149.463551,27.1015187 151.059957,25.5051123 L151.059957,22.9105455 C149.543209,24.3874652 147.148193,25.2254973 144.753583,25.2254973 C140.442717,25.2254973 137.409626,22.5911016 137.209668,17.4824385 L151.698845,17.4824385 L151.698845,16.1648342 C151.698845,10.3376257 148.226011,6.94485561 142.837733,6.94485561 Z M195.444364,25.2254973 C190.973775,25.2254973 188.539337,21.8725561 188.539337,17.521861 C188.539337,13.0516791 191.173733,9.97835294 195.324471,9.97835294 C197.559765,9.97835294 199.435786,10.816385 201.072428,12.7724706 L201.072428,9.61908021 C199.595508,7.98284492 197.360214,6.94485561 194.446203,6.94485561 C188.339786,6.94485561 184.02892,11.5751658 184.02892,17.6023316 C184.02892,23.589262 188.339786,28.2191658 194.406781,28.2191658 C196.961112,28.2191658 199.276064,27.3807273 201.311807,25.344984 L201.311807,22.5911016 C199.914545,24.2277433 197.679251,25.2254973 195.444364,25.2254973 Z M163.574759,25.1458396 C160.221818,25.1458396 158.026759,22.1924064 158.026759,17.6819893 C158.026759,13.091508 160.262053,9.97835294 163.734481,9.97835294 C167.247144,9.97835294 169.401968,13.0516791 169.401968,17.4824385 C169.401968,21.9924492 167.047187,25.1458396 163.574759,25.1458396 Z M169.32231,11.2955508 C168.044941,8.54166845 165.770225,6.94485561 162.736727,6.94485561 C157.587829,6.94485561 153.516342,11.5751658 153.516342,17.7616471 C153.516342,23.8286417 157.308214,28.2191658 162.337219,28.2191658 C165.810053,28.2191658 168.244898,26.1834225 169.32231,23.469369 L169.32231,27.6205134 L173.513283,27.6205134 L173.513283,0.359272727 L169.32231,0.359272727 L169.32231,11.2955508 Z M61.0938396,6.94485561 C57.7807273,6.94485561 55.5856684,8.78104813 54.4680214,11.5349305 L54.4680214,7.54391444 L50.2770481,7.54391444 L50.2770481,27.6205134 L54.4680214,27.6205134 L54.4680214,16.5643422 C54.4680214,12.8122995 56.3440428,10.4172834 59.6169198,10.4172834 C62.6105882,10.4172834 63.8875508,12.2136471 63.8875508,15.9652834 L63.8875508,27.6205134 L68.0785241,27.6205134 L68.0785241,15.0874225 C68.0785241,9.93852406 65.3246417,6.94485561 61.0938396,6.94485561 Z M37.6244706,25.4254545 C34.1914652,25.4254545 32.115893,22.3517219 32.115893,17.6023316 C32.115893,12.8122995 34.1914652,9.73897326 37.6244706,9.73897326 C41.1367273,9.73897326 43.2122995,12.8122995 43.2122995,17.6023316 C43.2122995,22.3517219 41.1367273,25.4254545 37.6244706,25.4254545 Z M37.6244706,6.94485561 C31.8366845,6.94485561 27.6058824,11.5751658 27.6058824,17.6023316 C27.6058824,23.6290909 31.8366845,28.2191658 37.6244706,28.2191658 C43.491508,28.2191658 47.7223102,23.6290909 47.7223102,17.6023316 C47.7223102,11.5751658 43.491508,6.94485561 37.6244706,6.94485561 Z M75.183508,15.0471872 C75.7020963,11.8543743 77.4984599,9.65931551 80.5717861,9.65931551 C83.3256684,9.65931551 85.2415187,11.4951016 85.3215829,15.0471872 L75.183508,15.0471872 Z M80.6514439,6.94485561 C74.5446203,6.94485561 70.633262,11.2955508 70.633262,17.4422032 C70.633262,23.9485348 75.063615,28.2191658 81.4500535,28.2191658 C84.6432727,28.2191658 87.277262,27.1015187 88.9139037,25.5051123 L88.9139037,22.9105455 C87.3569198,24.3874652 85.002139,25.2254973 82.6075294,25.2254973 C78.2568342,25.2254973 75.2233369,22.5911016 75.063615,17.4824385 L89.5125561,17.4824385 L89.5125561,16.1648342 C89.5125561,10.3376257 86.0401283,6.94485561 80.6514439,6.94485561 Z M124.038096,6.94485561 C121.284214,6.94485561 119.128578,8.54166845 117.971102,11.215893 C117.092834,8.50183957 114.938011,6.94485561 112.26338,6.94485561 C109.549326,6.94485561 107.673305,8.54166845 106.675551,11.1358289 L106.675551,7.54391444 L102.444749,7.54391444 L102.444749,27.6205134 L106.675551,27.6205134 L106.675551,15.6060107 C106.675551,12.5326845 108.232128,10.3774545 110.747037,10.3774545 C113.101818,10.3774545 114.299123,11.973861 114.299123,15.0471872 L114.299123,27.6205134 L118.490096,27.6205134 L118.490096,15.2869733 C118.490096,12.4131979 120.046674,10.3774545 122.601412,10.3774545 C124.956193,10.3774545 126.07384,11.973861 126.07384,15.1670802 L126.07384,27.6205134 L130.264406,27.6205134 L130.264406,14.4087059 C130.264406,9.73897326 127.829968,6.94485561 124.038096,6.94485561 Z" id="Logo"></path>
        </g>
    </g>
</svg>