<?xml version="1.0" encoding="UTF-8"?>
<!DOCTYPE svg PUBLIC "-//W3C//DTD SVG 1.1//EN" "http://www.w3.org/Graphics/SVG/1.1/DTD/svg11.dtd">
<!-- Copyright © 2013-2018, PillPack, Inc. All rights reserved. Except for Plyr icons, used under the MIT license. -->
<svg xmlns="http://www.w3.org/2000/svg" xmlns:xlink="http://www.w3.org/1999/xlink"><defs><path id="qa-contact-phone-a" d="M21.441 0H0v21.473h21.441V0z"/></defs><symbol id="capture_icon" viewBox="0 0 30 30"><g stroke-width="2" stroke="#169FDA" fill="none" fill-rule="evenodd" stroke-linejoin="round"><path d="M20.625 10.625c0 5.523-4.477 10-10 10-5.522 0-10-4.477-10-10 0-5.522 4.478-10 10-10 5.523 0 10 4.478 10 10z"/><path d="M17.695 17.695l11.68 11.68M13.625 9l-3.75 3.75L8 10.875" stroke-linecap="round"/></g></symbol><symbol id="cg-download" viewBox="0 0 93 94"><path d="M41.2 20.5h10.6v33.6L65.9 40l7 7-26.4 26.4L20.1 47l7-7 14.1 14.1z"/><path d="M46.5 89.4c-23.4 0-42.4-19-42.4-42.4s19-42.4 42.4-42.4 42.4 19 42.4 42.4-19 42.4-42.4 42.4zm0-81.2C25.1 8.2 7.7 25.6 7.7 47s17.4 38.8 38.8 38.8S85.3 68.4 85.3 47 67.9 8.2 46.5 8.2z"/></symbol><symbol id="check_icon" viewBox="0 0 28 30"><g stroke-width="2" stroke="#169FDA" fill="none" fill-rule="evenodd" stroke-linejoin="round"><path d="M19.375 21.875v7.5H.625V3.125h26.25v18.75zM26.875 21.875l-7.5 7.5"/><path d="M4 .625V6.25M10 .625V6.25M16 .625V6.25M22 .625V6.25M10.625 10l-3.75 3.75L5 11.875M10.625 17l-3.75 3.75L5 18.875M14 12h8.125M14 18h8.125" stroke-linecap="round"/></g></symbol><symbol id="communicate_icon" viewBox="0 0 29 30"><g stroke-width="2" stroke="#169FDA" fill="none" fill-rule="evenodd" stroke-linejoin="round"><path d="M11.087 4h16.956M21.522 7H15M18.913 10H15M15 17.609v9.13a2.609 2.609 0 0 1-2.609 2.609h-9.13a2.609 2.609 0 0 1-2.609-2.609V7.174a2.608 2.608 0 0 1 2.609-2.609h3.913M7.522 10H1M15 23H.652M6 7h1.304" stroke-linecap="round"/><path d="M8.304 26.152a.653.653 0 1 1-1.306-.002.653.653 0 0 1 1.306.002z"/><path d="M28.043 11.087a2.609 2.609 0 0 1-2.608 2.609h-11.74a2.609 2.609 0 0 1-2.608-2.609V3.261A2.608 2.608 0 0 1 13.696.652h11.739a2.608 2.608 0 0 1 2.608 2.609v7.826z" stroke-linecap="round"/></g></symbol><symbol id="cx-cta-facebook" viewBox="0 0 16 16"><path d="M15.117 0H.883A.883.883 0 0 0 0 .883v14.234c0 .488.395.883.883.883h7.663V9.804H6.46V7.39h2.086V5.607c0-2.066 1.262-3.19 3.106-3.19.883 0 1.642.064 1.863.094v2.16h-1.28c-1 0-1.195.48-1.195 1.18v1.54h2.39l-.31 2.42h-2.08V16h4.077a.883.883 0 0 0 .883-.883V.883A.883.883 0 0 0 15.117 0" fill-rule="nonzero"/></symbol><symbol id="cx-cta-instagram" viewBox="0 0 16 16"><path d="M8 0C5.827 0 5.555.01 4.702.048 3.85.088 3.27.222 2.76.42a3.908 3.908 0 0 0-1.417.923c-.445.444-.72.89-.923 1.417-.198.51-.333 1.09-.372 1.942C.008 5.555 0 5.827 0 8s.01 2.445.048 3.298c.04.852.174 1.433.372 1.942.204.526.478.973.923 1.417.444.445.89.72 1.417.923.51.198 1.09.333 1.942.372.853.04 1.125.048 3.298.048s2.445-.01 3.298-.048c.852-.04 1.433-.174 1.942-.372a3.908 3.908 0 0 0 1.417-.923c.445-.444.72-.89.923-1.417.198-.51.333-1.09.372-1.942.04-.853.048-1.125.048-3.298s-.01-2.445-.048-3.298c-.04-.852-.174-1.433-.372-1.942a3.908 3.908 0 0 0-.923-1.417A3.886 3.886 0 0 0 13.24.42c-.51-.198-1.09-.333-1.942-.372C10.445.008 10.173 0 8 0zm0 1.44c2.136 0 2.39.01 3.233.048.78.036 1.203.166 1.485.276.374.145.64.318.92.598.28.28.453.546.598.92.11.282.24.705.276 1.485.038.844.047 1.097.047 3.233s-.01 2.39-.05 3.233c-.04.78-.17 1.203-.28 1.485-.15.374-.32.64-.6.92-.28.28-.55.453-.92.598-.28.11-.71.24-1.49.276-.85.038-1.1.047-3.24.047s-2.39-.01-3.24-.05c-.78-.04-1.21-.17-1.49-.28a2.49 2.49 0 0 1-.92-.6c-.28-.28-.46-.55-.6-.92-.11-.28-.24-.71-.28-1.49-.03-.84-.04-1.1-.04-3.23s.01-2.39.04-3.24c.04-.78.17-1.21.28-1.49.14-.38.32-.64.6-.92.28-.28.54-.46.92-.6.28-.11.7-.24 1.48-.28.85-.03 1.1-.04 3.24-.04zm0 2.452a4.108 4.108 0 1 0 0 8.215 4.108 4.108 0 0 0 0-8.215zm0 6.775a2.667 2.667 0 1 1 0-5.334 2.667 2.667 0 0 1 0 5.334zm5.23-6.937a.96.96 0 1 1-1.92 0 .96.96 0 0 1 1.92 0z"/></symbol><symbol id="cx-cta-twitter" viewBox="0 0 16 16"><path d="M16 3.038a6.62 6.62 0 0 1-1.885.517 3.299 3.299 0 0 0 1.443-1.816c-.634.37-1.337.64-2.085.79a3.282 3.282 0 0 0-5.593 2.99 9.307 9.307 0 0 1-6.766-3.42A3.222 3.222 0 0 0 .67 3.75c0 1.14.58 2.143 1.46 2.732a3.278 3.278 0 0 1-1.487-.41v.04c0 1.59 1.13 2.918 2.633 3.22a3.336 3.336 0 0 1-1.475.056 3.29 3.29 0 0 0 3.07 2.28 6.578 6.578 0 0 1-4.85 1.359 9.332 9.332 0 0 0 5.04 1.474c6.04 0 9.34-5 9.34-9.33 0-.14 0-.28-.01-.42a6.63 6.63 0 0 0 1.64-1.7z" fill-rule="nonzero"/></symbol><symbol id="cx-icon-caregivers" viewBox="0 0 30 30"><g stroke="#169FDA" stroke-width="2" fill="none" fill-rule="evenodd" stroke-linejoin="round"><path d="M10.32 25.82h9.525v-5.455c0-.606-3.77-2.424-6.91-3.637v-2.424s1.256-.424 1.256-3.03c.873 0 1.257-2.425.04-2.425 0-.257.963-1.586.588-3.03-.628-2.425-6.91-2.425-7.537 0-2.645-.523-.629 2.68-.629 3.03-1.256 0-.874 2.424 0 2.424 0 2.607 1.257 3.031 1.257 3.031v2.424C4.769 17.941 1 19.76 1 20.365v5.455h9.32z"/><path d="M22.113 25.82h6.658v-5.606c0-.623-3.026-1.496-5.447-2.492v-1.87s1.21-.348 1.21-2.491c.675 0 .937-2.492 0-2.492 0-.21.982-1.33.606-2.492-.606-1.869-5.448-1.869-6.053 0-2.04-.43-.605 2.205-.605 2.492-.968 0-.674 2.492 0 2.492 0 2.143 1.21 2.492 1.21 2.492v1.246" stroke-linecap="round"/></g></symbol><symbol id="cx-icon-service" viewBox="0 0 30 30"><g stroke="#169FDA" stroke-width="2" fill="none" fill-rule="evenodd" stroke-linecap="round" stroke-linejoin="round"><path d="M22.695 13.212v1.165c-.222 1.087-1.24 2.329-2.368 2.329h-3.551M24.47 11.465c0 .965-.795 1.747-1.775 1.747H21.51V9.72h1.184c.98 0 1.776.782 1.776 1.746zM16.776 16h-2.368M24.152 7.953C23.068 3.857 21.29.213 15 3.305 3.162-2.517 7.305 15.532 1.978 15.532c1.776 4.076 7.233 2.33 7.233-.582M23.857 17.882c1.555.243 3.298-.36 4.165-2.35-1.159 0-1.869-.853-2.393-2.129"/><path d="M20.327 8.545c-4.735 0-4.735-1.747-5.327-2.329-.592.582-.592 2.33-5.327 2.33l-.592 2.328c-1.776 0-1.776 3.494 0 3.494.592 3.493 4.143 5.24 5.92 5.822M17.925 18.73A11.206 11.206 0 0 1 15 20.19"/><path d="M17.925 18.73c5.327 2.329 10.689 3.79 10.689 7.865v1.756H1.386v-1.756c0-4.076 5.361-5.536 10.689-7.865M10.265 19.495c0 3.494 4.735 8.847 4.735 8.847M19.735 19.496c0 3.494-4.735 8.846-4.735 8.846M11.449 11.459c0-.644.53-.583 1.183-.583.655 0 1.184-.061 1.184.583M16.5 11.459c0-.644.53-.583 1.184-.583.654 0 1.184-.061 1.184.583"/></g></symbol><symbol id="cx-icon-travel" viewBox="0 0 30 30"><g stroke="#169FDA" stroke-width="2" fill="none" fill-rule="evenodd" stroke-linejoin="round"><path d="M23.218 27.733c0-4.348-6.495-5.59-11.124-5.59-4.615 0-11.124 1.242-11.124 5.59h22.248z"/><path d="M7.899 22.486L15.255 9.1l-.6 13.167M15.255 9.1c-4.348 3.106-8.695 3.106-13.72 2.837 2.54-5.943 10.615-5.321 13.72-4.08V9.1zM5.939 4.13c4.474-2.98 9.316.622 9.316 3.727L5.94 4.13zM15.255 9.1c3.106 3.727 8.696 3.106 13.72 2.837-2.54-5.943-10.614-5.321-13.72-4.08V9.1z"/><path d="M24.572 4.13c-4.475-2.98-9.317.622-9.317 3.727l9.317-3.727z"/><path d="M12.77 18.5h1.983" stroke-linecap="round"/></g></symbol><symbol id="dispense_icon" viewBox="0 0 27 30"><g stroke-width="2" stroke="#169FDA" fill="none" fill-rule="evenodd" stroke-linejoin="round"><path d="M13.125 29.375l12.5-6.25v-12.5l-12.5 5-12.5-5v12.5zM12 15.625v13.75M5.625 8.75l-5 1.875M25.625 10.625l-5-1.875"/><path d="M13 9.62v-9M18.125 5.625l-5 5-5-5" stroke-linecap="round"/></g></symbol><symbol id="hp-icon-copay" viewBox="0 0 32 22"><g stroke="#169FDA" fill-rule="nonzero" stroke-width="2" fill="none"><path d="M27.725 20.556H4.275c-1.362 0-2.468-1.223-2.468-2.73V4.174c0-1.507 1.106-2.73 2.468-2.73h23.45c1.362 0 2.468 1.223 2.468 2.73v13.652c0 1.507-1.106 2.73-2.468 2.73z"/><g fill="#FFF"><path d="M2.191 8.516h27.756M2.191 5.516h27.756"/></g><path d="M16.11 13H5.796M9.664 16H5.797" fill="#FFF"/><path d="M22.62 13h3.783v3.748H22.62z"/></g></symbol><symbol id="hp-icon-shipping" viewBox="0 0 30 30"><g stroke="#169FDA" stroke-width="2" fill="none" fill-rule="evenodd" stroke-linecap="round" stroke-linejoin="round"><path d="M13 23.5a2.5 2.5 0 1 1-5 0 2.5 2.5 0 0 1 5 0zM26.25 23.5a2.5 2.5 0 1 1-5 0 2.5 2.5 0 0 1 5 0z"/><path d="M10 18.143V6h19v17M1 23v-8.273C1 12.128 3.026 10 5.5 10H10M16 22h2.5M1 23h4"/><path d="M4 17v-2.5c0-.825.591-1.5 1.313-1.5H7.5M2 20h4"/></g></symbol><symbol id="hp-icon-vitamins" viewBox="0 0 30 30"><g stroke="#169FDA" stroke-width="2" fill="none" fill-rule="evenodd" stroke-linecap="round" stroke-linejoin="round"><path d="M27.748 8.366v15.249a2.549 2.549 0 0 1-2.541 2.541H16.31a2.549 2.549 0 0 1-2.541-2.541V8.365"/><path d="M29.019 8.366h-16.52V6.46c0-1.052.852-1.906 1.906-1.906h12.708c1.052 0 1.906.854 1.906 1.906v1.906zM18.853 21.073h8.895v-8.895h-8.895zM11.228 24.25a1.907 1.907 0 0 1-1.906 1.906H2.97a1.907 1.907 0 0 1 0-3.812h6.353c1.052 0 1.906.854 1.906 1.906zM5 22.344v3.812M11.985 13.372c.745.745.745 1.95 0 2.695l-4.492 4.494a1.907 1.907 0 0 1-2.695-2.697l4.492-4.492a1.905 1.905 0 0 1 2.695 0zM7.044 15.618l2.695 2.695"/></g></symbol><symbol id="hw-icon-dashboard" viewBox="0 0 30 30"><g stroke="#169FDA" stroke-width="2" fill="none" fill-rule="evenodd" stroke-linejoin="round"><path d="M29 21.236C29 22.21 28.183 23 27.174 23H2.826C1.818 23 1 22.21 1 21.236V4.764C1 3.79 1.818 3 2.826 3h24.348C28.184 3 29 3.79 29 4.764v16.472zM7 26h16M15 24v2" stroke-linecap="round"/><path d="M1 18h28"/><path d="M12 8.5c0 .604-.896 1.5-2 1.5a2 2 0 0 1 0-4c1.104 0 2 .896 2 2.5zM21 13a2 2 0 1 1-4.001-.001A2 2 0 0 1 21 13zM6 7h2M12 7.5h12M17 13H6M21 13h2" stroke-linecap="round"/></g></symbol><symbol id="hw-icon-health" viewBox="0 0 30 30"><g stroke="#169FDA" stroke-width="2" fill="none" fill-rule="evenodd" stroke-linecap="round" stroke-linejoin="round"><path d="M20.934 3.917A8.049 8.049 0 0 1 14.71 1h-.021a8.049 8.049 0 0 1-6.224 2.917c-2.199 0-4.192-.872-6.265-2.283v18.033S4.013 26.083 14.7 29c10.688-2.917 12.5-9.333 12.5-9.333V1.634c-2.074 1.411-4.066 2.283-6.266 2.283z"/><path d="M21.2 12.6h-3.9V9h-5.2v3.6H8.2v4.8h3.9V21h5.2v-3.6h3.9z"/></g></symbol><symbol id="hw-icon-mobile" viewBox="0 0 30 30"><g stroke="#169FDA" stroke-width="2" fill="none" fill-rule="evenodd" stroke-linejoin="round"><path d="M23 26.565C23 27.91 21.898 29 20.538 29H9.462C8.102 29 7 27.91 7 26.565V3.435C7 2.09 8.102 1 9.462 1h11.076C21.898 1 23 2.09 23 3.435v23.13zM23 23H7M23 6H7M12 3.5h6" stroke-linecap="round"/><path d="M15.5 26.5a.5.5 0 1 1 0-1 .5.5 0 0 1 0 1z"/></g></symbol><symbol id="hw-icon-phone" viewBox="0 0 30 30"><path d="M11.821 9.984a2.526 2.526 0 0 0 0-3.568L9.144 3.739a2.525 2.525 0 0 0-3.57 0L4.109 5.207A3.778 3.778 0 0 0 3.63 9.97a58.686 58.686 0 0 0 16.4 16.403c1.5.991 3.493.793 4.763-.478l1.467-1.469a2.52 2.52 0 0 0 0-3.567l-2.676-2.676a2.52 2.52 0 0 0-3.568 0l-.892.891a59.807 59.807 0 0 1-8.195-8.197l.892-.892z" stroke="#169FDA" stroke-width="2" fill="none" fill-rule="evenodd" stroke-linecap="round" stroke-linejoin="round"/></symbol><symbol id="hw-icon-status" viewBox="0 0 30 30"><g stroke="#169FDA" stroke-width="2" fill="none" fill-rule="evenodd" stroke-linejoin="round"><path d="M1 29h28V1H1z"/><path stroke-linecap="round" d="M5.111 9.26l1.968 2.073L12 6.148M5.111 20.667L7.08 22.74 12 17.556M15.519 9.333h9.333M15.519 20.667h9.333"/></g></symbol><symbol id="hw-icon-sync" viewBox="0 0 30 30"><g stroke="#169FDA" stroke-width="2" fill="none" fill-rule="evenodd" stroke-linecap="round" stroke-linejoin="round"><path d="M1.159 12.999l3.483 5.188 4.006-4.798M29.375 18.375l-3.483-5.188-4.007 4.798"/><path d="M25.846 13.233c1.043 5.51-2.841 10.912-8.136 12.162a10.624 10.624 0 0 1-9.914-2.78M4.648 18.157c-1.64-6.104 2.463-12.094 8.173-13.442a10.616 10.616 0 0 1 10.405 3.302"/></g></symbol><symbol id="icon-os-manufacturers" viewBox="0 0 41 41"><g stroke="#169FDA" stroke-width="2" fill="none" fill-rule="evenodd" stroke-linejoin="round"><path d="M23 12c0 6.075-4.925 11-11 11S1 18.075 1 12 5.925 1 12 1s11 4.925 11 11zM29.217 37.732a7.743 7.743 0 0 1-10.95-10.949l8.517-8.515a7.739 7.739 0 0 1 10.947 0 7.74 7.74 0 0 1 0 10.95l-8.514 8.514z" stroke-linecap="round"/><path d="M1 9h22M1 15h22"/><path d="M23 23l10.512 10.512M29 20.865l.637-.326c1.757-.899 3.665-.743 5.363 1" stroke-linecap="round"/></g></symbol><symbol id="icon-os-new-entrants" viewBox="0 0 37 38"><g stroke="#169FDA" stroke-width="2" fill="none" fill-rule="evenodd" stroke-linecap="round" stroke-linejoin="round"><path d="M9 22.398S26.427 4.936 27.555 3.81C29.242 2.125 36 1 36 1s-1.126 6.75-2.817 8.437L14.606 28 9 22.398zM11.975 19.975L17 25M22 21c0 1.103 0 5.515-.534 7.171-.338 1.05-1.401 2.554-2.134 3.312L14 37l.99-8.75M17 14.001c-1.102 0-5.563-.045-7.217.487-1.05.34-2.51 1.448-3.267 2.18L1 22l8.803-1.04M12.373 25.829c1.104 1.1.644 2.658-.552 3.85C10.299 31.196 3 33 3 33s1.787-7.302 3.309-8.82c1.211-1.209 2.757-1.65 3.859-.55"/></g></symbol><symbol id="icon-os-payers" viewBox="0 0 33 37"><g stroke="#169FDA" stroke-width="2" fill="none" fill-rule="evenodd" stroke-linecap="round" stroke-linejoin="round"><path d="M24.23 4.646A9.95 9.95 0 0 1 16.512 1h-.026A9.95 9.95 0 0 1 8.77 4.646c-2.727 0-5.2-1.09-7.769-2.853v22.541S3.247 32.354 16.5 36C29.753 32.354 32 24.334 32 24.334V1.793c-2.571 1.764-5.042 2.853-7.77 2.853z"/><path d="M24 14.5h-4.5V10h-6v4.5H9v6h4.5V25h6v-4.5H24z"/></g></symbol><symbol id="icon-packet" viewBox="0 0 33 30"><g fill="#169FDA" fill-rule="evenodd"><path d="M8.599 16.523h13.253a1 1 0 0 0 0-2H8.599a1 1 0 1 0 0 2zM8.599 20.5H22a1 1 0 0 0 0-2H8.599a1 1 0 0 0 0 2z" fill-rule="nonzero"/><path d="M7 9.872c0-.756.344-1.213.688-1.481v-.02c-.279-.249-.549-.696-.549-1.313C7.14 5.955 7.958 5 9.343 5c1.385 0 2.203.955 2.203 2.058 0 .617-.27 1.064-.548 1.313v.02c.344.268.688.725.688 1.481 0 1.342-1.051 2.128-2.343 2.128S7 11.214 7 9.872zm2.343-2.247c.288 0 .492-.219.492-.517 0-.298-.204-.517-.492-.517-.288 0-.493.219-.493.517 0 .298.205.517.493.517zm-.595 2.168c0 .358.26.616.595.616.334 0 .595-.258.595-.616s-.26-.617-.595-.617c-.335 0-.595.259-.595.617zm7.186.686c-.111-.358-.158-.637-.158-1.979s.047-1.62.158-1.979C16.232 5.567 16.975 5 18.082 5c1.106 0 1.85.567 2.147 1.521.112.358.158.637.158 1.979s-.046 1.62-.158 1.979c-.297.954-1.041 1.521-2.147 1.521-1.107 0-1.85-.567-2.148-1.521zm1.776-.338c.056.179.167.268.372.268.204 0 .316-.09.371-.268.038-.12.056-.239.056-1.641 0-1.402-.018-1.521-.056-1.64-.055-.18-.167-.27-.371-.27-.205 0-.316.09-.372.27-.037.119-.056.238-.056 1.64s.019 1.521.056 1.64zm3.837.338c-.112-.358-.158-.637-.158-1.979s.046-1.62.158-1.979C21.844 5.567 22.588 5 23.694 5c1.107 0 1.85.567 2.148 1.521.112.358.158.637.158 1.979s-.046 1.62-.158 1.979c-.298.954-1.041 1.521-2.148 1.521-1.106 0-1.85-.567-2.147-1.521zm1.776-.338c.055.179.167.268.371.268.205 0 .317-.09.372-.268.037-.12.056-.239.056-1.641 0-1.402-.019-1.521-.056-1.64-.055-.18-.167-.27-.372-.27-.204 0-.316.09-.371.27-.038.119-.056.238-.056 1.64s.018 1.521.056 1.64z"/><path d="M13.6 8a1 1 0 1 1 0-2 1 1 0 0 1 0 2zM13.6 11a1 1 0 1 1 0-2 1 1 0 0 1 0 2z" fill-rule="nonzero"/><path d="M1.202 4.189a1 1 0 0 1-.006-1.068l1.65-2.65A1 1 0 0 1 3.694 0h27.504a1 1 0 0 1 1 1v28a1 1 0 0 1-1 1H3.74a1 1 0 0 1-.84-.456l-1.847-2.847a1 1 0 0 1 .002-1.092l1.536-2.349-1.426-2.23a1 1 0 0 1-.002-1.075l1.4-2.207L1.222 15.6a1 1 0 0 1 .006-1.073l1.457-2.261-1.587-2.402a1 1 0 0 1-.003-1.099L2.628 6.42l-1.426-2.23zm2.025-.546l1.435 2.243a1 1 0 0 1-.006 1.086L3.128 9.31l1.584 2.398a1 1 0 0 1 .006 1.093l-1.465 2.275 1.341 2.14a1 1 0 0 1-.003 1.068l-1.397 2.2 1.432 2.24a1 1 0 0 1-.006 1.085l-1.533 2.346L4.284 28h25.914V2H4.25L3.227 3.643z" fill-rule="nonzero"/></g></symbol><symbol id="icon-phone-outline" viewBox="0 0 23 23"><path d="M22 3.503a.45.45 0 0 0-.049-.17c-.024-.097-.121-.194-.218-.243L16.53 1.024a.464.464 0 0 0-.559.219l-2.868 5.736c-.097.17-.048.365.073.51l2.795 2.796a17.734 17.734 0 0 1-5.687 5.712l-2.795-2.82c-.146-.121-.34-.17-.51-.073l-5.737 2.868a.464.464 0 0 0-.219.56l2.066 5.2a.474.474 0 0 0 .243.244c.049.024.122.024.17.024.049 0 .098 0 .17-.024 9.528-1.191 17.112-8.75 18.303-18.302C22 3.6 22 3.552 22 3.504z" stroke-width="2" fill="none" fill-rule="evenodd"/></symbol><symbol id="icon-phone-solid-blue" viewBox="0 0 24 24"><path d="M0 20.968l2.426 2.427.13.13c.087.13.347.216.607.216h1.04C14.556 22.745 22.57 14.73 23.567 4.29v-.953c0-.26-.087-.65-.26-.953L20.925 0l-4.332 4.332c-.13.217-.173.39-.13.52l1.906 4.42a.98.98 0 0 1-.043.779c-1.863 3.596-4.896 6.585-8.492 8.491-.216.13-.52.13-.78.044l-4.505-1.95c-.043 0-.173 0-.217-.043L0 20.968z" fill="#169FDA" fill-rule="evenodd"/></symbol><symbol id="icon-phone-solid-white" viewBox="0 0 24 24"><path d="M0 20.968l2.426 2.427.13.13c.087.13.347.216.607.216h1.04C14.556 22.745 22.57 14.73 23.567 4.29v-.953c0-.26-.087-.65-.26-.953L20.925 0l-4.332 4.332c-.13.217-.173.39-.13.52l1.906 4.42a.98.98 0 0 1-.043.779c-1.863 3.596-4.896 6.585-8.492 8.491-.216.13-.52.13-.78.044l-4.505-1.95c-.043 0-.173 0-.217-.043L0 20.968z" fill="#FFF" fill-rule="evenodd"/></symbol><symbol id="icon-phone-solid" viewBox="0 0 24 24"><path d="M0 21l2.4 2.4.1.1c.1.1.3.2.6.2h1c10.4-1 18.4-9 19.4-19.5v-1c0-.3-.1-.6-.3-1L20.9 0l-4.3 4.3c-.1.2-.2.4-.1.5l1.9 4.4c.1.3.1.5 0 .8-1.9 3.6-4.9 6.6-8.5 8.5-.2.1-.5.1-.8 0l-4.5-1.9h-.2L0 21z"/></symbol><symbol id="icon-play-button" viewBox="0 0 38 39"><g fill-rule="evenodd"><path class="play-button-fill" d="M18.874 2.913c-9.23 0-16.738 7.556-16.738 16.844 0 9.286 7.508 16.84 16.738 16.84 9.232 0 16.742-7.554 16.742-16.84 0-9.288-7.51-16.844-16.742-16.844m0 35.833C8.467 38.746 0 30.228 0 19.756 0 9.285 8.467.765 18.874.765c10.409 0 18.877 8.52 18.877 18.993 0 10.47-8.468 18.989-18.877 18.989"/><path class="play-button-fill" d="M14.089 14.84c0-.888.647-1.294 1.44-.903l10.22 5.047c.793.392.796 1.037.007 1.434L15.524 25.57c-.789.397-1.435-.005-1.435-.892V14.84z"/></g></symbol><symbol id="icon-scrolldown" viewBox="0 0 23 10"><path d="M1.576.183L.424 1.817 11.45 9.592l11.47-7.764L21.8.172 11.473 7.16z" fill-rule="nonzero"/></symbol><symbol id="iconNext" viewBox="-297 384 16 25"><path d="M-294.8 408.7l-1.4-1.4 12.2-10.9-11.8-10.7 1.4-1.4 13.4 12.1z"/></symbol><symbol id="iconPrev" viewBox="-297 384 16 25"><path d="M-283.1 408.7l-13.4-12.1 13.7-12.3 1.3 1.4-12 10.9 11.7 10.7z"/></symbol><symbol id="logo-horizontal" viewBox="0 0 256 48"><path d="M140.19 42.776c.327 0 .545-.218.545-.545v-5.333c0-.327-.218-.544-.545-.544h-1.088c-1.633 0-2.286-.653-2.286-2.504V6.095c0-.326-.217-.544-.544-.544h-6.53c-.327 0-.545.218-.545.544v28.408c0 5.77 2.395 8.381 8.164 8.381h2.83v-.108zm-16.326 0c.326 0 .544-.218.544-.545v-5.333c0-.327-.218-.544-.544-.544h-1.088c-1.524 0-2.286-.653-2.286-2.504V6.095c0-.326-.218-.544-.544-.544h-6.531c-.327 0-.544.218-.544.544v28.408c0 5.77 2.285 8.381 8.163 8.381h2.83v-.108zm-18.286-.327c.327 0 .544-.218.544-.544V16.653c0-.326-.217-.544-.544-.544h-6.53c-.327 0-.545.218-.545.544v25.252c0 .326.218.544.545.544h6.53zm0-30.476c.327 0 .544-.218.544-.544V6.095c0-.326-.217-.544-.544-.544h-6.53c-.327 0-.545.218-.545.544v5.334c0 .326.218.544.545.544h6.53zm-24.925 10.34h-6.095c-.218 0-.327-.109-.327-.327v-9.251c0-.218.11-.327.327-.327h6.095c3.374 0 5.333 1.96 5.333 5.007.11 2.939-1.959 4.898-5.333 4.898zm-6.857 20.136c.326 0 .544-.218.544-.544v-12.3c0-.217.109-.326.327-.326h6.53c7.946 0 12.844-4.898 12.844-11.864 0-7.075-4.79-11.864-12.844-11.864H66.83c-.327 0-.544.218-.544.544v35.81c0 .326.217.544.544.544h6.966zm181.55 0c.327 0 .436-.327.219-.544l-9.143-15.891 8.054-9.252c.218-.218.109-.544-.217-.544h-6.966c-.436 0-.654.217-.98.544l-7.51 9.252V6.095c0-.326-.218-.544-.544-.544h-6.531c-.327 0-.544.218-.544.544v35.81c0 .326.217.544.544.544h6.53c.327 0 .545-.218.545-.544V34.72l2.72-3.374 5.878 10.558c.218.326.436.544.871.544h7.075zm-38.42.544c4.462 0 8.054-2.068 9.904-4.898.218-.217.218-.544-.109-.762l-4.68-3.047c-.327-.218-.544-.218-.87.109-1.09 1.523-2.287 2.285-4.137 2.285-1.96 0-3.483-.87-4.027-2.83-.436-1.088-.544-2.285-.544-4.462 0-2.177.108-3.374.544-4.463.544-1.85 2.068-2.83 4.027-2.83 1.96 0 3.048.653 4.136 2.286.218.218.435.326.87.109l4.681-3.048c.327-.218.327-.544.109-.762-1.85-2.83-5.442-4.898-9.905-4.898-5.55 0-9.796 2.504-11.32 7.402-.544 1.523-.87 3.483-.87 6.313 0 2.72.326 4.68.87 6.313 1.524 4.68 5.77 7.183 11.32 7.183zm-28.518-5.66c-2.503 0-3.81-.87-3.81-2.72 0-2.069 1.416-2.94 4.68-2.94h3.702c.217 0 .326.11.326.327v1.741c0 2.395-1.633 3.592-4.898 3.592zm11.538 5.116c.326 0 .544-.218.544-.544V25.034c0-6.53-3.048-9.47-11.646-9.47-4.354 0-7.51 1.09-9.796 2.613-.218.218-.327.435-.11.762l2.395 4.245c.11.217.436.326.653.109 1.198-.871 3.157-1.633 5.878-1.633 4.136 0 5.333 1.088 5.333 3.592v.98c0 .217-.109.326-.326.326h-4.68c-6.531 0-10.885 2.612-10.885 8.49 0 5.55 4.027 8.054 8.708 8.054 3.591 0 5.877-1.088 7.183-2.83h.11v1.742c0 .326.217.544.543.544h6.096v-.109zm-37.987-20.136h-6.095c-.218 0-.327-.109-.327-.327v-9.251c0-.218.11-.327.327-.327h6.095c3.374 0 5.334 1.96 5.334 5.007.108 2.939-1.96 4.898-5.334 4.898zm-6.966 20.136c.327 0 .544-.218.544-.544v-12.3c0-.217.11-.326.327-.326h6.53c7.946 0 12.844-4.898 12.844-11.864 0-7.075-4.789-11.864-12.843-11.864h-14.368c-.326 0-.544.218-.544.544v35.81c0 .326.218.544.544.544h6.966zM40.925 48H7.075C1.85 48 0 43.755 0 40.925V7.075C0 1.85 4.245 0 7.075 0h33.85C46.15 0 48 4.245 48 7.075v33.85C48 46.15 43.755 48 40.925 48zM7.075 5.769c-1.415 0-1.415.87-1.415 1.415v33.85c0 1.415.87 1.415 1.415 1.415h33.741c1.415-.109 1.415-.87 1.415-1.415V7.184c0-1.415-.87-1.415-1.415-1.415H7.075z" fill-rule="evenodd"/></symbol><symbol id="logo" viewBox="0 0 82 83"><path class="nav-logo-fill" d="M13.06 43.688c-.17 0-.286-.115-.286-.289V24.303c0-.175.116-.29.286-.29h7.582c4.252 0 6.807 2.575 6.807 6.336 0 3.705-2.585 6.309-6.807 6.309h-3.474c-.114 0-.173.058-.173.173v6.568c0 .174-.114.29-.288.29H13.06zm10.166-13.34c0-1.59-1.062-2.66-2.843-2.66h-3.215c-.114 0-.173.057-.173.174v4.95c0 .114.059.17.173.17h3.215c1.781 0 2.843-1.04 2.843-2.633zM30.121 27.458c-.174 0-.287-.117-.287-.29v-2.865c0-.173.113-.29.287-.29h3.445c.173 0 .29.117.29.29v2.866c0 .172-.117.289-.29.289h-3.445zm0 16.23c-.174 0-.287-.116-.287-.288V29.974c0-.173.113-.289.287-.289h3.445c.173 0 .29.116.29.289V43.4c0 .172-.117.289-.29.289h-3.445zM41.722 43.861c-3.075 0-4.308-1.358-4.308-4.453V24.303c0-.173.116-.29.287-.29h3.447c.172 0 .287.117.287.29v14.785c0 .954.374 1.331 1.206 1.331h.603c.172 0 .287.115.287.29v2.863c0 .175-.115.29-.287.29h-1.522zM50.364 43.861c-3.07 0-4.305-1.358-4.305-4.453V24.303c0-.173.115-.29.286-.29h3.446c.172 0 .286.117.286.29v14.785c0 .954.376 1.331 1.208 1.331h.602c.174 0 .288.115.288.29v2.863c0 .175-.114.29-.288.29h-1.523z"/><path class="nav-logo-fill" d="M73.943 82.655H7.598C2.023 82.655 0 78.075 0 74.998V8.152C0 2.536 4.544.495 7.598.495h66.345c5.576 0 7.6 4.578 7.6 7.657v66.846c0 5.617-4.546 7.657-7.6 7.657zM7.598 4.67c-.797.016-3.453.31-3.453 3.481v66.846c.015.804.305 3.48 3.453 3.48H73.93c.821-.016 3.466-.317 3.466-3.48V8.152c-.013-.805-.306-3.481-3.453-3.481H7.598z"/><path class="nav-logo-fill" d="M12.996 68.9c-.167 0-.278-.11-.278-.28V50.109c0-.17.111-.281.278-.281h7.35c4.12 0 6.598 2.496 6.598 6.143 0 3.59-2.505 6.116-6.598 6.116h-3.37c-.11 0-.166.055-.166.166v6.369c0 .168-.113.28-.28.28h-3.534zm9.856-12.93c0-1.544-1.03-2.582-2.756-2.582h-3.12c-.11 0-.166.058-.166.167v4.799c0 .112.055.169.166.169h3.12c1.726 0 2.756-1.011 2.756-2.553zM36.189 68.9c-.166 0-.277-.11-.277-.28v-.897h-.03c-.694.898-1.866 1.488-3.701 1.488-2.397 0-4.484-1.264-4.484-4.152 0-3.004 2.257-4.376 5.597-4.376h2.393c.112 0 .166-.056.166-.17v-.504c0-1.263-.61-1.852-2.755-1.852-1.364 0-2.366.395-3.006.868-.138.113-.277.086-.36-.053l-1.254-2.218c-.084-.169-.057-.31.082-.392 1.143-.813 2.786-1.346 5.011-1.346 4.401 0 5.987 1.513 5.987 4.908v8.697c0 .168-.11.28-.28.28h-3.09zm-.336-4.516v-.924c0-.114-.054-.169-.166-.169h-1.894c-1.64 0-2.394.476-2.394 1.54 0 .956.67 1.433 1.95 1.433 1.671 0 2.504-.616 2.504-1.88zM42.48 65.368c-.276-.814-.417-1.824-.417-3.255 0-1.43.141-2.44.418-3.253.808-2.527 2.979-3.844 5.82-3.844 2.31 0 4.12 1.066 5.096 2.55.08.142.08.281-.059.395l-2.42 1.599c-.167.113-.307.085-.419-.057-.584-.813-1.169-1.177-2.143-1.177-1.03 0-1.782.477-2.09 1.458-.193.561-.25 1.206-.25 2.329 0 1.122.057 1.765.25 2.328.308.98 1.06 1.46 2.09 1.46.974 0 1.559-.367 2.143-1.18.112-.139.252-.167.418-.055l2.421 1.598c.139.114.139.253.059.394-.977 1.485-2.786 2.551-5.096 2.551-2.841 0-5.012-1.319-5.82-3.841M64.589 68.9c-.197 0-.308-.083-.418-.28l-3.007-5.47-1.391 1.739v3.732c0 .168-.113.28-.28.28H56.15c-.167 0-.277-.112-.277-.28V50.108c0-.17.11-.281.277-.281h3.341c.168 0 .28.11.28.28v10.295l3.87-4.796c.166-.197.306-.281.529-.281h3.562c.168 0 .222.167.112.28l-4.12 4.797 4.704 8.219c.084.112.029.28-.14.28h-3.7z"/></symbol><symbol id="lp-icon-email" viewBox="0 0 24 24"><path d="M22 11l-3-2.1V2.4c0-.4-.3-.7-.7-.7H5.7c-.3 0-.6.3-.6.7v6.5L2 11c-.2.1-.3.3-.3.6v8.8c0 1.1.9 1.9 1.9 1.9h16.7c1.1 0 1.9-.9 1.9-1.9v-8.8c.1-.3-.1-.4-.2-.6zm-3.1 1.6v-2l1.5 1-1.5 1zm-11.5 3c.2 0 .4-.1.6-.3.1-.1.1-.3.1-.5s-.1-.3-.3-.4l-1.4-.9V3h11.2v10.4l-1.4.9c-.1.1-.2.2-.3.4 0 .2 0 .4.1.5.1.2.3.3.6.3.1 0 .3 0 .4-.1l4-2.7v7.5c0 .3-.3.6-.6.6H3.6c-.3.2-.6-.1-.6-.4v-7.5l4 2.7h.4zm-3.8-4l1.5-1v2l-1.5-1z"/><path d="M4.4 19.5c.1.2.3.2.5.2s.3-.1.4-.1l4-3.2h5.4l4 3.2c.1.1.3.1.4.1.2 0 .4-.1.5-.3.2-.3.2-.7-.1-.9l-4.2-3.3c-.1-.1-.3-.1-.4-.1H9.1c-.2 0-.3.1-.4.1l-4.2 3.3c-.3.3-.4.7-.1 1zM12 13.1c.9 0 1.8-.3 2.5-.8.3-.2.4-.6.2-.9-.1-.2-.3-.3-.5-.3-.1 0-.3 0-.4.1-.5.4-1.1.5-1.7.5-1.7 0-3.1-1.4-3.1-3.1s1.4-3.1 3.1-3.1 3.1 1.4 3.1 3.1V9c0 .3-.2.5-.5.5s-.5-.2-.5-.5v-.3c0-1.2-1-2.1-2.1-2.1S10 7.6 10 8.7s1 2.1 2.1 2.1c.5 0 1-.2 1.4-.5.3.3.8.5 1.2.5 1 0 1.8-.8 1.8-1.8v-.3c0-2.4-2-4.4-4.4-4.4-2.4 0-4.4 2-4.4 4.4s1.9 4.4 4.3 4.4zm0-5.3c.4 0 .8.4.8.8s-.4.9-.8.9-.8-.4-.8-.8.4-.9.8-.9z"/></symbol><symbol id="lp-icon-laptop" viewBox="0 0 24 24"><path d="M7.4 20c.1.2.4.3.6.3h8c.2 0 .4-.1.6-.3s.2-.4.1-.6l-.5-2.4c-.1-.3-.4-.6-.7-.6h-7c-.4 0-.7.2-.7.6l-.5 2.3c-.1.3 0 .5.1.7zm1.7-2h5.8l.2.8H8.9l.2-.8z"/><path d="M24.2 21.3l-2-7.4V3c0-1.2-1-2.2-2.2-2.2H4C2.8.8 1.8 1.8 1.8 3v11.4l-2 6.9v.7c0 1.2 1 2.2 2.2 2.2h20c1.2 0 2.2-1 2.2-2.2v-.5-.2zM4 2.2h16c.4 0 .8.3.8.8v10.8H3.2V3c0-.4.4-.8.8-.8zm-.9 13h18l1.5 5.5h-21l1.5-5.5zM22 22.8H2c-.3 0-.6-.2-.7-.5h21.4c-.1.2-.4.5-.7.5z"/><path d="M5.3 12.8h13.5c.4 0 .8-.3.8-.8V4.1c0-.4-.3-.8-.8-.8H5.3c-.4 0-.8.3-.8.8V12c0 .4.3.8.8.8zm.7-8h12v6.4H6V4.8z"/></symbol><symbol id="lp-icon-multiple" viewBox="0 0 24 24"><path d="M10.8 13.4v-1c.4-.4.9-1.1 1-2.4.4-.3.6-.9.6-1.6 0-.4-.1-.7-.3-1 0-.1-.1-.1-.1-.2.2-.6.5-1.4.2-2.3-.4-1.5-2.2-2-3.7-2-1.2 0-2.7.4-3.4 1.4-.4 0-.8.2-1.1.5-.4.7-.1 1.8.2 2.5-.1 0-.1.1-.2.2-.2.3-.3.6-.3 1 0 .7.2 1.3.6 1.6.1 1.3.5 2 1 2.4v1C0 15.7 0 16.6 0 16.9v4.4c0 .4.3.8.8.8h14.6c.4 0 .8-.3.8-.8v-4.4c0-.3 0-1.2-5.4-3.5zm-4.4-8c.1-.4 1-.9 2.2-.9s2.1.4 2.2.9c.1.6-.2 1.2-.3 1.6-.1.2-.2.4-.2.6 0 .4.3.7.6.7v.1c0 .1 0 .3-.1.4-.3.1-.6.4-.6.7 0 1.3-.4 1.7-.5 1.7-.3.1-.5.4-.5.7v2c0 .3.2.6.5.7 2.5 1 4.4 2 4.9 2.4v3.4H1.5V17c.5-.3 2.5-1.3 4.9-2.3.3-.1.5-.4.5-.7v-2c0-.3-.2-.6-.5-.7 0 0-.5-.3-.5-1.7 0-.4-.2-.7-.6-.7 0-.1-.1-.3-.1-.5.1 0 .3-.1.4-.2.3-.2.3-.4.3-.6 0-.2-.1-.4-.2-.7-.2-.5-.3-.9-.4-1H5.6c.4 0 .7-.2.8-.5z"/><path d="M20.8 14.9c-.4-.1-.8-.3-1.2-.4V14c.4-.3.9-.9 1-2 .3-.3.5-.9.5-1.5 0-.3 0-.6-.2-.9l-.1-.1c.2-.5.5-1.3.2-2.1-.4-1.2-2-1.6-3.2-1.6-1 0-2.2.3-2.9 1.1-.4 0-.7.2-.9.4-.5.6-.3 1.5-.1 2-.1.1-.1.1-.1.2-.2.3-.2.7-.2.9 0 .6.2 1.2.5 1.6.1 1 .5 1.6 1 1.9v.5c0 .4.3.8.8.8.4 0 .8-.3.8-.8v-1c0-.3-.2-.6-.5-.7 0 0-.4-.2-.4-1.2 0-.3-.2-.6-.4-.7 0-.1-.1-.4-.1-.5.3-.1.5-.4.5-.7 0-.2-.1-.4-.2-.6-.1-.3-.2-.5-.2-.6h.1c.3 0 .6-.2.7-.5.1-.2.7-.6 1.7-.6s1.6.3 1.7.6c.1.4-.1.8-.3 1.1-.2.1-.3.3-.3.6 0 .4.2.6.5.7v.5c-.3.2-.5.4-.5.7 0 1-.4 1.2-.4 1.2-.3.1-.6.4-.6.7v1.5c0 .3.2.6.5.7.6.2 1.2.4 1.7.7.7.2 1.8.6 2.2.9v3.3h-4.6c-.4 0-.8.3-.8.8 0 .4.3.8.8.8h5.4c.4 0 .8-.3.8-.8v-4.4c0-.9-1.1-1.3-3.2-2z"/></symbol><symbol id="lp-icon-phone" viewBox="0 0 24 24"><path d="M17.3 15.8c-.6-.5-1.3-.8-2-.8s-1.4.3-1.9.8l-.2.2c-1.9-1.6-3.6-3.4-5.2-5.2l.2-.2c1.1-1.1 1.1-2.8 0-3.9l-2.1-2c-.5-.5-1.2-.8-1.9-.8s-1.4.3-1.9.8L1.1 5.8C-.2 7.1-.4 9 .6 10.5 4 15.6 8.4 20 13.5 23.4c.6.4 1.3.6 2 .6 1 0 1.9-.4 2.6-1.1l1.1-1.1c1.1-1.1 1.1-2.8 0-3.9l-1.9-2.1zM7 9.5l-.7.7c-.3.3-.3.7-.1 1.1 1.9 2.3 4.1 4.5 6.4 6.4.1.1.3.2.5.2s.4-.1.6-.2l.7-.7c.2-.2.5-.3.8-.3s.6.1.8.3l2.1 2.1c.5.5.5 1.2 0 1.6L17 21.8c-.4.4-.9.6-1.5.6-.4 0-.8-.1-1.2-.4-4.8-3.2-9.1-7.5-12.4-12.4-.6-.8-.4-2 .3-2.7l1.1-1.1c.2-.2.5-.3.8-.3.3 0 .6.1.8.3L7 7.9c.5.4.5 1.2 0 1.6zM12 0c-.4 0-.8.4-.8.8s.4.8.8.8c5.7 0 10.4 4.7 10.4 10.4 0 .4.4.8.8.8s.8-.4.8-.8c0-6.6-5.4-12-12-12z"/><path d="M12 5.5c3.6 0 6.5 2.9 6.5 6.5 0 .4.4.8.8.8s.8-.4.8-.8c0-4.5-3.6-8.1-8.1-8.1-.4 0-.8.4-.8.8s.4.8.8.8z"/><path d="M12 9.4c1.4 0 2.6 1.2 2.6 2.6 0 .4.4.8.8.8s.8-.4.8-.8c0-2.3-1.9-4.2-4.2-4.2-.4 0-.8.4-.8.8s.4.8.8.8z"/></symbol><symbol id="nav-icon-questions" viewBox="0 0 15 16"><g fill-rule="evenodd"><path d="M5.786 5.71c.128-.108.268-.209.418-.302.151-.094.313-.176.487-.247.173-.071.36-.127.559-.167.199-.04.415-.06.647-.06.326 0 .62.044.881.13.262.087.485.211.669.372.183.161.325.356.423.583.1.227.149.479.149.756 0 .267-.037.496-.11.687-.072.19-.165.357-.278.499a2.108 2.108 0 0 1-.369.366 59.8 59.8 0 0 1-.38.289c-.12.09-.223.179-.312.265a.55.55 0 0 0-.163.291L8.26 9.9H7.159l-.115-.837a.767.767 0 0 1-.01-.125.73.73 0 0 1 .109-.4 1.42 1.42 0 0 1 .276-.315c.11-.095.23-.187.358-.275.129-.089.248-.184.36-.286.11-.102.202-.217.275-.343a.887.887 0 0 0 .109-.45.635.635 0 0 0-.205-.497c-.137-.123-.325-.184-.565-.184a1.577 1.577 0 0 0-.777.184c-.088.047-.165.09-.231.128a.391.391 0 0 1-.198.057.358.358 0 0 1-.333-.193l-.426-.655zm.957 6.068a.863.863 0 0 1 .262-.63.918.918 0 0 1 .653-.26c.128 0 .248.024.359.07a.95.95 0 0 1 .29.19.86.86 0 0 1 .266.63.882.882 0 0 1-.265.634.944.944 0 0 1-.65.255.958.958 0 0 1-.364-.068.873.873 0 0 1-.551-.822z"/><path d="M7.5 15.83a7.5 7.5 0 1 0 0-15 7.5 7.5 0 0 0 0 15zm0-2a5.5 5.5 0 1 1 0-11 5.5 5.5 0 0 1 0 11z"/></g></symbol><symbol id="nav-icon-user" viewBox="0 0 13 13"><path d="M1.994 11.03c.542-1.79 2.215-3.09 4.15-3.092h.01a4.363 4.363 0 0 1 4.152 3.091H1.994zm3.161-5.053A2.245 2.245 0 0 1 3.906 3.97 2.246 2.246 0 0 1 6.15 1.726 2.245 2.245 0 0 1 8.393 3.97a2.246 2.246 0 0 1-2.24 2.243h-.008c-.347 0-.684-.082-.99-.236zm3.706.883a3.957 3.957 0 0 0 1.257-2.89c0-2.19-1.78-3.97-3.97-3.97A3.973 3.973 0 0 0 2.18 3.97a3.968 3.968 0 0 0 .693 2.235c.166.242.357.46.566.656C1.589 7.794.262 9.647.1 11.829a.862.862 0 0 0 .861.927h10.378a.864.864 0 0 0 .86-.927c-.162-2.183-1.489-4.035-3.338-4.969z" fill-rule="evenodd"/></symbol><symbol id="optimize_icon" viewBox="0 0 30 30"><g stroke-width="2" stroke="#169FDA" fill="none" fill-rule="evenodd" stroke-linejoin="round"><path d="M21.874 13.126a5 5 0 1 1-10 0 5 5 0 1 1 10 0zM4.375 6.876a1.874 1.874 0 1 1-3.75 0 1.875 1.875 0 1 1 3.75 0zM29.375 2.501a1.876 1.876 0 1 1-3.751-.001 1.876 1.876 0 0 1 3.751.001zM4.375 27.501a1.874 1.874 0 1 1-3.75 0 1.875 1.875 0 1 1 3.75 0zM18.25 27.501a1.874 1.874 0 1 1-3.75 0 1.875 1.875 0 1 1 3.75 0zM3.825 26.175l9.524-9.502M20.416 9.597l5.756-5.77M4.187 7.69l8.091 3.467M25.702 17.538l-4.521-1.869M16 25.626v-7.5M29.375 18.126a1.876 1.876 0 1 1-3.751-.001 1.876 1.876 0 0 1 3.751.001z"/></g></symbol><symbol id="partners-icon-caregivers" viewBox="0 0 30 30"><path d="M19.8 26.8H1c-.6 0-1-.4-1-1v-5.5c0-.4 0-1.6 6.9-4.3v-1.2c-.5-.4-1.1-1.3-1.2-2.9-.5-.4-.8-1.2-.8-2-.1-.5.1-.9.3-1.3.1-.1.1-.2.2-.2-.4-.9-.8-2.1-.1-3 .3-.4.8-.6 1.4-.6C7.5 3.5 9.5 3 11 3c1.9 0 4.2.7 4.7 2.6.3 1.1 0 2.1-.3 2.8l.2.2c.3.4.4.8.4 1.3 0 .8-.3 1.6-.8 2-.1 1.6-.7 2.5-1.2 2.9V16c6.9 2.7 6.9 3.9 6.9 4.3v5.5c-.1.6-.5 1-1.1 1zM2 24.8h16.8v-4.1c-.7-.5-3.1-1.8-6.3-3-.4-.1-.6-.5-.6-.9v-2.4c0-.4.3-.8.7-.9 0 0 .6-.3.6-2.1 0-.5.3-.8.7-1 .1-.2.1-.4.1-.6-.4-.1-.8-.5-.8-1 0-.3.1-.5.2-.8.2-.5.6-1.2.4-2-.1-.5-1.2-1-2.7-1-1.6 0-2.7.5-2.8 1.1-.2.5-.7.8-1.2.7H7c0 .4.3.9.4 1.1.2.4.3.6.3.9 0 .5-.3.9-.8 1 0 .1 0 .4.1.5.2 0 .3.1.4.3.2.2.3.4.3.7 0 1.7.6 2.1.6 2.1.4.1.6.5.6.9v2.4c0 .4-.3.8-.6.9-3.2 1.2-5.6 2.5-6.3 3v4.2z"/><path d="M28.8 26.8h-6.7c-.6 0-1-.4-1-1s.4-1 1-1h5.7v-4.3c-.5-.3-1.7-.7-2.7-1.1-.7-.3-1.5-.5-2.2-.8-.4-.2-.6-.5-.6-.9v-1.9c0-.4.3-.8.7-1 0 0 .5-.3.5-1.5 0-.3.1-.5.3-.7.1-.1.2-.1.2-.2.1-.2.1-.5.1-.7-.4-.2-.6-.5-.6-.9 0-.3.1-.5.3-.8.2-.3.5-.9.4-1.4-.1-.2-.9-.6-2.1-.6s-2 .4-2.1.7c-.1.4-.5.7-1 .7.1.3.2.6.2.8.1.3.2.5.2.7 0 .4-.3.8-.6.9 0 .2 0 .5.1.7.3.2.5.5.5.9 0 1.3.5 1.5.5 1.6.4.1.7.5.7.9v1.2c0 .6-.4 1-1 1s-1-.4-1-1v-.7c-.5-.4-1.1-1.2-1.2-2.5-.4-.5-.6-1.2-.6-2 0-.3 0-.8.2-1.2.1-.1.1-.2.2-.3-.3-.8-.5-1.8.1-2.6.2-.2.6-.5 1.2-.5.7-.8 2-1.4 3.6-1.4 2 0 3.6.8 4 2.1.3 1 0 1.9-.3 2.5 0 .1.1.1.1.2.2.4.2.9.2 1.2 0 .7-.2 1.5-.6 2-.1 1.3-.7 2.1-1.2 2.5v.6l1.5.6c2.6 1 4 1.5 4 2.6v5.6c0 .6-.5 1-1 1zm-4.3-14.4z"/></symbol><symbol id="partners-icon-costs" viewBox="0 0 30 30"><path d="M26.1 21.3c-.7 0-1.2.5-1.2 1.2 0 1.5-1.2 2.7-2.8 2.7H7.9c-1.5 0-2.7-1.2-2.7-2.7v-7.6l.7.6c.2.2.5.3.8.3.3 0 .6-.1.9-.4.5-.5.4-1.2 0-1.7L5 11.2c-.2-.3-.5-.4-.9-.4-.3 0-.6.1-.8.3L.6 13.7c-.5.5-.5 1.2 0 1.7.2.6.9.6 1.4.1l.7-.7v7.7c0 2.8 2.3 5.1 5.1 5.1h14.3c2.8 0 5.1-2.3 5.1-5.1.1-.6-.5-1.2-1.1-1.2zM29.7 15.2c-.5-.5-1.2-.5-1.7 0l-.7.7V8.1C27.3 5.3 25 3 22.2 3H7.8c-1.4 0-2.6.6-3.6 1.5-1 1-1.5 2.3-1.5 3.6 0 .7.5 1.2 1.2 1.2s1.2-.5 1.2-1.2.3-1.4.8-1.9 1.2-.8 2-.8h14.3c1.5 0 2.7 1.2 2.7 2.7v7.7l-.7-.7c-.5-.5-1.2-.4-1.7 0-.5.5-.4 1.2 0 1.7l2.7 2.6.1.1.2.2c.1.1.3.1.4.1.2 0 .3 0 .4-.1.1 0 .2-.1.2-.2 0 0 .1 0 .1-.1l2.7-2.6c.8-.4.8-1.2.4-1.6z"/><path d="M11.4 12.9c0 2 1.6 3.6 3.6 3.6.7 0 1.2.5 1.2 1.2s-.5 1.2-1.2 1.2h-.2c-.3 0-.5-.1-.7-.2-.2-.2-.3-.4-.3-.6 0-.7-.6-1.2-1.3-1.1-.7 0-1.2.6-1.1 1.3 0 .9.4 1.7 1.1 2.3.4.3.8.6 1.3.7v.5c0 .7.5 1.2 1.2 1.2s1.2-.5 1.2-1.2V21c1.4-.5 2.4-1.8 2.4-3.4 0-2-1.6-3.6-3.6-3.6-.7 0-1.2-.5-1.2-1.2s.5-1.2 1.3-1.2c.5-.1 1 .3 1.1.9 0 .6.5 1.2 1.2 1.2s1.2-.6 1.2-1.2v-.2c-.1-1.4-1.1-2.5-2.4-2.9V9c0-.7-.5-1.2-1.2-1.2s-1.2.5-1.2 1.2v.5c-1.4.5-2.4 1.8-2.4 3.4z"/></symbol><symbol id="partners-icon-cx" viewBox="0 0 30 30"><path d="M20.8 18.8c-.8-.3-1.6-.7-2.4-1h-.7c-.1 0-.1 0-.2.1h-.1c-.9.6-1.7 1-2.4 1.2-1.2-.4-4.4-1.9-4.9-4.9-.1-.5-.5-.8-1-.8-.2 0-.3-.4-.3-.7 0-.3.1-.5.2-.6 0-.2 0-.2.1-.2.5 0 .9-.3 1-.8l.4-1.6c2.6-.1 3.8-.8 4.5-1.6.8.9 2.1 1.6 5.3 1.6h.2v3.7c0 .6.4 1 1 1h.2v.1c-.2.7-.9 1.4-1.4 1.4h-2.6c-.1-.4-.5-.7-.9-.7h-2.4c-.6 0-1 .4-1 1s.4 1 1 1h1.4c.1.4.5.7.9.7h3.6c1.7 0 3-1.6 3.3-3.1V14c.4-.1.7-.3.9-.6 0 .1 0 .2.1.4.2.5.7 1.7 1.8 2.3-.9.9-2 .9-2.5.8-.5-.1-1.1.3-1.1.8-.1.5.3 1.1.8 1.1.3 0 .5.1.8.1 1.6 0 3.5-.8 4.4-3 .1-.3.1-.7-.1-.9s-.5-.5-.8-.5c-.3 0-.8 0-1.5-1.5-.2-.5-.8-.7-1.3-.5.1-.3.2-.7.2-1 0-1.5-1.2-2.7-2.8-2.7h-1.4v-.2c0-.6-.4-1-1-1-3.3 0-3.8-.9-4.2-1.4-.1-.2-.3-.4-.5-.6-.4-.4-1-.4-1.4 0-.2.2-.3.4-.5.6 0 .5-.5 1.3-3.8 1.3-.5 0-.9.3-1 .8L8.3 10c-.4.2-.7.4-1 .8-.3.5-.5 1.1-.5 1.8 0 1.2.6 2.2 1.4 2.5-.1.8-1 1.5-2 1.7-.4.1-1.7.2-2.6-.7 1.6-1 2.2-3.6 2.8-6.1.6-2.6 1.3-5.7 3.2-6.6 1.2-.5 2.8-.3 5 .8.3.1.6.1.9 0 2.1-1 3.8-1.3 5-.8 1.5.7 2.3 2.8 2.8 4.8.1.5.7.9 1.2.7.5-.1.9-.7.7-1.2-.6-2.4-1.6-5.1-3.9-6.1-1.7-.8-3.8-.6-6.3.6C12.4 1 10.4.8 8.7 1.6 6 2.9 5.2 6.5 4.4 9.6c-.7 3-1.3 4.9-2.4 4.9-.3 0-.7.2-.8.5-.2.3-.2.6-.1.9.8 1.9 2.5 3 4.4 3 .4 0 .7 0 1.1-.1 1.1-.2 2-.8 2.7-1.5.3.4.6.8.9 1.1-.3.1-.6.3-.9.4C4.7 20.7.4 22.4.4 26.6v1.8c0 .6.4 1 1 1h27.2c.6 0 1-.4 1-1v-1.8c0-4.1-4.3-5.9-8.8-7.8zm1.7-8.1h.2c.4 0 .8.3.8.7 0 .4-.3.7-.8.7h-.2v-1.4zM12 19.9c1.1.7 2.2 1.1 2.7 1.3h.6c.7-.2 1.7-.6 2.7-1.3.2.1.4.2.7.3-.4 2.1-2.3 5-3.7 6.7-1.3-1.7-3.3-4.5-3.7-6.7.2-.2.5-.2.7-.3zm-9.6 6.7c0-2.6 3.2-4.1 7.1-5.7.5 2.3 2.2 4.8 3.5 6.4H2.4v-.7zm25.2.8H17.1c1.2-1.6 2.9-4.1 3.5-6.4 3.8 1.6 7.1 3 7.1 5.7v.7z"/><path d="M14.8 11.5c0-.6-.2-.9-.4-1.1-.5-.5-1.1-.5-1.6-.5h-.4c-.5 0-1.1 0-1.6.5-.2.2-.4.5-.4 1.1 0 .5.4 1 1 1 .4 0 .7-.2.9-.6h.6c.2.3.5.6.9.6.6 0 1-.5 1-1zM17.4 11.9h.6c.2.3.5.6.9.6.6 0 1-.4 1-1s-.2-.9-.4-1.1c-.5-.5-1.1-.5-1.6-.5h-.4c-.5 0-1.1 0-1.6.5-.2.2-.4.5-.4 1.1 0 .5.4 1 1 1 .4-.1.7-.3.9-.6z"/></symbol><symbol id="partners-icon-health" viewBox="0 0 30 30"><path d="M27.8.9c-.4-.2-.9-.2-1.3.1-2 1.4-3.7 2-5.5 2-2 0-3.8-.9-5.1-2.4-.5-.6-1.5-.6-1.9 0-1.2 1.6-3 2.5-5 2.5-1.9 0-3.5-.7-5.6-2C3.1.7 2.6.7 2.2.9s-.6.7-.6 1.1V19.9c.1.3 2 6.9 13.1 9.9h.6c10.9-3 13-9.7 13.1-9.9V2c0-.4-.2-.9-.6-1.1zM26 19.5c-.3.9-2.4 5.6-10.9 8-8.6-2.4-10.6-7.1-10.9-8V4.1C5.8 5 7.5 5.4 9 5.4c2.2 0 4.4-.9 6-2.3 1.7 1.5 3.8 2.3 6 2.3 1.6 0 3.2-.4 4.9-1.3v15.4z"/><path d="M18.7 9.2c0-.7-.6-1.2-1.2-1.2h-5.1c-.7 0-1.2.6-1.2 1.2v2.3H8.7c-.7 0-1.2.6-1.2 1.2v4.7c0 .7.6 1.2 1.2 1.2h2.5v2.3c0 .7.6 1.2 1.2 1.2h5.1c.7 0 1.2-.6 1.2-1.2v-2.2h2.6c.7 0 1.2-.6 1.2-1.2v-4.7c0-.7-.6-1.2-1.2-1.2h-2.6V9.2zm1.5 4.8v2.2h-2.6c-.7 0-1.2.6-1.2 1.2v2.2h-2.6v-2.2c0-.7-.6-1.2-1.2-1.2H9.9V14h2.5c.7 0 1.2-.6 1.2-1.2v-2.3h2.6v2.3c0 .7.6 1.2 1.2 1.2h2.8z"/></symbol><symbol id="partners-icon-inhaler" viewBox="0 0 51.2 51.2"><path d="M39 11.1l-1-.4L39.1 4c.1-.6 0-1.1-.4-1.5-.2-.5-.7-.8-1.3-.9l-9-1.5c-1.1-.2-2.1.5-2.4 1.5l-.6 3.6h-.1c-.5-.2-1-.2-1.5 0s-.9.6-1.1 1.1c-.1.2-.1.3-.1.5l-5.1 29.4-9.1 1.5c-1 .1-1.7 1-1.7 2v8.6c0 1.1.8 1.9 1.9 2l10.6.9h12.7c1 0 1.8-.7 2-1.7l6.2-36.2c.2-1-.3-1.8-1.1-2.2zm-9.7-4.2l.4-2.5 5 .8-.6 3.8-4.8-2.1zm-8 40.2V38l4.8-28 9.8 4.2-5.7 32.9h-8.9zm-4.1-6.8V47l-6.5-.5v-5l6.5-1.2z"/></symbol><symbol id="partners-icon-management" viewBox="0 0 30 30"><path d="M22 13.5c-4.4 0-8 3.6-8 8s3.6 8 8 8 8-3.6 8-8-3.6-8-8-8zm0 13.7c-3.1 0-5.7-2.6-5.7-5.7s2.6-5.7 5.7-5.7 5.7 2.6 5.7 5.7-2.6 5.7-5.7 5.7z"/><path d="M26.2 18.4c-.4-.4-1.2-.4-1.6 0l-3.8 3.8-1.5-1.5c-.4-.4-1.2-.4-1.6 0-.4.4-.4 1.2 0 1.6l2.3 2.3c.2.2.5.3.8.3s.6-.1.8-.3l4.6-4.6c.5-.5.5-1.2 0-1.6zM14.4 27.2H2.6V5.5h2.3C5.5 5.5 6 5 6 4.4s-.5-1.2-1.1-1.2H1.5C.9 3.2.4 3.7.4 4.3v23.9c0 .6.5 1.1 1.1 1.1h12.9c.6 0 1.1-.5 1.1-1.1 0-.5-.5-1-1.1-1zM20.9 5.5h2.3v5.7c0 .6.5 1.1 1.1 1.1.6 0 1.1-.5 1.1-1.1V4.4c0-.6-.5-1.1-1.1-1.1h-3.4c-.6 0-1.1.5-1.1 1.1s.4 1.1 1.1 1.1z"/><path d="M3.8 7.4v17.5c0 .6.5 1.1 1.1 1.1h7.7c.6 0 1.1-.5 1.1-1.1 0-.6-.5-1.1-1.1-1.1H6V8.5h1.1v.4c0 .6.5 1.1 1.1 1.1h9.1c.6 0 1.1-.5 1.1-1.1v-.4h1.1v2.7c0 .6.5 1.1 1.1 1.1s1.1-.5 1.1-1.1V7.4c0-.6-.5-1.1-1.1-1.1h-2.3V4.4c0-.6-.5-1.1-1.1-1.1h-1.3C15.4 2 14.2 1 12.7 1S9.9 2 9.5 3.3H8.3c-.6 0-1.1.5-1.1 1.1v1.9H4.9c-.6 0-1.1.5-1.1 1.1zm5.7-1.9h1.1c.6 0 1.1-.5 1.1-1.1 0-.6.5-1.1 1.1-1.1.6 0 1.1.5 1.1 1.1 0 .6.5 1.1 1.1 1.1h1.1v2.3H9.5V5.5z"/><path d="M18.6 12.3c0-.6-.5-1.1-1.1-1.1H8.3c-.6 0-1.1.5-1.1 1.1 0 .6.5 1.1 1.1 1.1h9.1c.7.1 1.2-.4 1.2-1.1zM14.8 15.9c0-.6-.5-1.1-1.1-1.1H8.3c-.6 0-1.1.5-1.1 1.1 0 .6.5 1.1 1.1 1.1h5.3c.7 0 1.2-.5 1.2-1.1zM12.6 18H8.3c-.6 0-1.1.5-1.1 1.1 0 .6.5 1.1 1.1 1.1h4.3c.6 0 1.1-.5 1.1-1.1 0-.6-.5-1.1-1.1-1.1z"/></symbol><symbol id="partners-icon-packet" viewBox="0 0 33 30"><path d="M8.6 16.5h13.3c.6 0 1-.4 1-1s-.4-1-1-1H8.6c-.6 0-1 .4-1 1s.4 1 1 1zm0 4H22c.6 0 1-.4 1-1s-.4-1-1-1H8.6c-.6 0-1 .4-1 1s.4 1 1 1zM7 9.9c0-.8.3-1.2.7-1.5-.3-.3-.6-.7-.6-1.3C7.1 6 8 5 9.3 5s2.2 1 2.2 2.1c0 .6-.3 1.1-.5 1.3.3.3.7.7.7 1.5 0 1.3-1.1 2.1-2.3 2.1S7 11.2 7 9.9zm2.3-2.3c.3 0 .5-.2.5-.5s-.2-.5-.5-.5-.4.2-.4.5.2.5.4.5zm-.6 2.2c0 .4.3.6.6.6s.6-.3.6-.6-.2-.6-.6-.6-.6.2-.6.6zm7.2.7c-.1-.4-.2-.6-.2-2s0-1.6.2-2c.3-1 1-1.5 2.1-1.5s1.9.6 2.1 1.5c.1.4.2.6.2 2s0 1.6-.2 2c-.3 1-1 1.5-2.1 1.5-1 0-1.8-.6-2.1-1.5zm1.8-.4c.1.2.2.3.4.3s.3-.1.4-.3c0-.1.1-.2.1-1.6s0-1.5-.1-1.6c-.1-.2-.2-.3-.4-.3s-.3.1-.4.3c0 .1-.1.2-.1 1.6s.1 1.5.1 1.6zm3.8.4c-.1-.4-.2-.6-.2-2s0-1.6.2-2c.3-1 1-1.5 2.1-1.5s1.9.6 2.1 1.5c.3.4.3.7.3 2s0 1.6-.2 2c-.3 1-1 1.5-2.1 1.5s-1.9-.6-2.2-1.5zm1.8-.4c.1.2.2.3.4.3s.3-.1.4-.3c0-.1.1-.2.1-1.6s0-1.5-.1-1.6c-.1-.2-.2-.3-.4-.3s-.3.1-.4.3c0 .1-.1.2-.1 1.6s.1 1.5.1 1.6zM13.6 8c-.6 0-1-.4-1-1s.4-1 1-1 1 .4 1 1-.4 1-1 1zm0 3c-.6 0-1-.4-1-1s.4-1 1-1 1 .4 1 1-.4 1-1 1z"/><path d="M1.2 4.2c-.2-.3-.2-.8 0-1.1L2.8.4c.2-.2.5-.4.9-.4h27.5c.6 0 1 .4 1 1v28c0 .6-.4 1-1 1H3.7c-.3 0-.7-.2-.8-.5l-1.8-2.8c-.2-.3-.2-.8 0-1.1l1.5-2.3L1.2 21c-.2-.3-.2-.7 0-1l1.4-2.2-1.3-2.1c-.2-.3-.2-.7 0-1.1l1.5-2.3-1.7-2.4c-.2-.3-.2-.8 0-1.1l1.5-2.3-1.4-2.3zm2-.6l1.4 2.2c.2.3.2.8 0 1.1L3.1 9.3l1.6 2.4c.2.3.2.8 0 1.1l-1.5 2.3 1.3 2.1c.2.3.2.7 0 1.1l-1.4 2.2 1.4 2.2c.2.3.2.8 0 1.1L3 26.1 4.3 28h25.9V2h-26l-1 1.6z"/></symbol><symbol id="partners-icon-satisfaction" viewBox="0 0 30 30"><path d="M19.4 30h-12c-.7 0-1.3-.6-1.3-1.3v-6.2c-3.2-2.2-4.8-5.5-4.8-9.9v-.3c0-3.3 1.4-6.5 3.8-8.8C7.5 1.2 10.7 0 14 0c5.9 0 12 4 12.1 10.6.1.3.5 1 .8 1.5.9 1.5 1.8 3.2 1.8 4.7 0 .5-.1.9-.3 1.3 0 .1-.1.1-.1.2-.4.5-1 .9-1.7.9h-.5c-.1 1.8-.3 4.2-1.3 5.2s-2.3 1.3-4 1.4v2.9c-.2.7-.7 1.3-1.4 1.3zM8.7 27.4H18v-2.8c0-.7.6-1.3 1.3-1.3 2.2 0 3-.1 3.5-.6.4-.4.6-2.7.6-4.7 0-.3.1-.7.4-.9.2-.2.6-.4.9-.4H26c0-.8-.9-2.3-1.4-3.2-.7-1.3-1.1-2-1.1-2.7 0-5.1-4.8-8.1-9.5-8.1h-.1C8.5 2.6 4 7 4 12.4v.2c0 3.8 1.4 6.4 4.1 8.1.4.2.6.7.6 1.1v5.6zm18.5-9.8zm-1.1-6.9z"/><path d="M14 19.3c-.3 0-.5-.1-.8-.2-1.1-.8-6.5-4.9-6.5-8.5 0-2.7 1.9-4.3 3.8-4.5 1.2-.2 2.5.2 3.5 1.3 1-1.1 2.3-1.5 3.5-1.4 1.9.2 3.8 1.8 3.8 4.5 0 3.6-5.4 7.7-6.5 8.5-.3.3-.6.3-.8.3zM11 8.6h-.2c-.7.1-1.5.7-1.5 2 0 1.5 2.5 4.1 4.7 5.8 2.1-1.7 4.7-4.3 4.7-5.8 0-1.2-.8-1.9-1.5-2-.9-.1-1.6.6-1.9 1.9-.1.6-.7 1-1.3 1-.6 0-1.1-.4-1.3-1-.3-1.2-.9-1.9-1.7-1.9z"/></symbol><symbol id="partners-icon-shipping" viewBox="0 0 30 30"><path d="M10.6 19.7c-2 0-3.6 1.7-3.6 3.6s1.7 3.6 3.6 3.6 3.6-1.7 3.6-3.6-1.7-3.6-3.6-3.6zm0 4.8c-.6 0-1.2-.6-1.2-1.2s.6-1.2 1.2-1.2 1.2.6 1.2 1.2-.6 1.2-1.2 1.2zM23.4 19.7c-2 0-3.6 1.7-3.6 3.6s1.7 3.6 3.6 3.6 3.6-1.7 3.6-3.6-1.6-3.6-3.6-3.6zm0 4.8c-.6 0-1.2-.6-1.2-1.2s.6-1.2 1.2-1.2 1.2.6 1.2 1.2-.6 1.2-1.2 1.2z"/><path d="M28.4 5.2H10.1c-.7 0-1.2.5-1.2 1.2v2.7H5.7c-3 0-5.5 2.6-5.5 5.7v8c0 .7.5 1.2 1.2 1.2h3.9c.7 0 1.2-.5 1.2-1.2s-.5-1.2-1.2-1.2H2.6v-.5h3.6c.7 0 1.2-.5 1.2-1.2s-.5-1.2-1.2-1.2H2.6v-3.9c0-1.8 1.4-3.3 3.1-3.3h3.1V18.1c0 .7.5 1.2 1.2 1.2s1.2-.5 1.2-1.2V7.6h15.9v15.2c0 .7.5 1.2 1.2 1.2s1.2-.5 1.2-1.2V6.4c.1-.7-.4-1.2-1.1-1.2z"/><path d="M18.3 20.6h-2.4c-.7 0-1.2.5-1.2 1.2s.5 1.2 1.2 1.2h2.4c.7 0 1.2-.5 1.2-1.2s-.5-1.2-1.2-1.2zM6.9 12H5.8c-1.4 0-2.5 1.2-2.5 2.7V17c0 .7.5 1.2 1.2 1.2s1.2-.5 1.2-1.2v-2.4c0-.2.1-.2 0-.2h1.2c.7 0 1.2-.5 1.2-1.2S7.7 12 6.9 12z"/></symbol><symbol id="partners-icon-star" viewBox="0 0 30 30"><path d="M20.3 24.7c-.3 0-.5-.1-.7-.2L15 20.9l-4.6 3.6c-.4.3-.9.3-1.3 0s-.6-.8-.5-1.3l1.6-5.8L6 13.2c-.3-.3-.4-.8-.3-1.3.2-.4.6-.7 1.1-.7h5.1l2-4.6c.3-.3.7-.6 1.1-.6.5 0 .9.3 1.1.7l2 4.6h5.1c.5 0 .9.3 1.1.7.2.4.1.9-.2 1.3l-4.2 4.2 1.6 5.8c.1.5-.1 1-.5 1.3-.3 0-.5.1-.7.1zM9.6 13.6l2.7 2.7c.3.3.4.7.3 1.1l-.9 3.1 2.6-2c.4-.3 1-.3 1.4 0l2.6 2-.9-3.1c-.1-.4 0-.8.3-1.1l2.7-2.7h-3.1c-.5 0-.9-.3-1.1-.7L15 10l-1.3 2.9c-.2.4-.6.7-1.1.7h-3z"/><path d="M15 30C6.9 30 .4 23.4.4 15.3S6.9.7 15 .7s14.7 6.6 14.7 14.7S23.1 30 15 30zm0-27C8.2 3 2.7 8.5 2.7 15.3S8.2 27.7 15 27.7s12.4-5.5 12.4-12.4S21.8 3 15 3z"/></symbol><symbol id="partners-icon-status" viewBox="0 0 30 30"><path d="M28.8 0H1.3C.6 0 .1.5.1 1.3v27.5c0 .7.5 1.2 1.2 1.2h27.5c.7 0 1.2-.5 1.2-1.2V1.3c0-.8-.5-1.3-1.2-1.3zM2.5 27.5v-25h25v25h-25z"/><path d="M11.1 5.4L7.2 9.5l-1-1.1c-.5-.4-1.3-.4-1.7.1-.5.4-.5 1.2 0 1.7l2 2.1c.3.3.5.4.9.4.3 0 .6-.1.9-.4L13 7.2c.5-.5.5-1.2 0-1.7-.6-.6-1.4-.6-1.9-.1zM11.1 16.6l-3.9 4.1-1-1.1c-.5-.5-1.2-.5-1.7 0s-.5 1.2 0 1.7l2 2.1c.3.3.5.4.9.4.5 0 .7-.2.8-.4l4.8-5.1c.2-.2.4-.5.4-.9 0-.3-.1-.6-.4-.9-.6-.4-1.4-.4-1.9.1zM24.8 19.4h-9.1c-.7 0-1.2.5-1.2 1.2s.5 1.2 1.2 1.2h9.1c.6 0 1.2-.5 1.2-1.2s-.5-1.2-1.2-1.2zM24.8 8.2h-9.1c-.7 0-1.2.5-1.2 1.2s.5 1.2 1.2 1.2h9.1c.6 0 1.2-.5 1.2-1.2s-.5-1.2-1.2-1.2z"/></symbol><symbol id="partners-icon-sync" viewBox="0 0 30 30"><path d="M9.4 12.4c-.6-.4-1.3-.3-1.7.1L5.6 15c0-1.2.3-2.9 1.3-4.4 1.3-2.3 3.5-3.9 6-4.5 3.3-.8 6.7.3 8.9 2.9.2.2.4.4.7.4.3 0 .7-.1 1-.3.3-.3.5-.6.5-1 0-.3-.1-.6-.3-.9-2.9-3.1-7.2-4.5-11.3-3.5-3.2.8-5.9 2.8-7.5 5.6-.8 1.3-1.3 2.8-1.5 4.4l-1-1.4c-.2-.3-.4-.5-.7-.5-.3-.1-.7 0-1 .2-.3.2-.5.4-.5.7-.1.3 0 .7.2 1l3.4 5c.2.4.6.5 1 .5h.1c.2 0 .5-.1.7-.2h.1l.1-.1 3.8-4.8c.4-.6.2-1.3-.2-1.7zM29.7 17.4l-3.4-5c-.2-.4-.6-.5-1-.5-.3 0-.7 0-1 .4L20.5 17c-.4.6-.3 1.3.1 1.7.6.4 1.3.3 1.7-.1l1.7-2c-.7 3.4-3.5 6.4-6.9 7.2-3 .7-6.2-.1-8.5-2.4-.2-.2-.5-.3-.9-.3-.3 0-.7.1-.9.3s-.3.6-.3.9c0 .3.1.7.3.9 2.1 2.1 5 3.3 8 3.3.9 0 1.8-.1 2.6-.3 4.5-1 8-4.7 8.8-9.2l1.3 1.9c.2.3.6.5 1 .5.2 0 .4-.1.6-.2.4-.2.6-.5.7-.9.1-.2.1-.6-.1-.9z"/></symbol><symbol id="qa-contact-icon-chat" viewBox="0 0 100 100"><style>.st0{fill:#169fda}.st1{fill:#b3b3b3}</style><path class="st0" d="M44.1 82c-.3 0-.5-.1-.8-.2-.8-.3-1.3-1.1-1.3-1.9v-9.2h-6.7c-13.1 0-23.8-10.7-23.8-23.8v-1.2c.1-13 10.7-23.7 23.8-23.7h29.3c13.1 0 23.8 10.7 23.8 23.8V47c0 13.1-10.7 23.8-23.8 23.8h-8.5L45.6 81.4c-.4.4-1 .6-1.5.6zm-8.8-55.9c-10.8 0-19.6 8.8-19.6 19.6V47c0 10.8 8.8 19.6 19.6 19.6h8.8c1.1 0 2.1.9 2.1 2.1V75l7.7-7.7c.4-.4.9-.6 1.5-.6h9.3c10.8 0 19.6-8.8 19.6-19.6v-1.2c0-10.8-8.8-19.6-19.6-19.6H35.3z"/><circle class="st0" cx="33.7" cy="46.4" r="3.1"/><circle class="st0" cx="50" cy="46.4" r="3.1"/><circle class="st0" cx="66.3" cy="46.4" r="3.1"/></symbol><symbol id="qa-contact-icon-email" viewBox="0 0 100 100"><style>.st0{fill:#169fda}.st1{fill:#b3b3b3}</style><path class="st0" d="M81.3 77.5H18.7c-4.1 0-7.5-3.3-7.5-7.5V29.9c0-4.1 3.3-7.5 7.5-7.5h62.6c4.1 0 7.5 3.3 7.5 7.5V70c0 4.2-3.4 7.5-7.5 7.5zM18.7 26.6c-1.8 0-3.3 1.5-3.3 3.3V70c0 1.8 1.5 3.3 3.3 3.3h62.6c1.8 0 3.3-1.5 3.3-3.3V29.9c0-1.8-1.5-3.3-3.3-3.3H18.7z"/><path class="st0" d="M50 59c-.5 0-.9-.2-1.3-.5L22.9 37.4c-.9-.7-1-2-.3-2.9.7-.9 2-1 2.9-.3l24.4 20 24.4-20c.9-.7 2.2-.6 2.9.3.7.9.6 2.2-.3 2.9L51.3 58.5c-.4.3-.8.5-1.3.5z"/></symbol><symbol id="qa-contact-icon-phone" viewBox="0 0 100 100"><style>.st0{fill:#169fda}.st1{fill:#b3b3b3}</style><path class="st0" d="M27.8 79.1c-2 0-3.7-.8-4.7-2.1l-5.6-5.6c-1-.7-1.5-1.7-1.5-2.8 0-1.1.5-2.1 1.5-2.8l10.1-10.1c1.1-1.5 3.3-1.6 5-1l9.6 4.2C49.1 55 55 49.2 58.8 42.3l-4.1-9.5c-.6-1.7-.3-3.4.9-5.1l.3-.3L66.2 17c1.5-1.5 3.8-1.5 5.3 0l5.9 5.9.3.3c.9 1.3 1.4 3 1.4 4.6v2.4C76.6 56.5 56.6 76.5 30.5 79l-2.7.1zm-7.3-10.6l5.6 5.6.3.3c.2.3.8.5 1.4.5h2.4C54.1 72.6 72.6 54.1 74.9 30v-2.2c0-.6-.2-1.5-.6-2.2l-5.5-5.5-10 10c-.3.5-.4.9-.3 1.2l4.4 10.2c.2.6.2 1.2-.1 1.8-4.3 8.3-11.3 15.2-19.6 19.6-.5.3-1.2.3-1.8.1L31 58.5c-.1 0-.4 0-.5-.1l-10 10.1z" id="Layer_2_2_"/></symbol><symbol id="qa-contact-phone" viewBox="0 0 22 22"><g fill="none" fill-rule="evenodd"><mask id="qa-contact-phone-b" fill="#fff"><use xlink:href="#qa-contact-phone-a"/></mask><path d="M.283 17.947l3.778-3.778c.126-.252.63-.252 1.008-.126l2.015.88 1.763.757a16.1 16.1 0 0 0 6.801-6.801l-.756-1.763-.88-2.015c-.127-.378 0-.756.251-1.134L18.041.189a.609.609 0 0 1 .882 0l2.141 2.14c.251.379.377.883.377 1.26v.882c-.88 9.068-7.934 16.12-17.002 17.002h-.88c-.379 0-.883-.126-1.135-.503l-2.14-2.141c-.379-.252-.379-.63 0-.882" fill="#169FDA" mask="url(#qa-contact-phone-b)"/></g></symbol><symbol id="qa-question-icon" viewBox="0 0 41 45"><g class="qa-question-icon-fill" fill-rule="evenodd"><path d="M37.592 26.825c0 3.327-2.724 6.044-6.061 6.044-6.742 0-13.212 2.105-18.728 6.044l-2.18 1.562v-6.112a1.51 1.51 0 0 0-1.497-1.494c-3.337 0-6.061-2.717-6.061-6.044V9.1c0-3.328 2.724-6.044 6.06-6.044h22.406c3.337 0 6.06 2.716 6.06 6.044v17.725zM40.588 9.1c0-5.025-4.086-9.1-9.125-9.1H9.126C4.086 0 0 4.075 0 9.1v17.725c0 4.482 3.269 8.217 7.56 8.964v7.674c0 .543.34 1.086.816 1.358.205.136.477.136.681.136.34 0 .613-.068.886-.272l4.562-3.328a28.727 28.727 0 0 1 16.958-5.5c5.039 0 9.125-4.075 9.125-9.1V9.1z"/><path d="M20.294 9.575c-2.52 0-4.971 1.63-4.971 4.754a1.51 1.51 0 0 0 1.498 1.494 1.51 1.51 0 0 0 1.498-1.494c0-1.63 1.77-1.698 1.975-1.698.204 0 1.975.068 1.975 1.698v.34c0 .679-.34 1.222-.953 1.562l-1.362.747c-.75.407-1.158 1.154-1.158 1.969v1.222a1.51 1.51 0 0 0 1.498 1.494 1.51 1.51 0 0 0 1.498-1.494v-.747l.954-.475c1.566-.815 2.52-2.445 2.52-4.21v-.408c0-3.124-2.52-4.754-4.972-4.754M20.294 23.361c-2.452 0-2.452 3.803 0 3.803s2.452-3.803 0-3.803"/></g></symbol><symbol id="qa-search-close-icon" viewBox="0 0 17 15"><g stroke="currentColor" fill="none" fill-rule="evenodd" stroke-linecap="square"><path d="M15.571.822L1.43 14.964M15.571 14.964L1.43.822"/></g></symbol><symbol id="qa-search-icon" viewBox="0 0 29 29"><g transform="translate(1.535 1.421)" stroke-width="2" fill="none" fill-rule="evenodd"><ellipse cx="10.136" cy="10.184" rx="10.136" ry="10.184"/><path d="M17.175 17.257l8.573 8.613" stroke-linecap="square"/></g></symbol><symbol id="qa-topic-icon-billing" viewBox="0 0 100 100"><style>.st0{fill:#169fda}.st1{fill:#b3b3b3}</style><path class="st0" d="M49.8 81.4c-13.6 0-20.9-9.5-21.2-9.9-.7-.9-.5-2.2.4-2.9.9-.7 2.2-.5 2.9.4.3.4 6.4 8.3 17.8 8.3 4.2 0 17.7-.9 17.7-13 0-8.2-8.1-10.5-16.5-12.3l-1.5-.3c-5.7-1.2-19-4.1-19-16.6 0-10.1 7.5-16.6 19.1-16.6 11.3 0 18.2 6.7 18.5 7 .8.8.8 2.1 0 2.9-.8.8-2.1.8-2.9 0-.1-.1-6-5.8-15.6-5.8-9.3 0-15 4.8-15 12.4 0 8.1 7.6 10.8 15.7 12.6l1.5.3c6.9 1.4 19.8 4.1 19.8 16.3.2 10.5-8.4 17.2-21.7 17.2z"/><path class="st0" d="M49.7 86.7c-1.1 0-2.1-.9-2.1-2.1V15.4c0-1.1.9-2.1 2.1-2.1 1.1 0 2.1.9 2.1 2.1v69.3c-.1 1.1-1 2-2.1 2z"/></symbol><symbol id="qa-topic-icon-caregivers" viewBox="0 0 100 100"><style>.st0{fill:#169fda}</style><path class="st0" d="M50 89c-.5 0-.9-.1-1.3-.4-1.6-1.1-38.8-27.8-38.8-48.7 0-13.3 9.4-21.5 18.7-22.6 7.1-.8 16.4 2.3 21.4 13.3 5-11 14.3-14.1 21.5-13.3 9.3 1.1 18.7 9.2 18.7 22.6 0 20.9-37.2 47.6-38.8 48.7-.5.3-.9.4-1.4.4zM30.9 21.8c-.6 0-1.2 0-1.8.1-9.6 1.2-14.6 10-14.6 18 0 7.5 6.3 17.6 18.2 29.2 7.2 7 14.4 12.6 17.4 14.8 2.9-2.2 10.2-7.8 17.4-14.8 11.9-11.6 18.2-21.7 18.2-29.2 0-8.1-5-16.9-14.6-18-6.9-.8-15.4 3-18.7 16.3-.3 1-1.2 1.7-2.2 1.7-1.1 0-2-.7-2.2-1.7C44.8 26 37.4 21.8 30.9 21.8z"/></symbol><symbol id="qa-topic-icon-cx" viewBox="0 0 23 23"><path d="M16.5 7.4h-.8c-.2 0-.4.2-.4.4v2.3c0 .2.2.4.4.4h.4v.3c-.1.6-.6 1.2-1.1 1.2h-2v-.1c0-.2-.2-.4-.4-.4h-1.5c-.2 0-.4.2-.4.4s.2.4.4.4h1.1v.1c0 .2.2.4.4.4h2.3c.9 0 1.7-1 1.9-2v-.4c.7-.1 1.2-.7 1.2-1.4 0-.9-.7-1.6-1.5-1.6zm0 2.4h-.4V8.2h.4c.4 0 .7.3.7.8s-.3.8-.7.8zM18 10.5c.1.3.5 1.3 1.3 1.6-.5.7-1.2 1-2 .9-.2 0-.4.1-.5.3 0 .2.1.4.3.5h.5c1 0 2.1-.5 2.6-1.9.1-.1 0-.3 0-.4-.1-.1-.2-.2-.3-.2-.3 0-.8-.1-1.2-1.2-.1-.2-.3-.3-.5-.2-.2.1-.3.3-.2.6z"/><path d="M15.1 14.2c-.5-.2-1-.4-1.6-.7h-.1-.1-.1-.1c-.6.4-1.2.7-1.7.9-.7-.3-3.1-1.3-3.4-3.5 0-.2-.2-.3-.4-.3-.3 0-.5-.5-.5-.8.1-.3.2-.8.6-.8.2 0 .3-.1.4-.3l.3-1.3c2-.1 2.7-.6 3.1-1.2.4.6 1.2 1.2 3.4 1.2.2 0 .4-.2.4-.4s-.2-.4-.4-.4c-2.3 0-2.6-.7-2.9-1.1-.1-.1-.1-.3-.3-.4-.2-.2-.4-.2-.6 0 0 .2-.1.3-.1.5-.3.4-.7 1.1-2.9 1.1-.2 0-.4.1-.4.3l-.3 1.3c-.3 0-.5.2-.7.5-.2.2-.3.6-.3 1 0 .8.4 1.3.9 1.5v.1c0 .8-.8 1.4-1.6 1.5-.2.1-1.3.2-2-.9 1.2-.4 1.6-2.2 2-4 .4-1.9.9-4 2.2-4.6.8-.4 2-.2 3.4.5.1.1.2.1.4 0 1.4-.7 2.6-.9 3.4-.5 1.1.5 1.6 2 2 3.4 0 .2.2.3.4.2.2-.1.3-.3.3-.5-.4-1.6-1-3.3-2.4-3.9-1-.5-2.3-.3-3.9.5-1.6-.8-2.9-.9-3.9-.5-1.7.8-2.2 3.2-2.7 5.2-.4 1.8-.8 3.5-1.8 3.5-.1 0-.3.1-.3.2-.1.1-.1.3 0 .4.6 1.4 1.7 1.9 2.6 1.9.2 0 .4 0 .6-.1.8-.2 1.5-.6 1.9-1.2.3.5.6.9 1 1.3-.3.1-.7.3-1 .4-2.9 1.2-5.6 2.4-5.6 4.9v1.2c0 .2.2.4.4.4h17.6c.2 0 .4-.2.4-.4v-1.2c0-2.5-2.7-3.7-5.6-4.9zm-3.7 1h.2c.5-.2 1.1-.4 1.8-.9.2.1.5.2.7.3-.2 1.7-1.9 4.1-2.6 5-.7-.9-2.5-3.3-2.6-5 .2-.1.5-.2.7-.3.5.4 1.2.7 1.8.9zm-8.3 3.9c0-2 2.3-3 5-4.2.3 1.8 1.8 3.9 2.6 4.9H3.1v-.7zm16.8.8h-7.6c.8-1.1 2.3-3.2 2.6-4.9 2.7 1.1 5 2.1 5 4.2v.7z"/><path d="M11.1 9c0-.2-.1-.4-.2-.6-.2-.2-.6-.2-.9-.2h-.1c-.3 0-.6 0-.9.2-.1.2-.2.4-.2.6 0 .2.1.4.4.4.2 0 .4-.2.4-.4h.8c0 .2.2.4.4.4s.3-.2.3-.4zM12.8 9h.8c0 .2.2.4.4.4s.4-.2.4-.4-.1-.4-.2-.6c-.2-.2-.5-.2-.9-.2h-.2c-.3 0-.6 0-.9.2-.1.1-.2.3-.2.6 0 .2.2.4.4.4s.4-.2.4-.4z"/></symbol><symbol id="qa-topic-icon-medication" viewBox="0 0 100 100"><style>.st0{fill:#169fda}.st1{fill:#b3b3b3}</style><path class="st0" d="M32.9 86c-4.9 0-9.7-1.9-13.4-5.6C15.9 76.8 14 72.1 14 67s2-9.9 5.5-13.4l34.1-34.1c7.4-7.4 19.4-7.4 26.9 0 3.6 3.6 5.5 8.3 5.5 13.4s-2 9.9-5.5 13.4L46.4 80.5c-3.7 3.7-8.6 5.5-13.5 5.5zm34.2-67.9c-3.8 0-7.6 1.4-10.5 4.3L22.4 56.6c-2.8 2.8-4.3 6.5-4.3 10.5s1.5 7.7 4.3 10.5c5.8 5.8 15.2 5.8 21 0l34.1-34.1c2.8-2.8 4.3-6.5 4.3-10.5s-1.5-7.7-4.3-10.5c-2.8-3-6.6-4.4-10.4-4.4z"/><path class="st0" d="M61.5 63.6c-.5 0-1.1-.2-1.5-.6L37 40c-.8-.8-.8-2.1 0-2.9s2.1-.8 2.9 0l23 23c.8.8.8 2.1 0 2.9-.3.4-.9.6-1.4.6z"/></symbol><symbol id="qa-topic-icon-quality" viewBox="0 0 100 100"><style>.st0{fill:#169fda}.st1{fill:#b3b3b3}</style><path class="st0" d="M81.1 83.2H18.9c-1.1 0-2.1-.9-2.1-2.1V18.9c0-1.1.9-2.1 2.1-2.1h62.2c1.1 0 2.1.9 2.1 2.1v62.2c0 1.1-1 2.1-2.1 2.1zM21 79h58V21H21v58z"/><path class="st0" d="M43.7 67.6c-.6 0-1.2-.3-1.6-.8L31.6 53.6c-.7-.9-.6-2.2.3-2.9.9-.7 2.2-.6 2.9.3l8.9 11.1 21.5-28.9c.7-.9 2-1.1 2.9-.4.9.7 1.1 2 .4 2.9l-23.1 31c-.4.6-1 .9-1.7.9.1 0 0 0 0 0z"/></symbol><symbol id="qa-topic-icon-refill" viewBox="0 0 100 100"><style>.st0{fill:#169fda}.st1{fill:#b3b3b3}</style><path class="st0" d="M41.6 68.3c-2.7 0-5.1-1-7-2.9-1.9-1.9-2.9-4.4-2.9-7 0-2.7 1-5.1 2.9-7l15.8-15.8c3.7-3.7 10.3-3.7 14 0 3.9 3.9 3.9 10.2 0 14L48.6 65.4c-1.9 1.9-4.4 2.9-7 2.9zm15.8-31.5c-1.6 0-3 .6-4.1 1.7L37.5 54.3c-1.1 1.1-1.7 2.5-1.7 4.1s.6 3 1.7 4.1c2.2 2.2 6 2.2 8.2 0l15.8-15.8c2.3-2.3 2.3-5.9 0-8.2-1.1-1.1-2.5-1.7-4.1-1.7z"/><path class="st0" d="M54.8 57.9c-.5 0-1.1-.2-1.5-.6L42.7 46.6c-.8-.8-.8-2.1 0-2.9s2.1-.8 2.9 0l10.7 10.7c.8.8.8 2.1 0 2.9-.4.4-.9.6-1.5.6zM84.9 86.1H69.5c-1.1 0-2.1-.9-2.1-2.1V68.6c0-1.1.9-2.1 2.1-2.1s2.1.9 2.1 2.1V82H85c1.1 0 2.1.9 2.1 2.1s-1 2-2.2 2z"/><path class="st0" d="M70.1 84.6c-.7 0-1.3-.3-1.7-.9-.6-1-.3-2.2.6-2.8 10.2-6.5 16.2-17.6 16.2-29.6C85.2 31.8 69.4 16 50 16S14.8 31.8 14.8 51.2c0 12 6.1 23.1 16.2 29.6 1 .6 1.2 1.9.6 2.8-.6 1-1.9 1.2-2.9.6-11.3-7.2-18-19.5-18-33 0-21.7 17.6-39.3 39.3-39.3s39.3 17.6 39.3 39.3c0 13.4-6.8 25.8-18.1 33.1-.3.2-.7.3-1.1.3z"/></symbol><symbol id="qa-topic-icon-security" viewBox="0 0 100 100"><style>.st0{fill:#169fda}.st1{fill:#b3b3b3}</style><path class="st0" d="M63.5 39.1c-1.1 0-2.1-.9-2.1-2.1v-9c0-6.3-5.1-11.5-11.5-11.5-6.3 0-11.5 5.1-11.5 11.5v9c0 1.1-.9 2.1-2.1 2.1s-2.1-.9-2.1-2.1v-9c0-8.6 7-15.6 15.6-15.6s15.6 7 15.6 15.6v9c.2 1.2-.7 2.1-1.9 2.1z"/><path class="st0" d="M75.7 83.6H24.3c-1.1 0-2.1-.9-2.1-2.1v-44c0-1.1.9-2.1 2.1-2.1h51.4c1.1 0 2.1.9 2.1 2.1v44c-.1 1.1-1 2.1-2.1 2.1zm-49.3-4.2h47.2V39.6H26.4v39.8z"/><path class="st0" d="M55 54.9c0 2.7-2.2 5-5 5-2.7 0-5-2.2-5-5 0-2.7 2.2-5 5-5 2.7 0 5 2.2 5 5z"/><path class="st0" d="M50.8 55.4h-1.6l-2.3 14.4h6.2z"/></symbol><symbol id="qa-topic-icon-shipping" viewBox="0 0 100 100"><style>.st0{fill:#169fda}.st1{fill:#b3b3b3}</style><path class="st0" d="M50 86.2c-.3 0-.7-.1-1-.2L17 69c-.6-.3-1-1-1-1.8V32.8c0-.8.4-1.5 1.1-1.8L49 14c.6-.3 1.3-.3 1.9 0l32 16.9c.7.4 1.1 1.1 1.1 1.8v34.4c0 .8-.4 1.5-1.1 1.8L51 86c-.3.1-.7.2-1 .2zM20.1 66L50 81.8 79.9 66V34L50 18.2 20.1 34v32z"/><path class="st0" d="M50 52c-.7 0-1.4-.4-1.8-1.1-.5-1-.2-2.3.8-2.8L81 31c1-.5 2.3-.2 2.8.8s.2 2.3-.8 2.8L51 51.8c-.3.1-.7.2-1 .2z"/><path class="st0" d="M50 52c-.3 0-.7-.1-1-.2L17 34.7c-1-.5-1.4-1.8-.8-2.8.5-1 1.8-1.4 2.8-.8l32 17.1c1 .5 1.4 1.8.8 2.8-.4.6-1.1 1-1.8 1z"/><path class="st0" d="M50 86.2c-1.1 0-2.1-.9-2.1-2.1V49.9c0-1.1.9-2.1 2.1-2.1s2.1.9 2.1 2.1v34.2c0 1.2-1 2.1-2.1 2.1zM34 43.4c-.7 0-1.5-.4-1.8-1.1-.5-1-.1-2.3.9-2.8l31.5-16.7c1-.5 2.3-.1 2.8.9s.1 2.3-.9 2.8L35 43.2c-.3.2-.7.2-1 .2z"/></symbol><symbol id="qa-topic-icon-signup" viewBox="-345 455 100 100"><style>.st0{fill:#169fda}</style><path class="st0" d="M-261.5 484.8l-11.1-11.1c-1.2-1.2-2.7-1.8-4.4-1.8-1.7 0-3.2.6-4.4 1.8l-7.6 7.6-31.2 31.2-.3.3s0 .1-.1.1c0 .1-.1.2-.1.2-.1.1-.1.3-.1.4l-3.9 20.9c-.1.7.1 1.3.6 1.8.4.4.9.6 1.4.6h.4l20.9-3.9c.1 0 .3-.1.4-.1.1 0 .2-.1.2-.1s.1 0 .1-.1l.3-.3 31.2-31.2 7.6-7.6c2.5-2.3 2.5-6.3.1-8.7zm-58.5 46.9l.5.5-.6.1.1-.6zm5.4-.4l-4.5-4.5 1.6-8.6 11.5 11.5-8.6 1.6zm12.8-3.2l-14.1-14.1 28.3-28.3 14.1 14.1-28.3 28.3zm37.4-37.4l-6.2 6.2-14.1-14.1 6.2-6.2c.8-.8 2.2-.8 2.9 0l11.1 11.1c.9.8.9 2.2.1 3z"/></symbol><symbol id="renew_icon" viewBox="0 0 25 30"><g stroke-width="2" stroke="#169FDA" fill="none" fill-rule="evenodd" stroke-linecap="round" stroke-linejoin="round"><path d="M24.125 13.126h-10V.626h6.25l3.75 3.75z"/><path d="M19 .626v5.125h5.125M24.125 29.376h-10v-12.5h6.25l3.75 3.75z"/><path d="M19.001 16.876V22h5.124M1 .626v1.25M1 8v1.25M1 4v1.25h1.25M1 12v1.25M1 16v1.25M1 20v1.25M1 24v1.25h1.25M5 5h1.25M9 5h1.25M13 5h1M5 25h1.25M9 25h1.25M13 25h1"/></g></symbol><symbol id="safari-pinned-tab" viewBox="0 0 32 32"><path d="M27.283 32H4.716c-3.483 0-4.717-2.83-4.717-4.717V4.716c0-3.483 2.83-4.717 4.717-4.717h22.567C30.766-.001 32 2.829 32 4.716v22.567C32 30.766 29.17 32 27.283 32zM4.716 3.846c-.943 0-.943.58-.943.943v22.567c0 .943.58.943.943.943H27.21c.943-.073.943-.58.943-.943V4.789c0-.943-.58-.943-.943-.943H4.716z"/></symbol><symbol id="section-downArrow" viewBox="0 0 42 18"><path fill="#FFF" d="M40.403.583L20.66 15.29h1.195L1.597.198.403 1.802 20.66 16.894l.597.445.598-.445L41.597 2.186z" fill-rule="evenodd"/></symbol><symbol id="support_icon" viewBox="0 0 33 30"><g stroke-width="2" stroke="#169FDA" fill="none" fill-rule="evenodd" stroke-linejoin="round"><path d="M32.045 22.154c0 1.148-.915 2.078-2.045 2.078H2.727c-1.129 0-2.045-.93-2.045-2.078V2.76c0-1.148.916-2.078 2.045-2.078H30c1.13 0 2.045.93 2.045 2.078v19.394zM6.818 28H25.91M16 25.227v2.728" stroke-linecap="round"/><path d="M.682 19h31.363"/><path d="M12.955 6.136a2.046 2.046 0 1 1-4.093-.001 2.046 2.046 0 0 1 4.093.001zM23.864 12.955a2.046 2.046 0 1 1-4.093-.002 2.046 2.046 0 0 1 4.093.002zM6.136 6h2.728M12.955 6H26.59M19.773 12H6.136M23.864 12h2.727" stroke-linecap="round"/></g></symbol><symbol id="synchronize_icon" viewBox="0 0 30 30"><g stroke="#169FDA" stroke-width="2" fill="none" fill-rule="evenodd" stroke-linecap="round" stroke-linejoin="round"><path d="M1.159 12.999l3.483 5.188 4.006-4.798M29.375 18.375l-3.483-5.188-4.007 4.798"/><path d="M25.846 13.233c1.043 5.51-2.841 10.912-8.136 12.162a10.624 10.624 0 0 1-9.914-2.78M4.648 18.157c-1.64-6.104 2.463-12.094 8.173-13.442a10.616 10.616 0 0 1 10.405 3.302"/></g></symbol><symbol id="lp-down-arrow" viewBox="0 0 18 8"><path d="M16.739.873L8.92 6.739 1.127.892" stroke-width="2" fill="none" fill-rule="evenodd"/></symbol><symbol id="plyr-captions-off" viewBox="0 0 18 18"><path d="M1 1c-.6 0-1 .4-1 1v11c0 .6.4 1 1 1h4.6l2.7 2.7c.2.2.4.3.7.3.3 0 .5-.1.7-.3l2.7-2.7H17c.6 0 1-.4 1-1V2c0-.6-.4-1-1-1H1zm4.52 10.15c1.99 0 3.01-1.32 3.28-2.41l-1.29-.39c-.19.66-.78 1.45-1.99 1.45-1.14 0-2.2-.83-2.2-2.34 0-1.61 1.12-2.37 2.18-2.37 1.23 0 1.78.75 1.95 1.43l1.3-.41C8.47 4.96 7.46 3.76 5.5 3.76c-1.9 0-3.61 1.44-3.61 3.7 0 2.26 1.65 3.69 3.63 3.69zm7.57 0c1.99 0 3.01-1.32 3.28-2.41l-1.29-.39c-.19.66-.78 1.45-1.99 1.45-1.14 0-2.2-.83-2.2-2.34 0-1.61 1.12-2.37 2.18-2.37 1.23 0 1.78.75 1.95 1.43l1.3-.41c-.28-1.15-1.29-2.35-3.25-2.35-1.9 0-3.61 1.44-3.61 3.7 0 2.26 1.65 3.69 3.63 3.69z" fill-rule="evenodd" fill-opacity=".5"/></symbol><symbol id="plyr-captions-on" viewBox="0 0 18 18"><path d="M1 1c-.6 0-1 .4-1 1v11c0 .6.4 1 1 1h4.6l2.7 2.7c.2.2.4.3.7.3.3 0 .5-.1.7-.3l2.7-2.7H17c.6 0 1-.4 1-1V2c0-.6-.4-1-1-1H1zm4.52 10.15c1.99 0 3.01-1.32 3.28-2.41l-1.29-.39c-.19.66-.78 1.45-1.99 1.45-1.14 0-2.2-.83-2.2-2.34 0-1.61 1.12-2.37 2.18-2.37 1.23 0 1.78.75 1.95 1.43l1.3-.41C8.47 4.96 7.46 3.76 5.5 3.76c-1.9 0-3.61 1.44-3.61 3.7 0 2.26 1.65 3.69 3.63 3.69zm7.57 0c1.99 0 3.01-1.32 3.28-2.41l-1.29-.39c-.19.66-.78 1.45-1.99 1.45-1.14 0-2.2-.83-2.2-2.34 0-1.61 1.12-2.37 2.18-2.37 1.23 0 1.78.75 1.95 1.43l1.3-.41c-.28-1.15-1.29-2.35-3.25-2.35-1.9 0-3.61 1.44-3.61 3.7 0 2.26 1.65 3.69 3.63 3.69z" fill-rule="evenodd"/></symbol><symbol id="plyr-enter-fullscreen" viewBox="0 0 18 18"><path d="M10 3h3.6l-4 4L11 8.4l4-4V8h2V1h-7zM7 9.6l-4 4V10H1v7h7v-2H4.4l4-4z"/></symbol><symbol id="plyr-exit-fullscreen" viewBox="0 0 18 18"><path d="M1 12h3.6l-4 4L2 17.4l4-4V17h2v-7H1zM16 .6l-4 4V1h-2v7h7V6h-3.6l4-4z"/></symbol><symbol id="plyr-fast-forward" viewBox="0 0 18 18"><path d="M7.875 7.171L0 1v16l7.875-6.171V17L18 9 7.875 1z"/></symbol><symbol id="plyr-muted" viewBox="0 0 18 18"><path d="M12.4 12.5l2.1-2.1 2.1 2.1 1.4-1.4L15.9 9 18 6.9l-1.4-1.4-2.1 2.1-2.1-2.1L11 6.9 13.1 9 11 11.1zM3.786 6.008H.714C.286 6.008 0 6.31 0 6.76v4.512c0 .452.286.752.714.752h3.072l4.071 3.858c.5.3 1.143 0 1.143-.602V2.752c0-.601-.643-.977-1.143-.601L3.786 6.008z"/></symbol><symbol id="plyr-pause" viewBox="0 0 18 18"><path d="M6 1H3c-.6 0-1 .4-1 1v14c0 .6.4 1 1 1h3c.6 0 1-.4 1-1V2c0-.6-.4-1-1-1zM12 1c-.6 0-1 .4-1 1v14c0 .6.4 1 1 1h3c.6 0 1-.4 1-1V2c0-.6-.4-1-1-1h-3z"/></symbol><symbol id="plyr-play" viewBox="0 0 18 18"><path d="M15.562 8.1L3.87.225C3.052-.337 2 .225 2 1.125v15.75c0 .9 1.052 1.462 1.87.9L15.563 9.9c.584-.45.584-1.35 0-1.8z"/></symbol><symbol id="plyr-restart" viewBox="0 0 18 18"><path d="M9.7 1.2l.7 6.4 2.1-2.1c1.9 1.9 1.9 5.1 0 7-.9 1-2.2 1.5-3.5 1.5-1.3 0-2.6-.5-3.5-1.5-1.9-1.9-1.9-5.1 0-7 .6-.6 1.4-1.1 2.3-1.3l-.6-1.9C6 2.6 4.9 3.2 4 4.1 1.3 6.8 1.3 11.2 4 14c1.3 1.3 3.1 2 4.9 2 1.9 0 3.6-.7 4.9-2 2.7-2.7 2.7-7.1 0-9.9L16 1.9l-6.3-.7z"/></symbol><symbol id="plyr-rewind" viewBox="0 0 18 18"><path d="M10.125 1L0 9l10.125 8v-6.171L18 17V1l-7.875 6.171z"/></symbol><symbol id="plyr-volume" viewBox="0 0 18 18"><path d="M15.6 3.3c-.4-.4-1-.4-1.4 0-.4.4-.4 1 0 1.4C15.4 5.9 16 7.4 16 9c0 1.6-.6 3.1-1.8 4.3-.4.4-.4 1 0 1.4.2.2.5.3.7.3.3 0 .5-.1.7-.3C17.1 13.2 18 11.2 18 9s-.9-4.2-2.4-5.7z"/><path d="M11.282 5.282a.909.909 0 0 0 0 1.316c.735.735.995 1.458.995 2.402 0 .936-.425 1.917-.995 2.487a.909.909 0 0 0 0 1.316c.145.145.636.262 1.018.156a.725.725 0 0 0 .298-.156C13.773 11.733 14.13 10.16 14.13 9c0-.17-.002-.34-.011-.51-.053-.992-.319-2.005-1.522-3.208a.909.909 0 0 0-1.316 0zM3.786 6.008H.714C.286 6.008 0 6.31 0 6.76v4.512c0 .452.286.752.714.752h3.072l4.071 3.858c.5.3 1.143 0 1.143-.602V2.752c0-.601-.643-.977-1.143-.601L3.786 6.008z"/></symbol></svg>