<svg class="tw-svg__asset tw-svg__asset--logoprimegaming tw-svg__asset--inherit" width="145px" height="38.8px" version="1.1" viewBox="0 0 145 38.8" x="0px" y="0px"><g><path d="M.956 22.77c-.208 0-.36-.042-.45-.132-.098-.09-.147-.243-.147-.465V6.272c0-.222.049-.375.146-.465.097-.09.25-.132.451-.132H2.67c.367 0 .59.174.666.527l.166.618A5.367 5.367 0 015.23 5.724a5.474 5.474 0 012.06-.403c1.54 0 2.761.562 3.663 1.693.902 1.131 1.346 2.657 1.346 4.58 0 1.317-.222 2.469-.666 3.454-.444.985-1.047 1.741-1.81 2.276-.764.534-1.638.798-2.623.798-.652 0-1.27-.105-1.86-.313-.589-.208-1.089-.492-1.498-.86v5.224c0 .222-.041.375-.132.465-.09.09-.242.132-.464.132H.956zm5.224-7.271c.888 0 1.547-.305 1.97-.909.424-.603.632-1.56.632-2.858 0-1.318-.208-2.283-.618-2.886-.416-.604-1.075-.91-1.977-.91-.825 0-1.603.216-2.338.646v6.272c.694.43 1.47.645 2.331.645zM15.234 17.858c-.208 0-.36-.049-.45-.146-.091-.097-.147-.243-.147-.45V6.271c0-.222.049-.375.146-.465.097-.09.243-.132.451-.132h1.72c.368 0 .59.174.667.527l.312 1.29c.638-.7 1.235-1.192 1.804-1.49a3.876 3.876 0 011.803-.445h.333c.223 0 .382.042.48.132.096.09.145.243.145.465v2.005c0 .208-.042.354-.132.45-.09.098-.243.147-.465.147-.11 0-.256-.007-.43-.028a8.656 8.656 0 00-.666-.021c-.368 0-.812.055-1.332.153a6.378 6.378 0 00-1.332.395v8.006c0 .208-.042.354-.132.451-.09.097-.243.146-.465.146h-2.31zM25.911 3.788c-.603 0-1.089-.166-1.457-.5-.367-.332-.548-.783-.548-1.36 0-.575.18-1.026.548-1.36.368-.332.847-.499 1.457-.499.604 0 1.09.167 1.457.5.368.333.548.784.548 1.36 0 .576-.18 1.027-.548 1.36-.367.333-.853.499-1.457.499zm-1.144 14.07c-.209 0-.354-.049-.451-.146-.098-.097-.146-.243-.146-.45V6.271c0-.222.048-.375.146-.465.097-.09.242-.132.45-.132h2.29c.222 0 .375.042.465.132.09.09.132.243.132.465v10.99c0 .207-.042.353-.132.45-.09.097-.243.146-.465.146h-2.29zM31.198 17.858c-.208 0-.36-.049-.451-.146-.097-.097-.146-.243-.146-.45V6.271c0-.222.049-.375.146-.465.097-.09.243-.132.45-.132h1.715c.367 0 .59.174.666.527l.194.646c.84-.555 1.602-.95 2.275-1.18a6.464 6.464 0 012.089-.347c1.429 0 2.442.507 3.025 1.527.811-.542 1.574-.93 2.289-1.166a7.053 7.053 0 012.22-.36c1.11 0 1.977.311 2.588.929.61.617.916 1.485.916 2.602v8.408c0 .208-.042.354-.132.451-.09.097-.243.146-.465.146h-2.29c-.208 0-.36-.049-.45-.146-.097-.097-.146-.243-.146-.45V9.608c0-1.082-.486-1.624-1.457-1.624-.86 0-1.727.209-2.602.618v8.658c0 .208-.041.354-.131.451-.09.097-.243.146-.465.146h-2.29c-.208 0-.36-.049-.45-.146-.09-.097-.146-.243-.146-.45V9.608c0-1.082-.486-1.624-1.457-1.624-.888 0-1.763.215-2.623.646v8.63c0 .208-.041.354-.132.451-.09.097-.242.146-.465.146h-2.275zM57.45 18.212c-1.97 0-3.482-.541-4.544-1.624-1.054-1.082-1.582-2.63-1.582-4.648 0-2.068.542-3.691 1.624-4.863 1.082-1.173 2.58-1.763 4.51-1.763 1.477 0 2.636.361 3.468 1.076.833.714 1.25 1.672 1.25 2.858 0 1.193-.452 2.095-1.347 2.706-.902.61-2.22.916-3.968.916-.909 0-1.693-.09-2.359-.264.097 1.068.416 1.832.964 2.29.548.457 1.38.693 2.491.693.444 0 .881-.028 1.297-.083.424-.056 1.006-.18 1.756-.368.048-.014.097-.027.145-.034.049-.007.09-.014.118-.014.27 0 .403.18.403.548v1.096c0 .257-.035.43-.104.534-.07.104-.209.194-.417.278-1.172.444-2.4.666-3.704.666zm-.79-7.486c.811 0 1.401-.125 1.762-.368.36-.243.548-.624.548-1.13 0-1-.597-1.5-1.79-1.5-1.526 0-2.407.937-2.65 2.817.645.118 1.353.18 2.13.18zM56.202 31.255c-6.8 5.016-16.658 7.687-25.143 7.687-11.898 0-22.61-4.399-30.713-11.718-.639-.576-.07-1.36.693-.916C9.788 31.4 20.604 34.46 31.774 34.46c7.534 0 15.818-1.561 23.443-4.8 1.144-.487 2.109.762.985 1.595z"></path><path d="M59.032 28.022c-.867-1.11-5.751-.528-7.943-.264-.666.083-.764-.5-.167-.923 3.892-2.733 10.268-1.942 11.01-1.026.75.922-.194 7.319-3.843 10.365-.562.471-1.096.222-.847-.403.82-2.046 2.658-6.632 1.79-7.75zM73.81 23.075a9.394 9.394 0 01-3.677-.721c-.194-.077-.32-.167-.382-.264s-.097-.25-.097-.458v-.694c0-.291.097-.43.292-.43.097 0 .215.028.346.07.14.048.326.104.562.166.992.27 1.915.41 2.762.41 1.283 0 2.22-.306 2.81-.923.59-.618.887-1.603.887-2.97V16.18a6.242 6.242 0 01-1.755 1.068 5.062 5.062 0 01-1.894.375c-1.027 0-1.915-.257-2.664-.77-.75-.513-1.332-1.221-1.727-2.137-.403-.909-.604-1.963-.604-3.143 0-1.922.458-3.448 1.367-4.572.915-1.13 2.137-1.693 3.677-1.693 1.443 0 2.699.5 3.767 1.492l.118-.673c.035-.173.09-.298.18-.36a.65.65 0 01.375-.098h1.034c.319 0 .478.16.478.479v10.948c0 1.908-.506 3.378-1.526 4.42-1.013 1.04-2.456 1.56-4.33 1.56zm.555-7.375c.992 0 1.977-.367 2.955-1.103V8.284a5.11 5.11 0 00-1.463-.805c-.5-.167-1.041-.25-1.63-.25-2.082 0-3.123 1.415-3.123 4.253 0 1.395.278 2.442.826 3.157.548.707 1.36 1.061 2.435 1.061zM85.646 18.15c-1.138 0-2.047-.327-2.727-.972-.68-.645-1.02-1.52-1.02-2.609 0-1.165.417-2.102 1.25-2.796.832-.693 1.956-1.047 3.364-1.047.895 0 1.9.139 3.025.41V9.552c0-.867-.194-1.47-.59-1.824-.395-.354-1.061-.528-2.005-.528-1.103 0-2.185.16-3.24.48-.368.11-.603.166-.694.166-.194 0-.291-.146-.291-.43v-.653c0-.208.035-.36.097-.458.063-.097.194-.18.382-.263.5-.222 1.124-.403 1.887-.541a12.536 12.536 0 012.268-.202c1.52 0 2.644.32 3.365.951.722.631 1.083 1.596 1.083 2.893v8.214c0 .32-.16.48-.48.48h-1.033c-.305 0-.479-.154-.527-.459l-.118-.79a6.49 6.49 0 01-1.908 1.151 5.7 5.7 0 01-2.088.41zm.576-1.798c.527 0 1.082-.104 1.658-.312a6.386 6.386 0 001.658-.909v-2.449a10.874 10.874 0 00-2.546-.312c-1.811 0-2.713.694-2.713 2.088 0 .61.167 1.076.506 1.402.327.326.812.492 1.437.492zM95.248 17.837c-.32 0-.48-.16-.48-.479V6.147c0-.32.16-.479.48-.479h1.054a.65.65 0 01.375.097c.09.063.146.18.18.361l.146.77c1.54-1.054 3.032-1.582 4.489-1.582 1.491 0 2.497.57 3.025 1.707 1.581-1.138 3.17-1.707 4.752-1.707 1.103 0 1.956.313 2.546.937.59.624.888 1.512.888 2.664v8.45c0 .32-.16.479-.479.479h-1.415c-.319 0-.479-.16-.479-.479V9.581c0-.798-.152-1.394-.457-1.776-.306-.382-.784-.576-1.444-.576-1.165 0-2.345.361-3.53 1.082.013.111.02.236.02.361v8.693c0 .32-.16.479-.479.479h-1.415c-.32 0-.479-.16-.479-.479V9.581c0-.798-.152-1.394-.458-1.776-.305-.382-.784-.576-1.443-.576-1.214 0-2.386.354-3.503 1.055v9.074c0 .32-.16.48-.479.48h-1.415zM116.9 3.504c-.464 0-.825-.132-1.096-.396-.263-.264-.395-.61-.395-1.047 0-.43.132-.778.395-1.048.264-.264.632-.396 1.097-.396.464 0 .825.132 1.096.396.263.264.395.61.395 1.048 0 .43-.132.777-.395 1.047-.27.264-.639.396-1.096.396zm-.721 14.333c-.32 0-.479-.16-.479-.479V6.147c0-.32.16-.479.479-.479h1.415c.32 0 .479.16.479.479v11.211c0 .32-.16.48-.479.48h-1.415zM121.584 17.837c-.32 0-.48-.16-.48-.479V6.147c0-.32.16-.479.48-.479h1.054a.65.65 0 01.375.097c.09.063.145.18.18.361l.146.888c1.52-1.138 3.122-1.707 4.8-1.707 1.166 0 2.061.306 2.665.923.61.618.916 1.513.916 2.678v8.45c0 .32-.16.48-.479.48h-1.415c-.32 0-.48-.16-.48-.48V9.7c0-.846-.173-1.47-.512-1.873-.347-.403-.888-.597-1.624-.597-1.263 0-2.504.41-3.726 1.221v8.908c0 .32-.16.48-.478.48h-1.422zM139.212 23.075a9.394 9.394 0 01-3.677-.721c-.194-.077-.319-.167-.381-.264-.063-.097-.097-.25-.097-.458v-.694c0-.291.097-.43.291-.43.097 0 .215.028.347.07.139.048.326.104.562.166.992.27 1.915.41 2.761.41 1.284 0 2.22-.306 2.81-.923.59-.618.888-1.603.888-2.97V16.18a6.34 6.34 0 01-1.755 1.068 5.07 5.07 0 01-1.901.375c-1.027 0-1.915-.257-2.664-.77-.756-.513-1.332-1.221-1.728-2.137-.402-.909-.596-1.963-.596-3.143 0-1.922.457-3.448 1.366-4.572.91-1.13 2.137-1.693 3.677-1.693 1.443 0 2.7.5 3.768 1.492l.118-.673c.034-.173.09-.298.18-.36a.65.65 0 01.375-.098h1.033c.32 0 .479.16.479.479v10.948c0 1.908-.506 3.378-1.526 4.42-1.013 1.04-2.456 1.56-4.33 1.56zm.556-7.375c.992 0 1.977-.367 2.955-1.103V8.284a5.11 5.11 0 00-1.464-.805c-.5-.167-1.04-.25-1.63-.25-2.082 0-3.122 1.415-3.122 4.253 0 1.395.277 2.442.825 3.157.548.707 1.36 1.061 2.436 1.061z"></path></g></svg>
