<?xml version="1.0" encoding="UTF-8" standalone="no"?>
<!-- Created with Inkscape (http://www.inkscape.org/) -->

<svg
   xmlns:dc="http://purl.org/dc/elements/1.1/"
   xmlns:cc="http://creativecommons.org/ns#"
   xmlns:rdf="http://www.w3.org/1999/02/22-rdf-syntax-ns#"
   xmlns:svg="http://www.w3.org/2000/svg"
   xmlns="http://www.w3.org/2000/svg"
   xmlns:sodipodi="http://sodipodi.sourceforge.net/DTD/sodipodi-0.dtd"
   xmlns:inkscape="http://www.inkscape.org/namespaces/inkscape"
   width="194.86055"
   height="122.00056"
   viewBox="0 0 51.556853 32.279315"
   version="1.1"
   id="svg56"
   inkscape:version="0.92.3 (2405546, 2018-03-11)"
   sodipodi:docname="Ring_logo.svg">
  <defs
     id="defs50">
    <style
       id="style58">
      .cls-1 {
        fill: #1c9ad6;
      }

      .cls-2 {
        fill: #535556;
      }
    </style>
  </defs>
  <sodipodi:namedview
     id="base"
     pagecolor="#ffffff"
     bordercolor="#666666"
     borderopacity="1.0"
     inkscape:pageopacity="0.0"
     inkscape:pageshadow="2"
     inkscape:zoom="4.1157572"
     inkscape:cx="44.556545"
     inkscape:cy="59.63582"
     inkscape:document-units="mm"
     inkscape:current-layer="layer1"
     showgrid="false"
     fit-margin-top="0"
     fit-margin-left="0"
     fit-margin-right="0"
     fit-margin-bottom="0"
     units="px"
     inkscape:window-width="1920"
     inkscape:window-height="1046"
     inkscape:window-x="0"
     inkscape:window-y="34"
     inkscape:window-maximized="1" />
  <metadata
     id="metadata53">
    <rdf:RDF>
      <cc:Work
         rdf:about="">
        <dc:format>image/svg+xml</dc:format>
        <dc:type
           rdf:resource="http://purl.org/dc/dcmitype/StillImage" />
        <dc:title></dc:title>
      </cc:Work>
    </rdf:RDF>
  </metadata>
  <g
     inkscape:label="Layer 1"
     inkscape:groupmode="layer"
     id="layer1"
     transform="translate(-258.72422,-281.35171)">
    <path
       style="fill:#ffffff;stroke-width:0.99999994;fill-opacity:1;stroke:none"
       d="M 57.150391,1 A 6.7099999,6.7099999 0 0 0 50.439453,7.7109375 6.7099999,6.7099999 0 0 0 57.150391,14.419922 6.7099999,6.7099999 0 0 0 63.859375,7.7109375 6.7099999,6.7099999 0 0 0 57.150391,1 Z m -33.25,22.910156 A 22.43,22.43 0 0 0 13.900391,26 20.67,20.67 0 0 0 6.7695312,31.730469 24.63,24.63 0 0 0 2.4492188,40.099609 35.419999,35.419999 0 0 0 1.0097656,50.369141 V 92.939453 A 3.5199999,3.5199999 0 0 0 2.25,95.890625 a 4.26,4.26 0 0 0 2.6796875,1 4.26,4.26 0 0 0 2.6796875,-1 3.5299999,3.5299999 0 0 0 1.2402344,-2.951172 V 50.369141 c 0.00668,-5.93333 1.3399936,-10.511598 3.9999996,-13.738282 2.659981,-3.226658 6.347199,-4.839843 11.060547,-4.839843 a 15.43,15.43 0 0 1 10.070313,3.5 0.99999999,0.99999999 0 0 0 0.269531,0.199218 1.21,1.21 0 0 1 0.259766,0.199219 l 0.128906,0.130859 a 4.08,4.08 0 0 0 2.75,1.179688 3.9200001,3.9200001 0 0 0 2.880859,-1.150391 3.7599999,3.7599999 0 0 0 1.179688,-2.75 3.8900001,3.8900001 0 0 0 -1.320313,-2.779297 20.89,20.89 0 0 0 -7.589844,-4.710937 24.999999,24.999999 0 0 0 -8.638671,-1.699219 z m 79.582029,0.01367 a 25.569999,25.569999 0 0 0 -9.953123,2.03711 26,26 0 0 0 -8,5.429687 25.68,25.68 0 0 0 -5.429688,8.119141 24.83,24.83 0 0 0 -2,9.951172 v 43.478515 a 3.5199999,3.5199999 0 0 0 1.240235,2.951172 4.1499999,4.1499999 0 0 0 5.36914,0 3.5199999,3.5199999 0 0 0 1.240235,-2.951172 V 49.460938 a 17.27,17.27 0 0 1 1.371093,-6.871094 17.78,17.78 0 0 1 9.419922,-9.419922 17.87,17.87 0 0 1 13.740236,0 17.77,17.77 0 0 1 9.41992,9.419922 17.2,17.2 0 0 1 1.37891,6.871094 v 43.478515 a 3.5199999,3.5199999 0 0 0 1.24023,2.951172 4.1499999,4.1499999 0 0 0 5.35938,0 3.5299999,3.5299999 0 0 0 1.25,-2.951172 l -0.0586,-43.490234 a 24.89,24.89 0 0 0 -2,-9.949219 25.1,25.1 0 0 0 -13.54101,-13.539062 25.569999,25.569999 0 0 0 -10.04688,-2.03711 z m 66.75,0 a 25.569999,25.569999 0 0 0 -9.95312,2.035156 26,26 0 0 0 -8,5.431641 25.61,25.61 0 0 0 -5.42969,8.119141 24.83,24.83 0 0 0 -2,9.949218 v 20.650391 a 24.69,24.69 0 0 0 2,10 25.47,25.47 0 0 0 13.48047,13.480469 24.73,24.73 0 0 0 10,2 25.08,25.08 0 0 0 9.67969,-1.900391 25.43,25.43 0 0 0 8,-5.169922 v 9 a 17.17,17.17 0 0 1 -1.42969,6.830081 17.77,17.77 0 0 1 -9.41992,9.41992 17.22,17.22 0 0 1 -6.8711,1.38086 24.78,24.78 0 0 1 -7.65039,-1.25 14.66,14.66 0 0 1 -6.47851,-4.12109 l -0.52149,-0.5293 a 0.36999999,0.36999999 0 0 1 -0.1289,-0.25977 3.18,3.18 0 0 0 -1.50977,-1.37109 4.4900001,4.4900001 0 0 0 -1.63086,-0.33008 4.0899999,4.0899999 0 0 0 -2.80859,1.1211 3.5899999,3.5899999 0 0 0 -1.24024,2.81054 3.7399999,3.7399999 0 0 0 0.64844,2.22852 16.4,16.4 0 0 0 4.12109,4.1914 25.85,25.85 0 0 0 5.49024,3 32.88,32.88 0 0 0 6,1.76954 30,30 0 0 0 5.75976,0.58984 24.91,24.91 0 0 0 9.94922,-2 25.28,25.28 0 0 0 13.57032,-13.48047 24.76,24.76 0 0 0 2,-10.000001 h -0.0391 V 49.449219 A 24.89,24.89 0 0 0 193.82031,39.5 25.089999,25.089999 0 0 0 180.2793,25.958984 25.569999,25.569999 0 0 0 170.23242,23.923828 Z M 57.138672,25.238281 a 4.1600001,4.1600001 0 0 0 -2.679688,0.982422 3.5299999,3.5299999 0 0 0 -1.240234,2.949219 v 63.769531 a 3.5199999,3.5199999 0 0 0 1.240234,2.951172 4.1499999,4.1499999 0 0 0 5.371094,0 3.5299999,3.5299999 0 0 0 1.240234,-2.951172 V 29.169922 a 3.54,3.54 0 0 0 -1.240234,-2.949219 4.1600001,4.1600001 0 0 0 -2.691406,-0.982422 z m 113.105468,6.558594 a 17.87,17.87 0 0 1 6.96484,1.373047 17.77,17.77 0 0 1 9.41993,9.419922 17.2,17.2 0 0 1 1.38086,6.871094 V 70 a 17.19,17.19 0 0 1 -1.41016,6.919922 17.77,17.77 0 0 1 -9.41992,9.419922 17.87,17.87 0 0 1 -13.74024,0 17.63,17.63 0 0 1 -5.6289,-3.789063 17.81,17.81 0 0 1 -3.80078,-5.630859 A 17.32,17.32 0 0 1 152.63867,70 V 49.449219 a 17.33,17.33 0 0 1 1.3711,-6.869141 17.79,17.79 0 0 1 9.45898,-9.410156 17.87,17.87 0 0 1 6.77539,-1.373047 z"
       transform="matrix(0.26458333,0,0,0.26458333,258.45962,281.08713)"
       id="circle64"
       inkscape:connector-curvature="0" />
  </g>
</svg>
