<?xml version="1.0" encoding="UTF-8" standalone="no"?>
<svg
   xmlns:dc="http://purl.org/dc/elements/1.1/"
   xmlns:cc="http://creativecommons.org/ns#"
   xmlns:rdf="http://www.w3.org/1999/02/22-rdf-syntax-ns#"
   xmlns:svg="http://www.w3.org/2000/svg"
   xmlns="http://www.w3.org/2000/svg"
   xmlns:sodipodi="http://sodipodi.sourceforge.net/DTD/sodipodi-0.dtd"
   xmlns:inkscape="http://www.inkscape.org/namespaces/inkscape"
   id="svg3355"
   version="1.1"
   xml:space="preserve"
   width="454.93066"
   height="150.776"
   viewBox="0 0 454.93066 150.776"
   sodipodi:docname="Twitch_logo_(wordmark_only).svg"
   inkscape:version="0.92.3 (2405546, 2018-03-11)"><metadata
   id="metadata10"><rdf:RDF><cc:Work
       rdf:about=""><dc:format>image/svg+xml</dc:format><dc:type
         rdf:resource="http://purl.org/dc/dcmitype/StillImage" /></cc:Work></rdf:RDF></metadata><defs
   id="defs8">
    
  
      
    </defs><sodipodi:namedview
   pagecolor="#ffffff"
   bordercolor="#666666"
   borderopacity="1"
   objecttolerance="10"
   gridtolerance="10"
   guidetolerance="10"
   inkscape:pageopacity="0"
   inkscape:pageshadow="2"
   inkscape:window-width="1920"
   inkscape:window-height="1046"
   id="namedview6"
   showgrid="false"
   inkscape:zoom="1.1078611"
   inkscape:cx="85.2995"
   inkscape:cy="75.388"
   inkscape:window-x="0"
   inkscape:window-y="34"
   inkscape:window-maximized="1"
   inkscape:current-layer="svg3355" />
  <path
   style="fill:#ffffff;fill-opacity:1;fill-rule:evenodd;stroke:none;stroke-width:1.33333325"
   d="M 0 0 L 0 103.98828 L 23.394531 127.37305 L 62.390625 150.77539 L 96.183594 150.77539 L 96.183594 145.57617 L 109.18359 150.77539 L 172.18359 150.77539 L 183.34766 137.77344 L 184.80664 150.77539 L 226.05273 150.77539 L 226.88672 137.77344 L 241.76758 150.77539 L 278.1582 150.77539 L 280.75977 137.77344 L 293.76172 150.77539 L 335.35938 150.77539 L 348.35352 137.77344 L 348.35352 150.77539 L 371.74609 150.77539 L 389.94336 137.77344 L 389.94336 150.77539 L 415.93945 150.77539 L 454.92969 124.77734 L 454.92969 46.789062 L 431.54102 23.398438 L 402.94336 23.398438 L 402.94336 0 L 353.55273 0 L 330.15234 23.398438 L 304.16211 23.398438 L 291.1582 36.392578 L 291.1582 23.398438 L 267.76172 23.398438 L 267.76172 0 L 179.375 0 L 179.375 23.398438 L 72.789062 23.398438 L 49.396484 0 L 0 0 z M 10.400391 10.396484 L 38.996094 10.396484 L 38.996094 33.796875 L 62.390625 33.796875 L 62.390625 62.386719 L 38.996094 62.386719 L 38.996094 88.388672 L 62.390625 88.388672 L 62.390625 116.98242 L 28.597656 116.98242 L 10.400391 98.78125 L 10.400391 10.396484 z M 189.77344 10.396484 L 218.36719 10.396484 L 218.36719 23.398438 L 189.77344 23.398438 L 189.77344 10.396484 z M 228.76562 10.396484 L 257.36719 10.396484 L 257.36719 33.796875 L 280.75977 33.796875 L 280.75977 62.386719 L 257.36719 62.386719 L 257.36719 88.388672 L 280.75977 88.388672 L 280.75977 116.98242 L 246.96484 116.98242 L 228.76562 98.78125 L 228.76562 10.396484 z M 363.94336 10.396484 L 392.54492 10.396484 L 392.54492 33.796875 L 426.3457 33.796875 L 444.53906 51.990234 L 444.53906 116.98242 L 415.93945 116.98242 L 415.93945 62.386719 L 392.54492 62.386719 L 392.54492 116.98242 L 363.94336 116.98242 L 363.94336 10.396484 z M 72.789062 33.796875 L 101.39062 33.796875 L 101.39062 88.388672 L 111.78516 88.388672 L 111.78516 33.796875 L 140.38281 33.796875 L 140.38281 88.388672 L 150.7793 88.388672 L 150.7793 33.796875 L 179.375 33.796875 L 179.375 98.78125 L 161.17969 116.98242 L 72.789062 116.98242 L 72.789062 33.796875 z M 189.77344 33.796875 L 218.36719 33.796875 L 218.36719 116.98047 L 189.77344 116.98047 L 189.77344 33.796875 z M 309.35742 33.796875 L 353.55273 33.796875 L 353.55273 62.386719 L 319.75195 62.386719 L 319.75195 88.388672 L 353.55273 88.388672 L 353.55273 116.98242 L 309.35742 116.98242 L 291.1582 98.78125 L 291.1582 51.990234 L 309.35742 33.796875 z "
   id="path3373" />
</svg>