<?xml version="1.0" encoding="UTF-8" standalone="no"?>
<!-- Created with Inkscape (http://www.inkscape.org/) -->

<svg
   xmlns:dc="http://purl.org/dc/elements/1.1/"
   xmlns:cc="http://creativecommons.org/ns#"
   xmlns:rdf="http://www.w3.org/1999/02/22-rdf-syntax-ns#"
   xmlns:svg="http://www.w3.org/2000/svg"
   xmlns="http://www.w3.org/2000/svg"
   xmlns:sodipodi="http://sodipodi.sourceforge.net/DTD/sodipodi-0.dtd"
   xmlns:inkscape="http://www.inkscape.org/namespaces/inkscape"
   id="svg2985"
   version="1.1"
   inkscape:version="0.92.3 (2405546, 2018-03-11)"
   width="1000"
   height="684.20575"
   xml:space="preserve"
   sodipodi:docname="Whole_Foods_Market_logo.svg"><metadata
     id="metadata2991"><rdf:RDF><cc:Work
         rdf:about=""><dc:format>image/svg+xml</dc:format><dc:type
           rdf:resource="http://purl.org/dc/dcmitype/StillImage" /><dc:title /></cc:Work></rdf:RDF></metadata><defs
     id="defs2989"><radialGradient
       fx="0"
       fy="0"
       cx="0"
       cy="0"
       r="1"
       gradientUnits="userSpaceOnUse"
       gradientTransform="matrix(777.36981,0,0,-981.9408,303.04047,833.23526)"
       spreadMethod="pad"
       id="radialGradient3007"><stop
         style="stop-opacity:1;stop-color:#6b8db6"
         offset="0"
         id="stop3009" /><stop
         style="stop-opacity:1;stop-color:#28374d"
         offset="1"
         id="stop3011" /></radialGradient><radialGradient
       fx="0"
       fy="0"
       cx="0"
       cy="0"
       r="1"
       gradientUnits="userSpaceOnUse"
       gradientTransform="matrix(793.41028,0,0,-793.41028,262.32175,735.26794)"
       spreadMethod="pad"
       id="radialGradient3029"><stop
         style="stop-opacity:1;stop-color:#b2bdd7"
         offset="0"
         id="stop3031" /><stop
         style="stop-opacity:1;stop-color:#81818e"
         offset="1"
         id="stop3033" /></radialGradient><radialGradient
       fx="0"
       fy="0"
       cx="0"
       cy="0"
       r="1"
       gradientUnits="userSpaceOnUse"
       gradientTransform="matrix(793.41028,0,0,-793.41028,262.32175,735.26794)"
       spreadMethod="pad"
       id="radialGradient3049"><stop
         style="stop-opacity:1;stop-color:#d4d9e9"
         offset="0"
         id="stop3051" /><stop
         style="stop-opacity:1;stop-color:#b6b5bc"
         offset="1"
         id="stop3053" /></radialGradient><radialGradient
       fx="0"
       fy="0"
       cx="0"
       cy="0"
       r="1"
       gradientUnits="userSpaceOnUse"
       gradientTransform="matrix(793.41028,0,0,-793.41028,262.32037,735.26794)"
       spreadMethod="pad"
       id="radialGradient3069"><stop
         style="stop-opacity:1;stop-color:#b2bdd7"
         offset="0"
         id="stop3071" /><stop
         style="stop-opacity:1;stop-color:#81818e"
         offset="1"
         id="stop3073" /></radialGradient><radialGradient
       fx="0"
       fy="0"
       cx="0"
       cy="0"
       r="1"
       gradientUnits="userSpaceOnUse"
       gradientTransform="matrix(793.41028,0,0,-793.41028,262.32037,735.26794)"
       spreadMethod="pad"
       id="radialGradient3089"><stop
         style="stop-opacity:1;stop-color:#d4d9e9"
         offset="0"
         id="stop3091" /><stop
         style="stop-opacity:1;stop-color:#b6b5bc"
         offset="1"
         id="stop3093" /></radialGradient><clipPath
       clipPathUnits="userSpaceOnUse"
       id="clipPath3101"><path
         d="M 0,0 612,0 612,792 0,792 0,0 z"
         id="path3103"
         inkscape:connector-curvature="0" /></clipPath><clipPath
       clipPathUnits="userSpaceOnUse"
       id="clipPath3250"><path
         inkscape:connector-curvature="0"
         d="M 0,0 612,0 612,396 0,396 0,0 z"
         id="path3252" /></clipPath><clipPath
       clipPathUnits="userSpaceOnUse"
       id="clipPath3228"><path
         inkscape:connector-curvature="0"
         d="M 0,0 612,0 612,396 0,396 0,0 z"
         id="path3230" /></clipPath><clipPath
       clipPathUnits="userSpaceOnUse"
       id="clipPath4843"><path
         inkscape:connector-curvature="0"
         d="m 48.832,24 280.595,0 0,96 -280.595,0 0,-96 z"
         id="path4845" /></clipPath><clipPath
       clipPathUnits="userSpaceOnUse"
       id="clipPath4851"><path
         inkscape:connector-curvature="0"
         d="m 48.832,22.811 213.996,0 0,97.189 -213.996,0 0,-97.189 z"
         id="path4853" /></clipPath><clipPath
       clipPathUnits="userSpaceOnUse"
       id="clipPath7880"><path
         inkscape:connector-curvature="0"
         d="m 361.81,280.934 123.794,0 0,123.674 -123.794,0 0,-123.674 z"
         id="path7882" /></clipPath></defs><sodipodi:namedview
     pagecolor="#ffffff"
     bordercolor="#666666"
     borderopacity="1"
     objecttolerance="10"
     gridtolerance="10"
     guidetolerance="10"
     inkscape:pageopacity="0"
     inkscape:pageshadow="2"
     inkscape:window-width="1920"
     inkscape:window-height="1046"
     id="namedview2987"
     showgrid="false"
     fit-margin-left="0.5"
     fit-margin-bottom="0.5"
     fit-margin-top="0.5"
     fit-margin-right="0.5"
     inkscape:zoom="0.3761995"
     inkscape:cx="229.0088"
     inkscape:cy="136.4347"
     inkscape:window-x="0"
     inkscape:window-y="34"
     inkscape:window-maximized="1"
     inkscape:current-layer="g2993" /><g
     id="g2993"
     inkscape:groupmode="layer"
     inkscape:label="CreditsMO"
     transform="matrix(1.25,0,0,-1.25,-1250.3381,2253.8496)"><path
       style="fill:#ffffff;stroke-width:1.25;fill-opacity:1"
       d="M 507.82617 0.5 C 468.4433 0.5 445.28516 42.385906 445.28516 57.988281 C 445.28516 64.162156 446.49744 69.890625 452.19531 69.890625 C 456.66556 69.890625 459.5152 65.375781 462.3457 58.394531 C 466.0022 49.763156 483.06858 33.755859 506.5957 33.755859 C 524.45983 33.755859 541.91916 44.852734 556.12891 56.349609 C 569.52716 67.436484 580.48633 67.843281 580.48633 72.785156 C 580.48633 74.410531 577.6488 75.646484 574.4043 75.646484 C 561.00817 75.646484 537.47217 55.535156 512.29492 55.535156 C 483.86917 55.535156 460.71875 80.162328 460.71875 94.126953 C 460.71875 98.236703 462.34747 101.52344 467.62109 101.52344 C 473.72684 101.52344 480.63216 86.724609 496.45703 86.724609 C 511.06441 86.724609 523.25383 100.69189 543.54883 97.822266 C 545.98995 97.412391 546.79031 101.097 545.14844 101.9375 C 504.55844 124.91675 461.53906 146.69238 461.53906 219.375 C 461.53906 275.21713 492.80114 329.0293 561.80664 329.0293 C 633.68177 329.0293 668.17969 282.20875 668.17969 219.375 C 668.17969 165.1705 635.32386 115.08398 591.05273 115.08398 C 589.42936 115.08398 587.81358 115.08458 586.17383 115.48633 C 583.32483 116.29383 580.88672 118.75081 580.88672 122.46094 C 580.88672 126.96606 582.11819 128.22092 584.96094 130.24805 C 613.39081 150.39055 623.15234 170.10416 623.15234 224.72266 C 623.15234 263.31253 607.29948 306.18164 567.49023 306.18164 C 524.46323 306.18164 506.1875 260.03186 506.1875 218.56836 C 506.1875 170.51098 518.37639 147.91273 548.43164 125.34961 C 580.88677 100.69161 619.49023 89.193219 619.49023 66.605469 C 619.49023 55.532969 607.70317 53.470328 599.98242 53.064453 C 593.08142 52.650453 583.32483 50.176297 578.45508 43.201172 C 558.57195 22.257297 535.4198 0.5 507.82617 0.5 z M 11.058594 113.56641 C 3.9124688 113.56641 0.5 116.40091 0.5 121.73828 C 0.5 126.77091 2.6804219 128.97189 9.2167969 130.22852 C 19.147922 132.44502 20.703 134.01106 25.375 146.89844 L 86.298828 312.28516 C 90.645453 324.23103 95.004813 327.9707 104.02344 327.9707 C 108.07131 327.9707 112.09961 326.4305 114.58398 324.53125 C 117.06211 322.02013 118.00319 319.80816 120.80469 312.28516 L 151.27148 226.12109 L 179.86914 312.28516 C 183.58939 323.89728 188.2607 327.9707 197.58008 327.9707 C 206.9077 327.9707 210.95583 323.5963 215.61133 308.18555 L 265.0293 146.89648 C 268.49217 135.84673 270.65814 132.87656 277.13477 131.49219 L 278.83398 131.49219 C 281.02786 131.49219 283.19144 133.06314 284.13281 135.57227 C 285.05569 137.76202 285.05664 139.33795 285.05664 147.8457 L 285.05664 289.01367 C 285.05664 297.47205 285.05569 299.03895 284.13281 301.56445 C 283.49419 303.76458 281.02786 305.34766 278.83398 305.34766 L 272.62109 305.34766 C 268.27859 305.34766 264.54297 309.44148 264.54297 314.14648 C 264.54297 321.07011 268.27861 323.26562 278.83398 323.26562 L 335.41602 323.26562 C 345.37189 323.26562 348.78906 321.07127 348.78906 314.46289 C 348.78906 309.44064 345.68239 305.34766 341.33789 305.34766 L 335.41602 305.34766 C 332.92139 305.34766 330.43833 303.76458 329.51758 301.56445 C 328.88108 299.03895 328.57422 297.18567 328.57422 289.01367 L 328.57422 231.46875 C 328.57422 217.01175 329.82664 215.74609 341.33789 215.74609 L 383.59961 215.74609 C 389.80023 215.74609 392.92414 216.69433 394.46289 218.5957 C 396.03877 220.4702 396.03906 221.73656 396.03906 233.36719 L 396.03906 289.01953 C 396.03906 297.19153 396.03877 299.04664 395.10352 301.57227 C 394.17452 303.77227 391.66691 305.35352 389.50391 305.35352 L 383.59961 305.35352 C 379.23248 305.35352 375.51367 309.44734 375.51367 314.15234 C 375.51367 321.07597 378.94228 323.27148 389.50391 323.27148 L 446.07031 323.27148 C 456.97381 323.27148 460.375 321.07809 460.375 314.15234 C 460.375 309.44734 456.97256 305.35352 452.30469 305.35352 L 446.06836 305.35352 C 443.88898 305.35352 441.42031 303.77227 440.77344 301.57227 C 439.85469 299.04664 439.56641 297.19153 439.56641 289.01953 L 439.56641 147.85156 C 439.56641 139.98656 439.85669 137.76788 440.77344 135.57812 C 441.41819 133.374 443.88898 131.49805 446.06836 131.49805 L 452.30469 131.49805 C 456.64294 131.49805 460.375 127.72342 460.375 122.70117 C 460.375 115.77755 456.64419 113.56836 446.07031 113.56836 L 389.50391 113.56836 C 378.94228 113.56836 375.19336 115.77555 375.19336 122.70117 C 375.19336 127.72342 378.94181 131.49805 383.60156 131.49805 L 389.50586 131.49805 C 391.66886 131.49805 394.17634 133.06912 395.10547 135.57812 C 396.04072 137.76788 396.04102 139.66931 396.04102 147.85156 L 396.04102 194.36328 L 328.57617 194.36328 L 328.57617 147.85156 C 328.57617 139.98656 328.88303 137.76788 329.51953 135.57812 C 330.44041 133.374 332.92334 131.49805 335.41797 131.49805 L 341.33984 131.49805 C 345.68434 131.49805 349.08594 127.72342 349.08594 122.70117 C 349.08594 115.77755 345.68497 113.56836 335.41797 113.56836 L 232.71094 113.56836 C 224.32469 113.56836 220.89844 116.08805 220.89844 122.37305 C 220.89844 127.40355 224.00506 130.55605 230.83594 131.16992 C 238.30131 132.09492 241.71875 134.6285 241.71875 139.34375 C 241.71875 141.239 241.40556 143.73427 240.47656 146.90039 L 203.80078 267.32227 L 166.8125 152.23438 C 164.31575 144.69688 163.70312 141.87161 163.70312 139.03711 C 163.70312 133.37423 165.87152 131.49802 174.25977 130.55664 C 181.10502 129.60689 184.22461 127.07933 184.22461 122.04883 C 184.22461 116.40445 180.79825 113.57031 173.65625 113.57031 L 112.72852 113.57031 C 105.57414 113.57031 101.82812 117.00842 101.82812 122.98242 C 101.82812 127.72242 104.32153 129.92217 110.84766 131.49805 C 118.00403 133.37267 120.49561 134.9463 122.34961 139.66992 C 122.97386 140.9203 123.61209 143.4208 124.83984 146.9043 L 139.13281 189.03125 L 110.23633 270.45508 L 68.273438 152.23242 L 65.78125 145.00977 C 64.85425 142.48002 64.53125 140.27464 64.53125 138.10352 C 64.53125 133.06477 67.336703 130.85064 74.173828 130.22852 C 82.255078 129.60427 85.371094 127.40292 85.371094 122.04492 C 85.371094 116.40055 82.255109 113.56641 75.115234 113.56641 L 11.058594 113.56641 z M 851.51367 113.61719 C 840.94392 113.61719 837.20117 115.82339 837.20117 122.72852 C 837.20117 127.44177 840.94309 131.54102 845.27734 131.54102 L 851.51172 131.54102 C 853.36572 131.54102 855.84641 133.42362 856.47266 136.25 C 857.40178 138.7735 857.71094 140.33884 857.71094 148.52734 L 857.71094 289.08789 C 857.71094 297.55039 857.40378 299.15213 856.47266 301.64062 C 855.84441 303.84887 853.68097 305.73242 851.51172 305.73242 L 845.27734 305.73242 C 840.94309 305.73242 837.51758 309.50875 837.51758 314.23438 C 837.51758 321.13937 840.94197 323.35352 851.51172 323.35352 L 973.37305 323.35352 L 979.30469 323.01953 C 984.23419 322.71266 985.81205 321.47141 987.9668 316.11328 L 996.99414 295.0625 C 998.85852 290.65625 999.5 287.8198 999.5 286.24805 C 999.5 281.83967 996.38112 278.70898 991.40625 278.70898 C 987.35225 278.70898 985.81222 279.9548 982.08984 285.60742 C 975.86659 294.74967 969.96211 299.45172 962.78711 300.68359 C 957.50736 301.64147 949.41236 301.96875 933.89648 301.96875 C 917.40423 301.96875 911.2192 301.32344 907.14258 299.75781 C 902.17183 297.87919 901.24414 294.42931 901.24414 277.75781 L 901.24414 228.06055 C 901.24414 221.14517 902.17242 217.99903 904.04492 216.73828 C 905.61255 215.80928 907.77527 215.50391 916.77539 215.50391 L 941.04688 215.50391 C 949.1365 215.50391 953.13672 211.72781 953.13672 204.47656 C 953.13672 196.93494 950.04087 194.12109 941.04688 194.12109 L 901.24414 194.12109 L 901.24414 153.84766 C 901.24414 137.19666 903.13178 135.00781 920.20703 135.00781 L 941.04688 135.00781 C 960.62513 135.00781 966.52361 137.19722 972.77148 146.30859 C 974.94061 149.15347 976.16708 151.0332 976.48633 151.67383 C 977.72445 152.91608 979.30531 154.1747 980.83594 154.79883 C 981.75469 155.43133 983.00875 155.76758 984.23438 155.76758 C 988.92913 155.76758 992.6582 152.28702 992.6582 148.52539 C 992.6582 147.58614 992.02492 145.68473 991.0918 143.17773 L 982.08984 119.91602 C 980.22547 115.16777 977.72217 113.61719 971.2168 113.61719 L 851.51367 113.61719 z M 684.88281 113.62305 C 674.31294 113.62305 670.58398 115.82925 670.58398 122.73438 C 670.58398 127.76075 674.31205 131.54102 678.95117 131.54102 L 684.88281 131.54102 C 687.03756 131.54102 689.53673 133.11761 690.14648 135.63086 C 691.06736 138.13786 691.42578 139.40225 691.42578 147.875 L 691.42578 290.02344 C 691.42578 297.87819 691.06736 299.44875 690.14648 301.64062 C 689.53673 303.84887 687.03756 305.73242 684.88281 305.73242 L 678.95117 305.73242 C 674.60455 305.73242 671.19727 309.50875 671.19727 314.23438 C 671.19727 321.13937 674.60344 323.35352 684.88281 323.35352 L 804.58008 323.35352 C 814.19608 323.35352 816.69038 321.78709 819.79688 313.91797 L 829.42969 290.02344 L 830.68164 286.5625 C 831.30577 285.28738 831.62109 284.04552 831.62109 282.79102 C 831.62109 279.01514 827.87042 275.87305 823.2168 275.87305 C 819.49855 275.87305 817.60905 277.13533 813.88867 282.4707 C 806.42742 293.17645 802.38712 297.24509 797.10938 299.44922 C 791.81738 301.63897 788.397 301.63867 769.75 301.63867 C 748.3055 301.63867 742.39166 301.32364 739.28516 299.15039 C 735.56478 296.95239 734.94727 293.784 734.94727 279.95312 L 734.94727 147.875 C 734.94727 139.70712 734.94861 137.82061 735.86523 135.63086 C 736.78398 133.11561 739.59512 131.54102 742.39062 131.54102 L 749.24023 131.54102 C 753.56623 131.54102 757.30859 127.76075 757.30859 122.73438 C 757.30859 115.82925 753.566 113.62305 742.39062 113.62305 L 684.88281 113.62305 z M 876.35547 347.19141 C 842.17209 347.19141 819.17188 367.32206 819.17188 397.82031 C 819.17188 410.41094 823.19762 421.7137 830.98438 430.8457 C 840.61688 442.16945 843.39769 444.04884 872.92969 464.79297 C 890.65594 477.38159 899.07 484.29495 905.89062 491.86133 C 912.42488 499.38645 915.83203 506.93817 915.83203 515.43555 C 915.83203 532.07205 902.16744 543.41016 881.96094 543.41016 C 864.24919 543.41016 846.81884 533.96 835.96484 518.57812 L 831.59766 512.2793 C 829.71491 509.7723 826.92469 508.1875 823.82031 508.1875 C 818.24594 508.1875 813.88867 512.28027 813.88867 517.94727 C 813.88867 519.50264 814.16428 522.33973 814.80078 524.22461 L 822.57031 555.67578 C 824.42431 563.23391 826.92533 566.05859 832.20508 566.05859 C 834.99433 566.05859 836.55814 565.42612 839.35352 563.23438 C 842.16952 560.717 843.4003 560.08203 845.88867 560.08203 C 847.75917 560.08203 848.37008 560.40228 852.7207 561.64453 C 861.7497 564.48728 873.87612 566.06055 885.375 566.06055 C 926.41825 566.06055 953.13672 542.14747 953.13672 505.68359 C 953.13672 489.65484 946.93559 473.92269 936.35547 462.91406 C 926.42022 452.51319 918.33252 446.26564 893.77539 428.94727 C 887.25552 424.23614 882.2525 420.7865 878.51562 417.9375 C 872.32337 413.22637 867.32741 408.19372 864.25391 403.48047 C 861.75303 400.00734 860.80859 395.29653 860.80859 390.59766 C 860.80859 377.69803 870.15714 369.5293 884.44727 369.5293 C 894.69577 369.5293 905.25627 372.96502 913.68164 379.58789 C 920.20764 384.61427 921.43872 385.8835 928.60547 396.5625 C 931.39472 400.65575 933.26006 401.90039 936.67969 401.90039 C 941.95531 401.90039 945.69531 398.44281 945.69531 394.35156 C 945.69531 393.42456 945.69444 391.54914 945.07031 389.96289 L 937.60742 356.00977 C 936.35492 350.33239 933.56866 347.19141 928.89453 347.19141 C 926.42053 347.19141 925.47378 347.49839 922.36328 349.71289 C 919.59053 351.58752 917.40572 352.52148 915.23047 352.52148 C 913.97997 352.52148 912.42873 352.23539 910.86523 351.91602 C 906.53098 350.97052 904.04355 350.33178 903.0918 350.03516 C 894.08142 348.15441 885.06097 347.19141 876.35547 347.19141 z M 300.00781 347.19336 C 237.51594 347.19336 197.7168 389.96841 197.7168 457.25391 C 197.7168 522.96753 237.82489 566.06055 299.36914 566.06055 C 351.95452 566.06055 388.46563 536.09353 399.21875 487.19141 C 409.68975 535.68978 446.08986 566.06055 497.70898 566.06055 C 560.82711 566.06055 600.90625 522.96697 600.90625 455.68359 C 600.90625 389.63822 560.82695 347.19336 498.31445 347.19336 C 446.29983 347.19336 410.10983 376.90348 399.4082 425.67773 C 388.93933 377.08886 352.38306 347.19336 300.00781 347.19336 z M 696.0625 347.19336 C 660.92113 347.19336 624.54472 353.81344 613.66797 362.30469 C 611.19184 364.17931 609.64062 367.01017 609.64062 369.82617 C 609.64062 374.56205 613.05711 377.69952 618.95898 377.99414 C 627.35136 378.64102 628.26891 379.89505 628.58203 388.0918 L 628.90039 394.99609 L 628.90039 518.58203 L 628.57812 525.50391 C 628.265 532.71591 627.64656 533.33909 618.00781 534.93359 C 612.71781 535.55772 609.63672 538.69691 609.63672 543.41016 C 609.63672 545.92753 611.18861 548.77119 613.34961 550.32031 C 624.25311 558.83844 661.22758 566.06055 693.54883 566.06055 C 728.08045 566.06055 752.00678 559.12369 770.36328 544.35156 C 793.35903 525.81581 806.09961 494.36792 806.09961 456.32617 C 806.09961 422.35067 796.16873 393.73123 777.81836 375.19336 C 758.85823 355.68523 733.33388 347.19336 696.0625 347.19336 z M 67.5625 351.58789 C 57.301625 351.58789 53.886719 353.81033 53.886719 360.70508 C 53.886719 365.43895 56.982922 369.53125 61.341797 369.53125 L 67.564453 369.53125 C 69.733578 369.53125 71.906719 371.10286 72.839844 373.59961 C 73.464094 375.82648 73.777344 377.70039 73.777344 385.88477 L 73.777344 527.05859 C 73.777344 535.55809 73.464094 537.12644 72.839844 539.32031 C 71.906719 541.86031 69.733578 543.41016 67.564453 543.41016 L 61.341797 543.41016 C 56.982922 543.41016 53.271484 547.4933 53.271484 552.2168 C 53.271484 559.12192 56.984328 561.33398 67.564453 561.33398 L 124.75391 561.33398 C 136.26516 561.33398 139.99609 559.12192 139.99609 552.2168 C 139.99609 547.4933 136.56978 543.41016 131.91016 543.41016 L 124.75391 543.41016 C 122.27578 543.41016 119.48492 541.86031 118.23242 539.32031 C 117.28892 537.12644 117.28906 535.55809 117.28906 527.05859 L 117.28906 464.48438 C 117.28906 457.8965 117.60175 455.99519 119.78125 455.07031 C 121.03163 454.44206 122.5793 454.10742 124.13867 454.10742 L 155.85352 454.10742 C 164.55902 454.10742 169.21484 450.3442 169.21484 443.4082 C 169.21484 436.18595 164.87214 432.73438 155.85352 432.73438 L 117.28906 432.73438 L 117.28906 385.88477 C 117.28906 373.59902 119.16759 372.9668 141.83984 372.9668 C 174.19197 372.9668 177.92319 374.25688 186.63281 387.45312 C 189.74131 392.15812 191.90455 394.04297 195.32617 394.04297 C 199.9983 394.04297 203.39258 390.59747 203.39258 386.49609 C 203.39258 385.23947 203.10691 383.98378 202.17578 381.47266 L 194.09766 360.0918 C 192.54241 356.30342 190.98308 353.8102 189.12695 352.87695 C 187.5552 351.91495 186.63183 351.58789 181.64258 351.58789 L 67.5625 351.58789 z M 700.4043 367.94727 C 737.3873 367.94727 759.45703 400.65877 759.45703 455.99414 C 759.45703 511.35852 737.38762 543.41211 699.15625 543.41211 C 687.3505 543.41211 677.99209 540.27402 674.60547 535.55664 C 672.74122 532.41314 672.42578 529.87159 672.42578 517.32422 L 672.42578 399.08789 C 672.42578 381.16189 673.0428 377.39523 677.07617 374.25586 C 681.7503 370.46748 690.76555 367.94727 700.4043 367.94727 z M 299.67578 369.53125 C 334.18678 369.53125 355.94141 403.15458 355.94141 457.25195 C 355.94141 510.07833 334.49648 543.41016 300.30273 543.41016 C 265.17373 543.41016 244.3418 511.35739 244.3418 457.55664 C 244.3418 402.86189 265.17303 369.53125 299.67578 369.53125 z M 498.01562 369.53125 C 532.52662 369.53125 554.28125 403.15458 554.28125 457.25195 C 554.28125 510.07833 532.82742 543.41016 498.6543 543.41016 C 463.52117 543.41016 442.67188 511.35739 442.67188 457.55664 C 442.67188 402.86189 463.52312 369.53125 498.01562 369.53125 z M 72.007812 586.62891 C 45.499937 586.62891 24.019531 608.34897 24.019531 635.16797 C 24.019531 661.95609 45.501937 683.70508 72.007812 683.70508 L 938.25 683.70508 C 964.75587 683.70508 986.24414 661.95609 986.24414 635.16797 C 986.24414 608.34897 964.75587 586.62891 938.25 586.62891 L 72.007812 586.62891 z M 306.10156 605.18359 C 309.50256 605.18359 313.80614 606.39577 315.77539 610.40039 L 333.77734 646.27539 C 336.55009 651.80652 337.41445 652.98719 339.25195 653.64844 L 340.92383 654.20703 C 342.10633 654.59841 343.07031 655.64513 343.07031 657.32812 C 343.07031 659.74238 341.62797 661.09766 338.93359 661.09766 L 313.80273 661.09766 C 311.41723 661.09766 310.14258 659.74417 310.14258 657.74805 C 310.14258 655.3213 311.48973 654.67816 314.66211 654.14453 C 317.35861 653.65228 317.58577 652.20325 316.57227 649.64062 L 316.25 648.83203 C 315.62162 647.22316 314.73494 647.07227 311.97656 647.07227 L 293.73633 647.07227 C 291.89883 647.07227 290.95297 647.22272 290.46484 647.46484 C 289.91884 647.71459 289.52686 647.9417 289.27148 648.42383 L 289.05469 648.99805 C 288.25756 650.83155 289.1317 653.64764 292.37695 654.04102 C 295.46495 654.45514 296.73633 655.31713 296.73633 657.5625 C 296.73633 659.80175 295.08511 661.09375 292.61523 661.09375 L 272.78906 661.09375 C 269.85156 661.09375 268.50391 660.12962 268.50391 657.96875 C 268.50391 655.8985 269.52864 655.0112 271.83789 654.45508 C 273.50039 654.04095 274.06091 653.64573 274.76953 652.75586 C 275.32166 652.04098 276.43172 649.86552 277.55859 647.71289 L 296.1875 610.40039 C 298.336 606.15064 302.37294 605.18359 306.10156 605.18359 z M 447.49219 605.18555 C 467.96444 605.18555 479.23828 610.49016 479.23828 620.58203 C 479.23828 627.55516 476.13997 633.33728 465.12109 635.26953 L 475.75195 646.98828 C 479.70508 651.39466 482.55967 652.92048 485.88867 653.47461 C 488.2658 654.14211 488.59433 654.20806 489.29883 654.60156 C 490.00533 655.01556 490.74805 656.04058 490.74805 657.33008 C 490.74805 659.74233 488.98247 661.09766 485.66797 661.09766 L 470.83594 661.09766 C 467.50494 661.09766 465.90083 660.06728 463.5957 657.56641 L 446.86523 638.57227 C 445.21523 636.70802 444.58008 635.59044 444.58008 634.78906 C 444.58008 633.19469 445.9292 632.47594 449.25195 632.14844 C 457.66908 631.42744 461.85156 628.38069 461.85156 621.94531 C 461.85156 614.74356 456.05748 611.44727 448.84961 611.44727 C 446.06648 611.44727 443.30289 612.00494 441.86914 613.03906 C 440.62289 614.00731 440.13055 615.62155 439.87305 619.07617 L 439.65625 623.00195 L 439.65625 647.71484 C 439.65625 650.83372 439.65736 651.73278 439.97461 652.44141 C 440.37011 653.47553 441.39967 654.14258 442.2793 654.14258 L 444.73828 654.14258 C 446.40066 654.14258 447.75195 655.64658 447.75195 657.56445 C 447.75195 660.1312 446.39947 661.0957 442.27734 661.0957 L 419.99609 661.0957 C 416.10272 661.0957 414.50195 660.1312 414.50195 657.56445 C 414.50195 655.64658 416.10339 654.14258 417.83789 654.14258 L 419.99609 654.14258 C 421.16409 654.14258 421.8933 653.47553 422.29492 652.44141 C 422.59567 651.55766 422.5957 650.83372 422.5957 647.71484 L 422.5957 620.19141 C 422.5957 616.90366 422.04942 616.34966 418.95117 616.16016 C 416.57392 616.03403 415.24219 614.91163 415.24219 612.8125 C 415.24219 611.766 415.87384 610.55716 416.57422 609.83203 C 420.46759 606.72141 435.51544 605.18555 447.49219 605.18555 z M 722.71484 606.31641 L 771.01172 606.31641 C 773.55384 606.31641 774.42638 606.7187 774.90625 607.92383 L 778.54688 617.38086 C 778.70137 617.85886 779.09964 618.49467 779.02539 618.74805 C 778.80139 619.72655 776.81345 620.57812 775.06445 620.57812 C 774.42595 620.57812 773.96852 620.57739 773.63477 620.33789 C 773.00239 620.18864 772.53075 619.86144 772.125 619.63281 C 771.89575 619.31556 771.66892 618.90819 770.93555 618.11719 C 768.96617 615.77906 765.49167 613.30078 757.66992 613.30078 L 749.61328 613.30078 C 742.87091 613.30078 742.13867 613.92112 742.13867 618.26562 L 742.13867 627.33203 L 757.66992 627.33203 C 761.4088 627.33203 762.45898 629.32883 762.45898 631.42383 C 762.45898 633.66095 761.02355 635.68945 757.66992 635.68945 L 748.18555 635.68945 C 745.71767 635.68945 743.82027 635.51212 743.18164 635.98438 C 742.54302 636.47675 742.13672 637.34566 742.13672 639.19141 L 742.13672 647.7832 C 742.13672 652.10095 742.4745 652.98636 744.54688 653.47461 C 745.86738 653.80211 748.56506 654.14062 754.99219 654.14062 C 761.02181 654.14062 764.19859 653.95541 766.16797 653.72266 C 768.87272 653.41166 772.85858 648.82964 774.83008 646.35352 C 776.01658 644.81064 776.49131 644.57031 778.16406 644.57031 C 780.23231 644.57031 781.33478 645.38341 781.58203 646.42578 C 781.71853 646.98816 781.64067 647.53828 781.16992 648.83203 L 777.04883 659.25977 C 776.40395 660.62552 775.94928 660.94727 773.87891 660.94727 L 771.48438 661.0957 L 722.71289 661.0957 C 718.59714 661.0957 717.24609 660.13316 717.24609 657.56641 C 717.24609 655.64853 718.59783 654.20898 720.25195 654.20898 L 722.71289 654.20898 C 723.42977 654.20898 724.36823 653.47628 724.53711 652.50391 C 725.01298 651.73353 725.10937 650.83355 725.10938 647.7168 L 725.10938 620.03516 C 725.10938 616.90391 725.01236 616.03672 724.53711 615.21484 C 724.36723 614.09822 723.42977 613.30078 722.71289 613.30078 L 720.25195 613.30078 C 718.59783 613.30078 717.02148 611.68741 717.02148 609.76953 C 717.02148 607.26878 718.59897 606.31641 722.71484 606.31641 z M 111.94336 606.31836 L 130.10938 606.31836 C 132.02312 606.31836 133.11786 606.80128 135.74023 609.69141 L 152.88086 628.71289 L 172.84766 608.87695 C 174.92003 606.8747 176.18059 606.31836 177.93359 606.31836 L 191.89453 606.31836 C 195.69728 606.31836 196.96484 607.27073 196.96484 609.77148 C 196.96484 611.68936 195.53933 613.13477 193.87695 613.13477 L 191.31641 613.13477 C 190.36891 613.13477 189.912 613.69703 189.5 614.56641 C 189.10862 615.37391 189.10938 616.51391 189.10938 619.78516 L 189.10938 647.94531 C 189.10938 651.06619 189.10942 651.80802 189.74805 652.75977 C 189.83305 653.65177 190.94691 654.21094 191.89453 654.21094 L 193.87891 654.21094 C 195.54141 654.21094 196.9668 655.9023 196.9668 657.74805 C 196.9668 660.13342 195.69723 661.09766 191.89648 661.09766 L 169.52344 661.09766 C 165.55394 661.09766 164.05469 660.13342 164.05469 657.74805 C 164.05469 655.9023 165.55525 654.21094 167.39062 654.21094 L 169.52344 654.21094 C 170.47106 654.21094 171.35884 653.65177 171.74609 652.75977 C 172.13334 651.80802 172.13477 651.24327 172.13477 647.94727 L 172.13477 622.77344 L 152.07031 642.56836 C 150.87144 643.85386 149.46273 644.57227 148.03711 644.57227 C 146.52511 644.57227 145.88227 644.09486 144.38477 642.56836 L 125.5 622.20508 L 125.5 647.94531 C 125.5 651.06619 125.50063 651.80619 125.82812 652.75781 C 126.13712 653.72394 127.00241 654.20898 127.97266 654.20898 L 130.34961 654.20898 C 132.25923 654.20898 133.66797 655.90034 133.66797 657.74609 C 133.66797 660.13159 132.39341 661.0957 127.97266 661.0957 L 111.94336 661.0957 C 108.06023 661.0957 106.47461 660.13159 106.47461 657.74609 C 106.47461 655.90034 108.05977 654.20898 109.80664 654.20898 L 111.94336 654.20898 C 112.90536 654.20898 113.69239 653.64981 114.08789 652.75781 C 114.48964 651.94831 114.5625 650.83344 114.5625 647.94531 L 114.5625 619.78516 C 114.5625 616.51391 114.48927 615.69213 114.08789 614.8125 C 113.69239 613.86088 112.90536 613.13477 111.94336 613.13477 L 109.80664 613.13477 C 108.05777 613.13477 106.47461 611.68936 106.47461 609.77148 C 106.47461 607.27073 108.06023 606.31836 111.94336 606.31836 z M 857.70898 606.31836 L 913.38086 606.31836 C 915.20798 606.31836 915.2945 606.39645 916.09375 606.7207 C 916.481 606.8752 916.76964 607.44669 917.18164 608.39844 L 921.14648 618.41797 C 921.31123 618.90622 921.53631 619.47948 921.47656 619.72461 C 921.31694 620.67848 918.9203 621.63867 917.0293 621.63867 C 915.76242 621.63867 914.73633 621.15898 913.7207 619.78711 C 913.12945 619.07636 913.00338 618.91022 912.75 618.68359 C 911.58613 617.21897 909.56586 614.40995 908.14648 613.92383 C 906.81786 613.4377 905.04019 613.30078 900.53906 613.30078 C 894.83294 613.30078 894.11523 613.6963 894.11523 617.2168 L 894.11523 647.71484 C 894.11523 650.83372 894.11478 651.55766 894.42578 652.44141 C 894.83166 653.47553 895.77581 654.14258 896.82031 654.14258 L 900.12891 654.14258 C 901.98091 654.14258 903.37695 655.64658 903.37695 657.56445 C 903.37695 660.1312 901.9807 661.0957 897.5332 661.0957 L 873.48242 661.0957 C 869.2038 661.0957 867.71289 660.1312 867.71289 657.56445 C 867.71289 655.64658 869.2045 654.14258 870.79688 654.14258 L 874.36523 654.14258 C 875.16861 654.14258 876.10472 653.47553 876.49609 652.44141 C 876.82359 651.55766 877.05273 650.83372 877.05273 647.71484 L 877.05273 617.2168 C 877.05273 613.7973 876.49633 613.30078 869.37695 613.30078 C 863.2527 613.30078 860.25653 615.77947 858.09766 618.82422 L 857.45898 619.72656 C 856.38361 621.31069 855.41161 621.63867 853.80273 621.63867 C 852.07648 621.63867 849.68683 620.74419 849.54883 619.72656 C 849.54883 619.48194 849.68937 618.58337 849.9375 617.95312 L 853.60156 608.40039 C 854.30406 606.39602 854.86823 606.31836 857.70898 606.31836 z M 570.03711 606.32031 L 592.3418 606.32031 C 596.44117 606.32031 597.8125 607.27256 597.8125 609.77344 C 597.8125 611.84369 596.44127 613.30273 594.71289 613.30273 L 592.3418 613.30273 C 591.37155 613.30273 590.66264 613.9255 590.27539 614.98438 C 589.86339 616.037 589.7168 616.51586 589.7168 619.78711 L 589.7168 647.7168 C 589.7168 649.79942 589.7988 651.80802 590.4043 652.75977 C 590.99142 653.65177 591.54259 654.14453 592.33984 654.14453 L 594.71094 654.14453 C 596.21256 654.14453 597.81055 655.64866 597.81055 657.56641 C 597.81055 660.13316 596.21655 661.09766 592.3418 661.09766 L 570.03711 661.09766 C 566.15186 661.09766 564.58594 660.13316 564.58594 657.56641 C 564.58594 655.64866 566.1533 654.14453 567.9043 654.14453 L 570.03516 654.14453 C 571.22378 654.14453 571.943 653.47748 572.32812 652.44336 C 572.65362 651.55961 572.6543 650.83555 572.6543 647.7168 L 572.6543 619.78711 C 572.6543 616.65386 572.58987 615.54263 572.32812 614.98438 C 571.94088 614.09863 571.22378 613.30273 570.03516 613.30273 L 567.9043 613.30273 C 566.1513 613.30273 564.58594 611.84369 564.58594 609.77344 C 564.58594 607.27256 566.15186 606.32031 570.03711 606.32031 z M 613.27539 606.32031 L 638.5625 606.32031 C 641.18487 606.32031 642.61133 607.35719 642.61133 609.69531 C 642.61133 611.69144 641.5865 612.75347 638.5625 613.13672 C 635.79388 613.51159 634.70395 613.51127 632.76758 614.00977 C 630.96708 614.49589 628.6587 615.85925 627.14258 617.14062 L 612.7168 629.66211 L 630.55664 647.39062 C 635.25352 652.04825 637.94198 653.47716 640.30273 654.14453 C 642.98898 654.84291 644.28125 655.32103 644.28125 657.56641 C 644.28125 659.74178 642.70453 661.09766 639.81641 661.09766 L 624.76562 661.09766 C 621.50675 661.09766 620.48228 659.98278 618.11328 657.56641 L 596.27539 635.74805 C 595.26189 634.71192 594.84961 634.15361 594.84961 633.49023 C 594.84961 632.86611 595.48852 632.06223 596.27539 631.42773 L 612.08398 617.95312 C 614.37673 615.95287 613.02886 613.50977 611.75586 613.50977 C 610.31998 613.50977 609.48047 612.18156 609.48047 609.77344 C 609.48047 607.60219 610.56864 606.32031 613.27539 606.32031 z M 302.52734 618.49609 C 302.21422 619.72797 301.40697 621.55134 300.52734 623.57422 L 294.51367 637.06055 L 293.32617 638.94531 L 295.39258 638.74219 L 310.06445 638.74219 L 311.73438 638.94531 L 310.69727 637.06055 L 304.58398 623.57422 C 303.63223 621.47309 303.23622 619.78572 303.01172 618.49609 L 302.52734 618.49609 z "
       transform="matrix(0.8,0,0,-0.8,1000.2705,1803.0797)"
       id="path3" /></g></svg>