<?xml version="1.0" encoding="UTF-8" standalone="no"?>
<svg
   xmlns:dc="http://purl.org/dc/elements/1.1/"
   xmlns:cc="http://creativecommons.org/ns#"
   xmlns:rdf="http://www.w3.org/1999/02/22-rdf-syntax-ns#"
   xmlns:svg="http://www.w3.org/2000/svg"
   xmlns="http://www.w3.org/2000/svg"
   xmlns:xlink="http://www.w3.org/1999/xlink"
   xmlns:sodipodi="http://sodipodi.sourceforge.net/DTD/sodipodi-0.dtd"
   xmlns:inkscape="http://www.inkscape.org/namespaces/inkscape"
   width="684.6897"
   height="244.73523"
   viewBox="0 0 684.6897 244.73523"
   version="1.1"
   id="svg49"
   sodipodi:docname="zappos.svg"
   inkscape:version="0.92.3 (2405546, 2018-03-11)">
  <metadata
     id="metadata53">
    <rdf:RDF>
      <cc:Work
         rdf:about="">
        <dc:format>image/svg+xml</dc:format>
        <dc:type
           rdf:resource="http://purl.org/dc/dcmitype/StillImage" />
        <dc:title></dc:title>
      </cc:Work>
    </rdf:RDF>
  </metadata>
  <sodipodi:namedview
     pagecolor="#ffffff"
     bordercolor="#666666"
     borderopacity="1"
     objecttolerance="10"
     gridtolerance="10"
     guidetolerance="10"
     inkscape:pageopacity="0"
     inkscape:pageshadow="2"
     inkscape:window-width="1920"
     inkscape:window-height="1046"
     id="namedview51"
     showgrid="false"
     fit-margin-top="0"
     fit-margin-left="0"
     fit-margin-right="0"
     fit-margin-bottom="0"
     inkscape:zoom="0.73478261"
     inkscape:cx="139.17288"
     inkscape:cy="78.069006"
     inkscape:window-x="0"
     inkscape:window-y="34"
     inkscape:window-maximized="1"
     inkscape:current-layer="svg49" />
  <defs
     id="defs13">
    <polygon
       id="path-1"
       points="0.217,0.263 0.217,244.998 332.09669,244.998 332.09669,0.263 " />
    <mask
       id="mask-2"
       fill="white">
      <use
         xlink:href="#path-1"
         id="use15"
         x="0"
         y="0"
         width="100%"
         height="100%" />
    </mask>
  </defs>
  <path
     style="fill:#ffffff;fill-rule:evenodd;stroke:none;stroke-width:1;fill-opacity:1"
     mask="url(#mask-2)"
     d="M 656.3457 0.00390625 C 647.67091 -0.18363086 640.27053 5.3642816 634.89453 12.128906 C 627.82253 21.029906 623.1305 31.870281 619.3125 42.488281 C 614.2545 56.567281 610.69578 71.245594 607.92578 85.933594 C 605.08078 101.04259 603.31064 116.36142 602.80664 131.73242 C 602.55764 139.31942 602.56477 146.93758 603.00977 154.51758 C 603.22977 158.26558 603.57333 162.00856 604.11133 165.72656 C 604.36933 167.50456 604.67339 169.27706 605.02539 171.03906 C 605.20239 171.91806 605.39275 172.79592 605.59375 173.66992 C 605.78975 173.86692 606.61203 173.58992 606.83203 173.54492 C 613.39803 172.14292 620.51403 171.80763 627.20703 172.26562 C 634.42103 172.75762 641.0847 174.9443 647.3457 178.5293 C 648.8577 179.3943 650.3403 180.31883 651.7793 181.29883 C 652.5243 181.80683 653.25947 182.32628 653.98047 182.86328 C 654.62347 183.34328 655.15486 183.98761 655.88086 184.34961 C 657.77686 181.35161 659.46691 178.2292 661.00391 175.0332 C 664.08891 168.6152 666.55055 161.92073 668.81055 155.17773 C 673.58155 140.95673 677.24183 126.39809 679.79883 111.62109 C 682.39983 96.598098 684.06664 81.374814 684.55664 66.132812 C 684.97264 53.193812 684.53161 39.951453 681.47461 27.314453 C 678.71161 15.875453 672.79967 3.1452188 660.13867 0.44921875 C 658.84955 0.17521875 657.58496 0.030697266 656.3457 0.00390625 z M 1.984375 0.40429688 L 1.984375 40.134766 L 12.986328 40.134766 C 13.166328 30.926766 14.97075 25.072859 18.21875 22.130859 C 21.45975 19.190859 27.5995 17.628906 36.4375 17.628906 L 71.068359 17.628906 L 5.0488281 144.64648 C 1.6218281 151.10748 0 156.18547 0 160.10547 C 0 163.63047 1.4385313 166.75895 4.1445312 169.50195 C 7.0275313 172.23695 10.456688 173.60742 14.429688 173.60742 L 106.60352 173.60742 L 106.60352 156.58203 L 32.283203 156.58203 L 100.4707 25.652344 C 102.4607 21.928344 103.35547 18.410469 103.35547 15.480469 C 103.35547 5.4974681 97.048609 0.40429688 84.599609 0.40429688 L 1.984375 0.40429688 z M 655.59961 20.541016 C 657.02938 20.583619 658.45703 21.030391 659.82422 22.041016 C 664.10622 25.204016 666.43552 31.032906 668.10352 35.878906 C 670.31452 42.299906 671.59145 49.348469 672.18945 56.105469 C 658.60445 52.851469 644.95294 49.867859 631.33594 46.755859 C 632.11994 45.183859 632.90159 43.612109 633.68359 42.037109 C 637.05759 36.247109 640.39781 30.519453 645.25781 25.814453 C 647.84213 23.314016 651.39346 20.722051 654.98633 20.546875 C 655.19047 20.536922 655.39536 20.534929 655.59961 20.541016 z M 155.85156 53.058594 C 143.58756 53.058594 133.84827 55.792844 126.44727 61.464844 C 119.23527 66.952844 115.44594 74.385936 115.08594 83.585938 L 129.69336 98.652344 C 138.89536 98.652344 143.94094 94.146187 145.21094 85.742188 C 146.46994 77.321188 147.19305 72.820047 147.37305 72.623047 C 148.63205 68.326047 151.52388 66.361328 155.67188 66.361328 C 159.82187 66.361328 162.88177 68.703344 164.50977 73.402344 C 166.31077 78.108344 167.03711 85.742641 167.03711 96.306641 L 167.03711 107.26758 C 129.15311 109.21758 110.0332 122.33039 110.0332 146.40039 C 110.0332 154.62239 113.09737 161.67502 119.23438 167.54102 C 125.36538 173.41302 132.94203 176.34375 141.95703 176.34375 C 147.55003 176.34375 152.60364 174.97433 156.93164 172.23633 C 157.29264 172.04333 160.72127 169.11127 167.57227 163.82227 C 171.00327 160.88027 175.51687 159.51758 180.92188 159.51758 L 193.54688 159.51758 L 193.54688 97.673828 C 193.54688 81.625828 190.66327 70.082469 185.07227 63.230469 C 179.29927 56.571469 169.56156 53.058594 155.85156 53.058594 z M 457.99805 53.058594 C 428.23205 53.058594 413.26172 73.99283 413.26172 115.67383 C 413.26172 155.99283 428.23205 176.34375 457.99805 176.34375 C 487.57905 176.34375 502.55273 155.99283 502.55273 115.67383 C 502.55273 96.10983 498.58058 80.648547 490.64258 69.685547 C 482.52658 58.535547 471.69705 53.058594 457.99805 53.058594 z M 550.17578 53.058594 C 537.36378 53.058594 527.62653 56.190141 520.76953 62.244141 C 513.73353 68.326141 510.30664 76.730453 510.30664 87.689453 C 510.30664 95.316453 512.47483 101.9772 516.79883 107.6582 C 520.41083 112.5472 526.71864 118.02775 535.55664 124.09375 C 544.39864 130.16175 549.63181 133.88877 551.25781 135.63477 C 555.22381 139.35977 557.21094 143.26739 557.21094 147.77539 C 557.21094 155.99239 551.97545 160.10547 541.68945 160.10547 C 535.55745 160.10547 528.88492 157.37108 521.66992 152.08008 C 520.76892 151.88508 519.50414 151.88477 518.24414 151.88477 C 513.55314 151.88477 511.20508 153.4523 511.20508 156.7793 C 511.20508 162.0593 514.45466 166.75856 520.59766 170.47656 C 526.71866 174.19756 534.65444 175.95117 544.39844 175.95117 C 555.40144 175.95117 564.24266 172.82609 571.09766 166.37109 C 577.94866 159.91409 581.38281 151.29278 581.38281 140.92578 C 581.38281 128.98978 576.69409 118.42247 567.49609 109.60547 C 560.63709 104.91447 554.68386 100.80682 549.63086 97.673828 C 539.52986 91.015828 534.48242 85.345859 534.48242 80.255859 C 534.48242 72.033859 539.16756 68.126953 548.72656 68.126953 C 559.90856 68.126953 565.50977 73.211937 565.50977 83.585938 L 574.88281 83.585938 L 574.88281 57.757812 C 564.24181 54.613813 555.94078 53.058594 550.17578 53.058594 z M 262.45508 53.443359 C 255.78608 53.443359 249.83161 55.400766 244.59961 59.509766 C 239.72961 63.822766 235.04111 67.927203 230.53711 72.033203 C 227.82511 73.993203 222.9535 74.976562 215.5625 74.976562 C 215.0165 74.976563 213.93355 74.975531 212.31055 74.769531 L 208.88477 74.769531 L 208.88477 212.1582 C 208.88477 216.0812 210.14783 219.40058 212.67383 222.14258 C 215.19783 225.08158 218.26364 226.45117 222.05664 226.45117 C 225.66264 226.45117 228.73095 225.0828 231.25195 222.3418 C 233.59795 219.6088 234.85938 216.2722 234.85938 212.1582 L 234.85938 165.58789 C 241.17238 173.60889 249.29153 177.7168 259.39453 177.7168 C 272.74253 177.7168 283.20361 172.23552 290.59961 161.47852 C 297.99161 150.51552 301.7832 135.05989 301.7832 115.08789 C 301.7832 95.716896 298.17167 80.648547 291.13867 69.685547 C 284.10367 58.732547 274.54408 53.443359 262.45508 53.443359 z M 366.17578 53.443359 C 359.50278 53.443359 353.55067 55.400766 348.13867 59.509766 C 343.45467 63.822766 338.75795 67.927203 334.25195 72.033203 C 331.54595 73.993203 326.6762 74.976562 319.2832 74.976562 C 318.5582 74.976563 317.47725 74.975531 316.03125 74.769531 L 312.60547 74.769531 L 312.60547 212.1582 C 312.60547 216.0812 313.86853 219.40058 316.39453 222.14258 C 318.92153 225.08158 321.9867 226.45117 325.5957 226.45117 C 329.3827 226.45117 332.44702 225.0828 334.79102 222.3418 C 337.32202 219.6088 338.57812 216.2722 338.57812 212.1582 L 338.57812 165.58789 C 344.89712 173.60889 353.00928 177.7168 363.11328 177.7168 C 376.45628 177.7168 386.56267 172.23552 394.13867 161.47852 C 401.52867 150.51552 405.13867 135.05989 405.13867 115.08789 C 405.13867 95.716896 401.71769 80.648547 394.67969 69.685547 C 387.64769 58.732547 378.08478 53.443359 366.17578 53.443359 z M 625.4043 61.064453 C 630.4583 62.207453 635.51036 63.349234 640.56836 64.490234 C 646.84436 65.908234 653.12434 67.327141 659.40234 68.744141 L 614.26953 106.88672 C 614.46153 105.43972 614.65833 103.99478 614.86133 102.55078 C 616.35333 95.273782 617.51091 87.929078 619.25391 80.705078 C 620.12591 77.079078 621.21033 73.525469 622.36133 69.980469 C 622.62133 69.180469 625.1423 61.007453 625.4043 61.064453 z M 458.17969 66.558594 C 467.01769 66.558594 472.78877 74.386656 475.13477 89.847656 C 476.03677 95.317656 476.57422 107.45306 476.57422 125.66406 C 476.57422 150.51606 470.26605 162.84766 457.99805 162.84766 C 450.95605 162.84766 446.09394 158.93742 443.21094 151.10742 C 440.67994 143.85942 439.23633 132.10883 439.23633 115.67383 C 439.23633 98.65283 440.67841 86.322187 443.56641 78.492188 C 446.45041 70.467186 451.31969 66.558594 458.17969 66.558594 z M 254.69727 71.253906 C 266.79227 71.253906 272.74219 85.742048 272.74219 114.49805 C 272.74219 144.44705 266.60516 159.51758 254.16016 159.51758 C 241.35516 159.51758 234.85938 147.77639 234.85938 123.90039 L 234.85938 95.519531 C 239.91037 79.279531 246.58227 71.253906 254.69727 71.253906 z M 358.24609 71.253906 C 370.32409 71.253906 376.45703 85.742048 376.45703 114.49805 C 376.45703 144.44705 370.32381 159.51758 357.88281 159.51758 C 344.89781 159.51758 338.57812 147.77639 338.57812 123.90039 L 338.57812 95.519531 C 343.63412 79.279531 350.13009 71.253906 358.24609 71.253906 z M 673.11523 72.427734 C 673.20223 81.004734 672.93361 89.599953 671.97461 98.126953 C 671.00961 106.70695 669.46427 115.25022 667.69727 123.69922 C 656.30027 121.17222 644.90386 118.64714 633.50586 116.11914 C 631.11986 115.59014 628.7317 115.0603 626.3457 114.5293 L 673.11523 72.427734 z M 167.03711 120.57031 L 167.03711 144.44727 C 162.88111 153.45327 157.11242 158.14648 149.35742 158.14648 C 142.14242 158.14648 138.5293 152.66266 138.5293 142.09766 C 138.5293 128.79466 148.09011 121.73831 167.03711 120.57031 z M 612.37695 127.78516 C 623.27695 130.27116 634.17903 132.75719 645.08203 135.24219 C 651.32103 136.66519 657.55883 138.08581 663.79883 139.50781 C 663.36483 140.85381 662.95459 142.19769 662.55859 143.55469 C 661.45559 146.96869 660.35716 150.38761 659.03516 153.72461 C 658.89216 154.08861 657.53703 157.70611 657.33203 157.66211 C 657.22103 157.64011 657.11195 157.61284 657.00195 157.58984 C 655.25395 157.21784 653.50191 156.84466 651.75391 156.47266 C 644.79491 154.98866 637.84081 153.50544 630.88281 152.02344 C 624.71781 150.70844 618.54972 149.39703 612.38672 148.08203 C 612.22272 144.72903 612.23403 141.36863 612.08203 138.01562 C 611.92603 134.59463 612.41695 131.19816 612.37695 127.78516 z M 361.46875 186.41016 C 356.77575 186.41016 352.81055 190.72278 352.81055 195.80078 L 352.81055 235.53906 C 352.81055 240.62906 356.77575 244.73437 361.46875 244.73438 L 565.8457 244.73438 C 570.5327 244.73438 574.50391 240.62906 574.50391 235.53906 L 574.50391 195.80078 C 574.50391 190.72278 570.5327 186.41016 565.8457 186.41016 L 361.46875 186.41016 z M 622.92188 188.39844 C 609.74071 188.68504 598.31742 198.79987 596.45508 212.62109 C 594.39908 227.86909 604.769 241.86433 619.625 243.86133 C 634.493 245.85933 648.19991 235.11047 650.25391 219.85547 C 652.29891 204.60647 641.92055 190.63586 627.06055 188.63086 C 625.66798 188.44336 624.28543 188.36879 622.92188 188.39844 z M 426.58398 193.6543 C 431.63998 193.6543 435.78548 195.02153 439.39648 197.76953 L 435.24023 205.00781 C 432.89723 202.65781 429.83233 201.67187 425.86133 201.67188 C 422.07333 201.67188 419.18844 202.85558 417.02344 205.39258 C 414.86144 207.93958 413.77539 211.26467 413.77539 215.76367 C 413.77539 224.57367 417.9223 229.08203 426.4043 229.08203 C 430.1963 229.08203 433.44039 227.70923 436.15039 225.36523 L 439.75586 233.18164 C 436.86986 234.94564 434.34469 236.13363 432.17969 236.51562 C 430.19669 237.10563 427.47975 237.28906 424.59375 237.28906 C 418.10975 237.28906 412.87984 235.34305 409.08984 231.62305 C 405.30184 227.70905 403.49414 222.41667 403.49414 215.76367 C 403.49414 209.11967 405.48395 203.6378 409.62695 199.7168 C 413.77595 195.6048 419.55098 193.6543 426.58398 193.6543 z M 465.36523 193.6543 C 471.85823 193.6543 476.7298 195.60434 480.3418 199.52734 C 483.9468 203.05234 485.75391 208.5315 485.75391 215.1875 C 485.75391 222.0275 483.94606 227.31747 480.16406 231.23047 C 476.55206 235.34247 471.67723 237.28906 465.36523 237.28906 C 458.87623 237.28906 453.82158 235.34247 450.39258 231.23047 C 446.78758 227.31747 444.98436 221.8395 444.98438 215.1875 C 444.98438 208.7235 446.78822 203.6378 450.57422 199.7168 C 454.36022 195.6048 459.23223 193.6543 465.36523 193.6543 z M 513.17188 193.6543 C 518.75486 193.6543 522.91283 195.22816 525.79883 198.16016 C 527.06083 196.78516 528.68325 195.60513 531.03125 194.82812 C 533.18925 194.03813 535.35717 193.6543 537.70117 193.6543 C 542.39517 193.6543 545.99712 195.02136 548.70312 197.56836 C 551.22512 200.31336 552.67578 203.82925 552.67578 208.53125 L 552.67578 236.51562 L 542.75 236.51562 L 542.75 209.89648 C 542.75 204.42248 540.22773 201.67187 535.17773 201.67188 C 533.73773 201.67188 532.2927 202.06573 530.8457 203.05273 C 529.5817 203.82873 528.68303 204.82042 527.95703 205.98242 L 527.95703 236.51562 L 518.22266 236.51562 L 518.22266 208.53125 C 518.22266 206.37525 517.50142 204.6155 516.23242 203.4375 C 514.97842 202.2635 513.17122 201.67187 510.82422 201.67188 C 509.55722 201.67188 508.11483 202.06573 506.67383 203.05273 C 505.23683 204.02473 504.14973 205.00642 503.42773 205.98242 L 503.42773 236.51562 L 493.68945 236.51562 L 493.68945 194.4375 L 500.36719 194.4375 L 502.52734 198.16016 C 505.23634 195.02216 508.66486 193.6543 513.17188 193.6543 z M 465.36523 201.48633 C 462.30423 201.48633 459.7757 202.65781 457.9707 205.00781 C 456.1737 207.55381 455.26953 210.8725 455.26953 215.1875 C 455.26953 224.5745 458.69323 229.26758 465.36523 229.26758 C 468.43523 229.26758 470.95964 227.90664 472.76562 225.55664 C 474.56662 223.21064 475.4668 219.6775 475.4668 215.1875 C 475.4668 205.9835 472.04323 201.48633 465.36523 201.48633 z M 376.25586 208.53125 C 382.03286 208.53125 386.9043 213.81566 386.9043 220.47266 C 386.9043 226.91866 382.03286 232.20898 376.25586 232.20898 C 370.30386 232.20898 365.43359 226.91866 365.43359 220.47266 C 365.43359 213.81566 370.30386 208.53125 376.25586 208.53125 z "
     id="Fill-1" />
</svg>
